<?xml version="1.0" standalone="no"?>
 <!DOCTYPE svg PUBLIC "-//W3C//DTD SVG 1.1//EN" 
 "http://www.w3.org/Graphics/SVG/1.1/DTD/svg11.dtd"> 
<svg xmlns="http://www.w3.org/2000/svg" version="1.1" 
    width="29.7002cm" height="21.0007cm" viewBox="0 0 116930 82680 ">
<title>SVG Picture created as temperature-sensor-DS1731.svg date 2017/12/04 02:36:09 </title>
  <desc>Picture generated by Eeschema-SVG </desc>
<g style="fill:#000000; fill-opacity:1;stroke:#000000; stroke-opacity:1;
stroke-linecap:round; stroke-linejoin:round; "
 transform="translate(0 0) scale(1 1)">
</g>
<g style="fill:#000000; fill-opacity:0.0; 
stroke:#000000; stroke-width:-10; stroke-opacity:1; 
stroke-linecap:round; stroke-linejoin:round;">
</g>
<g style="fill:#840000; fill-opacity:0.0; 
stroke:#840000; stroke-width:-10; stroke-opacity:1; 
stroke-linecap:round; stroke-linejoin:round;">
</g>
<g style="fill:#840000; fill-opacity:0.0; 
stroke:#840000; stroke-width:100; stroke-opacity:1; 
stroke-linecap:round; stroke-linejoin:round;">
</g>
<g style="fill:#840000; fill-opacity:0.0; 
stroke:#840000; stroke-width:60; stroke-opacity:1; 
stroke-linecap:round; stroke-linejoin:round;">
<rect x="69690" y="65360" width="42520" height="12600" rx="0" />
</g>
<g style="fill:#840000; fill-opacity:0.0; 
stroke:#840000; stroke-width:100; stroke-opacity:1; 
stroke-linecap:round; stroke-linejoin:round;">
</g>
<g style="fill:#840000; fill-opacity:0.0; 
stroke:#840000; stroke-width:60; stroke-opacity:1; 
stroke-linecap:round; stroke-linejoin:round;">
<rect x="3940" y="3940" width="109050" height="74800" rx="0" />
</g>
<g style="fill:#840000; fill-opacity:0.0; 
stroke:#840000; stroke-width:100; stroke-opacity:1; 
stroke-linecap:round; stroke-linejoin:round;">
</g>
<g style="fill:#840000; fill-opacity:0.0; 
stroke:#840000; stroke-width:60; stroke-opacity:1; 
stroke-linecap:round; stroke-linejoin:round;">
<rect x="4720" y="4720" width="107490" height="73240" rx="0" />
</g>
<g style="fill:#840000; fill-opacity:0.0; 
stroke:#840000; stroke-width:100; stroke-opacity:1; 
stroke-linecap:round; stroke-linejoin:round;">
</g>
<g style="fill:#840000; fill-opacity:0.0; 
stroke:#840000; stroke-width:60; stroke-opacity:1; 
stroke-linecap:round; stroke-linejoin:round;">
<path d="M23620 4720
L23620 3940
" />
</g>
<g style="fill:#840000; fill-opacity:0.0; 
stroke:#840000; stroke-width:100; stroke-opacity:1; 
stroke-linecap:round; stroke-linejoin:round;">
</g>
<g style="fill:#840000; fill-opacity:0.0; 
stroke:#840000; stroke-width:60; stroke-opacity:1; 
stroke-linecap:round; stroke-linejoin:round;">
<path d="M43310 4720
L43310 3940
" />
</g>
<g style="fill:#840000; fill-opacity:0.0; 
stroke:#840000; stroke-width:100; stroke-opacity:1; 
stroke-linecap:round; stroke-linejoin:round;">
</g>
<g style="fill:#840000; fill-opacity:0.0; 
stroke:#840000; stroke-width:60; stroke-opacity:1; 
stroke-linecap:round; stroke-linejoin:round;">
<path d="M62990 4720
L62990 3940
" />
</g>
<g style="fill:#840000; fill-opacity:0.0; 
stroke:#840000; stroke-width:100; stroke-opacity:1; 
stroke-linecap:round; stroke-linejoin:round;">
</g>
<g style="fill:#840000; fill-opacity:0.0; 
stroke:#840000; stroke-width:60; stroke-opacity:1; 
stroke-linecap:round; stroke-linejoin:round;">
<path d="M82680 4720
L82680 3940
" />
</g>
<g style="fill:#840000; fill-opacity:0.0; 
stroke:#840000; stroke-width:100; stroke-opacity:1; 
stroke-linecap:round; stroke-linejoin:round;">
</g>
<g style="fill:#840000; fill-opacity:0.0; 
stroke:#840000; stroke-width:60; stroke-opacity:1; 
stroke-linecap:round; stroke-linejoin:round;">
<path d="M102360 4720
L102360 3940
" />
</g>
<g style="fill:#840000; fill-opacity:0.0; 
stroke:#840000; stroke-width:100; stroke-opacity:1; 
stroke-linecap:round; stroke-linejoin:round;">
</g>
<g style="fill:#840000; fill-opacity:0.0; 
stroke:#840000; stroke-width:60; stroke-opacity:1; 
stroke-linecap:round; stroke-linejoin:round;">
<path d="M14170 4560
L13880 4560
" />
<path d="M14020 4560
L14020 4050
L13970 4120
L13930 4170
L13880 4190
" />
</g>
<g style="fill:#840000; fill-opacity:0.0; 
stroke:#840000; stroke-width:100; stroke-opacity:1; 
stroke-linecap:round; stroke-linejoin:round;">
</g>
<g style="fill:#840000; fill-opacity:0.0; 
stroke:#840000; stroke-width:60; stroke-opacity:1; 
stroke-linecap:round; stroke-linejoin:round;">
<path d="M33560 4090
L33580 4070
L33630 4050
L33750 4050
L33800 4070
L33820 4090
L33850 4140
L33850 4190
L33820 4260
L33530 4560
L33850 4560
" />
</g>
<g style="fill:#840000; fill-opacity:0.0; 
stroke:#840000; stroke-width:100; stroke-opacity:1; 
stroke-linecap:round; stroke-linejoin:round;">
</g>
<g style="fill:#840000; fill-opacity:0.0; 
stroke:#840000; stroke-width:60; stroke-opacity:1; 
stroke-linecap:round; stroke-linejoin:round;">
<path d="M53220 4050
L53540 4050
L53370 4240
L53440 4240
L53490 4260
L53510 4290
L53540 4340
L53540 4460
L53510 4510
L53490 4530
L53440 4560
L53300 4560
L53250 4530
L53220 4510
" />
</g>
<g style="fill:#840000; fill-opacity:0.0; 
stroke:#840000; stroke-width:100; stroke-opacity:1; 
stroke-linecap:round; stroke-linejoin:round;">
</g>
<g style="fill:#840000; fill-opacity:0.0; 
stroke:#840000; stroke-width:60; stroke-opacity:1; 
stroke-linecap:round; stroke-linejoin:round;">
<path d="M73170 4220
L73170 4560
" />
<path d="M73050 4020
L72930 4390
L73240 4390
" />
</g>
<g style="fill:#840000; fill-opacity:0.0; 
stroke:#840000; stroke-width:100; stroke-opacity:1; 
stroke-linecap:round; stroke-linejoin:round;">
</g>
<g style="fill:#840000; fill-opacity:0.0; 
stroke:#840000; stroke-width:60; stroke-opacity:1; 
stroke-linecap:round; stroke-linejoin:round;">
<path d="M92880 4050
L92640 4050
L92620 4290
L92640 4260
L92690 4240
L92810 4240
L92860 4260
L92880 4290
L92910 4340
L92910 4460
L92880 4510
L92860 4530
L92810 4560
L92690 4560
L92640 4530
L92620 4510
" />
</g>
<g style="fill:#840000; fill-opacity:0.0; 
stroke:#840000; stroke-width:100; stroke-opacity:1; 
stroke-linecap:round; stroke-linejoin:round;">
</g>
<g style="fill:#840000; fill-opacity:0.0; 
stroke:#840000; stroke-width:60; stroke-opacity:1; 
stroke-linecap:round; stroke-linejoin:round;">
<path d="M112540 4050
L112440 4050
L112390 4070
L112370 4090
L112320 4170
L112300 4260
L112300 4460
L112320 4510
L112350 4530
L112390 4560
L112490 4560
L112540 4530
L112560 4510
L112590 4460
L112590 4340
L112560 4290
L112540 4260
L112490 4240
L112390 4240
L112350 4260
L112320 4290
L112300 4340
" />
</g>
<g style="fill:#840000; fill-opacity:0.0; 
stroke:#840000; stroke-width:100; stroke-opacity:1; 
stroke-linecap:round; stroke-linejoin:round;">
</g>
<g style="fill:#840000; fill-opacity:0.0; 
stroke:#840000; stroke-width:60; stroke-opacity:1; 
stroke-linecap:round; stroke-linejoin:round;">
<path d="M23620 77960
L23620 78740
" />
</g>
<g style="fill:#840000; fill-opacity:0.0; 
stroke:#840000; stroke-width:100; stroke-opacity:1; 
stroke-linecap:round; stroke-linejoin:round;">
</g>
<g style="fill:#840000; fill-opacity:0.0; 
stroke:#840000; stroke-width:60; stroke-opacity:1; 
stroke-linecap:round; stroke-linejoin:round;">
<path d="M43310 77960
L43310 78740
" />
</g>
<g style="fill:#840000; fill-opacity:0.0; 
stroke:#840000; stroke-width:100; stroke-opacity:1; 
stroke-linecap:round; stroke-linejoin:round;">
</g>
<g style="fill:#840000; fill-opacity:0.0; 
stroke:#840000; stroke-width:60; stroke-opacity:1; 
stroke-linecap:round; stroke-linejoin:round;">
<path d="M62990 77960
L62990 78740
" />
</g>
<g style="fill:#840000; fill-opacity:0.0; 
stroke:#840000; stroke-width:100; stroke-opacity:1; 
stroke-linecap:round; stroke-linejoin:round;">
</g>
<g style="fill:#840000; fill-opacity:0.0; 
stroke:#840000; stroke-width:60; stroke-opacity:1; 
stroke-linecap:round; stroke-linejoin:round;">
<path d="M82680 77960
L82680 78740
" />
</g>
<g style="fill:#840000; fill-opacity:0.0; 
stroke:#840000; stroke-width:100; stroke-opacity:1; 
stroke-linecap:round; stroke-linejoin:round;">
</g>
<g style="fill:#840000; fill-opacity:0.0; 
stroke:#840000; stroke-width:60; stroke-opacity:1; 
stroke-linecap:round; stroke-linejoin:round;">
<path d="M102360 77960
L102360 78740
" />
</g>
<g style="fill:#840000; fill-opacity:0.0; 
stroke:#840000; stroke-width:100; stroke-opacity:1; 
stroke-linecap:round; stroke-linejoin:round;">
</g>
<g style="fill:#840000; fill-opacity:0.0; 
stroke:#840000; stroke-width:60; stroke-opacity:1; 
stroke-linecap:round; stroke-linejoin:round;">
<path d="M14170 78580
L13880 78580
" />
<path d="M14020 78580
L14020 78070
L13970 78140
L13930 78190
L13880 78210
" />
</g>
<g style="fill:#840000; fill-opacity:0.0; 
stroke:#840000; stroke-width:100; stroke-opacity:1; 
stroke-linecap:round; stroke-linejoin:round;">
</g>
<g style="fill:#840000; fill-opacity:0.0; 
stroke:#840000; stroke-width:60; stroke-opacity:1; 
stroke-linecap:round; stroke-linejoin:round;">
<path d="M33560 78110
L33580 78090
L33630 78070
L33750 78070
L33800 78090
L33820 78110
L33850 78160
L33850 78210
L33820 78280
L33530 78580
L33850 78580
" />
</g>
<g style="fill:#840000; fill-opacity:0.0; 
stroke:#840000; stroke-width:100; stroke-opacity:1; 
stroke-linecap:round; stroke-linejoin:round;">
</g>
<g style="fill:#840000; fill-opacity:0.0; 
stroke:#840000; stroke-width:60; stroke-opacity:1; 
stroke-linecap:round; stroke-linejoin:round;">
<path d="M53220 78070
L53540 78070
L53370 78260
L53440 78260
L53490 78280
L53510 78310
L53540 78360
L53540 78480
L53510 78530
L53490 78550
L53440 78580
L53300 78580
L53250 78550
L53220 78530
" />
</g>
<g style="fill:#840000; fill-opacity:0.0; 
stroke:#840000; stroke-width:100; stroke-opacity:1; 
stroke-linecap:round; stroke-linejoin:round;">
</g>
<g style="fill:#840000; fill-opacity:0.0; 
stroke:#840000; stroke-width:60; stroke-opacity:1; 
stroke-linecap:round; stroke-linejoin:round;">
<path d="M73170 78240
L73170 78580
" />
<path d="M73050 78040
L72930 78410
L73240 78410
" />
</g>
<g style="fill:#840000; fill-opacity:0.0; 
stroke:#840000; stroke-width:100; stroke-opacity:1; 
stroke-linecap:round; stroke-linejoin:round;">
</g>
<g style="fill:#840000; fill-opacity:0.0; 
stroke:#840000; stroke-width:60; stroke-opacity:1; 
stroke-linecap:round; stroke-linejoin:round;">
<path d="M92880 78070
L92640 78070
L92620 78310
L92640 78280
L92690 78260
L92810 78260
L92860 78280
L92880 78310
L92910 78360
L92910 78480
L92880 78530
L92860 78550
L92810 78580
L92690 78580
L92640 78550
L92620 78530
" />
</g>
<g style="fill:#840000; fill-opacity:0.0; 
stroke:#840000; stroke-width:100; stroke-opacity:1; 
stroke-linecap:round; stroke-linejoin:round;">
</g>
<g style="fill:#840000; fill-opacity:0.0; 
stroke:#840000; stroke-width:60; stroke-opacity:1; 
stroke-linecap:round; stroke-linejoin:round;">
<path d="M112540 78070
L112440 78070
L112390 78090
L112370 78110
L112320 78190
L112300 78280
L112300 78480
L112320 78530
L112350 78550
L112390 78580
L112490 78580
L112540 78550
L112560 78530
L112590 78480
L112590 78360
L112560 78310
L112540 78280
L112490 78260
L112390 78260
L112350 78280
L112320 78310
L112300 78360
" />
</g>
<g style="fill:#840000; fill-opacity:0.0; 
stroke:#840000; stroke-width:100; stroke-opacity:1; 
stroke-linecap:round; stroke-linejoin:round;">
</g>
<g style="fill:#840000; fill-opacity:0.0; 
stroke:#840000; stroke-width:60; stroke-opacity:1; 
stroke-linecap:round; stroke-linejoin:round;">
<path d="M3940 23620
L4720 23620
" />
</g>
<g style="fill:#840000; fill-opacity:0.0; 
stroke:#840000; stroke-width:100; stroke-opacity:1; 
stroke-linecap:round; stroke-linejoin:round;">
</g>
<g style="fill:#840000; fill-opacity:0.0; 
stroke:#840000; stroke-width:60; stroke-opacity:1; 
stroke-linecap:round; stroke-linejoin:round;">
<path d="M3940 43310
L4720 43310
" />
</g>
<g style="fill:#840000; fill-opacity:0.0; 
stroke:#840000; stroke-width:100; stroke-opacity:1; 
stroke-linecap:round; stroke-linejoin:round;">
</g>
<g style="fill:#840000; fill-opacity:0.0; 
stroke:#840000; stroke-width:60; stroke-opacity:1; 
stroke-linecap:round; stroke-linejoin:round;">
<path d="M3940 62990
L4720 62990
" />
</g>
<g style="fill:#840000; fill-opacity:0.0; 
stroke:#840000; stroke-width:100; stroke-opacity:1; 
stroke-linecap:round; stroke-linejoin:round;">
</g>
<g style="fill:#840000; fill-opacity:0.0; 
stroke:#840000; stroke-width:60; stroke-opacity:1; 
stroke-linecap:round; stroke-linejoin:round;">
<path d="M4210 13860
L4450 13860
" />
<path d="M4160 14010
L4330 13500
L4500 14010
" />
</g>
<g style="fill:#840000; fill-opacity:0.0; 
stroke:#840000; stroke-width:100; stroke-opacity:1; 
stroke-linecap:round; stroke-linejoin:round;">
</g>
<g style="fill:#840000; fill-opacity:0.0; 
stroke:#840000; stroke-width:60; stroke-opacity:1; 
stroke-linecap:round; stroke-linejoin:round;">
<path d="M4370 33420
L4440 33440
L4470 33470
L4490 33520
L4490 33590
L4470 33640
L4440 33660
L4400 33690
L4200 33690
L4200 33180
L4370 33180
L4420 33200
L4440 33220
L4470 33270
L4470 33320
L4440 33370
L4420 33390
L4370 33420
L4200 33420
" />
</g>
<g style="fill:#840000; fill-opacity:0.0; 
stroke:#840000; stroke-width:100; stroke-opacity:1; 
stroke-linecap:round; stroke-linejoin:round;">
</g>
<g style="fill:#840000; fill-opacity:0.0; 
stroke:#840000; stroke-width:60; stroke-opacity:1; 
stroke-linecap:round; stroke-linejoin:round;">
<path d="M4490 53330
L4470 53350
L4400 53380
L4350 53380
L4270 53350
L4230 53300
L4200 53250
L4180 53160
L4180 53080
L4200 52990
L4230 52940
L4270 52890
L4350 52870
L4400 52870
L4470 52890
L4490 52910
" />
</g>
<g style="fill:#840000; fill-opacity:0.0; 
stroke:#840000; stroke-width:100; stroke-opacity:1; 
stroke-linecap:round; stroke-linejoin:round;">
</g>
<g style="fill:#840000; fill-opacity:0.0; 
stroke:#840000; stroke-width:60; stroke-opacity:1; 
stroke-linecap:round; stroke-linejoin:round;">
<path d="M4200 73060
L4200 72550
L4320 72550
L4400 72570
L4440 72620
L4470 72670
L4490 72760
L4490 72840
L4470 72930
L4440 72980
L4400 73030
L4320 73060
L4200 73060
" />
</g>
<g style="fill:#840000; fill-opacity:0.0; 
stroke:#840000; stroke-width:100; stroke-opacity:1; 
stroke-linecap:round; stroke-linejoin:round;">
</g>
<g style="fill:#840000; fill-opacity:0.0; 
stroke:#840000; stroke-width:60; stroke-opacity:1; 
stroke-linecap:round; stroke-linejoin:round;">
<path d="M112990 23620
L112210 23620
" />
</g>
<g style="fill:#840000; fill-opacity:0.0; 
stroke:#840000; stroke-width:100; stroke-opacity:1; 
stroke-linecap:round; stroke-linejoin:round;">
</g>
<g style="fill:#840000; fill-opacity:0.0; 
stroke:#840000; stroke-width:60; stroke-opacity:1; 
stroke-linecap:round; stroke-linejoin:round;">
<path d="M112990 43310
L112210 43310
" />
</g>
<g style="fill:#840000; fill-opacity:0.0; 
stroke:#840000; stroke-width:100; stroke-opacity:1; 
stroke-linecap:round; stroke-linejoin:round;">
</g>
<g style="fill:#840000; fill-opacity:0.0; 
stroke:#840000; stroke-width:60; stroke-opacity:1; 
stroke-linecap:round; stroke-linejoin:round;">
<path d="M112990 62990
L112210 62990
" />
</g>
<g style="fill:#840000; fill-opacity:0.0; 
stroke:#840000; stroke-width:100; stroke-opacity:1; 
stroke-linecap:round; stroke-linejoin:round;">
</g>
<g style="fill:#840000; fill-opacity:0.0; 
stroke:#840000; stroke-width:60; stroke-opacity:1; 
stroke-linecap:round; stroke-linejoin:round;">
<path d="M112480 13860
L112720 13860
" />
<path d="M112430 14010
L112600 13500
L112770 14010
" />
</g>
<g style="fill:#840000; fill-opacity:0.0; 
stroke:#840000; stroke-width:100; stroke-opacity:1; 
stroke-linecap:round; stroke-linejoin:round;">
</g>
<g style="fill:#840000; fill-opacity:0.0; 
stroke:#840000; stroke-width:60; stroke-opacity:1; 
stroke-linecap:round; stroke-linejoin:round;">
<path d="M112640 33420
L112710 33440
L112740 33470
L112760 33520
L112760 33590
L112740 33640
L112710 33660
L112670 33690
L112470 33690
L112470 33180
L112640 33180
L112690 33200
L112710 33220
L112740 33270
L112740 33320
L112710 33370
L112690 33390
L112640 33420
L112470 33420
" />
</g>
<g style="fill:#840000; fill-opacity:0.0; 
stroke:#840000; stroke-width:100; stroke-opacity:1; 
stroke-linecap:round; stroke-linejoin:round;">
</g>
<g style="fill:#840000; fill-opacity:0.0; 
stroke:#840000; stroke-width:60; stroke-opacity:1; 
stroke-linecap:round; stroke-linejoin:round;">
<path d="M112760 53330
L112740 53350
L112670 53380
L112620 53380
L112540 53350
L112500 53300
L112470 53250
L112450 53160
L112450 53080
L112470 52990
L112500 52940
L112540 52890
L112620 52870
L112670 52870
L112740 52890
L112760 52910
" />
</g>
<g style="fill:#840000; fill-opacity:0.0; 
stroke:#840000; stroke-width:100; stroke-opacity:1; 
stroke-linecap:round; stroke-linejoin:round;">
</g>
<g style="fill:#840000; fill-opacity:0.0; 
stroke:#840000; stroke-width:60; stroke-opacity:1; 
stroke-linecap:round; stroke-linejoin:round;">
<path d="M112470 73060
L112470 72550
L112590 72550
L112670 72570
L112710 72620
L112740 72670
L112760 72760
L112760 72840
L112740 72930
L112710 72980
L112670 73030
L112590 73060
L112470 73060
" />
</g>
<g style="fill:#840000; fill-opacity:0.0; 
stroke:#840000; stroke-width:100; stroke-opacity:1; 
stroke-linecap:round; stroke-linejoin:round;">
</g>
<g style="fill:#840000; fill-opacity:0.0; 
stroke:#840000; stroke-width:60; stroke-opacity:1; 
stroke-linecap:round; stroke-linejoin:round;">
<path d="M78880 76290
L78880 75700
L79020 75700
L79110 75730
L79160 75790
L79190 75840
L79220 75950
L79220 76040
L79190 76150
L79160 76210
L79110 76260
L79020 76290
L78880 76290
" />
<path d="M79720 76290
L79720 75980
L79700 75930
L79640 75900
L79530 75900
L79470 75930
" />
<path d="M79720 76260
L79670 76290
L79530 76290
L79470 76260
L79440 76210
L79440 76150
L79470 76100
L79530 76070
L79670 76070
L79720 76040
" />
<path d="M79920 75900
L80140 75900
" />
<path d="M80000 75700
L80000 76210
L80030 76260
L80080 76290
L80140 76290
" />
<path d="M80570 76260
L80510 76290
L80400 76290
L80340 76260
L80310 76210
L80310 75980
L80340 75930
L80400 75900
L80510 75900
L80570 75930
L80590 75980
L80590 76040
L80310 76100
" />
<path d="M80850 76240
L80880 76260
L80850 76290
L80820 76260
L80850 76240
L80850 76290
" />
<path d="M80850 75930
L80880 75950
L80850 75980
L80820 75950
L80850 75930
L80850 75980
" />
<path d="M81550 75760
L81580 75730
L81640 75700
L81780 75700
L81830 75730
L81860 75760
L81890 75810
L81890 75870
L81860 75950
L81520 76290
L81890 76290
" />
<path d="M82250 75700
L82310 75700
L82370 75730
L82390 75760
L82420 75810
L82450 75930
L82450 76070
L82420 76180
L82390 76240
L82370 76260
L82310 76290
L82250 76290
L82200 76260
L82170 76240
L82140 76180
L82110 76070
L82110 75930
L82140 75810
L82170 75760
L82200 75730
L82250 75700
" />
<path d="M83010 76290
L82670 76290
" />
<path d="M82840 76290
L82840 75700
L82780 75790
L82730 75840
L82670 75870
" />
<path d="M83200 75700
L83600 75700
L83340 76290
" />
<path d="M83820 76070
L84270 76070
" />
<path d="M84660 75700
L84720 75700
L84780 75730
L84800 75760
L84830 75810
L84860 75930
L84860 76070
L84830 76180
L84800 76240
L84780 76260
L84720 76290
L84660 76290
L84610 76260
L84580 76240
L84550 76180
L84520 76070
L84520 75930
L84550 75810
L84580 75760
L84610 75730
L84660 75700
" />
<path d="M85390 75700
L85110 75700
L85080 75980
L85110 75950
L85170 75930
L85310 75930
L85360 75950
L85390 75980
L85420 76040
L85420 76180
L85390 76240
L85360 76260
L85310 76290
L85170 76290
L85110 76260
L85080 76240
" />
<path d="M85670 76070
L86120 76070
" />
<path d="M86370 75760
L86400 75730
L86460 75700
L86600 75700
L86650 75730
L86680 75760
L86710 75810
L86710 75870
L86680 75950
L86340 76290
L86710 76290
" />
<path d="M86930 75760
L86960 75730
L87020 75700
L87160 75700
L87210 75730
L87240 75760
L87270 75810
L87270 75870
L87240 75950
L86900 76290
L87270 76290
" />
</g>
<g style="fill:#840000; fill-opacity:0.0; 
stroke:#840000; stroke-width:100; stroke-opacity:1; 
stroke-linecap:round; stroke-linejoin:round;">
</g>
<g style="fill:#840000; fill-opacity:0.0; 
stroke:#840000; stroke-width:60; stroke-opacity:1; 
stroke-linecap:round; stroke-linejoin:round;">
<path d="M69690 76580
L112210 76580
" />
</g>
<g style="fill:#840000; fill-opacity:0.0; 
stroke:#840000; stroke-width:100; stroke-opacity:1; 
stroke-linecap:round; stroke-linejoin:round;">
</g>
<g style="fill:#840000; fill-opacity:0.0; 
stroke:#840000; stroke-width:60; stroke-opacity:1; 
stroke-linecap:round; stroke-linejoin:round;">
<path d="M70220 77390
L70220 76800
" />
<path d="M70560 77390
L70300 77050
" />
<path d="M70560 76800
L70220 77140
" />
<path d="M70810 77390
L70810 77000
" />
<path d="M70810 76800
L70780 76830
L70810 76860
L70840 76830
L70810 76800
L70810 76860
" />
<path d="M71430 77340
L71400 77360
L71320 77390
L71260 77390
L71170 77360
L71120 77310
L71090 77250
L71060 77140
L71060 77050
L71090 76940
L71120 76890
L71170 76830
L71260 76800
L71320 76800
L71400 76830
L71430 76860
" />
<path d="M71930 77390
L71930 77080
L71910 77030
L71850 77000
L71740 77000
L71680 77030
" />
<path d="M71930 77360
L71880 77390
L71740 77390
L71680 77360
L71650 77310
L71650 77250
L71680 77200
L71740 77170
L71880 77170
L71930 77140
" />
<path d="M72460 77390
L72460 76800
" />
<path d="M72460 77360
L72410 77390
L72290 77390
L72240 77360
L72210 77340
L72180 77280
L72180 77110
L72210 77050
L72240 77030
L72290 77000
L72410 77000
L72460 77030
" />
<path d="M73190 77080
L73390 77080
" />
<path d="M73470 77390
L73190 77390
L73190 76800
L73470 76800
" />
<path d="M73720 77340
L73750 77360
L73720 77390
L73690 77360
L73720 77340
L73720 77390
" />
<path d="M74000 77390
L74000 76800
L74140 76800
L74230 76830
L74280 76890
L74310 76940
L74340 77050
L74340 77140
L74310 77250
L74280 77310
L74230 77360
L74140 77390
L74000 77390
" />
<path d="M74590 77340
L74620 77360
L74590 77390
L74560 77360
L74590 77340
L74590 77390
" />
<path d="M74840 77220
L75120 77220
" />
<path d="M74790 77390
L74980 76800
L75180 77390
" />
<path d="M75380 77340
L75410 77360
L75380 77390
L75350 77360
L75380 77340
L75380 77390
" />
<path d="M76560 77390
L76560 76800
" />
<path d="M76620 77170
L76790 77390
" />
<path d="M76790 77000
L76560 77220
" />
<path d="M77040 77390
L77040 77000
" />
<path d="M77040 76800
L77010 76830
L77040 76860
L77070 76830
L77040 76800
L77040 76860
" />
<path d="M77570 77360
L77520 77390
L77400 77390
L77350 77360
L77320 77340
L77290 77280
L77290 77110
L77320 77050
L77350 77030
L77400 77000
L77520 77000
L77570 77030
" />
<path d="M78080 77390
L78080 77080
L78060 77030
L78000 77000
L77890 77000
L77830 77030
" />
<path d="M78080 77360
L78030 77390
L77890 77390
L77830 77360
L77800 77310
L77800 77250
L77830 77200
L77890 77170
L78030 77170
L78080 77140
" />
<path d="M78610 77390
L78610 76800
" />
<path d="M78610 77360
L78560 77390
L78440 77390
L78390 77360
L78360 77340
L78330 77280
L78330 77110
L78360 77050
L78390 77030
L78440 77000
L78560 77000
L78610 77030
" />
<path d="M79590 77000
L79590 77390
" />
<path d="M79450 76770
L79310 77200
L79680 77200
" />
<path d="M79900 77340
L79930 77360
L79900 77390
L79870 77360
L79900 77340
L79900 77390
" />
<path d="M80290 76800
L80350 76800
L80410 76830
L80430 76860
L80460 76910
L80490 77030
L80490 77170
L80460 77280
L80430 77340
L80410 77360
L80350 77390
L80290 77390
L80240 77360
L80210 77340
L80180 77280
L80150 77170
L80150 77030
L80180 76910
L80210 76860
L80240 76830
L80290 76800
" />
<path d="M80740 77340
L80770 77360
L80740 77390
L80710 77360
L80740 77340
L80740 77390
" />
<path d="M81270 76800
L81160 76800
L81100 76830
L81080 76860
L81020 76940
L80990 77050
L80990 77280
L81020 77340
L81050 77360
L81100 77390
L81220 77390
L81270 77360
L81300 77340
L81330 77280
L81330 77140
L81300 77080
L81270 77050
L81220 77030
L81100 77030
L81050 77050
L81020 77080
L80990 77140
" />
</g>
<g style="fill:#840000; fill-opacity:0.0; 
stroke:#840000; stroke-width:100; stroke-opacity:1; 
stroke-linecap:round; stroke-linejoin:round;">
</g>
<g style="fill:#840000; fill-opacity:0.0; 
stroke:#840000; stroke-width:60; stroke-opacity:1; 
stroke-linecap:round; stroke-linejoin:round;">
<path d="M69690 75400
L112210 75400
" />
</g>
<g style="fill:#840000; fill-opacity:0.0; 
stroke:#840000; stroke-width:100; stroke-opacity:1; 
stroke-linecap:round; stroke-linejoin:round;">
</g>
<g style="fill:#840000; fill-opacity:0.0; 
stroke:#840000; stroke-width:120; stroke-opacity:1; 
stroke-linecap:round; stroke-linejoin:round;">
<path d="M104020 76290
L103820 76010
" />
<path d="M103680 76290
L103680 75700
L103910 75700
L103960 75730
L103990 75760
L104020 75810
L104020 75900
L103990 75950
L103960 75980
L103910 76010
L103680 76010
" />
<path d="M104500 76260
L104440 76290
L104330 76290
L104270 76260
L104240 76210
L104240 75980
L104270 75930
L104330 75900
L104440 75900
L104500 75930
L104520 75980
L104520 76040
L104240 76100
" />
<path d="M104720 75900
L104860 76290
L105010 75900
" />
<path d="M105230 76240
L105260 76260
L105230 76290
L105200 76260
L105230 76240
L105230 76290
" />
<path d="M105230 75930
L105260 75950
L105230 75980
L105200 75950
L105230 75930
L105230 75980
" />
<path d="M105930 75760
L105960 75730
L106020 75700
L106160 75700
L106210 75730
L106240 75760
L106270 75810
L106270 75870
L106240 75950
L105900 76290
L106270 76290
" />
</g>
<g style="fill:#840000; fill-opacity:0.0; 
stroke:#840000; stroke-width:100; stroke-opacity:1; 
stroke-linecap:round; stroke-linejoin:round;">
</g>
<g style="fill:#840000; fill-opacity:0.0; 
stroke:#840000; stroke-width:60; stroke-opacity:1; 
stroke-linecap:round; stroke-linejoin:round;">
<path d="M70190 76260
L70280 76290
L70420 76290
L70470 76260
L70500 76240
L70530 76180
L70530 76120
L70500 76070
L70470 76040
L70420 76010
L70300 75980
L70250 75950
L70220 75930
L70190 75870
L70190 75810
L70220 75760
L70250 75730
L70300 75700
L70450 75700
L70530 75730
" />
<path d="M70780 76290
L70780 75900
" />
<path d="M70780 75700
L70750 75730
L70780 75760
L70810 75730
L70780 75700
L70780 75760
" />
<path d="M71000 75900
L71310 75900
L71000 76290
L71310 76290
" />
<path d="M71770 76260
L71710 76290
L71600 76290
L71540 76260
L71510 76210
L71510 75980
L71540 75930
L71600 75900
L71710 75900
L71770 75930
L71790 75980
L71790 76040
L71510 76100
" />
<path d="M72050 76240
L72080 76260
L72050 76290
L72020 76260
L72050 76240
L72050 76290
" />
<path d="M72050 75930
L72080 75950
L72050 75980
L72020 75950
L72050 75930
L72050 75980
" />
<path d="M72750 76120
L73030 76120
" />
<path d="M72700 76290
L72890 75700
L73090 76290
" />
<path d="M73540 75900
L73540 76290
" />
<path d="M73400 75670
L73260 76100
L73630 76100
" />
</g>
<g style="fill:#840000; fill-opacity:0.0; 
stroke:#840000; stroke-width:100; stroke-opacity:1; 
stroke-linecap:round; stroke-linejoin:round;">
</g>
<g style="fill:#840000; fill-opacity:0.0; 
stroke:#840000; stroke-width:60; stroke-opacity:1; 
stroke-linecap:round; stroke-linejoin:round;">
<path d="M103680 77390
L103680 76800
" />
<path d="M104210 77390
L104210 76800
" />
<path d="M104210 77360
L104160 77390
L104040 77390
L103990 77360
L103960 77340
L103930 77280
L103930 77110
L103960 77050
L103990 77030
L104040 77000
L104160 77000
L104210 77030
" />
<path d="M104490 77340
L104520 77360
L104490 77390
L104460 77360
L104490 77340
L104490 77390
" />
<path d="M104490 77030
L104520 77050
L104490 77080
L104460 77050
L104490 77030
L104490 77080
" />
<path d="M105530 77390
L105190 77390
" />
<path d="M105360 77390
L105360 76800
L105300 76890
L105250 76940
L105190 76970
" />
<path d="M106200 76770
L105700 77530
" />
<path d="M106710 77390
L106370 77390
" />
<path d="M106540 77390
L106540 76800
L106480 76890
L106430 76940
L106370 76970
" />
</g>
<g style="fill:#840000; fill-opacity:0.0; 
stroke:#840000; stroke-width:100; stroke-opacity:1; 
stroke-linecap:round; stroke-linejoin:round;">
</g>
<g style="fill:#840000; fill-opacity:0.0; 
stroke:#840000; stroke-width:60; stroke-opacity:1; 
stroke-linecap:round; stroke-linejoin:round;">
<path d="M69690 73820
L112210 73820
" />
</g>
<g style="fill:#840000; fill-opacity:0.0; 
stroke:#840000; stroke-width:100; stroke-opacity:1; 
stroke-linecap:round; stroke-linejoin:round;">
</g>
<g style="fill:#840000; fill-opacity:0.0; 
stroke:#840000; stroke-width:160; stroke-opacity:1; 
stroke-linecap:round; stroke-linejoin:round;">
<path d="M70260 74090
L70710 74090
" />
<path d="M70390 74880
L70480 74090
" />
<path d="M70880 74880
L70940 74360
" />
<path d="M70970 74090
L70930 74130
L70960 74170
L71010 74130
L70970 74090
L70960 74170
" />
<path d="M71210 74360
L71510 74360
" />
<path d="M71350 74090
L71270 74770
L71300 74840
L71370 74880
L71450 74880
" />
<path d="M71820 74880
L71750 74840
L71720 74770
L71800 74090
" />
<path d="M72420 74840
L72340 74880
L72190 74880
L72120 74840
L72090 74770
L72130 74470
L72180 74390
L72250 74360
L72400 74360
L72480 74390
L72510 74470
L72500 74540
L72110 74620
" />
<path d="M72800 74810
L72840 74840
L72800 74880
L72760 74840
L72800 74810
L72800 74880
" />
<path d="M72860 74390
L72890 74430
L72850 74470
L72810 74430
L72860 74390
L72850 74470
" />
<path d="M73760 74090
L74210 74090
" />
<path d="M73890 74880
L73980 74090
" />
<path d="M74680 74840
L74600 74880
L74450 74880
L74380 74840
L74350 74770
L74390 74470
L74440 74390
L74510 74360
L74660 74360
L74740 74390
L74770 74470
L74760 74540
L74370 74620
" />
<path d="M75060 74880
L75120 74360
" />
<path d="M75110 74430
L75160 74390
L75230 74360
L75340 74360
L75420 74390
L75450 74470
L75400 74880
" />
<path d="M75450 74470
L75490 74390
L75570 74360
L75680 74360
L75760 74390
L75790 74470
L75740 74880
" />
<path d="M76170 74360
L76070 75150
" />
<path d="M76170 74390
L76240 74360
L76390 74360
L76470 74390
L76500 74430
L76520 74510
L76490 74730
L76450 74810
L76410 74840
L76330 74880
L76180 74880
L76110 74840
" />
<path d="M77120 74840
L77040 74880
L76890 74880
L76820 74840
L76790 74770
L76830 74470
L76880 74390
L76950 74360
L77100 74360
L77180 74390
L77210 74470
L77200 74540
L76810 74620
" />
<path d="M77500 74880
L77560 74360
" />
<path d="M77540 74510
L77590 74430
L77630 74390
L77710 74360
L77780 74360
" />
<path d="M78330 74880
L78380 74470
L78350 74390
L78270 74360
L78120 74360
L78050 74390
" />
<path d="M78330 74840
L78250 74880
L78060 74880
L77990 74840
L77960 74770
L77970 74690
L78020 74620
L78090 74580
L78280 74580
L78370 74540
" />
<path d="M78650 74360
L78950 74360
" />
<path d="M78790 74090
L78710 74770
L78740 74840
L78810 74880
L78890 74880
" />
<path d="M79550 74360
L79490 74880
" />
<path d="M79210 74360
L79160 74770
L79190 74840
L79260 74880
L79370 74880
L79450 74840
L79490 74810
" />
<path d="M79860 74880
L79920 74360
" />
<path d="M79900 74510
L79950 74430
L79990 74390
L80070 74360
L80140 74360
" />
<path d="M80650 74840
L80570 74880
L80420 74880
L80350 74840
L80320 74770
L80360 74470
L80410 74390
L80480 74360
L80630 74360
L80710 74390
L80740 74470
L80730 74540
L80340 74620
" />
<path d="M81590 74840
L81700 74880
L81890 74880
L81970 74840
L82000 74810
L82050 74730
L82060 74660
L82030 74580
L82010 74540
L81930 74510
L81790 74470
L81720 74430
L81690 74390
L81660 74320
L81670 74240
L81710 74170
L81760 74130
L81830 74090
L82020 74090
L82130 74130
" />
<path d="M82680 74840
L82600 74880
L82450 74880
L82380 74840
L82350 74770
L82390 74470
L82440 74390
L82510 74360
L82660 74360
L82740 74390
L82770 74470
L82760 74540
L82370 74620
" />
<path d="M83120 74360
L83060 74880
" />
<path d="M83110 74430
L83160 74390
L83230 74360
L83340 74360
L83420 74390
L83450 74470
L83400 74880
" />
<path d="M83730 74840
L83810 74880
L83960 74880
L84030 74840
L84080 74770
L84080 74730
L84050 74660
L83990 74620
L83870 74620
L83800 74580
L83770 74510
L83780 74470
L83830 74390
L83900 74360
L84020 74360
L84090 74390
" />
<path d="M84520 74880
L84450 74840
L84410 74810
L84380 74730
L84410 74510
L84460 74430
L84510 74390
L84580 74360
L84690 74360
L84770 74390
L84800 74430
L84820 74510
L84790 74730
L84750 74810
L84710 74840
L84630 74880
L84520 74880
" />
<path d="M85120 74880
L85180 74360
" />
<path d="M85160 74510
L85210 74430
L85250 74390
L85330 74360
L85400 74360
" />
<path d="M86520 74470
L86620 74510
L86660 74540
L86690 74620
L86670 74730
L86620 74810
L86580 74840
L86510 74880
L86210 74880
L86300 74090
L86560 74090
L86640 74130
L86660 74170
L86700 74240
L86690 74320
L86640 74390
L86600 74430
L86520 74470
L86260 74470
" />
<path d="M87110 74880
L87040 74840
L87000 74810
L86970 74730
L87000 74510
L87050 74430
L87100 74390
L87170 74360
L87280 74360
L87360 74390
L87390 74430
L87410 74510
L87380 74730
L87340 74810
L87300 74840
L87220 74880
L87110 74880
" />
<path d="M88050 74880
L88100 74470
L88070 74390
L87990 74360
L87840 74360
L87770 74390
" />
<path d="M88050 74840
L87970 74880
L87780 74880
L87710 74840
L87680 74770
L87690 74690
L87740 74620
L87810 74580
L88000 74580
L88090 74540
" />
<path d="M88420 74880
L88480 74360
" />
<path d="M88460 74510
L88510 74430
L88550 74390
L88630 74360
L88700 74360
" />
<path d="M89250 74880
L89340 74090
" />
<path d="M89250 74840
L89170 74880
L89020 74880
L88950 74840
L88910 74810
L88880 74730
L88910 74510
L88960 74430
L89010 74390
L89080 74360
L89230 74360
L89310 74390
" />
<path d="M90400 75180
L90370 75150
L90310 75030
L90270 74960
L90260 74840
L90240 74660
L90260 74510
L90330 74320
L90370 74210
L90420 74130
L90510 74020
L90550 73980
" />
<path d="M90710 74840
L90820 74880
L91010 74880
L91090 74840
L91120 74810
L91170 74730
L91180 74660
L91150 74580
L91130 74540
L91050 74510
L90910 74470
L90840 74430
L90810 74390
L90780 74320
L90790 74240
L90830 74170
L90880 74130
L90950 74090
L91140 74090
L91250 74130
" />
<path d="M91450 74360
L91750 74360
" />
<path d="M91590 74090
L91510 74770
L91540 74840
L91610 74880
L91690 74880
" />
<path d="M91950 74880
L92010 74360
" />
<path d="M91990 74510
L92040 74430
L92080 74390
L92160 74360
L92230 74360
" />
<path d="M92840 74360
L92780 74880
" />
<path d="M92500 74360
L92450 74770
L92480 74840
L92550 74880
L92660 74880
L92740 74840
L92780 74810
" />
<path d="M93490 74840
L93410 74880
L93260 74880
L93190 74840
L93150 74810
L93120 74730
L93150 74510
L93200 74430
L93250 74390
L93320 74360
L93470 74360
L93550 74390
" />
<path d="M93780 74360
L94080 74360
" />
<path d="M93920 74090
L93840 74770
L93870 74840
L93940 74880
L94020 74880
" />
<path d="M94680 74360
L94620 74880
" />
<path d="M94340 74360
L94290 74770
L94320 74840
L94390 74880
L94500 74880
L94580 74840
L94620 74810
" />
<path d="M94990 74880
L95050 74360
" />
<path d="M95030 74510
L95080 74430
L95120 74390
L95200 74360
L95270 74360
" />
<path d="M95780 74840
L95700 74880
L95550 74880
L95480 74840
L95450 74770
L95490 74470
L95540 74390
L95610 74360
L95760 74360
L95840 74390
L95870 74470
L95860 74540
L95470 74620
" />
<path d="M96200 74840
L96200 74880
L96140 74960
L96100 75000
" />
<path d="M97450 74470
L97550 74510
L97590 74540
L97620 74620
L97600 74730
L97550 74810
L97510 74840
L97440 74880
L97140 74880
L97230 74090
L97490 74090
L97570 74130
L97590 74170
L97630 74240
L97620 74320
L97570 74390
L97530 74430
L97450 74470
L97190 74470
" />
<path d="M98270 74880
L98320 74470
L98290 74390
L98210 74360
L98060 74360
L97990 74390
" />
<path d="M98270 74840
L98190 74880
L98000 74880
L97930 74840
L97900 74770
L97910 74690
L97960 74620
L98030 74580
L98220 74580
L98310 74540
" />
<path d="M98590 74360
L98890 74360
" />
<path d="M98730 74090
L98650 74770
L98680 74840
L98750 74880
L98830 74880
" />
<path d="M99040 74360
L99340 74360
" />
<path d="M99180 74090
L99100 74770
L99130 74840
L99200 74880
L99280 74880
" />
<path d="M99840 74840
L99760 74880
L99610 74880
L99540 74840
L99510 74770
L99550 74470
L99600 74390
L99670 74360
L99820 74360
L99900 74390
L99930 74470
L99920 74540
L99530 74620
" />
<path d="M100220 74880
L100280 74360
" />
<path d="M100260 74510
L100310 74430
L100350 74390
L100430 74360
L100500 74360
" />
<path d="M100690 74360
L100820 74880
" />
<path d="M101070 74360
L100820 74880
L100720 75070
L100680 75110
L100590 75150
" />
<path d="M101350 74840
L101350 74880
L101290 74960
L101250 75000
" />
<path d="M102290 74810
L102330 74840
L102290 74880
L102250 74840
L102290 74810
L102290 74880
" />
<path d="M102670 74810
L102710 74840
L102670 74880
L102630 74840
L102670 74810
L102670 74880
" />
<path d="M103050 74810
L103090 74840
L103050 74880
L103010 74840
L103050 74810
L103050 74880
" />
<path d="M103310 75180
L103350 75150
L103450 75030
L103480 74960
L103540 74840
L103600 74660
L103620 74510
L103610 74320
L103580 74210
L103560 74130
L103490 74020
L103460 73980
" />
</g>
<g style="fill:#840000; fill-opacity:0.0; 
stroke:#840000; stroke-width:100; stroke-opacity:1; 
stroke-linecap:round; stroke-linejoin:round;">
</g>
<g style="fill:#840000; fill-opacity:0.0; 
stroke:#840000; stroke-width:60; stroke-opacity:1; 
stroke-linecap:round; stroke-linejoin:round;">
<path d="M70420 73060
L70220 73060
" />
<path d="M70220 73370
L70220 72780
L70500 72780
" />
<path d="M70730 73370
L70730 72980
" />
<path d="M70730 72780
L70700 72810
L70730 72840
L70760 72810
L70730 72780
L70730 72840
" />
<path d="M71090 73370
L71040 73340
L71010 73290
L71010 72780
" />
<path d="M71550 73340
L71490 73370
L71380 73370
L71320 73340
L71290 73290
L71290 73060
L71320 73010
L71380 72980
L71490 72980
L71550 73010
L71570 73060
L71570 73120
L71290 73180
" />
<path d="M71830 73320
L71860 73340
L71830 73370
L71800 73340
L71830 73320
L71830 73370
" />
<path d="M71830 73010
L71860 73030
L71830 73060
L71800 73030
L71830 73010
L71830 73060
" />
<path d="M72480 72980
L72700 72980
" />
<path d="M72560 72780
L72560 73290
L72590 73340
L72640 73370
L72700 73370
" />
<path d="M73130 73340
L73070 73370
L72960 73370
L72900 73340
L72870 73290
L72870 73060
L72900 73010
L72960 72980
L73070 72980
L73130 73010
L73150 73060
L73150 73120
L72870 73180
" />
<path d="M73410 73370
L73410 72980
" />
<path d="M73410 73030
L73440 73010
L73490 72980
L73580 72980
L73640 73010
L73660 73060
L73660 73370
" />
<path d="M73660 73060
L73690 73010
L73750 72980
L73830 72980
L73890 73010
L73920 73060
L73920 73370
" />
<path d="M74200 72980
L74200 73570
" />
<path d="M74200 73010
L74260 72980
L74370 72980
L74430 73010
L74450 73030
L74480 73090
L74480 73260
L74450 73320
L74430 73340
L74370 73370
L74260 73370
L74200 73340
" />
<path d="M74960 73340
L74900 73370
L74790 73370
L74730 73340
L74700 73290
L74700 73060
L74730 73010
L74790 72980
L74900 72980
L74960 73010
L74980 73060
L74980 73120
L74700 73180
" />
<path d="M75240 73370
L75240 72980
" />
<path d="M75240 73090
L75270 73030
L75300 73010
L75350 72980
L75410 72980
" />
<path d="M75860 73370
L75860 73060
L75840 73010
L75780 72980
L75670 72980
L75610 73010
" />
<path d="M75860 73340
L75810 73370
L75670 73370
L75610 73340
L75580 73290
L75580 73230
L75610 73180
L75670 73150
L75810 73150
L75860 73120
" />
<path d="M76060 72980
L76280 72980
" />
<path d="M76140 72780
L76140 73290
L76170 73340
L76220 73370
L76280 73370
" />
<path d="M76730 72980
L76730 73370
" />
<path d="M76480 72980
L76480 73290
L76510 73340
L76560 73370
L76650 73370
L76710 73340
L76730 73320
" />
<path d="M77010 73370
L77010 72980
" />
<path d="M77010 73090
L77040 73030
L77070 73010
L77120 72980
L77180 72980
" />
<path d="M77610 73340
L77550 73370
L77440 73370
L77380 73340
L77350 73290
L77350 73060
L77380 73010
L77440 72980
L77550 72980
L77610 73010
L77630 73060
L77630 73120
L77350 73180
" />
<path d="M77890 73150
L78340 73150
" />
<path d="M78590 73340
L78650 73370
L78760 73370
L78820 73340
L78850 73290
L78850 73260
L78820 73200
L78760 73180
L78680 73180
L78620 73150
L78590 73090
L78590 73060
L78620 73010
L78680 72980
L78760 72980
L78820 73010
" />
<path d="M79330 73340
L79270 73370
L79160 73370
L79100 73340
L79070 73290
L79070 73060
L79100 73010
L79160 72980
L79270 72980
L79330 73010
L79350 73060
L79350 73120
L79070 73180
" />
<path d="M79610 72980
L79610 73370
" />
<path d="M79610 73030
L79640 73010
L79690 72980
L79780 72980
L79840 73010
L79860 73060
L79860 73370
" />
<path d="M80110 73340
L80170 73370
L80280 73370
L80340 73340
L80370 73290
L80370 73260
L80340 73200
L80280 73180
L80200 73180
L80140 73150
L80110 73090
L80110 73060
L80140 73010
L80200 72980
L80280 72980
L80340 73010
" />
<path d="M80700 73370
L80650 73340
L80620 73320
L80590 73260
L80590 73090
L80620 73030
L80650 73010
L80700 72980
L80790 72980
L80850 73010
L80870 73030
L80900 73090
L80900 73260
L80870 73320
L80850 73340
L80790 73370
L80700 73370
" />
<path d="M81150 73370
L81150 72980
" />
<path d="M81150 73090
L81180 73030
L81210 73010
L81260 72980
L81320 72980
" />
<path d="M81520 73150
L81970 73150
" />
<path d="M82250 73370
L82250 72780
L82390 72780
L82480 72810
L82530 72870
L82560 72920
L82590 73030
L82590 73120
L82560 73230
L82530 73290
L82480 73340
L82390 73370
L82250 73370
" />
<path d="M82810 73340
L82900 73370
L83040 73370
L83090 73340
L83120 73320
L83150 73260
L83150 73200
L83120 73150
L83090 73120
L83040 73090
L82920 73060
L82870 73030
L82840 73010
L82810 72950
L82810 72890
L82840 72840
L82870 72810
L82920 72780
L83070 72780
L83150 72810
" />
<path d="M83710 73370
L83370 73370
" />
<path d="M83540 73370
L83540 72780
L83480 72870
L83430 72920
L83370 72950
" />
<path d="M83900 72780
L84300 72780
L84040 73370
" />
<path d="M84460 72780
L84830 72780
L84630 73010
L84720 73010
L84770 73030
L84800 73060
L84830 73120
L84830 73260
L84800 73320
L84770 73340
L84720 73370
L84550 73370
L84490 73340
L84460 73320
" />
<path d="M85390 73370
L85050 73370
" />
<path d="M85220 73370
L85220 72780
L85160 72870
L85110 72920
L85050 72950
" />
<path d="M85640 73320
L85670 73340
L85640 73370
L85610 73340
L85640 73320
L85640 73370
" />
<path d="M85890 73340
L85950 73370
L86060 73370
L86120 73340
L86150 73290
L86150 73260
L86120 73200
L86060 73180
L85980 73180
L85920 73150
L85890 73090
L85890 73060
L85920 73010
L85980 72980
L86060 72980
L86120 73010
" />
<path d="M86650 73340
L86600 73370
L86480 73370
L86430 73340
L86400 73320
L86370 73260
L86370 73090
L86400 73030
L86430 73010
L86480 72980
L86600 72980
L86650 73010
" />
<path d="M86910 73370
L86910 72780
" />
<path d="M87160 73370
L87160 73060
L87140 73010
L87080 72980
L86990 72980
L86940 73010
L86910 73030
" />
</g>
<g style="fill:#840000; fill-opacity:0.0; 
stroke:#840000; stroke-width:100; stroke-opacity:1; 
stroke-linecap:round; stroke-linejoin:round;">
</g>
<g style="fill:#840000; fill-opacity:0.0; 
stroke:#840000; stroke-width:60; stroke-opacity:1; 
stroke-linecap:round; stroke-linejoin:round;">
<path d="M69690 71460
L112210 71460
" />
</g>
<g style="fill:#840000; fill-opacity:0.0; 
stroke:#840000; stroke-width:100; stroke-opacity:1; 
stroke-linecap:round; stroke-linejoin:round;">
</g>
<g style="fill:#840000; fill-opacity:0.0; 
stroke:#840000; stroke-width:60; stroke-opacity:1; 
stroke-linecap:round; stroke-linejoin:round;">
<path d="M70190 72280
L70280 72310
L70420 72310
L70470 72280
L70500 72260
L70530 72200
L70530 72140
L70500 72090
L70470 72060
L70420 72030
L70300 72000
L70250 71970
L70220 71950
L70190 71890
L70190 71830
L70220 71780
L70250 71750
L70300 71720
L70450 71720
L70530 71750
" />
<path d="M70780 72310
L70780 71720
" />
<path d="M71030 72310
L71030 72000
L71010 71950
L70950 71920
L70860 71920
L70810 71950
L70780 71970
" />
<path d="M71540 72280
L71480 72310
L71370 72310
L71310 72280
L71280 72230
L71280 72000
L71310 71950
L71370 71920
L71480 71920
L71540 71950
L71560 72000
L71560 72060
L71280 72120
" />
<path d="M72050 72280
L71990 72310
L71880 72310
L71820 72280
L71790 72230
L71790 72000
L71820 71950
L71880 71920
L71990 71920
L72050 71950
L72070 72000
L72070 72060
L71790 72120
" />
<path d="M72250 71920
L72470 71920
" />
<path d="M72330 71720
L72330 72230
L72360 72280
L72410 72310
L72470 72310
" />
<path d="M72670 72260
L72700 72280
L72670 72310
L72640 72280
L72670 72260
L72670 72310
" />
<path d="M72670 71950
L72700 71970
L72670 72000
L72640 71970
L72670 71950
L72670 72000
" />
<path d="M73820 71690
L73320 72450
" />
</g>
<g style="fill:#840000; fill-opacity:0.0; 
stroke:#840000; stroke-width:100; stroke-opacity:1; 
stroke-linecap:round; stroke-linejoin:round;">
</g>
<g style="fill:#840000; fill-opacity:0.0; 
stroke:#840000; stroke-width:120; stroke-opacity:1; 
stroke-linecap:round; stroke-linejoin:round;">
<path d="M70140 70540
L70330 71130
L70530 70540
" />
<path d="M70730 71130
L70730 70540
" />
<path d="M71010 71130
L71010 70540
L71240 70540
L71290 70570
L71320 70600
L71350 70650
L71350 70740
L71320 70790
L71290 70820
L71240 70850
L71010 70850
" />
<path d="M71600 70820
L71800 70820
" />
<path d="M71880 71130
L71600 71130
L71600 70540
L71880 70540
" />
<path d="M72470 71130
L72270 70850
" />
<path d="M72130 71130
L72130 70540
L72360 70540
L72410 70570
L72440 70600
L72470 70650
L72470 70740
L72440 70790
L72410 70820
L72360 70850
L72130 70850
" />
</g>
<g style="fill:#840000; fill-opacity:0.0; 
stroke:#840000; stroke-width:100; stroke-opacity:1; 
stroke-linecap:round; stroke-linejoin:round;">
</g>
<g style="fill:#840000; fill-opacity:0.0; 
stroke:#840000; stroke-width:60; stroke-opacity:1; 
stroke-linecap:round; stroke-linejoin:round;">
<path d="M77560 75400
L77560 76580
" />
</g>
<g style="fill:#840000; fill-opacity:0.0; 
stroke:#840000; stroke-width:100; stroke-opacity:1; 
stroke-linecap:round; stroke-linejoin:round;">
</g>
<g style="fill:#840000; fill-opacity:0.0; 
stroke:#840000; stroke-width:60; stroke-opacity:1; 
stroke-linecap:round; stroke-linejoin:round;">
<path d="M102760 75400
L102760 77960
" />
</g>
<g style="fill:#840000; fill-opacity:0.0; 
stroke:#840000; stroke-width:0; stroke-opacity:1; 
stroke-linecap:round; stroke-linejoin:round;">
</g>
<g style="fill:#FFFFC2; fill-opacity:0.0; 
stroke:#FFFFC2; stroke-width:0; stroke-opacity:1; 
stroke-linecap:round; stroke-linejoin:round;">
</g>
<g style="fill:#FFFFC2; fill-opacity:0.6; 
stroke:#FFFFC2; stroke-width:0; stroke-opacity:1; 
stroke-linecap:round; stroke-linejoin:round;">
<rect x="21500" y="14000" width="5500" height="5000" rx="0" />
</g>
<g style="fill:#840000; fill-opacity:0.6; 
stroke:#840000; stroke-width:0; stroke-opacity:1; 
stroke-linecap:round; stroke-linejoin:round;">
</g>
<g style="fill:#840000; fill-opacity:0.0; 
stroke:#840000; stroke-width:100; stroke-opacity:1; 
stroke-linecap:round; stroke-linejoin:round;">
<rect x="21500" y="14000" width="5500" height="5000" rx="0" />
</g>
<g style="fill:#840000; fill-opacity:0.0; 
stroke:#840000; stroke-width:60; stroke-opacity:1; 
stroke-linecap:round; stroke-linejoin:round;">
<path d="M21500 15000
L20500 15000
" />
</g>
<g style="fill:#008484; fill-opacity:0.0; 
stroke:#008484; stroke-width:60; stroke-opacity:1; 
stroke-linecap:round; stroke-linejoin:round;">
<path d="M22000 15200
L22070 15230
L22190 15230
L22230 15200
L22260 15180
L22280 15130
L22280 15080
L22260 15040
L22230 15010
L22190 14990
L22090 14960
L22040 14940
L22020 14920
L22000 14870
L22000 14820
L22020 14770
L22040 14750
L22090 14730
L22210 14730
L22280 14750
" />
<path d="M22500 15230
L22500 14730
L22620 14730
L22690 14750
L22740 14800
L22760 14850
L22780 14940
L22780 15010
L22760 15110
L22740 15150
L22690 15200
L22620 15230
L22500 15230
" />
<path d="M22980 15080
L23210 15080
" />
<path d="M22930 15230
L23090 14730
L23260 15230
" />
</g>
<g style="fill:#840000; fill-opacity:0.0; 
stroke:#840000; stroke-width:60; stroke-opacity:1; 
stroke-linecap:round; stroke-linejoin:round;">
<path d="M21140 14880
L20860 14880
" />
<path d="M21000 14880
L21000 14380
L20950 14450
L20900 14500
L20860 14520
" />
<path d="M21500 16000
L20500 16000
" />
</g>
<g style="fill:#008484; fill-opacity:0.0; 
stroke:#008484; stroke-width:60; stroke-opacity:1; 
stroke-linecap:round; stroke-linejoin:round;">
<path d="M22000 16200
L22070 16230
L22190 16230
L22230 16200
L22260 16180
L22280 16130
L22280 16080
L22260 16040
L22230 16010
L22190 15990
L22090 15960
L22040 15940
L22020 15920
L22000 15870
L22000 15820
L22020 15770
L22040 15750
L22090 15730
L22210 15730
L22280 15750
" />
<path d="M22780 16180
L22760 16200
L22690 16230
L22640 16230
L22570 16200
L22520 16150
L22500 16110
L22480 16010
L22480 15940
L22500 15850
L22520 15800
L22570 15750
L22640 15730
L22690 15730
L22760 15750
L22780 15770
" />
<path d="M23240 16230
L23000 16230
L23000 15730
" />
</g>
<g style="fill:#840000; fill-opacity:0.0; 
stroke:#840000; stroke-width:60; stroke-opacity:1; 
stroke-linecap:round; stroke-linejoin:round;">
<path d="M20860 15420
L20880 15400
L20930 15380
L21050 15380
L21090 15400
L21120 15420
L21140 15470
L21140 15520
L21120 15590
L20830 15880
L21140 15880
" />
<path d="M21500 17000
L20500 17000
" />
</g>
<g style="fill:#008484; fill-opacity:0.0; 
stroke:#008484; stroke-width:60; stroke-opacity:1; 
stroke-linecap:round; stroke-linejoin:round;">
<path d="M21950 16730
L22230 16730
" />
<path d="M22090 17230
L22090 16730
" />
<path d="M22280 17270
L22660 17270
" />
<path d="M22870 16730
L22970 16730
L23020 16750
L23060 16800
L23090 16890
L23090 17060
L23060 17150
L23020 17200
L22970 17230
L22870 17230
L22830 17200
L22780 17150
L22760 17060
L22760 16890
L22780 16800
L22830 16750
L22870 16730
" />
<path d="M23300 16730
L23300 17130
L23320 17180
L23350 17200
L23390 17230
L23490 17230
L23540 17200
L23560 17180
L23580 17130
L23580 16730
" />
<path d="M23750 16730
L24030 16730
" />
<path d="M23890 17230
L23890 16730
" />
</g>
<g style="fill:#840000; fill-opacity:0.0; 
stroke:#840000; stroke-width:60; stroke-opacity:1; 
stroke-linecap:round; stroke-linejoin:round;">
<path d="M20830 16380
L21140 16380
L20970 16570
L21050 16570
L21090 16590
L21120 16610
L21140 16660
L21140 16780
L21120 16830
L21090 16850
L21050 16880
L20900 16880
L20860 16850
L20830 16830
" />
<path d="M21500 18000
L20500 18000
" />
</g>
<g style="fill:#008484; fill-opacity:0.0; 
stroke:#008484; stroke-width:60; stroke-opacity:1; 
stroke-linecap:round; stroke-linejoin:round;">
<path d="M22280 17750
L22230 17730
L22160 17730
L22090 17750
L22040 17800
L22020 17850
L22000 17940
L22000 18010
L22020 18110
L22040 18150
L22090 18200
L22160 18230
L22210 18230
L22280 18200
L22300 18180
L22300 18010
L22210 18010
" />
<path d="M22520 18230
L22520 17730
L22800 18230
L22800 17730
" />
<path d="M23040 18230
L23040 17730
L23160 17730
L23230 17750
L23280 17800
L23300 17850
L23320 17940
L23320 18010
L23300 18110
L23280 18150
L23230 18200
L23160 18230
L23040 18230
" />
</g>
<g style="fill:#840000; fill-opacity:0.0; 
stroke:#840000; stroke-width:60; stroke-opacity:1; 
stroke-linecap:round; stroke-linejoin:round;">
<path d="M21090 17540
L21090 17880
" />
<path d="M20970 17350
L20860 17710
L21160 17710
" />
<path d="M27000 18000
L28000 18000
" />
</g>
<g style="fill:#008484; fill-opacity:0.0; 
stroke:#008484; stroke-width:60; stroke-opacity:1; 
stroke-linecap:round; stroke-linejoin:round;">
<path d="M25410 18080
L25640 18080
" />
<path d="M25360 18230
L25520 17730
L25690 18230
" />
<path d="M25740 18270
L26120 18270
" />
<path d="M26220 17770
L26240 17750
L26290 17730
L26410 17730
L26450 17750
L26480 17770
L26500 17820
L26500 17870
L26480 17940
L26190 18230
L26500 18230
" />
</g>
<g style="fill:#840000; fill-opacity:0.0; 
stroke:#840000; stroke-width:60; stroke-opacity:1; 
stroke-linecap:round; stroke-linejoin:round;">
<path d="M27620 17380
L27380 17380
L27360 17610
L27380 17590
L27430 17570
L27550 17570
L27590 17590
L27620 17610
L27640 17660
L27640 17780
L27620 17830
L27590 17850
L27550 17880
L27430 17880
L27380 17850
L27360 17830
" />
<path d="M27000 17000
L28000 17000
" />
</g>
<g style="fill:#008484; fill-opacity:0.0; 
stroke:#008484; stroke-width:60; stroke-opacity:1; 
stroke-linecap:round; stroke-linejoin:round;">
<path d="M25410 17080
L25640 17080
" />
<path d="M25360 17230
L25520 16730
L25690 17230
" />
<path d="M25740 17270
L26120 17270
" />
<path d="M26500 17230
L26220 17230
" />
<path d="M26360 17230
L26360 16730
L26310 16800
L26260 16850
L26220 16870
" />
</g>
<g style="fill:#840000; fill-opacity:0.0; 
stroke:#840000; stroke-width:60; stroke-opacity:1; 
stroke-linecap:round; stroke-linejoin:round;">
<path d="M27590 16380
L27500 16380
L27450 16400
L27430 16420
L27380 16500
L27360 16590
L27360 16780
L27380 16830
L27400 16850
L27450 16880
L27550 16880
L27590 16850
L27620 16830
L27640 16780
L27640 16660
L27620 16610
L27590 16590
L27550 16570
L27450 16570
L27400 16590
L27380 16610
L27360 16660
" />
<path d="M27000 16000
L28000 16000
" />
</g>
<g style="fill:#008484; fill-opacity:0.0; 
stroke:#008484; stroke-width:60; stroke-opacity:1; 
stroke-linecap:round; stroke-linejoin:round;">
<path d="M25410 16080
L25640 16080
" />
<path d="M25360 16230
L25520 15730
L25690 16230
" />
<path d="M25740 16270
L26120 16270
" />
<path d="M26330 15730
L26380 15730
L26430 15750
L26450 15770
L26480 15820
L26500 15920
L26500 16040
L26480 16130
L26450 16180
L26430 16200
L26380 16230
L26330 16230
L26290 16200
L26260 16180
L26240 16130
L26220 16040
L26220 15920
L26240 15820
L26260 15770
L26290 15750
L26330 15730
" />
</g>
<g style="fill:#840000; fill-opacity:0.0; 
stroke:#840000; stroke-width:60; stroke-opacity:1; 
stroke-linecap:round; stroke-linejoin:round;">
<path d="M27330 15380
L27660 15380
L27450 15880
" />
<path d="M27000 15000
L28000 15000
" />
</g>
<g style="fill:#008484; fill-opacity:0.0; 
stroke:#008484; stroke-width:60; stroke-opacity:1; 
stroke-linecap:round; stroke-linejoin:round;">
<path d="M24840 14730
L25000 15230
L25170 14730
" />
<path d="M25220 15270
L25600 15270
" />
<path d="M25720 15230
L25720 14730
L25840 14730
L25910 14750
L25960 14800
L25980 14850
L26000 14940
L26000 15010
L25980 15110
L25960 15150
L25910 15200
L25840 15230
L25720 15230
" />
<path d="M26220 15230
L26220 14730
L26340 14730
L26410 14750
L26460 14800
L26480 14850
L26500 14940
L26500 15010
L26480 15110
L26460 15150
L26410 15200
L26340 15230
L26220 15230
" />
</g>
<g style="fill:#840000; fill-opacity:0.0; 
stroke:#840000; stroke-width:60; stroke-opacity:1; 
stroke-linecap:round; stroke-linejoin:round;">
<path d="M27450 14590
L27400 14570
L27380 14540
L27360 14500
L27360 14470
L27380 14420
L27400 14400
L27450 14380
L27550 14380
L27590 14400
L27620 14420
L27640 14470
L27640 14500
L27620 14540
L27590 14570
L27550 14590
L27450 14590
L27400 14610
L27380 14640
L27360 14690
L27360 14780
L27380 14830
L27400 14850
L27450 14880
L27550 14880
L27590 14850
L27620 14830
L27640 14780
L27640 14690
L27620 14640
L27590 14610
L27550 14590
" />
</g>
<g style="fill:#008484; fill-opacity:0.0; 
stroke:#008484; stroke-width:60; stroke-opacity:1; 
stroke-linecap:round; stroke-linejoin:round;">
<path d="M21620 13260
L21620 13660
L21640 13710
L21670 13730
L21710 13760
L21810 13760
L21860 13730
L21880 13710
L21900 13660
L21900 13260
" />
<path d="M22400 13760
L22120 13760
" />
<path d="M22260 13760
L22260 13260
L22210 13330
L22160 13380
L22120 13400
" />
<path d="M21620 19760
L21620 19260
L21740 19260
L21810 19280
L21860 19330
L21880 19380
L21900 19470
L21900 19540
L21880 19640
L21860 19680
L21810 19730
L21740 19760
L21620 19760
" />
<path d="M22100 19730
L22170 19760
L22290 19760
L22330 19730
L22360 19710
L22380 19660
L22380 19610
L22360 19570
L22330 19540
L22290 19520
L22190 19490
L22140 19470
L22120 19450
L22100 19400
L22100 19350
L22120 19300
L22140 19280
L22190 19260
L22310 19260
L22380 19280
" />
<path d="M22860 19760
L22580 19760
" />
<path d="M22720 19760
L22720 19260
L22670 19330
L22620 19380
L22580 19400
" />
<path d="M23030 19260
L23360 19260
L23150 19760
" />
<path d="M23510 19260
L23820 19260
L23650 19450
L23730 19450
L23770 19470
L23800 19490
L23820 19540
L23820 19660
L23800 19710
L23770 19730
L23730 19760
L23580 19760
L23540 19730
L23510 19710
" />
<path d="M24300 19760
L24020 19760
" />
<path d="M24160 19760
L24160 19260
L24110 19330
L24060 19380
L24020 19400
" />
<path d="M24520 19260
L24520 19660
L24540 19710
L24570 19730
L24610 19760
L24710 19760
L24760 19730
L24780 19710
L24800 19660
L24800 19260
" />
</g>
<g style="fill:#008484; fill-opacity:0.0; 
stroke:#008484; stroke-width:0; stroke-opacity:1; 
stroke-linecap:round; stroke-linejoin:round;">
</g>
<g style="fill:#840000; fill-opacity:0.0; 
stroke:#840000; stroke-width:0; stroke-opacity:1; 
stroke-linecap:round; stroke-linejoin:round;">
</g>
<g style="fill:#840000; fill-opacity:1.0; 
stroke:#840000; stroke-width:60; stroke-opacity:1; 
stroke-linecap:round; stroke-linejoin:round;">
<rect x="5500" y="13250" width="2000" height="500" rx="0" />
</g>
<g style="fill:#840000; fill-opacity:0.0; 
stroke:#840000; stroke-width:60; stroke-opacity:1; 
stroke-linecap:round; stroke-linejoin:round;">
<line x1="5500" y1="11250" x2="5500" y2="11250" />
</g>
<g style="fill:#840000; fill-opacity:1.0; 
stroke:#840000; stroke-width:60; stroke-opacity:1; 
stroke-linecap:round; stroke-linejoin:round;">
<rect x="5500" y="17250" width="2000" height="500" rx="0" />
<rect x="5500" y="15250" width="2000" height="500" rx="0" />
<rect x="5500" y="11250" width="2000" height="500" rx="0" />
</g>
<g style="fill:#840000; fill-opacity:0.0; 
stroke:#840000; stroke-width:60; stroke-opacity:1; 
stroke-linecap:round; stroke-linejoin:round;">
<path d="M7500 11500
L9500 11500
" />
<path d="M8640 11380
L8360 11380
" />
<path d="M8500 11380
L8500 10880
L8450 10950
L8400 11000
L8360 11020
" />
<path d="M7500 13500
L9500 13500
" />
<path d="M8360 12920
L8380 12900
L8430 12880
L8550 12880
L8590 12900
L8620 12920
L8640 12970
L8640 13020
L8620 13090
L8330 13380
L8640 13380
" />
<path d="M7500 15500
L9500 15500
" />
<path d="M8330 14880
L8640 14880
L8470 15070
L8550 15070
L8590 15090
L8620 15110
L8640 15160
L8640 15280
L8620 15330
L8590 15350
L8550 15380
L8400 15380
L8360 15350
L8330 15330
" />
<path d="M7500 17500
L9500 17500
" />
<path d="M8590 17040
L8590 17380
" />
<path d="M8470 16850
L8360 17210
L8660 17210
" />
</g>
<g style="fill:#008484; fill-opacity:0.0; 
stroke:#008484; stroke-width:60; stroke-opacity:1; 
stroke-linecap:round; stroke-linejoin:round;">
<path d="M6330 10510
L6330 10860
L6310 10930
L6260 10980
L6190 11010
L6140 11010
" />
<path d="M6830 11010
L6550 11010
" />
<path d="M6690 11010
L6690 10510
L6640 10580
L6590 10630
L6550 10650
" />
<path d="M3370 18710
L3350 18730
L3280 18760
L3230 18760
L3160 18730
L3110 18680
L3090 18640
L3070 18540
L3070 18470
L3090 18380
L3110 18330
L3160 18280
L3230 18260
L3280 18260
L3350 18280
L3370 18300
" />
<path d="M3680 18260
L3780 18260
L3830 18280
L3870 18330
L3900 18420
L3900 18590
L3870 18680
L3830 18730
L3780 18760
L3680 18760
L3640 18730
L3590 18680
L3570 18590
L3570 18420
L3590 18330
L3640 18280
L3680 18260
" />
<path d="M4110 18760
L4110 18260
L4390 18760
L4390 18260
" />
<path d="M4630 18760
L4630 18260
L4910 18760
L4910 18260
" />
<path d="M5030 18800
L5410 18800
" />
<path d="M5620 18260
L5670 18260
L5720 18280
L5740 18300
L5770 18350
L5790 18450
L5790 18570
L5770 18660
L5740 18710
L5720 18730
L5670 18760
L5620 18760
L5580 18730
L5550 18710
L5530 18660
L5510 18570
L5510 18450
L5530 18350
L5550 18300
L5580 18280
L5620 18260
" />
<path d="M6270 18760
L5990 18760
" />
<path d="M6130 18760
L6130 18260
L6080 18330
L6030 18380
L5990 18400
" />
<path d="M6440 18260
L6770 18760
" />
<path d="M6770 18260
L6440 18760
" />
<path d="M7060 18260
L7110 18260
L7160 18280
L7180 18300
L7210 18350
L7230 18450
L7230 18570
L7210 18660
L7180 18710
L7160 18730
L7110 18760
L7060 18760
L7020 18730
L6990 18710
L6970 18660
L6950 18570
L6950 18450
L6970 18350
L6990 18300
L7020 18280
L7060 18260
" />
<path d="M7660 18420
L7660 18760
" />
<path d="M7540 18230
L7430 18590
L7730 18590
" />
<path d="M7810 18800
L8190 18800
" />
<path d="M8310 18760
L8310 18260
L8480 18610
L8640 18260
L8640 18760
" />
<path d="M8860 18610
L9090 18610
" />
<path d="M8810 18760
L8970 18260
L9140 18760
" />
<path d="M9550 18760
L9310 18760
L9310 18260
" />
<path d="M9710 18490
L9880 18490
" />
<path d="M9950 18760
L9710 18760
L9710 18260
L9950 18260
" />
</g>
<g style="fill:#008400; fill-opacity:0.0; 
stroke:#008400; stroke-width:60; stroke-opacity:1; 
stroke-linecap:round; stroke-linejoin:round;">
<path d="M30000 15000
L28000 15000
" />
</g>
<g style="fill:#000000; fill-opacity:0.0; 
stroke:#000000; stroke-width:60; stroke-opacity:1; 
stroke-linecap:round; stroke-linejoin:round;">
<path d="M10460 10800
L10400 10770
L10310 10770
L10230 10800
L10170 10860
L10140 10910
L10110 11030
L10110 11110
L10140 11230
L10170 11290
L10230 11340
L10310 11370
L10370 11370
L10460 11340
L10490 11310
L10490 11110
L10370 11110
" />
<path d="M10740 11370
L10740 10770
L11090 11370
L11090 10770
" />
<path d="M11370 11370
L11370 10770
L11520 10770
L11600 10800
L11660 10860
L11690 10910
L11720 11030
L11720 11110
L11690 11230
L11660 11290
L11600 11340
L11520 11370
L11370 11370
" />
<path d="M10060 12770
L10260 13370
L10460 12770
" />
<path d="M10650 13370
L10650 12770
L10800 12770
L10880 12800
L10940 12860
L10970 12910
L11000 13030
L11000 13110
L10970 13230
L10940 13290
L10880 13340
L10800 13370
L10650 13370
" />
<path d="M11250 13370
L11250 12770
L11400 12770
L11480 12800
L11540 12860
L11570 12910
L11600 13030
L11600 13110
L11570 13230
L11540 13290
L11480 13340
L11400 13370
L11250 13370
" />
</g>
<g style="fill:#008400; fill-opacity:0.0; 
stroke:#008400; stroke-width:60; stroke-opacity:1; 
stroke-linecap:round; stroke-linejoin:round;">
<path d="M29500 16000
L28000 16000
" />
<path d="M35500 17000
L28000 17000
" />
<path d="M41500 18000
L28000 18000
" />
</g>
<g style="fill:#008400; fill-opacity:0.0; 
stroke:#008400; stroke-width:0; stroke-opacity:1; 
stroke-linecap:round; stroke-linejoin:round;">
</g>
<g style="fill:#840000; fill-opacity:0.0; 
stroke:#840000; stroke-width:0; stroke-opacity:1; 
stroke-linecap:round; stroke-linejoin:round;">
</g>
<g style="fill:#840000; fill-opacity:0.0; 
stroke:#840000; stroke-width:200; stroke-opacity:1; 
stroke-linecap:round; stroke-linejoin:round;">
<polyline fill="none;"
points="16200,11800
17800,11800
" /> 
<polyline fill="none;"
points="16200,11200
17800,11200
" /> 
</g>
<g style="fill:#840000; fill-opacity:0.0; 
stroke:#840000; stroke-width:60; stroke-opacity:1; 
stroke-linecap:round; stroke-linejoin:round;">
<path d="M17000 11100
L17000 10000
" />
<path d="M17000 11900
L17000 13000
" />
</g>
<g style="fill:#008484; fill-opacity:0.0; 
stroke:#008484; stroke-width:60; stroke-opacity:1; 
stroke-linecap:round; stroke-linejoin:round;">
<path d="M17650 10710
L17630 10730
L17560 10760
L17510 10760
L17440 10730
L17390 10680
L17370 10640
L17350 10540
L17350 10470
L17370 10380
L17390 10330
L17440 10280
L17510 10260
L17560 10260
L17630 10280
L17650 10300
" />
<path d="M18130 10760
L17850 10760
" />
<path d="M17990 10760
L17990 10260
L17940 10330
L17890 10380
L17850 10400
" />
<path d="M17630 12760
L17350 12760
" />
<path d="M17490 12760
L17490 12260
L17440 12330
L17390 12380
L17350 12400
" />
<path d="M17940 12260
L17990 12260
L18040 12280
L18060 12300
L18090 12350
L18110 12450
L18110 12570
L18090 12660
L18060 12710
L18040 12730
L17990 12760
L17940 12760
L17900 12730
L17870 12710
L17850 12660
L17830 12570
L17830 12450
L17850 12350
L17870 12300
L17900 12280
L17940 12260
" />
<path d="M18420 12260
L18470 12260
L18520 12280
L18540 12300
L18570 12350
L18590 12450
L18590 12570
L18570 12660
L18540 12710
L18520 12730
L18470 12760
L18420 12760
L18380 12730
L18350 12710
L18330 12660
L18310 12570
L18310 12450
L18330 12350
L18350 12300
L18380 12280
L18420 12260
" />
<path d="M18810 12420
L18810 12760
" />
<path d="M18810 12470
L18830 12450
L18880 12420
L18950 12420
L19000 12450
L19020 12490
L19020 12760
" />
<path d="M19430 12490
L19260 12490
" />
<path d="M19260 12760
L19260 12260
L19500 12260
" />
</g>
<g style="fill:#008400; fill-opacity:0.0; 
stroke:#008400; stroke-width:60; stroke-opacity:1; 
stroke-linecap:round; stroke-linejoin:round;">
<path d="M15500 22500
L45000 22500
" />
<path d="M45000 22500
L45000 21500
" />
<path d="M39000 20500
L39000 22500
" />
</g>
<g style="fill:#008400; fill-opacity:0.0; 
stroke:#008400; stroke-width:0; stroke-opacity:1; 
stroke-linecap:round; stroke-linejoin:round;">
</g>
<g style="fill:#008400; fill-opacity:1.0; 
stroke:#008400; stroke-width:100; stroke-opacity:1; 
stroke-linecap:round; stroke-linejoin:round;">
<circle cx="39000" cy="22500" r="200" /> 
</g>
<g style="fill:#008400; fill-opacity:1.0; 
stroke:#008400; stroke-width:60; stroke-opacity:1; 
stroke-linecap:round; stroke-linejoin:round;">
</g>
<g style="fill:#008400; fill-opacity:0.0; 
stroke:#008400; stroke-width:60; stroke-opacity:1; 
stroke-linecap:round; stroke-linejoin:round;">
<path d="M33000 19500
L33000 22500
" />
</g>
<g style="fill:#008400; fill-opacity:0.0; 
stroke:#008400; stroke-width:0; stroke-opacity:1; 
stroke-linecap:round; stroke-linejoin:round;">
</g>
<g style="fill:#008400; fill-opacity:1.0; 
stroke:#008400; stroke-width:100; stroke-opacity:1; 
stroke-linecap:round; stroke-linejoin:round;">
<circle cx="33000" cy="22500" r="200" /> 
</g>
<g style="fill:#008400; fill-opacity:1.0; 
stroke:#008400; stroke-width:60; stroke-opacity:1; 
stroke-linecap:round; stroke-linejoin:round;">
</g>
<g style="fill:#008400; fill-opacity:0.0; 
stroke:#008400; stroke-width:60; stroke-opacity:1; 
stroke-linecap:round; stroke-linejoin:round;">
<path d="M45000 11500
L45000 14500
" />
<path d="M39000 13500
L39000 11500
" />
</g>
<g style="fill:#008400; fill-opacity:0.0; 
stroke:#008400; stroke-width:0; stroke-opacity:1; 
stroke-linecap:round; stroke-linejoin:round;">
</g>
<g style="fill:#008400; fill-opacity:1.0; 
stroke:#008400; stroke-width:100; stroke-opacity:1; 
stroke-linecap:round; stroke-linejoin:round;">
<circle cx="39000" cy="11500" r="200" /> 
</g>
<g style="fill:#008400; fill-opacity:1.0; 
stroke:#008400; stroke-width:60; stroke-opacity:1; 
stroke-linecap:round; stroke-linejoin:round;">
</g>
<g style="fill:#008400; fill-opacity:0.0; 
stroke:#008400; stroke-width:60; stroke-opacity:1; 
stroke-linecap:round; stroke-linejoin:round;">
<path d="M33000 12500
L33000 11500
" />
</g>
<g style="fill:#008400; fill-opacity:0.0; 
stroke:#008400; stroke-width:0; stroke-opacity:1; 
stroke-linecap:round; stroke-linejoin:round;">
</g>
<g style="fill:#008400; fill-opacity:1.0; 
stroke:#008400; stroke-width:100; stroke-opacity:1; 
stroke-linecap:round; stroke-linejoin:round;">
<circle cx="33000" cy="11500" r="200" /> 
</g>
<g style="fill:#008400; fill-opacity:1.0; 
stroke:#008400; stroke-width:60; stroke-opacity:1; 
stroke-linecap:round; stroke-linejoin:round;">
</g>
<g style="fill:#008400; fill-opacity:0.0; 
stroke:#008400; stroke-width:60; stroke-opacity:1; 
stroke-linecap:round; stroke-linejoin:round;">
<path d="M30000 15000
L30000 11500
" />
</g>
<g style="fill:#008400; fill-opacity:0.0; 
stroke:#008400; stroke-width:0; stroke-opacity:1; 
stroke-linecap:round; stroke-linejoin:round;">
</g>
<g style="fill:#008400; fill-opacity:1.0; 
stroke:#008400; stroke-width:100; stroke-opacity:1; 
stroke-linecap:round; stroke-linejoin:round;">
<circle cx="30000" cy="11500" r="200" /> 
</g>
<g style="fill:#008400; fill-opacity:1.0; 
stroke:#008400; stroke-width:60; stroke-opacity:1; 
stroke-linecap:round; stroke-linejoin:round;">
</g>
<g style="fill:#008400; fill-opacity:0.0; 
stroke:#008400; stroke-width:60; stroke-opacity:1; 
stroke-linecap:round; stroke-linejoin:round;">
<path d="M9500 13500
L20000 13500
" />
</g>
<g style="fill:#008400; fill-opacity:0.0; 
stroke:#008400; stroke-width:0; stroke-opacity:1; 
stroke-linecap:round; stroke-linejoin:round;">
</g>
<g style="fill:#840000; fill-opacity:0.0; 
stroke:#840000; stroke-width:0; stroke-opacity:1; 
stroke-linecap:round; stroke-linejoin:round;">
</g>
<g style="fill:#840000; fill-opacity:0.0; 
stroke:#840000; stroke-width:60; stroke-opacity:1; 
stroke-linecap:round; stroke-linejoin:round;">
<rect x="31500" y="14500" width="3000" height="3000" rx="0" />
<path d="M33000 17500
L33000 19500
" />
</g>
<g style="fill:#008484; fill-opacity:0.0; 
stroke:#008484; stroke-width:60; stroke-opacity:1; 
stroke-linecap:round; stroke-linejoin:round;">
<path d="M33080 17000
L33080 16770
" />
<path d="M33230 17050
L32730 16890
L33230 16720
" />
</g>
<g style="fill:#840000; fill-opacity:0.0; 
stroke:#840000; stroke-width:60; stroke-opacity:1; 
stroke-linecap:round; stroke-linejoin:round;">
<path d="M32880 18360
L32880 18640
" />
<path d="M32880 18500
L32380 18500
L32450 18550
L32500 18600
L32520 18640
" />
<path d="M31500 16000
L29500 16000
" />
</g>
<g style="fill:#008484; fill-opacity:0.0; 
stroke:#008484; stroke-width:60; stroke-opacity:1; 
stroke-linecap:round; stroke-linejoin:round;">
<path d="M32190 15960
L32260 15990
L32280 16010
L32300 16060
L32300 16130
L32280 16180
L32260 16200
L32210 16230
L32020 16230
L32020 15730
L32190 15730
L32230 15750
L32260 15770
L32280 15820
L32280 15870
L32260 15920
L32230 15940
L32190 15960
L32020 15960
" />
</g>
<g style="fill:#840000; fill-opacity:0.0; 
stroke:#840000; stroke-width:60; stroke-opacity:1; 
stroke-linecap:round; stroke-linejoin:round;">
<path d="M30360 15420
L30380 15400
L30430 15380
L30550 15380
L30590 15400
L30620 15420
L30640 15470
L30640 15520
L30620 15590
L30330 15880
L30640 15880
" />
<path d="M33000 14500
L33000 12500
" />
</g>
<g style="fill:#008484; fill-opacity:0.0; 
stroke:#008484; stroke-width:60; stroke-opacity:1; 
stroke-linecap:round; stroke-linejoin:round;">
<path d="M33180 15000
L33200 15020
L33230 15090
L33230 15140
L33200 15210
L33150 15260
L33110 15280
L33010 15300
L32940 15300
L32850 15280
L32800 15260
L32750 15210
L32730 15140
L32730 15090
L32750 15020
L32770 15000
" />
</g>
<g style="fill:#840000; fill-opacity:0.0; 
stroke:#840000; stroke-width:60; stroke-opacity:1; 
stroke-linecap:round; stroke-linejoin:round;">
<path d="M32380 13670
L32380 13360
L32570 13530
L32570 13450
L32590 13410
L32610 13380
L32660 13360
L32780 13360
L32830 13380
L32850 13410
L32880 13450
L32880 13600
L32850 13640
L32830 13670
" />
</g>
<g style="fill:#008484; fill-opacity:0.0; 
stroke:#008484; stroke-width:60; stroke-opacity:1; 
stroke-linecap:round; stroke-linejoin:round;">
<path d="M35200 16460
L35230 16370
L35230 16230
L35200 16170
L35170 16140
L35120 16110
L35060 16110
L35000 16140
L34970 16170
L34950 16230
L34920 16340
L34890 16400
L34860 16430
L34800 16460
L34750 16460
L34690 16430
L34660 16400
L34630 16340
L34630 16200
L34660 16110
" />
<path d="M35230 15540
L35230 15890
" />
<path d="M35230 15710
L34630 15710
L34720 15770
L34770 15830
L34800 15890
" />
</g>
<g style="fill:#008484; fill-opacity:0.0; 
stroke:#008484; stroke-width:50; stroke-opacity:1; 
stroke-linecap:round; stroke-linejoin:round;">
<path d="M34090 17260
L34110 17220
L34110 17140
L34090 17110
L34080 17100
L34050 17080
L34020 17080
L33990 17100
L33970 17110
L33960 17140
L33940 17200
L33930 17230
L33910 17250
L33880 17260
L33850 17260
L33820 17250
L33810 17230
L33800 17200
L33800 17130
L33810 17080
" />
<path d="M34130 17020
L34130 16780
" />
<path d="M33800 16620
L34020 16620
L34060 16630
L34090 16660
L34110 16710
L34110 16740
" />
<path d="M33800 16470
L34050 16470
L34080 16450
L34090 16440
L34110 16410
L34110 16350
L34090 16320
L34080 16300
L34050 16290
L33800 16290
" />
<path d="M34110 16150
L33800 16150
L34020 16040
L33800 15940
L34110 15940
" />
<path d="M34110 15800
L33800 15800
L33800 15680
L33810 15650
L33820 15630
L33850 15620
L33900 15620
L33930 15630
L33940 15650
L33960 15680
L33960 15800
" />
<path d="M33940 15490
L33940 15380
" />
<path d="M34110 15340
L34110 15490
L33800 15490
L33800 15340
" />
<path d="M34110 15030
L33960 15130
" />
<path d="M34110 15210
L33800 15210
L33800 15090
L33810 15060
L33820 15040
L33850 15030
L33900 15030
L33930 15040
L33940 15060
L33960 15090
L33960 15210
" />
<path d="M33800 14930
L33800 14730
L33910 14840
L33910 14790
L33930 14760
L33940 14750
L33970 14730
L34050 14730
L34080 14750
L34090 14760
L34110 14790
L34110 14880
L34090 14910
L34080 14930
" />
</g>
<g style="fill:#008484; fill-opacity:0.0; 
stroke:#008484; stroke-width:0; stroke-opacity:1; 
stroke-linecap:round; stroke-linejoin:round;">
</g>
<g style="fill:#840000; fill-opacity:0.0; 
stroke:#840000; stroke-width:0; stroke-opacity:1; 
stroke-linecap:round; stroke-linejoin:round;">
</g>
<g style="fill:#840000; fill-opacity:0.0; 
stroke:#840000; stroke-width:60; stroke-opacity:1; 
stroke-linecap:round; stroke-linejoin:round;">
<rect x="37500" y="15500" width="3000" height="3000" rx="0" />
<path d="M39000 18500
L39000 20500
" />
</g>
<g style="fill:#008484; fill-opacity:0.0; 
stroke:#008484; stroke-width:60; stroke-opacity:1; 
stroke-linecap:round; stroke-linejoin:round;">
<path d="M39080 18000
L39080 17770
" />
<path d="M39230 18050
L38730 17890
L39230 17720
" />
</g>
<g style="fill:#840000; fill-opacity:0.0; 
stroke:#840000; stroke-width:60; stroke-opacity:1; 
stroke-linecap:round; stroke-linejoin:round;">
<path d="M38880 19360
L38880 19640
" />
<path d="M38880 19500
L38380 19500
L38450 19550
L38500 19600
L38520 19640
" />
<path d="M37500 17000
L35500 17000
" />
</g>
<g style="fill:#008484; fill-opacity:0.0; 
stroke:#008484; stroke-width:60; stroke-opacity:1; 
stroke-linecap:round; stroke-linejoin:round;">
<path d="M38190 16960
L38260 16990
L38280 17010
L38300 17060
L38300 17130
L38280 17180
L38260 17200
L38210 17230
L38020 17230
L38020 16730
L38190 16730
L38230 16750
L38260 16770
L38280 16820
L38280 16870
L38260 16920
L38230 16940
L38190 16960
L38020 16960
" />
</g>
<g style="fill:#840000; fill-opacity:0.0; 
stroke:#840000; stroke-width:60; stroke-opacity:1; 
stroke-linecap:round; stroke-linejoin:round;">
<path d="M36360 16420
L36380 16400
L36430 16380
L36550 16380
L36590 16400
L36620 16420
L36640 16470
L36640 16520
L36620 16590
L36330 16880
L36640 16880
" />
<path d="M39000 15500
L39000 13500
" />
</g>
<g style="fill:#008484; fill-opacity:0.0; 
stroke:#008484; stroke-width:60; stroke-opacity:1; 
stroke-linecap:round; stroke-linejoin:round;">
<path d="M39180 16000
L39200 16020
L39230 16090
L39230 16140
L39200 16210
L39150 16260
L39110 16280
L39010 16300
L38940 16300
L38850 16280
L38800 16260
L38750 16210
L38730 16140
L38730 16090
L38750 16020
L38770 16000
" />
</g>
<g style="fill:#840000; fill-opacity:0.0; 
stroke:#840000; stroke-width:60; stroke-opacity:1; 
stroke-linecap:round; stroke-linejoin:round;">
<path d="M38380 14670
L38380 14360
L38570 14530
L38570 14450
L38590 14410
L38610 14380
L38660 14360
L38780 14360
L38830 14380
L38850 14410
L38880 14450
L38880 14600
L38850 14640
L38830 14670
" />
</g>
<g style="fill:#008484; fill-opacity:0.0; 
stroke:#008484; stroke-width:60; stroke-opacity:1; 
stroke-linecap:round; stroke-linejoin:round;">
<path d="M41200 17460
L41230 17370
L41230 17230
L41200 17170
L41170 17140
L41120 17110
L41060 17110
L41000 17140
L40970 17170
L40950 17230
L40920 17340
L40890 17400
L40860 17430
L40800 17460
L40750 17460
L40690 17430
L40660 17400
L40630 17340
L40630 17200
L40660 17110
" />
<path d="M40690 16890
L40660 16860
L40630 16800
L40630 16660
L40660 16600
L40690 16570
L40750 16540
L40800 16540
L40890 16570
L41230 16910
L41230 16540
" />
</g>
<g style="fill:#008484; fill-opacity:0.0; 
stroke:#008484; stroke-width:50; stroke-opacity:1; 
stroke-linecap:round; stroke-linejoin:round;">
<path d="M40090 18260
L40110 18220
L40110 18140
L40090 18110
L40080 18100
L40050 18080
L40020 18080
L39990 18100
L39970 18110
L39960 18140
L39940 18200
L39930 18230
L39910 18250
L39880 18260
L39850 18260
L39820 18250
L39810 18230
L39800 18200
L39800 18130
L39810 18080
" />
<path d="M40130 18020
L40130 17780
" />
<path d="M39800 17620
L40020 17620
L40060 17630
L40090 17660
L40110 17710
L40110 17740
" />
<path d="M39800 17470
L40050 17470
L40080 17450
L40090 17440
L40110 17410
L40110 17350
L40090 17320
L40080 17300
L40050 17290
L39800 17290
" />
<path d="M40110 17150
L39800 17150
L40020 17040
L39800 16940
L40110 16940
" />
<path d="M40110 16800
L39800 16800
L39800 16680
L39810 16650
L39820 16630
L39850 16620
L39900 16620
L39930 16630
L39940 16650
L39960 16680
L39960 16800
" />
<path d="M39940 16490
L39940 16380
" />
<path d="M40110 16340
L40110 16490
L39800 16490
L39800 16340
" />
<path d="M40110 16030
L39960 16130
" />
<path d="M40110 16210
L39800 16210
L39800 16090
L39810 16060
L39820 16040
L39850 16030
L39900 16030
L39930 16040
L39940 16060
L39960 16090
L39960 16210
" />
<path d="M39800 15930
L39800 15730
L39910 15840
L39910 15790
L39930 15760
L39940 15750
L39970 15730
L40050 15730
L40080 15750
L40090 15760
L40110 15790
L40110 15880
L40090 15910
L40080 15930
" />
</g>
<g style="fill:#008484; fill-opacity:0.0; 
stroke:#008484; stroke-width:0; stroke-opacity:1; 
stroke-linecap:round; stroke-linejoin:round;">
</g>
<g style="fill:#840000; fill-opacity:0.0; 
stroke:#840000; stroke-width:0; stroke-opacity:1; 
stroke-linecap:round; stroke-linejoin:round;">
</g>
<g style="fill:#840000; fill-opacity:0.0; 
stroke:#840000; stroke-width:60; stroke-opacity:1; 
stroke-linecap:round; stroke-linejoin:round;">
<rect x="43500" y="16500" width="3000" height="3000" rx="0" />
<path d="M45000 19500
L45000 21500
" />
</g>
<g style="fill:#008484; fill-opacity:0.0; 
stroke:#008484; stroke-width:60; stroke-opacity:1; 
stroke-linecap:round; stroke-linejoin:round;">
<path d="M45080 19000
L45080 18770
" />
<path d="M45230 19050
L44730 18890
L45230 18720
" />
</g>
<g style="fill:#840000; fill-opacity:0.0; 
stroke:#840000; stroke-width:60; stroke-opacity:1; 
stroke-linecap:round; stroke-linejoin:round;">
<path d="M44880 20360
L44880 20640
" />
<path d="M44880 20500
L44380 20500
L44450 20550
L44500 20600
L44520 20640
" />
<path d="M43500 18000
L41500 18000
" />
</g>
<g style="fill:#008484; fill-opacity:0.0; 
stroke:#008484; stroke-width:60; stroke-opacity:1; 
stroke-linecap:round; stroke-linejoin:round;">
<path d="M44190 17960
L44260 17990
L44280 18010
L44300 18060
L44300 18130
L44280 18180
L44260 18200
L44210 18230
L44020 18230
L44020 17730
L44190 17730
L44230 17750
L44260 17770
L44280 17820
L44280 17870
L44260 17920
L44230 17940
L44190 17960
L44020 17960
" />
</g>
<g style="fill:#840000; fill-opacity:0.0; 
stroke:#840000; stroke-width:60; stroke-opacity:1; 
stroke-linecap:round; stroke-linejoin:round;">
<path d="M42360 17420
L42380 17400
L42430 17380
L42550 17380
L42590 17400
L42620 17420
L42640 17470
L42640 17520
L42620 17590
L42330 17880
L42640 17880
" />
<path d="M45000 16500
L45000 14500
" />
</g>
<g style="fill:#008484; fill-opacity:0.0; 
stroke:#008484; stroke-width:60; stroke-opacity:1; 
stroke-linecap:round; stroke-linejoin:round;">
<path d="M45180 17000
L45200 17020
L45230 17090
L45230 17140
L45200 17210
L45150 17260
L45110 17280
L45010 17300
L44940 17300
L44850 17280
L44800 17260
L44750 17210
L44730 17140
L44730 17090
L44750 17020
L44770 17000
" />
</g>
<g style="fill:#840000; fill-opacity:0.0; 
stroke:#840000; stroke-width:60; stroke-opacity:1; 
stroke-linecap:round; stroke-linejoin:round;">
<path d="M44380 15670
L44380 15360
L44570 15530
L44570 15450
L44590 15410
L44610 15380
L44660 15360
L44780 15360
L44830 15380
L44850 15410
L44880 15450
L44880 15600
L44850 15640
L44830 15670
" />
</g>
<g style="fill:#008484; fill-opacity:0.0; 
stroke:#008484; stroke-width:60; stroke-opacity:1; 
stroke-linecap:round; stroke-linejoin:round;">
<path d="M47200 18460
L47230 18370
L47230 18230
L47200 18170
L47170 18140
L47120 18110
L47060 18110
L47000 18140
L46970 18170
L46950 18230
L46920 18340
L46890 18400
L46860 18430
L46800 18460
L46750 18460
L46690 18430
L46660 18400
L46630 18340
L46630 18200
L46660 18110
" />
<path d="M46630 17910
L46630 17540
L46860 17740
L46860 17660
L46890 17600
L46920 17570
L46970 17540
L47120 17540
L47170 17570
L47200 17600
L47230 17660
L47230 17830
L47200 17890
L47170 17910
" />
</g>
<g style="fill:#008484; fill-opacity:0.0; 
stroke:#008484; stroke-width:50; stroke-opacity:1; 
stroke-linecap:round; stroke-linejoin:round;">
<path d="M46090 19260
L46110 19220
L46110 19140
L46090 19110
L46080 19100
L46050 19080
L46020 19080
L45990 19100
L45970 19110
L45960 19140
L45940 19200
L45930 19230
L45910 19250
L45880 19260
L45850 19260
L45820 19250
L45810 19230
L45800 19200
L45800 19130
L45810 19080
" />
<path d="M46130 19020
L46130 18780
" />
<path d="M45800 18620
L46020 18620
L46060 18630
L46090 18660
L46110 18710
L46110 18740
" />
<path d="M45800 18470
L46050 18470
L46080 18450
L46090 18440
L46110 18410
L46110 18350
L46090 18320
L46080 18300
L46050 18290
L45800 18290
" />
<path d="M46110 18150
L45800 18150
L46020 18040
L45800 17940
L46110 17940
" />
<path d="M46110 17800
L45800 17800
L45800 17680
L45810 17650
L45820 17630
L45850 17620
L45900 17620
L45930 17630
L45940 17650
L45960 17680
L45960 17800
" />
<path d="M45940 17490
L45940 17380
" />
<path d="M46110 17340
L46110 17490
L45800 17490
L45800 17340
" />
<path d="M46110 17030
L45960 17130
" />
<path d="M46110 17210
L45800 17210
L45800 17090
L45810 17060
L45820 17040
L45850 17030
L45900 17030
L45930 17040
L45940 17060
L45960 17090
L45960 17210
" />
<path d="M45800 16930
L45800 16730
L45910 16840
L45910 16790
L45930 16760
L45940 16750
L45970 16730
L46050 16730
L46080 16750
L46090 16760
L46110 16790
L46110 16880
L46090 16910
L46080 16930
" />
</g>
<g style="fill:#008484; fill-opacity:0.0; 
stroke:#008484; stroke-width:60; stroke-opacity:1; 
stroke-linecap:round; stroke-linejoin:round;">
</g>
<g style="fill:#008400; fill-opacity:0.0; 
stroke:#008400; stroke-width:60; stroke-opacity:1; 
stroke-linecap:round; stroke-linejoin:round;">
<path d="M20500 16000
L12000 16000
" />
<path d="M12000 16000
L12000 15500
" />
<path d="M12000 15500
L9500 15500
" />
<path d="M9500 17500
L16500 17500
" />
</g>
<g style="fill:#000000; fill-opacity:0.0; 
stroke:#000000; stroke-width:60; stroke-opacity:1; 
stroke-linecap:round; stroke-linejoin:round;">
<path d="M10110 15340
L10200 15370
L10340 15370
L10400 15340
L10430 15310
L10460 15260
L10460 15200
L10430 15140
L10400 15110
L10340 15090
L10230 15060
L10170 15030
L10140 15000
L10110 14940
L10110 14890
L10140 14830
L10170 14800
L10230 14770
L10370 14770
L10460 14800
" />
<path d="M11060 15310
L11030 15340
L10940 15370
L10880 15370
L10800 15340
L10740 15290
L10710 15230
L10680 15110
L10680 15030
L10710 14910
L10740 14860
L10800 14800
L10880 14770
L10940 14770
L11030 14800
L11060 14830
" />
<path d="M11600 15370
L11310 15370
L11310 14770
" />
<path d="M10110 17340
L10200 17370
L10340 17370
L10400 17340
L10430 17310
L10460 17260
L10460 17200
L10430 17140
L10400 17110
L10340 17090
L10230 17060
L10170 17030
L10140 17000
L10110 16940
L10110 16890
L10140 16830
L10170 16800
L10230 16770
L10370 16770
L10460 16800
" />
<path d="M10710 17370
L10710 16770
L10860 16770
L10940 16800
L11000 16860
L11030 16910
L11060 17030
L11060 17110
L11030 17230
L11000 17290
L10940 17340
L10860 17370
L10710 17370
" />
<path d="M11280 17200
L11570 17200
" />
<path d="M11230 17370
L11430 16770
L11630 17370
" />
</g>
<g style="fill:#008400; fill-opacity:0.0; 
stroke:#008400; stroke-width:60; stroke-opacity:1; 
stroke-linecap:round; stroke-linejoin:round;">
<path d="M20500 15000
L16500 15000
" />
<path d="M16500 15000
L16500 17500
" />
<path d="M9500 11500
L15500 11500
" />
<path d="M15500 18000
L20500 18000
" />
<path d="M15500 10000
L15500 22500
" />
</g>
<g style="fill:#008400; fill-opacity:0.0; 
stroke:#008400; stroke-width:0; stroke-opacity:1; 
stroke-linecap:round; stroke-linejoin:round;">
</g>
<g style="fill:#008400; fill-opacity:1.0; 
stroke:#008400; stroke-width:100; stroke-opacity:1; 
stroke-linecap:round; stroke-linejoin:round;">
<circle cx="15500" cy="18000" r="200" /> 
</g>
<g style="fill:#008400; fill-opacity:1.0; 
stroke:#008400; stroke-width:60; stroke-opacity:1; 
stroke-linecap:round; stroke-linejoin:round;">
</g>
<g style="fill:#008400; fill-opacity:0.0; 
stroke:#008400; stroke-width:60; stroke-opacity:1; 
stroke-linecap:round; stroke-linejoin:round;">
<path d="M20000 13500
L20000 11500
" />
<path d="M20000 11500
L45000 11500
" />
<path d="M17000 13000
L17000 13500
" />
</g>
<g style="fill:#008400; fill-opacity:0.0; 
stroke:#008400; stroke-width:0; stroke-opacity:1; 
stroke-linecap:round; stroke-linejoin:round;">
</g>
<g style="fill:#008400; fill-opacity:1.0; 
stroke:#008400; stroke-width:100; stroke-opacity:1; 
stroke-linecap:round; stroke-linejoin:round;">
<circle cx="17000" cy="13500" r="200" /> 
</g>
<g style="fill:#008400; fill-opacity:1.0; 
stroke:#008400; stroke-width:60; stroke-opacity:1; 
stroke-linecap:round; stroke-linejoin:round;">
</g>
<g style="fill:#008400; fill-opacity:0.0; 
stroke:#008400; stroke-width:60; stroke-opacity:1; 
stroke-linecap:round; stroke-linejoin:round;">
<path d="M15500 10000
L17000 10000
" />
</g>
<g style="fill:#008400; fill-opacity:0.0; 
stroke:#008400; stroke-width:0; stroke-opacity:1; 
stroke-linecap:round; stroke-linejoin:round;">
</g>
<g style="fill:#008400; fill-opacity:1.0; 
stroke:#008400; stroke-width:100; stroke-opacity:1; 
stroke-linecap:round; stroke-linejoin:round;">
<circle cx="15500" cy="11500" r="200" /> 
</g> 
</svg>
