<?xml version="1.0" encoding="UTF-8" standalone="no"?>
<!DOCTYPE svg PUBLIC "-//W3C//DTD SVG 1.0//EN" "http://www.w3.org/TR/2001/PR-SVG-20010719/DTD/svg10.dtd">
<svg width="122cm" height="55cm" viewBox="-56 60 2438 1085" xmlns="http://www.w3.org/2000/svg" xmlns:xlink="http://www.w3.org/1999/xlink">
  <ellipse style="fill: #000000" cx="97.2722" cy="140.804" rx="10" ry="10"/>
  <g>
    <rect style="fill: #ffffff" x="45.3512" y="196.088" width="104.55" height="36" rx="20" ry="20"/>
    <rect style="fill: none; fill-opacity:0; stroke-width: 2; stroke: #000000" x="45.3512" y="196.088" width="104.55" height="36" rx="20" ry="20"/>
    <text font-size="12.8" style="fill: #000000;text-anchor:middle;font-family:sans-serif;font-style:normal;font-weight:normal" x="97.6262" y="217.988">
      <tspan x="97.6262" y="217.988">init hardware</tspan>
    </text>
  </g>
  <g>
    <polyline style="fill: none; fill-opacity:0; stroke-width: 2; stroke: #000000" points="97.2722,151.81 97.2722,173.949 97.6262,173.949 97.6262,191.616 "/>
    <polyline style="fill: none; fill-opacity:0; stroke-width: 2; stroke: #000000" points="92.6262,183.852 97.6262,193.852 102.626,183.852 "/>
  </g>
  <g>
    <rect style="fill: #ffffff" x="56.917" y="369.244" width="80" height="36" rx="20" ry="20"/>
    <rect style="fill: none; fill-opacity:0; stroke-width: 2; stroke: #000000" x="56.917" y="369.244" width="80" height="36" rx="20" ry="20"/>
    <text font-size="12.8" style="fill: #000000;text-anchor:middle;font-family:sans-serif;font-style:normal;font-weight:normal" x="96.917" y="391.144">
      <tspan x="96.917" y="391.144">start log</tspan>
    </text>
  </g>
  <g>
    <polyline style="fill: none; fill-opacity:0; stroke-width: 2; stroke: #000000" points="97.1332,319.888 97.1332,344.566 96.917,344.566 96.917,364.772 "/>
    <polyline style="fill: none; fill-opacity:0; stroke-width: 2; stroke: #000000" points="91.917,357.008 96.917,367.008 101.917,357.008 "/>
  </g>
  <g>
    <polyline style="fill: none; fill-opacity:0; stroke-width: 2; stroke: #000000" points="96.917,405.244 96.917,428 97,428 97,451.528 "/>
    <polyline style="fill: none; fill-opacity:0; stroke-width: 2; stroke: #000000" points="92,443.764 97,453.764 102,443.764 "/>
  </g>
  <rect style="fill: #000000" x="57" y="456" width="80" height="8"/>
  <g>
    <polyline style="fill: none; fill-opacity:0; stroke-width: 2; stroke: #000000" points="67,464 67,484 67,484 67,554.278 "/>
    <polyline style="fill: none; fill-opacity:0; stroke-width: 2; stroke: #000000" points="62,546.514 67,556.514 72,546.514 "/>
  </g>
  <g>
    <polyline style="fill: none; fill-opacity:0; stroke-width: 2; stroke: #000000" points="127,464 127,483.75 767.352,483.75 767.352,524.992 "/>
    <polyline style="fill: none; fill-opacity:0; stroke-width: 2; stroke: #000000" points="762.352,517.228 767.352,527.228 772.352,517.228 "/>
  </g>
  <g>
    <polygon style="fill: #ffffff" points="47,578.75 67,558.75 87,578.75 67,598.75 "/>
    <polygon style="fill: none; fill-opacity:0; stroke-width: 2; stroke: #000000" points="47,578.75 67,558.75 87,578.75 67,598.75 "/>
  </g>
  <text font-size="12.8" style="fill: #000000;text-anchor:start;font-family:sans-serif;font-style:normal;font-weight:normal" x="-55.405" y="541.994">
    <tspan x="-55.405" y="541.994">last sending operation &gt; 1 second ago?</tspan>
  </text>
  <g>
    <line style="fill: none; fill-opacity:0; stroke-width: 2; stroke-dasharray: 8; stroke: #000000" x1="87" y1="578.75" x2="174.295" y2="577.821"/>
    <polyline style="fill: none; fill-opacity:0; stroke-width: 2; stroke: #000000" points="161.702,582.956 177.648,577.786 161.595,572.956 "/>
    <text font-size="12.7998" style="fill: #000000;text-anchor:start;font-family:monospace;font-style:normal;font-weight:normal" x="116" y="571.75">{Yes}</text>
  </g>
  <g>
    <rect style="fill: #ffffff" x="181" y="559.75" width="162.05" height="36" rx="20" ry="20"/>
    <rect style="fill: none; fill-opacity:0; stroke-width: 2; stroke: #000000" x="181" y="559.75" width="162.05" height="36" rx="20" ry="20"/>
    <text font-size="12.8" style="fill: #000000;text-anchor:middle;font-family:sans-serif;font-style:normal;font-weight:normal" x="262.025" y="581.65">
      <tspan x="262.025" y="581.65">transmit "alive" signal</tspan>
    </text>
  </g>
  <g>
    <line style="fill: none; fill-opacity:0; stroke-width: 2; stroke-dasharray: 8; stroke: #000000" x1="67" y1="598.75" x2="66.2306" y2="621.299"/>
    <polyline style="fill: none; fill-opacity:0; stroke-width: 2; stroke: #000000" points="61.6648,608.488 66.1163,624.649 71.659,608.829 "/>
    <text font-size="12.7998" style="fill: #000000;text-anchor:start;font-family:monospace;font-style:normal;font-weight:normal" x="66.501" y="609.376">{No}</text>
  </g>
  <g>
    <polyline style="fill: none; fill-opacity:0; stroke-width: 2; stroke: #000000" points="262.025,595.75 262.025,625.75 17,625.75 17,578.75 42.5279,578.75 "/>
    <polyline style="fill: none; fill-opacity:0; stroke-width: 2; stroke: #000000" points="34.7639,583.75 44.7639,578.75 34.7639,573.75 "/>
  </g>
  <text font-size="12.8" style="fill: #000000;text-anchor:start;font-family:sans-serif;font-style:normal;font-weight:normal" x="77.1128" y="110.415">
    <tspan x="77.1128" y="110.415">startup</tspan>
  </text>
  <ellipse style="fill: #000000" cx="1581.49" cy="192.758" rx="10" ry="10"/>
  <text font-size="12.8" style="fill: #000000;text-anchor:start;font-family:sans-serif;font-style:normal;font-weight:normal" x="1571.49" y="162.304">
    <tspan x="1571.49" y="162.304">LO</tspan>
  </text>
  <g>
    <polyline style="fill: none; fill-opacity:0; stroke-width: 2; stroke: #000000" points="1581.49,203.764 1581.49,242.328 1581.6,242.328 1581.6,276.42 "/>
    <polyline style="fill: none; fill-opacity:0; stroke-width: 2; stroke: #000000" points="1576.6,268.656 1581.6,278.656 1586.6,268.656 "/>
  </g>
  <ellipse style="fill: #000000" cx="1581.49" cy="418.494" rx="10" ry="10"/>
  <ellipse style="fill: #000000" cx="1790.97" cy="188.95" rx="10" ry="10"/>
  <g>
    <rect style="fill: #ffffff" x="1739.59" y="343.46" width="102.2" height="36" rx="20" ry="20"/>
    <rect style="fill: none; fill-opacity:0; stroke-width: 2; stroke: #000000" x="1739.59" y="343.46" width="102.2" height="36" rx="20" ry="20"/>
    <text font-size="12.8" style="fill: #000000;text-anchor:middle;font-family:sans-serif;font-style:normal;font-weight:normal" x="1790.69" y="365.36">
      <tspan x="1790.69" y="365.36">unlock HPPM</tspan>
    </text>
  </g>
  <g>
    <rect style="fill: #ffffff" x="1746.42" y="426.664" width="87.45" height="36" rx="20" ry="20"/>
    <rect style="fill: none; fill-opacity:0; stroke-width: 2; stroke: #000000" x="1746.42" y="426.664" width="87.45" height="36" rx="20" ry="20"/>
    <text font-size="12.8" style="fill: #000000;text-anchor:middle;font-family:sans-serif;font-style:normal;font-weight:normal" x="1790.14" y="448.564">
      <tspan x="1790.14" y="448.564">power HPs</tspan>
    </text>
  </g>
  <g>
    <polyline style="fill: none; fill-opacity:0; stroke-width: 2; stroke: #000000" points="1790.69,379.46 1790.69,403.062 1790.14,403.062 1790.14,422.192 "/>
    <polyline style="fill: none; fill-opacity:0; stroke-width: 2; stroke: #000000" points="1785.14,414.428 1790.14,424.428 1795.14,414.428 "/>
  </g>
  <text font-size="12.8" style="fill: #000000;text-anchor:start;font-family:sans-serif;font-style:normal;font-weight:normal" x="2283.94" y="155.379">
    <tspan x="2283.94" y="155.379"></tspan>
  </text>
  <text font-size="12.8" style="fill: #000000;text-anchor:start;font-family:sans-serif;font-style:normal;font-weight:normal" x="1755.14" y="161.231">
    <tspan x="1755.14" y="161.231">enable SOE</tspan>
  </text>
  <ellipse style="fill: #000000" cx="1789.94" cy="524.51" rx="10" ry="10"/>
  <ellipse style="fill: #000000" cx="2013.68" cy="189.275" rx="10" ry="10"/>
  <g>
    <polyline style="fill: none; fill-opacity:0; stroke-width: 2; stroke: #000000" points="2013.68,200.28 2013.68,222.044 2013.89,222.044 2013.89,239.336 "/>
    <polyline style="fill: none; fill-opacity:0; stroke-width: 2; stroke: #000000" points="2008.89,231.572 2013.89,241.572 2018.89,231.572 "/>
  </g>
  <text font-size="12.8" style="fill: #000000;text-anchor:start;font-family:sans-serif;font-style:normal;font-weight:normal" x="1975.21" y="158.508">
    <tspan x="1975.21" y="158.508">disable SOE</tspan>
  </text>
  <g>
    <rect style="fill: #ffffff" x="1963.96" y="426.762" width="103.5" height="36" rx="20" ry="20"/>
    <rect style="fill: none; fill-opacity:0; stroke-width: 2; stroke: #000000" x="1963.96" y="426.762" width="103.5" height="36" rx="20" ry="20"/>
    <text font-size="12.8" style="fill: #000000;text-anchor:middle;font-family:sans-serif;font-style:normal;font-weight:normal" x="2015.71" y="448.662">
      <tspan x="2015.71" y="448.662">depower HPs</tspan>
    </text>
  </g>
  <g>
    <polyline style="fill: none; fill-opacity:0; stroke-width: 2; stroke: #000000" points="2015.66,377.998 2015.66,402.38 2015.71,402.38 2015.71,422.29 "/>
    <polyline style="fill: none; fill-opacity:0; stroke-width: 2; stroke: #000000" points="2010.71,414.526 2015.71,424.526 2020.71,414.526 "/>
  </g>
  <g>
    <polyline style="fill: none; fill-opacity:0; stroke-width: 2; stroke: #000000" points="2015.71,462.762 2015.71,488.92 2015.76,488.92 2015.76,510.606 "/>
    <polyline style="fill: none; fill-opacity:0; stroke-width: 2; stroke: #000000" points="2010.76,502.843 2015.76,512.843 2020.76,502.843 "/>
  </g>
  <ellipse style="fill: #000000" cx="2015.76" cy="526.084" rx="10" ry="10"/>
  <g>
    <rect style="fill: #ffffff" x="1965.86" y="341.998" width="99.6" height="36" rx="20" ry="20"/>
    <rect style="fill: none; fill-opacity:0; stroke-width: 2; stroke: #000000" x="1965.86" y="341.998" width="99.6" height="36" rx="20" ry="20"/>
    <text font-size="12.8" style="fill: #000000;text-anchor:middle;font-family:sans-serif;font-style:normal;font-weight:normal" x="2015.66" y="363.898">
      <tspan x="2015.66" y="363.898">retrieve HPS</tspan>
    </text>
  </g>
  <g>
    <rect style="fill: #ffffff" x="1236.7" y="334.222" width="166.95" height="36" rx="20" ry="20"/>
    <rect style="fill: none; fill-opacity:0; stroke-width: 2; stroke: #000000" x="1236.7" y="334.222" width="166.95" height="36" rx="20" ry="20"/>
    <text font-size="12.8" style="fill: #000000;text-anchor:middle;font-family:sans-serif;font-style:normal;font-weight:normal" x="1320.18" y="356.122">
      <tspan x="1320.18" y="356.122">start camera recording</tspan>
    </text>
  </g>
  <g>
    <rect style="fill: #ffffff" x="1218.81" y="248.416" width="200.05" height="36" rx="20" ry="20"/>
    <rect style="fill: none; fill-opacity:0; stroke-width: 2; stroke: #000000" x="1218.81" y="248.416" width="200.05" height="36" rx="20" ry="20"/>
    <text font-size="12.8" style="fill: #000000;text-anchor:middle;font-family:sans-serif;font-style:normal;font-weight:normal" x="1318.84" y="270.316">
      <tspan x="1318.84" y="270.316">enable camera lense heater</tspan>
    </text>
  </g>
  <text font-size="12.8" style="fill: #000000;text-anchor:start;font-family:sans-serif;font-style:normal;font-weight:normal" x="1275" y="160.211">
    <tspan x="1275" y="160.211">enable SODS</tspan>
  </text>
  <ellipse style="fill: #000000" cx="1319.42" cy="190.342" rx="10" ry="10"/>
  <ellipse style="fill: #000000" cx="2282.88" cy="189.995" rx="10" ry="10"/>
  <text font-size="12.8" style="fill: #000000;text-anchor:start;font-family:sans-serif;font-style:normal;font-weight:normal" x="2231.28" y="153.89">
    <tspan x="2231.28" y="153.89">disable SODS</tspan>
  </text>
  <g>
    <rect style="fill: #ffffff" x="2185.86" y="244.962" width="194.9" height="36" rx="20" ry="20"/>
    <rect style="fill: none; fill-opacity:0; stroke-width: 2; stroke: #000000" x="2185.86" y="244.962" width="194.9" height="36" rx="20" ry="20"/>
    <text font-size="12.8" style="fill: #000000;text-anchor:middle;font-family:sans-serif;font-style:normal;font-weight:normal" x="2283.31" y="266.862">
      <tspan x="2283.31" y="266.862">shutdown camera &amp; heater</tspan>
    </text>
  </g>
  <g>
    <rect style="fill: #ffffff" x="2234.48" y="341.492" width="98.15" height="36" rx="20" ry="20"/>
    <rect style="fill: none; fill-opacity:0; stroke-width: 2; stroke: #000000" x="2234.48" y="341.492" width="98.15" height="36" rx="20" ry="20"/>
    <text font-size="12.8" style="fill: #000000;text-anchor:middle;font-family:sans-serif;font-style:normal;font-weight:normal" x="2283.56" y="363.392">
      <tspan x="2283.56" y="363.392">shutdown pi</tspan>
    </text>
  </g>
  <g>
    <rect style="fill: #ffffff" x="2206.96" y="427.438" width="152.4" height="36" rx="20" ry="20"/>
    <rect style="fill: none; fill-opacity:0; stroke-width: 2; stroke: #000000" x="2206.96" y="427.438" width="152.4" height="36" rx="20" ry="20"/>
    <text font-size="12.8" style="fill: #000000;text-anchor:middle;font-family:sans-serif;font-style:normal;font-weight:normal" x="2283.16" y="449.338">
      <tspan x="2283.16" y="449.338">disable local storage</tspan>
    </text>
  </g>
  <g>
    <rect style="fill: #ffffff" x="30.7082" y="283.888" width="132.85" height="36" rx="20" ry="20"/>
    <rect style="fill: none; fill-opacity:0; stroke-width: 2; stroke: #000000" x="30.7082" y="283.888" width="132.85" height="36" rx="20" ry="20"/>
    <text font-size="12.8" style="fill: #000000;text-anchor:middle;font-family:sans-serif;font-style:normal;font-weight:normal" x="97.1332" y="305.788">
      <tspan x="97.1332" y="305.788">homing actuators</tspan>
    </text>
  </g>
  <g>
    <polyline style="fill: none; fill-opacity:0; stroke-width: 2; stroke: #000000" points="97.6262,232.088 97.6262,257.988 97.1332,257.988 97.1332,279.416 "/>
    <polyline style="fill: none; fill-opacity:0; stroke-width: 2; stroke: #000000" points="92.1332,271.652 97.1332,281.652 102.133,271.652 "/>
  </g>
  <rect style="fill: #000000" x="633.728" y="529.464" width="267.249" height="8"/>
  <g>
    <line style="fill: none; fill-opacity:0; stroke-width: 2; stroke-dasharray: 8; stroke: #000000" x1="667.134" y1="537.464" x2="277.988" y2="760.134"/>
    <polyline style="fill: none; fill-opacity:0; stroke-width: 2; stroke: #000000" points="286.482,749.513 275.078,761.799 291.448,758.192 "/>
    <text font-size="12.7998" style="fill: #000000;text-anchor:start;font-family:monospace;font-style:normal;font-weight:normal" x="380.668" y="629.626">{ice temperature}</text>
  </g>
  <g>
    <line style="fill: none; fill-opacity:0; stroke-width: 2; stroke-dasharray: 8; stroke: #000000" x1="767.352" y1="537.464" x2="768.512" y2="752.181"/>
    <polyline style="fill: none; fill-opacity:0; stroke-width: 2; stroke: #000000" points="763.444,739.561 768.53,755.533 773.443,739.507 "/>
    <text font-size="12.7998" style="fill: #000000;text-anchor:start;font-family:monospace;font-style:normal;font-weight:normal" x="768.158" y="598.514">{HPPM force}</text>
  </g>
  <g>
    <line style="fill: none; fill-opacity:0; stroke-width: 2; stroke-dasharray: 8; stroke: #000000" x1="867.57" y1="537.464" x2="1180.06" y2="756.843"/>
    <polyline style="fill: none; fill-opacity:0; stroke-width: 2; stroke: #000000" points="1166.84,753.669 1182.81,758.77 1172.58,745.484 "/>
    <text font-size="12.7998" style="fill: #000000;text-anchor:start;font-family:monospace;font-style:normal;font-weight:normal" x="968.974" y="599.928">{HP temperature}</text>
  </g>
  <g>
    <line style="fill: none; fill-opacity:0; stroke-width: 2; stroke-dasharray: 8; stroke: #000000" x1="667.134" y1="537.464" x2="468.371" y2="761.235"/>
    <polyline style="fill: none; fill-opacity:0; stroke-width: 2; stroke: #000000" points="473.032,748.459 466.144,763.741 480.508,755.1 "/>
    <text font-size="12.7998" style="fill: #000000;text-anchor:start;font-family:monospace;font-style:normal;font-weight:normal" x="575.006" y="659.448">{battery temperature}</text>
  </g>
  <g>
    <line style="fill: none; fill-opacity:0; stroke-width: 2; stroke-dasharray: 8; stroke: #000000" x1="867.57" y1="537.464" x2="970.701" y2="756.092"/>
    <polyline style="fill: none; fill-opacity:0; stroke-width: 2; stroke: #000000" points="960.783,746.786 972.132,759.124 969.828,742.52 "/>
    <text font-size="12.7998" style="fill: #000000;text-anchor:start;font-family:monospace;font-style:normal;font-weight:normal" x="935.034" y="677.71">{pressure}</text>
  </g>
  <g>
    <rect style="fill: #ffffff" x="231.294" y="763.464" width="81.75" height="36" rx="20" ry="20"/>
    <rect style="fill: none; fill-opacity:0; stroke-width: 2; stroke: #000000" x="231.294" y="763.464" width="81.75" height="36" rx="20" ry="20"/>
    <text font-size="12.8" style="fill: #000000;text-anchor:middle;font-family:sans-serif;font-style:normal;font-weight:normal" x="272.169" y="785.364">
      <tspan x="272.169" y="785.364">read data</tspan>
    </text>
  </g>
  <g>
    <rect style="fill: #ffffff" x="423.042" y="766.248" width="81.75" height="36" rx="20" ry="20"/>
    <rect style="fill: none; fill-opacity:0; stroke-width: 2; stroke: #000000" x="423.042" y="766.248" width="81.75" height="36" rx="20" ry="20"/>
    <text font-size="12.8" style="fill: #000000;text-anchor:middle;font-family:sans-serif;font-style:normal;font-weight:normal" x="463.917" y="788.148">
      <tspan x="463.917" y="788.148">read data</tspan>
    </text>
  </g>
  <g>
    <rect style="fill: #ffffff" x="1144.67" y="760.696" width="81.75" height="36" rx="20" ry="20"/>
    <rect style="fill: none; fill-opacity:0; stroke-width: 2; stroke: #000000" x="1144.67" y="760.696" width="81.75" height="36" rx="20" ry="20"/>
    <text font-size="12.8" style="fill: #000000;text-anchor:middle;font-family:sans-serif;font-style:normal;font-weight:normal" x="1185.55" y="782.596">
      <tspan x="1185.55" y="782.596">read data</tspan>
    </text>
  </g>
  <g>
    <rect style="fill: #ffffff" x="220.318" y="875.25" width="104.75" height="52" rx="20" ry="20"/>
    <rect style="fill: none; fill-opacity:0; stroke-width: 2; stroke: #000000" x="220.318" y="875.25" width="104.75" height="52" rx="20" ry="20"/>
    <text font-size="12.8" style="fill: #000000;text-anchor:middle;font-family:sans-serif;font-style:normal;font-weight:normal" x="272.693" y="897.15">
      <tspan x="272.693" y="897.15">transmit &amp;</tspan>
      <tspan x="272.693" y="913.15">log (after LO)</tspan>
    </text>
  </g>
  <g>
    <polyline style="fill: none; fill-opacity:0; stroke-width: 2; stroke: #000000" points="272.169,799.464 272.169,837.357 272.693,837.357 272.693,870.778 "/>
    <polyline style="fill: none; fill-opacity:0; stroke-width: 2; stroke: #000000" points="267.693,863.014 272.693,873.014 277.693,863.014 "/>
  </g>
  <g>
    <polyline style="fill: none; fill-opacity:0; stroke-width: 2; stroke: #000000" points="220.318,901.25 190.318,901.25 190.318,781.464 226.822,781.464 "/>
    <polyline style="fill: none; fill-opacity:0; stroke-width: 2; stroke: #000000" points="219.058,786.464 229.058,781.464 219.058,776.464 "/>
  </g>
  <g>
    <polygon style="fill: #ffffff" points="443.244,973.272 463.244,953.272 483.244,973.272 463.244,993.272 "/>
    <polygon style="fill: none; fill-opacity:0; stroke-width: 2; stroke: #000000" points="443.244,973.272 463.244,953.272 483.244,973.272 463.244,993.272 "/>
  </g>
  <g>
    <polyline style="fill: none; fill-opacity:0; stroke-width: 2; stroke: #000000" points="463.917,802.248 463.917,877.76 463.244,877.76 463.244,948.8 "/>
    <polyline style="fill: none; fill-opacity:0; stroke-width: 2; stroke: #000000" points="458.244,941.036 463.244,951.036 468.244,941.036 "/>
  </g>
  <g>
    <polygon style="fill: #ffffff" points="532.23,438.564 923.23,438.564 935.23,450.564 935.23,472.564 532.23,472.564 "/>
    <polygon style="fill: none; fill-opacity:0; stroke-width: 2; stroke: #000000" points="532.23,438.564 923.23,438.564 935.23,450.564 935.23,472.564 532.23,472.564 "/>
    <polyline style="fill: none; fill-opacity:0; stroke-width: 1; stroke: #000000" points="923.23,438.564 923.23,450.564 935.23,450.564 "/>
    <text font-size="12.8" style="fill: #000000;text-anchor:start;font-family:monospace;font-style:normal;font-weight:normal" x="539.23" y="463.464">
      <tspan x="539.23" y="463.464">for data acquisition frequencys: see documentation</tspan>
    </text>
  </g>
  <text font-size="12.8" style="fill: #000000;text-anchor:start;font-family:sans-serif;font-style:normal;font-weight:normal" x="381.44" y="932.226">
    <tspan x="381.44" y="932.226">temperature ok?</tspan>
  </text>
  <g>
    <line style="fill: none; fill-opacity:0; stroke-width: 2; stroke-dasharray: 8; stroke: #000000" x1="463.244" y1="993.272" x2="464.091" y2="1069.06"/>
    <polyline style="fill: none; fill-opacity:0; stroke-width: 2; stroke: #000000" points="458.95,1056.47 464.129,1072.42 468.949,1056.36 "/>
    <text font-size="12.7998" style="fill: #000000;text-anchor:start;font-family:monospace;font-style:normal;font-weight:normal" x="463.706" y="1030.52">{No}</text>
  </g>
  <g>
    <line style="fill: none; fill-opacity:0; stroke-width: 2; stroke-dasharray: 8; stroke: #000000" x1="483.244" y1="973.272" x2="564.963" y2="972.775"/>
    <polyline style="fill: none; fill-opacity:0; stroke-width: 2; stroke: #000000" points="552.346,977.852 568.315,972.754 552.285,967.852 "/>
    <text font-size="12.7998" style="fill: #000000;text-anchor:start;font-family:monospace;font-style:normal;font-weight:normal" x="502.782" y="968.178">{Yes}</text>
  </g>
  <rect style="fill: #000000" x="561.668" y="964.734" width="80" height="8"/>
  <g>
    <rect style="fill: #ffffff" x="424.166" y="1075.77" width="80" height="36" rx="20" ry="20"/>
    <rect style="fill: none; fill-opacity:0; stroke-width: 2; stroke: #000000" x="424.166" y="1075.77" width="80" height="36" rx="20" ry="20"/>
    <text font-size="12.8" style="fill: #000000;text-anchor:middle;font-family:sans-serif;font-style:normal;font-weight:normal" x="464.166" y="1097.67">
      <tspan x="464.166" y="1097.67">control</tspan>
    </text>
  </g>
  <g>
    <polyline style="fill: none; fill-opacity:0; stroke-width: 2; stroke: #000000" points="464.166,1111.77 464.166,1141.77 601.668,1141.77 601.668,977.206 "/>
    <polyline style="fill: none; fill-opacity:0; stroke-width: 2; stroke: #000000" points="606.668,984.97 601.668,974.97 596.668,984.97 "/>
  </g>
  <g>
    <rect style="fill: #ffffff" x="548.83" y="830.858" width="104.75" height="52" rx="20" ry="20"/>
    <rect style="fill: none; fill-opacity:0; stroke-width: 2; stroke: #000000" x="548.83" y="830.858" width="104.75" height="52" rx="20" ry="20"/>
    <text font-size="12.8" style="fill: #000000;text-anchor:middle;font-family:sans-serif;font-style:normal;font-weight:normal" x="601.205" y="852.758">
      <tspan x="601.205" y="852.758">transmit &amp;</tspan>
      <tspan x="601.205" y="868.758">log (after LO)</tspan>
    </text>
  </g>
  <g>
    <polyline style="fill: none; fill-opacity:0; stroke-width: 2; stroke: #000000" points="601.668,964.734 601.668,922.606 601.204,922.606 601.204,887.33 "/>
    <polyline style="fill: none; fill-opacity:0; stroke-width: 2; stroke: #000000" points="606.204,895.094 601.204,885.094 596.204,895.094 "/>
  </g>
  <g>
    <polyline style="fill: none; fill-opacity:0; stroke-width: 2; stroke: #000000" points="601.205,830.858 601.205,784.248 509.264,784.248 "/>
    <polyline style="fill: none; fill-opacity:0; stroke-width: 2; stroke: #000000" points="517.028,779.248 507.028,784.248 517.028,789.248 "/>
  </g>
  <g>
    <rect style="fill: #ffffff" x="716.056" y="883.48" width="104.75" height="52" rx="20" ry="20"/>
    <rect style="fill: none; fill-opacity:0; stroke-width: 2; stroke: #000000" x="716.056" y="883.48" width="104.75" height="52" rx="20" ry="20"/>
    <text font-size="12.8" style="fill: #000000;text-anchor:middle;font-family:sans-serif;font-style:normal;font-weight:normal" x="768.431" y="905.38">
      <tspan x="768.431" y="905.38">transmit &amp;</tspan>
      <tspan x="768.431" y="921.38">log (after LO)</tspan>
    </text>
  </g>
  <g>
    <polyline style="fill: none; fill-opacity:0; stroke-width: 2; stroke: #000000" points="768.547,794.886 768.547,839.183 768.431,839.183 768.431,879.008 "/>
    <polyline style="fill: none; fill-opacity:0; stroke-width: 2; stroke: #000000" points="763.431,871.244 768.431,881.244 773.431,871.244 "/>
  </g>
  <g>
    <polyline style="fill: none; fill-opacity:0; stroke-width: 2; stroke: #000000" points="716.056,909.48 686.056,909.48 686.056,776.886 723.2,776.886 "/>
    <polyline style="fill: none; fill-opacity:0; stroke-width: 2; stroke: #000000" points="715.436,781.886 725.436,776.886 715.436,771.886 "/>
  </g>
  <g>
    <rect style="fill: #ffffff" x="727.672" y="758.886" width="81.75" height="36" rx="20" ry="20"/>
    <rect style="fill: none; fill-opacity:0; stroke-width: 2; stroke: #000000" x="727.672" y="758.886" width="81.75" height="36" rx="20" ry="20"/>
    <text font-size="12.8" style="fill: #000000;text-anchor:middle;font-family:sans-serif;font-style:normal;font-weight:normal" x="768.547" y="780.786">
      <tspan x="768.547" y="780.786">read data</tspan>
    </text>
  </g>
  <g>
    <rect style="fill: #ffffff" x="921.072" y="886.752" width="104.75" height="52" rx="20" ry="20"/>
    <rect style="fill: none; fill-opacity:0; stroke-width: 2; stroke: #000000" x="921.072" y="886.752" width="104.75" height="52" rx="20" ry="20"/>
    <text font-size="12.8" style="fill: #000000;text-anchor:middle;font-family:sans-serif;font-style:normal;font-weight:normal" x="973.447" y="908.652">
      <tspan x="973.447" y="908.652">transmit &amp;</tspan>
      <tspan x="973.447" y="924.652">log (after LO)</tspan>
    </text>
  </g>
  <g>
    <polyline style="fill: none; fill-opacity:0; stroke-width: 2; stroke: #000000" points="973.563,798.156 973.563,842.454 973.447,842.454 973.447,882.28 "/>
    <polyline style="fill: none; fill-opacity:0; stroke-width: 2; stroke: #000000" points="968.447,874.516 973.447,884.516 978.447,874.516 "/>
  </g>
  <g>
    <polyline style="fill: none; fill-opacity:0; stroke-width: 2; stroke: #000000" points="921.072,912.752 891.072,912.752 891.072,780.156 928.216,780.156 "/>
    <polyline style="fill: none; fill-opacity:0; stroke-width: 2; stroke: #000000" points="920.452,785.156 930.452,780.156 920.452,775.156 "/>
  </g>
  <g>
    <rect style="fill: #ffffff" x="932.688" y="762.156" width="81.75" height="36" rx="20" ry="20"/>
    <rect style="fill: none; fill-opacity:0; stroke-width: 2; stroke: #000000" x="932.688" y="762.156" width="81.75" height="36" rx="20" ry="20"/>
    <text font-size="12.8" style="fill: #000000;text-anchor:middle;font-family:sans-serif;font-style:normal;font-weight:normal" x="973.563" y="784.056">
      <tspan x="973.563" y="784.056">read data</tspan>
    </text>
  </g>
  <g>
    <polygon style="fill: #ffffff" points="1165.5,974.894 1185.5,954.894 1205.5,974.894 1185.5,994.894 "/>
    <polygon style="fill: none; fill-opacity:0; stroke-width: 2; stroke: #000000" points="1165.5,974.894 1185.5,954.894 1205.5,974.894 1185.5,994.894 "/>
  </g>
  <g>
    <polyline style="fill: none; fill-opacity:0; stroke-width: 2; stroke: #000000" points="1185.55,796.696 1185.55,875.795 1185.5,875.795 1185.5,950.422 "/>
    <polyline style="fill: none; fill-opacity:0; stroke-width: 2; stroke: #000000" points="1180.5,942.658 1185.5,952.658 1190.5,942.658 "/>
  </g>
  <text font-size="12.8" style="fill: #000000;text-anchor:start;font-family:sans-serif;font-style:normal;font-weight:normal" x="1102.5" y="933.846">
    <tspan x="1102.5" y="933.846">temperature ok?</tspan>
  </text>
  <g>
    <line style="fill: none; fill-opacity:0; stroke-width: 2; stroke-dasharray: 8; stroke: #000000" x1="1185.5" y1="994.894" x2="1187.44" y2="1070.68"/>
    <polyline style="fill: none; fill-opacity:0; stroke-width: 2; stroke: #000000" points="1182.11,1058.17 1187.52,1074.04 1192.11,1057.91 "/>
    <text font-size="12.7998" style="fill: #000000;text-anchor:start;font-family:monospace;font-style:normal;font-weight:normal" x="1186.55" y="1032.14">{No}</text>
  </g>
  <g>
    <line style="fill: none; fill-opacity:0; stroke-width: 2; stroke-dasharray: 8; stroke: #000000" x1="1205.5" y1="974.894" x2="1287.22" y2="972.197"/>
    <polyline style="fill: none; fill-opacity:0; stroke-width: 2; stroke: #000000" points="1274.74,977.612 1290.57,972.087 1274.42,967.617 "/>
    <text font-size="12.7998" style="fill: #000000;text-anchor:start;font-family:monospace;font-style:normal;font-weight:normal" x="1225.03" y="968.61">{Yes}</text>
  </g>
  <rect style="fill: #000000" x="1283.92" y="963.976" width="80" height="8"/>
  <g>
    <rect style="fill: #ffffff" x="1147.61" y="1077.39" width="80" height="36" rx="20" ry="20"/>
    <rect style="fill: none; fill-opacity:0; stroke-width: 2; stroke: #000000" x="1147.61" y="1077.39" width="80" height="36" rx="20" ry="20"/>
    <text font-size="12.8" style="fill: #000000;text-anchor:middle;font-family:sans-serif;font-style:normal;font-weight:normal" x="1187.61" y="1099.29">
      <tspan x="1187.61" y="1099.29">control</tspan>
    </text>
  </g>
  <g>
    <polyline style="fill: none; fill-opacity:0; stroke-width: 2; stroke: #000000" points="1187.61,1113.39 1187.61,1143.39 1323.92,1143.39 1323.92,976.448 "/>
    <polyline style="fill: none; fill-opacity:0; stroke-width: 2; stroke: #000000" points="1328.92,984.212 1323.92,974.212 1318.92,984.212 "/>
  </g>
  <g>
    <rect style="fill: #ffffff" x="1265.73" y="844.816" width="115.55" height="36" rx="20" ry="20"/>
    <rect style="fill: none; fill-opacity:0; stroke-width: 2; stroke: #000000" x="1265.73" y="844.816" width="115.55" height="36" rx="20" ry="20"/>
    <text font-size="12.8" style="fill: #000000;text-anchor:middle;font-family:sans-serif;font-style:normal;font-weight:normal" x="1323.5" y="866.716">
      <tspan x="1323.5" y="866.716">transmit &amp; log </tspan>
    </text>
  </g>
  <g>
    <polyline style="fill: none; fill-opacity:0; stroke-width: 2; stroke: #000000" points="1323.92,963.976 1323.92,924.228 1323.5,924.228 1323.5,885.288 "/>
    <polyline style="fill: none; fill-opacity:0; stroke-width: 2; stroke: #000000" points="1328.5,893.052 1323.5,883.052 1318.5,893.052 "/>
  </g>
  <g>
    <polyline style="fill: none; fill-opacity:0; stroke-width: 2; stroke: #000000" points="1323.5,844.816 1323.5,778.696 1230.9,778.696 "/>
    <polyline style="fill: none; fill-opacity:0; stroke-width: 2; stroke: #000000" points="1238.66,773.696 1228.66,778.696 1238.66,783.696 "/>
  </g>
  <g>
    <polyline style="fill: none; fill-opacity:0; stroke-width: 2; stroke: #000000" points="1319.42,201.348 1319.42,224.882 1318.84,224.882 1318.84,243.944 "/>
    <polyline style="fill: none; fill-opacity:0; stroke-width: 2; stroke: #000000" points="1313.84,236.18 1318.84,246.18 1323.84,236.18 "/>
  </g>
  <g>
    <polyline style="fill: none; fill-opacity:0; stroke-width: 2; stroke: #000000" points="1318.84,284.416 1318.84,309.319 1320.18,309.319 1320.18,329.75 "/>
    <polyline style="fill: none; fill-opacity:0; stroke-width: 2; stroke: #000000" points="1315.18,321.986 1320.18,331.986 1325.18,321.986 "/>
  </g>
  <g>
    <polyline style="fill: none; fill-opacity:0; stroke-width: 2; stroke: #000000" points="1790.14,462.664 1790.14,488.587 1789.94,488.587 1789.94,510.038 "/>
    <polyline style="fill: none; fill-opacity:0; stroke-width: 2; stroke: #000000" points="1784.94,502.274 1789.94,512.274 1794.94,502.274 "/>
  </g>
  <g>
    <polyline style="fill: none; fill-opacity:0; stroke-width: 2; stroke: #000000" points="1320.18,370.222 1320.18,392.582 1319.95,392.582 1319.95,410.47 "/>
    <polyline style="fill: none; fill-opacity:0; stroke-width: 2; stroke: #000000" points="1314.95,402.707 1319.95,412.707 1324.95,402.707 "/>
  </g>
  <ellipse style="fill: #000000" cx="1319.95" cy="425.948" rx="10" ry="10"/>
  <g>
    <polyline style="fill: none; fill-opacity:0; stroke-width: 2; stroke: #000000" points="1790.97,199.956 1790.97,224.719 1789.58,224.719 1789.58,245.01 "/>
    <polyline style="fill: none; fill-opacity:0; stroke-width: 2; stroke: #000000" points="1784.58,237.246 1789.58,247.246 1794.58,237.246 "/>
  </g>
  <g>
    <rect style="fill: #ffffff" x="1490.13" y="280.892" width="182.95" height="36" rx="20" ry="20"/>
    <rect style="fill: none; fill-opacity:0; stroke-width: 2; stroke: #000000" x="1490.13" y="280.892" width="182.95" height="36" rx="20" ry="20"/>
    <text font-size="12.8" style="fill: #000000;text-anchor:middle;font-family:sans-serif;font-style:normal;font-weight:normal" x="1581.6" y="302.792">
      <tspan x="1581.6" y="302.792">enable local data storage</tspan>
    </text>
  </g>
  <g>
    <polyline style="fill: none; fill-opacity:0; stroke-width: 2; stroke: #000000" points="1581.6,316.892 1581.6,362.19 1581.49,362.19 1581.49,403.016 "/>
    <polyline style="fill: none; fill-opacity:0; stroke-width: 2; stroke: #000000" points="1576.49,395.253 1581.49,405.253 1586.49,395.253 "/>
  </g>
  <g>
    <polyline style="fill: none; fill-opacity:0; stroke-width: 2; stroke: #000000" points="2282.88,201.001 2282.88,222.981 2283.31,222.981 2283.31,240.49 "/>
    <polyline style="fill: none; fill-opacity:0; stroke-width: 2; stroke: #000000" points="2278.31,232.726 2283.31,242.726 2288.31,232.726 "/>
  </g>
  <g>
    <polyline style="fill: none; fill-opacity:0; stroke-width: 2; stroke: #000000" points="2283.31,280.962 2283.31,311.227 2283.56,311.227 2283.56,337.02 "/>
    <polyline style="fill: none; fill-opacity:0; stroke-width: 2; stroke: #000000" points="2278.56,329.256 2283.56,339.256 2288.56,329.256 "/>
  </g>
  <g>
    <polyline style="fill: none; fill-opacity:0; stroke-width: 2; stroke: #000000" points="2283.56,377.492 2283.56,402.465 2283.16,402.465 2283.16,422.966 "/>
    <polyline style="fill: none; fill-opacity:0; stroke-width: 2; stroke: #000000" points="2278.16,415.202 2283.16,425.202 2288.16,415.202 "/>
  </g>
  <g>
    <polyline style="fill: none; fill-opacity:0; stroke-width: 2; stroke: #000000" points="2283.16,463.438 2283.16,492.56 2283.56,492.56 2283.56,517.21 "/>
    <polyline style="fill: none; fill-opacity:0; stroke-width: 2; stroke: #000000" points="2278.56,509.447 2283.56,519.447 2288.56,509.447 "/>
  </g>
  <ellipse style="fill: #000000" cx="2283.56" cy="532.688" rx="10" ry="10"/>
  <g>
    <polygon style="fill: #ffffff" points="1195.48,61.1862 1802.08,61.1862 1814.08,73.1862 1814.08,111.186 1195.48,111.186 "/>
    <polygon style="fill: none; fill-opacity:0; stroke-width: 2; stroke: #000000" points="1195.48,61.1862 1802.08,61.1862 1814.08,73.1862 1814.08,111.186 1195.48,111.186 "/>
    <polyline style="fill: none; fill-opacity:0; stroke-width: 1; stroke: #000000" points="1802.08,61.1862 1802.08,73.1862 1814.08,73.1862 "/>
    <text font-size="12.8" style="fill: #000000;text-anchor:start;font-family:monospace;font-style:normal;font-weight:normal" x="1202.48" y="86.0862">
      <tspan x="1202.48" y="86.0862">External events:</tspan>
      <tspan x="1202.48" y="102.086">For better readability we resign the "transmit &amp; log" after every action here.</tspan>
    </text>
  </g>
  <g>
    <polygon style="fill: #ffffff" points="1769.58,269.482 1789.58,249.482 1809.58,269.482 1789.58,289.482 "/>
    <polygon style="fill: none; fill-opacity:0; stroke-width: 2; stroke: #000000" points="1769.58,269.482 1789.58,249.482 1809.58,269.482 1789.58,289.482 "/>
  </g>
  <g>
    <line style="fill: none; fill-opacity:0; stroke-width: 2; stroke-dasharray: 8; stroke: #000000" x1="1789.58" y1="289.482" x2="1790.56" y2="336.756"/>
    <polyline style="fill: none; fill-opacity:0; stroke-width: 2; stroke: #000000" points="1785.3,324.215 1790.62,340.108 1795.29,324.008 "/>
    <text font-size="12.7998" style="fill: #000000;text-anchor:start;font-family:monospace;font-style:normal;font-weight:normal" x="1790.14" y="312.47">{No}</text>
  </g>
  <g>
    <line style="fill: none; fill-opacity:0; stroke-width: 2; stroke-dasharray: 8; stroke: #000000" x1="1809.58" y1="269.482" x2="1867.66" y2="270.176"/>
    <polyline style="fill: none; fill-opacity:0; stroke-width: 2; stroke: #000000" points="1854.95,275.025 1871.01,270.216 1855.07,265.026 "/>
    <text font-size="12.7998" style="fill: #000000;text-anchor:start;font-family:monospace;font-style:normal;font-weight:normal" x="1882.19" y="258.318">{Yes}</text>
  </g>
  <ellipse style="fill: #000000" cx="1885.36" cy="270.388" rx="10" ry="10"/>
  <g>
    <polygon style="fill: #ffffff" points="1993.89,263.808 2013.89,243.808 2033.89,263.808 2013.89,283.808 "/>
    <polygon style="fill: none; fill-opacity:0; stroke-width: 2; stroke: #000000" points="1993.89,263.808 2013.89,243.808 2033.89,263.808 2013.89,283.808 "/>
  </g>
  <g>
    <line style="fill: none; fill-opacity:0; stroke-width: 2; stroke-dasharray: 8; stroke: #000000" x1="2013.9" y1="283.808" x2="2015.46" y2="335.296"/>
    <polyline style="fill: none; fill-opacity:0; stroke-width: 2; stroke: #000000" points="2010.08,322.805 2015.56,338.647 2020.07,322.503 "/>
    <text font-size="12.7998" style="fill: #000000;text-anchor:start;font-family:monospace;font-style:normal;font-weight:normal" x="2014.78" y="308.904">{No}</text>
  </g>
  <g>
    <line style="fill: none; fill-opacity:0; stroke-width: 2; stroke-dasharray: 8; stroke: #000000" x1="2033.9" y1="263.808" x2="2091.98" y2="264.502"/>
    <polyline style="fill: none; fill-opacity:0; stroke-width: 2; stroke: #000000" points="2079.27,269.351 2095.33,264.542 2079.39,259.352 "/>
    <text font-size="12.7998" style="fill: #000000;text-anchor:start;font-family:monospace;font-style:normal;font-weight:normal" x="2105.74" y="249.744">{Yes}</text>
  </g>
  <ellipse style="fill: #000000" cx="2109.68" cy="264.714" rx="10" ry="10"/>
  <text font-size="12.8" style="fill: #000000;text-anchor:start;font-family:sans-serif;font-style:normal;font-weight:normal" x="1797.94" y="234.216">
    <tspan x="1797.94" y="234.216">test mode?</tspan>
  </text>
  <text font-size="12.8" style="fill: #000000;text-anchor:start;font-family:sans-serif;font-style:normal;font-weight:normal" x="2024.1" y="225.94">
    <tspan x="2024.1" y="225.94">test mode?</tspan>
  </text>
  <ellipse style="fill: #000000" cx="1057.58" cy="189.69" rx="10" ry="10"/>
  <g>
    <polyline style="fill: none; fill-opacity:0; stroke-width: 2; stroke: #000000" points="1057.58,200.695 1057.58,222.363 1058.51,222.363 1058.51,239.558 "/>
    <polyline style="fill: none; fill-opacity:0; stroke-width: 2; stroke: #000000" points="1053.51,231.794 1058.51,241.794 1063.51,231.794 "/>
  </g>
  <text font-size="12.8" style="fill: #000000;text-anchor:start;font-family:sans-serif;font-style:normal;font-weight:normal" x="1004.7" y="157.054">
    <tspan x="1004.7" y="157.054">toggle test mode</tspan>
  </text>
  <g>
    <polygon style="fill: #ffffff" points="1038.51,264.03 1058.51,244.03 1078.51,264.03 1058.51,284.03 "/>
    <polygon style="fill: none; fill-opacity:0; stroke-width: 2; stroke: #000000" points="1038.51,264.03 1058.51,244.03 1078.51,264.03 1058.51,284.03 "/>
  </g>
  <text font-size="12.8" style="fill: #000000;text-anchor:start;font-family:sans-serif;font-style:normal;font-weight:normal" x="978.532" y="238.578">
    <tspan x="978.532" y="238.578">before LO?</tspan>
  </text>
  <g>
    <line style="fill: none; fill-opacity:0; stroke-width: 2; stroke-dasharray: 8; stroke: #000000" x1="1058.51" y1="284.03" x2="1058.59" y2="322.385"/>
    <polyline style="fill: none; fill-opacity:0; stroke-width: 2; stroke: #000000" points="1053.56,309.747 1058.59,325.737 1063.56,309.727 "/>
    <text font-size="12.7998" style="fill: #000000;text-anchor:start;font-family:monospace;font-style:normal;font-weight:normal" x="1058.55" y="302.56">{Yes}</text>
  </g>
  <g>
    <line style="fill: none; fill-opacity:0; stroke-width: 2; stroke-dasharray: 8; stroke: #000000" x1="1078.51" y1="264.03" x2="1125.68" y2="263.895"/>
    <polyline style="fill: none; fill-opacity:0; stroke-width: 2; stroke: #000000" points="1113.05,268.931 1129.03,263.885 1113.02,258.931 "/>
    <text font-size="12.7998" style="fill: #000000;text-anchor:start;font-family:monospace;font-style:normal;font-weight:normal" x="1106.16" y="247.676">{No}</text>
  </g>
  <ellipse style="fill: #000000" cx="1143.38" cy="263.844" rx="10" ry="10"/>
  <g>
    <rect style="fill: #ffffff" x="993.8" y="329.09" width="129.6" height="36" rx="20" ry="20"/>
    <rect style="fill: none; fill-opacity:0; stroke-width: 2; stroke: #000000" x="993.8" y="329.09" width="129.6" height="36" rx="20" ry="20"/>
    <text font-size="12.8" style="fill: #000000;text-anchor:middle;font-family:sans-serif;font-style:normal;font-weight:normal" x="1058.6" y="350.99">
      <tspan x="1058.6" y="350.99">toggle test mode</tspan>
    </text>
  </g>
  <ellipse style="fill: #000000" cx="1058.32" cy="421.968" rx="10" ry="10"/>
  <g>
    <polyline style="fill: none; fill-opacity:0; stroke-width: 2; stroke: #000000" points="1058.6,365.09 1058.6,388.026 1058.32,388.026 1058.32,406.49 "/>
    <polyline style="fill: none; fill-opacity:0; stroke-width: 2; stroke: #000000" points="1053.32,398.727 1058.32,408.727 1063.32,398.727 "/>
  </g>
</svg>
