<?xml version="1.0" encoding="UTF-8" standalone="no"?>
<!DOCTYPE svg PUBLIC "-//W3C//DTD SVG 1.0//EN" "http://www.w3.org/TR/2001/PR-SVG-20010719/DTD/svg10.dtd">
<svg width="77cm" height="75cm" viewBox="-56 98 1528 1494" xmlns="http://www.w3.org/2000/svg" xmlns:xlink="http://www.w3.org/1999/xlink">
  <ellipse style="fill: #000000" cx="97.2722" cy="140.804" rx="10" ry="10"/>
  <g>
    <rect style="fill: #ffffff" x="45.3512" y="196.088" width="104.55" height="36" rx="20" ry="20"/>
    <rect style="fill: none; fill-opacity:0; stroke-width: 2; stroke: #000000" x="45.3512" y="196.088" width="104.55" height="36" rx="20" ry="20"/>
    <text font-size="12.8" style="fill: #000000;text-anchor:middle;font-family:sans-serif;font-style:normal;font-weight:normal" x="97.6262" y="217.988">
      <tspan x="97.6262" y="217.988">init hardware</tspan>
    </text>
  </g>
  <g>
    <polyline style="fill: none; fill-opacity:0; stroke-width: 2; stroke: #000000" points="97.2722,151.81 97.2722,173.949 97.6262,173.949 97.6262,191.616 "/>
    <polyline style="fill: none; fill-opacity:0; stroke-width: 2; stroke: #000000" points="92.6262,183.852 97.6262,193.852 102.626,183.852 "/>
  </g>
  <g>
    <rect style="fill: #ffffff" x="56.917" y="369.244" width="80" height="36" rx="20" ry="20"/>
    <rect style="fill: none; fill-opacity:0; stroke-width: 2; stroke: #000000" x="56.917" y="369.244" width="80" height="36" rx="20" ry="20"/>
    <text font-size="12.8" style="fill: #000000;text-anchor:middle;font-family:sans-serif;font-style:normal;font-weight:normal" x="96.917" y="391.144">
      <tspan x="96.917" y="391.144">start log</tspan>
    </text>
  </g>
  <g>
    <polyline style="fill: none; fill-opacity:0; stroke-width: 2; stroke: #000000" points="97.1332,319.888 97.1332,344.566 96.917,344.566 96.917,364.772 "/>
    <polyline style="fill: none; fill-opacity:0; stroke-width: 2; stroke: #000000" points="91.917,357.008 96.917,367.008 101.917,357.008 "/>
  </g>
  <g>
    <polyline style="fill: none; fill-opacity:0; stroke-width: 2; stroke: #000000" points="96.917,405.244 96.917,428 97,428 97,451.528 "/>
    <polyline style="fill: none; fill-opacity:0; stroke-width: 2; stroke: #000000" points="92,443.764 97,453.764 102,443.764 "/>
  </g>
  <rect style="fill: #000000" x="57" y="456" width="80" height="8"/>
  <g>
    <polyline style="fill: none; fill-opacity:0; stroke-width: 2; stroke: #000000" points="67,464 67,484 67,484 67,554.278 "/>
    <polyline style="fill: none; fill-opacity:0; stroke-width: 2; stroke: #000000" points="62,546.514 67,556.514 72,546.514 "/>
  </g>
  <g>
    <polyline style="fill: none; fill-opacity:0; stroke-width: 2; stroke: #000000" points="127,464 127,483.75 767.352,483.75 767.352,524.992 "/>
    <polyline style="fill: none; fill-opacity:0; stroke-width: 2; stroke: #000000" points="762.352,517.228 767.352,527.228 772.352,517.228 "/>
  </g>
  <g>
    <polygon style="fill: #ffffff" points="47,578.75 67,558.75 87,578.75 67,598.75 "/>
    <polygon style="fill: none; fill-opacity:0; stroke-width: 2; stroke: #000000" points="47,578.75 67,558.75 87,578.75 67,598.75 "/>
  </g>
  <text font-size="12.8" style="fill: #000000;text-anchor:start;font-family:sans-serif;font-style:normal;font-weight:normal" x="-55.405" y="541.994">
    <tspan x="-55.405" y="541.994">last sending operation &gt; 1 second ago?</tspan>
  </text>
  <g>
    <line style="fill: none; fill-opacity:0; stroke-width: 2; stroke-dasharray: 8; stroke: #000000" x1="87" y1="578.75" x2="174.295" y2="577.821"/>
    <polyline style="fill: none; fill-opacity:0; stroke-width: 2; stroke: #000000" points="161.702,582.956 177.648,577.786 161.595,572.956 "/>
    <text font-size="12.7998" style="fill: #000000;text-anchor:start;font-family:monospace;font-style:normal;font-weight:normal" x="116" y="571.75">{Yes}</text>
  </g>
  <g>
    <rect style="fill: #ffffff" x="181" y="559.75" width="162.05" height="36" rx="20" ry="20"/>
    <rect style="fill: none; fill-opacity:0; stroke-width: 2; stroke: #000000" x="181" y="559.75" width="162.05" height="36" rx="20" ry="20"/>
    <text font-size="12.8" style="fill: #000000;text-anchor:middle;font-family:sans-serif;font-style:normal;font-weight:normal" x="262.025" y="581.65">
      <tspan x="262.025" y="581.65">transmit "alive" signal</tspan>
    </text>
  </g>
  <g>
    <line style="fill: none; fill-opacity:0; stroke-width: 2; stroke-dasharray: 8; stroke: #000000" x1="67" y1="598.75" x2="66.2306" y2="621.299"/>
    <polyline style="fill: none; fill-opacity:0; stroke-width: 2; stroke: #000000" points="61.6648,608.488 66.1163,624.649 71.659,608.829 "/>
    <text font-size="12.7998" style="fill: #000000;text-anchor:start;font-family:monospace;font-style:normal;font-weight:normal" x="66.501" y="609.376">{No}</text>
  </g>
  <g>
    <polyline style="fill: none; fill-opacity:0; stroke-width: 2; stroke: #000000" points="262.025,595.75 262.025,625.75 17,625.75 17,578.75 42.5279,578.75 "/>
    <polyline style="fill: none; fill-opacity:0; stroke-width: 2; stroke: #000000" points="34.7639,583.75 44.7639,578.75 34.7639,573.75 "/>
  </g>
  <text font-size="12.8" style="fill: #000000;text-anchor:start;font-family:sans-serif;font-style:normal;font-weight:normal" x="77.1128" y="110.415">
    <tspan x="77.1128" y="110.415">startup</tspan>
  </text>
  <ellipse style="fill: #000000" cx="556.988" cy="1240.6" rx="10" ry="10"/>
  <text font-size="12.8" style="fill: #000000;text-anchor:start;font-family:sans-serif;font-style:normal;font-weight:normal" x="546.988" y="1210.15">
    <tspan x="546.988" y="1210.15">LO</tspan>
  </text>
  <g>
    <polyline style="fill: none; fill-opacity:0; stroke-width: 2; stroke: #000000" points="556.988,1251.61 556.988,1290.17 556.555,1290.17 556.555,1324.27 "/>
    <polyline style="fill: none; fill-opacity:0; stroke-width: 2; stroke: #000000" points="551.555,1316.5 556.555,1326.5 561.555,1316.5 "/>
  </g>
  <ellipse style="fill: #000000" cx="556.988" cy="1466.34" rx="10" ry="10"/>
  <ellipse style="fill: #000000" cx="766.466" cy="1236.8" rx="10" ry="10"/>
  <g>
    <rect style="fill: #ffffff" x="715.092" y="1391.31" width="102.2" height="36" rx="20" ry="20"/>
    <rect style="fill: none; fill-opacity:0; stroke-width: 2; stroke: #000000" x="715.092" y="1391.31" width="102.2" height="36" rx="20" ry="20"/>
    <text font-size="12.8" style="fill: #000000;text-anchor:middle;font-family:sans-serif;font-style:normal;font-weight:normal" x="766.192" y="1413.21">
      <tspan x="766.192" y="1413.21">unlock HPPM</tspan>
    </text>
  </g>
  <g>
    <rect style="fill: #ffffff" x="722.462" y="1474.51" width="87.45" height="36" rx="20" ry="20"/>
    <rect style="fill: none; fill-opacity:0; stroke-width: 2; stroke: #000000" x="722.462" y="1474.51" width="87.45" height="36" rx="20" ry="20"/>
    <text font-size="12.8" style="fill: #000000;text-anchor:middle;font-family:sans-serif;font-style:normal;font-weight:normal" x="766.187" y="1496.41">
      <tspan x="766.187" y="1496.41">power HPs</tspan>
    </text>
  </g>
  <g>
    <polyline style="fill: none; fill-opacity:0; stroke-width: 2; stroke: #000000" points="766.192,1427.31 766.192,1450.91 766.187,1450.91 766.187,1470.04 "/>
    <polyline style="fill: none; fill-opacity:0; stroke-width: 2; stroke: #000000" points="761.187,1462.27 766.187,1472.27 771.187,1462.27 "/>
  </g>
  <text font-size="12.8" style="fill: #000000;text-anchor:start;font-family:sans-serif;font-style:normal;font-weight:normal" x="1259.44" y="1203.22">
    <tspan x="1259.44" y="1203.22"></tspan>
  </text>
  <text font-size="12.8" style="fill: #000000;text-anchor:start;font-family:sans-serif;font-style:normal;font-weight:normal" x="730.64" y="1209.08">
    <tspan x="730.64" y="1209.08">enable SOE</tspan>
  </text>
  <ellipse style="fill: #000000" cx="765.988" cy="1572.36" rx="10" ry="10"/>
  <ellipse style="fill: #000000" cx="989.178" cy="1237.12" rx="10" ry="10"/>
  <g>
    <polyline style="fill: none; fill-opacity:0; stroke-width: 2; stroke: #000000" points="989.178,1248.13 989.178,1269.89 988.476,1269.89 988.476,1287.18 "/>
    <polyline style="fill: none; fill-opacity:0; stroke-width: 2; stroke: #000000" points="983.476,1279.42 988.476,1289.42 993.476,1279.42 "/>
  </g>
  <text font-size="12.8" style="fill: #000000;text-anchor:start;font-family:sans-serif;font-style:normal;font-weight:normal" x="950.708" y="1206.35">
    <tspan x="950.708" y="1206.35">disable SOE</tspan>
  </text>
  <g>
    <rect style="fill: #ffffff" x="936.708" y="1474.61" width="103.5" height="36" rx="20" ry="20"/>
    <rect style="fill: none; fill-opacity:0; stroke-width: 2; stroke: #000000" x="936.708" y="1474.61" width="103.5" height="36" rx="20" ry="20"/>
    <text font-size="12.8" style="fill: #000000;text-anchor:middle;font-family:sans-serif;font-style:normal;font-weight:normal" x="988.458" y="1496.51">
      <tspan x="988.458" y="1496.51">depower HPs</tspan>
    </text>
  </g>
  <g>
    <polyline style="fill: none; fill-opacity:0; stroke-width: 2; stroke: #000000" points="988.408,1425.84 988.408,1450.23 988.458,1450.23 988.458,1470.14 "/>
    <polyline style="fill: none; fill-opacity:0; stroke-width: 2; stroke: #000000" points="983.458,1462.37 988.458,1472.37 993.458,1462.37 "/>
  </g>
  <g>
    <polyline style="fill: none; fill-opacity:0; stroke-width: 2; stroke: #000000" points="988.458,1510.61 988.458,1536.77 988.508,1536.77 988.508,1558.45 "/>
    <polyline style="fill: none; fill-opacity:0; stroke-width: 2; stroke: #000000" points="983.508,1550.69 988.508,1560.69 993.508,1550.69 "/>
  </g>
  <ellipse style="fill: #000000" cx="988.508" cy="1573.93" rx="10" ry="10"/>
  <g>
    <rect style="fill: #ffffff" x="938.608" y="1389.84" width="99.6" height="36" rx="20" ry="20"/>
    <rect style="fill: none; fill-opacity:0; stroke-width: 2; stroke: #000000" x="938.608" y="1389.84" width="99.6" height="36" rx="20" ry="20"/>
    <text font-size="12.8" style="fill: #000000;text-anchor:middle;font-family:sans-serif;font-style:normal;font-weight:normal" x="988.408" y="1411.74">
      <tspan x="988.408" y="1411.74">retrieve HPS</tspan>
    </text>
  </g>
  <g>
    <rect style="fill: #ffffff" x="211.284" y="1382.07" width="166.95" height="36" rx="20" ry="20"/>
    <rect style="fill: none; fill-opacity:0; stroke-width: 2; stroke: #000000" x="211.284" y="1382.07" width="166.95" height="36" rx="20" ry="20"/>
    <text font-size="12.8" style="fill: #000000;text-anchor:middle;font-family:sans-serif;font-style:normal;font-weight:normal" x="294.759" y="1403.97">
      <tspan x="294.759" y="1403.97">start camera recording</tspan>
    </text>
  </g>
  <g>
    <rect style="fill: #ffffff" x="194.69" y="1296.26" width="200.05" height="36" rx="20" ry="20"/>
    <rect style="fill: none; fill-opacity:0; stroke-width: 2; stroke: #000000" x="194.69" y="1296.26" width="200.05" height="36" rx="20" ry="20"/>
    <text font-size="12.8" style="fill: #000000;text-anchor:middle;font-family:sans-serif;font-style:normal;font-weight:normal" x="294.715" y="1318.16">
      <tspan x="294.715" y="1318.16">enable camera lense heater</tspan>
    </text>
  </g>
  <text font-size="12.8" style="fill: #000000;text-anchor:start;font-family:sans-serif;font-style:normal;font-weight:normal" x="250.5" y="1208.06">
    <tspan x="250.5" y="1208.06">enable SODS</tspan>
  </text>
  <ellipse style="fill: #000000" cx="294.914" cy="1238.19" rx="10" ry="10"/>
  <ellipse style="fill: #000000" cx="1258.38" cy="1237.84" rx="10" ry="10"/>
  <text font-size="12.8" style="fill: #000000;text-anchor:start;font-family:sans-serif;font-style:normal;font-weight:normal" x="1206.78" y="1201.74">
    <tspan x="1206.78" y="1201.74">disable SODS</tspan>
  </text>
  <g>
    <rect style="fill: #ffffff" x="1161.36" y="1292.81" width="194.9" height="36" rx="20" ry="20"/>
    <rect style="fill: none; fill-opacity:0; stroke-width: 2; stroke: #000000" x="1161.36" y="1292.81" width="194.9" height="36" rx="20" ry="20"/>
    <text font-size="12.8" style="fill: #000000;text-anchor:middle;font-family:sans-serif;font-style:normal;font-weight:normal" x="1258.81" y="1314.71">
      <tspan x="1258.81" y="1314.71">shutdown camera &amp; heater</tspan>
    </text>
  </g>
  <g>
    <rect style="fill: #ffffff" x="1209.43" y="1389.34" width="98.15" height="36" rx="20" ry="20"/>
    <rect style="fill: none; fill-opacity:0; stroke-width: 2; stroke: #000000" x="1209.43" y="1389.34" width="98.15" height="36" rx="20" ry="20"/>
    <text font-size="12.8" style="fill: #000000;text-anchor:middle;font-family:sans-serif;font-style:normal;font-weight:normal" x="1258.51" y="1411.24">
      <tspan x="1258.51" y="1411.24">shutdown pi</tspan>
    </text>
  </g>
  <g>
    <rect style="fill: #ffffff" x="1182.46" y="1475.28" width="152.4" height="36" rx="20" ry="20"/>
    <rect style="fill: none; fill-opacity:0; stroke-width: 2; stroke: #000000" x="1182.46" y="1475.28" width="152.4" height="36" rx="20" ry="20"/>
    <text font-size="12.8" style="fill: #000000;text-anchor:middle;font-family:sans-serif;font-style:normal;font-weight:normal" x="1258.66" y="1497.18">
      <tspan x="1258.66" y="1497.18">disable local storage</tspan>
    </text>
  </g>
  <g>
    <rect style="fill: #ffffff" x="30.7082" y="283.888" width="132.85" height="36" rx="20" ry="20"/>
    <rect style="fill: none; fill-opacity:0; stroke-width: 2; stroke: #000000" x="30.7082" y="283.888" width="132.85" height="36" rx="20" ry="20"/>
    <text font-size="12.8" style="fill: #000000;text-anchor:middle;font-family:sans-serif;font-style:normal;font-weight:normal" x="97.1332" y="305.788">
      <tspan x="97.1332" y="305.788">homing actuators</tspan>
    </text>
  </g>
  <g>
    <polyline style="fill: none; fill-opacity:0; stroke-width: 2; stroke: #000000" points="97.6262,232.088 97.6262,257.988 97.1332,257.988 97.1332,279.416 "/>
    <polyline style="fill: none; fill-opacity:0; stroke-width: 2; stroke: #000000" points="92.1332,271.652 97.1332,281.652 102.133,271.652 "/>
  </g>
  <rect style="fill: #000000" x="633.728" y="529.464" width="267.249" height="8"/>
  <g>
    <line style="fill: none; fill-opacity:0; stroke-width: 2; stroke-dasharray: 8; stroke: #000000" x1="667.134" y1="537.464" x2="277.988" y2="760.134"/>
    <polyline style="fill: none; fill-opacity:0; stroke-width: 2; stroke: #000000" points="286.482,749.513 275.078,761.799 291.448,758.192 "/>
    <text font-size="12.7998" style="fill: #000000;text-anchor:start;font-family:monospace;font-style:normal;font-weight:normal" x="380.668" y="629.626">{ice temperature}</text>
  </g>
  <g>
    <line style="fill: none; fill-opacity:0; stroke-width: 2; stroke-dasharray: 8; stroke: #000000" x1="767.352" y1="537.464" x2="768.512" y2="752.181"/>
    <polyline style="fill: none; fill-opacity:0; stroke-width: 2; stroke: #000000" points="763.444,739.561 768.53,755.533 773.443,739.507 "/>
    <text font-size="12.7998" style="fill: #000000;text-anchor:start;font-family:monospace;font-style:normal;font-weight:normal" x="768.158" y="598.514">{HPPM force}</text>
  </g>
  <g>
    <line style="fill: none; fill-opacity:0; stroke-width: 2; stroke-dasharray: 8; stroke: #000000" x1="867.57" y1="537.464" x2="1180.06" y2="756.843"/>
    <polyline style="fill: none; fill-opacity:0; stroke-width: 2; stroke: #000000" points="1166.84,753.669 1182.81,758.77 1172.58,745.484 "/>
    <text font-size="12.7998" style="fill: #000000;text-anchor:start;font-family:monospace;font-style:normal;font-weight:normal" x="968.974" y="599.928">{HP temperature}</text>
  </g>
  <g>
    <line style="fill: none; fill-opacity:0; stroke-width: 2; stroke-dasharray: 8; stroke: #000000" x1="667.134" y1="537.464" x2="507.695" y2="756.578"/>
    <polyline style="fill: none; fill-opacity:0; stroke-width: 2; stroke: #000000" points="511.094,743.41 505.723,759.289 519.179,749.294 "/>
    <text font-size="12.7998" style="fill: #000000;text-anchor:start;font-family:monospace;font-style:normal;font-weight:normal" x="594.922" y="657.324">{battery temperature}</text>
  </g>
  <g>
    <line style="fill: none; fill-opacity:0; stroke-width: 2; stroke-dasharray: 8; stroke: #000000" x1="867.57" y1="537.464" x2="970.701" y2="756.092"/>
    <polyline style="fill: none; fill-opacity:0; stroke-width: 2; stroke: #000000" points="960.783,746.786 972.132,759.124 969.828,742.52 "/>
    <text font-size="12.7998" style="fill: #000000;text-anchor:start;font-family:monospace;font-style:normal;font-weight:normal" x="935.034" y="677.71">{pressure}</text>
  </g>
  <g>
    <rect style="fill: #ffffff" x="231.294" y="763.464" width="81.75" height="36" rx="20" ry="20"/>
    <rect style="fill: none; fill-opacity:0; stroke-width: 2; stroke: #000000" x="231.294" y="763.464" width="81.75" height="36" rx="20" ry="20"/>
    <text font-size="12.8" style="fill: #000000;text-anchor:middle;font-family:sans-serif;font-style:normal;font-weight:normal" x="272.169" y="785.364">
      <tspan x="272.169" y="785.364">read data</tspan>
    </text>
  </g>
  <g>
    <rect style="fill: #ffffff" x="1144.67" y="760.696" width="81.75" height="36" rx="20" ry="20"/>
    <rect style="fill: none; fill-opacity:0; stroke-width: 2; stroke: #000000" x="1144.67" y="760.696" width="81.75" height="36" rx="20" ry="20"/>
    <text font-size="12.8" style="fill: #000000;text-anchor:middle;font-family:sans-serif;font-style:normal;font-weight:normal" x="1185.55" y="782.596">
      <tspan x="1185.55" y="782.596">read data</tspan>
    </text>
  </g>
  <g>
    <rect style="fill: #ffffff" x="220.318" y="875.25" width="104.75" height="52" rx="20" ry="20"/>
    <rect style="fill: none; fill-opacity:0; stroke-width: 2; stroke: #000000" x="220.318" y="875.25" width="104.75" height="52" rx="20" ry="20"/>
    <text font-size="12.8" style="fill: #000000;text-anchor:middle;font-family:sans-serif;font-style:normal;font-weight:normal" x="272.693" y="897.15">
      <tspan x="272.693" y="897.15">transmit &amp;</tspan>
      <tspan x="272.693" y="913.15">log (after LO)</tspan>
    </text>
  </g>
  <g>
    <polyline style="fill: none; fill-opacity:0; stroke-width: 2; stroke: #000000" points="272.169,799.464 272.169,837.357 272.693,837.357 272.693,870.778 "/>
    <polyline style="fill: none; fill-opacity:0; stroke-width: 2; stroke: #000000" points="267.693,863.014 272.693,873.014 277.693,863.014 "/>
  </g>
  <g>
    <polyline style="fill: none; fill-opacity:0; stroke-width: 2; stroke: #000000" points="220.318,901.25 190.318,901.25 190.318,781.464 226.822,781.464 "/>
    <polyline style="fill: none; fill-opacity:0; stroke-width: 2; stroke: #000000" points="219.058,786.464 229.058,781.464 219.058,776.464 "/>
  </g>
  <g>
    <polygon style="fill: #ffffff" points="532.23,438.564 923.23,438.564 935.23,450.564 935.23,472.564 532.23,472.564 "/>
    <polygon style="fill: none; fill-opacity:0; stroke-width: 2; stroke: #000000" points="532.23,438.564 923.23,438.564 935.23,450.564 935.23,472.564 532.23,472.564 "/>
    <polyline style="fill: none; fill-opacity:0; stroke-width: 1; stroke: #000000" points="923.23,438.564 923.23,450.564 935.23,450.564 "/>
    <text font-size="12.8" style="fill: #000000;text-anchor:start;font-family:monospace;font-style:normal;font-weight:normal" x="539.23" y="463.464">
      <tspan x="539.23" y="463.464">for data acquisition frequencys: see documentation</tspan>
    </text>
  </g>
  <g>
    <rect style="fill: #ffffff" x="716.056" y="883.48" width="104.75" height="52" rx="20" ry="20"/>
    <rect style="fill: none; fill-opacity:0; stroke-width: 2; stroke: #000000" x="716.056" y="883.48" width="104.75" height="52" rx="20" ry="20"/>
    <text font-size="12.8" style="fill: #000000;text-anchor:middle;font-family:sans-serif;font-style:normal;font-weight:normal" x="768.431" y="905.38">
      <tspan x="768.431" y="905.38">transmit &amp;</tspan>
      <tspan x="768.431" y="921.38">log (after LO)</tspan>
    </text>
  </g>
  <g>
    <polyline style="fill: none; fill-opacity:0; stroke-width: 2; stroke: #000000" points="768.547,794.886 768.547,839.183 768.431,839.183 768.431,879.008 "/>
    <polyline style="fill: none; fill-opacity:0; stroke-width: 2; stroke: #000000" points="763.431,871.244 768.431,881.244 773.431,871.244 "/>
  </g>
  <g>
    <polyline style="fill: none; fill-opacity:0; stroke-width: 2; stroke: #000000" points="716.056,909.48 686.056,909.48 686.056,776.886 723.2,776.886 "/>
    <polyline style="fill: none; fill-opacity:0; stroke-width: 2; stroke: #000000" points="715.436,781.886 725.436,776.886 715.436,771.886 "/>
  </g>
  <g>
    <rect style="fill: #ffffff" x="727.672" y="758.886" width="81.75" height="36" rx="20" ry="20"/>
    <rect style="fill: none; fill-opacity:0; stroke-width: 2; stroke: #000000" x="727.672" y="758.886" width="81.75" height="36" rx="20" ry="20"/>
    <text font-size="12.8" style="fill: #000000;text-anchor:middle;font-family:sans-serif;font-style:normal;font-weight:normal" x="768.547" y="780.786">
      <tspan x="768.547" y="780.786">read data</tspan>
    </text>
  </g>
  <g>
    <rect style="fill: #ffffff" x="921.912" y="886.752" width="104.75" height="52" rx="20" ry="20"/>
    <rect style="fill: none; fill-opacity:0; stroke-width: 2; stroke: #000000" x="921.912" y="886.752" width="104.75" height="52" rx="20" ry="20"/>
    <text font-size="12.8" style="fill: #000000;text-anchor:middle;font-family:sans-serif;font-style:normal;font-weight:normal" x="974.287" y="908.652">
      <tspan x="974.287" y="908.652">transmit &amp;</tspan>
      <tspan x="974.287" y="924.652">log (after LO)</tspan>
    </text>
  </g>
  <g>
    <polyline style="fill: none; fill-opacity:0; stroke-width: 2; stroke: #000000" points="973.563,798.156 973.563,842.454 974.287,842.454 974.287,882.28 "/>
    <polyline style="fill: none; fill-opacity:0; stroke-width: 2; stroke: #000000" points="969.287,874.516 974.287,884.516 979.287,874.516 "/>
  </g>
  <g>
    <polyline style="fill: none; fill-opacity:0; stroke-width: 2; stroke: #000000" points="921.912,912.752 891.912,912.752 891.912,780.156 928.216,780.156 "/>
    <polyline style="fill: none; fill-opacity:0; stroke-width: 2; stroke: #000000" points="920.452,785.156 930.452,780.156 920.452,775.156 "/>
  </g>
  <g>
    <rect style="fill: #ffffff" x="932.688" y="762.156" width="81.75" height="36" rx="20" ry="20"/>
    <rect style="fill: none; fill-opacity:0; stroke-width: 2; stroke: #000000" x="932.688" y="762.156" width="81.75" height="36" rx="20" ry="20"/>
    <text font-size="12.8" style="fill: #000000;text-anchor:middle;font-family:sans-serif;font-style:normal;font-weight:normal" x="973.563" y="784.056">
      <tspan x="973.563" y="784.056">read data</tspan>
    </text>
  </g>
  <g>
    <polygon style="fill: #ffffff" points="1165.5,972.894 1185.5,952.894 1205.5,972.894 1185.5,992.894 "/>
    <polygon style="fill: none; fill-opacity:0; stroke-width: 2; stroke: #000000" points="1165.5,972.894 1185.5,952.894 1205.5,972.894 1185.5,992.894 "/>
  </g>
  <g>
    <polyline style="fill: none; fill-opacity:0; stroke-width: 2; stroke: #000000" points="1185.55,796.696 1185.55,874.795 1185.5,874.795 1185.5,948.422 "/>
    <polyline style="fill: none; fill-opacity:0; stroke-width: 2; stroke: #000000" points="1180.5,940.658 1185.5,950.658 1190.5,940.658 "/>
  </g>
  <text font-size="12.8" style="fill: #000000;text-anchor:start;font-family:sans-serif;font-style:normal;font-weight:normal" x="1060" y="962.346">
    <tspan x="1060" y="962.346">overtemperature?</tspan>
  </text>
  <g>
    <rect style="fill: #ffffff" x="1142.11" y="1077.39" width="87.2" height="36" rx="20" ry="20"/>
    <rect style="fill: none; fill-opacity:0; stroke-width: 2; stroke: #000000" x="1142.11" y="1077.39" width="87.2" height="36" rx="20" ry="20"/>
    <text font-size="12.8" style="fill: #000000;text-anchor:middle;font-family:sans-serif;font-style:normal;font-weight:normal" x="1185.71" y="1099.29">
      <tspan x="1185.71" y="1099.29">disable HP</tspan>
    </text>
  </g>
  <g>
    <polyline style="fill: none; fill-opacity:0; stroke-width: 2; stroke: #000000" points="1185.71,1113.39 1185.71,1143.39 1470.91,1143.39 1470.91,862.816 1385.75,862.816 "/>
    <polyline style="fill: none; fill-opacity:0; stroke-width: 2; stroke: #000000" points="1393.51,857.816 1383.51,862.816 1393.51,867.816 "/>
  </g>
  <g>
    <rect style="fill: #ffffff" x="1265.73" y="844.816" width="115.55" height="36" rx="20" ry="20"/>
    <rect style="fill: none; fill-opacity:0; stroke-width: 2; stroke: #000000" x="1265.73" y="844.816" width="115.55" height="36" rx="20" ry="20"/>
    <text font-size="12.8" style="fill: #000000;text-anchor:middle;font-family:sans-serif;font-style:normal;font-weight:normal" x="1323.5" y="866.716">
      <tspan x="1323.5" y="866.716">transmit &amp; log </tspan>
    </text>
  </g>
  <g>
    <polyline style="fill: none; fill-opacity:0; stroke-width: 2; stroke: #000000" points="1323.45,952.976 1323.45,924.228 1323.5,924.228 1323.5,885.288 "/>
    <polyline style="fill: none; fill-opacity:0; stroke-width: 2; stroke: #000000" points="1328.5,893.052 1323.5,883.052 1318.5,893.052 "/>
  </g>
  <g>
    <polyline style="fill: none; fill-opacity:0; stroke-width: 2; stroke: #000000" points="1323.5,844.816 1323.5,778.696 1230.9,778.696 "/>
    <polyline style="fill: none; fill-opacity:0; stroke-width: 2; stroke: #000000" points="1238.66,773.696 1228.66,778.696 1238.66,783.696 "/>
  </g>
  <g>
    <polyline style="fill: none; fill-opacity:0; stroke-width: 2; stroke: #000000" points="294.914,1249.19 294.914,1272.73 294.715,1272.73 294.715,1291.79 "/>
    <polyline style="fill: none; fill-opacity:0; stroke-width: 2; stroke: #000000" points="289.715,1284.03 294.715,1294.03 299.715,1284.03 "/>
  </g>
  <g>
    <polyline style="fill: none; fill-opacity:0; stroke-width: 2; stroke: #000000" points="294.715,1332.26 294.715,1357.16 294.759,1357.16 294.759,1377.6 "/>
    <polyline style="fill: none; fill-opacity:0; stroke-width: 2; stroke: #000000" points="289.759,1369.83 294.759,1379.83 299.759,1369.83 "/>
  </g>
  <g>
    <polyline style="fill: none; fill-opacity:0; stroke-width: 2; stroke: #000000" points="766.187,1510.51 766.187,1536.43 765.988,1536.43 765.988,1557.88 "/>
    <polyline style="fill: none; fill-opacity:0; stroke-width: 2; stroke: #000000" points="760.988,1550.12 765.988,1560.12 770.988,1550.12 "/>
  </g>
  <g>
    <polyline style="fill: none; fill-opacity:0; stroke-width: 2; stroke: #000000" points="294.759,1418.07 294.759,1440.43 295.45,1440.43 295.45,1458.32 "/>
    <polyline style="fill: none; fill-opacity:0; stroke-width: 2; stroke: #000000" points="290.45,1450.55 295.45,1460.55 300.45,1450.55 "/>
  </g>
  <ellipse style="fill: #000000" cx="295.45" cy="1473.79" rx="10" ry="10"/>
  <g>
    <polyline style="fill: none; fill-opacity:0; stroke-width: 2; stroke: #000000" points="766.466,1247.8 766.466,1272.56 765.996,1272.56 765.996,1292.86 "/>
    <polyline style="fill: none; fill-opacity:0; stroke-width: 2; stroke: #000000" points="760.996,1285.09 765.996,1295.09 770.996,1285.09 "/>
  </g>
  <g>
    <rect style="fill: #ffffff" x="465.08" y="1328.74" width="182.95" height="36" rx="20" ry="20"/>
    <rect style="fill: none; fill-opacity:0; stroke-width: 2; stroke: #000000" x="465.08" y="1328.74" width="182.95" height="36" rx="20" ry="20"/>
    <text font-size="12.8" style="fill: #000000;text-anchor:middle;font-family:sans-serif;font-style:normal;font-weight:normal" x="556.555" y="1350.64">
      <tspan x="556.555" y="1350.64">enable local data storage</tspan>
    </text>
  </g>
  <g>
    <polyline style="fill: none; fill-opacity:0; stroke-width: 2; stroke: #000000" points="556.555,1364.74 556.555,1410.04 556.988,1410.04 556.988,1450.86 "/>
    <polyline style="fill: none; fill-opacity:0; stroke-width: 2; stroke: #000000" points="551.988,1443.1 556.988,1453.1 561.988,1443.1 "/>
  </g>
  <g>
    <polyline style="fill: none; fill-opacity:0; stroke-width: 2; stroke: #000000" points="1258.38,1248.85 1258.38,1270.83 1258.81,1270.83 1258.81,1288.34 "/>
    <polyline style="fill: none; fill-opacity:0; stroke-width: 2; stroke: #000000" points="1253.81,1280.57 1258.81,1290.57 1263.81,1280.57 "/>
  </g>
  <g>
    <polyline style="fill: none; fill-opacity:0; stroke-width: 2; stroke: #000000" points="1258.81,1328.81 1258.81,1359.07 1258.51,1359.07 1258.51,1384.87 "/>
    <polyline style="fill: none; fill-opacity:0; stroke-width: 2; stroke: #000000" points="1253.51,1377.1 1258.51,1387.1 1263.51,1377.1 "/>
  </g>
  <g>
    <polyline style="fill: none; fill-opacity:0; stroke-width: 2; stroke: #000000" points="1258.51,1425.34 1258.51,1450.31 1258.66,1450.31 1258.66,1470.81 "/>
    <polyline style="fill: none; fill-opacity:0; stroke-width: 2; stroke: #000000" points="1253.66,1463.05 1258.66,1473.05 1263.66,1463.05 "/>
  </g>
  <g>
    <polyline style="fill: none; fill-opacity:0; stroke-width: 2; stroke: #000000" points="1258.66,1511.28 1258.66,1540.41 1259.06,1540.41 1259.06,1565.06 "/>
    <polyline style="fill: none; fill-opacity:0; stroke-width: 2; stroke: #000000" points="1254.06,1557.29 1259.06,1567.29 1264.06,1557.29 "/>
  </g>
  <ellipse style="fill: #000000" cx="1259.06" cy="1580.53" rx="10" ry="10"/>
  <g>
    <polygon style="fill: #ffffff" points="170.982,1109.03 777.582,1109.03 789.582,1121.03 789.582,1159.03 170.982,1159.03 "/>
    <polygon style="fill: none; fill-opacity:0; stroke-width: 2; stroke: #000000" points="170.982,1109.03 777.582,1109.03 789.582,1121.03 789.582,1159.03 170.982,1159.03 "/>
    <polyline style="fill: none; fill-opacity:0; stroke-width: 1; stroke: #000000" points="777.582,1109.03 777.582,1121.03 789.582,1121.03 "/>
    <text font-size="12.8" style="fill: #000000;text-anchor:start;font-family:monospace;font-style:normal;font-weight:normal" x="177.982" y="1133.93">
      <tspan x="177.982" y="1133.93">External events:</tspan>
      <tspan x="177.982" y="1149.93">For better readability we resign the "transmit &amp; log" after every action here.</tspan>
    </text>
  </g>
  <g>
    <polygon style="fill: #ffffff" points="745.996,1317.33 765.996,1297.33 785.996,1317.33 765.996,1337.33 "/>
    <polygon style="fill: none; fill-opacity:0; stroke-width: 2; stroke: #000000" points="745.996,1317.33 765.996,1297.33 785.996,1317.33 765.996,1337.33 "/>
  </g>
  <g>
    <line style="fill: none; fill-opacity:0; stroke-width: 2; stroke-dasharray: 8; stroke: #000000" x1="765.996" y1="1337.33" x2="766.168" y2="1384.6"/>
    <polyline style="fill: none; fill-opacity:0; stroke-width: 2; stroke: #000000" points="761.122,1371.97 766.18,1387.95 771.122,1371.94 "/>
    <text font-size="12.7998" style="fill: #000000;text-anchor:start;font-family:monospace;font-style:normal;font-weight:normal" x="766.092" y="1360.32">{No}</text>
  </g>
  <g>
    <line style="fill: none; fill-opacity:0; stroke-width: 2; stroke-dasharray: 8; stroke: #000000" x1="785.996" y1="1317.33" x2="843.169" y2="1318.02"/>
    <polyline style="fill: none; fill-opacity:0; stroke-width: 2; stroke: #000000" points="830.462,1322.87 846.521,1318.06 830.583,1312.87 "/>
    <text font-size="12.7998" style="fill: #000000;text-anchor:start;font-family:monospace;font-style:normal;font-weight:normal" x="794.898" y="1307.53">{Yes}</text>
  </g>
  <ellipse style="fill: #000000" cx="860.858" cy="1318.23" rx="10" ry="10"/>
  <g>
    <polygon style="fill: #ffffff" points="968.476,1311.65 988.476,1291.65 1008.48,1311.65 988.476,1331.65 "/>
    <polygon style="fill: none; fill-opacity:0; stroke-width: 2; stroke: #000000" points="968.476,1311.65 988.476,1291.65 1008.48,1311.65 988.476,1331.65 "/>
  </g>
  <g>
    <line style="fill: none; fill-opacity:0; stroke-width: 2; stroke-dasharray: 8; stroke: #000000" x1="988.476" y1="1331.65" x2="988.416" y2="1383.14"/>
    <polyline style="fill: none; fill-opacity:0; stroke-width: 2; stroke: #000000" points="983.431,1370.49 988.412,1386.49 993.431,1370.5 "/>
    <text font-size="12.7998" style="fill: #000000;text-anchor:start;font-family:monospace;font-style:normal;font-weight:normal" x="988.442" y="1356.75">{No}</text>
  </g>
  <g>
    <line style="fill: none; fill-opacity:0; stroke-width: 2; stroke-dasharray: 8; stroke: #000000" x1="1008.48" y1="1311.65" x2="1067.5" y2="1312.35"/>
    <polyline style="fill: none; fill-opacity:0; stroke-width: 2; stroke: #000000" points="1054.79,1317.2 1070.85,1312.39 1054.91,1307.2 "/>
    <text font-size="12.7998" style="fill: #000000;text-anchor:start;font-family:monospace;font-style:normal;font-weight:normal" x="1017.04" y="1302.34">{Yes}</text>
  </g>
  <ellipse style="fill: #000000" cx="1085.18" cy="1312.56" rx="10" ry="10"/>
  <text font-size="12.8" style="fill: #000000;text-anchor:start;font-family:sans-serif;font-style:normal;font-weight:normal" x="773.434" y="1282.06">
    <tspan x="773.434" y="1282.06">test mode?</tspan>
  </text>
  <text font-size="12.8" style="fill: #000000;text-anchor:start;font-family:sans-serif;font-style:normal;font-weight:normal" x="999.598" y="1273.79">
    <tspan x="999.598" y="1273.79">test mode?</tspan>
  </text>
  <ellipse style="fill: #000000" cx="33.08" cy="1237.54" rx="10" ry="10"/>
  <g>
    <polyline style="fill: none; fill-opacity:0; stroke-width: 2; stroke: #000000" points="33.08,1248.54 33.08,1270.21 33.6282,1270.21 33.6282,1287.4 "/>
    <polyline style="fill: none; fill-opacity:0; stroke-width: 2; stroke: #000000" points="28.6282,1279.64 33.6282,1289.64 38.6282,1279.64 "/>
  </g>
  <text font-size="12.8" style="fill: #000000;text-anchor:start;font-family:sans-serif;font-style:normal;font-weight:normal" x="-19.798" y="1204.9">
    <tspan x="-19.798" y="1204.9">toggle test mode</tspan>
  </text>
  <g>
    <polygon style="fill: #ffffff" points="13.6282,1311.88 33.6282,1291.88 53.6282,1311.88 33.6282,1331.88 "/>
    <polygon style="fill: none; fill-opacity:0; stroke-width: 2; stroke: #000000" points="13.6282,1311.88 33.6282,1291.88 53.6282,1311.88 33.6282,1331.88 "/>
  </g>
  <text font-size="12.8" style="fill: #000000;text-anchor:start;font-family:sans-serif;font-style:normal;font-weight:normal" x="-45.97" y="1286.42">
    <tspan x="-45.97" y="1286.42">before LO?</tspan>
  </text>
  <g>
    <line style="fill: none; fill-opacity:0; stroke-width: 2; stroke-dasharray: 8; stroke: #000000" x1="33.6282" y1="1331.88" x2="32.9242" y2="1370.23"/>
    <polyline style="fill: none; fill-opacity:0; stroke-width: 2; stroke: #000000" points="28.1572,1357.49 32.8627,1373.58 38.1555,1357.68 "/>
    <text font-size="12.7998" style="fill: #000000;text-anchor:start;font-family:monospace;font-style:normal;font-weight:normal" x="33.2136" y="1350.41">{Yes}</text>
  </g>
  <g>
    <line style="fill: none; fill-opacity:0; stroke-width: 2; stroke-dasharray: 8; stroke: #000000" x1="53.6282" y1="1311.88" x2="101.176" y2="1311.74"/>
    <polyline style="fill: none; fill-opacity:0; stroke-width: 2; stroke: #000000" points="88.5433,1316.78 104.529,1311.73 88.5148,1306.78 "/>
    <text font-size="12.7998" style="fill: #000000;text-anchor:start;font-family:monospace;font-style:normal;font-weight:normal" x="68.0128" y="1302.34">{No}</text>
  </g>
  <ellipse style="fill: #000000" cx="118.882" cy="1311.69" rx="10" ry="10"/>
  <g>
    <rect style="fill: #ffffff" x="-31.9988" y="1376.94" width="129.6" height="36" rx="20" ry="20"/>
    <rect style="fill: none; fill-opacity:0; stroke-width: 2; stroke: #000000" x="-31.9988" y="1376.94" width="129.6" height="36" rx="20" ry="20"/>
    <text font-size="12.8" style="fill: #000000;text-anchor:middle;font-family:sans-serif;font-style:normal;font-weight:normal" x="32.8012" y="1398.84">
      <tspan x="32.8012" y="1398.84">toggle test mode</tspan>
    </text>
  </g>
  <ellipse style="fill: #000000" cx="33.822" cy="1469.81" rx="10" ry="10"/>
  <g>
    <polyline style="fill: none; fill-opacity:0; stroke-width: 2; stroke: #000000" points="32.8012,1412.94 32.8012,1435.87 33.822,1435.87 33.822,1454.34 "/>
    <polyline style="fill: none; fill-opacity:0; stroke-width: 2; stroke: #000000" points="28.822,1446.57 33.822,1456.57 38.822,1446.57 "/>
  </g>
  <g>
    <rect style="fill: #ffffff" x="462.876" y="762" width="81.75" height="36" rx="20" ry="20"/>
    <rect style="fill: none; fill-opacity:0; stroke-width: 2; stroke: #000000" x="462.876" y="762" width="81.75" height="36" rx="20" ry="20"/>
    <text font-size="12.8" style="fill: #000000;text-anchor:middle;font-family:sans-serif;font-style:normal;font-weight:normal" x="503.751" y="783.9">
      <tspan x="503.751" y="783.9">read data</tspan>
    </text>
  </g>
  <g>
    <rect style="fill: #ffffff" x="451.9" y="873.786" width="104.75" height="52" rx="20" ry="20"/>
    <rect style="fill: none; fill-opacity:0; stroke-width: 2; stroke: #000000" x="451.9" y="873.786" width="104.75" height="52" rx="20" ry="20"/>
    <text font-size="12.8" style="fill: #000000;text-anchor:middle;font-family:sans-serif;font-style:normal;font-weight:normal" x="504.275" y="895.686">
      <tspan x="504.275" y="895.686">transmit &amp;</tspan>
      <tspan x="504.275" y="911.686">log (after LO)</tspan>
    </text>
  </g>
  <g>
    <polyline style="fill: none; fill-opacity:0; stroke-width: 2; stroke: #000000" points="503.751,798 503.751,835.893 504.275,835.893 504.275,869.314 "/>
    <polyline style="fill: none; fill-opacity:0; stroke-width: 2; stroke: #000000" points="499.275,861.55 504.275,871.55 509.275,861.55 "/>
  </g>
  <g>
    <polyline style="fill: none; fill-opacity:0; stroke-width: 2; stroke: #000000" points="451.9,899.786 421.9,899.786 421.9,780 458.404,780 "/>
    <polyline style="fill: none; fill-opacity:0; stroke-width: 2; stroke: #000000" points="450.64,785 460.64,780 450.64,775 "/>
  </g>
  <g>
    <polygon style="fill: #ffffff" points="607.514,763.014 627.514,743.014 647.514,763.014 627.514,783.014 "/>
    <polygon style="fill: none; fill-opacity:0; stroke-width: 2; stroke: #000000" points="607.514,763.014 627.514,743.014 647.514,763.014 627.514,783.014 "/>
  </g>
  <g>
    <polygon style="fill: #ffffff" points="1303.45,972.976 1323.45,952.976 1343.45,972.976 1323.45,992.976 "/>
    <polygon style="fill: none; fill-opacity:0; stroke-width: 2; stroke: #000000" points="1303.45,972.976 1323.45,952.976 1343.45,972.976 1323.45,992.976 "/>
  </g>
  <text font-size="12.8" style="fill: #000000;text-anchor:start;font-family:sans-serif;font-style:normal;font-weight:normal" x="1258.08" y="1005.25">
    <tspan x="1258.08" y="1005.25">temperature below hysteresis?</tspan>
  </text>
  <g>
    <rect style="fill: #ffffff" x="1374.03" y="914.406" width="84.85" height="36" rx="20" ry="20"/>
    <rect style="fill: none; fill-opacity:0; stroke-width: 2; stroke: #000000" x="1374.03" y="914.406" width="84.85" height="36" rx="20" ry="20"/>
    <text font-size="12.8" style="fill: #000000;text-anchor:middle;font-family:sans-serif;font-style:normal;font-weight:normal" x="1416.46" y="936.306">
      <tspan x="1416.46" y="936.306">enable HP</tspan>
    </text>
  </g>
  <g>
    <polyline style="fill: none; fill-opacity:0; stroke-width: 2; stroke: #000000" points="1343.45,972.976 1374.03,972.976 1374.03,972.98 1416.46,972.98 1416.46,954.878 "/>
    <polyline style="fill: none; fill-opacity:0; stroke-width: 2; stroke: #000000" points="1421.46,962.642 1416.46,952.642 1411.46,962.642 "/>
  </g>
  <text font-size="12.8" style="fill: #000000;text-anchor:start;font-family:sans-serif;font-style:normal;font-weight:normal" x="1346.46" y="969.884">
    <tspan x="1346.46" y="969.884">Yes</tspan>
  </text>
  <text font-size="12.8" style="fill: #000000;text-anchor:start;font-family:sans-serif;font-style:normal;font-weight:normal" x="1327.46" y="947.884">
    <tspan x="1327.46" y="947.884">No</tspan>
  </text>
  <g>
    <polyline style="fill: none; fill-opacity:0; stroke-width: 2; stroke: #000000" points="1416.46,914.406 1416.46,862.816 1385.75,862.816 "/>
    <polyline style="fill: none; fill-opacity:0; stroke-width: 2; stroke: #000000" points="1393.51,857.816 1383.51,862.816 1393.51,867.816 "/>
  </g>
  <g>
    <polyline style="fill: none; fill-opacity:0; stroke-width: 2; stroke: #000000" points="1205.5,972.894 1254.48,972.894 1254.48,972.976 1298.98,972.976 "/>
    <polyline style="fill: none; fill-opacity:0; stroke-width: 2; stroke: #000000" points="1291.22,977.976 1301.22,972.976 1291.22,967.976 "/>
  </g>
  <g>
    <polyline style="fill: none; fill-opacity:0; stroke-width: 2; stroke: #000000" points="1185.5,992.894 1185.5,1035.14 1185.71,1035.14 1185.71,1072.92 "/>
    <polyline style="fill: none; fill-opacity:0; stroke-width: 2; stroke: #000000" points="1180.71,1065.15 1185.71,1075.15 1190.71,1065.15 "/>
  </g>
  <text font-size="12.8" style="fill: #000000;text-anchor:start;font-family:sans-serif;font-style:normal;font-weight:normal" x="1189.46" y="1007.88">
    <tspan x="1189.46" y="1007.88">Yes</tspan>
  </text>
  <text font-size="12.8" style="fill: #000000;text-anchor:start;font-family:sans-serif;font-style:normal;font-weight:normal" x="1213.96" y="969.884">
    <tspan x="1213.96" y="969.884">No</tspan>
  </text>
</svg>
