M48
;DRILL file {KiCad 4.0.6} date Fri Jul 21 15:48:15 2017
;FORMAT={-:-/ absolute / inch / decimal}
FMAT,2
INCH,TZ
T1C0.016
T2C0.039
%
G90
G05
M72
T1
X2.2807Y-1.6258
X2.2807Y-1.7045
X2.3594Y-1.6258
X2.3594Y-1.7045
X2.45Y-2.2
X2.45Y-2.25
X2.5Y-2.075
X2.635Y-2.2754
X2.6941Y-1.9604
X2.7138Y-2.2754
X2.75Y-2.05
X2.75Y-2.0994
X2.9Y-2.
X2.9303Y-2.2754
X2.9697Y-1.6258
X2.9697Y-1.7045
X2.9697Y-2.2754
X3.Y-2.
X3.Y-2.1307
X3.0681Y-1.6258
X3.0681Y-1.7045
X3.0681Y-1.7833
X3.0681Y-1.862
T2
X2.325Y-1.9
X2.325Y-2.
X2.425Y-1.9
X2.425Y-2.
X2.525Y-1.9
X2.525Y-2.
T0
M30
