G04 #@! TF.FileFunction,Copper,L1,Top,Signal*
%FSLAX46Y46*%
G04 Gerber Fmt 4.6, Leading zero omitted, Abs format (unit mm)*
G04 Created by KiCad (PCBNEW 4.0.6) date Fri Jul 21 15:48:13 2017*
%MOMM*%
%LPD*%
G01*
G04 APERTURE LIST*
%ADD10C,0.100000*%
%ADD11R,1.700000X1.700000*%
%ADD12O,1.700000X1.700000*%
%ADD13R,1.550000X0.600000*%
%ADD14R,0.750000X1.200000*%
%ADD15C,1.500000*%
%ADD16R,1.450000X0.450000*%
%ADD17C,0.600000*%
%ADD18C,0.600000*%
%ADD19C,0.300000*%
%ADD20C,0.254000*%
G04 APERTURE END LIST*
D10*
D11*
X64135000Y-48260000D03*
D12*
X64135000Y-50800000D03*
X61595000Y-48260000D03*
X61595000Y-50800000D03*
X59055000Y-48260000D03*
X59055000Y-50800000D03*
D13*
X63660000Y-57785000D03*
X63660000Y-56515000D03*
X63660000Y-55245000D03*
X63660000Y-53975000D03*
X58260000Y-53975000D03*
X58260000Y-55245000D03*
X58260000Y-56515000D03*
X58260000Y-57785000D03*
D14*
X65405000Y-53980000D03*
X65405000Y-55880000D03*
D15*
X69850000Y-55245000D03*
D16*
X71980000Y-50870000D03*
X71980000Y-51520000D03*
X71980000Y-52170000D03*
X71980000Y-52820000D03*
X71980000Y-53470000D03*
X71980000Y-54120000D03*
X71980000Y-54770000D03*
X71980000Y-55420000D03*
X71980000Y-56070000D03*
X71980000Y-56720000D03*
X77880000Y-56720000D03*
X77880000Y-56070000D03*
X77880000Y-55420000D03*
X77880000Y-54770000D03*
X77880000Y-54120000D03*
X77880000Y-53470000D03*
X77880000Y-52820000D03*
X77880000Y-52170000D03*
X77880000Y-51520000D03*
X77880000Y-50870000D03*
D17*
X68430000Y-49795000D03*
X75430000Y-57795000D03*
X74430000Y-57795000D03*
X68930000Y-57795000D03*
X66930000Y-57795000D03*
X77930000Y-47295000D03*
X77930000Y-45295000D03*
X75430000Y-41295000D03*
X75430000Y-43295000D03*
X77930000Y-43295000D03*
X77930000Y-41295000D03*
X57930000Y-41295000D03*
X57930000Y-43295000D03*
X59930000Y-43295000D03*
X59930000Y-41295000D03*
X76200000Y-54120000D03*
X76200000Y-50800000D03*
X73660000Y-50800000D03*
X63500000Y-52705000D03*
X69850000Y-53325000D03*
X62230000Y-57150000D03*
X69850000Y-52070000D03*
X62230000Y-55880000D03*
D18*
X77930000Y-43295000D02*
X75430000Y-43295000D01*
X75430000Y-41295000D02*
X77930000Y-41295000D01*
X57930000Y-41295000D02*
X57930000Y-43295000D01*
X59930000Y-41295000D02*
X59930000Y-43295000D01*
D19*
X70985000Y-49345000D02*
X70985000Y-50665000D01*
X70985000Y-50665000D02*
X71120000Y-50800000D01*
D18*
X74930000Y-52070000D02*
X74930000Y-53340000D01*
X74930000Y-53340000D02*
X74930000Y-54610000D01*
D19*
X77880000Y-53470000D02*
X75060000Y-53470000D01*
X75060000Y-53470000D02*
X74930000Y-53340000D01*
D18*
X74930000Y-48895000D02*
X74930000Y-52070000D01*
D19*
X71980000Y-52170000D02*
X73005000Y-52170000D01*
X73005000Y-52170000D02*
X73105000Y-52070000D01*
X73105000Y-52070000D02*
X74930000Y-52070000D01*
X71980000Y-54770000D02*
X73005000Y-54770000D01*
X73005000Y-54770000D02*
X73165000Y-54610000D01*
X73165000Y-54610000D02*
X74930000Y-54610000D01*
D18*
X74295000Y-48260000D02*
X74930000Y-48895000D01*
X65585000Y-48260000D02*
X74295000Y-48260000D01*
X66675000Y-52705000D02*
X66675000Y-49350000D01*
X66675000Y-55585000D02*
X66675000Y-52705000D01*
X66675000Y-49350000D02*
X65585000Y-48260000D01*
X65585000Y-48260000D02*
X64135000Y-48260000D01*
X65405000Y-55880000D02*
X66380000Y-55880000D01*
X66380000Y-55880000D02*
X66675000Y-55585000D01*
X63660000Y-57785000D02*
X64700000Y-57785000D01*
X64700000Y-57785000D02*
X65405000Y-57080000D01*
X65405000Y-57080000D02*
X65405000Y-55880000D01*
X64135000Y-48260000D02*
X64770000Y-48260000D01*
D19*
X76710000Y-53975000D02*
X76345000Y-53975000D01*
X76345000Y-53975000D02*
X76200000Y-54120000D01*
X77880000Y-54120000D02*
X76855000Y-54120000D01*
X76855000Y-54120000D02*
X76710000Y-53975000D01*
X77880000Y-50870000D02*
X76270000Y-50870000D01*
X76270000Y-50870000D02*
X76200000Y-50800000D01*
X71980000Y-50870000D02*
X73590000Y-50870000D01*
X73590000Y-50870000D02*
X73660000Y-50800000D01*
D18*
X65400000Y-53975000D02*
X65405000Y-53980000D01*
X63660000Y-53975000D02*
X63660000Y-52865000D01*
X63660000Y-52865000D02*
X63500000Y-52705000D01*
X63660000Y-53975000D02*
X65400000Y-53975000D01*
X62230000Y-54610000D02*
X62230000Y-52705000D01*
X62230000Y-52705000D02*
X64135000Y-50800000D01*
X61429999Y-55410001D02*
X62230000Y-54610000D01*
X60794992Y-57785000D02*
X61429999Y-57149993D01*
X61429999Y-57149993D02*
X61429999Y-55410001D01*
X58260000Y-57785000D02*
X60794992Y-57785000D01*
X61595000Y-51435000D02*
X61595000Y-50800000D01*
X60960000Y-52070000D02*
X61595000Y-51435000D01*
X58260000Y-56515000D02*
X59690000Y-56515000D01*
X59690000Y-56515000D02*
X60325000Y-55880000D01*
X60325000Y-55880000D02*
X60325000Y-55383616D01*
X60325000Y-55383616D02*
X60960000Y-54748616D01*
X60960000Y-54748616D02*
X60960000Y-52070000D01*
X58260000Y-53975000D02*
X58260000Y-53075000D01*
X58260000Y-53075000D02*
X57704999Y-52519999D01*
X58205001Y-49109999D02*
X59055000Y-48260000D01*
X57704999Y-52519999D02*
X57704999Y-49610001D01*
X57704999Y-49610001D02*
X58205001Y-49109999D01*
X58260000Y-55245000D02*
X58965002Y-55245000D01*
X58965002Y-55245000D02*
X59904999Y-54305003D01*
X59904999Y-54305003D02*
X59904999Y-51649999D01*
X59904999Y-51649999D02*
X59055000Y-50800000D01*
D19*
X71980000Y-54120000D02*
X70975000Y-54120000D01*
X70975000Y-54120000D02*
X69850000Y-55245000D01*
X70370000Y-52820000D02*
X69850000Y-53340000D01*
X71980000Y-52820000D02*
X70370000Y-52820000D01*
D18*
X63660000Y-56515000D02*
X62865000Y-56515000D01*
X62865000Y-56515000D02*
X62230000Y-57150000D01*
D19*
X69850000Y-52070000D02*
X70400000Y-51520000D01*
X70400000Y-51520000D02*
X71980000Y-51520000D01*
D18*
X63660000Y-55245000D02*
X62865000Y-55245000D01*
X62865000Y-55245000D02*
X62230000Y-55880000D01*
D20*
G36*
X73995000Y-49282290D02*
X73995000Y-51285000D01*
X73350558Y-51285000D01*
X73339020Y-51223677D01*
X73340000Y-51221310D01*
X73340000Y-51141250D01*
X73319688Y-51120938D01*
X73308162Y-51059683D01*
X73169090Y-50843559D01*
X73043138Y-50757500D01*
X73181250Y-50757500D01*
X73340000Y-50598750D01*
X73340000Y-50518690D01*
X73243327Y-50285301D01*
X73064698Y-50106673D01*
X72831309Y-50010000D01*
X72265750Y-50010000D01*
X72107000Y-50168750D01*
X72107000Y-50647560D01*
X71853000Y-50647560D01*
X71853000Y-50168750D01*
X71694250Y-50010000D01*
X71128691Y-50010000D01*
X70895302Y-50106673D01*
X70716673Y-50285301D01*
X70620000Y-50518690D01*
X70620000Y-50598750D01*
X70756250Y-50735000D01*
X70400000Y-50735000D01*
X70099594Y-50794755D01*
X69844921Y-50964921D01*
X69844919Y-50964924D01*
X69674996Y-51134847D01*
X69664833Y-51134838D01*
X69321057Y-51276883D01*
X69057808Y-51539673D01*
X68915162Y-51883201D01*
X68914838Y-52255167D01*
X69056883Y-52598943D01*
X69155210Y-52697441D01*
X69057808Y-52794673D01*
X68915162Y-53138201D01*
X68914838Y-53510167D01*
X69056883Y-53853943D01*
X69212504Y-54009835D01*
X69066485Y-54070169D01*
X68676539Y-54459436D01*
X68465241Y-54968298D01*
X68464760Y-55519285D01*
X68675169Y-56028515D01*
X69064436Y-56418461D01*
X69573298Y-56629759D01*
X70124285Y-56630240D01*
X70621802Y-56424671D01*
X70607560Y-56495000D01*
X70607560Y-56945000D01*
X70651838Y-57180317D01*
X70790910Y-57396441D01*
X71003110Y-57541431D01*
X71255000Y-57592440D01*
X72705000Y-57592440D01*
X72940317Y-57548162D01*
X73156441Y-57409090D01*
X73301431Y-57196890D01*
X73352440Y-56945000D01*
X73352440Y-56495000D01*
X73332933Y-56391329D01*
X73352440Y-56295000D01*
X73352440Y-55845000D01*
X73332933Y-55741329D01*
X73352440Y-55645000D01*
X73352440Y-55463819D01*
X73455435Y-55395000D01*
X74454218Y-55395000D01*
X74572191Y-55473827D01*
X74930000Y-55545000D01*
X75287809Y-55473827D01*
X75591145Y-55271145D01*
X75793827Y-54967809D01*
X75865000Y-54610000D01*
X75865000Y-54255000D01*
X76584608Y-54255000D01*
X76558569Y-54293110D01*
X76543442Y-54367808D01*
X76520000Y-54391250D01*
X76520000Y-54471310D01*
X76521667Y-54475335D01*
X76507560Y-54545000D01*
X76507560Y-54995000D01*
X76527067Y-55098671D01*
X76507560Y-55195000D01*
X76507560Y-55645000D01*
X76527067Y-55748671D01*
X76507560Y-55845000D01*
X76507560Y-56295000D01*
X76527067Y-56398671D01*
X76507560Y-56495000D01*
X76507560Y-56945000D01*
X76551838Y-57180317D01*
X76690910Y-57396441D01*
X76903110Y-57541431D01*
X77155000Y-57592440D01*
X78605000Y-57592440D01*
X78745000Y-57566097D01*
X78745000Y-58610000D01*
X65115918Y-58610000D01*
X65361145Y-58446145D01*
X66066145Y-57741145D01*
X66165506Y-57592440D01*
X66268827Y-57437809D01*
X66289244Y-57335167D01*
X66340001Y-57080000D01*
X66340000Y-57079995D01*
X66340000Y-56815000D01*
X66380000Y-56815000D01*
X66737809Y-56743827D01*
X67041145Y-56541145D01*
X67336145Y-56246145D01*
X67538827Y-55942809D01*
X67610000Y-55585000D01*
X67610000Y-49350000D01*
X67579168Y-49195000D01*
X73907710Y-49195000D01*
X73995000Y-49282290D01*
X73995000Y-49282290D01*
G37*
X73995000Y-49282290D02*
X73995000Y-51285000D01*
X73350558Y-51285000D01*
X73339020Y-51223677D01*
X73340000Y-51221310D01*
X73340000Y-51141250D01*
X73319688Y-51120938D01*
X73308162Y-51059683D01*
X73169090Y-50843559D01*
X73043138Y-50757500D01*
X73181250Y-50757500D01*
X73340000Y-50598750D01*
X73340000Y-50518690D01*
X73243327Y-50285301D01*
X73064698Y-50106673D01*
X72831309Y-50010000D01*
X72265750Y-50010000D01*
X72107000Y-50168750D01*
X72107000Y-50647560D01*
X71853000Y-50647560D01*
X71853000Y-50168750D01*
X71694250Y-50010000D01*
X71128691Y-50010000D01*
X70895302Y-50106673D01*
X70716673Y-50285301D01*
X70620000Y-50518690D01*
X70620000Y-50598750D01*
X70756250Y-50735000D01*
X70400000Y-50735000D01*
X70099594Y-50794755D01*
X69844921Y-50964921D01*
X69844919Y-50964924D01*
X69674996Y-51134847D01*
X69664833Y-51134838D01*
X69321057Y-51276883D01*
X69057808Y-51539673D01*
X68915162Y-51883201D01*
X68914838Y-52255167D01*
X69056883Y-52598943D01*
X69155210Y-52697441D01*
X69057808Y-52794673D01*
X68915162Y-53138201D01*
X68914838Y-53510167D01*
X69056883Y-53853943D01*
X69212504Y-54009835D01*
X69066485Y-54070169D01*
X68676539Y-54459436D01*
X68465241Y-54968298D01*
X68464760Y-55519285D01*
X68675169Y-56028515D01*
X69064436Y-56418461D01*
X69573298Y-56629759D01*
X70124285Y-56630240D01*
X70621802Y-56424671D01*
X70607560Y-56495000D01*
X70607560Y-56945000D01*
X70651838Y-57180317D01*
X70790910Y-57396441D01*
X71003110Y-57541431D01*
X71255000Y-57592440D01*
X72705000Y-57592440D01*
X72940317Y-57548162D01*
X73156441Y-57409090D01*
X73301431Y-57196890D01*
X73352440Y-56945000D01*
X73352440Y-56495000D01*
X73332933Y-56391329D01*
X73352440Y-56295000D01*
X73352440Y-55845000D01*
X73332933Y-55741329D01*
X73352440Y-55645000D01*
X73352440Y-55463819D01*
X73455435Y-55395000D01*
X74454218Y-55395000D01*
X74572191Y-55473827D01*
X74930000Y-55545000D01*
X75287809Y-55473827D01*
X75591145Y-55271145D01*
X75793827Y-54967809D01*
X75865000Y-54610000D01*
X75865000Y-54255000D01*
X76584608Y-54255000D01*
X76558569Y-54293110D01*
X76543442Y-54367808D01*
X76520000Y-54391250D01*
X76520000Y-54471310D01*
X76521667Y-54475335D01*
X76507560Y-54545000D01*
X76507560Y-54995000D01*
X76527067Y-55098671D01*
X76507560Y-55195000D01*
X76507560Y-55645000D01*
X76527067Y-55748671D01*
X76507560Y-55845000D01*
X76507560Y-56295000D01*
X76527067Y-56398671D01*
X76507560Y-56495000D01*
X76507560Y-56945000D01*
X76551838Y-57180317D01*
X76690910Y-57396441D01*
X76903110Y-57541431D01*
X77155000Y-57592440D01*
X78605000Y-57592440D01*
X78745000Y-57566097D01*
X78745000Y-58610000D01*
X65115918Y-58610000D01*
X65361145Y-58446145D01*
X66066145Y-57741145D01*
X66165506Y-57592440D01*
X66268827Y-57437809D01*
X66289244Y-57335167D01*
X66340001Y-57080000D01*
X66340000Y-57079995D01*
X66340000Y-56815000D01*
X66380000Y-56815000D01*
X66737809Y-56743827D01*
X67041145Y-56541145D01*
X67336145Y-56246145D01*
X67538827Y-55942809D01*
X67610000Y-55585000D01*
X67610000Y-49350000D01*
X67579168Y-49195000D01*
X73907710Y-49195000D01*
X73995000Y-49282290D01*
G36*
X65740000Y-49737290D02*
X65740000Y-52745000D01*
X65690750Y-52745000D01*
X65532000Y-52903750D01*
X65532000Y-53853000D01*
X65552000Y-53853000D01*
X65552000Y-54107000D01*
X65532000Y-54107000D01*
X65532000Y-54127000D01*
X65278000Y-54127000D01*
X65278000Y-54107000D01*
X64916250Y-54107000D01*
X64911250Y-54102000D01*
X63787000Y-54102000D01*
X63787000Y-54122000D01*
X63533000Y-54122000D01*
X63533000Y-54102000D01*
X63513000Y-54102000D01*
X63513000Y-53848000D01*
X63533000Y-53848000D01*
X63533000Y-53198750D01*
X63787000Y-53198750D01*
X63787000Y-53848000D01*
X64548750Y-53848000D01*
X64553750Y-53853000D01*
X65278000Y-53853000D01*
X65278000Y-52903750D01*
X65119250Y-52745000D01*
X64903690Y-52745000D01*
X64670301Y-52841673D01*
X64491673Y-53020302D01*
X64483514Y-53040000D01*
X63945750Y-53040000D01*
X63787000Y-53198750D01*
X63533000Y-53198750D01*
X63374250Y-53040000D01*
X63217290Y-53040000D01*
X63975019Y-52282271D01*
X64135000Y-52314093D01*
X64703285Y-52201054D01*
X65185054Y-51879147D01*
X65506961Y-51397378D01*
X65620000Y-50829093D01*
X65620000Y-50770907D01*
X65506961Y-50202622D01*
X65185054Y-49720853D01*
X65183821Y-49720029D01*
X65220317Y-49713162D01*
X65436441Y-49574090D01*
X65493415Y-49490705D01*
X65740000Y-49737290D01*
X65740000Y-49737290D01*
G37*
X65740000Y-49737290D02*
X65740000Y-52745000D01*
X65690750Y-52745000D01*
X65532000Y-52903750D01*
X65532000Y-53853000D01*
X65552000Y-53853000D01*
X65552000Y-54107000D01*
X65532000Y-54107000D01*
X65532000Y-54127000D01*
X65278000Y-54127000D01*
X65278000Y-54107000D01*
X64916250Y-54107000D01*
X64911250Y-54102000D01*
X63787000Y-54102000D01*
X63787000Y-54122000D01*
X63533000Y-54122000D01*
X63533000Y-54102000D01*
X63513000Y-54102000D01*
X63513000Y-53848000D01*
X63533000Y-53848000D01*
X63533000Y-53198750D01*
X63787000Y-53198750D01*
X63787000Y-53848000D01*
X64548750Y-53848000D01*
X64553750Y-53853000D01*
X65278000Y-53853000D01*
X65278000Y-52903750D01*
X65119250Y-52745000D01*
X64903690Y-52745000D01*
X64670301Y-52841673D01*
X64491673Y-53020302D01*
X64483514Y-53040000D01*
X63945750Y-53040000D01*
X63787000Y-53198750D01*
X63533000Y-53198750D01*
X63374250Y-53040000D01*
X63217290Y-53040000D01*
X63975019Y-52282271D01*
X64135000Y-52314093D01*
X64703285Y-52201054D01*
X65185054Y-51879147D01*
X65506961Y-51397378D01*
X65620000Y-50829093D01*
X65620000Y-50770907D01*
X65506961Y-50202622D01*
X65185054Y-49720853D01*
X65183821Y-49720029D01*
X65220317Y-49713162D01*
X65436441Y-49574090D01*
X65493415Y-49490705D01*
X65740000Y-49737290D01*
G36*
X60803000Y-43795000D02*
X60813006Y-43844410D01*
X60840197Y-43884803D01*
X62840197Y-45884803D01*
X62882211Y-45912666D01*
X62930000Y-45922000D01*
X72930000Y-45922000D01*
X72979410Y-45911994D01*
X73031600Y-45871200D01*
X74531600Y-43871200D01*
X74553241Y-43825668D01*
X74557000Y-43795000D01*
X74557000Y-40480000D01*
X78745000Y-40480000D01*
X78745000Y-50015671D01*
X78731309Y-50010000D01*
X78165750Y-50010000D01*
X78007000Y-50168750D01*
X78007000Y-50647560D01*
X77753000Y-50647560D01*
X77753000Y-50168750D01*
X77594250Y-50010000D01*
X77028691Y-50010000D01*
X76795302Y-50106673D01*
X76616673Y-50285301D01*
X76520000Y-50518690D01*
X76520000Y-50598750D01*
X76678750Y-50757500D01*
X76817641Y-50757500D01*
X76703559Y-50830910D01*
X76558569Y-51043110D01*
X76543442Y-51117808D01*
X76520000Y-51141250D01*
X76520000Y-51221310D01*
X76521667Y-51225335D01*
X76507560Y-51295000D01*
X76507560Y-51745000D01*
X76527067Y-51848671D01*
X76507560Y-51945000D01*
X76507560Y-52395000D01*
X76527067Y-52498671D01*
X76507560Y-52595000D01*
X76507560Y-52685000D01*
X75865000Y-52685000D01*
X75865000Y-48895000D01*
X75793827Y-48537191D01*
X75591145Y-48233855D01*
X74956145Y-47598855D01*
X74652809Y-47396173D01*
X74295000Y-47325000D01*
X65616446Y-47325000D01*
X65588162Y-47174683D01*
X65449090Y-46958559D01*
X65236890Y-46813569D01*
X64985000Y-46762560D01*
X63285000Y-46762560D01*
X63049683Y-46806838D01*
X62833559Y-46945910D01*
X62688569Y-47158110D01*
X62666699Y-47266107D01*
X62361924Y-46988355D01*
X61951890Y-46818524D01*
X61722000Y-46939845D01*
X61722000Y-48133000D01*
X61742000Y-48133000D01*
X61742000Y-48387000D01*
X61722000Y-48387000D01*
X61722000Y-48407000D01*
X61468000Y-48407000D01*
X61468000Y-48387000D01*
X61448000Y-48387000D01*
X61448000Y-48133000D01*
X61468000Y-48133000D01*
X61468000Y-46939845D01*
X61238110Y-46818524D01*
X60828076Y-46988355D01*
X60399817Y-47378642D01*
X60332702Y-47521553D01*
X60105054Y-47180853D01*
X59623285Y-46858946D01*
X59055000Y-46745907D01*
X58486715Y-46858946D01*
X58004946Y-47180853D01*
X57683039Y-47662622D01*
X57570000Y-48230907D01*
X57570000Y-48289093D01*
X57592169Y-48400541D01*
X57115000Y-48877710D01*
X57115000Y-40480000D01*
X60803000Y-40480000D01*
X60803000Y-43795000D01*
X60803000Y-43795000D01*
G37*
X60803000Y-43795000D02*
X60813006Y-43844410D01*
X60840197Y-43884803D01*
X62840197Y-45884803D01*
X62882211Y-45912666D01*
X62930000Y-45922000D01*
X72930000Y-45922000D01*
X72979410Y-45911994D01*
X73031600Y-45871200D01*
X74531600Y-43871200D01*
X74553241Y-43825668D01*
X74557000Y-43795000D01*
X74557000Y-40480000D01*
X78745000Y-40480000D01*
X78745000Y-50015671D01*
X78731309Y-50010000D01*
X78165750Y-50010000D01*
X78007000Y-50168750D01*
X78007000Y-50647560D01*
X77753000Y-50647560D01*
X77753000Y-50168750D01*
X77594250Y-50010000D01*
X77028691Y-50010000D01*
X76795302Y-50106673D01*
X76616673Y-50285301D01*
X76520000Y-50518690D01*
X76520000Y-50598750D01*
X76678750Y-50757500D01*
X76817641Y-50757500D01*
X76703559Y-50830910D01*
X76558569Y-51043110D01*
X76543442Y-51117808D01*
X76520000Y-51141250D01*
X76520000Y-51221310D01*
X76521667Y-51225335D01*
X76507560Y-51295000D01*
X76507560Y-51745000D01*
X76527067Y-51848671D01*
X76507560Y-51945000D01*
X76507560Y-52395000D01*
X76527067Y-52498671D01*
X76507560Y-52595000D01*
X76507560Y-52685000D01*
X75865000Y-52685000D01*
X75865000Y-48895000D01*
X75793827Y-48537191D01*
X75591145Y-48233855D01*
X74956145Y-47598855D01*
X74652809Y-47396173D01*
X74295000Y-47325000D01*
X65616446Y-47325000D01*
X65588162Y-47174683D01*
X65449090Y-46958559D01*
X65236890Y-46813569D01*
X64985000Y-46762560D01*
X63285000Y-46762560D01*
X63049683Y-46806838D01*
X62833559Y-46945910D01*
X62688569Y-47158110D01*
X62666699Y-47266107D01*
X62361924Y-46988355D01*
X61951890Y-46818524D01*
X61722000Y-46939845D01*
X61722000Y-48133000D01*
X61742000Y-48133000D01*
X61742000Y-48387000D01*
X61722000Y-48387000D01*
X61722000Y-48407000D01*
X61468000Y-48407000D01*
X61468000Y-48387000D01*
X61448000Y-48387000D01*
X61448000Y-48133000D01*
X61468000Y-48133000D01*
X61468000Y-46939845D01*
X61238110Y-46818524D01*
X60828076Y-46988355D01*
X60399817Y-47378642D01*
X60332702Y-47521553D01*
X60105054Y-47180853D01*
X59623285Y-46858946D01*
X59055000Y-46745907D01*
X58486715Y-46858946D01*
X58004946Y-47180853D01*
X57683039Y-47662622D01*
X57570000Y-48230907D01*
X57570000Y-48289093D01*
X57592169Y-48400541D01*
X57115000Y-48877710D01*
X57115000Y-40480000D01*
X60803000Y-40480000D01*
X60803000Y-43795000D01*
M02*
