G04 #@! TF.FileFunction,Legend,Top*
%FSLAX46Y46*%
G04 Gerber Fmt 4.6, Leading zero omitted, Abs format (unit mm)*
G04 Created by KiCad (PCBNEW 4.0.6) date Fri Jul 21 15:48:13 2017*
%MOMM*%
%LPD*%
G01*
G04 APERTURE LIST*
%ADD10C,0.100000*%
%ADD11C,0.200000*%
%ADD12C,0.120000*%
%ADD13C,0.150000*%
G04 APERTURE END LIST*
D10*
D11*
X75930000Y-50295000D02*
X75930000Y-59295000D01*
X75930000Y-50295000D02*
X75930000Y-39795000D01*
D12*
X62865000Y-46930000D02*
X57725000Y-46930000D01*
X57725000Y-46930000D02*
X57725000Y-52130000D01*
X57725000Y-52130000D02*
X65465000Y-52130000D01*
X65465000Y-52130000D02*
X65465000Y-49530000D01*
X65465000Y-49530000D02*
X62865000Y-49530000D01*
X62865000Y-49530000D02*
X62865000Y-46930000D01*
X64135000Y-46930000D02*
X65465000Y-46930000D01*
X65465000Y-46930000D02*
X65465000Y-48260000D01*
D13*
X63035000Y-58455000D02*
X63035000Y-58405000D01*
X58885000Y-58455000D02*
X58885000Y-58310000D01*
X58885000Y-53305000D02*
X58885000Y-53450000D01*
X63035000Y-53305000D02*
X63035000Y-53450000D01*
X63035000Y-58455000D02*
X58885000Y-58455000D01*
X63035000Y-53305000D02*
X58885000Y-53305000D01*
X63035000Y-58405000D02*
X64435000Y-58405000D01*
D12*
X66005000Y-54580000D02*
X66005000Y-55280000D01*
X64805000Y-55280000D02*
X64805000Y-54580000D01*
D13*
X72705000Y-57245000D02*
X77155000Y-57245000D01*
X71180000Y-50345000D02*
X77155000Y-50345000D01*
X56547381Y-49593333D02*
X57261667Y-49593333D01*
X57404524Y-49640953D01*
X57499762Y-49736191D01*
X57547381Y-49879048D01*
X57547381Y-49974286D01*
X57547381Y-48593333D02*
X57547381Y-49164762D01*
X57547381Y-48879048D02*
X56547381Y-48879048D01*
X56690238Y-48974286D01*
X56785476Y-49069524D01*
X56833095Y-49164762D01*
X60168095Y-57747381D02*
X60168095Y-58556905D01*
X60215714Y-58652143D01*
X60263333Y-58699762D01*
X60358571Y-58747381D01*
X60549048Y-58747381D01*
X60644286Y-58699762D01*
X60691905Y-58652143D01*
X60739524Y-58556905D01*
X60739524Y-57747381D01*
X61739524Y-58747381D02*
X61168095Y-58747381D01*
X61453809Y-58747381D02*
X61453809Y-57747381D01*
X61358571Y-57890238D01*
X61263333Y-57985476D01*
X61168095Y-58033095D01*
X74620476Y-42247381D02*
X74620476Y-41247381D01*
X74953810Y-41961667D01*
X75287143Y-41247381D01*
X75287143Y-42247381D01*
X75668095Y-41247381D02*
X76287143Y-41247381D01*
X75953809Y-41628333D01*
X76096667Y-41628333D01*
X76191905Y-41675952D01*
X76239524Y-41723571D01*
X76287143Y-41818810D01*
X76287143Y-42056905D01*
X76239524Y-42152143D01*
X76191905Y-42199762D01*
X76096667Y-42247381D01*
X75810952Y-42247381D01*
X75715714Y-42199762D01*
X75668095Y-42152143D01*
X65127143Y-52241666D02*
X65174762Y-52289285D01*
X65222381Y-52432142D01*
X65222381Y-52527380D01*
X65174762Y-52670238D01*
X65079524Y-52765476D01*
X64984286Y-52813095D01*
X64793810Y-52860714D01*
X64650952Y-52860714D01*
X64460476Y-52813095D01*
X64365238Y-52765476D01*
X64270000Y-52670238D01*
X64222381Y-52527380D01*
X64222381Y-52432142D01*
X64270000Y-52289285D01*
X64317619Y-52241666D01*
X65222381Y-51289285D02*
X65222381Y-51860714D01*
X65222381Y-51575000D02*
X64222381Y-51575000D01*
X64365238Y-51670238D01*
X64460476Y-51765476D01*
X64508095Y-51860714D01*
X59120476Y-42247381D02*
X59120476Y-41247381D01*
X59453810Y-41961667D01*
X59787143Y-41247381D01*
X59787143Y-42247381D01*
X60168095Y-41247381D02*
X60787143Y-41247381D01*
X60453809Y-41628333D01*
X60596667Y-41628333D01*
X60691905Y-41675952D01*
X60739524Y-41723571D01*
X60787143Y-41818810D01*
X60787143Y-42056905D01*
X60739524Y-42152143D01*
X60691905Y-42199762D01*
X60596667Y-42247381D01*
X60310952Y-42247381D01*
X60215714Y-42199762D01*
X60168095Y-42152143D01*
X71223095Y-55421667D02*
X71699286Y-55421667D01*
X71127857Y-55707381D02*
X71461190Y-54707381D01*
X71794524Y-55707381D01*
X72318333Y-54707381D02*
X72508810Y-54707381D01*
X72604048Y-54755000D01*
X72699286Y-54850238D01*
X72746905Y-55040714D01*
X72746905Y-55374048D01*
X72699286Y-55564524D01*
X72604048Y-55659762D01*
X72508810Y-55707381D01*
X72318333Y-55707381D01*
X72223095Y-55659762D01*
X72127857Y-55564524D01*
X72080238Y-55374048D01*
X72080238Y-55040714D01*
X72127857Y-54850238D01*
X72223095Y-54755000D01*
X72318333Y-54707381D01*
X74168095Y-48947381D02*
X74168095Y-49756905D01*
X74215714Y-49852143D01*
X74263333Y-49899762D01*
X74358571Y-49947381D01*
X74549048Y-49947381D01*
X74644286Y-49899762D01*
X74691905Y-49852143D01*
X74739524Y-49756905D01*
X74739524Y-48947381D01*
X75168095Y-49042619D02*
X75215714Y-48995000D01*
X75310952Y-48947381D01*
X75549048Y-48947381D01*
X75644286Y-48995000D01*
X75691905Y-49042619D01*
X75739524Y-49137857D01*
X75739524Y-49233095D01*
X75691905Y-49375952D01*
X75120476Y-49947381D01*
X75739524Y-49947381D01*
M02*
