solid OpenSCAD_Model
  facet normal -1 0 0
    outer loop
      vertex 0 -3.3 -3.7
      vertex 0 -3.8 -3.7
      vertex 0 -3.3 0
    endloop
  endfacet
  facet normal -1 0 0
    outer loop
      vertex 0 -0.759999 -3.7
      vertex 0 -1.26 -3.7
      vertex 0 -0.759999 0
    endloop
  endfacet
  facet normal -1 0 0
    outer loop
      vertex 0 1.78 -3.7
      vertex 0 1.28 -3.7
      vertex 0 1.78 0
    endloop
  endfacet
  facet normal -1 0 0
    outer loop
      vertex 0 4.32 -3.7
      vertex 0 3.82 -3.7
      vertex 0 4.32 0
    endloop
  endfacet
  facet normal -1 0 0
    outer loop
      vertex 0 10.1 0
      vertex 0 4.9 1.8
      vertex 0 10.1 1.8
    endloop
  endfacet
  facet normal -1 0 0
    outer loop
      vertex 0 4.32 0
      vertex 0 4.9 1.8
      vertex 0 10.1 0
    endloop
  endfacet
  facet normal -1 0 0
    outer loop
      vertex 0 3.82 0
      vertex 0 4.9 1.8
      vertex 0 4.32 0
    endloop
  endfacet
  facet normal -1 0 0
    outer loop
      vertex 0 3.82 0
      vertex 0 4.32 0
      vertex 0 3.82 -3.7
    endloop
  endfacet
  facet normal -1 0 0
    outer loop
      vertex 0 1.78 0
      vertex 0 4.9 1.8
      vertex 0 3.82 0
    endloop
  endfacet
  facet normal -1 0 0
    outer loop
      vertex 0 1.28 0
      vertex 0 4.9 1.8
      vertex 0 1.78 0
    endloop
  endfacet
  facet normal -1 0 0
    outer loop
      vertex 0 1.28 0
      vertex 0 1.78 0
      vertex 0 1.28 -3.7
    endloop
  endfacet
  facet normal -1 -0 0
    outer loop
      vertex 0 4.9 1.8
      vertex 0 1.28 0
      vertex 0 4.9 10.8
    endloop
  endfacet
  facet normal -1 0 0
    outer loop
      vertex 0 -0.759999 0
      vertex 0 4.9 10.8
      vertex 0 1.28 0
    endloop
  endfacet
  facet normal -1 0 0
    outer loop
      vertex 0 -1.26 0
      vertex 0 -0.759999 0
      vertex 0 -1.26 -3.7
    endloop
  endfacet
  facet normal -1 0 0
    outer loop
      vertex 0 -4.9 1.8
      vertex 0 -0.759999 0
      vertex 0 -1.26 0
    endloop
  endfacet
  facet normal -1 0 0
    outer loop
      vertex 0 -4.9 1.8
      vertex 0 -1.26 0
      vertex 0 -3.3 0
    endloop
  endfacet
  facet normal -1 0 0
    outer loop
      vertex 0 -3.8 0
      vertex 0 -3.3 0
      vertex 0 -3.8 -3.7
    endloop
  endfacet
  facet normal -1 0 0
    outer loop
      vertex 0 -4.9 1.8
      vertex 0 -3.3 0
      vertex 0 -3.8 0
    endloop
  endfacet
  facet normal -1 0 0
    outer loop
      vertex 0 -0.759999 0
      vertex 0 -4.9 1.8
      vertex 0 -4.9 10.8
    endloop
  endfacet
  facet normal -1 0 0
    outer loop
      vertex 0 -0.759999 0
      vertex 0 -4.9 10.8
      vertex 0 4.9 10.8
    endloop
  endfacet
  facet normal -1 0 0
    outer loop
      vertex 0 -10.1 0
      vertex 0 -4.9 1.8
      vertex 0 -3.8 0
    endloop
  endfacet
  facet normal -1 -0 0
    outer loop
      vertex 0 -4.9 1.8
      vertex 0 -10.1 0
      vertex 0 -10.1 1.8
    endloop
  endfacet
  facet normal 0 0 1
    outer loop
      vertex 7 -4.9 1.8
      vertex 5.6 -7.5 1.8
      vertex 7 -10.1 1.8
    endloop
  endfacet
  facet normal 0 0 1
    outer loop
      vertex 7 -4.9 1.8
      vertex 5.47335 -7.01378 1.8
      vertex 5.6 -7.5 1.8
    endloop
  endfacet
  facet normal 0 0 1
    outer loop
      vertex 7 -4.9 1.8
      vertex 5.10869 -6.58621 1.8
      vertex 5.47335 -7.01378 1.8
    endloop
  endfacet
  facet normal 0 0 1
    outer loop
      vertex 7 -4.9 1.8
      vertex 4.55 -6.26886 1.8
      vertex 5.10869 -6.58621 1.8
    endloop
  endfacet
  facet normal 0 0 1
    outer loop
      vertex 7 -4.9 1.8
      vertex 3.86466 -6.1 1.8
      vertex 4.55 -6.26886 1.8
    endloop
  endfacet
  facet normal 0 0 1
    outer loop
      vertex 7 -4.9 1.8
      vertex 3.13534 -6.1 1.8
      vertex 3.86466 -6.1 1.8
    endloop
  endfacet
  facet normal -0 0 1
    outer loop
      vertex 0 -4.9 1.8
      vertex 3.13534 -6.1 1.8
      vertex 7 -4.9 1.8
    endloop
  endfacet
  facet normal 0 0 1
    outer loop
      vertex 1.52664 -7.01378 1.8
      vertex 0 -4.9 1.8
      vertex 1.4 -7.5 1.8
    endloop
  endfacet
  facet normal 0 0 1
    outer loop
      vertex 1.89131 -6.58621 1.8
      vertex 0 -4.9 1.8
      vertex 1.52664 -7.01378 1.8
    endloop
  endfacet
  facet normal 0 0 1
    outer loop
      vertex 2.45 -6.26886 1.8
      vertex 0 -4.9 1.8
      vertex 1.89131 -6.58621 1.8
    endloop
  endfacet
  facet normal 0 0 1
    outer loop
      vertex 3.13534 -6.1 1.8
      vertex 0 -4.9 1.8
      vertex 2.45 -6.26886 1.8
    endloop
  endfacet
  facet normal -0 0 1
    outer loop
      vertex 5.47335 -7.98621 1.8
      vertex 7 -10.1 1.8
      vertex 5.6 -7.5 1.8
    endloop
  endfacet
  facet normal -0 0 1
    outer loop
      vertex 5.10869 -8.41378 1.8
      vertex 7 -10.1 1.8
      vertex 5.47335 -7.98621 1.8
    endloop
  endfacet
  facet normal -0 0 1
    outer loop
      vertex 4.55 -8.73114 1.8
      vertex 7 -10.1 1.8
      vertex 5.10869 -8.41378 1.8
    endloop
  endfacet
  facet normal -0 0 1
    outer loop
      vertex 3.86466 -8.9 1.8
      vertex 7 -10.1 1.8
      vertex 4.55 -8.73114 1.8
    endloop
  endfacet
  facet normal -0 0 1
    outer loop
      vertex 3.13534 -8.9 1.8
      vertex 7 -10.1 1.8
      vertex 3.86466 -8.9 1.8
    endloop
  endfacet
  facet normal 0 0 1
    outer loop
      vertex 0 -10.1 1.8
      vertex 3.13534 -8.9 1.8
      vertex 2.45 -8.73114 1.8
    endloop
  endfacet
  facet normal 0 0 1
    outer loop
      vertex 0 -10.1 1.8
      vertex 1.4 -7.5 1.8
      vertex 0 -4.9 1.8
    endloop
  endfacet
  facet normal 0 0 1
    outer loop
      vertex 3.13534 -8.9 1.8
      vertex 0 -10.1 1.8
      vertex 7 -10.1 1.8
    endloop
  endfacet
  facet normal 0 0 1
    outer loop
      vertex 1.89131 -8.41378 1.8
      vertex 0 -10.1 1.8
      vertex 2.45 -8.73114 1.8
    endloop
  endfacet
  facet normal 0 0 1
    outer loop
      vertex 1.52664 -7.98621 1.8
      vertex 0 -10.1 1.8
      vertex 1.89131 -8.41378 1.8
    endloop
  endfacet
  facet normal 0 0 1
    outer loop
      vertex 1.4 -7.5 1.8
      vertex 0 -10.1 1.8
      vertex 1.52664 -7.98621 1.8
    endloop
  endfacet
  facet normal 0 0 1
    outer loop
      vertex 7 10.1 1.8
      vertex 5.6 7.5 1.8
      vertex 7 4.9 1.8
    endloop
  endfacet
  facet normal 0 0 1
    outer loop
      vertex 7 10.1 1.8
      vertex 5.47335 7.98621 1.8
      vertex 5.6 7.5 1.8
    endloop
  endfacet
  facet normal 0 0 1
    outer loop
      vertex 7 10.1 1.8
      vertex 5.10869 8.41378 1.8
      vertex 5.47335 7.98621 1.8
    endloop
  endfacet
  facet normal 0 0 1
    outer loop
      vertex 7 10.1 1.8
      vertex 4.55 8.73114 1.8
      vertex 5.10869 8.41378 1.8
    endloop
  endfacet
  facet normal 0 0 1
    outer loop
      vertex 7 10.1 1.8
      vertex 3.86466 8.9 1.8
      vertex 4.55 8.73114 1.8
    endloop
  endfacet
  facet normal 0 0 1
    outer loop
      vertex 7 10.1 1.8
      vertex 3.13534 8.9 1.8
      vertex 3.86466 8.9 1.8
    endloop
  endfacet
  facet normal -0 0 1
    outer loop
      vertex 0 10.1 1.8
      vertex 3.13534 8.9 1.8
      vertex 7 10.1 1.8
    endloop
  endfacet
  facet normal 0 0 1
    outer loop
      vertex 1.52664 7.98621 1.8
      vertex 0 10.1 1.8
      vertex 1.4 7.5 1.8
    endloop
  endfacet
  facet normal 0 0 1
    outer loop
      vertex 1.89131 8.41378 1.8
      vertex 0 10.1 1.8
      vertex 1.52664 7.98621 1.8
    endloop
  endfacet
  facet normal 0 0 1
    outer loop
      vertex 2.45 8.73114 1.8
      vertex 0 10.1 1.8
      vertex 1.89131 8.41378 1.8
    endloop
  endfacet
  facet normal 0 0 1
    outer loop
      vertex 3.13534 8.9 1.8
      vertex 0 10.1 1.8
      vertex 2.45 8.73114 1.8
    endloop
  endfacet
  facet normal -0 0 1
    outer loop
      vertex 5.47335 7.01378 1.8
      vertex 7 4.9 1.8
      vertex 5.6 7.5 1.8
    endloop
  endfacet
  facet normal -0 0 1
    outer loop
      vertex 5.10869 6.58621 1.8
      vertex 7 4.9 1.8
      vertex 5.47335 7.01378 1.8
    endloop
  endfacet
  facet normal -0 0 1
    outer loop
      vertex 4.55 6.26886 1.8
      vertex 7 4.9 1.8
      vertex 5.10869 6.58621 1.8
    endloop
  endfacet
  facet normal -0 0 1
    outer loop
      vertex 3.86466 6.1 1.8
      vertex 7 4.9 1.8
      vertex 4.55 6.26886 1.8
    endloop
  endfacet
  facet normal -0 0 1
    outer loop
      vertex 3.13534 6.1 1.8
      vertex 7 4.9 1.8
      vertex 3.86466 6.1 1.8
    endloop
  endfacet
  facet normal 0 0 1
    outer loop
      vertex 0 4.9 1.8
      vertex 3.13534 6.1 1.8
      vertex 2.45 6.26886 1.8
    endloop
  endfacet
  facet normal 0 0 1
    outer loop
      vertex 0 4.9 1.8
      vertex 1.4 7.5 1.8
      vertex 0 10.1 1.8
    endloop
  endfacet
  facet normal 0 0 1
    outer loop
      vertex 3.13534 6.1 1.8
      vertex 0 4.9 1.8
      vertex 7 4.9 1.8
    endloop
  endfacet
  facet normal 0 0 1
    outer loop
      vertex 1.89131 6.58621 1.8
      vertex 0 4.9 1.8
      vertex 2.45 6.26886 1.8
    endloop
  endfacet
  facet normal 0 0 1
    outer loop
      vertex 1.52664 7.01378 1.8
      vertex 0 4.9 1.8
      vertex 1.89131 6.58621 1.8
    endloop
  endfacet
  facet normal 0 0 1
    outer loop
      vertex 1.4 7.5 1.8
      vertex 0 4.9 1.8
      vertex 1.52664 7.01378 1.8
    endloop
  endfacet
  facet normal 1 -0 0
    outer loop
      vertex 7 -10.1 1.8
      vertex 7 -4.9 0
      vertex 7 -4.9 1.8
    endloop
  endfacet
  facet normal 1 0 0
    outer loop
      vertex 7 -4.9 0
      vertex 7 -10.1 1.8
      vertex 7 -10.1 0
    endloop
  endfacet
  facet normal 1 -0 0
    outer loop
      vertex 7 4.9 1.8
      vertex 7 10.1 0
      vertex 7 10.1 1.8
    endloop
  endfacet
  facet normal 1 0 0
    outer loop
      vertex 7 10.1 0
      vertex 7 4.9 1.8
      vertex 7 4.9 0
    endloop
  endfacet
  facet normal 0 1 -0
    outer loop
      vertex 7 10.1 0
      vertex 0 10.1 1.8
      vertex 7 10.1 1.8
    endloop
  endfacet
  facet normal 0 1 0
    outer loop
      vertex 0 10.1 1.8
      vertex 7 10.1 0
      vertex 0 10.1 0
    endloop
  endfacet
  facet normal 0 0 -1
    outer loop
      vertex 0 1.78 0
      vertex 0.5 3.82 0
      vertex 0.5 1.78 0
    endloop
  endfacet
  facet normal -0 0 -1
    outer loop
      vertex 0.5 3.82 0
      vertex 0 1.78 0
      vertex 0 3.82 0
    endloop
  endfacet
  facet normal 0 0 -1
    outer loop
      vertex 0 -0.759999 0
      vertex 0.5 1.28 0
      vertex 0.5 -0.759999 0
    endloop
  endfacet
  facet normal -0 0 -1
    outer loop
      vertex 0.5 1.28 0
      vertex 0 -0.759999 0
      vertex 0 1.28 0
    endloop
  endfacet
  facet normal 0 0 -1
    outer loop
      vertex 0 -3.3 0
      vertex 0.5 -1.26 0
      vertex 0.5 -3.3 0
    endloop
  endfacet
  facet normal -0 0 -1
    outer loop
      vertex 0.5 -1.26 0
      vertex 0 -3.3 0
      vertex 0 -1.26 0
    endloop
  endfacet
  facet normal 0 0 -1
    outer loop
      vertex 4.55 -6.26886 0
      vertex 7 -4.9 0
      vertex 5.10869 -6.58621 0
    endloop
  endfacet
  facet normal 0 0 -1
    outer loop
      vertex 7 4.9 0
      vertex 5.47335 7.01378 0
      vertex 5.6 7.5 0
    endloop
  endfacet
  facet normal 0 0 -1
    outer loop
      vertex 3.86466 -6.1 0
      vertex 7 -4.9 0
      vertex 4.55 -6.26886 0
    endloop
  endfacet
  facet normal 0 0 -1
    outer loop
      vertex 7 4.9 0
      vertex 5.10869 6.58621 0
      vertex 5.47335 7.01378 0
    endloop
  endfacet
  facet normal 0 0 -1
    outer loop
      vertex 7 -4.9 0
      vertex 0.5 -0.759999 0
      vertex 7 4.9 0
    endloop
  endfacet
  facet normal 0 0 -1
    outer loop
      vertex 7 4.9 0
      vertex 4.55 6.26886 0
      vertex 5.10869 6.58621 0
    endloop
  endfacet
  facet normal -0 0 -1
    outer loop
      vertex 7 -4.9 0
      vertex 3.86466 -6.1 0
      vertex 0.5 -1.26 0
    endloop
  endfacet
  facet normal 0 0 -1
    outer loop
      vertex 0.5 1.28 0
      vertex 7 4.9 0
      vertex 0.5 -0.759999 0
    endloop
  endfacet
  facet normal 0 0 -1
    outer loop
      vertex 0.5 -3.3 0
      vertex 3.86466 -6.1 0
      vertex 3.13534 -6.1 0
    endloop
  endfacet
  facet normal 0 0 -1
    outer loop
      vertex 0.5 1.78 0
      vertex 7 4.9 0
      vertex 0.5 1.28 0
    endloop
  endfacet
  facet normal 0 0 -1
    outer loop
      vertex 0.5 -3.8 0
      vertex 3.13534 -6.1 0
      vertex 2.45 -6.26886 0
    endloop
  endfacet
  facet normal 0 0 -1
    outer loop
      vertex 7 4.9 0
      vertex 3.86466 6.1 0
      vertex 4.55 6.26886 0
    endloop
  endfacet
  facet normal 0 0 -1
    outer loop
      vertex 0.5 -3.8 0
      vertex 2.45 -6.26886 0
      vertex 1.89131 -6.58621 0
    endloop
  endfacet
  facet normal -0 0 -1
    outer loop
      vertex 7 4.9 0
      vertex 0.5 1.78 0
      vertex 3.86466 6.1 0
    endloop
  endfacet
  facet normal 0 0 -1
    outer loop
      vertex 0.5 -3.8 0
      vertex 1.89131 -6.58621 0
      vertex 1.52664 -7.01378 0
    endloop
  endfacet
  facet normal 0 0 -1
    outer loop
      vertex 0.5 3.82 0
      vertex 3.86466 6.1 0
      vertex 0.5 1.78 0
    endloop
  endfacet
  facet normal 0 0 -1
    outer loop
      vertex 0 -3.8 0
      vertex 1.52664 -7.01378 0
      vertex 1.4 -7.5 0
    endloop
  endfacet
  facet normal -0 0 -1
    outer loop
      vertex 3.86466 6.1 0
      vertex 0.5 3.82 0
      vertex 3.13534 6.1 0
    endloop
  endfacet
  facet normal 0 0 -1
    outer loop
      vertex 5.6 -7.5 0
      vertex 7 -4.9 0
      vertex 7 -10.1 0
    endloop
  endfacet
  facet normal 0 0 -1
    outer loop
      vertex 5.47335 -7.01378 0
      vertex 7 -4.9 0
      vertex 5.6 -7.5 0
    endloop
  endfacet
  facet normal 0 0 -1
    outer loop
      vertex 5.10869 -6.58621 0
      vertex 7 -4.9 0
      vertex 5.47335 -7.01378 0
    endloop
  endfacet
  facet normal 0 0 -1
    outer loop
      vertex 7 -10.1 0
      vertex 5.47335 -7.98621 0
      vertex 5.6 -7.5 0
    endloop
  endfacet
  facet normal 0 0 -1
    outer loop
      vertex 7 -10.1 0
      vertex 5.10869 -8.41378 0
      vertex 5.47335 -7.98621 0
    endloop
  endfacet
  facet normal 0 0 -1
    outer loop
      vertex 7 -10.1 0
      vertex 4.55 -8.73114 0
      vertex 5.10869 -8.41378 0
    endloop
  endfacet
  facet normal 0 0 -1
    outer loop
      vertex 7 -10.1 0
      vertex 3.86466 -8.9 0
      vertex 4.55 -8.73114 0
    endloop
  endfacet
  facet normal 0 0 -1
    outer loop
      vertex 7 -10.1 0
      vertex 3.13534 -8.9 0
      vertex 3.86466 -8.9 0
    endloop
  endfacet
  facet normal 0 0 -1
    outer loop
      vertex 0 -10.1 0
      vertex 3.13534 -8.9 0
      vertex 7 -10.1 0
    endloop
  endfacet
  facet normal 0 0 -1
    outer loop
      vertex 3.13534 -6.1 0
      vertex 0.5 -3.8 0
      vertex 0.5 -3.3 0
    endloop
  endfacet
  facet normal -0 0 -1
    outer loop
      vertex 3.13534 -8.9 0
      vertex 0 -10.1 0
      vertex 2.45 -8.73114 0
    endloop
  endfacet
  facet normal 0 0 -1
    outer loop
      vertex 0 -10.1 0
      vertex 1.89131 -8.41378 0
      vertex 2.45 -8.73114 0
    endloop
  endfacet
  facet normal 0 0 -1
    outer loop
      vertex 0 -10.1 0
      vertex 1.52664 -7.98621 0
      vertex 1.89131 -8.41378 0
    endloop
  endfacet
  facet normal 0 0 -1
    outer loop
      vertex 0 -10.1 0
      vertex 1.4 -7.5 0
      vertex 1.52664 -7.98621 0
    endloop
  endfacet
  facet normal 0 0 -1
    outer loop
      vertex 0 -3.8 0
      vertex 1.4 -7.5 0
      vertex 0 -10.1 0
    endloop
  endfacet
  facet normal 0 0 -1
    outer loop
      vertex 1.52664 -7.01378 0
      vertex 0 -3.8 0
      vertex 0.5 -3.8 0
    endloop
  endfacet
  facet normal 0 0 -1
    outer loop
      vertex 7 -4.9 0
      vertex 12.6 4.9 0
      vertex 12.6 -4.9 0
    endloop
  endfacet
  facet normal -0 0 -1
    outer loop
      vertex 12.6 4.9 0
      vertex 7 -4.9 0
      vertex 7 4.9 0
    endloop
  endfacet
  facet normal 0 0 -1
    outer loop
      vertex 7 4.9 0
      vertex 5.6 7.5 0
      vertex 7 10.1 0
    endloop
  endfacet
  facet normal 0 0 -1
    outer loop
      vertex 5.47335 7.98621 0
      vertex 7 10.1 0
      vertex 5.6 7.5 0
    endloop
  endfacet
  facet normal 0 0 -1
    outer loop
      vertex 5.10869 8.41378 0
      vertex 7 10.1 0
      vertex 5.47335 7.98621 0
    endloop
  endfacet
  facet normal 0 0 -1
    outer loop
      vertex 4.55 8.73114 0
      vertex 7 10.1 0
      vertex 5.10869 8.41378 0
    endloop
  endfacet
  facet normal 0 0 -1
    outer loop
      vertex 3.86466 8.9 0
      vertex 7 10.1 0
      vertex 4.55 8.73114 0
    endloop
  endfacet
  facet normal 0 0 -1
    outer loop
      vertex 3.13534 8.9 0
      vertex 7 10.1 0
      vertex 3.86466 8.9 0
    endloop
  endfacet
  facet normal 0 0 -1
    outer loop
      vertex 0 10.1 0
      vertex 3.13534 8.9 0
      vertex 2.45 8.73114 0
    endloop
  endfacet
  facet normal 0 0 -1
    outer loop
      vertex 3.86466 -6.1 0
      vertex 0.5 -3.3 0
      vertex 0.5 -1.26 0
    endloop
  endfacet
  facet normal 0 0 -1
    outer loop
      vertex 7 -4.9 0
      vertex 0.5 -1.26 0
      vertex 0.5 -0.759999 0
    endloop
  endfacet
  facet normal 0 0 -1
    outer loop
      vertex 0.5 4.32 0
      vertex 3.13534 6.1 0
      vertex 0.5 3.82 0
    endloop
  endfacet
  facet normal -0 0 -1
    outer loop
      vertex 3.13534 6.1 0
      vertex 0.5 4.32 0
      vertex 2.45 6.26886 0
    endloop
  endfacet
  facet normal -0 0 -1
    outer loop
      vertex 2.45 6.26886 0
      vertex 0.5 4.32 0
      vertex 1.89131 6.58621 0
    endloop
  endfacet
  facet normal -0 0 -1
    outer loop
      vertex 1.89131 6.58621 0
      vertex 0.5 4.32 0
      vertex 1.52664 7.01378 0
    endloop
  endfacet
  facet normal 0 0 -1
    outer loop
      vertex 0 4.32 0
      vertex 1.52664 7.01378 0
      vertex 0.5 4.32 0
    endloop
  endfacet
  facet normal -0 0 -1
    outer loop
      vertex 1.52664 7.01378 0
      vertex 0 4.32 0
      vertex 1.4 7.5 0
    endloop
  endfacet
  facet normal 0 0 -1
    outer loop
      vertex 0 10.1 0
      vertex 1.4 7.5 0
      vertex 0 4.32 0
    endloop
  endfacet
  facet normal 0 0 -1
    outer loop
      vertex 3.13534 8.9 0
      vertex 0 10.1 0
      vertex 7 10.1 0
    endloop
  endfacet
  facet normal 0 0 -1
    outer loop
      vertex 1.89131 8.41378 0
      vertex 0 10.1 0
      vertex 2.45 8.73114 0
    endloop
  endfacet
  facet normal 0 0 -1
    outer loop
      vertex 1.52664 7.98621 0
      vertex 0 10.1 0
      vertex 1.89131 8.41378 0
    endloop
  endfacet
  facet normal 0 0 -1
    outer loop
      vertex 1.4 7.5 0
      vertex 0 10.1 0
      vertex 1.52664 7.98621 0
    endloop
  endfacet
  facet normal 0 -1 0
    outer loop
      vertex 0 -10.1 0
      vertex 7 -10.1 1.8
      vertex 0 -10.1 1.8
    endloop
  endfacet
  facet normal 0 -1 -0
    outer loop
      vertex 7 -10.1 1.8
      vertex 0 -10.1 0
      vertex 7 -10.1 0
    endloop
  endfacet
  facet normal -0.967711 -0.252061 0
    outer loop
      vertex 5.6 7.5 0
      vertex 5.47335 7.98621 1.8
      vertex 5.47335 7.98621 0
    endloop
  endfacet
  facet normal -0.967711 -0.252061 0
    outer loop
      vertex 5.47335 7.98621 1.8
      vertex 5.6 7.5 0
      vertex 5.6 7.5 1.8
    endloop
  endfacet
  facet normal 0.760861 0.648915 0
    outer loop
      vertex 1.89131 6.58621 1.8
      vertex 1.52664 7.01378 0
      vertex 1.52664 7.01378 1.8
    endloop
  endfacet
  facet normal 0.760861 0.648915 0
    outer loop
      vertex 1.52664 7.01378 0
      vertex 1.89131 6.58621 1.8
      vertex 1.89131 6.58621 0
    endloop
  endfacet
  facet normal 0.967711 0.252061 0
    outer loop
      vertex 1.52664 7.01378 1.8
      vertex 1.4 7.5 0
      vertex 1.4 7.5 1.8
    endloop
  endfacet
  facet normal 0.967711 0.252061 0
    outer loop
      vertex 1.4 7.5 0
      vertex 1.52664 7.01378 1.8
      vertex 1.52664 7.01378 0
    endloop
  endfacet
  facet normal -0.493909 -0.869514 0
    outer loop
      vertex 4.55 8.73114 0
      vertex 5.10869 8.41378 1.8
      vertex 4.55 8.73114 1.8
    endloop
  endfacet
  facet normal -0.493909 -0.869514 -0
    outer loop
      vertex 5.10869 8.41378 1.8
      vertex 4.55 8.73114 0
      vertex 5.10869 8.41378 0
    endloop
  endfacet
  facet normal -0.760861 -0.648915 0
    outer loop
      vertex 5.47335 7.98621 0
      vertex 5.10869 8.41378 1.8
      vertex 5.10869 8.41378 0
    endloop
  endfacet
  facet normal -0.760861 -0.648915 0
    outer loop
      vertex 5.10869 8.41378 1.8
      vertex 5.47335 7.98621 0
      vertex 5.47335 7.98621 1.8
    endloop
  endfacet
  facet normal -0.239235 -0.970962 0
    outer loop
      vertex 3.86466 8.9 0
      vertex 4.55 8.73114 1.8
      vertex 3.86466 8.9 1.8
    endloop
  endfacet
  facet normal -0.239235 -0.970962 -0
    outer loop
      vertex 4.55 8.73114 1.8
      vertex 3.86466 8.9 0
      vertex 4.55 8.73114 0
    endloop
  endfacet
  facet normal 0.493909 -0.869514 0
    outer loop
      vertex 1.89131 8.41378 0
      vertex 2.45 8.73114 1.8
      vertex 1.89131 8.41378 1.8
    endloop
  endfacet
  facet normal 0.493909 -0.869514 0
    outer loop
      vertex 2.45 8.73114 1.8
      vertex 1.89131 8.41378 0
      vertex 2.45 8.73114 0
    endloop
  endfacet
  facet normal 0.967711 -0.252061 0
    outer loop
      vertex 1.4 7.5 1.8
      vertex 1.52664 7.98621 0
      vertex 1.52664 7.98621 1.8
    endloop
  endfacet
  facet normal 0.967711 -0.252061 0
    outer loop
      vertex 1.52664 7.98621 0
      vertex 1.4 7.5 1.8
      vertex 1.4 7.5 0
    endloop
  endfacet
  facet normal 0.760861 -0.648915 0
    outer loop
      vertex 1.52664 7.98621 1.8
      vertex 1.89131 8.41378 0
      vertex 1.89131 8.41378 1.8
    endloop
  endfacet
  facet normal 0.760861 -0.648915 0
    outer loop
      vertex 1.89131 8.41378 0
      vertex 1.52664 7.98621 1.8
      vertex 1.52664 7.98621 0
    endloop
  endfacet
  facet normal 0.239235 -0.970962 0
    outer loop
      vertex 2.45 8.73114 0
      vertex 3.13534 8.9 1.8
      vertex 2.45 8.73114 1.8
    endloop
  endfacet
  facet normal 0.239235 -0.970962 0
    outer loop
      vertex 3.13534 8.9 1.8
      vertex 2.45 8.73114 0
      vertex 3.13534 8.9 0
    endloop
  endfacet
  facet normal 0.239235 0.970962 -0
    outer loop
      vertex 3.13534 6.1 0
      vertex 2.45 6.26886 1.8
      vertex 3.13534 6.1 1.8
    endloop
  endfacet
  facet normal 0.239235 0.970962 0
    outer loop
      vertex 2.45 6.26886 1.8
      vertex 3.13534 6.1 0
      vertex 2.45 6.26886 0
    endloop
  endfacet
  facet normal 0.493909 0.869514 -0
    outer loop
      vertex 2.45 6.26886 0
      vertex 1.89131 6.58621 1.8
      vertex 2.45 6.26886 1.8
    endloop
  endfacet
  facet normal 0.493909 0.869514 0
    outer loop
      vertex 1.89131 6.58621 1.8
      vertex 2.45 6.26886 0
      vertex 1.89131 6.58621 0
    endloop
  endfacet
  facet normal -0.493909 0.869514 0
    outer loop
      vertex 5.10869 6.58621 0
      vertex 4.55 6.26886 1.8
      vertex 5.10869 6.58621 1.8
    endloop
  endfacet
  facet normal -0.493909 0.869514 0
    outer loop
      vertex 4.55 6.26886 1.8
      vertex 5.10869 6.58621 0
      vertex 4.55 6.26886 0
    endloop
  endfacet
  facet normal -0.760861 0.648915 0
    outer loop
      vertex 5.10869 6.58621 0
      vertex 5.47335 7.01378 1.8
      vertex 5.47335 7.01378 0
    endloop
  endfacet
  facet normal -0.760861 0.648915 0
    outer loop
      vertex 5.47335 7.01378 1.8
      vertex 5.10869 6.58621 0
      vertex 5.10869 6.58621 1.8
    endloop
  endfacet
  facet normal -0.967711 0.252061 0
    outer loop
      vertex 5.47335 7.01378 0
      vertex 5.6 7.5 1.8
      vertex 5.6 7.5 0
    endloop
  endfacet
  facet normal -0.967711 0.252061 0
    outer loop
      vertex 5.6 7.5 1.8
      vertex 5.47335 7.01378 0
      vertex 5.47335 7.01378 1.8
    endloop
  endfacet
  facet normal 0 -1 0
    outer loop
      vertex 3.13534 8.9 0
      vertex 3.86466 8.9 1.8
      vertex 3.13534 8.9 1.8
    endloop
  endfacet
  facet normal 0 -1 -0
    outer loop
      vertex 3.86466 8.9 1.8
      vertex 3.13534 8.9 0
      vertex 3.86466 8.9 0
    endloop
  endfacet
  facet normal -0.239235 0.970962 0
    outer loop
      vertex 4.55 6.26886 0
      vertex 3.86466 6.1 1.8
      vertex 4.55 6.26886 1.8
    endloop
  endfacet
  facet normal -0.239235 0.970962 0
    outer loop
      vertex 3.86466 6.1 1.8
      vertex 4.55 6.26886 0
      vertex 3.86466 6.1 0
    endloop
  endfacet
  facet normal 0 1 -0
    outer loop
      vertex 3.86466 6.1 0
      vertex 3.13534 6.1 1.8
      vertex 3.86466 6.1 1.8
    endloop
  endfacet
  facet normal 0 1 0
    outer loop
      vertex 3.13534 6.1 1.8
      vertex 3.86466 6.1 0
      vertex 3.13534 6.1 0
    endloop
  endfacet
  facet normal -0.967711 -0.252061 0
    outer loop
      vertex 5.6 -7.5 0
      vertex 5.47335 -7.01378 1.8
      vertex 5.47335 -7.01378 0
    endloop
  endfacet
  facet normal -0.967711 -0.252061 0
    outer loop
      vertex 5.47335 -7.01378 1.8
      vertex 5.6 -7.5 0
      vertex 5.6 -7.5 1.8
    endloop
  endfacet
  facet normal 0.967711 -0.252061 0
    outer loop
      vertex 1.4 -7.5 1.8
      vertex 1.52664 -7.01378 0
      vertex 1.52664 -7.01378 1.8
    endloop
  endfacet
  facet normal 0.967711 -0.252061 0
    outer loop
      vertex 1.52664 -7.01378 0
      vertex 1.4 -7.5 1.8
      vertex 1.4 -7.5 0
    endloop
  endfacet
  facet normal 0 -1 0
    outer loop
      vertex 3.13534 -6.1 0
      vertex 3.86466 -6.1 1.8
      vertex 3.13534 -6.1 1.8
    endloop
  endfacet
  facet normal 0 -1 -0
    outer loop
      vertex 3.86466 -6.1 1.8
      vertex 3.13534 -6.1 0
      vertex 3.86466 -6.1 0
    endloop
  endfacet
  facet normal 0 1 -0
    outer loop
      vertex 3.86466 -8.9 0
      vertex 3.13534 -8.9 1.8
      vertex 3.86466 -8.9 1.8
    endloop
  endfacet
  facet normal 0 1 0
    outer loop
      vertex 3.13534 -8.9 1.8
      vertex 3.86466 -8.9 0
      vertex 3.13534 -8.9 0
    endloop
  endfacet
  facet normal -0.239235 0.970962 0
    outer loop
      vertex 4.55 -8.73114 0
      vertex 3.86466 -8.9 1.8
      vertex 4.55 -8.73114 1.8
    endloop
  endfacet
  facet normal -0.239235 0.970962 0
    outer loop
      vertex 3.86466 -8.9 1.8
      vertex 4.55 -8.73114 0
      vertex 3.86466 -8.9 0
    endloop
  endfacet
  facet normal -0.493909 -0.869514 0
    outer loop
      vertex 4.55 -6.26886 0
      vertex 5.10869 -6.58621 1.8
      vertex 4.55 -6.26886 1.8
    endloop
  endfacet
  facet normal -0.493909 -0.869514 -0
    outer loop
      vertex 5.10869 -6.58621 1.8
      vertex 4.55 -6.26886 0
      vertex 5.10869 -6.58621 0
    endloop
  endfacet
  facet normal -0.760861 -0.648915 0
    outer loop
      vertex 5.47335 -7.01378 0
      vertex 5.10869 -6.58621 1.8
      vertex 5.10869 -6.58621 0
    endloop
  endfacet
  facet normal -0.760861 -0.648915 0
    outer loop
      vertex 5.10869 -6.58621 1.8
      vertex 5.47335 -7.01378 0
      vertex 5.47335 -7.01378 1.8
    endloop
  endfacet
  facet normal -0.239235 -0.970962 0
    outer loop
      vertex 3.86466 -6.1 0
      vertex 4.55 -6.26886 1.8
      vertex 3.86466 -6.1 1.8
    endloop
  endfacet
  facet normal -0.239235 -0.970962 -0
    outer loop
      vertex 4.55 -6.26886 1.8
      vertex 3.86466 -6.1 0
      vertex 4.55 -6.26886 0
    endloop
  endfacet
  facet normal 0.493909 -0.869514 0
    outer loop
      vertex 1.89131 -6.58621 0
      vertex 2.45 -6.26886 1.8
      vertex 1.89131 -6.58621 1.8
    endloop
  endfacet
  facet normal 0.493909 -0.869514 0
    outer loop
      vertex 2.45 -6.26886 1.8
      vertex 1.89131 -6.58621 0
      vertex 2.45 -6.26886 0
    endloop
  endfacet
  facet normal 0.760861 -0.648915 0
    outer loop
      vertex 1.52664 -7.01378 1.8
      vertex 1.89131 -6.58621 0
      vertex 1.89131 -6.58621 1.8
    endloop
  endfacet
  facet normal 0.760861 -0.648915 0
    outer loop
      vertex 1.89131 -6.58621 0
      vertex 1.52664 -7.01378 1.8
      vertex 1.52664 -7.01378 0
    endloop
  endfacet
  facet normal 0.239235 -0.970962 0
    outer loop
      vertex 2.45 -6.26886 0
      vertex 3.13534 -6.1 1.8
      vertex 2.45 -6.26886 1.8
    endloop
  endfacet
  facet normal 0.239235 -0.970962 0
    outer loop
      vertex 3.13534 -6.1 1.8
      vertex 2.45 -6.26886 0
      vertex 3.13534 -6.1 0
    endloop
  endfacet
  facet normal -0.760861 0.648915 0
    outer loop
      vertex 5.10869 -8.41378 0
      vertex 5.47335 -7.98621 1.8
      vertex 5.47335 -7.98621 0
    endloop
  endfacet
  facet normal -0.760861 0.648915 0
    outer loop
      vertex 5.47335 -7.98621 1.8
      vertex 5.10869 -8.41378 0
      vertex 5.10869 -8.41378 1.8
    endloop
  endfacet
  facet normal -0.967711 0.252061 0
    outer loop
      vertex 5.47335 -7.98621 0
      vertex 5.6 -7.5 1.8
      vertex 5.6 -7.5 0
    endloop
  endfacet
  facet normal -0.967711 0.252061 0
    outer loop
      vertex 5.6 -7.5 1.8
      vertex 5.47335 -7.98621 0
      vertex 5.47335 -7.98621 1.8
    endloop
  endfacet
  facet normal 0.967711 0.252061 0
    outer loop
      vertex 1.52664 -7.98621 1.8
      vertex 1.4 -7.5 0
      vertex 1.4 -7.5 1.8
    endloop
  endfacet
  facet normal 0.967711 0.252061 0
    outer loop
      vertex 1.4 -7.5 0
      vertex 1.52664 -7.98621 1.8
      vertex 1.52664 -7.98621 0
    endloop
  endfacet
  facet normal -0.493909 0.869514 0
    outer loop
      vertex 5.10869 -8.41378 0
      vertex 4.55 -8.73114 1.8
      vertex 5.10869 -8.41378 1.8
    endloop
  endfacet
  facet normal -0.493909 0.869514 0
    outer loop
      vertex 4.55 -8.73114 1.8
      vertex 5.10869 -8.41378 0
      vertex 4.55 -8.73114 0
    endloop
  endfacet
  facet normal 0.493909 0.869514 -0
    outer loop
      vertex 2.45 -8.73114 0
      vertex 1.89131 -8.41378 1.8
      vertex 2.45 -8.73114 1.8
    endloop
  endfacet
  facet normal 0.493909 0.869514 0
    outer loop
      vertex 1.89131 -8.41378 1.8
      vertex 2.45 -8.73114 0
      vertex 1.89131 -8.41378 0
    endloop
  endfacet
  facet normal 0.760861 0.648915 0
    outer loop
      vertex 1.89131 -8.41378 1.8
      vertex 1.52664 -7.98621 0
      vertex 1.52664 -7.98621 1.8
    endloop
  endfacet
  facet normal 0.760861 0.648915 0
    outer loop
      vertex 1.52664 -7.98621 0
      vertex 1.89131 -8.41378 1.8
      vertex 1.89131 -8.41378 0
    endloop
  endfacet
  facet normal 0.239235 0.970962 -0
    outer loop
      vertex 3.13534 -8.9 0
      vertex 2.45 -8.73114 1.8
      vertex 3.13534 -8.9 1.8
    endloop
  endfacet
  facet normal 0.239235 0.970962 0
    outer loop
      vertex 2.45 -8.73114 1.8
      vertex 3.13534 -8.9 0
      vertex 2.45 -8.73114 0
    endloop
  endfacet
  facet normal 1 -0 0
    outer loop
      vertex 0.5 -3.8 0
      vertex 0.5 -3.3 -3.7
      vertex 0.5 -3.3 0
    endloop
  endfacet
  facet normal 1 0 0
    outer loop
      vertex 0.5 -3.3 -3.7
      vertex 0.5 -3.8 0
      vertex 0.5 -3.8 -3.7
    endloop
  endfacet
  facet normal 0 1 -0
    outer loop
      vertex 0.5 -3.3 -3.7
      vertex 0 -3.3 0
      vertex 0.5 -3.3 0
    endloop
  endfacet
  facet normal 0 1 0
    outer loop
      vertex 0 -3.3 0
      vertex 0.5 -3.3 -3.7
      vertex 0 -3.3 -3.7
    endloop
  endfacet
  facet normal 0 0 -1
    outer loop
      vertex 0 -3.8 -3.7
      vertex 0.5 -3.3 -3.7
      vertex 0.5 -3.8 -3.7
    endloop
  endfacet
  facet normal -0 0 -1
    outer loop
      vertex 0.5 -3.3 -3.7
      vertex 0 -3.8 -3.7
      vertex 0 -3.3 -3.7
    endloop
  endfacet
  facet normal 0 -1 0
    outer loop
      vertex 0 -3.8 -3.7
      vertex 0.5 -3.8 0
      vertex 0 -3.8 0
    endloop
  endfacet
  facet normal 0 -1 -0
    outer loop
      vertex 0.5 -3.8 0
      vertex 0 -3.8 -3.7
      vertex 0.5 -3.8 -3.7
    endloop
  endfacet
  facet normal 1 -0 0
    outer loop
      vertex 0.5 -1.26 0
      vertex 0.5 -0.759999 -3.7
      vertex 0.5 -0.759999 0
    endloop
  endfacet
  facet normal 1 0 0
    outer loop
      vertex 0.5 -0.759999 -3.7
      vertex 0.5 -1.26 0
      vertex 0.5 -1.26 -3.7
    endloop
  endfacet
  facet normal 0 0 -1
    outer loop
      vertex 0 -1.26 -3.7
      vertex 0.5 -0.759999 -3.7
      vertex 0.5 -1.26 -3.7
    endloop
  endfacet
  facet normal -0 0 -1
    outer loop
      vertex 0.5 -0.759999 -3.7
      vertex 0 -1.26 -3.7
      vertex 0 -0.759999 -3.7
    endloop
  endfacet
  facet normal 0 -1 0
    outer loop
      vertex 0 -1.26 -3.7
      vertex 0.5 -1.26 0
      vertex 0 -1.26 0
    endloop
  endfacet
  facet normal 0 -1 -0
    outer loop
      vertex 0.5 -1.26 0
      vertex 0 -1.26 -3.7
      vertex 0.5 -1.26 -3.7
    endloop
  endfacet
  facet normal 0 1 -0
    outer loop
      vertex 0.5 -0.759999 -3.7
      vertex 0 -0.759999 0
      vertex 0.5 -0.759999 0
    endloop
  endfacet
  facet normal 0 1 0
    outer loop
      vertex 0 -0.759999 0
      vertex 0.5 -0.759999 -3.7
      vertex 0 -0.759999 -3.7
    endloop
  endfacet
  facet normal 1 -0 0
    outer loop
      vertex 0.5 1.28 0
      vertex 0.5 1.78 -3.7
      vertex 0.5 1.78 0
    endloop
  endfacet
  facet normal 1 0 0
    outer loop
      vertex 0.5 1.78 -3.7
      vertex 0.5 1.28 0
      vertex 0.5 1.28 -3.7
    endloop
  endfacet
  facet normal 0 0 -1
    outer loop
      vertex 0 1.28 -3.7
      vertex 0.5 1.78 -3.7
      vertex 0.5 1.28 -3.7
    endloop
  endfacet
  facet normal -0 0 -1
    outer loop
      vertex 0.5 1.78 -3.7
      vertex 0 1.28 -3.7
      vertex 0 1.78 -3.7
    endloop
  endfacet
  facet normal 0 -1 0
    outer loop
      vertex 0 1.28 -3.7
      vertex 0.5 1.28 0
      vertex 0 1.28 0
    endloop
  endfacet
  facet normal 0 -1 -0
    outer loop
      vertex 0.5 1.28 0
      vertex 0 1.28 -3.7
      vertex 0.5 1.28 -3.7
    endloop
  endfacet
  facet normal 0 1 -0
    outer loop
      vertex 0.5 1.78 -3.7
      vertex 0 1.78 0
      vertex 0.5 1.78 0
    endloop
  endfacet
  facet normal 0 1 0
    outer loop
      vertex 0 1.78 0
      vertex 0.5 1.78 -3.7
      vertex 0 1.78 -3.7
    endloop
  endfacet
  facet normal 1 -0 0
    outer loop
      vertex 0.5 3.82 0
      vertex 0.5 4.32 -3.7
      vertex 0.5 4.32 0
    endloop
  endfacet
  facet normal 1 0 0
    outer loop
      vertex 0.5 4.32 -3.7
      vertex 0.5 3.82 0
      vertex 0.5 3.82 -3.7
    endloop
  endfacet
  facet normal 0 1 -0
    outer loop
      vertex 0.5 4.32 -3.7
      vertex 0 4.32 0
      vertex 0.5 4.32 0
    endloop
  endfacet
  facet normal 0 1 0
    outer loop
      vertex 0 4.32 0
      vertex 0.5 4.32 -3.7
      vertex 0 4.32 -3.7
    endloop
  endfacet
  facet normal 0 0 -1
    outer loop
      vertex 0 3.82 -3.7
      vertex 0.5 4.32 -3.7
      vertex 0.5 3.82 -3.7
    endloop
  endfacet
  facet normal -0 0 -1
    outer loop
      vertex 0.5 4.32 -3.7
      vertex 0 3.82 -3.7
      vertex 0 4.32 -3.7
    endloop
  endfacet
  facet normal 0 -1 0
    outer loop
      vertex 0 3.82 -3.7
      vertex 0.5 3.82 0
      vertex 0 3.82 0
    endloop
  endfacet
  facet normal 0 -1 -0
    outer loop
      vertex 0.5 3.82 0
      vertex 0 3.82 -3.7
      vertex 0.5 3.82 -3.7
    endloop
  endfacet
  facet normal -0 0 1
    outer loop
      vertex 0 4.9 10.8
      vertex 12.6 -4.9 10.8
      vertex 12.6 4.9 10.8
    endloop
  endfacet
  facet normal 0 0 1
    outer loop
      vertex 12.6 -4.9 10.8
      vertex 0 4.9 10.8
      vertex 0 -4.9 10.8
    endloop
  endfacet
  facet normal 1 -0 0
    outer loop
      vertex 12.6 -4.9 10.8
      vertex 12.6 4.9 5.6
      vertex 12.6 4.9 10.8
    endloop
  endfacet
  facet normal 1 0 0
    outer loop
      vertex 12.6 4.9 5.6
      vertex 12.6 -4.9 10.8
      vertex 12.6 -4.9 5.6
    endloop
  endfacet
  facet normal 1 -0 0
    outer loop
      vertex 12.6 -4.9 3.9
      vertex 12.6 4.9 0
      vertex 12.6 4.9 3.9
    endloop
  endfacet
  facet normal 1 0 0
    outer loop
      vertex 12.6 4.9 0
      vertex 12.6 -4.9 3.9
      vertex 12.6 -4.9 0
    endloop
  endfacet
  facet normal 0 1 0
    outer loop
      vertex 12.6 4.9 3.9
      vertex 7 4.9 1.8
      vertex 5 4.9 3.9
    endloop
  endfacet
  facet normal 0 1 -0
    outer loop
      vertex 12.6 4.9 0
      vertex 7 4.9 1.8
      vertex 12.6 4.9 3.9
    endloop
  endfacet
  facet normal 0 1 0
    outer loop
      vertex 7 4.9 1.8
      vertex 12.6 4.9 0
      vertex 7 4.9 0
    endloop
  endfacet
  facet normal 0 1 0
    outer loop
      vertex 5 4.9 5.6
      vertex 12.6 4.9 10.8
      vertex 12.6 4.9 5.6
    endloop
  endfacet
  facet normal 0 1 0
    outer loop
      vertex 12.6 4.9 10.8
      vertex 5 4.9 5.6
      vertex 0 4.9 10.8
    endloop
  endfacet
  facet normal 0 1 0
    outer loop
      vertex 0 4.9 1.8
      vertex 5 4.9 5.6
      vertex 5 4.9 3.9
    endloop
  endfacet
  facet normal 0 1 0
    outer loop
      vertex 5 4.9 5.6
      vertex 0 4.9 1.8
      vertex 0 4.9 10.8
    endloop
  endfacet
  facet normal 0 1 0
    outer loop
      vertex 0 4.9 1.8
      vertex 5 4.9 3.9
      vertex 7 4.9 1.8
    endloop
  endfacet
  facet normal 0 -1 0
    outer loop
      vertex 0 -4.9 10.8
      vertex 5 -4.9 5.6
      vertex 12.6 -4.9 10.8
    endloop
  endfacet
  facet normal 0 -1 0
    outer loop
      vertex 0 -4.9 1.8
      vertex 5 -4.9 5.6
      vertex 0 -4.9 10.8
    endloop
  endfacet
  facet normal 0 -1 -0
    outer loop
      vertex 5 -4.9 5.6
      vertex 0 -4.9 1.8
      vertex 5 -4.9 3.9
    endloop
  endfacet
  facet normal 0 -1 0
    outer loop
      vertex 7 -4.9 1.8
      vertex 5 -4.9 3.9
      vertex 0 -4.9 1.8
    endloop
  endfacet
  facet normal 0 -1 0
    outer loop
      vertex 5 -4.9 3.9
      vertex 7 -4.9 1.8
      vertex 12.6 -4.9 3.9
    endloop
  endfacet
  facet normal 0 -1 0
    outer loop
      vertex 12.6 -4.9 0
      vertex 7 -4.9 1.8
      vertex 7 -4.9 0
    endloop
  endfacet
  facet normal 0 -1 0
    outer loop
      vertex 7 -4.9 1.8
      vertex 12.6 -4.9 0
      vertex 12.6 -4.9 3.9
    endloop
  endfacet
  facet normal 0 -1 -0
    outer loop
      vertex 12.6 -4.9 10.8
      vertex 5 -4.9 5.6
      vertex 12.6 -4.9 5.6
    endloop
  endfacet
  facet normal 1 -0 0
    outer loop
      vertex 5 -4.9 5.6
      vertex 5 4.9 3.9
      vertex 5 4.9 5.6
    endloop
  endfacet
  facet normal 1 0 0
    outer loop
      vertex 5 4.9 3.9
      vertex 5 -4.9 5.6
      vertex 5 -4.9 3.9
    endloop
  endfacet
  facet normal 0 0 -1
    outer loop
      vertex 5 -4.9 5.6
      vertex 12.6 4.9 5.6
      vertex 12.6 -4.9 5.6
    endloop
  endfacet
  facet normal -0 0 -1
    outer loop
      vertex 12.6 4.9 5.6
      vertex 5 -4.9 5.6
      vertex 5 4.9 5.6
    endloop
  endfacet
  facet normal -0 0 1
    outer loop
      vertex 5 4.9 3.9
      vertex 12.6 -4.9 3.9
      vertex 12.6 4.9 3.9
    endloop
  endfacet
  facet normal 0 0 1
    outer loop
      vertex 12.6 -4.9 3.9
      vertex 5 4.9 3.9
      vertex 5 -4.9 3.9
    endloop
  endfacet
endsolid OpenSCAD_Model
