<?xml version="1.0" standalone="no"?>
 <!DOCTYPE svg PUBLIC "-//W3C//DTD SVG 1.1//EN" 
 "http://www.w3.org/Graphics/SVG/1.1/DTD/svg11.dtd"> 
<svg xmlns="http://www.w3.org/2000/svg" version="1.1" 
    width="29.7002cm" height="21.0007cm" viewBox="0 0 116930 82680 ">
<title>SVG Picture created as powerboard_regulator_28V-to-5V-Powerboard Regulator 28V to 5V.svg date 2017/01/26 22:23:46 </title>
  <desc>Picture generated by Eeschema-SVG </desc>
<g style="fill:#000000; fill-opacity:1;stroke:#000000; stroke-opacity:1;
stroke-linecap:round; stroke-linejoin:round; "
 transform="translate(0 0) scale(1 1)">
</g>
<g style="fill:#000000; fill-opacity:0.0; 
stroke:#000000; stroke-width:-10; stroke-opacity:1; 
stroke-linecap:round; stroke-linejoin:round;">
</g>
<g style="fill:#840000; fill-opacity:0.0; 
stroke:#840000; stroke-width:-10; stroke-opacity:1; 
stroke-linecap:round; stroke-linejoin:round;">
</g>
<g style="fill:#840000; fill-opacity:0.0; 
stroke:#840000; stroke-width:100; stroke-opacity:1; 
stroke-linecap:round; stroke-linejoin:round;">
</g>
<g style="fill:#840000; fill-opacity:0.0; 
stroke:#840000; stroke-width:60; stroke-opacity:1; 
stroke-linecap:round; stroke-linejoin:round;">
<rect x="69690" y="65360" width="42520" height="12600" rx="0" />
</g>
<g style="fill:#840000; fill-opacity:0.0; 
stroke:#840000; stroke-width:100; stroke-opacity:1; 
stroke-linecap:round; stroke-linejoin:round;">
</g>
<g style="fill:#840000; fill-opacity:0.0; 
stroke:#840000; stroke-width:60; stroke-opacity:1; 
stroke-linecap:round; stroke-linejoin:round;">
<rect x="3940" y="3940" width="109050" height="74800" rx="0" />
</g>
<g style="fill:#840000; fill-opacity:0.0; 
stroke:#840000; stroke-width:100; stroke-opacity:1; 
stroke-linecap:round; stroke-linejoin:round;">
</g>
<g style="fill:#840000; fill-opacity:0.0; 
stroke:#840000; stroke-width:60; stroke-opacity:1; 
stroke-linecap:round; stroke-linejoin:round;">
<rect x="4720" y="4720" width="107490" height="73240" rx="0" />
</g>
<g style="fill:#840000; fill-opacity:0.0; 
stroke:#840000; stroke-width:100; stroke-opacity:1; 
stroke-linecap:round; stroke-linejoin:round;">
</g>
<g style="fill:#840000; fill-opacity:0.0; 
stroke:#840000; stroke-width:60; stroke-opacity:1; 
stroke-linecap:round; stroke-linejoin:round;">
<path d="M23620 4720
L23620 3940
" />
</g>
<g style="fill:#840000; fill-opacity:0.0; 
stroke:#840000; stroke-width:100; stroke-opacity:1; 
stroke-linecap:round; stroke-linejoin:round;">
</g>
<g style="fill:#840000; fill-opacity:0.0; 
stroke:#840000; stroke-width:60; stroke-opacity:1; 
stroke-linecap:round; stroke-linejoin:round;">
<path d="M43310 4720
L43310 3940
" />
</g>
<g style="fill:#840000; fill-opacity:0.0; 
stroke:#840000; stroke-width:100; stroke-opacity:1; 
stroke-linecap:round; stroke-linejoin:round;">
</g>
<g style="fill:#840000; fill-opacity:0.0; 
stroke:#840000; stroke-width:60; stroke-opacity:1; 
stroke-linecap:round; stroke-linejoin:round;">
<path d="M62990 4720
L62990 3940
" />
</g>
<g style="fill:#840000; fill-opacity:0.0; 
stroke:#840000; stroke-width:100; stroke-opacity:1; 
stroke-linecap:round; stroke-linejoin:round;">
</g>
<g style="fill:#840000; fill-opacity:0.0; 
stroke:#840000; stroke-width:60; stroke-opacity:1; 
stroke-linecap:round; stroke-linejoin:round;">
<path d="M82680 4720
L82680 3940
" />
</g>
<g style="fill:#840000; fill-opacity:0.0; 
stroke:#840000; stroke-width:100; stroke-opacity:1; 
stroke-linecap:round; stroke-linejoin:round;">
</g>
<g style="fill:#840000; fill-opacity:0.0; 
stroke:#840000; stroke-width:60; stroke-opacity:1; 
stroke-linecap:round; stroke-linejoin:round;">
<path d="M102360 4720
L102360 3940
" />
</g>
<g style="fill:#840000; fill-opacity:0.0; 
stroke:#840000; stroke-width:100; stroke-opacity:1; 
stroke-linecap:round; stroke-linejoin:round;">
</g>
<g style="fill:#840000; fill-opacity:0.0; 
stroke:#840000; stroke-width:60; stroke-opacity:1; 
stroke-linecap:round; stroke-linejoin:round;">
<path d="M14170 4560
L13880 4560
" />
<path d="M14020 4560
L14020 4050
L13970 4120
L13930 4170
L13880 4190
" />
</g>
<g style="fill:#840000; fill-opacity:0.0; 
stroke:#840000; stroke-width:100; stroke-opacity:1; 
stroke-linecap:round; stroke-linejoin:round;">
</g>
<g style="fill:#840000; fill-opacity:0.0; 
stroke:#840000; stroke-width:60; stroke-opacity:1; 
stroke-linecap:round; stroke-linejoin:round;">
<path d="M33560 4090
L33580 4070
L33630 4050
L33750 4050
L33800 4070
L33820 4090
L33850 4140
L33850 4190
L33820 4260
L33530 4560
L33850 4560
" />
</g>
<g style="fill:#840000; fill-opacity:0.0; 
stroke:#840000; stroke-width:100; stroke-opacity:1; 
stroke-linecap:round; stroke-linejoin:round;">
</g>
<g style="fill:#840000; fill-opacity:0.0; 
stroke:#840000; stroke-width:60; stroke-opacity:1; 
stroke-linecap:round; stroke-linejoin:round;">
<path d="M53220 4050
L53540 4050
L53370 4240
L53440 4240
L53490 4260
L53510 4290
L53540 4340
L53540 4460
L53510 4510
L53490 4530
L53440 4560
L53300 4560
L53250 4530
L53220 4510
" />
</g>
<g style="fill:#840000; fill-opacity:0.0; 
stroke:#840000; stroke-width:100; stroke-opacity:1; 
stroke-linecap:round; stroke-linejoin:round;">
</g>
<g style="fill:#840000; fill-opacity:0.0; 
stroke:#840000; stroke-width:60; stroke-opacity:1; 
stroke-linecap:round; stroke-linejoin:round;">
<path d="M73170 4220
L73170 4560
" />
<path d="M73050 4020
L72930 4390
L73240 4390
" />
</g>
<g style="fill:#840000; fill-opacity:0.0; 
stroke:#840000; stroke-width:100; stroke-opacity:1; 
stroke-linecap:round; stroke-linejoin:round;">
</g>
<g style="fill:#840000; fill-opacity:0.0; 
stroke:#840000; stroke-width:60; stroke-opacity:1; 
stroke-linecap:round; stroke-linejoin:round;">
<path d="M92880 4050
L92640 4050
L92620 4290
L92640 4260
L92690 4240
L92810 4240
L92860 4260
L92880 4290
L92910 4340
L92910 4460
L92880 4510
L92860 4530
L92810 4560
L92690 4560
L92640 4530
L92620 4510
" />
</g>
<g style="fill:#840000; fill-opacity:0.0; 
stroke:#840000; stroke-width:100; stroke-opacity:1; 
stroke-linecap:round; stroke-linejoin:round;">
</g>
<g style="fill:#840000; fill-opacity:0.0; 
stroke:#840000; stroke-width:60; stroke-opacity:1; 
stroke-linecap:round; stroke-linejoin:round;">
<path d="M112540 4050
L112440 4050
L112390 4070
L112370 4090
L112320 4170
L112300 4260
L112300 4460
L112320 4510
L112350 4530
L112390 4560
L112490 4560
L112540 4530
L112560 4510
L112590 4460
L112590 4340
L112560 4290
L112540 4260
L112490 4240
L112390 4240
L112350 4260
L112320 4290
L112300 4340
" />
</g>
<g style="fill:#840000; fill-opacity:0.0; 
stroke:#840000; stroke-width:100; stroke-opacity:1; 
stroke-linecap:round; stroke-linejoin:round;">
</g>
<g style="fill:#840000; fill-opacity:0.0; 
stroke:#840000; stroke-width:60; stroke-opacity:1; 
stroke-linecap:round; stroke-linejoin:round;">
<path d="M23620 77960
L23620 78740
" />
</g>
<g style="fill:#840000; fill-opacity:0.0; 
stroke:#840000; stroke-width:100; stroke-opacity:1; 
stroke-linecap:round; stroke-linejoin:round;">
</g>
<g style="fill:#840000; fill-opacity:0.0; 
stroke:#840000; stroke-width:60; stroke-opacity:1; 
stroke-linecap:round; stroke-linejoin:round;">
<path d="M43310 77960
L43310 78740
" />
</g>
<g style="fill:#840000; fill-opacity:0.0; 
stroke:#840000; stroke-width:100; stroke-opacity:1; 
stroke-linecap:round; stroke-linejoin:round;">
</g>
<g style="fill:#840000; fill-opacity:0.0; 
stroke:#840000; stroke-width:60; stroke-opacity:1; 
stroke-linecap:round; stroke-linejoin:round;">
<path d="M62990 77960
L62990 78740
" />
</g>
<g style="fill:#840000; fill-opacity:0.0; 
stroke:#840000; stroke-width:100; stroke-opacity:1; 
stroke-linecap:round; stroke-linejoin:round;">
</g>
<g style="fill:#840000; fill-opacity:0.0; 
stroke:#840000; stroke-width:60; stroke-opacity:1; 
stroke-linecap:round; stroke-linejoin:round;">
<path d="M82680 77960
L82680 78740
" />
</g>
<g style="fill:#840000; fill-opacity:0.0; 
stroke:#840000; stroke-width:100; stroke-opacity:1; 
stroke-linecap:round; stroke-linejoin:round;">
</g>
<g style="fill:#840000; fill-opacity:0.0; 
stroke:#840000; stroke-width:60; stroke-opacity:1; 
stroke-linecap:round; stroke-linejoin:round;">
<path d="M102360 77960
L102360 78740
" />
</g>
<g style="fill:#840000; fill-opacity:0.0; 
stroke:#840000; stroke-width:100; stroke-opacity:1; 
stroke-linecap:round; stroke-linejoin:round;">
</g>
<g style="fill:#840000; fill-opacity:0.0; 
stroke:#840000; stroke-width:60; stroke-opacity:1; 
stroke-linecap:round; stroke-linejoin:round;">
<path d="M14170 78580
L13880 78580
" />
<path d="M14020 78580
L14020 78070
L13970 78140
L13930 78190
L13880 78210
" />
</g>
<g style="fill:#840000; fill-opacity:0.0; 
stroke:#840000; stroke-width:100; stroke-opacity:1; 
stroke-linecap:round; stroke-linejoin:round;">
</g>
<g style="fill:#840000; fill-opacity:0.0; 
stroke:#840000; stroke-width:60; stroke-opacity:1; 
stroke-linecap:round; stroke-linejoin:round;">
<path d="M33560 78110
L33580 78090
L33630 78070
L33750 78070
L33800 78090
L33820 78110
L33850 78160
L33850 78210
L33820 78280
L33530 78580
L33850 78580
" />
</g>
<g style="fill:#840000; fill-opacity:0.0; 
stroke:#840000; stroke-width:100; stroke-opacity:1; 
stroke-linecap:round; stroke-linejoin:round;">
</g>
<g style="fill:#840000; fill-opacity:0.0; 
stroke:#840000; stroke-width:60; stroke-opacity:1; 
stroke-linecap:round; stroke-linejoin:round;">
<path d="M53220 78070
L53540 78070
L53370 78260
L53440 78260
L53490 78280
L53510 78310
L53540 78360
L53540 78480
L53510 78530
L53490 78550
L53440 78580
L53300 78580
L53250 78550
L53220 78530
" />
</g>
<g style="fill:#840000; fill-opacity:0.0; 
stroke:#840000; stroke-width:100; stroke-opacity:1; 
stroke-linecap:round; stroke-linejoin:round;">
</g>
<g style="fill:#840000; fill-opacity:0.0; 
stroke:#840000; stroke-width:60; stroke-opacity:1; 
stroke-linecap:round; stroke-linejoin:round;">
<path d="M73170 78240
L73170 78580
" />
<path d="M73050 78040
L72930 78410
L73240 78410
" />
</g>
<g style="fill:#840000; fill-opacity:0.0; 
stroke:#840000; stroke-width:100; stroke-opacity:1; 
stroke-linecap:round; stroke-linejoin:round;">
</g>
<g style="fill:#840000; fill-opacity:0.0; 
stroke:#840000; stroke-width:60; stroke-opacity:1; 
stroke-linecap:round; stroke-linejoin:round;">
<path d="M92880 78070
L92640 78070
L92620 78310
L92640 78280
L92690 78260
L92810 78260
L92860 78280
L92880 78310
L92910 78360
L92910 78480
L92880 78530
L92860 78550
L92810 78580
L92690 78580
L92640 78550
L92620 78530
" />
</g>
<g style="fill:#840000; fill-opacity:0.0; 
stroke:#840000; stroke-width:100; stroke-opacity:1; 
stroke-linecap:round; stroke-linejoin:round;">
</g>
<g style="fill:#840000; fill-opacity:0.0; 
stroke:#840000; stroke-width:60; stroke-opacity:1; 
stroke-linecap:round; stroke-linejoin:round;">
<path d="M112540 78070
L112440 78070
L112390 78090
L112370 78110
L112320 78190
L112300 78280
L112300 78480
L112320 78530
L112350 78550
L112390 78580
L112490 78580
L112540 78550
L112560 78530
L112590 78480
L112590 78360
L112560 78310
L112540 78280
L112490 78260
L112390 78260
L112350 78280
L112320 78310
L112300 78360
" />
</g>
<g style="fill:#840000; fill-opacity:0.0; 
stroke:#840000; stroke-width:100; stroke-opacity:1; 
stroke-linecap:round; stroke-linejoin:round;">
</g>
<g style="fill:#840000; fill-opacity:0.0; 
stroke:#840000; stroke-width:60; stroke-opacity:1; 
stroke-linecap:round; stroke-linejoin:round;">
<path d="M3940 23620
L4720 23620
" />
</g>
<g style="fill:#840000; fill-opacity:0.0; 
stroke:#840000; stroke-width:100; stroke-opacity:1; 
stroke-linecap:round; stroke-linejoin:round;">
</g>
<g style="fill:#840000; fill-opacity:0.0; 
stroke:#840000; stroke-width:60; stroke-opacity:1; 
stroke-linecap:round; stroke-linejoin:round;">
<path d="M3940 43310
L4720 43310
" />
</g>
<g style="fill:#840000; fill-opacity:0.0; 
stroke:#840000; stroke-width:100; stroke-opacity:1; 
stroke-linecap:round; stroke-linejoin:round;">
</g>
<g style="fill:#840000; fill-opacity:0.0; 
stroke:#840000; stroke-width:60; stroke-opacity:1; 
stroke-linecap:round; stroke-linejoin:round;">
<path d="M3940 62990
L4720 62990
" />
</g>
<g style="fill:#840000; fill-opacity:0.0; 
stroke:#840000; stroke-width:100; stroke-opacity:1; 
stroke-linecap:round; stroke-linejoin:round;">
</g>
<g style="fill:#840000; fill-opacity:0.0; 
stroke:#840000; stroke-width:60; stroke-opacity:1; 
stroke-linecap:round; stroke-linejoin:round;">
<path d="M4210 13860
L4450 13860
" />
<path d="M4160 14010
L4330 13500
L4500 14010
" />
</g>
<g style="fill:#840000; fill-opacity:0.0; 
stroke:#840000; stroke-width:100; stroke-opacity:1; 
stroke-linecap:round; stroke-linejoin:round;">
</g>
<g style="fill:#840000; fill-opacity:0.0; 
stroke:#840000; stroke-width:60; stroke-opacity:1; 
stroke-linecap:round; stroke-linejoin:round;">
<path d="M4370 33420
L4440 33440
L4470 33470
L4490 33520
L4490 33590
L4470 33640
L4440 33660
L4400 33690
L4200 33690
L4200 33180
L4370 33180
L4420 33200
L4440 33220
L4470 33270
L4470 33320
L4440 33370
L4420 33390
L4370 33420
L4200 33420
" />
</g>
<g style="fill:#840000; fill-opacity:0.0; 
stroke:#840000; stroke-width:100; stroke-opacity:1; 
stroke-linecap:round; stroke-linejoin:round;">
</g>
<g style="fill:#840000; fill-opacity:0.0; 
stroke:#840000; stroke-width:60; stroke-opacity:1; 
stroke-linecap:round; stroke-linejoin:round;">
<path d="M4490 53330
L4470 53350
L4400 53380
L4350 53380
L4270 53350
L4230 53300
L4200 53250
L4180 53160
L4180 53080
L4200 52990
L4230 52940
L4270 52890
L4350 52870
L4400 52870
L4470 52890
L4490 52910
" />
</g>
<g style="fill:#840000; fill-opacity:0.0; 
stroke:#840000; stroke-width:100; stroke-opacity:1; 
stroke-linecap:round; stroke-linejoin:round;">
</g>
<g style="fill:#840000; fill-opacity:0.0; 
stroke:#840000; stroke-width:60; stroke-opacity:1; 
stroke-linecap:round; stroke-linejoin:round;">
<path d="M4200 73060
L4200 72550
L4320 72550
L4400 72570
L4440 72620
L4470 72670
L4490 72760
L4490 72840
L4470 72930
L4440 72980
L4400 73030
L4320 73060
L4200 73060
" />
</g>
<g style="fill:#840000; fill-opacity:0.0; 
stroke:#840000; stroke-width:100; stroke-opacity:1; 
stroke-linecap:round; stroke-linejoin:round;">
</g>
<g style="fill:#840000; fill-opacity:0.0; 
stroke:#840000; stroke-width:60; stroke-opacity:1; 
stroke-linecap:round; stroke-linejoin:round;">
<path d="M112990 23620
L112210 23620
" />
</g>
<g style="fill:#840000; fill-opacity:0.0; 
stroke:#840000; stroke-width:100; stroke-opacity:1; 
stroke-linecap:round; stroke-linejoin:round;">
</g>
<g style="fill:#840000; fill-opacity:0.0; 
stroke:#840000; stroke-width:60; stroke-opacity:1; 
stroke-linecap:round; stroke-linejoin:round;">
<path d="M112990 43310
L112210 43310
" />
</g>
<g style="fill:#840000; fill-opacity:0.0; 
stroke:#840000; stroke-width:100; stroke-opacity:1; 
stroke-linecap:round; stroke-linejoin:round;">
</g>
<g style="fill:#840000; fill-opacity:0.0; 
stroke:#840000; stroke-width:60; stroke-opacity:1; 
stroke-linecap:round; stroke-linejoin:round;">
<path d="M112990 62990
L112210 62990
" />
</g>
<g style="fill:#840000; fill-opacity:0.0; 
stroke:#840000; stroke-width:100; stroke-opacity:1; 
stroke-linecap:round; stroke-linejoin:round;">
</g>
<g style="fill:#840000; fill-opacity:0.0; 
stroke:#840000; stroke-width:60; stroke-opacity:1; 
stroke-linecap:round; stroke-linejoin:round;">
<path d="M112480 13860
L112720 13860
" />
<path d="M112430 14010
L112600 13500
L112770 14010
" />
</g>
<g style="fill:#840000; fill-opacity:0.0; 
stroke:#840000; stroke-width:100; stroke-opacity:1; 
stroke-linecap:round; stroke-linejoin:round;">
</g>
<g style="fill:#840000; fill-opacity:0.0; 
stroke:#840000; stroke-width:60; stroke-opacity:1; 
stroke-linecap:round; stroke-linejoin:round;">
<path d="M112640 33420
L112710 33440
L112740 33470
L112760 33520
L112760 33590
L112740 33640
L112710 33660
L112670 33690
L112470 33690
L112470 33180
L112640 33180
L112690 33200
L112710 33220
L112740 33270
L112740 33320
L112710 33370
L112690 33390
L112640 33420
L112470 33420
" />
</g>
<g style="fill:#840000; fill-opacity:0.0; 
stroke:#840000; stroke-width:100; stroke-opacity:1; 
stroke-linecap:round; stroke-linejoin:round;">
</g>
<g style="fill:#840000; fill-opacity:0.0; 
stroke:#840000; stroke-width:60; stroke-opacity:1; 
stroke-linecap:round; stroke-linejoin:round;">
<path d="M112760 53330
L112740 53350
L112670 53380
L112620 53380
L112540 53350
L112500 53300
L112470 53250
L112450 53160
L112450 53080
L112470 52990
L112500 52940
L112540 52890
L112620 52870
L112670 52870
L112740 52890
L112760 52910
" />
</g>
<g style="fill:#840000; fill-opacity:0.0; 
stroke:#840000; stroke-width:100; stroke-opacity:1; 
stroke-linecap:round; stroke-linejoin:round;">
</g>
<g style="fill:#840000; fill-opacity:0.0; 
stroke:#840000; stroke-width:60; stroke-opacity:1; 
stroke-linecap:round; stroke-linejoin:round;">
<path d="M112470 73060
L112470 72550
L112590 72550
L112670 72570
L112710 72620
L112740 72670
L112760 72760
L112760 72840
L112740 72930
L112710 72980
L112670 73030
L112590 73060
L112470 73060
" />
</g>
<g style="fill:#840000; fill-opacity:0.0; 
stroke:#840000; stroke-width:100; stroke-opacity:1; 
stroke-linecap:round; stroke-linejoin:round;">
</g>
<g style="fill:#840000; fill-opacity:0.0; 
stroke:#840000; stroke-width:60; stroke-opacity:1; 
stroke-linecap:round; stroke-linejoin:round;">
<path d="M78880 76290
L78880 75700
L79020 75700
L79110 75730
L79160 75790
L79190 75840
L79220 75950
L79220 76040
L79190 76150
L79160 76210
L79110 76260
L79020 76290
L78880 76290
" />
<path d="M79720 76290
L79720 75980
L79700 75930
L79640 75900
L79530 75900
L79470 75930
" />
<path d="M79720 76260
L79670 76290
L79530 76290
L79470 76260
L79440 76210
L79440 76150
L79470 76100
L79530 76070
L79670 76070
L79720 76040
" />
<path d="M79920 75900
L80140 75900
" />
<path d="M80000 75700
L80000 76210
L80030 76260
L80080 76290
L80140 76290
" />
<path d="M80570 76260
L80510 76290
L80400 76290
L80340 76260
L80310 76210
L80310 75980
L80340 75930
L80400 75900
L80510 75900
L80570 75930
L80590 75980
L80590 76040
L80310 76100
" />
<path d="M80850 76240
L80880 76260
L80850 76290
L80820 76260
L80850 76240
L80850 76290
" />
<path d="M80850 75930
L80880 75950
L80850 75980
L80820 75950
L80850 75930
L80850 75980
" />
</g>
<g style="fill:#840000; fill-opacity:0.0; 
stroke:#840000; stroke-width:100; stroke-opacity:1; 
stroke-linecap:round; stroke-linejoin:round;">
</g>
<g style="fill:#840000; fill-opacity:0.0; 
stroke:#840000; stroke-width:60; stroke-opacity:1; 
stroke-linecap:round; stroke-linejoin:round;">
<path d="M69690 76580
L112210 76580
" />
</g>
<g style="fill:#840000; fill-opacity:0.0; 
stroke:#840000; stroke-width:100; stroke-opacity:1; 
stroke-linecap:round; stroke-linejoin:round;">
</g>
<g style="fill:#840000; fill-opacity:0.0; 
stroke:#840000; stroke-width:60; stroke-opacity:1; 
stroke-linecap:round; stroke-linejoin:round;">
<path d="M70220 77390
L70220 76800
" />
<path d="M70560 77390
L70300 77050
" />
<path d="M70560 76800
L70220 77140
" />
<path d="M70810 77390
L70810 77000
" />
<path d="M70810 76800
L70780 76830
L70810 76860
L70840 76830
L70810 76800
L70810 76860
" />
<path d="M71430 77340
L71400 77360
L71320 77390
L71260 77390
L71170 77360
L71120 77310
L71090 77250
L71060 77140
L71060 77050
L71090 76940
L71120 76890
L71170 76830
L71260 76800
L71320 76800
L71400 76830
L71430 76860
" />
<path d="M71930 77390
L71930 77080
L71910 77030
L71850 77000
L71740 77000
L71680 77030
" />
<path d="M71930 77360
L71880 77390
L71740 77390
L71680 77360
L71650 77310
L71650 77250
L71680 77200
L71740 77170
L71880 77170
L71930 77140
" />
<path d="M72460 77390
L72460 76800
" />
<path d="M72460 77360
L72410 77390
L72290 77390
L72240 77360
L72210 77340
L72180 77280
L72180 77110
L72210 77050
L72240 77030
L72290 77000
L72410 77000
L72460 77030
" />
<path d="M73190 77080
L73390 77080
" />
<path d="M73470 77390
L73190 77390
L73190 76800
L73470 76800
" />
<path d="M73720 77340
L73750 77360
L73720 77390
L73690 77360
L73720 77340
L73720 77390
" />
<path d="M74000 77390
L74000 76800
L74140 76800
L74230 76830
L74280 76890
L74310 76940
L74340 77050
L74340 77140
L74310 77250
L74280 77310
L74230 77360
L74140 77390
L74000 77390
" />
<path d="M74590 77340
L74620 77360
L74590 77390
L74560 77360
L74590 77340
L74590 77390
" />
<path d="M74840 77220
L75120 77220
" />
<path d="M74790 77390
L74980 76800
L75180 77390
" />
<path d="M75380 77340
L75410 77360
L75380 77390
L75350 77360
L75380 77340
L75380 77390
" />
<path d="M76560 77390
L76560 76800
" />
<path d="M76620 77170
L76790 77390
" />
<path d="M76790 77000
L76560 77220
" />
<path d="M77040 77390
L77040 77000
" />
<path d="M77040 76800
L77010 76830
L77040 76860
L77070 76830
L77040 76800
L77040 76860
" />
<path d="M77570 77360
L77520 77390
L77400 77390
L77350 77360
L77320 77340
L77290 77280
L77290 77110
L77320 77050
L77350 77030
L77400 77000
L77520 77000
L77570 77030
" />
<path d="M78080 77390
L78080 77080
L78060 77030
L78000 77000
L77890 77000
L77830 77030
" />
<path d="M78080 77360
L78030 77390
L77890 77390
L77830 77360
L77800 77310
L77800 77250
L77830 77200
L77890 77170
L78030 77170
L78080 77140
" />
<path d="M78610 77390
L78610 76800
" />
<path d="M78610 77360
L78560 77390
L78440 77390
L78390 77360
L78360 77340
L78330 77280
L78330 77110
L78360 77050
L78390 77030
L78440 77000
L78560 77000
L78610 77030
" />
<path d="M79590 77000
L79590 77390
" />
<path d="M79450 76770
L79310 77200
L79680 77200
" />
<path d="M79900 77340
L79930 77360
L79900 77390
L79870 77360
L79900 77340
L79900 77390
" />
<path d="M80290 76800
L80350 76800
L80410 76830
L80430 76860
L80460 76910
L80490 77030
L80490 77170
L80460 77280
L80430 77340
L80410 77360
L80350 77390
L80290 77390
L80240 77360
L80210 77340
L80180 77280
L80150 77170
L80150 77030
L80180 76910
L80210 76860
L80240 76830
L80290 76800
" />
<path d="M80740 77340
L80770 77360
L80740 77390
L80710 77360
L80740 77340
L80740 77390
" />
<path d="M81270 77000
L81270 77390
" />
<path d="M81130 76770
L80990 77200
L81360 77200
" />
<path d="M81580 77170
L82030 77170
" />
<path d="M82620 77390
L82280 77390
" />
<path d="M82450 77390
L82450 76800
L82390 76890
L82340 76940
L82280 76970
" />
<path d="M82870 77340
L82900 77360
L82870 77390
L82840 77360
L82870 77340
L82870 77390
" />
<path d="M83070 77000
L83290 77000
" />
<path d="M83150 77390
L83150 76890
L83180 76830
L83230 76800
L83290 76800
" />
<path d="M83740 77360
L83690 77390
L83570 77390
L83520 77360
L83490 77340
L83460 77280
L83460 77110
L83490 77050
L83520 77030
L83570 77000
L83690 77000
L83740 77030
" />
<path d="M83970 76860
L84000 76830
L84060 76800
L84200 76800
L84250 76830
L84280 76860
L84310 76910
L84310 76970
L84280 77050
L83940 77390
L84310 77390
" />
<path d="M84840 76800
L84560 76800
L84530 77080
L84560 77050
L84620 77030
L84760 77030
L84810 77050
L84840 77080
L84870 77140
L84870 77280
L84840 77340
L84810 77360
L84760 77390
L84620 77390
L84560 77360
L84530 77340
" />
<path d="M85120 77170
L85570 77170
" />
<path d="M85850 77000
L85850 77590
" />
<path d="M85850 77030
L85910 77000
L86020 77000
L86080 77030
L86100 77050
L86130 77110
L86130 77280
L86100 77340
L86080 77360
L86020 77390
L85910 77390
L85850 77360
" />
<path d="M86380 77390
L86380 77000
" />
<path d="M86380 77110
L86410 77050
L86440 77030
L86490 77000
L86550 77000
" />
<path d="M86830 77390
L86780 77360
L86750 77340
L86720 77280
L86720 77110
L86750 77050
L86780 77030
L86830 77000
L86920 77000
L86980 77030
L87000 77050
L87030 77110
L87030 77280
L87000 77340
L86980 77360
L86920 77390
L86830 77390
" />
<path d="M87530 77390
L87530 76800
" />
<path d="M87530 77360
L87480 77390
L87360 77390
L87310 77360
L87280 77340
L87250 77280
L87250 77110
L87280 77050
L87310 77030
L87360 77000
L87480 77000
L87530 77030
" />
<path d="M88060 77000
L88060 77390
" />
<path d="M87810 77000
L87810 77310
L87840 77360
L87890 77390
L87980 77390
L88040 77360
L88060 77340
" />
<path d="M88590 77360
L88540 77390
L88420 77390
L88370 77360
L88340 77340
L88310 77280
L88310 77110
L88340 77050
L88370 77030
L88420 77000
L88540 77000
L88590 77030
" />
<path d="M88770 77000
L88990 77000
" />
<path d="M88850 76800
L88850 77310
L88880 77360
L88930 77390
L88990 77390
" />
</g>
<g style="fill:#840000; fill-opacity:0.0; 
stroke:#840000; stroke-width:100; stroke-opacity:1; 
stroke-linecap:round; stroke-linejoin:round;">
</g>
<g style="fill:#840000; fill-opacity:0.0; 
stroke:#840000; stroke-width:60; stroke-opacity:1; 
stroke-linecap:round; stroke-linejoin:round;">
<path d="M69690 75400
L112210 75400
" />
</g>
<g style="fill:#840000; fill-opacity:0.0; 
stroke:#840000; stroke-width:100; stroke-opacity:1; 
stroke-linecap:round; stroke-linejoin:round;">
</g>
<g style="fill:#840000; fill-opacity:0.0; 
stroke:#840000; stroke-width:120; stroke-opacity:1; 
stroke-linecap:round; stroke-linejoin:round;">
<path d="M104020 76290
L103820 76010
" />
<path d="M103680 76290
L103680 75700
L103910 75700
L103960 75730
L103990 75760
L104020 75810
L104020 75900
L103990 75950
L103960 75980
L103910 76010
L103680 76010
" />
<path d="M104500 76260
L104440 76290
L104330 76290
L104270 76260
L104240 76210
L104240 75980
L104270 75930
L104330 75900
L104440 75900
L104500 75930
L104520 75980
L104520 76040
L104240 76100
" />
<path d="M104720 75900
L104860 76290
L105010 75900
" />
<path d="M105230 76240
L105260 76260
L105230 76290
L105200 76260
L105230 76240
L105230 76290
" />
<path d="M105230 75930
L105260 75950
L105230 75980
L105200 75950
L105230 75930
L105230 75980
" />
</g>
<g style="fill:#840000; fill-opacity:0.0; 
stroke:#840000; stroke-width:100; stroke-opacity:1; 
stroke-linecap:round; stroke-linejoin:round;">
</g>
<g style="fill:#840000; fill-opacity:0.0; 
stroke:#840000; stroke-width:60; stroke-opacity:1; 
stroke-linecap:round; stroke-linejoin:round;">
<path d="M70190 76260
L70280 76290
L70420 76290
L70470 76260
L70500 76240
L70530 76180
L70530 76120
L70500 76070
L70470 76040
L70420 76010
L70300 75980
L70250 75950
L70220 75930
L70190 75870
L70190 75810
L70220 75760
L70250 75730
L70300 75700
L70450 75700
L70530 75730
" />
<path d="M70780 76290
L70780 75900
" />
<path d="M70780 75700
L70750 75730
L70780 75760
L70810 75730
L70780 75700
L70780 75760
" />
<path d="M71000 75900
L71310 75900
L71000 76290
L71310 76290
" />
<path d="M71770 76260
L71710 76290
L71600 76290
L71540 76260
L71510 76210
L71510 75980
L71540 75930
L71600 75900
L71710 75900
L71770 75930
L71790 75980
L71790 76040
L71510 76100
" />
<path d="M72050 76240
L72080 76260
L72050 76290
L72020 76260
L72050 76240
L72050 76290
" />
<path d="M72050 75930
L72080 75950
L72050 75980
L72020 75950
L72050 75930
L72050 75980
" />
<path d="M72750 76120
L73030 76120
" />
<path d="M72700 76290
L72890 75700
L73090 76290
" />
<path d="M73540 75900
L73540 76290
" />
<path d="M73400 75670
L73260 76100
L73630 76100
" />
</g>
<g style="fill:#840000; fill-opacity:0.0; 
stroke:#840000; stroke-width:100; stroke-opacity:1; 
stroke-linecap:round; stroke-linejoin:round;">
</g>
<g style="fill:#840000; fill-opacity:0.0; 
stroke:#840000; stroke-width:60; stroke-opacity:1; 
stroke-linecap:round; stroke-linejoin:round;">
<path d="M103680 77390
L103680 76800
" />
<path d="M104210 77390
L104210 76800
" />
<path d="M104210 77360
L104160 77390
L104040 77390
L103990 77360
L103960 77340
L103930 77280
L103930 77110
L103960 77050
L103990 77030
L104040 77000
L104160 77000
L104210 77030
" />
<path d="M104490 77340
L104520 77360
L104490 77390
L104460 77360
L104490 77340
L104490 77390
" />
<path d="M104490 77030
L104520 77050
L104490 77080
L104460 77050
L104490 77030
L104490 77080
" />
<path d="M105190 76860
L105220 76830
L105280 76800
L105420 76800
L105470 76830
L105500 76860
L105530 76910
L105530 76970
L105500 77050
L105160 77390
L105530 77390
" />
<path d="M106200 76770
L105700 77530
" />
<path d="M106340 76800
L106740 76800
L106480 77390
" />
</g>
<g style="fill:#840000; fill-opacity:0.0; 
stroke:#840000; stroke-width:100; stroke-opacity:1; 
stroke-linecap:round; stroke-linejoin:round;">
</g>
<g style="fill:#840000; fill-opacity:0.0; 
stroke:#840000; stroke-width:60; stroke-opacity:1; 
stroke-linecap:round; stroke-linejoin:round;">
<path d="M69690 73820
L112210 73820
" />
</g>
<g style="fill:#840000; fill-opacity:0.0; 
stroke:#840000; stroke-width:100; stroke-opacity:1; 
stroke-linecap:round; stroke-linejoin:round;">
</g>
<g style="fill:#840000; fill-opacity:0.0; 
stroke:#840000; stroke-width:160; stroke-opacity:1; 
stroke-linecap:round; stroke-linejoin:round;">
<path d="M70260 74090
L70710 74090
" />
<path d="M70390 74880
L70480 74090
" />
<path d="M70880 74880
L70940 74360
" />
<path d="M70970 74090
L70930 74130
L70960 74170
L71010 74130
L70970 74090
L70960 74170
" />
<path d="M71210 74360
L71510 74360
" />
<path d="M71350 74090
L71270 74770
L71300 74840
L71370 74880
L71450 74880
" />
<path d="M71820 74880
L71750 74840
L71720 74770
L71800 74090
" />
<path d="M72420 74840
L72340 74880
L72190 74880
L72120 74840
L72090 74770
L72130 74470
L72180 74390
L72250 74360
L72400 74360
L72480 74390
L72510 74470
L72500 74540
L72110 74620
" />
<path d="M72800 74810
L72840 74840
L72800 74880
L72760 74840
L72800 74810
L72800 74880
" />
<path d="M72860 74390
L72890 74430
L72850 74470
L72810 74430
L72860 74390
L72850 74470
" />
</g>
<g style="fill:#840000; fill-opacity:0.0; 
stroke:#840000; stroke-width:100; stroke-opacity:1; 
stroke-linecap:round; stroke-linejoin:round;">
</g>
<g style="fill:#840000; fill-opacity:0.0; 
stroke:#840000; stroke-width:60; stroke-opacity:1; 
stroke-linecap:round; stroke-linejoin:round;">
<path d="M70420 73060
L70220 73060
" />
<path d="M70220 73370
L70220 72780
L70500 72780
" />
<path d="M70730 73370
L70730 72980
" />
<path d="M70730 72780
L70700 72810
L70730 72840
L70760 72810
L70730 72780
L70730 72840
" />
<path d="M71090 73370
L71040 73340
L71010 73290
L71010 72780
" />
<path d="M71550 73340
L71490 73370
L71380 73370
L71320 73340
L71290 73290
L71290 73060
L71320 73010
L71380 72980
L71490 72980
L71550 73010
L71570 73060
L71570 73120
L71290 73180
" />
<path d="M71830 73320
L71860 73340
L71830 73370
L71800 73340
L71830 73320
L71830 73370
" />
<path d="M71830 73010
L71860 73030
L71830 73060
L71800 73030
L71830 73010
L71830 73060
" />
<path d="M72560 72980
L72560 73570
" />
<path d="M72560 73010
L72620 72980
L72730 72980
L72790 73010
L72810 73030
L72840 73090
L72840 73260
L72810 73320
L72790 73340
L72730 73370
L72620 73370
L72560 73340
" />
<path d="M73170 73370
L73120 73340
L73090 73320
L73060 73260
L73060 73090
L73090 73030
L73120 73010
L73170 72980
L73260 72980
L73320 73010
L73340 73030
L73370 73090
L73370 73260
L73340 73320
L73320 73340
L73260 73370
L73170 73370
" />
<path d="M73560 72980
L73680 73370
L73790 73090
L73900 73370
L74010 72980
" />
<path d="M74470 73340
L74410 73370
L74300 73370
L74240 73340
L74210 73290
L74210 73060
L74240 73010
L74300 72980
L74410 72980
L74470 73010
L74490 73060
L74490 73120
L74210 73180
" />
<path d="M74750 73370
L74750 72980
" />
<path d="M74750 73090
L74780 73030
L74810 73010
L74860 72980
L74920 72980
" />
<path d="M75120 73370
L75120 72780
" />
<path d="M75120 73010
L75180 72980
L75290 72980
L75350 73010
L75370 73030
L75400 73090
L75400 73260
L75370 73320
L75350 73340
L75290 73370
L75180 73370
L75120 73340
" />
<path d="M75730 73370
L75680 73340
L75650 73320
L75620 73260
L75620 73090
L75650 73030
L75680 73010
L75730 72980
L75820 72980
L75880 73010
L75900 73030
L75930 73090
L75930 73260
L75900 73320
L75880 73340
L75820 73370
L75730 73370
" />
<path d="M76430 73370
L76430 73060
L76410 73010
L76350 72980
L76240 72980
L76180 73010
" />
<path d="M76430 73340
L76380 73370
L76240 73370
L76180 73340
L76150 73290
L76150 73230
L76180 73180
L76240 73150
L76380 73150
L76430 73120
" />
<path d="M76710 73370
L76710 72980
" />
<path d="M76710 73090
L76740 73030
L76770 73010
L76820 72980
L76880 72980
" />
<path d="M77330 73370
L77330 72780
" />
<path d="M77330 73340
L77280 73370
L77160 73370
L77110 73340
L77080 73320
L77050 73260
L77050 73090
L77080 73030
L77110 73010
L77160 72980
L77280 72980
L77330 73010
" />
<path d="M77470 73430
L77920 73430
" />
<path d="M78060 73370
L78060 72980
" />
<path d="M78060 73090
L78090 73030
L78120 73010
L78170 72980
L78230 72980
" />
<path d="M78660 73340
L78600 73370
L78490 73370
L78430 73340
L78400 73290
L78400 73060
L78430 73010
L78490 72980
L78600 72980
L78660 73010
L78680 73060
L78680 73120
L78400 73180
" />
<path d="M79190 72980
L79190 73460
L79170 73510
L79140 73540
L79080 73570
L79000 73570
L78940 73540
" />
<path d="M79190 73340
L79140 73370
L79020 73370
L78970 73340
L78940 73320
L78910 73260
L78910 73090
L78940 73030
L78970 73010
L79020 72980
L79140 72980
L79190 73010
" />
<path d="M79720 72980
L79720 73370
" />
<path d="M79470 72980
L79470 73290
L79500 73340
L79550 73370
L79640 73370
L79700 73340
L79720 73320
" />
<path d="M80080 73370
L80030 73340
L80000 73290
L80000 72780
" />
<path d="M80560 73370
L80560 73060
L80540 73010
L80480 72980
L80370 72980
L80310 73010
" />
<path d="M80560 73340
L80510 73370
L80370 73370
L80310 73340
L80280 73290
L80280 73230
L80310 73180
L80370 73150
L80510 73150
L80560 73120
" />
<path d="M80760 72980
L80980 72980
" />
<path d="M80840 72780
L80840 73290
L80870 73340
L80920 73370
L80980 73370
" />
<path d="M81260 73370
L81210 73340
L81180 73320
L81150 73260
L81150 73090
L81180 73030
L81210 73010
L81260 72980
L81350 72980
L81410 73010
L81430 73030
L81460 73090
L81460 73260
L81430 73320
L81410 73340
L81350 73370
L81260 73370
" />
<path d="M81710 73370
L81710 72980
" />
<path d="M81710 73090
L81740 73030
L81770 73010
L81820 72980
L81880 72980
" />
<path d="M81940 73430
L82390 73430
" />
<path d="M82500 72840
L82530 72810
L82590 72780
L82730 72780
L82780 72810
L82810 72840
L82840 72890
L82840 72950
L82810 73030
L82470 73370
L82840 73370
" />
<path d="M83170 73030
L83120 73010
L83090 72980
L83060 72920
L83060 72890
L83090 72840
L83120 72810
L83170 72780
L83290 72780
L83340 72810
L83370 72840
L83400 72890
L83400 72920
L83370 72980
L83340 73010
L83290 73030
L83170 73030
L83120 73060
L83090 73090
L83060 73150
L83060 73260
L83090 73320
L83120 73340
L83170 73370
L83290 73370
L83340 73340
L83370 73320
L83400 73260
L83400 73150
L83370 73090
L83340 73060
L83290 73030
" />
<path d="M83570 72780
L83760 73370
L83960 72780
" />
<path d="M84160 73150
L84610 73150
" />
<path d="M84810 72980
L85030 72980
" />
<path d="M84890 72780
L84890 73290
L84920 73340
L84970 73370
L85030 73370
" />
<path d="M85310 73370
L85260 73340
L85230 73320
L85200 73260
L85200 73090
L85230 73030
L85260 73010
L85310 72980
L85400 72980
L85460 73010
L85480 73030
L85510 73090
L85510 73260
L85480 73320
L85460 73340
L85400 73370
L85310 73370
" />
<path d="M85760 73150
L86210 73150
" />
<path d="M86770 72780
L86490 72780
L86460 73060
L86490 73030
L86550 73010
L86690 73010
L86740 73030
L86770 73060
L86800 73120
L86800 73260
L86770 73320
L86740 73340
L86690 73370
L86550 73370
L86490 73340
L86460 73320
" />
<path d="M86970 72780
L87160 73370
L87360 72780
" />
<path d="M87560 73320
L87590 73340
L87560 73370
L87530 73340
L87560 73320
L87560 73370
" />
<path d="M87810 73340
L87870 73370
L87980 73370
L88040 73340
L88070 73290
L88070 73260
L88040 73200
L87980 73180
L87900 73180
L87840 73150
L87810 73090
L87810 73060
L87840 73010
L87900 72980
L87980 72980
L88040 73010
" />
<path d="M88570 73340
L88520 73370
L88400 73370
L88350 73340
L88320 73320
L88290 73260
L88290 73090
L88320 73030
L88350 73010
L88400 72980
L88520 72980
L88570 73010
" />
<path d="M88830 73370
L88830 72780
" />
<path d="M89080 73370
L89080 73060
L89060 73010
L89000 72980
L88910 72980
L88860 73010
L88830 73030
" />
</g>
<g style="fill:#840000; fill-opacity:0.0; 
stroke:#840000; stroke-width:100; stroke-opacity:1; 
stroke-linecap:round; stroke-linejoin:round;">
</g>
<g style="fill:#840000; fill-opacity:0.0; 
stroke:#840000; stroke-width:60; stroke-opacity:1; 
stroke-linecap:round; stroke-linejoin:round;">
<path d="M69690 71460
L112210 71460
" />
</g>
<g style="fill:#840000; fill-opacity:0.0; 
stroke:#840000; stroke-width:100; stroke-opacity:1; 
stroke-linecap:round; stroke-linejoin:round;">
</g>
<g style="fill:#840000; fill-opacity:0.0; 
stroke:#840000; stroke-width:60; stroke-opacity:1; 
stroke-linecap:round; stroke-linejoin:round;">
<path d="M70190 72280
L70280 72310
L70420 72310
L70470 72280
L70500 72260
L70530 72200
L70530 72140
L70500 72090
L70470 72060
L70420 72030
L70300 72000
L70250 71970
L70220 71950
L70190 71890
L70190 71830
L70220 71780
L70250 71750
L70300 71720
L70450 71720
L70530 71750
" />
<path d="M70780 72310
L70780 71720
" />
<path d="M71030 72310
L71030 72000
L71010 71950
L70950 71920
L70860 71920
L70810 71950
L70780 71970
" />
<path d="M71540 72280
L71480 72310
L71370 72310
L71310 72280
L71280 72230
L71280 72000
L71310 71950
L71370 71920
L71480 71920
L71540 71950
L71560 72000
L71560 72060
L71280 72120
" />
<path d="M72050 72280
L71990 72310
L71880 72310
L71820 72280
L71790 72230
L71790 72000
L71820 71950
L71880 71920
L71990 71920
L72050 71950
L72070 72000
L72070 72060
L71790 72120
" />
<path d="M72250 71920
L72470 71920
" />
<path d="M72330 71720
L72330 72230
L72360 72280
L72410 72310
L72470 72310
" />
<path d="M72670 72260
L72700 72280
L72670 72310
L72640 72280
L72670 72260
L72670 72310
" />
<path d="M72670 71950
L72700 71970
L72670 72000
L72640 71970
L72670 71950
L72670 72000
" />
<path d="M73820 71690
L73320 72450
" />
<path d="M74020 72310
L74020 71720
L74250 71720
L74300 71750
L74330 71780
L74360 71830
L74360 71920
L74330 71970
L74300 72000
L74250 72030
L74020 72030
" />
<path d="M74690 72310
L74640 72280
L74610 72260
L74580 72200
L74580 72030
L74610 71970
L74640 71950
L74690 71920
L74780 71920
L74840 71950
L74860 71970
L74890 72030
L74890 72200
L74860 72260
L74840 72280
L74780 72310
L74690 72310
" />
<path d="M75080 71920
L75200 72310
L75310 72030
L75420 72310
L75530 71920
" />
<path d="M75990 72280
L75930 72310
L75820 72310
L75760 72280
L75730 72230
L75730 72000
L75760 71950
L75820 71920
L75930 71920
L75990 71950
L76010 72000
L76010 72060
L75730 72120
" />
<path d="M76270 72310
L76270 71920
" />
<path d="M76270 72030
L76300 71970
L76330 71950
L76380 71920
L76440 71920
" />
<path d="M76640 72310
L76640 71720
" />
<path d="M76640 71950
L76700 71920
L76810 71920
L76870 71950
L76890 71970
L76920 72030
L76920 72200
L76890 72260
L76870 72280
L76810 72310
L76700 72310
L76640 72280
" />
<path d="M77250 72310
L77200 72280
L77170 72260
L77140 72200
L77140 72030
L77170 71970
L77200 71950
L77250 71920
L77340 71920
L77400 71950
L77420 71970
L77450 72030
L77450 72200
L77420 72260
L77400 72280
L77340 72310
L77250 72310
" />
<path d="M77950 72310
L77950 72000
L77930 71950
L77870 71920
L77760 71920
L77700 71950
" />
<path d="M77950 72280
L77900 72310
L77760 72310
L77700 72280
L77670 72230
L77670 72170
L77700 72120
L77760 72090
L77900 72090
L77950 72060
" />
<path d="M78230 72310
L78230 71920
" />
<path d="M78230 72030
L78260 71970
L78290 71950
L78340 71920
L78400 71920
" />
<path d="M78850 72310
L78850 71720
" />
<path d="M78850 72280
L78800 72310
L78680 72310
L78630 72280
L78600 72260
L78570 72200
L78570 72030
L78600 71970
L78630 71950
L78680 71920
L78800 71920
L78850 71950
" />
<path d="M79920 72310
L79720 72030
" />
<path d="M79580 72310
L79580 71720
L79810 71720
L79860 71750
L79890 71780
L79920 71830
L79920 71920
L79890 71970
L79860 72000
L79810 72030
L79580 72030
" />
<path d="M80400 72280
L80340 72310
L80230 72310
L80170 72280
L80140 72230
L80140 72000
L80170 71950
L80230 71920
L80340 71920
L80400 71950
L80420 72000
L80420 72060
L80140 72120
" />
<path d="M80930 71920
L80930 72400
L80910 72450
L80880 72480
L80820 72510
L80740 72510
L80680 72480
" />
<path d="M80930 72280
L80880 72310
L80760 72310
L80710 72280
L80680 72260
L80650 72200
L80650 72030
L80680 71970
L80710 71950
L80760 71920
L80880 71920
L80930 71950
" />
<path d="M81460 71920
L81460 72310
" />
<path d="M81210 71920
L81210 72230
L81240 72280
L81290 72310
L81380 72310
L81440 72280
L81460 72260
" />
<path d="M81820 72310
L81770 72280
L81740 72230
L81740 71720
" />
<path d="M82300 72310
L82300 72000
L82280 71950
L82220 71920
L82110 71920
L82050 71950
" />
<path d="M82300 72280
L82250 72310
L82110 72310
L82050 72280
L82020 72230
L82020 72170
L82050 72120
L82110 72090
L82250 72090
L82300 72060
" />
<path d="M82500 71920
L82720 71920
" />
<path d="M82580 71720
L82580 72230
L82610 72280
L82660 72310
L82720 72310
" />
<path d="M83000 72310
L82950 72280
L82920 72260
L82890 72200
L82890 72030
L82920 71970
L82950 71950
L83000 71920
L83090 71920
L83150 71950
L83170 71970
L83200 72030
L83200 72200
L83170 72260
L83150 72280
L83090 72310
L83000 72310
" />
<path d="M83450 72310
L83450 71920
" />
<path d="M83450 72030
L83480 71970
L83510 71950
L83560 71920
L83620 71920
" />
<path d="M84240 71780
L84270 71750
L84330 71720
L84470 71720
L84520 71750
L84550 71780
L84580 71830
L84580 71890
L84550 71970
L84210 72310
L84580 72310
" />
<path d="M84910 71970
L84860 71950
L84830 71920
L84800 71860
L84800 71830
L84830 71780
L84860 71750
L84910 71720
L85030 71720
L85080 71750
L85110 71780
L85140 71830
L85140 71860
L85110 71920
L85080 71950
L85030 71970
L84910 71970
L84860 72000
L84830 72030
L84800 72090
L84800 72200
L84830 72260
L84860 72280
L84910 72310
L85030 72310
L85080 72280
L85110 72260
L85140 72200
L85140 72090
L85110 72030
L85080 72000
L85030 71970
" />
<path d="M85310 71720
L85500 72310
L85700 71720
" />
<path d="M86270 71920
L86490 71920
" />
<path d="M86350 71720
L86350 72230
L86380 72280
L86430 72310
L86490 72310
" />
<path d="M86770 72310
L86720 72280
L86690 72260
L86660 72200
L86660 72030
L86690 71970
L86720 71950
L86770 71920
L86860 71920
L86920 71950
L86940 71970
L86970 72030
L86970 72200
L86940 72260
L86920 72280
L86860 72310
L86770 72310
" />
<path d="M87950 71720
L87670 71720
L87640 72000
L87670 71970
L87730 71950
L87870 71950
L87920 71970
L87950 72000
L87980 72060
L87980 72200
L87950 72260
L87920 72280
L87870 72310
L87730 72310
L87670 72280
L87640 72260
" />
<path d="M88150 71720
L88340 72310
L88540 71720
" />
<path d="M89160 71690
L88660 72450
" />
</g>
<g style="fill:#840000; fill-opacity:0.0; 
stroke:#840000; stroke-width:100; stroke-opacity:1; 
stroke-linecap:round; stroke-linejoin:round;">
</g>
<g style="fill:#840000; fill-opacity:0.0; 
stroke:#840000; stroke-width:60; stroke-opacity:1; 
stroke-linecap:round; stroke-linejoin:round;">
<path d="M77560 75400
L77560 76580
" />
</g>
<g style="fill:#840000; fill-opacity:0.0; 
stroke:#840000; stroke-width:100; stroke-opacity:1; 
stroke-linecap:round; stroke-linejoin:round;">
</g>
<g style="fill:#840000; fill-opacity:0.0; 
stroke:#840000; stroke-width:60; stroke-opacity:1; 
stroke-linecap:round; stroke-linejoin:round;">
<path d="M102760 75400
L102760 77960
" />
</g>
<g style="fill:#840000; fill-opacity:0.0; 
stroke:#840000; stroke-width:0; stroke-opacity:1; 
stroke-linecap:round; stroke-linejoin:round;">
</g>
<g style="fill:#840000; fill-opacity:0.0; 
stroke:#840000; stroke-width:60; stroke-opacity:1; 
stroke-linecap:round; stroke-linejoin:round;">
<rect x="54500" y="32000" width="6000" height="3500" rx="0" />
<path d="M54500 32500
L53500 32500
" />
</g>
<g style="fill:#008484; fill-opacity:0.0; 
stroke:#008484; stroke-width:60; stroke-opacity:1; 
stroke-linecap:round; stroke-linejoin:round;">
<path d="M54950 32230
L55110 32730
L55280 32230
" />
<path d="M55450 32730
L55450 32230
" />
<path d="M55690 32730
L55690 32230
L55970 32730
L55970 32230
" />
</g>
<g style="fill:#840000; fill-opacity:0.0; 
stroke:#840000; stroke-width:60; stroke-opacity:1; 
stroke-linecap:round; stroke-linejoin:round;">
<path d="M54140 32380
L53860 32380
" />
<path d="M54000 32380
L54000 31880
L53950 31950
L53900 32000
L53860 32020
" />
<path d="M54500 33500
L53500 33500
" />
</g>
<g style="fill:#008484; fill-opacity:0.0; 
stroke:#008484; stroke-width:60; stroke-opacity:1; 
stroke-linecap:round; stroke-linejoin:round;">
<path d="M55300 33730
L55140 33490
" />
<path d="M55020 33730
L55020 33230
L55210 33230
L55260 33250
L55280 33270
L55300 33320
L55300 33390
L55280 33440
L55260 33460
L55210 33490
L55020 33490
" />
<path d="M55610 33230
L55710 33230
L55760 33250
L55800 33300
L55830 33390
L55830 33560
L55800 33650
L55760 33700
L55710 33730
L55610 33730
L55570 33700
L55520 33650
L55500 33560
L55500 33390
L55520 33300
L55570 33250
L55610 33230
" />
<path d="M56040 33730
L56040 33230
L56320 33730
L56320 33230
" />
</g>
<g style="fill:#840000; fill-opacity:0.0; 
stroke:#840000; stroke-width:60; stroke-opacity:1; 
stroke-linecap:round; stroke-linejoin:round;">
<path d="M53860 32920
L53880 32900
L53930 32880
L54050 32880
L54090 32900
L54120 32920
L54140 32970
L54140 33020
L54120 33090
L53830 33380
L54140 33380
" />
<path d="M54500 34500
L53500 34500
" />
</g>
<g style="fill:#008484; fill-opacity:0.0; 
stroke:#008484; stroke-width:60; stroke-opacity:1; 
stroke-linecap:round; stroke-linejoin:round;">
<path d="M55020 34460
L55190 34460
" />
<path d="M55260 34730
L55020 34730
L55020 34230
L55260 34230
" />
<path d="M55470 34730
L55470 34230
L55750 34730
L55750 34230
" />
</g>
<g style="fill:#840000; fill-opacity:0.0; 
stroke:#840000; stroke-width:60; stroke-opacity:1; 
stroke-linecap:round; stroke-linejoin:round;">
<path d="M53830 33880
L54140 33880
L53970 34070
L54050 34070
L54090 34090
L54120 34110
L54140 34160
L54140 34280
L54120 34330
L54090 34350
L54050 34380
L53900 34380
L53860 34350
L53830 34330
" />
<path d="M57000 35500
L57000 36500
" />
</g>
<g style="fill:#008484; fill-opacity:0.0; 
stroke:#008484; stroke-width:60; stroke-opacity:1; 
stroke-linecap:round; stroke-linejoin:round;">
<path d="M56750 34720
L56730 34770
L56730 34840
L56750 34910
L56800 34960
L56850 34980
L56940 35000
L57010 35000
L57110 34980
L57150 34960
L57200 34910
L57230 34840
L57230 34790
L57200 34720
L57180 34700
L57010 34700
L57010 34790
" />
<path d="M57230 34480
L56730 34480
L57230 34200
L56730 34200
" />
<path d="M57230 33960
L56730 33960
L56730 33840
L56750 33770
L56800 33720
L56850 33700
L56940 33680
L57010 33680
L57110 33700
L57150 33720
L57200 33770
L57230 33840
L57230 33960
" />
</g>
<g style="fill:#840000; fill-opacity:0.0; 
stroke:#840000; stroke-width:60; stroke-opacity:1; 
stroke-linecap:round; stroke-linejoin:round;">
<path d="M56540 35910
L56880 35910
" />
<path d="M56350 36030
L56710 36140
L56710 35840
" />
<path d="M60500 34500
L61500 34500
" />
</g>
<g style="fill:#008484; fill-opacity:0.0; 
stroke:#008484; stroke-width:60; stroke-opacity:1; 
stroke-linecap:round; stroke-linejoin:round;">
<path d="M59240 34700
L59310 34730
L59430 34730
L59470 34700
L59500 34680
L59520 34630
L59520 34580
L59500 34540
L59470 34510
L59430 34490
L59330 34460
L59280 34440
L59260 34420
L59240 34370
L59240 34320
L59260 34270
L59280 34250
L59330 34230
L59450 34230
L59520 34250
" />
<path d="M59720 34700
L59790 34730
L59910 34730
L59950 34700
L59980 34680
L60000 34630
L60000 34580
L59980 34540
L59950 34510
L59910 34490
L59810 34460
L59760 34440
L59740 34420
L59720 34370
L59720 34320
L59740 34270
L59760 34250
L59810 34230
L59930 34230
L60000 34250
" />
</g>
<g style="fill:#840000; fill-opacity:0.0; 
stroke:#840000; stroke-width:60; stroke-opacity:1; 
stroke-linecap:round; stroke-linejoin:round;">
<path d="M61120 33880
L60880 33880
L60860 34110
L60880 34090
L60930 34070
L61050 34070
L61090 34090
L61120 34110
L61140 34160
L61140 34280
L61120 34330
L61090 34350
L61050 34380
L60930 34380
L60880 34350
L60860 34330
" />
<path d="M60500 33500
L61500 33500
" />
</g>
<g style="fill:#008484; fill-opacity:0.0; 
stroke:#008484; stroke-width:60; stroke-opacity:1; 
stroke-linecap:round; stroke-linejoin:round;">
<path d="M59460 33460
L59290 33460
" />
<path d="M59290 33730
L59290 33230
L59530 33230
" />
<path d="M59890 33460
L59960 33490
L59980 33510
L60000 33560
L60000 33630
L59980 33680
L59960 33700
L59910 33730
L59720 33730
L59720 33230
L59890 33230
L59930 33250
L59960 33270
L59980 33320
L59980 33370
L59960 33420
L59930 33440
L59890 33460
L59720 33460
" />
</g>
<g style="fill:#840000; fill-opacity:0.0; 
stroke:#840000; stroke-width:60; stroke-opacity:1; 
stroke-linecap:round; stroke-linejoin:round;">
<path d="M61090 32880
L61000 32880
L60950 32900
L60930 32920
L60880 33000
L60860 33090
L60860 33280
L60880 33330
L60900 33350
L60950 33380
L61050 33380
L61090 33350
L61120 33330
L61140 33280
L61140 33160
L61120 33110
L61090 33090
L61050 33070
L60950 33070
L60900 33090
L60880 33110
L60860 33160
" />
<path d="M60500 32500
L61500 32500
" />
</g>
<g style="fill:#008484; fill-opacity:0.0; 
stroke:#008484; stroke-width:60; stroke-opacity:1; 
stroke-linecap:round; stroke-linejoin:round;">
<path d="M58300 32230
L58460 32730
L58630 32230
" />
<path d="M58890 32230
L58990 32230
L59040 32250
L59080 32300
L59110 32390
L59110 32560
L59080 32650
L59040 32700
L58990 32730
L58890 32730
L58850 32700
L58800 32650
L58780 32560
L58780 32390
L58800 32300
L58850 32250
L58890 32230
" />
<path d="M59320 32230
L59320 32630
L59340 32680
L59370 32700
L59410 32730
L59510 32730
L59560 32700
L59580 32680
L59600 32630
L59600 32230
" />
<path d="M59770 32230
L60050 32230
" />
<path d="M59910 32730
L59910 32230
" />
</g>
<g style="fill:#840000; fill-opacity:0.0; 
stroke:#840000; stroke-width:60; stroke-opacity:1; 
stroke-linecap:round; stroke-linejoin:round;">
<path d="M60830 31880
L61160 31880
L60950 32380
" />
<path d="M58000 35500
L58000 36500
" />
</g>
<g style="fill:#008484; fill-opacity:0.0; 
stroke:#008484; stroke-width:60; stroke-opacity:1; 
stroke-linecap:round; stroke-linejoin:round;">
<path d="M57750 34720
L57730 34770
L57730 34840
L57750 34910
L57800 34960
L57850 34980
L57940 35000
L58010 35000
L58110 34980
L58150 34960
L58200 34910
L58230 34840
L58230 34790
L58200 34720
L58180 34700
L58010 34700
L58010 34790
" />
<path d="M58230 34480
L57730 34480
L58230 34200
L57730 34200
" />
<path d="M58230 33960
L57730 33960
L57730 33840
L57750 33770
L57800 33720
L57850 33700
L57940 33680
L58010 33680
L58110 33700
L58150 33720
L58200 33770
L58230 33840
L58230 33960
" />
</g>
<g style="fill:#840000; fill-opacity:0.0; 
stroke:#840000; stroke-width:60; stroke-opacity:1; 
stroke-linecap:round; stroke-linejoin:round;">
<path d="M57590 36050
L57570 36100
L57540 36120
L57500 36140
L57470 36140
L57420 36120
L57400 36100
L57380 36050
L57380 35950
L57400 35910
L57420 35880
L57470 35860
L57500 35860
L57540 35880
L57570 35910
L57590 35950
L57590 36050
L57610 36100
L57640 36120
L57690 36140
L57780 36140
L57830 36120
L57850 36100
L57880 36050
L57880 35950
L57850 35910
L57830 35880
L57780 35860
L57690 35860
L57640 35880
L57610 35910
L57590 35950
" />
</g>
<g style="fill:#008484; fill-opacity:0.0; 
stroke:#008484; stroke-width:60; stroke-opacity:1; 
stroke-linecap:round; stroke-linejoin:round;">
<path d="M59070 35710
L59070 36200
L59100 36250
L59130 36280
L59190 36310
L59300 36310
L59360 36280
L59390 36250
L59420 36200
L59420 35710
" />
<path d="M59790 36250
L59820 36280
L59790 36310
L59760 36280
L59790 36250
L59790 36310
" />
<path d="M59670 35740
L59730 35710
L59870 35710
L59930 35740
L59960 35800
L59960 35850
L59930 35910
L59900 35940
L59850 35970
L59820 36000
L59790 36050
L59790 36080
" />
<path d="M55630 31810
L55340 31810
L55340 31210
" />
<path d="M55830 31810
L55830 31210
L56030 31640
L56230 31210
L56230 31810
" />
<path d="M56470 31210
L56870 31210
L56470 31810
L56870 31810
" />
<path d="M57410 31810
L57060 31810
" />
<path d="M57240 31810
L57240 31210
L57180 31300
L57120 31350
L57060 31380
" />
<path d="M57920 31410
L57920 31810
" />
<path d="M57780 31180
L57630 31610
L58010 31610
" />
<path d="M58200 31270
L58230 31240
L58290 31210
L58430 31210
L58490 31240
L58520 31270
L58550 31330
L58550 31380
L58520 31470
L58180 31810
L58550 31810
" />
<path d="M58920 31210
L58970 31210
L59030 31240
L59060 31270
L59090 31330
L59120 31440
L59120 31580
L59090 31700
L59060 31750
L59030 31780
L58970 31810
L58920 31810
L58860 31780
L58830 31750
L58800 31700
L58770 31580
L58770 31440
L58800 31330
L58830 31270
L58860 31240
L58920 31210
" />
<path d="M59320 31210
L59690 31210
L59490 31440
L59570 31440
L59630 31470
L59660 31500
L59690 31550
L59690 31700
L59660 31750
L59630 31780
L59570 31810
L59400 31810
L59340 31780
L59320 31750
" />
</g>
<g style="fill:#008484; fill-opacity:0.0; 
stroke:#008484; stroke-width:0; stroke-opacity:1; 
stroke-linecap:round; stroke-linejoin:round;">
</g>
<g style="fill:#840000; fill-opacity:0.0; 
stroke:#840000; stroke-width:0; stroke-opacity:1; 
stroke-linecap:round; stroke-linejoin:round;">
</g>
<g style="fill:#840000; fill-opacity:0.0; 
stroke:#840000; stroke-width:60; stroke-opacity:1; 
stroke-linecap:round; stroke-linejoin:round;">
<line x1="42600" y1="35600" x2="42600" y2="35800" />
<line x1="42600" y1="35800" x2="44400" y2="35800" />
</g>
<g style="fill:#840000; fill-opacity:1.0; 
stroke:#840000; stroke-width:60; stroke-opacity:1; 
stroke-linecap:round; stroke-linejoin:round;">
<rect x="42600" y="36200" width="1800" height="200" rx="0" />
</g>
<g style="fill:#840000; fill-opacity:0.0; 
stroke:#840000; stroke-width:60; stroke-opacity:1; 
stroke-linecap:round; stroke-linejoin:round;">
<line x1="42600" y1="35600" x2="44400" y2="35600" />
<line x1="44400" y1="35600" x2="44400" y2="35800" />
<polyline fill="none;"
points="42800,35100
43200,35100
" /> 
<polyline fill="none;"
points="43000,34900
43000,35300
" /> 
<path d="M43500 35600
L43500 34500
" />
<path d="M43500 36400
L43500 37500
" />
</g>
<g style="fill:#008484; fill-opacity:0.0; 
stroke:#008484; stroke-width:60; stroke-opacity:1; 
stroke-linecap:round; stroke-linejoin:round;">
<path d="M44150 35210
L44130 35230
L44060 35260
L44010 35260
L43940 35230
L43890 35180
L43870 35140
L43850 35040
L43850 34970
L43870 34880
L43890 34830
L43940 34780
L44010 34760
L44060 34760
L44130 34780
L44150 34800
" />
<path d="M44440 35210
L44460 35230
L44440 35260
L44420 35230
L44440 35210
L44440 35260
" />
<path d="M44350 34780
L44390 34760
L44510 34760
L44560 34780
L44580 34830
L44580 34880
L44560 34920
L44540 34950
L44490 34970
L44460 34990
L44440 35040
L44440 35070
" />
<path d="M43260 39610
L43260 39890
" />
<path d="M43260 39750
L42760 39750
L42830 39800
L42880 39850
L42900 39890
" />
<path d="M42760 39300
L42760 39250
L42780 39200
L42800 39180
L42850 39150
L42950 39130
L43070 39130
L43160 39150
L43210 39180
L43230 39200
L43260 39250
L43260 39300
L43230 39340
L43210 39370
L43160 39390
L43070 39410
L42950 39410
L42850 39390
L42800 39370
L42780 39340
L42760 39300
" />
<path d="M42920 38910
L43420 38910
" />
<path d="M43180 38670
L43230 38650
L43260 38600
" />
<path d="M43180 38910
L43230 38890
L43260 38840
L43260 38740
L43230 38700
L43180 38670
L42920 38670
" />
<path d="M42730 38030
L43380 38460
" />
<path d="M42920 37660
L43260 37660
" />
<path d="M42730 37780
L43090 37890
L43090 37590
" />
<path d="M42760 37300
L42760 37250
L42780 37200
L42800 37180
L42850 37150
L42950 37130
L43070 37130
L43160 37150
L43210 37180
L43230 37200
L43260 37250
L43260 37300
L43230 37340
L43210 37370
L43160 37390
L43070 37410
L42950 37410
L42850 37390
L42800 37370
L42780 37340
L42760 37300
" />
<path d="M42760 36980
L43260 36820
L42760 36650
" />
</g>
<g style="fill:#008484; fill-opacity:0.0; 
stroke:#008484; stroke-width:0; stroke-opacity:1; 
stroke-linecap:round; stroke-linejoin:round;">
</g>
<g style="fill:#840000; fill-opacity:0.0; 
stroke:#840000; stroke-width:0; stroke-opacity:1; 
stroke-linecap:round; stroke-linejoin:round;">
</g>
<g style="fill:#840000; fill-opacity:0.0; 
stroke:#840000; stroke-width:200; stroke-opacity:1; 
stroke-linecap:round; stroke-linejoin:round;">
<polyline fill="none;"
points="45200,36300
46800,36300
" /> 
<polyline fill="none;"
points="45200,35700
46800,35700
" /> 
</g>
<g style="fill:#840000; fill-opacity:0.0; 
stroke:#840000; stroke-width:60; stroke-opacity:1; 
stroke-linecap:round; stroke-linejoin:round;">
<path d="M46000 35600
L46000 34500
" />
<path d="M46000 36400
L46000 37500
" />
</g>
<g style="fill:#008484; fill-opacity:0.0; 
stroke:#008484; stroke-width:60; stroke-opacity:1; 
stroke-linecap:round; stroke-linejoin:round;">
<path d="M46650 35210
L46630 35230
L46560 35260
L46510 35260
L46440 35230
L46390 35180
L46370 35140
L46350 35040
L46350 34970
L46370 34880
L46390 34830
L46440 34780
L46510 34760
L46560 34760
L46630 34780
L46650 34800
" />
<path d="M46940 35210
L46960 35230
L46940 35260
L46920 35230
L46940 35210
L46940 35260
" />
<path d="M46850 34780
L46890 34760
L47010 34760
L47060 34780
L47080 34830
L47080 34880
L47060 34920
L47040 34950
L46990 34970
L46960 34990
L46940 35040
L46940 35070
" />
<path d="M45760 39110
L45760 39390
" />
<path d="M45760 39250
L45260 39250
L45330 39300
L45380 39350
L45400 39390
" />
<path d="M45420 38890
L45920 38890
" />
<path d="M45680 38650
L45730 38630
L45760 38580
" />
<path d="M45680 38890
L45730 38870
L45760 38820
L45760 38720
L45730 38680
L45680 38650
L45420 38650
" />
<path d="M45230 38010
L45880 38440
" />
<path d="M45420 37640
L45760 37640
" />
<path d="M45230 37760
L45590 37870
L45590 37570
" />
<path d="M45260 37280
L45260 37230
L45280 37180
L45300 37160
L45350 37130
L45450 37110
L45570 37110
L45660 37130
L45710 37160
L45730 37180
L45760 37230
L45760 37280
L45730 37320
L45710 37350
L45660 37370
L45570 37390
L45450 37390
L45350 37370
L45300 37350
L45280 37320
L45260 37280
" />
<path d="M45260 36960
L45760 36800
L45260 36630
" />
</g>
<g style="fill:#008484; fill-opacity:0.0; 
stroke:#008484; stroke-width:0; stroke-opacity:1; 
stroke-linecap:round; stroke-linejoin:round;">
</g>
<g style="fill:#840000; fill-opacity:0.0; 
stroke:#840000; stroke-width:0; stroke-opacity:1; 
stroke-linecap:round; stroke-linejoin:round;">
</g>
<g style="fill:#840000; fill-opacity:0.0; 
stroke:#840000; stroke-width:100; stroke-opacity:1; 
stroke-linecap:round; stroke-linejoin:round;">
<rect x="47600" y="35000" width="800" height="2000" rx="0" />
</g>
<g style="fill:#840000; fill-opacity:0.0; 
stroke:#840000; stroke-width:60; stroke-opacity:1; 
stroke-linecap:round; stroke-linejoin:round;">
<path d="M48000 35000
L48000 34500
" />
<path d="M48000 37000
L48000 37500
" />
</g>
<g style="fill:#008484; fill-opacity:0.0; 
stroke:#008484; stroke-width:60; stroke-opacity:1; 
stroke-linecap:round; stroke-linejoin:round;">
<path d="M49060 36050
L48820 36210
" />
<path d="M49060 36330
L48560 36330
L48560 36140
L48580 36090
L48600 36070
L48650 36050
L48720 36050
L48770 36070
L48790 36090
L48820 36140
L48820 36330
" />
<path d="M49010 35760
L49030 35740
L49060 35760
L49030 35780
L49010 35760
L49060 35760
" />
<path d="M48580 35850
L48560 35810
L48560 35690
L48580 35640
L48630 35620
L48680 35620
L48720 35640
L48750 35660
L48770 35710
L48790 35740
L48840 35760
L48870 35760
" />
<path d="M47760 36590
L47760 36680
L47780 36730
L47800 36750
L47880 36800
L47970 36820
L48160 36820
L48210 36800
L48230 36780
L48260 36730
L48260 36630
L48230 36590
L48210 36560
L48160 36540
L48040 36540
L47990 36560
L47970 36590
L47950 36630
L47950 36730
L47970 36780
L47990 36800
L48040 36820
" />
<path d="M47970 36250
L47950 36300
L47920 36320
L47880 36340
L47850 36340
L47800 36320
L47780 36300
L47760 36250
L47760 36150
L47780 36110
L47800 36080
L47850 36060
L47880 36060
L47920 36080
L47950 36110
L47970 36150
L47970 36250
L47990 36300
L48020 36320
L48070 36340
L48160 36340
L48210 36320
L48230 36300
L48260 36250
L48260 36150
L48230 36110
L48210 36080
L48160 36060
L48070 36060
L48020 36080
L47990 36110
L47970 36150
" />
<path d="M48260 35840
L47760 35840
" />
<path d="M48070 35790
L48260 35650
" />
<path d="M47920 35650
L48110 35840
" />
<path d="M48260 35180
L48260 35460
" />
<path d="M48260 35320
L47760 35320
L47830 35370
L47880 35420
L47900 35460
" />
</g>
<g style="fill:#008484; fill-opacity:0.0; 
stroke:#008484; stroke-width:0; stroke-opacity:1; 
stroke-linecap:round; stroke-linejoin:round;">
</g>
<g style="fill:#840000; fill-opacity:0.0; 
stroke:#840000; stroke-width:0; stroke-opacity:1; 
stroke-linecap:round; stroke-linejoin:round;">
</g>
<g style="fill:#840000; fill-opacity:0.0; 
stroke:#840000; stroke-width:100; stroke-opacity:1; 
stroke-linecap:round; stroke-linejoin:round;">
<rect x="50000" y="33100" width="2000" height="800" rx="0" />
</g>
<g style="fill:#840000; fill-opacity:0.0; 
stroke:#840000; stroke-width:60; stroke-opacity:1; 
stroke-linecap:round; stroke-linejoin:round;">
<path d="M52000 33500
L52500 33500
" />
<path d="M50000 33500
L49500 33500
" />
</g>
<g style="fill:#008484; fill-opacity:0.0; 
stroke:#008484; stroke-width:60; stroke-opacity:1; 
stroke-linecap:round; stroke-linejoin:round;">
<path d="M50940 34560
L50780 34320
" />
<path d="M50660 34560
L50660 34060
L50850 34060
L50900 34080
L50920 34100
L50940 34150
L50940 34220
L50920 34270
L50900 34290
L50850 34320
L50660 34320
" />
<path d="M51230 34510
L51250 34530
L51230 34560
L51210 34530
L51230 34510
L51230 34560
" />
<path d="M51140 34080
L51180 34060
L51300 34060
L51350 34080
L51370 34130
L51370 34180
L51350 34220
L51330 34250
L51280 34270
L51250 34290
L51230 34340
L51230 34370
" />
<path d="M50460 33760
L50180 33760
" />
<path d="M50320 33760
L50320 33260
L50270 33330
L50220 33380
L50180 33400
" />
<path d="M50770 33260
L50820 33260
L50870 33280
L50890 33300
L50920 33350
L50940 33450
L50940 33570
L50920 33660
L50890 33710
L50870 33730
L50820 33760
L50770 33760
L50730 33730
L50700 33710
L50680 33660
L50660 33570
L50660 33450
L50680 33350
L50700 33300
L50730 33280
L50770 33260
" />
<path d="M51250 33260
L51300 33260
L51350 33280
L51370 33300
L51400 33350
L51420 33450
L51420 33570
L51400 33660
L51370 33710
L51350 33730
L51300 33760
L51250 33760
L51210 33730
L51180 33710
L51160 33660
L51140 33570
L51140 33450
L51160 33350
L51180 33300
L51210 33280
L51250 33260
" />
<path d="M51640 33760
L51640 33260
" />
<path d="M51690 33570
L51830 33760
" />
<path d="M51830 33420
L51640 33610
" />
</g>
<g style="fill:#008484; fill-opacity:0.0; 
stroke:#008484; stroke-width:0; stroke-opacity:1; 
stroke-linecap:round; stroke-linejoin:round;">
</g>
<g style="fill:#840000; fill-opacity:0.0; 
stroke:#840000; stroke-width:0; stroke-opacity:1; 
stroke-linecap:round; stroke-linejoin:round;">
</g>
<g style="fill:#840000; fill-opacity:0.0; 
stroke:#840000; stroke-width:100; stroke-opacity:1; 
stroke-linecap:round; stroke-linejoin:round;">
<rect x="47600" y="40000" width="800" height="2000" rx="0" />
</g>
<g style="fill:#840000; fill-opacity:0.0; 
stroke:#840000; stroke-width:60; stroke-opacity:1; 
stroke-linecap:round; stroke-linejoin:round;">
<path d="M48000 40000
L48000 39500
" />
<path d="M48000 42000
L48000 42500
" />
</g>
<g style="fill:#008484; fill-opacity:0.0; 
stroke:#008484; stroke-width:60; stroke-opacity:1; 
stroke-linecap:round; stroke-linejoin:round;">
<path d="M49060 41050
L48820 41210
" />
<path d="M49060 41330
L48560 41330
L48560 41140
L48580 41090
L48600 41070
L48650 41050
L48720 41050
L48770 41070
L48790 41090
L48820 41140
L48820 41330
" />
<path d="M49010 40760
L49030 40740
L49060 40760
L49030 40780
L49010 40760
L49060 40760
" />
<path d="M48580 40850
L48560 40810
L48560 40690
L48580 40640
L48630 40620
L48680 40620
L48720 40640
L48750 40660
L48770 40710
L48790 40740
L48840 40760
L48870 40760
" />
<path d="M48260 41540
L48260 41820
" />
<path d="M48260 41680
L47760 41680
L47830 41730
L47880 41780
L47900 41820
" />
<path d="M48260 41060
L48260 41340
" />
<path d="M48260 41200
L47760 41200
L47830 41250
L47880 41300
L47900 41340
" />
<path d="M48260 40840
L47760 40840
" />
<path d="M48070 40790
L48260 40650
" />
<path d="M47920 40650
L48110 40840
" />
<path d="M47970 40370
L47950 40420
L47920 40440
L47880 40460
L47850 40460
L47800 40440
L47780 40420
L47760 40370
L47760 40270
L47780 40230
L47800 40200
L47850 40180
L47880 40180
L47920 40200
L47950 40230
L47970 40270
L47970 40370
L47990 40420
L48020 40440
L48070 40460
L48160 40460
L48210 40440
L48230 40420
L48260 40370
L48260 40270
L48230 40230
L48210 40200
L48160 40180
L48070 40180
L48020 40200
L47990 40230
L47970 40270
" />
</g>
<g style="fill:#008484; fill-opacity:0.0; 
stroke:#008484; stroke-width:0; stroke-opacity:1; 
stroke-linecap:round; stroke-linejoin:round;">
</g>
<g style="fill:#840000; fill-opacity:0.0; 
stroke:#840000; stroke-width:0; stroke-opacity:1; 
stroke-linecap:round; stroke-linejoin:round;">
</g>
<g style="fill:#840000; fill-opacity:0.0; 
stroke:#840000; stroke-width:60; stroke-opacity:1; 
stroke-linecap:round; stroke-linejoin:round;">
<polyline fill="none;"
points="57500,44500
57500,45000
58000,45000
57500,45500
57000,45000
57500,45000
" /> 
</g>
<g style="fill:#008484; fill-opacity:0.0; 
stroke:#008484; stroke-width:60; stroke-opacity:1; 
stroke-linecap:round; stroke-linejoin:round;">
<path d="M57120 45780
L57070 45760
L57000 45760
L56930 45780
L56880 45830
L56860 45880
L56840 45970
L56840 46040
L56860 46140
L56880 46180
L56930 46230
L57000 46260
L57050 46260
L57120 46230
L57140 46210
L57140 46040
L57050 46040
" />
<path d="M57360 46260
L57360 45760
L57640 46260
L57640 45760
" />
<path d="M57880 46260
L57880 45760
L58000 45760
L58070 45780
L58120 45830
L58140 45880
L58160 45970
L58160 46040
L58140 46140
L58120 46180
L58070 46230
L58000 46260
L57880 46260
" />
</g>
<g style="fill:#008484; fill-opacity:0.0; 
stroke:#008484; stroke-width:0; stroke-opacity:1; 
stroke-linecap:round; stroke-linejoin:round;">
</g>
<g style="fill:#840000; fill-opacity:0.0; 
stroke:#840000; stroke-width:0; stroke-opacity:1; 
stroke-linecap:round; stroke-linejoin:round;">
</g>
<g style="fill:#840000; fill-opacity:0.0; 
stroke:#840000; stroke-width:200; stroke-opacity:1; 
stroke-linecap:round; stroke-linejoin:round;">
<polyline fill="none;"
points="61200,41300
62800,41300
" /> 
<polyline fill="none;"
points="61200,40700
62800,40700
" /> 
</g>
<g style="fill:#840000; fill-opacity:0.0; 
stroke:#840000; stroke-width:60; stroke-opacity:1; 
stroke-linecap:round; stroke-linejoin:round;">
<path d="M62000 40600
L62000 39500
" />
<path d="M62000 41400
L62000 42500
" />
</g>
<g style="fill:#008484; fill-opacity:0.0; 
stroke:#008484; stroke-width:60; stroke-opacity:1; 
stroke-linecap:round; stroke-linejoin:round;">
<path d="M62650 40210
L62630 40230
L62560 40260
L62510 40260
L62440 40230
L62390 40180
L62370 40140
L62350 40040
L62350 39970
L62370 39880
L62390 39830
L62440 39780
L62510 39760
L62560 39760
L62630 39780
L62650 39800
" />
<path d="M62940 40210
L62960 40230
L62940 40260
L62920 40230
L62940 40210
L62940 40260
" />
<path d="M62850 39780
L62890 39760
L63010 39760
L63060 39780
L63080 39830
L63080 39880
L63060 39920
L63040 39950
L62990 39970
L62960 39990
L62940 40040
L62940 40070
" />
<path d="M62350 41800
L62370 41780
L62420 41760
L62540 41760
L62580 41780
L62610 41800
L62630 41850
L62630 41900
L62610 41970
L62320 42260
L62630 42260
" />
<path d="M62830 41800
L62850 41780
L62900 41760
L63020 41760
L63060 41780
L63090 41800
L63110 41850
L63110 41900
L63090 41970
L62800 42260
L63110 42260
" />
<path d="M63330 41920
L63330 42260
" />
<path d="M63330 41970
L63350 41950
L63400 41920
L63470 41920
L63520 41950
L63540 41990
L63540 42260
" />
</g>
<g style="fill:#008484; fill-opacity:0.0; 
stroke:#008484; stroke-width:0; stroke-opacity:1; 
stroke-linecap:round; stroke-linejoin:round;">
</g>
<g style="fill:#840000; fill-opacity:0.0; 
stroke:#840000; stroke-width:0; stroke-opacity:1; 
stroke-linecap:round; stroke-linejoin:round;">
</g>
<g style="fill:#840000; fill-opacity:0.0; 
stroke:#840000; stroke-width:100; stroke-opacity:1; 
stroke-linecap:round; stroke-linejoin:round;">
<rect x="64600" y="36000" width="800" height="2000" rx="0" />
</g>
<g style="fill:#840000; fill-opacity:0.0; 
stroke:#840000; stroke-width:60; stroke-opacity:1; 
stroke-linecap:round; stroke-linejoin:round;">
<path d="M65000 36000
L65000 35500
" />
<path d="M65000 38000
L65000 38500
" />
</g>
<g style="fill:#008484; fill-opacity:0.0; 
stroke:#008484; stroke-width:60; stroke-opacity:1; 
stroke-linecap:round; stroke-linejoin:round;">
<path d="M66060 37050
L65820 37210
" />
<path d="M66060 37330
L65560 37330
L65560 37140
L65580 37090
L65600 37070
L65650 37050
L65720 37050
L65770 37070
L65790 37090
L65820 37140
L65820 37330
" />
<path d="M66010 36760
L66030 36740
L66060 36760
L66030 36780
L66010 36760
L66060 36760
" />
<path d="M65580 36850
L65560 36810
L65560 36690
L65580 36640
L65630 36620
L65680 36620
L65720 36640
L65750 36660
L65770 36710
L65790 36740
L65840 36760
L65870 36760
" />
<path d="M64760 37560
L64760 37800
L64990 37820
L64970 37800
L64950 37750
L64950 37630
L64970 37590
L64990 37560
L65040 37540
L65160 37540
L65210 37560
L65230 37590
L65260 37630
L65260 37750
L65230 37800
L65210 37820
" />
<path d="M65260 37320
L64760 37320
" />
<path d="M65070 37270
L65260 37130
" />
<path d="M64920 37130
L65110 37320
" />
<path d="M64760 36710
L64760 36800
L64780 36850
L64800 36870
L64880 36920
L64970 36940
L65160 36940
L65210 36920
L65230 36900
L65260 36850
L65260 36750
L65230 36710
L65210 36680
L65160 36660
L65040 36660
L64990 36680
L64970 36710
L64950 36750
L64950 36850
L64970 36900
L64990 36920
L65040 36940
" />
<path d="M64800 36460
L64780 36440
L64760 36390
L64760 36270
L64780 36230
L64800 36200
L64850 36180
L64900 36180
L64970 36200
L65260 36490
L65260 36180
" />
</g>
<g style="fill:#008484; fill-opacity:0.0; 
stroke:#008484; stroke-width:0; stroke-opacity:1; 
stroke-linecap:round; stroke-linejoin:round;">
</g>
<g style="fill:#840000; fill-opacity:0.0; 
stroke:#840000; stroke-width:0; stroke-opacity:1; 
stroke-linecap:round; stroke-linejoin:round;">
</g>
<g style="fill:#840000; fill-opacity:0.0; 
stroke:#840000; stroke-width:200; stroke-opacity:1; 
stroke-linecap:round; stroke-linejoin:round;">
<polyline fill="none;"
points="66200,37300
67800,37300
" /> 
<polyline fill="none;"
points="66200,36700
67800,36700
" /> 
</g>
<g style="fill:#840000; fill-opacity:0.0; 
stroke:#840000; stroke-width:60; stroke-opacity:1; 
stroke-linecap:round; stroke-linejoin:round;">
<path d="M67000 36600
L67000 35500
" />
<path d="M67000 37400
L67000 38500
" />
</g>
<g style="fill:#008484; fill-opacity:0.0; 
stroke:#008484; stroke-width:60; stroke-opacity:1; 
stroke-linecap:round; stroke-linejoin:round;">
<path d="M67650 36210
L67630 36230
L67560 36260
L67510 36260
L67440 36230
L67390 36180
L67370 36140
L67350 36040
L67350 35970
L67370 35880
L67390 35830
L67440 35780
L67510 35760
L67560 35760
L67630 35780
L67650 35800
" />
<path d="M67940 36210
L67960 36230
L67940 36260
L67920 36230
L67940 36210
L67940 36260
" />
<path d="M67850 35780
L67890 35760
L68010 35760
L68060 35780
L68080 35830
L68080 35880
L68060 35920
L68040 35950
L67990 35970
L67960 35990
L67940 36040
L67940 36070
" />
<path d="M67350 37800
L67370 37780
L67420 37760
L67540 37760
L67580 37780
L67610 37800
L67630 37850
L67630 37900
L67610 37970
L67320 38260
L67630 38260
" />
<path d="M67830 37800
L67850 37780
L67900 37760
L68020 37760
L68060 37780
L68090 37800
L68110 37850
L68110 37900
L68090 37970
L67800 38260
L68110 38260
" />
<path d="M68330 37920
L68330 38260
" />
<path d="M68330 37970
L68350 37950
L68400 37920
L68470 37920
L68520 37950
L68540 37990
L68540 38260
" />
</g>
<g style="fill:#008484; fill-opacity:0.0; 
stroke:#008484; stroke-width:0; stroke-opacity:1; 
stroke-linecap:round; stroke-linejoin:round;">
</g>
<g style="fill:#840000; fill-opacity:0.0; 
stroke:#840000; stroke-width:0; stroke-opacity:1; 
stroke-linecap:round; stroke-linejoin:round;">
</g>
<g style="fill:#840000; fill-opacity:0.0; 
stroke:#840000; stroke-width:100; stroke-opacity:1; 
stroke-linecap:round; stroke-linejoin:round;">
<rect x="65600" y="40000" width="800" height="2000" rx="0" />
</g>
<g style="fill:#840000; fill-opacity:0.0; 
stroke:#840000; stroke-width:60; stroke-opacity:1; 
stroke-linecap:round; stroke-linejoin:round;">
<path d="M66000 40000
L66000 39500
" />
<path d="M66000 42000
L66000 42500
" />
</g>
<g style="fill:#008484; fill-opacity:0.0; 
stroke:#008484; stroke-width:60; stroke-opacity:1; 
stroke-linecap:round; stroke-linejoin:round;">
<path d="M67060 41050
L66820 41210
" />
<path d="M67060 41330
L66560 41330
L66560 41140
L66580 41090
L66600 41070
L66650 41050
L66720 41050
L66770 41070
L66790 41090
L66820 41140
L66820 41330
" />
<path d="M67010 40760
L67030 40740
L67060 40760
L67030 40780
L67010 40760
L67060 40760
" />
<path d="M66580 40850
L66560 40810
L66560 40690
L66580 40640
L66630 40620
L66680 40620
L66720 40640
L66750 40660
L66770 40710
L66790 40740
L66840 40760
L66870 40760
" />
<path d="M66260 41540
L66260 41820
" />
<path d="M66260 41680
L65760 41680
L65830 41730
L65880 41780
L65900 41820
" />
<path d="M66260 41320
L65760 41320
" />
<path d="M66070 41270
L66260 41130
" />
<path d="M65920 41130
L66110 41320
" />
<path d="M65760 40830
L65760 40780
L65780 40730
L65800 40710
L65850 40680
L65950 40660
L66070 40660
L66160 40680
L66210 40710
L66230 40730
L66260 40780
L66260 40830
L66230 40870
L66210 40900
L66160 40920
L66070 40940
L65950 40940
L65850 40920
L65800 40900
L65780 40870
L65760 40830
" />
<path d="M65760 40490
L65760 40160
L66260 40370
" />
</g>
<g style="fill:#008484; fill-opacity:0.0; 
stroke:#008484; stroke-width:0; stroke-opacity:1; 
stroke-linecap:round; stroke-linejoin:round;">
</g>
<g style="fill:#840000; fill-opacity:0.0; 
stroke:#840000; stroke-width:0; stroke-opacity:1; 
stroke-linecap:round; stroke-linejoin:round;">
</g>
<g style="fill:#840000; fill-opacity:0.0; 
stroke:#840000; stroke-width:200; stroke-opacity:1; 
stroke-linecap:round; stroke-linejoin:round;">
<polyline fill="none;"
points="70200,35300
71800,35300
" /> 
<polyline fill="none;"
points="70200,34700
71800,34700
" /> 
</g>
<g style="fill:#840000; fill-opacity:0.0; 
stroke:#840000; stroke-width:60; stroke-opacity:1; 
stroke-linecap:round; stroke-linejoin:round;">
<path d="M71000 34600
L71000 33500
" />
<path d="M71000 35400
L71000 36500
" />
</g>
<g style="fill:#008484; fill-opacity:0.0; 
stroke:#008484; stroke-width:60; stroke-opacity:1; 
stroke-linecap:round; stroke-linejoin:round;">
<path d="M71650 34210
L71630 34230
L71560 34260
L71510 34260
L71440 34230
L71390 34180
L71370 34140
L71350 34040
L71350 33970
L71370 33880
L71390 33830
L71440 33780
L71510 33760
L71560 33760
L71630 33780
L71650 33800
" />
<path d="M71940 34210
L71960 34230
L71940 34260
L71920 34230
L71940 34210
L71940 34260
" />
<path d="M71850 33780
L71890 33760
L72010 33760
L72060 33780
L72080 33830
L72080 33880
L72060 33920
L72040 33950
L71990 33970
L71960 33990
L71940 34040
L71940 34070
" />
<path d="M71630 36260
L71350 36260
" />
<path d="M71490 36260
L71490 35760
L71440 35830
L71390 35880
L71350 35900
" />
<path d="M71850 35920
L71850 36420
" />
<path d="M72090 36180
L72110 36230
L72160 36260
" />
<path d="M71850 36180
L71870 36230
L71920 36260
L72020 36260
L72060 36230
L72090 36180
L72090 35920
" />
</g>
<g style="fill:#008484; fill-opacity:0.0; 
stroke:#008484; stroke-width:0; stroke-opacity:1; 
stroke-linecap:round; stroke-linejoin:round;">
</g>
<g style="fill:#840000; fill-opacity:0.0; 
stroke:#840000; stroke-width:0; stroke-opacity:1; 
stroke-linecap:round; stroke-linejoin:round;">
</g>
<g style="fill:#840000; fill-opacity:0.0; 
stroke:#840000; stroke-width:60; stroke-opacity:1; 
stroke-linecap:round; stroke-linejoin:round;">
<line x1="72600" y1="34600" x2="72600" y2="34800" />
<line x1="72600" y1="34800" x2="74400" y2="34800" />
</g>
<g style="fill:#840000; fill-opacity:1.0; 
stroke:#840000; stroke-width:60; stroke-opacity:1; 
stroke-linecap:round; stroke-linejoin:round;">
<rect x="72600" y="35200" width="1800" height="200" rx="0" />
</g>
<g style="fill:#840000; fill-opacity:0.0; 
stroke:#840000; stroke-width:60; stroke-opacity:1; 
stroke-linecap:round; stroke-linejoin:round;">
<line x1="72600" y1="34600" x2="74400" y2="34600" />
<line x1="74400" y1="34600" x2="74400" y2="34800" />
<polyline fill="none;"
points="72800,34100
73200,34100
" /> 
<polyline fill="none;"
points="73000,33900
73000,34300
" /> 
<path d="M73500 34600
L73500 33500
" />
<path d="M73500 35400
L73500 36500
" />
</g>
<g style="fill:#008484; fill-opacity:0.0; 
stroke:#008484; stroke-width:60; stroke-opacity:1; 
stroke-linecap:round; stroke-linejoin:round;">
<path d="M74150 34210
L74130 34230
L74060 34260
L74010 34260
L73940 34230
L73890 34180
L73870 34140
L73850 34040
L73850 33970
L73870 33880
L73890 33830
L73940 33780
L74010 33760
L74060 33760
L74130 33780
L74150 33800
" />
<path d="M74440 34210
L74460 34230
L74440 34260
L74420 34230
L74440 34210
L74440 34260
" />
<path d="M74350 33780
L74390 33760
L74510 33760
L74560 33780
L74580 33830
L74580 33880
L74560 33920
L74540 33950
L74490 33970
L74460 33990
L74440 34040
L74440 34070
" />
<path d="M74130 36260
L73850 36260
" />
<path d="M73990 36260
L73990 35760
L73940 35830
L73890 35880
L73850 35900
" />
<path d="M74440 35760
L74490 35760
L74540 35780
L74560 35800
L74590 35850
L74610 35950
L74610 36070
L74590 36160
L74560 36210
L74540 36230
L74490 36260
L74440 36260
L74400 36230
L74370 36210
L74350 36160
L74330 36070
L74330 35950
L74350 35850
L74370 35800
L74400 35780
L74440 35760
" />
<path d="M74920 35760
L74970 35760
L75020 35780
L75040 35800
L75070 35850
L75090 35950
L75090 36070
L75070 36160
L75040 36210
L75020 36230
L74970 36260
L74920 36260
L74880 36230
L74850 36210
L74830 36160
L74810 36070
L74810 35950
L74830 35850
L74850 35800
L74880 35780
L74920 35760
" />
<path d="M75310 35920
L75310 36420
" />
<path d="M75550 36180
L75570 36230
L75620 36260
" />
<path d="M75310 36180
L75330 36230
L75380 36260
L75480 36260
L75520 36230
L75550 36180
L75550 35920
" />
<path d="M76190 35730
L75760 36380
" />
<path d="M76610 36260
L76330 36260
" />
<path d="M76470 36260
L76470 35760
L76420 35830
L76370 35880
L76330 35900
" />
<path d="M76920 35760
L76970 35760
L77020 35780
L77040 35800
L77070 35850
L77090 35950
L77090 36070
L77070 36160
L77040 36210
L77020 36230
L76970 36260
L76920 36260
L76880 36230
L76850 36210
L76830 36160
L76810 36070
L76810 35950
L76830 35850
L76850 35800
L76880 35780
L76920 35760
" />
<path d="M77240 35760
L77400 36260
L77570 35760
" />
</g>
<g style="fill:#008400; fill-opacity:0.0; 
stroke:#008400; stroke-width:60; stroke-opacity:1; 
stroke-linecap:round; stroke-linejoin:round;">
<path d="M74500 32500
L61500 32500
" />
<path d="M65000 35500
L65000 32500
" />
</g>
<g style="fill:#008400; fill-opacity:0.0; 
stroke:#008400; stroke-width:0; stroke-opacity:1; 
stroke-linecap:round; stroke-linejoin:round;">
</g>
<g style="fill:#008400; fill-opacity:1.0; 
stroke:#008400; stroke-width:100; stroke-opacity:1; 
stroke-linecap:round; stroke-linejoin:round;">
<circle cx="65000" cy="32500" r="200" /> 
</g>
<g style="fill:#008400; fill-opacity:1.0; 
stroke:#008400; stroke-width:60; stroke-opacity:1; 
stroke-linecap:round; stroke-linejoin:round;">
</g>
<g style="fill:#008400; fill-opacity:0.0; 
stroke:#008400; stroke-width:60; stroke-opacity:1; 
stroke-linecap:round; stroke-linejoin:round;">
<path d="M67000 35500
L67000 32500
" />
</g>
<g style="fill:#008400; fill-opacity:0.0; 
stroke:#008400; stroke-width:0; stroke-opacity:1; 
stroke-linecap:round; stroke-linejoin:round;">
</g>
<g style="fill:#008400; fill-opacity:1.0; 
stroke:#008400; stroke-width:100; stroke-opacity:1; 
stroke-linecap:round; stroke-linejoin:round;">
<circle cx="67000" cy="32500" r="200" /> 
</g>
<g style="fill:#008400; fill-opacity:1.0; 
stroke:#008400; stroke-width:60; stroke-opacity:1; 
stroke-linecap:round; stroke-linejoin:round;">
</g>
<g style="fill:#008400; fill-opacity:0.0; 
stroke:#008400; stroke-width:60; stroke-opacity:1; 
stroke-linecap:round; stroke-linejoin:round;">
<path d="M61500 33500
L63500 33500
" />
<path d="M63500 33500
L63500 39000
" />
<path d="M63500 39000
L67000 39000
" />
<path d="M66000 39000
L66000 39500
" />
<path d="M65000 38500
L65000 39000
" />
</g>
<g style="fill:#008400; fill-opacity:0.0; 
stroke:#008400; stroke-width:0; stroke-opacity:1; 
stroke-linecap:round; stroke-linejoin:round;">
</g>
<g style="fill:#008400; fill-opacity:1.0; 
stroke:#008400; stroke-width:100; stroke-opacity:1; 
stroke-linecap:round; stroke-linejoin:round;">
<circle cx="65000" cy="39000" r="200" /> 
</g>
<g style="fill:#008400; fill-opacity:1.0; 
stroke:#008400; stroke-width:60; stroke-opacity:1; 
stroke-linecap:round; stroke-linejoin:round;">
</g>
<g style="fill:#008400; fill-opacity:0.0; 
stroke:#008400; stroke-width:60; stroke-opacity:1; 
stroke-linecap:round; stroke-linejoin:round;">
<path d="M67000 39000
L67000 38500
" />
</g>
<g style="fill:#008400; fill-opacity:0.0; 
stroke:#008400; stroke-width:0; stroke-opacity:1; 
stroke-linecap:round; stroke-linejoin:round;">
</g>
<g style="fill:#008400; fill-opacity:1.0; 
stroke:#008400; stroke-width:100; stroke-opacity:1; 
stroke-linecap:round; stroke-linejoin:round;">
<circle cx="66000" cy="39000" r="200" /> 
</g>
<g style="fill:#008400; fill-opacity:1.0; 
stroke:#008400; stroke-width:60; stroke-opacity:1; 
stroke-linecap:round; stroke-linejoin:round;">
</g>
<g style="fill:#008400; fill-opacity:0.0; 
stroke:#008400; stroke-width:60; stroke-opacity:1; 
stroke-linecap:round; stroke-linejoin:round;">
<path d="M62000 39500
L62000 34500
" />
<path d="M62000 34500
L61500 34500
" />
<path d="M62000 44000
L62000 42500
" />
<path d="M57500 44000
L57500 44500
" />
<path d="M48000 44000
L48000 42500
" />
</g>
<g style="fill:#008400; fill-opacity:0.0; 
stroke:#008400; stroke-width:0; stroke-opacity:1; 
stroke-linecap:round; stroke-linejoin:round;">
</g>
<g style="fill:#008400; fill-opacity:1.0; 
stroke:#008400; stroke-width:100; stroke-opacity:1; 
stroke-linecap:round; stroke-linejoin:round;">
<circle cx="57500" cy="44000" r="200" /> 
</g>
<g style="fill:#008400; fill-opacity:1.0; 
stroke:#008400; stroke-width:60; stroke-opacity:1; 
stroke-linecap:round; stroke-linejoin:round;">
</g>
<g style="fill:#008400; fill-opacity:0.0; 
stroke:#008400; stroke-width:60; stroke-opacity:1; 
stroke-linecap:round; stroke-linejoin:round;">
<path d="M48000 39500
L48000 37500
" />
<path d="M53500 34500
L52500 34500
" />
<path d="M52500 34500
L52500 38500
" />
<path d="M52500 38500
L48000 38500
" />
</g>
<g style="fill:#008400; fill-opacity:0.0; 
stroke:#008400; stroke-width:0; stroke-opacity:1; 
stroke-linecap:round; stroke-linejoin:round;">
</g>
<g style="fill:#008400; fill-opacity:1.0; 
stroke:#008400; stroke-width:100; stroke-opacity:1; 
stroke-linecap:round; stroke-linejoin:round;">
<circle cx="48000" cy="38500" r="200" /> 
</g>
<g style="fill:#008400; fill-opacity:1.0; 
stroke:#008400; stroke-width:60; stroke-opacity:1; 
stroke-linecap:round; stroke-linejoin:round;">
</g>
<g style="fill:#008400; fill-opacity:0.0; 
stroke:#008400; stroke-width:60; stroke-opacity:1; 
stroke-linecap:round; stroke-linejoin:round;">
<path d="M53500 33500
L52500 33500
" />
<path d="M49500 33500
L48000 33500
" />
<path d="M48000 33500
L48000 34500
" />
<path d="M42500 32500
L53500 32500
" />
<path d="M46000 34500
L46000 32500
" />
</g>
<g style="fill:#008400; fill-opacity:0.0; 
stroke:#008400; stroke-width:0; stroke-opacity:1; 
stroke-linecap:round; stroke-linejoin:round;">
</g>
<g style="fill:#008400; fill-opacity:1.0; 
stroke:#008400; stroke-width:100; stroke-opacity:1; 
stroke-linecap:round; stroke-linejoin:round;">
<circle cx="46000" cy="32500" r="200" /> 
</g>
<g style="fill:#008400; fill-opacity:1.0; 
stroke:#008400; stroke-width:60; stroke-opacity:1; 
stroke-linecap:round; stroke-linejoin:round;">
</g>
<g style="fill:#008400; fill-opacity:0.0; 
stroke:#008400; stroke-width:60; stroke-opacity:1; 
stroke-linecap:round; stroke-linejoin:round;">
<path d="M43500 37500
L43500 44000
" />
</g>
<g style="fill:#008400; fill-opacity:0.0; 
stroke:#008400; stroke-width:0; stroke-opacity:1; 
stroke-linecap:round; stroke-linejoin:round;">
</g>
<g style="fill:#008400; fill-opacity:1.0; 
stroke:#008400; stroke-width:100; stroke-opacity:1; 
stroke-linecap:round; stroke-linejoin:round;">
<circle cx="48000" cy="44000" r="200" /> 
</g>
<g style="fill:#008400; fill-opacity:1.0; 
stroke:#008400; stroke-width:60; stroke-opacity:1; 
stroke-linecap:round; stroke-linejoin:round;">
</g>
<g style="fill:#008400; fill-opacity:0.0; 
stroke:#008400; stroke-width:60; stroke-opacity:1; 
stroke-linecap:round; stroke-linejoin:round;">
<path d="M46000 37500
L46000 44000
" />
</g>
<g style="fill:#008400; fill-opacity:0.0; 
stroke:#008400; stroke-width:0; stroke-opacity:1; 
stroke-linecap:round; stroke-linejoin:round;">
</g>
<g style="fill:#008400; fill-opacity:1.0; 
stroke:#008400; stroke-width:100; stroke-opacity:1; 
stroke-linecap:round; stroke-linejoin:round;">
<circle cx="46000" cy="44000" r="200" /> 
</g>
<g style="fill:#008400; fill-opacity:1.0; 
stroke:#008400; stroke-width:60; stroke-opacity:1; 
stroke-linecap:round; stroke-linejoin:round;">
</g>
<g style="fill:#008400; fill-opacity:0.0; 
stroke:#008400; stroke-width:60; stroke-opacity:1; 
stroke-linecap:round; stroke-linejoin:round;">
<path d="M66000 44000
L66000 42500
" />
</g>
<g style="fill:#008400; fill-opacity:0.0; 
stroke:#008400; stroke-width:0; stroke-opacity:1; 
stroke-linecap:round; stroke-linejoin:round;">
</g>
<g style="fill:#008400; fill-opacity:1.0; 
stroke:#008400; stroke-width:100; stroke-opacity:1; 
stroke-linecap:round; stroke-linejoin:round;">
<circle cx="62000" cy="44000" r="200" /> 
</g>
<g style="fill:#008400; fill-opacity:1.0; 
stroke:#008400; stroke-width:60; stroke-opacity:1; 
stroke-linecap:round; stroke-linejoin:round;">
</g>
<g style="fill:#008400; fill-opacity:0.0; 
stroke:#008400; stroke-width:60; stroke-opacity:1; 
stroke-linecap:round; stroke-linejoin:round;">
<path d="M71000 44000
L71000 36500
" />
</g>
<g style="fill:#008400; fill-opacity:0.0; 
stroke:#008400; stroke-width:0; stroke-opacity:1; 
stroke-linecap:round; stroke-linejoin:round;">
</g>
<g style="fill:#008400; fill-opacity:1.0; 
stroke:#008400; stroke-width:100; stroke-opacity:1; 
stroke-linecap:round; stroke-linejoin:round;">
<circle cx="66000" cy="44000" r="200" /> 
</g>
<g style="fill:#008400; fill-opacity:1.0; 
stroke:#008400; stroke-width:60; stroke-opacity:1; 
stroke-linecap:round; stroke-linejoin:round;">
</g>
<g style="fill:#008400; fill-opacity:0.0; 
stroke:#008400; stroke-width:60; stroke-opacity:1; 
stroke-linecap:round; stroke-linejoin:round;">
<path d="M73500 44000
L73500 36500
" />
</g>
<g style="fill:#008400; fill-opacity:0.0; 
stroke:#008400; stroke-width:0; stroke-opacity:1; 
stroke-linecap:round; stroke-linejoin:round;">
</g>
<g style="fill:#008400; fill-opacity:1.0; 
stroke:#008400; stroke-width:100; stroke-opacity:1; 
stroke-linecap:round; stroke-linejoin:round;">
<circle cx="71000" cy="44000" r="200" /> 
</g>
<g style="fill:#008400; fill-opacity:1.0; 
stroke:#008400; stroke-width:60; stroke-opacity:1; 
stroke-linecap:round; stroke-linejoin:round;">
</g>
<g style="fill:#008400; fill-opacity:0.0; 
stroke:#008400; stroke-width:60; stroke-opacity:1; 
stroke-linecap:round; stroke-linejoin:round;">
<path d="M71000 33500
L71000 32500
" />
</g>
<g style="fill:#008400; fill-opacity:0.0; 
stroke:#008400; stroke-width:0; stroke-opacity:1; 
stroke-linecap:round; stroke-linejoin:round;">
</g>
<g style="fill:#008400; fill-opacity:1.0; 
stroke:#008400; stroke-width:100; stroke-opacity:1; 
stroke-linecap:round; stroke-linejoin:round;">
<circle cx="71000" cy="32500" r="200" /> 
</g>
<g style="fill:#008400; fill-opacity:1.0; 
stroke:#008400; stroke-width:60; stroke-opacity:1; 
stroke-linecap:round; stroke-linejoin:round;">
</g>
<g style="fill:#008400; fill-opacity:0.0; 
stroke:#008400; stroke-width:60; stroke-opacity:1; 
stroke-linecap:round; stroke-linejoin:round;">
<path d="M73500 32500
L73500 33500
" />
</g>
<g style="fill:#008400; fill-opacity:0.0; 
stroke:#008400; stroke-width:0; stroke-opacity:1; 
stroke-linecap:round; stroke-linejoin:round;">
</g>
<g style="fill:#008400; fill-opacity:1.0; 
stroke:#008400; stroke-width:100; stroke-opacity:1; 
stroke-linecap:round; stroke-linejoin:round;">
<circle cx="73500" cy="32500" r="200" /> 
</g>
<g style="fill:#008400; fill-opacity:1.0; 
stroke:#008400; stroke-width:60; stroke-opacity:1; 
stroke-linecap:round; stroke-linejoin:round;">
</g>
<g style="fill:#008400; fill-opacity:0.0; 
stroke:#008400; stroke-width:60; stroke-opacity:1; 
stroke-linecap:round; stroke-linejoin:round;">
<path d="M57000 44000
L57000 36500
" />
</g>
<g style="fill:#008400; fill-opacity:0.0; 
stroke:#008400; stroke-width:0; stroke-opacity:1; 
stroke-linecap:round; stroke-linejoin:round;">
</g>
<g style="fill:#008400; fill-opacity:1.0; 
stroke:#008400; stroke-width:100; stroke-opacity:1; 
stroke-linecap:round; stroke-linejoin:round;">
<circle cx="57000" cy="44000" r="200" /> 
</g>
<g style="fill:#008400; fill-opacity:1.0; 
stroke:#008400; stroke-width:60; stroke-opacity:1; 
stroke-linecap:round; stroke-linejoin:round;">
</g>
<g style="fill:#008400; fill-opacity:0.0; 
stroke:#008400; stroke-width:60; stroke-opacity:1; 
stroke-linecap:round; stroke-linejoin:round;">
<path d="M58000 44000
L58000 36500
" />
</g>
<g style="fill:#008400; fill-opacity:0.0; 
stroke:#008400; stroke-width:0; stroke-opacity:1; 
stroke-linecap:round; stroke-linejoin:round;">
</g>
<g style="fill:#008400; fill-opacity:1.0; 
stroke:#008400; stroke-width:100; stroke-opacity:1; 
stroke-linecap:round; stroke-linejoin:round;">
<circle cx="58000" cy="44000" r="200" /> 
</g>
<g style="fill:#008400; fill-opacity:1.0; 
stroke:#008400; stroke-width:60; stroke-opacity:1; 
stroke-linecap:round; stroke-linejoin:round;">
</g>
<g style="fill:#000000; fill-opacity:0.0; 
stroke:#000000; stroke-width:60; stroke-opacity:1; 
stroke-linecap:round; stroke-linejoin:round;">
<path d="M47990 32370
L47790 32090
" />
<path d="M47640 32370
L47640 31770
L47870 31770
L47930 31800
L47960 31830
L47990 31890
L47990 31970
L47960 32030
L47930 32060
L47870 32090
L47640 32090
" />
<path d="M48190 31770
L48590 32370
" />
<path d="M48590 31770
L48190 32370
" />
<path d="M48780 32340
L48870 32370
L49010 32370
L49070 32340
L49100 32310
L49130 32260
L49130 32200
L49100 32140
L49070 32110
L49010 32090
L48900 32060
L48840 32030
L48810 32000
L48780 31940
L48780 31890
L48810 31830
L48840 31800
L48900 31770
L49040 31770
L49130 31800
" />
<path d="M49380 32370
L49380 31770
L49580 32200
L49780 31770
L49780 32370
" />
<path d="M49930 32430
L50390 32430
" />
<path d="M50500 31830
L50530 31800
L50590 31770
L50730 31770
L50790 31800
L50820 31830
L50850 31890
L50850 31940
L50820 32030
L50480 32370
L50850 32370
" />
<path d="M51190 32030
L51130 32000
L51100 31970
L51070 31910
L51070 31890
L51100 31830
L51130 31800
L51190 31770
L51300 31770
L51360 31800
L51390 31830
L51420 31890
L51420 31910
L51390 31970
L51360 32000
L51300 32030
L51190 32030
L51130 32060
L51100 32090
L51070 32140
L51070 32260
L51100 32310
L51130 32340
L51190 32370
L51300 32370
L51360 32340
L51390 32310
L51420 32260
L51420 32140
L51390 32090
L51360 32060
L51300 32030
" />
<path d="M51590 31770
L51790 32370
L51990 31770
" />
</g>
<g style="fill:#008400; fill-opacity:0.0; 
stroke:#008400; stroke-width:60; stroke-opacity:1; 
stroke-linecap:round; stroke-linejoin:round;">
<path d="M43500 34500
L43500 32500
" />
</g>
<g style="fill:#008400; fill-opacity:0.0; 
stroke:#008400; stroke-width:0; stroke-opacity:1; 
stroke-linecap:round; stroke-linejoin:round;">
</g>
<g style="fill:#008400; fill-opacity:1.0; 
stroke:#008400; stroke-width:100; stroke-opacity:1; 
stroke-linecap:round; stroke-linejoin:round;">
<circle cx="43500" cy="32500" r="200" /> 
</g>
<g style="fill:#008400; fill-opacity:1.0; 
stroke:#008400; stroke-width:60; stroke-opacity:1; 
stroke-linecap:round; stroke-linejoin:round;">
</g>
<g style="fill:#008400; fill-opacity:0.0; 
stroke:#008400; stroke-width:60; stroke-opacity:1; 
stroke-linecap:round; stroke-linejoin:round;">
<path d="M43500 44000
L73500 44000
" />
</g>
<g style="fill:#848400; fill-opacity:0.0; 
stroke:#848400; stroke-width:60; stroke-opacity:1; 
stroke-linecap:round; stroke-linejoin:round;">
<path d="M36310 32770
L36110 32490
" />
<path d="M35960 32770
L35960 32170
L36190 32170
L36250 32200
L36280 32230
L36310 32290
L36310 32370
L36280 32430
L36250 32460
L36190 32490
L35960 32490
" />
<path d="M36510 32170
L36910 32770
" />
<path d="M36910 32170
L36510 32770
" />
<path d="M37100 32740
L37190 32770
L37330 32770
L37390 32740
L37420 32710
L37450 32660
L37450 32600
L37420 32540
L37390 32510
L37330 32490
L37220 32460
L37160 32430
L37130 32400
L37100 32340
L37100 32290
L37130 32230
L37160 32200
L37220 32170
L37360 32170
L37450 32200
" />
<path d="M37700 32770
L37700 32170
L37900 32600
L38100 32170
L38100 32770
" />
<path d="M38250 32830
L38710 32830
" />
<path d="M38820 32230
L38850 32200
L38910 32170
L39050 32170
L39110 32200
L39140 32230
L39170 32290
L39170 32340
L39140 32430
L38800 32770
L39170 32770
" />
<path d="M39510 32430
L39450 32400
L39420 32370
L39390 32310
L39390 32290
L39420 32230
L39450 32200
L39510 32170
L39620 32170
L39680 32200
L39710 32230
L39740 32290
L39740 32310
L39710 32370
L39680 32400
L39620 32430
L39510 32430
L39450 32460
L39420 32490
L39390 32540
L39390 32660
L39420 32710
L39450 32740
L39510 32770
L39620 32770
L39680 32740
L39710 32710
L39740 32660
L39740 32540
L39710 32490
L39680 32460
L39620 32430
" />
<path d="M39910 32170
L40110 32770
L40310 32170
" />
<path d="M40360 32830
L40820 32830
" />
<path d="M40960 32770
L40960 32170
" />
<path d="M41250 32770
L41250 32170
L41600 32770
L41600 32170
" />
</g>
<g style="fill:#848400; fill-opacity:0.0; 
stroke:#848400; stroke-width:100; stroke-opacity:1; 
stroke-linecap:round; stroke-linejoin:round;">
<polyline fill="none;"
points="42500,32500
42200,32200
41900,32200
41900,32800
42200,32800
42500,32500
" /> 
</g>
<g style="fill:#848400; fill-opacity:0.0; 
stroke:#848400; stroke-width:60; stroke-opacity:1; 
stroke-linecap:round; stroke-linejoin:round;">
<path d="M75690 32170
L75400 32170
L75370 32460
L75400 32430
L75460 32400
L75600 32400
L75660 32430
L75690 32460
L75720 32510
L75720 32660
L75690 32710
L75660 32740
L75600 32770
L75460 32770
L75400 32740
L75370 32710
" />
<path d="M75890 32170
L76090 32770
L76290 32170
" />
<path d="M76340 32830
L76800 32830
" />
<path d="M76890 32170
L77260 32170
L77060 32400
L77140 32400
L77200 32430
L77230 32460
L77260 32510
L77260 32660
L77230 32710
L77200 32740
L77140 32770
L76970 32770
L76910 32740
L76890 32710
" />
<path d="M77480 32600
L77770 32600
" />
<path d="M77430 32770
L77630 32170
L77830 32770
" />
<path d="M77880 32830
L78340 32830
" />
<path d="M78600 32170
L78710 32170
L78770 32200
L78830 32260
L78850 32370
L78850 32570
L78830 32690
L78770 32740
L78710 32770
L78600 32770
L78540 32740
L78480 32690
L78450 32570
L78450 32370
L78480 32260
L78540 32200
L78600 32170
" />
<path d="M79110 32170
L79110 32660
L79140 32710
L79170 32740
L79230 32770
L79340 32770
L79400 32740
L79430 32710
L79460 32660
L79460 32170
" />
<path d="M79660 32170
L80000 32170
" />
<path d="M79830 32770
L79830 32170
" />
</g>
<g style="fill:#848400; fill-opacity:0.0; 
stroke:#848400; stroke-width:100; stroke-opacity:1; 
stroke-linecap:round; stroke-linejoin:round;">
<polyline fill="none;"
points="74500,32500
74800,32800
75100,32800
75100,32200
74800,32200
74500,32500
" /> 
</g>
<g style="fill:#848400; fill-opacity:0.0; 
stroke:#848400; stroke-width:60; stroke-opacity:1; 
stroke-linecap:round; stroke-linejoin:round;">
</g>
<g style="fill:#008400; fill-opacity:0.0; 
stroke:#008400; stroke-width:60; stroke-opacity:1; 
stroke-linecap:round; stroke-linejoin:round;">
<path d="M59500 44000
L59500 44500
" />
</g>
<g style="fill:#008400; fill-opacity:0.0; 
stroke:#008400; stroke-width:0; stroke-opacity:1; 
stroke-linecap:round; stroke-linejoin:round;">
</g>
<g style="fill:#008400; fill-opacity:1.0; 
stroke:#008400; stroke-width:100; stroke-opacity:1; 
stroke-linecap:round; stroke-linejoin:round;">
<circle cx="59500" cy="44000" r="200" /> 
</g>
<g style="fill:#008400; fill-opacity:1.0; 
stroke:#008400; stroke-width:60; stroke-opacity:1; 
stroke-linecap:round; stroke-linejoin:round;">
</g>
<g style="fill:#848400; fill-opacity:0.0; 
stroke:#848400; stroke-width:60; stroke-opacity:1; 
stroke-linecap:round; stroke-linejoin:round;">
<path d="M59200 46630
L59170 46690
L59170 46780
L59200 46860
L59260 46920
L59310 46950
L59430 46980
L59510 46980
L59630 46950
L59690 46920
L59740 46860
L59770 46780
L59770 46720
L59740 46630
L59710 46600
L59510 46600
L59510 46720
" />
<path d="M59770 46350
L59170 46350
L59770 46000
L59170 46000
" />
<path d="M59770 45720
L59170 45720
L59170 45570
L59200 45490
L59260 45430
L59310 45400
L59430 45370
L59510 45370
L59630 45400
L59690 45430
L59740 45490
L59770 45570
L59770 45720
" />
</g>
<g style="fill:#848400; fill-opacity:0.0; 
stroke:#848400; stroke-width:100; stroke-opacity:1; 
stroke-linecap:round; stroke-linejoin:round;">
<polyline fill="none;"
points="59500,44500
59800,44800
59800,45100
59200,45100
59200,44800
59500,44500
" /> 
</g> 
</svg>
