<?xml version="1.0" standalone="no"?>
 <!DOCTYPE svg PUBLIC "-//W3C//DTD SVG 1.1//EN" 
 "http://www.w3.org/Graphics/SVG/1.1/DTD/svg11.dtd"> 
<svg xmlns="http://www.w3.org/2000/svg" version="1.1" 
    width="29.7002cm" height="21.0007cm" viewBox="0 0 116930 82680 ">
<title>SVG Picture created as powerboard_stepup_24V_60W-Powerboard Stepup 24V 60W.svg date 2017/01/26 22:23:46 </title>
  <desc>Picture generated by Eeschema-SVG </desc>
<g style="fill:#000000; fill-opacity:1;stroke:#000000; stroke-opacity:1;
stroke-linecap:round; stroke-linejoin:round; "
 transform="translate(0 0) scale(1 1)">
</g>
<g style="fill:#000000; fill-opacity:0.0; 
stroke:#000000; stroke-width:-10; stroke-opacity:1; 
stroke-linecap:round; stroke-linejoin:round;">
</g>
<g style="fill:#840000; fill-opacity:0.0; 
stroke:#840000; stroke-width:-10; stroke-opacity:1; 
stroke-linecap:round; stroke-linejoin:round;">
</g>
<g style="fill:#840000; fill-opacity:0.0; 
stroke:#840000; stroke-width:100; stroke-opacity:1; 
stroke-linecap:round; stroke-linejoin:round;">
</g>
<g style="fill:#840000; fill-opacity:0.0; 
stroke:#840000; stroke-width:60; stroke-opacity:1; 
stroke-linecap:round; stroke-linejoin:round;">
<rect x="69690" y="65360" width="42520" height="12600" rx="0" />
</g>
<g style="fill:#840000; fill-opacity:0.0; 
stroke:#840000; stroke-width:100; stroke-opacity:1; 
stroke-linecap:round; stroke-linejoin:round;">
</g>
<g style="fill:#840000; fill-opacity:0.0; 
stroke:#840000; stroke-width:60; stroke-opacity:1; 
stroke-linecap:round; stroke-linejoin:round;">
<rect x="3940" y="3940" width="109050" height="74800" rx="0" />
</g>
<g style="fill:#840000; fill-opacity:0.0; 
stroke:#840000; stroke-width:100; stroke-opacity:1; 
stroke-linecap:round; stroke-linejoin:round;">
</g>
<g style="fill:#840000; fill-opacity:0.0; 
stroke:#840000; stroke-width:60; stroke-opacity:1; 
stroke-linecap:round; stroke-linejoin:round;">
<rect x="4720" y="4720" width="107490" height="73240" rx="0" />
</g>
<g style="fill:#840000; fill-opacity:0.0; 
stroke:#840000; stroke-width:100; stroke-opacity:1; 
stroke-linecap:round; stroke-linejoin:round;">
</g>
<g style="fill:#840000; fill-opacity:0.0; 
stroke:#840000; stroke-width:60; stroke-opacity:1; 
stroke-linecap:round; stroke-linejoin:round;">
<path d="M23620 4720
L23620 3940
" />
</g>
<g style="fill:#840000; fill-opacity:0.0; 
stroke:#840000; stroke-width:100; stroke-opacity:1; 
stroke-linecap:round; stroke-linejoin:round;">
</g>
<g style="fill:#840000; fill-opacity:0.0; 
stroke:#840000; stroke-width:60; stroke-opacity:1; 
stroke-linecap:round; stroke-linejoin:round;">
<path d="M43310 4720
L43310 3940
" />
</g>
<g style="fill:#840000; fill-opacity:0.0; 
stroke:#840000; stroke-width:100; stroke-opacity:1; 
stroke-linecap:round; stroke-linejoin:round;">
</g>
<g style="fill:#840000; fill-opacity:0.0; 
stroke:#840000; stroke-width:60; stroke-opacity:1; 
stroke-linecap:round; stroke-linejoin:round;">
<path d="M62990 4720
L62990 3940
" />
</g>
<g style="fill:#840000; fill-opacity:0.0; 
stroke:#840000; stroke-width:100; stroke-opacity:1; 
stroke-linecap:round; stroke-linejoin:round;">
</g>
<g style="fill:#840000; fill-opacity:0.0; 
stroke:#840000; stroke-width:60; stroke-opacity:1; 
stroke-linecap:round; stroke-linejoin:round;">
<path d="M82680 4720
L82680 3940
" />
</g>
<g style="fill:#840000; fill-opacity:0.0; 
stroke:#840000; stroke-width:100; stroke-opacity:1; 
stroke-linecap:round; stroke-linejoin:round;">
</g>
<g style="fill:#840000; fill-opacity:0.0; 
stroke:#840000; stroke-width:60; stroke-opacity:1; 
stroke-linecap:round; stroke-linejoin:round;">
<path d="M102360 4720
L102360 3940
" />
</g>
<g style="fill:#840000; fill-opacity:0.0; 
stroke:#840000; stroke-width:100; stroke-opacity:1; 
stroke-linecap:round; stroke-linejoin:round;">
</g>
<g style="fill:#840000; fill-opacity:0.0; 
stroke:#840000; stroke-width:60; stroke-opacity:1; 
stroke-linecap:round; stroke-linejoin:round;">
<path d="M14170 4560
L13880 4560
" />
<path d="M14020 4560
L14020 4050
L13970 4120
L13930 4170
L13880 4190
" />
</g>
<g style="fill:#840000; fill-opacity:0.0; 
stroke:#840000; stroke-width:100; stroke-opacity:1; 
stroke-linecap:round; stroke-linejoin:round;">
</g>
<g style="fill:#840000; fill-opacity:0.0; 
stroke:#840000; stroke-width:60; stroke-opacity:1; 
stroke-linecap:round; stroke-linejoin:round;">
<path d="M33560 4090
L33580 4070
L33630 4050
L33750 4050
L33800 4070
L33820 4090
L33850 4140
L33850 4190
L33820 4260
L33530 4560
L33850 4560
" />
</g>
<g style="fill:#840000; fill-opacity:0.0; 
stroke:#840000; stroke-width:100; stroke-opacity:1; 
stroke-linecap:round; stroke-linejoin:round;">
</g>
<g style="fill:#840000; fill-opacity:0.0; 
stroke:#840000; stroke-width:60; stroke-opacity:1; 
stroke-linecap:round; stroke-linejoin:round;">
<path d="M53220 4050
L53540 4050
L53370 4240
L53440 4240
L53490 4260
L53510 4290
L53540 4340
L53540 4460
L53510 4510
L53490 4530
L53440 4560
L53300 4560
L53250 4530
L53220 4510
" />
</g>
<g style="fill:#840000; fill-opacity:0.0; 
stroke:#840000; stroke-width:100; stroke-opacity:1; 
stroke-linecap:round; stroke-linejoin:round;">
</g>
<g style="fill:#840000; fill-opacity:0.0; 
stroke:#840000; stroke-width:60; stroke-opacity:1; 
stroke-linecap:round; stroke-linejoin:round;">
<path d="M73170 4220
L73170 4560
" />
<path d="M73050 4020
L72930 4390
L73240 4390
" />
</g>
<g style="fill:#840000; fill-opacity:0.0; 
stroke:#840000; stroke-width:100; stroke-opacity:1; 
stroke-linecap:round; stroke-linejoin:round;">
</g>
<g style="fill:#840000; fill-opacity:0.0; 
stroke:#840000; stroke-width:60; stroke-opacity:1; 
stroke-linecap:round; stroke-linejoin:round;">
<path d="M92880 4050
L92640 4050
L92620 4290
L92640 4260
L92690 4240
L92810 4240
L92860 4260
L92880 4290
L92910 4340
L92910 4460
L92880 4510
L92860 4530
L92810 4560
L92690 4560
L92640 4530
L92620 4510
" />
</g>
<g style="fill:#840000; fill-opacity:0.0; 
stroke:#840000; stroke-width:100; stroke-opacity:1; 
stroke-linecap:round; stroke-linejoin:round;">
</g>
<g style="fill:#840000; fill-opacity:0.0; 
stroke:#840000; stroke-width:60; stroke-opacity:1; 
stroke-linecap:round; stroke-linejoin:round;">
<path d="M112540 4050
L112440 4050
L112390 4070
L112370 4090
L112320 4170
L112300 4260
L112300 4460
L112320 4510
L112350 4530
L112390 4560
L112490 4560
L112540 4530
L112560 4510
L112590 4460
L112590 4340
L112560 4290
L112540 4260
L112490 4240
L112390 4240
L112350 4260
L112320 4290
L112300 4340
" />
</g>
<g style="fill:#840000; fill-opacity:0.0; 
stroke:#840000; stroke-width:100; stroke-opacity:1; 
stroke-linecap:round; stroke-linejoin:round;">
</g>
<g style="fill:#840000; fill-opacity:0.0; 
stroke:#840000; stroke-width:60; stroke-opacity:1; 
stroke-linecap:round; stroke-linejoin:round;">
<path d="M23620 77960
L23620 78740
" />
</g>
<g style="fill:#840000; fill-opacity:0.0; 
stroke:#840000; stroke-width:100; stroke-opacity:1; 
stroke-linecap:round; stroke-linejoin:round;">
</g>
<g style="fill:#840000; fill-opacity:0.0; 
stroke:#840000; stroke-width:60; stroke-opacity:1; 
stroke-linecap:round; stroke-linejoin:round;">
<path d="M43310 77960
L43310 78740
" />
</g>
<g style="fill:#840000; fill-opacity:0.0; 
stroke:#840000; stroke-width:100; stroke-opacity:1; 
stroke-linecap:round; stroke-linejoin:round;">
</g>
<g style="fill:#840000; fill-opacity:0.0; 
stroke:#840000; stroke-width:60; stroke-opacity:1; 
stroke-linecap:round; stroke-linejoin:round;">
<path d="M62990 77960
L62990 78740
" />
</g>
<g style="fill:#840000; fill-opacity:0.0; 
stroke:#840000; stroke-width:100; stroke-opacity:1; 
stroke-linecap:round; stroke-linejoin:round;">
</g>
<g style="fill:#840000; fill-opacity:0.0; 
stroke:#840000; stroke-width:60; stroke-opacity:1; 
stroke-linecap:round; stroke-linejoin:round;">
<path d="M82680 77960
L82680 78740
" />
</g>
<g style="fill:#840000; fill-opacity:0.0; 
stroke:#840000; stroke-width:100; stroke-opacity:1; 
stroke-linecap:round; stroke-linejoin:round;">
</g>
<g style="fill:#840000; fill-opacity:0.0; 
stroke:#840000; stroke-width:60; stroke-opacity:1; 
stroke-linecap:round; stroke-linejoin:round;">
<path d="M102360 77960
L102360 78740
" />
</g>
<g style="fill:#840000; fill-opacity:0.0; 
stroke:#840000; stroke-width:100; stroke-opacity:1; 
stroke-linecap:round; stroke-linejoin:round;">
</g>
<g style="fill:#840000; fill-opacity:0.0; 
stroke:#840000; stroke-width:60; stroke-opacity:1; 
stroke-linecap:round; stroke-linejoin:round;">
<path d="M14170 78580
L13880 78580
" />
<path d="M14020 78580
L14020 78070
L13970 78140
L13930 78190
L13880 78210
" />
</g>
<g style="fill:#840000; fill-opacity:0.0; 
stroke:#840000; stroke-width:100; stroke-opacity:1; 
stroke-linecap:round; stroke-linejoin:round;">
</g>
<g style="fill:#840000; fill-opacity:0.0; 
stroke:#840000; stroke-width:60; stroke-opacity:1; 
stroke-linecap:round; stroke-linejoin:round;">
<path d="M33560 78110
L33580 78090
L33630 78070
L33750 78070
L33800 78090
L33820 78110
L33850 78160
L33850 78210
L33820 78280
L33530 78580
L33850 78580
" />
</g>
<g style="fill:#840000; fill-opacity:0.0; 
stroke:#840000; stroke-width:100; stroke-opacity:1; 
stroke-linecap:round; stroke-linejoin:round;">
</g>
<g style="fill:#840000; fill-opacity:0.0; 
stroke:#840000; stroke-width:60; stroke-opacity:1; 
stroke-linecap:round; stroke-linejoin:round;">
<path d="M53220 78070
L53540 78070
L53370 78260
L53440 78260
L53490 78280
L53510 78310
L53540 78360
L53540 78480
L53510 78530
L53490 78550
L53440 78580
L53300 78580
L53250 78550
L53220 78530
" />
</g>
<g style="fill:#840000; fill-opacity:0.0; 
stroke:#840000; stroke-width:100; stroke-opacity:1; 
stroke-linecap:round; stroke-linejoin:round;">
</g>
<g style="fill:#840000; fill-opacity:0.0; 
stroke:#840000; stroke-width:60; stroke-opacity:1; 
stroke-linecap:round; stroke-linejoin:round;">
<path d="M73170 78240
L73170 78580
" />
<path d="M73050 78040
L72930 78410
L73240 78410
" />
</g>
<g style="fill:#840000; fill-opacity:0.0; 
stroke:#840000; stroke-width:100; stroke-opacity:1; 
stroke-linecap:round; stroke-linejoin:round;">
</g>
<g style="fill:#840000; fill-opacity:0.0; 
stroke:#840000; stroke-width:60; stroke-opacity:1; 
stroke-linecap:round; stroke-linejoin:round;">
<path d="M92880 78070
L92640 78070
L92620 78310
L92640 78280
L92690 78260
L92810 78260
L92860 78280
L92880 78310
L92910 78360
L92910 78480
L92880 78530
L92860 78550
L92810 78580
L92690 78580
L92640 78550
L92620 78530
" />
</g>
<g style="fill:#840000; fill-opacity:0.0; 
stroke:#840000; stroke-width:100; stroke-opacity:1; 
stroke-linecap:round; stroke-linejoin:round;">
</g>
<g style="fill:#840000; fill-opacity:0.0; 
stroke:#840000; stroke-width:60; stroke-opacity:1; 
stroke-linecap:round; stroke-linejoin:round;">
<path d="M112540 78070
L112440 78070
L112390 78090
L112370 78110
L112320 78190
L112300 78280
L112300 78480
L112320 78530
L112350 78550
L112390 78580
L112490 78580
L112540 78550
L112560 78530
L112590 78480
L112590 78360
L112560 78310
L112540 78280
L112490 78260
L112390 78260
L112350 78280
L112320 78310
L112300 78360
" />
</g>
<g style="fill:#840000; fill-opacity:0.0; 
stroke:#840000; stroke-width:100; stroke-opacity:1; 
stroke-linecap:round; stroke-linejoin:round;">
</g>
<g style="fill:#840000; fill-opacity:0.0; 
stroke:#840000; stroke-width:60; stroke-opacity:1; 
stroke-linecap:round; stroke-linejoin:round;">
<path d="M3940 23620
L4720 23620
" />
</g>
<g style="fill:#840000; fill-opacity:0.0; 
stroke:#840000; stroke-width:100; stroke-opacity:1; 
stroke-linecap:round; stroke-linejoin:round;">
</g>
<g style="fill:#840000; fill-opacity:0.0; 
stroke:#840000; stroke-width:60; stroke-opacity:1; 
stroke-linecap:round; stroke-linejoin:round;">
<path d="M3940 43310
L4720 43310
" />
</g>
<g style="fill:#840000; fill-opacity:0.0; 
stroke:#840000; stroke-width:100; stroke-opacity:1; 
stroke-linecap:round; stroke-linejoin:round;">
</g>
<g style="fill:#840000; fill-opacity:0.0; 
stroke:#840000; stroke-width:60; stroke-opacity:1; 
stroke-linecap:round; stroke-linejoin:round;">
<path d="M3940 62990
L4720 62990
" />
</g>
<g style="fill:#840000; fill-opacity:0.0; 
stroke:#840000; stroke-width:100; stroke-opacity:1; 
stroke-linecap:round; stroke-linejoin:round;">
</g>
<g style="fill:#840000; fill-opacity:0.0; 
stroke:#840000; stroke-width:60; stroke-opacity:1; 
stroke-linecap:round; stroke-linejoin:round;">
<path d="M4210 13860
L4450 13860
" />
<path d="M4160 14010
L4330 13500
L4500 14010
" />
</g>
<g style="fill:#840000; fill-opacity:0.0; 
stroke:#840000; stroke-width:100; stroke-opacity:1; 
stroke-linecap:round; stroke-linejoin:round;">
</g>
<g style="fill:#840000; fill-opacity:0.0; 
stroke:#840000; stroke-width:60; stroke-opacity:1; 
stroke-linecap:round; stroke-linejoin:round;">
<path d="M4370 33420
L4440 33440
L4470 33470
L4490 33520
L4490 33590
L4470 33640
L4440 33660
L4400 33690
L4200 33690
L4200 33180
L4370 33180
L4420 33200
L4440 33220
L4470 33270
L4470 33320
L4440 33370
L4420 33390
L4370 33420
L4200 33420
" />
</g>
<g style="fill:#840000; fill-opacity:0.0; 
stroke:#840000; stroke-width:100; stroke-opacity:1; 
stroke-linecap:round; stroke-linejoin:round;">
</g>
<g style="fill:#840000; fill-opacity:0.0; 
stroke:#840000; stroke-width:60; stroke-opacity:1; 
stroke-linecap:round; stroke-linejoin:round;">
<path d="M4490 53330
L4470 53350
L4400 53380
L4350 53380
L4270 53350
L4230 53300
L4200 53250
L4180 53160
L4180 53080
L4200 52990
L4230 52940
L4270 52890
L4350 52870
L4400 52870
L4470 52890
L4490 52910
" />
</g>
<g style="fill:#840000; fill-opacity:0.0; 
stroke:#840000; stroke-width:100; stroke-opacity:1; 
stroke-linecap:round; stroke-linejoin:round;">
</g>
<g style="fill:#840000; fill-opacity:0.0; 
stroke:#840000; stroke-width:60; stroke-opacity:1; 
stroke-linecap:round; stroke-linejoin:round;">
<path d="M4200 73060
L4200 72550
L4320 72550
L4400 72570
L4440 72620
L4470 72670
L4490 72760
L4490 72840
L4470 72930
L4440 72980
L4400 73030
L4320 73060
L4200 73060
" />
</g>
<g style="fill:#840000; fill-opacity:0.0; 
stroke:#840000; stroke-width:100; stroke-opacity:1; 
stroke-linecap:round; stroke-linejoin:round;">
</g>
<g style="fill:#840000; fill-opacity:0.0; 
stroke:#840000; stroke-width:60; stroke-opacity:1; 
stroke-linecap:round; stroke-linejoin:round;">
<path d="M112990 23620
L112210 23620
" />
</g>
<g style="fill:#840000; fill-opacity:0.0; 
stroke:#840000; stroke-width:100; stroke-opacity:1; 
stroke-linecap:round; stroke-linejoin:round;">
</g>
<g style="fill:#840000; fill-opacity:0.0; 
stroke:#840000; stroke-width:60; stroke-opacity:1; 
stroke-linecap:round; stroke-linejoin:round;">
<path d="M112990 43310
L112210 43310
" />
</g>
<g style="fill:#840000; fill-opacity:0.0; 
stroke:#840000; stroke-width:100; stroke-opacity:1; 
stroke-linecap:round; stroke-linejoin:round;">
</g>
<g style="fill:#840000; fill-opacity:0.0; 
stroke:#840000; stroke-width:60; stroke-opacity:1; 
stroke-linecap:round; stroke-linejoin:round;">
<path d="M112990 62990
L112210 62990
" />
</g>
<g style="fill:#840000; fill-opacity:0.0; 
stroke:#840000; stroke-width:100; stroke-opacity:1; 
stroke-linecap:round; stroke-linejoin:round;">
</g>
<g style="fill:#840000; fill-opacity:0.0; 
stroke:#840000; stroke-width:60; stroke-opacity:1; 
stroke-linecap:round; stroke-linejoin:round;">
<path d="M112480 13860
L112720 13860
" />
<path d="M112430 14010
L112600 13500
L112770 14010
" />
</g>
<g style="fill:#840000; fill-opacity:0.0; 
stroke:#840000; stroke-width:100; stroke-opacity:1; 
stroke-linecap:round; stroke-linejoin:round;">
</g>
<g style="fill:#840000; fill-opacity:0.0; 
stroke:#840000; stroke-width:60; stroke-opacity:1; 
stroke-linecap:round; stroke-linejoin:round;">
<path d="M112640 33420
L112710 33440
L112740 33470
L112760 33520
L112760 33590
L112740 33640
L112710 33660
L112670 33690
L112470 33690
L112470 33180
L112640 33180
L112690 33200
L112710 33220
L112740 33270
L112740 33320
L112710 33370
L112690 33390
L112640 33420
L112470 33420
" />
</g>
<g style="fill:#840000; fill-opacity:0.0; 
stroke:#840000; stroke-width:100; stroke-opacity:1; 
stroke-linecap:round; stroke-linejoin:round;">
</g>
<g style="fill:#840000; fill-opacity:0.0; 
stroke:#840000; stroke-width:60; stroke-opacity:1; 
stroke-linecap:round; stroke-linejoin:round;">
<path d="M112760 53330
L112740 53350
L112670 53380
L112620 53380
L112540 53350
L112500 53300
L112470 53250
L112450 53160
L112450 53080
L112470 52990
L112500 52940
L112540 52890
L112620 52870
L112670 52870
L112740 52890
L112760 52910
" />
</g>
<g style="fill:#840000; fill-opacity:0.0; 
stroke:#840000; stroke-width:100; stroke-opacity:1; 
stroke-linecap:round; stroke-linejoin:round;">
</g>
<g style="fill:#840000; fill-opacity:0.0; 
stroke:#840000; stroke-width:60; stroke-opacity:1; 
stroke-linecap:round; stroke-linejoin:round;">
<path d="M112470 73060
L112470 72550
L112590 72550
L112670 72570
L112710 72620
L112740 72670
L112760 72760
L112760 72840
L112740 72930
L112710 72980
L112670 73030
L112590 73060
L112470 73060
" />
</g>
<g style="fill:#840000; fill-opacity:0.0; 
stroke:#840000; stroke-width:100; stroke-opacity:1; 
stroke-linecap:round; stroke-linejoin:round;">
</g>
<g style="fill:#840000; fill-opacity:0.0; 
stroke:#840000; stroke-width:60; stroke-opacity:1; 
stroke-linecap:round; stroke-linejoin:round;">
<path d="M78880 76290
L78880 75700
L79020 75700
L79110 75730
L79160 75790
L79190 75840
L79220 75950
L79220 76040
L79190 76150
L79160 76210
L79110 76260
L79020 76290
L78880 76290
" />
<path d="M79720 76290
L79720 75980
L79700 75930
L79640 75900
L79530 75900
L79470 75930
" />
<path d="M79720 76260
L79670 76290
L79530 76290
L79470 76260
L79440 76210
L79440 76150
L79470 76100
L79530 76070
L79670 76070
L79720 76040
" />
<path d="M79920 75900
L80140 75900
" />
<path d="M80000 75700
L80000 76210
L80030 76260
L80080 76290
L80140 76290
" />
<path d="M80570 76260
L80510 76290
L80400 76290
L80340 76260
L80310 76210
L80310 75980
L80340 75930
L80400 75900
L80510 75900
L80570 75930
L80590 75980
L80590 76040
L80310 76100
" />
<path d="M80850 76240
L80880 76260
L80850 76290
L80820 76260
L80850 76240
L80850 76290
" />
<path d="M80850 75930
L80880 75950
L80850 75980
L80820 75950
L80850 75930
L80850 75980
" />
</g>
<g style="fill:#840000; fill-opacity:0.0; 
stroke:#840000; stroke-width:100; stroke-opacity:1; 
stroke-linecap:round; stroke-linejoin:round;">
</g>
<g style="fill:#840000; fill-opacity:0.0; 
stroke:#840000; stroke-width:60; stroke-opacity:1; 
stroke-linecap:round; stroke-linejoin:round;">
<path d="M69690 76580
L112210 76580
" />
</g>
<g style="fill:#840000; fill-opacity:0.0; 
stroke:#840000; stroke-width:100; stroke-opacity:1; 
stroke-linecap:round; stroke-linejoin:round;">
</g>
<g style="fill:#840000; fill-opacity:0.0; 
stroke:#840000; stroke-width:60; stroke-opacity:1; 
stroke-linecap:round; stroke-linejoin:round;">
<path d="M70220 77390
L70220 76800
" />
<path d="M70560 77390
L70300 77050
" />
<path d="M70560 76800
L70220 77140
" />
<path d="M70810 77390
L70810 77000
" />
<path d="M70810 76800
L70780 76830
L70810 76860
L70840 76830
L70810 76800
L70810 76860
" />
<path d="M71430 77340
L71400 77360
L71320 77390
L71260 77390
L71170 77360
L71120 77310
L71090 77250
L71060 77140
L71060 77050
L71090 76940
L71120 76890
L71170 76830
L71260 76800
L71320 76800
L71400 76830
L71430 76860
" />
<path d="M71930 77390
L71930 77080
L71910 77030
L71850 77000
L71740 77000
L71680 77030
" />
<path d="M71930 77360
L71880 77390
L71740 77390
L71680 77360
L71650 77310
L71650 77250
L71680 77200
L71740 77170
L71880 77170
L71930 77140
" />
<path d="M72460 77390
L72460 76800
" />
<path d="M72460 77360
L72410 77390
L72290 77390
L72240 77360
L72210 77340
L72180 77280
L72180 77110
L72210 77050
L72240 77030
L72290 77000
L72410 77000
L72460 77030
" />
<path d="M73190 77080
L73390 77080
" />
<path d="M73470 77390
L73190 77390
L73190 76800
L73470 76800
" />
<path d="M73720 77340
L73750 77360
L73720 77390
L73690 77360
L73720 77340
L73720 77390
" />
<path d="M74000 77390
L74000 76800
L74140 76800
L74230 76830
L74280 76890
L74310 76940
L74340 77050
L74340 77140
L74310 77250
L74280 77310
L74230 77360
L74140 77390
L74000 77390
" />
<path d="M74590 77340
L74620 77360
L74590 77390
L74560 77360
L74590 77340
L74590 77390
" />
<path d="M74840 77220
L75120 77220
" />
<path d="M74790 77390
L74980 76800
L75180 77390
" />
<path d="M75380 77340
L75410 77360
L75380 77390
L75350 77360
L75380 77340
L75380 77390
" />
<path d="M76560 77390
L76560 76800
" />
<path d="M76620 77170
L76790 77390
" />
<path d="M76790 77000
L76560 77220
" />
<path d="M77040 77390
L77040 77000
" />
<path d="M77040 76800
L77010 76830
L77040 76860
L77070 76830
L77040 76800
L77040 76860
" />
<path d="M77570 77360
L77520 77390
L77400 77390
L77350 77360
L77320 77340
L77290 77280
L77290 77110
L77320 77050
L77350 77030
L77400 77000
L77520 77000
L77570 77030
" />
<path d="M78080 77390
L78080 77080
L78060 77030
L78000 77000
L77890 77000
L77830 77030
" />
<path d="M78080 77360
L78030 77390
L77890 77390
L77830 77360
L77800 77310
L77800 77250
L77830 77200
L77890 77170
L78030 77170
L78080 77140
" />
<path d="M78610 77390
L78610 76800
" />
<path d="M78610 77360
L78560 77390
L78440 77390
L78390 77360
L78360 77340
L78330 77280
L78330 77110
L78360 77050
L78390 77030
L78440 77000
L78560 77000
L78610 77030
" />
<path d="M79590 77000
L79590 77390
" />
<path d="M79450 76770
L79310 77200
L79680 77200
" />
<path d="M79900 77340
L79930 77360
L79900 77390
L79870 77360
L79900 77340
L79900 77390
" />
<path d="M80290 76800
L80350 76800
L80410 76830
L80430 76860
L80460 76910
L80490 77030
L80490 77170
L80460 77280
L80430 77340
L80410 77360
L80350 77390
L80290 77390
L80240 77360
L80210 77340
L80180 77280
L80150 77170
L80150 77030
L80180 76910
L80210 76860
L80240 76830
L80290 76800
" />
<path d="M80740 77340
L80770 77360
L80740 77390
L80710 77360
L80740 77340
L80740 77390
" />
<path d="M81270 77000
L81270 77390
" />
<path d="M81130 76770
L80990 77200
L81360 77200
" />
<path d="M81580 77170
L82030 77170
" />
<path d="M82620 77390
L82280 77390
" />
<path d="M82450 77390
L82450 76800
L82390 76890
L82340 76940
L82280 76970
" />
<path d="M82870 77340
L82900 77360
L82870 77390
L82840 77360
L82870 77340
L82870 77390
" />
<path d="M83070 77000
L83290 77000
" />
<path d="M83150 77390
L83150 76890
L83180 76830
L83230 76800
L83290 76800
" />
<path d="M83740 77360
L83690 77390
L83570 77390
L83520 77360
L83490 77340
L83460 77280
L83460 77110
L83490 77050
L83520 77030
L83570 77000
L83690 77000
L83740 77030
" />
<path d="M83970 76860
L84000 76830
L84060 76800
L84200 76800
L84250 76830
L84280 76860
L84310 76910
L84310 76970
L84280 77050
L83940 77390
L84310 77390
" />
<path d="M84840 76800
L84560 76800
L84530 77080
L84560 77050
L84620 77030
L84760 77030
L84810 77050
L84840 77080
L84870 77140
L84870 77280
L84840 77340
L84810 77360
L84760 77390
L84620 77390
L84560 77360
L84530 77340
" />
<path d="M85120 77170
L85570 77170
" />
<path d="M85850 77000
L85850 77590
" />
<path d="M85850 77030
L85910 77000
L86020 77000
L86080 77030
L86100 77050
L86130 77110
L86130 77280
L86100 77340
L86080 77360
L86020 77390
L85910 77390
L85850 77360
" />
<path d="M86380 77390
L86380 77000
" />
<path d="M86380 77110
L86410 77050
L86440 77030
L86490 77000
L86550 77000
" />
<path d="M86830 77390
L86780 77360
L86750 77340
L86720 77280
L86720 77110
L86750 77050
L86780 77030
L86830 77000
L86920 77000
L86980 77030
L87000 77050
L87030 77110
L87030 77280
L87000 77340
L86980 77360
L86920 77390
L86830 77390
" />
<path d="M87530 77390
L87530 76800
" />
<path d="M87530 77360
L87480 77390
L87360 77390
L87310 77360
L87280 77340
L87250 77280
L87250 77110
L87280 77050
L87310 77030
L87360 77000
L87480 77000
L87530 77030
" />
<path d="M88060 77000
L88060 77390
" />
<path d="M87810 77000
L87810 77310
L87840 77360
L87890 77390
L87980 77390
L88040 77360
L88060 77340
" />
<path d="M88590 77360
L88540 77390
L88420 77390
L88370 77360
L88340 77340
L88310 77280
L88310 77110
L88340 77050
L88370 77030
L88420 77000
L88540 77000
L88590 77030
" />
<path d="M88770 77000
L88990 77000
" />
<path d="M88850 76800
L88850 77310
L88880 77360
L88930 77390
L88990 77390
" />
</g>
<g style="fill:#840000; fill-opacity:0.0; 
stroke:#840000; stroke-width:100; stroke-opacity:1; 
stroke-linecap:round; stroke-linejoin:round;">
</g>
<g style="fill:#840000; fill-opacity:0.0; 
stroke:#840000; stroke-width:60; stroke-opacity:1; 
stroke-linecap:round; stroke-linejoin:round;">
<path d="M69690 75400
L112210 75400
" />
</g>
<g style="fill:#840000; fill-opacity:0.0; 
stroke:#840000; stroke-width:100; stroke-opacity:1; 
stroke-linecap:round; stroke-linejoin:round;">
</g>
<g style="fill:#840000; fill-opacity:0.0; 
stroke:#840000; stroke-width:120; stroke-opacity:1; 
stroke-linecap:round; stroke-linejoin:round;">
<path d="M104020 76290
L103820 76010
" />
<path d="M103680 76290
L103680 75700
L103910 75700
L103960 75730
L103990 75760
L104020 75810
L104020 75900
L103990 75950
L103960 75980
L103910 76010
L103680 76010
" />
<path d="M104500 76260
L104440 76290
L104330 76290
L104270 76260
L104240 76210
L104240 75980
L104270 75930
L104330 75900
L104440 75900
L104500 75930
L104520 75980
L104520 76040
L104240 76100
" />
<path d="M104720 75900
L104860 76290
L105010 75900
" />
<path d="M105230 76240
L105260 76260
L105230 76290
L105200 76260
L105230 76240
L105230 76290
" />
<path d="M105230 75930
L105260 75950
L105230 75980
L105200 75950
L105230 75930
L105230 75980
" />
</g>
<g style="fill:#840000; fill-opacity:0.0; 
stroke:#840000; stroke-width:100; stroke-opacity:1; 
stroke-linecap:round; stroke-linejoin:round;">
</g>
<g style="fill:#840000; fill-opacity:0.0; 
stroke:#840000; stroke-width:60; stroke-opacity:1; 
stroke-linecap:round; stroke-linejoin:round;">
<path d="M70190 76260
L70280 76290
L70420 76290
L70470 76260
L70500 76240
L70530 76180
L70530 76120
L70500 76070
L70470 76040
L70420 76010
L70300 75980
L70250 75950
L70220 75930
L70190 75870
L70190 75810
L70220 75760
L70250 75730
L70300 75700
L70450 75700
L70530 75730
" />
<path d="M70780 76290
L70780 75900
" />
<path d="M70780 75700
L70750 75730
L70780 75760
L70810 75730
L70780 75700
L70780 75760
" />
<path d="M71000 75900
L71310 75900
L71000 76290
L71310 76290
" />
<path d="M71770 76260
L71710 76290
L71600 76290
L71540 76260
L71510 76210
L71510 75980
L71540 75930
L71600 75900
L71710 75900
L71770 75930
L71790 75980
L71790 76040
L71510 76100
" />
<path d="M72050 76240
L72080 76260
L72050 76290
L72020 76260
L72050 76240
L72050 76290
" />
<path d="M72050 75930
L72080 75950
L72050 75980
L72020 75950
L72050 75930
L72050 75980
" />
<path d="M72750 76120
L73030 76120
" />
<path d="M72700 76290
L72890 75700
L73090 76290
" />
<path d="M73540 75900
L73540 76290
" />
<path d="M73400 75670
L73260 76100
L73630 76100
" />
</g>
<g style="fill:#840000; fill-opacity:0.0; 
stroke:#840000; stroke-width:100; stroke-opacity:1; 
stroke-linecap:round; stroke-linejoin:round;">
</g>
<g style="fill:#840000; fill-opacity:0.0; 
stroke:#840000; stroke-width:60; stroke-opacity:1; 
stroke-linecap:round; stroke-linejoin:round;">
<path d="M103680 77390
L103680 76800
" />
<path d="M104210 77390
L104210 76800
" />
<path d="M104210 77360
L104160 77390
L104040 77390
L103990 77360
L103960 77340
L103930 77280
L103930 77110
L103960 77050
L103990 77030
L104040 77000
L104160 77000
L104210 77030
" />
<path d="M104490 77340
L104520 77360
L104490 77390
L104460 77360
L104490 77340
L104490 77390
" />
<path d="M104490 77030
L104520 77050
L104490 77080
L104460 77050
L104490 77030
L104490 77080
" />
<path d="M105500 76800
L105220 76800
L105190 77080
L105220 77050
L105280 77030
L105420 77030
L105470 77050
L105500 77080
L105530 77140
L105530 77280
L105500 77340
L105470 77360
L105420 77390
L105280 77390
L105220 77360
L105190 77340
" />
<path d="M106200 76770
L105700 77530
" />
<path d="M106340 76800
L106740 76800
L106480 77390
" />
</g>
<g style="fill:#840000; fill-opacity:0.0; 
stroke:#840000; stroke-width:100; stroke-opacity:1; 
stroke-linecap:round; stroke-linejoin:round;">
</g>
<g style="fill:#840000; fill-opacity:0.0; 
stroke:#840000; stroke-width:60; stroke-opacity:1; 
stroke-linecap:round; stroke-linejoin:round;">
<path d="M69690 73820
L112210 73820
" />
</g>
<g style="fill:#840000; fill-opacity:0.0; 
stroke:#840000; stroke-width:100; stroke-opacity:1; 
stroke-linecap:round; stroke-linejoin:round;">
</g>
<g style="fill:#840000; fill-opacity:0.0; 
stroke:#840000; stroke-width:160; stroke-opacity:1; 
stroke-linecap:round; stroke-linejoin:round;">
<path d="M70260 74090
L70710 74090
" />
<path d="M70390 74880
L70480 74090
" />
<path d="M70880 74880
L70940 74360
" />
<path d="M70970 74090
L70930 74130
L70960 74170
L71010 74130
L70970 74090
L70960 74170
" />
<path d="M71210 74360
L71510 74360
" />
<path d="M71350 74090
L71270 74770
L71300 74840
L71370 74880
L71450 74880
" />
<path d="M71820 74880
L71750 74840
L71720 74770
L71800 74090
" />
<path d="M72420 74840
L72340 74880
L72190 74880
L72120 74840
L72090 74770
L72130 74470
L72180 74390
L72250 74360
L72400 74360
L72480 74390
L72510 74470
L72500 74540
L72110 74620
" />
<path d="M72800 74810
L72840 74840
L72800 74880
L72760 74840
L72800 74810
L72800 74880
" />
<path d="M72860 74390
L72890 74430
L72850 74470
L72810 74430
L72860 74390
L72850 74470
" />
</g>
<g style="fill:#840000; fill-opacity:0.0; 
stroke:#840000; stroke-width:100; stroke-opacity:1; 
stroke-linecap:round; stroke-linejoin:round;">
</g>
<g style="fill:#840000; fill-opacity:0.0; 
stroke:#840000; stroke-width:60; stroke-opacity:1; 
stroke-linecap:round; stroke-linejoin:round;">
<path d="M70420 73060
L70220 73060
" />
<path d="M70220 73370
L70220 72780
L70500 72780
" />
<path d="M70730 73370
L70730 72980
" />
<path d="M70730 72780
L70700 72810
L70730 72840
L70760 72810
L70730 72780
L70730 72840
" />
<path d="M71090 73370
L71040 73340
L71010 73290
L71010 72780
" />
<path d="M71550 73340
L71490 73370
L71380 73370
L71320 73340
L71290 73290
L71290 73060
L71320 73010
L71380 72980
L71490 72980
L71550 73010
L71570 73060
L71570 73120
L71290 73180
" />
<path d="M71830 73320
L71860 73340
L71830 73370
L71800 73340
L71830 73320
L71830 73370
" />
<path d="M71830 73010
L71860 73030
L71830 73060
L71800 73030
L71830 73010
L71830 73060
" />
<path d="M72560 72980
L72560 73570
" />
<path d="M72560 73010
L72620 72980
L72730 72980
L72790 73010
L72810 73030
L72840 73090
L72840 73260
L72810 73320
L72790 73340
L72730 73370
L72620 73370
L72560 73340
" />
<path d="M73170 73370
L73120 73340
L73090 73320
L73060 73260
L73060 73090
L73090 73030
L73120 73010
L73170 72980
L73260 72980
L73320 73010
L73340 73030
L73370 73090
L73370 73260
L73340 73320
L73320 73340
L73260 73370
L73170 73370
" />
<path d="M73560 72980
L73680 73370
L73790 73090
L73900 73370
L74010 72980
" />
<path d="M74470 73340
L74410 73370
L74300 73370
L74240 73340
L74210 73290
L74210 73060
L74240 73010
L74300 72980
L74410 72980
L74470 73010
L74490 73060
L74490 73120
L74210 73180
" />
<path d="M74750 73370
L74750 72980
" />
<path d="M74750 73090
L74780 73030
L74810 73010
L74860 72980
L74920 72980
" />
<path d="M75120 73370
L75120 72780
" />
<path d="M75120 73010
L75180 72980
L75290 72980
L75350 73010
L75370 73030
L75400 73090
L75400 73260
L75370 73320
L75350 73340
L75290 73370
L75180 73370
L75120 73340
" />
<path d="M75730 73370
L75680 73340
L75650 73320
L75620 73260
L75620 73090
L75650 73030
L75680 73010
L75730 72980
L75820 72980
L75880 73010
L75900 73030
L75930 73090
L75930 73260
L75900 73320
L75880 73340
L75820 73370
L75730 73370
" />
<path d="M76430 73370
L76430 73060
L76410 73010
L76350 72980
L76240 72980
L76180 73010
" />
<path d="M76430 73340
L76380 73370
L76240 73370
L76180 73340
L76150 73290
L76150 73230
L76180 73180
L76240 73150
L76380 73150
L76430 73120
" />
<path d="M76710 73370
L76710 72980
" />
<path d="M76710 73090
L76740 73030
L76770 73010
L76820 72980
L76880 72980
" />
<path d="M77330 73370
L77330 72780
" />
<path d="M77330 73340
L77280 73370
L77160 73370
L77110 73340
L77080 73320
L77050 73260
L77050 73090
L77080 73030
L77110 73010
L77160 72980
L77280 72980
L77330 73010
" />
<path d="M77470 73430
L77920 73430
" />
<path d="M78030 73340
L78090 73370
L78200 73370
L78260 73340
L78290 73290
L78290 73260
L78260 73200
L78200 73180
L78120 73180
L78060 73150
L78030 73090
L78030 73060
L78060 73010
L78120 72980
L78200 72980
L78260 73010
" />
<path d="M78460 72980
L78680 72980
" />
<path d="M78540 72780
L78540 73290
L78570 73340
L78620 73370
L78680 73370
" />
<path d="M79110 73340
L79050 73370
L78940 73370
L78880 73340
L78850 73290
L78850 73060
L78880 73010
L78940 72980
L79050 72980
L79110 73010
L79130 73060
L79130 73120
L78850 73180
" />
<path d="M79390 72980
L79390 73570
" />
<path d="M79390 73010
L79450 72980
L79560 72980
L79620 73010
L79640 73030
L79670 73090
L79670 73260
L79640 73320
L79620 73340
L79560 73370
L79450 73370
L79390 73340
" />
<path d="M80170 72980
L80170 73370
" />
<path d="M79920 72980
L79920 73290
L79950 73340
L80000 73370
L80090 73370
L80150 73340
L80170 73320
" />
<path d="M80450 72980
L80450 73570
" />
<path d="M80450 73010
L80510 72980
L80620 72980
L80680 73010
L80700 73030
L80730 73090
L80730 73260
L80700 73320
L80680 73340
L80620 73370
L80510 73370
L80450 73340
" />
<path d="M80840 73430
L81290 73430
" />
<path d="M81400 72840
L81430 72810
L81490 72780
L81630 72780
L81680 72810
L81710 72840
L81740 72890
L81740 72950
L81710 73030
L81370 73370
L81740 73370
" />
<path d="M82240 72980
L82240 73370
" />
<path d="M82100 72750
L81960 73180
L82330 73180
" />
<path d="M82470 72780
L82660 73370
L82860 72780
" />
<path d="M82920 73430
L83370 73430
" />
<path d="M83760 72780
L83650 72780
L83590 72810
L83570 72840
L83510 72920
L83480 73030
L83480 73260
L83510 73320
L83540 73340
L83590 73370
L83710 73370
L83760 73340
L83790 73320
L83820 73260
L83820 73120
L83790 73060
L83760 73030
L83710 73010
L83590 73010
L83540 73030
L83510 73060
L83480 73120
" />
<path d="M84180 72780
L84240 72780
L84300 72810
L84320 72840
L84350 72890
L84380 73010
L84380 73150
L84350 73260
L84320 73320
L84300 73340
L84240 73370
L84180 73370
L84130 73340
L84100 73320
L84070 73260
L84040 73150
L84040 73010
L84070 72890
L84100 72840
L84130 72810
L84180 72780
" />
<path d="M84570 72780
L84710 73370
L84830 72950
L84940 73370
L85080 72780
" />
<path d="M85300 73320
L85330 73340
L85300 73370
L85270 73340
L85300 73320
L85300 73370
" />
<path d="M85550 73340
L85610 73370
L85720 73370
L85780 73340
L85810 73290
L85810 73260
L85780 73200
L85720 73180
L85640 73180
L85580 73150
L85550 73090
L85550 73060
L85580 73010
L85640 72980
L85720 72980
L85780 73010
" />
<path d="M86310 73340
L86260 73370
L86140 73370
L86090 73340
L86060 73320
L86030 73260
L86030 73090
L86060 73030
L86090 73010
L86140 72980
L86260 72980
L86310 73010
" />
<path d="M86570 73370
L86570 72780
" />
<path d="M86820 73370
L86820 73060
L86800 73010
L86740 72980
L86650 72980
L86600 73010
L86570 73030
" />
</g>
<g style="fill:#840000; fill-opacity:0.0; 
stroke:#840000; stroke-width:100; stroke-opacity:1; 
stroke-linecap:round; stroke-linejoin:round;">
</g>
<g style="fill:#840000; fill-opacity:0.0; 
stroke:#840000; stroke-width:60; stroke-opacity:1; 
stroke-linecap:round; stroke-linejoin:round;">
<path d="M69690 71460
L112210 71460
" />
</g>
<g style="fill:#840000; fill-opacity:0.0; 
stroke:#840000; stroke-width:100; stroke-opacity:1; 
stroke-linecap:round; stroke-linejoin:round;">
</g>
<g style="fill:#840000; fill-opacity:0.0; 
stroke:#840000; stroke-width:60; stroke-opacity:1; 
stroke-linecap:round; stroke-linejoin:round;">
<path d="M70190 72280
L70280 72310
L70420 72310
L70470 72280
L70500 72260
L70530 72200
L70530 72140
L70500 72090
L70470 72060
L70420 72030
L70300 72000
L70250 71970
L70220 71950
L70190 71890
L70190 71830
L70220 71780
L70250 71750
L70300 71720
L70450 71720
L70530 71750
" />
<path d="M70780 72310
L70780 71720
" />
<path d="M71030 72310
L71030 72000
L71010 71950
L70950 71920
L70860 71920
L70810 71950
L70780 71970
" />
<path d="M71540 72280
L71480 72310
L71370 72310
L71310 72280
L71280 72230
L71280 72000
L71310 71950
L71370 71920
L71480 71920
L71540 71950
L71560 72000
L71560 72060
L71280 72120
" />
<path d="M72050 72280
L71990 72310
L71880 72310
L71820 72280
L71790 72230
L71790 72000
L71820 71950
L71880 71920
L71990 71920
L72050 71950
L72070 72000
L72070 72060
L71790 72120
" />
<path d="M72250 71920
L72470 71920
" />
<path d="M72330 71720
L72330 72230
L72360 72280
L72410 72310
L72470 72310
" />
<path d="M72670 72260
L72700 72280
L72670 72310
L72640 72280
L72670 72260
L72670 72310
" />
<path d="M72670 71950
L72700 71970
L72670 72000
L72640 71970
L72670 71950
L72670 72000
" />
<path d="M73820 71690
L73320 72450
" />
<path d="M74020 72310
L74020 71720
L74250 71720
L74300 71750
L74330 71780
L74360 71830
L74360 71920
L74330 71970
L74300 72000
L74250 72030
L74020 72030
" />
<path d="M74690 72310
L74640 72280
L74610 72260
L74580 72200
L74580 72030
L74610 71970
L74640 71950
L74690 71920
L74780 71920
L74840 71950
L74860 71970
L74890 72030
L74890 72200
L74860 72260
L74840 72280
L74780 72310
L74690 72310
" />
<path d="M75080 71920
L75200 72310
L75310 72030
L75420 72310
L75530 71920
" />
<path d="M75990 72280
L75930 72310
L75820 72310
L75760 72280
L75730 72230
L75730 72000
L75760 71950
L75820 71920
L75930 71920
L75990 71950
L76010 72000
L76010 72060
L75730 72120
" />
<path d="M76270 72310
L76270 71920
" />
<path d="M76270 72030
L76300 71970
L76330 71950
L76380 71920
L76440 71920
" />
<path d="M76640 72310
L76640 71720
" />
<path d="M76640 71950
L76700 71920
L76810 71920
L76870 71950
L76890 71970
L76920 72030
L76920 72200
L76890 72260
L76870 72280
L76810 72310
L76700 72310
L76640 72280
" />
<path d="M77250 72310
L77200 72280
L77170 72260
L77140 72200
L77140 72030
L77170 71970
L77200 71950
L77250 71920
L77340 71920
L77400 71950
L77420 71970
L77450 72030
L77450 72200
L77420 72260
L77400 72280
L77340 72310
L77250 72310
" />
<path d="M77950 72310
L77950 72000
L77930 71950
L77870 71920
L77760 71920
L77700 71950
" />
<path d="M77950 72280
L77900 72310
L77760 72310
L77700 72280
L77670 72230
L77670 72170
L77700 72120
L77760 72090
L77900 72090
L77950 72060
" />
<path d="M78230 72310
L78230 71920
" />
<path d="M78230 72030
L78260 71970
L78290 71950
L78340 71920
L78400 71920
" />
<path d="M78850 72310
L78850 71720
" />
<path d="M78850 72280
L78800 72310
L78680 72310
L78630 72280
L78600 72260
L78570 72200
L78570 72030
L78600 71970
L78630 71950
L78680 71920
L78800 71920
L78850 71950
" />
<path d="M79550 72280
L79640 72310
L79780 72310
L79830 72280
L79860 72260
L79890 72200
L79890 72140
L79860 72090
L79830 72060
L79780 72030
L79660 72000
L79610 71970
L79580 71950
L79550 71890
L79550 71830
L79580 71780
L79610 71750
L79660 71720
L79810 71720
L79890 71750
" />
<path d="M80060 71920
L80280 71920
" />
<path d="M80140 71720
L80140 72230
L80170 72280
L80220 72310
L80280 72310
" />
<path d="M80710 72280
L80650 72310
L80540 72310
L80480 72280
L80450 72230
L80450 72000
L80480 71950
L80540 71920
L80650 71920
L80710 71950
L80730 72000
L80730 72060
L80450 72120
" />
<path d="M80990 71920
L80990 72510
" />
<path d="M80990 71950
L81050 71920
L81160 71920
L81220 71950
L81240 71970
L81270 72030
L81270 72200
L81240 72260
L81220 72280
L81160 72310
L81050 72310
L80990 72280
" />
<path d="M81770 71920
L81770 72310
" />
<path d="M81520 71920
L81520 72230
L81550 72280
L81600 72310
L81690 72310
L81750 72280
L81770 72260
" />
<path d="M82050 71920
L82050 72510
" />
<path d="M82050 71950
L82110 71920
L82220 71920
L82280 71950
L82300 71970
L82330 72030
L82330 72200
L82300 72260
L82280 72280
L82220 72310
L82110 72310
L82050 72280
" />
<path d="M83000 71780
L83030 71750
L83090 71720
L83230 71720
L83280 71750
L83310 71780
L83340 71830
L83340 71890
L83310 71970
L82970 72310
L83340 72310
" />
<path d="M83840 71920
L83840 72310
" />
<path d="M83700 71690
L83560 72120
L83930 72120
" />
<path d="M84070 71720
L84260 72310
L84460 71720
" />
<path d="M85360 71720
L85250 71720
L85190 71750
L85170 71780
L85110 71860
L85080 71970
L85080 72200
L85110 72260
L85140 72280
L85190 72310
L85310 72310
L85360 72280
L85390 72260
L85420 72200
L85420 72060
L85390 72000
L85360 71970
L85310 71950
L85190 71950
L85140 71970
L85110 72000
L85080 72060
" />
<path d="M85780 71720
L85840 71720
L85900 71750
L85920 71780
L85950 71830
L85980 71950
L85980 72090
L85950 72200
L85920 72260
L85900 72280
L85840 72310
L85780 72310
L85730 72280
L85700 72260
L85670 72200
L85640 72090
L85640 71950
L85670 71830
L85700 71780
L85730 71750
L85780 71720
" />
<path d="M86170 71720
L86310 72310
L86430 71890
L86540 72310
L86680 71720
" />
<path d="M87320 71690
L86820 72450
" />
</g>
<g style="fill:#840000; fill-opacity:0.0; 
stroke:#840000; stroke-width:100; stroke-opacity:1; 
stroke-linecap:round; stroke-linejoin:round;">
</g>
<g style="fill:#840000; fill-opacity:0.0; 
stroke:#840000; stroke-width:60; stroke-opacity:1; 
stroke-linecap:round; stroke-linejoin:round;">
<path d="M77560 75400
L77560 76580
" />
</g>
<g style="fill:#840000; fill-opacity:0.0; 
stroke:#840000; stroke-width:100; stroke-opacity:1; 
stroke-linecap:round; stroke-linejoin:round;">
</g>
<g style="fill:#840000; fill-opacity:0.0; 
stroke:#840000; stroke-width:60; stroke-opacity:1; 
stroke-linecap:round; stroke-linejoin:round;">
<path d="M102760 75400
L102760 77960
" />
</g>
<g style="fill:#848400; fill-opacity:0.0; 
stroke:#848400; stroke-width:60; stroke-opacity:1; 
stroke-linecap:round; stroke-linejoin:round;">
<path d="M15520 14460
L15610 14490
L15640 14510
L15670 14570
L15670 14660
L15640 14710
L15610 14740
L15550 14770
L15320 14770
L15320 14170
L15520 14170
L15580 14200
L15610 14230
L15640 14290
L15640 14340
L15610 14400
L15580 14430
L15520 14460
L15320 14460
" />
<path d="M15890 14600
L16180 14600
" />
<path d="M15840 14770
L16040 14170
L16240 14770
" />
<path d="M16350 14170
L16690 14170
" />
<path d="M16520 14770
L16520 14170
" />
<path d="M16750 14830
L17210 14830
" />
<path d="M17670 14770
L17320 14770
" />
<path d="M17500 14770
L17500 14170
L17440 14260
L17380 14310
L17320 14340
" />
<path d="M18040 14170
L18090 14170
L18150 14200
L18180 14230
L18210 14290
L18240 14400
L18240 14540
L18210 14660
L18180 14710
L18150 14740
L18090 14770
L18040 14770
L17980 14740
L17950 14710
L17920 14660
L17890 14540
L17890 14400
L17920 14290
L17950 14230
L17980 14200
L18040 14170
" />
<path d="M18410 14170
L18610 14770
L18810 14170
" />
<path d="M18860 14830
L19320 14830
" />
<path d="M19460 14770
L19460 14170
" />
<path d="M19750 14770
L19750 14170
L20100 14770
L20100 14170
" />
</g>
<g style="fill:#848400; fill-opacity:0.0; 
stroke:#848400; stroke-width:100; stroke-opacity:1; 
stroke-linecap:round; stroke-linejoin:round;">
<polyline fill="none;"
points="21000,14500
20700,14200
20400,14200
20400,14800
20700,14800
21000,14500
" /> 
</g>
<g style="fill:#848400; fill-opacity:0.0; 
stroke:#848400; stroke-width:60; stroke-opacity:1; 
stroke-linecap:round; stroke-linejoin:round;">
<path d="M71870 14230
L71900 14200
L71960 14170
L72100 14170
L72160 14200
L72190 14230
L72220 14290
L72220 14340
L72190 14430
L71850 14770
L72220 14770
" />
<path d="M72730 14370
L72730 14770
" />
<path d="M72590 14140
L72440 14570
L72820 14570
" />
<path d="M72990 14170
L73130 14770
L73240 14340
L73360 14770
L73500 14170
" />
<path d="M73590 14830
L74050 14830
" />
<path d="M74450 14170
L74340 14170
L74280 14200
L74250 14230
L74190 14310
L74160 14430
L74160 14660
L74190 14710
L74220 14740
L74280 14770
L74390 14770
L74450 14740
L74480 14710
L74510 14660
L74510 14510
L74480 14460
L74450 14430
L74390 14400
L74280 14400
L74220 14430
L74190 14460
L74160 14510
" />
<path d="M74880 14170
L74930 14170
L74990 14200
L75020 14230
L75050 14290
L75080 14400
L75080 14540
L75050 14660
L75020 14710
L74990 14740
L74930 14770
L74880 14770
L74820 14740
L74790 14710
L74760 14660
L74730 14540
L74730 14400
L74760 14290
L74790 14230
L74820 14200
L74880 14170
" />
<path d="M75280 14170
L75420 14770
L75530 14340
L75650 14770
L75790 14170
" />
<path d="M75880 14830
L76340 14830
" />
<path d="M76600 14170
L76710 14170
L76770 14200
L76830 14260
L76850 14370
L76850 14570
L76830 14690
L76770 14740
L76710 14770
L76600 14770
L76540 14740
L76480 14690
L76450 14570
L76450 14370
L76480 14260
L76540 14200
L76600 14170
" />
<path d="M77110 14170
L77110 14660
L77140 14710
L77170 14740
L77230 14770
L77340 14770
L77400 14740
L77430 14710
L77460 14660
L77460 14170
" />
<path d="M77660 14170
L78000 14170
" />
<path d="M77830 14770
L77830 14170
" />
</g>
<g style="fill:#848400; fill-opacity:0.0; 
stroke:#848400; stroke-width:100; stroke-opacity:1; 
stroke-linecap:round; stroke-linejoin:round;">
<polyline fill="none;"
points="71000,14500
71300,14800
71600,14800
71600,14200
71300,14200
71000,14500
" /> 
</g>
<g style="fill:#848400; fill-opacity:0.0; 
stroke:#848400; stroke-width:60; stroke-opacity:1; 
stroke-linecap:round; stroke-linejoin:round;">
<path d="M28390 19460
L28590 19460
" />
<path d="M28680 19770
L28390 19770
L28390 19170
L28680 19170
" />
<path d="M28930 19770
L28930 19170
L29280 19770
L29280 19170
" />
<path d="M29420 19830
L29880 19830
" />
<path d="M30020 19770
L30020 19170
L30250 19170
L30310 19200
L30340 19230
L30370 19290
L30370 19370
L30340 19430
L30310 19460
L30250 19490
L30020 19490
" />
<path d="M30570 19170
L30710 19770
L30820 19340
L30940 19770
L31080 19170
" />
<path d="M31310 19770
L31310 19170
L31510 19600
L31710 19170
L31710 19770
" />
<path d="M31860 19830
L32320 19830
" />
<path d="M32460 19770
L32460 19170
" />
<path d="M32750 19770
L32750 19170
L33100 19770
L33100 19170
" />
</g>
<g style="fill:#848400; fill-opacity:0.0; 
stroke:#848400; stroke-width:100; stroke-opacity:1; 
stroke-linecap:round; stroke-linejoin:round;">
<polyline fill="none;"
points="34000,19500
33700,19200
33400,19200
33400,19800
33700,19800
34000,19500
" /> 
</g>
<g style="fill:#848400; fill-opacity:0.0; 
stroke:#848400; stroke-width:0; stroke-opacity:1; 
stroke-linecap:round; stroke-linejoin:round;">
</g>
<g style="fill:#840000; fill-opacity:0.0; 
stroke:#840000; stroke-width:0; stroke-opacity:1; 
stroke-linecap:round; stroke-linejoin:round;">
</g>
<g style="fill:#840000; fill-opacity:0.0; 
stroke:#840000; stroke-width:60; stroke-opacity:1; 
stroke-linecap:round; stroke-linejoin:round;">
<polyline fill="none;"
points="40000,36500
40000,37000
40500,37000
40000,37500
39500,37000
40000,37000
" /> 
</g>
<g style="fill:#008484; fill-opacity:0.0; 
stroke:#008484; stroke-width:60; stroke-opacity:1; 
stroke-linecap:round; stroke-linejoin:round;">
<path d="M39620 37780
L39570 37760
L39500 37760
L39430 37780
L39380 37830
L39360 37880
L39340 37970
L39340 38040
L39360 38140
L39380 38180
L39430 38230
L39500 38260
L39550 38260
L39620 38230
L39640 38210
L39640 38040
L39550 38040
" />
<path d="M39860 38260
L39860 37760
L40140 38260
L40140 37760
" />
<path d="M40380 38260
L40380 37760
L40500 37760
L40570 37780
L40620 37830
L40640 37880
L40660 37970
L40660 38040
L40640 38140
L40620 38180
L40570 38230
L40500 38260
L40380 38260
" />
</g>
<g style="fill:#008484; fill-opacity:0.0; 
stroke:#008484; stroke-width:0; stroke-opacity:1; 
stroke-linecap:round; stroke-linejoin:round;">
</g>
<g style="fill:#840000; fill-opacity:0.0; 
stroke:#840000; stroke-width:0; stroke-opacity:1; 
stroke-linecap:round; stroke-linejoin:round;">
</g>
<g style="fill:#840000; fill-opacity:0.0; 
stroke:#840000; stroke-width:60; stroke-opacity:1; 
stroke-linecap:round; stroke-linejoin:round;">
<rect x="38000" y="17500" width="6000" height="6000" rx="0" />
<path d="M43000 23500
L43000 25500
" />
</g>
<g style="fill:#008484; fill-opacity:0.0; 
stroke:#008484; stroke-width:60; stroke-opacity:1; 
stroke-linecap:round; stroke-linejoin:round;">
<path d="M42730 23050
L43230 22890
L42730 22720
" />
<path d="M43200 22340
L43230 22380
L43230 22480
L43200 22530
L43180 22550
L43130 22570
L42990 22570
L42940 22550
L42920 22530
L42890 22480
L42890 22380
L42920 22340
" />
</g>
<g style="fill:#840000; fill-opacity:0.0; 
stroke:#840000; stroke-width:60; stroke-opacity:1; 
stroke-linecap:round; stroke-linejoin:round;">
<path d="M42880 24360
L42880 24640
" />
<path d="M42880 24500
L42380 24500
L42450 24550
L42500 24600
L42520 24640
" />
<path d="M44000 20000
L46000 20000
" />
</g>
<g style="fill:#008484; fill-opacity:0.0; 
stroke:#008484; stroke-width:60; stroke-opacity:1; 
stroke-linecap:round; stroke-linejoin:round;">
<path d="M42960 19960
L42790 19960
" />
<path d="M42790 20230
L42790 19730
L43030 19730
" />
<path d="M43390 19960
L43460 19990
L43480 20010
L43500 20060
L43500 20130
L43480 20180
L43460 20200
L43410 20230
L43220 20230
L43220 19730
L43390 19730
L43430 19750
L43460 19770
L43480 19820
L43480 19870
L43460 19920
L43430 19940
L43390 19960
L43220 19960
" />
</g>
<g style="fill:#840000; fill-opacity:0.0; 
stroke:#840000; stroke-width:60; stroke-opacity:1; 
stroke-linecap:round; stroke-linejoin:round;">
<path d="M44860 19420
L44880 19400
L44930 19380
L45050 19380
L45090 19400
L45120 19420
L45140 19470
L45140 19520
L45120 19590
L44830 19880
L45140 19880
" />
<path d="M38000 19500
L36000 19500
" />
</g>
<g style="fill:#008484; fill-opacity:0.0; 
stroke:#008484; stroke-width:60; stroke-opacity:1; 
stroke-linecap:round; stroke-linejoin:round;">
<path d="M38500 19700
L38570 19730
L38690 19730
L38730 19700
L38760 19680
L38780 19630
L38780 19580
L38760 19540
L38730 19510
L38690 19490
L38590 19460
L38540 19440
L38520 19420
L38500 19370
L38500 19320
L38520 19270
L38540 19250
L38590 19230
L38710 19230
L38780 19250
" />
<path d="M39360 19200
L38930 19850
" />
<path d="M39500 19700
L39570 19730
L39690 19730
L39730 19700
L39760 19680
L39780 19630
L39780 19580
L39760 19540
L39730 19510
L39690 19490
L39590 19460
L39540 19440
L39520 19420
L39500 19370
L39500 19320
L39520 19270
L39540 19250
L39590 19230
L39710 19230
L39780 19250
" />
</g>
<g style="fill:#840000; fill-opacity:0.0; 
stroke:#840000; stroke-width:60; stroke-opacity:1; 
stroke-linecap:round; stroke-linejoin:round;">
<path d="M36830 18880
L37140 18880
L36970 19070
L37050 19070
L37090 19090
L37120 19110
L37140 19160
L37140 19280
L37120 19330
L37090 19350
L37050 19380
L36900 19380
L36860 19350
L36830 19330
" />
<path d="M40500 23500
L40500 25500
" />
</g>
<g style="fill:#008484; fill-opacity:0.0; 
stroke:#008484; stroke-width:60; stroke-opacity:1; 
stroke-linecap:round; stroke-linejoin:round;">
<path d="M40250 22720
L40230 22770
L40230 22840
L40250 22910
L40300 22960
L40350 22980
L40440 23000
L40510 23000
L40610 22980
L40650 22960
L40700 22910
L40730 22840
L40730 22790
L40700 22720
L40680 22700
L40510 22700
L40510 22790
" />
<path d="M40730 22480
L40230 22480
L40730 22200
L40230 22200
" />
<path d="M40730 21960
L40230 21960
L40230 21840
L40250 21770
L40300 21720
L40350 21700
L40440 21680
L40510 21680
L40610 21700
L40650 21720
L40700 21770
L40730 21840
L40730 21960
" />
</g>
<g style="fill:#840000; fill-opacity:0.0; 
stroke:#840000; stroke-width:60; stroke-opacity:1; 
stroke-linecap:round; stroke-linejoin:round;">
<path d="M40040 24410
L40380 24410
" />
<path d="M39850 24530
L40210 24640
L40210 24340
" />
<path d="M44000 18500
L46000 18500
" />
</g>
<g style="fill:#008484; fill-opacity:0.0; 
stroke:#008484; stroke-width:60; stroke-opacity:1; 
stroke-linecap:round; stroke-linejoin:round;">
<path d="M42300 18230
L42460 18730
L42630 18230
" />
<path d="M42780 18700
L42820 18730
L42920 18730
L42970 18700
L42990 18650
L42990 18630
L42970 18580
L42920 18560
L42850 18560
L42800 18540
L42780 18490
L42780 18460
L42800 18420
L42850 18390
L42920 18390
L42970 18420
" />
<path d="M43150 18390
L43250 18730
L43340 18490
L43440 18730
L43530 18390
" />
</g>
<g style="fill:#840000; fill-opacity:0.0; 
stroke:#840000; stroke-width:60; stroke-opacity:1; 
stroke-linecap:round; stroke-linejoin:round;">
<path d="M45120 17880
L44880 17880
L44860 18110
L44880 18090
L44930 18070
L45050 18070
L45090 18090
L45120 18110
L45140 18160
L45140 18280
L45120 18330
L45090 18350
L45050 18380
L44930 18380
L44880 18350
L44860 18330
" />
<path d="M44000 21000
L46000 21000
" />
</g>
<g style="fill:#008484; fill-opacity:0.0; 
stroke:#008484; stroke-width:60; stroke-opacity:1; 
stroke-linecap:round; stroke-linejoin:round;">
<path d="M42270 21230
L42270 20730
L42550 21230
L42550 20730
" />
<path d="M42960 20960
L42790 20960
" />
<path d="M42790 21230
L42790 20730
L43030 20730
" />
<path d="M43390 20960
L43460 20990
L43480 21010
L43500 21060
L43500 21130
L43480 21180
L43460 21200
L43410 21230
L43220 21230
L43220 20730
L43390 20730
L43430 20750
L43460 20770
L43480 20820
L43480 20870
L43460 20920
L43430 20940
L43390 20960
L43220 20960
" />
</g>
<g style="fill:#840000; fill-opacity:0.0; 
stroke:#840000; stroke-width:60; stroke-opacity:1; 
stroke-linecap:round; stroke-linejoin:round;">
<path d="M45090 20380
L45000 20380
L44950 20400
L44930 20420
L44880 20500
L44860 20590
L44860 20780
L44880 20830
L44900 20850
L44950 20880
L45050 20880
L45090 20850
L45120 20830
L45140 20780
L45140 20660
L45120 20610
L45090 20590
L45050 20570
L44950 20570
L44900 20590
L44880 20610
L44860 20660
" />
<path d="M40500 17500
L40500 15500
" />
</g>
<g style="fill:#008484; fill-opacity:0.0; 
stroke:#008484; stroke-width:60; stroke-opacity:1; 
stroke-linecap:round; stroke-linejoin:round;">
<path d="M40230 18970
L40730 18810
L40230 18640
" />
<path d="M40730 18470
L40390 18470
" />
<path d="M40230 18470
L40250 18490
L40270 18470
L40250 18450
L40230 18470
L40270 18470
" />
<path d="M40390 18230
L40730 18230
" />
<path d="M40440 18230
L40420 18210
L40390 18160
L40390 18090
L40420 18040
L40460 18020
L40730 18020
" />
</g>
<g style="fill:#840000; fill-opacity:0.0; 
stroke:#840000; stroke-width:60; stroke-opacity:1; 
stroke-linecap:round; stroke-linejoin:round;">
<path d="M39880 16670
L39880 16340
L40380 16550
" />
<path d="M39500 23500
L39500 25500
" />
</g>
<g style="fill:#008484; fill-opacity:0.0; 
stroke:#008484; stroke-width:60; stroke-opacity:1; 
stroke-linecap:round; stroke-linejoin:round;">
<path d="M39250 22720
L39230 22770
L39230 22840
L39250 22910
L39300 22960
L39350 22980
L39440 23000
L39510 23000
L39610 22980
L39650 22960
L39700 22910
L39730 22840
L39730 22790
L39700 22720
L39680 22700
L39510 22700
L39510 22790
" />
<path d="M39730 22480
L39230 22480
L39730 22200
L39230 22200
" />
<path d="M39730 21960
L39230 21960
L39230 21840
L39250 21770
L39300 21720
L39350 21700
L39440 21680
L39510 21680
L39610 21700
L39650 21720
L39700 21770
L39730 21840
L39730 21960
" />
</g>
<g style="fill:#840000; fill-opacity:0.0; 
stroke:#840000; stroke-width:60; stroke-opacity:1; 
stroke-linecap:round; stroke-linejoin:round;">
<path d="M39090 24550
L39070 24600
L39040 24620
L39000 24640
L38970 24640
L38920 24620
L38900 24600
L38880 24550
L38880 24450
L38900 24410
L38920 24380
L38970 24360
L39000 24360
L39040 24380
L39070 24410
L39090 24450
L39090 24550
L39110 24600
L39140 24620
L39190 24640
L39280 24640
L39330 24620
L39350 24600
L39380 24550
L39380 24450
L39350 24410
L39330 24380
L39280 24360
L39190 24360
L39140 24380
L39110 24410
L39090 24450
" />
</g>
<g style="fill:#008484; fill-opacity:0.0; 
stroke:#008484; stroke-width:60; stroke-opacity:1; 
stroke-linecap:round; stroke-linejoin:round;">
<path d="M38070 16710
L38070 17200
L38100 17250
L38130 17280
L38190 17310
L38300 17310
L38360 17280
L38390 17250
L38420 17200
L38420 16710
" />
<path d="M38790 17250
L38820 17280
L38790 17310
L38760 17280
L38790 17250
L38790 17310
" />
<path d="M38670 16740
L38730 16710
L38870 16710
L38930 16740
L38960 16800
L38960 16850
L38930 16910
L38900 16940
L38850 16970
L38820 17000
L38790 17050
L38790 17080
" />
<path d="M41320 17310
L41030 17310
L41030 16710
" />
<path d="M41440 16710
L41780 16710
" />
<path d="M41610 17310
L41610 16710
" />
<path d="M42300 17310
L41950 17310
" />
<path d="M42130 17310
L42130 16710
L42070 16800
L42010 16850
L41950 16880
" />
<path d="M42500 16710
L42870 16710
L42670 16940
L42750 16940
L42810 16970
L42840 17000
L42870 17050
L42870 17200
L42840 17250
L42810 17280
L42750 17310
L42580 17310
L42520 17280
L42500 17250
" />
<path d="M43070 16710
L43470 16710
L43210 17310
" />
<path d="M43810 16710
L43860 16710
L43920 16740
L43950 16770
L43980 16830
L44010 16940
L44010 17080
L43980 17200
L43950 17250
L43920 17280
L43860 17310
L43810 17310
L43750 17280
L43720 17250
L43690 17200
L43660 17080
L43660 16940
L43690 16830
L43720 16770
L43750 16740
L43810 16710
" />
</g>
<g style="fill:#008484; fill-opacity:0.0; 
stroke:#008484; stroke-width:0; stroke-opacity:1; 
stroke-linecap:round; stroke-linejoin:round;">
</g>
<g style="fill:#840000; fill-opacity:0.0; 
stroke:#840000; stroke-width:0; stroke-opacity:1; 
stroke-linecap:round; stroke-linejoin:round;">
</g>
<g style="fill:#840000; fill-opacity:0.0; 
stroke:#840000; stroke-width:60; stroke-opacity:1; 
stroke-linecap:round; stroke-linejoin:round;">
<path d="M46499.9 14490.4 A500 500 0.0 0 0 45500.1 14490.4 " />
<path d="M45499.9 14490.2 A510 510 0.0 0 0 44480.1 14490.2 " />
<path d="M44499.9 14490.2 A510 510 0.0 0 0 43480.1 14490.2 " />
<path d="M43499.9 14490.8 A480 480 0.0 0 0 42540.1 14490.8 " />
<path d="M42500 14500
L41500 14500
" />
<path d="M46500 14500
L47500 14500
" />
</g>
<g style="fill:#008484; fill-opacity:0.0; 
stroke:#008484; stroke-width:60; stroke-opacity:1; 
stroke-linecap:round; stroke-linejoin:round;">
<path d="M44440 15190
L44200 15190
L44200 14690
" />
<path d="M44670 15140
L44690 15160
L44670 15190
L44650 15160
L44670 15140
L44670 15190
" />
<path d="M44580 14710
L44620 14690
L44740 14690
L44790 14710
L44810 14760
L44810 14810
L44790 14850
L44770 14880
L44720 14900
L44690 14920
L44670 14970
L44670 15000
" />
<path d="M43080 13660
L43040 13690
L42940 13690
L42890 13660
L42870 13640
L42850 13590
L42850 13450
L42870 13400
L42890 13380
L42940 13350
L43040 13350
L43080 13380
" />
<path d="M43510 13690
L43510 13420
L43490 13380
L43440 13350
L43350 13350
L43300 13380
" />
<path d="M43510 13660
L43470 13690
L43350 13690
L43300 13660
L43280 13610
L43280 13570
L43300 13520
L43350 13500
L43470 13500
L43510 13470
" />
<path d="M43750 13640
L43770 13660
L43750 13690
L43730 13660
L43750 13640
L43750 13690
" />
<path d="M44630 13690
L44350 13690
" />
<path d="M44490 13690
L44490 13190
L44440 13260
L44390 13310
L44350 13330
" />
<path d="M44940 13190
L44990 13190
L45040 13210
L45060 13230
L45090 13280
L45110 13380
L45110 13500
L45090 13590
L45060 13640
L45040 13660
L44990 13690
L44940 13690
L44900 13660
L44870 13640
L44850 13590
L44830 13500
L44830 13380
L44850 13280
L44870 13230
L44900 13210
L44940 13190
" />
<path d="M45330 13350
L45330 13850
" />
<path d="M45570 13610
L45590 13660
L45640 13690
" />
<path d="M45330 13610
L45350 13660
L45400 13690
L45500 13690
L45540 13660
L45570 13610
L45570 13350
" />
<path d="M45850 13690
L45850 13190
" />
<path d="M45850 13420
L46130 13420
" />
<path d="M46130 13690
L46130 13190
" />
</g>
<g style="fill:#008484; fill-opacity:0.0; 
stroke:#008484; stroke-width:0; stroke-opacity:1; 
stroke-linecap:round; stroke-linejoin:round;">
</g>
<g style="fill:#840000; fill-opacity:0.0; 
stroke:#840000; stroke-width:0; stroke-opacity:1; 
stroke-linecap:round; stroke-linejoin:round;">
</g>
<g style="fill:#840000; fill-opacity:1.0; 
stroke:#840000; stroke-width:60; stroke-opacity:1; 
stroke-linecap:round; stroke-linejoin:round;">
<polyline style="fill-rule:evenodd;"
points="50500,15000
51500,14500
50500,14000
" /> 
</g>
<g style="fill:#840000; fill-opacity:0.0; 
stroke:#840000; stroke-width:80; stroke-opacity:1; 
stroke-linecap:round; stroke-linejoin:round;">
<polyline fill="none;"
points="51750,14750
51750,15000
51500,15000
51500,14000
51250,14000
51250,14250
" /> 
</g>
<g style="fill:#840000; fill-opacity:0.0; 
stroke:#840000; stroke-width:60; stroke-opacity:1; 
stroke-linecap:round; stroke-linejoin:round;">
<path d="M51500 14500
L52500 14500
" />
<path d="M50500 14500
L49500 14500
" />
</g>
<g style="fill:#008484; fill-opacity:0.0; 
stroke:#008484; stroke-width:60; stroke-opacity:1; 
stroke-linecap:round; stroke-linejoin:round;">
<path d="M50650 15690
L50650 15190
L50770 15190
L50840 15210
L50890 15260
L50910 15310
L50930 15400
L50930 15470
L50910 15570
L50890 15610
L50840 15660
L50770 15690
L50650 15690
" />
<path d="M51220 15640
L51240 15660
L51220 15690
L51200 15660
L51220 15640
L51220 15690
" />
<path d="M51130 15210
L51170 15190
L51290 15190
L51340 15210
L51360 15260
L51360 15310
L51340 15350
L51320 15380
L51270 15400
L51240 15420
L51220 15470
L51220 15500
" />
<path d="M48280 13690
L48280 13190
L48450 13540
L48610 13190
L48610 13690
" />
<path d="M49020 13420
L49090 13450
L49110 13470
L49130 13520
L49130 13590
L49110 13640
L49090 13660
L49040 13690
L48850 13690
L48850 13190
L49020 13190
L49060 13210
L49090 13230
L49110 13280
L49110 13330
L49090 13380
L49060 13400
L49020 13420
L48850 13420
" />
<path d="M49630 13690
L49470 13450
" />
<path d="M49350 13690
L49350 13190
L49540 13190
L49590 13210
L49610 13230
L49630 13280
L49630 13350
L49610 13400
L49590 13420
L49540 13450
L49350 13450
" />
<path d="M49850 13690
L49850 13190
L49970 13190
L50040 13210
L50090 13260
L50110 13310
L50130 13400
L50130 13470
L50110 13570
L50090 13610
L50040 13660
L49970 13690
L49850 13690
" />
<path d="M50420 13400
L50370 13380
L50350 13350
L50330 13310
L50330 13280
L50350 13230
L50370 13210
L50420 13190
L50520 13190
L50560 13210
L50590 13230
L50610 13280
L50610 13310
L50590 13350
L50560 13380
L50520 13400
L50420 13400
L50370 13420
L50350 13450
L50330 13500
L50330 13590
L50350 13640
L50370 13660
L50420 13690
L50520 13690
L50560 13660
L50590 13640
L50610 13590
L50610 13500
L50590 13450
L50560 13420
L50520 13400
" />
<path d="M50780 13190
L51090 13190
L50920 13380
L51000 13380
L51040 13400
L51070 13420
L51090 13470
L51090 13590
L51070 13640
L51040 13660
L51000 13690
L50850 13690
L50810 13660
L50780 13640
" />
<path d="M51550 13190
L51310 13190
L51290 13420
L51310 13400
L51360 13380
L51480 13380
L51520 13400
L51550 13420
L51570 13470
L51570 13590
L51550 13640
L51520 13660
L51480 13690
L51360 13690
L51310 13660
L51290 13640
" />
<path d="M52030 13690
L51790 13690
L51790 13190
" />
<path d="M52640 13690
L52590 13660
L52570 13640
L52550 13590
L52550 13450
L52570 13400
L52590 13380
L52640 13350
L52710 13350
L52760 13380
L52780 13400
L52810 13450
L52810 13590
L52780 13640
L52760 13660
L52710 13690
L52640 13690
" />
<path d="M53020 13640
L53040 13660
L53020 13690
L53000 13660
L53020 13640
L53020 13690
" />
<path d="M53470 13690
L53470 13420
L53450 13380
L53400 13350
L53310 13350
L53260 13380
" />
<path d="M53470 13660
L53430 13690
L53310 13690
L53260 13660
L53240 13610
L53240 13570
L53260 13520
L53310 13500
L53430 13500
L53470 13470
" />
<path d="M53260 13190
L53280 13210
L53260 13230
L53240 13210
L53260 13190
L53260 13230
" />
<path d="M53450 13190
L53470 13210
L53450 13230
L53430 13210
L53450 13190
L53450 13230
" />
<path d="M53710 13640
L53730 13660
L53710 13690
L53690 13660
L53710 13640
L53710 13690
" />
</g>
<g style="fill:#008400; fill-opacity:0.0; 
stroke:#008400; stroke-width:60; stroke-opacity:1; 
stroke-linecap:round; stroke-linejoin:round;">
<path d="M46000 18500
L48500 18500
" />
<path d="M48500 18500
L48500 14500
" />
<path d="M47500 14500
L49500 14500
" />
</g>
<g style="fill:#008400; fill-opacity:0.0; 
stroke:#008400; stroke-width:0; stroke-opacity:1; 
stroke-linecap:round; stroke-linejoin:round;">
</g>
<g style="fill:#008400; fill-opacity:1.0; 
stroke:#008400; stroke-width:100; stroke-opacity:1; 
stroke-linecap:round; stroke-linejoin:round;">
<circle cx="48500" cy="14500" r="200" /> 
</g>
<g style="fill:#008400; fill-opacity:1.0; 
stroke:#008400; stroke-width:60; stroke-opacity:1; 
stroke-linecap:round; stroke-linejoin:round;">
</g>
<g style="fill:#008400; fill-opacity:0.0; 
stroke:#008400; stroke-width:60; stroke-opacity:1; 
stroke-linecap:round; stroke-linejoin:round;">
<path d="M40500 15500
L40500 14500
" />
<path d="M21000 14500
L41500 14500
" />
</g>
<g style="fill:#008400; fill-opacity:0.0; 
stroke:#008400; stroke-width:0; stroke-opacity:1; 
stroke-linecap:round; stroke-linejoin:round;">
</g>
<g style="fill:#840000; fill-opacity:0.0; 
stroke:#840000; stroke-width:0; stroke-opacity:1; 
stroke-linecap:round; stroke-linejoin:round;">
</g>
<g style="fill:#840000; fill-opacity:0.0; 
stroke:#840000; stroke-width:100; stroke-opacity:1; 
stroke-linecap:round; stroke-linejoin:round;">
<rect x="53100" y="16000" width="800" height="2000" rx="0" />
</g>
<g style="fill:#840000; fill-opacity:0.0; 
stroke:#840000; stroke-width:60; stroke-opacity:1; 
stroke-linecap:round; stroke-linejoin:round;">
<path d="M53500 16000
L53500 15500
" />
<path d="M53500 18000
L53500 18500
" />
</g>
<g style="fill:#008484; fill-opacity:0.0; 
stroke:#008484; stroke-width:60; stroke-opacity:1; 
stroke-linecap:round; stroke-linejoin:round;">
<path d="M54560 17050
L54320 17210
" />
<path d="M54560 17330
L54060 17330
L54060 17140
L54080 17090
L54100 17070
L54150 17050
L54220 17050
L54270 17070
L54290 17090
L54320 17140
L54320 17330
" />
<path d="M54510 16760
L54530 16740
L54560 16760
L54530 16780
L54510 16760
L54560 16760
" />
<path d="M54080 16850
L54060 16810
L54060 16690
L54080 16640
L54130 16620
L54180 16620
L54220 16640
L54250 16660
L54270 16710
L54290 16740
L54340 16760
L54370 16760
" />
<path d="M53760 17540
L53760 17820
" />
<path d="M53760 17680
L53260 17680
L53330 17730
L53380 17780
L53400 17820
" />
<path d="M53760 17060
L53760 17340
" />
<path d="M53760 17200
L53260 17200
L53330 17250
L53380 17300
L53400 17340
" />
<path d="M53260 16890
L53260 16580
L53450 16750
L53450 16670
L53470 16630
L53490 16600
L53540 16580
L53660 16580
L53710 16600
L53730 16630
L53760 16670
L53760 16820
L53730 16860
L53710 16890
" />
<path d="M53760 16360
L53260 16360
" />
<path d="M53570 16310
L53760 16170
" />
<path d="M53420 16170
L53610 16360
" />
</g>
<g style="fill:#008484; fill-opacity:0.0; 
stroke:#008484; stroke-width:0; stroke-opacity:1; 
stroke-linecap:round; stroke-linejoin:round;">
</g>
<g style="fill:#840000; fill-opacity:0.0; 
stroke:#840000; stroke-width:0; stroke-opacity:1; 
stroke-linecap:round; stroke-linejoin:round;">
</g>
<g style="fill:#840000; fill-opacity:0.0; 
stroke:#840000; stroke-width:100; stroke-opacity:1; 
stroke-linecap:round; stroke-linejoin:round;">
<rect x="53100" y="22000" width="800" height="2000" rx="0" />
</g>
<g style="fill:#840000; fill-opacity:0.0; 
stroke:#840000; stroke-width:60; stroke-opacity:1; 
stroke-linecap:round; stroke-linejoin:round;">
<path d="M53500 22000
L53500 21500
" />
<path d="M53500 24000
L53500 24500
" />
</g>
<g style="fill:#008484; fill-opacity:0.0; 
stroke:#008484; stroke-width:60; stroke-opacity:1; 
stroke-linecap:round; stroke-linejoin:round;">
<path d="M54560 23050
L54320 23210
" />
<path d="M54560 23330
L54060 23330
L54060 23140
L54080 23090
L54100 23070
L54150 23050
L54220 23050
L54270 23070
L54290 23090
L54320 23140
L54320 23330
" />
<path d="M54510 22760
L54530 22740
L54560 22760
L54530 22780
L54510 22760
L54560 22760
" />
<path d="M54080 22850
L54060 22810
L54060 22690
L54080 22640
L54130 22620
L54180 22620
L54220 22640
L54250 22660
L54270 22710
L54290 22740
L54340 22760
L54370 22760
" />
<path d="M53260 23590
L53260 23680
L53280 23730
L53300 23750
L53380 23800
L53470 23820
L53660 23820
L53710 23800
L53730 23780
L53760 23730
L53760 23630
L53730 23590
L53710 23560
L53660 23540
L53540 23540
L53490 23560
L53470 23590
L53450 23630
L53450 23730
L53470 23780
L53490 23800
L53540 23820
" />
<path d="M53760 23320
L53260 23320
" />
<path d="M53570 23270
L53760 23130
" />
<path d="M53420 23130
L53610 23320
" />
<path d="M53760 22660
L53760 22940
" />
<path d="M53760 22800
L53260 22800
L53330 22850
L53380 22900
L53400 22940
" />
<path d="M53760 22420
L53760 22320
L53730 22270
L53710 22250
L53640 22200
L53540 22180
L53350 22180
L53300 22200
L53280 22230
L53260 22270
L53260 22370
L53280 22420
L53300 22440
L53350 22460
L53470 22460
L53520 22440
L53540 22420
L53570 22370
L53570 22270
L53540 22230
L53520 22200
L53470 22180
" />
</g>
<g style="fill:#008400; fill-opacity:0.0; 
stroke:#008400; stroke-width:60; stroke-opacity:1; 
stroke-linecap:round; stroke-linejoin:round;">
<path d="M53500 21500
L53500 18500
" />
<path d="M46000 20000
L53500 20000
" />
</g>
<g style="fill:#008400; fill-opacity:0.0; 
stroke:#008400; stroke-width:0; stroke-opacity:1; 
stroke-linecap:round; stroke-linejoin:round;">
</g>
<g style="fill:#008400; fill-opacity:1.0; 
stroke:#008400; stroke-width:100; stroke-opacity:1; 
stroke-linecap:round; stroke-linejoin:round;">
<circle cx="53500" cy="20000" r="200" /> 
</g>
<g style="fill:#008400; fill-opacity:1.0; 
stroke:#008400; stroke-width:60; stroke-opacity:1; 
stroke-linecap:round; stroke-linejoin:round;">
</g>
<g style="fill:#008400; fill-opacity:0.0; 
stroke:#008400; stroke-width:60; stroke-opacity:1; 
stroke-linecap:round; stroke-linejoin:round;">
<path d="M53500 15500
L53500 14500
" />
<path d="M52500 14500
L71000 14500
" />
</g>
<g style="fill:#000084; fill-opacity:0.0; 
stroke:#000084; stroke-width:60; stroke-opacity:1; 
stroke-linecap:round; stroke-linejoin:round;">
<path d="M45760 20760
L46240 21240
" />
<path d="M46240 20760
L45760 21240
" />
</g>
<g style="fill:#000084; fill-opacity:0.0; 
stroke:#000084; stroke-width:0; stroke-opacity:1; 
stroke-linecap:round; stroke-linejoin:round;">
</g>
<g style="fill:#840000; fill-opacity:0.0; 
stroke:#840000; stroke-width:0; stroke-opacity:1; 
stroke-linecap:round; stroke-linejoin:round;">
</g>
<g style="fill:#840000; fill-opacity:0.0; 
stroke:#840000; stroke-width:200; stroke-opacity:1; 
stroke-linecap:round; stroke-linejoin:round;">
<polyline fill="none;"
points="42200,29300
43800,29300
" /> 
<polyline fill="none;"
points="42200,28700
43800,28700
" /> 
</g>
<g style="fill:#840000; fill-opacity:0.0; 
stroke:#840000; stroke-width:60; stroke-opacity:1; 
stroke-linecap:round; stroke-linejoin:round;">
<path d="M43000 28600
L43000 27500
" />
<path d="M43000 29400
L43000 30500
" />
</g>
<g style="fill:#008484; fill-opacity:0.0; 
stroke:#008484; stroke-width:60; stroke-opacity:1; 
stroke-linecap:round; stroke-linejoin:round;">
<path d="M43650 28210
L43630 28230
L43560 28260
L43510 28260
L43440 28230
L43390 28180
L43370 28140
L43350 28040
L43350 27970
L43370 27880
L43390 27830
L43440 27780
L43510 27760
L43560 27760
L43630 27780
L43650 27800
" />
<path d="M43940 28210
L43960 28230
L43940 28260
L43920 28230
L43940 28210
L43940 28260
" />
<path d="M43850 27780
L43890 27760
L44010 27760
L44060 27780
L44080 27830
L44080 27880
L44060 27920
L44040 27950
L43990 27970
L43960 27990
L43940 28040
L43940 28070
" />
<path d="M43580 29920
L43580 30260
" />
<path d="M43460 29730
L43350 30090
L43650 30090
" />
<path d="M43800 29760
L44130 29760
L43920 30260
" />
<path d="M44330 29920
L44330 30260
" />
<path d="M44330 29970
L44350 29950
L44400 29920
L44470 29920
L44520 29950
L44540 29990
L44540 30260
" />
</g>
<g style="fill:#008484; fill-opacity:0.0; 
stroke:#008484; stroke-width:0; stroke-opacity:1; 
stroke-linecap:round; stroke-linejoin:round;">
</g>
<g style="fill:#840000; fill-opacity:0.0; 
stroke:#840000; stroke-width:0; stroke-opacity:1; 
stroke-linecap:round; stroke-linejoin:round;">
</g>
<g style="fill:#840000; fill-opacity:0.0; 
stroke:#840000; stroke-width:100; stroke-opacity:1; 
stroke-linecap:round; stroke-linejoin:round;">
<rect x="42600" y="32000" width="800" height="2000" rx="0" />
</g>
<g style="fill:#840000; fill-opacity:0.0; 
stroke:#840000; stroke-width:60; stroke-opacity:1; 
stroke-linecap:round; stroke-linejoin:round;">
<path d="M43000 32000
L43000 31500
" />
<path d="M43000 34000
L43000 34500
" />
</g>
<g style="fill:#008484; fill-opacity:0.0; 
stroke:#008484; stroke-width:60; stroke-opacity:1; 
stroke-linecap:round; stroke-linejoin:round;">
<path d="M44060 33050
L43820 33210
" />
<path d="M44060 33330
L43560 33330
L43560 33140
L43580 33090
L43600 33070
L43650 33050
L43720 33050
L43770 33070
L43790 33090
L43820 33140
L43820 33330
" />
<path d="M44010 32760
L44030 32740
L44060 32760
L44030 32780
L44010 32760
L44060 32760
" />
<path d="M43580 32850
L43560 32810
L43560 32690
L43580 32640
L43630 32620
L43680 32620
L43720 32640
L43750 32660
L43770 32710
L43790 32740
L43840 32760
L43870 32760
" />
<path d="M42800 33340
L42780 33320
L42760 33270
L42760 33150
L42780 33110
L42800 33080
L42850 33060
L42900 33060
L42970 33080
L43260 33370
L43260 33060
" />
<path d="M43260 32840
L42760 32840
" />
<path d="M43070 32790
L43260 32650
" />
<path d="M42920 32650
L43110 32840
" />
</g>
<g style="fill:#008484; fill-opacity:0.0; 
stroke:#008484; stroke-width:0; stroke-opacity:1; 
stroke-linecap:round; stroke-linejoin:round;">
</g>
<g style="fill:#840000; fill-opacity:0.0; 
stroke:#840000; stroke-width:0; stroke-opacity:1; 
stroke-linecap:round; stroke-linejoin:round;">
</g>
<g style="fill:#840000; fill-opacity:0.0; 
stroke:#840000; stroke-width:200; stroke-opacity:1; 
stroke-linecap:round; stroke-linejoin:round;">
<polyline fill="none;"
points="45700,31300
47300,31300
" /> 
<polyline fill="none;"
points="45700,30700
47300,30700
" /> 
</g>
<g style="fill:#840000; fill-opacity:0.0; 
stroke:#840000; stroke-width:60; stroke-opacity:1; 
stroke-linecap:round; stroke-linejoin:round;">
<path d="M46500 30600
L46500 29500
" />
<path d="M46500 31400
L46500 32500
" />
</g>
<g style="fill:#008484; fill-opacity:0.0; 
stroke:#008484; stroke-width:60; stroke-opacity:1; 
stroke-linecap:round; stroke-linejoin:round;">
<path d="M47150 30210
L47130 30230
L47060 30260
L47010 30260
L46940 30230
L46890 30180
L46870 30140
L46850 30040
L46850 29970
L46870 29880
L46890 29830
L46940 29780
L47010 29760
L47060 29760
L47130 29780
L47150 29800
" />
<path d="M47440 30210
L47460 30230
L47440 30260
L47420 30230
L47440 30210
L47440 30260
" />
<path d="M47350 29780
L47390 29760
L47510 29760
L47560 29780
L47580 29830
L47580 29880
L47560 29920
L47540 29950
L47490 29970
L47460 29990
L47440 30040
L47440 30070
" />
<path d="M47080 31920
L47080 32260
" />
<path d="M46960 31730
L46850 32090
L47150 32090
" />
<path d="M47350 31920
L47350 32260
" />
<path d="M47350 31970
L47370 31950
L47420 31920
L47490 31920
L47540 31950
L47560 31990
L47560 32260
" />
<path d="M47750 31760
L48080 31760
L47870 32260
" />
</g>
<g style="fill:#008400; fill-opacity:0.0; 
stroke:#008400; stroke-width:60; stroke-opacity:1; 
stroke-linecap:round; stroke-linejoin:round;">
<path d="M43000 25500
L43000 27500
" />
<path d="M43000 26500
L46500 26500
" />
<path d="M46500 26500
L46500 29500
" />
</g>
<g style="fill:#008400; fill-opacity:0.0; 
stroke:#008400; stroke-width:0; stroke-opacity:1; 
stroke-linecap:round; stroke-linejoin:round;">
</g>
<g style="fill:#008400; fill-opacity:1.0; 
stroke:#008400; stroke-width:100; stroke-opacity:1; 
stroke-linecap:round; stroke-linejoin:round;">
<circle cx="43000" cy="26500" r="200" /> 
</g>
<g style="fill:#008400; fill-opacity:1.0; 
stroke:#008400; stroke-width:60; stroke-opacity:1; 
stroke-linecap:round; stroke-linejoin:round;">
</g>
<g style="fill:#008400; fill-opacity:0.0; 
stroke:#008400; stroke-width:60; stroke-opacity:1; 
stroke-linecap:round; stroke-linejoin:round;">
<path d="M43000 31500
L43000 30500
" />
<path d="M40000 26500
L40000 36500
" />
<path d="M24000 35500
L61000 35500
" />
<path d="M43000 35500
L43000 34500
" />
<path d="M46500 35500
L46500 32500
" />
</g>
<g style="fill:#008400; fill-opacity:0.0; 
stroke:#008400; stroke-width:0; stroke-opacity:1; 
stroke-linecap:round; stroke-linejoin:round;">
</g>
<g style="fill:#008400; fill-opacity:1.0; 
stroke:#008400; stroke-width:100; stroke-opacity:1; 
stroke-linecap:round; stroke-linejoin:round;">
<circle cx="43000" cy="35500" r="200" /> 
</g>
<g style="fill:#008400; fill-opacity:1.0; 
stroke:#008400; stroke-width:60; stroke-opacity:1; 
stroke-linecap:round; stroke-linejoin:round;">
</g>
<g style="fill:#008400; fill-opacity:0.0; 
stroke:#008400; stroke-width:60; stroke-opacity:1; 
stroke-linecap:round; stroke-linejoin:round;">
<path d="M39500 26500
L40500 26500
" />
<path d="M39500 26500
L39500 25500
" />
</g>
<g style="fill:#008400; fill-opacity:0.0; 
stroke:#008400; stroke-width:0; stroke-opacity:1; 
stroke-linecap:round; stroke-linejoin:round;">
</g>
<g style="fill:#008400; fill-opacity:1.0; 
stroke:#008400; stroke-width:100; stroke-opacity:1; 
stroke-linecap:round; stroke-linejoin:round;">
<circle cx="40000" cy="35500" r="200" /> 
</g>
<g style="fill:#008400; fill-opacity:1.0; 
stroke:#008400; stroke-width:60; stroke-opacity:1; 
stroke-linecap:round; stroke-linejoin:round;">
</g>
<g style="fill:#008400; fill-opacity:0.0; 
stroke:#008400; stroke-width:60; stroke-opacity:1; 
stroke-linecap:round; stroke-linejoin:round;">
<path d="M40500 26500
L40500 25500
" />
</g>
<g style="fill:#008400; fill-opacity:0.0; 
stroke:#008400; stroke-width:0; stroke-opacity:1; 
stroke-linecap:round; stroke-linejoin:round;">
</g>
<g style="fill:#008400; fill-opacity:1.0; 
stroke:#008400; stroke-width:100; stroke-opacity:1; 
stroke-linecap:round; stroke-linejoin:round;">
<circle cx="40000" cy="26500" r="200" /> 
</g>
<g style="fill:#008400; fill-opacity:1.0; 
stroke:#008400; stroke-width:60; stroke-opacity:1; 
stroke-linecap:round; stroke-linejoin:round;">
</g>
<g style="fill:#008400; fill-opacity:0.0; 
stroke:#008400; stroke-width:60; stroke-opacity:1; 
stroke-linecap:round; stroke-linejoin:round;">
<path d="M53500 35500
L53500 24500
" />
</g>
<g style="fill:#008400; fill-opacity:0.0; 
stroke:#008400; stroke-width:0; stroke-opacity:1; 
stroke-linecap:round; stroke-linejoin:round;">
</g>
<g style="fill:#008400; fill-opacity:1.0; 
stroke:#008400; stroke-width:100; stroke-opacity:1; 
stroke-linecap:round; stroke-linejoin:round;">
<circle cx="46500" cy="35500" r="200" /> 
</g>
<g style="fill:#008400; fill-opacity:1.0; 
stroke:#008400; stroke-width:0; stroke-opacity:1; 
stroke-linecap:round; stroke-linejoin:round;">
</g>
<g style="fill:#008400; fill-opacity:1.0; 
stroke:#008400; stroke-width:100; stroke-opacity:1; 
stroke-linecap:round; stroke-linejoin:round;">
<circle cx="40500" cy="14500" r="200" /> 
</g>
<g style="fill:#008400; fill-opacity:1.0; 
stroke:#008400; stroke-width:60; stroke-opacity:1; 
stroke-linecap:round; stroke-linejoin:round;">
</g>
<g style="fill:#008400; fill-opacity:0.0; 
stroke:#008400; stroke-width:60; stroke-opacity:1; 
stroke-linecap:round; stroke-linejoin:round;">
<path d="M34000 19500
L36000 19500
" />
</g>
<g style="fill:#008400; fill-opacity:0.0; 
stroke:#008400; stroke-width:0; stroke-opacity:1; 
stroke-linecap:round; stroke-linejoin:round;">
</g>
<g style="fill:#840000; fill-opacity:0.0; 
stroke:#840000; stroke-width:0; stroke-opacity:1; 
stroke-linecap:round; stroke-linejoin:round;">
</g>
<g style="fill:#840000; fill-opacity:0.0; 
stroke:#840000; stroke-width:60; stroke-opacity:1; 
stroke-linecap:round; stroke-linejoin:round;">
<line x1="23100" y1="19100" x2="23100" y2="19300" />
<line x1="23100" y1="19300" x2="24900" y2="19300" />
</g>
<g style="fill:#840000; fill-opacity:1.0; 
stroke:#840000; stroke-width:60; stroke-opacity:1; 
stroke-linecap:round; stroke-linejoin:round;">
<rect x="23100" y="19700" width="1800" height="200" rx="0" />
</g>
<g style="fill:#840000; fill-opacity:0.0; 
stroke:#840000; stroke-width:60; stroke-opacity:1; 
stroke-linecap:round; stroke-linejoin:round;">
<line x1="23100" y1="19100" x2="24900" y2="19100" />
<line x1="24900" y1="19100" x2="24900" y2="19300" />
<polyline fill="none;"
points="23300,18600
23700,18600
" /> 
<polyline fill="none;"
points="23500,18400
23500,18800
" /> 
<path d="M24000 19100
L24000 18000
" />
<path d="M24000 19900
L24000 21000
" />
</g>
<g style="fill:#008484; fill-opacity:0.0; 
stroke:#008484; stroke-width:60; stroke-opacity:1; 
stroke-linecap:round; stroke-linejoin:round;">
<path d="M24650 18710
L24630 18730
L24560 18760
L24510 18760
L24440 18730
L24390 18680
L24370 18640
L24350 18540
L24350 18470
L24370 18380
L24390 18330
L24440 18280
L24510 18260
L24560 18260
L24630 18280
L24650 18300
" />
<path d="M24940 18710
L24960 18730
L24940 18760
L24920 18730
L24940 18710
L24940 18760
" />
<path d="M24850 18280
L24890 18260
L25010 18260
L25060 18280
L25080 18330
L25080 18380
L25060 18420
L25040 18450
L24990 18470
L24960 18490
L24940 18540
L24940 18570
" />
<path d="M24300 23390
L24280 23370
L24260 23320
L24260 23200
L24280 23160
L24300 23130
L24350 23110
L24400 23110
L24470 23130
L24760 23420
L24760 23110
" />
<path d="M24300 22910
L24280 22890
L24260 22840
L24260 22720
L24280 22680
L24300 22650
L24350 22630
L24400 22630
L24470 22650
L24760 22940
L24760 22630
" />
<path d="M24420 22410
L24920 22410
" />
<path d="M24680 22170
L24730 22150
L24760 22100
" />
<path d="M24680 22410
L24730 22390
L24760 22340
L24760 22240
L24730 22200
L24680 22170
L24420 22170
" />
<path d="M24300 21530
L24280 21510
L24260 21460
L24260 21340
L24280 21300
L24300 21270
L24350 21250
L24400 21250
L24470 21270
L24760 21560
L24760 21250
" />
<path d="M24260 20790
L24260 21030
L24490 21050
L24470 21030
L24450 20980
L24450 20860
L24470 20820
L24490 20790
L24540 20770
L24660 20770
L24710 20790
L24730 20820
L24760 20860
L24760 20980
L24730 21030
L24710 21050
" />
<path d="M24260 20620
L24760 20460
L24260 20290
" />
</g>
<g style="fill:#008400; fill-opacity:0.0; 
stroke:#008400; stroke-width:60; stroke-opacity:1; 
stroke-linecap:round; stroke-linejoin:round;">
<path d="M24000 18000
L24000 14500
" />
</g>
<g style="fill:#008400; fill-opacity:0.0; 
stroke:#008400; stroke-width:0; stroke-opacity:1; 
stroke-linecap:round; stroke-linejoin:round;">
</g>
<g style="fill:#008400; fill-opacity:1.0; 
stroke:#008400; stroke-width:100; stroke-opacity:1; 
stroke-linecap:round; stroke-linejoin:round;">
<circle cx="24000" cy="14500" r="200" /> 
</g>
<g style="fill:#008400; fill-opacity:1.0; 
stroke:#008400; stroke-width:60; stroke-opacity:1; 
stroke-linecap:round; stroke-linejoin:round;">
</g>
<g style="fill:#008400; fill-opacity:0.0; 
stroke:#008400; stroke-width:60; stroke-opacity:1; 
stroke-linecap:round; stroke-linejoin:round;">
<path d="M24000 21000
L24000 35500
" />
</g>
<g style="fill:#008400; fill-opacity:0.0; 
stroke:#008400; stroke-width:0; stroke-opacity:1; 
stroke-linecap:round; stroke-linejoin:round;">
</g>
<g style="fill:#840000; fill-opacity:0.0; 
stroke:#840000; stroke-width:0; stroke-opacity:1; 
stroke-linecap:round; stroke-linejoin:round;">
</g>
<g style="fill:#840000; fill-opacity:0.0; 
stroke:#840000; stroke-width:60; stroke-opacity:1; 
stroke-linecap:round; stroke-linejoin:round;">
<line x1="56600" y1="19600" x2="56600" y2="19800" />
<line x1="56600" y1="19800" x2="58400" y2="19800" />
</g>
<g style="fill:#840000; fill-opacity:1.0; 
stroke:#840000; stroke-width:60; stroke-opacity:1; 
stroke-linecap:round; stroke-linejoin:round;">
<rect x="56600" y="20200" width="1800" height="200" rx="0" />
</g>
<g style="fill:#840000; fill-opacity:0.0; 
stroke:#840000; stroke-width:60; stroke-opacity:1; 
stroke-linecap:round; stroke-linejoin:round;">
<line x1="56600" y1="19600" x2="58400" y2="19600" />
<line x1="58400" y1="19600" x2="58400" y2="19800" />
<polyline fill="none;"
points="56800,19100
57200,19100
" /> 
<polyline fill="none;"
points="57000,18900
57000,19300
" /> 
<path d="M57500 19600
L57500 18500
" />
<path d="M57500 20400
L57500 21500
" />
</g>
<g style="fill:#008484; fill-opacity:0.0; 
stroke:#008484; stroke-width:60; stroke-opacity:1; 
stroke-linecap:round; stroke-linejoin:round;">
<path d="M58150 19210
L58130 19230
L58060 19260
L58010 19260
L57940 19230
L57890 19180
L57870 19140
L57850 19040
L57850 18970
L57870 18880
L57890 18830
L57940 18780
L58010 18760
L58060 18760
L58130 18780
L58150 18800
" />
<path d="M58440 19210
L58460 19230
L58440 19260
L58420 19230
L58440 19210
L58440 19260
" />
<path d="M58350 18780
L58390 18760
L58510 18760
L58560 18780
L58580 18830
L58580 18880
L58560 18920
L58540 18950
L58490 18970
L58460 18990
L58440 19040
L58440 19070
" />
<path d="M57800 23890
L57780 23870
L57760 23820
L57760 23700
L57780 23660
L57800 23630
L57850 23610
L57900 23610
L57970 23630
L58260 23920
L58260 23610
" />
<path d="M57800 23410
L57780 23390
L57760 23340
L57760 23220
L57780 23180
L57800 23150
L57850 23130
L57900 23130
L57970 23150
L58260 23440
L58260 23130
" />
<path d="M57920 22910
L58420 22910
" />
<path d="M58180 22670
L58230 22650
L58260 22600
" />
<path d="M58180 22910
L58230 22890
L58260 22840
L58260 22740
L58230 22700
L58180 22670
L57920 22670
" />
<path d="M57760 21770
L57760 22010
L57990 22030
L57970 22010
L57950 21960
L57950 21840
L57970 21800
L57990 21770
L58040 21750
L58160 21750
L58210 21770
L58230 21800
L58260 21840
L58260 21960
L58230 22010
L58210 22030
" />
<path d="M57760 21440
L57760 21390
L57780 21340
L57800 21320
L57850 21290
L57950 21270
L58070 21270
L58160 21290
L58210 21320
L58230 21340
L58260 21390
L58260 21440
L58230 21480
L58210 21510
L58160 21530
L58070 21550
L57950 21550
L57850 21530
L57800 21510
L57780 21480
L57760 21440
" />
<path d="M57760 21120
L58260 20960
L57760 20790
" />
</g>
<g style="fill:#008484; fill-opacity:0.0; 
stroke:#008484; stroke-width:0; stroke-opacity:1; 
stroke-linecap:round; stroke-linejoin:round;">
</g>
<g style="fill:#840000; fill-opacity:0.0; 
stroke:#840000; stroke-width:0; stroke-opacity:1; 
stroke-linecap:round; stroke-linejoin:round;">
</g>
<g style="fill:#840000; fill-opacity:0.0; 
stroke:#840000; stroke-width:60; stroke-opacity:1; 
stroke-linecap:round; stroke-linejoin:round;">
<line x1="60100" y1="19600" x2="60100" y2="19800" />
<line x1="60100" y1="19800" x2="61900" y2="19800" />
</g>
<g style="fill:#840000; fill-opacity:1.0; 
stroke:#840000; stroke-width:60; stroke-opacity:1; 
stroke-linecap:round; stroke-linejoin:round;">
<rect x="60100" y="20200" width="1800" height="200" rx="0" />
</g>
<g style="fill:#840000; fill-opacity:0.0; 
stroke:#840000; stroke-width:60; stroke-opacity:1; 
stroke-linecap:round; stroke-linejoin:round;">
<line x1="60100" y1="19600" x2="61900" y2="19600" />
<line x1="61900" y1="19600" x2="61900" y2="19800" />
<polyline fill="none;"
points="60300,19100
60700,19100
" /> 
<polyline fill="none;"
points="60500,18900
60500,19300
" /> 
<path d="M61000 19600
L61000 18500
" />
<path d="M61000 20400
L61000 21500
" />
</g>
<g style="fill:#008484; fill-opacity:0.0; 
stroke:#008484; stroke-width:60; stroke-opacity:1; 
stroke-linecap:round; stroke-linejoin:round;">
<path d="M61650 19210
L61630 19230
L61560 19260
L61510 19260
L61440 19230
L61390 19180
L61370 19140
L61350 19040
L61350 18970
L61370 18880
L61390 18830
L61440 18780
L61510 18760
L61560 18760
L61630 18780
L61650 18800
" />
<path d="M61940 19210
L61960 19230
L61940 19260
L61920 19230
L61940 19210
L61940 19260
" />
<path d="M61850 18780
L61890 18760
L62010 18760
L62060 18780
L62080 18830
L62080 18880
L62060 18920
L62040 18950
L61990 18970
L61960 18990
L61940 19040
L61940 19070
" />
<path d="M61300 23890
L61280 23870
L61260 23820
L61260 23700
L61280 23660
L61300 23630
L61350 23610
L61400 23610
L61470 23630
L61760 23920
L61760 23610
" />
<path d="M61300 23410
L61280 23390
L61260 23340
L61260 23220
L61280 23180
L61300 23150
L61350 23130
L61400 23130
L61470 23150
L61760 23440
L61760 23130
" />
<path d="M61420 22910
L61920 22910
" />
<path d="M61680 22670
L61730 22650
L61760 22600
" />
<path d="M61680 22910
L61730 22890
L61760 22840
L61760 22740
L61730 22700
L61680 22670
L61420 22670
" />
<path d="M61260 21770
L61260 22010
L61490 22030
L61470 22010
L61450 21960
L61450 21840
L61470 21800
L61490 21770
L61540 21750
L61660 21750
L61710 21770
L61730 21800
L61760 21840
L61760 21960
L61730 22010
L61710 22030
" />
<path d="M61260 21440
L61260 21390
L61280 21340
L61300 21320
L61350 21290
L61450 21270
L61570 21270
L61660 21290
L61710 21320
L61730 21340
L61760 21390
L61760 21440
L61730 21480
L61710 21510
L61660 21530
L61570 21550
L61450 21550
L61350 21530
L61300 21510
L61280 21480
L61260 21440
" />
<path d="M61260 21120
L61760 20960
L61260 20790
" />
</g>
<g style="fill:#008400; fill-opacity:0.0; 
stroke:#008400; stroke-width:60; stroke-opacity:1; 
stroke-linecap:round; stroke-linejoin:round;">
<path d="M57500 14500
L57500 18500
" />
</g>
<g style="fill:#008400; fill-opacity:0.0; 
stroke:#008400; stroke-width:0; stroke-opacity:1; 
stroke-linecap:round; stroke-linejoin:round;">
</g>
<g style="fill:#008400; fill-opacity:1.0; 
stroke:#008400; stroke-width:100; stroke-opacity:1; 
stroke-linecap:round; stroke-linejoin:round;">
<circle cx="53500" cy="14500" r="200" /> 
</g>
<g style="fill:#008400; fill-opacity:1.0; 
stroke:#008400; stroke-width:60; stroke-opacity:1; 
stroke-linecap:round; stroke-linejoin:round;">
</g>
<g style="fill:#008400; fill-opacity:0.0; 
stroke:#008400; stroke-width:60; stroke-opacity:1; 
stroke-linecap:round; stroke-linejoin:round;">
<path d="M61000 14500
L61000 18500
" />
</g>
<g style="fill:#008400; fill-opacity:0.0; 
stroke:#008400; stroke-width:0; stroke-opacity:1; 
stroke-linecap:round; stroke-linejoin:round;">
</g>
<g style="fill:#008400; fill-opacity:1.0; 
stroke:#008400; stroke-width:100; stroke-opacity:1; 
stroke-linecap:round; stroke-linejoin:round;">
<circle cx="57500" cy="14500" r="200" /> 
</g>
<g style="fill:#008400; fill-opacity:1.0; 
stroke:#008400; stroke-width:0; stroke-opacity:1; 
stroke-linecap:round; stroke-linejoin:round;">
</g>
<g style="fill:#008400; fill-opacity:1.0; 
stroke:#008400; stroke-width:100; stroke-opacity:1; 
stroke-linecap:round; stroke-linejoin:round;">
<circle cx="61000" cy="14500" r="200" /> 
</g>
<g style="fill:#008400; fill-opacity:1.0; 
stroke:#008400; stroke-width:60; stroke-opacity:1; 
stroke-linecap:round; stroke-linejoin:round;">
</g>
<g style="fill:#008400; fill-opacity:0.0; 
stroke:#008400; stroke-width:60; stroke-opacity:1; 
stroke-linecap:round; stroke-linejoin:round;">
<path d="M57500 35500
L57500 21500
" />
</g>
<g style="fill:#008400; fill-opacity:0.0; 
stroke:#008400; stroke-width:0; stroke-opacity:1; 
stroke-linecap:round; stroke-linejoin:round;">
</g>
<g style="fill:#008400; fill-opacity:1.0; 
stroke:#008400; stroke-width:100; stroke-opacity:1; 
stroke-linecap:round; stroke-linejoin:round;">
<circle cx="53500" cy="35500" r="200" /> 
</g>
<g style="fill:#008400; fill-opacity:1.0; 
stroke:#008400; stroke-width:60; stroke-opacity:1; 
stroke-linecap:round; stroke-linejoin:round;">
</g>
<g style="fill:#008400; fill-opacity:0.0; 
stroke:#008400; stroke-width:60; stroke-opacity:1; 
stroke-linecap:round; stroke-linejoin:round;">
<path d="M61000 35500
L61000 21500
" />
</g>
<g style="fill:#008400; fill-opacity:0.0; 
stroke:#008400; stroke-width:0; stroke-opacity:1; 
stroke-linecap:round; stroke-linejoin:round;">
</g>
<g style="fill:#008400; fill-opacity:1.0; 
stroke:#008400; stroke-width:100; stroke-opacity:1; 
stroke-linecap:round; stroke-linejoin:round;">
<circle cx="57500" cy="35500" r="200" /> 
</g> 
</svg>
