<?xml version="1.0" standalone="no"?>
 <!DOCTYPE svg PUBLIC "-//W3C//DTD SVG 1.1//EN" 
 "http://www.w3.org/Graphics/SVG/1.1/DTD/svg11.dtd"> 
<svg xmlns="http://www.w3.org/2000/svg" version="1.1" 
    width="29.7002cm" height="21.0007cm" viewBox="0 0 116930 82680 ">
<title>SVG Picture created as camera-light.sch.svg date 2017/05/30 17:02:04 </title>
  <desc>Picture generated by Eeschema-SVG </desc>
<g style="fill:#000000; fill-opacity:1;stroke:#000000; stroke-opacity:1;
stroke-linecap:round; stroke-linejoin:round; "
 transform="translate(0 0) scale(1 1)">
</g>
<g style="fill:#000000; fill-opacity:0.0; 
stroke:#000000; stroke-width:-10; stroke-opacity:1; 
stroke-linecap:round; stroke-linejoin:round;">
</g>
<g style="fill:#840000; fill-opacity:0.0; 
stroke:#840000; stroke-width:-10; stroke-opacity:1; 
stroke-linecap:round; stroke-linejoin:round;">
</g>
<g style="fill:#840000; fill-opacity:0.0; 
stroke:#840000; stroke-width:100; stroke-opacity:1; 
stroke-linecap:round; stroke-linejoin:round;">
</g>
<g style="fill:#840000; fill-opacity:0.0; 
stroke:#840000; stroke-width:60; stroke-opacity:1; 
stroke-linecap:round; stroke-linejoin:round;">
<rect x="69690" y="65360" width="42520" height="12600" rx="0" />
</g>
<g style="fill:#840000; fill-opacity:0.0; 
stroke:#840000; stroke-width:100; stroke-opacity:1; 
stroke-linecap:round; stroke-linejoin:round;">
</g>
<g style="fill:#840000; fill-opacity:0.0; 
stroke:#840000; stroke-width:60; stroke-opacity:1; 
stroke-linecap:round; stroke-linejoin:round;">
<rect x="3940" y="3940" width="109050" height="74800" rx="0" />
</g>
<g style="fill:#840000; fill-opacity:0.0; 
stroke:#840000; stroke-width:100; stroke-opacity:1; 
stroke-linecap:round; stroke-linejoin:round;">
</g>
<g style="fill:#840000; fill-opacity:0.0; 
stroke:#840000; stroke-width:60; stroke-opacity:1; 
stroke-linecap:round; stroke-linejoin:round;">
<rect x="4720" y="4720" width="107490" height="73240" rx="0" />
</g>
<g style="fill:#840000; fill-opacity:0.0; 
stroke:#840000; stroke-width:100; stroke-opacity:1; 
stroke-linecap:round; stroke-linejoin:round;">
</g>
<g style="fill:#840000; fill-opacity:0.0; 
stroke:#840000; stroke-width:60; stroke-opacity:1; 
stroke-linecap:round; stroke-linejoin:round;">
<path d="M23620 4720
L23620 3940
" />
</g>
<g style="fill:#840000; fill-opacity:0.0; 
stroke:#840000; stroke-width:100; stroke-opacity:1; 
stroke-linecap:round; stroke-linejoin:round;">
</g>
<g style="fill:#840000; fill-opacity:0.0; 
stroke:#840000; stroke-width:60; stroke-opacity:1; 
stroke-linecap:round; stroke-linejoin:round;">
<path d="M43310 4720
L43310 3940
" />
</g>
<g style="fill:#840000; fill-opacity:0.0; 
stroke:#840000; stroke-width:100; stroke-opacity:1; 
stroke-linecap:round; stroke-linejoin:round;">
</g>
<g style="fill:#840000; fill-opacity:0.0; 
stroke:#840000; stroke-width:60; stroke-opacity:1; 
stroke-linecap:round; stroke-linejoin:round;">
<path d="M62990 4720
L62990 3940
" />
</g>
<g style="fill:#840000; fill-opacity:0.0; 
stroke:#840000; stroke-width:100; stroke-opacity:1; 
stroke-linecap:round; stroke-linejoin:round;">
</g>
<g style="fill:#840000; fill-opacity:0.0; 
stroke:#840000; stroke-width:60; stroke-opacity:1; 
stroke-linecap:round; stroke-linejoin:round;">
<path d="M82680 4720
L82680 3940
" />
</g>
<g style="fill:#840000; fill-opacity:0.0; 
stroke:#840000; stroke-width:100; stroke-opacity:1; 
stroke-linecap:round; stroke-linejoin:round;">
</g>
<g style="fill:#840000; fill-opacity:0.0; 
stroke:#840000; stroke-width:60; stroke-opacity:1; 
stroke-linecap:round; stroke-linejoin:round;">
<path d="M102360 4720
L102360 3940
" />
</g>
<g style="fill:#840000; fill-opacity:0.0; 
stroke:#840000; stroke-width:100; stroke-opacity:1; 
stroke-linecap:round; stroke-linejoin:round;">
</g>
<g style="fill:#840000; fill-opacity:0.0; 
stroke:#840000; stroke-width:60; stroke-opacity:1; 
stroke-linecap:round; stroke-linejoin:round;">
<path d="M14170 4560
L13880 4560
" />
<path d="M14020 4560
L14020 4050
L13970 4120
L13930 4170
L13880 4190
" />
</g>
<g style="fill:#840000; fill-opacity:0.0; 
stroke:#840000; stroke-width:100; stroke-opacity:1; 
stroke-linecap:round; stroke-linejoin:round;">
</g>
<g style="fill:#840000; fill-opacity:0.0; 
stroke:#840000; stroke-width:60; stroke-opacity:1; 
stroke-linecap:round; stroke-linejoin:round;">
<path d="M33560 4090
L33580 4070
L33630 4050
L33750 4050
L33800 4070
L33820 4090
L33850 4140
L33850 4190
L33820 4260
L33530 4560
L33850 4560
" />
</g>
<g style="fill:#840000; fill-opacity:0.0; 
stroke:#840000; stroke-width:100; stroke-opacity:1; 
stroke-linecap:round; stroke-linejoin:round;">
</g>
<g style="fill:#840000; fill-opacity:0.0; 
stroke:#840000; stroke-width:60; stroke-opacity:1; 
stroke-linecap:round; stroke-linejoin:round;">
<path d="M53220 4050
L53540 4050
L53370 4240
L53440 4240
L53490 4260
L53510 4290
L53540 4340
L53540 4460
L53510 4510
L53490 4530
L53440 4560
L53300 4560
L53250 4530
L53220 4510
" />
</g>
<g style="fill:#840000; fill-opacity:0.0; 
stroke:#840000; stroke-width:100; stroke-opacity:1; 
stroke-linecap:round; stroke-linejoin:round;">
</g>
<g style="fill:#840000; fill-opacity:0.0; 
stroke:#840000; stroke-width:60; stroke-opacity:1; 
stroke-linecap:round; stroke-linejoin:round;">
<path d="M73170 4220
L73170 4560
" />
<path d="M73050 4020
L72930 4390
L73240 4390
" />
</g>
<g style="fill:#840000; fill-opacity:0.0; 
stroke:#840000; stroke-width:100; stroke-opacity:1; 
stroke-linecap:round; stroke-linejoin:round;">
</g>
<g style="fill:#840000; fill-opacity:0.0; 
stroke:#840000; stroke-width:60; stroke-opacity:1; 
stroke-linecap:round; stroke-linejoin:round;">
<path d="M92880 4050
L92640 4050
L92620 4290
L92640 4260
L92690 4240
L92810 4240
L92860 4260
L92880 4290
L92910 4340
L92910 4460
L92880 4510
L92860 4530
L92810 4560
L92690 4560
L92640 4530
L92620 4510
" />
</g>
<g style="fill:#840000; fill-opacity:0.0; 
stroke:#840000; stroke-width:100; stroke-opacity:1; 
stroke-linecap:round; stroke-linejoin:round;">
</g>
<g style="fill:#840000; fill-opacity:0.0; 
stroke:#840000; stroke-width:60; stroke-opacity:1; 
stroke-linecap:round; stroke-linejoin:round;">
<path d="M112540 4050
L112440 4050
L112390 4070
L112370 4090
L112320 4170
L112300 4260
L112300 4460
L112320 4510
L112350 4530
L112390 4560
L112490 4560
L112540 4530
L112560 4510
L112590 4460
L112590 4340
L112560 4290
L112540 4260
L112490 4240
L112390 4240
L112350 4260
L112320 4290
L112300 4340
" />
</g>
<g style="fill:#840000; fill-opacity:0.0; 
stroke:#840000; stroke-width:100; stroke-opacity:1; 
stroke-linecap:round; stroke-linejoin:round;">
</g>
<g style="fill:#840000; fill-opacity:0.0; 
stroke:#840000; stroke-width:60; stroke-opacity:1; 
stroke-linecap:round; stroke-linejoin:round;">
<path d="M23620 77960
L23620 78740
" />
</g>
<g style="fill:#840000; fill-opacity:0.0; 
stroke:#840000; stroke-width:100; stroke-opacity:1; 
stroke-linecap:round; stroke-linejoin:round;">
</g>
<g style="fill:#840000; fill-opacity:0.0; 
stroke:#840000; stroke-width:60; stroke-opacity:1; 
stroke-linecap:round; stroke-linejoin:round;">
<path d="M43310 77960
L43310 78740
" />
</g>
<g style="fill:#840000; fill-opacity:0.0; 
stroke:#840000; stroke-width:100; stroke-opacity:1; 
stroke-linecap:round; stroke-linejoin:round;">
</g>
<g style="fill:#840000; fill-opacity:0.0; 
stroke:#840000; stroke-width:60; stroke-opacity:1; 
stroke-linecap:round; stroke-linejoin:round;">
<path d="M62990 77960
L62990 78740
" />
</g>
<g style="fill:#840000; fill-opacity:0.0; 
stroke:#840000; stroke-width:100; stroke-opacity:1; 
stroke-linecap:round; stroke-linejoin:round;">
</g>
<g style="fill:#840000; fill-opacity:0.0; 
stroke:#840000; stroke-width:60; stroke-opacity:1; 
stroke-linecap:round; stroke-linejoin:round;">
<path d="M82680 77960
L82680 78740
" />
</g>
<g style="fill:#840000; fill-opacity:0.0; 
stroke:#840000; stroke-width:100; stroke-opacity:1; 
stroke-linecap:round; stroke-linejoin:round;">
</g>
<g style="fill:#840000; fill-opacity:0.0; 
stroke:#840000; stroke-width:60; stroke-opacity:1; 
stroke-linecap:round; stroke-linejoin:round;">
<path d="M102360 77960
L102360 78740
" />
</g>
<g style="fill:#840000; fill-opacity:0.0; 
stroke:#840000; stroke-width:100; stroke-opacity:1; 
stroke-linecap:round; stroke-linejoin:round;">
</g>
<g style="fill:#840000; fill-opacity:0.0; 
stroke:#840000; stroke-width:60; stroke-opacity:1; 
stroke-linecap:round; stroke-linejoin:round;">
<path d="M14170 78580
L13880 78580
" />
<path d="M14020 78580
L14020 78070
L13970 78140
L13930 78190
L13880 78210
" />
</g>
<g style="fill:#840000; fill-opacity:0.0; 
stroke:#840000; stroke-width:100; stroke-opacity:1; 
stroke-linecap:round; stroke-linejoin:round;">
</g>
<g style="fill:#840000; fill-opacity:0.0; 
stroke:#840000; stroke-width:60; stroke-opacity:1; 
stroke-linecap:round; stroke-linejoin:round;">
<path d="M33560 78110
L33580 78090
L33630 78070
L33750 78070
L33800 78090
L33820 78110
L33850 78160
L33850 78210
L33820 78280
L33530 78580
L33850 78580
" />
</g>
<g style="fill:#840000; fill-opacity:0.0; 
stroke:#840000; stroke-width:100; stroke-opacity:1; 
stroke-linecap:round; stroke-linejoin:round;">
</g>
<g style="fill:#840000; fill-opacity:0.0; 
stroke:#840000; stroke-width:60; stroke-opacity:1; 
stroke-linecap:round; stroke-linejoin:round;">
<path d="M53220 78070
L53540 78070
L53370 78260
L53440 78260
L53490 78280
L53510 78310
L53540 78360
L53540 78480
L53510 78530
L53490 78550
L53440 78580
L53300 78580
L53250 78550
L53220 78530
" />
</g>
<g style="fill:#840000; fill-opacity:0.0; 
stroke:#840000; stroke-width:100; stroke-opacity:1; 
stroke-linecap:round; stroke-linejoin:round;">
</g>
<g style="fill:#840000; fill-opacity:0.0; 
stroke:#840000; stroke-width:60; stroke-opacity:1; 
stroke-linecap:round; stroke-linejoin:round;">
<path d="M73170 78240
L73170 78580
" />
<path d="M73050 78040
L72930 78410
L73240 78410
" />
</g>
<g style="fill:#840000; fill-opacity:0.0; 
stroke:#840000; stroke-width:100; stroke-opacity:1; 
stroke-linecap:round; stroke-linejoin:round;">
</g>
<g style="fill:#840000; fill-opacity:0.0; 
stroke:#840000; stroke-width:60; stroke-opacity:1; 
stroke-linecap:round; stroke-linejoin:round;">
<path d="M92880 78070
L92640 78070
L92620 78310
L92640 78280
L92690 78260
L92810 78260
L92860 78280
L92880 78310
L92910 78360
L92910 78480
L92880 78530
L92860 78550
L92810 78580
L92690 78580
L92640 78550
L92620 78530
" />
</g>
<g style="fill:#840000; fill-opacity:0.0; 
stroke:#840000; stroke-width:100; stroke-opacity:1; 
stroke-linecap:round; stroke-linejoin:round;">
</g>
<g style="fill:#840000; fill-opacity:0.0; 
stroke:#840000; stroke-width:60; stroke-opacity:1; 
stroke-linecap:round; stroke-linejoin:round;">
<path d="M112540 78070
L112440 78070
L112390 78090
L112370 78110
L112320 78190
L112300 78280
L112300 78480
L112320 78530
L112350 78550
L112390 78580
L112490 78580
L112540 78550
L112560 78530
L112590 78480
L112590 78360
L112560 78310
L112540 78280
L112490 78260
L112390 78260
L112350 78280
L112320 78310
L112300 78360
" />
</g>
<g style="fill:#840000; fill-opacity:0.0; 
stroke:#840000; stroke-width:100; stroke-opacity:1; 
stroke-linecap:round; stroke-linejoin:round;">
</g>
<g style="fill:#840000; fill-opacity:0.0; 
stroke:#840000; stroke-width:60; stroke-opacity:1; 
stroke-linecap:round; stroke-linejoin:round;">
<path d="M3940 23620
L4720 23620
" />
</g>
<g style="fill:#840000; fill-opacity:0.0; 
stroke:#840000; stroke-width:100; stroke-opacity:1; 
stroke-linecap:round; stroke-linejoin:round;">
</g>
<g style="fill:#840000; fill-opacity:0.0; 
stroke:#840000; stroke-width:60; stroke-opacity:1; 
stroke-linecap:round; stroke-linejoin:round;">
<path d="M3940 43310
L4720 43310
" />
</g>
<g style="fill:#840000; fill-opacity:0.0; 
stroke:#840000; stroke-width:100; stroke-opacity:1; 
stroke-linecap:round; stroke-linejoin:round;">
</g>
<g style="fill:#840000; fill-opacity:0.0; 
stroke:#840000; stroke-width:60; stroke-opacity:1; 
stroke-linecap:round; stroke-linejoin:round;">
<path d="M3940 62990
L4720 62990
" />
</g>
<g style="fill:#840000; fill-opacity:0.0; 
stroke:#840000; stroke-width:100; stroke-opacity:1; 
stroke-linecap:round; stroke-linejoin:round;">
</g>
<g style="fill:#840000; fill-opacity:0.0; 
stroke:#840000; stroke-width:60; stroke-opacity:1; 
stroke-linecap:round; stroke-linejoin:round;">
<path d="M4210 13860
L4450 13860
" />
<path d="M4160 14010
L4330 13500
L4500 14010
" />
</g>
<g style="fill:#840000; fill-opacity:0.0; 
stroke:#840000; stroke-width:100; stroke-opacity:1; 
stroke-linecap:round; stroke-linejoin:round;">
</g>
<g style="fill:#840000; fill-opacity:0.0; 
stroke:#840000; stroke-width:60; stroke-opacity:1; 
stroke-linecap:round; stroke-linejoin:round;">
<path d="M4370 33420
L4440 33440
L4470 33470
L4490 33520
L4490 33590
L4470 33640
L4440 33660
L4400 33690
L4200 33690
L4200 33180
L4370 33180
L4420 33200
L4440 33220
L4470 33270
L4470 33320
L4440 33370
L4420 33390
L4370 33420
L4200 33420
" />
</g>
<g style="fill:#840000; fill-opacity:0.0; 
stroke:#840000; stroke-width:100; stroke-opacity:1; 
stroke-linecap:round; stroke-linejoin:round;">
</g>
<g style="fill:#840000; fill-opacity:0.0; 
stroke:#840000; stroke-width:60; stroke-opacity:1; 
stroke-linecap:round; stroke-linejoin:round;">
<path d="M4490 53330
L4470 53350
L4400 53380
L4350 53380
L4270 53350
L4230 53300
L4200 53250
L4180 53160
L4180 53080
L4200 52990
L4230 52940
L4270 52890
L4350 52870
L4400 52870
L4470 52890
L4490 52910
" />
</g>
<g style="fill:#840000; fill-opacity:0.0; 
stroke:#840000; stroke-width:100; stroke-opacity:1; 
stroke-linecap:round; stroke-linejoin:round;">
</g>
<g style="fill:#840000; fill-opacity:0.0; 
stroke:#840000; stroke-width:60; stroke-opacity:1; 
stroke-linecap:round; stroke-linejoin:round;">
<path d="M4200 73060
L4200 72550
L4320 72550
L4400 72570
L4440 72620
L4470 72670
L4490 72760
L4490 72840
L4470 72930
L4440 72980
L4400 73030
L4320 73060
L4200 73060
" />
</g>
<g style="fill:#840000; fill-opacity:0.0; 
stroke:#840000; stroke-width:100; stroke-opacity:1; 
stroke-linecap:round; stroke-linejoin:round;">
</g>
<g style="fill:#840000; fill-opacity:0.0; 
stroke:#840000; stroke-width:60; stroke-opacity:1; 
stroke-linecap:round; stroke-linejoin:round;">
<path d="M112990 23620
L112210 23620
" />
</g>
<g style="fill:#840000; fill-opacity:0.0; 
stroke:#840000; stroke-width:100; stroke-opacity:1; 
stroke-linecap:round; stroke-linejoin:round;">
</g>
<g style="fill:#840000; fill-opacity:0.0; 
stroke:#840000; stroke-width:60; stroke-opacity:1; 
stroke-linecap:round; stroke-linejoin:round;">
<path d="M112990 43310
L112210 43310
" />
</g>
<g style="fill:#840000; fill-opacity:0.0; 
stroke:#840000; stroke-width:100; stroke-opacity:1; 
stroke-linecap:round; stroke-linejoin:round;">
</g>
<g style="fill:#840000; fill-opacity:0.0; 
stroke:#840000; stroke-width:60; stroke-opacity:1; 
stroke-linecap:round; stroke-linejoin:round;">
<path d="M112990 62990
L112210 62990
" />
</g>
<g style="fill:#840000; fill-opacity:0.0; 
stroke:#840000; stroke-width:100; stroke-opacity:1; 
stroke-linecap:round; stroke-linejoin:round;">
</g>
<g style="fill:#840000; fill-opacity:0.0; 
stroke:#840000; stroke-width:60; stroke-opacity:1; 
stroke-linecap:round; stroke-linejoin:round;">
<path d="M112480 13860
L112720 13860
" />
<path d="M112430 14010
L112600 13500
L112770 14010
" />
</g>
<g style="fill:#840000; fill-opacity:0.0; 
stroke:#840000; stroke-width:100; stroke-opacity:1; 
stroke-linecap:round; stroke-linejoin:round;">
</g>
<g style="fill:#840000; fill-opacity:0.0; 
stroke:#840000; stroke-width:60; stroke-opacity:1; 
stroke-linecap:round; stroke-linejoin:round;">
<path d="M112640 33420
L112710 33440
L112740 33470
L112760 33520
L112760 33590
L112740 33640
L112710 33660
L112670 33690
L112470 33690
L112470 33180
L112640 33180
L112690 33200
L112710 33220
L112740 33270
L112740 33320
L112710 33370
L112690 33390
L112640 33420
L112470 33420
" />
</g>
<g style="fill:#840000; fill-opacity:0.0; 
stroke:#840000; stroke-width:100; stroke-opacity:1; 
stroke-linecap:round; stroke-linejoin:round;">
</g>
<g style="fill:#840000; fill-opacity:0.0; 
stroke:#840000; stroke-width:60; stroke-opacity:1; 
stroke-linecap:round; stroke-linejoin:round;">
<path d="M112760 53330
L112740 53350
L112670 53380
L112620 53380
L112540 53350
L112500 53300
L112470 53250
L112450 53160
L112450 53080
L112470 52990
L112500 52940
L112540 52890
L112620 52870
L112670 52870
L112740 52890
L112760 52910
" />
</g>
<g style="fill:#840000; fill-opacity:0.0; 
stroke:#840000; stroke-width:100; stroke-opacity:1; 
stroke-linecap:round; stroke-linejoin:round;">
</g>
<g style="fill:#840000; fill-opacity:0.0; 
stroke:#840000; stroke-width:60; stroke-opacity:1; 
stroke-linecap:round; stroke-linejoin:round;">
<path d="M112470 73060
L112470 72550
L112590 72550
L112670 72570
L112710 72620
L112740 72670
L112760 72760
L112760 72840
L112740 72930
L112710 72980
L112670 73030
L112590 73060
L112470 73060
" />
</g>
<g style="fill:#840000; fill-opacity:0.0; 
stroke:#840000; stroke-width:100; stroke-opacity:1; 
stroke-linecap:round; stroke-linejoin:round;">
</g>
<g style="fill:#840000; fill-opacity:0.0; 
stroke:#840000; stroke-width:60; stroke-opacity:1; 
stroke-linecap:round; stroke-linejoin:round;">
<path d="M78880 76290
L78880 75700
L79020 75700
L79110 75730
L79160 75790
L79190 75840
L79220 75950
L79220 76040
L79190 76150
L79160 76210
L79110 76260
L79020 76290
L78880 76290
" />
<path d="M79720 76290
L79720 75980
L79700 75930
L79640 75900
L79530 75900
L79470 75930
" />
<path d="M79720 76260
L79670 76290
L79530 76290
L79470 76260
L79440 76210
L79440 76150
L79470 76100
L79530 76070
L79670 76070
L79720 76040
" />
<path d="M79920 75900
L80140 75900
" />
<path d="M80000 75700
L80000 76210
L80030 76260
L80080 76290
L80140 76290
" />
<path d="M80570 76260
L80510 76290
L80400 76290
L80340 76260
L80310 76210
L80310 75980
L80340 75930
L80400 75900
L80510 75900
L80570 75930
L80590 75980
L80590 76040
L80310 76100
" />
<path d="M80850 76240
L80880 76260
L80850 76290
L80820 76260
L80850 76240
L80850 76290
" />
<path d="M80850 75930
L80880 75950
L80850 75980
L80820 75950
L80850 75930
L80850 75980
" />
<path d="M81550 75760
L81580 75730
L81640 75700
L81780 75700
L81830 75730
L81860 75760
L81890 75810
L81890 75870
L81860 75950
L81520 76290
L81890 76290
" />
<path d="M82250 75700
L82310 75700
L82370 75730
L82390 75760
L82420 75810
L82450 75930
L82450 76070
L82420 76180
L82390 76240
L82370 76260
L82310 76290
L82250 76290
L82200 76260
L82170 76240
L82140 76180
L82110 76070
L82110 75930
L82140 75810
L82170 75760
L82200 75730
L82250 75700
" />
<path d="M83010 76290
L82670 76290
" />
<path d="M82840 76290
L82840 75700
L82780 75790
L82730 75840
L82670 75870
" />
<path d="M83200 75700
L83600 75700
L83340 76290
" />
<path d="M83820 76070
L84270 76070
" />
<path d="M84660 75700
L84720 75700
L84780 75730
L84800 75760
L84830 75810
L84860 75930
L84860 76070
L84830 76180
L84800 76240
L84780 76260
L84720 76290
L84660 76290
L84610 76260
L84580 76240
L84550 76180
L84520 76070
L84520 75930
L84550 75810
L84580 75760
L84610 75730
L84660 75700
" />
<path d="M85360 75900
L85360 76290
" />
<path d="M85220 75670
L85080 76100
L85450 76100
" />
<path d="M85670 76070
L86120 76070
" />
<path d="M86710 76290
L86370 76290
" />
<path d="M86540 76290
L86540 75700
L86480 75790
L86430 75840
L86370 75870
" />
<path d="M86900 75700
L87270 75700
L87070 75930
L87160 75930
L87210 75950
L87240 75980
L87270 76040
L87270 76180
L87240 76240
L87210 76260
L87160 76290
L86990 76290
L86930 76260
L86900 76240
" />
</g>
<g style="fill:#840000; fill-opacity:0.0; 
stroke:#840000; stroke-width:100; stroke-opacity:1; 
stroke-linecap:round; stroke-linejoin:round;">
</g>
<g style="fill:#840000; fill-opacity:0.0; 
stroke:#840000; stroke-width:60; stroke-opacity:1; 
stroke-linecap:round; stroke-linejoin:round;">
<path d="M69690 76580
L112210 76580
" />
</g>
<g style="fill:#840000; fill-opacity:0.0; 
stroke:#840000; stroke-width:100; stroke-opacity:1; 
stroke-linecap:round; stroke-linejoin:round;">
</g>
<g style="fill:#840000; fill-opacity:0.0; 
stroke:#840000; stroke-width:60; stroke-opacity:1; 
stroke-linecap:round; stroke-linejoin:round;">
<path d="M70220 77390
L70220 76800
" />
<path d="M70560 77390
L70300 77050
" />
<path d="M70560 76800
L70220 77140
" />
<path d="M70810 77390
L70810 77000
" />
<path d="M70810 76800
L70780 76830
L70810 76860
L70840 76830
L70810 76800
L70810 76860
" />
<path d="M71430 77340
L71400 77360
L71320 77390
L71260 77390
L71170 77360
L71120 77310
L71090 77250
L71060 77140
L71060 77050
L71090 76940
L71120 76890
L71170 76830
L71260 76800
L71320 76800
L71400 76830
L71430 76860
" />
<path d="M71930 77390
L71930 77080
L71910 77030
L71850 77000
L71740 77000
L71680 77030
" />
<path d="M71930 77360
L71880 77390
L71740 77390
L71680 77360
L71650 77310
L71650 77250
L71680 77200
L71740 77170
L71880 77170
L71930 77140
" />
<path d="M72460 77390
L72460 76800
" />
<path d="M72460 77360
L72410 77390
L72290 77390
L72240 77360
L72210 77340
L72180 77280
L72180 77110
L72210 77050
L72240 77030
L72290 77000
L72410 77000
L72460 77030
" />
<path d="M73190 77080
L73390 77080
" />
<path d="M73470 77390
L73190 77390
L73190 76800
L73470 76800
" />
<path d="M73720 77340
L73750 77360
L73720 77390
L73690 77360
L73720 77340
L73720 77390
" />
<path d="M74000 77390
L74000 76800
L74140 76800
L74230 76830
L74280 76890
L74310 76940
L74340 77050
L74340 77140
L74310 77250
L74280 77310
L74230 77360
L74140 77390
L74000 77390
" />
<path d="M74590 77340
L74620 77360
L74590 77390
L74560 77360
L74590 77340
L74590 77390
" />
<path d="M74840 77220
L75120 77220
" />
<path d="M74790 77390
L74980 76800
L75180 77390
" />
<path d="M75380 77340
L75410 77360
L75380 77390
L75350 77360
L75380 77340
L75380 77390
" />
<path d="M76560 77390
L76560 76800
" />
<path d="M76620 77170
L76790 77390
" />
<path d="M76790 77000
L76560 77220
" />
<path d="M77040 77390
L77040 77000
" />
<path d="M77040 76800
L77010 76830
L77040 76860
L77070 76830
L77040 76800
L77040 76860
" />
<path d="M77570 77360
L77520 77390
L77400 77390
L77350 77360
L77320 77340
L77290 77280
L77290 77110
L77320 77050
L77350 77030
L77400 77000
L77520 77000
L77570 77030
" />
<path d="M78080 77390
L78080 77080
L78060 77030
L78000 77000
L77890 77000
L77830 77030
" />
<path d="M78080 77360
L78030 77390
L77890 77390
L77830 77360
L77800 77310
L77800 77250
L77830 77200
L77890 77170
L78030 77170
L78080 77140
" />
<path d="M78610 77390
L78610 76800
" />
<path d="M78610 77360
L78560 77390
L78440 77390
L78390 77360
L78360 77340
L78330 77280
L78330 77110
L78360 77050
L78390 77030
L78440 77000
L78560 77000
L78610 77030
" />
<path d="M79590 77000
L79590 77390
" />
<path d="M79450 76770
L79310 77200
L79680 77200
" />
<path d="M79900 77340
L79930 77360
L79900 77390
L79870 77360
L79900 77340
L79900 77390
" />
<path d="M80290 76800
L80350 76800
L80410 76830
L80430 76860
L80460 76910
L80490 77030
L80490 77170
L80460 77280
L80430 77340
L80410 77360
L80350 77390
L80290 77390
L80240 77360
L80210 77340
L80180 77280
L80150 77170
L80150 77030
L80180 76910
L80210 76860
L80240 76830
L80290 76800
" />
<path d="M80740 77340
L80770 77360
L80740 77390
L80710 77360
L80740 77340
L80740 77390
" />
<path d="M81270 76800
L81160 76800
L81100 76830
L81080 76860
L81020 76940
L80990 77050
L80990 77280
L81020 77340
L81050 77360
L81100 77390
L81220 77390
L81270 77360
L81300 77340
L81330 77280
L81330 77140
L81300 77080
L81270 77050
L81220 77030
L81100 77030
L81050 77050
L81020 77080
L80990 77140
" />
</g>
<g style="fill:#840000; fill-opacity:0.0; 
stroke:#840000; stroke-width:100; stroke-opacity:1; 
stroke-linecap:round; stroke-linejoin:round;">
</g>
<g style="fill:#840000; fill-opacity:0.0; 
stroke:#840000; stroke-width:60; stroke-opacity:1; 
stroke-linecap:round; stroke-linejoin:round;">
<path d="M69690 75400
L112210 75400
" />
</g>
<g style="fill:#840000; fill-opacity:0.0; 
stroke:#840000; stroke-width:100; stroke-opacity:1; 
stroke-linecap:round; stroke-linejoin:round;">
</g>
<g style="fill:#840000; fill-opacity:0.0; 
stroke:#840000; stroke-width:120; stroke-opacity:1; 
stroke-linecap:round; stroke-linejoin:round;">
<path d="M104020 76290
L103820 76010
" />
<path d="M103680 76290
L103680 75700
L103910 75700
L103960 75730
L103990 75760
L104020 75810
L104020 75900
L103990 75950
L103960 75980
L103910 76010
L103680 76010
" />
<path d="M104500 76260
L104440 76290
L104330 76290
L104270 76260
L104240 76210
L104240 75980
L104270 75930
L104330 75900
L104440 75900
L104500 75930
L104520 75980
L104520 76040
L104240 76100
" />
<path d="M104720 75900
L104860 76290
L105010 75900
" />
<path d="M105230 76240
L105260 76260
L105230 76290
L105200 76260
L105230 76240
L105230 76290
" />
<path d="M105230 75930
L105260 75950
L105230 75980
L105200 75950
L105230 75930
L105230 75980
" />
<path d="M106070 75700
L106130 75700
L106190 75730
L106210 75760
L106240 75810
L106270 75930
L106270 76070
L106240 76180
L106210 76240
L106190 76260
L106130 76290
L106070 76290
L106020 76260
L105990 76240
L105960 76180
L105930 76070
L105930 75930
L105960 75810
L105990 75760
L106020 75730
L106070 75700
" />
<path d="M106830 76290
L106490 76290
" />
<path d="M106660 76290
L106660 75700
L106600 75790
L106550 75840
L106490 75870
" />
</g>
<g style="fill:#840000; fill-opacity:0.0; 
stroke:#840000; stroke-width:100; stroke-opacity:1; 
stroke-linecap:round; stroke-linejoin:round;">
</g>
<g style="fill:#840000; fill-opacity:0.0; 
stroke:#840000; stroke-width:60; stroke-opacity:1; 
stroke-linecap:round; stroke-linejoin:round;">
<path d="M70190 76260
L70280 76290
L70420 76290
L70470 76260
L70500 76240
L70530 76180
L70530 76120
L70500 76070
L70470 76040
L70420 76010
L70300 75980
L70250 75950
L70220 75930
L70190 75870
L70190 75810
L70220 75760
L70250 75730
L70300 75700
L70450 75700
L70530 75730
" />
<path d="M70780 76290
L70780 75900
" />
<path d="M70780 75700
L70750 75730
L70780 75760
L70810 75730
L70780 75700
L70780 75760
" />
<path d="M71000 75900
L71310 75900
L71000 76290
L71310 76290
" />
<path d="M71770 76260
L71710 76290
L71600 76290
L71540 76260
L71510 76210
L71510 75980
L71540 75930
L71600 75900
L71710 75900
L71770 75930
L71790 75980
L71790 76040
L71510 76100
" />
<path d="M72050 76240
L72080 76260
L72050 76290
L72020 76260
L72050 76240
L72050 76290
" />
<path d="M72050 75930
L72080 75950
L72050 75980
L72020 75950
L72050 75930
L72050 75980
" />
<path d="M72750 76120
L73030 76120
" />
<path d="M72700 76290
L72890 75700
L73090 76290
" />
<path d="M73540 75900
L73540 76290
" />
<path d="M73400 75670
L73260 76100
L73630 76100
" />
</g>
<g style="fill:#840000; fill-opacity:0.0; 
stroke:#840000; stroke-width:100; stroke-opacity:1; 
stroke-linecap:round; stroke-linejoin:round;">
</g>
<g style="fill:#840000; fill-opacity:0.0; 
stroke:#840000; stroke-width:60; stroke-opacity:1; 
stroke-linecap:round; stroke-linejoin:round;">
<path d="M103680 77390
L103680 76800
" />
<path d="M104210 77390
L104210 76800
" />
<path d="M104210 77360
L104160 77390
L104040 77390
L103990 77360
L103960 77340
L103930 77280
L103930 77110
L103960 77050
L103990 77030
L104040 77000
L104160 77000
L104210 77030
" />
<path d="M104490 77340
L104520 77360
L104490 77390
L104460 77360
L104490 77340
L104490 77390
" />
<path d="M104490 77030
L104520 77050
L104490 77080
L104460 77050
L104490 77030
L104490 77080
" />
<path d="M105530 77390
L105190 77390
" />
<path d="M105360 77390
L105360 76800
L105300 76890
L105250 76940
L105190 76970
" />
<path d="M106200 76770
L105700 77530
" />
<path d="M106710 77390
L106370 77390
" />
<path d="M106540 77390
L106540 76800
L106480 76890
L106430 76940
L106370 76970
" />
</g>
<g style="fill:#840000; fill-opacity:0.0; 
stroke:#840000; stroke-width:100; stroke-opacity:1; 
stroke-linecap:round; stroke-linejoin:round;">
</g>
<g style="fill:#840000; fill-opacity:0.0; 
stroke:#840000; stroke-width:60; stroke-opacity:1; 
stroke-linecap:round; stroke-linejoin:round;">
<path d="M69690 73820
L112210 73820
" />
</g>
<g style="fill:#840000; fill-opacity:0.0; 
stroke:#840000; stroke-width:100; stroke-opacity:1; 
stroke-linecap:round; stroke-linejoin:round;">
</g>
<g style="fill:#840000; fill-opacity:0.0; 
stroke:#840000; stroke-width:160; stroke-opacity:1; 
stroke-linecap:round; stroke-linejoin:round;">
<path d="M70260 74090
L70710 74090
" />
<path d="M70390 74880
L70480 74090
" />
<path d="M70880 74880
L70940 74360
" />
<path d="M70970 74090
L70930 74130
L70960 74170
L71010 74130
L70970 74090
L70960 74170
" />
<path d="M71210 74360
L71510 74360
" />
<path d="M71350 74090
L71270 74770
L71300 74840
L71370 74880
L71450 74880
" />
<path d="M71820 74880
L71750 74840
L71720 74770
L71800 74090
" />
<path d="M72420 74840
L72340 74880
L72190 74880
L72120 74840
L72090 74770
L72130 74470
L72180 74390
L72250 74360
L72400 74360
L72480 74390
L72510 74470
L72500 74540
L72110 74620
" />
<path d="M72800 74810
L72840 74840
L72800 74880
L72760 74840
L72800 74810
L72800 74880
" />
<path d="M72860 74390
L72890 74430
L72850 74470
L72810 74430
L72860 74390
L72850 74470
" />
<path d="M74120 74840
L74040 74880
L73890 74880
L73820 74840
L73780 74810
L73750 74730
L73780 74510
L73830 74430
L73880 74390
L73950 74360
L74100 74360
L74180 74390
" />
<path d="M74800 74880
L74850 74470
L74820 74390
L74740 74360
L74590 74360
L74520 74390
" />
<path d="M74800 74840
L74720 74880
L74530 74880
L74460 74840
L74430 74770
L74440 74690
L74490 74620
L74560 74580
L74750 74580
L74840 74540
" />
<path d="M75170 74880
L75230 74360
" />
<path d="M75220 74430
L75270 74390
L75340 74360
L75450 74360
L75530 74390
L75560 74470
L75510 74880
" />
<path d="M75560 74470
L75600 74390
L75680 74360
L75790 74360
L75870 74390
L75900 74470
L75850 74880
" />
<path d="M76520 74840
L76440 74880
L76290 74880
L76220 74840
L76190 74770
L76230 74470
L76280 74390
L76350 74360
L76500 74360
L76580 74390
L76610 74470
L76600 74540
L76210 74620
" />
<path d="M76900 74880
L76960 74360
" />
<path d="M76940 74510
L76990 74430
L77030 74390
L77110 74360
L77180 74360
" />
<path d="M77730 74880
L77780 74470
L77750 74390
L77670 74360
L77520 74360
L77450 74390
" />
<path d="M77730 74840
L77650 74880
L77460 74880
L77390 74840
L77360 74770
L77370 74690
L77420 74620
L77490 74580
L77680 74580
L77770 74540
" />
<path d="M78810 74880
L78740 74840
L78710 74770
L78790 74090
" />
<path d="M79110 74880
L79170 74360
" />
<path d="M79200 74090
L79160 74130
L79190 74170
L79240 74130
L79200 74090
L79190 74170
" />
<path d="M79890 74360
L79810 75000
L79760 75070
L79720 75110
L79640 75150
L79520 75150
L79460 75110
" />
<path d="M79830 74840
L79750 74880
L79600 74880
L79530 74840
L79490 74810
L79460 74730
L79490 74510
L79540 74430
L79590 74390
L79660 74360
L79810 74360
L79890 74390
" />
<path d="M80200 74880
L80290 74090
" />
<path d="M80540 74880
L80590 74470
L80560 74390
L80480 74360
L80370 74360
L80300 74390
L80250 74430
" />
<path d="M80860 74360
L81160 74360
" />
<path d="M81000 74090
L80920 74770
L80950 74840
L81020 74880
L81100 74880
" />
</g>
<g style="fill:#840000; fill-opacity:0.0; 
stroke:#840000; stroke-width:100; stroke-opacity:1; 
stroke-linecap:round; stroke-linejoin:round;">
</g>
<g style="fill:#840000; fill-opacity:0.0; 
stroke:#840000; stroke-width:60; stroke-opacity:1; 
stroke-linecap:round; stroke-linejoin:round;">
<path d="M70420 73060
L70220 73060
" />
<path d="M70220 73370
L70220 72780
L70500 72780
" />
<path d="M70730 73370
L70730 72980
" />
<path d="M70730 72780
L70700 72810
L70730 72840
L70760 72810
L70730 72780
L70730 72840
" />
<path d="M71090 73370
L71040 73340
L71010 73290
L71010 72780
" />
<path d="M71550 73340
L71490 73370
L71380 73370
L71320 73340
L71290 73290
L71290 73060
L71320 73010
L71380 72980
L71490 72980
L71550 73010
L71570 73060
L71570 73120
L71290 73180
" />
<path d="M71830 73320
L71860 73340
L71830 73370
L71800 73340
L71830 73320
L71830 73370
" />
<path d="M71830 73010
L71860 73030
L71830 73060
L71800 73030
L71830 73010
L71830 73060
" />
<path d="M72810 73340
L72760 73370
L72640 73370
L72590 73340
L72560 73320
L72530 73260
L72530 73090
L72560 73030
L72590 73010
L72640 72980
L72760 72980
L72810 73010
" />
<path d="M73320 73370
L73320 73060
L73300 73010
L73240 72980
L73130 72980
L73070 73010
" />
<path d="M73320 73340
L73270 73370
L73130 73370
L73070 73340
L73040 73290
L73040 73230
L73070 73180
L73130 73150
L73270 73150
L73320 73120
" />
<path d="M73600 73370
L73600 72980
" />
<path d="M73600 73030
L73630 73010
L73680 72980
L73770 72980
L73830 73010
L73850 73060
L73850 73370
" />
<path d="M73850 73060
L73880 73010
L73940 72980
L74020 72980
L74080 73010
L74110 73060
L74110 73370
" />
<path d="M74620 73340
L74560 73370
L74450 73370
L74390 73340
L74360 73290
L74360 73060
L74390 73010
L74450 72980
L74560 72980
L74620 73010
L74640 73060
L74640 73120
L74360 73180
" />
<path d="M74900 73370
L74900 72980
" />
<path d="M74900 73090
L74930 73030
L74960 73010
L75010 72980
L75070 72980
" />
<path d="M75520 73370
L75520 73060
L75500 73010
L75440 72980
L75330 72980
L75270 73010
" />
<path d="M75520 73340
L75470 73370
L75330 73370
L75270 73340
L75240 73290
L75240 73230
L75270 73180
L75330 73150
L75470 73150
L75520 73120
" />
<path d="M75800 73150
L76250 73150
" />
<path d="M76610 73370
L76560 73340
L76530 73290
L76530 72780
" />
<path d="M76840 73370
L76840 72980
" />
<path d="M76840 72780
L76810 72810
L76840 72840
L76870 72810
L76840 72780
L76840 72840
" />
<path d="M77370 72980
L77370 73460
L77350 73510
L77320 73540
L77260 73570
L77180 73570
L77120 73540
" />
<path d="M77370 73340
L77320 73370
L77200 73370
L77150 73340
L77120 73320
L77090 73260
L77090 73090
L77120 73030
L77150 73010
L77200 72980
L77320 72980
L77370 73010
" />
<path d="M77650 73370
L77650 72780
" />
<path d="M77900 73370
L77900 73060
L77880 73010
L77820 72980
L77730 72980
L77680 73010
L77650 73030
" />
<path d="M78100 72980
L78320 72980
" />
<path d="M78180 72780
L78180 73290
L78210 73340
L78260 73370
L78320 73370
" />
<path d="M78520 73320
L78550 73340
L78520 73370
L78490 73340
L78520 73320
L78520 73370
" />
<path d="M78770 73340
L78830 73370
L78940 73370
L79000 73340
L79030 73290
L79030 73260
L79000 73200
L78940 73180
L78860 73180
L78800 73150
L78770 73090
L78770 73060
L78800 73010
L78860 72980
L78940 72980
L79000 73010
" />
<path d="M79530 73340
L79480 73370
L79360 73370
L79310 73340
L79280 73320
L79250 73260
L79250 73090
L79280 73030
L79310 73010
L79360 72980
L79480 72980
L79530 73010
" />
<path d="M79790 73370
L79790 72780
" />
<path d="M80040 73370
L80040 73060
L80020 73010
L79960 72980
L79870 72980
L79820 73010
L79790 73030
" />
</g>
<g style="fill:#840000; fill-opacity:0.0; 
stroke:#840000; stroke-width:100; stroke-opacity:1; 
stroke-linecap:round; stroke-linejoin:round;">
</g>
<g style="fill:#840000; fill-opacity:0.0; 
stroke:#840000; stroke-width:60; stroke-opacity:1; 
stroke-linecap:round; stroke-linejoin:round;">
<path d="M69690 71460
L112210 71460
" />
</g>
<g style="fill:#840000; fill-opacity:0.0; 
stroke:#840000; stroke-width:100; stroke-opacity:1; 
stroke-linecap:round; stroke-linejoin:round;">
</g>
<g style="fill:#840000; fill-opacity:0.0; 
stroke:#840000; stroke-width:60; stroke-opacity:1; 
stroke-linecap:round; stroke-linejoin:round;">
<path d="M70190 72280
L70280 72310
L70420 72310
L70470 72280
L70500 72260
L70530 72200
L70530 72140
L70500 72090
L70470 72060
L70420 72030
L70300 72000
L70250 71970
L70220 71950
L70190 71890
L70190 71830
L70220 71780
L70250 71750
L70300 71720
L70450 71720
L70530 71750
" />
<path d="M70780 72310
L70780 71720
" />
<path d="M71030 72310
L71030 72000
L71010 71950
L70950 71920
L70860 71920
L70810 71950
L70780 71970
" />
<path d="M71540 72280
L71480 72310
L71370 72310
L71310 72280
L71280 72230
L71280 72000
L71310 71950
L71370 71920
L71480 71920
L71540 71950
L71560 72000
L71560 72060
L71280 72120
" />
<path d="M72050 72280
L71990 72310
L71880 72310
L71820 72280
L71790 72230
L71790 72000
L71820 71950
L71880 71920
L71990 71920
L72050 71950
L72070 72000
L72070 72060
L71790 72120
" />
<path d="M72250 71920
L72470 71920
" />
<path d="M72330 71720
L72330 72230
L72360 72280
L72410 72310
L72470 72310
" />
<path d="M72670 72260
L72700 72280
L72670 72310
L72640 72280
L72670 72260
L72670 72310
" />
<path d="M72670 71950
L72700 71970
L72670 72000
L72640 71970
L72670 71950
L72670 72000
" />
<path d="M73820 71690
L73320 72450
" />
</g>
<g style="fill:#840000; fill-opacity:0.0; 
stroke:#840000; stroke-width:100; stroke-opacity:1; 
stroke-linecap:round; stroke-linejoin:round;">
</g>
<g style="fill:#840000; fill-opacity:0.0; 
stroke:#840000; stroke-width:120; stroke-opacity:1; 
stroke-linecap:round; stroke-linejoin:round;">
<path d="M70140 70540
L70330 71130
L70530 70540
" />
<path d="M70730 71130
L70730 70540
" />
<path d="M71010 71130
L71010 70540
L71240 70540
L71290 70570
L71320 70600
L71350 70650
L71350 70740
L71320 70790
L71290 70820
L71240 70850
L71010 70850
" />
<path d="M71600 70820
L71800 70820
" />
<path d="M71880 71130
L71600 71130
L71600 70540
L71880 70540
" />
<path d="M72470 71130
L72270 70850
" />
<path d="M72130 71130
L72130 70540
L72360 70540
L72410 70570
L72440 70600
L72470 70650
L72470 70740
L72440 70790
L72410 70820
L72360 70850
L72130 70850
" />
</g>
<g style="fill:#840000; fill-opacity:0.0; 
stroke:#840000; stroke-width:100; stroke-opacity:1; 
stroke-linecap:round; stroke-linejoin:round;">
</g>
<g style="fill:#840000; fill-opacity:0.0; 
stroke:#840000; stroke-width:60; stroke-opacity:1; 
stroke-linecap:round; stroke-linejoin:round;">
<path d="M77560 75400
L77560 76580
" />
</g>
<g style="fill:#840000; fill-opacity:0.0; 
stroke:#840000; stroke-width:100; stroke-opacity:1; 
stroke-linecap:round; stroke-linejoin:round;">
</g>
<g style="fill:#840000; fill-opacity:0.0; 
stroke:#840000; stroke-width:60; stroke-opacity:1; 
stroke-linecap:round; stroke-linejoin:round;">
<path d="M102760 75400
L102760 77960
" />
</g>
<g style="fill:#840000; fill-opacity:0.0; 
stroke:#840000; stroke-width:0; stroke-opacity:1; 
stroke-linecap:round; stroke-linejoin:round;">
</g>
<g style="fill:#840000; fill-opacity:0.0; 
stroke:#840000; stroke-width:80; stroke-opacity:1; 
stroke-linecap:round; stroke-linejoin:round;">
<polyline fill="none;"
points="51500,25500
51500,24500
" /> 
</g>
<g style="fill:#840000; fill-opacity:0.0; 
stroke:#840000; stroke-width:60; stroke-opacity:1; 
stroke-linecap:round; stroke-linejoin:round;">
<polyline fill="none;"
points="51500,25000
52500,25000
" /> 
</g>
<g style="fill:#840000; fill-opacity:0.0; 
stroke:#840000; stroke-width:80; stroke-opacity:1; 
stroke-linecap:round; stroke-linejoin:round;">
<polyline fill="none;"
points="52500,25500
52500,24500
51500,25000
52500,25500
" /> 
</g>
<g style="fill:#840000; fill-opacity:0.0; 
stroke:#840000; stroke-width:60; stroke-opacity:1; 
stroke-linecap:round; stroke-linejoin:round;">
<polyline fill="none;"
points="50800,25300
50200,25900
50500,25900
50200,25900
50200,25600
" /> 
<polyline fill="none;"
points="51300,25300
50700,25900
51000,25900
50700,25900
50700,25600
" /> 
<path d="M51500 25000
L50500 25000
" />
<path d="M51140 24880
L50860 24880
" />
<path d="M51000 24880
L51000 24380
L50950 24450
L50900 24500
L50860 24520
" />
<path d="M52500 25000
L53500 25000
" />
<path d="M52860 24420
L52880 24400
L52930 24380
L53050 24380
L53090 24400
L53120 24420
L53140 24470
L53140 24520
L53120 24590
L52830 24880
L53140 24880
" />
</g>
<g style="fill:#008484; fill-opacity:0.0; 
stroke:#008484; stroke-width:60; stroke-opacity:1; 
stroke-linecap:round; stroke-linejoin:round;">
<path d="M51630 24260
L51630 23760
L51750 23760
L51820 23780
L51870 23830
L51890 23880
L51910 23970
L51910 24040
L51890 24140
L51870 24180
L51820 24230
L51750 24260
L51630 24260
" />
<path d="M52390 24260
L52110 24260
" />
<path d="M52250 24260
L52250 23760
L52200 23830
L52150 23880
L52110 23900
" />
<path d="M51690 26260
L51450 26260
L51450 25760
" />
<path d="M51850 25990
L52020 25990
" />
<path d="M52090 26260
L51850 26260
L51850 25760
L52090 25760
" />
<path d="M52300 26260
L52300 25760
L52420 25760
L52490 25780
L52540 25830
L52560 25880
L52580 25970
L52580 26040
L52560 26140
L52540 26180
L52490 26230
L52420 26260
L52300 26260
" />
</g>
<g style="fill:#840084; fill-opacity:0.0; 
stroke:#840084; stroke-width:60; stroke-opacity:1; 
stroke-linecap:round; stroke-linejoin:round;">
<path d="M47910 23260
L47910 22920
" />
<path d="M47910 23020
L47930 22970
L47960 22950
L48000 22920
L48050 22920
" />
<path d="M48170 23260
L48430 22920
" />
<path d="M48170 22920
L48430 23260
" />
<path d="M48620 23070
L49000 23070
" />
<path d="M49190 22920
L49310 23260
L49430 22920
" />
<path d="M49620 23260
L49620 22920
" />
<path d="M49620 22760
L49600 22780
L49620 22800
L49640 22780
L49620 22760
L49620 22800
" />
<path d="M49860 22920
L49860 23420
" />
<path d="M49860 22950
L49910 22920
L50000 22920
L50050 22950
L50070 22970
L50100 23020
L50100 23160
L50070 23210
L50050 23230
L50000 23260
L49910 23260
L49860 23230
" />
<path d="M50500 23230
L50450 23260
L50360 23260
L50310 23230
L50290 23180
L50290 22990
L50310 22950
L50360 22920
L50450 22920
L50500 22950
L50520 22990
L50520 23040
L50290 23090
" />
<path d="M50740 23260
L50740 22920
" />
<path d="M50740 23020
L50760 22970
L50790 22950
L50830 22920
L50880 22920
" />
<path d="M51050 23210
L51070 23230
L51050 23260
L51030 23230
L51050 23210
L51050 23260
" />
<path d="M51050 22950
L51070 22970
L51050 22990
L51030 22970
L51050 22950
L51050 22990
" />
<path d="M51530 23260
L51290 23260
L51290 22760
" />
<path d="M51690 22990
L51860 22990
" />
<path d="M51930 23260
L51690 23260
L51690 22760
L51930 22760
" />
<path d="M52140 23260
L52140 22760
L52260 22760
L52330 22780
L52380 22830
L52400 22880
L52420 22970
L52420 23040
L52400 23140
L52380 23180
L52330 23230
L52260 23260
L52140 23260
" />
<path d="M52520 23300
L52900 23300
" />
<path d="M53260 23260
L53020 23260
L53020 22760
" />
<path d="M53370 22760
L53490 23260
L53590 22900
L53680 23260
L53800 22760
" />
<path d="M53870 23300
L54250 23300
" />
<path d="M54630 22780
L54580 22760
L54510 22760
L54440 22780
L54390 22830
L54370 22880
L54350 22970
L54350 23040
L54370 23140
L54390 23180
L54440 23230
L54510 23260
L54560 23260
L54630 23230
L54650 23210
L54650 23040
L54560 23040
" />
<path d="M55080 22760
L54990 22760
L54940 22780
L54920 22800
L54870 22880
L54850 22970
L54850 23160
L54870 23210
L54890 23230
L54940 23260
L55040 23260
L55080 23230
L55110 23210
L55130 23160
L55130 23040
L55110 22990
L55080 22970
L55040 22950
L54940 22950
L54890 22970
L54870 22990
L54850 23040
" />
<path d="M55330 23230
L55400 23260
L55520 23260
L55560 23230
L55590 23210
L55610 23160
L55610 23110
L55590 23070
L55560 23040
L55520 23020
L55420 22990
L55370 22970
L55350 22950
L55330 22900
L55330 22850
L55350 22800
L55370 22780
L55420 22760
L55540 22760
L55610 22780
" />
<path d="M55830 23260
L55830 22760
L56020 22760
L56070 22780
L56090 22800
L56110 22850
L56110 22920
L56090 22970
L56070 22990
L56020 23020
L55830 23020
" />
</g>
<g style="fill:#840084; fill-opacity:0.0; 
stroke:#840084; stroke-width:0; stroke-opacity:1; 
stroke-linecap:round; stroke-linejoin:round;">
</g>
<g style="fill:#840000; fill-opacity:0.0; 
stroke:#840000; stroke-width:0; stroke-opacity:1; 
stroke-linecap:round; stroke-linejoin:round;">
</g>
<g style="fill:#840000; fill-opacity:0.0; 
stroke:#840000; stroke-width:80; stroke-opacity:1; 
stroke-linecap:round; stroke-linejoin:round;">
<polyline fill="none;"
points="51500,28500
51500,27500
" /> 
</g>
<g style="fill:#840000; fill-opacity:0.0; 
stroke:#840000; stroke-width:60; stroke-opacity:1; 
stroke-linecap:round; stroke-linejoin:round;">
<polyline fill="none;"
points="51500,28000
52500,28000
" /> 
</g>
<g style="fill:#840000; fill-opacity:0.0; 
stroke:#840000; stroke-width:80; stroke-opacity:1; 
stroke-linecap:round; stroke-linejoin:round;">
<polyline fill="none;"
points="52500,28500
52500,27500
51500,28000
52500,28500
" /> 
</g>
<g style="fill:#840000; fill-opacity:0.0; 
stroke:#840000; stroke-width:60; stroke-opacity:1; 
stroke-linecap:round; stroke-linejoin:round;">
<polyline fill="none;"
points="50800,28300
50200,28900
50500,28900
50200,28900
50200,28600
" /> 
<polyline fill="none;"
points="51300,28300
50700,28900
51000,28900
50700,28900
50700,28600
" /> 
<path d="M51500 28000
L50500 28000
" />
<path d="M51140 27880
L50860 27880
" />
<path d="M51000 27880
L51000 27380
L50950 27450
L50900 27500
L50860 27520
" />
<path d="M52500 28000
L53500 28000
" />
<path d="M52860 27420
L52880 27400
L52930 27380
L53050 27380
L53090 27400
L53120 27420
L53140 27470
L53140 27520
L53120 27590
L52830 27880
L53140 27880
" />
</g>
<g style="fill:#008484; fill-opacity:0.0; 
stroke:#008484; stroke-width:60; stroke-opacity:1; 
stroke-linecap:round; stroke-linejoin:round;">
<path d="M51630 27260
L51630 26760
L51750 26760
L51820 26780
L51870 26830
L51890 26880
L51910 26970
L51910 27040
L51890 27140
L51870 27180
L51820 27230
L51750 27260
L51630 27260
" />
<path d="M52110 26800
L52130 26780
L52180 26760
L52300 26760
L52340 26780
L52370 26800
L52390 26850
L52390 26900
L52370 26970
L52080 27260
L52390 27260
" />
<path d="M51690 29260
L51450 29260
L51450 28760
" />
<path d="M51850 28990
L52020 28990
" />
<path d="M52090 29260
L51850 29260
L51850 28760
L52090 28760
" />
<path d="M52300 29260
L52300 28760
L52420 28760
L52490 28780
L52540 28830
L52560 28880
L52580 28970
L52580 29040
L52560 29140
L52540 29180
L52490 29230
L52420 29260
L52300 29260
" />
</g>
<g style="fill:#840084; fill-opacity:0.0; 
stroke:#840084; stroke-width:60; stroke-opacity:1; 
stroke-linecap:round; stroke-linejoin:round;">
<path d="M47910 30260
L47910 29920
" />
<path d="M47910 30020
L47930 29970
L47960 29950
L48000 29920
L48050 29920
" />
<path d="M48170 30260
L48430 29920
" />
<path d="M48170 29920
L48430 30260
" />
<path d="M48620 30070
L49000 30070
" />
<path d="M49190 29920
L49310 30260
L49430 29920
" />
<path d="M49620 30260
L49620 29920
" />
<path d="M49620 29760
L49600 29780
L49620 29800
L49640 29780
L49620 29760
L49620 29800
" />
<path d="M49860 29920
L49860 30420
" />
<path d="M49860 29950
L49910 29920
L50000 29920
L50050 29950
L50070 29970
L50100 30020
L50100 30160
L50070 30210
L50050 30230
L50000 30260
L49910 30260
L49860 30230
" />
<path d="M50500 30230
L50450 30260
L50360 30260
L50310 30230
L50290 30180
L50290 29990
L50310 29950
L50360 29920
L50450 29920
L50500 29950
L50520 29990
L50520 30040
L50290 30090
" />
<path d="M50740 30260
L50740 29920
" />
<path d="M50740 30020
L50760 29970
L50790 29950
L50830 29920
L50880 29920
" />
<path d="M51050 30210
L51070 30230
L51050 30260
L51030 30230
L51050 30210
L51050 30260
" />
<path d="M51050 29950
L51070 29970
L51050 29990
L51030 29970
L51050 29950
L51050 29990
" />
<path d="M51530 30260
L51290 30260
L51290 29760
" />
<path d="M51690 29990
L51860 29990
" />
<path d="M51930 30260
L51690 30260
L51690 29760
L51930 29760
" />
<path d="M52140 30260
L52140 29760
L52260 29760
L52330 29780
L52380 29830
L52400 29880
L52420 29970
L52420 30040
L52400 30140
L52380 30180
L52330 30230
L52260 30260
L52140 30260
" />
<path d="M52520 30300
L52900 30300
" />
<path d="M53260 30260
L53020 30260
L53020 29760
" />
<path d="M53370 29760
L53490 30260
L53590 29900
L53680 30260
L53800 29760
" />
<path d="M53870 30300
L54250 30300
" />
<path d="M54630 29780
L54580 29760
L54510 29760
L54440 29780
L54390 29830
L54370 29880
L54350 29970
L54350 30040
L54370 30140
L54390 30180
L54440 30230
L54510 30260
L54560 30260
L54630 30230
L54650 30210
L54650 30040
L54560 30040
" />
<path d="M55080 29760
L54990 29760
L54940 29780
L54920 29800
L54870 29880
L54850 29970
L54850 30160
L54870 30210
L54890 30230
L54940 30260
L55040 30260
L55080 30230
L55110 30210
L55130 30160
L55130 30040
L55110 29990
L55080 29970
L55040 29950
L54940 29950
L54890 29970
L54870 29990
L54850 30040
" />
<path d="M55330 30230
L55400 30260
L55520 30260
L55560 30230
L55590 30210
L55610 30160
L55610 30110
L55590 30070
L55560 30040
L55520 30020
L55420 29990
L55370 29970
L55350 29950
L55330 29900
L55330 29850
L55350 29800
L55370 29780
L55420 29760
L55540 29760
L55610 29780
" />
<path d="M55830 30260
L55830 29760
L56020 29760
L56070 29780
L56090 29800
L56110 29850
L56110 29920
L56090 29970
L56070 29990
L56020 30020
L55830 30020
" />
</g>
<g style="fill:#840084; fill-opacity:0.0; 
stroke:#840084; stroke-width:0; stroke-opacity:1; 
stroke-linecap:round; stroke-linejoin:round;">
</g>
<g style="fill:#840000; fill-opacity:0.0; 
stroke:#840000; stroke-width:0; stroke-opacity:1; 
stroke-linecap:round; stroke-linejoin:round;">
</g>
<g style="fill:#840000; fill-opacity:0.0; 
stroke:#840000; stroke-width:60; stroke-opacity:1; 
stroke-linecap:round; stroke-linejoin:round;">
<rect x="57000" y="26950" width="600" height="100" rx="0" />
<rect x="57000" y="25950" width="600" height="100" rx="0" />
<rect x="57000" y="25500" width="1000" height="2000" rx="0" />
<path d="M57000 26000
L55500 26000
" />
<path d="M56390 25880
L56110 25880
" />
<path d="M56250 25880
L56250 25380
L56200 25450
L56150 25500
L56110 25520
" />
<path d="M57000 27000
L55500 27000
" />
<path d="M56110 26420
L56130 26400
L56180 26380
L56300 26380
L56340 26400
L56370 26420
L56390 26470
L56390 26520
L56370 26590
L56080 26880
L56390 26880
" />
</g>
<g style="fill:#008484; fill-opacity:0.0; 
stroke:#008484; stroke-width:60; stroke-opacity:1; 
stroke-linecap:round; stroke-linejoin:round;">
<path d="M57130 25260
L57130 24760
L57320 24760
L57370 24780
L57390 24800
L57410 24850
L57410 24920
L57390 24970
L57370 24990
L57320 25020
L57130 25020
" />
<path d="M57610 24800
L57630 24780
L57680 24760
L57800 24760
L57840 24780
L57870 24800
L57890 24850
L57890 24900
L57870 24970
L57580 25260
L57890 25260
" />
<path d="M58710 28520
L58730 28540
L58760 28610
L58760 28660
L58730 28730
L58680 28780
L58640 28800
L58540 28820
L58470 28820
L58380 28800
L58330 28780
L58280 28730
L58260 28660
L58260 28610
L58280 28540
L58300 28520
" />
<path d="M58260 28210
L58260 28110
L58280 28060
L58330 28020
L58420 27990
L58590 27990
L58680 28020
L58730 28060
L58760 28110
L58760 28210
L58730 28250
L58680 28300
L58590 28320
L58420 28320
L58330 28300
L58280 28250
L58260 28210
" />
<path d="M58760 27780
L58260 27780
L58760 27500
L58260 27500
" />
<path d="M58760 27260
L58260 27260
L58760 26980
L58260 26980
" />
<path d="M58800 26860
L58800 26480
" />
<path d="M58260 26270
L58260 26220
L58280 26170
L58300 26150
L58350 26120
L58450 26100
L58570 26100
L58660 26120
L58710 26150
L58730 26170
L58760 26220
L58760 26270
L58730 26310
L58710 26340
L58660 26360
L58570 26380
L58450 26380
L58350 26360
L58300 26340
L58280 26310
L58260 26270
" />
<path d="M58760 25620
L58760 25900
" />
<path d="M58760 25760
L58260 25760
L58330 25810
L58380 25860
L58400 25900
" />
<path d="M58260 25450
L58760 25120
" />
<path d="M58260 25120
L58760 25450
" />
<path d="M58260 24830
L58260 24780
L58280 24730
L58300 24710
L58350 24680
L58450 24660
L58570 24660
L58660 24680
L58710 24710
L58730 24730
L58760 24780
L58760 24830
L58730 24870
L58710 24900
L58660 24920
L58570 24940
L58450 24940
L58350 24920
L58300 24900
L58280 24870
L58260 24830
" />
<path d="M58300 24460
L58280 24440
L58260 24390
L58260 24270
L58280 24230
L58300 24200
L58350 24180
L58400 24180
L58470 24200
L58760 24490
L58760 24180
" />
</g>
<g style="fill:#840084; fill-opacity:0.0; 
stroke:#840084; stroke-width:60; stroke-opacity:1; 
stroke-linecap:round; stroke-linejoin:round;">
<path d="M57360 29760
L57360 29260
L57550 29260
L57600 29280
L57620 29300
L57640 29350
L57640 29420
L57620 29470
L57600 29490
L57550 29520
L57360 29520
" />
<path d="M57860 29760
L57860 29420
" />
<path d="M57860 29260
L57840 29280
L57860 29300
L57880 29280
L57860 29260
L57860 29300
" />
<path d="M58100 29420
L58100 29760
" />
<path d="M58100 29470
L58120 29450
L58170 29420
L58240 29420
L58290 29450
L58310 29490
L58310 29760
" />
<path d="M58430 29800
L58810 29800
" />
<path d="M58930 29760
L58930 29260
" />
<path d="M58930 29490
L59210 29490
" />
<path d="M59210 29760
L59210 29260
" />
<path d="M59640 29730
L59590 29760
L59500 29760
L59450 29730
L59430 29680
L59430 29490
L59450 29450
L59500 29420
L59590 29420
L59640 29450
L59660 29490
L59660 29540
L59430 29590
" />
<path d="M60090 29760
L60090 29490
L60070 29450
L60020 29420
L59930 29420
L59880 29450
" />
<path d="M60090 29730
L60050 29760
L59930 29760
L59880 29730
L59860 29680
L59860 29640
L59880 29590
L59930 29570
L60050 29570
L60090 29540
" />
<path d="M60540 29760
L60540 29260
" />
<path d="M60540 29730
L60500 29760
L60400 29760
L60350 29730
L60330 29710
L60310 29660
L60310 29520
L60330 29470
L60350 29450
L60400 29420
L60500 29420
L60540 29450
" />
<path d="M60970 29730
L60920 29760
L60830 29760
L60780 29730
L60760 29680
L60760 29490
L60780 29450
L60830 29420
L60920 29420
L60970 29450
L60990 29490
L60990 29540
L60760 29590
" />
<path d="M61210 29760
L61210 29420
" />
<path d="M61210 29520
L61230 29470
L61260 29450
L61300 29420
L61350 29420
" />
<path d="M61500 29730
L61540 29760
L61640 29760
L61690 29730
L61710 29680
L61710 29660
L61690 29610
L61640 29590
L61570 29590
L61520 29570
L61500 29520
L61500 29490
L61520 29450
L61570 29420
L61640 29420
L61690 29450
" />
<path d="M61920 29710
L61940 29730
L61920 29760
L61900 29730
L61920 29710
L61920 29760
" />
<path d="M61920 29450
L61940 29470
L61920 29490
L61900 29470
L61920 29450
L61920 29490
" />
<path d="M62160 29760
L62160 29260
L62350 29260
L62400 29280
L62420 29300
L62440 29350
L62440 29420
L62420 29470
L62400 29490
L62350 29520
L62160 29520
" />
<path d="M62660 29760
L62660 29420
" />
<path d="M62660 29260
L62640 29280
L62660 29300
L62680 29280
L62660 29260
L62660 29300
" />
<path d="M62900 29420
L62900 29760
" />
<path d="M62900 29470
L62920 29450
L62970 29420
L63040 29420
L63090 29450
L63110 29490
L63110 29760
" />
<path d="M63230 29800
L63610 29800
" />
<path d="M63730 29760
L63730 29260
" />
<path d="M63730 29490
L64010 29490
" />
<path d="M64010 29760
L64010 29260
" />
<path d="M64440 29730
L64390 29760
L64300 29760
L64250 29730
L64230 29680
L64230 29490
L64250 29450
L64300 29420
L64390 29420
L64440 29450
L64460 29490
L64460 29540
L64230 29590
" />
<path d="M64890 29760
L64890 29490
L64870 29450
L64820 29420
L64730 29420
L64680 29450
" />
<path d="M64890 29730
L64850 29760
L64730 29760
L64680 29730
L64660 29680
L64660 29640
L64680 29590
L64730 29570
L64850 29570
L64890 29540
" />
<path d="M65340 29760
L65340 29260
" />
<path d="M65340 29730
L65300 29760
L65200 29760
L65150 29730
L65130 29710
L65110 29660
L65110 29520
L65130 29470
L65150 29450
L65200 29420
L65300 29420
L65340 29450
" />
<path d="M65770 29730
L65720 29760
L65630 29760
L65580 29730
L65560 29680
L65560 29490
L65580 29450
L65630 29420
L65720 29420
L65770 29450
L65790 29490
L65790 29540
L65560 29590
" />
<path d="M66010 29760
L66010 29420
" />
<path d="M66010 29520
L66030 29470
L66060 29450
L66100 29420
L66150 29420
" />
<path d="M66200 29800
L66580 29800
" />
<path d="M66680 29730
L66750 29760
L66870 29760
L66910 29730
L66940 29710
L66960 29660
L66960 29610
L66940 29570
L66910 29540
L66870 29520
L66770 29490
L66720 29470
L66700 29450
L66680 29400
L66680 29350
L66700 29300
L66720 29280
L66770 29260
L66890 29260
L66960 29280
" />
<path d="M67110 29420
L67300 29420
" />
<path d="M67180 29260
L67180 29680
L67200 29730
L67250 29760
L67300 29760
" />
<path d="M67470 29760
L67470 29420
" />
<path d="M67470 29520
L67490 29470
L67520 29450
L67560 29420
L67610 29420
" />
<path d="M67990 29760
L67990 29490
L67970 29450
L67920 29420
L67830 29420
L67780 29450
" />
<path d="M67990 29730
L67950 29760
L67830 29760
L67780 29730
L67760 29680
L67760 29640
L67780 29590
L67830 29570
L67950 29570
L67990 29540
" />
<path d="M68230 29760
L68230 29420
" />
<path d="M68230 29260
L68210 29280
L68230 29300
L68250 29280
L68230 29260
L68230 29300
" />
<path d="M68680 29420
L68680 29830
L68660 29880
L68640 29900
L68590 29920
L68520 29920
L68470 29900
" />
<path d="M68680 29730
L68640 29760
L68540 29760
L68490 29730
L68470 29710
L68450 29660
L68450 29520
L68470 29470
L68490 29450
L68540 29420
L68640 29420
L68680 29450
" />
<path d="M68920 29760
L68920 29260
" />
<path d="M69130 29760
L69130 29490
L69110 29450
L69060 29420
L68990 29420
L68940 29450
L68920 29470
" />
<path d="M69300 29420
L69490 29420
" />
<path d="M69370 29260
L69370 29680
L69390 29730
L69440 29760
L69490 29760
" />
<path d="M69540 29800
L69920 29800
" />
<path d="M70300 29760
L70020 29760
" />
<path d="M70160 29760
L70160 29260
L70110 29330
L70060 29380
L70020 29400
" />
<path d="M70470 29760
L70730 29420
" />
<path d="M70470 29420
L70730 29760
" />
<path d="M71010 29260
L71060 29260
L71110 29280
L71130 29300
L71160 29350
L71180 29450
L71180 29570
L71160 29660
L71130 29710
L71110 29730
L71060 29760
L71010 29760
L70970 29730
L70940 29710
L70920 29660
L70900 29570
L70900 29450
L70920 29350
L70940 29300
L70970 29280
L71010 29260
" />
<path d="M71380 29300
L71400 29280
L71450 29260
L71570 29260
L71610 29280
L71640 29300
L71660 29350
L71660 29400
L71640 29470
L71350 29760
L71660 29760
" />
</g>
<g style="fill:#840084; fill-opacity:0.0; 
stroke:#840084; stroke-width:0; stroke-opacity:1; 
stroke-linecap:round; stroke-linejoin:round;">
</g>
<g style="fill:#840000; fill-opacity:0.0; 
stroke:#840000; stroke-width:0; stroke-opacity:1; 
stroke-linecap:round; stroke-linejoin:round;">
</g>
<g style="fill:#840000; fill-opacity:0.0; 
stroke:#840000; stroke-width:60; stroke-opacity:1; 
stroke-linecap:round; stroke-linejoin:round;">
<rect x="46400" y="26950" width="600" height="100" rx="0" />
<rect x="46400" y="25950" width="600" height="100" rx="0" />
<rect x="46000" y="25500" width="1000" height="2000" rx="0" />
<path d="M47000 26000
L48500 26000
" />
<path d="M47890 25880
L47610 25880
" />
<path d="M47750 25880
L47750 25380
L47700 25450
L47650 25500
L47610 25520
" />
<path d="M47000 27000
L48500 27000
" />
<path d="M47610 26420
L47630 26400
L47680 26380
L47800 26380
L47840 26400
L47870 26420
L47890 26470
L47890 26520
L47870 26590
L47580 26880
L47890 26880
" />
</g>
<g style="fill:#008484; fill-opacity:0.0; 
stroke:#008484; stroke-width:60; stroke-opacity:1; 
stroke-linecap:round; stroke-linejoin:round;">
<path d="M46130 25260
L46130 24760
L46320 24760
L46370 24780
L46390 24800
L46410 24850
L46410 24920
L46390 24970
L46370 24990
L46320 25020
L46130 25020
" />
<path d="M46890 25260
L46610 25260
" />
<path d="M46750 25260
L46750 24760
L46700 24830
L46650 24880
L46610 24900
" />
<path d="M45640 28520
L45660 28540
L45690 28610
L45690 28660
L45660 28730
L45610 28780
L45570 28800
L45470 28820
L45400 28820
L45310 28800
L45260 28780
L45210 28730
L45190 28660
L45190 28610
L45210 28540
L45230 28520
" />
<path d="M45190 28210
L45190 28110
L45210 28060
L45260 28020
L45350 27990
L45520 27990
L45610 28020
L45660 28060
L45690 28110
L45690 28210
L45660 28250
L45610 28300
L45520 28320
L45350 28320
L45260 28300
L45210 28250
L45190 28210
" />
<path d="M45690 27780
L45190 27780
L45690 27500
L45190 27500
" />
<path d="M45690 27260
L45190 27260
L45690 26980
L45190 26980
" />
<path d="M45730 26860
L45730 26480
" />
<path d="M45190 26270
L45190 26220
L45210 26170
L45230 26150
L45280 26120
L45380 26100
L45500 26100
L45590 26120
L45640 26150
L45660 26170
L45690 26220
L45690 26270
L45660 26310
L45640 26340
L45590 26360
L45500 26380
L45380 26380
L45280 26360
L45230 26340
L45210 26310
L45190 26270
" />
<path d="M45690 25620
L45690 25900
" />
<path d="M45690 25760
L45190 25760
L45260 25810
L45310 25860
L45330 25900
" />
<path d="M45190 25450
L45690 25120
" />
<path d="M45190 25120
L45690 25450
" />
<path d="M45190 24830
L45190 24780
L45210 24730
L45230 24710
L45280 24680
L45380 24660
L45500 24660
L45590 24680
L45640 24710
L45660 24730
L45690 24780
L45690 24830
L45660 24870
L45640 24900
L45590 24920
L45500 24940
L45380 24940
L45280 24920
L45230 24900
L45210 24870
L45190 24830
" />
<path d="M45230 24460
L45210 24440
L45190 24390
L45190 24270
L45210 24230
L45230 24200
L45280 24180
L45330 24180
L45400 24200
L45690 24490
L45690 24180
" />
</g>
<g style="fill:#840084; fill-opacity:0.0; 
stroke:#840084; stroke-width:60; stroke-opacity:1; 
stroke-linecap:round; stroke-linejoin:round;">
<path d="M40860 21760
L40860 21260
L41050 21260
L41100 21280
L41120 21300
L41140 21350
L41140 21420
L41120 21470
L41100 21490
L41050 21520
L40860 21520
" />
<path d="M41360 21760
L41360 21420
" />
<path d="M41360 21260
L41340 21280
L41360 21300
L41380 21280
L41360 21260
L41360 21300
" />
<path d="M41600 21420
L41600 21760
" />
<path d="M41600 21470
L41620 21450
L41670 21420
L41740 21420
L41790 21450
L41810 21490
L41810 21760
" />
<path d="M41930 21800
L42310 21800
" />
<path d="M42430 21760
L42430 21260
" />
<path d="M42430 21490
L42710 21490
" />
<path d="M42710 21760
L42710 21260
" />
<path d="M43140 21730
L43090 21760
L43000 21760
L42950 21730
L42930 21680
L42930 21490
L42950 21450
L43000 21420
L43090 21420
L43140 21450
L43160 21490
L43160 21540
L42930 21590
" />
<path d="M43590 21760
L43590 21490
L43570 21450
L43520 21420
L43430 21420
L43380 21450
" />
<path d="M43590 21730
L43550 21760
L43430 21760
L43380 21730
L43360 21680
L43360 21640
L43380 21590
L43430 21570
L43550 21570
L43590 21540
" />
<path d="M44040 21760
L44040 21260
" />
<path d="M44040 21730
L44000 21760
L43900 21760
L43850 21730
L43830 21710
L43810 21660
L43810 21520
L43830 21470
L43850 21450
L43900 21420
L44000 21420
L44040 21450
" />
<path d="M44470 21730
L44420 21760
L44330 21760
L44280 21730
L44260 21680
L44260 21490
L44280 21450
L44330 21420
L44420 21420
L44470 21450
L44490 21490
L44490 21540
L44260 21590
" />
<path d="M44710 21760
L44710 21420
" />
<path d="M44710 21520
L44730 21470
L44760 21450
L44800 21420
L44850 21420
" />
<path d="M45000 21730
L45040 21760
L45140 21760
L45190 21730
L45210 21680
L45210 21660
L45190 21610
L45140 21590
L45070 21590
L45020 21570
L45000 21520
L45000 21490
L45020 21450
L45070 21420
L45140 21420
L45190 21450
" />
<path d="M45420 21710
L45440 21730
L45420 21760
L45400 21730
L45420 21710
L45420 21760
" />
<path d="M45420 21450
L45440 21470
L45420 21490
L45400 21470
L45420 21450
L45420 21490
" />
<path d="M45660 21760
L45660 21260
L45850 21260
L45900 21280
L45920 21300
L45940 21350
L45940 21420
L45920 21470
L45900 21490
L45850 21520
L45660 21520
" />
<path d="M46160 21760
L46160 21420
" />
<path d="M46160 21260
L46140 21280
L46160 21300
L46180 21280
L46160 21260
L46160 21300
" />
<path d="M46400 21420
L46400 21760
" />
<path d="M46400 21470
L46420 21450
L46470 21420
L46540 21420
L46590 21450
L46610 21490
L46610 21760
" />
<path d="M46730 21800
L47110 21800
" />
<path d="M47230 21760
L47230 21260
" />
<path d="M47230 21490
L47510 21490
" />
<path d="M47510 21760
L47510 21260
" />
<path d="M47940 21730
L47890 21760
L47800 21760
L47750 21730
L47730 21680
L47730 21490
L47750 21450
L47800 21420
L47890 21420
L47940 21450
L47960 21490
L47960 21540
L47730 21590
" />
<path d="M48390 21760
L48390 21490
L48370 21450
L48320 21420
L48230 21420
L48180 21450
" />
<path d="M48390 21730
L48350 21760
L48230 21760
L48180 21730
L48160 21680
L48160 21640
L48180 21590
L48230 21570
L48350 21570
L48390 21540
" />
<path d="M48840 21760
L48840 21260
" />
<path d="M48840 21730
L48800 21760
L48700 21760
L48650 21730
L48630 21710
L48610 21660
L48610 21520
L48630 21470
L48650 21450
L48700 21420
L48800 21420
L48840 21450
" />
<path d="M49270 21730
L49220 21760
L49130 21760
L49080 21730
L49060 21680
L49060 21490
L49080 21450
L49130 21420
L49220 21420
L49270 21450
L49290 21490
L49290 21540
L49060 21590
" />
<path d="M49510 21760
L49510 21420
" />
<path d="M49510 21520
L49530 21470
L49560 21450
L49600 21420
L49650 21420
" />
<path d="M49700 21800
L50080 21800
" />
<path d="M50180 21730
L50250 21760
L50370 21760
L50410 21730
L50440 21710
L50460 21660
L50460 21610
L50440 21570
L50410 21540
L50370 21520
L50270 21490
L50220 21470
L50200 21450
L50180 21400
L50180 21350
L50200 21300
L50220 21280
L50270 21260
L50390 21260
L50460 21280
" />
<path d="M50610 21420
L50800 21420
" />
<path d="M50680 21260
L50680 21680
L50700 21730
L50750 21760
L50800 21760
" />
<path d="M50970 21760
L50970 21420
" />
<path d="M50970 21520
L50990 21470
L51020 21450
L51060 21420
L51110 21420
" />
<path d="M51490 21760
L51490 21490
L51470 21450
L51420 21420
L51330 21420
L51280 21450
" />
<path d="M51490 21730
L51450 21760
L51330 21760
L51280 21730
L51260 21680
L51260 21640
L51280 21590
L51330 21570
L51450 21570
L51490 21540
" />
<path d="M51730 21760
L51730 21420
" />
<path d="M51730 21260
L51710 21280
L51730 21300
L51750 21280
L51730 21260
L51730 21300
" />
<path d="M52180 21420
L52180 21830
L52160 21880
L52140 21900
L52090 21920
L52020 21920
L51970 21900
" />
<path d="M52180 21730
L52140 21760
L52040 21760
L51990 21730
L51970 21710
L51950 21660
L51950 21520
L51970 21470
L51990 21450
L52040 21420
L52140 21420
L52180 21450
" />
<path d="M52420 21760
L52420 21260
" />
<path d="M52630 21760
L52630 21490
L52610 21450
L52560 21420
L52490 21420
L52440 21450
L52420 21470
" />
<path d="M52800 21420
L52990 21420
" />
<path d="M52870 21260
L52870 21680
L52890 21730
L52940 21760
L52990 21760
" />
<path d="M53040 21800
L53420 21800
" />
<path d="M53800 21760
L53520 21760
" />
<path d="M53660 21760
L53660 21260
L53610 21330
L53560 21380
L53520 21400
" />
<path d="M53970 21760
L54230 21420
" />
<path d="M53970 21420
L54230 21760
" />
<path d="M54510 21260
L54560 21260
L54610 21280
L54630 21300
L54660 21350
L54680 21450
L54680 21570
L54660 21660
L54630 21710
L54610 21730
L54560 21760
L54510 21760
L54470 21730
L54440 21710
L54420 21660
L54400 21570
L54400 21450
L54420 21350
L54440 21300
L54470 21280
L54510 21260
" />
<path d="M54880 21300
L54900 21280
L54950 21260
L55070 21260
L55110 21280
L55140 21300
L55160 21350
L55160 21400
L55140 21470
L54850 21760
L55160 21760
" />
</g>
<g style="fill:#008400; fill-opacity:0.0; 
stroke:#008400; stroke-width:60; stroke-opacity:1; 
stroke-linecap:round; stroke-linejoin:round;">
<path d="M48500 26000
L48500 25000
" />
<path d="M48500 25000
L50500 25000
" />
<path d="M48500 27000
L48500 28000
" />
<path d="M48500 28000
L50500 28000
" />
<path d="M53500 28000
L55500 28000
" />
<path d="M55500 28000
L55500 27000
" />
<path d="M53500 25000
L55500 25000
" />
<path d="M55500 25000
L55500 26000
" />
</g> 
</svg>
