M48
;DRILL file {KiCad 4.0.7} date Sat Jun  9 20:27:26 2018
;FORMAT={-:-/ absolute / inch / decimal}
FMAT,2
INCH,TZ
T1C0.016
T2C0.039
%
G90
G05
M72
T1
X1.9961Y-1.4252
X2.0039Y-1.815
X2.0236Y-1.4567
X2.0236Y-1.8858
X2.0433Y-1.2087
X2.0512Y-1.6811
X2.0551Y-1.6378
X2.0866Y-1.4961
X2.185Y-1.7165
X2.2087Y-1.6457
X2.248Y-1.1614
X2.2598Y-1.4173
X2.2598Y-1.5866
X2.2677Y-1.7205
X2.3071Y-1.7087
X2.3071Y-2.0118
X2.3425Y-1.7244
X2.3819Y-1.8602
X2.4488Y-1.9921
X2.4567Y-1.8898
X2.4921Y-1.2598
X2.5157Y-1.5945
T2
X2.0126Y-2.1378
X2.1126Y-2.1378
X2.2126Y-2.1378
X2.3126Y-2.1378
X2.4126Y-2.1378
X2.5126Y-2.1378
T0
M30
