<?xml version="1.0" standalone="no"?>
 <!DOCTYPE svg PUBLIC "-//W3C//DTD SVG 1.1//EN" 
 "http://www.w3.org/Graphics/SVG/1.1/DTD/svg11.dtd"> 
<svg xmlns="http://www.w3.org/2000/svg" version="1.1" 
    width="29.7002cm" height="21.0007cm" viewBox="0 0 116930 82680 ">
<title>SVG Picture created as lt3757-boost-converter.svg date 2017/06/19 22:19:15 </title>
  <desc>Picture generated by Eeschema-SVG </desc>
<g style="fill:#000000; fill-opacity:1;stroke:#000000; stroke-opacity:1;
stroke-linecap:round; stroke-linejoin:round; "
 transform="translate(0 0) scale(1 1)">
</g>
<g style="fill:#000000; fill-opacity:0.0; 
stroke:#000000; stroke-width:-10; stroke-opacity:1; 
stroke-linecap:round; stroke-linejoin:round;">
</g>
<g style="fill:#840000; fill-opacity:0.0; 
stroke:#840000; stroke-width:-10; stroke-opacity:1; 
stroke-linecap:round; stroke-linejoin:round;">
</g>
<g style="fill:#840000; fill-opacity:0.0; 
stroke:#840000; stroke-width:100; stroke-opacity:1; 
stroke-linecap:round; stroke-linejoin:round;">
</g>
<g style="fill:#840000; fill-opacity:0.0; 
stroke:#840000; stroke-width:60; stroke-opacity:1; 
stroke-linecap:round; stroke-linejoin:round;">
<rect x="69690" y="65360" width="42520" height="12600" rx="0" />
</g>
<g style="fill:#840000; fill-opacity:0.0; 
stroke:#840000; stroke-width:100; stroke-opacity:1; 
stroke-linecap:round; stroke-linejoin:round;">
</g>
<g style="fill:#840000; fill-opacity:0.0; 
stroke:#840000; stroke-width:60; stroke-opacity:1; 
stroke-linecap:round; stroke-linejoin:round;">
<rect x="3940" y="3940" width="109050" height="74800" rx="0" />
</g>
<g style="fill:#840000; fill-opacity:0.0; 
stroke:#840000; stroke-width:100; stroke-opacity:1; 
stroke-linecap:round; stroke-linejoin:round;">
</g>
<g style="fill:#840000; fill-opacity:0.0; 
stroke:#840000; stroke-width:60; stroke-opacity:1; 
stroke-linecap:round; stroke-linejoin:round;">
<rect x="4720" y="4720" width="107490" height="73240" rx="0" />
</g>
<g style="fill:#840000; fill-opacity:0.0; 
stroke:#840000; stroke-width:100; stroke-opacity:1; 
stroke-linecap:round; stroke-linejoin:round;">
</g>
<g style="fill:#840000; fill-opacity:0.0; 
stroke:#840000; stroke-width:60; stroke-opacity:1; 
stroke-linecap:round; stroke-linejoin:round;">
<path d="M23620 4720
L23620 3940
" />
</g>
<g style="fill:#840000; fill-opacity:0.0; 
stroke:#840000; stroke-width:100; stroke-opacity:1; 
stroke-linecap:round; stroke-linejoin:round;">
</g>
<g style="fill:#840000; fill-opacity:0.0; 
stroke:#840000; stroke-width:60; stroke-opacity:1; 
stroke-linecap:round; stroke-linejoin:round;">
<path d="M43310 4720
L43310 3940
" />
</g>
<g style="fill:#840000; fill-opacity:0.0; 
stroke:#840000; stroke-width:100; stroke-opacity:1; 
stroke-linecap:round; stroke-linejoin:round;">
</g>
<g style="fill:#840000; fill-opacity:0.0; 
stroke:#840000; stroke-width:60; stroke-opacity:1; 
stroke-linecap:round; stroke-linejoin:round;">
<path d="M62990 4720
L62990 3940
" />
</g>
<g style="fill:#840000; fill-opacity:0.0; 
stroke:#840000; stroke-width:100; stroke-opacity:1; 
stroke-linecap:round; stroke-linejoin:round;">
</g>
<g style="fill:#840000; fill-opacity:0.0; 
stroke:#840000; stroke-width:60; stroke-opacity:1; 
stroke-linecap:round; stroke-linejoin:round;">
<path d="M82680 4720
L82680 3940
" />
</g>
<g style="fill:#840000; fill-opacity:0.0; 
stroke:#840000; stroke-width:100; stroke-opacity:1; 
stroke-linecap:round; stroke-linejoin:round;">
</g>
<g style="fill:#840000; fill-opacity:0.0; 
stroke:#840000; stroke-width:60; stroke-opacity:1; 
stroke-linecap:round; stroke-linejoin:round;">
<path d="M102360 4720
L102360 3940
" />
</g>
<g style="fill:#840000; fill-opacity:0.0; 
stroke:#840000; stroke-width:100; stroke-opacity:1; 
stroke-linecap:round; stroke-linejoin:round;">
</g>
<g style="fill:#840000; fill-opacity:0.0; 
stroke:#840000; stroke-width:60; stroke-opacity:1; 
stroke-linecap:round; stroke-linejoin:round;">
<path d="M14170 4560
L13880 4560
" />
<path d="M14020 4560
L14020 4050
L13970 4120
L13930 4170
L13880 4190
" />
</g>
<g style="fill:#840000; fill-opacity:0.0; 
stroke:#840000; stroke-width:100; stroke-opacity:1; 
stroke-linecap:round; stroke-linejoin:round;">
</g>
<g style="fill:#840000; fill-opacity:0.0; 
stroke:#840000; stroke-width:60; stroke-opacity:1; 
stroke-linecap:round; stroke-linejoin:round;">
<path d="M33560 4090
L33580 4070
L33630 4050
L33750 4050
L33800 4070
L33820 4090
L33850 4140
L33850 4190
L33820 4260
L33530 4560
L33850 4560
" />
</g>
<g style="fill:#840000; fill-opacity:0.0; 
stroke:#840000; stroke-width:100; stroke-opacity:1; 
stroke-linecap:round; stroke-linejoin:round;">
</g>
<g style="fill:#840000; fill-opacity:0.0; 
stroke:#840000; stroke-width:60; stroke-opacity:1; 
stroke-linecap:round; stroke-linejoin:round;">
<path d="M53220 4050
L53540 4050
L53370 4240
L53440 4240
L53490 4260
L53510 4290
L53540 4340
L53540 4460
L53510 4510
L53490 4530
L53440 4560
L53300 4560
L53250 4530
L53220 4510
" />
</g>
<g style="fill:#840000; fill-opacity:0.0; 
stroke:#840000; stroke-width:100; stroke-opacity:1; 
stroke-linecap:round; stroke-linejoin:round;">
</g>
<g style="fill:#840000; fill-opacity:0.0; 
stroke:#840000; stroke-width:60; stroke-opacity:1; 
stroke-linecap:round; stroke-linejoin:round;">
<path d="M73170 4220
L73170 4560
" />
<path d="M73050 4020
L72930 4390
L73240 4390
" />
</g>
<g style="fill:#840000; fill-opacity:0.0; 
stroke:#840000; stroke-width:100; stroke-opacity:1; 
stroke-linecap:round; stroke-linejoin:round;">
</g>
<g style="fill:#840000; fill-opacity:0.0; 
stroke:#840000; stroke-width:60; stroke-opacity:1; 
stroke-linecap:round; stroke-linejoin:round;">
<path d="M92880 4050
L92640 4050
L92620 4290
L92640 4260
L92690 4240
L92810 4240
L92860 4260
L92880 4290
L92910 4340
L92910 4460
L92880 4510
L92860 4530
L92810 4560
L92690 4560
L92640 4530
L92620 4510
" />
</g>
<g style="fill:#840000; fill-opacity:0.0; 
stroke:#840000; stroke-width:100; stroke-opacity:1; 
stroke-linecap:round; stroke-linejoin:round;">
</g>
<g style="fill:#840000; fill-opacity:0.0; 
stroke:#840000; stroke-width:60; stroke-opacity:1; 
stroke-linecap:round; stroke-linejoin:round;">
<path d="M112540 4050
L112440 4050
L112390 4070
L112370 4090
L112320 4170
L112300 4260
L112300 4460
L112320 4510
L112350 4530
L112390 4560
L112490 4560
L112540 4530
L112560 4510
L112590 4460
L112590 4340
L112560 4290
L112540 4260
L112490 4240
L112390 4240
L112350 4260
L112320 4290
L112300 4340
" />
</g>
<g style="fill:#840000; fill-opacity:0.0; 
stroke:#840000; stroke-width:100; stroke-opacity:1; 
stroke-linecap:round; stroke-linejoin:round;">
</g>
<g style="fill:#840000; fill-opacity:0.0; 
stroke:#840000; stroke-width:60; stroke-opacity:1; 
stroke-linecap:round; stroke-linejoin:round;">
<path d="M23620 77960
L23620 78740
" />
</g>
<g style="fill:#840000; fill-opacity:0.0; 
stroke:#840000; stroke-width:100; stroke-opacity:1; 
stroke-linecap:round; stroke-linejoin:round;">
</g>
<g style="fill:#840000; fill-opacity:0.0; 
stroke:#840000; stroke-width:60; stroke-opacity:1; 
stroke-linecap:round; stroke-linejoin:round;">
<path d="M43310 77960
L43310 78740
" />
</g>
<g style="fill:#840000; fill-opacity:0.0; 
stroke:#840000; stroke-width:100; stroke-opacity:1; 
stroke-linecap:round; stroke-linejoin:round;">
</g>
<g style="fill:#840000; fill-opacity:0.0; 
stroke:#840000; stroke-width:60; stroke-opacity:1; 
stroke-linecap:round; stroke-linejoin:round;">
<path d="M62990 77960
L62990 78740
" />
</g>
<g style="fill:#840000; fill-opacity:0.0; 
stroke:#840000; stroke-width:100; stroke-opacity:1; 
stroke-linecap:round; stroke-linejoin:round;">
</g>
<g style="fill:#840000; fill-opacity:0.0; 
stroke:#840000; stroke-width:60; stroke-opacity:1; 
stroke-linecap:round; stroke-linejoin:round;">
<path d="M82680 77960
L82680 78740
" />
</g>
<g style="fill:#840000; fill-opacity:0.0; 
stroke:#840000; stroke-width:100; stroke-opacity:1; 
stroke-linecap:round; stroke-linejoin:round;">
</g>
<g style="fill:#840000; fill-opacity:0.0; 
stroke:#840000; stroke-width:60; stroke-opacity:1; 
stroke-linecap:round; stroke-linejoin:round;">
<path d="M102360 77960
L102360 78740
" />
</g>
<g style="fill:#840000; fill-opacity:0.0; 
stroke:#840000; stroke-width:100; stroke-opacity:1; 
stroke-linecap:round; stroke-linejoin:round;">
</g>
<g style="fill:#840000; fill-opacity:0.0; 
stroke:#840000; stroke-width:60; stroke-opacity:1; 
stroke-linecap:round; stroke-linejoin:round;">
<path d="M14170 78580
L13880 78580
" />
<path d="M14020 78580
L14020 78070
L13970 78140
L13930 78190
L13880 78210
" />
</g>
<g style="fill:#840000; fill-opacity:0.0; 
stroke:#840000; stroke-width:100; stroke-opacity:1; 
stroke-linecap:round; stroke-linejoin:round;">
</g>
<g style="fill:#840000; fill-opacity:0.0; 
stroke:#840000; stroke-width:60; stroke-opacity:1; 
stroke-linecap:round; stroke-linejoin:round;">
<path d="M33560 78110
L33580 78090
L33630 78070
L33750 78070
L33800 78090
L33820 78110
L33850 78160
L33850 78210
L33820 78280
L33530 78580
L33850 78580
" />
</g>
<g style="fill:#840000; fill-opacity:0.0; 
stroke:#840000; stroke-width:100; stroke-opacity:1; 
stroke-linecap:round; stroke-linejoin:round;">
</g>
<g style="fill:#840000; fill-opacity:0.0; 
stroke:#840000; stroke-width:60; stroke-opacity:1; 
stroke-linecap:round; stroke-linejoin:round;">
<path d="M53220 78070
L53540 78070
L53370 78260
L53440 78260
L53490 78280
L53510 78310
L53540 78360
L53540 78480
L53510 78530
L53490 78550
L53440 78580
L53300 78580
L53250 78550
L53220 78530
" />
</g>
<g style="fill:#840000; fill-opacity:0.0; 
stroke:#840000; stroke-width:100; stroke-opacity:1; 
stroke-linecap:round; stroke-linejoin:round;">
</g>
<g style="fill:#840000; fill-opacity:0.0; 
stroke:#840000; stroke-width:60; stroke-opacity:1; 
stroke-linecap:round; stroke-linejoin:round;">
<path d="M73170 78240
L73170 78580
" />
<path d="M73050 78040
L72930 78410
L73240 78410
" />
</g>
<g style="fill:#840000; fill-opacity:0.0; 
stroke:#840000; stroke-width:100; stroke-opacity:1; 
stroke-linecap:round; stroke-linejoin:round;">
</g>
<g style="fill:#840000; fill-opacity:0.0; 
stroke:#840000; stroke-width:60; stroke-opacity:1; 
stroke-linecap:round; stroke-linejoin:round;">
<path d="M92880 78070
L92640 78070
L92620 78310
L92640 78280
L92690 78260
L92810 78260
L92860 78280
L92880 78310
L92910 78360
L92910 78480
L92880 78530
L92860 78550
L92810 78580
L92690 78580
L92640 78550
L92620 78530
" />
</g>
<g style="fill:#840000; fill-opacity:0.0; 
stroke:#840000; stroke-width:100; stroke-opacity:1; 
stroke-linecap:round; stroke-linejoin:round;">
</g>
<g style="fill:#840000; fill-opacity:0.0; 
stroke:#840000; stroke-width:60; stroke-opacity:1; 
stroke-linecap:round; stroke-linejoin:round;">
<path d="M112540 78070
L112440 78070
L112390 78090
L112370 78110
L112320 78190
L112300 78280
L112300 78480
L112320 78530
L112350 78550
L112390 78580
L112490 78580
L112540 78550
L112560 78530
L112590 78480
L112590 78360
L112560 78310
L112540 78280
L112490 78260
L112390 78260
L112350 78280
L112320 78310
L112300 78360
" />
</g>
<g style="fill:#840000; fill-opacity:0.0; 
stroke:#840000; stroke-width:100; stroke-opacity:1; 
stroke-linecap:round; stroke-linejoin:round;">
</g>
<g style="fill:#840000; fill-opacity:0.0; 
stroke:#840000; stroke-width:60; stroke-opacity:1; 
stroke-linecap:round; stroke-linejoin:round;">
<path d="M3940 23620
L4720 23620
" />
</g>
<g style="fill:#840000; fill-opacity:0.0; 
stroke:#840000; stroke-width:100; stroke-opacity:1; 
stroke-linecap:round; stroke-linejoin:round;">
</g>
<g style="fill:#840000; fill-opacity:0.0; 
stroke:#840000; stroke-width:60; stroke-opacity:1; 
stroke-linecap:round; stroke-linejoin:round;">
<path d="M3940 43310
L4720 43310
" />
</g>
<g style="fill:#840000; fill-opacity:0.0; 
stroke:#840000; stroke-width:100; stroke-opacity:1; 
stroke-linecap:round; stroke-linejoin:round;">
</g>
<g style="fill:#840000; fill-opacity:0.0; 
stroke:#840000; stroke-width:60; stroke-opacity:1; 
stroke-linecap:round; stroke-linejoin:round;">
<path d="M3940 62990
L4720 62990
" />
</g>
<g style="fill:#840000; fill-opacity:0.0; 
stroke:#840000; stroke-width:100; stroke-opacity:1; 
stroke-linecap:round; stroke-linejoin:round;">
</g>
<g style="fill:#840000; fill-opacity:0.0; 
stroke:#840000; stroke-width:60; stroke-opacity:1; 
stroke-linecap:round; stroke-linejoin:round;">
<path d="M4210 13860
L4450 13860
" />
<path d="M4160 14010
L4330 13500
L4500 14010
" />
</g>
<g style="fill:#840000; fill-opacity:0.0; 
stroke:#840000; stroke-width:100; stroke-opacity:1; 
stroke-linecap:round; stroke-linejoin:round;">
</g>
<g style="fill:#840000; fill-opacity:0.0; 
stroke:#840000; stroke-width:60; stroke-opacity:1; 
stroke-linecap:round; stroke-linejoin:round;">
<path d="M4370 33420
L4440 33440
L4470 33470
L4490 33520
L4490 33590
L4470 33640
L4440 33660
L4400 33690
L4200 33690
L4200 33180
L4370 33180
L4420 33200
L4440 33220
L4470 33270
L4470 33320
L4440 33370
L4420 33390
L4370 33420
L4200 33420
" />
</g>
<g style="fill:#840000; fill-opacity:0.0; 
stroke:#840000; stroke-width:100; stroke-opacity:1; 
stroke-linecap:round; stroke-linejoin:round;">
</g>
<g style="fill:#840000; fill-opacity:0.0; 
stroke:#840000; stroke-width:60; stroke-opacity:1; 
stroke-linecap:round; stroke-linejoin:round;">
<path d="M4490 53330
L4470 53350
L4400 53380
L4350 53380
L4270 53350
L4230 53300
L4200 53250
L4180 53160
L4180 53080
L4200 52990
L4230 52940
L4270 52890
L4350 52870
L4400 52870
L4470 52890
L4490 52910
" />
</g>
<g style="fill:#840000; fill-opacity:0.0; 
stroke:#840000; stroke-width:100; stroke-opacity:1; 
stroke-linecap:round; stroke-linejoin:round;">
</g>
<g style="fill:#840000; fill-opacity:0.0; 
stroke:#840000; stroke-width:60; stroke-opacity:1; 
stroke-linecap:round; stroke-linejoin:round;">
<path d="M4200 73060
L4200 72550
L4320 72550
L4400 72570
L4440 72620
L4470 72670
L4490 72760
L4490 72840
L4470 72930
L4440 72980
L4400 73030
L4320 73060
L4200 73060
" />
</g>
<g style="fill:#840000; fill-opacity:0.0; 
stroke:#840000; stroke-width:100; stroke-opacity:1; 
stroke-linecap:round; stroke-linejoin:round;">
</g>
<g style="fill:#840000; fill-opacity:0.0; 
stroke:#840000; stroke-width:60; stroke-opacity:1; 
stroke-linecap:round; stroke-linejoin:round;">
<path d="M112990 23620
L112210 23620
" />
</g>
<g style="fill:#840000; fill-opacity:0.0; 
stroke:#840000; stroke-width:100; stroke-opacity:1; 
stroke-linecap:round; stroke-linejoin:round;">
</g>
<g style="fill:#840000; fill-opacity:0.0; 
stroke:#840000; stroke-width:60; stroke-opacity:1; 
stroke-linecap:round; stroke-linejoin:round;">
<path d="M112990 43310
L112210 43310
" />
</g>
<g style="fill:#840000; fill-opacity:0.0; 
stroke:#840000; stroke-width:100; stroke-opacity:1; 
stroke-linecap:round; stroke-linejoin:round;">
</g>
<g style="fill:#840000; fill-opacity:0.0; 
stroke:#840000; stroke-width:60; stroke-opacity:1; 
stroke-linecap:round; stroke-linejoin:round;">
<path d="M112990 62990
L112210 62990
" />
</g>
<g style="fill:#840000; fill-opacity:0.0; 
stroke:#840000; stroke-width:100; stroke-opacity:1; 
stroke-linecap:round; stroke-linejoin:round;">
</g>
<g style="fill:#840000; fill-opacity:0.0; 
stroke:#840000; stroke-width:60; stroke-opacity:1; 
stroke-linecap:round; stroke-linejoin:round;">
<path d="M112480 13860
L112720 13860
" />
<path d="M112430 14010
L112600 13500
L112770 14010
" />
</g>
<g style="fill:#840000; fill-opacity:0.0; 
stroke:#840000; stroke-width:100; stroke-opacity:1; 
stroke-linecap:round; stroke-linejoin:round;">
</g>
<g style="fill:#840000; fill-opacity:0.0; 
stroke:#840000; stroke-width:60; stroke-opacity:1; 
stroke-linecap:round; stroke-linejoin:round;">
<path d="M112640 33420
L112710 33440
L112740 33470
L112760 33520
L112760 33590
L112740 33640
L112710 33660
L112670 33690
L112470 33690
L112470 33180
L112640 33180
L112690 33200
L112710 33220
L112740 33270
L112740 33320
L112710 33370
L112690 33390
L112640 33420
L112470 33420
" />
</g>
<g style="fill:#840000; fill-opacity:0.0; 
stroke:#840000; stroke-width:100; stroke-opacity:1; 
stroke-linecap:round; stroke-linejoin:round;">
</g>
<g style="fill:#840000; fill-opacity:0.0; 
stroke:#840000; stroke-width:60; stroke-opacity:1; 
stroke-linecap:round; stroke-linejoin:round;">
<path d="M112760 53330
L112740 53350
L112670 53380
L112620 53380
L112540 53350
L112500 53300
L112470 53250
L112450 53160
L112450 53080
L112470 52990
L112500 52940
L112540 52890
L112620 52870
L112670 52870
L112740 52890
L112760 52910
" />
</g>
<g style="fill:#840000; fill-opacity:0.0; 
stroke:#840000; stroke-width:100; stroke-opacity:1; 
stroke-linecap:round; stroke-linejoin:round;">
</g>
<g style="fill:#840000; fill-opacity:0.0; 
stroke:#840000; stroke-width:60; stroke-opacity:1; 
stroke-linecap:round; stroke-linejoin:round;">
<path d="M112470 73060
L112470 72550
L112590 72550
L112670 72570
L112710 72620
L112740 72670
L112760 72760
L112760 72840
L112740 72930
L112710 72980
L112670 73030
L112590 73060
L112470 73060
" />
</g>
<g style="fill:#840000; fill-opacity:0.0; 
stroke:#840000; stroke-width:100; stroke-opacity:1; 
stroke-linecap:round; stroke-linejoin:round;">
</g>
<g style="fill:#840000; fill-opacity:0.0; 
stroke:#840000; stroke-width:60; stroke-opacity:1; 
stroke-linecap:round; stroke-linejoin:round;">
<path d="M78880 76290
L78880 75700
L79020 75700
L79110 75730
L79160 75790
L79190 75840
L79220 75950
L79220 76040
L79190 76150
L79160 76210
L79110 76260
L79020 76290
L78880 76290
" />
<path d="M79720 76290
L79720 75980
L79700 75930
L79640 75900
L79530 75900
L79470 75930
" />
<path d="M79720 76260
L79670 76290
L79530 76290
L79470 76260
L79440 76210
L79440 76150
L79470 76100
L79530 76070
L79670 76070
L79720 76040
" />
<path d="M79920 75900
L80140 75900
" />
<path d="M80000 75700
L80000 76210
L80030 76260
L80080 76290
L80140 76290
" />
<path d="M80570 76260
L80510 76290
L80400 76290
L80340 76260
L80310 76210
L80310 75980
L80340 75930
L80400 75900
L80510 75900
L80570 75930
L80590 75980
L80590 76040
L80310 76100
" />
<path d="M80850 76240
L80880 76260
L80850 76290
L80820 76260
L80850 76240
L80850 76290
" />
<path d="M80850 75930
L80880 75950
L80850 75980
L80820 75950
L80850 75930
L80850 75980
" />
<path d="M81550 75760
L81580 75730
L81640 75700
L81780 75700
L81830 75730
L81860 75760
L81890 75810
L81890 75870
L81860 75950
L81520 76290
L81890 76290
" />
<path d="M82250 75700
L82310 75700
L82370 75730
L82390 75760
L82420 75810
L82450 75930
L82450 76070
L82420 76180
L82390 76240
L82370 76260
L82310 76290
L82250 76290
L82200 76260
L82170 76240
L82140 76180
L82110 76070
L82110 75930
L82140 75810
L82170 75760
L82200 75730
L82250 75700
" />
<path d="M83010 76290
L82670 76290
" />
<path d="M82840 76290
L82840 75700
L82780 75790
L82730 75840
L82670 75870
" />
<path d="M83200 75700
L83600 75700
L83340 76290
" />
<path d="M83820 76070
L84270 76070
" />
<path d="M84660 75700
L84720 75700
L84780 75730
L84800 75760
L84830 75810
L84860 75930
L84860 76070
L84830 76180
L84800 76240
L84780 76260
L84720 76290
L84660 76290
L84610 76260
L84580 76240
L84550 76180
L84520 76070
L84520 75930
L84550 75810
L84580 75760
L84610 75730
L84660 75700
" />
<path d="M85360 75700
L85250 75700
L85190 75730
L85170 75760
L85110 75840
L85080 75950
L85080 76180
L85110 76240
L85140 76260
L85190 76290
L85310 76290
L85360 76260
L85390 76240
L85420 76180
L85420 76040
L85390 75980
L85360 75950
L85310 75930
L85190 75930
L85140 75950
L85110 75980
L85080 76040
" />
<path d="M85670 76070
L86120 76070
" />
<path d="M86710 76290
L86370 76290
" />
<path d="M86540 76290
L86540 75700
L86480 75790
L86430 75840
L86370 75870
" />
<path d="M86990 76290
L87100 76290
L87160 76260
L87190 76240
L87240 76150
L87270 76040
L87270 75810
L87240 75760
L87210 75730
L87160 75700
L87040 75700
L86990 75730
L86960 75760
L86930 75810
L86930 75950
L86960 76010
L86990 76040
L87040 76070
L87160 76070
L87210 76040
L87240 76010
L87270 75950
" />
</g>
<g style="fill:#840000; fill-opacity:0.0; 
stroke:#840000; stroke-width:100; stroke-opacity:1; 
stroke-linecap:round; stroke-linejoin:round;">
</g>
<g style="fill:#840000; fill-opacity:0.0; 
stroke:#840000; stroke-width:60; stroke-opacity:1; 
stroke-linecap:round; stroke-linejoin:round;">
<path d="M69690 76580
L112210 76580
" />
</g>
<g style="fill:#840000; fill-opacity:0.0; 
stroke:#840000; stroke-width:100; stroke-opacity:1; 
stroke-linecap:round; stroke-linejoin:round;">
</g>
<g style="fill:#840000; fill-opacity:0.0; 
stroke:#840000; stroke-width:60; stroke-opacity:1; 
stroke-linecap:round; stroke-linejoin:round;">
<path d="M70220 77390
L70220 76800
" />
<path d="M70560 77390
L70300 77050
" />
<path d="M70560 76800
L70220 77140
" />
<path d="M70810 77390
L70810 77000
" />
<path d="M70810 76800
L70780 76830
L70810 76860
L70840 76830
L70810 76800
L70810 76860
" />
<path d="M71430 77340
L71400 77360
L71320 77390
L71260 77390
L71170 77360
L71120 77310
L71090 77250
L71060 77140
L71060 77050
L71090 76940
L71120 76890
L71170 76830
L71260 76800
L71320 76800
L71400 76830
L71430 76860
" />
<path d="M71930 77390
L71930 77080
L71910 77030
L71850 77000
L71740 77000
L71680 77030
" />
<path d="M71930 77360
L71880 77390
L71740 77390
L71680 77360
L71650 77310
L71650 77250
L71680 77200
L71740 77170
L71880 77170
L71930 77140
" />
<path d="M72460 77390
L72460 76800
" />
<path d="M72460 77360
L72410 77390
L72290 77390
L72240 77360
L72210 77340
L72180 77280
L72180 77110
L72210 77050
L72240 77030
L72290 77000
L72410 77000
L72460 77030
" />
<path d="M73190 77080
L73390 77080
" />
<path d="M73470 77390
L73190 77390
L73190 76800
L73470 76800
" />
<path d="M73720 77340
L73750 77360
L73720 77390
L73690 77360
L73720 77340
L73720 77390
" />
<path d="M74000 77390
L74000 76800
L74140 76800
L74230 76830
L74280 76890
L74310 76940
L74340 77050
L74340 77140
L74310 77250
L74280 77310
L74230 77360
L74140 77390
L74000 77390
" />
<path d="M74590 77340
L74620 77360
L74590 77390
L74560 77360
L74590 77340
L74590 77390
" />
<path d="M74840 77220
L75120 77220
" />
<path d="M74790 77390
L74980 76800
L75180 77390
" />
<path d="M75380 77340
L75410 77360
L75380 77390
L75350 77360
L75380 77340
L75380 77390
" />
<path d="M76560 77390
L76560 76800
" />
<path d="M76620 77170
L76790 77390
" />
<path d="M76790 77000
L76560 77220
" />
<path d="M77040 77390
L77040 77000
" />
<path d="M77040 76800
L77010 76830
L77040 76860
L77070 76830
L77040 76800
L77040 76860
" />
<path d="M77570 77360
L77520 77390
L77400 77390
L77350 77360
L77320 77340
L77290 77280
L77290 77110
L77320 77050
L77350 77030
L77400 77000
L77520 77000
L77570 77030
" />
<path d="M78080 77390
L78080 77080
L78060 77030
L78000 77000
L77890 77000
L77830 77030
" />
<path d="M78080 77360
L78030 77390
L77890 77390
L77830 77360
L77800 77310
L77800 77250
L77830 77200
L77890 77170
L78030 77170
L78080 77140
" />
<path d="M78610 77390
L78610 76800
" />
<path d="M78610 77360
L78560 77390
L78440 77390
L78390 77360
L78360 77340
L78330 77280
L78330 77110
L78360 77050
L78390 77030
L78440 77000
L78560 77000
L78610 77030
" />
<path d="M79590 77000
L79590 77390
" />
<path d="M79450 76770
L79310 77200
L79680 77200
" />
<path d="M79900 77340
L79930 77360
L79900 77390
L79870 77360
L79900 77340
L79900 77390
" />
<path d="M80290 76800
L80350 76800
L80410 76830
L80430 76860
L80460 76910
L80490 77030
L80490 77170
L80460 77280
L80430 77340
L80410 77360
L80350 77390
L80290 77390
L80240 77360
L80210 77340
L80180 77280
L80150 77170
L80150 77030
L80180 76910
L80210 76860
L80240 76830
L80290 76800
" />
<path d="M80740 77340
L80770 77360
L80740 77390
L80710 77360
L80740 77340
L80740 77390
" />
<path d="M81270 76800
L81160 76800
L81100 76830
L81080 76860
L81020 76940
L80990 77050
L80990 77280
L81020 77340
L81050 77360
L81100 77390
L81220 77390
L81270 77360
L81300 77340
L81330 77280
L81330 77140
L81300 77080
L81270 77050
L81220 77030
L81100 77030
L81050 77050
L81020 77080
L80990 77140
" />
</g>
<g style="fill:#840000; fill-opacity:0.0; 
stroke:#840000; stroke-width:100; stroke-opacity:1; 
stroke-linecap:round; stroke-linejoin:round;">
</g>
<g style="fill:#840000; fill-opacity:0.0; 
stroke:#840000; stroke-width:60; stroke-opacity:1; 
stroke-linecap:round; stroke-linejoin:round;">
<path d="M69690 75400
L112210 75400
" />
</g>
<g style="fill:#840000; fill-opacity:0.0; 
stroke:#840000; stroke-width:100; stroke-opacity:1; 
stroke-linecap:round; stroke-linejoin:round;">
</g>
<g style="fill:#840000; fill-opacity:0.0; 
stroke:#840000; stroke-width:120; stroke-opacity:1; 
stroke-linecap:round; stroke-linejoin:round;">
<path d="M104020 76290
L103820 76010
" />
<path d="M103680 76290
L103680 75700
L103910 75700
L103960 75730
L103990 75760
L104020 75810
L104020 75900
L103990 75950
L103960 75980
L103910 76010
L103680 76010
" />
<path d="M104500 76260
L104440 76290
L104330 76290
L104270 76260
L104240 76210
L104240 75980
L104270 75930
L104330 75900
L104440 75900
L104500 75930
L104520 75980
L104520 76040
L104240 76100
" />
<path d="M104720 75900
L104860 76290
L105010 75900
" />
<path d="M105230 76240
L105260 76260
L105230 76290
L105200 76260
L105230 76240
L105230 76290
" />
<path d="M105230 75930
L105260 75950
L105230 75980
L105200 75950
L105230 75930
L105230 75980
" />
<path d="M105930 75760
L105960 75730
L106020 75700
L106160 75700
L106210 75730
L106240 75760
L106270 75810
L106270 75870
L106240 75950
L105900 76290
L106270 76290
" />
<path d="M106630 75700
L106690 75700
L106750 75730
L106770 75760
L106800 75810
L106830 75930
L106830 76070
L106800 76180
L106770 76240
L106750 76260
L106690 76290
L106630 76290
L106580 76260
L106550 76240
L106520 76180
L106490 76070
L106490 75930
L106520 75810
L106550 75760
L106580 75730
L106630 75700
" />
</g>
<g style="fill:#840000; fill-opacity:0.0; 
stroke:#840000; stroke-width:100; stroke-opacity:1; 
stroke-linecap:round; stroke-linejoin:round;">
</g>
<g style="fill:#840000; fill-opacity:0.0; 
stroke:#840000; stroke-width:60; stroke-opacity:1; 
stroke-linecap:round; stroke-linejoin:round;">
<path d="M70190 76260
L70280 76290
L70420 76290
L70470 76260
L70500 76240
L70530 76180
L70530 76120
L70500 76070
L70470 76040
L70420 76010
L70300 75980
L70250 75950
L70220 75930
L70190 75870
L70190 75810
L70220 75760
L70250 75730
L70300 75700
L70450 75700
L70530 75730
" />
<path d="M70780 76290
L70780 75900
" />
<path d="M70780 75700
L70750 75730
L70780 75760
L70810 75730
L70780 75700
L70780 75760
" />
<path d="M71000 75900
L71310 75900
L71000 76290
L71310 76290
" />
<path d="M71770 76260
L71710 76290
L71600 76290
L71540 76260
L71510 76210
L71510 75980
L71540 75930
L71600 75900
L71710 75900
L71770 75930
L71790 75980
L71790 76040
L71510 76100
" />
<path d="M72050 76240
L72080 76260
L72050 76290
L72020 76260
L72050 76240
L72050 76290
" />
<path d="M72050 75930
L72080 75950
L72050 75980
L72020 75950
L72050 75930
L72050 75980
" />
<path d="M72750 76120
L73030 76120
" />
<path d="M72700 76290
L72890 75700
L73090 76290
" />
<path d="M73540 75900
L73540 76290
" />
<path d="M73400 75670
L73260 76100
L73630 76100
" />
</g>
<g style="fill:#840000; fill-opacity:0.0; 
stroke:#840000; stroke-width:100; stroke-opacity:1; 
stroke-linecap:round; stroke-linejoin:round;">
</g>
<g style="fill:#840000; fill-opacity:0.0; 
stroke:#840000; stroke-width:60; stroke-opacity:1; 
stroke-linecap:round; stroke-linejoin:round;">
<path d="M103680 77390
L103680 76800
" />
<path d="M104210 77390
L104210 76800
" />
<path d="M104210 77360
L104160 77390
L104040 77390
L103990 77360
L103960 77340
L103930 77280
L103930 77110
L103960 77050
L103990 77030
L104040 77000
L104160 77000
L104210 77030
" />
<path d="M104490 77340
L104520 77360
L104490 77390
L104460 77360
L104490 77340
L104490 77390
" />
<path d="M104490 77030
L104520 77050
L104490 77080
L104460 77050
L104490 77030
L104490 77080
" />
<path d="M105530 77390
L105190 77390
" />
<path d="M105360 77390
L105360 76800
L105300 76890
L105250 76940
L105190 76970
" />
<path d="M106200 76770
L105700 77530
" />
<path d="M106370 76860
L106400 76830
L106460 76800
L106600 76800
L106650 76830
L106680 76860
L106710 76910
L106710 76970
L106680 77050
L106340 77390
L106710 77390
" />
</g>
<g style="fill:#840000; fill-opacity:0.0; 
stroke:#840000; stroke-width:100; stroke-opacity:1; 
stroke-linecap:round; stroke-linejoin:round;">
</g>
<g style="fill:#840000; fill-opacity:0.0; 
stroke:#840000; stroke-width:60; stroke-opacity:1; 
stroke-linecap:round; stroke-linejoin:round;">
<path d="M69690 73820
L112210 73820
" />
</g>
<g style="fill:#840000; fill-opacity:0.0; 
stroke:#840000; stroke-width:100; stroke-opacity:1; 
stroke-linecap:round; stroke-linejoin:round;">
</g>
<g style="fill:#840000; fill-opacity:0.0; 
stroke:#840000; stroke-width:160; stroke-opacity:1; 
stroke-linecap:round; stroke-linejoin:round;">
<path d="M70260 74090
L70710 74090
" />
<path d="M70390 74880
L70480 74090
" />
<path d="M70880 74880
L70940 74360
" />
<path d="M70970 74090
L70930 74130
L70960 74170
L71010 74130
L70970 74090
L70960 74170
" />
<path d="M71210 74360
L71510 74360
" />
<path d="M71350 74090
L71270 74770
L71300 74840
L71370 74880
L71450 74880
" />
<path d="M71820 74880
L71750 74840
L71720 74770
L71800 74090
" />
<path d="M72420 74840
L72340 74880
L72190 74880
L72120 74840
L72090 74770
L72130 74470
L72180 74390
L72250 74360
L72400 74360
L72480 74390
L72510 74470
L72500 74540
L72110 74620
" />
<path d="M72800 74810
L72840 74840
L72800 74880
L72760 74840
L72800 74810
L72800 74880
" />
<path d="M72860 74390
L72890 74430
L72850 74470
L72810 74430
L72860 74390
L72850 74470
" />
<path d="M74150 74880
L73780 74880
L73870 74090
" />
<path d="M74400 74090
L74850 74090
" />
<path d="M74530 74880
L74620 74090
" />
<path d="M75030 74090
L75520 74090
L75230 74390
L75340 74390
L75410 74430
L75440 74470
L75470 74540
L75440 74730
L75390 74810
L75360 74840
L75280 74880
L75060 74880
L74980 74840
L74940 74810
" />
<path d="M75780 74090
L76310 74090
L75880 74880
" />
<path d="M76980 74090
L76610 74090
L76530 74470
L76570 74430
L76650 74390
L76840 74390
L76910 74430
L76940 74470
L76970 74540
L76940 74730
L76890 74810
L76860 74840
L76780 74880
L76590 74880
L76520 74840
L76480 74810
" />
<path d="M77280 74090
L77810 74090
L77380 74880
" />
<path d="M78930 74470
L79030 74510
L79070 74540
L79100 74620
L79080 74730
L79030 74810
L78990 74840
L78920 74880
L78620 74880
L78710 74090
L78970 74090
L79050 74130
L79070 74170
L79110 74240
L79100 74320
L79050 74390
L79010 74430
L78930 74470
L78670 74470
" />
<path d="M79520 74880
L79450 74840
L79410 74810
L79380 74730
L79410 74510
L79460 74430
L79510 74390
L79580 74360
L79690 74360
L79770 74390
L79800 74430
L79820 74510
L79790 74730
L79750 74810
L79710 74840
L79630 74880
L79520 74880
" />
<path d="M80230 74880
L80160 74840
L80120 74810
L80090 74730
L80120 74510
L80170 74430
L80220 74390
L80290 74360
L80400 74360
L80480 74390
L80510 74430
L80530 74510
L80500 74730
L80460 74810
L80420 74840
L80340 74880
L80230 74880
" />
<path d="M80790 74840
L80870 74880
L81020 74880
L81090 74840
L81140 74770
L81140 74730
L81110 74660
L81050 74620
L80930 74620
L80860 74580
L80830 74510
L80840 74470
L80890 74390
L80960 74360
L81080 74360
L81150 74390
" />
<path d="M81420 74360
L81720 74360
" />
<path d="M81560 74090
L81480 74770
L81510 74840
L81580 74880
L81660 74880
" />
<path d="M82970 74810
L82930 74840
L82820 74880
L82740 74880
L82630 74840
L82570 74770
L82540 74690
L82520 74540
L82530 74430
L82590 74280
L82640 74210
L82720 74130
L82830 74090
L82910 74090
L83020 74130
L83050 74170
" />
<path d="M83420 74880
L83350 74840
L83310 74810
L83280 74730
L83310 74510
L83360 74430
L83410 74390
L83480 74360
L83590 74360
L83670 74390
L83700 74430
L83720 74510
L83690 74730
L83650 74810
L83610 74840
L83530 74880
L83420 74880
" />
<path d="M84080 74360
L84020 74880
" />
<path d="M84070 74430
L84120 74390
L84190 74360
L84300 74360
L84380 74390
L84410 74470
L84360 74880
" />
<path d="M84710 74360
L84840 74880
L85090 74360
" />
<path d="M85630 74840
L85550 74880
L85400 74880
L85330 74840
L85300 74770
L85340 74470
L85390 74390
L85460 74360
L85610 74360
L85690 74390
L85720 74470
L85710 74540
L85320 74620
" />
<path d="M86010 74880
L86070 74360
" />
<path d="M86050 74510
L86100 74430
L86140 74390
L86220 74360
L86290 74360
" />
<path d="M86450 74360
L86750 74360
" />
<path d="M86590 74090
L86510 74770
L86540 74840
L86610 74880
L86690 74880
" />
<path d="M87250 74840
L87170 74880
L87020 74880
L86950 74840
L86920 74770
L86960 74470
L87010 74390
L87080 74360
L87230 74360
L87310 74390
L87340 74470
L87330 74540
L86940 74620
" />
<path d="M87630 74880
L87690 74360
" />
<path d="M87670 74510
L87720 74430
L87760 74390
L87840 74360
L87910 74360
" />
<path d="M88760 74170
L88810 74130
L88880 74090
L89070 74090
L89150 74130
L89170 74170
L89210 74240
L89200 74320
L89140 74430
L88640 74880
L89130 74880
" />
<path d="M89870 74360
L89810 74880
" />
<path d="M89720 74050
L89460 74620
L89950 74620
" />
<path d="M90200 74090
L90370 74880
L90720 74090
" />
<path d="M91950 74810
L91910 74840
L91800 74880
L91720 74880
L91610 74840
L91550 74770
L91520 74690
L91500 74540
L91510 74430
L91570 74280
L91620 74210
L91700 74130
L91810 74090
L91890 74090
L92000 74130
L92030 74170
" />
<path d="M92400 74880
L92330 74840
L92290 74810
L92260 74730
L92290 74510
L92340 74430
L92390 74390
L92460 74360
L92570 74360
L92650 74390
L92680 74430
L92700 74510
L92670 74730
L92630 74810
L92590 74840
L92510 74880
L92400 74880
" />
<path d="M93060 74360
L93000 74880
" />
<path d="M93050 74430
L93100 74390
L93170 74360
L93280 74360
L93360 74390
L93390 74470
L93340 74880
" />
<path d="M93770 74360
L93710 74880
" />
<path d="M93760 74430
L93810 74390
L93880 74360
L93990 74360
L94070 74390
L94100 74470
L94050 74880
" />
<path d="M94720 74840
L94640 74880
L94490 74880
L94420 74840
L94390 74770
L94430 74470
L94480 74390
L94550 74360
L94700 74360
L94780 74390
L94810 74470
L94800 74540
L94410 74620
" />
<path d="M95440 74840
L95360 74880
L95210 74880
L95140 74840
L95100 74810
L95070 74730
L95100 74510
L95150 74430
L95200 74390
L95270 74360
L95420 74360
L95500 74390
" />
<path d="M95730 74360
L96030 74360
" />
<path d="M95870 74090
L95790 74770
L95820 74840
L95890 74880
L95970 74880
" />
<path d="M96340 74880
L96270 74840
L96230 74810
L96200 74730
L96230 74510
L96280 74430
L96330 74390
L96400 74360
L96510 74360
L96590 74390
L96620 74430
L96640 74510
L96610 74730
L96570 74810
L96530 74840
L96450 74880
L96340 74880
" />
<path d="M96940 74880
L97000 74360
" />
<path d="M96980 74510
L97030 74430
L97070 74390
L97150 74360
L97220 74360
" />
<path d="M97390 74840
L97470 74880
L97620 74880
L97690 74840
L97740 74770
L97740 74730
L97710 74660
L97650 74620
L97530 74620
L97460 74580
L97430 74510
L97440 74470
L97490 74390
L97560 74360
L97680 74360
L97750 74390
" />
</g>
<g style="fill:#840000; fill-opacity:0.0; 
stroke:#840000; stroke-width:100; stroke-opacity:1; 
stroke-linecap:round; stroke-linejoin:round;">
</g>
<g style="fill:#840000; fill-opacity:0.0; 
stroke:#840000; stroke-width:60; stroke-opacity:1; 
stroke-linecap:round; stroke-linejoin:round;">
<path d="M70420 73060
L70220 73060
" />
<path d="M70220 73370
L70220 72780
L70500 72780
" />
<path d="M70730 73370
L70730 72980
" />
<path d="M70730 72780
L70700 72810
L70730 72840
L70760 72810
L70730 72780
L70730 72840
" />
<path d="M71090 73370
L71040 73340
L71010 73290
L71010 72780
" />
<path d="M71550 73340
L71490 73370
L71380 73370
L71320 73340
L71290 73290
L71290 73060
L71320 73010
L71380 72980
L71490 72980
L71550 73010
L71570 73060
L71570 73120
L71290 73180
" />
<path d="M71830 73320
L71860 73340
L71830 73370
L71800 73340
L71830 73320
L71830 73370
" />
<path d="M71830 73010
L71860 73030
L71830 73060
L71800 73030
L71830 73010
L71830 73060
" />
<path d="M72640 73370
L72590 73340
L72560 73290
L72560 72780
" />
<path d="M72790 72980
L73010 72980
" />
<path d="M72870 72780
L72870 73290
L72900 73340
L72950 73370
L73010 73370
" />
<path d="M73150 72780
L73520 72780
L73320 73010
L73410 73010
L73460 73030
L73490 73060
L73520 73120
L73520 73260
L73490 73320
L73460 73340
L73410 73370
L73240 73370
L73180 73340
L73150 73320
" />
<path d="M73710 72780
L74110 72780
L73850 73370
" />
<path d="M74610 72780
L74330 72780
L74300 73060
L74330 73030
L74390 73010
L74530 73010
L74580 73030
L74610 73060
L74640 73120
L74640 73260
L74610 73320
L74580 73340
L74530 73370
L74390 73370
L74330 73340
L74300 73320
" />
<path d="M74830 72780
L75230 72780
L74970 73370
" />
<path d="M75450 73150
L75900 73150
" />
<path d="M76180 73370
L76180 72780
" />
<path d="M76180 73010
L76240 72980
L76350 72980
L76410 73010
L76430 73030
L76460 73090
L76460 73260
L76430 73320
L76410 73340
L76350 73370
L76240 73370
L76180 73340
" />
<path d="M76790 73370
L76740 73340
L76710 73320
L76680 73260
L76680 73090
L76710 73030
L76740 73010
L76790 72980
L76880 72980
L76940 73010
L76960 73030
L76990 73090
L76990 73260
L76960 73320
L76940 73340
L76880 73370
L76790 73370
" />
<path d="M77320 73370
L77270 73340
L77240 73320
L77210 73260
L77210 73090
L77240 73030
L77270 73010
L77320 72980
L77410 72980
L77470 73010
L77490 73030
L77520 73090
L77520 73260
L77490 73320
L77470 73340
L77410 73370
L77320 73370
" />
<path d="M77740 73340
L77800 73370
L77910 73370
L77970 73340
L78000 73290
L78000 73260
L77970 73200
L77910 73180
L77830 73180
L77770 73150
L77740 73090
L77740 73060
L77770 73010
L77830 72980
L77910 72980
L77970 73010
" />
<path d="M78170 72980
L78390 72980
" />
<path d="M78250 72780
L78250 73290
L78280 73340
L78330 73370
L78390 73370
" />
<path d="M78590 73150
L79040 73150
" />
<path d="M79570 73340
L79520 73370
L79400 73370
L79350 73340
L79320 73320
L79290 73260
L79290 73090
L79320 73030
L79350 73010
L79400 72980
L79520 72980
L79570 73010
" />
<path d="M79910 73370
L79860 73340
L79830 73320
L79800 73260
L79800 73090
L79830 73030
L79860 73010
L79910 72980
L80000 72980
L80060 73010
L80080 73030
L80110 73090
L80110 73260
L80080 73320
L80060 73340
L80000 73370
L79910 73370
" />
<path d="M80360 72980
L80360 73370
" />
<path d="M80360 73030
L80390 73010
L80440 72980
L80530 72980
L80590 73010
L80610 73060
L80610 73370
" />
<path d="M80830 72980
L80970 73370
L81120 72980
" />
<path d="M81570 73340
L81510 73370
L81400 73370
L81340 73340
L81310 73290
L81310 73060
L81340 73010
L81400 72980
L81510 72980
L81570 73010
L81590 73060
L81590 73120
L81310 73180
" />
<path d="M81850 73370
L81850 72980
" />
<path d="M81850 73090
L81880 73030
L81910 73010
L81960 72980
L82020 72980
" />
<path d="M82140 72980
L82360 72980
" />
<path d="M82220 72780
L82220 73290
L82250 73340
L82300 73370
L82360 73370
" />
<path d="M82790 73340
L82730 73370
L82620 73370
L82560 73340
L82530 73290
L82530 73060
L82560 73010
L82620 72980
L82730 72980
L82790 73010
L82810 73060
L82810 73120
L82530 73180
" />
<path d="M83070 73370
L83070 72980
" />
<path d="M83070 73090
L83100 73030
L83130 73010
L83180 72980
L83240 72980
" />
<path d="M83440 73320
L83470 73340
L83440 73370
L83410 73340
L83440 73320
L83440 73370
" />
<path d="M83690 73340
L83750 73370
L83860 73370
L83920 73340
L83950 73290
L83950 73260
L83920 73200
L83860 73180
L83780 73180
L83720 73150
L83690 73090
L83690 73060
L83720 73010
L83780 72980
L83860 72980
L83920 73010
" />
<path d="M84450 73340
L84400 73370
L84280 73370
L84230 73340
L84200 73320
L84170 73260
L84170 73090
L84200 73030
L84230 73010
L84280 72980
L84400 72980
L84450 73010
" />
<path d="M84710 73370
L84710 72780
" />
<path d="M84960 73370
L84960 73060
L84940 73010
L84880 72980
L84790 72980
L84740 73010
L84710 73030
" />
</g>
<g style="fill:#840000; fill-opacity:0.0; 
stroke:#840000; stroke-width:100; stroke-opacity:1; 
stroke-linecap:round; stroke-linejoin:round;">
</g>
<g style="fill:#840000; fill-opacity:0.0; 
stroke:#840000; stroke-width:60; stroke-opacity:1; 
stroke-linecap:round; stroke-linejoin:round;">
<path d="M69690 71460
L112210 71460
" />
</g>
<g style="fill:#840000; fill-opacity:0.0; 
stroke:#840000; stroke-width:100; stroke-opacity:1; 
stroke-linecap:round; stroke-linejoin:round;">
</g>
<g style="fill:#840000; fill-opacity:0.0; 
stroke:#840000; stroke-width:60; stroke-opacity:1; 
stroke-linecap:round; stroke-linejoin:round;">
<path d="M70190 72280
L70280 72310
L70420 72310
L70470 72280
L70500 72260
L70530 72200
L70530 72140
L70500 72090
L70470 72060
L70420 72030
L70300 72000
L70250 71970
L70220 71950
L70190 71890
L70190 71830
L70220 71780
L70250 71750
L70300 71720
L70450 71720
L70530 71750
" />
<path d="M70780 72310
L70780 71720
" />
<path d="M71030 72310
L71030 72000
L71010 71950
L70950 71920
L70860 71920
L70810 71950
L70780 71970
" />
<path d="M71540 72280
L71480 72310
L71370 72310
L71310 72280
L71280 72230
L71280 72000
L71310 71950
L71370 71920
L71480 71920
L71540 71950
L71560 72000
L71560 72060
L71280 72120
" />
<path d="M72050 72280
L71990 72310
L71880 72310
L71820 72280
L71790 72230
L71790 72000
L71820 71950
L71880 71920
L71990 71920
L72050 71950
L72070 72000
L72070 72060
L71790 72120
" />
<path d="M72250 71920
L72470 71920
" />
<path d="M72330 71720
L72330 72230
L72360 72280
L72410 72310
L72470 72310
" />
<path d="M72670 72260
L72700 72280
L72670 72310
L72640 72280
L72670 72260
L72670 72310
" />
<path d="M72670 71950
L72700 71970
L72670 72000
L72640 71970
L72670 71950
L72670 72000
" />
<path d="M73820 71690
L73320 72450
" />
</g>
<g style="fill:#840000; fill-opacity:0.0; 
stroke:#840000; stroke-width:100; stroke-opacity:1; 
stroke-linecap:round; stroke-linejoin:round;">
</g>
<g style="fill:#840000; fill-opacity:0.0; 
stroke:#840000; stroke-width:120; stroke-opacity:1; 
stroke-linecap:round; stroke-linejoin:round;">
<path d="M70140 70540
L70330 71130
L70530 70540
" />
<path d="M70730 71130
L70730 70540
" />
<path d="M71010 71130
L71010 70540
L71240 70540
L71290 70570
L71320 70600
L71350 70650
L71350 70740
L71320 70790
L71290 70820
L71240 70850
L71010 70850
" />
<path d="M71600 70820
L71800 70820
" />
<path d="M71880 71130
L71600 71130
L71600 70540
L71880 70540
" />
<path d="M72470 71130
L72270 70850
" />
<path d="M72130 71130
L72130 70540
L72360 70540
L72410 70570
L72440 70600
L72470 70650
L72470 70740
L72440 70790
L72410 70820
L72360 70850
L72130 70850
" />
</g>
<g style="fill:#840000; fill-opacity:0.0; 
stroke:#840000; stroke-width:100; stroke-opacity:1; 
stroke-linecap:round; stroke-linejoin:round;">
</g>
<g style="fill:#840000; fill-opacity:0.0; 
stroke:#840000; stroke-width:60; stroke-opacity:1; 
stroke-linecap:round; stroke-linejoin:round;">
<path d="M77560 75400
L77560 76580
" />
</g>
<g style="fill:#840000; fill-opacity:0.0; 
stroke:#840000; stroke-width:100; stroke-opacity:1; 
stroke-linecap:round; stroke-linejoin:round;">
</g>
<g style="fill:#840000; fill-opacity:0.0; 
stroke:#840000; stroke-width:60; stroke-opacity:1; 
stroke-linecap:round; stroke-linejoin:round;">
<path d="M102760 75400
L102760 77960
" />
</g>
<g style="fill:#840000; fill-opacity:0.0; 
stroke:#840000; stroke-width:0; stroke-opacity:1; 
stroke-linecap:round; stroke-linejoin:round;">
</g>
<g style="fill:#840000; fill-opacity:0.0; 
stroke:#840000; stroke-width:60; stroke-opacity:1; 
stroke-linecap:round; stroke-linejoin:round;">
<polyline fill="none;"
points="30500,40000
30500,40500
31000,40500
30500,41000
30000,40500
30500,40500
" /> 
</g>
<g style="fill:#008484; fill-opacity:0.0; 
stroke:#008484; stroke-width:60; stroke-opacity:1; 
stroke-linecap:round; stroke-linejoin:round;">
<path d="M30120 41280
L30070 41260
L30000 41260
L29930 41280
L29880 41330
L29860 41380
L29840 41470
L29840 41540
L29860 41640
L29880 41680
L29930 41730
L30000 41760
L30050 41760
L30120 41730
L30140 41710
L30140 41540
L30050 41540
" />
<path d="M30360 41760
L30360 41260
L30640 41760
L30640 41260
" />
<path d="M30880 41760
L30880 41260
L31000 41260
L31070 41280
L31120 41330
L31140 41380
L31160 41470
L31160 41540
L31140 41640
L31120 41680
L31070 41730
L31000 41760
L30880 41760
" />
</g>
<g style="fill:#840084; fill-opacity:0.0; 
stroke:#840084; stroke-width:60; stroke-opacity:1; 
stroke-linecap:round; stroke-linejoin:round;">
<path d="M44500 33000
L61000 33000
L61000 42500
L44500 42500
L44500 33000
" />
</g>
<g style="fill:#008484; fill-opacity:0.0; 
stroke:#008484; stroke-width:60; stroke-opacity:1; 
stroke-linecap:round; stroke-linejoin:round;">
<path d="M44930 32930
L44640 32930
L44640 32330
" />
<path d="M45050 32330
L45390 32330
" />
<path d="M45220 32930
L45220 32330
" />
<path d="M45540 32330
L45910 32330
L45710 32560
L45790 32560
L45850 32590
L45880 32620
L45910 32670
L45910 32820
L45880 32870
L45850 32900
L45790 32930
L45620 32930
L45560 32900
L45540 32870
" />
<path d="M46110 32330
L46510 32330
L46250 32930
" />
<path d="M47020 32330
L46730 32330
L46700 32620
L46730 32590
L46790 32560
L46930 32560
L46990 32590
L47020 32620
L47050 32670
L47050 32820
L47020 32870
L46990 32900
L46930 32930
L46790 32930
L46730 32900
L46700 32870
" />
<path d="M47250 32330
L47650 32330
L47390 32930
" />
</g>
<g style="fill:#848400; fill-opacity:0.0; 
stroke:#848400; stroke-width:60; stroke-opacity:1; 
stroke-linecap:round; stroke-linejoin:round;">
<path d="M44730 43110
L44670 43080
L44640 43030
L44640 42510
" />
<path d="M44870 42710
L45100 42710
" />
<path d="M44950 42510
L44950 43030
L44980 43080
L45040 43110
L45100 43110
" />
<path d="M45240 42510
L45610 42510
L45410 42740
L45490 42740
L45550 42770
L45580 42800
L45610 42850
L45610 43000
L45580 43050
L45550 43080
L45490 43110
L45320 43110
L45260 43080
L45240 43050
" />
<path d="M45810 42510
L46210 42510
L45950 43110
" />
<path d="M46720 42510
L46430 42510
L46400 42800
L46430 42770
L46490 42740
L46630 42740
L46690 42770
L46720 42800
L46750 42850
L46750 43000
L46720 43050
L46690 43080
L46630 43110
L46490 43110
L46430 43080
L46400 43050
" />
<path d="M46950 42510
L47350 42510
L47090 43110
" />
<path d="M47570 43050
L47600 43080
L47570 43110
L47540 43080
L47570 43050
L47570 43110
" />
<path d="M47830 43080
L47890 43110
L48010 43110
L48060 43080
L48090 43030
L48090 43000
L48060 42940
L48010 42910
L47920 42910
L47860 42880
L47830 42830
L47830 42800
L47860 42740
L47920 42710
L48010 42710
L48060 42740
" />
<path d="M48610 43080
L48550 43110
L48440 43110
L48380 43080
L48350 43050
L48320 43000
L48320 42830
L48350 42770
L48380 42740
L48440 42710
L48550 42710
L48610 42740
" />
<path d="M48860 43110
L48860 42510
" />
<path d="M49120 43110
L49120 42800
L49090 42740
L49030 42710
L48950 42710
L48890 42740
L48860 42770
" />
</g>
<g style="fill:#840084; fill-opacity:0.0; 
stroke:#840084; stroke-width:60; stroke-opacity:1; 
stroke-linecap:round; stroke-linejoin:round;">
</g>
<g style="fill:#848400; fill-opacity:0.0; 
stroke:#848400; stroke-width:60; stroke-opacity:1; 
stroke-linecap:round; stroke-linejoin:round;">
<path d="M45600 36960
L45690 36990
L45720 37010
L45750 37070
L45750 37160
L45720 37210
L45690 37240
L45630 37270
L45400 37270
L45400 36670
L45600 36670
L45660 36700
L45690 36730
L45720 36790
L45720 36840
L45690 36900
L45660 36930
L45600 36960
L45400 36960
" />
<path d="M46260 37270
L46260 36960
L46230 36900
L46170 36870
L46060 36870
L46000 36900
" />
<path d="M46260 37240
L46200 37270
L46060 37270
L46000 37240
L45970 37190
L45970 37130
L46000 37070
L46060 37040
L46200 37040
L46260 37010
" />
<path d="M46460 36870
L46690 36870
" />
<path d="M46540 36670
L46540 37190
L46570 37240
L46630 37270
L46690 37270
" />
<path d="M46740 37330
L47200 37330
" />
<path d="M47340 37270
L47340 36670
" />
<path d="M47630 37270
L47630 36670
L47980 37270
L47980 36670
" />
</g>
<g style="fill:#848400; fill-opacity:0.0; 
stroke:#848400; stroke-width:100; stroke-opacity:1; 
stroke-linecap:round; stroke-linejoin:round;">
<polyline fill="none;"
points="45100,37000
44800,36700
44500,36700
44500,37300
44800,37300
45100,37000
" /> 
</g>
<g style="fill:#848400; fill-opacity:0.0; 
stroke:#848400; stroke-width:60; stroke-opacity:1; 
stroke-linecap:round; stroke-linejoin:round;">
<path d="M56520 36730
L56550 36700
L56610 36670
L56750 36670
L56810 36700
L56840 36730
L56870 36790
L56870 36840
L56840 36930
L56500 37270
L56870 37270
" />
<path d="M57380 36870
L57380 37270
" />
<path d="M57240 36640
L57090 37070
L57470 37070
" />
<path d="M57610 36670
L57810 37270
L58010 36670
" />
<path d="M58060 37330
L58520 37330
" />
<path d="M58780 36670
L58890 36670
L58950 36700
L59010 36760
L59030 36870
L59030 37070
L59010 37190
L58950 37240
L58890 37270
L58780 37270
L58720 37240
L58660 37190
L58630 37070
L58630 36870
L58660 36760
L58720 36700
L58780 36670
" />
<path d="M59290 36670
L59290 37160
L59320 37210
L59350 37240
L59410 37270
L59520 37270
L59580 37240
L59610 37210
L59640 37160
L59640 36670
" />
<path d="M59840 36670
L60180 36670
" />
<path d="M60010 37270
L60010 36670
" />
</g>
<g style="fill:#848400; fill-opacity:0.0; 
stroke:#848400; stroke-width:100; stroke-opacity:1; 
stroke-linecap:round; stroke-linejoin:round;">
<polyline fill="none;"
points="60400,37000
60700,37300
61000,37300
61000,36700
60700,36700
60400,37000
" /> 
</g>
<g style="fill:#848400; fill-opacity:0.0; 
stroke:#848400; stroke-width:60; stroke-opacity:1; 
stroke-linecap:round; stroke-linejoin:round;">
<path d="M45400 33960
L45600 33960
" />
<path d="M45690 34270
L45400 34270
L45400 33670
L45690 33670
" />
<path d="M45940 33870
L45940 34270
" />
<path d="M45940 33930
L45970 33900
L46030 33870
L46110 33870
L46170 33900
L46200 33960
L46200 34270
" />
<path d="M46740 34270
L46740 33960
L46710 33900
L46650 33870
L46540 33870
L46480 33900
" />
<path d="M46740 34240
L46680 34270
L46540 34270
L46480 34240
L46450 34190
L46450 34130
L46480 34070
L46540 34040
L46680 34040
L46740 34010
" />
<path d="M47020 34270
L47020 33670
" />
<path d="M47020 33900
L47080 33870
L47190 33870
L47250 33900
L47280 33930
L47310 33990
L47310 34160
L47280 34210
L47250 34240
L47190 34270
L47080 34270
L47020 34240
" />
<path d="M47650 34270
L47590 34240
L47560 34190
L47560 33670
" />
<path d="M48100 34240
L48040 34270
L47930 34270
L47870 34240
L47840 34190
L47840 33960
L47870 33900
L47930 33870
L48040 33870
L48100 33900
L48130 33960
L48130 34010
L47840 34070
" />
</g>
<g style="fill:#848400; fill-opacity:0.0; 
stroke:#848400; stroke-width:100; stroke-opacity:1; 
stroke-linecap:round; stroke-linejoin:round;">
<polyline fill="none;"
points="45100,34000
44800,33700
44500,33700
44500,34300
44800,34300
45100,34000
" /> 
</g>
<g style="fill:#848400; fill-opacity:0.0; 
stroke:#848400; stroke-width:60; stroke-opacity:1; 
stroke-linecap:round; stroke-linejoin:round;">
</g>
<g style="fill:#008400; fill-opacity:0.0; 
stroke:#008400; stroke-width:60; stroke-opacity:1; 
stroke-linecap:round; stroke-linejoin:round;">
<path d="M41500 37000
L44500 37000
" />
<path d="M44500 34000
L41500 34000
" />
<path d="M63500 37000
L61000 37000
" />
</g>
<g style="fill:#008400; fill-opacity:0.0; 
stroke:#008400; stroke-width:0; stroke-opacity:1; 
stroke-linecap:round; stroke-linejoin:round;">
</g>
<g style="fill:#840000; fill-opacity:0.0; 
stroke:#840000; stroke-width:0; stroke-opacity:1; 
stroke-linecap:round; stroke-linejoin:round;">
</g>
<g style="fill:#840000; fill-opacity:0.0; 
stroke:#840000; stroke-width:60; stroke-opacity:1; 
stroke-linecap:round; stroke-linejoin:round;">
<rect x="30450" y="36900" width="100" height="600" rx="0" />
<rect x="30000" y="36500" width="1000" height="1000" rx="0" />
<path d="M30500 37500
L30500 39000
" />
<path d="M30380 38110
L30380 38390
" />
<path d="M30380 38250
L29880 38250
L29950 38300
L30000 38350
L30020 38390
" />
</g>
<g style="fill:#008484; fill-opacity:0.0; 
stroke:#008484; stroke-width:60; stroke-opacity:1; 
stroke-linecap:round; stroke-linejoin:round;">
<path d="M29260 37170
L29610 37170
L29680 37190
L29730 37240
L29760 37310
L29760 37360
" />
<path d="M29760 36670
L29760 36950
" />
<path d="M29760 36810
L29260 36810
L29330 36860
L29380 36910
L29400 36950
" />
<path d="M30120 35710
L30070 35690
L30000 35690
L29930 35710
L29880 35760
L29860 35810
L29840 35900
L29840 35970
L29860 36070
L29880 36110
L29930 36160
L30000 36190
L30050 36190
L30120 36160
L30140 36140
L30140 35970
L30050 35970
" />
<path d="M30360 36190
L30360 35690
L30640 36190
L30640 35690
" />
<path d="M30880 36190
L30880 35690
L31000 35690
L31070 35710
L31120 35760
L31140 35810
L31160 35900
L31160 35970
L31140 36070
L31120 36110
L31070 36160
L31000 36190
L30880 36190
" />
</g>
<g style="fill:#008400; fill-opacity:0.0; 
stroke:#008400; stroke-width:60; stroke-opacity:1; 
stroke-linecap:round; stroke-linejoin:round;">
<path d="M30500 39000
L30500 40000
" />
</g>
<g style="fill:#008400; fill-opacity:0.0; 
stroke:#008400; stroke-width:0; stroke-opacity:1; 
stroke-linecap:round; stroke-linejoin:round;">
</g>
<g style="fill:#840000; fill-opacity:0.0; 
stroke:#840000; stroke-width:0; stroke-opacity:1; 
stroke-linecap:round; stroke-linejoin:round;">
</g>
<g style="fill:#840000; fill-opacity:0.0; 
stroke:#840000; stroke-width:60; stroke-opacity:1; 
stroke-linecap:round; stroke-linejoin:round;">
<rect x="39400" y="33950" width="600" height="100" rx="0" />
<rect x="39000" y="33500" width="1000" height="1000" rx="0" />
<path d="M40000 34000
L41500 34000
" />
<path d="M40890 33880
L40610 33880
" />
<path d="M40750 33880
L40750 33380
L40700 33450
L40650 33500
L40610 33520
" />
</g>
<g style="fill:#008484; fill-opacity:0.0; 
stroke:#008484; stroke-width:60; stroke-opacity:1; 
stroke-linecap:round; stroke-linejoin:round;">
<path d="M39330 34690
L39330 35040
L39310 35110
L39260 35160
L39190 35190
L39140 35190
" />
<path d="M39550 34730
L39570 34710
L39620 34690
L39740 34690
L39780 34710
L39810 34730
L39830 34780
L39830 34830
L39810 34900
L39520 35190
L39830 35190
" />
<path d="M38420 35120
L38420 34950
" />
<path d="M38690 34880
L38690 35120
L38190 35120
L38190 34880
" />
<path d="M38350 34670
L38690 34670
" />
<path d="M38400 34670
L38380 34650
L38350 34600
L38350 34530
L38380 34480
L38420 34460
L38690 34460
" />
<path d="M38690 34010
L38420 34010
L38380 34030
L38350 34080
L38350 34170
L38380 34220
" />
<path d="M38660 34010
L38690 34050
L38690 34170
L38660 34220
L38610 34240
L38570 34240
L38520 34220
L38500 34170
L38500 34050
L38470 34010
" />
<path d="M38690 33770
L38190 33770
" />
<path d="M38380 33770
L38350 33720
L38350 33630
L38380 33580
L38400 33560
L38450 33530
L38590 33530
L38640 33560
L38660 33580
L38690 33630
L38690 33720
L38660 33770
" />
<path d="M38690 33250
L38660 33300
L38610 33320
L38190 33320
" />
<path d="M38660 32870
L38690 32920
L38690 33010
L38660 33060
L38610 33080
L38420 33080
L38380 33060
L38350 33010
L38350 32920
L38380 32870
L38420 32850
L38470 32850
L38520 33080
" />
</g>
<g style="fill:#008484; fill-opacity:0.0; 
stroke:#008484; stroke-width:0; stroke-opacity:1; 
stroke-linecap:round; stroke-linejoin:round;">
</g>
<g style="fill:#840000; fill-opacity:0.0; 
stroke:#840000; stroke-width:0; stroke-opacity:1; 
stroke-linecap:round; stroke-linejoin:round;">
</g>
<g style="fill:#840000; fill-opacity:0.0; 
stroke:#840000; stroke-width:60; stroke-opacity:1; 
stroke-linecap:round; stroke-linejoin:round;">
<rect x="39400" y="36950" width="600" height="100" rx="0" />
<rect x="39000" y="36500" width="1000" height="1000" rx="0" />
<path d="M40000 37000
L41500 37000
" />
<path d="M40890 36880
L40610 36880
" />
<path d="M40750 36880
L40750 36380
L40700 36450
L40650 36500
L40610 36520
" />
</g>
<g style="fill:#008484; fill-opacity:0.0; 
stroke:#008484; stroke-width:60; stroke-opacity:1; 
stroke-linecap:round; stroke-linejoin:round;">
<path d="M39330 37690
L39330 38040
L39310 38110
L39260 38160
L39190 38190
L39140 38190
" />
<path d="M39520 37690
L39830 37690
L39660 37880
L39740 37880
L39780 37900
L39810 37920
L39830 37970
L39830 38090
L39810 38140
L39780 38160
L39740 38190
L39590 38190
L39550 38160
L39520 38140
" />
<path d="M38420 37360
L38450 37290
L38470 37270
L38520 37250
L38590 37250
L38640 37270
L38660 37290
L38690 37340
L38690 37530
L38190 37530
L38190 37360
L38210 37320
L38230 37290
L38280 37270
L38330 37270
L38380 37290
L38400 37320
L38420 37360
L38420 37530
" />
<path d="M38540 37050
L38540 36820
" />
<path d="M38690 37100
L38190 36940
L38690 36770
" />
<path d="M38190 36670
L38190 36390
" />
<path d="M38690 36530
L38190 36530
" />
</g>
<g style="fill:#008484; fill-opacity:0.0; 
stroke:#008484; stroke-width:0; stroke-opacity:1; 
stroke-linecap:round; stroke-linejoin:round;">
</g>
<g style="fill:#840000; fill-opacity:0.0; 
stroke:#840000; stroke-width:0; stroke-opacity:1; 
stroke-linecap:round; stroke-linejoin:round;">
</g>
<g style="fill:#840000; fill-opacity:0.0; 
stroke:#840000; stroke-width:60; stroke-opacity:1; 
stroke-linecap:round; stroke-linejoin:round;">
<rect x="65000" y="36950" width="600" height="100" rx="0" />
<rect x="65000" y="36500" width="1000" height="1000" rx="0" />
<path d="M65000 37000
L63500 37000
" />
<path d="M64390 36880
L64110 36880
" />
<path d="M64250 36880
L64250 36380
L64200 36450
L64150 36500
L64110 36520
" />
</g>
<g style="fill:#008484; fill-opacity:0.0; 
stroke:#008484; stroke-width:60; stroke-opacity:1; 
stroke-linecap:round; stroke-linejoin:round;">
<path d="M65330 35760
L65330 36110
L65310 36180
L65260 36230
L65190 36260
L65140 36260
" />
<path d="M65780 35920
L65780 36260
" />
<path d="M65660 35730
L65550 36090
L65850 36090
" />
<path d="M66300 37580
L66280 37560
L66260 37510
L66260 37390
L66280 37350
L66300 37320
L66350 37300
L66400 37300
L66470 37320
L66760 37610
L66760 37300
" />
<path d="M66420 36870
L66760 36870
" />
<path d="M66230 36990
L66590 37100
L66590 36800
" />
<path d="M66260 36670
L66760 36510
L66260 36340
" />
</g>
<g style="fill:#008484; fill-opacity:0.0; 
stroke:#008484; stroke-width:0; stroke-opacity:1; 
stroke-linecap:round; stroke-linejoin:round;">
</g>
<g style="fill:#840000; fill-opacity:0.0; 
stroke:#840000; stroke-width:0; stroke-opacity:1; 
stroke-linecap:round; stroke-linejoin:round;">
</g>
<g style="fill:#840000; fill-opacity:0.0; 
stroke:#840000; stroke-width:60; stroke-opacity:1; 
stroke-linecap:round; stroke-linejoin:round;">
<rect x="37450" y="60400" width="100" height="600" rx="0" />
<rect x="37000" y="60000" width="1000" height="1000" rx="0" />
<path d="M37500 61000
L37500 62500
" />
<path d="M37380 61610
L37380 61890
" />
<path d="M37380 61750
L36880 61750
L36950 61800
L37000 61850
L37020 61890
" />
</g>
<g style="fill:#008484; fill-opacity:0.0; 
stroke:#008484; stroke-width:60; stroke-opacity:1; 
stroke-linecap:round; stroke-linejoin:round;">
<path d="M36260 60670
L36610 60670
L36680 60690
L36730 60740
L36760 60810
L36760 60860
" />
<path d="M36260 60190
L36260 60430
L36490 60450
L36470 60430
L36450 60380
L36450 60260
L36470 60220
L36490 60190
L36540 60170
L36660 60170
L36710 60190
L36730 60220
L36760 60260
L36760 60380
L36730 60430
L36710 60450
" />
<path d="M37090 59690
L37090 59190
L37260 59540
L37420 59190
L37420 59690
" />
<path d="M37610 59190
L37920 59190
L37750 59380
L37830 59380
L37870 59400
L37900 59420
L37920 59470
L37920 59590
L37900 59640
L37870 59660
L37830 59690
L37680 59690
L37640 59660
L37610 59640
" />
</g>
<g style="fill:#008484; fill-opacity:0.0; 
stroke:#008484; stroke-width:0; stroke-opacity:1; 
stroke-linecap:round; stroke-linejoin:round;">
</g>
<g style="fill:#840000; fill-opacity:0.0; 
stroke:#840000; stroke-width:0; stroke-opacity:1; 
stroke-linecap:round; stroke-linejoin:round;">
</g>
<g style="fill:#840000; fill-opacity:0.0; 
stroke:#840000; stroke-width:60; stroke-opacity:1; 
stroke-linecap:round; stroke-linejoin:round;">
<rect x="39450" y="60400" width="100" height="600" rx="0" />
<rect x="39000" y="60000" width="1000" height="1000" rx="0" />
<path d="M39500 61000
L39500 62500
" />
<path d="M39380 61610
L39380 61890
" />
<path d="M39380 61750
L38880 61750
L38950 61800
L39000 61850
L39020 61890
" />
</g>
<g style="fill:#008484; fill-opacity:0.0; 
stroke:#008484; stroke-width:60; stroke-opacity:1; 
stroke-linecap:round; stroke-linejoin:round;">
<path d="M38260 60670
L38610 60670
L38680 60690
L38730 60740
L38760 60810
L38760 60860
" />
<path d="M38260 60220
L38260 60310
L38280 60360
L38300 60380
L38380 60430
L38470 60450
L38660 60450
L38710 60430
L38730 60410
L38760 60360
L38760 60260
L38730 60220
L38710 60190
L38660 60170
L38540 60170
L38490 60190
L38470 60220
L38450 60260
L38450 60360
L38470 60410
L38490 60430
L38540 60450
" />
<path d="M39090 59690
L39090 59190
L39260 59540
L39420 59190
L39420 59690
" />
<path d="M39610 59190
L39920 59190
L39750 59380
L39830 59380
L39870 59400
L39900 59420
L39920 59470
L39920 59590
L39900 59640
L39870 59660
L39830 59690
L39680 59690
L39640 59660
L39610 59640
" />
</g>
<g style="fill:#008484; fill-opacity:0.0; 
stroke:#008484; stroke-width:0; stroke-opacity:1; 
stroke-linecap:round; stroke-linejoin:round;">
</g>
<g style="fill:#840000; fill-opacity:0.0; 
stroke:#840000; stroke-width:0; stroke-opacity:1; 
stroke-linecap:round; stroke-linejoin:round;">
</g>
<g style="fill:#840000; fill-opacity:0.0; 
stroke:#840000; stroke-width:60; stroke-opacity:1; 
stroke-linecap:round; stroke-linejoin:round;">
<rect x="41450" y="60400" width="100" height="600" rx="0" />
<rect x="41000" y="60000" width="1000" height="1000" rx="0" />
<path d="M41500 61000
L41500 62500
" />
<path d="M41380 61610
L41380 61890
" />
<path d="M41380 61750
L40880 61750
L40950 61800
L41000 61850
L41020 61890
" />
</g>
<g style="fill:#008484; fill-opacity:0.0; 
stroke:#008484; stroke-width:60; stroke-opacity:1; 
stroke-linecap:round; stroke-linejoin:round;">
<path d="M40260 60670
L40610 60670
L40680 60690
L40730 60740
L40760 60810
L40760 60860
" />
<path d="M40260 60480
L40260 60150
L40760 60360
" />
<path d="M41090 59690
L41090 59190
L41260 59540
L41420 59190
L41420 59690
" />
<path d="M41610 59190
L41920 59190
L41750 59380
L41830 59380
L41870 59400
L41900 59420
L41920 59470
L41920 59590
L41900 59640
L41870 59660
L41830 59690
L41680 59690
L41640 59660
L41610 59640
" />
</g>
<g style="fill:#008484; fill-opacity:0.0; 
stroke:#008484; stroke-width:0; stroke-opacity:1; 
stroke-linecap:round; stroke-linejoin:round;">
</g>
<g style="fill:#840000; fill-opacity:0.0; 
stroke:#840000; stroke-width:0; stroke-opacity:1; 
stroke-linecap:round; stroke-linejoin:round;">
</g>
<g style="fill:#840000; fill-opacity:0.0; 
stroke:#840000; stroke-width:60; stroke-opacity:1; 
stroke-linecap:round; stroke-linejoin:round;">
<rect x="43450" y="60400" width="100" height="600" rx="0" />
<rect x="43000" y="60000" width="1000" height="1000" rx="0" />
<path d="M43500 61000
L43500 62500
" />
<path d="M43380 61610
L43380 61890
" />
<path d="M43380 61750
L42880 61750
L42950 61800
L43000 61850
L43020 61890
" />
</g>
<g style="fill:#008484; fill-opacity:0.0; 
stroke:#008484; stroke-width:60; stroke-opacity:1; 
stroke-linecap:round; stroke-linejoin:round;">
<path d="M42260 60670
L42610 60670
L42680 60690
L42730 60740
L42760 60810
L42760 60860
" />
<path d="M42470 60360
L42450 60410
L42420 60430
L42380 60450
L42350 60450
L42300 60430
L42280 60410
L42260 60360
L42260 60260
L42280 60220
L42300 60190
L42350 60170
L42380 60170
L42420 60190
L42450 60220
L42470 60260
L42470 60360
L42490 60410
L42520 60430
L42570 60450
L42660 60450
L42710 60430
L42730 60410
L42760 60360
L42760 60260
L42730 60220
L42710 60190
L42660 60170
L42570 60170
L42520 60190
L42490 60220
L42470 60260
" />
<path d="M43090 59690
L43090 59190
L43260 59540
L43420 59190
L43420 59690
" />
<path d="M43610 59190
L43920 59190
L43750 59380
L43830 59380
L43870 59400
L43900 59420
L43920 59470
L43920 59590
L43900 59640
L43870 59660
L43830 59690
L43680 59690
L43640 59660
L43610 59640
" />
</g>
<g style="fill:#000084; fill-opacity:0.0; 
stroke:#000084; stroke-width:60; stroke-opacity:1; 
stroke-linecap:round; stroke-linejoin:round;">
<path d="M37260 62260
L37740 62740
" />
<path d="M37740 62260
L37260 62740
" />
<path d="M39260 62260
L39740 62740
" />
<path d="M39740 62260
L39260 62740
" />
<path d="M41260 62260
L41740 62740
" />
<path d="M41740 62260
L41260 62740
" />
<path d="M43260 62260
L43740 62740
" />
<path d="M43740 62260
L43260 62740
" />
</g>
<g style="fill:#000084; fill-opacity:0.0; 
stroke:#000084; stroke-width:0; stroke-opacity:1; 
stroke-linecap:round; stroke-linejoin:round;">
</g>
<g style="fill:#840000; fill-opacity:0.0; 
stroke:#840000; stroke-width:0; stroke-opacity:1; 
stroke-linecap:round; stroke-linejoin:round;">
</g>
<g style="fill:#840000; fill-opacity:0.0; 
stroke:#840000; stroke-width:60; stroke-opacity:1; 
stroke-linecap:round; stroke-linejoin:round;">
<polyline fill="none;"
points="26500,40000
26500,40500
27000,40500
26500,41000
26000,40500
26500,40500
" /> 
</g>
<g style="fill:#008484; fill-opacity:0.0; 
stroke:#008484; stroke-width:60; stroke-opacity:1; 
stroke-linecap:round; stroke-linejoin:round;">
<path d="M26120 41280
L26070 41260
L26000 41260
L25930 41280
L25880 41330
L25860 41380
L25840 41470
L25840 41540
L25860 41640
L25880 41680
L25930 41730
L26000 41760
L26050 41760
L26120 41730
L26140 41710
L26140 41540
L26050 41540
" />
<path d="M26360 41760
L26360 41260
L26640 41760
L26640 41260
" />
<path d="M26880 41760
L26880 41260
L27000 41260
L27070 41280
L27120 41330
L27140 41380
L27160 41470
L27160 41540
L27140 41640
L27120 41680
L27070 41730
L27000 41760
L26880 41760
" />
</g>
<g style="fill:#008484; fill-opacity:0.0; 
stroke:#008484; stroke-width:0; stroke-opacity:1; 
stroke-linecap:round; stroke-linejoin:round;">
</g>
<g style="fill:#840000; fill-opacity:0.0; 
stroke:#840000; stroke-width:0; stroke-opacity:1; 
stroke-linecap:round; stroke-linejoin:round;">
</g>
<g style="fill:#840000; fill-opacity:0.0; 
stroke:#840000; stroke-width:60; stroke-opacity:1; 
stroke-linecap:round; stroke-linejoin:round;">
<rect x="26450" y="36900" width="100" height="600" rx="0" />
<rect x="26000" y="36500" width="1000" height="1000" rx="0" />
<path d="M26500 37500
L26500 39000
" />
<path d="M26380 38110
L26380 38390
" />
<path d="M26380 38250
L25880 38250
L25950 38300
L26000 38350
L26020 38390
" />
</g>
<g style="fill:#008484; fill-opacity:0.0; 
stroke:#008484; stroke-width:60; stroke-opacity:1; 
stroke-linecap:round; stroke-linejoin:round;">
<path d="M25260 37170
L25610 37170
L25680 37190
L25730 37240
L25760 37310
L25760 37360
" />
<path d="M25760 36910
L25760 36810
L25730 36760
L25710 36740
L25640 36690
L25540 36670
L25350 36670
L25300 36690
L25280 36720
L25260 36760
L25260 36860
L25280 36910
L25300 36930
L25350 36950
L25470 36950
L25520 36930
L25540 36910
L25570 36860
L25570 36760
L25540 36720
L25520 36690
L25470 36670
" />
<path d="M26120 35710
L26070 35690
L26000 35690
L25930 35710
L25880 35760
L25860 35810
L25840 35900
L25840 35970
L25860 36070
L25880 36110
L25930 36160
L26000 36190
L26050 36190
L26120 36160
L26140 36140
L26140 35970
L26050 35970
" />
<path d="M26360 36190
L26360 35690
L26640 36190
L26640 35690
" />
<path d="M26880 36190
L26880 35690
L27000 35690
L27070 35710
L27120 35760
L27140 35810
L27160 35900
L27160 35970
L27140 36070
L27120 36110
L27070 36160
L27000 36190
L26880 36190
" />
</g>
<g style="fill:#008400; fill-opacity:0.0; 
stroke:#008400; stroke-width:60; stroke-opacity:1; 
stroke-linecap:round; stroke-linejoin:round;">
<path d="M26500 39000
L26500 40000
" />
</g>
<g style="fill:#0000C2; fill-opacity:0.0; 
stroke:#0000C2; stroke-width:60; stroke-opacity:1; 
stroke-linecap:round; stroke-linejoin:round;">
<path d="M37140 58470
L37140 57870
L37340 58300
L37540 57870
L37540 58470
" />
<path d="M37920 58470
L37860 58440
L37830 58410
L37800 58360
L37800 58190
L37830 58130
L37860 58100
L37920 58070
L38000 58070
L38060 58100
L38090 58130
L38120 58190
L38120 58360
L38090 58410
L38060 58440
L38000 58470
L37920 58470
" />
<path d="M38630 58070
L38630 58470
" />
<path d="M38370 58070
L38370 58390
L38400 58440
L38460 58470
L38540 58470
L38600 58440
L38630 58410
" />
<path d="M38910 58070
L38910 58470
" />
<path d="M38910 58130
L38940 58100
L39000 58070
L39080 58070
L39140 58100
L39170 58160
L39170 58470
" />
<path d="M39370 58070
L39600 58070
" />
<path d="M39450 57870
L39450 58390
L39480 58440
L39540 58470
L39600 58470
" />
<path d="M39790 58470
L39790 58070
" />
<path d="M39790 57870
L39760 57900
L39790 57930
L39820 57900
L39790 57870
L39790 57930
" />
<path d="M40080 58070
L40080 58470
" />
<path d="M40080 58130
L40110 58100
L40170 58070
L40250 58070
L40310 58100
L40340 58160
L40340 58470
" />
<path d="M40880 58070
L40880 58560
L40850 58610
L40820 58640
L40770 58670
L40680 58670
L40620 58640
" />
<path d="M40880 58440
L40820 58470
L40710 58470
L40650 58440
L40620 58410
L40590 58360
L40590 58190
L40620 58130
L40650 58100
L40710 58070
L40820 58070
L40880 58100
" />
<path d="M41620 58470
L41620 57870
" />
<path d="M41880 58470
L41880 58160
L41850 58100
L41790 58070
L41710 58070
L41650 58100
L41620 58130
" />
<path d="M42250 58470
L42190 58440
L42160 58410
L42130 58360
L42130 58190
L42160 58130
L42190 58100
L42250 58070
L42330 58070
L42390 58100
L42420 58130
L42450 58190
L42450 58360
L42420 58410
L42390 58440
L42330 58470
L42250 58470
" />
<path d="M42790 58470
L42730 58440
L42700 58390
L42700 57870
" />
<path d="M43240 58440
L43180 58470
L43070 58470
L43010 58440
L42980 58390
L42980 58160
L43010 58100
L43070 58070
L43180 58070
L43240 58100
L43270 58160
L43270 58210
L42980 58270
" />
<path d="M43490 58440
L43550 58470
L43670 58470
L43720 58440
L43750 58390
L43750 58360
L43720 58300
L43670 58270
L43580 58270
L43520 58240
L43490 58190
L43490 58160
L43520 58100
L43580 58070
L43670 58070
L43720 58100
" />
</g> 
</svg>
