G04 #@! TF.FileFunction,Paste,Bot*
%FSLAX46Y46*%
G04 Gerber Fmt 4.6, Leading zero omitted, Abs format (unit mm)*
G04 Created by KiCad (PCBNEW 4.0.6) date Fri Jul 21 15:59:53 2017*
%MOMM*%
%LPD*%
G01*
G04 APERTURE LIST*
%ADD10C,0.100000*%
%ADD11R,2.700000X2.700000*%
%ADD12R,1.000000X1.600000*%
%ADD13R,3.000000X2.200000*%
%ADD14R,0.800000X0.750000*%
%ADD15R,0.750000X0.800000*%
%ADD16R,2.300000X3.500000*%
%ADD17R,3.500000X2.300000*%
%ADD18R,1.550000X0.600000*%
%ADD19R,0.900000X0.600000*%
%ADD20R,0.600000X0.900000*%
%ADD21R,0.600000X1.050000*%
%ADD22R,0.900000X0.500000*%
%ADD23R,0.500000X0.900000*%
%ADD24R,3.500000X3.500000*%
%ADD25R,1.500000X0.600000*%
%ADD26R,0.800000X1.500000*%
%ADD27R,1.450000X0.450000*%
%ADD28R,2.860000X5.500000*%
G04 APERTURE END LIST*
D10*
D11*
X82931000Y-76200000D03*
X76711000Y-76200000D03*
X82931000Y-83820000D03*
X76711000Y-83820000D03*
D12*
X78407000Y-73279000D03*
X81407000Y-73279000D03*
D13*
X72517000Y-82550000D03*
X72517000Y-76750000D03*
D14*
X127623000Y-24511000D03*
X126123000Y-24511000D03*
D15*
X99441000Y-83185000D03*
X99441000Y-81685000D03*
D14*
X116471000Y-49276000D03*
X117971000Y-49276000D03*
X116193000Y-59944000D03*
X114693000Y-59944000D03*
D15*
X115062000Y-67703000D03*
X115062000Y-69203000D03*
D14*
X75716000Y-62230000D03*
X77216000Y-62230000D03*
X88404000Y-30353000D03*
X89904000Y-30353000D03*
X83935000Y-60325000D03*
X82435000Y-60325000D03*
X83935000Y-59055000D03*
X82435000Y-59055000D03*
X93357000Y-58801000D03*
X94857000Y-58801000D03*
X93357000Y-60325000D03*
X94857000Y-60325000D03*
X83935000Y-62865000D03*
X82435000Y-62865000D03*
X83935000Y-56515000D03*
X82435000Y-56515000D03*
X93357000Y-56261000D03*
X94857000Y-56261000D03*
X93357000Y-62865000D03*
X94857000Y-62865000D03*
D16*
X99187000Y-53627000D03*
X99187000Y-48227000D03*
D17*
X119601000Y-37211000D03*
X125001000Y-37211000D03*
D11*
X92961000Y-76200000D03*
X86741000Y-76200000D03*
X92961000Y-83820000D03*
X86741000Y-83820000D03*
D18*
X102296000Y-78105000D03*
X102296000Y-76835000D03*
X102296000Y-75565000D03*
X102296000Y-74295000D03*
X107696000Y-74295000D03*
X107696000Y-75565000D03*
X107696000Y-76835000D03*
X107696000Y-78105000D03*
D19*
X127506000Y-47470000D03*
X127506000Y-46620000D03*
X127506000Y-48320000D03*
X129806000Y-47470000D03*
X129806000Y-46620000D03*
X129806000Y-48320000D03*
X128656000Y-48320000D03*
X128656000Y-46620000D03*
D20*
X126776000Y-50170000D03*
X130536000Y-50170000D03*
X128056000Y-50170000D03*
D21*
X128016000Y-44450000D03*
X126746000Y-44450000D03*
X129296000Y-44450000D03*
X130566000Y-44450000D03*
D20*
X129256000Y-50170000D03*
D19*
X128656000Y-47470000D03*
X127506000Y-58265000D03*
X127506000Y-57415000D03*
X127506000Y-59115000D03*
X129806000Y-58265000D03*
X129806000Y-57415000D03*
X129806000Y-59115000D03*
X128656000Y-59115000D03*
X128656000Y-57415000D03*
D20*
X126776000Y-60965000D03*
X130536000Y-60965000D03*
X128056000Y-60965000D03*
D21*
X128016000Y-55245000D03*
X126746000Y-55245000D03*
X129296000Y-55245000D03*
X130566000Y-55245000D03*
D20*
X129256000Y-60965000D03*
D19*
X128656000Y-58265000D03*
X127496000Y-69695000D03*
X127496000Y-68845000D03*
X127496000Y-70545000D03*
X129796000Y-69695000D03*
X129796000Y-68845000D03*
X129796000Y-70545000D03*
X128646000Y-70545000D03*
X128646000Y-68845000D03*
D20*
X126766000Y-72395000D03*
X130526000Y-72395000D03*
X128046000Y-72395000D03*
D21*
X128006000Y-66675000D03*
X126736000Y-66675000D03*
X129286000Y-66675000D03*
X130556000Y-66675000D03*
D20*
X129246000Y-72395000D03*
D19*
X128646000Y-69695000D03*
D22*
X95885000Y-47395000D03*
X95885000Y-48895000D03*
D23*
X93091000Y-72390000D03*
X91591000Y-72390000D03*
D24*
X116176000Y-82550000D03*
X109376000Y-82550000D03*
D23*
X57519000Y-61468000D03*
X56019000Y-61468000D03*
X53606000Y-61468000D03*
X55106000Y-61468000D03*
X59920000Y-61468000D03*
X58420000Y-61468000D03*
X58317000Y-71628000D03*
X59817000Y-71628000D03*
X55475000Y-71882000D03*
X53975000Y-71882000D03*
D22*
X56896000Y-72874000D03*
X56896000Y-71374000D03*
D23*
X129171000Y-42545000D03*
X130671000Y-42545000D03*
X129056000Y-53340000D03*
X130556000Y-53340000D03*
X129056000Y-64770000D03*
X130556000Y-64770000D03*
X85483000Y-63627000D03*
X86983000Y-63627000D03*
X83082000Y-55118000D03*
X84582000Y-55118000D03*
D22*
X96393000Y-57797000D03*
X96393000Y-59297000D03*
X96393000Y-61837000D03*
X96393000Y-60337000D03*
D23*
X83935000Y-61595000D03*
X82435000Y-61595000D03*
X83935000Y-57785000D03*
X82435000Y-57785000D03*
X93357000Y-57531000D03*
X94857000Y-57531000D03*
X93357000Y-61595000D03*
X94857000Y-61595000D03*
D25*
X93632000Y-37973000D03*
X93632000Y-39243000D03*
X93632000Y-40513000D03*
X93632000Y-41783000D03*
X93632000Y-43053000D03*
X93632000Y-44323000D03*
X93632000Y-45593000D03*
X93632000Y-46863000D03*
X88232000Y-46863000D03*
X88232000Y-45593000D03*
X88232000Y-44323000D03*
X88232000Y-43053000D03*
X88232000Y-41783000D03*
X88232000Y-40513000D03*
X88232000Y-39243000D03*
X88232000Y-37973000D03*
D18*
X115095000Y-50546000D03*
X115095000Y-51816000D03*
X115095000Y-53086000D03*
X115095000Y-54356000D03*
X109695000Y-54356000D03*
X109695000Y-53086000D03*
X109695000Y-51816000D03*
X109695000Y-50546000D03*
D26*
X56896000Y-63169000D03*
X55626000Y-63169000D03*
X55626000Y-69469000D03*
X56896000Y-69469000D03*
X53721000Y-63169000D03*
X52451000Y-63169000D03*
X52451000Y-69469000D03*
X53721000Y-69469000D03*
X60071000Y-63169000D03*
X58801000Y-63169000D03*
X58801000Y-69469000D03*
X60071000Y-69469000D03*
D18*
X124206000Y-43180000D03*
X124206000Y-44450000D03*
X124206000Y-45720000D03*
X124206000Y-46990000D03*
X118806000Y-46990000D03*
X118806000Y-45720000D03*
X118806000Y-44450000D03*
X118806000Y-43180000D03*
X124206000Y-53975000D03*
X124206000Y-55245000D03*
X124206000Y-56515000D03*
X124206000Y-57785000D03*
X118806000Y-57785000D03*
X118806000Y-56515000D03*
X118806000Y-55245000D03*
X118806000Y-53975000D03*
X124206000Y-65405000D03*
X124206000Y-66675000D03*
X124206000Y-67945000D03*
X124206000Y-69215000D03*
X118806000Y-69215000D03*
X118806000Y-67945000D03*
X118806000Y-66675000D03*
X118806000Y-65405000D03*
D27*
X71316000Y-60975000D03*
X71316000Y-60325000D03*
X71316000Y-59675000D03*
X71316000Y-59025000D03*
X71316000Y-58375000D03*
X71316000Y-57725000D03*
X71316000Y-57075000D03*
X71316000Y-56425000D03*
X71316000Y-55775000D03*
X71316000Y-55125000D03*
X77216000Y-55125000D03*
X77216000Y-55775000D03*
X77216000Y-56425000D03*
X77216000Y-57075000D03*
X77216000Y-57725000D03*
X77216000Y-58375000D03*
X77216000Y-59025000D03*
X77216000Y-59675000D03*
X77216000Y-60325000D03*
X77216000Y-60975000D03*
X85667000Y-61655000D03*
X85667000Y-61005000D03*
X85667000Y-60355000D03*
X85667000Y-59705000D03*
X85667000Y-59055000D03*
X85667000Y-58405000D03*
X85667000Y-57755000D03*
X91567000Y-57755000D03*
X91567000Y-58405000D03*
X91567000Y-59055000D03*
X91567000Y-59705000D03*
X91567000Y-60355000D03*
X91567000Y-61005000D03*
X91567000Y-61655000D03*
D28*
X111506000Y-76200000D03*
X118406000Y-76200000D03*
D22*
X70104000Y-30226000D03*
X70104000Y-31726000D03*
X133096000Y-25920000D03*
X133096000Y-27420000D03*
X50673000Y-61226000D03*
X50673000Y-62726000D03*
X109728000Y-57634000D03*
X109728000Y-56134000D03*
D14*
X91452000Y-48133000D03*
X92952000Y-48133000D03*
D22*
X58928000Y-76327000D03*
X58928000Y-74827000D03*
D15*
X107823000Y-52717000D03*
X107823000Y-54217000D03*
X117094000Y-45986000D03*
X117094000Y-47486000D03*
X117094000Y-56781000D03*
X117094000Y-58281000D03*
X117094000Y-67703000D03*
X117094000Y-69203000D03*
D22*
X105918000Y-79387000D03*
X105918000Y-80887000D03*
X116586000Y-72251000D03*
X116586000Y-70751000D03*
D10*
G36*
X112862992Y-69832322D02*
X113393322Y-69301992D01*
X113959008Y-69867678D01*
X113428678Y-70398008D01*
X112862992Y-69832322D01*
X112862992Y-69832322D01*
G37*
G36*
X113923652Y-70892982D02*
X114453982Y-70362652D01*
X115019668Y-70928338D01*
X114489338Y-71458668D01*
X113923652Y-70892982D01*
X113923652Y-70892982D01*
G37*
D15*
X116586000Y-43930000D03*
X116586000Y-42430000D03*
D14*
X107823000Y-51435000D03*
X106323000Y-51435000D03*
D23*
X89130000Y-71374000D03*
X87630000Y-71374000D03*
M02*
