G04 #@! TF.GenerationSoftware,KiCad,Pcbnew,5.0.0-4.fc29*
G04 #@! TF.CreationDate,2019-01-05T16:59:36+01:00*
G04 #@! TF.ProjectId,powerboard,706F776572626F6172642E6B69636164,rev11*
G04 #@! TF.SameCoordinates,Original*
G04 #@! TF.FileFunction,Soldermask,Bot*
G04 #@! TF.FilePolarity,Negative*
%FSLAX46Y46*%
G04 Gerber Fmt 4.6, Leading zero omitted, Abs format (unit mm)*
G04 Created by KiCad (PCBNEW 5.0.0-4.fc29) date Sat Jan  5 16:59:36 2019*
%MOMM*%
%LPD*%
G01*
G04 APERTURE LIST*
%ADD10R,1.900000X2.600000*%
%ADD11R,2.600000X1.900000*%
%ADD12C,0.100000*%
%ADD13C,0.975000*%
%ADD14C,6.500000*%
%ADD15R,1.100000X1.350000*%
%ADD16R,2.800000X2.800000*%
%ADD17R,1.100000X1.700000*%
%ADD18R,0.900000X0.850000*%
%ADD19R,0.850000X0.900000*%
%ADD20R,1.800000X1.800000*%
%ADD21O,1.800000X1.800000*%
%ADD22C,0.700000*%
%ADD23R,1.650000X0.700000*%
%ADD24R,0.840000X1.290000*%
%ADD25R,4.840000X1.690000*%
%ADD26R,4.340000X3.440000*%
%ADD27R,1.000000X0.600000*%
%ADD28R,0.600000X1.000000*%
%ADD29R,1.600000X0.700000*%
%ADD30R,0.900000X1.600000*%
%ADD31R,1.550000X0.550000*%
%ADD32R,2.960000X5.600000*%
%ADD33C,3.910000*%
%ADD34R,1.620000X1.620000*%
%ADD35C,1.620000*%
%ADD36C,1.600000*%
%ADD37R,1.100000X3.100000*%
%ADD38R,2.600000X2.400000*%
%ADD39R,1.700000X3.600000*%
%ADD40R,1.800000X1.000000*%
%ADD41R,1.000000X1.800000*%
%ADD42C,1.000000*%
%ADD43R,1.900000X1.900000*%
%ADD44O,1.900000X1.900000*%
%ADD45R,1.100000X2.600000*%
%ADD46R,1.350000X1.100000*%
%ADD47R,4.100000X2.600000*%
%ADD48R,1.000000X0.900000*%
%ADD49C,0.254000*%
G04 APERTURE END LIST*
D10*
G04 #@! TO.C,D104*
X70802500Y-81066500D03*
X70802500Y-77066500D03*
G04 #@! TD*
D11*
G04 #@! TO.C,D105*
X106744000Y-48006000D03*
X110744000Y-48006000D03*
G04 #@! TD*
D12*
G04 #@! TO.C,R136*
G36*
X72568142Y-33905174D02*
X72591803Y-33908684D01*
X72615007Y-33914496D01*
X72637529Y-33922554D01*
X72659153Y-33932782D01*
X72679670Y-33945079D01*
X72698883Y-33959329D01*
X72716607Y-33975393D01*
X72732671Y-33993117D01*
X72746921Y-34012330D01*
X72759218Y-34032847D01*
X72769446Y-34054471D01*
X72777504Y-34076993D01*
X72783316Y-34100197D01*
X72786826Y-34123858D01*
X72788000Y-34147750D01*
X72788000Y-34635250D01*
X72786826Y-34659142D01*
X72783316Y-34682803D01*
X72777504Y-34706007D01*
X72769446Y-34728529D01*
X72759218Y-34750153D01*
X72746921Y-34770670D01*
X72732671Y-34789883D01*
X72716607Y-34807607D01*
X72698883Y-34823671D01*
X72679670Y-34837921D01*
X72659153Y-34850218D01*
X72637529Y-34860446D01*
X72615007Y-34868504D01*
X72591803Y-34874316D01*
X72568142Y-34877826D01*
X72544250Y-34879000D01*
X71981750Y-34879000D01*
X71957858Y-34877826D01*
X71934197Y-34874316D01*
X71910993Y-34868504D01*
X71888471Y-34860446D01*
X71866847Y-34850218D01*
X71846330Y-34837921D01*
X71827117Y-34823671D01*
X71809393Y-34807607D01*
X71793329Y-34789883D01*
X71779079Y-34770670D01*
X71766782Y-34750153D01*
X71756554Y-34728529D01*
X71748496Y-34706007D01*
X71742684Y-34682803D01*
X71739174Y-34659142D01*
X71738000Y-34635250D01*
X71738000Y-34147750D01*
X71739174Y-34123858D01*
X71742684Y-34100197D01*
X71748496Y-34076993D01*
X71756554Y-34054471D01*
X71766782Y-34032847D01*
X71779079Y-34012330D01*
X71793329Y-33993117D01*
X71809393Y-33975393D01*
X71827117Y-33959329D01*
X71846330Y-33945079D01*
X71866847Y-33932782D01*
X71888471Y-33922554D01*
X71910993Y-33914496D01*
X71934197Y-33908684D01*
X71957858Y-33905174D01*
X71981750Y-33904000D01*
X72544250Y-33904000D01*
X72568142Y-33905174D01*
X72568142Y-33905174D01*
G37*
D13*
X72263000Y-34391500D03*
D12*
G36*
X72568142Y-35480174D02*
X72591803Y-35483684D01*
X72615007Y-35489496D01*
X72637529Y-35497554D01*
X72659153Y-35507782D01*
X72679670Y-35520079D01*
X72698883Y-35534329D01*
X72716607Y-35550393D01*
X72732671Y-35568117D01*
X72746921Y-35587330D01*
X72759218Y-35607847D01*
X72769446Y-35629471D01*
X72777504Y-35651993D01*
X72783316Y-35675197D01*
X72786826Y-35698858D01*
X72788000Y-35722750D01*
X72788000Y-36210250D01*
X72786826Y-36234142D01*
X72783316Y-36257803D01*
X72777504Y-36281007D01*
X72769446Y-36303529D01*
X72759218Y-36325153D01*
X72746921Y-36345670D01*
X72732671Y-36364883D01*
X72716607Y-36382607D01*
X72698883Y-36398671D01*
X72679670Y-36412921D01*
X72659153Y-36425218D01*
X72637529Y-36435446D01*
X72615007Y-36443504D01*
X72591803Y-36449316D01*
X72568142Y-36452826D01*
X72544250Y-36454000D01*
X71981750Y-36454000D01*
X71957858Y-36452826D01*
X71934197Y-36449316D01*
X71910993Y-36443504D01*
X71888471Y-36435446D01*
X71866847Y-36425218D01*
X71846330Y-36412921D01*
X71827117Y-36398671D01*
X71809393Y-36382607D01*
X71793329Y-36364883D01*
X71779079Y-36345670D01*
X71766782Y-36325153D01*
X71756554Y-36303529D01*
X71748496Y-36281007D01*
X71742684Y-36257803D01*
X71739174Y-36234142D01*
X71738000Y-36210250D01*
X71738000Y-35722750D01*
X71739174Y-35698858D01*
X71742684Y-35675197D01*
X71748496Y-35651993D01*
X71756554Y-35629471D01*
X71766782Y-35607847D01*
X71779079Y-35587330D01*
X71793329Y-35568117D01*
X71809393Y-35550393D01*
X71827117Y-35534329D01*
X71846330Y-35520079D01*
X71866847Y-35507782D01*
X71888471Y-35497554D01*
X71910993Y-35489496D01*
X71934197Y-35483684D01*
X71957858Y-35480174D01*
X71981750Y-35479000D01*
X72544250Y-35479000D01*
X72568142Y-35480174D01*
X72568142Y-35480174D01*
G37*
D13*
X72263000Y-35966500D03*
G04 #@! TD*
D12*
G04 #@! TO.C,R137*
G36*
X120305142Y-31726174D02*
X120328803Y-31729684D01*
X120352007Y-31735496D01*
X120374529Y-31743554D01*
X120396153Y-31753782D01*
X120416670Y-31766079D01*
X120435883Y-31780329D01*
X120453607Y-31796393D01*
X120469671Y-31814117D01*
X120483921Y-31833330D01*
X120496218Y-31853847D01*
X120506446Y-31875471D01*
X120514504Y-31897993D01*
X120520316Y-31921197D01*
X120523826Y-31944858D01*
X120525000Y-31968750D01*
X120525000Y-32531250D01*
X120523826Y-32555142D01*
X120520316Y-32578803D01*
X120514504Y-32602007D01*
X120506446Y-32624529D01*
X120496218Y-32646153D01*
X120483921Y-32666670D01*
X120469671Y-32685883D01*
X120453607Y-32703607D01*
X120435883Y-32719671D01*
X120416670Y-32733921D01*
X120396153Y-32746218D01*
X120374529Y-32756446D01*
X120352007Y-32764504D01*
X120328803Y-32770316D01*
X120305142Y-32773826D01*
X120281250Y-32775000D01*
X119793750Y-32775000D01*
X119769858Y-32773826D01*
X119746197Y-32770316D01*
X119722993Y-32764504D01*
X119700471Y-32756446D01*
X119678847Y-32746218D01*
X119658330Y-32733921D01*
X119639117Y-32719671D01*
X119621393Y-32703607D01*
X119605329Y-32685883D01*
X119591079Y-32666670D01*
X119578782Y-32646153D01*
X119568554Y-32624529D01*
X119560496Y-32602007D01*
X119554684Y-32578803D01*
X119551174Y-32555142D01*
X119550000Y-32531250D01*
X119550000Y-31968750D01*
X119551174Y-31944858D01*
X119554684Y-31921197D01*
X119560496Y-31897993D01*
X119568554Y-31875471D01*
X119578782Y-31853847D01*
X119591079Y-31833330D01*
X119605329Y-31814117D01*
X119621393Y-31796393D01*
X119639117Y-31780329D01*
X119658330Y-31766079D01*
X119678847Y-31753782D01*
X119700471Y-31743554D01*
X119722993Y-31735496D01*
X119746197Y-31729684D01*
X119769858Y-31726174D01*
X119793750Y-31725000D01*
X120281250Y-31725000D01*
X120305142Y-31726174D01*
X120305142Y-31726174D01*
G37*
D13*
X120037500Y-32250000D03*
D12*
G36*
X118730142Y-31726174D02*
X118753803Y-31729684D01*
X118777007Y-31735496D01*
X118799529Y-31743554D01*
X118821153Y-31753782D01*
X118841670Y-31766079D01*
X118860883Y-31780329D01*
X118878607Y-31796393D01*
X118894671Y-31814117D01*
X118908921Y-31833330D01*
X118921218Y-31853847D01*
X118931446Y-31875471D01*
X118939504Y-31897993D01*
X118945316Y-31921197D01*
X118948826Y-31944858D01*
X118950000Y-31968750D01*
X118950000Y-32531250D01*
X118948826Y-32555142D01*
X118945316Y-32578803D01*
X118939504Y-32602007D01*
X118931446Y-32624529D01*
X118921218Y-32646153D01*
X118908921Y-32666670D01*
X118894671Y-32685883D01*
X118878607Y-32703607D01*
X118860883Y-32719671D01*
X118841670Y-32733921D01*
X118821153Y-32746218D01*
X118799529Y-32756446D01*
X118777007Y-32764504D01*
X118753803Y-32770316D01*
X118730142Y-32773826D01*
X118706250Y-32775000D01*
X118218750Y-32775000D01*
X118194858Y-32773826D01*
X118171197Y-32770316D01*
X118147993Y-32764504D01*
X118125471Y-32756446D01*
X118103847Y-32746218D01*
X118083330Y-32733921D01*
X118064117Y-32719671D01*
X118046393Y-32703607D01*
X118030329Y-32685883D01*
X118016079Y-32666670D01*
X118003782Y-32646153D01*
X117993554Y-32624529D01*
X117985496Y-32602007D01*
X117979684Y-32578803D01*
X117976174Y-32555142D01*
X117975000Y-32531250D01*
X117975000Y-31968750D01*
X117976174Y-31944858D01*
X117979684Y-31921197D01*
X117985496Y-31897993D01*
X117993554Y-31875471D01*
X118003782Y-31853847D01*
X118016079Y-31833330D01*
X118030329Y-31814117D01*
X118046393Y-31796393D01*
X118064117Y-31780329D01*
X118083330Y-31766079D01*
X118103847Y-31753782D01*
X118125471Y-31743554D01*
X118147993Y-31735496D01*
X118171197Y-31729684D01*
X118194858Y-31726174D01*
X118218750Y-31725000D01*
X118706250Y-31725000D01*
X118730142Y-31726174D01*
X118730142Y-31726174D01*
G37*
D13*
X118462500Y-32250000D03*
G04 #@! TD*
D12*
G04 #@! TO.C,R133*
G36*
X94285142Y-30349174D02*
X94308803Y-30352684D01*
X94332007Y-30358496D01*
X94354529Y-30366554D01*
X94376153Y-30376782D01*
X94396670Y-30389079D01*
X94415883Y-30403329D01*
X94433607Y-30419393D01*
X94449671Y-30437117D01*
X94463921Y-30456330D01*
X94476218Y-30476847D01*
X94486446Y-30498471D01*
X94494504Y-30520993D01*
X94500316Y-30544197D01*
X94503826Y-30567858D01*
X94505000Y-30591750D01*
X94505000Y-31079250D01*
X94503826Y-31103142D01*
X94500316Y-31126803D01*
X94494504Y-31150007D01*
X94486446Y-31172529D01*
X94476218Y-31194153D01*
X94463921Y-31214670D01*
X94449671Y-31233883D01*
X94433607Y-31251607D01*
X94415883Y-31267671D01*
X94396670Y-31281921D01*
X94376153Y-31294218D01*
X94354529Y-31304446D01*
X94332007Y-31312504D01*
X94308803Y-31318316D01*
X94285142Y-31321826D01*
X94261250Y-31323000D01*
X93698750Y-31323000D01*
X93674858Y-31321826D01*
X93651197Y-31318316D01*
X93627993Y-31312504D01*
X93605471Y-31304446D01*
X93583847Y-31294218D01*
X93563330Y-31281921D01*
X93544117Y-31267671D01*
X93526393Y-31251607D01*
X93510329Y-31233883D01*
X93496079Y-31214670D01*
X93483782Y-31194153D01*
X93473554Y-31172529D01*
X93465496Y-31150007D01*
X93459684Y-31126803D01*
X93456174Y-31103142D01*
X93455000Y-31079250D01*
X93455000Y-30591750D01*
X93456174Y-30567858D01*
X93459684Y-30544197D01*
X93465496Y-30520993D01*
X93473554Y-30498471D01*
X93483782Y-30476847D01*
X93496079Y-30456330D01*
X93510329Y-30437117D01*
X93526393Y-30419393D01*
X93544117Y-30403329D01*
X93563330Y-30389079D01*
X93583847Y-30376782D01*
X93605471Y-30366554D01*
X93627993Y-30358496D01*
X93651197Y-30352684D01*
X93674858Y-30349174D01*
X93698750Y-30348000D01*
X94261250Y-30348000D01*
X94285142Y-30349174D01*
X94285142Y-30349174D01*
G37*
D13*
X93980000Y-30835500D03*
D12*
G36*
X94285142Y-31924174D02*
X94308803Y-31927684D01*
X94332007Y-31933496D01*
X94354529Y-31941554D01*
X94376153Y-31951782D01*
X94396670Y-31964079D01*
X94415883Y-31978329D01*
X94433607Y-31994393D01*
X94449671Y-32012117D01*
X94463921Y-32031330D01*
X94476218Y-32051847D01*
X94486446Y-32073471D01*
X94494504Y-32095993D01*
X94500316Y-32119197D01*
X94503826Y-32142858D01*
X94505000Y-32166750D01*
X94505000Y-32654250D01*
X94503826Y-32678142D01*
X94500316Y-32701803D01*
X94494504Y-32725007D01*
X94486446Y-32747529D01*
X94476218Y-32769153D01*
X94463921Y-32789670D01*
X94449671Y-32808883D01*
X94433607Y-32826607D01*
X94415883Y-32842671D01*
X94396670Y-32856921D01*
X94376153Y-32869218D01*
X94354529Y-32879446D01*
X94332007Y-32887504D01*
X94308803Y-32893316D01*
X94285142Y-32896826D01*
X94261250Y-32898000D01*
X93698750Y-32898000D01*
X93674858Y-32896826D01*
X93651197Y-32893316D01*
X93627993Y-32887504D01*
X93605471Y-32879446D01*
X93583847Y-32869218D01*
X93563330Y-32856921D01*
X93544117Y-32842671D01*
X93526393Y-32826607D01*
X93510329Y-32808883D01*
X93496079Y-32789670D01*
X93483782Y-32769153D01*
X93473554Y-32747529D01*
X93465496Y-32725007D01*
X93459684Y-32701803D01*
X93456174Y-32678142D01*
X93455000Y-32654250D01*
X93455000Y-32166750D01*
X93456174Y-32142858D01*
X93459684Y-32119197D01*
X93465496Y-32095993D01*
X93473554Y-32073471D01*
X93483782Y-32051847D01*
X93496079Y-32031330D01*
X93510329Y-32012117D01*
X93526393Y-31994393D01*
X93544117Y-31978329D01*
X93563330Y-31964079D01*
X93583847Y-31951782D01*
X93605471Y-31941554D01*
X93627993Y-31933496D01*
X93651197Y-31927684D01*
X93674858Y-31924174D01*
X93698750Y-31923000D01*
X94261250Y-31923000D01*
X94285142Y-31924174D01*
X94285142Y-31924174D01*
G37*
D13*
X93980000Y-32410500D03*
G04 #@! TD*
D12*
G04 #@! TO.C,R135*
G36*
X70536142Y-34540174D02*
X70559803Y-34543684D01*
X70583007Y-34549496D01*
X70605529Y-34557554D01*
X70627153Y-34567782D01*
X70647670Y-34580079D01*
X70666883Y-34594329D01*
X70684607Y-34610393D01*
X70700671Y-34628117D01*
X70714921Y-34647330D01*
X70727218Y-34667847D01*
X70737446Y-34689471D01*
X70745504Y-34711993D01*
X70751316Y-34735197D01*
X70754826Y-34758858D01*
X70756000Y-34782750D01*
X70756000Y-35270250D01*
X70754826Y-35294142D01*
X70751316Y-35317803D01*
X70745504Y-35341007D01*
X70737446Y-35363529D01*
X70727218Y-35385153D01*
X70714921Y-35405670D01*
X70700671Y-35424883D01*
X70684607Y-35442607D01*
X70666883Y-35458671D01*
X70647670Y-35472921D01*
X70627153Y-35485218D01*
X70605529Y-35495446D01*
X70583007Y-35503504D01*
X70559803Y-35509316D01*
X70536142Y-35512826D01*
X70512250Y-35514000D01*
X69949750Y-35514000D01*
X69925858Y-35512826D01*
X69902197Y-35509316D01*
X69878993Y-35503504D01*
X69856471Y-35495446D01*
X69834847Y-35485218D01*
X69814330Y-35472921D01*
X69795117Y-35458671D01*
X69777393Y-35442607D01*
X69761329Y-35424883D01*
X69747079Y-35405670D01*
X69734782Y-35385153D01*
X69724554Y-35363529D01*
X69716496Y-35341007D01*
X69710684Y-35317803D01*
X69707174Y-35294142D01*
X69706000Y-35270250D01*
X69706000Y-34782750D01*
X69707174Y-34758858D01*
X69710684Y-34735197D01*
X69716496Y-34711993D01*
X69724554Y-34689471D01*
X69734782Y-34667847D01*
X69747079Y-34647330D01*
X69761329Y-34628117D01*
X69777393Y-34610393D01*
X69795117Y-34594329D01*
X69814330Y-34580079D01*
X69834847Y-34567782D01*
X69856471Y-34557554D01*
X69878993Y-34549496D01*
X69902197Y-34543684D01*
X69925858Y-34540174D01*
X69949750Y-34539000D01*
X70512250Y-34539000D01*
X70536142Y-34540174D01*
X70536142Y-34540174D01*
G37*
D13*
X70231000Y-35026500D03*
D12*
G36*
X70536142Y-36115174D02*
X70559803Y-36118684D01*
X70583007Y-36124496D01*
X70605529Y-36132554D01*
X70627153Y-36142782D01*
X70647670Y-36155079D01*
X70666883Y-36169329D01*
X70684607Y-36185393D01*
X70700671Y-36203117D01*
X70714921Y-36222330D01*
X70727218Y-36242847D01*
X70737446Y-36264471D01*
X70745504Y-36286993D01*
X70751316Y-36310197D01*
X70754826Y-36333858D01*
X70756000Y-36357750D01*
X70756000Y-36845250D01*
X70754826Y-36869142D01*
X70751316Y-36892803D01*
X70745504Y-36916007D01*
X70737446Y-36938529D01*
X70727218Y-36960153D01*
X70714921Y-36980670D01*
X70700671Y-36999883D01*
X70684607Y-37017607D01*
X70666883Y-37033671D01*
X70647670Y-37047921D01*
X70627153Y-37060218D01*
X70605529Y-37070446D01*
X70583007Y-37078504D01*
X70559803Y-37084316D01*
X70536142Y-37087826D01*
X70512250Y-37089000D01*
X69949750Y-37089000D01*
X69925858Y-37087826D01*
X69902197Y-37084316D01*
X69878993Y-37078504D01*
X69856471Y-37070446D01*
X69834847Y-37060218D01*
X69814330Y-37047921D01*
X69795117Y-37033671D01*
X69777393Y-37017607D01*
X69761329Y-36999883D01*
X69747079Y-36980670D01*
X69734782Y-36960153D01*
X69724554Y-36938529D01*
X69716496Y-36916007D01*
X69710684Y-36892803D01*
X69707174Y-36869142D01*
X69706000Y-36845250D01*
X69706000Y-36357750D01*
X69707174Y-36333858D01*
X69710684Y-36310197D01*
X69716496Y-36286993D01*
X69724554Y-36264471D01*
X69734782Y-36242847D01*
X69747079Y-36222330D01*
X69761329Y-36203117D01*
X69777393Y-36185393D01*
X69795117Y-36169329D01*
X69814330Y-36155079D01*
X69834847Y-36142782D01*
X69856471Y-36132554D01*
X69878993Y-36124496D01*
X69902197Y-36118684D01*
X69925858Y-36115174D01*
X69949750Y-36114000D01*
X70512250Y-36114000D01*
X70536142Y-36115174D01*
X70536142Y-36115174D01*
G37*
D13*
X70231000Y-36601500D03*
G04 #@! TD*
D12*
G04 #@! TO.C,R132*
G36*
X92888142Y-33143174D02*
X92911803Y-33146684D01*
X92935007Y-33152496D01*
X92957529Y-33160554D01*
X92979153Y-33170782D01*
X92999670Y-33183079D01*
X93018883Y-33197329D01*
X93036607Y-33213393D01*
X93052671Y-33231117D01*
X93066921Y-33250330D01*
X93079218Y-33270847D01*
X93089446Y-33292471D01*
X93097504Y-33314993D01*
X93103316Y-33338197D01*
X93106826Y-33361858D01*
X93108000Y-33385750D01*
X93108000Y-33873250D01*
X93106826Y-33897142D01*
X93103316Y-33920803D01*
X93097504Y-33944007D01*
X93089446Y-33966529D01*
X93079218Y-33988153D01*
X93066921Y-34008670D01*
X93052671Y-34027883D01*
X93036607Y-34045607D01*
X93018883Y-34061671D01*
X92999670Y-34075921D01*
X92979153Y-34088218D01*
X92957529Y-34098446D01*
X92935007Y-34106504D01*
X92911803Y-34112316D01*
X92888142Y-34115826D01*
X92864250Y-34117000D01*
X92301750Y-34117000D01*
X92277858Y-34115826D01*
X92254197Y-34112316D01*
X92230993Y-34106504D01*
X92208471Y-34098446D01*
X92186847Y-34088218D01*
X92166330Y-34075921D01*
X92147117Y-34061671D01*
X92129393Y-34045607D01*
X92113329Y-34027883D01*
X92099079Y-34008670D01*
X92086782Y-33988153D01*
X92076554Y-33966529D01*
X92068496Y-33944007D01*
X92062684Y-33920803D01*
X92059174Y-33897142D01*
X92058000Y-33873250D01*
X92058000Y-33385750D01*
X92059174Y-33361858D01*
X92062684Y-33338197D01*
X92068496Y-33314993D01*
X92076554Y-33292471D01*
X92086782Y-33270847D01*
X92099079Y-33250330D01*
X92113329Y-33231117D01*
X92129393Y-33213393D01*
X92147117Y-33197329D01*
X92166330Y-33183079D01*
X92186847Y-33170782D01*
X92208471Y-33160554D01*
X92230993Y-33152496D01*
X92254197Y-33146684D01*
X92277858Y-33143174D01*
X92301750Y-33142000D01*
X92864250Y-33142000D01*
X92888142Y-33143174D01*
X92888142Y-33143174D01*
G37*
D13*
X92583000Y-33629500D03*
D12*
G36*
X92888142Y-34718174D02*
X92911803Y-34721684D01*
X92935007Y-34727496D01*
X92957529Y-34735554D01*
X92979153Y-34745782D01*
X92999670Y-34758079D01*
X93018883Y-34772329D01*
X93036607Y-34788393D01*
X93052671Y-34806117D01*
X93066921Y-34825330D01*
X93079218Y-34845847D01*
X93089446Y-34867471D01*
X93097504Y-34889993D01*
X93103316Y-34913197D01*
X93106826Y-34936858D01*
X93108000Y-34960750D01*
X93108000Y-35448250D01*
X93106826Y-35472142D01*
X93103316Y-35495803D01*
X93097504Y-35519007D01*
X93089446Y-35541529D01*
X93079218Y-35563153D01*
X93066921Y-35583670D01*
X93052671Y-35602883D01*
X93036607Y-35620607D01*
X93018883Y-35636671D01*
X92999670Y-35650921D01*
X92979153Y-35663218D01*
X92957529Y-35673446D01*
X92935007Y-35681504D01*
X92911803Y-35687316D01*
X92888142Y-35690826D01*
X92864250Y-35692000D01*
X92301750Y-35692000D01*
X92277858Y-35690826D01*
X92254197Y-35687316D01*
X92230993Y-35681504D01*
X92208471Y-35673446D01*
X92186847Y-35663218D01*
X92166330Y-35650921D01*
X92147117Y-35636671D01*
X92129393Y-35620607D01*
X92113329Y-35602883D01*
X92099079Y-35583670D01*
X92086782Y-35563153D01*
X92076554Y-35541529D01*
X92068496Y-35519007D01*
X92062684Y-35495803D01*
X92059174Y-35472142D01*
X92058000Y-35448250D01*
X92058000Y-34960750D01*
X92059174Y-34936858D01*
X92062684Y-34913197D01*
X92068496Y-34889993D01*
X92076554Y-34867471D01*
X92086782Y-34845847D01*
X92099079Y-34825330D01*
X92113329Y-34806117D01*
X92129393Y-34788393D01*
X92147117Y-34772329D01*
X92166330Y-34758079D01*
X92186847Y-34745782D01*
X92208471Y-34735554D01*
X92230993Y-34727496D01*
X92254197Y-34721684D01*
X92277858Y-34718174D01*
X92301750Y-34717000D01*
X92864250Y-34717000D01*
X92888142Y-34718174D01*
X92888142Y-34718174D01*
G37*
D13*
X92583000Y-35204500D03*
G04 #@! TD*
D12*
G04 #@! TO.C,R134*
G36*
X70549642Y-32877174D02*
X70573303Y-32880684D01*
X70596507Y-32886496D01*
X70619029Y-32894554D01*
X70640653Y-32904782D01*
X70661170Y-32917079D01*
X70680383Y-32931329D01*
X70698107Y-32947393D01*
X70714171Y-32965117D01*
X70728421Y-32984330D01*
X70740718Y-33004847D01*
X70750946Y-33026471D01*
X70759004Y-33048993D01*
X70764816Y-33072197D01*
X70768326Y-33095858D01*
X70769500Y-33119750D01*
X70769500Y-33682250D01*
X70768326Y-33706142D01*
X70764816Y-33729803D01*
X70759004Y-33753007D01*
X70750946Y-33775529D01*
X70740718Y-33797153D01*
X70728421Y-33817670D01*
X70714171Y-33836883D01*
X70698107Y-33854607D01*
X70680383Y-33870671D01*
X70661170Y-33884921D01*
X70640653Y-33897218D01*
X70619029Y-33907446D01*
X70596507Y-33915504D01*
X70573303Y-33921316D01*
X70549642Y-33924826D01*
X70525750Y-33926000D01*
X70038250Y-33926000D01*
X70014358Y-33924826D01*
X69990697Y-33921316D01*
X69967493Y-33915504D01*
X69944971Y-33907446D01*
X69923347Y-33897218D01*
X69902830Y-33884921D01*
X69883617Y-33870671D01*
X69865893Y-33854607D01*
X69849829Y-33836883D01*
X69835579Y-33817670D01*
X69823282Y-33797153D01*
X69813054Y-33775529D01*
X69804996Y-33753007D01*
X69799184Y-33729803D01*
X69795674Y-33706142D01*
X69794500Y-33682250D01*
X69794500Y-33119750D01*
X69795674Y-33095858D01*
X69799184Y-33072197D01*
X69804996Y-33048993D01*
X69813054Y-33026471D01*
X69823282Y-33004847D01*
X69835579Y-32984330D01*
X69849829Y-32965117D01*
X69865893Y-32947393D01*
X69883617Y-32931329D01*
X69902830Y-32917079D01*
X69923347Y-32904782D01*
X69944971Y-32894554D01*
X69967493Y-32886496D01*
X69990697Y-32880684D01*
X70014358Y-32877174D01*
X70038250Y-32876000D01*
X70525750Y-32876000D01*
X70549642Y-32877174D01*
X70549642Y-32877174D01*
G37*
D13*
X70282000Y-33401000D03*
D12*
G36*
X68974642Y-32877174D02*
X68998303Y-32880684D01*
X69021507Y-32886496D01*
X69044029Y-32894554D01*
X69065653Y-32904782D01*
X69086170Y-32917079D01*
X69105383Y-32931329D01*
X69123107Y-32947393D01*
X69139171Y-32965117D01*
X69153421Y-32984330D01*
X69165718Y-33004847D01*
X69175946Y-33026471D01*
X69184004Y-33048993D01*
X69189816Y-33072197D01*
X69193326Y-33095858D01*
X69194500Y-33119750D01*
X69194500Y-33682250D01*
X69193326Y-33706142D01*
X69189816Y-33729803D01*
X69184004Y-33753007D01*
X69175946Y-33775529D01*
X69165718Y-33797153D01*
X69153421Y-33817670D01*
X69139171Y-33836883D01*
X69123107Y-33854607D01*
X69105383Y-33870671D01*
X69086170Y-33884921D01*
X69065653Y-33897218D01*
X69044029Y-33907446D01*
X69021507Y-33915504D01*
X68998303Y-33921316D01*
X68974642Y-33924826D01*
X68950750Y-33926000D01*
X68463250Y-33926000D01*
X68439358Y-33924826D01*
X68415697Y-33921316D01*
X68392493Y-33915504D01*
X68369971Y-33907446D01*
X68348347Y-33897218D01*
X68327830Y-33884921D01*
X68308617Y-33870671D01*
X68290893Y-33854607D01*
X68274829Y-33836883D01*
X68260579Y-33817670D01*
X68248282Y-33797153D01*
X68238054Y-33775529D01*
X68229996Y-33753007D01*
X68224184Y-33729803D01*
X68220674Y-33706142D01*
X68219500Y-33682250D01*
X68219500Y-33119750D01*
X68220674Y-33095858D01*
X68224184Y-33072197D01*
X68229996Y-33048993D01*
X68238054Y-33026471D01*
X68248282Y-33004847D01*
X68260579Y-32984330D01*
X68274829Y-32965117D01*
X68290893Y-32947393D01*
X68308617Y-32931329D01*
X68327830Y-32917079D01*
X68348347Y-32904782D01*
X68369971Y-32894554D01*
X68392493Y-32886496D01*
X68415697Y-32880684D01*
X68439358Y-32877174D01*
X68463250Y-32876000D01*
X68950750Y-32876000D01*
X68974642Y-32877174D01*
X68974642Y-32877174D01*
G37*
D13*
X68707000Y-33401000D03*
G04 #@! TD*
D12*
G04 #@! TO.C,R131*
G36*
X91364142Y-33930674D02*
X91387803Y-33934184D01*
X91411007Y-33939996D01*
X91433529Y-33948054D01*
X91455153Y-33958282D01*
X91475670Y-33970579D01*
X91494883Y-33984829D01*
X91512607Y-34000893D01*
X91528671Y-34018617D01*
X91542921Y-34037830D01*
X91555218Y-34058347D01*
X91565446Y-34079971D01*
X91573504Y-34102493D01*
X91579316Y-34125697D01*
X91582826Y-34149358D01*
X91584000Y-34173250D01*
X91584000Y-34660750D01*
X91582826Y-34684642D01*
X91579316Y-34708303D01*
X91573504Y-34731507D01*
X91565446Y-34754029D01*
X91555218Y-34775653D01*
X91542921Y-34796170D01*
X91528671Y-34815383D01*
X91512607Y-34833107D01*
X91494883Y-34849171D01*
X91475670Y-34863421D01*
X91455153Y-34875718D01*
X91433529Y-34885946D01*
X91411007Y-34894004D01*
X91387803Y-34899816D01*
X91364142Y-34903326D01*
X91340250Y-34904500D01*
X90777750Y-34904500D01*
X90753858Y-34903326D01*
X90730197Y-34899816D01*
X90706993Y-34894004D01*
X90684471Y-34885946D01*
X90662847Y-34875718D01*
X90642330Y-34863421D01*
X90623117Y-34849171D01*
X90605393Y-34833107D01*
X90589329Y-34815383D01*
X90575079Y-34796170D01*
X90562782Y-34775653D01*
X90552554Y-34754029D01*
X90544496Y-34731507D01*
X90538684Y-34708303D01*
X90535174Y-34684642D01*
X90534000Y-34660750D01*
X90534000Y-34173250D01*
X90535174Y-34149358D01*
X90538684Y-34125697D01*
X90544496Y-34102493D01*
X90552554Y-34079971D01*
X90562782Y-34058347D01*
X90575079Y-34037830D01*
X90589329Y-34018617D01*
X90605393Y-34000893D01*
X90623117Y-33984829D01*
X90642330Y-33970579D01*
X90662847Y-33958282D01*
X90684471Y-33948054D01*
X90706993Y-33939996D01*
X90730197Y-33934184D01*
X90753858Y-33930674D01*
X90777750Y-33929500D01*
X91340250Y-33929500D01*
X91364142Y-33930674D01*
X91364142Y-33930674D01*
G37*
D13*
X91059000Y-34417000D03*
D12*
G36*
X91364142Y-35505674D02*
X91387803Y-35509184D01*
X91411007Y-35514996D01*
X91433529Y-35523054D01*
X91455153Y-35533282D01*
X91475670Y-35545579D01*
X91494883Y-35559829D01*
X91512607Y-35575893D01*
X91528671Y-35593617D01*
X91542921Y-35612830D01*
X91555218Y-35633347D01*
X91565446Y-35654971D01*
X91573504Y-35677493D01*
X91579316Y-35700697D01*
X91582826Y-35724358D01*
X91584000Y-35748250D01*
X91584000Y-36235750D01*
X91582826Y-36259642D01*
X91579316Y-36283303D01*
X91573504Y-36306507D01*
X91565446Y-36329029D01*
X91555218Y-36350653D01*
X91542921Y-36371170D01*
X91528671Y-36390383D01*
X91512607Y-36408107D01*
X91494883Y-36424171D01*
X91475670Y-36438421D01*
X91455153Y-36450718D01*
X91433529Y-36460946D01*
X91411007Y-36469004D01*
X91387803Y-36474816D01*
X91364142Y-36478326D01*
X91340250Y-36479500D01*
X90777750Y-36479500D01*
X90753858Y-36478326D01*
X90730197Y-36474816D01*
X90706993Y-36469004D01*
X90684471Y-36460946D01*
X90662847Y-36450718D01*
X90642330Y-36438421D01*
X90623117Y-36424171D01*
X90605393Y-36408107D01*
X90589329Y-36390383D01*
X90575079Y-36371170D01*
X90562782Y-36350653D01*
X90552554Y-36329029D01*
X90544496Y-36306507D01*
X90538684Y-36283303D01*
X90535174Y-36259642D01*
X90534000Y-36235750D01*
X90534000Y-35748250D01*
X90535174Y-35724358D01*
X90538684Y-35700697D01*
X90544496Y-35677493D01*
X90552554Y-35654971D01*
X90562782Y-35633347D01*
X90575079Y-35612830D01*
X90589329Y-35593617D01*
X90605393Y-35575893D01*
X90623117Y-35559829D01*
X90642330Y-35545579D01*
X90662847Y-35533282D01*
X90684471Y-35523054D01*
X90706993Y-35514996D01*
X90730197Y-35509184D01*
X90753858Y-35505674D01*
X90777750Y-35504500D01*
X91340250Y-35504500D01*
X91364142Y-35505674D01*
X91364142Y-35505674D01*
G37*
D13*
X91059000Y-35992000D03*
G04 #@! TD*
D12*
G04 #@! TO.C,R122*
G36*
X118796642Y-71358174D02*
X118820303Y-71361684D01*
X118843507Y-71367496D01*
X118866029Y-71375554D01*
X118887653Y-71385782D01*
X118908170Y-71398079D01*
X118927383Y-71412329D01*
X118945107Y-71428393D01*
X118961171Y-71446117D01*
X118975421Y-71465330D01*
X118987718Y-71485847D01*
X118997946Y-71507471D01*
X119006004Y-71529993D01*
X119011816Y-71553197D01*
X119015326Y-71576858D01*
X119016500Y-71600750D01*
X119016500Y-72163250D01*
X119015326Y-72187142D01*
X119011816Y-72210803D01*
X119006004Y-72234007D01*
X118997946Y-72256529D01*
X118987718Y-72278153D01*
X118975421Y-72298670D01*
X118961171Y-72317883D01*
X118945107Y-72335607D01*
X118927383Y-72351671D01*
X118908170Y-72365921D01*
X118887653Y-72378218D01*
X118866029Y-72388446D01*
X118843507Y-72396504D01*
X118820303Y-72402316D01*
X118796642Y-72405826D01*
X118772750Y-72407000D01*
X118285250Y-72407000D01*
X118261358Y-72405826D01*
X118237697Y-72402316D01*
X118214493Y-72396504D01*
X118191971Y-72388446D01*
X118170347Y-72378218D01*
X118149830Y-72365921D01*
X118130617Y-72351671D01*
X118112893Y-72335607D01*
X118096829Y-72317883D01*
X118082579Y-72298670D01*
X118070282Y-72278153D01*
X118060054Y-72256529D01*
X118051996Y-72234007D01*
X118046184Y-72210803D01*
X118042674Y-72187142D01*
X118041500Y-72163250D01*
X118041500Y-71600750D01*
X118042674Y-71576858D01*
X118046184Y-71553197D01*
X118051996Y-71529993D01*
X118060054Y-71507471D01*
X118070282Y-71485847D01*
X118082579Y-71465330D01*
X118096829Y-71446117D01*
X118112893Y-71428393D01*
X118130617Y-71412329D01*
X118149830Y-71398079D01*
X118170347Y-71385782D01*
X118191971Y-71375554D01*
X118214493Y-71367496D01*
X118237697Y-71361684D01*
X118261358Y-71358174D01*
X118285250Y-71357000D01*
X118772750Y-71357000D01*
X118796642Y-71358174D01*
X118796642Y-71358174D01*
G37*
D13*
X118529000Y-71882000D03*
D12*
G36*
X120371642Y-71358174D02*
X120395303Y-71361684D01*
X120418507Y-71367496D01*
X120441029Y-71375554D01*
X120462653Y-71385782D01*
X120483170Y-71398079D01*
X120502383Y-71412329D01*
X120520107Y-71428393D01*
X120536171Y-71446117D01*
X120550421Y-71465330D01*
X120562718Y-71485847D01*
X120572946Y-71507471D01*
X120581004Y-71529993D01*
X120586816Y-71553197D01*
X120590326Y-71576858D01*
X120591500Y-71600750D01*
X120591500Y-72163250D01*
X120590326Y-72187142D01*
X120586816Y-72210803D01*
X120581004Y-72234007D01*
X120572946Y-72256529D01*
X120562718Y-72278153D01*
X120550421Y-72298670D01*
X120536171Y-72317883D01*
X120520107Y-72335607D01*
X120502383Y-72351671D01*
X120483170Y-72365921D01*
X120462653Y-72378218D01*
X120441029Y-72388446D01*
X120418507Y-72396504D01*
X120395303Y-72402316D01*
X120371642Y-72405826D01*
X120347750Y-72407000D01*
X119860250Y-72407000D01*
X119836358Y-72405826D01*
X119812697Y-72402316D01*
X119789493Y-72396504D01*
X119766971Y-72388446D01*
X119745347Y-72378218D01*
X119724830Y-72365921D01*
X119705617Y-72351671D01*
X119687893Y-72335607D01*
X119671829Y-72317883D01*
X119657579Y-72298670D01*
X119645282Y-72278153D01*
X119635054Y-72256529D01*
X119626996Y-72234007D01*
X119621184Y-72210803D01*
X119617674Y-72187142D01*
X119616500Y-72163250D01*
X119616500Y-71600750D01*
X119617674Y-71576858D01*
X119621184Y-71553197D01*
X119626996Y-71529993D01*
X119635054Y-71507471D01*
X119645282Y-71485847D01*
X119657579Y-71465330D01*
X119671829Y-71446117D01*
X119687893Y-71428393D01*
X119705617Y-71412329D01*
X119724830Y-71398079D01*
X119745347Y-71385782D01*
X119766971Y-71375554D01*
X119789493Y-71367496D01*
X119812697Y-71361684D01*
X119836358Y-71358174D01*
X119860250Y-71357000D01*
X120347750Y-71357000D01*
X120371642Y-71358174D01*
X120371642Y-71358174D01*
G37*
D13*
X120104000Y-71882000D03*
G04 #@! TD*
D14*
G04 #@! TO.C,J113*
X65786000Y-26710000D03*
G04 #@! TD*
D15*
G04 #@! TO.C,C503*
X103822500Y-72580500D03*
X105822500Y-72580500D03*
G04 #@! TD*
D16*
G04 #@! TO.C,FL101*
X82931000Y-76200000D03*
X76711000Y-76200000D03*
X82931000Y-83820000D03*
X76711000Y-83820000D03*
G04 #@! TD*
D17*
G04 #@! TO.C,C201*
X78407000Y-73279000D03*
X81407000Y-73279000D03*
G04 #@! TD*
D18*
G04 #@! TO.C,C318*
X127623000Y-24511000D03*
X126123000Y-24511000D03*
G04 #@! TD*
D15*
G04 #@! TO.C,C505*
X106775000Y-82296000D03*
X104775000Y-82296000D03*
G04 #@! TD*
D18*
G04 #@! TO.C,C801*
X116471000Y-49276000D03*
X117971000Y-49276000D03*
G04 #@! TD*
G04 #@! TO.C,C802*
X116193000Y-59944000D03*
X114693000Y-59944000D03*
G04 #@! TD*
D19*
G04 #@! TO.C,C803*
X115062000Y-67703000D03*
X115062000Y-69203000D03*
G04 #@! TD*
D18*
G04 #@! TO.C,C901*
X75716000Y-62230000D03*
X77216000Y-62230000D03*
G04 #@! TD*
G04 #@! TO.C,C1101*
X83935000Y-60325000D03*
X82435000Y-60325000D03*
G04 #@! TD*
G04 #@! TO.C,C1102*
X83935000Y-59055000D03*
X82435000Y-59055000D03*
G04 #@! TD*
G04 #@! TO.C,C1103*
X93357000Y-58801000D03*
X94857000Y-58801000D03*
G04 #@! TD*
G04 #@! TO.C,C1104*
X93357000Y-60325000D03*
X94857000Y-60325000D03*
G04 #@! TD*
G04 #@! TO.C,C1105*
X83935000Y-62865000D03*
X82435000Y-62865000D03*
G04 #@! TD*
G04 #@! TO.C,C1106*
X83935000Y-56515000D03*
X82435000Y-56515000D03*
G04 #@! TD*
G04 #@! TO.C,C1107*
X93357000Y-56261000D03*
X94857000Y-56261000D03*
G04 #@! TD*
G04 #@! TO.C,C1108*
X93357000Y-62865000D03*
X94857000Y-62865000D03*
G04 #@! TD*
D16*
G04 #@! TO.C,FL102*
X92961000Y-76200000D03*
X86741000Y-76200000D03*
X92961000Y-83820000D03*
X86741000Y-83820000D03*
G04 #@! TD*
D20*
G04 #@! TO.C,J102*
X63881000Y-81915000D03*
D21*
X66421000Y-81915000D03*
X63881000Y-79375000D03*
X66421000Y-79375000D03*
X63881000Y-76835000D03*
X66421000Y-76835000D03*
X63881000Y-74295000D03*
X66421000Y-74295000D03*
X63881000Y-71755000D03*
X66421000Y-71755000D03*
X63881000Y-69215000D03*
X66421000Y-69215000D03*
X63881000Y-66675000D03*
X66421000Y-66675000D03*
X63881000Y-64135000D03*
X66421000Y-64135000D03*
X63881000Y-61595000D03*
X66421000Y-61595000D03*
X63881000Y-59055000D03*
X66421000Y-59055000D03*
X63881000Y-56515000D03*
X66421000Y-56515000D03*
X63881000Y-53975000D03*
X66421000Y-53975000D03*
X63881000Y-51435000D03*
X66421000Y-51435000D03*
X63881000Y-48895000D03*
X66421000Y-48895000D03*
X63881000Y-46355000D03*
X66421000Y-46355000D03*
X63881000Y-43815000D03*
X66421000Y-43815000D03*
X63881000Y-41275000D03*
X66421000Y-41275000D03*
X63881000Y-38735000D03*
X66421000Y-38735000D03*
X63881000Y-36195000D03*
X66421000Y-36195000D03*
X63881000Y-33655000D03*
X66421000Y-33655000D03*
G04 #@! TD*
D14*
G04 #@! TO.C,J105*
X133985000Y-88646000D03*
D22*
X136385000Y-88646000D03*
X135682056Y-90343056D03*
X133985000Y-91046000D03*
X132287944Y-90343056D03*
X131585000Y-88646000D03*
X132287944Y-86948944D03*
X133985000Y-86246000D03*
X135682056Y-86948944D03*
G04 #@! TD*
D20*
G04 #@! TO.C,J106*
X74168000Y-46355000D03*
G04 #@! TD*
D14*
G04 #@! TO.C,J107*
X142875000Y-35560000D03*
D22*
X145275000Y-35560000D03*
X144572056Y-37257056D03*
X142875000Y-37960000D03*
X141177944Y-37257056D03*
X140475000Y-35560000D03*
X141177944Y-33862944D03*
X142875000Y-33160000D03*
X144572056Y-33862944D03*
G04 #@! TD*
D14*
G04 #@! TO.C,J108*
X142875000Y-53340000D03*
D22*
X145275000Y-53340000D03*
X144572056Y-55037056D03*
X142875000Y-55740000D03*
X141177944Y-55037056D03*
X140475000Y-53340000D03*
X141177944Y-51642944D03*
X142875000Y-50940000D03*
X144572056Y-51642944D03*
G04 #@! TD*
D14*
G04 #@! TO.C,J109*
X142875000Y-71120000D03*
D22*
X145275000Y-71120000D03*
X144572056Y-72817056D03*
X142875000Y-73520000D03*
X141177944Y-72817056D03*
X140475000Y-71120000D03*
X141177944Y-69422944D03*
X142875000Y-68720000D03*
X144572056Y-69422944D03*
G04 #@! TD*
D14*
G04 #@! TO.C,J110*
X114935000Y-88646000D03*
D22*
X117335000Y-88646000D03*
X116632056Y-90343056D03*
X114935000Y-91046000D03*
X113237944Y-90343056D03*
X112535000Y-88646000D03*
X113237944Y-86948944D03*
X114935000Y-86246000D03*
X116632056Y-86948944D03*
G04 #@! TD*
D14*
G04 #@! TO.C,J111*
X124460000Y-88646000D03*
D22*
X126860000Y-88646000D03*
X126157056Y-90343056D03*
X124460000Y-91046000D03*
X122762944Y-90343056D03*
X122060000Y-88646000D03*
X122762944Y-86948944D03*
X124460000Y-86246000D03*
X126157056Y-86948944D03*
G04 #@! TD*
D23*
G04 #@! TO.C,Q503*
X102296000Y-78105000D03*
X102296000Y-76835000D03*
X102296000Y-75565000D03*
X102296000Y-74295000D03*
X107696000Y-74295000D03*
X107696000Y-75565000D03*
X107696000Y-76835000D03*
X107696000Y-78105000D03*
G04 #@! TD*
D24*
G04 #@! TO.C,Q801*
X128016000Y-44450000D03*
X126746000Y-44450000D03*
X129296000Y-44450000D03*
D25*
X128656000Y-49920000D03*
D26*
X128656000Y-47720000D03*
D24*
X130566000Y-44450000D03*
G04 #@! TD*
G04 #@! TO.C,Q802*
X128016000Y-55245000D03*
X126746000Y-55245000D03*
X129296000Y-55245000D03*
D25*
X128656000Y-60715000D03*
D26*
X128656000Y-58515000D03*
D24*
X130566000Y-55245000D03*
G04 #@! TD*
G04 #@! TO.C,Q803*
X128006000Y-66675000D03*
X126736000Y-66675000D03*
X129286000Y-66675000D03*
D25*
X128646000Y-72145000D03*
D26*
X128646000Y-69945000D03*
D24*
X130556000Y-66675000D03*
G04 #@! TD*
D27*
G04 #@! TO.C,R111*
X95885000Y-48895000D03*
X95885000Y-47395000D03*
G04 #@! TD*
D28*
G04 #@! TO.C,R1101*
X85483000Y-63627000D03*
X86983000Y-63627000D03*
G04 #@! TD*
G04 #@! TO.C,R1102*
X83082000Y-55118000D03*
X84582000Y-55118000D03*
G04 #@! TD*
D27*
G04 #@! TO.C,R1103*
X96393000Y-57797000D03*
X96393000Y-59297000D03*
G04 #@! TD*
G04 #@! TO.C,R1104*
X96393000Y-61837000D03*
X96393000Y-60337000D03*
G04 #@! TD*
D28*
G04 #@! TO.C,R1105*
X83935000Y-61595000D03*
X82435000Y-61595000D03*
G04 #@! TD*
G04 #@! TO.C,R1106*
X83935000Y-57785000D03*
X82435000Y-57785000D03*
G04 #@! TD*
G04 #@! TO.C,R1107*
X93357000Y-57531000D03*
X94857000Y-57531000D03*
G04 #@! TD*
G04 #@! TO.C,R1108*
X93357000Y-61595000D03*
X94857000Y-61595000D03*
G04 #@! TD*
D29*
G04 #@! TO.C,U102*
X93632000Y-37973000D03*
X93632000Y-39243000D03*
X93632000Y-40513000D03*
X93632000Y-41783000D03*
X93632000Y-43053000D03*
X93632000Y-44323000D03*
X93632000Y-45593000D03*
X93632000Y-46863000D03*
X88232000Y-46863000D03*
X88232000Y-45593000D03*
X88232000Y-44323000D03*
X88232000Y-43053000D03*
X88232000Y-41783000D03*
X88232000Y-40513000D03*
X88232000Y-39243000D03*
X88232000Y-37973000D03*
G04 #@! TD*
D23*
G04 #@! TO.C,U303*
X115095000Y-50546000D03*
X115095000Y-51816000D03*
X115095000Y-53086000D03*
X115095000Y-54356000D03*
X109695000Y-54356000D03*
X109695000Y-53086000D03*
X109695000Y-51816000D03*
X109695000Y-50546000D03*
G04 #@! TD*
D30*
G04 #@! TO.C,U601*
X56896000Y-63169000D03*
X55626000Y-63169000D03*
X55626000Y-69469000D03*
X56896000Y-69469000D03*
G04 #@! TD*
G04 #@! TO.C,U602*
X53721000Y-63169000D03*
X52451000Y-63169000D03*
X52451000Y-69469000D03*
X53721000Y-69469000D03*
G04 #@! TD*
G04 #@! TO.C,U603*
X60071000Y-63169000D03*
X58801000Y-63169000D03*
X58801000Y-69469000D03*
X60071000Y-69469000D03*
G04 #@! TD*
D23*
G04 #@! TO.C,U801*
X124206000Y-43180000D03*
X124206000Y-44450000D03*
X124206000Y-45720000D03*
X124206000Y-46990000D03*
X118806000Y-46990000D03*
X118806000Y-45720000D03*
X118806000Y-44450000D03*
X118806000Y-43180000D03*
G04 #@! TD*
G04 #@! TO.C,U802*
X124206000Y-53975000D03*
X124206000Y-55245000D03*
X124206000Y-56515000D03*
X124206000Y-57785000D03*
X118806000Y-57785000D03*
X118806000Y-56515000D03*
X118806000Y-55245000D03*
X118806000Y-53975000D03*
G04 #@! TD*
G04 #@! TO.C,U803*
X124206000Y-65405000D03*
X124206000Y-66675000D03*
X124206000Y-67945000D03*
X124206000Y-69215000D03*
X118806000Y-69215000D03*
X118806000Y-67945000D03*
X118806000Y-66675000D03*
X118806000Y-65405000D03*
G04 #@! TD*
D31*
G04 #@! TO.C,U901*
X71316000Y-60975000D03*
X71316000Y-60325000D03*
X71316000Y-59675000D03*
X71316000Y-59025000D03*
X71316000Y-58375000D03*
X71316000Y-57725000D03*
X71316000Y-57075000D03*
X71316000Y-56425000D03*
X71316000Y-55775000D03*
X71316000Y-55125000D03*
X77216000Y-55125000D03*
X77216000Y-55775000D03*
X77216000Y-56425000D03*
X77216000Y-57075000D03*
X77216000Y-57725000D03*
X77216000Y-58375000D03*
X77216000Y-59025000D03*
X77216000Y-59675000D03*
X77216000Y-60325000D03*
X77216000Y-60975000D03*
G04 #@! TD*
G04 #@! TO.C,U1101*
X85667000Y-61655000D03*
X85667000Y-61005000D03*
X85667000Y-60355000D03*
X85667000Y-59705000D03*
X85667000Y-59055000D03*
X85667000Y-58405000D03*
X85667000Y-57755000D03*
X91567000Y-57755000D03*
X91567000Y-58405000D03*
X91567000Y-59055000D03*
X91567000Y-59705000D03*
X91567000Y-60355000D03*
X91567000Y-61005000D03*
X91567000Y-61655000D03*
G04 #@! TD*
D32*
G04 #@! TO.C,L501*
X110490000Y-76454000D03*
X117390000Y-76454000D03*
G04 #@! TD*
D14*
G04 #@! TO.C,J112*
X65786000Y-88940000D03*
G04 #@! TD*
G04 #@! TO.C,J113*
X65786000Y-26710000D03*
G04 #@! TD*
G04 #@! TO.C,J114*
X143256000Y-88900000D03*
G04 #@! TD*
G04 #@! TO.C,J115*
X143256000Y-26670000D03*
G04 #@! TD*
G04 #@! TO.C,J117*
X105156000Y-57785000D03*
G04 #@! TD*
D27*
G04 #@! TO.C,R116*
X70104000Y-30226000D03*
X70104000Y-31726000D03*
G04 #@! TD*
G04 #@! TO.C,R118*
X133096000Y-25920000D03*
X133096000Y-27420000D03*
G04 #@! TD*
G04 #@! TO.C,R120*
X109728000Y-57634000D03*
X109728000Y-56134000D03*
G04 #@! TD*
D18*
G04 #@! TO.C,C109*
X91452000Y-48133000D03*
X92952000Y-48133000D03*
G04 #@! TD*
D27*
G04 #@! TO.C,R607*
X58928000Y-76327000D03*
X58928000Y-74827000D03*
G04 #@! TD*
D19*
G04 #@! TO.C,C319*
X107823000Y-52717000D03*
X107823000Y-54217000D03*
G04 #@! TD*
G04 #@! TO.C,C804*
X117094000Y-45986000D03*
X117094000Y-47486000D03*
G04 #@! TD*
G04 #@! TO.C,C805*
X117094000Y-56781000D03*
X117094000Y-58281000D03*
G04 #@! TD*
G04 #@! TO.C,C806*
X117094000Y-67703000D03*
X117094000Y-69203000D03*
G04 #@! TD*
D33*
G04 #@! TO.C,J101*
X73149000Y-89034000D03*
X106419000Y-89034000D03*
D34*
X80259000Y-87634000D03*
D35*
X82929000Y-87634000D03*
X85719000Y-87634000D03*
X88389000Y-87634000D03*
X91179000Y-87634000D03*
X93979000Y-87634000D03*
X96639000Y-87634000D03*
X99439000Y-87634000D03*
X81529000Y-90424000D03*
X84319000Y-90424000D03*
X87119000Y-90424000D03*
X89789000Y-90424000D03*
X92579000Y-90424000D03*
X95249000Y-90424000D03*
X98039000Y-90424000D03*
G04 #@! TD*
D33*
G04 #@! TO.C,J103*
X97536000Y-27305000D03*
X72516000Y-27305000D03*
D34*
X79626000Y-28705000D03*
D35*
X82296000Y-28705000D03*
X85086000Y-28705000D03*
X87756000Y-28705000D03*
X90546000Y-28705000D03*
X80896000Y-25915000D03*
X83686000Y-25915000D03*
X86356000Y-25915000D03*
X89156000Y-25915000D03*
G04 #@! TD*
D33*
G04 #@! TO.C,J104*
X137158000Y-27298000D03*
X103888000Y-27298000D03*
D34*
X110868000Y-28698000D03*
D35*
X113658000Y-28698000D03*
X116328000Y-28698000D03*
X119128000Y-28698000D03*
X121918000Y-28698000D03*
X124588000Y-28698000D03*
X127378000Y-28698000D03*
X130048000Y-28698000D03*
X112268000Y-25908000D03*
X115058000Y-25908000D03*
X117728000Y-25908000D03*
X120518000Y-25908000D03*
X123188000Y-25908000D03*
X125978000Y-25908000D03*
X128778000Y-25908000D03*
G04 #@! TD*
D14*
G04 #@! TO.C,J810*
X142875000Y-44450000D03*
D22*
X145275000Y-44450000D03*
X144572056Y-46147056D03*
X142875000Y-46850000D03*
X141177944Y-46147056D03*
X140475000Y-44450000D03*
X141177944Y-42752944D03*
X142875000Y-42050000D03*
X144572056Y-42752944D03*
G04 #@! TD*
D14*
G04 #@! TO.C,J811*
X142875000Y-62230000D03*
D22*
X145275000Y-62230000D03*
X144572056Y-63927056D03*
X142875000Y-64630000D03*
X141177944Y-63927056D03*
X140475000Y-62230000D03*
X141177944Y-60532944D03*
X142875000Y-59830000D03*
X144572056Y-60532944D03*
G04 #@! TD*
D14*
G04 #@! TO.C,J812*
X142875000Y-80010000D03*
D22*
X145275000Y-80010000D03*
X144572056Y-81707056D03*
X142875000Y-82410000D03*
X141177944Y-81707056D03*
X140475000Y-80010000D03*
X141177944Y-78312944D03*
X142875000Y-77610000D03*
X144572056Y-78312944D03*
G04 #@! TD*
D19*
G04 #@! TO.C,C114*
X98044000Y-59309000D03*
X98044000Y-57809000D03*
G04 #@! TD*
G04 #@! TO.C,C117*
X99441000Y-59297000D03*
X99441000Y-57797000D03*
G04 #@! TD*
D28*
G04 #@! TO.C,R126*
X89130000Y-71374000D03*
X87630000Y-71374000D03*
G04 #@! TD*
D36*
G04 #@! TO.C,TP107*
X97790000Y-70358000D03*
G04 #@! TD*
G04 #@! TO.C,TP108*
X62484000Y-30607000D03*
G04 #@! TD*
G04 #@! TO.C,TP112*
X98425000Y-60706000D03*
G04 #@! TD*
D37*
G04 #@! TO.C,C206*
X60007500Y-80264000D03*
X55407500Y-80264000D03*
G04 #@! TD*
D15*
G04 #@! TO.C,C301*
X103000000Y-50250000D03*
X101000000Y-50250000D03*
G04 #@! TD*
D18*
G04 #@! TO.C,C506*
X106870500Y-80708500D03*
X105370500Y-80708500D03*
G04 #@! TD*
G04 #@! TO.C,C508*
X102413500Y-72580500D03*
X100913500Y-72580500D03*
G04 #@! TD*
D19*
G04 #@! TO.C,C910*
X79311500Y-60642500D03*
X79311500Y-62142500D03*
G04 #@! TD*
D18*
G04 #@! TO.C,C911*
X76962000Y-53848000D03*
X75462000Y-53848000D03*
G04 #@! TD*
D19*
G04 #@! TO.C,C912*
X80645000Y-60642500D03*
X80645000Y-62142500D03*
G04 #@! TD*
D18*
G04 #@! TO.C,C913*
X79692500Y-57277000D03*
X81192500Y-57277000D03*
G04 #@! TD*
G04 #@! TO.C,C914*
X79629000Y-55880000D03*
X81129000Y-55880000D03*
G04 #@! TD*
G04 #@! TO.C,C915*
X79629000Y-54610000D03*
X81129000Y-54610000D03*
G04 #@! TD*
D19*
G04 #@! TO.C,C916*
X72593000Y-53848000D03*
X72593000Y-52348000D03*
G04 #@! TD*
D38*
G04 #@! TO.C,D305*
X121729500Y-36703000D03*
X126029500Y-36703000D03*
G04 #@! TD*
D39*
G04 #@! TO.C,R507*
X113528500Y-82042000D03*
X108648500Y-82042000D03*
G04 #@! TD*
D40*
G04 #@! TO.C,R601*
X56832500Y-61468000D03*
X56832500Y-58568000D03*
G04 #@! TD*
G04 #@! TO.C,R602*
X54610000Y-61468000D03*
X54610000Y-58568000D03*
G04 #@! TD*
G04 #@! TO.C,R603*
X59055000Y-61468000D03*
X59055000Y-58568000D03*
G04 #@! TD*
D41*
G04 #@! TO.C,R604*
X57605000Y-71564500D03*
X60505000Y-71564500D03*
G04 #@! TD*
G04 #@! TO.C,R605*
X50810500Y-71437500D03*
X53710500Y-71437500D03*
G04 #@! TD*
D42*
G04 #@! TO.C,R606*
X54473695Y-76018805D03*
D12*
G36*
X54756538Y-77008754D02*
X53483746Y-75735962D01*
X54190852Y-75028856D01*
X55463644Y-76301648D01*
X54756538Y-77008754D01*
X54756538Y-77008754D01*
G37*
D42*
X56524305Y-73968195D03*
D12*
G36*
X56807148Y-74958144D02*
X55534356Y-73685352D01*
X56241462Y-72978246D01*
X57514254Y-74251038D01*
X56807148Y-74958144D01*
X56807148Y-74958144D01*
G37*
G04 #@! TD*
D43*
G04 #@! TO.C,U301*
X103250000Y-52500000D03*
D44*
X100710000Y-52500000D03*
X98170000Y-52500000D03*
G04 #@! TD*
D45*
G04 #@! TO.C,C118*
X70850500Y-73723500D03*
X73850500Y-73723500D03*
G04 #@! TD*
D46*
G04 #@! TO.C,C119*
X74041000Y-75962000D03*
X74041000Y-77962000D03*
G04 #@! TD*
D47*
G04 #@! TO.C,C120*
X111756000Y-38036500D03*
X117856000Y-38036500D03*
G04 #@! TD*
D19*
G04 #@! TO.C,C107*
X69024500Y-43549000D03*
X69024500Y-42049000D03*
G04 #@! TD*
D18*
G04 #@! TO.C,C121*
X68973000Y-38163500D03*
X70473000Y-38163500D03*
G04 #@! TD*
D27*
G04 #@! TO.C,R119*
X70485000Y-43537000D03*
X70485000Y-42037000D03*
G04 #@! TD*
D28*
G04 #@! TO.C,R121*
X68921500Y-39624000D03*
X70421500Y-39624000D03*
G04 #@! TD*
D48*
G04 #@! TO.C,Q103*
X92694000Y-25059600D03*
X92694000Y-26959600D03*
X90694000Y-26009600D03*
G04 #@! TD*
D28*
G04 #@! TO.C,R129*
X92061600Y-28498800D03*
X93561600Y-28498800D03*
G04 #@! TD*
D27*
G04 #@! TO.C,R130*
X92329000Y-30619000D03*
X92329000Y-32119000D03*
G04 #@! TD*
D49*
G36*
X100711000Y-78105000D02*
X97917000Y-78105000D01*
X97917000Y-74676000D01*
X100711000Y-74676000D01*
X100711000Y-78105000D01*
X100711000Y-78105000D01*
G37*
X100711000Y-78105000D02*
X97917000Y-78105000D01*
X97917000Y-74676000D01*
X100711000Y-74676000D01*
X100711000Y-78105000D01*
G36*
X84836000Y-41148000D02*
X81470500Y-41148000D01*
X81470500Y-39052500D01*
X84836000Y-39052500D01*
X84836000Y-41148000D01*
X84836000Y-41148000D01*
G37*
X84836000Y-41148000D02*
X81470500Y-41148000D01*
X81470500Y-39052500D01*
X84836000Y-39052500D01*
X84836000Y-41148000D01*
M02*
