G04 #@! TF.GenerationSoftware,KiCad,Pcbnew,5.0.0-4.fc29*
G04 #@! TF.CreationDate,2019-01-05T16:59:36+01:00*
G04 #@! TF.ProjectId,powerboard,706F776572626F6172642E6B69636164,rev11*
G04 #@! TF.SameCoordinates,Original*
G04 #@! TF.FileFunction,Legend,Top*
G04 #@! TF.FilePolarity,Positive*
%FSLAX46Y46*%
G04 Gerber Fmt 4.6, Leading zero omitted, Abs format (unit mm)*
G04 Created by KiCad (PCBNEW 5.0.0-4.fc29) date Sat Jan  5 16:59:36 2019*
%MOMM*%
%LPD*%
G01*
G04 APERTURE LIST*
%ADD10C,0.200000*%
%ADD11C,0.300000*%
%ADD12C,0.120000*%
%ADD13C,0.150000*%
%ADD14C,0.750000*%
G04 APERTURE END LIST*
D10*
X94940380Y-54093904D02*
X93940380Y-54093904D01*
X94416571Y-54093904D02*
X94416571Y-53522476D01*
X94940380Y-53522476D02*
X93940380Y-53522476D01*
X94940380Y-53046285D02*
X93940380Y-53046285D01*
X93940380Y-52665333D01*
X93988000Y-52570095D01*
X94035619Y-52522476D01*
X94130857Y-52474857D01*
X94273714Y-52474857D01*
X94368952Y-52522476D01*
X94416571Y-52570095D01*
X94464190Y-52665333D01*
X94464190Y-53046285D01*
X94035619Y-52093904D02*
X93988000Y-52046285D01*
X93940380Y-51951047D01*
X93940380Y-51712952D01*
X93988000Y-51617714D01*
X94035619Y-51570095D01*
X94130857Y-51522476D01*
X94226095Y-51522476D01*
X94368952Y-51570095D01*
X94940380Y-52141523D01*
X94940380Y-51522476D01*
X90424095Y-52332000D02*
X90328857Y-52284380D01*
X90186000Y-52284380D01*
X90043142Y-52332000D01*
X89947904Y-52427238D01*
X89900285Y-52522476D01*
X89852666Y-52712952D01*
X89852666Y-52855809D01*
X89900285Y-53046285D01*
X89947904Y-53141523D01*
X90043142Y-53236761D01*
X90186000Y-53284380D01*
X90281238Y-53284380D01*
X90424095Y-53236761D01*
X90471714Y-53189142D01*
X90471714Y-52855809D01*
X90281238Y-52855809D01*
X90900285Y-53284380D02*
X90900285Y-52284380D01*
X91471714Y-53284380D01*
X91471714Y-52284380D01*
X91947904Y-53284380D02*
X91947904Y-52284380D01*
X92186000Y-52284380D01*
X92328857Y-52332000D01*
X92424095Y-52427238D01*
X92471714Y-52522476D01*
X92519333Y-52712952D01*
X92519333Y-52855809D01*
X92471714Y-53046285D01*
X92424095Y-53141523D01*
X92328857Y-53236761D01*
X92186000Y-53284380D01*
X91947904Y-53284380D01*
X112276285Y-44664380D02*
X112609619Y-45664380D01*
X112942952Y-44664380D01*
X114038190Y-45664380D02*
X114038190Y-44664380D01*
X114371523Y-45378666D01*
X114704857Y-44664380D01*
X114704857Y-45664380D01*
X115323904Y-45664380D02*
X115228666Y-45616761D01*
X115181047Y-45569142D01*
X115133428Y-45473904D01*
X115133428Y-45188190D01*
X115181047Y-45092952D01*
X115228666Y-45045333D01*
X115323904Y-44997714D01*
X115466761Y-44997714D01*
X115562000Y-45045333D01*
X115609619Y-45092952D01*
X115657238Y-45188190D01*
X115657238Y-45473904D01*
X115609619Y-45569142D01*
X115562000Y-45616761D01*
X115466761Y-45664380D01*
X115323904Y-45664380D01*
X115942952Y-44997714D02*
X116323904Y-44997714D01*
X116085809Y-44664380D02*
X116085809Y-45521523D01*
X116133428Y-45616761D01*
X116228666Y-45664380D01*
X116323904Y-45664380D01*
X116800095Y-45664380D02*
X116704857Y-45616761D01*
X116657238Y-45569142D01*
X116609619Y-45473904D01*
X116609619Y-45188190D01*
X116657238Y-45092952D01*
X116704857Y-45045333D01*
X116800095Y-44997714D01*
X116942952Y-44997714D01*
X117038190Y-45045333D01*
X117085809Y-45092952D01*
X117133428Y-45188190D01*
X117133428Y-45473904D01*
X117085809Y-45569142D01*
X117038190Y-45616761D01*
X116942952Y-45664380D01*
X116800095Y-45664380D01*
X117561999Y-45664380D02*
X117561999Y-44997714D01*
X117561999Y-45188190D02*
X117609619Y-45092952D01*
X117657238Y-45045333D01*
X117752476Y-44997714D01*
X117847714Y-44997714D01*
X91956095Y-66746380D02*
X91956095Y-65746380D01*
X91956095Y-66222571D02*
X92527523Y-66222571D01*
X92527523Y-66746380D02*
X92527523Y-65746380D01*
X93003714Y-66746380D02*
X93003714Y-65746380D01*
X93384666Y-65746380D01*
X93479904Y-65794000D01*
X93527523Y-65841619D01*
X93575142Y-65936857D01*
X93575142Y-66079714D01*
X93527523Y-66174952D01*
X93479904Y-66222571D01*
X93384666Y-66270190D01*
X93003714Y-66270190D01*
X94527523Y-66746380D02*
X93956095Y-66746380D01*
X94241809Y-66746380D02*
X94241809Y-65746380D01*
X94146571Y-65889238D01*
X94051333Y-65984476D01*
X93956095Y-66032095D01*
X83550285Y-64968428D02*
X84312190Y-64968428D01*
X83931238Y-65349380D02*
X83931238Y-64587476D01*
X85264571Y-64349380D02*
X84788380Y-64349380D01*
X84740761Y-64825571D01*
X84788380Y-64777952D01*
X84883619Y-64730333D01*
X85121714Y-64730333D01*
X85216952Y-64777952D01*
X85264571Y-64825571D01*
X85312190Y-64920809D01*
X85312190Y-65158904D01*
X85264571Y-65254142D01*
X85216952Y-65301761D01*
X85121714Y-65349380D01*
X84883619Y-65349380D01*
X84788380Y-65301761D01*
X84740761Y-65254142D01*
X85597904Y-64349380D02*
X85931238Y-65349380D01*
X86264571Y-64349380D01*
X76851095Y-65476428D02*
X77613000Y-65476428D01*
X77232047Y-65857380D02*
X77232047Y-65095476D01*
X77993952Y-64857380D02*
X78613000Y-64857380D01*
X78279666Y-65238333D01*
X78422523Y-65238333D01*
X78517761Y-65285952D01*
X78565380Y-65333571D01*
X78613000Y-65428809D01*
X78613000Y-65666904D01*
X78565380Y-65762142D01*
X78517761Y-65809761D01*
X78422523Y-65857380D01*
X78136809Y-65857380D01*
X78041571Y-65809761D01*
X77993952Y-65762142D01*
X78898714Y-64857380D02*
X79232047Y-65857380D01*
X79565380Y-64857380D01*
X79803476Y-64857380D02*
X80422523Y-64857380D01*
X80089190Y-65238333D01*
X80232047Y-65238333D01*
X80327285Y-65285952D01*
X80374904Y-65333571D01*
X80422523Y-65428809D01*
X80422523Y-65666904D01*
X80374904Y-65762142D01*
X80327285Y-65809761D01*
X80232047Y-65857380D01*
X79946333Y-65857380D01*
X79851095Y-65809761D01*
X79803476Y-65762142D01*
X67770523Y-71556619D02*
X67818142Y-71509000D01*
X67913380Y-71461380D01*
X68151476Y-71461380D01*
X68246714Y-71509000D01*
X68294333Y-71556619D01*
X68341952Y-71651857D01*
X68341952Y-71747095D01*
X68294333Y-71889952D01*
X67722904Y-72461380D01*
X68341952Y-72461380D01*
X68913380Y-71889952D02*
X68818142Y-71842333D01*
X68770523Y-71794714D01*
X68722904Y-71699476D01*
X68722904Y-71651857D01*
X68770523Y-71556619D01*
X68818142Y-71509000D01*
X68913380Y-71461380D01*
X69103857Y-71461380D01*
X69199095Y-71509000D01*
X69246714Y-71556619D01*
X69294333Y-71651857D01*
X69294333Y-71699476D01*
X69246714Y-71794714D01*
X69199095Y-71842333D01*
X69103857Y-71889952D01*
X68913380Y-71889952D01*
X68818142Y-71937571D01*
X68770523Y-71985190D01*
X68722904Y-72080428D01*
X68722904Y-72270904D01*
X68770523Y-72366142D01*
X68818142Y-72413761D01*
X68913380Y-72461380D01*
X69103857Y-72461380D01*
X69199095Y-72413761D01*
X69246714Y-72366142D01*
X69294333Y-72270904D01*
X69294333Y-72080428D01*
X69246714Y-71985190D01*
X69199095Y-71937571D01*
X69103857Y-71889952D01*
X69580047Y-71461380D02*
X69913380Y-72461380D01*
X70246714Y-71461380D01*
X86280714Y-80748142D02*
X86233095Y-80795761D01*
X86090238Y-80843380D01*
X85995000Y-80843380D01*
X85852142Y-80795761D01*
X85756904Y-80700523D01*
X85709285Y-80605285D01*
X85661666Y-80414809D01*
X85661666Y-80271952D01*
X85709285Y-80081476D01*
X85756904Y-79986238D01*
X85852142Y-79891000D01*
X85995000Y-79843380D01*
X86090238Y-79843380D01*
X86233095Y-79891000D01*
X86280714Y-79938619D01*
X86709285Y-80843380D02*
X86709285Y-79843380D01*
X86709285Y-80319571D02*
X87280714Y-80319571D01*
X87280714Y-80843380D02*
X87280714Y-79843380D01*
X88280714Y-79891000D02*
X88185476Y-79843380D01*
X88042619Y-79843380D01*
X87899761Y-79891000D01*
X87804523Y-79986238D01*
X87756904Y-80081476D01*
X87709285Y-80271952D01*
X87709285Y-80414809D01*
X87756904Y-80605285D01*
X87804523Y-80700523D01*
X87899761Y-80795761D01*
X88042619Y-80843380D01*
X88137857Y-80843380D01*
X88280714Y-80795761D01*
X88328333Y-80748142D01*
X88328333Y-80414809D01*
X88137857Y-80414809D01*
D11*
X106597000Y-70528571D02*
X106597000Y-69528571D01*
X106597000Y-69814285D02*
X106668428Y-69671428D01*
X106739857Y-69600000D01*
X106882714Y-69528571D01*
X107025571Y-69528571D01*
X108097000Y-70457142D02*
X107954142Y-70528571D01*
X107668428Y-70528571D01*
X107525571Y-70457142D01*
X107454142Y-70314285D01*
X107454142Y-69742857D01*
X107525571Y-69600000D01*
X107668428Y-69528571D01*
X107954142Y-69528571D01*
X108097000Y-69600000D01*
X108168428Y-69742857D01*
X108168428Y-69885714D01*
X107454142Y-70028571D01*
X108668428Y-69528571D02*
X109025571Y-70528571D01*
X109382714Y-69528571D01*
X110739857Y-70528571D02*
X109882714Y-70528571D01*
X110311285Y-70528571D02*
X110311285Y-69028571D01*
X110168428Y-69242857D01*
X110025571Y-69385714D01*
X109882714Y-69457142D01*
X112168428Y-70528571D02*
X111311285Y-70528571D01*
X111739857Y-70528571D02*
X111739857Y-69028571D01*
X111597000Y-69242857D01*
X111454142Y-69385714D01*
X111311285Y-69457142D01*
X135425571Y-63594428D02*
X133925571Y-63594428D01*
X134639857Y-63594428D02*
X134639857Y-62737285D01*
X135425571Y-62737285D02*
X133925571Y-62737285D01*
X135354142Y-61451571D02*
X135425571Y-61594428D01*
X135425571Y-61880142D01*
X135354142Y-62023000D01*
X135211285Y-62094428D01*
X134639857Y-62094428D01*
X134497000Y-62023000D01*
X134425571Y-61880142D01*
X134425571Y-61594428D01*
X134497000Y-61451571D01*
X134639857Y-61380142D01*
X134782714Y-61380142D01*
X134925571Y-62094428D01*
X135425571Y-60094428D02*
X134639857Y-60094428D01*
X134497000Y-60165857D01*
X134425571Y-60308714D01*
X134425571Y-60594428D01*
X134497000Y-60737285D01*
X135354142Y-60094428D02*
X135425571Y-60237285D01*
X135425571Y-60594428D01*
X135354142Y-60737285D01*
X135211285Y-60808714D01*
X135068428Y-60808714D01*
X134925571Y-60737285D01*
X134854142Y-60594428D01*
X134854142Y-60237285D01*
X134782714Y-60094428D01*
X134425571Y-59594428D02*
X134425571Y-59023000D01*
X133925571Y-59380142D02*
X135211285Y-59380142D01*
X135354142Y-59308714D01*
X135425571Y-59165857D01*
X135425571Y-59023000D01*
X135425571Y-57380142D02*
X133925571Y-57380142D01*
X133925571Y-56808714D01*
X133997000Y-56665857D01*
X134068428Y-56594428D01*
X134211285Y-56523000D01*
X134425571Y-56523000D01*
X134568428Y-56594428D01*
X134639857Y-56665857D01*
X134711285Y-56808714D01*
X134711285Y-57380142D01*
X135425571Y-55880142D02*
X134425571Y-55880142D01*
X134711285Y-55880142D02*
X134568428Y-55808714D01*
X134497000Y-55737285D01*
X134425571Y-55594428D01*
X134425571Y-55451571D01*
X135425571Y-54737285D02*
X135354142Y-54880142D01*
X135282714Y-54951571D01*
X135139857Y-55023000D01*
X134711285Y-55023000D01*
X134568428Y-54951571D01*
X134497000Y-54880142D01*
X134425571Y-54737285D01*
X134425571Y-54523000D01*
X134497000Y-54380142D01*
X134568428Y-54308714D01*
X134711285Y-54237285D01*
X135139857Y-54237285D01*
X135282714Y-54308714D01*
X135354142Y-54380142D01*
X135425571Y-54523000D01*
X135425571Y-54737285D01*
X135425571Y-53594428D02*
X133925571Y-53594428D01*
X134497000Y-53594428D02*
X134425571Y-53451571D01*
X134425571Y-53165857D01*
X134497000Y-53023000D01*
X134568428Y-52951571D01*
X134711285Y-52880142D01*
X135139857Y-52880142D01*
X135282714Y-52951571D01*
X135354142Y-53023000D01*
X135425571Y-53165857D01*
X135425571Y-53451571D01*
X135354142Y-53594428D01*
X135354142Y-51665857D02*
X135425571Y-51808714D01*
X135425571Y-52094428D01*
X135354142Y-52237285D01*
X135211285Y-52308714D01*
X134639857Y-52308714D01*
X134497000Y-52237285D01*
X134425571Y-52094428D01*
X134425571Y-51808714D01*
X134497000Y-51665857D01*
X134639857Y-51594428D01*
X134782714Y-51594428D01*
X134925571Y-52308714D01*
X135354142Y-51023000D02*
X135425571Y-50880142D01*
X135425571Y-50594428D01*
X135354142Y-50451571D01*
X135211285Y-50380142D01*
X135139857Y-50380142D01*
X134997000Y-50451571D01*
X134925571Y-50594428D01*
X134925571Y-50808714D01*
X134854142Y-50951571D01*
X134711285Y-51023000D01*
X134639857Y-51023000D01*
X134497000Y-50951571D01*
X134425571Y-50808714D01*
X134425571Y-50594428D01*
X134497000Y-50451571D01*
D10*
X102489000Y-86741000D02*
X101600000Y-86868000D01*
X102108000Y-86233000D02*
X102489000Y-86741000D01*
X101600000Y-86868000D02*
X102108000Y-86233000D01*
X105029000Y-84963000D02*
X101600000Y-86868000D01*
D11*
X104731571Y-84625571D02*
X104231571Y-83911285D01*
X103874428Y-84625571D02*
X103874428Y-83125571D01*
X104445857Y-83125571D01*
X104588714Y-83197000D01*
X104660142Y-83268428D01*
X104731571Y-83411285D01*
X104731571Y-83625571D01*
X104660142Y-83768428D01*
X104588714Y-83839857D01*
X104445857Y-83911285D01*
X103874428Y-83911285D01*
X105231571Y-83125571D02*
X106231571Y-84625571D01*
X106231571Y-83125571D02*
X105231571Y-84625571D01*
X106731571Y-84554142D02*
X106945857Y-84625571D01*
X107303000Y-84625571D01*
X107445857Y-84554142D01*
X107517285Y-84482714D01*
X107588714Y-84339857D01*
X107588714Y-84197000D01*
X107517285Y-84054142D01*
X107445857Y-83982714D01*
X107303000Y-83911285D01*
X107017285Y-83839857D01*
X106874428Y-83768428D01*
X106803000Y-83697000D01*
X106731571Y-83554142D01*
X106731571Y-83411285D01*
X106803000Y-83268428D01*
X106874428Y-83197000D01*
X107017285Y-83125571D01*
X107374428Y-83125571D01*
X107588714Y-83197000D01*
X108231571Y-84625571D02*
X108231571Y-83125571D01*
X108731571Y-84197000D01*
X109231571Y-83125571D01*
X109231571Y-84625571D01*
X96667334Y-58206735D02*
X96818857Y-57348105D01*
X96061242Y-57600643D02*
X97121902Y-56539983D01*
X97525963Y-56944044D01*
X97576471Y-57095567D01*
X97576471Y-57196582D01*
X97525963Y-57348105D01*
X97374441Y-57499628D01*
X97222918Y-57550136D01*
X97121902Y-57550136D01*
X96970380Y-57499628D01*
X96566319Y-57095567D01*
X98081547Y-57499628D02*
X97727994Y-59267395D01*
X98788654Y-58206735D02*
X97020887Y-58560288D01*
X98536116Y-59267395D02*
X99344238Y-60075517D01*
X100354391Y-59772471D02*
X99647284Y-61186685D01*
X101061497Y-60479578D01*
X100354391Y-61893791D02*
X101415051Y-60833131D01*
X100859467Y-62398868D02*
X101920127Y-61338208D01*
X102324188Y-61742269D01*
X102374696Y-61893791D01*
X102374696Y-61994807D01*
X102324188Y-62146330D01*
X102172665Y-62297853D01*
X102021142Y-62348360D01*
X101920127Y-62348360D01*
X101768604Y-62297853D01*
X101364543Y-61893791D01*
X102475711Y-62903944D02*
X102829264Y-63257497D01*
X102425203Y-63964604D02*
X101920127Y-63459528D01*
X102980787Y-62398868D01*
X103485863Y-62903944D01*
X103485863Y-65025264D02*
X103637386Y-64166635D01*
X102879772Y-64419173D02*
X103940432Y-63358513D01*
X104344493Y-63762574D01*
X104395001Y-63914097D01*
X104395001Y-64015112D01*
X104344493Y-64166635D01*
X104192970Y-64318158D01*
X104041447Y-64368665D01*
X103940432Y-64368665D01*
X103788909Y-64318158D01*
X103384848Y-63914097D01*
X93601521Y-58747166D02*
X94662181Y-57686506D01*
X95066242Y-58090567D01*
X95116750Y-58242090D01*
X95116750Y-58343105D01*
X95066242Y-58494628D01*
X94914719Y-58646151D01*
X94763197Y-58696658D01*
X94662181Y-58696658D01*
X94510658Y-58646151D01*
X94106597Y-58242090D01*
X94813704Y-59959349D02*
X94763197Y-59807826D01*
X94763197Y-59706811D01*
X94813704Y-59555288D01*
X95116750Y-59252242D01*
X95268273Y-59201735D01*
X95369288Y-59201735D01*
X95520811Y-59252242D01*
X95672334Y-59403765D01*
X95722841Y-59555288D01*
X95722841Y-59656303D01*
X95672334Y-59807826D01*
X95369288Y-60110872D01*
X95217765Y-60161380D01*
X95116750Y-60161380D01*
X94965227Y-60110872D01*
X94813704Y-59959349D01*
X96227918Y-59959349D02*
X95722841Y-60868486D01*
X96429948Y-60565441D01*
X96126902Y-61272547D01*
X97036040Y-60767471D01*
X97187563Y-62232192D02*
X97036040Y-62181685D01*
X96834009Y-61979654D01*
X96783502Y-61828131D01*
X96834009Y-61676608D01*
X97238070Y-61272547D01*
X97389593Y-61222040D01*
X97541116Y-61272547D01*
X97743147Y-61474578D01*
X97793654Y-61626101D01*
X97743147Y-61777624D01*
X97642131Y-61878639D01*
X97036040Y-61474578D01*
X97642131Y-62787776D02*
X98349238Y-62080669D01*
X98147208Y-62282700D02*
X98298730Y-62232192D01*
X98399746Y-62232192D01*
X98551269Y-62282700D01*
X98652284Y-62383715D01*
X98298730Y-63444375D02*
X99359391Y-62383715D01*
X98955330Y-62787776D02*
X99106852Y-62838284D01*
X99308883Y-63040314D01*
X99359391Y-63191837D01*
X99359391Y-63292852D01*
X99308883Y-63444375D01*
X99005837Y-63747421D01*
X98854314Y-63797929D01*
X98753299Y-63797929D01*
X98601776Y-63747421D01*
X98399746Y-63545391D01*
X98349238Y-63393868D01*
X99409898Y-64555543D02*
X99359391Y-64404020D01*
X99359391Y-64303005D01*
X99409898Y-64151482D01*
X99712944Y-63848436D01*
X99864467Y-63797929D01*
X99965482Y-63797929D01*
X100117005Y-63848436D01*
X100268528Y-63999959D01*
X100319036Y-64151482D01*
X100319036Y-64252497D01*
X100268528Y-64404020D01*
X99965482Y-64707066D01*
X99813959Y-64757574D01*
X99712944Y-64757574D01*
X99561421Y-64707066D01*
X99409898Y-64555543D01*
X100672589Y-65818234D02*
X101228173Y-65262650D01*
X101278680Y-65111127D01*
X101228173Y-64959604D01*
X101026142Y-64757574D01*
X100874619Y-64707066D01*
X100723097Y-65767726D02*
X100571574Y-65717219D01*
X100319036Y-65464680D01*
X100268528Y-65313158D01*
X100319036Y-65161635D01*
X100420051Y-65060619D01*
X100571574Y-65010112D01*
X100723097Y-65060619D01*
X100975635Y-65313158D01*
X101127158Y-65363665D01*
X101177665Y-66323310D02*
X101884772Y-65616203D01*
X101682741Y-65818234D02*
X101834264Y-65767726D01*
X101935280Y-65767726D01*
X102086802Y-65818234D01*
X102187818Y-65919249D01*
X102288833Y-67434478D02*
X103349493Y-66373818D01*
X102339341Y-67383970D02*
X102187818Y-67333463D01*
X101985787Y-67131432D01*
X101935280Y-66979909D01*
X101935280Y-66878894D01*
X101985787Y-66727371D01*
X102288833Y-66424325D01*
X102440356Y-66373818D01*
X102541371Y-66373818D01*
X102692894Y-66424325D01*
X102894925Y-66626356D01*
X102945432Y-66777879D01*
X92707536Y-61459425D02*
X92859059Y-60600796D01*
X92101445Y-60853334D02*
X93162105Y-59792674D01*
X93566166Y-60196735D01*
X93616674Y-60348258D01*
X93616674Y-60449273D01*
X93566166Y-60600796D01*
X93414643Y-60752319D01*
X93263120Y-60802826D01*
X93162105Y-60802826D01*
X93010582Y-60752319D01*
X92606521Y-60348258D01*
X93263120Y-61812979D02*
X93263120Y-61913994D01*
X93162105Y-61913994D01*
X93162105Y-61812979D01*
X93263120Y-61812979D01*
X93162105Y-61913994D01*
X94172258Y-62924146D02*
X93667181Y-62419070D01*
X94727841Y-61358410D01*
X94980380Y-63631253D02*
X94828857Y-63580746D01*
X94626826Y-63378715D01*
X94576319Y-63227192D01*
X94626826Y-63075669D01*
X95030887Y-62671608D01*
X95182410Y-62621101D01*
X95333933Y-62671608D01*
X95535964Y-62873639D01*
X95586471Y-63025162D01*
X95535964Y-63176685D01*
X95434948Y-63277700D01*
X94828857Y-62873639D01*
X95434948Y-64186837D02*
X96495608Y-63126177D01*
X95889517Y-64641406D02*
X96445101Y-64085822D01*
X96495608Y-63934299D01*
X96445101Y-63782776D01*
X96293578Y-63631253D01*
X96142055Y-63580746D01*
X96041040Y-63580746D01*
X96394593Y-65146482D02*
X97101700Y-64439375D01*
X97000685Y-64540391D02*
X97101700Y-64540391D01*
X97253223Y-64590898D01*
X97404746Y-64742421D01*
X97455253Y-64893944D01*
X97404746Y-65045467D01*
X96849162Y-65601051D01*
X97404746Y-65045467D02*
X97556269Y-64994959D01*
X97707791Y-65045467D01*
X97859314Y-65196990D01*
X97909822Y-65348513D01*
X97859314Y-65500035D01*
X97303730Y-66055619D01*
X98263375Y-67015264D02*
X98818959Y-66459680D01*
X98869467Y-66308158D01*
X98818959Y-66156635D01*
X98616929Y-65954604D01*
X98465406Y-65904097D01*
X98313883Y-66964757D02*
X98162360Y-66914249D01*
X97909822Y-66661711D01*
X97859314Y-66510188D01*
X97909822Y-66358665D01*
X98010837Y-66257650D01*
X98162360Y-66207142D01*
X98313883Y-66257650D01*
X98566421Y-66510188D01*
X98717944Y-66560696D01*
X99475558Y-66813234D02*
X98768452Y-67520341D01*
X99374543Y-66914249D02*
X99475558Y-66914249D01*
X99627081Y-66964757D01*
X99778604Y-67116280D01*
X99829112Y-67267802D01*
X99778604Y-67419325D01*
X99223020Y-67974909D01*
X100435203Y-67772879D02*
X99728097Y-68479985D01*
X100334188Y-67873894D02*
X100435203Y-67873894D01*
X100586726Y-67924402D01*
X100738249Y-68075924D01*
X100788757Y-68227447D01*
X100738249Y-68378970D01*
X100182665Y-68934554D01*
D12*
G04 #@! TO.C,C124*
X69179221Y-36447000D02*
X69504779Y-36447000D01*
X69179221Y-37467000D02*
X69504779Y-37467000D01*
G04 #@! TO.C,C123*
X69179221Y-38991000D02*
X69504779Y-38991000D01*
X69179221Y-37971000D02*
X69504779Y-37971000D01*
G04 #@! TO.C,C122*
X69179221Y-39495000D02*
X69504779Y-39495000D01*
X69179221Y-40515000D02*
X69504779Y-40515000D01*
G04 #@! TO.C,R123*
X106029279Y-65466500D02*
X105703721Y-65466500D01*
X106029279Y-66486500D02*
X105703721Y-66486500D01*
G04 #@! TO.C,R125*
X72519000Y-68937221D02*
X72519000Y-69262779D01*
X71499000Y-68937221D02*
X71499000Y-69262779D01*
G04 #@! TO.C,R124*
X107536308Y-67510443D02*
X107306103Y-67740648D01*
X108257557Y-68231692D02*
X108027352Y-68461897D01*
G04 #@! TO.C,C104*
X87606000Y-67095000D02*
X86606000Y-67095000D01*
X86606000Y-68795000D02*
X87606000Y-68795000D01*
G04 #@! TO.C,C105*
X86506000Y-68615000D02*
X87206000Y-68615000D01*
X87206000Y-69815000D02*
X86506000Y-69815000D01*
G04 #@! TO.C,C106*
X122547000Y-47410000D02*
X121547000Y-47410000D01*
X121547000Y-49110000D02*
X122547000Y-49110000D01*
G04 #@! TO.C,C202*
X73271000Y-72810000D02*
X72271000Y-72810000D01*
X72271000Y-74510000D02*
X73271000Y-74510000D01*
G04 #@! TO.C,C203*
X69377000Y-80221000D02*
X69377000Y-79521000D01*
X70577000Y-79521000D02*
X70577000Y-80221000D01*
G04 #@! TO.C,C204*
X69377000Y-83015000D02*
X69377000Y-82315000D01*
X70577000Y-82315000D02*
X70577000Y-83015000D01*
G04 #@! TO.C,C205*
X72675000Y-84109000D02*
X73375000Y-84109000D01*
X73375000Y-85309000D02*
X72675000Y-85309000D01*
G04 #@! TO.C,C303*
X98976000Y-54581500D02*
X99676000Y-54581500D01*
X99676000Y-55781500D02*
X98976000Y-55781500D01*
G04 #@! TO.C,C304*
X94203000Y-50003000D02*
X93503000Y-50003000D01*
X93503000Y-48803000D02*
X94203000Y-48803000D01*
G04 #@! TO.C,C305*
X92675000Y-43973000D02*
X92675000Y-44673000D01*
X91475000Y-44673000D02*
X91475000Y-43973000D01*
G04 #@! TO.C,C307*
X111979000Y-46767000D02*
X111979000Y-47467000D01*
X110779000Y-47467000D02*
X110779000Y-46767000D01*
G04 #@! TO.C,C308*
X109509000Y-38577000D02*
X109509000Y-37877000D01*
X110709000Y-37877000D02*
X110709000Y-38577000D01*
G04 #@! TO.C,C309*
X110709000Y-41179000D02*
X110709000Y-41879000D01*
X109509000Y-41879000D02*
X109509000Y-41179000D01*
G04 #@! TO.C,C310*
X110709000Y-46259000D02*
X110709000Y-46959000D01*
X109509000Y-46959000D02*
X109509000Y-46259000D01*
G04 #@! TO.C,C312*
X96626500Y-33182000D02*
X97326500Y-33182000D01*
X97326500Y-34382000D02*
X96626500Y-34382000D01*
G04 #@! TO.C,C313*
X113249000Y-46767000D02*
X113249000Y-47467000D01*
X112049000Y-47467000D02*
X112049000Y-46767000D01*
G04 #@! TO.C,C314*
X112233000Y-41941000D02*
X112233000Y-42641000D01*
X111033000Y-42641000D02*
X111033000Y-41941000D01*
G04 #@! TO.C,C315*
X111033000Y-37815000D02*
X111033000Y-37115000D01*
X112233000Y-37115000D02*
X112233000Y-37815000D01*
G04 #@! TO.C,C316*
X126777000Y-30515000D02*
X127477000Y-30515000D01*
X127477000Y-31715000D02*
X126777000Y-31715000D01*
G04 #@! TO.C,C317*
X124237000Y-30515000D02*
X124937000Y-30515000D01*
X124937000Y-31715000D02*
X124237000Y-31715000D01*
G04 #@! TO.C,C501*
X92475000Y-69821500D02*
X93175000Y-69821500D01*
X93175000Y-71021500D02*
X92475000Y-71021500D01*
G04 #@! TO.C,C502*
X97706000Y-81315000D02*
X98406000Y-81315000D01*
X98406000Y-82515000D02*
X97706000Y-82515000D01*
G04 #@! TO.C,C504*
X103921000Y-77300000D02*
X103921000Y-76600000D01*
X105121000Y-76600000D02*
X105121000Y-77300000D01*
G04 #@! TO.C,C701*
X54718000Y-62830000D02*
X54018000Y-62830000D01*
X54018000Y-61630000D02*
X54718000Y-61630000D01*
G04 #@! TO.C,C702*
X59151000Y-71720000D02*
X58451000Y-71720000D01*
X58451000Y-70520000D02*
X59151000Y-70520000D01*
G04 #@! TO.C,C902*
X76866000Y-63535000D02*
X77566000Y-63535000D01*
X77566000Y-64735000D02*
X76866000Y-64735000D01*
G04 #@! TO.C,C1001*
X83601000Y-44788000D02*
X83601000Y-44088000D01*
X84801000Y-44088000D02*
X84801000Y-44788000D01*
G04 #@! TO.C,C1002*
X83982000Y-36176000D02*
X83982000Y-35476000D01*
X85182000Y-35476000D02*
X85182000Y-36176000D01*
G04 #@! TO.C,C1109*
X82327000Y-55661000D02*
X83027000Y-55661000D01*
X83027000Y-56861000D02*
X82327000Y-56861000D01*
G04 #@! TO.C,C1110*
X82327000Y-54391000D02*
X83027000Y-54391000D01*
X83027000Y-55591000D02*
X82327000Y-55591000D01*
G04 #@! TO.C,C1111*
X72105000Y-55591000D02*
X71405000Y-55591000D01*
X71405000Y-54391000D02*
X72105000Y-54391000D01*
G04 #@! TO.C,C1112*
X72105000Y-57369000D02*
X71405000Y-57369000D01*
X71405000Y-56169000D02*
X72105000Y-56169000D01*
G04 #@! TO.C,C1113*
X82327000Y-58201000D02*
X83027000Y-58201000D01*
X83027000Y-59401000D02*
X82327000Y-59401000D01*
G04 #@! TO.C,C1114*
X82327000Y-51851000D02*
X83027000Y-51851000D01*
X83027000Y-53051000D02*
X82327000Y-53051000D01*
G04 #@! TO.C,C1115*
X72752000Y-53051000D02*
X72052000Y-53051000D01*
X72052000Y-51851000D02*
X72752000Y-51851000D01*
G04 #@! TO.C,C1116*
X74391000Y-59909000D02*
X73691000Y-59909000D01*
X73691000Y-58709000D02*
X74391000Y-58709000D01*
G04 #@! TO.C,D301*
X92718000Y-35971000D02*
X93718000Y-35971000D01*
X93718000Y-35971000D02*
X93718000Y-33871000D01*
X92718000Y-35971000D02*
X92718000Y-33871000D01*
G04 #@! TO.C,D302*
X91384500Y-35971000D02*
X92384500Y-35971000D01*
X92384500Y-35971000D02*
X92384500Y-33871000D01*
X91384500Y-35971000D02*
X91384500Y-33871000D01*
G04 #@! TO.C,D701*
X95179000Y-81520000D02*
X94249000Y-81520000D01*
X92019000Y-81520000D02*
X92949000Y-81520000D01*
X92019000Y-81520000D02*
X92019000Y-83680000D01*
X95179000Y-81520000D02*
X95179000Y-82980000D01*
G04 #@! TO.C,D702*
X90861000Y-81552000D02*
X89931000Y-81552000D01*
X87701000Y-81552000D02*
X88631000Y-81552000D01*
X87701000Y-81552000D02*
X87701000Y-83712000D01*
X90861000Y-81552000D02*
X90861000Y-83012000D01*
G04 #@! TO.C,J106*
X72778000Y-47625000D02*
X72778000Y-47745000D01*
X72778000Y-47745000D02*
X75558000Y-47745000D01*
X75558000Y-47745000D02*
X75558000Y-47625000D01*
X75558000Y-47625000D02*
X72778000Y-47625000D01*
X72778000Y-46355000D02*
X72778000Y-44965000D01*
X72778000Y-44965000D02*
X74168000Y-44965000D01*
G04 #@! TO.C,L301*
X122593500Y-36818500D02*
X122593500Y-33358500D01*
X118833500Y-36818500D02*
X118833500Y-33358500D01*
G04 #@! TO.C,L302*
X126594000Y-36782000D02*
X126594000Y-33322000D01*
X122834000Y-36782000D02*
X122834000Y-33322000D01*
G04 #@! TO.C,L303*
X130531000Y-36782000D02*
X130531000Y-33322000D01*
X126771000Y-36782000D02*
X126771000Y-33322000D01*
G04 #@! TO.C,Q101*
X117476000Y-81555000D02*
X117476000Y-83205000D01*
X117476000Y-83205000D02*
X119276000Y-83205000D01*
X119276000Y-73005000D02*
X117476000Y-73005000D01*
X117476000Y-73005000D02*
X117476000Y-74655000D01*
G04 #@! TO.C,Q102*
X111631000Y-75430500D02*
X111631000Y-74500500D01*
X111631000Y-72270500D02*
X111631000Y-73200500D01*
X111631000Y-72270500D02*
X109471000Y-72270500D01*
X111631000Y-75430500D02*
X110171000Y-75430500D01*
G04 #@! TO.C,Q104*
X77526000Y-34800000D02*
X76596000Y-34800000D01*
X74366000Y-34800000D02*
X75296000Y-34800000D01*
X74366000Y-34800000D02*
X74366000Y-36960000D01*
X77526000Y-34800000D02*
X77526000Y-36260000D01*
G04 #@! TO.C,R101*
X111551000Y-76335000D02*
X111551000Y-77335000D01*
X110191000Y-77335000D02*
X110191000Y-76335000D01*
G04 #@! TO.C,R102*
X105410279Y-70031614D02*
X106117386Y-70738721D01*
X105155721Y-71700386D02*
X104448614Y-70993279D01*
G04 #@! TO.C,R103*
X107778000Y-74477500D02*
X107778000Y-73477500D01*
X109138000Y-73477500D02*
X109138000Y-74477500D01*
G04 #@! TO.C,R104*
X110027000Y-76335000D02*
X110027000Y-77335000D01*
X108667000Y-77335000D02*
X108667000Y-76335000D01*
G04 #@! TO.C,R105*
X107143000Y-77335000D02*
X107143000Y-76335000D01*
X108503000Y-76335000D02*
X108503000Y-77335000D01*
G04 #@! TO.C,R106*
X127960500Y-59835500D02*
X128960500Y-59835500D01*
X128960500Y-61195500D02*
X127960500Y-61195500D01*
G04 #@! TO.C,R107*
X125711500Y-58797000D02*
X125711500Y-59797000D01*
X124351500Y-59797000D02*
X124351500Y-58797000D01*
G04 #@! TO.C,R108*
X127960500Y-58375000D02*
X128960500Y-58375000D01*
X128960500Y-59735000D02*
X127960500Y-59735000D01*
G04 #@! TO.C,R109*
X127108500Y-57983500D02*
X127108500Y-58983500D01*
X125748500Y-58983500D02*
X125748500Y-57983500D01*
G04 #@! TO.C,R110*
X71737600Y-43465200D02*
X72737600Y-43465200D01*
X72737600Y-44825200D02*
X71737600Y-44825200D01*
G04 #@! TO.C,R112*
X75446000Y-38055000D02*
X76446000Y-38055000D01*
X76446000Y-39415000D02*
X75446000Y-39415000D01*
G04 #@! TO.C,R201*
X68027000Y-76839000D02*
X68027000Y-75839000D01*
X69387000Y-75839000D02*
X69387000Y-76839000D01*
G04 #@! TO.C,R202*
X68027000Y-79125000D02*
X68027000Y-78125000D01*
X69387000Y-78125000D02*
X69387000Y-79125000D01*
G04 #@! TO.C,R203*
X70657000Y-75839000D02*
X70657000Y-76839000D01*
X69297000Y-76839000D02*
X69297000Y-75839000D01*
G04 #@! TO.C,R204*
X69387000Y-82673000D02*
X69387000Y-83673000D01*
X68027000Y-83673000D02*
X68027000Y-82673000D01*
G04 #@! TO.C,R205*
X69387000Y-80387000D02*
X69387000Y-81387000D01*
X68027000Y-81387000D02*
X68027000Y-80387000D01*
G04 #@! TO.C,R301*
X94533000Y-31313500D02*
X94533000Y-32313500D01*
X93173000Y-32313500D02*
X93173000Y-31313500D01*
G04 #@! TO.C,R302*
X93072500Y-31313500D02*
X93072500Y-32313500D01*
X91712500Y-32313500D02*
X91712500Y-31313500D01*
G04 #@! TO.C,R303*
X91395000Y-42283000D02*
X91395000Y-41283000D01*
X92755000Y-41283000D02*
X92755000Y-42283000D01*
G04 #@! TO.C,R504*
X97556000Y-82505000D02*
X98556000Y-82505000D01*
X98556000Y-83865000D02*
X97556000Y-83865000D01*
G04 #@! TO.C,R505*
X95295000Y-78355000D02*
X95295000Y-79355000D01*
X93935000Y-79355000D02*
X93935000Y-78355000D01*
G04 #@! TO.C,R506*
X97770000Y-80817000D02*
X96770000Y-80817000D01*
X96770000Y-79457000D02*
X97770000Y-79457000D01*
G04 #@! TO.C,R801*
X125420500Y-61994500D02*
X126420500Y-61994500D01*
X126420500Y-63354500D02*
X125420500Y-63354500D01*
G04 #@! TO.C,R802*
X125432500Y-63518500D02*
X126432500Y-63518500D01*
X126432500Y-64878500D02*
X125432500Y-64878500D01*
G04 #@! TO.C,R803*
X128786000Y-67011000D02*
X129786000Y-67011000D01*
X129786000Y-68371000D02*
X128786000Y-68371000D01*
G04 #@! TO.C,R1001*
X80563000Y-42160000D02*
X80563000Y-43160000D01*
X79203000Y-43160000D02*
X79203000Y-42160000D01*
G04 #@! TO.C,R1002*
X81006000Y-35478000D02*
X80006000Y-35478000D01*
X80006000Y-34118000D02*
X81006000Y-34118000D01*
G04 #@! TO.C,R1003*
X79076000Y-38588000D02*
X79076000Y-37588000D01*
X80436000Y-37588000D02*
X80436000Y-38588000D01*
G04 #@! TO.C,R1004*
X82316000Y-34118000D02*
X83316000Y-34118000D01*
X83316000Y-35478000D02*
X82316000Y-35478000D01*
G04 #@! TO.C,R1109*
X85717000Y-58211000D02*
X84717000Y-58211000D01*
X84717000Y-56851000D02*
X85717000Y-56851000D01*
G04 #@! TO.C,R1110*
X85717000Y-54401000D02*
X84717000Y-54401000D01*
X84717000Y-53041000D02*
X85717000Y-53041000D01*
G04 #@! TO.C,R1111*
X76458000Y-52750000D02*
X75458000Y-52750000D01*
X75458000Y-51390000D02*
X76458000Y-51390000D01*
G04 #@! TO.C,R1112*
X74541000Y-61513000D02*
X73541000Y-61513000D01*
X73541000Y-60153000D02*
X74541000Y-60153000D01*
G04 #@! TO.C,R1113*
X83177000Y-58211000D02*
X82177000Y-58211000D01*
X82177000Y-56851000D02*
X83177000Y-56851000D01*
G04 #@! TO.C,R1114*
X83177000Y-54401000D02*
X82177000Y-54401000D01*
X82177000Y-53041000D02*
X83177000Y-53041000D01*
G04 #@! TO.C,R1115*
X71255000Y-53041000D02*
X72255000Y-53041000D01*
X72255000Y-54401000D02*
X71255000Y-54401000D01*
G04 #@! TO.C,R1116*
X71255000Y-57359000D02*
X72255000Y-57359000D01*
X72255000Y-58719000D02*
X71255000Y-58719000D01*
D13*
G04 #@! TO.C,U201*
X74824000Y-75565000D02*
X73824000Y-75565000D01*
X74824000Y-74295000D02*
X84674000Y-74295000D01*
X74824000Y-84455000D02*
X74824000Y-74295000D01*
X74824000Y-84455000D02*
X84674000Y-84455000D01*
X84674000Y-74295000D02*
X84674000Y-84455000D01*
X74824000Y-76835000D02*
X73824000Y-76835000D01*
X74824000Y-78105000D02*
X73824000Y-78105000D01*
X74824000Y-79375000D02*
X73824000Y-79375000D01*
X74824000Y-80645000D02*
X73824000Y-80645000D01*
X74824000Y-81915000D02*
X73824000Y-81915000D01*
X74824000Y-83185000D02*
X73824000Y-83185000D01*
G04 #@! TO.C,U302*
X101981000Y-36195000D02*
X101981000Y-34925000D01*
X103251000Y-36195000D02*
X101981000Y-36195000D01*
X103251000Y-48895000D02*
X103251000Y-36195000D01*
X101981000Y-48895000D02*
X103251000Y-48895000D01*
X101981000Y-50165000D02*
X101981000Y-48895000D01*
X99441000Y-48895000D02*
X99441000Y-50165000D01*
X98171000Y-48895000D02*
X99441000Y-48895000D01*
X98171000Y-36195000D02*
X98171000Y-48895000D01*
X99441000Y-36195000D02*
X98171000Y-36195000D01*
X99441000Y-34925000D02*
X99441000Y-36195000D01*
D14*
X96901000Y-34925000D02*
X96011000Y-35815000D01*
D13*
X98551000Y-34545000D02*
X95631000Y-37465000D01*
X105791000Y-34545000D02*
X95631000Y-34545000D01*
X105791000Y-50545000D02*
X105791000Y-34545000D01*
X95631000Y-50545000D02*
X105791000Y-50545000D01*
X95631000Y-34545000D02*
X95631000Y-50545000D01*
G04 #@! TO.C,U501*
X97091000Y-79112500D02*
X101591000Y-79112500D01*
X95966000Y-73562500D02*
X101591000Y-73562500D01*
G04 #@! TO.C,U701*
X60076000Y-64600000D02*
X60051000Y-64600000D01*
X60076000Y-68750000D02*
X59961000Y-68750000D01*
X51176000Y-68750000D02*
X51291000Y-68750000D01*
X51176000Y-64600000D02*
X51291000Y-64600000D01*
X60076000Y-64600000D02*
X60076000Y-68750000D01*
X51176000Y-64600000D02*
X51176000Y-68750000D01*
X60051000Y-64600000D02*
X60051000Y-63225000D01*
D12*
G04 #@! TO.C,U902*
X72916000Y-61600000D02*
X72916000Y-62530000D01*
X72916000Y-64760000D02*
X72916000Y-63830000D01*
X72916000Y-64760000D02*
X75076000Y-64760000D01*
X72916000Y-61600000D02*
X74376000Y-61600000D01*
D13*
G04 #@! TO.C,U1001*
X81471000Y-41718000D02*
X81621000Y-41718000D01*
X81471000Y-38468000D02*
X81718500Y-38468000D01*
X84721000Y-38468000D02*
X84473500Y-38468000D01*
X84721000Y-41718000D02*
X84473500Y-41718000D01*
X81471000Y-41718000D02*
X81471000Y-38468000D01*
X84721000Y-41718000D02*
X84721000Y-38468000D01*
X81621000Y-41718000D02*
X81621000Y-42643000D01*
G04 #@! TO.C,U1102*
X79668000Y-58378000D02*
X79668000Y-58253000D01*
X75018000Y-58378000D02*
X75018000Y-58153000D01*
X75018000Y-53128000D02*
X75018000Y-53353000D01*
X79668000Y-53128000D02*
X79668000Y-53353000D01*
X79668000Y-58378000D02*
X75018000Y-58378000D01*
X79668000Y-53128000D02*
X75018000Y-53128000D01*
X79668000Y-58253000D02*
X81018000Y-58253000D01*
D12*
G04 #@! TO.C,C103*
X112673500Y-67492500D02*
X112673500Y-66492500D01*
X110973500Y-66492500D02*
X110973500Y-67492500D01*
D13*
G04 #@! TO.C,L101*
X122301000Y-64770000D02*
X119761000Y-64770000D01*
X110871000Y-49530000D02*
X113411000Y-49530000D01*
X124206000Y-51435000D02*
G75*
G03X122301000Y-49530000I-1905000J0D01*
G01*
X122301000Y-64770000D02*
G75*
G03X124206000Y-62865000I0J1905000D01*
G01*
X108966000Y-62865000D02*
G75*
G03X110871000Y-64770000I1905000J0D01*
G01*
X110871000Y-49530000D02*
G75*
G03X108966000Y-51435000I0J-1905000D01*
G01*
X113411000Y-64770000D02*
X110871000Y-64770000D01*
X124206000Y-51435000D02*
X124206000Y-62865000D01*
X119761000Y-49530000D02*
X122301000Y-49530000D01*
X108966000Y-62865000D02*
X108966000Y-51435000D01*
G04 #@! TO.C,L1001*
X90028500Y-33782000D02*
X90028500Y-34036000D01*
X85964500Y-33782000D02*
X90028500Y-33782000D01*
X85964500Y-34036000D02*
X85964500Y-33782000D01*
X85964500Y-37846000D02*
X85964500Y-37592000D01*
X90028500Y-37846000D02*
X85964500Y-37846000D01*
X90028500Y-37846000D02*
X90028500Y-37592000D01*
D12*
G04 #@! TO.C,R113*
X128024000Y-48786500D02*
X129024000Y-48786500D01*
X129024000Y-50146500D02*
X128024000Y-50146500D01*
G04 #@! TO.C,R114*
X125432500Y-48786500D02*
X126432500Y-48786500D01*
X126432500Y-50146500D02*
X125432500Y-50146500D01*
G04 #@! TO.C,U101*
X79116000Y-67075000D02*
X79116000Y-68335000D01*
X79116000Y-73895000D02*
X79116000Y-72635000D01*
X82876000Y-67075000D02*
X79116000Y-67075000D01*
X85126000Y-73895000D02*
X79116000Y-73895000D01*
G04 #@! TO.C,R115*
X60751000Y-89035000D02*
X60751000Y-90035000D01*
X59391000Y-90035000D02*
X59391000Y-89035000D01*
G04 #@! TO.C,R117*
X140126000Y-85352000D02*
X140126000Y-86352000D01*
X138766000Y-86352000D02*
X138766000Y-85352000D01*
D13*
G04 #@! TO.C,FL701*
X50546000Y-79375000D02*
X50546000Y-80645000D01*
X60706000Y-79375000D02*
X50546000Y-79375000D01*
X60706000Y-80645000D02*
X60706000Y-79375000D01*
X60706000Y-83185000D02*
X60706000Y-81915000D01*
X50546000Y-83185000D02*
X50546000Y-81915000D01*
X50546000Y-85725000D02*
X50546000Y-84455000D01*
X60706000Y-85725000D02*
X50546000Y-85725000D01*
X60706000Y-85725000D02*
X60706000Y-84455000D01*
G04 #@! TO.C,FL702*
X50546000Y-72390000D02*
X50546000Y-73660000D01*
X60706000Y-72390000D02*
X50546000Y-72390000D01*
X60706000Y-73660000D02*
X60706000Y-72390000D01*
X60706000Y-76200000D02*
X60706000Y-74930000D01*
X50546000Y-76200000D02*
X50546000Y-74930000D01*
X50546000Y-78740000D02*
X50546000Y-77470000D01*
X60706000Y-78740000D02*
X50546000Y-78740000D01*
X60706000Y-78740000D02*
X60706000Y-77470000D01*
D12*
G04 #@! TO.C,R608*
X61042000Y-86364000D02*
X61042000Y-85364000D01*
X62402000Y-85364000D02*
X62402000Y-86364000D01*
D13*
G04 #@! TO.C,J101*
X109509000Y-96334000D02*
X109509000Y-81734000D01*
X70309000Y-96334000D02*
X109509000Y-96334000D01*
X70309000Y-81734000D02*
X70309000Y-96334000D01*
X70309000Y-81734000D02*
X109509000Y-81734000D01*
D12*
X70739000Y-85734000D02*
X108829000Y-85734000D01*
X70739000Y-85734000D02*
X70739000Y-92324000D01*
X108829000Y-92324000D02*
X108829000Y-85734000D01*
X108829000Y-92324000D02*
X70739000Y-92324000D01*
D13*
G04 #@! TO.C,J103*
X100726000Y-20005000D02*
X100726000Y-34605000D01*
X69526000Y-20005000D02*
X100726000Y-20005000D01*
X69526000Y-34605000D02*
X69526000Y-20005000D01*
X69526000Y-34605000D02*
X100726000Y-34605000D01*
D12*
X100196000Y-30605000D02*
X69986000Y-30605000D01*
X100196000Y-30605000D02*
X100196000Y-23755000D01*
X69986000Y-23755000D02*
X69986000Y-30605000D01*
X69986000Y-23755000D02*
X100196000Y-23755000D01*
D13*
G04 #@! TO.C,J104*
X140118000Y-19998000D02*
X140118000Y-34598000D01*
X100918000Y-19998000D02*
X140118000Y-19998000D01*
X100918000Y-34598000D02*
X100918000Y-19998000D01*
X100918000Y-34598000D02*
X140118000Y-34598000D01*
D12*
X139558000Y-30598000D02*
X101478000Y-30598000D01*
X139558000Y-30598000D02*
X139558000Y-24008000D01*
X101478000Y-24008000D02*
X101478000Y-30598000D01*
X101478000Y-24008000D02*
X139558000Y-24008000D01*
G04 #@! TO.C,C110*
X85821000Y-52987500D02*
X85121000Y-52987500D01*
X85121000Y-51787500D02*
X85821000Y-51787500D01*
G04 #@! TO.C,C111*
X78402000Y-51470000D02*
X79102000Y-51470000D01*
X79102000Y-52670000D02*
X78402000Y-52670000D01*
G04 #@! TO.C,C112*
X76409500Y-60360000D02*
X77109500Y-60360000D01*
X77109500Y-61560000D02*
X76409500Y-61560000D01*
G04 #@! TO.C,C113*
X85884500Y-56734000D02*
X85184500Y-56734000D01*
X85184500Y-55534000D02*
X85884500Y-55534000D01*
G04 #@! TO.C,C115*
X98460000Y-57881000D02*
X98460000Y-57181000D01*
X99660000Y-57181000D02*
X99660000Y-57881000D01*
G04 #@! TO.C,C116*
X91409000Y-64671500D02*
X90709000Y-64671500D01*
X90709000Y-63471500D02*
X91409000Y-63471500D01*
G04 #@! TO.C,D101*
X73160000Y-70350000D02*
X74160000Y-70350000D01*
X74160000Y-70350000D02*
X74160000Y-68250000D01*
X73160000Y-70350000D02*
X73160000Y-68250000D01*
G04 #@! TO.C,D102*
X88908000Y-72890000D02*
X89908000Y-72890000D01*
X89908000Y-72890000D02*
X89908000Y-70790000D01*
X88908000Y-72890000D02*
X88908000Y-70790000D01*
G04 #@! TO.C,D103*
X135898000Y-82745000D02*
X136898000Y-82745000D01*
X136898000Y-82745000D02*
X136898000Y-80645000D01*
X135898000Y-82745000D02*
X135898000Y-80645000D01*
G04 #@! TO.C,D801*
X131580000Y-50411000D02*
X132580000Y-50411000D01*
X132580000Y-50411000D02*
X132580000Y-48311000D01*
X131580000Y-50411000D02*
X131580000Y-48311000D01*
G04 #@! TO.C,D802*
X131580000Y-60520000D02*
X132580000Y-60520000D01*
X132580000Y-60520000D02*
X132580000Y-58420000D01*
X131580000Y-60520000D02*
X131580000Y-58420000D01*
G04 #@! TO.C,D803*
X131707000Y-69461000D02*
X132707000Y-69461000D01*
X132707000Y-69461000D02*
X132707000Y-67361000D01*
X131707000Y-69461000D02*
X131707000Y-67361000D01*
G04 #@! TO.C,R127*
X137078000Y-78252000D02*
X137078000Y-79252000D01*
X135718000Y-79252000D02*
X135718000Y-78252000D01*
G04 #@! TO.C,R807*
X130322000Y-46183000D02*
X131322000Y-46183000D01*
X131322000Y-47543000D02*
X130322000Y-47543000D01*
G04 #@! TO.C,R808*
X132760000Y-56130000D02*
X132760000Y-57130000D01*
X131400000Y-57130000D02*
X131400000Y-56130000D01*
G04 #@! TO.C,R809*
X132887000Y-65171000D02*
X132887000Y-66171000D01*
X131527000Y-66171000D02*
X131527000Y-65171000D01*
G04 #@! TO.C,C101*
X90281000Y-77974000D02*
X88281000Y-77974000D01*
X88281000Y-80014000D02*
X90281000Y-80014000D01*
G04 #@! TO.C,C108*
X88142000Y-73096500D02*
X88142000Y-71096500D01*
X86102000Y-71096500D02*
X86102000Y-73096500D01*
G04 #@! TO.C,C507*
X106454500Y-78187500D02*
X106454500Y-78887500D01*
X105254500Y-78887500D02*
X105254500Y-78187500D01*
G04 #@! TO.C,C917*
X76409500Y-59090000D02*
X77109500Y-59090000D01*
X77109500Y-60290000D02*
X76409500Y-60290000D01*
G04 #@! TO.C,C1003*
X81558000Y-34124000D02*
X82558000Y-34124000D01*
X82558000Y-32424000D02*
X81558000Y-32424000D01*
G04 #@! TO.C,C1201*
X122014500Y-65059000D02*
X122714500Y-65059000D01*
X122714500Y-66259000D02*
X122014500Y-66259000D01*
G04 #@! TO.C,C1202*
X125572000Y-66259000D02*
X124872000Y-66259000D01*
X124872000Y-65059000D02*
X125572000Y-65059000D01*
G04 #@! TO.C,D304*
X122655000Y-38363000D02*
X122655000Y-42663000D01*
X122655000Y-42663000D02*
X128355000Y-42663000D01*
X122655000Y-38363000D02*
X128355000Y-38363000D01*
G04 #@! TO.C,D306*
X117357000Y-46001000D02*
X121657000Y-46001000D01*
X121657000Y-46001000D02*
X121657000Y-40301000D01*
X117357000Y-46001000D02*
X117357000Y-40301000D01*
G04 #@! TO.C,D501*
X93306000Y-78350000D02*
X93306000Y-74050000D01*
X93306000Y-74050000D02*
X87606000Y-74050000D01*
X93306000Y-78350000D02*
X87606000Y-78350000D01*
G04 #@! TO.C,R508*
X92325000Y-71202000D02*
X93325000Y-71202000D01*
X93325000Y-72562000D02*
X92325000Y-72562000D01*
D13*
G04 #@! TO.C,U1201*
X121879000Y-71940000D02*
X126279000Y-71940000D01*
X120304000Y-66415000D02*
X126279000Y-66415000D01*
D12*
G04 #@! TO.C,C102*
X73771000Y-70735000D02*
X71771000Y-70735000D01*
X71771000Y-72775000D02*
X73771000Y-72775000D01*
G04 #@! TO.C,D1001*
X88454500Y-38542000D02*
X85154500Y-38542000D01*
X85154500Y-38542000D02*
X85154500Y-43942000D01*
X88454500Y-38542000D02*
X88454500Y-43942000D01*
G04 #@! TO.C,C302*
X108044500Y-34769500D02*
X108744500Y-34769500D01*
X108744500Y-35969500D02*
X108044500Y-35969500D01*
G04 #@! TO.C,C306*
X108300000Y-50066500D02*
X107600000Y-50066500D01*
X107600000Y-48866500D02*
X108300000Y-48866500D01*
G04 #@! TO.C,C207*
X70708000Y-85563000D02*
X70008000Y-85563000D01*
X70008000Y-84363000D02*
X70708000Y-84363000D01*
G04 #@! TO.C,R128*
X110852500Y-66175000D02*
X110852500Y-67175000D01*
X109492500Y-67175000D02*
X109492500Y-66175000D01*
G04 #@! TO.C,D1002*
X74387200Y-44792800D02*
X76387200Y-44792800D01*
X76387200Y-44792800D02*
X76387200Y-40942800D01*
X74387200Y-44792800D02*
X74387200Y-40942800D01*
G04 #@! TO.C,D1003*
X78774800Y-42097600D02*
X76774800Y-42097600D01*
X76774800Y-42097600D02*
X76774800Y-45947600D01*
X78774800Y-42097600D02*
X78774800Y-45947600D01*
G04 #@! TO.C,R123*
D13*
X104747452Y-67858880D02*
X104414119Y-67382690D01*
X104176023Y-67858880D02*
X104176023Y-66858880D01*
X104556976Y-66858880D01*
X104652214Y-66906500D01*
X104699833Y-66954119D01*
X104747452Y-67049357D01*
X104747452Y-67192214D01*
X104699833Y-67287452D01*
X104652214Y-67335071D01*
X104556976Y-67382690D01*
X104176023Y-67382690D01*
X105699833Y-67858880D02*
X105128404Y-67858880D01*
X105414119Y-67858880D02*
X105414119Y-66858880D01*
X105318880Y-67001738D01*
X105223642Y-67096976D01*
X105128404Y-67144595D01*
X106080785Y-66954119D02*
X106128404Y-66906500D01*
X106223642Y-66858880D01*
X106461738Y-66858880D01*
X106556976Y-66906500D01*
X106604595Y-66954119D01*
X106652214Y-67049357D01*
X106652214Y-67144595D01*
X106604595Y-67287452D01*
X106033166Y-67858880D01*
X106652214Y-67858880D01*
X106985547Y-66858880D02*
X107604595Y-66858880D01*
X107271261Y-67239833D01*
X107414119Y-67239833D01*
X107509357Y-67287452D01*
X107556976Y-67335071D01*
X107604595Y-67430309D01*
X107604595Y-67668404D01*
X107556976Y-67763642D01*
X107509357Y-67811261D01*
X107414119Y-67858880D01*
X107128404Y-67858880D01*
X107033166Y-67811261D01*
X106985547Y-67763642D01*
G04 #@! TO.C,R124*
X108321588Y-70108500D02*
X107749168Y-70007485D01*
X107917527Y-70512561D02*
X107210420Y-69805455D01*
X107479794Y-69536081D01*
X107580809Y-69502409D01*
X107648153Y-69502409D01*
X107749168Y-69536081D01*
X107850183Y-69637096D01*
X107883855Y-69738111D01*
X107883855Y-69805455D01*
X107850183Y-69906470D01*
X107580809Y-70175844D01*
X108995023Y-69435065D02*
X108590962Y-69839126D01*
X108792993Y-69637096D02*
X108085886Y-68929989D01*
X108119557Y-69098348D01*
X108119557Y-69233035D01*
X108085886Y-69334050D01*
X108624634Y-68525928D02*
X108624634Y-68458584D01*
X108658305Y-68357569D01*
X108826664Y-68189210D01*
X108927680Y-68155539D01*
X108995023Y-68155539D01*
X109096038Y-68189210D01*
X109163382Y-68256554D01*
X109230725Y-68391241D01*
X109230725Y-69199363D01*
X109668458Y-68761630D01*
X109803145Y-67684134D02*
X110274550Y-68155539D01*
X109365412Y-67583119D02*
X109702130Y-68256554D01*
X110139863Y-67818821D01*
G04 #@! TO.C,J105*
X132151666Y-84637571D02*
X132294523Y-84685190D01*
X132342142Y-84732809D01*
X132389761Y-84828047D01*
X132389761Y-84970904D01*
X132342142Y-85066142D01*
X132294523Y-85113761D01*
X132199285Y-85161380D01*
X131818333Y-85161380D01*
X131818333Y-84161380D01*
X132151666Y-84161380D01*
X132246904Y-84209000D01*
X132294523Y-84256619D01*
X132342142Y-84351857D01*
X132342142Y-84447095D01*
X132294523Y-84542333D01*
X132246904Y-84589952D01*
X132151666Y-84637571D01*
X131818333Y-84637571D01*
X133008809Y-84161380D02*
X133199285Y-84161380D01*
X133294523Y-84209000D01*
X133389761Y-84304238D01*
X133437380Y-84494714D01*
X133437380Y-84828047D01*
X133389761Y-85018523D01*
X133294523Y-85113761D01*
X133199285Y-85161380D01*
X133008809Y-85161380D01*
X132913571Y-85113761D01*
X132818333Y-85018523D01*
X132770714Y-84828047D01*
X132770714Y-84494714D01*
X132818333Y-84304238D01*
X132913571Y-84209000D01*
X133008809Y-84161380D01*
X134056428Y-84161380D02*
X134246904Y-84161380D01*
X134342142Y-84209000D01*
X134437380Y-84304238D01*
X134485000Y-84494714D01*
X134485000Y-84828047D01*
X134437380Y-85018523D01*
X134342142Y-85113761D01*
X134246904Y-85161380D01*
X134056428Y-85161380D01*
X133961190Y-85113761D01*
X133865952Y-85018523D01*
X133818333Y-84828047D01*
X133818333Y-84494714D01*
X133865952Y-84304238D01*
X133961190Y-84209000D01*
X134056428Y-84161380D01*
X134865952Y-85113761D02*
X135008809Y-85161380D01*
X135246904Y-85161380D01*
X135342142Y-85113761D01*
X135389761Y-85066142D01*
X135437380Y-84970904D01*
X135437380Y-84875666D01*
X135389761Y-84780428D01*
X135342142Y-84732809D01*
X135246904Y-84685190D01*
X135056428Y-84637571D01*
X134961190Y-84589952D01*
X134913571Y-84542333D01*
X134865952Y-84447095D01*
X134865952Y-84351857D01*
X134913571Y-84256619D01*
X134961190Y-84209000D01*
X135056428Y-84161380D01*
X135294523Y-84161380D01*
X135437380Y-84209000D01*
X135723095Y-84161380D02*
X136294523Y-84161380D01*
X136008809Y-85161380D02*
X136008809Y-84161380D01*
G04 #@! TO.C,J107*
X138612619Y-37607619D02*
X138565000Y-37560000D01*
X138517380Y-37464761D01*
X138517380Y-37226666D01*
X138565000Y-37131428D01*
X138612619Y-37083809D01*
X138707857Y-37036190D01*
X138803095Y-37036190D01*
X138945952Y-37083809D01*
X139517380Y-37655238D01*
X139517380Y-37036190D01*
X138850714Y-36179047D02*
X139517380Y-36179047D01*
X138469761Y-36417142D02*
X139184047Y-36655238D01*
X139184047Y-36036190D01*
X138517380Y-35798095D02*
X139517380Y-35464761D01*
X138517380Y-35131428D01*
X139612619Y-35036190D02*
X139612619Y-34274285D01*
X139517380Y-33512380D02*
X139517380Y-34083809D01*
X139517380Y-33798095D02*
X138517380Y-33798095D01*
X138660238Y-33893333D01*
X138755476Y-33988571D01*
X138803095Y-34083809D01*
G04 #@! TO.C,J108*
X138599619Y-55387619D02*
X138552000Y-55340000D01*
X138504380Y-55244761D01*
X138504380Y-55006666D01*
X138552000Y-54911428D01*
X138599619Y-54863809D01*
X138694857Y-54816190D01*
X138790095Y-54816190D01*
X138932952Y-54863809D01*
X139504380Y-55435238D01*
X139504380Y-54816190D01*
X138837714Y-53959047D02*
X139504380Y-53959047D01*
X138456761Y-54197142D02*
X139171047Y-54435238D01*
X139171047Y-53816190D01*
X138504380Y-53578095D02*
X139504380Y-53244761D01*
X138504380Y-52911428D01*
X139599619Y-52816190D02*
X139599619Y-52054285D01*
X138599619Y-51863809D02*
X138552000Y-51816190D01*
X138504380Y-51720952D01*
X138504380Y-51482857D01*
X138552000Y-51387619D01*
X138599619Y-51340000D01*
X138694857Y-51292380D01*
X138790095Y-51292380D01*
X138932952Y-51340000D01*
X139504380Y-51911428D01*
X139504380Y-51292380D01*
G04 #@! TO.C,J109*
X138612619Y-73167619D02*
X138565000Y-73120000D01*
X138517380Y-73024761D01*
X138517380Y-72786666D01*
X138565000Y-72691428D01*
X138612619Y-72643809D01*
X138707857Y-72596190D01*
X138803095Y-72596190D01*
X138945952Y-72643809D01*
X139517380Y-73215238D01*
X139517380Y-72596190D01*
X138850714Y-71739047D02*
X139517380Y-71739047D01*
X138469761Y-71977142D02*
X139184047Y-72215238D01*
X139184047Y-71596190D01*
X138517380Y-71358095D02*
X139517380Y-71024761D01*
X138517380Y-70691428D01*
X139612619Y-70596190D02*
X139612619Y-69834285D01*
X138517380Y-69691428D02*
X138517380Y-69072380D01*
X138898333Y-69405714D01*
X138898333Y-69262857D01*
X138945952Y-69167619D01*
X138993571Y-69120000D01*
X139088809Y-69072380D01*
X139326904Y-69072380D01*
X139422142Y-69120000D01*
X139469761Y-69167619D01*
X139517380Y-69262857D01*
X139517380Y-69548571D01*
X139469761Y-69643809D01*
X139422142Y-69691428D01*
G04 #@! TO.C,J110*
X114196904Y-84637571D02*
X114339761Y-84685190D01*
X114387380Y-84732809D01*
X114435000Y-84828047D01*
X114435000Y-84970904D01*
X114387380Y-85066142D01*
X114339761Y-85113761D01*
X114244523Y-85161380D01*
X113863571Y-85161380D01*
X113863571Y-84161380D01*
X114196904Y-84161380D01*
X114292142Y-84209000D01*
X114339761Y-84256619D01*
X114387380Y-84351857D01*
X114387380Y-84447095D01*
X114339761Y-84542333D01*
X114292142Y-84589952D01*
X114196904Y-84637571D01*
X113863571Y-84637571D01*
X114815952Y-84875666D02*
X115292142Y-84875666D01*
X114720714Y-85161380D02*
X115054047Y-84161380D01*
X115387380Y-85161380D01*
X115577857Y-84161380D02*
X116149285Y-84161380D01*
X115863571Y-85161380D02*
X115863571Y-84161380D01*
G04 #@! TO.C,J111*
X123698095Y-84209000D02*
X123602857Y-84161380D01*
X123460000Y-84161380D01*
X123317142Y-84209000D01*
X123221904Y-84304238D01*
X123174285Y-84399476D01*
X123126666Y-84589952D01*
X123126666Y-84732809D01*
X123174285Y-84923285D01*
X123221904Y-85018523D01*
X123317142Y-85113761D01*
X123460000Y-85161380D01*
X123555238Y-85161380D01*
X123698095Y-85113761D01*
X123745714Y-85066142D01*
X123745714Y-84732809D01*
X123555238Y-84732809D01*
X124174285Y-85161380D02*
X124174285Y-84161380D01*
X124745714Y-85161380D01*
X124745714Y-84161380D01*
X125221904Y-85161380D02*
X125221904Y-84161380D01*
X125460000Y-84161380D01*
X125602857Y-84209000D01*
X125698095Y-84304238D01*
X125745714Y-84399476D01*
X125793333Y-84589952D01*
X125793333Y-84732809D01*
X125745714Y-84923285D01*
X125698095Y-85018523D01*
X125602857Y-85113761D01*
X125460000Y-85161380D01*
X125221904Y-85161380D01*
G04 #@! TO.C,J810*
X139517380Y-45711904D02*
X138517380Y-45711904D01*
X138993571Y-45711904D02*
X138993571Y-45140476D01*
X139517380Y-45140476D02*
X138517380Y-45140476D01*
X139517380Y-44664285D02*
X138517380Y-44664285D01*
X138517380Y-44283333D01*
X138565000Y-44188095D01*
X138612619Y-44140476D01*
X138707857Y-44092857D01*
X138850714Y-44092857D01*
X138945952Y-44140476D01*
X138993571Y-44188095D01*
X139041190Y-44283333D01*
X139041190Y-44664285D01*
X139517380Y-43140476D02*
X139517380Y-43711904D01*
X139517380Y-43426190D02*
X138517380Y-43426190D01*
X138660238Y-43521428D01*
X138755476Y-43616666D01*
X138803095Y-43711904D01*
G04 #@! TO.C,J811*
X139517380Y-63491904D02*
X138517380Y-63491904D01*
X138993571Y-63491904D02*
X138993571Y-62920476D01*
X139517380Y-62920476D02*
X138517380Y-62920476D01*
X139517380Y-62444285D02*
X138517380Y-62444285D01*
X138517380Y-62063333D01*
X138565000Y-61968095D01*
X138612619Y-61920476D01*
X138707857Y-61872857D01*
X138850714Y-61872857D01*
X138945952Y-61920476D01*
X138993571Y-61968095D01*
X139041190Y-62063333D01*
X139041190Y-62444285D01*
X138612619Y-61491904D02*
X138565000Y-61444285D01*
X138517380Y-61349047D01*
X138517380Y-61110952D01*
X138565000Y-61015714D01*
X138612619Y-60968095D01*
X138707857Y-60920476D01*
X138803095Y-60920476D01*
X138945952Y-60968095D01*
X139517380Y-61539523D01*
X139517380Y-60920476D01*
G04 #@! TO.C,J812*
X139517380Y-81271904D02*
X138517380Y-81271904D01*
X138993571Y-81271904D02*
X138993571Y-80700476D01*
X139517380Y-80700476D02*
X138517380Y-80700476D01*
X139517380Y-80224285D02*
X138517380Y-80224285D01*
X138517380Y-79843333D01*
X138565000Y-79748095D01*
X138612619Y-79700476D01*
X138707857Y-79652857D01*
X138850714Y-79652857D01*
X138945952Y-79700476D01*
X138993571Y-79748095D01*
X139041190Y-79843333D01*
X139041190Y-80224285D01*
X138517380Y-79319523D02*
X138517380Y-78700476D01*
X138898333Y-79033809D01*
X138898333Y-78890952D01*
X138945952Y-78795714D01*
X138993571Y-78748095D01*
X139088809Y-78700476D01*
X139326904Y-78700476D01*
X139422142Y-78748095D01*
X139469761Y-78795714D01*
X139517380Y-78890952D01*
X139517380Y-79176666D01*
X139469761Y-79271904D01*
X139422142Y-79319523D01*
G04 #@! TO.C,C115*
X97917142Y-58650047D02*
X97964761Y-58697666D01*
X98012380Y-58840523D01*
X98012380Y-58935761D01*
X97964761Y-59078619D01*
X97869523Y-59173857D01*
X97774285Y-59221476D01*
X97583809Y-59269095D01*
X97440952Y-59269095D01*
X97250476Y-59221476D01*
X97155238Y-59173857D01*
X97060000Y-59078619D01*
X97012380Y-58935761D01*
X97012380Y-58840523D01*
X97060000Y-58697666D01*
X97107619Y-58650047D01*
X98012380Y-57697666D02*
X98012380Y-58269095D01*
X98012380Y-57983380D02*
X97012380Y-57983380D01*
X97155238Y-58078619D01*
X97250476Y-58173857D01*
X97298095Y-58269095D01*
X98012380Y-56745285D02*
X98012380Y-57316714D01*
X98012380Y-57031000D02*
X97012380Y-57031000D01*
X97155238Y-57126238D01*
X97250476Y-57221476D01*
X97298095Y-57316714D01*
X97012380Y-55840523D02*
X97012380Y-56316714D01*
X97488571Y-56364333D01*
X97440952Y-56316714D01*
X97393333Y-56221476D01*
X97393333Y-55983380D01*
X97440952Y-55888142D01*
X97488571Y-55840523D01*
X97583809Y-55792904D01*
X97821904Y-55792904D01*
X97917142Y-55840523D01*
X97964761Y-55888142D01*
X98012380Y-55983380D01*
X98012380Y-56221476D01*
X97964761Y-56316714D01*
X97917142Y-56364333D01*
G04 #@! TO.C,TP108*
X63881095Y-30869000D02*
X63785857Y-30821380D01*
X63643000Y-30821380D01*
X63500142Y-30869000D01*
X63404904Y-30964238D01*
X63357285Y-31059476D01*
X63309666Y-31249952D01*
X63309666Y-31392809D01*
X63357285Y-31583285D01*
X63404904Y-31678523D01*
X63500142Y-31773761D01*
X63643000Y-31821380D01*
X63738238Y-31821380D01*
X63881095Y-31773761D01*
X63928714Y-31726142D01*
X63928714Y-31392809D01*
X63738238Y-31392809D01*
X64357285Y-31821380D02*
X64357285Y-30821380D01*
X64928714Y-31821380D01*
X64928714Y-30821380D01*
X65404904Y-31821380D02*
X65404904Y-30821380D01*
X65643000Y-30821380D01*
X65785857Y-30869000D01*
X65881095Y-30964238D01*
X65928714Y-31059476D01*
X65976333Y-31249952D01*
X65976333Y-31392809D01*
X65928714Y-31583285D01*
X65881095Y-31678523D01*
X65785857Y-31773761D01*
X65643000Y-31821380D01*
X65404904Y-31821380D01*
G04 #@! TO.C,C1003*
X80462761Y-35131142D02*
X80415142Y-35178761D01*
X80272285Y-35226380D01*
X80177047Y-35226380D01*
X80034190Y-35178761D01*
X79938952Y-35083523D01*
X79891333Y-34988285D01*
X79843714Y-34797809D01*
X79843714Y-34654952D01*
X79891333Y-34464476D01*
X79938952Y-34369238D01*
X80034190Y-34274000D01*
X80177047Y-34226380D01*
X80272285Y-34226380D01*
X80415142Y-34274000D01*
X80462761Y-34321619D01*
X81415142Y-35226380D02*
X80843714Y-35226380D01*
X81129428Y-35226380D02*
X81129428Y-34226380D01*
X81034190Y-34369238D01*
X80938952Y-34464476D01*
X80843714Y-34512095D01*
X82034190Y-34226380D02*
X82129428Y-34226380D01*
X82224666Y-34274000D01*
X82272285Y-34321619D01*
X82319904Y-34416857D01*
X82367523Y-34607333D01*
X82367523Y-34845428D01*
X82319904Y-35035904D01*
X82272285Y-35131142D01*
X82224666Y-35178761D01*
X82129428Y-35226380D01*
X82034190Y-35226380D01*
X81938952Y-35178761D01*
X81891333Y-35131142D01*
X81843714Y-35035904D01*
X81796095Y-34845428D01*
X81796095Y-34607333D01*
X81843714Y-34416857D01*
X81891333Y-34321619D01*
X81938952Y-34274000D01*
X82034190Y-34226380D01*
X82986571Y-34226380D02*
X83081809Y-34226380D01*
X83177047Y-34274000D01*
X83224666Y-34321619D01*
X83272285Y-34416857D01*
X83319904Y-34607333D01*
X83319904Y-34845428D01*
X83272285Y-35035904D01*
X83224666Y-35131142D01*
X83177047Y-35178761D01*
X83081809Y-35226380D01*
X82986571Y-35226380D01*
X82891333Y-35178761D01*
X82843714Y-35131142D01*
X82796095Y-35035904D01*
X82748476Y-34845428D01*
X82748476Y-34607333D01*
X82796095Y-34416857D01*
X82843714Y-34321619D01*
X82891333Y-34274000D01*
X82986571Y-34226380D01*
X83653238Y-34226380D02*
X84272285Y-34226380D01*
X83938952Y-34607333D01*
X84081809Y-34607333D01*
X84177047Y-34654952D01*
X84224666Y-34702571D01*
X84272285Y-34797809D01*
X84272285Y-35035904D01*
X84224666Y-35131142D01*
X84177047Y-35178761D01*
X84081809Y-35226380D01*
X83796095Y-35226380D01*
X83700857Y-35178761D01*
X83653238Y-35131142D01*
G04 #@! TO.C,R508*
X91705952Y-73784380D02*
X91372619Y-73308190D01*
X91134523Y-73784380D02*
X91134523Y-72784380D01*
X91515476Y-72784380D01*
X91610714Y-72832000D01*
X91658333Y-72879619D01*
X91705952Y-72974857D01*
X91705952Y-73117714D01*
X91658333Y-73212952D01*
X91610714Y-73260571D01*
X91515476Y-73308190D01*
X91134523Y-73308190D01*
X92610714Y-72784380D02*
X92134523Y-72784380D01*
X92086904Y-73260571D01*
X92134523Y-73212952D01*
X92229761Y-73165333D01*
X92467857Y-73165333D01*
X92563095Y-73212952D01*
X92610714Y-73260571D01*
X92658333Y-73355809D01*
X92658333Y-73593904D01*
X92610714Y-73689142D01*
X92563095Y-73736761D01*
X92467857Y-73784380D01*
X92229761Y-73784380D01*
X92134523Y-73736761D01*
X92086904Y-73689142D01*
X93277380Y-72784380D02*
X93372619Y-72784380D01*
X93467857Y-72832000D01*
X93515476Y-72879619D01*
X93563095Y-72974857D01*
X93610714Y-73165333D01*
X93610714Y-73403428D01*
X93563095Y-73593904D01*
X93515476Y-73689142D01*
X93467857Y-73736761D01*
X93372619Y-73784380D01*
X93277380Y-73784380D01*
X93182142Y-73736761D01*
X93134523Y-73689142D01*
X93086904Y-73593904D01*
X93039285Y-73403428D01*
X93039285Y-73165333D01*
X93086904Y-72974857D01*
X93134523Y-72879619D01*
X93182142Y-72832000D01*
X93277380Y-72784380D01*
X94182142Y-73212952D02*
X94086904Y-73165333D01*
X94039285Y-73117714D01*
X93991666Y-73022476D01*
X93991666Y-72974857D01*
X94039285Y-72879619D01*
X94086904Y-72832000D01*
X94182142Y-72784380D01*
X94372619Y-72784380D01*
X94467857Y-72832000D01*
X94515476Y-72879619D01*
X94563095Y-72974857D01*
X94563095Y-73022476D01*
X94515476Y-73117714D01*
X94467857Y-73165333D01*
X94372619Y-73212952D01*
X94182142Y-73212952D01*
X94086904Y-73260571D01*
X94039285Y-73308190D01*
X93991666Y-73403428D01*
X93991666Y-73593904D01*
X94039285Y-73689142D01*
X94086904Y-73736761D01*
X94182142Y-73784380D01*
X94372619Y-73784380D01*
X94467857Y-73736761D01*
X94515476Y-73689142D01*
X94563095Y-73593904D01*
X94563095Y-73403428D01*
X94515476Y-73308190D01*
X94467857Y-73260571D01*
X94372619Y-73212952D01*
G04 #@! TO.C,D1001*
X91066880Y-44108666D02*
X90066880Y-44108666D01*
X90066880Y-43870571D01*
X90114500Y-43727714D01*
X90209738Y-43632476D01*
X90304976Y-43584857D01*
X90495452Y-43537238D01*
X90638309Y-43537238D01*
X90828785Y-43584857D01*
X90924023Y-43632476D01*
X91019261Y-43727714D01*
X91066880Y-43870571D01*
X91066880Y-44108666D01*
X91066880Y-42584857D02*
X91066880Y-43156285D01*
X91066880Y-42870571D02*
X90066880Y-42870571D01*
X90209738Y-42965809D01*
X90304976Y-43061047D01*
X90352595Y-43156285D01*
X90066880Y-41965809D02*
X90066880Y-41870571D01*
X90114500Y-41775333D01*
X90162119Y-41727714D01*
X90257357Y-41680095D01*
X90447833Y-41632476D01*
X90685928Y-41632476D01*
X90876404Y-41680095D01*
X90971642Y-41727714D01*
X91019261Y-41775333D01*
X91066880Y-41870571D01*
X91066880Y-41965809D01*
X91019261Y-42061047D01*
X90971642Y-42108666D01*
X90876404Y-42156285D01*
X90685928Y-42203904D01*
X90447833Y-42203904D01*
X90257357Y-42156285D01*
X90162119Y-42108666D01*
X90114500Y-42061047D01*
X90066880Y-41965809D01*
X90066880Y-41013428D02*
X90066880Y-40918190D01*
X90114500Y-40822952D01*
X90162119Y-40775333D01*
X90257357Y-40727714D01*
X90447833Y-40680095D01*
X90685928Y-40680095D01*
X90876404Y-40727714D01*
X90971642Y-40775333D01*
X91019261Y-40822952D01*
X91066880Y-40918190D01*
X91066880Y-41013428D01*
X91019261Y-41108666D01*
X90971642Y-41156285D01*
X90876404Y-41203904D01*
X90685928Y-41251523D01*
X90447833Y-41251523D01*
X90257357Y-41203904D01*
X90162119Y-41156285D01*
X90114500Y-41108666D01*
X90066880Y-41013428D01*
X91066880Y-39727714D02*
X91066880Y-40299142D01*
X91066880Y-40013428D02*
X90066880Y-40013428D01*
X90209738Y-40108666D01*
X90304976Y-40203904D01*
X90352595Y-40299142D01*
G04 #@! TO.C,C306*
X106830952Y-51323642D02*
X106783333Y-51371261D01*
X106640476Y-51418880D01*
X106545238Y-51418880D01*
X106402380Y-51371261D01*
X106307142Y-51276023D01*
X106259523Y-51180785D01*
X106211904Y-50990309D01*
X106211904Y-50847452D01*
X106259523Y-50656976D01*
X106307142Y-50561738D01*
X106402380Y-50466500D01*
X106545238Y-50418880D01*
X106640476Y-50418880D01*
X106783333Y-50466500D01*
X106830952Y-50514119D01*
X107164285Y-50418880D02*
X107783333Y-50418880D01*
X107450000Y-50799833D01*
X107592857Y-50799833D01*
X107688095Y-50847452D01*
X107735714Y-50895071D01*
X107783333Y-50990309D01*
X107783333Y-51228404D01*
X107735714Y-51323642D01*
X107688095Y-51371261D01*
X107592857Y-51418880D01*
X107307142Y-51418880D01*
X107211904Y-51371261D01*
X107164285Y-51323642D01*
X108402380Y-50418880D02*
X108497619Y-50418880D01*
X108592857Y-50466500D01*
X108640476Y-50514119D01*
X108688095Y-50609357D01*
X108735714Y-50799833D01*
X108735714Y-51037928D01*
X108688095Y-51228404D01*
X108640476Y-51323642D01*
X108592857Y-51371261D01*
X108497619Y-51418880D01*
X108402380Y-51418880D01*
X108307142Y-51371261D01*
X108259523Y-51323642D01*
X108211904Y-51228404D01*
X108164285Y-51037928D01*
X108164285Y-50799833D01*
X108211904Y-50609357D01*
X108259523Y-50514119D01*
X108307142Y-50466500D01*
X108402380Y-50418880D01*
X109592857Y-50418880D02*
X109402380Y-50418880D01*
X109307142Y-50466500D01*
X109259523Y-50514119D01*
X109164285Y-50656976D01*
X109116666Y-50847452D01*
X109116666Y-51228404D01*
X109164285Y-51323642D01*
X109211904Y-51371261D01*
X109307142Y-51418880D01*
X109497619Y-51418880D01*
X109592857Y-51371261D01*
X109640476Y-51323642D01*
X109688095Y-51228404D01*
X109688095Y-50990309D01*
X109640476Y-50895071D01*
X109592857Y-50847452D01*
X109497619Y-50799833D01*
X109307142Y-50799833D01*
X109211904Y-50847452D01*
X109164285Y-50895071D01*
X109116666Y-50990309D01*
G04 #@! TO.C,R128*
X109174880Y-67794047D02*
X108698690Y-68127380D01*
X109174880Y-68365476D02*
X108174880Y-68365476D01*
X108174880Y-67984523D01*
X108222500Y-67889285D01*
X108270119Y-67841666D01*
X108365357Y-67794047D01*
X108508214Y-67794047D01*
X108603452Y-67841666D01*
X108651071Y-67889285D01*
X108698690Y-67984523D01*
X108698690Y-68365476D01*
X109174880Y-66841666D02*
X109174880Y-67413095D01*
X109174880Y-67127380D02*
X108174880Y-67127380D01*
X108317738Y-67222619D01*
X108412976Y-67317857D01*
X108460595Y-67413095D01*
X108270119Y-66460714D02*
X108222500Y-66413095D01*
X108174880Y-66317857D01*
X108174880Y-66079761D01*
X108222500Y-65984523D01*
X108270119Y-65936904D01*
X108365357Y-65889285D01*
X108460595Y-65889285D01*
X108603452Y-65936904D01*
X109174880Y-66508333D01*
X109174880Y-65889285D01*
X108603452Y-65317857D02*
X108555833Y-65413095D01*
X108508214Y-65460714D01*
X108412976Y-65508333D01*
X108365357Y-65508333D01*
X108270119Y-65460714D01*
X108222500Y-65413095D01*
X108174880Y-65317857D01*
X108174880Y-65127380D01*
X108222500Y-65032142D01*
X108270119Y-64984523D01*
X108365357Y-64936904D01*
X108412976Y-64936904D01*
X108508214Y-64984523D01*
X108555833Y-65032142D01*
X108603452Y-65127380D01*
X108603452Y-65317857D01*
X108651071Y-65413095D01*
X108698690Y-65460714D01*
X108793928Y-65508333D01*
X108984404Y-65508333D01*
X109079642Y-65460714D01*
X109127261Y-65413095D01*
X109174880Y-65317857D01*
X109174880Y-65127380D01*
X109127261Y-65032142D01*
X109079642Y-64984523D01*
X108984404Y-64936904D01*
X108793928Y-64936904D01*
X108698690Y-64984523D01*
X108651071Y-65032142D01*
X108603452Y-65127380D01*
G04 #@! TD*
M02*
