G04 #@! TF.GenerationSoftware,KiCad,Pcbnew,5.0.0-4.fc29*
G04 #@! TF.CreationDate,2019-01-05T16:59:36+01:00*
G04 #@! TF.ProjectId,powerboard,706F776572626F6172642E6B69636164,rev11*
G04 #@! TF.SameCoordinates,Original*
G04 #@! TF.FileFunction,Legend,Bot*
G04 #@! TF.FilePolarity,Positive*
%FSLAX46Y46*%
G04 Gerber Fmt 4.6, Leading zero omitted, Abs format (unit mm)*
G04 Created by KiCad (PCBNEW 5.0.0-4.fc29) date Sat Jan  5 16:59:36 2019*
%MOMM*%
%LPD*%
G01*
G04 APERTURE LIST*
%ADD10C,0.200000*%
%ADD11C,0.300000*%
%ADD12C,0.120000*%
%ADD13C,0.150000*%
G04 APERTURE END LIST*
D10*
X64135095Y-31615000D02*
X64039857Y-31662619D01*
X63897000Y-31662619D01*
X63754142Y-31615000D01*
X63658904Y-31519761D01*
X63611285Y-31424523D01*
X63563666Y-31234047D01*
X63563666Y-31091190D01*
X63611285Y-30900714D01*
X63658904Y-30805476D01*
X63754142Y-30710238D01*
X63897000Y-30662619D01*
X63992238Y-30662619D01*
X64135095Y-30710238D01*
X64182714Y-30757857D01*
X64182714Y-31091190D01*
X63992238Y-31091190D01*
X64611285Y-30662619D02*
X64611285Y-31662619D01*
X65182714Y-30662619D01*
X65182714Y-31662619D01*
X65658904Y-30662619D02*
X65658904Y-31662619D01*
X65897000Y-31662619D01*
X66039857Y-31615000D01*
X66135095Y-31519761D01*
X66182714Y-31424523D01*
X66230333Y-31234047D01*
X66230333Y-31091190D01*
X66182714Y-30900714D01*
X66135095Y-30805476D01*
X66039857Y-30710238D01*
X65897000Y-30662619D01*
X65658904Y-30662619D01*
X99576166Y-60952119D02*
X99576166Y-61952119D01*
X99909500Y-61237833D01*
X100242833Y-61952119D01*
X100242833Y-60952119D01*
X100861880Y-60952119D02*
X100766642Y-60999738D01*
X100719023Y-61047357D01*
X100671404Y-61142595D01*
X100671404Y-61428309D01*
X100719023Y-61523547D01*
X100766642Y-61571166D01*
X100861880Y-61618785D01*
X101004738Y-61618785D01*
X101099976Y-61571166D01*
X101147595Y-61523547D01*
X101195214Y-61428309D01*
X101195214Y-61142595D01*
X101147595Y-61047357D01*
X101099976Y-60999738D01*
X101004738Y-60952119D01*
X100861880Y-60952119D01*
X101480928Y-61618785D02*
X101861880Y-61618785D01*
X101623785Y-61952119D02*
X101623785Y-61094976D01*
X101671404Y-60999738D01*
X101766642Y-60952119D01*
X101861880Y-60952119D01*
X102338071Y-60952119D02*
X102242833Y-60999738D01*
X102195214Y-61047357D01*
X102147595Y-61142595D01*
X102147595Y-61428309D01*
X102195214Y-61523547D01*
X102242833Y-61571166D01*
X102338071Y-61618785D01*
X102480928Y-61618785D01*
X102576166Y-61571166D01*
X102623785Y-61523547D01*
X102671404Y-61428309D01*
X102671404Y-61142595D01*
X102623785Y-61047357D01*
X102576166Y-60999738D01*
X102480928Y-60952119D01*
X102338071Y-60952119D01*
X103099976Y-60952119D02*
X103099976Y-61618785D01*
X103099976Y-61428309D02*
X103147595Y-61523547D01*
X103195214Y-61571166D01*
X103290452Y-61618785D01*
X103385690Y-61618785D01*
X96638904Y-70810380D02*
X96638904Y-69810380D01*
X96638904Y-70286571D02*
X96067476Y-70286571D01*
X96067476Y-70810380D02*
X96067476Y-69810380D01*
X95591285Y-70810380D02*
X95591285Y-69810380D01*
X95210333Y-69810380D01*
X95115095Y-69858000D01*
X95067476Y-69905619D01*
X95019857Y-70000857D01*
X95019857Y-70143714D01*
X95067476Y-70238952D01*
X95115095Y-70286571D01*
X95210333Y-70334190D01*
X95591285Y-70334190D01*
X94686523Y-69810380D02*
X94067476Y-69810380D01*
X94400809Y-70191333D01*
X94257952Y-70191333D01*
X94162714Y-70238952D01*
X94115095Y-70286571D01*
X94067476Y-70381809D01*
X94067476Y-70619904D01*
X94115095Y-70715142D01*
X94162714Y-70762761D01*
X94257952Y-70810380D01*
X94543666Y-70810380D01*
X94638904Y-70762761D01*
X94686523Y-70715142D01*
D11*
X74949500Y-50208571D02*
X74949500Y-49208571D01*
X74949500Y-49494285D02*
X74878071Y-49351428D01*
X74806642Y-49280000D01*
X74663785Y-49208571D01*
X74520928Y-49208571D01*
X73449500Y-50137142D02*
X73592357Y-50208571D01*
X73878071Y-50208571D01*
X74020928Y-50137142D01*
X74092357Y-49994285D01*
X74092357Y-49422857D01*
X74020928Y-49280000D01*
X73878071Y-49208571D01*
X73592357Y-49208571D01*
X73449500Y-49280000D01*
X73378071Y-49422857D01*
X73378071Y-49565714D01*
X74092357Y-49708571D01*
X72878071Y-49208571D02*
X72520928Y-50208571D01*
X72163785Y-49208571D01*
X70806642Y-50208571D02*
X71663785Y-50208571D01*
X71235214Y-50208571D02*
X71235214Y-48708571D01*
X71378071Y-48922857D01*
X71520928Y-49065714D01*
X71663785Y-49137142D01*
X69378071Y-50208571D02*
X70235214Y-50208571D01*
X69806642Y-50208571D02*
X69806642Y-48708571D01*
X69949500Y-48922857D01*
X70092357Y-49065714D01*
X70235214Y-49137142D01*
X79281571Y-42505857D02*
X78567285Y-42005857D01*
X79281571Y-41648714D02*
X77781571Y-41648714D01*
X77781571Y-42220142D01*
X77853000Y-42363000D01*
X77924428Y-42434428D01*
X78067285Y-42505857D01*
X78281571Y-42505857D01*
X78424428Y-42434428D01*
X78495857Y-42363000D01*
X78567285Y-42220142D01*
X78567285Y-41648714D01*
X77781571Y-43005857D02*
X79281571Y-44005857D01*
X77781571Y-44005857D02*
X79281571Y-43005857D01*
X78710142Y-44577285D02*
X78710142Y-45720142D01*
X77781571Y-46220142D02*
X79281571Y-46720142D01*
X77781571Y-47220142D01*
X79281571Y-47720142D02*
X77781571Y-47720142D01*
X79281571Y-48434428D02*
X77781571Y-48434428D01*
X77781571Y-49005857D01*
X77853000Y-49148714D01*
X77924428Y-49220142D01*
X78067285Y-49291571D01*
X78281571Y-49291571D01*
X78424428Y-49220142D01*
X78495857Y-49148714D01*
X78567285Y-49005857D01*
X78567285Y-48434428D01*
X78495857Y-49934428D02*
X78495857Y-50434428D01*
X79281571Y-50648714D02*
X79281571Y-49934428D01*
X77781571Y-49934428D01*
X77781571Y-50648714D01*
X79281571Y-52148714D02*
X78567285Y-51648714D01*
X79281571Y-51291571D02*
X77781571Y-51291571D01*
X77781571Y-51863000D01*
X77853000Y-52005857D01*
X77924428Y-52077285D01*
X78067285Y-52148714D01*
X78281571Y-52148714D01*
X78424428Y-52077285D01*
X78495857Y-52005857D01*
X78567285Y-51863000D01*
X78567285Y-51291571D01*
X81831571Y-40720142D02*
X80331571Y-40720142D01*
X80331571Y-41291571D01*
X80403000Y-41434428D01*
X80474428Y-41505857D01*
X80617285Y-41577285D01*
X80831571Y-41577285D01*
X80974428Y-41505857D01*
X81045857Y-41434428D01*
X81117285Y-41291571D01*
X81117285Y-40720142D01*
X81831571Y-42434428D02*
X81760142Y-42291571D01*
X81688714Y-42220142D01*
X81545857Y-42148714D01*
X81117285Y-42148714D01*
X80974428Y-42220142D01*
X80903000Y-42291571D01*
X80831571Y-42434428D01*
X80831571Y-42648714D01*
X80903000Y-42791571D01*
X80974428Y-42863000D01*
X81117285Y-42934428D01*
X81545857Y-42934428D01*
X81688714Y-42863000D01*
X81760142Y-42791571D01*
X81831571Y-42648714D01*
X81831571Y-42434428D01*
X80831571Y-43434428D02*
X81831571Y-43720142D01*
X81117285Y-44005857D01*
X81831571Y-44291571D01*
X80831571Y-44577285D01*
X81760142Y-45720142D02*
X81831571Y-45577285D01*
X81831571Y-45291571D01*
X81760142Y-45148714D01*
X81617285Y-45077285D01*
X81045857Y-45077285D01*
X80903000Y-45148714D01*
X80831571Y-45291571D01*
X80831571Y-45577285D01*
X80903000Y-45720142D01*
X81045857Y-45791571D01*
X81188714Y-45791571D01*
X81331571Y-45077285D01*
X81831571Y-46434428D02*
X80831571Y-46434428D01*
X81117285Y-46434428D02*
X80974428Y-46505857D01*
X80903000Y-46577285D01*
X80831571Y-46720142D01*
X80831571Y-46863000D01*
X81831571Y-47363000D02*
X80331571Y-47363000D01*
X80903000Y-47363000D02*
X80831571Y-47505857D01*
X80831571Y-47791571D01*
X80903000Y-47934428D01*
X80974428Y-48005857D01*
X81117285Y-48077285D01*
X81545857Y-48077285D01*
X81688714Y-48005857D01*
X81760142Y-47934428D01*
X81831571Y-47791571D01*
X81831571Y-47505857D01*
X81760142Y-47363000D01*
X81831571Y-48934428D02*
X81760142Y-48791571D01*
X81688714Y-48720142D01*
X81545857Y-48648714D01*
X81117285Y-48648714D01*
X80974428Y-48720142D01*
X80903000Y-48791571D01*
X80831571Y-48934428D01*
X80831571Y-49148714D01*
X80903000Y-49291571D01*
X80974428Y-49363000D01*
X81117285Y-49434428D01*
X81545857Y-49434428D01*
X81688714Y-49363000D01*
X81760142Y-49291571D01*
X81831571Y-49148714D01*
X81831571Y-48934428D01*
X81831571Y-50720142D02*
X81045857Y-50720142D01*
X80903000Y-50648714D01*
X80831571Y-50505857D01*
X80831571Y-50220142D01*
X80903000Y-50077285D01*
X81760142Y-50720142D02*
X81831571Y-50577285D01*
X81831571Y-50220142D01*
X81760142Y-50077285D01*
X81617285Y-50005857D01*
X81474428Y-50005857D01*
X81331571Y-50077285D01*
X81260142Y-50220142D01*
X81260142Y-50577285D01*
X81188714Y-50720142D01*
X81831571Y-51434428D02*
X80831571Y-51434428D01*
X81117285Y-51434428D02*
X80974428Y-51505857D01*
X80903000Y-51577285D01*
X80831571Y-51720142D01*
X80831571Y-51863000D01*
X81831571Y-53005857D02*
X80331571Y-53005857D01*
X81760142Y-53005857D02*
X81831571Y-52863000D01*
X81831571Y-52577285D01*
X81760142Y-52434428D01*
X81688714Y-52363000D01*
X81545857Y-52291571D01*
X81117285Y-52291571D01*
X80974428Y-52363000D01*
X80903000Y-52434428D01*
X80831571Y-52577285D01*
X80831571Y-52863000D01*
X80903000Y-53005857D01*
X84381571Y-42005857D02*
X83667285Y-41505857D01*
X84381571Y-41148714D02*
X82881571Y-41148714D01*
X82881571Y-41720142D01*
X82953000Y-41863000D01*
X83024428Y-41934428D01*
X83167285Y-42005857D01*
X83381571Y-42005857D01*
X83524428Y-41934428D01*
X83595857Y-41863000D01*
X83667285Y-41720142D01*
X83667285Y-41148714D01*
X84238714Y-42648714D02*
X84310142Y-42720142D01*
X84381571Y-42648714D01*
X84310142Y-42577285D01*
X84238714Y-42648714D01*
X84381571Y-42648714D01*
X84381571Y-44077285D02*
X84381571Y-43363000D01*
X82881571Y-43363000D01*
X84310142Y-45148714D02*
X84381571Y-45005857D01*
X84381571Y-44720142D01*
X84310142Y-44577285D01*
X84167285Y-44505857D01*
X83595857Y-44505857D01*
X83453000Y-44577285D01*
X83381571Y-44720142D01*
X83381571Y-45005857D01*
X83453000Y-45148714D01*
X83595857Y-45220142D01*
X83738714Y-45220142D01*
X83881571Y-44505857D01*
X84381571Y-45863000D02*
X82881571Y-45863000D01*
X84381571Y-46505857D02*
X83595857Y-46505857D01*
X83453000Y-46434428D01*
X83381571Y-46291571D01*
X83381571Y-46077285D01*
X83453000Y-45934428D01*
X83524428Y-45863000D01*
X84381571Y-47220142D02*
X83381571Y-47220142D01*
X83524428Y-47220142D02*
X83453000Y-47291571D01*
X83381571Y-47434428D01*
X83381571Y-47648714D01*
X83453000Y-47791571D01*
X83595857Y-47863000D01*
X84381571Y-47863000D01*
X83595857Y-47863000D02*
X83453000Y-47934428D01*
X83381571Y-48077285D01*
X83381571Y-48291571D01*
X83453000Y-48434428D01*
X83595857Y-48505857D01*
X84381571Y-48505857D01*
X84381571Y-49863000D02*
X83595857Y-49863000D01*
X83453000Y-49791571D01*
X83381571Y-49648714D01*
X83381571Y-49363000D01*
X83453000Y-49220142D01*
X84310142Y-49863000D02*
X84381571Y-49720142D01*
X84381571Y-49363000D01*
X84310142Y-49220142D01*
X84167285Y-49148714D01*
X84024428Y-49148714D01*
X83881571Y-49220142D01*
X83810142Y-49363000D01*
X83810142Y-49720142D01*
X83738714Y-49863000D01*
X83381571Y-50577285D02*
X84381571Y-50577285D01*
X83524428Y-50577285D02*
X83453000Y-50648714D01*
X83381571Y-50791571D01*
X83381571Y-51005857D01*
X83453000Y-51148714D01*
X83595857Y-51220142D01*
X84381571Y-51220142D01*
X83381571Y-51934428D02*
X84381571Y-51934428D01*
X83524428Y-51934428D02*
X83453000Y-52005857D01*
X83381571Y-52148714D01*
X83381571Y-52363000D01*
X83453000Y-52505857D01*
X83595857Y-52577285D01*
X84381571Y-52577285D01*
D12*
G04 #@! TO.C,D104*
X69152500Y-75666500D02*
X69152500Y-81066500D01*
X72452500Y-75666500D02*
X72452500Y-81066500D01*
X69152500Y-75666500D02*
X72452500Y-75666500D01*
G04 #@! TO.C,D105*
X105344000Y-49656000D02*
X105344000Y-46356000D01*
X105344000Y-46356000D02*
X110744000Y-46356000D01*
X105344000Y-49656000D02*
X110744000Y-49656000D01*
G04 #@! TO.C,R136*
X71753000Y-35016221D02*
X71753000Y-35341779D01*
X72773000Y-35016221D02*
X72773000Y-35341779D01*
G04 #@! TO.C,R137*
X119087221Y-31740000D02*
X119412779Y-31740000D01*
X119087221Y-32760000D02*
X119412779Y-32760000D01*
G04 #@! TO.C,R133*
X93470000Y-31460221D02*
X93470000Y-31785779D01*
X94490000Y-31460221D02*
X94490000Y-31785779D01*
G04 #@! TO.C,R135*
X69721000Y-35651221D02*
X69721000Y-35976779D01*
X70741000Y-35651221D02*
X70741000Y-35976779D01*
G04 #@! TO.C,R132*
X92073000Y-34579779D02*
X92073000Y-34254221D01*
X93093000Y-34579779D02*
X93093000Y-34254221D01*
G04 #@! TO.C,R134*
X69657279Y-32891000D02*
X69331721Y-32891000D01*
X69657279Y-33911000D02*
X69331721Y-33911000D01*
G04 #@! TO.C,R131*
X90549000Y-35367279D02*
X90549000Y-35041721D01*
X91569000Y-35367279D02*
X91569000Y-35041721D01*
G04 #@! TO.C,R122*
X119153721Y-72392000D02*
X119479279Y-72392000D01*
X119153721Y-71372000D02*
X119479279Y-71372000D01*
G04 #@! TO.C,C503*
X105322500Y-73430500D02*
X104322500Y-73430500D01*
X104322500Y-71730500D02*
X105322500Y-71730500D01*
D13*
G04 #@! TO.C,FL101*
X78297000Y-85344000D02*
X81345000Y-85344000D01*
X75249000Y-77724000D02*
X75249000Y-82296000D01*
X81345000Y-74676000D02*
X78297000Y-74676000D01*
X84393000Y-77724000D02*
X84393000Y-82296000D01*
D12*
G04 #@! TO.C,C201*
X80907000Y-74299000D02*
X78907000Y-74299000D01*
X78907000Y-72259000D02*
X80907000Y-72259000D01*
G04 #@! TO.C,C318*
X127223000Y-23911000D02*
X126523000Y-23911000D01*
X126523000Y-25111000D02*
X127223000Y-25111000D01*
G04 #@! TO.C,C505*
X105275000Y-81446000D02*
X106275000Y-81446000D01*
X106275000Y-83146000D02*
X105275000Y-83146000D01*
G04 #@! TO.C,C801*
X116871000Y-49876000D02*
X117571000Y-49876000D01*
X117571000Y-48676000D02*
X116871000Y-48676000D01*
G04 #@! TO.C,C802*
X115793000Y-59344000D02*
X115093000Y-59344000D01*
X115093000Y-60544000D02*
X115793000Y-60544000D01*
G04 #@! TO.C,C803*
X114462000Y-68103000D02*
X114462000Y-68803000D01*
X115662000Y-68803000D02*
X115662000Y-68103000D01*
G04 #@! TO.C,C901*
X76116000Y-62830000D02*
X76816000Y-62830000D01*
X76816000Y-61630000D02*
X76116000Y-61630000D01*
G04 #@! TO.C,C1101*
X83535000Y-59725000D02*
X82835000Y-59725000D01*
X82835000Y-60925000D02*
X83535000Y-60925000D01*
G04 #@! TO.C,C1102*
X83535000Y-58455000D02*
X82835000Y-58455000D01*
X82835000Y-59655000D02*
X83535000Y-59655000D01*
G04 #@! TO.C,C1103*
X93757000Y-59401000D02*
X94457000Y-59401000D01*
X94457000Y-58201000D02*
X93757000Y-58201000D01*
G04 #@! TO.C,C1104*
X93757000Y-60925000D02*
X94457000Y-60925000D01*
X94457000Y-59725000D02*
X93757000Y-59725000D01*
G04 #@! TO.C,C1105*
X83535000Y-62265000D02*
X82835000Y-62265000D01*
X82835000Y-63465000D02*
X83535000Y-63465000D01*
G04 #@! TO.C,C1106*
X83535000Y-55915000D02*
X82835000Y-55915000D01*
X82835000Y-57115000D02*
X83535000Y-57115000D01*
G04 #@! TO.C,C1107*
X93757000Y-56861000D02*
X94457000Y-56861000D01*
X94457000Y-55661000D02*
X93757000Y-55661000D01*
G04 #@! TO.C,C1108*
X93757000Y-63465000D02*
X94457000Y-63465000D01*
X94457000Y-62265000D02*
X93757000Y-62265000D01*
D13*
G04 #@! TO.C,FL102*
X88327000Y-85344000D02*
X91375000Y-85344000D01*
X85279000Y-77724000D02*
X85279000Y-82296000D01*
X91375000Y-74676000D02*
X88327000Y-74676000D01*
X94423000Y-77724000D02*
X94423000Y-82296000D01*
D12*
G04 #@! TO.C,J102*
X62491000Y-80645000D02*
X62491000Y-32265000D01*
X62491000Y-32265000D02*
X67811000Y-32265000D01*
X67811000Y-32265000D02*
X67811000Y-83305000D01*
X67811000Y-83305000D02*
X65151000Y-83305000D01*
X65151000Y-83305000D02*
X65151000Y-80645000D01*
X65151000Y-80645000D02*
X62491000Y-80645000D01*
X62491000Y-81915000D02*
X62491000Y-83305000D01*
X62491000Y-83305000D02*
X63881000Y-83305000D01*
D13*
G04 #@! TO.C,Q503*
X102921000Y-78775000D02*
X102921000Y-78725000D01*
X107071000Y-78775000D02*
X107071000Y-78630000D01*
X107071000Y-73625000D02*
X107071000Y-73770000D01*
X102921000Y-73625000D02*
X102921000Y-73770000D01*
X102921000Y-78775000D02*
X107071000Y-78775000D01*
X102921000Y-73625000D02*
X107071000Y-73625000D01*
X102921000Y-78725000D02*
X101521000Y-78725000D01*
D12*
G04 #@! TO.C,Q801*
X131056000Y-44970000D02*
X131256000Y-44970000D01*
X131256000Y-44970000D02*
X131256000Y-49270000D01*
X131256000Y-49270000D02*
X131106000Y-49270000D01*
X126206000Y-49270000D02*
X126056000Y-49270000D01*
X126056000Y-49270000D02*
X126056000Y-44970000D01*
X126056000Y-44970000D02*
X126256000Y-44970000D01*
G04 #@! TO.C,Q802*
X131056000Y-55765000D02*
X131256000Y-55765000D01*
X131256000Y-55765000D02*
X131256000Y-60065000D01*
X131256000Y-60065000D02*
X131106000Y-60065000D01*
X126206000Y-60065000D02*
X126056000Y-60065000D01*
X126056000Y-60065000D02*
X126056000Y-55765000D01*
X126056000Y-55765000D02*
X126256000Y-55765000D01*
G04 #@! TO.C,Q803*
X131046000Y-67195000D02*
X131246000Y-67195000D01*
X131246000Y-67195000D02*
X131246000Y-71495000D01*
X131246000Y-71495000D02*
X131096000Y-71495000D01*
X126196000Y-71495000D02*
X126046000Y-71495000D01*
X126046000Y-71495000D02*
X126046000Y-67195000D01*
X126046000Y-67195000D02*
X126246000Y-67195000D01*
G04 #@! TO.C,R111*
X95205000Y-47645000D02*
X95205000Y-48645000D01*
X96565000Y-48645000D02*
X96565000Y-47645000D01*
G04 #@! TO.C,R1101*
X86733000Y-62947000D02*
X85733000Y-62947000D01*
X85733000Y-64307000D02*
X86733000Y-64307000D01*
G04 #@! TO.C,R1102*
X84332000Y-54438000D02*
X83332000Y-54438000D01*
X83332000Y-55798000D02*
X84332000Y-55798000D01*
G04 #@! TO.C,R1103*
X97073000Y-59047000D02*
X97073000Y-58047000D01*
X95713000Y-58047000D02*
X95713000Y-59047000D01*
G04 #@! TO.C,R1104*
X95713000Y-60587000D02*
X95713000Y-61587000D01*
X97073000Y-61587000D02*
X97073000Y-60587000D01*
G04 #@! TO.C,R1105*
X82685000Y-62275000D02*
X83685000Y-62275000D01*
X83685000Y-60915000D02*
X82685000Y-60915000D01*
G04 #@! TO.C,R1106*
X82685000Y-58465000D02*
X83685000Y-58465000D01*
X83685000Y-57105000D02*
X82685000Y-57105000D01*
G04 #@! TO.C,R1107*
X94607000Y-56851000D02*
X93607000Y-56851000D01*
X93607000Y-58211000D02*
X94607000Y-58211000D01*
G04 #@! TO.C,R1108*
X94607000Y-60915000D02*
X93607000Y-60915000D01*
X93607000Y-62275000D02*
X94607000Y-62275000D01*
D13*
G04 #@! TO.C,U102*
X93007000Y-37343000D02*
X93007000Y-37368000D01*
X88857000Y-37343000D02*
X88857000Y-37448000D01*
X88857000Y-47493000D02*
X88857000Y-47388000D01*
X93007000Y-47493000D02*
X93007000Y-47388000D01*
X93007000Y-37343000D02*
X88857000Y-37343000D01*
X93007000Y-47493000D02*
X88857000Y-47493000D01*
X93007000Y-37368000D02*
X94382000Y-37368000D01*
G04 #@! TO.C,U303*
X114470000Y-49876000D02*
X114470000Y-49926000D01*
X110320000Y-49876000D02*
X110320000Y-50021000D01*
X110320000Y-55026000D02*
X110320000Y-54881000D01*
X114470000Y-55026000D02*
X114470000Y-54881000D01*
X114470000Y-49876000D02*
X110320000Y-49876000D01*
X114470000Y-55026000D02*
X110320000Y-55026000D01*
X114470000Y-49926000D02*
X115870000Y-49926000D01*
G04 #@! TO.C,U601*
X57658000Y-64033000D02*
X57658000Y-68605000D01*
X54864000Y-64033000D02*
X57658000Y-64033000D01*
X54864000Y-68605000D02*
X54864000Y-64033000D01*
X57658000Y-68605000D02*
X54864000Y-68605000D01*
G04 #@! TO.C,U602*
X54483000Y-64033000D02*
X54483000Y-68605000D01*
X51689000Y-64033000D02*
X54483000Y-64033000D01*
X51689000Y-68605000D02*
X51689000Y-64033000D01*
X54483000Y-68605000D02*
X51689000Y-68605000D01*
G04 #@! TO.C,U603*
X60833000Y-64033000D02*
X60833000Y-68605000D01*
X58039000Y-64033000D02*
X60833000Y-64033000D01*
X58039000Y-68605000D02*
X58039000Y-64033000D01*
X60833000Y-68605000D02*
X58039000Y-68605000D01*
G04 #@! TO.C,U801*
X123581000Y-42510000D02*
X123581000Y-42560000D01*
X119431000Y-42510000D02*
X119431000Y-42655000D01*
X119431000Y-47660000D02*
X119431000Y-47515000D01*
X123581000Y-47660000D02*
X123581000Y-47515000D01*
X123581000Y-42510000D02*
X119431000Y-42510000D01*
X123581000Y-47660000D02*
X119431000Y-47660000D01*
X123581000Y-42560000D02*
X124981000Y-42560000D01*
G04 #@! TO.C,U802*
X123581000Y-53305000D02*
X123581000Y-53355000D01*
X119431000Y-53305000D02*
X119431000Y-53450000D01*
X119431000Y-58455000D02*
X119431000Y-58310000D01*
X123581000Y-58455000D02*
X123581000Y-58310000D01*
X123581000Y-53305000D02*
X119431000Y-53305000D01*
X123581000Y-58455000D02*
X119431000Y-58455000D01*
X123581000Y-53355000D02*
X124981000Y-53355000D01*
G04 #@! TO.C,U803*
X123581000Y-64735000D02*
X123581000Y-64785000D01*
X119431000Y-64735000D02*
X119431000Y-64880000D01*
X119431000Y-69885000D02*
X119431000Y-69740000D01*
X123581000Y-69885000D02*
X123581000Y-69740000D01*
X123581000Y-64735000D02*
X119431000Y-64735000D01*
X123581000Y-69885000D02*
X119431000Y-69885000D01*
X123581000Y-64785000D02*
X124981000Y-64785000D01*
G04 #@! TO.C,U901*
X72041000Y-54600000D02*
X76491000Y-54600000D01*
X70516000Y-61500000D02*
X76491000Y-61500000D01*
G04 #@! TO.C,U1101*
X86292000Y-62330000D02*
X86292000Y-62205000D01*
X90942000Y-62330000D02*
X90942000Y-62105000D01*
X90942000Y-57080000D02*
X90942000Y-57305000D01*
X86292000Y-57080000D02*
X86292000Y-57305000D01*
X86292000Y-62330000D02*
X90942000Y-62330000D01*
X86292000Y-57080000D02*
X90942000Y-57080000D01*
X86292000Y-62205000D02*
X84942000Y-62205000D01*
G04 #@! TO.C,L501*
X110384000Y-72898000D02*
X110384000Y-73406000D01*
X117496000Y-72898000D02*
X110384000Y-72898000D01*
X117496000Y-73406000D02*
X117496000Y-72898000D01*
X117496000Y-80010000D02*
X117496000Y-79502000D01*
X110384000Y-80010000D02*
X117496000Y-80010000D01*
X110384000Y-80010000D02*
X110384000Y-79502000D01*
D12*
G04 #@! TO.C,R116*
X70784000Y-31476000D02*
X70784000Y-30476000D01*
X69424000Y-30476000D02*
X69424000Y-31476000D01*
G04 #@! TO.C,R118*
X133776000Y-27170000D02*
X133776000Y-26170000D01*
X132416000Y-26170000D02*
X132416000Y-27170000D01*
G04 #@! TO.C,R120*
X109048000Y-56384000D02*
X109048000Y-57384000D01*
X110408000Y-57384000D02*
X110408000Y-56384000D01*
G04 #@! TO.C,C109*
X91852000Y-48733000D02*
X92552000Y-48733000D01*
X92552000Y-47533000D02*
X91852000Y-47533000D01*
G04 #@! TO.C,R607*
X58248000Y-75077000D02*
X58248000Y-76077000D01*
X59608000Y-76077000D02*
X59608000Y-75077000D01*
G04 #@! TO.C,C319*
X107223000Y-53117000D02*
X107223000Y-53817000D01*
X108423000Y-53817000D02*
X108423000Y-53117000D01*
G04 #@! TO.C,C804*
X116494000Y-46386000D02*
X116494000Y-47086000D01*
X117694000Y-47086000D02*
X117694000Y-46386000D01*
G04 #@! TO.C,C805*
X116494000Y-57181000D02*
X116494000Y-57881000D01*
X117694000Y-57881000D02*
X117694000Y-57181000D01*
G04 #@! TO.C,C806*
X116494000Y-68103000D02*
X116494000Y-68803000D01*
X117694000Y-68803000D02*
X117694000Y-68103000D01*
G04 #@! TO.C,C114*
X98644000Y-58909000D02*
X98644000Y-58209000D01*
X97444000Y-58209000D02*
X97444000Y-58909000D01*
G04 #@! TO.C,C117*
X100041000Y-58897000D02*
X100041000Y-58197000D01*
X98841000Y-58197000D02*
X98841000Y-58897000D01*
G04 #@! TO.C,R126*
X87880000Y-72054000D02*
X88880000Y-72054000D01*
X88880000Y-70694000D02*
X87880000Y-70694000D01*
G04 #@! TO.C,C206*
X55907500Y-78534000D02*
X59507500Y-78534000D01*
X59507500Y-81994000D02*
X55907500Y-81994000D01*
G04 #@! TO.C,C301*
X101500000Y-49400000D02*
X102500000Y-49400000D01*
X102500000Y-51100000D02*
X101500000Y-51100000D01*
G04 #@! TO.C,C506*
X106470500Y-80108500D02*
X105770500Y-80108500D01*
X105770500Y-81308500D02*
X106470500Y-81308500D01*
G04 #@! TO.C,C508*
X102013500Y-71980500D02*
X101313500Y-71980500D01*
X101313500Y-73180500D02*
X102013500Y-73180500D01*
G04 #@! TO.C,C910*
X78711500Y-61042500D02*
X78711500Y-61742500D01*
X79911500Y-61742500D02*
X79911500Y-61042500D01*
G04 #@! TO.C,C911*
X76562000Y-53248000D02*
X75862000Y-53248000D01*
X75862000Y-54448000D02*
X76562000Y-54448000D01*
G04 #@! TO.C,C912*
X80045000Y-61042500D02*
X80045000Y-61742500D01*
X81245000Y-61742500D02*
X81245000Y-61042500D01*
G04 #@! TO.C,C913*
X80092500Y-57877000D02*
X80792500Y-57877000D01*
X80792500Y-56677000D02*
X80092500Y-56677000D01*
G04 #@! TO.C,C914*
X80029000Y-56480000D02*
X80729000Y-56480000D01*
X80729000Y-55280000D02*
X80029000Y-55280000D01*
G04 #@! TO.C,C915*
X80029000Y-55210000D02*
X80729000Y-55210000D01*
X80729000Y-54010000D02*
X80029000Y-54010000D01*
G04 #@! TO.C,C916*
X73193000Y-53448000D02*
X73193000Y-52748000D01*
X71993000Y-52748000D02*
X71993000Y-53448000D01*
G04 #@! TO.C,D305*
X120329500Y-38853000D02*
X120329500Y-34553000D01*
X120329500Y-34553000D02*
X126029500Y-34553000D01*
X120329500Y-38853000D02*
X126029500Y-38853000D01*
G04 #@! TO.C,R507*
X112818500Y-83922000D02*
X109358500Y-83922000D01*
X112818500Y-80162000D02*
X109358500Y-80162000D01*
G04 #@! TO.C,R601*
X55762500Y-59018000D02*
X55762500Y-61018000D01*
X57902500Y-61018000D02*
X57902500Y-59018000D01*
G04 #@! TO.C,R602*
X53540000Y-59018000D02*
X53540000Y-61018000D01*
X55680000Y-61018000D02*
X55680000Y-59018000D01*
G04 #@! TO.C,R603*
X57985000Y-59018000D02*
X57985000Y-61018000D01*
X60125000Y-61018000D02*
X60125000Y-59018000D01*
G04 #@! TO.C,R604*
X60055000Y-70494500D02*
X58055000Y-70494500D01*
X58055000Y-72634500D02*
X60055000Y-72634500D01*
G04 #@! TO.C,R605*
X53260500Y-70367500D02*
X51260500Y-70367500D01*
X51260500Y-72507500D02*
X53260500Y-72507500D01*
G04 #@! TO.C,R606*
X55449503Y-73529789D02*
X54035289Y-74944003D01*
X55548497Y-76457211D02*
X56962711Y-75042997D01*
G04 #@! TO.C,U301*
X105830000Y-49880000D02*
X95590000Y-49880000D01*
X105830000Y-54521000D02*
X95590000Y-54521000D01*
X105830000Y-49880000D02*
X105830000Y-54521000D01*
X95590000Y-49880000D02*
X95590000Y-54521000D01*
X105830000Y-51390000D02*
X95590000Y-51390000D01*
X102560000Y-49880000D02*
X102560000Y-51390000D01*
X98859000Y-49880000D02*
X98859000Y-51390000D01*
G04 #@! TO.C,C118*
X73350500Y-75203500D02*
X71350500Y-75203500D01*
X71350500Y-72243500D02*
X73350500Y-72243500D01*
G04 #@! TO.C,C119*
X73191000Y-77462000D02*
X73191000Y-76462000D01*
X74891000Y-76462000D02*
X74891000Y-77462000D01*
G04 #@! TO.C,C120*
X110616000Y-34606500D02*
X110616000Y-36526500D01*
X110616000Y-41466500D02*
X110616000Y-39546500D01*
X118996000Y-33846500D02*
X118996000Y-36526500D01*
X118996000Y-42226500D02*
X118996000Y-39546500D01*
X118996000Y-33846500D02*
X111376000Y-33846500D01*
X111376000Y-33846500D02*
X110616000Y-34606500D01*
X110616000Y-41466500D02*
X111376000Y-42226500D01*
X111376000Y-42226500D02*
X118996000Y-42226500D01*
G04 #@! TO.C,C107*
X69624500Y-43149000D02*
X69624500Y-42449000D01*
X68424500Y-42449000D02*
X68424500Y-43149000D01*
G04 #@! TO.C,C121*
X69373000Y-38763500D02*
X70073000Y-38763500D01*
X70073000Y-37563500D02*
X69373000Y-37563500D01*
G04 #@! TO.C,R119*
X69805000Y-42287000D02*
X69805000Y-43287000D01*
X71165000Y-43287000D02*
X71165000Y-42287000D01*
G04 #@! TO.C,R121*
X70171500Y-38944000D02*
X69171500Y-38944000D01*
X69171500Y-40304000D02*
X70171500Y-40304000D01*
G04 #@! TO.C,Q103*
X90934000Y-27589600D02*
X90934000Y-26659600D01*
X90934000Y-24429600D02*
X90934000Y-25359600D01*
X90934000Y-24429600D02*
X93094000Y-24429600D01*
X90934000Y-27589600D02*
X92394000Y-27589600D01*
G04 #@! TO.C,R129*
X93311600Y-27818800D02*
X92311600Y-27818800D01*
X92311600Y-29178800D02*
X93311600Y-29178800D01*
G04 #@! TO.C,R130*
X93009000Y-31869000D02*
X93009000Y-30869000D01*
X91649000Y-30869000D02*
X91649000Y-31869000D01*
G04 #@! TO.C,C120*
D13*
X110406952Y-34197928D02*
X109645047Y-34197928D01*
X110026000Y-34578880D02*
X110026000Y-33816976D01*
G04 #@! TD*
M02*
