G04 #@! TF.FileFunction,Paste,Top*
%FSLAX46Y46*%
G04 Gerber Fmt 4.6, Leading zero omitted, Abs format (unit mm)*
G04 Created by KiCad (PCBNEW 4.0.6) date Mon Nov 27 06:04:14 2017*
%MOMM*%
%LPD*%
G01*
G04 APERTURE LIST*
%ADD10C,0.100000*%
%ADD11R,1.000000X1.250000*%
%ADD12R,0.800000X0.750000*%
%ADD13R,0.750000X0.800000*%
%ADD14R,0.800000X0.800000*%
%ADD15R,0.800000X0.900000*%
%ADD16R,3.500000X1.600000*%
%ADD17R,4.600000X1.390000*%
%ADD18R,9.400000X10.800000*%
%ADD19R,0.900000X0.800000*%
%ADD20R,0.900000X0.500000*%
%ADD21R,0.500000X0.900000*%
%ADD22R,3.060000X0.890000*%
%ADD23R,8.540000X5.350000*%
%ADD24R,2.000000X0.450000*%
%ADD25R,1.050000X0.450000*%
%ADD26R,0.882000X0.537000*%
%ADD27R,0.600000X1.500000*%
%ADD28R,0.305000X0.890000*%
%ADD29R,0.564000X0.504000*%
%ADD30R,1.450000X0.450000*%
%ADD31R,1.250000X1.000000*%
%ADD32R,6.000000X6.000000*%
%ADD33R,2.000000X3.400000*%
%ADD34R,2.000000X3.800000*%
%ADD35R,2.000000X1.500000*%
%ADD36R,3.000000X1.200000*%
%ADD37R,1.000000X1.600000*%
%ADD38R,1.600000X1.000000*%
%ADD39R,2.500000X2.300000*%
%ADD40R,2.300000X2.500000*%
%ADD41R,1.500000X0.450000*%
%ADD42R,1.800000X2.500000*%
%ADD43R,1.100000X1.100000*%
G04 APERTURE END LIST*
D10*
D11*
X86106000Y-67945000D03*
X88106000Y-67945000D03*
D12*
X86106000Y-69215000D03*
X87606000Y-69215000D03*
D11*
X121047000Y-48260000D03*
X123047000Y-48260000D03*
X71771000Y-73660000D03*
X73771000Y-73660000D03*
D13*
X69977000Y-80621000D03*
X69977000Y-79121000D03*
X69977000Y-83415000D03*
X69977000Y-81915000D03*
D12*
X72275000Y-84709000D03*
X73775000Y-84709000D03*
X98576000Y-55181500D03*
X100076000Y-55181500D03*
X94603000Y-49403000D03*
X93103000Y-49403000D03*
D13*
X92075000Y-43573000D03*
X92075000Y-45073000D03*
X111379000Y-46367000D03*
X111379000Y-47867000D03*
X110109000Y-38977000D03*
X110109000Y-37477000D03*
X110109000Y-40779000D03*
X110109000Y-42279000D03*
X110109000Y-45859000D03*
X110109000Y-47359000D03*
D12*
X96226500Y-33782000D03*
X97726500Y-33782000D03*
D13*
X112649000Y-46367000D03*
X112649000Y-47867000D03*
X111633000Y-41541000D03*
X111633000Y-43041000D03*
X111633000Y-38215000D03*
X111633000Y-36715000D03*
D12*
X126377000Y-31115000D03*
X127877000Y-31115000D03*
X123837000Y-31115000D03*
X125337000Y-31115000D03*
X92075000Y-70421500D03*
X93575000Y-70421500D03*
X97306000Y-81915000D03*
X98806000Y-81915000D03*
D13*
X104521000Y-77700000D03*
X104521000Y-76200000D03*
D12*
X55118000Y-62230000D03*
X53618000Y-62230000D03*
X59551000Y-71120000D03*
X58051000Y-71120000D03*
X76466000Y-64135000D03*
X77966000Y-64135000D03*
D13*
X84201000Y-45188000D03*
X84201000Y-43688000D03*
X84582000Y-36576000D03*
X84582000Y-35076000D03*
D12*
X81927000Y-56261000D03*
X83427000Y-56261000D03*
X81927000Y-54991000D03*
X83427000Y-54991000D03*
X72505000Y-54991000D03*
X71005000Y-54991000D03*
X72505000Y-56769000D03*
X71005000Y-56769000D03*
X81927000Y-58801000D03*
X83427000Y-58801000D03*
X81927000Y-52451000D03*
X83427000Y-52451000D03*
X73152000Y-52451000D03*
X71652000Y-52451000D03*
X74791000Y-59309000D03*
X73291000Y-59309000D03*
D14*
X93218000Y-33871000D03*
X93218000Y-35471000D03*
X91884500Y-33871000D03*
X91884500Y-35471000D03*
D15*
X92649000Y-83280000D03*
X94549000Y-83280000D03*
X93599000Y-81280000D03*
X88331000Y-83312000D03*
X90231000Y-83312000D03*
X89281000Y-81312000D03*
D16*
X120713500Y-37528500D03*
X120713500Y-32648500D03*
X124714000Y-37492000D03*
X124714000Y-32612000D03*
X128651000Y-37492000D03*
X128651000Y-32612000D03*
D17*
X115046000Y-78105000D03*
D18*
X124206000Y-78105000D03*
D17*
X115046000Y-80645000D03*
X115046000Y-75565000D03*
D19*
X109871000Y-72900500D03*
X109871000Y-74800500D03*
X111871000Y-73850500D03*
D15*
X74996000Y-36560000D03*
X76896000Y-36560000D03*
X75946000Y-34560000D03*
D20*
X110871000Y-77585000D03*
X110871000Y-76085000D03*
D10*
G36*
X106308305Y-71254909D02*
X105671909Y-71891305D01*
X105318355Y-71537751D01*
X105954751Y-70901355D01*
X106308305Y-71254909D01*
X106308305Y-71254909D01*
G37*
G36*
X105247645Y-70194249D02*
X104611249Y-70830645D01*
X104257695Y-70477091D01*
X104894091Y-69840695D01*
X105247645Y-70194249D01*
X105247645Y-70194249D01*
G37*
D20*
X108458000Y-73227500D03*
X108458000Y-74727500D03*
X109347000Y-77585000D03*
X109347000Y-76085000D03*
X107823000Y-76085000D03*
X107823000Y-77585000D03*
D21*
X129210500Y-60515500D03*
X127710500Y-60515500D03*
D20*
X125031500Y-60047000D03*
X125031500Y-58547000D03*
D21*
X129210500Y-59055000D03*
X127710500Y-59055000D03*
D20*
X126428500Y-59233500D03*
X126428500Y-57733500D03*
D21*
X72987600Y-44145200D03*
X71487600Y-44145200D03*
X76696000Y-38735000D03*
X75196000Y-38735000D03*
D20*
X68707000Y-75589000D03*
X68707000Y-77089000D03*
X68707000Y-77875000D03*
X68707000Y-79375000D03*
X69977000Y-77089000D03*
X69977000Y-75589000D03*
X68707000Y-83923000D03*
X68707000Y-82423000D03*
X68707000Y-81637000D03*
X68707000Y-80137000D03*
X93853000Y-32563500D03*
X93853000Y-31063500D03*
X92392500Y-32563500D03*
X92392500Y-31063500D03*
X92075000Y-41033000D03*
X92075000Y-42533000D03*
D21*
X98806000Y-83185000D03*
X97306000Y-83185000D03*
D20*
X94615000Y-79605000D03*
X94615000Y-78105000D03*
D21*
X96520000Y-80137000D03*
X98020000Y-80137000D03*
X126670500Y-62674500D03*
X125170500Y-62674500D03*
X126682500Y-64198500D03*
X125182500Y-64198500D03*
X130036000Y-67691000D03*
X128536000Y-67691000D03*
D20*
X79883000Y-43410000D03*
X79883000Y-41910000D03*
D21*
X79756000Y-34798000D03*
X81256000Y-34798000D03*
D20*
X79756000Y-37338000D03*
X79756000Y-38838000D03*
D21*
X83566000Y-34798000D03*
X82066000Y-34798000D03*
X84467000Y-57531000D03*
X85967000Y-57531000D03*
X84467000Y-53721000D03*
X85967000Y-53721000D03*
X75208000Y-52070000D03*
X76708000Y-52070000D03*
X73291000Y-60833000D03*
X74791000Y-60833000D03*
X81927000Y-57531000D03*
X83427000Y-57531000D03*
X81927000Y-53721000D03*
X83427000Y-53721000D03*
X72505000Y-53721000D03*
X71005000Y-53721000D03*
X72505000Y-58039000D03*
X71005000Y-58039000D03*
D22*
X72324000Y-75565000D03*
X72324000Y-76835000D03*
X72324000Y-78105000D03*
X72324000Y-79375000D03*
X72324000Y-80645000D03*
X72324000Y-83185000D03*
X72324000Y-81915000D03*
D23*
X79629000Y-79375000D03*
D24*
X94111000Y-37020000D03*
X107311000Y-37020000D03*
X94111000Y-37670000D03*
X94111000Y-38320000D03*
X94111000Y-38970000D03*
X94111000Y-39620000D03*
X94111000Y-40270000D03*
X94111000Y-40920000D03*
X94111000Y-41570000D03*
X94111000Y-42220000D03*
X94111000Y-42870000D03*
X94111000Y-43520000D03*
X94111000Y-44170000D03*
X94111000Y-44820000D03*
X94111000Y-45470000D03*
X94111000Y-46120000D03*
X94111000Y-46770000D03*
X94111000Y-47420000D03*
X94111000Y-48070000D03*
X107311000Y-48070000D03*
X107311000Y-47420000D03*
X107311000Y-46770000D03*
X107311000Y-46120000D03*
X107311000Y-45470000D03*
X107311000Y-44820000D03*
X107311000Y-44170000D03*
X107311000Y-43520000D03*
X107311000Y-42870000D03*
X107311000Y-42220000D03*
X107311000Y-41570000D03*
X107311000Y-40920000D03*
X107311000Y-40270000D03*
X107311000Y-39620000D03*
X107311000Y-38970000D03*
X107311000Y-38320000D03*
X107311000Y-37670000D03*
D25*
X96566000Y-74112500D03*
X96566000Y-74762500D03*
X96566000Y-75412500D03*
X96566000Y-76062500D03*
X96566000Y-76712500D03*
X96566000Y-77362500D03*
X96566000Y-78012500D03*
X96566000Y-78662500D03*
X102116000Y-78662500D03*
X102116000Y-78012500D03*
X102116000Y-77362500D03*
X102116000Y-76712500D03*
X102116000Y-76062500D03*
X102116000Y-75412500D03*
X102116000Y-74762500D03*
X102116000Y-74112500D03*
D26*
X100076000Y-77730000D03*
X100076000Y-76835000D03*
X100076000Y-75940000D03*
X100076000Y-75045000D03*
X98606000Y-77730000D03*
X98606000Y-76835000D03*
X98606000Y-75940000D03*
X98606000Y-75045000D03*
D27*
X59436000Y-63975000D03*
X58166000Y-63975000D03*
X56896000Y-63975000D03*
X55626000Y-63975000D03*
X54356000Y-63975000D03*
X53086000Y-63975000D03*
X51816000Y-63975000D03*
X51816000Y-69375000D03*
X53086000Y-69375000D03*
X54356000Y-69375000D03*
X55626000Y-69375000D03*
X56896000Y-69375000D03*
X58166000Y-69375000D03*
X59436000Y-69375000D03*
D19*
X74676000Y-64130000D03*
X74676000Y-62230000D03*
X72676000Y-63180000D03*
D28*
X82096000Y-42198000D03*
X82596000Y-42198000D03*
X83096000Y-42198000D03*
X83596000Y-42198000D03*
X84096000Y-42198000D03*
X84096000Y-37988000D03*
X83596000Y-37988000D03*
X83096000Y-37988000D03*
X82596000Y-37988000D03*
X82096000Y-37988000D03*
D29*
X83566000Y-39673000D03*
X82626000Y-39673000D03*
X83566000Y-40513000D03*
X82626000Y-40513000D03*
D30*
X80293000Y-57703000D03*
X80293000Y-57053000D03*
X80293000Y-56403000D03*
X80293000Y-55753000D03*
X80293000Y-55103000D03*
X80293000Y-54453000D03*
X80293000Y-53803000D03*
X74393000Y-53803000D03*
X74393000Y-54453000D03*
X74393000Y-55103000D03*
X74393000Y-55753000D03*
X74393000Y-56403000D03*
X74393000Y-57053000D03*
X74393000Y-57703000D03*
D31*
X111823500Y-65992500D03*
X111823500Y-67992500D03*
D32*
X116586000Y-64000000D03*
X116586000Y-50300000D03*
D33*
X86296500Y-35814000D03*
X89696500Y-35814000D03*
D21*
X129274000Y-49466500D03*
X127774000Y-49466500D03*
X126682500Y-49466500D03*
X125182500Y-49466500D03*
D34*
X77876000Y-70485000D03*
D35*
X84176000Y-70485000D03*
X84176000Y-68185000D03*
X84176000Y-72785000D03*
D20*
X60071000Y-90285000D03*
X60071000Y-88785000D03*
X139446000Y-86602000D03*
X139446000Y-85102000D03*
D36*
X59876000Y-83820000D03*
X59876000Y-81280000D03*
X51376000Y-81280000D03*
X51376000Y-83820000D03*
X59876000Y-76835000D03*
X59876000Y-74295000D03*
X51376000Y-74295000D03*
X51376000Y-76835000D03*
D20*
X61722000Y-85114000D03*
X61722000Y-86614000D03*
D12*
X86221000Y-52387500D03*
X84721000Y-52387500D03*
X78002000Y-52070000D03*
X79502000Y-52070000D03*
X76009500Y-60960000D03*
X77509500Y-60960000D03*
X86284500Y-56134000D03*
X84784500Y-56134000D03*
D13*
X99060000Y-58281000D03*
X99060000Y-56781000D03*
D12*
X91809000Y-64071500D03*
X90309000Y-64071500D03*
D14*
X73660000Y-68250000D03*
X73660000Y-69850000D03*
X89408000Y-70790000D03*
X89408000Y-72390000D03*
X136398000Y-80645000D03*
X136398000Y-82245000D03*
X132080000Y-48311000D03*
X132080000Y-49911000D03*
X132080000Y-58420000D03*
X132080000Y-60020000D03*
X132207000Y-67361000D03*
X132207000Y-68961000D03*
D20*
X72009000Y-68350000D03*
X72009000Y-69850000D03*
X136398000Y-79502000D03*
X136398000Y-78002000D03*
D21*
X131572000Y-46863000D03*
X130072000Y-46863000D03*
D20*
X132080000Y-57380000D03*
X132080000Y-55880000D03*
X132207000Y-66421000D03*
X132207000Y-64921000D03*
D37*
X87781000Y-78994000D03*
X90781000Y-78994000D03*
D38*
X87122000Y-70596500D03*
X87122000Y-73596500D03*
D13*
X105854500Y-77787500D03*
X105854500Y-79287500D03*
D12*
X76009500Y-59690000D03*
X77509500Y-59690000D03*
D11*
X83058000Y-33274000D03*
X81058000Y-33274000D03*
D12*
X121614500Y-65659000D03*
X123114500Y-65659000D03*
X125972000Y-65659000D03*
X124472000Y-65659000D03*
D39*
X124055000Y-40513000D03*
X128355000Y-40513000D03*
D40*
X119507000Y-44601000D03*
X119507000Y-40301000D03*
D39*
X91906000Y-76200000D03*
X87606000Y-76200000D03*
D21*
X93575000Y-71882000D03*
X92075000Y-71882000D03*
D41*
X121129000Y-66940000D03*
X121129000Y-67590000D03*
X121129000Y-68240000D03*
X121129000Y-68890000D03*
X121129000Y-69540000D03*
X121129000Y-70190000D03*
X121129000Y-70840000D03*
X121129000Y-71490000D03*
X127029000Y-71490000D03*
X127029000Y-70840000D03*
X127029000Y-70190000D03*
X127029000Y-69540000D03*
X127029000Y-68890000D03*
X127029000Y-68240000D03*
X127029000Y-67590000D03*
X127029000Y-66940000D03*
D37*
X71271000Y-71755000D03*
X74271000Y-71755000D03*
D42*
X86804500Y-39942000D03*
X86804500Y-43942000D03*
D12*
X107644500Y-35369500D03*
X109144500Y-35369500D03*
X108700000Y-49466500D03*
X107200000Y-49466500D03*
X71108000Y-84963000D03*
X69608000Y-84963000D03*
D21*
X106616500Y-65976500D03*
X105116500Y-65976500D03*
D10*
G36*
X108170739Y-66960865D02*
X108807135Y-67597261D01*
X108453581Y-67950815D01*
X107817185Y-67314419D01*
X108170739Y-66960865D01*
X108170739Y-66960865D01*
G37*
G36*
X107110079Y-68021525D02*
X107746475Y-68657921D01*
X107392921Y-69011475D01*
X106756525Y-68375079D01*
X107110079Y-68021525D01*
X107110079Y-68021525D01*
G37*
D20*
X110172500Y-67425000D03*
X110172500Y-65925000D03*
D43*
X75387200Y-43992800D03*
X75387200Y-41192800D03*
X77774800Y-42897600D03*
X77774800Y-45697600D03*
M02*
