G04 #@! TF.FileFunction,Legend,Top*
%FSLAX46Y46*%
G04 Gerber Fmt 4.6, Leading zero omitted, Abs format (unit mm)*
G04 Created by KiCad (PCBNEW 4.0.6) date Fri Jul 21 15:59:53 2017*
%MOMM*%
%LPD*%
G01*
G04 APERTURE LIST*
%ADD10C,0.100000*%
%ADD11C,0.200000*%
%ADD12C,0.300000*%
%ADD13C,0.120000*%
%ADD14C,0.150000*%
%ADD15C,0.750000*%
G04 APERTURE END LIST*
D10*
D11*
X94940381Y-54093905D02*
X93940381Y-54093905D01*
X94416571Y-54093905D02*
X94416571Y-53522476D01*
X94940381Y-53522476D02*
X93940381Y-53522476D01*
X94940381Y-53046286D02*
X93940381Y-53046286D01*
X93940381Y-52665333D01*
X93988000Y-52570095D01*
X94035619Y-52522476D01*
X94130857Y-52474857D01*
X94273714Y-52474857D01*
X94368952Y-52522476D01*
X94416571Y-52570095D01*
X94464190Y-52665333D01*
X94464190Y-53046286D01*
X94035619Y-52093905D02*
X93988000Y-52046286D01*
X93940381Y-51951048D01*
X93940381Y-51712952D01*
X93988000Y-51617714D01*
X94035619Y-51570095D01*
X94130857Y-51522476D01*
X94226095Y-51522476D01*
X94368952Y-51570095D01*
X94940381Y-52141524D01*
X94940381Y-51522476D01*
X90424096Y-52332000D02*
X90328858Y-52284381D01*
X90186001Y-52284381D01*
X90043143Y-52332000D01*
X89947905Y-52427238D01*
X89900286Y-52522476D01*
X89852667Y-52712952D01*
X89852667Y-52855810D01*
X89900286Y-53046286D01*
X89947905Y-53141524D01*
X90043143Y-53236762D01*
X90186001Y-53284381D01*
X90281239Y-53284381D01*
X90424096Y-53236762D01*
X90471715Y-53189143D01*
X90471715Y-52855810D01*
X90281239Y-52855810D01*
X90900286Y-53284381D02*
X90900286Y-52284381D01*
X91471715Y-53284381D01*
X91471715Y-52284381D01*
X91947905Y-53284381D02*
X91947905Y-52284381D01*
X92186000Y-52284381D01*
X92328858Y-52332000D01*
X92424096Y-52427238D01*
X92471715Y-52522476D01*
X92519334Y-52712952D01*
X92519334Y-52855810D01*
X92471715Y-53046286D01*
X92424096Y-53141524D01*
X92328858Y-53236762D01*
X92186000Y-53284381D01*
X91947905Y-53284381D01*
X112276285Y-44664381D02*
X112609618Y-45664381D01*
X112942952Y-44664381D01*
X114038190Y-45664381D02*
X114038190Y-44664381D01*
X114371524Y-45378667D01*
X114704857Y-44664381D01*
X114704857Y-45664381D01*
X115323904Y-45664381D02*
X115228666Y-45616762D01*
X115181047Y-45569143D01*
X115133428Y-45473905D01*
X115133428Y-45188190D01*
X115181047Y-45092952D01*
X115228666Y-45045333D01*
X115323904Y-44997714D01*
X115466762Y-44997714D01*
X115562000Y-45045333D01*
X115609619Y-45092952D01*
X115657238Y-45188190D01*
X115657238Y-45473905D01*
X115609619Y-45569143D01*
X115562000Y-45616762D01*
X115466762Y-45664381D01*
X115323904Y-45664381D01*
X115942952Y-44997714D02*
X116323904Y-44997714D01*
X116085809Y-44664381D02*
X116085809Y-45521524D01*
X116133428Y-45616762D01*
X116228666Y-45664381D01*
X116323904Y-45664381D01*
X116800095Y-45664381D02*
X116704857Y-45616762D01*
X116657238Y-45569143D01*
X116609619Y-45473905D01*
X116609619Y-45188190D01*
X116657238Y-45092952D01*
X116704857Y-45045333D01*
X116800095Y-44997714D01*
X116942953Y-44997714D01*
X117038191Y-45045333D01*
X117085810Y-45092952D01*
X117133429Y-45188190D01*
X117133429Y-45473905D01*
X117085810Y-45569143D01*
X117038191Y-45616762D01*
X116942953Y-45664381D01*
X116800095Y-45664381D01*
X117562000Y-45664381D02*
X117562000Y-44997714D01*
X117562000Y-45188190D02*
X117609619Y-45092952D01*
X117657238Y-45045333D01*
X117752476Y-44997714D01*
X117847715Y-44997714D01*
X91956095Y-66746381D02*
X91956095Y-65746381D01*
X91956095Y-66222571D02*
X92527524Y-66222571D01*
X92527524Y-66746381D02*
X92527524Y-65746381D01*
X93003714Y-66746381D02*
X93003714Y-65746381D01*
X93384667Y-65746381D01*
X93479905Y-65794000D01*
X93527524Y-65841619D01*
X93575143Y-65936857D01*
X93575143Y-66079714D01*
X93527524Y-66174952D01*
X93479905Y-66222571D01*
X93384667Y-66270190D01*
X93003714Y-66270190D01*
X94527524Y-66746381D02*
X93956095Y-66746381D01*
X94241809Y-66746381D02*
X94241809Y-65746381D01*
X94146571Y-65889238D01*
X94051333Y-65984476D01*
X93956095Y-66032095D01*
X83550286Y-64968429D02*
X84312191Y-64968429D01*
X83931239Y-65349381D02*
X83931239Y-64587476D01*
X85264572Y-64349381D02*
X84788381Y-64349381D01*
X84740762Y-64825571D01*
X84788381Y-64777952D01*
X84883619Y-64730333D01*
X85121715Y-64730333D01*
X85216953Y-64777952D01*
X85264572Y-64825571D01*
X85312191Y-64920810D01*
X85312191Y-65158905D01*
X85264572Y-65254143D01*
X85216953Y-65301762D01*
X85121715Y-65349381D01*
X84883619Y-65349381D01*
X84788381Y-65301762D01*
X84740762Y-65254143D01*
X85597905Y-64349381D02*
X85931238Y-65349381D01*
X86264572Y-64349381D01*
X76851095Y-65476429D02*
X77613000Y-65476429D01*
X77232048Y-65857381D02*
X77232048Y-65095476D01*
X77993952Y-64857381D02*
X78613000Y-64857381D01*
X78279666Y-65238333D01*
X78422524Y-65238333D01*
X78517762Y-65285952D01*
X78565381Y-65333571D01*
X78613000Y-65428810D01*
X78613000Y-65666905D01*
X78565381Y-65762143D01*
X78517762Y-65809762D01*
X78422524Y-65857381D01*
X78136809Y-65857381D01*
X78041571Y-65809762D01*
X77993952Y-65762143D01*
X78898714Y-64857381D02*
X79232047Y-65857381D01*
X79565381Y-64857381D01*
X79803476Y-64857381D02*
X80422524Y-64857381D01*
X80089190Y-65238333D01*
X80232048Y-65238333D01*
X80327286Y-65285952D01*
X80374905Y-65333571D01*
X80422524Y-65428810D01*
X80422524Y-65666905D01*
X80374905Y-65762143D01*
X80327286Y-65809762D01*
X80232048Y-65857381D01*
X79946333Y-65857381D01*
X79851095Y-65809762D01*
X79803476Y-65762143D01*
X67770524Y-71556619D02*
X67818143Y-71509000D01*
X67913381Y-71461381D01*
X68151477Y-71461381D01*
X68246715Y-71509000D01*
X68294334Y-71556619D01*
X68341953Y-71651857D01*
X68341953Y-71747095D01*
X68294334Y-71889952D01*
X67722905Y-72461381D01*
X68341953Y-72461381D01*
X68913381Y-71889952D02*
X68818143Y-71842333D01*
X68770524Y-71794714D01*
X68722905Y-71699476D01*
X68722905Y-71651857D01*
X68770524Y-71556619D01*
X68818143Y-71509000D01*
X68913381Y-71461381D01*
X69103858Y-71461381D01*
X69199096Y-71509000D01*
X69246715Y-71556619D01*
X69294334Y-71651857D01*
X69294334Y-71699476D01*
X69246715Y-71794714D01*
X69199096Y-71842333D01*
X69103858Y-71889952D01*
X68913381Y-71889952D01*
X68818143Y-71937571D01*
X68770524Y-71985190D01*
X68722905Y-72080429D01*
X68722905Y-72270905D01*
X68770524Y-72366143D01*
X68818143Y-72413762D01*
X68913381Y-72461381D01*
X69103858Y-72461381D01*
X69199096Y-72413762D01*
X69246715Y-72366143D01*
X69294334Y-72270905D01*
X69294334Y-72080429D01*
X69246715Y-71985190D01*
X69199096Y-71937571D01*
X69103858Y-71889952D01*
X69580048Y-71461381D02*
X69913381Y-72461381D01*
X70246715Y-71461381D01*
X86280715Y-80748143D02*
X86233096Y-80795762D01*
X86090239Y-80843381D01*
X85995001Y-80843381D01*
X85852143Y-80795762D01*
X85756905Y-80700524D01*
X85709286Y-80605286D01*
X85661667Y-80414810D01*
X85661667Y-80271952D01*
X85709286Y-80081476D01*
X85756905Y-79986238D01*
X85852143Y-79891000D01*
X85995001Y-79843381D01*
X86090239Y-79843381D01*
X86233096Y-79891000D01*
X86280715Y-79938619D01*
X86709286Y-80843381D02*
X86709286Y-79843381D01*
X86709286Y-80319571D02*
X87280715Y-80319571D01*
X87280715Y-80843381D02*
X87280715Y-79843381D01*
X88280715Y-79891000D02*
X88185477Y-79843381D01*
X88042620Y-79843381D01*
X87899762Y-79891000D01*
X87804524Y-79986238D01*
X87756905Y-80081476D01*
X87709286Y-80271952D01*
X87709286Y-80414810D01*
X87756905Y-80605286D01*
X87804524Y-80700524D01*
X87899762Y-80795762D01*
X88042620Y-80843381D01*
X88137858Y-80843381D01*
X88280715Y-80795762D01*
X88328334Y-80748143D01*
X88328334Y-80414810D01*
X88137858Y-80414810D01*
D12*
X104517287Y-69004571D02*
X104517287Y-68004571D01*
X104517287Y-68290286D02*
X104588715Y-68147429D01*
X104660144Y-68076000D01*
X104803001Y-68004571D01*
X104945858Y-68004571D01*
X106017286Y-68933143D02*
X105874429Y-69004571D01*
X105588715Y-69004571D01*
X105445858Y-68933143D01*
X105374429Y-68790286D01*
X105374429Y-68218857D01*
X105445858Y-68076000D01*
X105588715Y-68004571D01*
X105874429Y-68004571D01*
X106017286Y-68076000D01*
X106088715Y-68218857D01*
X106088715Y-68361714D01*
X105374429Y-68504571D01*
X106588715Y-68004571D02*
X106945858Y-69004571D01*
X107303000Y-68004571D01*
X108588715Y-67504571D02*
X107874429Y-67504571D01*
X107803000Y-68218857D01*
X107874429Y-68147429D01*
X108017286Y-68076000D01*
X108374429Y-68076000D01*
X108517286Y-68147429D01*
X108588715Y-68218857D01*
X108660143Y-68361714D01*
X108660143Y-68718857D01*
X108588715Y-68861714D01*
X108517286Y-68933143D01*
X108374429Y-69004571D01*
X108017286Y-69004571D01*
X107874429Y-68933143D01*
X107803000Y-68861714D01*
X135425571Y-63594428D02*
X133925571Y-63594428D01*
X134639857Y-63594428D02*
X134639857Y-62737285D01*
X135425571Y-62737285D02*
X133925571Y-62737285D01*
X135354143Y-61451571D02*
X135425571Y-61594428D01*
X135425571Y-61880142D01*
X135354143Y-62022999D01*
X135211286Y-62094428D01*
X134639857Y-62094428D01*
X134497000Y-62022999D01*
X134425571Y-61880142D01*
X134425571Y-61594428D01*
X134497000Y-61451571D01*
X134639857Y-61380142D01*
X134782714Y-61380142D01*
X134925571Y-62094428D01*
X135425571Y-60094428D02*
X134639857Y-60094428D01*
X134497000Y-60165857D01*
X134425571Y-60308714D01*
X134425571Y-60594428D01*
X134497000Y-60737285D01*
X135354143Y-60094428D02*
X135425571Y-60237285D01*
X135425571Y-60594428D01*
X135354143Y-60737285D01*
X135211286Y-60808714D01*
X135068429Y-60808714D01*
X134925571Y-60737285D01*
X134854143Y-60594428D01*
X134854143Y-60237285D01*
X134782714Y-60094428D01*
X134425571Y-59594428D02*
X134425571Y-59022999D01*
X133925571Y-59380142D02*
X135211286Y-59380142D01*
X135354143Y-59308714D01*
X135425571Y-59165856D01*
X135425571Y-59022999D01*
X135425571Y-57380142D02*
X133925571Y-57380142D01*
X133925571Y-56808714D01*
X133997000Y-56665856D01*
X134068429Y-56594428D01*
X134211286Y-56522999D01*
X134425571Y-56522999D01*
X134568429Y-56594428D01*
X134639857Y-56665856D01*
X134711286Y-56808714D01*
X134711286Y-57380142D01*
X135425571Y-55880142D02*
X134425571Y-55880142D01*
X134711286Y-55880142D02*
X134568429Y-55808714D01*
X134497000Y-55737285D01*
X134425571Y-55594428D01*
X134425571Y-55451571D01*
X135425571Y-54737285D02*
X135354143Y-54880143D01*
X135282714Y-54951571D01*
X135139857Y-55023000D01*
X134711286Y-55023000D01*
X134568429Y-54951571D01*
X134497000Y-54880143D01*
X134425571Y-54737285D01*
X134425571Y-54523000D01*
X134497000Y-54380143D01*
X134568429Y-54308714D01*
X134711286Y-54237285D01*
X135139857Y-54237285D01*
X135282714Y-54308714D01*
X135354143Y-54380143D01*
X135425571Y-54523000D01*
X135425571Y-54737285D01*
X135425571Y-53594428D02*
X133925571Y-53594428D01*
X134497000Y-53594428D02*
X134425571Y-53451571D01*
X134425571Y-53165857D01*
X134497000Y-53023000D01*
X134568429Y-52951571D01*
X134711286Y-52880142D01*
X135139857Y-52880142D01*
X135282714Y-52951571D01*
X135354143Y-53023000D01*
X135425571Y-53165857D01*
X135425571Y-53451571D01*
X135354143Y-53594428D01*
X135354143Y-51665857D02*
X135425571Y-51808714D01*
X135425571Y-52094428D01*
X135354143Y-52237285D01*
X135211286Y-52308714D01*
X134639857Y-52308714D01*
X134497000Y-52237285D01*
X134425571Y-52094428D01*
X134425571Y-51808714D01*
X134497000Y-51665857D01*
X134639857Y-51594428D01*
X134782714Y-51594428D01*
X134925571Y-52308714D01*
X135354143Y-51023000D02*
X135425571Y-50880143D01*
X135425571Y-50594428D01*
X135354143Y-50451571D01*
X135211286Y-50380143D01*
X135139857Y-50380143D01*
X134997000Y-50451571D01*
X134925571Y-50594428D01*
X134925571Y-50808714D01*
X134854143Y-50951571D01*
X134711286Y-51023000D01*
X134639857Y-51023000D01*
X134497000Y-50951571D01*
X134425571Y-50808714D01*
X134425571Y-50594428D01*
X134497000Y-50451571D01*
D11*
X102489000Y-86741000D02*
X101600000Y-86868000D01*
X102108000Y-86233000D02*
X102489000Y-86741000D01*
X101600000Y-86868000D02*
X102108000Y-86233000D01*
X105029000Y-84963000D02*
X101600000Y-86868000D01*
D12*
X104731572Y-84625571D02*
X104231572Y-83911286D01*
X103874429Y-84625571D02*
X103874429Y-83125571D01*
X104445857Y-83125571D01*
X104588715Y-83197000D01*
X104660143Y-83268429D01*
X104731572Y-83411286D01*
X104731572Y-83625571D01*
X104660143Y-83768429D01*
X104588715Y-83839857D01*
X104445857Y-83911286D01*
X103874429Y-83911286D01*
X105231572Y-83125571D02*
X106231572Y-84625571D01*
X106231572Y-83125571D02*
X105231572Y-84625571D01*
X106731571Y-84554143D02*
X106945857Y-84625571D01*
X107303000Y-84625571D01*
X107445857Y-84554143D01*
X107517286Y-84482714D01*
X107588714Y-84339857D01*
X107588714Y-84197000D01*
X107517286Y-84054143D01*
X107445857Y-83982714D01*
X107303000Y-83911286D01*
X107017286Y-83839857D01*
X106874428Y-83768429D01*
X106803000Y-83697000D01*
X106731571Y-83554143D01*
X106731571Y-83411286D01*
X106803000Y-83268429D01*
X106874428Y-83197000D01*
X107017286Y-83125571D01*
X107374428Y-83125571D01*
X107588714Y-83197000D01*
X108231571Y-84625571D02*
X108231571Y-83125571D01*
X108731571Y-84197000D01*
X109231571Y-83125571D01*
X109231571Y-84625571D01*
X96667335Y-58206736D02*
X96818858Y-57348106D01*
X96061244Y-57600644D02*
X97121904Y-56539984D01*
X97525964Y-56944044D01*
X97576472Y-57095568D01*
X97576472Y-57196583D01*
X97525964Y-57348106D01*
X97374442Y-57499629D01*
X97222918Y-57550137D01*
X97121904Y-57550137D01*
X96970380Y-57499629D01*
X96566319Y-57095568D01*
X98081549Y-57499629D02*
X97727995Y-59267396D01*
X98788656Y-58206736D02*
X97020889Y-58560289D01*
X98536117Y-59267396D02*
X99344239Y-60075518D01*
X100354391Y-59772471D02*
X99647285Y-61186685D01*
X101061498Y-60479578D01*
X100354391Y-61893792D02*
X101415052Y-60833132D01*
X100859468Y-62398868D02*
X101920128Y-61338208D01*
X102324189Y-61742269D01*
X102374697Y-61893792D01*
X102374696Y-61994808D01*
X102324189Y-62146331D01*
X102172666Y-62297853D01*
X102021143Y-62348361D01*
X101920128Y-62348361D01*
X101768604Y-62297853D01*
X101364544Y-61893792D01*
X102475712Y-62903945D02*
X102829265Y-63257498D01*
X102425205Y-63964605D02*
X101920128Y-63459528D01*
X102980788Y-62398868D01*
X103485865Y-62903945D01*
X103485865Y-65025265D02*
X103637387Y-64166636D01*
X102879773Y-64419173D02*
X103940433Y-63358513D01*
X104344494Y-63762574D01*
X104395002Y-63914098D01*
X104395001Y-64015113D01*
X104344494Y-64166636D01*
X104192972Y-64318158D01*
X104041448Y-64368666D01*
X103940433Y-64368666D01*
X103788910Y-64318158D01*
X103384849Y-63914098D01*
X93601522Y-58747166D02*
X94662182Y-57686506D01*
X95066243Y-58090567D01*
X95116751Y-58242091D01*
X95116750Y-58343106D01*
X95066243Y-58494629D01*
X94914720Y-58646151D01*
X94763197Y-58696659D01*
X94662182Y-58696659D01*
X94510658Y-58646151D01*
X94106598Y-58242091D01*
X94813705Y-59959350D02*
X94763197Y-59807826D01*
X94763197Y-59706811D01*
X94813705Y-59555288D01*
X95116750Y-59252243D01*
X95268273Y-59201736D01*
X95369288Y-59201735D01*
X95520812Y-59252243D01*
X95672334Y-59403765D01*
X95722842Y-59555288D01*
X95722842Y-59656304D01*
X95672334Y-59807827D01*
X95369289Y-60110873D01*
X95217766Y-60161380D01*
X95116750Y-60161380D01*
X94965228Y-60110872D01*
X94813705Y-59959350D01*
X96227919Y-59959350D02*
X95722842Y-60868487D01*
X96429948Y-60565441D01*
X96126904Y-61272548D01*
X97036041Y-60767472D01*
X97187563Y-62232193D02*
X97036041Y-62181685D01*
X96834010Y-61979655D01*
X96783503Y-61828132D01*
X96834010Y-61676609D01*
X97238071Y-61272548D01*
X97389594Y-61222041D01*
X97541117Y-61272548D01*
X97743148Y-61474578D01*
X97793655Y-61626101D01*
X97743148Y-61777624D01*
X97642132Y-61878640D01*
X97036041Y-61474578D01*
X97642132Y-62787777D02*
X98349239Y-62080670D01*
X98147208Y-62282701D02*
X98298731Y-62232193D01*
X98399746Y-62232193D01*
X98551269Y-62282700D01*
X98652285Y-62383715D01*
X98298731Y-63444376D02*
X99359391Y-62383715D01*
X98955330Y-62787777D02*
X99106853Y-62838284D01*
X99308883Y-63040314D01*
X99359391Y-63191837D01*
X99359391Y-63292853D01*
X99308883Y-63444376D01*
X99005838Y-63747422D01*
X98854315Y-63797929D01*
X98753299Y-63797929D01*
X98601777Y-63747421D01*
X98399746Y-63545391D01*
X98349238Y-63393868D01*
X99409899Y-64555544D02*
X99359391Y-64404021D01*
X99359391Y-64303005D01*
X99409899Y-64151482D01*
X99712944Y-63848437D01*
X99864467Y-63797930D01*
X99965482Y-63797929D01*
X100117006Y-63848437D01*
X100268528Y-63999959D01*
X100319036Y-64151482D01*
X100319036Y-64252498D01*
X100268528Y-64404021D01*
X99965483Y-64707067D01*
X99813960Y-64757574D01*
X99712944Y-64757574D01*
X99561422Y-64707066D01*
X99409899Y-64555544D01*
X100672590Y-65818234D02*
X101228174Y-65262650D01*
X101278681Y-65111127D01*
X101228174Y-64959604D01*
X101026143Y-64757574D01*
X100874620Y-64707067D01*
X100723097Y-65767727D02*
X100571575Y-65717219D01*
X100319036Y-65464681D01*
X100268528Y-65313158D01*
X100319036Y-65161635D01*
X100420051Y-65060620D01*
X100571575Y-65010112D01*
X100723097Y-65060620D01*
X100975635Y-65313158D01*
X101127158Y-65363666D01*
X101177666Y-66323311D02*
X101884773Y-65616204D01*
X101682742Y-65818235D02*
X101834264Y-65767727D01*
X101935280Y-65767727D01*
X102086803Y-65818234D01*
X102187819Y-65919249D01*
X102288834Y-67434478D02*
X103349494Y-66373818D01*
X102339341Y-67383971D02*
X102187819Y-67333463D01*
X101985788Y-67131433D01*
X101935280Y-66979909D01*
X101935280Y-66878894D01*
X101985788Y-66727371D01*
X102288833Y-66424326D01*
X102440356Y-66373819D01*
X102541371Y-66373818D01*
X102692895Y-66424326D01*
X102894925Y-66626356D01*
X102945433Y-66777879D01*
X92707537Y-61459425D02*
X92859059Y-60600796D01*
X92101445Y-60853334D02*
X93162106Y-59792674D01*
X93566166Y-60196734D01*
X93616674Y-60348258D01*
X93616673Y-60449273D01*
X93566166Y-60600796D01*
X93414644Y-60752319D01*
X93263120Y-60802827D01*
X93162106Y-60802827D01*
X93010582Y-60752319D01*
X92606521Y-60348258D01*
X93263121Y-61812979D02*
X93263120Y-61913994D01*
X93162106Y-61913994D01*
X93162105Y-61812979D01*
X93263121Y-61812979D01*
X93162106Y-61913994D01*
X94172259Y-62924147D02*
X93667182Y-62419070D01*
X94727842Y-61358410D01*
X94980380Y-63631254D02*
X94828857Y-63580746D01*
X94626827Y-63378715D01*
X94576319Y-63227193D01*
X94626826Y-63075670D01*
X95030888Y-62671609D01*
X95182411Y-62621101D01*
X95333934Y-62671609D01*
X95535964Y-62873639D01*
X95586471Y-63025162D01*
X95535964Y-63176685D01*
X95434949Y-63277700D01*
X94828857Y-62873639D01*
X95434949Y-64186837D02*
X96495609Y-63126177D01*
X95889518Y-64641406D02*
X96445101Y-64085822D01*
X96495609Y-63934299D01*
X96445101Y-63782776D01*
X96293579Y-63631254D01*
X96142055Y-63580746D01*
X96041040Y-63580746D01*
X96394594Y-65146482D02*
X97101701Y-64439376D01*
X97000685Y-64540391D02*
X97101700Y-64540391D01*
X97253224Y-64590899D01*
X97404746Y-64742421D01*
X97455254Y-64893944D01*
X97404746Y-65045467D01*
X96849163Y-65601051D01*
X97404746Y-65045467D02*
X97556269Y-64994960D01*
X97707792Y-65045467D01*
X97859315Y-65196990D01*
X97909823Y-65348513D01*
X97859315Y-65500036D01*
X97303731Y-66055619D01*
X98263376Y-67015264D02*
X98818960Y-66459681D01*
X98869467Y-66308158D01*
X98818960Y-66156635D01*
X98616930Y-65954604D01*
X98465406Y-65904097D01*
X98313883Y-66964757D02*
X98162361Y-66914249D01*
X97909823Y-66661711D01*
X97859315Y-66510189D01*
X97909822Y-66358666D01*
X98010837Y-66257650D01*
X98162361Y-66207143D01*
X98313883Y-66257650D01*
X98566422Y-66510189D01*
X98717945Y-66560696D01*
X99475559Y-66813234D02*
X98768453Y-67520341D01*
X99374544Y-66914250D02*
X99475559Y-66914249D01*
X99627083Y-66964757D01*
X99778605Y-67116280D01*
X99829112Y-67267803D01*
X99778605Y-67419326D01*
X99223021Y-67974910D01*
X100435204Y-67772879D02*
X99728098Y-68479986D01*
X100334189Y-67873895D02*
X100435204Y-67873894D01*
X100586728Y-67924402D01*
X100738250Y-68075925D01*
X100788757Y-68227448D01*
X100738250Y-68378971D01*
X100182666Y-68934555D01*
D13*
X89781000Y-78144000D02*
X88781000Y-78144000D01*
X88781000Y-79844000D02*
X89781000Y-79844000D01*
X73771000Y-70735000D02*
X71771000Y-70735000D01*
X71771000Y-72775000D02*
X73771000Y-72775000D01*
X87606000Y-67095000D02*
X86606000Y-67095000D01*
X86606000Y-68795000D02*
X87606000Y-68795000D01*
X86506000Y-68615000D02*
X87206000Y-68615000D01*
X87206000Y-69815000D02*
X86506000Y-69815000D01*
X122547000Y-47410000D02*
X121547000Y-47410000D01*
X121547000Y-49110000D02*
X122547000Y-49110000D01*
X86706000Y-71290000D02*
X86706000Y-71990000D01*
X85506000Y-71990000D02*
X85506000Y-71290000D01*
X88226000Y-71985000D02*
X88226000Y-70985000D01*
X86526000Y-70985000D02*
X86526000Y-71985000D01*
X73271000Y-72810000D02*
X72271000Y-72810000D01*
X72271000Y-74510000D02*
X73271000Y-74510000D01*
X69377000Y-80221000D02*
X69377000Y-79521000D01*
X70577000Y-79521000D02*
X70577000Y-80221000D01*
X69377000Y-83015000D02*
X69377000Y-82315000D01*
X70577000Y-82315000D02*
X70577000Y-83015000D01*
X72675000Y-84109000D02*
X73375000Y-84109000D01*
X73375000Y-85309000D02*
X72675000Y-85309000D01*
X102397000Y-53055000D02*
X102397000Y-52355000D01*
X103597000Y-52355000D02*
X103597000Y-53055000D01*
X100873000Y-53563000D02*
X100873000Y-52863000D01*
X102073000Y-52863000D02*
X102073000Y-53563000D01*
X96047000Y-54325000D02*
X96047000Y-53625000D01*
X97247000Y-53625000D02*
X97247000Y-54325000D01*
X93503000Y-48803000D02*
X94203000Y-48803000D01*
X94203000Y-50003000D02*
X93503000Y-50003000D01*
X92675000Y-43973000D02*
X92675000Y-44673000D01*
X91475000Y-44673000D02*
X91475000Y-43973000D01*
X108997000Y-34833000D02*
X109697000Y-34833000D01*
X109697000Y-36033000D02*
X108997000Y-36033000D01*
X111979000Y-46767000D02*
X111979000Y-47467000D01*
X110779000Y-47467000D02*
X110779000Y-46767000D01*
X109509000Y-38577000D02*
X109509000Y-37877000D01*
X110709000Y-37877000D02*
X110709000Y-38577000D01*
X110709000Y-41179000D02*
X110709000Y-41879000D01*
X109509000Y-41879000D02*
X109509000Y-41179000D01*
X110709000Y-46259000D02*
X110709000Y-46959000D01*
X109509000Y-46959000D02*
X109509000Y-46259000D01*
X106903000Y-52543000D02*
X106203000Y-52543000D01*
X106203000Y-51343000D02*
X106903000Y-51343000D01*
X93503000Y-35087000D02*
X94203000Y-35087000D01*
X94203000Y-36287000D02*
X93503000Y-36287000D01*
X113249000Y-46767000D02*
X113249000Y-47467000D01*
X112049000Y-47467000D02*
X112049000Y-46767000D01*
X112233000Y-41941000D02*
X112233000Y-42641000D01*
X111033000Y-42641000D02*
X111033000Y-41941000D01*
X111033000Y-37815000D02*
X111033000Y-37115000D01*
X112233000Y-37115000D02*
X112233000Y-37815000D01*
X126777000Y-30515000D02*
X127477000Y-30515000D01*
X127477000Y-31715000D02*
X126777000Y-31715000D01*
X124237000Y-30515000D02*
X124937000Y-30515000D01*
X124937000Y-31715000D02*
X124237000Y-31715000D01*
X97706000Y-81315000D02*
X98406000Y-81315000D01*
X98406000Y-82515000D02*
X97706000Y-82515000D01*
X100576000Y-73240000D02*
X101576000Y-73240000D01*
X101576000Y-71540000D02*
X100576000Y-71540000D01*
X103921000Y-77300000D02*
X103921000Y-76600000D01*
X105121000Y-76600000D02*
X105121000Y-77300000D01*
X120150000Y-83986000D02*
X119150000Y-83986000D01*
X119150000Y-85686000D02*
X120150000Y-85686000D01*
X54718000Y-62830000D02*
X54018000Y-62830000D01*
X54018000Y-61630000D02*
X54718000Y-61630000D01*
X59151000Y-71720000D02*
X58451000Y-71720000D01*
X58451000Y-70520000D02*
X59151000Y-70520000D01*
X76866000Y-63535000D02*
X77566000Y-63535000D01*
X77566000Y-64735000D02*
X76866000Y-64735000D01*
X83601000Y-43645000D02*
X83601000Y-42945000D01*
X84801000Y-42945000D02*
X84801000Y-43645000D01*
X84793000Y-36033000D02*
X84093000Y-36033000D01*
X84093000Y-34833000D02*
X84793000Y-34833000D01*
X82327000Y-55661000D02*
X83027000Y-55661000D01*
X83027000Y-56861000D02*
X82327000Y-56861000D01*
X82327000Y-54391000D02*
X83027000Y-54391000D01*
X83027000Y-55591000D02*
X82327000Y-55591000D01*
X72105000Y-55591000D02*
X71405000Y-55591000D01*
X71405000Y-54391000D02*
X72105000Y-54391000D01*
X72105000Y-57369000D02*
X71405000Y-57369000D01*
X71405000Y-56169000D02*
X72105000Y-56169000D01*
X82327000Y-58201000D02*
X83027000Y-58201000D01*
X83027000Y-59401000D02*
X82327000Y-59401000D01*
X82327000Y-51851000D02*
X83027000Y-51851000D01*
X83027000Y-53051000D02*
X82327000Y-53051000D01*
X72752000Y-53051000D02*
X72052000Y-53051000D01*
X72052000Y-51851000D02*
X72752000Y-51851000D01*
X74391000Y-59909000D02*
X73691000Y-59909000D01*
X73691000Y-58709000D02*
X74391000Y-58709000D01*
X90035000Y-35149000D02*
X89035000Y-35149000D01*
X89035000Y-35149000D02*
X89035000Y-37249000D01*
X90035000Y-35149000D02*
X90035000Y-37249000D01*
X89035000Y-40543000D02*
X90035000Y-40543000D01*
X90035000Y-40543000D02*
X90035000Y-38443000D01*
X89035000Y-40543000D02*
X89035000Y-38443000D01*
X121605000Y-38363000D02*
X121605000Y-42663000D01*
X121605000Y-42663000D02*
X128905000Y-42663000D01*
X121605000Y-38363000D02*
X128905000Y-38363000D01*
X117357000Y-47051000D02*
X121657000Y-47051000D01*
X121657000Y-47051000D02*
X121657000Y-39751000D01*
X117357000Y-47051000D02*
X117357000Y-39751000D01*
X94356000Y-78350000D02*
X94356000Y-74050000D01*
X94356000Y-74050000D02*
X87056000Y-74050000D01*
X94356000Y-78350000D02*
X87056000Y-78350000D01*
X95179000Y-81520000D02*
X94249000Y-81520000D01*
X92019000Y-81520000D02*
X92949000Y-81520000D01*
X92019000Y-81520000D02*
X92019000Y-83680000D01*
X95179000Y-81520000D02*
X95179000Y-82980000D01*
X90861000Y-81552000D02*
X89931000Y-81552000D01*
X87701000Y-81552000D02*
X88631000Y-81552000D01*
X87701000Y-81552000D02*
X87701000Y-83712000D01*
X90861000Y-81552000D02*
X90861000Y-83012000D01*
X88645000Y-35057000D02*
X85345000Y-35057000D01*
X85345000Y-35057000D02*
X85345000Y-41957000D01*
X88645000Y-35057000D02*
X88645000Y-41957000D01*
X72778000Y-47625000D02*
X72778000Y-47745000D01*
X72778000Y-47745000D02*
X75558000Y-47745000D01*
X75558000Y-47745000D02*
X75558000Y-47625000D01*
X75558000Y-47625000D02*
X72778000Y-47625000D01*
X72778000Y-46355000D02*
X72778000Y-44965000D01*
X72778000Y-44965000D02*
X74168000Y-44965000D01*
X122657000Y-36247000D02*
X122657000Y-32787000D01*
X118897000Y-36247000D02*
X118897000Y-32787000D01*
X126594000Y-36782000D02*
X126594000Y-33322000D01*
X122834000Y-36782000D02*
X122834000Y-33322000D01*
X130531000Y-36782000D02*
X130531000Y-33322000D01*
X126771000Y-36782000D02*
X126771000Y-33322000D01*
X102736000Y-82550000D02*
X102736000Y-79890000D01*
X102736000Y-79890000D02*
X99956000Y-79890000D01*
X99956000Y-79890000D02*
X99956000Y-82550000D01*
X99956000Y-82550000D02*
X102736000Y-82550000D01*
X102736000Y-83820000D02*
X102736000Y-85210000D01*
X102736000Y-85210000D02*
X101346000Y-85210000D01*
X117476000Y-81555000D02*
X117476000Y-83205000D01*
X117476000Y-83205000D02*
X119276000Y-83205000D01*
X119276000Y-73005000D02*
X117476000Y-73005000D01*
X117476000Y-73005000D02*
X117476000Y-74655000D01*
X113101000Y-72515000D02*
X114031000Y-72515000D01*
X116261000Y-72515000D02*
X115331000Y-72515000D01*
X116261000Y-72515000D02*
X116261000Y-70355000D01*
X113101000Y-72515000D02*
X113101000Y-71055000D01*
X77526000Y-34800000D02*
X76596000Y-34800000D01*
X74366000Y-34800000D02*
X75296000Y-34800000D01*
X74366000Y-34800000D02*
X74366000Y-36960000D01*
X77526000Y-34800000D02*
X77526000Y-36260000D01*
X91331000Y-68905000D02*
X91331000Y-69835000D01*
X91331000Y-72065000D02*
X91331000Y-71135000D01*
X91331000Y-72065000D02*
X93491000Y-72065000D01*
X91331000Y-68905000D02*
X92791000Y-68905000D01*
X97931000Y-72700000D02*
X97931000Y-71770000D01*
X97931000Y-69540000D02*
X97931000Y-70470000D01*
X97931000Y-69540000D02*
X95771000Y-69540000D01*
X97931000Y-72700000D02*
X96471000Y-72700000D01*
X111551000Y-76335000D02*
X111551000Y-77335000D01*
X110191000Y-77335000D02*
X110191000Y-76335000D01*
X117901000Y-69350000D02*
X117901000Y-70350000D01*
X116541000Y-70350000D02*
X116541000Y-69350000D01*
X114181000Y-68535000D02*
X115181000Y-68535000D01*
X115181000Y-69895000D02*
X114181000Y-69895000D01*
X110027000Y-76335000D02*
X110027000Y-77335000D01*
X108667000Y-77335000D02*
X108667000Y-76335000D01*
X107143000Y-77335000D02*
X107143000Y-76335000D01*
X108503000Y-76335000D02*
X108503000Y-77335000D01*
X130855000Y-62111000D02*
X130855000Y-63111000D01*
X129495000Y-63111000D02*
X129495000Y-62111000D01*
X127971000Y-63111000D02*
X127971000Y-62111000D01*
X129331000Y-62111000D02*
X129331000Y-63111000D01*
X129241000Y-57523000D02*
X129241000Y-56523000D01*
X130601000Y-56523000D02*
X130601000Y-57523000D01*
X129077000Y-56523000D02*
X129077000Y-57523000D01*
X127717000Y-57523000D02*
X127717000Y-56523000D01*
X71456000Y-45585000D02*
X71456000Y-44585000D01*
X72816000Y-44585000D02*
X72816000Y-45585000D01*
X75446000Y-38055000D02*
X76446000Y-38055000D01*
X76446000Y-39415000D02*
X75446000Y-39415000D01*
X68027000Y-76839000D02*
X68027000Y-75839000D01*
X69387000Y-75839000D02*
X69387000Y-76839000D01*
X68027000Y-79125000D02*
X68027000Y-78125000D01*
X69387000Y-78125000D02*
X69387000Y-79125000D01*
X70657000Y-75839000D02*
X70657000Y-76839000D01*
X69297000Y-76839000D02*
X69297000Y-75839000D01*
X69387000Y-82673000D02*
X69387000Y-83673000D01*
X68027000Y-83673000D02*
X68027000Y-82673000D01*
X69387000Y-80387000D02*
X69387000Y-81387000D01*
X68027000Y-81387000D02*
X68027000Y-80387000D01*
X90801000Y-36023000D02*
X91801000Y-36023000D01*
X91801000Y-37383000D02*
X90801000Y-37383000D01*
X90813000Y-37547000D02*
X91813000Y-37547000D01*
X91813000Y-38907000D02*
X90813000Y-38907000D01*
X91395000Y-42283000D02*
X91395000Y-41283000D01*
X92755000Y-41283000D02*
X92755000Y-42283000D01*
X92841000Y-73705000D02*
X91841000Y-73705000D01*
X91841000Y-72345000D02*
X92841000Y-72345000D01*
X95676000Y-70735000D02*
X95676000Y-71735000D01*
X94316000Y-71735000D02*
X94316000Y-70735000D01*
X97556000Y-82505000D02*
X98556000Y-82505000D01*
X98556000Y-83865000D02*
X97556000Y-83865000D01*
X95295000Y-78355000D02*
X95295000Y-79355000D01*
X93935000Y-79355000D02*
X93935000Y-78355000D01*
X98556000Y-81325000D02*
X97556000Y-81325000D01*
X97556000Y-79965000D02*
X98556000Y-79965000D01*
X57666000Y-61550000D02*
X58666000Y-61550000D01*
X58666000Y-62910000D02*
X57666000Y-62910000D01*
X124669000Y-49903000D02*
X124669000Y-48903000D01*
X126029000Y-48903000D02*
X126029000Y-49903000D01*
X126373000Y-53549000D02*
X127373000Y-53549000D01*
X127373000Y-54909000D02*
X126373000Y-54909000D01*
X128786000Y-66630000D02*
X129786000Y-66630000D01*
X129786000Y-67990000D02*
X128786000Y-67990000D01*
X80563000Y-41017000D02*
X80563000Y-42017000D01*
X79203000Y-42017000D02*
X79203000Y-41017000D01*
X81006000Y-34335000D02*
X80006000Y-34335000D01*
X80006000Y-32975000D02*
X81006000Y-32975000D01*
X79076000Y-37445000D02*
X79076000Y-36445000D01*
X80436000Y-36445000D02*
X80436000Y-37445000D01*
X82316000Y-32975000D02*
X83316000Y-32975000D01*
X83316000Y-34335000D02*
X82316000Y-34335000D01*
X85717000Y-58211000D02*
X84717000Y-58211000D01*
X84717000Y-56851000D02*
X85717000Y-56851000D01*
X85717000Y-54401000D02*
X84717000Y-54401000D01*
X84717000Y-53041000D02*
X85717000Y-53041000D01*
X76458000Y-52750000D02*
X75458000Y-52750000D01*
X75458000Y-51390000D02*
X76458000Y-51390000D01*
X74541000Y-61513000D02*
X73541000Y-61513000D01*
X73541000Y-60153000D02*
X74541000Y-60153000D01*
X83177000Y-58211000D02*
X82177000Y-58211000D01*
X82177000Y-56851000D02*
X83177000Y-56851000D01*
X83177000Y-54401000D02*
X82177000Y-54401000D01*
X82177000Y-53041000D02*
X83177000Y-53041000D01*
X71255000Y-53041000D02*
X72255000Y-53041000D01*
X72255000Y-54401000D02*
X71255000Y-54401000D01*
X71255000Y-57359000D02*
X72255000Y-57359000D01*
X72255000Y-58719000D02*
X71255000Y-58719000D01*
D14*
X74824000Y-75565000D02*
X73824000Y-75565000D01*
X74824000Y-74295000D02*
X84674000Y-74295000D01*
X74824000Y-84455000D02*
X74824000Y-74295000D01*
X74824000Y-84455000D02*
X84674000Y-84455000D01*
X84674000Y-74295000D02*
X84674000Y-84455000D01*
X74824000Y-76835000D02*
X73824000Y-76835000D01*
X74824000Y-78105000D02*
X73824000Y-78105000D01*
X74824000Y-79375000D02*
X73824000Y-79375000D01*
X74824000Y-80645000D02*
X73824000Y-80645000D01*
X74824000Y-81915000D02*
X73824000Y-81915000D01*
X74824000Y-83185000D02*
X73824000Y-83185000D01*
D13*
X100701000Y-53231000D02*
X99771000Y-53231000D01*
X97541000Y-53231000D02*
X98471000Y-53231000D01*
X97541000Y-53231000D02*
X97541000Y-55391000D01*
X100701000Y-53231000D02*
X100701000Y-54691000D01*
D14*
X101981000Y-36195000D02*
X101981000Y-34925000D01*
X103251000Y-36195000D02*
X101981000Y-36195000D01*
X103251000Y-48895000D02*
X103251000Y-36195000D01*
X101981000Y-48895000D02*
X103251000Y-48895000D01*
X101981000Y-50165000D02*
X101981000Y-48895000D01*
X99441000Y-48895000D02*
X99441000Y-50165000D01*
X98171000Y-48895000D02*
X99441000Y-48895000D01*
X98171000Y-36195000D02*
X98171000Y-48895000D01*
X99441000Y-36195000D02*
X98171000Y-36195000D01*
X99441000Y-34925000D02*
X99441000Y-36195000D01*
D15*
X96901000Y-34925000D02*
X96011000Y-35815000D01*
D14*
X98551000Y-34545000D02*
X95631000Y-37465000D01*
X105791000Y-34545000D02*
X95631000Y-34545000D01*
X105791000Y-50545000D02*
X105791000Y-34545000D01*
X95631000Y-50545000D02*
X105791000Y-50545000D01*
X95631000Y-34545000D02*
X95631000Y-50545000D01*
X97091000Y-79112500D02*
X101591000Y-79112500D01*
X95966000Y-73562500D02*
X101591000Y-73562500D01*
X60076000Y-64600000D02*
X60051000Y-64600000D01*
X60076000Y-68750000D02*
X59961000Y-68750000D01*
X51176000Y-68750000D02*
X51291000Y-68750000D01*
X51176000Y-64600000D02*
X51291000Y-64600000D01*
X60076000Y-64600000D02*
X60076000Y-68750000D01*
X51176000Y-64600000D02*
X51176000Y-68750000D01*
X60051000Y-64600000D02*
X60051000Y-63225000D01*
D13*
X72916000Y-61600000D02*
X72916000Y-62530000D01*
X72916000Y-64760000D02*
X72916000Y-63830000D01*
X72916000Y-64760000D02*
X75076000Y-64760000D01*
X72916000Y-61600000D02*
X74376000Y-61600000D01*
D14*
X81471000Y-40575000D02*
X81621000Y-40575000D01*
X81471000Y-37325000D02*
X81718500Y-37325000D01*
X84721000Y-37325000D02*
X84473500Y-37325000D01*
X84721000Y-40575000D02*
X84473500Y-40575000D01*
X81471000Y-40575000D02*
X81471000Y-37325000D01*
X84721000Y-40575000D02*
X84721000Y-37325000D01*
X81621000Y-40575000D02*
X81621000Y-41500000D01*
X79668000Y-58378000D02*
X79668000Y-58253000D01*
X75018000Y-58378000D02*
X75018000Y-58153000D01*
X75018000Y-53128000D02*
X75018000Y-53353000D01*
X79668000Y-53128000D02*
X79668000Y-53353000D01*
X79668000Y-58378000D02*
X75018000Y-58378000D01*
X79668000Y-53128000D02*
X75018000Y-53128000D01*
X79668000Y-58253000D02*
X81018000Y-58253000D01*
D13*
X109101000Y-66890000D02*
X110101000Y-66890000D01*
X110101000Y-65190000D02*
X109101000Y-65190000D01*
D14*
X122301000Y-64770000D02*
X119761000Y-64770000D01*
X110871000Y-49530000D02*
X113411000Y-49530000D01*
X124206000Y-51435000D02*
G75*
G03X122301000Y-49530000I-1905000J0D01*
G01*
X122301000Y-64770000D02*
G75*
G03X124206000Y-62865000I0J1905000D01*
G01*
X108966000Y-62865000D02*
G75*
G03X110871000Y-64770000I1905000J0D01*
G01*
X110871000Y-49530000D02*
G75*
G03X108966000Y-51435000I0J-1905000D01*
G01*
X113411000Y-64770000D02*
X110871000Y-64770000D01*
X124206000Y-51435000D02*
X124206000Y-62865000D01*
X119761000Y-49530000D02*
X122301000Y-49530000D01*
X108966000Y-62865000D02*
X108966000Y-51435000D01*
X88949000Y-30861000D02*
X88949000Y-31115000D01*
X84885000Y-30861000D02*
X88949000Y-30861000D01*
X84885000Y-31115000D02*
X84885000Y-30861000D01*
X84885000Y-34925000D02*
X84885000Y-34671000D01*
X88949000Y-34925000D02*
X84885000Y-34925000D01*
X88949000Y-34925000D02*
X88949000Y-34671000D01*
D13*
X129241000Y-50665000D02*
X129241000Y-49665000D01*
X130601000Y-49665000D02*
X130601000Y-50665000D01*
X129077000Y-49665000D02*
X129077000Y-50665000D01*
X127717000Y-50665000D02*
X127717000Y-49665000D01*
X79116000Y-67075000D02*
X79116000Y-68335000D01*
X79116000Y-73895000D02*
X79116000Y-72635000D01*
X82876000Y-67075000D02*
X79116000Y-67075000D01*
X85126000Y-73895000D02*
X79116000Y-73895000D01*
X60751000Y-89035000D02*
X60751000Y-90035000D01*
X59391000Y-90035000D02*
X59391000Y-89035000D01*
X140126000Y-85352000D02*
X140126000Y-86352000D01*
X138766000Y-86352000D02*
X138766000Y-85352000D01*
D14*
X50546000Y-79375000D02*
X50546000Y-80645000D01*
X60706000Y-79375000D02*
X50546000Y-79375000D01*
X60706000Y-80645000D02*
X60706000Y-79375000D01*
X60706000Y-83185000D02*
X60706000Y-81915000D01*
X50546000Y-83185000D02*
X50546000Y-81915000D01*
X50546000Y-85725000D02*
X50546000Y-84455000D01*
X60706000Y-85725000D02*
X50546000Y-85725000D01*
X60706000Y-85725000D02*
X60706000Y-84455000D01*
X50546000Y-72390000D02*
X50546000Y-73660000D01*
X60706000Y-72390000D02*
X50546000Y-72390000D01*
X60706000Y-73660000D02*
X60706000Y-72390000D01*
X60706000Y-76200000D02*
X60706000Y-74930000D01*
X50546000Y-76200000D02*
X50546000Y-74930000D01*
X50546000Y-78740000D02*
X50546000Y-77470000D01*
X60706000Y-78740000D02*
X50546000Y-78740000D01*
X60706000Y-78740000D02*
X60706000Y-77470000D01*
D13*
X61042000Y-86364000D02*
X61042000Y-85364000D01*
X62402000Y-85364000D02*
X62402000Y-86364000D01*
X58846000Y-89035000D02*
X58846000Y-90035000D01*
X57486000Y-90035000D02*
X57486000Y-89035000D01*
X91649000Y-80256000D02*
X91649000Y-79256000D01*
X93009000Y-79256000D02*
X93009000Y-80256000D01*
D14*
X109509000Y-96334000D02*
X109509000Y-81734000D01*
X70309000Y-96334000D02*
X109509000Y-96334000D01*
X70309000Y-81734000D02*
X70309000Y-96334000D01*
X70309000Y-81734000D02*
X109509000Y-81734000D01*
D13*
X70739000Y-85734000D02*
X108829000Y-85734000D01*
X70739000Y-85734000D02*
X70739000Y-92324000D01*
X108829000Y-92324000D02*
X108829000Y-85734000D01*
X108829000Y-92324000D02*
X70739000Y-92324000D01*
D14*
X100726000Y-20005000D02*
X100726000Y-34605000D01*
X69526000Y-20005000D02*
X100726000Y-20005000D01*
X69526000Y-34605000D02*
X69526000Y-20005000D01*
X69526000Y-34605000D02*
X100726000Y-34605000D01*
D13*
X100196000Y-30605000D02*
X69986000Y-30605000D01*
X100196000Y-30605000D02*
X100196000Y-23755000D01*
X69986000Y-23755000D02*
X69986000Y-30605000D01*
X69986000Y-23755000D02*
X100196000Y-23755000D01*
D14*
X140118000Y-19998000D02*
X140118000Y-34598000D01*
X100918000Y-19998000D02*
X140118000Y-19998000D01*
X100918000Y-34598000D02*
X100918000Y-19998000D01*
X100918000Y-34598000D02*
X140118000Y-34598000D01*
D13*
X139558000Y-30598000D02*
X101478000Y-30598000D01*
X139558000Y-30598000D02*
X139558000Y-24008000D01*
X101478000Y-24008000D02*
X101478000Y-30598000D01*
X101478000Y-24008000D02*
X139558000Y-24008000D01*
X107026000Y-76473000D02*
X107026000Y-77173000D01*
X105826000Y-77173000D02*
X105826000Y-76473000D01*
X127727000Y-62249000D02*
X127727000Y-62949000D01*
X126527000Y-62949000D02*
X126527000Y-62249000D01*
X126400000Y-57385000D02*
X126400000Y-56685000D01*
X127600000Y-56685000D02*
X127600000Y-57385000D01*
X126273000Y-50515000D02*
X126273000Y-49815000D01*
X127473000Y-49815000D02*
X127473000Y-50515000D01*
X112225000Y-57750000D02*
X111525000Y-57750000D01*
X111525000Y-56550000D02*
X112225000Y-56550000D01*
X73160000Y-70350000D02*
X74160000Y-70350000D01*
X74160000Y-70350000D02*
X74160000Y-68250000D01*
X73160000Y-70350000D02*
X73160000Y-68250000D01*
X88908000Y-72890000D02*
X89908000Y-72890000D01*
X89908000Y-72890000D02*
X89908000Y-70790000D01*
X88908000Y-72890000D02*
X88908000Y-70790000D01*
X135898000Y-82745000D02*
X136898000Y-82745000D01*
X136898000Y-82745000D02*
X136898000Y-80645000D01*
X135898000Y-82745000D02*
X135898000Y-80645000D01*
X131580000Y-50411000D02*
X132580000Y-50411000D01*
X132580000Y-50411000D02*
X132580000Y-48311000D01*
X131580000Y-50411000D02*
X131580000Y-48311000D01*
X131580000Y-60520000D02*
X132580000Y-60520000D01*
X132580000Y-60520000D02*
X132580000Y-58420000D01*
X131580000Y-60520000D02*
X131580000Y-58420000D01*
X131707000Y-69461000D02*
X132707000Y-69461000D01*
X132707000Y-69461000D02*
X132707000Y-67361000D01*
X131707000Y-69461000D02*
X131707000Y-67361000D01*
X71329000Y-69600000D02*
X71329000Y-68600000D01*
X72689000Y-68600000D02*
X72689000Y-69600000D01*
X137078000Y-78252000D02*
X137078000Y-79252000D01*
X135718000Y-79252000D02*
X135718000Y-78252000D01*
X130322000Y-46183000D02*
X131322000Y-46183000D01*
X131322000Y-47543000D02*
X130322000Y-47543000D01*
X132760000Y-56130000D02*
X132760000Y-57130000D01*
X131400000Y-57130000D02*
X131400000Y-56130000D01*
X132887000Y-65171000D02*
X132887000Y-66171000D01*
X131527000Y-66171000D02*
X131527000Y-65171000D01*
D14*
X132151667Y-84637571D02*
X132294524Y-84685190D01*
X132342143Y-84732810D01*
X132389762Y-84828048D01*
X132389762Y-84970905D01*
X132342143Y-85066143D01*
X132294524Y-85113762D01*
X132199286Y-85161381D01*
X131818333Y-85161381D01*
X131818333Y-84161381D01*
X132151667Y-84161381D01*
X132246905Y-84209000D01*
X132294524Y-84256619D01*
X132342143Y-84351857D01*
X132342143Y-84447095D01*
X132294524Y-84542333D01*
X132246905Y-84589952D01*
X132151667Y-84637571D01*
X131818333Y-84637571D01*
X133008809Y-84161381D02*
X133199286Y-84161381D01*
X133294524Y-84209000D01*
X133389762Y-84304238D01*
X133437381Y-84494714D01*
X133437381Y-84828048D01*
X133389762Y-85018524D01*
X133294524Y-85113762D01*
X133199286Y-85161381D01*
X133008809Y-85161381D01*
X132913571Y-85113762D01*
X132818333Y-85018524D01*
X132770714Y-84828048D01*
X132770714Y-84494714D01*
X132818333Y-84304238D01*
X132913571Y-84209000D01*
X133008809Y-84161381D01*
X134056428Y-84161381D02*
X134246905Y-84161381D01*
X134342143Y-84209000D01*
X134437381Y-84304238D01*
X134485000Y-84494714D01*
X134485000Y-84828048D01*
X134437381Y-85018524D01*
X134342143Y-85113762D01*
X134246905Y-85161381D01*
X134056428Y-85161381D01*
X133961190Y-85113762D01*
X133865952Y-85018524D01*
X133818333Y-84828048D01*
X133818333Y-84494714D01*
X133865952Y-84304238D01*
X133961190Y-84209000D01*
X134056428Y-84161381D01*
X134865952Y-85113762D02*
X135008809Y-85161381D01*
X135246905Y-85161381D01*
X135342143Y-85113762D01*
X135389762Y-85066143D01*
X135437381Y-84970905D01*
X135437381Y-84875667D01*
X135389762Y-84780429D01*
X135342143Y-84732810D01*
X135246905Y-84685190D01*
X135056428Y-84637571D01*
X134961190Y-84589952D01*
X134913571Y-84542333D01*
X134865952Y-84447095D01*
X134865952Y-84351857D01*
X134913571Y-84256619D01*
X134961190Y-84209000D01*
X135056428Y-84161381D01*
X135294524Y-84161381D01*
X135437381Y-84209000D01*
X135723095Y-84161381D02*
X136294524Y-84161381D01*
X136008809Y-85161381D02*
X136008809Y-84161381D01*
X138612619Y-37607619D02*
X138565000Y-37560000D01*
X138517381Y-37464762D01*
X138517381Y-37226666D01*
X138565000Y-37131428D01*
X138612619Y-37083809D01*
X138707857Y-37036190D01*
X138803095Y-37036190D01*
X138945952Y-37083809D01*
X139517381Y-37655238D01*
X139517381Y-37036190D01*
X138850714Y-36179047D02*
X139517381Y-36179047D01*
X138469762Y-36417143D02*
X139184048Y-36655238D01*
X139184048Y-36036190D01*
X138517381Y-35798095D02*
X139517381Y-35464762D01*
X138517381Y-35131428D01*
X139612619Y-35036190D02*
X139612619Y-34274285D01*
X139517381Y-33512380D02*
X139517381Y-34083809D01*
X139517381Y-33798095D02*
X138517381Y-33798095D01*
X138660238Y-33893333D01*
X138755476Y-33988571D01*
X138803095Y-34083809D01*
X138599619Y-55387619D02*
X138552000Y-55340000D01*
X138504381Y-55244762D01*
X138504381Y-55006666D01*
X138552000Y-54911428D01*
X138599619Y-54863809D01*
X138694857Y-54816190D01*
X138790095Y-54816190D01*
X138932952Y-54863809D01*
X139504381Y-55435238D01*
X139504381Y-54816190D01*
X138837714Y-53959047D02*
X139504381Y-53959047D01*
X138456762Y-54197143D02*
X139171048Y-54435238D01*
X139171048Y-53816190D01*
X138504381Y-53578095D02*
X139504381Y-53244762D01*
X138504381Y-52911428D01*
X139599619Y-52816190D02*
X139599619Y-52054285D01*
X138599619Y-51863809D02*
X138552000Y-51816190D01*
X138504381Y-51720952D01*
X138504381Y-51482856D01*
X138552000Y-51387618D01*
X138599619Y-51339999D01*
X138694857Y-51292380D01*
X138790095Y-51292380D01*
X138932952Y-51339999D01*
X139504381Y-51911428D01*
X139504381Y-51292380D01*
X138612619Y-73167619D02*
X138565000Y-73120000D01*
X138517381Y-73024762D01*
X138517381Y-72786666D01*
X138565000Y-72691428D01*
X138612619Y-72643809D01*
X138707857Y-72596190D01*
X138803095Y-72596190D01*
X138945952Y-72643809D01*
X139517381Y-73215238D01*
X139517381Y-72596190D01*
X138850714Y-71739047D02*
X139517381Y-71739047D01*
X138469762Y-71977143D02*
X139184048Y-72215238D01*
X139184048Y-71596190D01*
X138517381Y-71358095D02*
X139517381Y-71024762D01*
X138517381Y-70691428D01*
X139612619Y-70596190D02*
X139612619Y-69834285D01*
X138517381Y-69691428D02*
X138517381Y-69072380D01*
X138898333Y-69405714D01*
X138898333Y-69262856D01*
X138945952Y-69167618D01*
X138993571Y-69119999D01*
X139088810Y-69072380D01*
X139326905Y-69072380D01*
X139422143Y-69119999D01*
X139469762Y-69167618D01*
X139517381Y-69262856D01*
X139517381Y-69548571D01*
X139469762Y-69643809D01*
X139422143Y-69691428D01*
X114196905Y-84637571D02*
X114339762Y-84685190D01*
X114387381Y-84732810D01*
X114435000Y-84828048D01*
X114435000Y-84970905D01*
X114387381Y-85066143D01*
X114339762Y-85113762D01*
X114244524Y-85161381D01*
X113863571Y-85161381D01*
X113863571Y-84161381D01*
X114196905Y-84161381D01*
X114292143Y-84209000D01*
X114339762Y-84256619D01*
X114387381Y-84351857D01*
X114387381Y-84447095D01*
X114339762Y-84542333D01*
X114292143Y-84589952D01*
X114196905Y-84637571D01*
X113863571Y-84637571D01*
X114815952Y-84875667D02*
X115292143Y-84875667D01*
X114720714Y-85161381D02*
X115054047Y-84161381D01*
X115387381Y-85161381D01*
X115577857Y-84161381D02*
X116149286Y-84161381D01*
X115863571Y-85161381D02*
X115863571Y-84161381D01*
X123698096Y-84209000D02*
X123602858Y-84161381D01*
X123460001Y-84161381D01*
X123317143Y-84209000D01*
X123221905Y-84304238D01*
X123174286Y-84399476D01*
X123126667Y-84589952D01*
X123126667Y-84732810D01*
X123174286Y-84923286D01*
X123221905Y-85018524D01*
X123317143Y-85113762D01*
X123460001Y-85161381D01*
X123555239Y-85161381D01*
X123698096Y-85113762D01*
X123745715Y-85066143D01*
X123745715Y-84732810D01*
X123555239Y-84732810D01*
X124174286Y-85161381D02*
X124174286Y-84161381D01*
X124745715Y-85161381D01*
X124745715Y-84161381D01*
X125221905Y-85161381D02*
X125221905Y-84161381D01*
X125460000Y-84161381D01*
X125602858Y-84209000D01*
X125698096Y-84304238D01*
X125745715Y-84399476D01*
X125793334Y-84589952D01*
X125793334Y-84732810D01*
X125745715Y-84923286D01*
X125698096Y-85018524D01*
X125602858Y-85113762D01*
X125460000Y-85161381D01*
X125221905Y-85161381D01*
X139517381Y-45711905D02*
X138517381Y-45711905D01*
X138993571Y-45711905D02*
X138993571Y-45140476D01*
X139517381Y-45140476D02*
X138517381Y-45140476D01*
X139517381Y-44664286D02*
X138517381Y-44664286D01*
X138517381Y-44283333D01*
X138565000Y-44188095D01*
X138612619Y-44140476D01*
X138707857Y-44092857D01*
X138850714Y-44092857D01*
X138945952Y-44140476D01*
X138993571Y-44188095D01*
X139041190Y-44283333D01*
X139041190Y-44664286D01*
X139517381Y-43140476D02*
X139517381Y-43711905D01*
X139517381Y-43426191D02*
X138517381Y-43426191D01*
X138660238Y-43521429D01*
X138755476Y-43616667D01*
X138803095Y-43711905D01*
X139517381Y-63491905D02*
X138517381Y-63491905D01*
X138993571Y-63491905D02*
X138993571Y-62920476D01*
X139517381Y-62920476D02*
X138517381Y-62920476D01*
X139517381Y-62444286D02*
X138517381Y-62444286D01*
X138517381Y-62063333D01*
X138565000Y-61968095D01*
X138612619Y-61920476D01*
X138707857Y-61872857D01*
X138850714Y-61872857D01*
X138945952Y-61920476D01*
X138993571Y-61968095D01*
X139041190Y-62063333D01*
X139041190Y-62444286D01*
X138612619Y-61491905D02*
X138565000Y-61444286D01*
X138517381Y-61349048D01*
X138517381Y-61110952D01*
X138565000Y-61015714D01*
X138612619Y-60968095D01*
X138707857Y-60920476D01*
X138803095Y-60920476D01*
X138945952Y-60968095D01*
X139517381Y-61539524D01*
X139517381Y-60920476D01*
X139517381Y-81271905D02*
X138517381Y-81271905D01*
X138993571Y-81271905D02*
X138993571Y-80700476D01*
X139517381Y-80700476D02*
X138517381Y-80700476D01*
X139517381Y-80224286D02*
X138517381Y-80224286D01*
X138517381Y-79843333D01*
X138565000Y-79748095D01*
X138612619Y-79700476D01*
X138707857Y-79652857D01*
X138850714Y-79652857D01*
X138945952Y-79700476D01*
X138993571Y-79748095D01*
X139041190Y-79843333D01*
X139041190Y-80224286D01*
X138517381Y-79319524D02*
X138517381Y-78700476D01*
X138898333Y-79033810D01*
X138898333Y-78890952D01*
X138945952Y-78795714D01*
X138993571Y-78748095D01*
X139088810Y-78700476D01*
X139326905Y-78700476D01*
X139422143Y-78748095D01*
X139469762Y-78795714D01*
X139517381Y-78890952D01*
X139517381Y-79176667D01*
X139469762Y-79271905D01*
X139422143Y-79319524D01*
X110755953Y-59007143D02*
X110708334Y-59054762D01*
X110565477Y-59102381D01*
X110470239Y-59102381D01*
X110327381Y-59054762D01*
X110232143Y-58959524D01*
X110184524Y-58864286D01*
X110136905Y-58673810D01*
X110136905Y-58530952D01*
X110184524Y-58340476D01*
X110232143Y-58245238D01*
X110327381Y-58150000D01*
X110470239Y-58102381D01*
X110565477Y-58102381D01*
X110708334Y-58150000D01*
X110755953Y-58197619D01*
X111708334Y-59102381D02*
X111136905Y-59102381D01*
X111422619Y-59102381D02*
X111422619Y-58102381D01*
X111327381Y-58245238D01*
X111232143Y-58340476D01*
X111136905Y-58388095D01*
X112660715Y-59102381D02*
X112089286Y-59102381D01*
X112375000Y-59102381D02*
X112375000Y-58102381D01*
X112279762Y-58245238D01*
X112184524Y-58340476D01*
X112089286Y-58388095D01*
X113565477Y-58102381D02*
X113089286Y-58102381D01*
X113041667Y-58578571D01*
X113089286Y-58530952D01*
X113184524Y-58483333D01*
X113422620Y-58483333D01*
X113517858Y-58530952D01*
X113565477Y-58578571D01*
X113613096Y-58673810D01*
X113613096Y-58911905D01*
X113565477Y-59007143D01*
X113517858Y-59054762D01*
X113422620Y-59102381D01*
X113184524Y-59102381D01*
X113089286Y-59054762D01*
X113041667Y-59007143D01*
X63881096Y-30869000D02*
X63785858Y-30821381D01*
X63643001Y-30821381D01*
X63500143Y-30869000D01*
X63404905Y-30964238D01*
X63357286Y-31059476D01*
X63309667Y-31249952D01*
X63309667Y-31392810D01*
X63357286Y-31583286D01*
X63404905Y-31678524D01*
X63500143Y-31773762D01*
X63643001Y-31821381D01*
X63738239Y-31821381D01*
X63881096Y-31773762D01*
X63928715Y-31726143D01*
X63928715Y-31392810D01*
X63738239Y-31392810D01*
X64357286Y-31821381D02*
X64357286Y-30821381D01*
X64928715Y-31821381D01*
X64928715Y-30821381D01*
X65404905Y-31821381D02*
X65404905Y-30821381D01*
X65643000Y-30821381D01*
X65785858Y-30869000D01*
X65881096Y-30964238D01*
X65928715Y-31059476D01*
X65976334Y-31249952D01*
X65976334Y-31392810D01*
X65928715Y-31583286D01*
X65881096Y-31678524D01*
X65785858Y-31773762D01*
X65643000Y-31821381D01*
X65404905Y-31821381D01*
M02*
