G04 #@! TF.FileFunction,Paste,Bot*
%FSLAX46Y46*%
G04 Gerber Fmt 4.6, Leading zero omitted, Abs format (unit mm)*
G04 Created by KiCad (PCBNEW 4.0.6) date Mon Nov 27 06:04:14 2017*
%MOMM*%
%LPD*%
G01*
G04 APERTURE LIST*
%ADD10C,0.100000*%
%ADD11R,1.000000X1.250000*%
%ADD12R,2.700000X2.700000*%
%ADD13R,1.000000X1.600000*%
%ADD14R,0.800000X0.750000*%
%ADD15R,0.750000X0.800000*%
%ADD16R,1.550000X0.600000*%
%ADD17R,0.900000X0.600000*%
%ADD18R,0.600000X0.900000*%
%ADD19R,0.600000X1.050000*%
%ADD20R,0.900000X0.500000*%
%ADD21R,0.500000X0.900000*%
%ADD22R,1.500000X0.600000*%
%ADD23R,0.800000X1.500000*%
%ADD24R,1.450000X0.450000*%
%ADD25R,2.860000X5.500000*%
%ADD26R,1.000000X3.000000*%
%ADD27R,2.300000X2.500000*%
%ADD28R,2.500000X2.300000*%
%ADD29R,1.600000X3.500000*%
%ADD30R,1.700000X0.900000*%
%ADD31R,0.900000X1.700000*%
%ADD32R,1.000000X2.500000*%
%ADD33R,1.250000X1.000000*%
%ADD34R,4.000000X2.500000*%
%ADD35R,0.900000X0.800000*%
G04 APERTURE END LIST*
D10*
D11*
X103822500Y-72580500D03*
X105822500Y-72580500D03*
D12*
X82931000Y-76200000D03*
X76711000Y-76200000D03*
X82931000Y-83820000D03*
X76711000Y-83820000D03*
D13*
X78407000Y-73279000D03*
X81407000Y-73279000D03*
D14*
X127623000Y-24511000D03*
X126123000Y-24511000D03*
D11*
X106775000Y-82296000D03*
X104775000Y-82296000D03*
D14*
X116471000Y-49276000D03*
X117971000Y-49276000D03*
X116193000Y-59944000D03*
X114693000Y-59944000D03*
D15*
X115062000Y-67703000D03*
X115062000Y-69203000D03*
D14*
X75716000Y-62230000D03*
X77216000Y-62230000D03*
X83935000Y-60325000D03*
X82435000Y-60325000D03*
X83935000Y-59055000D03*
X82435000Y-59055000D03*
X93357000Y-58801000D03*
X94857000Y-58801000D03*
X93357000Y-60325000D03*
X94857000Y-60325000D03*
X83935000Y-62865000D03*
X82435000Y-62865000D03*
X83935000Y-56515000D03*
X82435000Y-56515000D03*
X93357000Y-56261000D03*
X94857000Y-56261000D03*
X93357000Y-62865000D03*
X94857000Y-62865000D03*
D12*
X92961000Y-76200000D03*
X86741000Y-76200000D03*
X92961000Y-83820000D03*
X86741000Y-83820000D03*
D16*
X102296000Y-78105000D03*
X102296000Y-76835000D03*
X102296000Y-75565000D03*
X102296000Y-74295000D03*
X107696000Y-74295000D03*
X107696000Y-75565000D03*
X107696000Y-76835000D03*
X107696000Y-78105000D03*
D17*
X127506000Y-47470000D03*
X127506000Y-46620000D03*
X127506000Y-48320000D03*
X129806000Y-47470000D03*
X129806000Y-46620000D03*
X129806000Y-48320000D03*
X128656000Y-48320000D03*
X128656000Y-46620000D03*
D18*
X126776000Y-50170000D03*
X130536000Y-50170000D03*
X128056000Y-50170000D03*
D19*
X128016000Y-44450000D03*
X126746000Y-44450000D03*
X129296000Y-44450000D03*
X130566000Y-44450000D03*
D18*
X129256000Y-50170000D03*
D17*
X128656000Y-47470000D03*
X127506000Y-58265000D03*
X127506000Y-57415000D03*
X127506000Y-59115000D03*
X129806000Y-58265000D03*
X129806000Y-57415000D03*
X129806000Y-59115000D03*
X128656000Y-59115000D03*
X128656000Y-57415000D03*
D18*
X126776000Y-60965000D03*
X130536000Y-60965000D03*
X128056000Y-60965000D03*
D19*
X128016000Y-55245000D03*
X126746000Y-55245000D03*
X129296000Y-55245000D03*
X130566000Y-55245000D03*
D18*
X129256000Y-60965000D03*
D17*
X128656000Y-58265000D03*
X127496000Y-69695000D03*
X127496000Y-68845000D03*
X127496000Y-70545000D03*
X129796000Y-69695000D03*
X129796000Y-68845000D03*
X129796000Y-70545000D03*
X128646000Y-70545000D03*
X128646000Y-68845000D03*
D18*
X126766000Y-72395000D03*
X130526000Y-72395000D03*
X128046000Y-72395000D03*
D19*
X128006000Y-66675000D03*
X126736000Y-66675000D03*
X129286000Y-66675000D03*
X130556000Y-66675000D03*
D18*
X129246000Y-72395000D03*
D17*
X128646000Y-69695000D03*
D20*
X95885000Y-47395000D03*
X95885000Y-48895000D03*
D21*
X85483000Y-63627000D03*
X86983000Y-63627000D03*
X83082000Y-55118000D03*
X84582000Y-55118000D03*
D20*
X96393000Y-57797000D03*
X96393000Y-59297000D03*
X96393000Y-61837000D03*
X96393000Y-60337000D03*
D21*
X83935000Y-61595000D03*
X82435000Y-61595000D03*
X83935000Y-57785000D03*
X82435000Y-57785000D03*
X93357000Y-57531000D03*
X94857000Y-57531000D03*
X93357000Y-61595000D03*
X94857000Y-61595000D03*
D22*
X93632000Y-37973000D03*
X93632000Y-39243000D03*
X93632000Y-40513000D03*
X93632000Y-41783000D03*
X93632000Y-43053000D03*
X93632000Y-44323000D03*
X93632000Y-45593000D03*
X93632000Y-46863000D03*
X88232000Y-46863000D03*
X88232000Y-45593000D03*
X88232000Y-44323000D03*
X88232000Y-43053000D03*
X88232000Y-41783000D03*
X88232000Y-40513000D03*
X88232000Y-39243000D03*
X88232000Y-37973000D03*
D16*
X115095000Y-50546000D03*
X115095000Y-51816000D03*
X115095000Y-53086000D03*
X115095000Y-54356000D03*
X109695000Y-54356000D03*
X109695000Y-53086000D03*
X109695000Y-51816000D03*
X109695000Y-50546000D03*
D23*
X56896000Y-63169000D03*
X55626000Y-63169000D03*
X55626000Y-69469000D03*
X56896000Y-69469000D03*
X53721000Y-63169000D03*
X52451000Y-63169000D03*
X52451000Y-69469000D03*
X53721000Y-69469000D03*
X60071000Y-63169000D03*
X58801000Y-63169000D03*
X58801000Y-69469000D03*
X60071000Y-69469000D03*
D16*
X124206000Y-43180000D03*
X124206000Y-44450000D03*
X124206000Y-45720000D03*
X124206000Y-46990000D03*
X118806000Y-46990000D03*
X118806000Y-45720000D03*
X118806000Y-44450000D03*
X118806000Y-43180000D03*
X124206000Y-53975000D03*
X124206000Y-55245000D03*
X124206000Y-56515000D03*
X124206000Y-57785000D03*
X118806000Y-57785000D03*
X118806000Y-56515000D03*
X118806000Y-55245000D03*
X118806000Y-53975000D03*
X124206000Y-65405000D03*
X124206000Y-66675000D03*
X124206000Y-67945000D03*
X124206000Y-69215000D03*
X118806000Y-69215000D03*
X118806000Y-67945000D03*
X118806000Y-66675000D03*
X118806000Y-65405000D03*
D24*
X71316000Y-60975000D03*
X71316000Y-60325000D03*
X71316000Y-59675000D03*
X71316000Y-59025000D03*
X71316000Y-58375000D03*
X71316000Y-57725000D03*
X71316000Y-57075000D03*
X71316000Y-56425000D03*
X71316000Y-55775000D03*
X71316000Y-55125000D03*
X77216000Y-55125000D03*
X77216000Y-55775000D03*
X77216000Y-56425000D03*
X77216000Y-57075000D03*
X77216000Y-57725000D03*
X77216000Y-58375000D03*
X77216000Y-59025000D03*
X77216000Y-59675000D03*
X77216000Y-60325000D03*
X77216000Y-60975000D03*
X85667000Y-61655000D03*
X85667000Y-61005000D03*
X85667000Y-60355000D03*
X85667000Y-59705000D03*
X85667000Y-59055000D03*
X85667000Y-58405000D03*
X85667000Y-57755000D03*
X91567000Y-57755000D03*
X91567000Y-58405000D03*
X91567000Y-59055000D03*
X91567000Y-59705000D03*
X91567000Y-60355000D03*
X91567000Y-61005000D03*
X91567000Y-61655000D03*
D25*
X110490000Y-76454000D03*
X117390000Y-76454000D03*
D20*
X70104000Y-30226000D03*
X70104000Y-31726000D03*
X133096000Y-25920000D03*
X133096000Y-27420000D03*
X109728000Y-57634000D03*
X109728000Y-56134000D03*
D14*
X91452000Y-48133000D03*
X92952000Y-48133000D03*
D20*
X58928000Y-76327000D03*
X58928000Y-74827000D03*
D15*
X107823000Y-52717000D03*
X107823000Y-54217000D03*
X117094000Y-45986000D03*
X117094000Y-47486000D03*
X117094000Y-56781000D03*
X117094000Y-58281000D03*
X117094000Y-67703000D03*
X117094000Y-69203000D03*
X98044000Y-59309000D03*
X98044000Y-57809000D03*
X99441000Y-59297000D03*
X99441000Y-57797000D03*
D21*
X89130000Y-71374000D03*
X87630000Y-71374000D03*
D26*
X60007500Y-80264000D03*
X55407500Y-80264000D03*
D11*
X102901500Y-51498500D03*
X100901500Y-51498500D03*
D14*
X106870500Y-80708500D03*
X105370500Y-80708500D03*
X102413500Y-72580500D03*
X100913500Y-72580500D03*
D15*
X79311500Y-60642500D03*
X79311500Y-62142500D03*
D14*
X76962000Y-53848000D03*
X75462000Y-53848000D03*
D15*
X80645000Y-60642500D03*
X80645000Y-62142500D03*
D14*
X79692500Y-57277000D03*
X81192500Y-57277000D03*
X79629000Y-55880000D03*
X81129000Y-55880000D03*
X79629000Y-54610000D03*
X81129000Y-54610000D03*
D15*
X72593000Y-53848000D03*
X72593000Y-52348000D03*
D27*
X70802500Y-76916500D03*
X70802500Y-81216500D03*
D28*
X121729500Y-36703000D03*
X126029500Y-36703000D03*
D29*
X113528500Y-82042000D03*
X108648500Y-82042000D03*
D30*
X56832500Y-61468000D03*
X56832500Y-58568000D03*
X54610000Y-61468000D03*
X54610000Y-58568000D03*
X59055000Y-61468000D03*
X59055000Y-58568000D03*
D31*
X57605000Y-71564500D03*
X60505000Y-71564500D03*
X50810500Y-71437500D03*
X53710500Y-71437500D03*
D10*
G36*
X54756538Y-76938044D02*
X53554456Y-75735962D01*
X54190852Y-75099566D01*
X55392934Y-76301648D01*
X54756538Y-76938044D01*
X54756538Y-76938044D01*
G37*
G36*
X56807148Y-74887434D02*
X55605066Y-73685352D01*
X56241462Y-73048956D01*
X57443544Y-74251038D01*
X56807148Y-74887434D01*
X56807148Y-74887434D01*
G37*
D32*
X70850500Y-73723500D03*
X73850500Y-73723500D03*
D33*
X74041000Y-75962000D03*
X74041000Y-77962000D03*
D34*
X111756000Y-38036500D03*
X117856000Y-38036500D03*
D15*
X69024500Y-43549000D03*
X69024500Y-42049000D03*
D14*
X68973000Y-38163500D03*
X70473000Y-38163500D03*
D20*
X70485000Y-43537000D03*
X70485000Y-42037000D03*
D21*
X68921500Y-39624000D03*
X70421500Y-39624000D03*
D35*
X92694000Y-25059600D03*
X92694000Y-26959600D03*
X90694000Y-26009600D03*
D21*
X92061600Y-28498800D03*
X93561600Y-28498800D03*
D20*
X92557600Y-29730000D03*
X92557600Y-31230000D03*
M02*
