G04 #@! TF.FileFunction,Soldermask,Bot*
%FSLAX46Y46*%
G04 Gerber Fmt 4.6, Leading zero omitted, Abs format (unit mm)*
G04 Created by KiCad (PCBNEW 4.0.6) date Mon Nov 27 06:04:14 2017*
%MOMM*%
%LPD*%
G01*
G04 APERTURE LIST*
%ADD10C,0.100000*%
%ADD11C,6.500000*%
%ADD12R,1.100000X1.350000*%
%ADD13R,2.800000X2.800000*%
%ADD14R,1.100000X1.700000*%
%ADD15R,0.900000X0.850000*%
%ADD16R,0.850000X0.900000*%
%ADD17R,1.800000X1.800000*%
%ADD18O,1.800000X1.800000*%
%ADD19C,0.700000*%
%ADD20R,1.650000X0.700000*%
%ADD21R,0.840000X1.290000*%
%ADD22R,4.840000X1.690000*%
%ADD23R,4.340000X3.440000*%
%ADD24R,1.000000X0.600000*%
%ADD25R,0.600000X1.000000*%
%ADD26R,1.600000X0.700000*%
%ADD27R,0.900000X1.600000*%
%ADD28R,1.550000X0.550000*%
%ADD29R,2.960000X5.600000*%
%ADD30C,3.910000*%
%ADD31R,1.620000X1.620000*%
%ADD32C,1.620000*%
%ADD33C,1.600000*%
%ADD34R,1.100000X3.100000*%
%ADD35R,2.400000X2.600000*%
%ADD36R,2.600000X2.400000*%
%ADD37R,1.700000X3.600000*%
%ADD38R,1.800000X1.000000*%
%ADD39R,1.000000X1.800000*%
%ADD40R,1.900000X1.900000*%
%ADD41O,1.900000X1.900000*%
%ADD42R,1.100000X2.600000*%
%ADD43R,1.350000X1.100000*%
%ADD44R,4.100000X2.600000*%
%ADD45R,1.000000X0.900000*%
%ADD46C,0.254000*%
G04 APERTURE END LIST*
D10*
D11*
X65786000Y-26710000D03*
D12*
X103822500Y-72580500D03*
X105822500Y-72580500D03*
D13*
X82931000Y-76200000D03*
X76711000Y-76200000D03*
X82931000Y-83820000D03*
X76711000Y-83820000D03*
D14*
X78407000Y-73279000D03*
X81407000Y-73279000D03*
D15*
X127623000Y-24511000D03*
X126123000Y-24511000D03*
D12*
X106775000Y-82296000D03*
X104775000Y-82296000D03*
D15*
X116471000Y-49276000D03*
X117971000Y-49276000D03*
X116193000Y-59944000D03*
X114693000Y-59944000D03*
D16*
X115062000Y-67703000D03*
X115062000Y-69203000D03*
D15*
X75716000Y-62230000D03*
X77216000Y-62230000D03*
X83935000Y-60325000D03*
X82435000Y-60325000D03*
X83935000Y-59055000D03*
X82435000Y-59055000D03*
X93357000Y-58801000D03*
X94857000Y-58801000D03*
X93357000Y-60325000D03*
X94857000Y-60325000D03*
X83935000Y-62865000D03*
X82435000Y-62865000D03*
X83935000Y-56515000D03*
X82435000Y-56515000D03*
X93357000Y-56261000D03*
X94857000Y-56261000D03*
X93357000Y-62865000D03*
X94857000Y-62865000D03*
D13*
X92961000Y-76200000D03*
X86741000Y-76200000D03*
X92961000Y-83820000D03*
X86741000Y-83820000D03*
D17*
X63881000Y-81915000D03*
D18*
X66421000Y-81915000D03*
X63881000Y-79375000D03*
X66421000Y-79375000D03*
X63881000Y-76835000D03*
X66421000Y-76835000D03*
X63881000Y-74295000D03*
X66421000Y-74295000D03*
X63881000Y-71755000D03*
X66421000Y-71755000D03*
X63881000Y-69215000D03*
X66421000Y-69215000D03*
X63881000Y-66675000D03*
X66421000Y-66675000D03*
X63881000Y-64135000D03*
X66421000Y-64135000D03*
X63881000Y-61595000D03*
X66421000Y-61595000D03*
X63881000Y-59055000D03*
X66421000Y-59055000D03*
X63881000Y-56515000D03*
X66421000Y-56515000D03*
X63881000Y-53975000D03*
X66421000Y-53975000D03*
X63881000Y-51435000D03*
X66421000Y-51435000D03*
X63881000Y-48895000D03*
X66421000Y-48895000D03*
X63881000Y-46355000D03*
X66421000Y-46355000D03*
X63881000Y-43815000D03*
X66421000Y-43815000D03*
X63881000Y-41275000D03*
X66421000Y-41275000D03*
X63881000Y-38735000D03*
X66421000Y-38735000D03*
X63881000Y-36195000D03*
X66421000Y-36195000D03*
X63881000Y-33655000D03*
X66421000Y-33655000D03*
D11*
X133985000Y-88646000D03*
D19*
X136385000Y-88646000D03*
X135682056Y-90343056D03*
X133985000Y-91046000D03*
X132287944Y-90343056D03*
X131585000Y-88646000D03*
X132287944Y-86948944D03*
X133985000Y-86246000D03*
X135682056Y-86948944D03*
D17*
X74168000Y-46355000D03*
D11*
X142875000Y-35560000D03*
D19*
X145275000Y-35560000D03*
X144572056Y-37257056D03*
X142875000Y-37960000D03*
X141177944Y-37257056D03*
X140475000Y-35560000D03*
X141177944Y-33862944D03*
X142875000Y-33160000D03*
X144572056Y-33862944D03*
D11*
X142875000Y-53340000D03*
D19*
X145275000Y-53340000D03*
X144572056Y-55037056D03*
X142875000Y-55740000D03*
X141177944Y-55037056D03*
X140475000Y-53340000D03*
X141177944Y-51642944D03*
X142875000Y-50940000D03*
X144572056Y-51642944D03*
D11*
X142875000Y-71120000D03*
D19*
X145275000Y-71120000D03*
X144572056Y-72817056D03*
X142875000Y-73520000D03*
X141177944Y-72817056D03*
X140475000Y-71120000D03*
X141177944Y-69422944D03*
X142875000Y-68720000D03*
X144572056Y-69422944D03*
D11*
X114935000Y-88646000D03*
D19*
X117335000Y-88646000D03*
X116632056Y-90343056D03*
X114935000Y-91046000D03*
X113237944Y-90343056D03*
X112535000Y-88646000D03*
X113237944Y-86948944D03*
X114935000Y-86246000D03*
X116632056Y-86948944D03*
D11*
X124460000Y-88646000D03*
D19*
X126860000Y-88646000D03*
X126157056Y-90343056D03*
X124460000Y-91046000D03*
X122762944Y-90343056D03*
X122060000Y-88646000D03*
X122762944Y-86948944D03*
X124460000Y-86246000D03*
X126157056Y-86948944D03*
D20*
X102296000Y-78105000D03*
X102296000Y-76835000D03*
X102296000Y-75565000D03*
X102296000Y-74295000D03*
X107696000Y-74295000D03*
X107696000Y-75565000D03*
X107696000Y-76835000D03*
X107696000Y-78105000D03*
D21*
X128016000Y-44450000D03*
X126746000Y-44450000D03*
X129296000Y-44450000D03*
D22*
X128656000Y-49920000D03*
D23*
X128656000Y-47720000D03*
D21*
X130566000Y-44450000D03*
X128016000Y-55245000D03*
X126746000Y-55245000D03*
X129296000Y-55245000D03*
D22*
X128656000Y-60715000D03*
D23*
X128656000Y-58515000D03*
D21*
X130566000Y-55245000D03*
X128006000Y-66675000D03*
X126736000Y-66675000D03*
X129286000Y-66675000D03*
D22*
X128646000Y-72145000D03*
D23*
X128646000Y-69945000D03*
D21*
X130556000Y-66675000D03*
D24*
X95885000Y-47395000D03*
X95885000Y-48895000D03*
D25*
X85483000Y-63627000D03*
X86983000Y-63627000D03*
X83082000Y-55118000D03*
X84582000Y-55118000D03*
D24*
X96393000Y-57797000D03*
X96393000Y-59297000D03*
X96393000Y-61837000D03*
X96393000Y-60337000D03*
D25*
X83935000Y-61595000D03*
X82435000Y-61595000D03*
X83935000Y-57785000D03*
X82435000Y-57785000D03*
X93357000Y-57531000D03*
X94857000Y-57531000D03*
X93357000Y-61595000D03*
X94857000Y-61595000D03*
D26*
X93632000Y-37973000D03*
X93632000Y-39243000D03*
X93632000Y-40513000D03*
X93632000Y-41783000D03*
X93632000Y-43053000D03*
X93632000Y-44323000D03*
X93632000Y-45593000D03*
X93632000Y-46863000D03*
X88232000Y-46863000D03*
X88232000Y-45593000D03*
X88232000Y-44323000D03*
X88232000Y-43053000D03*
X88232000Y-41783000D03*
X88232000Y-40513000D03*
X88232000Y-39243000D03*
X88232000Y-37973000D03*
D20*
X115095000Y-50546000D03*
X115095000Y-51816000D03*
X115095000Y-53086000D03*
X115095000Y-54356000D03*
X109695000Y-54356000D03*
X109695000Y-53086000D03*
X109695000Y-51816000D03*
X109695000Y-50546000D03*
D27*
X56896000Y-63169000D03*
X55626000Y-63169000D03*
X55626000Y-69469000D03*
X56896000Y-69469000D03*
X53721000Y-63169000D03*
X52451000Y-63169000D03*
X52451000Y-69469000D03*
X53721000Y-69469000D03*
X60071000Y-63169000D03*
X58801000Y-63169000D03*
X58801000Y-69469000D03*
X60071000Y-69469000D03*
D20*
X124206000Y-43180000D03*
X124206000Y-44450000D03*
X124206000Y-45720000D03*
X124206000Y-46990000D03*
X118806000Y-46990000D03*
X118806000Y-45720000D03*
X118806000Y-44450000D03*
X118806000Y-43180000D03*
X124206000Y-53975000D03*
X124206000Y-55245000D03*
X124206000Y-56515000D03*
X124206000Y-57785000D03*
X118806000Y-57785000D03*
X118806000Y-56515000D03*
X118806000Y-55245000D03*
X118806000Y-53975000D03*
X124206000Y-65405000D03*
X124206000Y-66675000D03*
X124206000Y-67945000D03*
X124206000Y-69215000D03*
X118806000Y-69215000D03*
X118806000Y-67945000D03*
X118806000Y-66675000D03*
X118806000Y-65405000D03*
D28*
X71316000Y-60975000D03*
X71316000Y-60325000D03*
X71316000Y-59675000D03*
X71316000Y-59025000D03*
X71316000Y-58375000D03*
X71316000Y-57725000D03*
X71316000Y-57075000D03*
X71316000Y-56425000D03*
X71316000Y-55775000D03*
X71316000Y-55125000D03*
X77216000Y-55125000D03*
X77216000Y-55775000D03*
X77216000Y-56425000D03*
X77216000Y-57075000D03*
X77216000Y-57725000D03*
X77216000Y-58375000D03*
X77216000Y-59025000D03*
X77216000Y-59675000D03*
X77216000Y-60325000D03*
X77216000Y-60975000D03*
X85667000Y-61655000D03*
X85667000Y-61005000D03*
X85667000Y-60355000D03*
X85667000Y-59705000D03*
X85667000Y-59055000D03*
X85667000Y-58405000D03*
X85667000Y-57755000D03*
X91567000Y-57755000D03*
X91567000Y-58405000D03*
X91567000Y-59055000D03*
X91567000Y-59705000D03*
X91567000Y-60355000D03*
X91567000Y-61005000D03*
X91567000Y-61655000D03*
D29*
X110490000Y-76454000D03*
X117390000Y-76454000D03*
D11*
X65786000Y-88940000D03*
X65786000Y-26710000D03*
X143256000Y-88900000D03*
X143256000Y-26670000D03*
X105156000Y-57785000D03*
D24*
X70104000Y-30226000D03*
X70104000Y-31726000D03*
X133096000Y-25920000D03*
X133096000Y-27420000D03*
X109728000Y-57634000D03*
X109728000Y-56134000D03*
D15*
X91452000Y-48133000D03*
X92952000Y-48133000D03*
D24*
X58928000Y-76327000D03*
X58928000Y-74827000D03*
D16*
X107823000Y-52717000D03*
X107823000Y-54217000D03*
X117094000Y-45986000D03*
X117094000Y-47486000D03*
X117094000Y-56781000D03*
X117094000Y-58281000D03*
X117094000Y-67703000D03*
X117094000Y-69203000D03*
D30*
X73149000Y-89034000D03*
X106419000Y-89034000D03*
D31*
X80259000Y-87634000D03*
D32*
X82929000Y-87634000D03*
X85719000Y-87634000D03*
X88389000Y-87634000D03*
X91179000Y-87634000D03*
X93979000Y-87634000D03*
X96639000Y-87634000D03*
X99439000Y-87634000D03*
X81529000Y-90424000D03*
X84319000Y-90424000D03*
X87119000Y-90424000D03*
X89789000Y-90424000D03*
X92579000Y-90424000D03*
X95249000Y-90424000D03*
X98039000Y-90424000D03*
D30*
X97536000Y-27305000D03*
X72516000Y-27305000D03*
D31*
X79626000Y-28705000D03*
D32*
X82296000Y-28705000D03*
X85086000Y-28705000D03*
X87756000Y-28705000D03*
X90546000Y-28705000D03*
X80896000Y-25915000D03*
X83686000Y-25915000D03*
X86356000Y-25915000D03*
X89156000Y-25915000D03*
D30*
X137158000Y-27298000D03*
X103888000Y-27298000D03*
D31*
X110868000Y-28698000D03*
D32*
X113658000Y-28698000D03*
X116328000Y-28698000D03*
X119128000Y-28698000D03*
X121918000Y-28698000D03*
X124588000Y-28698000D03*
X127378000Y-28698000D03*
X130048000Y-28698000D03*
X112268000Y-25908000D03*
X115058000Y-25908000D03*
X117728000Y-25908000D03*
X120518000Y-25908000D03*
X123188000Y-25908000D03*
X125978000Y-25908000D03*
X128778000Y-25908000D03*
D11*
X142875000Y-44450000D03*
D19*
X145275000Y-44450000D03*
X144572056Y-46147056D03*
X142875000Y-46850000D03*
X141177944Y-46147056D03*
X140475000Y-44450000D03*
X141177944Y-42752944D03*
X142875000Y-42050000D03*
X144572056Y-42752944D03*
D11*
X142875000Y-62230000D03*
D19*
X145275000Y-62230000D03*
X144572056Y-63927056D03*
X142875000Y-64630000D03*
X141177944Y-63927056D03*
X140475000Y-62230000D03*
X141177944Y-60532944D03*
X142875000Y-59830000D03*
X144572056Y-60532944D03*
D11*
X142875000Y-80010000D03*
D19*
X145275000Y-80010000D03*
X144572056Y-81707056D03*
X142875000Y-82410000D03*
X141177944Y-81707056D03*
X140475000Y-80010000D03*
X141177944Y-78312944D03*
X142875000Y-77610000D03*
X144572056Y-78312944D03*
D16*
X98044000Y-59309000D03*
X98044000Y-57809000D03*
X99441000Y-59297000D03*
X99441000Y-57797000D03*
D25*
X89130000Y-71374000D03*
X87630000Y-71374000D03*
D33*
X97790000Y-70358000D03*
X62484000Y-30607000D03*
X98425000Y-60706000D03*
D34*
X60007500Y-80264000D03*
X55407500Y-80264000D03*
D12*
X102901500Y-51498500D03*
X100901500Y-51498500D03*
D15*
X106870500Y-80708500D03*
X105370500Y-80708500D03*
X102413500Y-72580500D03*
X100913500Y-72580500D03*
D16*
X79311500Y-60642500D03*
X79311500Y-62142500D03*
D15*
X76962000Y-53848000D03*
X75462000Y-53848000D03*
D16*
X80645000Y-60642500D03*
X80645000Y-62142500D03*
D15*
X79692500Y-57277000D03*
X81192500Y-57277000D03*
X79629000Y-55880000D03*
X81129000Y-55880000D03*
X79629000Y-54610000D03*
X81129000Y-54610000D03*
D16*
X72593000Y-53848000D03*
X72593000Y-52348000D03*
D35*
X70802500Y-76916500D03*
X70802500Y-81216500D03*
D36*
X121729500Y-36703000D03*
X126029500Y-36703000D03*
D37*
X113528500Y-82042000D03*
X108648500Y-82042000D03*
D38*
X56832500Y-61468000D03*
X56832500Y-58568000D03*
X54610000Y-61468000D03*
X54610000Y-58568000D03*
X59055000Y-61468000D03*
X59055000Y-58568000D03*
D39*
X57605000Y-71564500D03*
X60505000Y-71564500D03*
X50810500Y-71437500D03*
X53710500Y-71437500D03*
D10*
G36*
X54756538Y-77008754D02*
X53483746Y-75735962D01*
X54190852Y-75028856D01*
X55463644Y-76301648D01*
X54756538Y-77008754D01*
X54756538Y-77008754D01*
G37*
G36*
X56807148Y-74958144D02*
X55534356Y-73685352D01*
X56241462Y-72978246D01*
X57514254Y-74251038D01*
X56807148Y-74958144D01*
X56807148Y-74958144D01*
G37*
D40*
X103251000Y-53467000D03*
D41*
X100711000Y-53467000D03*
X98171000Y-53467000D03*
D42*
X70850500Y-73723500D03*
X73850500Y-73723500D03*
D43*
X74041000Y-75962000D03*
X74041000Y-77962000D03*
D44*
X111756000Y-38036500D03*
X117856000Y-38036500D03*
D16*
X69024500Y-43549000D03*
X69024500Y-42049000D03*
D15*
X68973000Y-38163500D03*
X70473000Y-38163500D03*
D24*
X70485000Y-43537000D03*
X70485000Y-42037000D03*
D25*
X68921500Y-39624000D03*
X70421500Y-39624000D03*
D45*
X92694000Y-25059600D03*
X92694000Y-26959600D03*
X90694000Y-26009600D03*
D25*
X92061600Y-28498800D03*
X93561600Y-28498800D03*
D24*
X92557600Y-29730000D03*
X92557600Y-31230000D03*
D46*
G36*
X100711000Y-78105000D02*
X97917000Y-78105000D01*
X97917000Y-74676000D01*
X100711000Y-74676000D01*
X100711000Y-78105000D01*
X100711000Y-78105000D01*
G37*
X100711000Y-78105000D02*
X97917000Y-78105000D01*
X97917000Y-74676000D01*
X100711000Y-74676000D01*
X100711000Y-78105000D01*
G36*
X84836000Y-41148000D02*
X81470500Y-41148000D01*
X81470500Y-39052500D01*
X84836000Y-39052500D01*
X84836000Y-41148000D01*
X84836000Y-41148000D01*
G37*
X84836000Y-41148000D02*
X81470500Y-41148000D01*
X81470500Y-39052500D01*
X84836000Y-39052500D01*
X84836000Y-41148000D01*
M02*
