G04 #@! TF.GenerationSoftware,KiCad,Pcbnew,5.0.0-4.fc29*
G04 #@! TF.CreationDate,2019-01-05T16:59:36+01:00*
G04 #@! TF.ProjectId,powerboard,706F776572626F6172642E6B69636164,rev11*
G04 #@! TF.SameCoordinates,Original*
G04 #@! TF.FileFunction,Soldermask,Top*
G04 #@! TF.FilePolarity,Negative*
%FSLAX46Y46*%
G04 Gerber Fmt 4.6, Leading zero omitted, Abs format (unit mm)*
G04 Created by KiCad (PCBNEW 5.0.0-4.fc29) date Sat Jan  5 16:59:36 2019*
%MOMM*%
%LPD*%
G01*
G04 APERTURE LIST*
%ADD10C,0.100000*%
%ADD11C,0.975000*%
%ADD12C,6.500000*%
%ADD13R,1.100000X1.350000*%
%ADD14R,0.900000X0.850000*%
%ADD15R,0.850000X0.900000*%
%ADD16R,0.900000X0.900000*%
%ADD17R,0.900000X1.000000*%
%ADD18R,1.800000X1.800000*%
%ADD19O,1.800000X1.800000*%
%ADD20C,0.700000*%
%ADD21R,3.600000X1.700000*%
%ADD22R,4.700000X1.490000*%
%ADD23R,9.500000X10.900000*%
%ADD24R,1.000000X0.900000*%
%ADD25R,1.000000X0.600000*%
%ADD26C,0.600000*%
%ADD27R,0.600000X1.000000*%
%ADD28R,3.160000X0.990000*%
%ADD29R,8.640000X5.450000*%
%ADD30R,2.100000X0.550000*%
%ADD31R,1.150000X0.550000*%
%ADD32R,1.570000X0.995000*%
%ADD33R,0.700000X1.600000*%
%ADD34R,0.405000X0.990000*%
%ADD35R,1.040000X0.940000*%
%ADD36R,1.550000X0.550000*%
%ADD37R,1.350000X1.100000*%
%ADD38R,6.100000X6.100000*%
%ADD39R,2.100000X3.500000*%
%ADD40R,2.100000X3.900000*%
%ADD41R,2.100000X1.600000*%
%ADD42R,3.100000X1.300000*%
%ADD43C,3.910000*%
%ADD44R,1.620000X1.620000*%
%ADD45C,1.620000*%
%ADD46C,1.600000*%
%ADD47R,1.100000X1.700000*%
%ADD48R,1.700000X1.100000*%
%ADD49R,2.600000X2.400000*%
%ADD50R,2.400000X2.600000*%
%ADD51R,1.900000X1.900000*%
%ADD52O,1.900000X1.900000*%
%ADD53R,1.600000X0.550000*%
%ADD54R,1.900000X2.600000*%
%ADD55R,1.200000X1.200000*%
%ADD56C,0.254000*%
G04 APERTURE END LIST*
D10*
G04 #@! TO.C,C124*
G36*
X68822142Y-36433174D02*
X68845803Y-36436684D01*
X68869007Y-36442496D01*
X68891529Y-36450554D01*
X68913153Y-36460782D01*
X68933670Y-36473079D01*
X68952883Y-36487329D01*
X68970607Y-36503393D01*
X68986671Y-36521117D01*
X69000921Y-36540330D01*
X69013218Y-36560847D01*
X69023446Y-36582471D01*
X69031504Y-36604993D01*
X69037316Y-36628197D01*
X69040826Y-36651858D01*
X69042000Y-36675750D01*
X69042000Y-37238250D01*
X69040826Y-37262142D01*
X69037316Y-37285803D01*
X69031504Y-37309007D01*
X69023446Y-37331529D01*
X69013218Y-37353153D01*
X69000921Y-37373670D01*
X68986671Y-37392883D01*
X68970607Y-37410607D01*
X68952883Y-37426671D01*
X68933670Y-37440921D01*
X68913153Y-37453218D01*
X68891529Y-37463446D01*
X68869007Y-37471504D01*
X68845803Y-37477316D01*
X68822142Y-37480826D01*
X68798250Y-37482000D01*
X68310750Y-37482000D01*
X68286858Y-37480826D01*
X68263197Y-37477316D01*
X68239993Y-37471504D01*
X68217471Y-37463446D01*
X68195847Y-37453218D01*
X68175330Y-37440921D01*
X68156117Y-37426671D01*
X68138393Y-37410607D01*
X68122329Y-37392883D01*
X68108079Y-37373670D01*
X68095782Y-37353153D01*
X68085554Y-37331529D01*
X68077496Y-37309007D01*
X68071684Y-37285803D01*
X68068174Y-37262142D01*
X68067000Y-37238250D01*
X68067000Y-36675750D01*
X68068174Y-36651858D01*
X68071684Y-36628197D01*
X68077496Y-36604993D01*
X68085554Y-36582471D01*
X68095782Y-36560847D01*
X68108079Y-36540330D01*
X68122329Y-36521117D01*
X68138393Y-36503393D01*
X68156117Y-36487329D01*
X68175330Y-36473079D01*
X68195847Y-36460782D01*
X68217471Y-36450554D01*
X68239993Y-36442496D01*
X68263197Y-36436684D01*
X68286858Y-36433174D01*
X68310750Y-36432000D01*
X68798250Y-36432000D01*
X68822142Y-36433174D01*
X68822142Y-36433174D01*
G37*
D11*
X68554500Y-36957000D03*
D10*
G36*
X70397142Y-36433174D02*
X70420803Y-36436684D01*
X70444007Y-36442496D01*
X70466529Y-36450554D01*
X70488153Y-36460782D01*
X70508670Y-36473079D01*
X70527883Y-36487329D01*
X70545607Y-36503393D01*
X70561671Y-36521117D01*
X70575921Y-36540330D01*
X70588218Y-36560847D01*
X70598446Y-36582471D01*
X70606504Y-36604993D01*
X70612316Y-36628197D01*
X70615826Y-36651858D01*
X70617000Y-36675750D01*
X70617000Y-37238250D01*
X70615826Y-37262142D01*
X70612316Y-37285803D01*
X70606504Y-37309007D01*
X70598446Y-37331529D01*
X70588218Y-37353153D01*
X70575921Y-37373670D01*
X70561671Y-37392883D01*
X70545607Y-37410607D01*
X70527883Y-37426671D01*
X70508670Y-37440921D01*
X70488153Y-37453218D01*
X70466529Y-37463446D01*
X70444007Y-37471504D01*
X70420803Y-37477316D01*
X70397142Y-37480826D01*
X70373250Y-37482000D01*
X69885750Y-37482000D01*
X69861858Y-37480826D01*
X69838197Y-37477316D01*
X69814993Y-37471504D01*
X69792471Y-37463446D01*
X69770847Y-37453218D01*
X69750330Y-37440921D01*
X69731117Y-37426671D01*
X69713393Y-37410607D01*
X69697329Y-37392883D01*
X69683079Y-37373670D01*
X69670782Y-37353153D01*
X69660554Y-37331529D01*
X69652496Y-37309007D01*
X69646684Y-37285803D01*
X69643174Y-37262142D01*
X69642000Y-37238250D01*
X69642000Y-36675750D01*
X69643174Y-36651858D01*
X69646684Y-36628197D01*
X69652496Y-36604993D01*
X69660554Y-36582471D01*
X69670782Y-36560847D01*
X69683079Y-36540330D01*
X69697329Y-36521117D01*
X69713393Y-36503393D01*
X69731117Y-36487329D01*
X69750330Y-36473079D01*
X69770847Y-36460782D01*
X69792471Y-36450554D01*
X69814993Y-36442496D01*
X69838197Y-36436684D01*
X69861858Y-36433174D01*
X69885750Y-36432000D01*
X70373250Y-36432000D01*
X70397142Y-36433174D01*
X70397142Y-36433174D01*
G37*
D11*
X70129500Y-36957000D03*
G04 #@! TD*
D10*
G04 #@! TO.C,C123*
G36*
X70397142Y-37957174D02*
X70420803Y-37960684D01*
X70444007Y-37966496D01*
X70466529Y-37974554D01*
X70488153Y-37984782D01*
X70508670Y-37997079D01*
X70527883Y-38011329D01*
X70545607Y-38027393D01*
X70561671Y-38045117D01*
X70575921Y-38064330D01*
X70588218Y-38084847D01*
X70598446Y-38106471D01*
X70606504Y-38128993D01*
X70612316Y-38152197D01*
X70615826Y-38175858D01*
X70617000Y-38199750D01*
X70617000Y-38762250D01*
X70615826Y-38786142D01*
X70612316Y-38809803D01*
X70606504Y-38833007D01*
X70598446Y-38855529D01*
X70588218Y-38877153D01*
X70575921Y-38897670D01*
X70561671Y-38916883D01*
X70545607Y-38934607D01*
X70527883Y-38950671D01*
X70508670Y-38964921D01*
X70488153Y-38977218D01*
X70466529Y-38987446D01*
X70444007Y-38995504D01*
X70420803Y-39001316D01*
X70397142Y-39004826D01*
X70373250Y-39006000D01*
X69885750Y-39006000D01*
X69861858Y-39004826D01*
X69838197Y-39001316D01*
X69814993Y-38995504D01*
X69792471Y-38987446D01*
X69770847Y-38977218D01*
X69750330Y-38964921D01*
X69731117Y-38950671D01*
X69713393Y-38934607D01*
X69697329Y-38916883D01*
X69683079Y-38897670D01*
X69670782Y-38877153D01*
X69660554Y-38855529D01*
X69652496Y-38833007D01*
X69646684Y-38809803D01*
X69643174Y-38786142D01*
X69642000Y-38762250D01*
X69642000Y-38199750D01*
X69643174Y-38175858D01*
X69646684Y-38152197D01*
X69652496Y-38128993D01*
X69660554Y-38106471D01*
X69670782Y-38084847D01*
X69683079Y-38064330D01*
X69697329Y-38045117D01*
X69713393Y-38027393D01*
X69731117Y-38011329D01*
X69750330Y-37997079D01*
X69770847Y-37984782D01*
X69792471Y-37974554D01*
X69814993Y-37966496D01*
X69838197Y-37960684D01*
X69861858Y-37957174D01*
X69885750Y-37956000D01*
X70373250Y-37956000D01*
X70397142Y-37957174D01*
X70397142Y-37957174D01*
G37*
D11*
X70129500Y-38481000D03*
D10*
G36*
X68822142Y-37957174D02*
X68845803Y-37960684D01*
X68869007Y-37966496D01*
X68891529Y-37974554D01*
X68913153Y-37984782D01*
X68933670Y-37997079D01*
X68952883Y-38011329D01*
X68970607Y-38027393D01*
X68986671Y-38045117D01*
X69000921Y-38064330D01*
X69013218Y-38084847D01*
X69023446Y-38106471D01*
X69031504Y-38128993D01*
X69037316Y-38152197D01*
X69040826Y-38175858D01*
X69042000Y-38199750D01*
X69042000Y-38762250D01*
X69040826Y-38786142D01*
X69037316Y-38809803D01*
X69031504Y-38833007D01*
X69023446Y-38855529D01*
X69013218Y-38877153D01*
X69000921Y-38897670D01*
X68986671Y-38916883D01*
X68970607Y-38934607D01*
X68952883Y-38950671D01*
X68933670Y-38964921D01*
X68913153Y-38977218D01*
X68891529Y-38987446D01*
X68869007Y-38995504D01*
X68845803Y-39001316D01*
X68822142Y-39004826D01*
X68798250Y-39006000D01*
X68310750Y-39006000D01*
X68286858Y-39004826D01*
X68263197Y-39001316D01*
X68239993Y-38995504D01*
X68217471Y-38987446D01*
X68195847Y-38977218D01*
X68175330Y-38964921D01*
X68156117Y-38950671D01*
X68138393Y-38934607D01*
X68122329Y-38916883D01*
X68108079Y-38897670D01*
X68095782Y-38877153D01*
X68085554Y-38855529D01*
X68077496Y-38833007D01*
X68071684Y-38809803D01*
X68068174Y-38786142D01*
X68067000Y-38762250D01*
X68067000Y-38199750D01*
X68068174Y-38175858D01*
X68071684Y-38152197D01*
X68077496Y-38128993D01*
X68085554Y-38106471D01*
X68095782Y-38084847D01*
X68108079Y-38064330D01*
X68122329Y-38045117D01*
X68138393Y-38027393D01*
X68156117Y-38011329D01*
X68175330Y-37997079D01*
X68195847Y-37984782D01*
X68217471Y-37974554D01*
X68239993Y-37966496D01*
X68263197Y-37960684D01*
X68286858Y-37957174D01*
X68310750Y-37956000D01*
X68798250Y-37956000D01*
X68822142Y-37957174D01*
X68822142Y-37957174D01*
G37*
D11*
X68554500Y-38481000D03*
G04 #@! TD*
D10*
G04 #@! TO.C,C122*
G36*
X68822142Y-39481174D02*
X68845803Y-39484684D01*
X68869007Y-39490496D01*
X68891529Y-39498554D01*
X68913153Y-39508782D01*
X68933670Y-39521079D01*
X68952883Y-39535329D01*
X68970607Y-39551393D01*
X68986671Y-39569117D01*
X69000921Y-39588330D01*
X69013218Y-39608847D01*
X69023446Y-39630471D01*
X69031504Y-39652993D01*
X69037316Y-39676197D01*
X69040826Y-39699858D01*
X69042000Y-39723750D01*
X69042000Y-40286250D01*
X69040826Y-40310142D01*
X69037316Y-40333803D01*
X69031504Y-40357007D01*
X69023446Y-40379529D01*
X69013218Y-40401153D01*
X69000921Y-40421670D01*
X68986671Y-40440883D01*
X68970607Y-40458607D01*
X68952883Y-40474671D01*
X68933670Y-40488921D01*
X68913153Y-40501218D01*
X68891529Y-40511446D01*
X68869007Y-40519504D01*
X68845803Y-40525316D01*
X68822142Y-40528826D01*
X68798250Y-40530000D01*
X68310750Y-40530000D01*
X68286858Y-40528826D01*
X68263197Y-40525316D01*
X68239993Y-40519504D01*
X68217471Y-40511446D01*
X68195847Y-40501218D01*
X68175330Y-40488921D01*
X68156117Y-40474671D01*
X68138393Y-40458607D01*
X68122329Y-40440883D01*
X68108079Y-40421670D01*
X68095782Y-40401153D01*
X68085554Y-40379529D01*
X68077496Y-40357007D01*
X68071684Y-40333803D01*
X68068174Y-40310142D01*
X68067000Y-40286250D01*
X68067000Y-39723750D01*
X68068174Y-39699858D01*
X68071684Y-39676197D01*
X68077496Y-39652993D01*
X68085554Y-39630471D01*
X68095782Y-39608847D01*
X68108079Y-39588330D01*
X68122329Y-39569117D01*
X68138393Y-39551393D01*
X68156117Y-39535329D01*
X68175330Y-39521079D01*
X68195847Y-39508782D01*
X68217471Y-39498554D01*
X68239993Y-39490496D01*
X68263197Y-39484684D01*
X68286858Y-39481174D01*
X68310750Y-39480000D01*
X68798250Y-39480000D01*
X68822142Y-39481174D01*
X68822142Y-39481174D01*
G37*
D11*
X68554500Y-40005000D03*
D10*
G36*
X70397142Y-39481174D02*
X70420803Y-39484684D01*
X70444007Y-39490496D01*
X70466529Y-39498554D01*
X70488153Y-39508782D01*
X70508670Y-39521079D01*
X70527883Y-39535329D01*
X70545607Y-39551393D01*
X70561671Y-39569117D01*
X70575921Y-39588330D01*
X70588218Y-39608847D01*
X70598446Y-39630471D01*
X70606504Y-39652993D01*
X70612316Y-39676197D01*
X70615826Y-39699858D01*
X70617000Y-39723750D01*
X70617000Y-40286250D01*
X70615826Y-40310142D01*
X70612316Y-40333803D01*
X70606504Y-40357007D01*
X70598446Y-40379529D01*
X70588218Y-40401153D01*
X70575921Y-40421670D01*
X70561671Y-40440883D01*
X70545607Y-40458607D01*
X70527883Y-40474671D01*
X70508670Y-40488921D01*
X70488153Y-40501218D01*
X70466529Y-40511446D01*
X70444007Y-40519504D01*
X70420803Y-40525316D01*
X70397142Y-40528826D01*
X70373250Y-40530000D01*
X69885750Y-40530000D01*
X69861858Y-40528826D01*
X69838197Y-40525316D01*
X69814993Y-40519504D01*
X69792471Y-40511446D01*
X69770847Y-40501218D01*
X69750330Y-40488921D01*
X69731117Y-40474671D01*
X69713393Y-40458607D01*
X69697329Y-40440883D01*
X69683079Y-40421670D01*
X69670782Y-40401153D01*
X69660554Y-40379529D01*
X69652496Y-40357007D01*
X69646684Y-40333803D01*
X69643174Y-40310142D01*
X69642000Y-40286250D01*
X69642000Y-39723750D01*
X69643174Y-39699858D01*
X69646684Y-39676197D01*
X69652496Y-39652993D01*
X69660554Y-39630471D01*
X69670782Y-39608847D01*
X69683079Y-39588330D01*
X69697329Y-39569117D01*
X69713393Y-39551393D01*
X69731117Y-39535329D01*
X69750330Y-39521079D01*
X69770847Y-39508782D01*
X69792471Y-39498554D01*
X69814993Y-39490496D01*
X69838197Y-39484684D01*
X69861858Y-39481174D01*
X69885750Y-39480000D01*
X70373250Y-39480000D01*
X70397142Y-39481174D01*
X70397142Y-39481174D01*
G37*
D11*
X70129500Y-40005000D03*
G04 #@! TD*
D10*
G04 #@! TO.C,R123*
G36*
X105346642Y-65452674D02*
X105370303Y-65456184D01*
X105393507Y-65461996D01*
X105416029Y-65470054D01*
X105437653Y-65480282D01*
X105458170Y-65492579D01*
X105477383Y-65506829D01*
X105495107Y-65522893D01*
X105511171Y-65540617D01*
X105525421Y-65559830D01*
X105537718Y-65580347D01*
X105547946Y-65601971D01*
X105556004Y-65624493D01*
X105561816Y-65647697D01*
X105565326Y-65671358D01*
X105566500Y-65695250D01*
X105566500Y-66257750D01*
X105565326Y-66281642D01*
X105561816Y-66305303D01*
X105556004Y-66328507D01*
X105547946Y-66351029D01*
X105537718Y-66372653D01*
X105525421Y-66393170D01*
X105511171Y-66412383D01*
X105495107Y-66430107D01*
X105477383Y-66446171D01*
X105458170Y-66460421D01*
X105437653Y-66472718D01*
X105416029Y-66482946D01*
X105393507Y-66491004D01*
X105370303Y-66496816D01*
X105346642Y-66500326D01*
X105322750Y-66501500D01*
X104835250Y-66501500D01*
X104811358Y-66500326D01*
X104787697Y-66496816D01*
X104764493Y-66491004D01*
X104741971Y-66482946D01*
X104720347Y-66472718D01*
X104699830Y-66460421D01*
X104680617Y-66446171D01*
X104662893Y-66430107D01*
X104646829Y-66412383D01*
X104632579Y-66393170D01*
X104620282Y-66372653D01*
X104610054Y-66351029D01*
X104601996Y-66328507D01*
X104596184Y-66305303D01*
X104592674Y-66281642D01*
X104591500Y-66257750D01*
X104591500Y-65695250D01*
X104592674Y-65671358D01*
X104596184Y-65647697D01*
X104601996Y-65624493D01*
X104610054Y-65601971D01*
X104620282Y-65580347D01*
X104632579Y-65559830D01*
X104646829Y-65540617D01*
X104662893Y-65522893D01*
X104680617Y-65506829D01*
X104699830Y-65492579D01*
X104720347Y-65480282D01*
X104741971Y-65470054D01*
X104764493Y-65461996D01*
X104787697Y-65456184D01*
X104811358Y-65452674D01*
X104835250Y-65451500D01*
X105322750Y-65451500D01*
X105346642Y-65452674D01*
X105346642Y-65452674D01*
G37*
D11*
X105079000Y-65976500D03*
D10*
G36*
X106921642Y-65452674D02*
X106945303Y-65456184D01*
X106968507Y-65461996D01*
X106991029Y-65470054D01*
X107012653Y-65480282D01*
X107033170Y-65492579D01*
X107052383Y-65506829D01*
X107070107Y-65522893D01*
X107086171Y-65540617D01*
X107100421Y-65559830D01*
X107112718Y-65580347D01*
X107122946Y-65601971D01*
X107131004Y-65624493D01*
X107136816Y-65647697D01*
X107140326Y-65671358D01*
X107141500Y-65695250D01*
X107141500Y-66257750D01*
X107140326Y-66281642D01*
X107136816Y-66305303D01*
X107131004Y-66328507D01*
X107122946Y-66351029D01*
X107112718Y-66372653D01*
X107100421Y-66393170D01*
X107086171Y-66412383D01*
X107070107Y-66430107D01*
X107052383Y-66446171D01*
X107033170Y-66460421D01*
X107012653Y-66472718D01*
X106991029Y-66482946D01*
X106968507Y-66491004D01*
X106945303Y-66496816D01*
X106921642Y-66500326D01*
X106897750Y-66501500D01*
X106410250Y-66501500D01*
X106386358Y-66500326D01*
X106362697Y-66496816D01*
X106339493Y-66491004D01*
X106316971Y-66482946D01*
X106295347Y-66472718D01*
X106274830Y-66460421D01*
X106255617Y-66446171D01*
X106237893Y-66430107D01*
X106221829Y-66412383D01*
X106207579Y-66393170D01*
X106195282Y-66372653D01*
X106185054Y-66351029D01*
X106176996Y-66328507D01*
X106171184Y-66305303D01*
X106167674Y-66281642D01*
X106166500Y-66257750D01*
X106166500Y-65695250D01*
X106167674Y-65671358D01*
X106171184Y-65647697D01*
X106176996Y-65624493D01*
X106185054Y-65601971D01*
X106195282Y-65580347D01*
X106207579Y-65559830D01*
X106221829Y-65540617D01*
X106237893Y-65522893D01*
X106255617Y-65506829D01*
X106274830Y-65492579D01*
X106295347Y-65480282D01*
X106316971Y-65470054D01*
X106339493Y-65461996D01*
X106362697Y-65456184D01*
X106386358Y-65452674D01*
X106410250Y-65451500D01*
X106897750Y-65451500D01*
X106921642Y-65452674D01*
X106921642Y-65452674D01*
G37*
D11*
X106654000Y-65976500D03*
G04 #@! TD*
D10*
G04 #@! TO.C,R125*
G36*
X72314142Y-67826174D02*
X72337803Y-67829684D01*
X72361007Y-67835496D01*
X72383529Y-67843554D01*
X72405153Y-67853782D01*
X72425670Y-67866079D01*
X72444883Y-67880329D01*
X72462607Y-67896393D01*
X72478671Y-67914117D01*
X72492921Y-67933330D01*
X72505218Y-67953847D01*
X72515446Y-67975471D01*
X72523504Y-67997993D01*
X72529316Y-68021197D01*
X72532826Y-68044858D01*
X72534000Y-68068750D01*
X72534000Y-68556250D01*
X72532826Y-68580142D01*
X72529316Y-68603803D01*
X72523504Y-68627007D01*
X72515446Y-68649529D01*
X72505218Y-68671153D01*
X72492921Y-68691670D01*
X72478671Y-68710883D01*
X72462607Y-68728607D01*
X72444883Y-68744671D01*
X72425670Y-68758921D01*
X72405153Y-68771218D01*
X72383529Y-68781446D01*
X72361007Y-68789504D01*
X72337803Y-68795316D01*
X72314142Y-68798826D01*
X72290250Y-68800000D01*
X71727750Y-68800000D01*
X71703858Y-68798826D01*
X71680197Y-68795316D01*
X71656993Y-68789504D01*
X71634471Y-68781446D01*
X71612847Y-68771218D01*
X71592330Y-68758921D01*
X71573117Y-68744671D01*
X71555393Y-68728607D01*
X71539329Y-68710883D01*
X71525079Y-68691670D01*
X71512782Y-68671153D01*
X71502554Y-68649529D01*
X71494496Y-68627007D01*
X71488684Y-68603803D01*
X71485174Y-68580142D01*
X71484000Y-68556250D01*
X71484000Y-68068750D01*
X71485174Y-68044858D01*
X71488684Y-68021197D01*
X71494496Y-67997993D01*
X71502554Y-67975471D01*
X71512782Y-67953847D01*
X71525079Y-67933330D01*
X71539329Y-67914117D01*
X71555393Y-67896393D01*
X71573117Y-67880329D01*
X71592330Y-67866079D01*
X71612847Y-67853782D01*
X71634471Y-67843554D01*
X71656993Y-67835496D01*
X71680197Y-67829684D01*
X71703858Y-67826174D01*
X71727750Y-67825000D01*
X72290250Y-67825000D01*
X72314142Y-67826174D01*
X72314142Y-67826174D01*
G37*
D11*
X72009000Y-68312500D03*
D10*
G36*
X72314142Y-69401174D02*
X72337803Y-69404684D01*
X72361007Y-69410496D01*
X72383529Y-69418554D01*
X72405153Y-69428782D01*
X72425670Y-69441079D01*
X72444883Y-69455329D01*
X72462607Y-69471393D01*
X72478671Y-69489117D01*
X72492921Y-69508330D01*
X72505218Y-69528847D01*
X72515446Y-69550471D01*
X72523504Y-69572993D01*
X72529316Y-69596197D01*
X72532826Y-69619858D01*
X72534000Y-69643750D01*
X72534000Y-70131250D01*
X72532826Y-70155142D01*
X72529316Y-70178803D01*
X72523504Y-70202007D01*
X72515446Y-70224529D01*
X72505218Y-70246153D01*
X72492921Y-70266670D01*
X72478671Y-70285883D01*
X72462607Y-70303607D01*
X72444883Y-70319671D01*
X72425670Y-70333921D01*
X72405153Y-70346218D01*
X72383529Y-70356446D01*
X72361007Y-70364504D01*
X72337803Y-70370316D01*
X72314142Y-70373826D01*
X72290250Y-70375000D01*
X71727750Y-70375000D01*
X71703858Y-70373826D01*
X71680197Y-70370316D01*
X71656993Y-70364504D01*
X71634471Y-70356446D01*
X71612847Y-70346218D01*
X71592330Y-70333921D01*
X71573117Y-70319671D01*
X71555393Y-70303607D01*
X71539329Y-70285883D01*
X71525079Y-70266670D01*
X71512782Y-70246153D01*
X71502554Y-70224529D01*
X71494496Y-70202007D01*
X71488684Y-70178803D01*
X71485174Y-70155142D01*
X71484000Y-70131250D01*
X71484000Y-69643750D01*
X71485174Y-69619858D01*
X71488684Y-69596197D01*
X71494496Y-69572993D01*
X71502554Y-69550471D01*
X71512782Y-69528847D01*
X71525079Y-69508330D01*
X71539329Y-69489117D01*
X71555393Y-69471393D01*
X71573117Y-69455329D01*
X71592330Y-69441079D01*
X71612847Y-69428782D01*
X71634471Y-69418554D01*
X71656993Y-69410496D01*
X71680197Y-69404684D01*
X71703858Y-69401174D01*
X71727750Y-69400000D01*
X72290250Y-69400000D01*
X72314142Y-69401174D01*
X72314142Y-69401174D01*
G37*
D11*
X72009000Y-69887500D03*
G04 #@! TD*
D10*
G04 #@! TO.C,R124*
G36*
X107222358Y-67929210D02*
X107246019Y-67932720D01*
X107269223Y-67938532D01*
X107291745Y-67946590D01*
X107313369Y-67956818D01*
X107333886Y-67969115D01*
X107353099Y-67983365D01*
X107370823Y-67999429D01*
X107768571Y-68397177D01*
X107784635Y-68414901D01*
X107798885Y-68434114D01*
X107811182Y-68454631D01*
X107821410Y-68476255D01*
X107829468Y-68498777D01*
X107835280Y-68521981D01*
X107838790Y-68545642D01*
X107839964Y-68569534D01*
X107838790Y-68593426D01*
X107835280Y-68617087D01*
X107829468Y-68640291D01*
X107821410Y-68662813D01*
X107811182Y-68684437D01*
X107798885Y-68704954D01*
X107784635Y-68724167D01*
X107768571Y-68741891D01*
X107423857Y-69086605D01*
X107406133Y-69102669D01*
X107386920Y-69116919D01*
X107366403Y-69129216D01*
X107344779Y-69139444D01*
X107322257Y-69147502D01*
X107299053Y-69153314D01*
X107275392Y-69156824D01*
X107251500Y-69157998D01*
X107227608Y-69156824D01*
X107203947Y-69153314D01*
X107180743Y-69147502D01*
X107158221Y-69139444D01*
X107136597Y-69129216D01*
X107116080Y-69116919D01*
X107096867Y-69102669D01*
X107079143Y-69086605D01*
X106681395Y-68688857D01*
X106665331Y-68671133D01*
X106651081Y-68651920D01*
X106638784Y-68631403D01*
X106628556Y-68609779D01*
X106620498Y-68587257D01*
X106614686Y-68564053D01*
X106611176Y-68540392D01*
X106610002Y-68516500D01*
X106611176Y-68492608D01*
X106614686Y-68468947D01*
X106620498Y-68445743D01*
X106628556Y-68423221D01*
X106638784Y-68401597D01*
X106651081Y-68381080D01*
X106665331Y-68361867D01*
X106681395Y-68344143D01*
X107026109Y-67999429D01*
X107043833Y-67983365D01*
X107063046Y-67969115D01*
X107083563Y-67956818D01*
X107105187Y-67946590D01*
X107127709Y-67938532D01*
X107150913Y-67932720D01*
X107174574Y-67929210D01*
X107198466Y-67928036D01*
X107222358Y-67929210D01*
X107222358Y-67929210D01*
G37*
D11*
X107224983Y-68543017D03*
D10*
G36*
X108336052Y-66815516D02*
X108359713Y-66819026D01*
X108382917Y-66824838D01*
X108405439Y-66832896D01*
X108427063Y-66843124D01*
X108447580Y-66855421D01*
X108466793Y-66869671D01*
X108484517Y-66885735D01*
X108882265Y-67283483D01*
X108898329Y-67301207D01*
X108912579Y-67320420D01*
X108924876Y-67340937D01*
X108935104Y-67362561D01*
X108943162Y-67385083D01*
X108948974Y-67408287D01*
X108952484Y-67431948D01*
X108953658Y-67455840D01*
X108952484Y-67479732D01*
X108948974Y-67503393D01*
X108943162Y-67526597D01*
X108935104Y-67549119D01*
X108924876Y-67570743D01*
X108912579Y-67591260D01*
X108898329Y-67610473D01*
X108882265Y-67628197D01*
X108537551Y-67972911D01*
X108519827Y-67988975D01*
X108500614Y-68003225D01*
X108480097Y-68015522D01*
X108458473Y-68025750D01*
X108435951Y-68033808D01*
X108412747Y-68039620D01*
X108389086Y-68043130D01*
X108365194Y-68044304D01*
X108341302Y-68043130D01*
X108317641Y-68039620D01*
X108294437Y-68033808D01*
X108271915Y-68025750D01*
X108250291Y-68015522D01*
X108229774Y-68003225D01*
X108210561Y-67988975D01*
X108192837Y-67972911D01*
X107795089Y-67575163D01*
X107779025Y-67557439D01*
X107764775Y-67538226D01*
X107752478Y-67517709D01*
X107742250Y-67496085D01*
X107734192Y-67473563D01*
X107728380Y-67450359D01*
X107724870Y-67426698D01*
X107723696Y-67402806D01*
X107724870Y-67378914D01*
X107728380Y-67355253D01*
X107734192Y-67332049D01*
X107742250Y-67309527D01*
X107752478Y-67287903D01*
X107764775Y-67267386D01*
X107779025Y-67248173D01*
X107795089Y-67230449D01*
X108139803Y-66885735D01*
X108157527Y-66869671D01*
X108176740Y-66855421D01*
X108197257Y-66843124D01*
X108218881Y-66832896D01*
X108241403Y-66824838D01*
X108264607Y-66819026D01*
X108288268Y-66815516D01*
X108312160Y-66814342D01*
X108336052Y-66815516D01*
X108336052Y-66815516D01*
G37*
D11*
X108338677Y-67429323D03*
G04 #@! TD*
D12*
G04 #@! TO.C,J113*
X65786000Y-26710000D03*
G04 #@! TD*
D13*
G04 #@! TO.C,C104*
X86106000Y-67945000D03*
X88106000Y-67945000D03*
G04 #@! TD*
D14*
G04 #@! TO.C,C105*
X86106000Y-69215000D03*
X87606000Y-69215000D03*
G04 #@! TD*
D13*
G04 #@! TO.C,C106*
X121047000Y-48260000D03*
X123047000Y-48260000D03*
G04 #@! TD*
G04 #@! TO.C,C202*
X71771000Y-73660000D03*
X73771000Y-73660000D03*
G04 #@! TD*
D15*
G04 #@! TO.C,C203*
X69977000Y-80621000D03*
X69977000Y-79121000D03*
G04 #@! TD*
G04 #@! TO.C,C204*
X69977000Y-83415000D03*
X69977000Y-81915000D03*
G04 #@! TD*
D14*
G04 #@! TO.C,C205*
X72275000Y-84709000D03*
X73775000Y-84709000D03*
G04 #@! TD*
G04 #@! TO.C,C303*
X98576000Y-55181500D03*
X100076000Y-55181500D03*
G04 #@! TD*
G04 #@! TO.C,C304*
X94603000Y-49403000D03*
X93103000Y-49403000D03*
G04 #@! TD*
D15*
G04 #@! TO.C,C305*
X92075000Y-43573000D03*
X92075000Y-45073000D03*
G04 #@! TD*
G04 #@! TO.C,C307*
X111379000Y-46367000D03*
X111379000Y-47867000D03*
G04 #@! TD*
G04 #@! TO.C,C308*
X110109000Y-38977000D03*
X110109000Y-37477000D03*
G04 #@! TD*
G04 #@! TO.C,C309*
X110109000Y-40779000D03*
X110109000Y-42279000D03*
G04 #@! TD*
G04 #@! TO.C,C310*
X110109000Y-45859000D03*
X110109000Y-47359000D03*
G04 #@! TD*
D14*
G04 #@! TO.C,C312*
X96226500Y-33782000D03*
X97726500Y-33782000D03*
G04 #@! TD*
D15*
G04 #@! TO.C,C313*
X112649000Y-46367000D03*
X112649000Y-47867000D03*
G04 #@! TD*
G04 #@! TO.C,C314*
X111633000Y-41541000D03*
X111633000Y-43041000D03*
G04 #@! TD*
G04 #@! TO.C,C315*
X111633000Y-38215000D03*
X111633000Y-36715000D03*
G04 #@! TD*
D14*
G04 #@! TO.C,C316*
X126377000Y-31115000D03*
X127877000Y-31115000D03*
G04 #@! TD*
G04 #@! TO.C,C317*
X123837000Y-31115000D03*
X125337000Y-31115000D03*
G04 #@! TD*
G04 #@! TO.C,C501*
X92075000Y-70421500D03*
X93575000Y-70421500D03*
G04 #@! TD*
G04 #@! TO.C,C502*
X97306000Y-81915000D03*
X98806000Y-81915000D03*
G04 #@! TD*
D15*
G04 #@! TO.C,C504*
X104521000Y-77700000D03*
X104521000Y-76200000D03*
G04 #@! TD*
D14*
G04 #@! TO.C,C701*
X55118000Y-62230000D03*
X53618000Y-62230000D03*
G04 #@! TD*
G04 #@! TO.C,C702*
X59551000Y-71120000D03*
X58051000Y-71120000D03*
G04 #@! TD*
G04 #@! TO.C,C902*
X76466000Y-64135000D03*
X77966000Y-64135000D03*
G04 #@! TD*
D15*
G04 #@! TO.C,C1001*
X84201000Y-45188000D03*
X84201000Y-43688000D03*
G04 #@! TD*
G04 #@! TO.C,C1002*
X84582000Y-36576000D03*
X84582000Y-35076000D03*
G04 #@! TD*
D14*
G04 #@! TO.C,C1109*
X81927000Y-56261000D03*
X83427000Y-56261000D03*
G04 #@! TD*
G04 #@! TO.C,C1110*
X81927000Y-54991000D03*
X83427000Y-54991000D03*
G04 #@! TD*
G04 #@! TO.C,C1111*
X72505000Y-54991000D03*
X71005000Y-54991000D03*
G04 #@! TD*
G04 #@! TO.C,C1112*
X72505000Y-56769000D03*
X71005000Y-56769000D03*
G04 #@! TD*
G04 #@! TO.C,C1113*
X81927000Y-58801000D03*
X83427000Y-58801000D03*
G04 #@! TD*
G04 #@! TO.C,C1114*
X81927000Y-52451000D03*
X83427000Y-52451000D03*
G04 #@! TD*
G04 #@! TO.C,C1115*
X73152000Y-52451000D03*
X71652000Y-52451000D03*
G04 #@! TD*
G04 #@! TO.C,C1116*
X74791000Y-59309000D03*
X73291000Y-59309000D03*
G04 #@! TD*
D16*
G04 #@! TO.C,D301*
X93218000Y-33871000D03*
X93218000Y-35471000D03*
G04 #@! TD*
G04 #@! TO.C,D302*
X91884500Y-33871000D03*
X91884500Y-35471000D03*
G04 #@! TD*
D17*
G04 #@! TO.C,D701*
X92649000Y-83280000D03*
X94549000Y-83280000D03*
X93599000Y-81280000D03*
G04 #@! TD*
G04 #@! TO.C,D702*
X88331000Y-83312000D03*
X90231000Y-83312000D03*
X89281000Y-81312000D03*
G04 #@! TD*
D18*
G04 #@! TO.C,J102*
X63881000Y-81915000D03*
D19*
X66421000Y-81915000D03*
X63881000Y-79375000D03*
X66421000Y-79375000D03*
X63881000Y-76835000D03*
X66421000Y-76835000D03*
X63881000Y-74295000D03*
X66421000Y-74295000D03*
X63881000Y-71755000D03*
X66421000Y-71755000D03*
X63881000Y-69215000D03*
X66421000Y-69215000D03*
X63881000Y-66675000D03*
X66421000Y-66675000D03*
X63881000Y-64135000D03*
X66421000Y-64135000D03*
X63881000Y-61595000D03*
X66421000Y-61595000D03*
X63881000Y-59055000D03*
X66421000Y-59055000D03*
X63881000Y-56515000D03*
X66421000Y-56515000D03*
X63881000Y-53975000D03*
X66421000Y-53975000D03*
X63881000Y-51435000D03*
X66421000Y-51435000D03*
X63881000Y-48895000D03*
X66421000Y-48895000D03*
X63881000Y-46355000D03*
X66421000Y-46355000D03*
X63881000Y-43815000D03*
X66421000Y-43815000D03*
X63881000Y-41275000D03*
X66421000Y-41275000D03*
X63881000Y-38735000D03*
X66421000Y-38735000D03*
X63881000Y-36195000D03*
X66421000Y-36195000D03*
X63881000Y-33655000D03*
X66421000Y-33655000D03*
G04 #@! TD*
D12*
G04 #@! TO.C,J105*
X133985000Y-88646000D03*
D20*
X136385000Y-88646000D03*
X135682056Y-90343056D03*
X133985000Y-91046000D03*
X132287944Y-90343056D03*
X131585000Y-88646000D03*
X132287944Y-86948944D03*
X133985000Y-86246000D03*
X135682056Y-86948944D03*
G04 #@! TD*
D18*
G04 #@! TO.C,J106*
X74168000Y-46355000D03*
G04 #@! TD*
D12*
G04 #@! TO.C,J107*
X142875000Y-35560000D03*
D20*
X145275000Y-35560000D03*
X144572056Y-37257056D03*
X142875000Y-37960000D03*
X141177944Y-37257056D03*
X140475000Y-35560000D03*
X141177944Y-33862944D03*
X142875000Y-33160000D03*
X144572056Y-33862944D03*
G04 #@! TD*
D12*
G04 #@! TO.C,J108*
X142875000Y-53340000D03*
D20*
X145275000Y-53340000D03*
X144572056Y-55037056D03*
X142875000Y-55740000D03*
X141177944Y-55037056D03*
X140475000Y-53340000D03*
X141177944Y-51642944D03*
X142875000Y-50940000D03*
X144572056Y-51642944D03*
G04 #@! TD*
D12*
G04 #@! TO.C,J109*
X142875000Y-71120000D03*
D20*
X145275000Y-71120000D03*
X144572056Y-72817056D03*
X142875000Y-73520000D03*
X141177944Y-72817056D03*
X140475000Y-71120000D03*
X141177944Y-69422944D03*
X142875000Y-68720000D03*
X144572056Y-69422944D03*
G04 #@! TD*
D12*
G04 #@! TO.C,J110*
X114935000Y-88646000D03*
D20*
X117335000Y-88646000D03*
X116632056Y-90343056D03*
X114935000Y-91046000D03*
X113237944Y-90343056D03*
X112535000Y-88646000D03*
X113237944Y-86948944D03*
X114935000Y-86246000D03*
X116632056Y-86948944D03*
G04 #@! TD*
D12*
G04 #@! TO.C,J111*
X124460000Y-88646000D03*
D20*
X126860000Y-88646000D03*
X126157056Y-90343056D03*
X124460000Y-91046000D03*
X122762944Y-90343056D03*
X122060000Y-88646000D03*
X122762944Y-86948944D03*
X124460000Y-86246000D03*
X126157056Y-86948944D03*
G04 #@! TD*
D21*
G04 #@! TO.C,L301*
X120713500Y-37528500D03*
X120713500Y-32648500D03*
G04 #@! TD*
G04 #@! TO.C,L302*
X124714000Y-37492000D03*
X124714000Y-32612000D03*
G04 #@! TD*
G04 #@! TO.C,L303*
X128651000Y-37492000D03*
X128651000Y-32612000D03*
G04 #@! TD*
D22*
G04 #@! TO.C,Q101*
X115046000Y-78105000D03*
D23*
X124206000Y-78105000D03*
D22*
X115046000Y-80645000D03*
X115046000Y-75565000D03*
G04 #@! TD*
D24*
G04 #@! TO.C,Q102*
X109871000Y-72900500D03*
X109871000Y-74800500D03*
X111871000Y-73850500D03*
G04 #@! TD*
D17*
G04 #@! TO.C,Q104*
X74996000Y-36560000D03*
X76896000Y-36560000D03*
X75946000Y-34560000D03*
G04 #@! TD*
D25*
G04 #@! TO.C,R101*
X110871000Y-77585000D03*
X110871000Y-76085000D03*
G04 #@! TD*
D26*
G04 #@! TO.C,R102*
X105813330Y-71396330D03*
D10*
G36*
X106379015Y-71254909D02*
X105671909Y-71962015D01*
X105247645Y-71537751D01*
X105954751Y-70830645D01*
X106379015Y-71254909D01*
X106379015Y-71254909D01*
G37*
D26*
X104752670Y-70335670D03*
D10*
G36*
X105318355Y-70194249D02*
X104611249Y-70901355D01*
X104186985Y-70477091D01*
X104894091Y-69769985D01*
X105318355Y-70194249D01*
X105318355Y-70194249D01*
G37*
G04 #@! TD*
D25*
G04 #@! TO.C,R103*
X108458000Y-73227500D03*
X108458000Y-74727500D03*
G04 #@! TD*
G04 #@! TO.C,R104*
X109347000Y-77585000D03*
X109347000Y-76085000D03*
G04 #@! TD*
G04 #@! TO.C,R105*
X107823000Y-76085000D03*
X107823000Y-77585000D03*
G04 #@! TD*
D27*
G04 #@! TO.C,R106*
X129210500Y-60515500D03*
X127710500Y-60515500D03*
G04 #@! TD*
D25*
G04 #@! TO.C,R107*
X125031500Y-60047000D03*
X125031500Y-58547000D03*
G04 #@! TD*
D27*
G04 #@! TO.C,R108*
X129210500Y-59055000D03*
X127710500Y-59055000D03*
G04 #@! TD*
D25*
G04 #@! TO.C,R109*
X126428500Y-59233500D03*
X126428500Y-57733500D03*
G04 #@! TD*
D27*
G04 #@! TO.C,R110*
X72987600Y-44145200D03*
X71487600Y-44145200D03*
G04 #@! TD*
G04 #@! TO.C,R112*
X76696000Y-38735000D03*
X75196000Y-38735000D03*
G04 #@! TD*
D25*
G04 #@! TO.C,R201*
X68707000Y-75589000D03*
X68707000Y-77089000D03*
G04 #@! TD*
G04 #@! TO.C,R202*
X68707000Y-77875000D03*
X68707000Y-79375000D03*
G04 #@! TD*
G04 #@! TO.C,R203*
X69977000Y-77089000D03*
X69977000Y-75589000D03*
G04 #@! TD*
G04 #@! TO.C,R204*
X68707000Y-83923000D03*
X68707000Y-82423000D03*
G04 #@! TD*
G04 #@! TO.C,R205*
X68707000Y-81637000D03*
X68707000Y-80137000D03*
G04 #@! TD*
G04 #@! TO.C,R301*
X93853000Y-32563500D03*
X93853000Y-31063500D03*
G04 #@! TD*
G04 #@! TO.C,R302*
X92392500Y-32563500D03*
X92392500Y-31063500D03*
G04 #@! TD*
G04 #@! TO.C,R303*
X92075000Y-41033000D03*
X92075000Y-42533000D03*
G04 #@! TD*
D27*
G04 #@! TO.C,R504*
X98806000Y-83185000D03*
X97306000Y-83185000D03*
G04 #@! TD*
D25*
G04 #@! TO.C,R505*
X94615000Y-79605000D03*
X94615000Y-78105000D03*
G04 #@! TD*
D27*
G04 #@! TO.C,R506*
X96520000Y-80137000D03*
X98020000Y-80137000D03*
G04 #@! TD*
G04 #@! TO.C,R801*
X126670500Y-62674500D03*
X125170500Y-62674500D03*
G04 #@! TD*
G04 #@! TO.C,R802*
X126682500Y-64198500D03*
X125182500Y-64198500D03*
G04 #@! TD*
G04 #@! TO.C,R803*
X130036000Y-67691000D03*
X128536000Y-67691000D03*
G04 #@! TD*
D25*
G04 #@! TO.C,R1001*
X79883000Y-43410000D03*
X79883000Y-41910000D03*
G04 #@! TD*
D27*
G04 #@! TO.C,R1002*
X79756000Y-34798000D03*
X81256000Y-34798000D03*
G04 #@! TD*
D25*
G04 #@! TO.C,R1003*
X79756000Y-37338000D03*
X79756000Y-38838000D03*
G04 #@! TD*
D27*
G04 #@! TO.C,R1004*
X83566000Y-34798000D03*
X82066000Y-34798000D03*
G04 #@! TD*
G04 #@! TO.C,R1109*
X84467000Y-57531000D03*
X85967000Y-57531000D03*
G04 #@! TD*
G04 #@! TO.C,R1110*
X84467000Y-53721000D03*
X85967000Y-53721000D03*
G04 #@! TD*
G04 #@! TO.C,R1111*
X75208000Y-52070000D03*
X76708000Y-52070000D03*
G04 #@! TD*
G04 #@! TO.C,R1112*
X73291000Y-60833000D03*
X74791000Y-60833000D03*
G04 #@! TD*
G04 #@! TO.C,R1113*
X81927000Y-57531000D03*
X83427000Y-57531000D03*
G04 #@! TD*
G04 #@! TO.C,R1114*
X81927000Y-53721000D03*
X83427000Y-53721000D03*
G04 #@! TD*
G04 #@! TO.C,R1115*
X72505000Y-53721000D03*
X71005000Y-53721000D03*
G04 #@! TD*
G04 #@! TO.C,R1116*
X72505000Y-58039000D03*
X71005000Y-58039000D03*
G04 #@! TD*
D28*
G04 #@! TO.C,U201*
X72324000Y-75565000D03*
X72324000Y-76835000D03*
X72324000Y-78105000D03*
X72324000Y-79375000D03*
X72324000Y-80645000D03*
X72324000Y-83185000D03*
X72324000Y-81915000D03*
D29*
X79629000Y-79375000D03*
G04 #@! TD*
D30*
G04 #@! TO.C,U302*
X94111000Y-37020000D03*
X107311000Y-37020000D03*
X94111000Y-37670000D03*
X94111000Y-38320000D03*
X94111000Y-38970000D03*
X94111000Y-39620000D03*
X94111000Y-40270000D03*
X94111000Y-40920000D03*
X94111000Y-41570000D03*
X94111000Y-42220000D03*
X94111000Y-42870000D03*
X94111000Y-43520000D03*
X94111000Y-44170000D03*
X94111000Y-44820000D03*
X94111000Y-45470000D03*
X94111000Y-46120000D03*
X94111000Y-46770000D03*
X94111000Y-47420000D03*
X94111000Y-48070000D03*
X107311000Y-48070000D03*
X107311000Y-47420000D03*
X107311000Y-46770000D03*
X107311000Y-46120000D03*
X107311000Y-45470000D03*
X107311000Y-44820000D03*
X107311000Y-44170000D03*
X107311000Y-43520000D03*
X107311000Y-42870000D03*
X107311000Y-42220000D03*
X107311000Y-41570000D03*
X107311000Y-40920000D03*
X107311000Y-40270000D03*
X107311000Y-39620000D03*
X107311000Y-38970000D03*
X107311000Y-38320000D03*
X107311000Y-37670000D03*
G04 #@! TD*
D31*
G04 #@! TO.C,U501*
X96566000Y-74112500D03*
X96566000Y-74762500D03*
X96566000Y-75412500D03*
X96566000Y-76062500D03*
X96566000Y-76712500D03*
X96566000Y-77362500D03*
X96566000Y-78012500D03*
X96566000Y-78662500D03*
X102116000Y-78662500D03*
X102116000Y-78012500D03*
X102116000Y-77362500D03*
X102116000Y-76712500D03*
X102116000Y-76062500D03*
X102116000Y-75412500D03*
X102116000Y-74762500D03*
X102116000Y-74112500D03*
D32*
X100076000Y-77730000D03*
X100076000Y-76835000D03*
X100076000Y-75940000D03*
X100076000Y-75045000D03*
X98606000Y-77730000D03*
X98606000Y-76835000D03*
X98606000Y-75940000D03*
X98606000Y-75045000D03*
G04 #@! TD*
D33*
G04 #@! TO.C,U701*
X59436000Y-63975000D03*
X58166000Y-63975000D03*
X56896000Y-63975000D03*
X55626000Y-63975000D03*
X54356000Y-63975000D03*
X53086000Y-63975000D03*
X51816000Y-63975000D03*
X51816000Y-69375000D03*
X53086000Y-69375000D03*
X54356000Y-69375000D03*
X55626000Y-69375000D03*
X56896000Y-69375000D03*
X58166000Y-69375000D03*
X59436000Y-69375000D03*
G04 #@! TD*
D24*
G04 #@! TO.C,U902*
X74676000Y-64130000D03*
X74676000Y-62230000D03*
X72676000Y-63180000D03*
G04 #@! TD*
D34*
G04 #@! TO.C,U1001*
X82096000Y-42198000D03*
X82596000Y-42198000D03*
X83096000Y-42198000D03*
X83596000Y-42198000D03*
X84096000Y-42198000D03*
X84096000Y-37988000D03*
X83596000Y-37988000D03*
X83096000Y-37988000D03*
X82596000Y-37988000D03*
X82096000Y-37988000D03*
D35*
X83566000Y-39673000D03*
X82626000Y-39673000D03*
X83566000Y-40513000D03*
X82626000Y-40513000D03*
G04 #@! TD*
D36*
G04 #@! TO.C,U1102*
X80293000Y-57703000D03*
X80293000Y-57053000D03*
X80293000Y-56403000D03*
X80293000Y-55753000D03*
X80293000Y-55103000D03*
X80293000Y-54453000D03*
X80293000Y-53803000D03*
X74393000Y-53803000D03*
X74393000Y-54453000D03*
X74393000Y-55103000D03*
X74393000Y-55753000D03*
X74393000Y-56403000D03*
X74393000Y-57053000D03*
X74393000Y-57703000D03*
G04 #@! TD*
D37*
G04 #@! TO.C,C103*
X111823500Y-65992500D03*
X111823500Y-67992500D03*
G04 #@! TD*
D38*
G04 #@! TO.C,L101*
X116586000Y-64000000D03*
X116586000Y-50300000D03*
G04 #@! TD*
D39*
G04 #@! TO.C,L1001*
X86296500Y-35814000D03*
X89696500Y-35814000D03*
G04 #@! TD*
D27*
G04 #@! TO.C,R113*
X129274000Y-49466500D03*
X127774000Y-49466500D03*
G04 #@! TD*
G04 #@! TO.C,R114*
X126682500Y-49466500D03*
X125182500Y-49466500D03*
G04 #@! TD*
D40*
G04 #@! TO.C,U101*
X77876000Y-70485000D03*
D41*
X84176000Y-70485000D03*
X84176000Y-68185000D03*
X84176000Y-72785000D03*
G04 #@! TD*
D12*
G04 #@! TO.C,J112*
X65786000Y-88940000D03*
G04 #@! TD*
G04 #@! TO.C,J113*
X65786000Y-26710000D03*
G04 #@! TD*
G04 #@! TO.C,J114*
X143256000Y-88900000D03*
G04 #@! TD*
G04 #@! TO.C,J115*
X143256000Y-26670000D03*
G04 #@! TD*
G04 #@! TO.C,J117*
X105156000Y-57785000D03*
G04 #@! TD*
D25*
G04 #@! TO.C,R115*
X60071000Y-90285000D03*
X60071000Y-88785000D03*
G04 #@! TD*
G04 #@! TO.C,R117*
X139446000Y-86602000D03*
X139446000Y-85102000D03*
G04 #@! TD*
D42*
G04 #@! TO.C,FL701*
X59876000Y-83820000D03*
X59876000Y-81280000D03*
X51376000Y-81280000D03*
X51376000Y-83820000D03*
G04 #@! TD*
G04 #@! TO.C,FL702*
X59876000Y-76835000D03*
X59876000Y-74295000D03*
X51376000Y-74295000D03*
X51376000Y-76835000D03*
G04 #@! TD*
D25*
G04 #@! TO.C,R608*
X61722000Y-85114000D03*
X61722000Y-86614000D03*
G04 #@! TD*
D43*
G04 #@! TO.C,J101*
X73149000Y-89034000D03*
X106419000Y-89034000D03*
D44*
X80259000Y-87634000D03*
D45*
X82929000Y-87634000D03*
X85719000Y-87634000D03*
X88389000Y-87634000D03*
X91179000Y-87634000D03*
X93979000Y-87634000D03*
X96639000Y-87634000D03*
X99439000Y-87634000D03*
X81529000Y-90424000D03*
X84319000Y-90424000D03*
X87119000Y-90424000D03*
X89789000Y-90424000D03*
X92579000Y-90424000D03*
X95249000Y-90424000D03*
X98039000Y-90424000D03*
G04 #@! TD*
D43*
G04 #@! TO.C,J103*
X97536000Y-27305000D03*
X72516000Y-27305000D03*
D44*
X79626000Y-28705000D03*
D45*
X82296000Y-28705000D03*
X85086000Y-28705000D03*
X87756000Y-28705000D03*
X90546000Y-28705000D03*
X80896000Y-25915000D03*
X83686000Y-25915000D03*
X86356000Y-25915000D03*
X89156000Y-25915000D03*
G04 #@! TD*
D43*
G04 #@! TO.C,J104*
X137158000Y-27298000D03*
X103888000Y-27298000D03*
D44*
X110868000Y-28698000D03*
D45*
X113658000Y-28698000D03*
X116328000Y-28698000D03*
X119128000Y-28698000D03*
X121918000Y-28698000D03*
X124588000Y-28698000D03*
X127378000Y-28698000D03*
X130048000Y-28698000D03*
X112268000Y-25908000D03*
X115058000Y-25908000D03*
X117728000Y-25908000D03*
X120518000Y-25908000D03*
X123188000Y-25908000D03*
X125978000Y-25908000D03*
X128778000Y-25908000D03*
G04 #@! TD*
D12*
G04 #@! TO.C,J810*
X142875000Y-44450000D03*
D20*
X145275000Y-44450000D03*
X144572056Y-46147056D03*
X142875000Y-46850000D03*
X141177944Y-46147056D03*
X140475000Y-44450000D03*
X141177944Y-42752944D03*
X142875000Y-42050000D03*
X144572056Y-42752944D03*
G04 #@! TD*
D12*
G04 #@! TO.C,J811*
X142875000Y-62230000D03*
D20*
X145275000Y-62230000D03*
X144572056Y-63927056D03*
X142875000Y-64630000D03*
X141177944Y-63927056D03*
X140475000Y-62230000D03*
X141177944Y-60532944D03*
X142875000Y-59830000D03*
X144572056Y-60532944D03*
G04 #@! TD*
D12*
G04 #@! TO.C,J812*
X142875000Y-80010000D03*
D20*
X145275000Y-80010000D03*
X144572056Y-81707056D03*
X142875000Y-82410000D03*
X141177944Y-81707056D03*
X140475000Y-80010000D03*
X141177944Y-78312944D03*
X142875000Y-77610000D03*
X144572056Y-78312944D03*
G04 #@! TD*
D14*
G04 #@! TO.C,C110*
X86221000Y-52387500D03*
X84721000Y-52387500D03*
G04 #@! TD*
G04 #@! TO.C,C111*
X78002000Y-52070000D03*
X79502000Y-52070000D03*
G04 #@! TD*
G04 #@! TO.C,C112*
X76009500Y-60960000D03*
X77509500Y-60960000D03*
G04 #@! TD*
G04 #@! TO.C,C113*
X86284500Y-56134000D03*
X84784500Y-56134000D03*
G04 #@! TD*
D15*
G04 #@! TO.C,C115*
X99060000Y-58281000D03*
X99060000Y-56781000D03*
G04 #@! TD*
D14*
G04 #@! TO.C,C116*
X91809000Y-64071500D03*
X90309000Y-64071500D03*
G04 #@! TD*
D16*
G04 #@! TO.C,D101*
X73660000Y-68250000D03*
X73660000Y-69850000D03*
G04 #@! TD*
G04 #@! TO.C,D102*
X89408000Y-70790000D03*
X89408000Y-72390000D03*
G04 #@! TD*
G04 #@! TO.C,D103*
X136398000Y-80645000D03*
X136398000Y-82245000D03*
G04 #@! TD*
G04 #@! TO.C,D801*
X132080000Y-48311000D03*
X132080000Y-49911000D03*
G04 #@! TD*
G04 #@! TO.C,D802*
X132080000Y-58420000D03*
X132080000Y-60020000D03*
G04 #@! TD*
G04 #@! TO.C,D803*
X132207000Y-67361000D03*
X132207000Y-68961000D03*
G04 #@! TD*
D25*
G04 #@! TO.C,R127*
X136398000Y-79502000D03*
X136398000Y-78002000D03*
G04 #@! TD*
D27*
G04 #@! TO.C,R807*
X131572000Y-46863000D03*
X130072000Y-46863000D03*
G04 #@! TD*
D25*
G04 #@! TO.C,R808*
X132080000Y-57380000D03*
X132080000Y-55880000D03*
G04 #@! TD*
G04 #@! TO.C,R809*
X132207000Y-66421000D03*
X132207000Y-64921000D03*
G04 #@! TD*
D46*
G04 #@! TO.C,TP101*
X70358000Y-74422000D03*
G04 #@! TD*
G04 #@! TO.C,TP102*
X86868000Y-78740000D03*
G04 #@! TD*
G04 #@! TO.C,TP103*
X85217000Y-66421000D03*
G04 #@! TD*
G04 #@! TO.C,TP104*
X76200000Y-66294000D03*
G04 #@! TD*
G04 #@! TO.C,TP105*
X91186000Y-54229000D03*
G04 #@! TD*
G04 #@! TO.C,TP106*
X93789500Y-60833000D03*
G04 #@! TD*
G04 #@! TO.C,TP108*
X62484000Y-30607000D03*
G04 #@! TD*
G04 #@! TO.C,TP109*
X94361000Y-55118000D03*
G04 #@! TD*
G04 #@! TO.C,TP110*
X93218000Y-64770000D03*
G04 #@! TD*
G04 #@! TO.C,TP111*
X116586000Y-46736000D03*
G04 #@! TD*
D47*
G04 #@! TO.C,C101*
X87781000Y-78994000D03*
X90781000Y-78994000D03*
G04 #@! TD*
D48*
G04 #@! TO.C,C108*
X87122000Y-70596500D03*
X87122000Y-73596500D03*
G04 #@! TD*
D15*
G04 #@! TO.C,C507*
X105854500Y-77787500D03*
X105854500Y-79287500D03*
G04 #@! TD*
D14*
G04 #@! TO.C,C917*
X76009500Y-59690000D03*
X77509500Y-59690000D03*
G04 #@! TD*
D13*
G04 #@! TO.C,C1003*
X83058000Y-33274000D03*
X81058000Y-33274000D03*
G04 #@! TD*
D14*
G04 #@! TO.C,C1201*
X121614500Y-65659000D03*
X123114500Y-65659000D03*
G04 #@! TD*
G04 #@! TO.C,C1202*
X125972000Y-65659000D03*
X124472000Y-65659000D03*
G04 #@! TD*
D49*
G04 #@! TO.C,D304*
X124055000Y-40513000D03*
X128355000Y-40513000D03*
G04 #@! TD*
D50*
G04 #@! TO.C,D306*
X119507000Y-44601000D03*
X119507000Y-40301000D03*
G04 #@! TD*
D49*
G04 #@! TO.C,D501*
X91906000Y-76200000D03*
X87606000Y-76200000D03*
G04 #@! TD*
D27*
G04 #@! TO.C,R508*
X93575000Y-71882000D03*
X92075000Y-71882000D03*
G04 #@! TD*
D51*
G04 #@! TO.C,U301*
X103250000Y-52500000D03*
D52*
X100710000Y-52500000D03*
X98170000Y-52500000D03*
G04 #@! TD*
D53*
G04 #@! TO.C,U1201*
X121129000Y-66940000D03*
X121129000Y-67590000D03*
X121129000Y-68240000D03*
X121129000Y-68890000D03*
X121129000Y-69540000D03*
X121129000Y-70190000D03*
X121129000Y-70840000D03*
X121129000Y-71490000D03*
X127029000Y-71490000D03*
X127029000Y-70840000D03*
X127029000Y-70190000D03*
X127029000Y-69540000D03*
X127029000Y-68890000D03*
X127029000Y-68240000D03*
X127029000Y-67590000D03*
X127029000Y-66940000D03*
G04 #@! TD*
D47*
G04 #@! TO.C,C102*
X71271000Y-71755000D03*
X74271000Y-71755000D03*
G04 #@! TD*
D54*
G04 #@! TO.C,D1001*
X86804500Y-39942000D03*
X86804500Y-43942000D03*
G04 #@! TD*
D14*
G04 #@! TO.C,C302*
X107644500Y-35369500D03*
X109144500Y-35369500D03*
G04 #@! TD*
G04 #@! TO.C,C306*
X108700000Y-49466500D03*
X107200000Y-49466500D03*
G04 #@! TD*
G04 #@! TO.C,C207*
X71108000Y-84963000D03*
X69608000Y-84963000D03*
G04 #@! TD*
D25*
G04 #@! TO.C,R128*
X110172500Y-67425000D03*
X110172500Y-65925000D03*
G04 #@! TD*
D55*
G04 #@! TO.C,D1002*
X75387200Y-43992800D03*
X75387200Y-41192800D03*
G04 #@! TD*
G04 #@! TO.C,D1003*
X77774800Y-42897600D03*
X77774800Y-45697600D03*
G04 #@! TD*
D56*
G36*
X137668000Y-49276000D02*
X133223000Y-49276000D01*
X133223000Y-48260000D01*
X137668000Y-48260000D01*
X137668000Y-49276000D01*
X137668000Y-49276000D01*
G37*
X137668000Y-49276000D02*
X133223000Y-49276000D01*
X133223000Y-48260000D01*
X137668000Y-48260000D01*
X137668000Y-49276000D01*
G36*
X137668000Y-65786000D02*
X133223000Y-65786000D01*
X133223000Y-64770000D01*
X137668000Y-64770000D01*
X137668000Y-65786000D01*
X137668000Y-65786000D01*
G37*
X137668000Y-65786000D02*
X133223000Y-65786000D01*
X133223000Y-64770000D01*
X137668000Y-64770000D01*
X137668000Y-65786000D01*
M02*
