G04 #@! TF.FileFunction,Paste,Top*
%FSLAX46Y46*%
G04 Gerber Fmt 4.6, Leading zero omitted, Abs format (unit mm)*
G04 Created by KiCad (PCBNEW 4.0.6) date Fri Jul 21 15:59:53 2017*
%MOMM*%
%LPD*%
G01*
G04 APERTURE LIST*
%ADD10C,0.100000*%
%ADD11R,1.000000X1.250000*%
%ADD12R,1.000000X1.600000*%
%ADD13R,0.800000X0.750000*%
%ADD14R,0.750000X0.800000*%
%ADD15R,1.250000X1.000000*%
%ADD16R,0.800000X0.800000*%
%ADD17R,3.500000X2.300000*%
%ADD18R,2.300000X3.500000*%
%ADD19R,0.800000X0.900000*%
%ADD20R,1.800000X3.500000*%
%ADD21R,3.500000X1.600000*%
%ADD22R,4.600000X1.390000*%
%ADD23R,9.400000X10.800000*%
%ADD24R,0.900000X0.800000*%
%ADD25R,0.900000X0.500000*%
%ADD26R,0.500000X0.900000*%
%ADD27R,3.060000X0.890000*%
%ADD28R,8.540000X5.350000*%
%ADD29R,2.000000X0.450000*%
%ADD30R,1.050000X0.450000*%
%ADD31R,0.882000X0.537000*%
%ADD32R,0.600000X1.500000*%
%ADD33R,0.305000X0.890000*%
%ADD34R,0.564000X0.504000*%
%ADD35R,1.450000X0.450000*%
%ADD36R,6.000000X6.000000*%
%ADD37R,2.000000X3.400000*%
%ADD38R,2.000000X3.800000*%
%ADD39R,2.000000X1.500000*%
%ADD40R,3.000000X1.200000*%
G04 APERTURE END LIST*
D10*
D11*
X88281000Y-78994000D03*
X90281000Y-78994000D03*
D12*
X71271000Y-71755000D03*
X74271000Y-71755000D03*
D11*
X86106000Y-67945000D03*
X88106000Y-67945000D03*
D13*
X86106000Y-69215000D03*
X87606000Y-69215000D03*
D11*
X121047000Y-48260000D03*
X123047000Y-48260000D03*
D14*
X86106000Y-70890000D03*
X86106000Y-72390000D03*
D15*
X87376000Y-70485000D03*
X87376000Y-72485000D03*
D11*
X71771000Y-73660000D03*
X73771000Y-73660000D03*
D14*
X69977000Y-80621000D03*
X69977000Y-79121000D03*
X69977000Y-83415000D03*
X69977000Y-81915000D03*
D13*
X72275000Y-84709000D03*
X73775000Y-84709000D03*
D14*
X102997000Y-53455000D03*
X102997000Y-51955000D03*
X101473000Y-53963000D03*
X101473000Y-52463000D03*
X96647000Y-54725000D03*
X96647000Y-53225000D03*
D13*
X93103000Y-49403000D03*
X94603000Y-49403000D03*
D14*
X92075000Y-43573000D03*
X92075000Y-45073000D03*
D13*
X108597000Y-35433000D03*
X110097000Y-35433000D03*
D14*
X111379000Y-46367000D03*
X111379000Y-47867000D03*
X110109000Y-38977000D03*
X110109000Y-37477000D03*
X110109000Y-40779000D03*
X110109000Y-42279000D03*
X110109000Y-45859000D03*
X110109000Y-47359000D03*
D13*
X107303000Y-51943000D03*
X105803000Y-51943000D03*
X93103000Y-35687000D03*
X94603000Y-35687000D03*
D14*
X112649000Y-46367000D03*
X112649000Y-47867000D03*
X111633000Y-41541000D03*
X111633000Y-43041000D03*
X111633000Y-38215000D03*
X111633000Y-36715000D03*
D13*
X126377000Y-31115000D03*
X127877000Y-31115000D03*
X123837000Y-31115000D03*
X125337000Y-31115000D03*
X97306000Y-81915000D03*
X98806000Y-81915000D03*
D11*
X102076000Y-72390000D03*
X100076000Y-72390000D03*
D14*
X104521000Y-77700000D03*
X104521000Y-76200000D03*
D11*
X118650000Y-84836000D03*
X120650000Y-84836000D03*
D13*
X55118000Y-62230000D03*
X53618000Y-62230000D03*
X59551000Y-71120000D03*
X58051000Y-71120000D03*
X76466000Y-64135000D03*
X77966000Y-64135000D03*
D14*
X84201000Y-44045000D03*
X84201000Y-42545000D03*
D13*
X85193000Y-35433000D03*
X83693000Y-35433000D03*
X81927000Y-56261000D03*
X83427000Y-56261000D03*
X81927000Y-54991000D03*
X83427000Y-54991000D03*
X72505000Y-54991000D03*
X71005000Y-54991000D03*
X72505000Y-56769000D03*
X71005000Y-56769000D03*
X81927000Y-58801000D03*
X83427000Y-58801000D03*
X81927000Y-52451000D03*
X83427000Y-52451000D03*
X73152000Y-52451000D03*
X71652000Y-52451000D03*
X74791000Y-59309000D03*
X73291000Y-59309000D03*
D16*
X89535000Y-37249000D03*
X89535000Y-35649000D03*
X89535000Y-38443000D03*
X89535000Y-40043000D03*
D17*
X123505000Y-40513000D03*
X128905000Y-40513000D03*
D18*
X119507000Y-45151000D03*
X119507000Y-39751000D03*
D17*
X92456000Y-76200000D03*
X87056000Y-76200000D03*
D19*
X92649000Y-83280000D03*
X94549000Y-83280000D03*
X93599000Y-81280000D03*
X88331000Y-83312000D03*
X90231000Y-83312000D03*
X89281000Y-81312000D03*
D20*
X86995000Y-36957000D03*
X86995000Y-41957000D03*
D21*
X120777000Y-36957000D03*
X120777000Y-32077000D03*
X124714000Y-37492000D03*
X124714000Y-32612000D03*
X128651000Y-37492000D03*
X128651000Y-32612000D03*
D22*
X115046000Y-78105000D03*
D23*
X124206000Y-78105000D03*
D22*
X115046000Y-80645000D03*
X115046000Y-75565000D03*
D19*
X115631000Y-70755000D03*
X113731000Y-70755000D03*
X114681000Y-72755000D03*
X74996000Y-36560000D03*
X76896000Y-36560000D03*
X75946000Y-34560000D03*
D24*
X93091000Y-71435000D03*
X93091000Y-69535000D03*
X91091000Y-70485000D03*
X96171000Y-70170000D03*
X96171000Y-72070000D03*
X98171000Y-71120000D03*
D25*
X110871000Y-77585000D03*
X110871000Y-76085000D03*
X117221000Y-70600000D03*
X117221000Y-69100000D03*
D26*
X115431000Y-69215000D03*
X113931000Y-69215000D03*
D25*
X109347000Y-77585000D03*
X109347000Y-76085000D03*
X107823000Y-76085000D03*
X107823000Y-77585000D03*
X130175000Y-63361000D03*
X130175000Y-61861000D03*
X128651000Y-61861000D03*
X128651000Y-63361000D03*
X129921000Y-56273000D03*
X129921000Y-57773000D03*
X128397000Y-57773000D03*
X128397000Y-56273000D03*
X72136000Y-44335000D03*
X72136000Y-45835000D03*
D26*
X76696000Y-38735000D03*
X75196000Y-38735000D03*
D25*
X68707000Y-75589000D03*
X68707000Y-77089000D03*
X68707000Y-77875000D03*
X68707000Y-79375000D03*
X69977000Y-77089000D03*
X69977000Y-75589000D03*
X68707000Y-83923000D03*
X68707000Y-82423000D03*
X68707000Y-81637000D03*
X68707000Y-80137000D03*
D26*
X92051000Y-36703000D03*
X90551000Y-36703000D03*
X92063000Y-38227000D03*
X90563000Y-38227000D03*
D25*
X92075000Y-41033000D03*
X92075000Y-42533000D03*
D26*
X91591000Y-73025000D03*
X93091000Y-73025000D03*
D25*
X94996000Y-71985000D03*
X94996000Y-70485000D03*
D26*
X98806000Y-83185000D03*
X97306000Y-83185000D03*
D25*
X94615000Y-79605000D03*
X94615000Y-78105000D03*
D26*
X97306000Y-80645000D03*
X98806000Y-80645000D03*
X58916000Y-62230000D03*
X57416000Y-62230000D03*
D25*
X125349000Y-48653000D03*
X125349000Y-50153000D03*
D26*
X127623000Y-54229000D03*
X126123000Y-54229000D03*
X130036000Y-67310000D03*
X128536000Y-67310000D03*
D25*
X79883000Y-42267000D03*
X79883000Y-40767000D03*
D26*
X79756000Y-33655000D03*
X81256000Y-33655000D03*
D25*
X79756000Y-36195000D03*
X79756000Y-37695000D03*
D26*
X83566000Y-33655000D03*
X82066000Y-33655000D03*
X84467000Y-57531000D03*
X85967000Y-57531000D03*
X84467000Y-53721000D03*
X85967000Y-53721000D03*
X75208000Y-52070000D03*
X76708000Y-52070000D03*
X73291000Y-60833000D03*
X74791000Y-60833000D03*
X81927000Y-57531000D03*
X83427000Y-57531000D03*
X81927000Y-53721000D03*
X83427000Y-53721000D03*
X72505000Y-53721000D03*
X71005000Y-53721000D03*
X72505000Y-58039000D03*
X71005000Y-58039000D03*
D27*
X72324000Y-75565000D03*
X72324000Y-76835000D03*
X72324000Y-78105000D03*
X72324000Y-79375000D03*
X72324000Y-80645000D03*
X72324000Y-83185000D03*
X72324000Y-81915000D03*
D28*
X79629000Y-79375000D03*
D19*
X98171000Y-54991000D03*
X100071000Y-54991000D03*
X99121000Y-52991000D03*
D29*
X94111000Y-37020000D03*
X107311000Y-37020000D03*
X94111000Y-37670000D03*
X94111000Y-38320000D03*
X94111000Y-38970000D03*
X94111000Y-39620000D03*
X94111000Y-40270000D03*
X94111000Y-40920000D03*
X94111000Y-41570000D03*
X94111000Y-42220000D03*
X94111000Y-42870000D03*
X94111000Y-43520000D03*
X94111000Y-44170000D03*
X94111000Y-44820000D03*
X94111000Y-45470000D03*
X94111000Y-46120000D03*
X94111000Y-46770000D03*
X94111000Y-47420000D03*
X94111000Y-48070000D03*
X107311000Y-48070000D03*
X107311000Y-47420000D03*
X107311000Y-46770000D03*
X107311000Y-46120000D03*
X107311000Y-45470000D03*
X107311000Y-44820000D03*
X107311000Y-44170000D03*
X107311000Y-43520000D03*
X107311000Y-42870000D03*
X107311000Y-42220000D03*
X107311000Y-41570000D03*
X107311000Y-40920000D03*
X107311000Y-40270000D03*
X107311000Y-39620000D03*
X107311000Y-38970000D03*
X107311000Y-38320000D03*
X107311000Y-37670000D03*
D30*
X96566000Y-74112500D03*
X96566000Y-74762500D03*
X96566000Y-75412500D03*
X96566000Y-76062500D03*
X96566000Y-76712500D03*
X96566000Y-77362500D03*
X96566000Y-78012500D03*
X96566000Y-78662500D03*
X102116000Y-78662500D03*
X102116000Y-78012500D03*
X102116000Y-77362500D03*
X102116000Y-76712500D03*
X102116000Y-76062500D03*
X102116000Y-75412500D03*
X102116000Y-74762500D03*
X102116000Y-74112500D03*
D31*
X100076000Y-77730000D03*
X100076000Y-76835000D03*
X100076000Y-75940000D03*
X100076000Y-75045000D03*
X98606000Y-77730000D03*
X98606000Y-76835000D03*
X98606000Y-75940000D03*
X98606000Y-75045000D03*
D32*
X59436000Y-63975000D03*
X58166000Y-63975000D03*
X56896000Y-63975000D03*
X55626000Y-63975000D03*
X54356000Y-63975000D03*
X53086000Y-63975000D03*
X51816000Y-63975000D03*
X51816000Y-69375000D03*
X53086000Y-69375000D03*
X54356000Y-69375000D03*
X55626000Y-69375000D03*
X56896000Y-69375000D03*
X58166000Y-69375000D03*
X59436000Y-69375000D03*
D24*
X74676000Y-64130000D03*
X74676000Y-62230000D03*
X72676000Y-63180000D03*
D33*
X82096000Y-41055000D03*
X82596000Y-41055000D03*
X83096000Y-41055000D03*
X83596000Y-41055000D03*
X84096000Y-41055000D03*
X84096000Y-36845000D03*
X83596000Y-36845000D03*
X83096000Y-36845000D03*
X82596000Y-36845000D03*
X82096000Y-36845000D03*
D34*
X83566000Y-38530000D03*
X82626000Y-38530000D03*
X83566000Y-39370000D03*
X82626000Y-39370000D03*
D35*
X80293000Y-57703000D03*
X80293000Y-57053000D03*
X80293000Y-56403000D03*
X80293000Y-55753000D03*
X80293000Y-55103000D03*
X80293000Y-54453000D03*
X80293000Y-53803000D03*
X74393000Y-53803000D03*
X74393000Y-54453000D03*
X74393000Y-55103000D03*
X74393000Y-55753000D03*
X74393000Y-56403000D03*
X74393000Y-57053000D03*
X74393000Y-57703000D03*
D11*
X110601000Y-66040000D03*
X108601000Y-66040000D03*
D36*
X116586000Y-64000000D03*
X116586000Y-50300000D03*
D37*
X85217000Y-32893000D03*
X88617000Y-32893000D03*
D25*
X129921000Y-49415000D03*
X129921000Y-50915000D03*
X128397000Y-50915000D03*
X128397000Y-49415000D03*
D38*
X77876000Y-70485000D03*
D39*
X84176000Y-70485000D03*
X84176000Y-68185000D03*
X84176000Y-72785000D03*
D25*
X60071000Y-90285000D03*
X60071000Y-88785000D03*
X139446000Y-86602000D03*
X139446000Y-85102000D03*
D40*
X59876000Y-83820000D03*
X59876000Y-81280000D03*
X51376000Y-81280000D03*
X51376000Y-83820000D03*
X59876000Y-76835000D03*
X59876000Y-74295000D03*
X51376000Y-74295000D03*
X51376000Y-76835000D03*
D25*
X61722000Y-85114000D03*
X61722000Y-86614000D03*
X58166000Y-90285000D03*
X58166000Y-88785000D03*
X92329000Y-79006000D03*
X92329000Y-80506000D03*
D14*
X106426000Y-76073000D03*
X106426000Y-77573000D03*
X127127000Y-61849000D03*
X127127000Y-63349000D03*
X127000000Y-57785000D03*
X127000000Y-56285000D03*
X126873000Y-50915000D03*
X126873000Y-49415000D03*
D13*
X112625000Y-57150000D03*
X111125000Y-57150000D03*
D16*
X73660000Y-68250000D03*
X73660000Y-69850000D03*
X89408000Y-70790000D03*
X89408000Y-72390000D03*
X136398000Y-80645000D03*
X136398000Y-82245000D03*
X132080000Y-48311000D03*
X132080000Y-49911000D03*
X132080000Y-58420000D03*
X132080000Y-60020000D03*
X132207000Y-67361000D03*
X132207000Y-68961000D03*
D25*
X72009000Y-68350000D03*
X72009000Y-69850000D03*
X136398000Y-79502000D03*
X136398000Y-78002000D03*
D26*
X131572000Y-46863000D03*
X130072000Y-46863000D03*
D25*
X132080000Y-57380000D03*
X132080000Y-55880000D03*
X132207000Y-66421000D03*
X132207000Y-64921000D03*
M02*
