M48
;DRILL file {KiCad 4.0.6} date Fri Jul 21 15:59:55 2017
;FORMAT={-:-/ absolute / inch / decimal}
FMAT,2
INCH,TZ
T1C0.012
T2C0.016
T3C0.018
T4C0.020
T5C0.024
T6C0.031
T7C0.039
T8C0.040
T9C0.120
T10C0.126
%
G90
G05
M72
T1
X1.97Y-2.66
X1.97Y-2.86
X2.055Y-2.87
X2.185Y-2.42
X2.24Y-2.655
X2.265Y-2.245
X2.265Y-2.38
X2.29Y-2.185
X2.315Y-2.33
X2.315Y-2.385
X2.32Y-2.97
X2.35Y-2.985
X2.375Y-2.87
X2.39Y-2.155
X2.39Y-2.34
X2.405Y-2.24
X2.405Y-2.69
X3.275Y-1.655
X3.855Y-3.325
T2
X1.985Y-3.36
X2.035Y-2.79
X2.09Y-2.57
X2.215Y-3.25
X2.215Y-3.375
X2.27Y-3.105
X2.305Y-2.67
X2.335Y-3.415
X2.34Y-2.565
X2.35Y-3.095
X2.405Y-2.535
X2.425Y-3.52
X2.44Y-3.1
X2.4723Y-2.1658
X2.48Y-3.3976
X2.4933Y-2.076
X2.495Y-2.275
X2.565Y-2.685
X2.6568Y-2.5864
X2.66Y-3.1758
X2.6616Y-2.1816
X2.6784Y-2.5624
X2.68Y-2.91
X2.69Y-3.1758
X2.695Y-3.0955
X2.715Y-1.615
X2.715Y-2.865
X2.72Y-1.3
X2.72Y-1.81
X2.75Y-2.815
X2.7567Y-2.3326
X2.7595Y-2.255
X2.765Y-2.87
X2.7679Y-2.222
X2.785Y-1.505
X2.785Y-1.665
X2.795Y-2.515
X2.805Y-1.43
X2.855Y-2.44
X2.8841Y-2.12
X2.8841Y-2.27
X2.885Y-1.41
X2.905Y-2.485
X2.925Y-1.62
X2.96Y-2.775
X2.98Y-1.1
X2.98Y-2.3
X2.98Y-2.515
X2.985Y-2.4
X2.99Y-2.025
X3.02Y-1.845
X3.0433Y-3.4428
X3.045Y-2.06
X3.055Y-0.995
X3.065Y-1.375
X3.07Y-1.545
X3.07Y-2.48
X3.0701Y-1.4841
X3.0855Y-3.4764
X3.095Y-1.595
X3.095Y-2.155
X3.0983Y-3.4379
X3.1Y-2.09
X3.1097Y-2.2162
X3.1156Y-2.3705
X3.135Y-1.245
X3.14Y-3.305
X3.1402Y-2.3295
X3.145Y-1.52
X3.145Y-1.5639
X3.145Y-1.845
X3.155Y-1.72
X3.165Y-3.365
X3.17Y-3.255
X3.1715Y-2.3261
X3.19Y-1.49
X3.19Y-1.5189
X3.19Y-1.55
X3.19Y-1.58
X3.195Y-1.245
X3.253Y-1.5169
X3.253Y-1.55
X3.265Y-1.7341
X3.265Y-2.35
X3.29Y-1.5169
X3.29Y-1.55
X3.335Y-1.87
X3.345Y-1.925
X3.355Y-1.5
X3.355Y-1.535
X3.355Y-1.575
X3.355Y-3.125
X3.36Y-2.455
X3.365Y-2.705
X3.38Y-1.84
X3.38Y-1.92
X3.38Y-2.21
X3.39Y-2.03
X3.395Y-3.155
X3.415Y-1.55
X3.415Y-1.7404
X3.42Y-1.215
X3.425Y-2.265
X3.4294Y-2.695
X3.43Y-3.39
X3.4496Y-2.2985
X3.4499Y-2.3351
X3.45Y-2.17
X3.455Y-2.42
X3.46Y-2.11
X3.485Y-2.08
X3.4919Y-2.3031
X3.495Y-2.735
X3.5017Y-2.3506
X3.51Y-2.17
X3.53Y-2.205
X3.53Y-2.91
X3.54Y-2.765
X3.54Y-3.045
X3.545Y-2.24
X3.55Y-1.79
X3.5509Y-2.3519
X3.555Y-2.82
X3.565Y-1.735
X3.57Y-2.045
X3.575Y-2.5627
X3.575Y-3.4
X3.5796Y-2.2199
X3.58Y-3.1695
X3.585Y-2.695
X3.6Y-1.38
X3.6Y-2.82
X3.605Y-2.24
X3.615Y-2.56
X3.62Y-1.945
X3.62Y-2.4938
X3.65Y-2.13
X3.655Y-3.07
X3.6561Y-3.4194
X3.685Y-2.85
X3.69Y-1.245
X3.705Y-1.035
X3.755Y-3.02
X3.765Y-1.4
X3.77Y-1.645
X3.77Y-1.805
X3.775Y-2.095
X3.795Y-2.025
X3.815Y-2.47
X3.82Y-1.24
X3.82Y-1.955
X3.825Y-2.6874
X3.828Y-2.3492
X3.835Y-2.14
X3.84Y-2.21
X3.845Y-2.115
X3.85Y-1.72
X3.85Y-2.7494
X3.86Y-1.42
X3.865Y-2.855
X3.88Y-1.515
X3.8821Y-2.9545
X3.8821Y-2.9898
X3.8821Y-3.025
X3.8821Y-3.0602
X3.91Y-2.455
X3.92Y-1.4
X3.925Y-2.6874
X3.94Y-2.895
X3.94Y-2.9545
X3.94Y-2.9898
X3.94Y-3.025
X3.94Y-3.0602
X3.9435Y-3.1226
X3.945Y-2.255
X3.96Y-2.32
X3.965Y-3.5
X3.97Y-1.76
X3.97Y-1.89
X3.97Y-1.92
X4.015Y-2.03
X4.015Y-2.79
X4.02Y-1.39
X4.03Y-1.945
X4.035Y-1.21
X4.045Y-1.525
X4.07Y-3.13
X4.0702Y-3.0221
X4.0797Y-2.9459
X4.085Y-2.445
X4.09Y-2.9971
X4.09Y-3.35
X4.0946Y-2.9166
X4.095Y-2.875
X4.1Y-1.655
X4.125Y-1.79
X4.14Y-1.525
X4.14Y-2.445
X4.145Y-2.79
X4.16Y-1.94
X4.165Y-2.075
X4.1938Y-2.5604
X4.205Y-1.24
X4.21Y-3.22
X4.21Y-3.25
X4.21Y-3.28
X4.255Y-1.065
X4.26Y-2.175
X4.265Y-1.96
X4.2952Y-1.5087
X4.303Y-2.4274
X4.3157Y-2.6844
X4.32Y-2.175
X4.3262Y-2.4762
X4.3372Y-1.3022
X4.365Y-1.99
X4.38Y-1.745
X4.4Y-2.355
X4.405Y-3.185
X4.405Y-3.215
X4.405Y-3.245
X4.405Y-3.275
X4.41Y-1.915
X4.43Y-1.505
X4.43Y-1.635
X4.43Y-2.655
X4.435Y-2.015
X4.44Y-2.175
X4.445Y-1.385
X4.445Y-2.305
X4.465Y-1.48
X4.4668Y-1.8255
X4.47Y-1.695
X4.475Y-2.2604
X4.51Y-2.755
X4.515Y-2.3
X4.55Y-1.75
X4.56Y-2.185
X4.575Y-2.735
X4.585Y-1.245
X4.615Y-2.12
X4.6288Y-2.1801
X4.645Y-2.3
X4.705Y-2.32
X4.7278Y-1.8662
X4.7278Y-2.47
X4.735Y-1.355
X5.095Y-1.385
X5.14Y-1.71
X5.14Y-2.585
X5.1404Y-2.135
X5.155Y-1.
X5.175Y-1.525
X5.19Y-1.705
X5.2Y-1.77
X5.2Y-1.94
X5.2Y-2.3354
X5.205Y-2.69
X5.235Y-1.19
X5.355Y-3.255
X5.5Y-1.15
T3
X2.785Y-3.31
X2.81Y-3.31
X2.85Y-2.82
X2.85Y-2.855
X2.85Y-2.94
X2.93Y-3.125
T4
X4.4305Y-3.49
X4.4582Y-3.4232
X4.4582Y-3.5568
X4.525Y-3.3955
X4.525Y-3.5845
X4.5918Y-3.4232
X4.5918Y-3.5568
X4.6195Y-3.49
X4.8055Y-3.49
X4.8332Y-3.4232
X4.8332Y-3.5568
X4.9Y-3.3955
X4.9Y-3.5845
X4.9668Y-3.4232
X4.9668Y-3.5568
X4.9945Y-3.49
X5.1805Y-3.49
X5.2082Y-3.4232
X5.2082Y-3.5568
X5.275Y-3.3955
X5.275Y-3.5845
X5.3418Y-3.4232
X5.3418Y-3.5568
X5.3695Y-3.49
X5.5305Y-1.4
X5.5305Y-1.75
X5.5305Y-2.1
X5.5305Y-2.45
X5.5305Y-2.8
X5.5305Y-3.15
X5.5582Y-1.3332
X5.5582Y-1.4668
X5.5582Y-1.6832
X5.5582Y-1.8168
X5.5582Y-2.0332
X5.5582Y-2.1668
X5.5582Y-2.3832
X5.5582Y-2.5168
X5.5582Y-2.7332
X5.5582Y-2.8668
X5.5582Y-3.0832
X5.5582Y-3.2168
X5.625Y-1.3055
X5.625Y-1.4945
X5.625Y-1.6555
X5.625Y-1.8445
X5.625Y-2.0055
X5.625Y-2.1945
X5.625Y-2.3555
X5.625Y-2.5445
X5.625Y-2.7055
X5.625Y-2.8945
X5.625Y-3.0555
X5.625Y-3.2445
X5.6918Y-1.3332
X5.6918Y-1.4668
X5.6918Y-1.6832
X5.6918Y-1.8168
X5.6918Y-2.0332
X5.6918Y-2.1668
X5.6918Y-2.3832
X5.6918Y-2.5168
X5.6918Y-2.7332
X5.6918Y-2.8668
X5.6918Y-3.0832
X5.6918Y-3.2168
X5.7195Y-1.4
X5.7195Y-1.75
X5.7195Y-2.1
X5.7195Y-2.45
X5.7195Y-2.8
X5.7195Y-3.15
T5
X3.19Y-2.955
X3.19Y-2.995
X3.38Y-3.07
X3.415Y-3.07
X3.45Y-3.07
X3.485Y-3.07
X4.13Y-1.575
X4.13Y-1.61
X4.29Y-1.78
X4.295Y-1.575
X4.32Y-1.765
X4.395Y-2.555
X4.395Y-2.6
X4.44Y-2.555
X4.44Y-2.6
X4.6302Y-1.565
X4.64Y-1.53
X4.87Y-1.53
X4.91Y-1.53
T6
X2.46Y-1.205
T7
X2.515Y-1.325
X2.515Y-1.425
X2.515Y-1.525
X2.515Y-1.625
X2.515Y-1.725
X2.515Y-1.825
X2.515Y-1.925
X2.515Y-2.025
X2.515Y-2.125
X2.515Y-2.225
X2.515Y-2.325
X2.515Y-2.425
X2.515Y-2.525
X2.515Y-2.625
X2.515Y-2.725
X2.515Y-2.825
X2.515Y-2.925
X2.515Y-3.025
X2.515Y-3.125
X2.515Y-3.225
X2.615Y-1.325
X2.615Y-1.425
X2.615Y-1.525
X2.615Y-1.625
X2.615Y-1.725
X2.615Y-1.825
X2.615Y-1.925
X2.615Y-2.025
X2.615Y-2.125
X2.615Y-2.225
X2.615Y-2.325
X2.615Y-2.425
X2.615Y-2.525
X2.615Y-2.625
X2.615Y-2.725
X2.615Y-2.825
X2.615Y-2.925
X2.615Y-3.025
X2.615Y-3.125
X2.615Y-3.225
X2.92Y-1.825
X3.99Y-3.2
X3.99Y-3.3
T8
X3.1349Y-1.1301
X3.1598Y-3.4502
X3.1849Y-1.0203
X3.2098Y-3.56
X3.24Y-1.1301
X3.2649Y-3.4502
X3.2947Y-1.0203
X3.3196Y-3.56
X3.3498Y-1.1301
X3.3748Y-3.4502
X3.3998Y-1.0203
X3.4299Y-3.56
X3.455Y-1.1301
X3.4799Y-3.4502
X3.5101Y-1.0203
X3.535Y-3.56
X3.5648Y-1.1301
X3.5897Y-3.4502
X3.6448Y-3.56
X3.7Y-3.4502
X3.75Y-3.56
X3.8047Y-3.4502
X3.8598Y-3.56
X3.9149Y-3.4502
X4.3649Y-1.1298
X4.42Y-1.02
X4.4747Y-1.1298
X4.5298Y-1.02
X4.5798Y-1.1298
X4.635Y-1.02
X4.6901Y-1.1298
X4.7448Y-1.02
X4.7999Y-1.1298
X4.8499Y-1.02
X4.905Y-1.1298
X4.9598Y-1.02
X5.0149Y-1.1298
X5.07Y-1.02
X5.12Y-1.1298
T9
X2.855Y-1.075
X2.8799Y-3.5053
X3.84Y-1.075
X4.0901Y-1.0747
X4.1897Y-3.5053
X5.3999Y-1.0747
T10
X2.065Y-2.25
X2.065Y-3.5
X2.59Y-1.0516
X2.59Y-3.5016
X4.14Y-2.275
X4.525Y-3.49
X4.9Y-3.49
X5.275Y-3.49
X5.625Y-1.4
X5.625Y-1.75
X5.625Y-2.1
X5.625Y-2.45
X5.625Y-2.8
X5.625Y-3.15
X5.64Y-1.05
X5.64Y-3.5
T0
M30
