G04 #@! TF.GenerationSoftware,KiCad,Pcbnew,5.0.0-4.fc29*
G04 #@! TF.CreationDate,2019-01-05T16:59:36+01:00*
G04 #@! TF.ProjectId,powerboard,706F776572626F6172642E6B69636164,rev11*
G04 #@! TF.SameCoordinates,Original*
G04 #@! TF.FileFunction,Paste,Bot*
G04 #@! TF.FilePolarity,Positive*
%FSLAX46Y46*%
G04 Gerber Fmt 4.6, Leading zero omitted, Abs format (unit mm)*
G04 Created by KiCad (PCBNEW 5.0.0-4.fc29) date Sat Jan  5 16:59:36 2019*
%MOMM*%
%LPD*%
G01*
G04 APERTURE LIST*
%ADD10R,1.800000X2.500000*%
%ADD11R,2.500000X1.800000*%
%ADD12C,0.100000*%
%ADD13C,0.875000*%
%ADD14R,1.000000X1.250000*%
%ADD15R,2.700000X2.700000*%
%ADD16R,1.000000X1.600000*%
%ADD17R,0.800000X0.750000*%
%ADD18R,0.750000X0.800000*%
%ADD19R,1.550000X0.600000*%
%ADD20R,0.900000X0.600000*%
%ADD21R,0.600000X0.900000*%
%ADD22R,0.600000X1.050000*%
%ADD23R,0.900000X0.500000*%
%ADD24R,0.500000X0.900000*%
%ADD25R,1.500000X0.600000*%
%ADD26R,0.800000X1.500000*%
%ADD27R,1.450000X0.450000*%
%ADD28R,2.860000X5.500000*%
%ADD29R,1.000000X3.000000*%
%ADD30R,2.500000X2.300000*%
%ADD31R,1.600000X3.500000*%
%ADD32R,1.700000X0.900000*%
%ADD33R,0.900000X1.700000*%
%ADD34C,0.900000*%
%ADD35R,1.000000X2.500000*%
%ADD36R,1.250000X1.000000*%
%ADD37R,4.000000X2.500000*%
%ADD38R,0.900000X0.800000*%
G04 APERTURE END LIST*
D10*
G04 #@! TO.C,D104*
X70802500Y-81066500D03*
X70802500Y-77066500D03*
G04 #@! TD*
D11*
G04 #@! TO.C,D105*
X106744000Y-48006000D03*
X110744000Y-48006000D03*
G04 #@! TD*
D12*
G04 #@! TO.C,R136*
G36*
X72540691Y-33955053D02*
X72561926Y-33958203D01*
X72582750Y-33963419D01*
X72602962Y-33970651D01*
X72622368Y-33979830D01*
X72640781Y-33990866D01*
X72658024Y-34003654D01*
X72673930Y-34018070D01*
X72688346Y-34033976D01*
X72701134Y-34051219D01*
X72712170Y-34069632D01*
X72721349Y-34089038D01*
X72728581Y-34109250D01*
X72733797Y-34130074D01*
X72736947Y-34151309D01*
X72738000Y-34172750D01*
X72738000Y-34610250D01*
X72736947Y-34631691D01*
X72733797Y-34652926D01*
X72728581Y-34673750D01*
X72721349Y-34693962D01*
X72712170Y-34713368D01*
X72701134Y-34731781D01*
X72688346Y-34749024D01*
X72673930Y-34764930D01*
X72658024Y-34779346D01*
X72640781Y-34792134D01*
X72622368Y-34803170D01*
X72602962Y-34812349D01*
X72582750Y-34819581D01*
X72561926Y-34824797D01*
X72540691Y-34827947D01*
X72519250Y-34829000D01*
X72006750Y-34829000D01*
X71985309Y-34827947D01*
X71964074Y-34824797D01*
X71943250Y-34819581D01*
X71923038Y-34812349D01*
X71903632Y-34803170D01*
X71885219Y-34792134D01*
X71867976Y-34779346D01*
X71852070Y-34764930D01*
X71837654Y-34749024D01*
X71824866Y-34731781D01*
X71813830Y-34713368D01*
X71804651Y-34693962D01*
X71797419Y-34673750D01*
X71792203Y-34652926D01*
X71789053Y-34631691D01*
X71788000Y-34610250D01*
X71788000Y-34172750D01*
X71789053Y-34151309D01*
X71792203Y-34130074D01*
X71797419Y-34109250D01*
X71804651Y-34089038D01*
X71813830Y-34069632D01*
X71824866Y-34051219D01*
X71837654Y-34033976D01*
X71852070Y-34018070D01*
X71867976Y-34003654D01*
X71885219Y-33990866D01*
X71903632Y-33979830D01*
X71923038Y-33970651D01*
X71943250Y-33963419D01*
X71964074Y-33958203D01*
X71985309Y-33955053D01*
X72006750Y-33954000D01*
X72519250Y-33954000D01*
X72540691Y-33955053D01*
X72540691Y-33955053D01*
G37*
D13*
X72263000Y-34391500D03*
D12*
G36*
X72540691Y-35530053D02*
X72561926Y-35533203D01*
X72582750Y-35538419D01*
X72602962Y-35545651D01*
X72622368Y-35554830D01*
X72640781Y-35565866D01*
X72658024Y-35578654D01*
X72673930Y-35593070D01*
X72688346Y-35608976D01*
X72701134Y-35626219D01*
X72712170Y-35644632D01*
X72721349Y-35664038D01*
X72728581Y-35684250D01*
X72733797Y-35705074D01*
X72736947Y-35726309D01*
X72738000Y-35747750D01*
X72738000Y-36185250D01*
X72736947Y-36206691D01*
X72733797Y-36227926D01*
X72728581Y-36248750D01*
X72721349Y-36268962D01*
X72712170Y-36288368D01*
X72701134Y-36306781D01*
X72688346Y-36324024D01*
X72673930Y-36339930D01*
X72658024Y-36354346D01*
X72640781Y-36367134D01*
X72622368Y-36378170D01*
X72602962Y-36387349D01*
X72582750Y-36394581D01*
X72561926Y-36399797D01*
X72540691Y-36402947D01*
X72519250Y-36404000D01*
X72006750Y-36404000D01*
X71985309Y-36402947D01*
X71964074Y-36399797D01*
X71943250Y-36394581D01*
X71923038Y-36387349D01*
X71903632Y-36378170D01*
X71885219Y-36367134D01*
X71867976Y-36354346D01*
X71852070Y-36339930D01*
X71837654Y-36324024D01*
X71824866Y-36306781D01*
X71813830Y-36288368D01*
X71804651Y-36268962D01*
X71797419Y-36248750D01*
X71792203Y-36227926D01*
X71789053Y-36206691D01*
X71788000Y-36185250D01*
X71788000Y-35747750D01*
X71789053Y-35726309D01*
X71792203Y-35705074D01*
X71797419Y-35684250D01*
X71804651Y-35664038D01*
X71813830Y-35644632D01*
X71824866Y-35626219D01*
X71837654Y-35608976D01*
X71852070Y-35593070D01*
X71867976Y-35578654D01*
X71885219Y-35565866D01*
X71903632Y-35554830D01*
X71923038Y-35545651D01*
X71943250Y-35538419D01*
X71964074Y-35533203D01*
X71985309Y-35530053D01*
X72006750Y-35529000D01*
X72519250Y-35529000D01*
X72540691Y-35530053D01*
X72540691Y-35530053D01*
G37*
D13*
X72263000Y-35966500D03*
G04 #@! TD*
D12*
G04 #@! TO.C,R137*
G36*
X120277691Y-31776053D02*
X120298926Y-31779203D01*
X120319750Y-31784419D01*
X120339962Y-31791651D01*
X120359368Y-31800830D01*
X120377781Y-31811866D01*
X120395024Y-31824654D01*
X120410930Y-31839070D01*
X120425346Y-31854976D01*
X120438134Y-31872219D01*
X120449170Y-31890632D01*
X120458349Y-31910038D01*
X120465581Y-31930250D01*
X120470797Y-31951074D01*
X120473947Y-31972309D01*
X120475000Y-31993750D01*
X120475000Y-32506250D01*
X120473947Y-32527691D01*
X120470797Y-32548926D01*
X120465581Y-32569750D01*
X120458349Y-32589962D01*
X120449170Y-32609368D01*
X120438134Y-32627781D01*
X120425346Y-32645024D01*
X120410930Y-32660930D01*
X120395024Y-32675346D01*
X120377781Y-32688134D01*
X120359368Y-32699170D01*
X120339962Y-32708349D01*
X120319750Y-32715581D01*
X120298926Y-32720797D01*
X120277691Y-32723947D01*
X120256250Y-32725000D01*
X119818750Y-32725000D01*
X119797309Y-32723947D01*
X119776074Y-32720797D01*
X119755250Y-32715581D01*
X119735038Y-32708349D01*
X119715632Y-32699170D01*
X119697219Y-32688134D01*
X119679976Y-32675346D01*
X119664070Y-32660930D01*
X119649654Y-32645024D01*
X119636866Y-32627781D01*
X119625830Y-32609368D01*
X119616651Y-32589962D01*
X119609419Y-32569750D01*
X119604203Y-32548926D01*
X119601053Y-32527691D01*
X119600000Y-32506250D01*
X119600000Y-31993750D01*
X119601053Y-31972309D01*
X119604203Y-31951074D01*
X119609419Y-31930250D01*
X119616651Y-31910038D01*
X119625830Y-31890632D01*
X119636866Y-31872219D01*
X119649654Y-31854976D01*
X119664070Y-31839070D01*
X119679976Y-31824654D01*
X119697219Y-31811866D01*
X119715632Y-31800830D01*
X119735038Y-31791651D01*
X119755250Y-31784419D01*
X119776074Y-31779203D01*
X119797309Y-31776053D01*
X119818750Y-31775000D01*
X120256250Y-31775000D01*
X120277691Y-31776053D01*
X120277691Y-31776053D01*
G37*
D13*
X120037500Y-32250000D03*
D12*
G36*
X118702691Y-31776053D02*
X118723926Y-31779203D01*
X118744750Y-31784419D01*
X118764962Y-31791651D01*
X118784368Y-31800830D01*
X118802781Y-31811866D01*
X118820024Y-31824654D01*
X118835930Y-31839070D01*
X118850346Y-31854976D01*
X118863134Y-31872219D01*
X118874170Y-31890632D01*
X118883349Y-31910038D01*
X118890581Y-31930250D01*
X118895797Y-31951074D01*
X118898947Y-31972309D01*
X118900000Y-31993750D01*
X118900000Y-32506250D01*
X118898947Y-32527691D01*
X118895797Y-32548926D01*
X118890581Y-32569750D01*
X118883349Y-32589962D01*
X118874170Y-32609368D01*
X118863134Y-32627781D01*
X118850346Y-32645024D01*
X118835930Y-32660930D01*
X118820024Y-32675346D01*
X118802781Y-32688134D01*
X118784368Y-32699170D01*
X118764962Y-32708349D01*
X118744750Y-32715581D01*
X118723926Y-32720797D01*
X118702691Y-32723947D01*
X118681250Y-32725000D01*
X118243750Y-32725000D01*
X118222309Y-32723947D01*
X118201074Y-32720797D01*
X118180250Y-32715581D01*
X118160038Y-32708349D01*
X118140632Y-32699170D01*
X118122219Y-32688134D01*
X118104976Y-32675346D01*
X118089070Y-32660930D01*
X118074654Y-32645024D01*
X118061866Y-32627781D01*
X118050830Y-32609368D01*
X118041651Y-32589962D01*
X118034419Y-32569750D01*
X118029203Y-32548926D01*
X118026053Y-32527691D01*
X118025000Y-32506250D01*
X118025000Y-31993750D01*
X118026053Y-31972309D01*
X118029203Y-31951074D01*
X118034419Y-31930250D01*
X118041651Y-31910038D01*
X118050830Y-31890632D01*
X118061866Y-31872219D01*
X118074654Y-31854976D01*
X118089070Y-31839070D01*
X118104976Y-31824654D01*
X118122219Y-31811866D01*
X118140632Y-31800830D01*
X118160038Y-31791651D01*
X118180250Y-31784419D01*
X118201074Y-31779203D01*
X118222309Y-31776053D01*
X118243750Y-31775000D01*
X118681250Y-31775000D01*
X118702691Y-31776053D01*
X118702691Y-31776053D01*
G37*
D13*
X118462500Y-32250000D03*
G04 #@! TD*
D12*
G04 #@! TO.C,R133*
G36*
X94257691Y-30399053D02*
X94278926Y-30402203D01*
X94299750Y-30407419D01*
X94319962Y-30414651D01*
X94339368Y-30423830D01*
X94357781Y-30434866D01*
X94375024Y-30447654D01*
X94390930Y-30462070D01*
X94405346Y-30477976D01*
X94418134Y-30495219D01*
X94429170Y-30513632D01*
X94438349Y-30533038D01*
X94445581Y-30553250D01*
X94450797Y-30574074D01*
X94453947Y-30595309D01*
X94455000Y-30616750D01*
X94455000Y-31054250D01*
X94453947Y-31075691D01*
X94450797Y-31096926D01*
X94445581Y-31117750D01*
X94438349Y-31137962D01*
X94429170Y-31157368D01*
X94418134Y-31175781D01*
X94405346Y-31193024D01*
X94390930Y-31208930D01*
X94375024Y-31223346D01*
X94357781Y-31236134D01*
X94339368Y-31247170D01*
X94319962Y-31256349D01*
X94299750Y-31263581D01*
X94278926Y-31268797D01*
X94257691Y-31271947D01*
X94236250Y-31273000D01*
X93723750Y-31273000D01*
X93702309Y-31271947D01*
X93681074Y-31268797D01*
X93660250Y-31263581D01*
X93640038Y-31256349D01*
X93620632Y-31247170D01*
X93602219Y-31236134D01*
X93584976Y-31223346D01*
X93569070Y-31208930D01*
X93554654Y-31193024D01*
X93541866Y-31175781D01*
X93530830Y-31157368D01*
X93521651Y-31137962D01*
X93514419Y-31117750D01*
X93509203Y-31096926D01*
X93506053Y-31075691D01*
X93505000Y-31054250D01*
X93505000Y-30616750D01*
X93506053Y-30595309D01*
X93509203Y-30574074D01*
X93514419Y-30553250D01*
X93521651Y-30533038D01*
X93530830Y-30513632D01*
X93541866Y-30495219D01*
X93554654Y-30477976D01*
X93569070Y-30462070D01*
X93584976Y-30447654D01*
X93602219Y-30434866D01*
X93620632Y-30423830D01*
X93640038Y-30414651D01*
X93660250Y-30407419D01*
X93681074Y-30402203D01*
X93702309Y-30399053D01*
X93723750Y-30398000D01*
X94236250Y-30398000D01*
X94257691Y-30399053D01*
X94257691Y-30399053D01*
G37*
D13*
X93980000Y-30835500D03*
D12*
G36*
X94257691Y-31974053D02*
X94278926Y-31977203D01*
X94299750Y-31982419D01*
X94319962Y-31989651D01*
X94339368Y-31998830D01*
X94357781Y-32009866D01*
X94375024Y-32022654D01*
X94390930Y-32037070D01*
X94405346Y-32052976D01*
X94418134Y-32070219D01*
X94429170Y-32088632D01*
X94438349Y-32108038D01*
X94445581Y-32128250D01*
X94450797Y-32149074D01*
X94453947Y-32170309D01*
X94455000Y-32191750D01*
X94455000Y-32629250D01*
X94453947Y-32650691D01*
X94450797Y-32671926D01*
X94445581Y-32692750D01*
X94438349Y-32712962D01*
X94429170Y-32732368D01*
X94418134Y-32750781D01*
X94405346Y-32768024D01*
X94390930Y-32783930D01*
X94375024Y-32798346D01*
X94357781Y-32811134D01*
X94339368Y-32822170D01*
X94319962Y-32831349D01*
X94299750Y-32838581D01*
X94278926Y-32843797D01*
X94257691Y-32846947D01*
X94236250Y-32848000D01*
X93723750Y-32848000D01*
X93702309Y-32846947D01*
X93681074Y-32843797D01*
X93660250Y-32838581D01*
X93640038Y-32831349D01*
X93620632Y-32822170D01*
X93602219Y-32811134D01*
X93584976Y-32798346D01*
X93569070Y-32783930D01*
X93554654Y-32768024D01*
X93541866Y-32750781D01*
X93530830Y-32732368D01*
X93521651Y-32712962D01*
X93514419Y-32692750D01*
X93509203Y-32671926D01*
X93506053Y-32650691D01*
X93505000Y-32629250D01*
X93505000Y-32191750D01*
X93506053Y-32170309D01*
X93509203Y-32149074D01*
X93514419Y-32128250D01*
X93521651Y-32108038D01*
X93530830Y-32088632D01*
X93541866Y-32070219D01*
X93554654Y-32052976D01*
X93569070Y-32037070D01*
X93584976Y-32022654D01*
X93602219Y-32009866D01*
X93620632Y-31998830D01*
X93640038Y-31989651D01*
X93660250Y-31982419D01*
X93681074Y-31977203D01*
X93702309Y-31974053D01*
X93723750Y-31973000D01*
X94236250Y-31973000D01*
X94257691Y-31974053D01*
X94257691Y-31974053D01*
G37*
D13*
X93980000Y-32410500D03*
G04 #@! TD*
D12*
G04 #@! TO.C,R135*
G36*
X70508691Y-34590053D02*
X70529926Y-34593203D01*
X70550750Y-34598419D01*
X70570962Y-34605651D01*
X70590368Y-34614830D01*
X70608781Y-34625866D01*
X70626024Y-34638654D01*
X70641930Y-34653070D01*
X70656346Y-34668976D01*
X70669134Y-34686219D01*
X70680170Y-34704632D01*
X70689349Y-34724038D01*
X70696581Y-34744250D01*
X70701797Y-34765074D01*
X70704947Y-34786309D01*
X70706000Y-34807750D01*
X70706000Y-35245250D01*
X70704947Y-35266691D01*
X70701797Y-35287926D01*
X70696581Y-35308750D01*
X70689349Y-35328962D01*
X70680170Y-35348368D01*
X70669134Y-35366781D01*
X70656346Y-35384024D01*
X70641930Y-35399930D01*
X70626024Y-35414346D01*
X70608781Y-35427134D01*
X70590368Y-35438170D01*
X70570962Y-35447349D01*
X70550750Y-35454581D01*
X70529926Y-35459797D01*
X70508691Y-35462947D01*
X70487250Y-35464000D01*
X69974750Y-35464000D01*
X69953309Y-35462947D01*
X69932074Y-35459797D01*
X69911250Y-35454581D01*
X69891038Y-35447349D01*
X69871632Y-35438170D01*
X69853219Y-35427134D01*
X69835976Y-35414346D01*
X69820070Y-35399930D01*
X69805654Y-35384024D01*
X69792866Y-35366781D01*
X69781830Y-35348368D01*
X69772651Y-35328962D01*
X69765419Y-35308750D01*
X69760203Y-35287926D01*
X69757053Y-35266691D01*
X69756000Y-35245250D01*
X69756000Y-34807750D01*
X69757053Y-34786309D01*
X69760203Y-34765074D01*
X69765419Y-34744250D01*
X69772651Y-34724038D01*
X69781830Y-34704632D01*
X69792866Y-34686219D01*
X69805654Y-34668976D01*
X69820070Y-34653070D01*
X69835976Y-34638654D01*
X69853219Y-34625866D01*
X69871632Y-34614830D01*
X69891038Y-34605651D01*
X69911250Y-34598419D01*
X69932074Y-34593203D01*
X69953309Y-34590053D01*
X69974750Y-34589000D01*
X70487250Y-34589000D01*
X70508691Y-34590053D01*
X70508691Y-34590053D01*
G37*
D13*
X70231000Y-35026500D03*
D12*
G36*
X70508691Y-36165053D02*
X70529926Y-36168203D01*
X70550750Y-36173419D01*
X70570962Y-36180651D01*
X70590368Y-36189830D01*
X70608781Y-36200866D01*
X70626024Y-36213654D01*
X70641930Y-36228070D01*
X70656346Y-36243976D01*
X70669134Y-36261219D01*
X70680170Y-36279632D01*
X70689349Y-36299038D01*
X70696581Y-36319250D01*
X70701797Y-36340074D01*
X70704947Y-36361309D01*
X70706000Y-36382750D01*
X70706000Y-36820250D01*
X70704947Y-36841691D01*
X70701797Y-36862926D01*
X70696581Y-36883750D01*
X70689349Y-36903962D01*
X70680170Y-36923368D01*
X70669134Y-36941781D01*
X70656346Y-36959024D01*
X70641930Y-36974930D01*
X70626024Y-36989346D01*
X70608781Y-37002134D01*
X70590368Y-37013170D01*
X70570962Y-37022349D01*
X70550750Y-37029581D01*
X70529926Y-37034797D01*
X70508691Y-37037947D01*
X70487250Y-37039000D01*
X69974750Y-37039000D01*
X69953309Y-37037947D01*
X69932074Y-37034797D01*
X69911250Y-37029581D01*
X69891038Y-37022349D01*
X69871632Y-37013170D01*
X69853219Y-37002134D01*
X69835976Y-36989346D01*
X69820070Y-36974930D01*
X69805654Y-36959024D01*
X69792866Y-36941781D01*
X69781830Y-36923368D01*
X69772651Y-36903962D01*
X69765419Y-36883750D01*
X69760203Y-36862926D01*
X69757053Y-36841691D01*
X69756000Y-36820250D01*
X69756000Y-36382750D01*
X69757053Y-36361309D01*
X69760203Y-36340074D01*
X69765419Y-36319250D01*
X69772651Y-36299038D01*
X69781830Y-36279632D01*
X69792866Y-36261219D01*
X69805654Y-36243976D01*
X69820070Y-36228070D01*
X69835976Y-36213654D01*
X69853219Y-36200866D01*
X69871632Y-36189830D01*
X69891038Y-36180651D01*
X69911250Y-36173419D01*
X69932074Y-36168203D01*
X69953309Y-36165053D01*
X69974750Y-36164000D01*
X70487250Y-36164000D01*
X70508691Y-36165053D01*
X70508691Y-36165053D01*
G37*
D13*
X70231000Y-36601500D03*
G04 #@! TD*
D12*
G04 #@! TO.C,R132*
G36*
X92860691Y-33193053D02*
X92881926Y-33196203D01*
X92902750Y-33201419D01*
X92922962Y-33208651D01*
X92942368Y-33217830D01*
X92960781Y-33228866D01*
X92978024Y-33241654D01*
X92993930Y-33256070D01*
X93008346Y-33271976D01*
X93021134Y-33289219D01*
X93032170Y-33307632D01*
X93041349Y-33327038D01*
X93048581Y-33347250D01*
X93053797Y-33368074D01*
X93056947Y-33389309D01*
X93058000Y-33410750D01*
X93058000Y-33848250D01*
X93056947Y-33869691D01*
X93053797Y-33890926D01*
X93048581Y-33911750D01*
X93041349Y-33931962D01*
X93032170Y-33951368D01*
X93021134Y-33969781D01*
X93008346Y-33987024D01*
X92993930Y-34002930D01*
X92978024Y-34017346D01*
X92960781Y-34030134D01*
X92942368Y-34041170D01*
X92922962Y-34050349D01*
X92902750Y-34057581D01*
X92881926Y-34062797D01*
X92860691Y-34065947D01*
X92839250Y-34067000D01*
X92326750Y-34067000D01*
X92305309Y-34065947D01*
X92284074Y-34062797D01*
X92263250Y-34057581D01*
X92243038Y-34050349D01*
X92223632Y-34041170D01*
X92205219Y-34030134D01*
X92187976Y-34017346D01*
X92172070Y-34002930D01*
X92157654Y-33987024D01*
X92144866Y-33969781D01*
X92133830Y-33951368D01*
X92124651Y-33931962D01*
X92117419Y-33911750D01*
X92112203Y-33890926D01*
X92109053Y-33869691D01*
X92108000Y-33848250D01*
X92108000Y-33410750D01*
X92109053Y-33389309D01*
X92112203Y-33368074D01*
X92117419Y-33347250D01*
X92124651Y-33327038D01*
X92133830Y-33307632D01*
X92144866Y-33289219D01*
X92157654Y-33271976D01*
X92172070Y-33256070D01*
X92187976Y-33241654D01*
X92205219Y-33228866D01*
X92223632Y-33217830D01*
X92243038Y-33208651D01*
X92263250Y-33201419D01*
X92284074Y-33196203D01*
X92305309Y-33193053D01*
X92326750Y-33192000D01*
X92839250Y-33192000D01*
X92860691Y-33193053D01*
X92860691Y-33193053D01*
G37*
D13*
X92583000Y-33629500D03*
D12*
G36*
X92860691Y-34768053D02*
X92881926Y-34771203D01*
X92902750Y-34776419D01*
X92922962Y-34783651D01*
X92942368Y-34792830D01*
X92960781Y-34803866D01*
X92978024Y-34816654D01*
X92993930Y-34831070D01*
X93008346Y-34846976D01*
X93021134Y-34864219D01*
X93032170Y-34882632D01*
X93041349Y-34902038D01*
X93048581Y-34922250D01*
X93053797Y-34943074D01*
X93056947Y-34964309D01*
X93058000Y-34985750D01*
X93058000Y-35423250D01*
X93056947Y-35444691D01*
X93053797Y-35465926D01*
X93048581Y-35486750D01*
X93041349Y-35506962D01*
X93032170Y-35526368D01*
X93021134Y-35544781D01*
X93008346Y-35562024D01*
X92993930Y-35577930D01*
X92978024Y-35592346D01*
X92960781Y-35605134D01*
X92942368Y-35616170D01*
X92922962Y-35625349D01*
X92902750Y-35632581D01*
X92881926Y-35637797D01*
X92860691Y-35640947D01*
X92839250Y-35642000D01*
X92326750Y-35642000D01*
X92305309Y-35640947D01*
X92284074Y-35637797D01*
X92263250Y-35632581D01*
X92243038Y-35625349D01*
X92223632Y-35616170D01*
X92205219Y-35605134D01*
X92187976Y-35592346D01*
X92172070Y-35577930D01*
X92157654Y-35562024D01*
X92144866Y-35544781D01*
X92133830Y-35526368D01*
X92124651Y-35506962D01*
X92117419Y-35486750D01*
X92112203Y-35465926D01*
X92109053Y-35444691D01*
X92108000Y-35423250D01*
X92108000Y-34985750D01*
X92109053Y-34964309D01*
X92112203Y-34943074D01*
X92117419Y-34922250D01*
X92124651Y-34902038D01*
X92133830Y-34882632D01*
X92144866Y-34864219D01*
X92157654Y-34846976D01*
X92172070Y-34831070D01*
X92187976Y-34816654D01*
X92205219Y-34803866D01*
X92223632Y-34792830D01*
X92243038Y-34783651D01*
X92263250Y-34776419D01*
X92284074Y-34771203D01*
X92305309Y-34768053D01*
X92326750Y-34767000D01*
X92839250Y-34767000D01*
X92860691Y-34768053D01*
X92860691Y-34768053D01*
G37*
D13*
X92583000Y-35204500D03*
G04 #@! TD*
D12*
G04 #@! TO.C,R134*
G36*
X70522191Y-32927053D02*
X70543426Y-32930203D01*
X70564250Y-32935419D01*
X70584462Y-32942651D01*
X70603868Y-32951830D01*
X70622281Y-32962866D01*
X70639524Y-32975654D01*
X70655430Y-32990070D01*
X70669846Y-33005976D01*
X70682634Y-33023219D01*
X70693670Y-33041632D01*
X70702849Y-33061038D01*
X70710081Y-33081250D01*
X70715297Y-33102074D01*
X70718447Y-33123309D01*
X70719500Y-33144750D01*
X70719500Y-33657250D01*
X70718447Y-33678691D01*
X70715297Y-33699926D01*
X70710081Y-33720750D01*
X70702849Y-33740962D01*
X70693670Y-33760368D01*
X70682634Y-33778781D01*
X70669846Y-33796024D01*
X70655430Y-33811930D01*
X70639524Y-33826346D01*
X70622281Y-33839134D01*
X70603868Y-33850170D01*
X70584462Y-33859349D01*
X70564250Y-33866581D01*
X70543426Y-33871797D01*
X70522191Y-33874947D01*
X70500750Y-33876000D01*
X70063250Y-33876000D01*
X70041809Y-33874947D01*
X70020574Y-33871797D01*
X69999750Y-33866581D01*
X69979538Y-33859349D01*
X69960132Y-33850170D01*
X69941719Y-33839134D01*
X69924476Y-33826346D01*
X69908570Y-33811930D01*
X69894154Y-33796024D01*
X69881366Y-33778781D01*
X69870330Y-33760368D01*
X69861151Y-33740962D01*
X69853919Y-33720750D01*
X69848703Y-33699926D01*
X69845553Y-33678691D01*
X69844500Y-33657250D01*
X69844500Y-33144750D01*
X69845553Y-33123309D01*
X69848703Y-33102074D01*
X69853919Y-33081250D01*
X69861151Y-33061038D01*
X69870330Y-33041632D01*
X69881366Y-33023219D01*
X69894154Y-33005976D01*
X69908570Y-32990070D01*
X69924476Y-32975654D01*
X69941719Y-32962866D01*
X69960132Y-32951830D01*
X69979538Y-32942651D01*
X69999750Y-32935419D01*
X70020574Y-32930203D01*
X70041809Y-32927053D01*
X70063250Y-32926000D01*
X70500750Y-32926000D01*
X70522191Y-32927053D01*
X70522191Y-32927053D01*
G37*
D13*
X70282000Y-33401000D03*
D12*
G36*
X68947191Y-32927053D02*
X68968426Y-32930203D01*
X68989250Y-32935419D01*
X69009462Y-32942651D01*
X69028868Y-32951830D01*
X69047281Y-32962866D01*
X69064524Y-32975654D01*
X69080430Y-32990070D01*
X69094846Y-33005976D01*
X69107634Y-33023219D01*
X69118670Y-33041632D01*
X69127849Y-33061038D01*
X69135081Y-33081250D01*
X69140297Y-33102074D01*
X69143447Y-33123309D01*
X69144500Y-33144750D01*
X69144500Y-33657250D01*
X69143447Y-33678691D01*
X69140297Y-33699926D01*
X69135081Y-33720750D01*
X69127849Y-33740962D01*
X69118670Y-33760368D01*
X69107634Y-33778781D01*
X69094846Y-33796024D01*
X69080430Y-33811930D01*
X69064524Y-33826346D01*
X69047281Y-33839134D01*
X69028868Y-33850170D01*
X69009462Y-33859349D01*
X68989250Y-33866581D01*
X68968426Y-33871797D01*
X68947191Y-33874947D01*
X68925750Y-33876000D01*
X68488250Y-33876000D01*
X68466809Y-33874947D01*
X68445574Y-33871797D01*
X68424750Y-33866581D01*
X68404538Y-33859349D01*
X68385132Y-33850170D01*
X68366719Y-33839134D01*
X68349476Y-33826346D01*
X68333570Y-33811930D01*
X68319154Y-33796024D01*
X68306366Y-33778781D01*
X68295330Y-33760368D01*
X68286151Y-33740962D01*
X68278919Y-33720750D01*
X68273703Y-33699926D01*
X68270553Y-33678691D01*
X68269500Y-33657250D01*
X68269500Y-33144750D01*
X68270553Y-33123309D01*
X68273703Y-33102074D01*
X68278919Y-33081250D01*
X68286151Y-33061038D01*
X68295330Y-33041632D01*
X68306366Y-33023219D01*
X68319154Y-33005976D01*
X68333570Y-32990070D01*
X68349476Y-32975654D01*
X68366719Y-32962866D01*
X68385132Y-32951830D01*
X68404538Y-32942651D01*
X68424750Y-32935419D01*
X68445574Y-32930203D01*
X68466809Y-32927053D01*
X68488250Y-32926000D01*
X68925750Y-32926000D01*
X68947191Y-32927053D01*
X68947191Y-32927053D01*
G37*
D13*
X68707000Y-33401000D03*
G04 #@! TD*
D12*
G04 #@! TO.C,R131*
G36*
X91336691Y-33980553D02*
X91357926Y-33983703D01*
X91378750Y-33988919D01*
X91398962Y-33996151D01*
X91418368Y-34005330D01*
X91436781Y-34016366D01*
X91454024Y-34029154D01*
X91469930Y-34043570D01*
X91484346Y-34059476D01*
X91497134Y-34076719D01*
X91508170Y-34095132D01*
X91517349Y-34114538D01*
X91524581Y-34134750D01*
X91529797Y-34155574D01*
X91532947Y-34176809D01*
X91534000Y-34198250D01*
X91534000Y-34635750D01*
X91532947Y-34657191D01*
X91529797Y-34678426D01*
X91524581Y-34699250D01*
X91517349Y-34719462D01*
X91508170Y-34738868D01*
X91497134Y-34757281D01*
X91484346Y-34774524D01*
X91469930Y-34790430D01*
X91454024Y-34804846D01*
X91436781Y-34817634D01*
X91418368Y-34828670D01*
X91398962Y-34837849D01*
X91378750Y-34845081D01*
X91357926Y-34850297D01*
X91336691Y-34853447D01*
X91315250Y-34854500D01*
X90802750Y-34854500D01*
X90781309Y-34853447D01*
X90760074Y-34850297D01*
X90739250Y-34845081D01*
X90719038Y-34837849D01*
X90699632Y-34828670D01*
X90681219Y-34817634D01*
X90663976Y-34804846D01*
X90648070Y-34790430D01*
X90633654Y-34774524D01*
X90620866Y-34757281D01*
X90609830Y-34738868D01*
X90600651Y-34719462D01*
X90593419Y-34699250D01*
X90588203Y-34678426D01*
X90585053Y-34657191D01*
X90584000Y-34635750D01*
X90584000Y-34198250D01*
X90585053Y-34176809D01*
X90588203Y-34155574D01*
X90593419Y-34134750D01*
X90600651Y-34114538D01*
X90609830Y-34095132D01*
X90620866Y-34076719D01*
X90633654Y-34059476D01*
X90648070Y-34043570D01*
X90663976Y-34029154D01*
X90681219Y-34016366D01*
X90699632Y-34005330D01*
X90719038Y-33996151D01*
X90739250Y-33988919D01*
X90760074Y-33983703D01*
X90781309Y-33980553D01*
X90802750Y-33979500D01*
X91315250Y-33979500D01*
X91336691Y-33980553D01*
X91336691Y-33980553D01*
G37*
D13*
X91059000Y-34417000D03*
D12*
G36*
X91336691Y-35555553D02*
X91357926Y-35558703D01*
X91378750Y-35563919D01*
X91398962Y-35571151D01*
X91418368Y-35580330D01*
X91436781Y-35591366D01*
X91454024Y-35604154D01*
X91469930Y-35618570D01*
X91484346Y-35634476D01*
X91497134Y-35651719D01*
X91508170Y-35670132D01*
X91517349Y-35689538D01*
X91524581Y-35709750D01*
X91529797Y-35730574D01*
X91532947Y-35751809D01*
X91534000Y-35773250D01*
X91534000Y-36210750D01*
X91532947Y-36232191D01*
X91529797Y-36253426D01*
X91524581Y-36274250D01*
X91517349Y-36294462D01*
X91508170Y-36313868D01*
X91497134Y-36332281D01*
X91484346Y-36349524D01*
X91469930Y-36365430D01*
X91454024Y-36379846D01*
X91436781Y-36392634D01*
X91418368Y-36403670D01*
X91398962Y-36412849D01*
X91378750Y-36420081D01*
X91357926Y-36425297D01*
X91336691Y-36428447D01*
X91315250Y-36429500D01*
X90802750Y-36429500D01*
X90781309Y-36428447D01*
X90760074Y-36425297D01*
X90739250Y-36420081D01*
X90719038Y-36412849D01*
X90699632Y-36403670D01*
X90681219Y-36392634D01*
X90663976Y-36379846D01*
X90648070Y-36365430D01*
X90633654Y-36349524D01*
X90620866Y-36332281D01*
X90609830Y-36313868D01*
X90600651Y-36294462D01*
X90593419Y-36274250D01*
X90588203Y-36253426D01*
X90585053Y-36232191D01*
X90584000Y-36210750D01*
X90584000Y-35773250D01*
X90585053Y-35751809D01*
X90588203Y-35730574D01*
X90593419Y-35709750D01*
X90600651Y-35689538D01*
X90609830Y-35670132D01*
X90620866Y-35651719D01*
X90633654Y-35634476D01*
X90648070Y-35618570D01*
X90663976Y-35604154D01*
X90681219Y-35591366D01*
X90699632Y-35580330D01*
X90719038Y-35571151D01*
X90739250Y-35563919D01*
X90760074Y-35558703D01*
X90781309Y-35555553D01*
X90802750Y-35554500D01*
X91315250Y-35554500D01*
X91336691Y-35555553D01*
X91336691Y-35555553D01*
G37*
D13*
X91059000Y-35992000D03*
G04 #@! TD*
D12*
G04 #@! TO.C,R122*
G36*
X118769191Y-71408053D02*
X118790426Y-71411203D01*
X118811250Y-71416419D01*
X118831462Y-71423651D01*
X118850868Y-71432830D01*
X118869281Y-71443866D01*
X118886524Y-71456654D01*
X118902430Y-71471070D01*
X118916846Y-71486976D01*
X118929634Y-71504219D01*
X118940670Y-71522632D01*
X118949849Y-71542038D01*
X118957081Y-71562250D01*
X118962297Y-71583074D01*
X118965447Y-71604309D01*
X118966500Y-71625750D01*
X118966500Y-72138250D01*
X118965447Y-72159691D01*
X118962297Y-72180926D01*
X118957081Y-72201750D01*
X118949849Y-72221962D01*
X118940670Y-72241368D01*
X118929634Y-72259781D01*
X118916846Y-72277024D01*
X118902430Y-72292930D01*
X118886524Y-72307346D01*
X118869281Y-72320134D01*
X118850868Y-72331170D01*
X118831462Y-72340349D01*
X118811250Y-72347581D01*
X118790426Y-72352797D01*
X118769191Y-72355947D01*
X118747750Y-72357000D01*
X118310250Y-72357000D01*
X118288809Y-72355947D01*
X118267574Y-72352797D01*
X118246750Y-72347581D01*
X118226538Y-72340349D01*
X118207132Y-72331170D01*
X118188719Y-72320134D01*
X118171476Y-72307346D01*
X118155570Y-72292930D01*
X118141154Y-72277024D01*
X118128366Y-72259781D01*
X118117330Y-72241368D01*
X118108151Y-72221962D01*
X118100919Y-72201750D01*
X118095703Y-72180926D01*
X118092553Y-72159691D01*
X118091500Y-72138250D01*
X118091500Y-71625750D01*
X118092553Y-71604309D01*
X118095703Y-71583074D01*
X118100919Y-71562250D01*
X118108151Y-71542038D01*
X118117330Y-71522632D01*
X118128366Y-71504219D01*
X118141154Y-71486976D01*
X118155570Y-71471070D01*
X118171476Y-71456654D01*
X118188719Y-71443866D01*
X118207132Y-71432830D01*
X118226538Y-71423651D01*
X118246750Y-71416419D01*
X118267574Y-71411203D01*
X118288809Y-71408053D01*
X118310250Y-71407000D01*
X118747750Y-71407000D01*
X118769191Y-71408053D01*
X118769191Y-71408053D01*
G37*
D13*
X118529000Y-71882000D03*
D12*
G36*
X120344191Y-71408053D02*
X120365426Y-71411203D01*
X120386250Y-71416419D01*
X120406462Y-71423651D01*
X120425868Y-71432830D01*
X120444281Y-71443866D01*
X120461524Y-71456654D01*
X120477430Y-71471070D01*
X120491846Y-71486976D01*
X120504634Y-71504219D01*
X120515670Y-71522632D01*
X120524849Y-71542038D01*
X120532081Y-71562250D01*
X120537297Y-71583074D01*
X120540447Y-71604309D01*
X120541500Y-71625750D01*
X120541500Y-72138250D01*
X120540447Y-72159691D01*
X120537297Y-72180926D01*
X120532081Y-72201750D01*
X120524849Y-72221962D01*
X120515670Y-72241368D01*
X120504634Y-72259781D01*
X120491846Y-72277024D01*
X120477430Y-72292930D01*
X120461524Y-72307346D01*
X120444281Y-72320134D01*
X120425868Y-72331170D01*
X120406462Y-72340349D01*
X120386250Y-72347581D01*
X120365426Y-72352797D01*
X120344191Y-72355947D01*
X120322750Y-72357000D01*
X119885250Y-72357000D01*
X119863809Y-72355947D01*
X119842574Y-72352797D01*
X119821750Y-72347581D01*
X119801538Y-72340349D01*
X119782132Y-72331170D01*
X119763719Y-72320134D01*
X119746476Y-72307346D01*
X119730570Y-72292930D01*
X119716154Y-72277024D01*
X119703366Y-72259781D01*
X119692330Y-72241368D01*
X119683151Y-72221962D01*
X119675919Y-72201750D01*
X119670703Y-72180926D01*
X119667553Y-72159691D01*
X119666500Y-72138250D01*
X119666500Y-71625750D01*
X119667553Y-71604309D01*
X119670703Y-71583074D01*
X119675919Y-71562250D01*
X119683151Y-71542038D01*
X119692330Y-71522632D01*
X119703366Y-71504219D01*
X119716154Y-71486976D01*
X119730570Y-71471070D01*
X119746476Y-71456654D01*
X119763719Y-71443866D01*
X119782132Y-71432830D01*
X119801538Y-71423651D01*
X119821750Y-71416419D01*
X119842574Y-71411203D01*
X119863809Y-71408053D01*
X119885250Y-71407000D01*
X120322750Y-71407000D01*
X120344191Y-71408053D01*
X120344191Y-71408053D01*
G37*
D13*
X120104000Y-71882000D03*
G04 #@! TD*
D14*
G04 #@! TO.C,C503*
X103822500Y-72580500D03*
X105822500Y-72580500D03*
G04 #@! TD*
D15*
G04 #@! TO.C,FL101*
X82931000Y-76200000D03*
X76711000Y-76200000D03*
X82931000Y-83820000D03*
X76711000Y-83820000D03*
G04 #@! TD*
D16*
G04 #@! TO.C,C201*
X78407000Y-73279000D03*
X81407000Y-73279000D03*
G04 #@! TD*
D17*
G04 #@! TO.C,C318*
X127623000Y-24511000D03*
X126123000Y-24511000D03*
G04 #@! TD*
D14*
G04 #@! TO.C,C505*
X106775000Y-82296000D03*
X104775000Y-82296000D03*
G04 #@! TD*
D17*
G04 #@! TO.C,C801*
X116471000Y-49276000D03*
X117971000Y-49276000D03*
G04 #@! TD*
G04 #@! TO.C,C802*
X116193000Y-59944000D03*
X114693000Y-59944000D03*
G04 #@! TD*
D18*
G04 #@! TO.C,C803*
X115062000Y-67703000D03*
X115062000Y-69203000D03*
G04 #@! TD*
D17*
G04 #@! TO.C,C901*
X75716000Y-62230000D03*
X77216000Y-62230000D03*
G04 #@! TD*
G04 #@! TO.C,C1101*
X83935000Y-60325000D03*
X82435000Y-60325000D03*
G04 #@! TD*
G04 #@! TO.C,C1102*
X83935000Y-59055000D03*
X82435000Y-59055000D03*
G04 #@! TD*
G04 #@! TO.C,C1103*
X93357000Y-58801000D03*
X94857000Y-58801000D03*
G04 #@! TD*
G04 #@! TO.C,C1104*
X93357000Y-60325000D03*
X94857000Y-60325000D03*
G04 #@! TD*
G04 #@! TO.C,C1105*
X83935000Y-62865000D03*
X82435000Y-62865000D03*
G04 #@! TD*
G04 #@! TO.C,C1106*
X83935000Y-56515000D03*
X82435000Y-56515000D03*
G04 #@! TD*
G04 #@! TO.C,C1107*
X93357000Y-56261000D03*
X94857000Y-56261000D03*
G04 #@! TD*
G04 #@! TO.C,C1108*
X93357000Y-62865000D03*
X94857000Y-62865000D03*
G04 #@! TD*
D15*
G04 #@! TO.C,FL102*
X92961000Y-76200000D03*
X86741000Y-76200000D03*
X92961000Y-83820000D03*
X86741000Y-83820000D03*
G04 #@! TD*
D19*
G04 #@! TO.C,Q503*
X102296000Y-78105000D03*
X102296000Y-76835000D03*
X102296000Y-75565000D03*
X102296000Y-74295000D03*
X107696000Y-74295000D03*
X107696000Y-75565000D03*
X107696000Y-76835000D03*
X107696000Y-78105000D03*
G04 #@! TD*
D20*
G04 #@! TO.C,Q801*
X127506000Y-47470000D03*
X127506000Y-46620000D03*
X127506000Y-48320000D03*
X129806000Y-47470000D03*
X129806000Y-46620000D03*
X129806000Y-48320000D03*
X128656000Y-48320000D03*
X128656000Y-46620000D03*
D21*
X126776000Y-50170000D03*
X130536000Y-50170000D03*
X128056000Y-50170000D03*
D22*
X128016000Y-44450000D03*
X126746000Y-44450000D03*
X129296000Y-44450000D03*
X130566000Y-44450000D03*
D21*
X129256000Y-50170000D03*
D20*
X128656000Y-47470000D03*
G04 #@! TD*
G04 #@! TO.C,Q802*
X127506000Y-58265000D03*
X127506000Y-57415000D03*
X127506000Y-59115000D03*
X129806000Y-58265000D03*
X129806000Y-57415000D03*
X129806000Y-59115000D03*
X128656000Y-59115000D03*
X128656000Y-57415000D03*
D21*
X126776000Y-60965000D03*
X130536000Y-60965000D03*
X128056000Y-60965000D03*
D22*
X128016000Y-55245000D03*
X126746000Y-55245000D03*
X129296000Y-55245000D03*
X130566000Y-55245000D03*
D21*
X129256000Y-60965000D03*
D20*
X128656000Y-58265000D03*
G04 #@! TD*
G04 #@! TO.C,Q803*
X127496000Y-69695000D03*
X127496000Y-68845000D03*
X127496000Y-70545000D03*
X129796000Y-69695000D03*
X129796000Y-68845000D03*
X129796000Y-70545000D03*
X128646000Y-70545000D03*
X128646000Y-68845000D03*
D21*
X126766000Y-72395000D03*
X130526000Y-72395000D03*
X128046000Y-72395000D03*
D22*
X128006000Y-66675000D03*
X126736000Y-66675000D03*
X129286000Y-66675000D03*
X130556000Y-66675000D03*
D21*
X129246000Y-72395000D03*
D20*
X128646000Y-69695000D03*
G04 #@! TD*
D23*
G04 #@! TO.C,R111*
X95885000Y-48895000D03*
X95885000Y-47395000D03*
G04 #@! TD*
D24*
G04 #@! TO.C,R1101*
X85483000Y-63627000D03*
X86983000Y-63627000D03*
G04 #@! TD*
G04 #@! TO.C,R1102*
X83082000Y-55118000D03*
X84582000Y-55118000D03*
G04 #@! TD*
D23*
G04 #@! TO.C,R1103*
X96393000Y-57797000D03*
X96393000Y-59297000D03*
G04 #@! TD*
G04 #@! TO.C,R1104*
X96393000Y-61837000D03*
X96393000Y-60337000D03*
G04 #@! TD*
D24*
G04 #@! TO.C,R1105*
X83935000Y-61595000D03*
X82435000Y-61595000D03*
G04 #@! TD*
G04 #@! TO.C,R1106*
X83935000Y-57785000D03*
X82435000Y-57785000D03*
G04 #@! TD*
G04 #@! TO.C,R1107*
X93357000Y-57531000D03*
X94857000Y-57531000D03*
G04 #@! TD*
G04 #@! TO.C,R1108*
X93357000Y-61595000D03*
X94857000Y-61595000D03*
G04 #@! TD*
D25*
G04 #@! TO.C,U102*
X93632000Y-37973000D03*
X93632000Y-39243000D03*
X93632000Y-40513000D03*
X93632000Y-41783000D03*
X93632000Y-43053000D03*
X93632000Y-44323000D03*
X93632000Y-45593000D03*
X93632000Y-46863000D03*
X88232000Y-46863000D03*
X88232000Y-45593000D03*
X88232000Y-44323000D03*
X88232000Y-43053000D03*
X88232000Y-41783000D03*
X88232000Y-40513000D03*
X88232000Y-39243000D03*
X88232000Y-37973000D03*
G04 #@! TD*
D19*
G04 #@! TO.C,U303*
X115095000Y-50546000D03*
X115095000Y-51816000D03*
X115095000Y-53086000D03*
X115095000Y-54356000D03*
X109695000Y-54356000D03*
X109695000Y-53086000D03*
X109695000Y-51816000D03*
X109695000Y-50546000D03*
G04 #@! TD*
D26*
G04 #@! TO.C,U601*
X56896000Y-63169000D03*
X55626000Y-63169000D03*
X55626000Y-69469000D03*
X56896000Y-69469000D03*
G04 #@! TD*
G04 #@! TO.C,U602*
X53721000Y-63169000D03*
X52451000Y-63169000D03*
X52451000Y-69469000D03*
X53721000Y-69469000D03*
G04 #@! TD*
G04 #@! TO.C,U603*
X60071000Y-63169000D03*
X58801000Y-63169000D03*
X58801000Y-69469000D03*
X60071000Y-69469000D03*
G04 #@! TD*
D19*
G04 #@! TO.C,U801*
X124206000Y-43180000D03*
X124206000Y-44450000D03*
X124206000Y-45720000D03*
X124206000Y-46990000D03*
X118806000Y-46990000D03*
X118806000Y-45720000D03*
X118806000Y-44450000D03*
X118806000Y-43180000D03*
G04 #@! TD*
G04 #@! TO.C,U802*
X124206000Y-53975000D03*
X124206000Y-55245000D03*
X124206000Y-56515000D03*
X124206000Y-57785000D03*
X118806000Y-57785000D03*
X118806000Y-56515000D03*
X118806000Y-55245000D03*
X118806000Y-53975000D03*
G04 #@! TD*
G04 #@! TO.C,U803*
X124206000Y-65405000D03*
X124206000Y-66675000D03*
X124206000Y-67945000D03*
X124206000Y-69215000D03*
X118806000Y-69215000D03*
X118806000Y-67945000D03*
X118806000Y-66675000D03*
X118806000Y-65405000D03*
G04 #@! TD*
D27*
G04 #@! TO.C,U901*
X71316000Y-60975000D03*
X71316000Y-60325000D03*
X71316000Y-59675000D03*
X71316000Y-59025000D03*
X71316000Y-58375000D03*
X71316000Y-57725000D03*
X71316000Y-57075000D03*
X71316000Y-56425000D03*
X71316000Y-55775000D03*
X71316000Y-55125000D03*
X77216000Y-55125000D03*
X77216000Y-55775000D03*
X77216000Y-56425000D03*
X77216000Y-57075000D03*
X77216000Y-57725000D03*
X77216000Y-58375000D03*
X77216000Y-59025000D03*
X77216000Y-59675000D03*
X77216000Y-60325000D03*
X77216000Y-60975000D03*
G04 #@! TD*
G04 #@! TO.C,U1101*
X85667000Y-61655000D03*
X85667000Y-61005000D03*
X85667000Y-60355000D03*
X85667000Y-59705000D03*
X85667000Y-59055000D03*
X85667000Y-58405000D03*
X85667000Y-57755000D03*
X91567000Y-57755000D03*
X91567000Y-58405000D03*
X91567000Y-59055000D03*
X91567000Y-59705000D03*
X91567000Y-60355000D03*
X91567000Y-61005000D03*
X91567000Y-61655000D03*
G04 #@! TD*
D28*
G04 #@! TO.C,L501*
X110490000Y-76454000D03*
X117390000Y-76454000D03*
G04 #@! TD*
D23*
G04 #@! TO.C,R116*
X70104000Y-30226000D03*
X70104000Y-31726000D03*
G04 #@! TD*
G04 #@! TO.C,R118*
X133096000Y-25920000D03*
X133096000Y-27420000D03*
G04 #@! TD*
G04 #@! TO.C,R120*
X109728000Y-57634000D03*
X109728000Y-56134000D03*
G04 #@! TD*
D17*
G04 #@! TO.C,C109*
X91452000Y-48133000D03*
X92952000Y-48133000D03*
G04 #@! TD*
D23*
G04 #@! TO.C,R607*
X58928000Y-76327000D03*
X58928000Y-74827000D03*
G04 #@! TD*
D18*
G04 #@! TO.C,C319*
X107823000Y-52717000D03*
X107823000Y-54217000D03*
G04 #@! TD*
G04 #@! TO.C,C804*
X117094000Y-45986000D03*
X117094000Y-47486000D03*
G04 #@! TD*
G04 #@! TO.C,C805*
X117094000Y-56781000D03*
X117094000Y-58281000D03*
G04 #@! TD*
G04 #@! TO.C,C806*
X117094000Y-67703000D03*
X117094000Y-69203000D03*
G04 #@! TD*
G04 #@! TO.C,C114*
X98044000Y-59309000D03*
X98044000Y-57809000D03*
G04 #@! TD*
G04 #@! TO.C,C117*
X99441000Y-59297000D03*
X99441000Y-57797000D03*
G04 #@! TD*
D24*
G04 #@! TO.C,R126*
X89130000Y-71374000D03*
X87630000Y-71374000D03*
G04 #@! TD*
D29*
G04 #@! TO.C,C206*
X60007500Y-80264000D03*
X55407500Y-80264000D03*
G04 #@! TD*
D14*
G04 #@! TO.C,C301*
X103000000Y-50250000D03*
X101000000Y-50250000D03*
G04 #@! TD*
D17*
G04 #@! TO.C,C506*
X106870500Y-80708500D03*
X105370500Y-80708500D03*
G04 #@! TD*
G04 #@! TO.C,C508*
X102413500Y-72580500D03*
X100913500Y-72580500D03*
G04 #@! TD*
D18*
G04 #@! TO.C,C910*
X79311500Y-60642500D03*
X79311500Y-62142500D03*
G04 #@! TD*
D17*
G04 #@! TO.C,C911*
X76962000Y-53848000D03*
X75462000Y-53848000D03*
G04 #@! TD*
D18*
G04 #@! TO.C,C912*
X80645000Y-60642500D03*
X80645000Y-62142500D03*
G04 #@! TD*
D17*
G04 #@! TO.C,C913*
X79692500Y-57277000D03*
X81192500Y-57277000D03*
G04 #@! TD*
G04 #@! TO.C,C914*
X79629000Y-55880000D03*
X81129000Y-55880000D03*
G04 #@! TD*
G04 #@! TO.C,C915*
X79629000Y-54610000D03*
X81129000Y-54610000D03*
G04 #@! TD*
D18*
G04 #@! TO.C,C916*
X72593000Y-53848000D03*
X72593000Y-52348000D03*
G04 #@! TD*
D30*
G04 #@! TO.C,D305*
X121729500Y-36703000D03*
X126029500Y-36703000D03*
G04 #@! TD*
D31*
G04 #@! TO.C,R507*
X113528500Y-82042000D03*
X108648500Y-82042000D03*
G04 #@! TD*
D32*
G04 #@! TO.C,R601*
X56832500Y-61468000D03*
X56832500Y-58568000D03*
G04 #@! TD*
G04 #@! TO.C,R602*
X54610000Y-61468000D03*
X54610000Y-58568000D03*
G04 #@! TD*
G04 #@! TO.C,R603*
X59055000Y-61468000D03*
X59055000Y-58568000D03*
G04 #@! TD*
D33*
G04 #@! TO.C,R604*
X57605000Y-71564500D03*
X60505000Y-71564500D03*
G04 #@! TD*
G04 #@! TO.C,R605*
X50810500Y-71437500D03*
X53710500Y-71437500D03*
G04 #@! TD*
D34*
G04 #@! TO.C,R606*
X54473695Y-76018805D03*
D12*
G36*
X54756538Y-76938044D02*
X53554456Y-75735962D01*
X54190852Y-75099566D01*
X55392934Y-76301648D01*
X54756538Y-76938044D01*
X54756538Y-76938044D01*
G37*
D34*
X56524305Y-73968195D03*
D12*
G36*
X56807148Y-74887434D02*
X55605066Y-73685352D01*
X56241462Y-73048956D01*
X57443544Y-74251038D01*
X56807148Y-74887434D01*
X56807148Y-74887434D01*
G37*
G04 #@! TD*
D35*
G04 #@! TO.C,C118*
X70850500Y-73723500D03*
X73850500Y-73723500D03*
G04 #@! TD*
D36*
G04 #@! TO.C,C119*
X74041000Y-75962000D03*
X74041000Y-77962000D03*
G04 #@! TD*
D37*
G04 #@! TO.C,C120*
X111756000Y-38036500D03*
X117856000Y-38036500D03*
G04 #@! TD*
D18*
G04 #@! TO.C,C107*
X69024500Y-43549000D03*
X69024500Y-42049000D03*
G04 #@! TD*
D17*
G04 #@! TO.C,C121*
X68973000Y-38163500D03*
X70473000Y-38163500D03*
G04 #@! TD*
D23*
G04 #@! TO.C,R119*
X70485000Y-43537000D03*
X70485000Y-42037000D03*
G04 #@! TD*
D24*
G04 #@! TO.C,R121*
X68921500Y-39624000D03*
X70421500Y-39624000D03*
G04 #@! TD*
D38*
G04 #@! TO.C,Q103*
X92694000Y-25059600D03*
X92694000Y-26959600D03*
X90694000Y-26009600D03*
G04 #@! TD*
D24*
G04 #@! TO.C,R129*
X92061600Y-28498800D03*
X93561600Y-28498800D03*
G04 #@! TD*
D23*
G04 #@! TO.C,R130*
X92329000Y-30619000D03*
X92329000Y-32119000D03*
G04 #@! TD*
M02*
