G04 #@! TF.FileFunction,Copper,L2,Bot,Signal*
%FSLAX46Y46*%
G04 Gerber Fmt 4.6, Leading zero omitted, Abs format (unit mm)*
G04 Created by KiCad (PCBNEW 4.0.6) date Fri Oct 27 03:40:12 2017*
%MOMM*%
%LPD*%
G01*
G04 APERTURE LIST*
%ADD10C,0.100000*%
%ADD11R,1.700000X1.700000*%
%ADD12O,1.700000X1.700000*%
%ADD13C,0.500000*%
%ADD14C,0.600000*%
%ADD15C,0.500000*%
%ADD16C,0.600000*%
G04 APERTURE END LIST*
D10*
D11*
X60960000Y-40005000D03*
D12*
X63500000Y-40005000D03*
X66040000Y-40005000D03*
X68580000Y-40005000D03*
D13*
X66040000Y-47625000D03*
X69850000Y-45720000D03*
D14*
X63246000Y-42291000D03*
D13*
X68580000Y-45720000D03*
D14*
X66294000Y-44323000D03*
D13*
X67945000Y-46355000D03*
D14*
X64262000Y-44323000D03*
D13*
X66040000Y-46355000D03*
D14*
X62230000Y-44323000D03*
D15*
X66040000Y-47625000D02*
X67945000Y-47625000D01*
X67945000Y-47625000D02*
X69850000Y-45720000D01*
X69850000Y-45720000D02*
X66421000Y-42291000D01*
X66421000Y-42291000D02*
X65786000Y-42291000D01*
D16*
X63500000Y-42037000D02*
X63500000Y-40005000D01*
X63246000Y-42291000D02*
X63500000Y-42037000D01*
X63246000Y-42291000D02*
X65786000Y-42291000D01*
D15*
X68580000Y-45720000D02*
X67183000Y-44323000D01*
X67183000Y-44323000D02*
X66294000Y-44323000D01*
X67945000Y-46355000D02*
X66929000Y-45339000D01*
X66929000Y-45339000D02*
X65786000Y-45339000D01*
D16*
X65278000Y-45339000D02*
X65786000Y-45339000D01*
X64262000Y-44323000D02*
X65278000Y-45339000D01*
D15*
X66040000Y-46355000D02*
X65278000Y-46355000D01*
D16*
X64262000Y-46355000D02*
X65278000Y-46355000D01*
X62230000Y-44323000D02*
X64262000Y-46355000D01*
M02*
