G04 #@! TF.FileFunction,Copper,L1,Top,Signal*
%FSLAX46Y46*%
G04 Gerber Fmt 4.6, Leading zero omitted, Abs format (unit mm)*
G04 Created by KiCad (PCBNEW 4.0.6) date Fri Jul 21 16:03:20 2017*
%MOMM*%
%LPD*%
G01*
G04 APERTURE LIST*
%ADD10C,0.100000*%
%ADD11R,1.550000X0.600000*%
%ADD12R,1.700000X1.700000*%
%ADD13O,1.700000X1.700000*%
%ADD14R,1.200000X0.750000*%
%ADD15R,0.762000X0.508000*%
%ADD16C,0.600000*%
%ADD17C,0.600000*%
G04 APERTURE END LIST*
D10*
D11*
X70706000Y-46990000D03*
X70706000Y-48260000D03*
X70706000Y-49530000D03*
X70706000Y-50800000D03*
X76106000Y-50800000D03*
X76106000Y-49530000D03*
X76106000Y-48260000D03*
X76106000Y-46990000D03*
D12*
X60960000Y-40005000D03*
D13*
X63500000Y-40005000D03*
X66040000Y-40005000D03*
X68580000Y-40005000D03*
D14*
X72456000Y-53467000D03*
X74356000Y-53467000D03*
D15*
X65278000Y-44323000D03*
X65278000Y-45034200D03*
X65278000Y-43611800D03*
X63246000Y-44323000D03*
X63246000Y-45034200D03*
X63246000Y-43611800D03*
X61214000Y-44323000D03*
X61214000Y-45034200D03*
X61214000Y-43611800D03*
D16*
X77978000Y-46355000D03*
X63246000Y-42291000D03*
X74422000Y-47371000D03*
X66294000Y-44323000D03*
X73406000Y-48387000D03*
X64262000Y-44323000D03*
X72390000Y-49403000D03*
X62230000Y-44323000D03*
D17*
X77978000Y-46355000D02*
X77978000Y-47371000D01*
X63246000Y-43611800D02*
X63246000Y-42291000D01*
X61214000Y-43611800D02*
X61214000Y-42291000D01*
X65278000Y-42291000D02*
X65278000Y-43622998D01*
X61214000Y-42291000D02*
X65278000Y-42291000D01*
X65278000Y-43622998D02*
X65278000Y-43611800D01*
X76106000Y-46990000D02*
X77597000Y-46990000D01*
X77597000Y-46990000D02*
X77978000Y-47371000D01*
X77470000Y-53467000D02*
X74356000Y-53467000D01*
X77978000Y-47371000D02*
X77978000Y-52959000D01*
X77978000Y-52959000D02*
X77470000Y-53467000D01*
X60960000Y-40005000D02*
X60960000Y-41021000D01*
X59690000Y-46355000D02*
X61214000Y-46355000D01*
X59690000Y-42291000D02*
X59690000Y-46355000D01*
X60960000Y-41021000D02*
X59690000Y-42291000D01*
X68834000Y-51435000D02*
X68834000Y-49911000D01*
X68834000Y-49911000D02*
X65278000Y-46355000D01*
X63246000Y-45034200D02*
X63246000Y-46355000D01*
X65278000Y-46355000D02*
X63246000Y-46355000D01*
X63246000Y-46355000D02*
X61214000Y-46355000D01*
X61214000Y-46355000D02*
X61214000Y-45034200D01*
X65278000Y-46355000D02*
X65278000Y-45034200D01*
X70706000Y-50800000D02*
X68961000Y-50800000D01*
X69342000Y-53467000D02*
X72456000Y-53467000D01*
X68834000Y-52959000D02*
X69342000Y-53467000D01*
X68834000Y-50927000D02*
X68834000Y-51435000D01*
X68834000Y-51435000D02*
X68834000Y-52959000D01*
X68961000Y-50800000D02*
X68834000Y-50927000D01*
X68580000Y-40005000D02*
X68580000Y-46101000D01*
X69469000Y-46990000D02*
X70706000Y-46990000D01*
X68580000Y-46101000D02*
X69469000Y-46990000D01*
X66040000Y-40005000D02*
X66040000Y-41021000D01*
X69215000Y-48260000D02*
X70706000Y-48260000D01*
X67310000Y-46355000D02*
X69215000Y-48260000D01*
X67310000Y-42291000D02*
X67310000Y-46355000D01*
X66040000Y-41021000D02*
X67310000Y-42291000D01*
X65278000Y-44323000D02*
X66294000Y-44323000D01*
X75311000Y-48260000D02*
X76106000Y-48260000D01*
X74422000Y-47371000D02*
X75311000Y-48260000D01*
X63246000Y-44323000D02*
X64262000Y-44323000D01*
X74549000Y-49530000D02*
X76106000Y-49530000D01*
X73406000Y-48387000D02*
X74549000Y-49530000D01*
X61214000Y-44323000D02*
X62230000Y-44323000D01*
X73787000Y-50800000D02*
X76106000Y-50800000D01*
X72390000Y-49403000D02*
X73787000Y-50800000D01*
M02*
