G04 #@! TF.FileFunction,Legend,Top*
%FSLAX46Y46*%
G04 Gerber Fmt 4.6, Leading zero omitted, Abs format (unit mm)*
G04 Created by KiCad (PCBNEW 4.0.6) date Fri Jul 21 16:03:20 2017*
%MOMM*%
%LPD*%
G01*
G04 APERTURE LIST*
%ADD10C,0.100000*%
%ADD11C,0.200000*%
%ADD12C,0.150000*%
%ADD13C,0.120000*%
%ADD14C,0.127000*%
G04 APERTURE END LIST*
D10*
D11*
X130699714Y-104473524D02*
X130656857Y-104616381D01*
X130656857Y-104854477D01*
X130699714Y-104949715D01*
X130742571Y-104997334D01*
X130828286Y-105044953D01*
X130914000Y-105044953D01*
X130999714Y-104997334D01*
X131042571Y-104949715D01*
X131085429Y-104854477D01*
X131128286Y-104664000D01*
X131171143Y-104568762D01*
X131214000Y-104521143D01*
X131299714Y-104473524D01*
X131385429Y-104473524D01*
X131471143Y-104521143D01*
X131514000Y-104568762D01*
X131556857Y-104664000D01*
X131556857Y-104902096D01*
X131514000Y-105044953D01*
X130742571Y-106044953D02*
X130699714Y-105997334D01*
X130656857Y-105854477D01*
X130656857Y-105759239D01*
X130699714Y-105616381D01*
X130785429Y-105521143D01*
X130871143Y-105473524D01*
X131042571Y-105425905D01*
X131171143Y-105425905D01*
X131342571Y-105473524D01*
X131428286Y-105521143D01*
X131514000Y-105616381D01*
X131556857Y-105759239D01*
X131556857Y-105854477D01*
X131514000Y-105997334D01*
X131471143Y-106044953D01*
X130656857Y-106949715D02*
X130656857Y-106473524D01*
X131556857Y-106473524D01*
X133707238Y-104449714D02*
X133659619Y-104592571D01*
X133659619Y-104830667D01*
X133707238Y-104925905D01*
X133754857Y-104973524D01*
X133850095Y-105021143D01*
X133945333Y-105021143D01*
X134040571Y-104973524D01*
X134088190Y-104925905D01*
X134135810Y-104830667D01*
X134183429Y-104640190D01*
X134231048Y-104544952D01*
X134278667Y-104497333D01*
X134373905Y-104449714D01*
X134469143Y-104449714D01*
X134564381Y-104497333D01*
X134612000Y-104544952D01*
X134659619Y-104640190D01*
X134659619Y-104878286D01*
X134612000Y-105021143D01*
X133659619Y-105449714D02*
X134659619Y-105449714D01*
X134659619Y-105687809D01*
X134612000Y-105830667D01*
X134516762Y-105925905D01*
X134421524Y-105973524D01*
X134231048Y-106021143D01*
X134088190Y-106021143D01*
X133897714Y-105973524D01*
X133802476Y-105925905D01*
X133707238Y-105830667D01*
X133659619Y-105687809D01*
X133659619Y-105449714D01*
X133945333Y-106402095D02*
X133945333Y-106878286D01*
X133659619Y-106306857D02*
X134659619Y-106640190D01*
X133659619Y-106973524D01*
X127500000Y-104902096D02*
X127547619Y-104806858D01*
X127547619Y-104664001D01*
X127500000Y-104521143D01*
X127404762Y-104425905D01*
X127309524Y-104378286D01*
X127119048Y-104330667D01*
X126976190Y-104330667D01*
X126785714Y-104378286D01*
X126690476Y-104425905D01*
X126595238Y-104521143D01*
X126547619Y-104664001D01*
X126547619Y-104759239D01*
X126595238Y-104902096D01*
X126642857Y-104949715D01*
X126976190Y-104949715D01*
X126976190Y-104759239D01*
X126547619Y-105378286D02*
X127547619Y-105378286D01*
X126547619Y-105949715D01*
X127547619Y-105949715D01*
X126547619Y-106425905D02*
X127547619Y-106425905D01*
X127547619Y-106664000D01*
X127500000Y-106806858D01*
X127404762Y-106902096D01*
X127309524Y-106949715D01*
X127119048Y-106997334D01*
X126976190Y-106997334D01*
X126785714Y-106949715D01*
X126690476Y-106902096D01*
X126595238Y-106806858D01*
X126547619Y-106664000D01*
X126547619Y-106425905D01*
X125515619Y-104330667D02*
X124515619Y-104664000D01*
X125515619Y-104997334D01*
X124515619Y-105330667D02*
X125515619Y-105330667D01*
X125515619Y-105568762D01*
X125468000Y-105711620D01*
X125372762Y-105806858D01*
X125277524Y-105854477D01*
X125087048Y-105902096D01*
X124944190Y-105902096D01*
X124753714Y-105854477D01*
X124658476Y-105806858D01*
X124563238Y-105711620D01*
X124515619Y-105568762D01*
X124515619Y-105330667D01*
X124515619Y-106330667D02*
X125515619Y-106330667D01*
X125515619Y-106568762D01*
X125468000Y-106711620D01*
X125372762Y-106806858D01*
X125277524Y-106854477D01*
X125087048Y-106902096D01*
X124944190Y-106902096D01*
X124753714Y-106854477D01*
X124658476Y-106806858D01*
X124563238Y-106711620D01*
X124515619Y-106568762D01*
X124515619Y-106330667D01*
D12*
X71331000Y-46320000D02*
X71331000Y-46370000D01*
X75481000Y-46320000D02*
X75481000Y-46465000D01*
X75481000Y-51470000D02*
X75481000Y-51325000D01*
X71331000Y-51470000D02*
X71331000Y-51325000D01*
X71331000Y-46320000D02*
X75481000Y-46320000D01*
X71331000Y-51470000D02*
X75481000Y-51470000D01*
X71331000Y-46370000D02*
X69931000Y-46370000D01*
D13*
X62230000Y-41335000D02*
X69910000Y-41335000D01*
X69910000Y-41335000D02*
X69910000Y-38675000D01*
X69910000Y-38675000D02*
X62230000Y-38675000D01*
X62230000Y-38675000D02*
X62230000Y-41335000D01*
X60960000Y-41335000D02*
X59630000Y-41335000D01*
X59630000Y-41335000D02*
X59630000Y-40005000D01*
X73056000Y-52867000D02*
X73756000Y-52867000D01*
X73756000Y-54067000D02*
X73056000Y-54067000D01*
D12*
X72644095Y-44847381D02*
X72644095Y-45656905D01*
X72691714Y-45752143D01*
X72739333Y-45799762D01*
X72834571Y-45847381D01*
X73025048Y-45847381D01*
X73120286Y-45799762D01*
X73167905Y-45752143D01*
X73215524Y-45656905D01*
X73215524Y-44847381D01*
X74215524Y-45847381D02*
X73644095Y-45847381D01*
X73929809Y-45847381D02*
X73929809Y-44847381D01*
X73834571Y-44990238D01*
X73739333Y-45085476D01*
X73644095Y-45133095D01*
X70318381Y-40084333D02*
X71032667Y-40084333D01*
X71175524Y-40131953D01*
X71270762Y-40227191D01*
X71318381Y-40370048D01*
X71318381Y-40465286D01*
X71318381Y-39084333D02*
X71318381Y-39655762D01*
X71318381Y-39370048D02*
X70318381Y-39370048D01*
X70461238Y-39465286D01*
X70556476Y-39560524D01*
X70604095Y-39655762D01*
X58880476Y-54427381D02*
X58880476Y-53427381D01*
X59213810Y-54141667D01*
X59547143Y-53427381D01*
X59547143Y-54427381D01*
X59928095Y-53427381D02*
X60547143Y-53427381D01*
X60213809Y-53808333D01*
X60356667Y-53808333D01*
X60451905Y-53855952D01*
X60499524Y-53903571D01*
X60547143Y-53998810D01*
X60547143Y-54236905D01*
X60499524Y-54332143D01*
X60451905Y-54379762D01*
X60356667Y-54427381D01*
X60070952Y-54427381D01*
X59975714Y-54379762D01*
X59928095Y-54332143D01*
X77168476Y-39187381D02*
X77168476Y-38187381D01*
X77501810Y-38901667D01*
X77835143Y-38187381D01*
X77835143Y-39187381D01*
X78216095Y-38187381D02*
X78835143Y-38187381D01*
X78501809Y-38568333D01*
X78644667Y-38568333D01*
X78739905Y-38615952D01*
X78787524Y-38663571D01*
X78835143Y-38758810D01*
X78835143Y-38996905D01*
X78787524Y-39092143D01*
X78739905Y-39139762D01*
X78644667Y-39187381D01*
X78358952Y-39187381D01*
X78263714Y-39139762D01*
X78216095Y-39092143D01*
X73239334Y-52574143D02*
X73191715Y-52621762D01*
X73048858Y-52669381D01*
X72953620Y-52669381D01*
X72810762Y-52621762D01*
X72715524Y-52526524D01*
X72667905Y-52431286D01*
X72620286Y-52240810D01*
X72620286Y-52097952D01*
X72667905Y-51907476D01*
X72715524Y-51812238D01*
X72810762Y-51717000D01*
X72953620Y-51669381D01*
X73048858Y-51669381D01*
X73191715Y-51717000D01*
X73239334Y-51764619D01*
X74191715Y-52669381D02*
X73620286Y-52669381D01*
X73906000Y-52669381D02*
X73906000Y-51669381D01*
X73810762Y-51812238D01*
X73715524Y-51907476D01*
X73620286Y-51955095D01*
D14*
X64570429Y-45919571D02*
X64606714Y-45810714D01*
X64606714Y-45629285D01*
X64570429Y-45556714D01*
X64534143Y-45520428D01*
X64461571Y-45484143D01*
X64389000Y-45484143D01*
X64316429Y-45520428D01*
X64280143Y-45556714D01*
X64243857Y-45629285D01*
X64207571Y-45774428D01*
X64171286Y-45847000D01*
X64135000Y-45883285D01*
X64062429Y-45919571D01*
X63989857Y-45919571D01*
X63917286Y-45883285D01*
X63881000Y-45847000D01*
X63844714Y-45774428D01*
X63844714Y-45593000D01*
X63881000Y-45484143D01*
X64606714Y-44758429D02*
X64606714Y-45193857D01*
X64606714Y-44976143D02*
X63844714Y-44976143D01*
X63953571Y-45048714D01*
X64026143Y-45121286D01*
X64062429Y-45193857D01*
X62538429Y-45919571D02*
X62574714Y-45810714D01*
X62574714Y-45629285D01*
X62538429Y-45556714D01*
X62502143Y-45520428D01*
X62429571Y-45484143D01*
X62357000Y-45484143D01*
X62284429Y-45520428D01*
X62248143Y-45556714D01*
X62211857Y-45629285D01*
X62175571Y-45774428D01*
X62139286Y-45847000D01*
X62103000Y-45883285D01*
X62030429Y-45919571D01*
X61957857Y-45919571D01*
X61885286Y-45883285D01*
X61849000Y-45847000D01*
X61812714Y-45774428D01*
X61812714Y-45593000D01*
X61849000Y-45484143D01*
X61885286Y-45193857D02*
X61849000Y-45157571D01*
X61812714Y-45085000D01*
X61812714Y-44903571D01*
X61849000Y-44831000D01*
X61885286Y-44794714D01*
X61957857Y-44758429D01*
X62030429Y-44758429D01*
X62139286Y-44794714D01*
X62574714Y-45230143D01*
X62574714Y-44758429D01*
X60506429Y-45919571D02*
X60542714Y-45810714D01*
X60542714Y-45629285D01*
X60506429Y-45556714D01*
X60470143Y-45520428D01*
X60397571Y-45484143D01*
X60325000Y-45484143D01*
X60252429Y-45520428D01*
X60216143Y-45556714D01*
X60179857Y-45629285D01*
X60143571Y-45774428D01*
X60107286Y-45847000D01*
X60071000Y-45883285D01*
X59998429Y-45919571D01*
X59925857Y-45919571D01*
X59853286Y-45883285D01*
X59817000Y-45847000D01*
X59780714Y-45774428D01*
X59780714Y-45593000D01*
X59817000Y-45484143D01*
X59780714Y-45230143D02*
X59780714Y-44758429D01*
X60071000Y-45012429D01*
X60071000Y-44903571D01*
X60107286Y-44831000D01*
X60143571Y-44794714D01*
X60216143Y-44758429D01*
X60397571Y-44758429D01*
X60470143Y-44794714D01*
X60506429Y-44831000D01*
X60542714Y-44903571D01*
X60542714Y-45121286D01*
X60506429Y-45193857D01*
X60470143Y-45230143D01*
M02*
