G04 #@! TF.FileFunction,Copper,L2,Bot,Signal*
%FSLAX46Y46*%
G04 Gerber Fmt 4.6, Leading zero omitted, Abs format (unit mm)*
G04 Created by KiCad (PCBNEW 4.0.6) date Fri Oct 27 03:26:11 2017*
%MOMM*%
%LPD*%
G01*
G04 APERTURE LIST*
%ADD10C,0.100000*%
%ADD11R,1.700000X1.700000*%
%ADD12O,1.700000X1.700000*%
%ADD13C,0.600000*%
%ADD14C,0.250000*%
%ADD15C,0.150000*%
G04 APERTURE END LIST*
D10*
D11*
X154305000Y-109982000D03*
D12*
X154305000Y-107442000D03*
D13*
X148463000Y-107061000D03*
X150876000Y-107061000D03*
X152400000Y-106045000D03*
X152400000Y-107315000D03*
X152400000Y-108585000D03*
X152400000Y-109855000D03*
X147320000Y-109855000D03*
X147320000Y-108585000D03*
X147320000Y-107315000D03*
X147320000Y-106045000D03*
X149733000Y-106426000D03*
X151384000Y-102743000D03*
X147701000Y-102828598D03*
X146685000Y-102743000D03*
X150495000Y-102828598D03*
X148590000Y-102828598D03*
X149225000Y-102870000D03*
X149860000Y-102870000D03*
D14*
X150876000Y-107061000D02*
X148463000Y-107061000D01*
X152400000Y-107315000D02*
X152400000Y-106045000D01*
X152400000Y-109855000D02*
X152400000Y-108585000D01*
X147320000Y-108585000D02*
X147320000Y-109855000D01*
X147320000Y-106045000D02*
X147320000Y-107315000D01*
X149733000Y-106426000D02*
X149733000Y-102997000D01*
X149733000Y-102997000D02*
X149860000Y-102870000D01*
X148590000Y-102828598D02*
X146770598Y-102828598D01*
X146770598Y-102828598D02*
X146685000Y-102743000D01*
X150495000Y-102828598D02*
X154305000Y-106638598D01*
X154305000Y-106638598D02*
X154305000Y-107442000D01*
X149860000Y-102870000D02*
X149225000Y-102870000D01*
D15*
G36*
X153722143Y-102333652D02*
X153335011Y-102720108D01*
X153125239Y-103225296D01*
X153124762Y-103772305D01*
X153333652Y-104277857D01*
X153720108Y-104664989D01*
X154225296Y-104874761D01*
X154772305Y-104875238D01*
X155277857Y-104666348D01*
X155664989Y-104279892D01*
X155725000Y-104135369D01*
X155725000Y-108129000D01*
X154209066Y-108129000D01*
X153491000Y-107410934D01*
X153491000Y-106172000D01*
X153485091Y-106142821D01*
X153469033Y-106118967D01*
X152707033Y-105356967D01*
X152682222Y-105340512D01*
X152654000Y-105335000D01*
X150241000Y-105335000D01*
X150211821Y-105340909D01*
X150187239Y-105357705D01*
X150167456Y-105395291D01*
X149925514Y-106605000D01*
X149534802Y-106605000D01*
X149169837Y-105388449D01*
X149155793Y-105362198D01*
X149132642Y-105343480D01*
X149098000Y-105335000D01*
X146275000Y-105335000D01*
X146275000Y-102275000D01*
X153864092Y-102275000D01*
X153722143Y-102333652D01*
X153722143Y-102333652D01*
G37*
X153722143Y-102333652D02*
X153335011Y-102720108D01*
X153125239Y-103225296D01*
X153124762Y-103772305D01*
X153333652Y-104277857D01*
X153720108Y-104664989D01*
X154225296Y-104874761D01*
X154772305Y-104875238D01*
X155277857Y-104666348D01*
X155664989Y-104279892D01*
X155725000Y-104135369D01*
X155725000Y-108129000D01*
X154209066Y-108129000D01*
X153491000Y-107410934D01*
X153491000Y-106172000D01*
X153485091Y-106142821D01*
X153469033Y-106118967D01*
X152707033Y-105356967D01*
X152682222Y-105340512D01*
X152654000Y-105335000D01*
X150241000Y-105335000D01*
X150211821Y-105340909D01*
X150187239Y-105357705D01*
X150167456Y-105395291D01*
X149925514Y-106605000D01*
X149534802Y-106605000D01*
X149169837Y-105388449D01*
X149155793Y-105362198D01*
X149132642Y-105343480D01*
X149098000Y-105335000D01*
X146275000Y-105335000D01*
X146275000Y-102275000D01*
X153864092Y-102275000D01*
X153722143Y-102333652D01*
G36*
X149158028Y-106393117D02*
X149157900Y-106539873D01*
X149245254Y-106751286D01*
X149299108Y-106805234D01*
X149317718Y-106836886D01*
X149358567Y-106864797D01*
X149406863Y-106913177D01*
X149618124Y-107000900D01*
X149846873Y-107001100D01*
X150058286Y-106913746D01*
X150100665Y-106871441D01*
X150109209Y-106868918D01*
X150173081Y-106806487D01*
X150178376Y-106793866D01*
X150220177Y-106752137D01*
X150307900Y-106540876D01*
X150308100Y-106312127D01*
X150295924Y-106282659D01*
X150425456Y-105635000D01*
X152560802Y-105635000D01*
X153191000Y-106265198D01*
X153191000Y-107275898D01*
X153157960Y-107442000D01*
X153243596Y-107872519D01*
X153487465Y-108237495D01*
X153852441Y-108481364D01*
X154282960Y-108567000D01*
X154327040Y-108567000D01*
X154757559Y-108481364D01*
X154835927Y-108429000D01*
X155725000Y-108429000D01*
X155725000Y-110725000D01*
X146275000Y-110725000D01*
X146275000Y-105635000D01*
X148930593Y-105635000D01*
X149158028Y-106393117D01*
X149158028Y-106393117D01*
G37*
X149158028Y-106393117D02*
X149157900Y-106539873D01*
X149245254Y-106751286D01*
X149299108Y-106805234D01*
X149317718Y-106836886D01*
X149358567Y-106864797D01*
X149406863Y-106913177D01*
X149618124Y-107000900D01*
X149846873Y-107001100D01*
X150058286Y-106913746D01*
X150100665Y-106871441D01*
X150109209Y-106868918D01*
X150173081Y-106806487D01*
X150178376Y-106793866D01*
X150220177Y-106752137D01*
X150307900Y-106540876D01*
X150308100Y-106312127D01*
X150295924Y-106282659D01*
X150425456Y-105635000D01*
X152560802Y-105635000D01*
X153191000Y-106265198D01*
X153191000Y-107275898D01*
X153157960Y-107442000D01*
X153243596Y-107872519D01*
X153487465Y-108237495D01*
X153852441Y-108481364D01*
X154282960Y-108567000D01*
X154327040Y-108567000D01*
X154757559Y-108481364D01*
X154835927Y-108429000D01*
X155725000Y-108429000D01*
X155725000Y-110725000D01*
X146275000Y-110725000D01*
X146275000Y-105635000D01*
X148930593Y-105635000D01*
X149158028Y-106393117D01*
M02*
