M48
;DRILL file {KiCad 4.0.6} date Fri Oct 27 03:26:13 2017
;FORMAT={-:-/ absolute / inch / decimal}
FMAT,2
INCH,TZ
T1C0.016
T2C0.039
%
G90
G05
M72
T1
X5.775Y-4.045
X5.8Y-4.175
X5.8Y-4.225
X5.8Y-4.275
X5.8Y-4.325
X5.815Y-4.0484
X5.845Y-4.215
X5.85Y-4.0484
X5.875Y-4.05
X5.895Y-4.19
X5.9Y-4.05
X5.925Y-4.0484
X5.94Y-4.215
X5.96Y-4.045
X6.Y-4.175
X6.Y-4.225
X6.Y-4.275
X6.Y-4.325
T2
X6.075Y-4.23
X6.075Y-4.33
T0
M30
