G04 #@! TF.FileFunction,Copper,L1,Top,Signal*
%FSLAX46Y46*%
G04 Gerber Fmt 4.6, Leading zero omitted, Abs format (unit mm)*
G04 Created by KiCad (PCBNEW 4.0.6) date Fri Oct 27 03:26:11 2017*
%MOMM*%
%LPD*%
G01*
G04 APERTURE LIST*
%ADD10C,0.100000*%
%ADD11R,1.700000X1.700000*%
%ADD12O,1.700000X1.700000*%
%ADD13R,0.800000X2.650000*%
%ADD14R,0.600000X2.650000*%
%ADD15C,0.600000*%
%ADD16C,0.250000*%
%ADD17C,0.150000*%
G04 APERTURE END LIST*
D10*
D11*
X154305000Y-109982000D03*
D12*
X154305000Y-107442000D03*
D13*
X148501100Y-109053600D03*
X150801100Y-109053600D03*
D14*
X149651100Y-105003600D03*
X149651100Y-109053600D03*
D13*
X150801100Y-105003600D03*
X148501100Y-105003600D03*
D15*
X148463000Y-107061000D03*
X150876000Y-107061000D03*
X152400000Y-106045000D03*
X152400000Y-107315000D03*
X152400000Y-108585000D03*
X152400000Y-109855000D03*
X147320000Y-109855000D03*
X147320000Y-108585000D03*
X147320000Y-107315000D03*
X147320000Y-106045000D03*
X149733000Y-106426000D03*
X151384000Y-102743000D03*
X147701000Y-102828598D03*
X146685000Y-102743000D03*
X150495000Y-102828598D03*
X148590000Y-102828598D03*
X149225000Y-102870000D03*
X149860000Y-102870000D03*
D16*
X152400000Y-107315000D02*
X151130000Y-107315000D01*
X151130000Y-107315000D02*
X150876000Y-107061000D01*
X152400000Y-108585000D02*
X152400000Y-107315000D01*
X150801100Y-109053600D02*
X151598600Y-109053600D01*
X151598600Y-109053600D02*
X152400000Y-109855000D01*
X147320000Y-108585000D02*
X148032500Y-108585000D01*
X148032500Y-108585000D02*
X148501100Y-109053600D01*
X147320000Y-107315000D02*
X147320000Y-108585000D01*
X148501100Y-105003600D02*
X148361400Y-105003600D01*
X148361400Y-105003600D02*
X147320000Y-106045000D01*
X149651100Y-105003600D02*
X149651100Y-106344100D01*
X149651100Y-106344100D02*
X149733000Y-106426000D01*
X150495000Y-102828598D02*
X151298402Y-102828598D01*
X151298402Y-102828598D02*
X151384000Y-102743000D01*
X146685000Y-102743000D02*
X147615402Y-102743000D01*
X147615402Y-102743000D02*
X147701000Y-102828598D01*
X149225000Y-102870000D02*
X149860000Y-102870000D01*
X149225000Y-102870000D02*
X149524999Y-103169999D01*
X149524999Y-103169999D02*
X149560001Y-103169999D01*
X149560001Y-103169999D02*
X149651100Y-103078900D01*
X149651100Y-105003600D02*
X149651100Y-103078900D01*
X149651100Y-103078900D02*
X149860000Y-102870000D01*
X149860000Y-102870000D02*
X150453598Y-102870000D01*
X150453598Y-102870000D02*
X150495000Y-102828598D01*
X149225000Y-102870000D02*
X148631402Y-102870000D01*
X148631402Y-102870000D02*
X148590000Y-102828598D01*
D17*
G36*
X151932918Y-102966459D02*
X151925000Y-103000000D01*
X151925000Y-103303000D01*
X150495000Y-103303000D01*
X150465821Y-103308909D01*
X150441239Y-103325705D01*
X150425129Y-103350741D01*
X150420000Y-103378000D01*
X150420000Y-103398213D01*
X150401100Y-103398213D01*
X150299191Y-103417388D01*
X150205594Y-103477616D01*
X150142804Y-103569514D01*
X150120713Y-103678600D01*
X150120713Y-106224000D01*
X149181487Y-106224000D01*
X149181487Y-103678600D01*
X149162312Y-103576691D01*
X149102084Y-103483094D01*
X149010186Y-103420304D01*
X148919000Y-103401838D01*
X148919000Y-103378000D01*
X148913091Y-103348821D01*
X148896295Y-103324239D01*
X148871259Y-103308129D01*
X148844000Y-103303000D01*
X146275000Y-103303000D01*
X146275000Y-102275000D01*
X152278648Y-102275000D01*
X151932918Y-102966459D01*
X151932918Y-102966459D01*
G37*
X151932918Y-102966459D02*
X151925000Y-103000000D01*
X151925000Y-103303000D01*
X150495000Y-103303000D01*
X150465821Y-103308909D01*
X150441239Y-103325705D01*
X150425129Y-103350741D01*
X150420000Y-103378000D01*
X150420000Y-103398213D01*
X150401100Y-103398213D01*
X150299191Y-103417388D01*
X150205594Y-103477616D01*
X150142804Y-103569514D01*
X150120713Y-103678600D01*
X150120713Y-106224000D01*
X149181487Y-106224000D01*
X149181487Y-103678600D01*
X149162312Y-103576691D01*
X149102084Y-103483094D01*
X149010186Y-103420304D01*
X148919000Y-103401838D01*
X148919000Y-103378000D01*
X148913091Y-103348821D01*
X148896295Y-103324239D01*
X148871259Y-103308129D01*
X148844000Y-103303000D01*
X146275000Y-103303000D01*
X146275000Y-102275000D01*
X152278648Y-102275000D01*
X151932918Y-102966459D01*
G36*
X148619000Y-106299000D02*
X148634388Y-106380778D01*
X148682718Y-106455886D01*
X148756462Y-106506273D01*
X148844000Y-106524000D01*
X149150048Y-106524000D01*
X149150116Y-106524106D01*
X149157909Y-106529431D01*
X149157900Y-106539873D01*
X149245254Y-106751286D01*
X149406863Y-106913177D01*
X149618124Y-107000900D01*
X149846873Y-107001100D01*
X150058286Y-106913746D01*
X150220177Y-106752137D01*
X150307900Y-106540876D01*
X150307915Y-106524000D01*
X150495000Y-106524000D01*
X150576778Y-106508612D01*
X150651886Y-106460282D01*
X150702273Y-106386538D01*
X150720000Y-106299000D01*
X150720000Y-103603000D01*
X151925000Y-103603000D01*
X151925000Y-104000000D01*
X151932918Y-104033541D01*
X152432918Y-105033541D01*
X152446967Y-105053033D01*
X152946967Y-105553033D01*
X152966459Y-105567082D01*
X153966459Y-106067082D01*
X154000000Y-106075000D01*
X155000000Y-106075000D01*
X155033541Y-106067082D01*
X155725000Y-105721353D01*
X155725000Y-110725000D01*
X146275000Y-110725000D01*
X146275000Y-107728600D01*
X149070713Y-107728600D01*
X149070713Y-110378600D01*
X149089888Y-110480509D01*
X149150116Y-110574106D01*
X149242014Y-110636896D01*
X149351100Y-110658987D01*
X149951100Y-110658987D01*
X150053009Y-110639812D01*
X150146606Y-110579584D01*
X150209396Y-110487686D01*
X150231487Y-110378600D01*
X150231487Y-107728600D01*
X150212312Y-107626691D01*
X150152084Y-107533094D01*
X150060186Y-107470304D01*
X149951100Y-107448213D01*
X149351100Y-107448213D01*
X149249191Y-107467388D01*
X149155594Y-107527616D01*
X149092804Y-107619514D01*
X149070713Y-107728600D01*
X146275000Y-107728600D01*
X146275000Y-107442000D01*
X153157960Y-107442000D01*
X153243596Y-107872519D01*
X153487465Y-108237495D01*
X153852441Y-108481364D01*
X154282960Y-108567000D01*
X154327040Y-108567000D01*
X154757559Y-108481364D01*
X155122535Y-108237495D01*
X155366404Y-107872519D01*
X155452040Y-107442000D01*
X155366404Y-107011481D01*
X155122535Y-106646505D01*
X154757559Y-106402636D01*
X154327040Y-106317000D01*
X154282960Y-106317000D01*
X153852441Y-106402636D01*
X153487465Y-106646505D01*
X153243596Y-107011481D01*
X153157960Y-107442000D01*
X146275000Y-107442000D01*
X146275000Y-103603000D01*
X148619000Y-103603000D01*
X148619000Y-106299000D01*
X148619000Y-106299000D01*
G37*
X148619000Y-106299000D02*
X148634388Y-106380778D01*
X148682718Y-106455886D01*
X148756462Y-106506273D01*
X148844000Y-106524000D01*
X149150048Y-106524000D01*
X149150116Y-106524106D01*
X149157909Y-106529431D01*
X149157900Y-106539873D01*
X149245254Y-106751286D01*
X149406863Y-106913177D01*
X149618124Y-107000900D01*
X149846873Y-107001100D01*
X150058286Y-106913746D01*
X150220177Y-106752137D01*
X150307900Y-106540876D01*
X150307915Y-106524000D01*
X150495000Y-106524000D01*
X150576778Y-106508612D01*
X150651886Y-106460282D01*
X150702273Y-106386538D01*
X150720000Y-106299000D01*
X150720000Y-103603000D01*
X151925000Y-103603000D01*
X151925000Y-104000000D01*
X151932918Y-104033541D01*
X152432918Y-105033541D01*
X152446967Y-105053033D01*
X152946967Y-105553033D01*
X152966459Y-105567082D01*
X153966459Y-106067082D01*
X154000000Y-106075000D01*
X155000000Y-106075000D01*
X155033541Y-106067082D01*
X155725000Y-105721353D01*
X155725000Y-110725000D01*
X146275000Y-110725000D01*
X146275000Y-107728600D01*
X149070713Y-107728600D01*
X149070713Y-110378600D01*
X149089888Y-110480509D01*
X149150116Y-110574106D01*
X149242014Y-110636896D01*
X149351100Y-110658987D01*
X149951100Y-110658987D01*
X150053009Y-110639812D01*
X150146606Y-110579584D01*
X150209396Y-110487686D01*
X150231487Y-110378600D01*
X150231487Y-107728600D01*
X150212312Y-107626691D01*
X150152084Y-107533094D01*
X150060186Y-107470304D01*
X149951100Y-107448213D01*
X149351100Y-107448213D01*
X149249191Y-107467388D01*
X149155594Y-107527616D01*
X149092804Y-107619514D01*
X149070713Y-107728600D01*
X146275000Y-107728600D01*
X146275000Y-107442000D01*
X153157960Y-107442000D01*
X153243596Y-107872519D01*
X153487465Y-108237495D01*
X153852441Y-108481364D01*
X154282960Y-108567000D01*
X154327040Y-108567000D01*
X154757559Y-108481364D01*
X155122535Y-108237495D01*
X155366404Y-107872519D01*
X155452040Y-107442000D01*
X155366404Y-107011481D01*
X155122535Y-106646505D01*
X154757559Y-106402636D01*
X154327040Y-106317000D01*
X154282960Y-106317000D01*
X153852441Y-106402636D01*
X153487465Y-106646505D01*
X153243596Y-107011481D01*
X153157960Y-107442000D01*
X146275000Y-107442000D01*
X146275000Y-103603000D01*
X148619000Y-103603000D01*
X148619000Y-106299000D01*
M02*
