G04 #@! TF.FileFunction,Soldermask,Top*
%FSLAX46Y46*%
G04 Gerber Fmt 4.6, Leading zero omitted, Abs format (unit mm)*
G04 Created by KiCad (PCBNEW 4.0.6) date Sat Oct 28 17:22:52 2017*
%MOMM*%
%LPD*%
G01*
G04 APERTURE LIST*
%ADD10C,0.100000*%
%ADD11C,5.000000*%
%ADD12C,13.000000*%
%ADD13C,7.500000*%
%ADD14C,3.910000*%
%ADD15C,1.620000*%
%ADD16R,1.620000X1.620000*%
%ADD17C,1.800000*%
%ADD18R,1.800000X1.800000*%
%ADD19O,1.800000X1.800000*%
%ADD20C,4.100000*%
G04 APERTURE END LIST*
D10*
D11*
X230000000Y-119500000D02*
X230000000Y-67000000D01*
X65500000Y-111877393D02*
G75*
G03X234730293Y-111070000I84100293J108317393D01*
G01*
D12*
X119816959Y-97510512D02*
G75*
G03X132700000Y-100650000I29767316J94148777D01*
G01*
X166517054Y-100874136D02*
G75*
G03X177100000Y-98450000I-16732779J97362401D01*
G01*
X73621178Y-66391029D02*
G75*
G03X78400000Y-71750000I75963097J62929294D01*
G01*
X220430491Y-72336298D02*
G75*
G03X225584275Y-66611735I-70746216J68874563D01*
G01*
D11*
X69250000Y-120500000D02*
X69250000Y-68000000D01*
D13*
X175000000Y-87500000D03*
D14*
X92322822Y-58918684D03*
X119576010Y-78001572D03*
D10*
G36*
X97821890Y-62048916D02*
X98751084Y-60721890D01*
X100078110Y-61651084D01*
X99148916Y-62978110D01*
X97821890Y-62048916D01*
X97821890Y-62048916D01*
G37*
D15*
X101137136Y-63381449D03*
X103422570Y-64981727D03*
X105609706Y-66513176D03*
X107895140Y-68113455D03*
X110188766Y-69719469D03*
X112367710Y-71245182D03*
X114661336Y-72851196D03*
X98390045Y-64863876D03*
X100675479Y-66464155D03*
X102969105Y-68070169D03*
X105156241Y-69601618D03*
X107441675Y-71201896D03*
X109628811Y-72733345D03*
X111914245Y-74333623D03*
D14*
X179388235Y-78717949D03*
X206641423Y-59635061D03*
D10*
G36*
X184210483Y-74621118D02*
X183281289Y-73294092D01*
X184608315Y-72364898D01*
X185537509Y-73691924D01*
X184210483Y-74621118D01*
X184210483Y-74621118D01*
G37*
D15*
X186596535Y-71961559D03*
X188881969Y-70361281D03*
X191069105Y-68829832D03*
X193354539Y-67229553D03*
X195648165Y-65623539D03*
X197827109Y-64097826D03*
X200120735Y-62491812D03*
X187050000Y-75050000D03*
X189335435Y-73449722D03*
X191629060Y-71843708D03*
X193816196Y-70312259D03*
X196101630Y-68711981D03*
X198288766Y-67180531D03*
X200574201Y-65580253D03*
D14*
X132880000Y-82260000D03*
X166150000Y-82260000D03*
D16*
X139990000Y-80860000D03*
D15*
X142660000Y-80860000D03*
X145450000Y-80860000D03*
X148120000Y-80860000D03*
X150910000Y-80860000D03*
X153710000Y-80860000D03*
X156370000Y-80860000D03*
X159170000Y-80860000D03*
X141260000Y-83650000D03*
X144050000Y-83650000D03*
X146850000Y-83650000D03*
X149520000Y-83650000D03*
X152310000Y-83650000D03*
X154980000Y-83650000D03*
X157770000Y-83650000D03*
D10*
G36*
X108922766Y-109597769D02*
X110554120Y-110358481D01*
X109793408Y-111989835D01*
X108162054Y-111229123D01*
X108922766Y-109597769D01*
X108922766Y-109597769D01*
G37*
D17*
X107056065Y-109720352D02*
X107056065Y-109720352D01*
X104754043Y-108646901D02*
X104754043Y-108646901D01*
X102452022Y-107573451D02*
X102452022Y-107573451D01*
X100150000Y-106500000D02*
X100150000Y-106500000D01*
X97847978Y-105426550D02*
X97847978Y-105426550D01*
X95545956Y-104353100D02*
X95545956Y-104353100D01*
X93243935Y-103279649D02*
X93243935Y-103279649D01*
X90941913Y-102206199D02*
X90941913Y-102206199D01*
X88639891Y-101132749D02*
X88639891Y-101132749D01*
X86337869Y-100059298D02*
X86337869Y-100059298D01*
X84035847Y-98985848D02*
X84035847Y-98985848D01*
X81733826Y-97912397D02*
X81733826Y-97912397D01*
X79431804Y-96838947D02*
X79431804Y-96838947D01*
X77129782Y-95765497D02*
X77129782Y-95765497D01*
D10*
G36*
X221760032Y-94294328D02*
X223391386Y-93533616D01*
X224152098Y-95164970D01*
X222520744Y-95925682D01*
X221760032Y-94294328D01*
X221760032Y-94294328D01*
G37*
D17*
X220654043Y-95803099D02*
X220654043Y-95803099D01*
X218352021Y-96876550D02*
X218352021Y-96876550D01*
X216050000Y-97950000D02*
X216050000Y-97950000D01*
X213747978Y-99023451D02*
X213747978Y-99023451D01*
X211445956Y-100096901D02*
X211445956Y-100096901D01*
X209143934Y-101170351D02*
X209143934Y-101170351D01*
X206841913Y-102243802D02*
X206841913Y-102243802D01*
X204539891Y-103317252D02*
X204539891Y-103317252D01*
X202237869Y-104390702D02*
X202237869Y-104390702D01*
X199935847Y-105464153D02*
X199935847Y-105464153D01*
X197633825Y-106537603D02*
X197633825Y-106537603D01*
X195331804Y-107611054D02*
X195331804Y-107611054D01*
X193029782Y-108684504D02*
X193029782Y-108684504D01*
X190727760Y-109757954D02*
X190727760Y-109757954D01*
D18*
X166440000Y-115600000D03*
D19*
X163900000Y-115600000D03*
X161360000Y-115600000D03*
X158820000Y-115600000D03*
X156280000Y-115600000D03*
X153740000Y-115600000D03*
X151200000Y-115600000D03*
X148660000Y-115600000D03*
X146120000Y-115600000D03*
X143580000Y-115600000D03*
X141040000Y-115600000D03*
X138500000Y-115600000D03*
X135960000Y-115600000D03*
X133420000Y-115600000D03*
X130880000Y-115600000D03*
D13*
X125000000Y-87500000D03*
D20*
X115000000Y-117500000D03*
X122500000Y-120000000D03*
X185000000Y-117500000D03*
X177500000Y-120000000D03*
X120000000Y-110000000D03*
X180000000Y-110000000D03*
X227500000Y-85000000D03*
X72500000Y-85000000D03*
M02*
