G04 #@! TF.FileFunction,Profile,NP*
%FSLAX46Y46*%
G04 Gerber Fmt 4.6, Leading zero omitted, Abs format (unit mm)*
G04 Created by KiCad (PCBNEW 4.0.6) date Fri Oct 27 18:31:30 2017*
%MOMM*%
%LPD*%
G01*
G04 APERTURE LIST*
%ADD10C,0.100000*%
G04 APERTURE END LIST*
D10*
X174725215Y-133999409D02*
G75*
G03X174725215Y-133999409I-2000000J0D01*
G01*
X163221721Y-135513873D02*
G75*
G03X163221721Y-135513873I-2000000J0D01*
G01*
X140038293Y-135513873D02*
G75*
G03X140038293Y-135513873I-2000000J0D01*
G01*
X128534799Y-133999409D02*
G75*
G03X128534799Y-133999409I-2000000J0D01*
G01*
X151630007Y-136019978D02*
G75*
G03X151630007Y-136019978I-2000000J0D01*
G01*
X227957627Y-119057834D02*
G75*
G02X71302370Y-119057822I-78327620J116037856D01*
G01*
X69195334Y-70512700D02*
X69961379Y-69869913D01*
X117207074Y-131488113D02*
G75*
G03X117207074Y-131488113I-2000000J0D01*
G01*
X208601283Y-81090137D02*
G75*
G03X208601283Y-81090137I-2250000J0D01*
G01*
X131816524Y-97411243D02*
G75*
G03X131816524Y-97411243I-2250000J0D01*
G01*
X171943477Y-97411243D02*
G75*
G03X171943477Y-97411243I-2250000J0D01*
G01*
X90769067Y-52410191D02*
G75*
G02X97596446Y-52784542I3213938J-3830222D01*
G01*
X232362798Y-110769415D02*
G75*
G02X227957627Y-119057834I-10000001J0D01*
G01*
X71302370Y-119057822D02*
G75*
G02X66897201Y-110769405I5594831J8288417D01*
G01*
X207838236Y-123558914D02*
G75*
G03X207838236Y-123558914I-2000000J0D01*
G01*
X218130007Y-118201357D02*
G75*
G03X218130007Y-118201357I-2000000J0D01*
G01*
X227915673Y-101967200D02*
G75*
G03X227915673Y-101967200I-2000000J0D01*
G01*
X208490942Y-52410191D02*
X230064664Y-70512702D01*
X69195334Y-70512700D02*
X90769069Y-52410183D01*
X66897201Y-110769405D02*
X66897201Y-74772601D01*
X232362797Y-110769415D02*
X232362797Y-74772603D01*
X75344341Y-111967200D02*
G75*
G03X75344341Y-111967200I-2000000J0D01*
G01*
X227915673Y-111967200D02*
G75*
G03X227915673Y-111967200I-2000000J0D01*
G01*
X186052940Y-131488113D02*
G75*
G03X186052940Y-131488113I-2000000J0D01*
G01*
X197118686Y-127999097D02*
G75*
G03X197118686Y-127999097I-2000000J0D01*
G01*
X66897202Y-74772601D02*
G75*
G02X68683263Y-70942380I4999999J0D01*
G01*
X230576736Y-70942382D02*
G75*
G02X232362797Y-74772603I-3213939J-3830221D01*
G01*
X69195331Y-70512699D02*
X69195331Y-70512699D01*
X85130007Y-118201357D02*
G75*
G03X85130007Y-118201357I-2000000J0D01*
G01*
X75344341Y-101967200D02*
G75*
G03X75344341Y-101967200I-2000000J0D01*
G01*
X201663563Y-52784542D02*
G75*
G02X208490942Y-52410191I3613441J-3455871D01*
G01*
X95158725Y-81090137D02*
G75*
G03X95158725Y-81090137I-2250000J0D01*
G01*
X106141328Y-127999097D02*
G75*
G03X106141328Y-127999097I-2000000J0D01*
G01*
X95421778Y-123558914D02*
G75*
G03X95421778Y-123558914I-2000000J0D01*
G01*
X230064664Y-70512702D02*
X230576736Y-70942381D01*
X69195334Y-70512700D02*
X68683263Y-70942380D01*
X69195331Y-70512699D02*
X69195331Y-70512699D01*
X201663558Y-52784538D02*
G75*
G02X97596446Y-52784542I-52033558J49764538D01*
G01*
M02*
