G04 #@! TF.FileFunction,Legend,Top*
%FSLAX46Y46*%
G04 Gerber Fmt 4.6, Leading zero omitted, Abs format (unit mm)*
G04 Created by KiCad (PCBNEW 4.0.6) date Fri Oct 27 18:21:38 2017*
%MOMM*%
%LPD*%
G01*
G04 APERTURE LIST*
%ADD10C,0.100000*%
%ADD11C,0.500000*%
%ADD12C,0.650000*%
%ADD13C,0.010000*%
%ADD14C,0.120000*%
G04 APERTURE END LIST*
D10*
D11*
X79028621Y-111047173D02*
X78726054Y-109329829D01*
X77474951Y-110322685D02*
X78742806Y-107603761D01*
X79778586Y-108086754D01*
X79977157Y-108336974D01*
X80046256Y-108526820D01*
X80054980Y-108846139D01*
X79873858Y-109234557D01*
X79623637Y-109433128D01*
X79433791Y-109502227D01*
X79114472Y-109510951D01*
X78078692Y-109027959D01*
X81202784Y-108750868D02*
X81747545Y-112315028D01*
X83015399Y-109596104D02*
X79934929Y-111469791D01*
X83266318Y-111762240D02*
X85337878Y-112728225D01*
X87029049Y-111467700D02*
X86667502Y-114609241D01*
X88841664Y-112312936D01*
X88480118Y-115454478D02*
X89747973Y-112735555D01*
X89774843Y-116058218D02*
X91042698Y-113339295D01*
X92078478Y-113822287D01*
X92277049Y-114072508D01*
X92346148Y-114262354D01*
X92354872Y-114581673D01*
X92173750Y-114970091D01*
X91923529Y-115168662D01*
X91733683Y-115237760D01*
X91414364Y-115246485D01*
X90378584Y-114763493D01*
X93157881Y-115901875D02*
X94064189Y-116324493D01*
X93788492Y-117929813D02*
X92493767Y-117326073D01*
X93761621Y-114607150D01*
X95056346Y-115210890D01*
X96507415Y-119197668D02*
X96204848Y-117480324D01*
X94953745Y-118473180D02*
X96221600Y-115754257D01*
X97257380Y-116237249D01*
X97455951Y-116487469D01*
X97525049Y-116677316D01*
X97533774Y-116996635D01*
X97352652Y-117385053D01*
X97102431Y-117583623D01*
X96912585Y-117652722D01*
X96593266Y-117661446D01*
X95557486Y-117178454D01*
D12*
X154071429Y-128309524D02*
X154071429Y-125642857D01*
X154071429Y-126404762D02*
X154261905Y-126023810D01*
X154452381Y-125833333D01*
X154833334Y-125642857D01*
X155214286Y-125642857D01*
X158071428Y-128119048D02*
X157690476Y-128309524D01*
X156928571Y-128309524D01*
X156547619Y-128119048D01*
X156357143Y-127738095D01*
X156357143Y-126214286D01*
X156547619Y-125833333D01*
X156928571Y-125642857D01*
X157690476Y-125642857D01*
X158071428Y-125833333D01*
X158261905Y-126214286D01*
X158261905Y-126595238D01*
X156357143Y-126976190D01*
X159595238Y-125642857D02*
X160547619Y-128309524D01*
X161499999Y-125642857D01*
X165119047Y-128309524D02*
X162833333Y-128309524D01*
X163976190Y-128309524D02*
X163976190Y-124309524D01*
X163595238Y-124880952D01*
X163214285Y-125261905D01*
X162833333Y-125452381D01*
D11*
X168237963Y-130665907D02*
X167919328Y-130643261D01*
X167391397Y-130861938D01*
X167182101Y-131103259D01*
X167027474Y-131476563D01*
X167004829Y-131795197D01*
X167223505Y-132323129D01*
X167464826Y-132532425D01*
X167838129Y-132687052D01*
X168156764Y-132709697D01*
X168684695Y-132491021D01*
X168893992Y-132249700D01*
X167272680Y-129828720D02*
X166667435Y-130234049D01*
X166171528Y-130903342D01*
X166048925Y-131727264D01*
X166190288Y-132441846D01*
X166595616Y-133047091D01*
X167264909Y-133542998D01*
X168088830Y-133665601D01*
X168803413Y-133524238D01*
X169408658Y-133118910D01*
X169904565Y-132449617D01*
X170027168Y-131625696D01*
X169885806Y-130911112D01*
X169480477Y-130305868D01*
X168811184Y-129809961D01*
X167987262Y-129687358D01*
X167272680Y-129828720D01*
X175315859Y-130208186D02*
X173845288Y-129271041D01*
X173732066Y-130864214D02*
X172584015Y-128092576D01*
X173639878Y-127655223D01*
X173958512Y-127677868D01*
X174145164Y-127755182D01*
X174386484Y-127964478D01*
X174550492Y-128360427D01*
X174527847Y-128679061D01*
X174450533Y-128865713D01*
X174241237Y-129107033D01*
X173185375Y-129544386D01*
X177691549Y-129224143D02*
X177090189Y-127772331D01*
X176848869Y-127563035D01*
X176530234Y-127540390D01*
X176002303Y-127759067D01*
X175793006Y-128000388D01*
X177636880Y-129092160D02*
X177427584Y-129333481D01*
X176767670Y-129606826D01*
X176449035Y-129584181D01*
X176207714Y-129374884D01*
X176098376Y-129110919D01*
X176121021Y-128792284D01*
X176330317Y-128550964D01*
X176990231Y-128277618D01*
X177199528Y-128036298D01*
X178246011Y-126829693D02*
X179394061Y-129601331D01*
X178300680Y-126961675D02*
X178509976Y-126720355D01*
X179037908Y-126501678D01*
X179356542Y-126524323D01*
X179543194Y-126601636D01*
X179784514Y-126810933D01*
X180112529Y-127602830D01*
X180089884Y-127921465D01*
X180012571Y-128108117D01*
X179803274Y-128349437D01*
X179275343Y-128568114D01*
X178956709Y-128545469D01*
X181519051Y-127638739D02*
X180371001Y-124867101D01*
X182706896Y-127146718D02*
X182105536Y-125694907D01*
X181864215Y-125485611D01*
X181545581Y-125462966D01*
X181149632Y-125626973D01*
X180940336Y-125868294D01*
X180863022Y-126054946D01*
X185214569Y-126108006D02*
X184613209Y-124656195D01*
X184371889Y-124446898D01*
X184053254Y-124424254D01*
X183525323Y-124642930D01*
X183316026Y-124884251D01*
X185159900Y-125976023D02*
X184950604Y-126217344D01*
X184290689Y-126490689D01*
X183972055Y-126468044D01*
X183730734Y-126258747D01*
X183621396Y-125994782D01*
X183644041Y-125676148D01*
X183853337Y-125434827D01*
X184513251Y-125161481D01*
X184722548Y-124920161D01*
X187535591Y-124991980D02*
X187326294Y-125233300D01*
X186798363Y-125451977D01*
X186479728Y-125429332D01*
X186238407Y-125220035D01*
X185801055Y-124164173D01*
X185823700Y-123845538D01*
X186032996Y-123604218D01*
X186560927Y-123385541D01*
X186879562Y-123408186D01*
X187120882Y-123617482D01*
X187230221Y-123881449D01*
X186019731Y-124692104D01*
X189306036Y-124413265D02*
X188987402Y-124390620D01*
X188746081Y-124181323D01*
X187762038Y-121805633D01*
X193793451Y-122554516D02*
X192473624Y-123101207D01*
X191325573Y-120329568D01*
X195718524Y-121602498D02*
X195509227Y-121843819D01*
X194981296Y-122062495D01*
X194662662Y-122039850D01*
X194421341Y-121830553D01*
X193983988Y-120774691D01*
X194006633Y-120456057D01*
X194215929Y-120214736D01*
X194743861Y-119996059D01*
X195062495Y-120018704D01*
X195303816Y-120228000D01*
X195413154Y-120491967D01*
X194202665Y-121302622D01*
X197093021Y-121187790D02*
X195944971Y-118416151D01*
X198280866Y-120695768D02*
X197679506Y-119243957D01*
X197438186Y-119034661D01*
X197119551Y-119012016D01*
X196723602Y-119176024D01*
X196514306Y-119417344D01*
X196436992Y-119603996D01*
X199600694Y-120149077D02*
X198835328Y-118301318D01*
X198944666Y-118565284D02*
X199021979Y-118378632D01*
X199231276Y-118137311D01*
X199627225Y-117973304D01*
X199945859Y-117995949D01*
X200187179Y-118205245D01*
X200788539Y-119657056D01*
X200187179Y-118205245D02*
X200209824Y-117886611D01*
X200419120Y-117645290D01*
X200815069Y-117481282D01*
X201133704Y-117503927D01*
X201375024Y-117713223D01*
X201976384Y-119165034D01*
X204484057Y-118126322D02*
X203882698Y-116674511D01*
X203641377Y-116465215D01*
X203322743Y-116442570D01*
X202794811Y-116661247D01*
X202585515Y-116902567D01*
X204429388Y-117994340D02*
X204220092Y-118235660D01*
X203560178Y-118509006D01*
X203241544Y-118486361D01*
X203000223Y-118277064D01*
X202890885Y-118013098D01*
X202913529Y-117694464D01*
X203122826Y-117453143D01*
X203782740Y-117179798D01*
X203992036Y-116938477D01*
X205038519Y-115731872D02*
X205803886Y-117579631D01*
X205147857Y-115995838D02*
X205225171Y-115809186D01*
X205434467Y-115567865D01*
X205830416Y-115403858D01*
X206149050Y-115426503D01*
X206390371Y-115635799D01*
X206991731Y-117087610D01*
X207546192Y-114693160D02*
X208311559Y-116540919D01*
X207655530Y-114957125D02*
X207732844Y-114770474D01*
X207942140Y-114529153D01*
X208338089Y-114365146D01*
X208656724Y-114387790D01*
X208898044Y-114597087D01*
X209499404Y-116048898D01*
X211760262Y-112174498D02*
X211837576Y-111987846D01*
X212046872Y-111746525D01*
X212706786Y-111473180D01*
X213025420Y-111495825D01*
X213212072Y-111573138D01*
X213453393Y-111782434D01*
X213562731Y-112046401D01*
X213594756Y-112497018D01*
X212666991Y-114736840D01*
X214382767Y-114026142D01*
X214950493Y-110543806D02*
X215214459Y-110434468D01*
X215533094Y-110457112D01*
X215719745Y-110534426D01*
X215961066Y-110743722D01*
X216311725Y-111216985D01*
X216585071Y-111876899D01*
X216671764Y-112459499D01*
X216649120Y-112778134D01*
X216571806Y-112964786D01*
X216362510Y-113206106D01*
X216098543Y-113315445D01*
X215779909Y-113292800D01*
X215593257Y-113215486D01*
X215351936Y-113006189D01*
X215001278Y-112532927D01*
X214727932Y-111873013D01*
X214641239Y-111290413D01*
X214663883Y-110971778D01*
X214741197Y-110785127D01*
X214950493Y-110543806D01*
X219662079Y-111839380D02*
X218078286Y-112495408D01*
X218870182Y-112167394D02*
X217722132Y-109395756D01*
X217622173Y-109901042D01*
X217467547Y-110274346D01*
X217258250Y-110515667D01*
X219437908Y-108685058D02*
X221285667Y-107919691D01*
X221245873Y-111183351D01*
X101091045Y-122755019D02*
X100925552Y-122870899D01*
X100478685Y-122937165D01*
X100197312Y-122887552D01*
X99800057Y-122672444D01*
X99568298Y-122341456D01*
X99477225Y-122035276D01*
X99435766Y-121447722D01*
X99510187Y-121025661D01*
X99750101Y-120487721D01*
X99940401Y-120231154D01*
X100271388Y-119999394D01*
X100718256Y-119933128D01*
X100999630Y-119982742D01*
X101396883Y-120197849D01*
X101512763Y-120363343D01*
X103921091Y-121513301D02*
X103573795Y-123482917D01*
X102654910Y-121290039D02*
X102382035Y-122837594D01*
X102473107Y-123143775D01*
X102729674Y-123334075D01*
X103151735Y-123408496D01*
X103457915Y-123317423D01*
X103623409Y-123201543D01*
X105327960Y-121761370D02*
X104807016Y-124715793D01*
X105303153Y-121902057D02*
X105609333Y-121810984D01*
X106172081Y-121910211D01*
X106428648Y-122100512D01*
X106544527Y-122266005D01*
X106635600Y-122572186D01*
X106486759Y-123416307D01*
X106296459Y-123672874D01*
X106130965Y-123788754D01*
X105824785Y-123879827D01*
X105262037Y-123780599D01*
X105005471Y-123590299D01*
X108075774Y-124276737D02*
X107819207Y-124086437D01*
X107703327Y-123920943D01*
X107612255Y-123614762D01*
X107761096Y-122770641D01*
X107951396Y-122514074D01*
X108116890Y-122398194D01*
X108423070Y-122307121D01*
X108845131Y-122381542D01*
X109101698Y-122571843D01*
X109217577Y-122737336D01*
X109308650Y-123043516D01*
X109159809Y-123887637D01*
X108969508Y-124144205D01*
X108804015Y-124260085D01*
X108497835Y-124351158D01*
X108075774Y-124276737D01*
X110748824Y-124748068D02*
X110492257Y-124557767D01*
X110401184Y-124251586D01*
X110847708Y-121719224D01*
X113140500Y-125169785D02*
X113413376Y-123622229D01*
X113322303Y-123316049D01*
X113065736Y-123125749D01*
X112502989Y-123026521D01*
X112196808Y-123117594D01*
X113165307Y-125029098D02*
X112859127Y-125120171D01*
X112155692Y-124996137D01*
X111899126Y-124805836D01*
X111808053Y-124499655D01*
X111857667Y-124218282D01*
X112047967Y-123961715D01*
X112354147Y-123870642D01*
X113057582Y-123994677D01*
X113363762Y-123903604D01*
X118536213Y-125831073D02*
X118370719Y-125946953D01*
X117923852Y-126013219D01*
X117642479Y-125963605D01*
X117245225Y-125748498D01*
X117013465Y-125417510D01*
X116922392Y-125111329D01*
X116880933Y-124523776D01*
X116955354Y-124101715D01*
X117195268Y-123563775D01*
X117385568Y-123307208D01*
X117716555Y-123075448D01*
X118163423Y-123009182D01*
X118444797Y-123058796D01*
X118842050Y-123273903D01*
X118957930Y-123439396D01*
X121018962Y-126558970D02*
X121291838Y-125011415D01*
X121200765Y-124705235D01*
X120944198Y-124514934D01*
X120381451Y-124415707D01*
X120075271Y-124506780D01*
X121043769Y-126418284D02*
X120737589Y-126509357D01*
X120034154Y-126385322D01*
X119777588Y-126195022D01*
X119686515Y-125888841D01*
X119736129Y-125607467D01*
X119926429Y-125350901D01*
X120232609Y-125259828D01*
X120936044Y-125383862D01*
X121242224Y-125292789D01*
X122425831Y-126807039D02*
X122946775Y-123852616D01*
X122748320Y-124978110D02*
X123054501Y-124887037D01*
X123617248Y-124986265D01*
X123873815Y-125176565D01*
X123989695Y-125342059D01*
X124080768Y-125648239D01*
X123931926Y-126492360D01*
X123741626Y-126748928D01*
X123576132Y-126864808D01*
X123269952Y-126955881D01*
X122707204Y-126856653D01*
X122450638Y-126666353D01*
X125520941Y-127352791D02*
X125264374Y-127162490D01*
X125173302Y-126856309D01*
X125619825Y-124323947D01*
X127796738Y-127609014D02*
X127490557Y-127700087D01*
X126927810Y-127600860D01*
X126671243Y-127410559D01*
X126580170Y-127104378D01*
X126778625Y-125978884D01*
X126968926Y-125722317D01*
X127275106Y-125631244D01*
X127837854Y-125730472D01*
X128094420Y-125920772D01*
X128185493Y-126226952D01*
X128135879Y-126508327D01*
X126679398Y-126541631D01*
X132687472Y-127020773D02*
X131702664Y-126847124D01*
X131429788Y-128394680D02*
X131950733Y-125440257D01*
X133357601Y-125688325D01*
X135112453Y-128898972D02*
X134806273Y-128990045D01*
X134243525Y-128890818D01*
X133986958Y-128700517D01*
X133895886Y-128394336D01*
X134094341Y-127268841D01*
X134284641Y-127012275D01*
X134590821Y-126921202D01*
X135153569Y-127020430D01*
X135410136Y-127210730D01*
X135501208Y-127516910D01*
X135451595Y-127798285D01*
X133995113Y-127831589D01*
X137644816Y-129345496D02*
X137338636Y-129436569D01*
X136775888Y-129337341D01*
X136519322Y-129147041D01*
X136428249Y-128840860D01*
X136626704Y-127715365D01*
X136817004Y-127458799D01*
X137123185Y-127367726D01*
X137685932Y-127466954D01*
X137942499Y-127657254D01*
X138033572Y-127963434D01*
X137983958Y-128244809D01*
X136527476Y-128278113D01*
X140293059Y-129957514D02*
X140814004Y-127003090D01*
X140317866Y-129816827D02*
X140011686Y-129907900D01*
X139448938Y-129808672D01*
X139192372Y-129618372D01*
X139076492Y-129452878D01*
X138985419Y-129146697D01*
X139134260Y-128302576D01*
X139324561Y-128046010D01*
X139490054Y-127930130D01*
X139796234Y-127839057D01*
X140358982Y-127938284D01*
X140615549Y-128128585D01*
X141625163Y-128161546D02*
X142750658Y-128360001D01*
X142220872Y-127251159D02*
X141774349Y-129783522D01*
X141865421Y-130089703D01*
X142121988Y-130280003D01*
X142403361Y-130329617D01*
X143388170Y-130503265D02*
X143909115Y-127548842D01*
X144654351Y-130726527D02*
X144927227Y-129178972D01*
X144836154Y-128872791D01*
X144579587Y-128682491D01*
X144157526Y-128608070D01*
X143851346Y-128699143D01*
X143685853Y-128815023D01*
X146061220Y-130974596D02*
X146408516Y-129004981D01*
X146309289Y-129567727D02*
X146499589Y-129311161D01*
X146665083Y-129195281D01*
X146971263Y-129104208D01*
X147252637Y-129153822D01*
X148312209Y-131371506D02*
X148055642Y-131181206D01*
X147939762Y-131015712D01*
X147848690Y-130709531D01*
X147997531Y-129865410D01*
X148187831Y-129608843D01*
X148353325Y-129492964D01*
X148659505Y-129401891D01*
X149081566Y-129476311D01*
X149338133Y-129666612D01*
X149454013Y-129832105D01*
X149545085Y-130138285D01*
X149396244Y-130982407D01*
X149205944Y-131238974D01*
X149040450Y-131354854D01*
X148734270Y-131445927D01*
X148312209Y-131371506D01*
X152176676Y-130022063D02*
X151829380Y-131991678D01*
X150910495Y-129798801D02*
X150637619Y-131346355D01*
X150728692Y-131652537D01*
X150985259Y-131842837D01*
X151407320Y-131917258D01*
X151713500Y-131826185D01*
X151878994Y-131710305D01*
X154849726Y-130493394D02*
X154428009Y-132885069D01*
X154237709Y-133141637D01*
X154072215Y-133257516D01*
X153766034Y-133348589D01*
X153343974Y-133274169D01*
X153087407Y-133083868D01*
X154527237Y-132322322D02*
X154221056Y-132413395D01*
X153658309Y-132314168D01*
X153401742Y-132123867D01*
X153285862Y-131958374D01*
X153194789Y-131652193D01*
X153343631Y-130808072D01*
X153533931Y-130551505D01*
X153699425Y-130435625D01*
X154005605Y-130344552D01*
X154568353Y-130443780D01*
X154824919Y-130634080D01*
X155909298Y-132711078D02*
X156430243Y-129756655D01*
X157175480Y-132934340D02*
X157448355Y-131386784D01*
X157357282Y-131080604D01*
X157100716Y-130890304D01*
X156678655Y-130815883D01*
X156372475Y-130906956D01*
X156206981Y-131022836D01*
D10*
X181118695Y-88488755D02*
X215523081Y-64398545D01*
X128639747Y-76119341D02*
X128639747Y-91119341D01*
X229951412Y-70652321D02*
G75*
G02X69200000Y-70512042I-80316747J67632979D01*
G01*
X217030137Y-59622075D02*
G75*
G02X216985486Y-66429137I-3684961J-3379506D01*
G01*
X216931957Y-66485934D02*
G75*
G02X82294010Y-66429133I-67292210J63466592D01*
G01*
X82288775Y-66423571D02*
G75*
G02X82254525Y-59616449I3645543J3421990D01*
G01*
X118048377Y-87997755D02*
X126652023Y-75710474D01*
X128639747Y-91119341D02*
X170639747Y-91119341D01*
X172515049Y-76201475D02*
X181118695Y-88488755D01*
X92247638Y-51620264D02*
X83643991Y-63907545D01*
X83643991Y-63907545D02*
X118048377Y-87997755D01*
X215523081Y-64398545D02*
X206919435Y-52111264D01*
X170639747Y-91119341D02*
X170639747Y-76119341D01*
D13*
G36*
X190232403Y-111583480D02*
X190245509Y-111596212D01*
X190264392Y-111623330D01*
X190290520Y-111667844D01*
X190325359Y-111732767D01*
X190370378Y-111821111D01*
X190427042Y-111935885D01*
X190496819Y-112080104D01*
X190581175Y-112256778D01*
X190681577Y-112468919D01*
X190799494Y-112719538D01*
X190936392Y-113011648D01*
X191093737Y-113348259D01*
X191272996Y-113732384D01*
X191317534Y-113827885D01*
X191501895Y-114223449D01*
X191663633Y-114570980D01*
X191804108Y-114873536D01*
X191924687Y-115134179D01*
X192026732Y-115355967D01*
X192111610Y-115541961D01*
X192180683Y-115695220D01*
X192235315Y-115818803D01*
X192276869Y-115915770D01*
X192306712Y-115989182D01*
X192326208Y-116042097D01*
X192336718Y-116077575D01*
X192339610Y-116098676D01*
X192336244Y-116108459D01*
X192334727Y-116109431D01*
X192325931Y-116108072D01*
X192312825Y-116095340D01*
X192293942Y-116068223D01*
X192267814Y-116023708D01*
X192232974Y-115958785D01*
X192187956Y-115870443D01*
X192131292Y-115755667D01*
X192061516Y-115611449D01*
X191977159Y-115434775D01*
X191876756Y-115222634D01*
X191758839Y-114972015D01*
X191621943Y-114679905D01*
X191464597Y-114343293D01*
X191285338Y-113959168D01*
X191240800Y-113863667D01*
X191056438Y-113468104D01*
X190894702Y-113120573D01*
X190754226Y-112818017D01*
X190633647Y-112557373D01*
X190531601Y-112335585D01*
X190446724Y-112149591D01*
X190377652Y-111996333D01*
X190323020Y-111872750D01*
X190281464Y-111775782D01*
X190251621Y-111702371D01*
X190232127Y-111649456D01*
X190221615Y-111613978D01*
X190218725Y-111592877D01*
X190222090Y-111583093D01*
X190223608Y-111582122D01*
X190232403Y-111583480D01*
X190232403Y-111583480D01*
G37*
X190232403Y-111583480D02*
X190245509Y-111596212D01*
X190264392Y-111623330D01*
X190290520Y-111667844D01*
X190325359Y-111732767D01*
X190370378Y-111821111D01*
X190427042Y-111935885D01*
X190496819Y-112080104D01*
X190581175Y-112256778D01*
X190681577Y-112468919D01*
X190799494Y-112719538D01*
X190936392Y-113011648D01*
X191093737Y-113348259D01*
X191272996Y-113732384D01*
X191317534Y-113827885D01*
X191501895Y-114223449D01*
X191663633Y-114570980D01*
X191804108Y-114873536D01*
X191924687Y-115134179D01*
X192026732Y-115355967D01*
X192111610Y-115541961D01*
X192180683Y-115695220D01*
X192235315Y-115818803D01*
X192276869Y-115915770D01*
X192306712Y-115989182D01*
X192326208Y-116042097D01*
X192336718Y-116077575D01*
X192339610Y-116098676D01*
X192336244Y-116108459D01*
X192334727Y-116109431D01*
X192325931Y-116108072D01*
X192312825Y-116095340D01*
X192293942Y-116068223D01*
X192267814Y-116023708D01*
X192232974Y-115958785D01*
X192187956Y-115870443D01*
X192131292Y-115755667D01*
X192061516Y-115611449D01*
X191977159Y-115434775D01*
X191876756Y-115222634D01*
X191758839Y-114972015D01*
X191621943Y-114679905D01*
X191464597Y-114343293D01*
X191285338Y-113959168D01*
X191240800Y-113863667D01*
X191056438Y-113468104D01*
X190894702Y-113120573D01*
X190754226Y-112818017D01*
X190633647Y-112557373D01*
X190531601Y-112335585D01*
X190446724Y-112149591D01*
X190377652Y-111996333D01*
X190323020Y-111872750D01*
X190281464Y-111775782D01*
X190251621Y-111702371D01*
X190232127Y-111649456D01*
X190221615Y-111613978D01*
X190218725Y-111592877D01*
X190222090Y-111583093D01*
X190223608Y-111582122D01*
X190232403Y-111583480D01*
G36*
X194675115Y-115018090D02*
X194444913Y-115125435D01*
X192333794Y-110598126D01*
X192563996Y-110490781D01*
X194675115Y-115018090D01*
X194675115Y-115018090D01*
G37*
X194675115Y-115018090D02*
X194444913Y-115125435D01*
X192333794Y-110598126D01*
X192563996Y-110490781D01*
X194675115Y-115018090D01*
G36*
X196977137Y-113944640D02*
X196746935Y-114051985D01*
X194635816Y-109524676D01*
X194866018Y-109417330D01*
X196977137Y-113944640D01*
X196977137Y-113944640D01*
G37*
X196977137Y-113944640D02*
X196746935Y-114051985D01*
X194635816Y-109524676D01*
X194866018Y-109417330D01*
X196977137Y-113944640D01*
G36*
X199279159Y-112871189D02*
X199048957Y-112978534D01*
X196937838Y-108451225D01*
X197168040Y-108343880D01*
X199279159Y-112871189D01*
X199279159Y-112871189D01*
G37*
X199279159Y-112871189D02*
X199048957Y-112978534D01*
X196937838Y-108451225D01*
X197168040Y-108343880D01*
X199279159Y-112871189D01*
G36*
X201581180Y-111797739D02*
X201350978Y-111905084D01*
X199239859Y-107377775D01*
X199470062Y-107270430D01*
X201581180Y-111797739D01*
X201581180Y-111797739D01*
G37*
X201581180Y-111797739D02*
X201350978Y-111905084D01*
X199239859Y-107377775D01*
X199470062Y-107270430D01*
X201581180Y-111797739D01*
G36*
X203883202Y-110724289D02*
X203653000Y-110831634D01*
X201541881Y-106304324D01*
X201772083Y-106196979D01*
X203883202Y-110724289D01*
X203883202Y-110724289D01*
G37*
X203883202Y-110724289D02*
X203653000Y-110831634D01*
X201541881Y-106304324D01*
X201772083Y-106196979D01*
X203883202Y-110724289D01*
G36*
X206185224Y-109650838D02*
X205955022Y-109758183D01*
X203843903Y-105230874D01*
X204074105Y-105123529D01*
X206185224Y-109650838D01*
X206185224Y-109650838D01*
G37*
X206185224Y-109650838D02*
X205955022Y-109758183D01*
X203843903Y-105230874D01*
X204074105Y-105123529D01*
X206185224Y-109650838D01*
G36*
X208512824Y-108565461D02*
X208257044Y-108684733D01*
X206145925Y-104157424D01*
X206401705Y-104038151D01*
X208512824Y-108565461D01*
X208512824Y-108565461D01*
G37*
X208512824Y-108565461D02*
X208257044Y-108684733D01*
X206145925Y-104157424D01*
X206401705Y-104038151D01*
X208512824Y-108565461D01*
G36*
X210814845Y-107492010D02*
X210559065Y-107611282D01*
X208447946Y-103083973D01*
X208703726Y-102964701D01*
X210814845Y-107492010D01*
X210814845Y-107492010D01*
G37*
X210814845Y-107492010D02*
X210559065Y-107611282D01*
X208447946Y-103083973D01*
X208703726Y-102964701D01*
X210814845Y-107492010D01*
G36*
X213116867Y-106418560D02*
X212861087Y-106537832D01*
X210749968Y-102010523D01*
X211005748Y-101891251D01*
X213116867Y-106418560D01*
X213116867Y-106418560D01*
G37*
X213116867Y-106418560D02*
X212861087Y-106537832D01*
X210749968Y-102010523D01*
X211005748Y-101891251D01*
X213116867Y-106418560D01*
G36*
X215418889Y-105345109D02*
X215188687Y-105452455D01*
X213077568Y-100925145D01*
X213307770Y-100817800D01*
X215418889Y-105345109D01*
X215418889Y-105345109D01*
G37*
X215418889Y-105345109D02*
X215188687Y-105452455D01*
X213077568Y-100925145D01*
X213307770Y-100817800D01*
X215418889Y-105345109D01*
G36*
X217720911Y-104271659D02*
X217490709Y-104379004D01*
X215379590Y-99851695D01*
X215609792Y-99744350D01*
X217720911Y-104271659D01*
X217720911Y-104271659D01*
G37*
X217720911Y-104271659D02*
X217490709Y-104379004D01*
X215379590Y-99851695D01*
X215609792Y-99744350D01*
X217720911Y-104271659D01*
G36*
X220048511Y-103186281D02*
X219792730Y-103305554D01*
X217681611Y-98778245D01*
X217937392Y-98658972D01*
X220048511Y-103186281D01*
X220048511Y-103186281D01*
G37*
X220048511Y-103186281D02*
X219792730Y-103305554D01*
X217681611Y-98778245D01*
X217937392Y-98658972D01*
X220048511Y-103186281D01*
G36*
X222350533Y-102112831D02*
X222120331Y-102220176D01*
X220009212Y-97692867D01*
X220239414Y-97585522D01*
X222350533Y-102112831D01*
X222350533Y-102112831D01*
G37*
X222350533Y-102112831D02*
X222120331Y-102220176D01*
X220009212Y-97692867D01*
X220239414Y-97585522D01*
X222350533Y-102112831D01*
G36*
X224678133Y-101027453D02*
X224447930Y-101134798D01*
X222336812Y-96607489D01*
X222567014Y-96500144D01*
X224678133Y-101027453D01*
X224678133Y-101027453D01*
G37*
X224678133Y-101027453D02*
X224447930Y-101134798D01*
X222336812Y-96607489D01*
X222567014Y-96500144D01*
X224678133Y-101027453D01*
G36*
X226852264Y-100013639D02*
X226698796Y-100085203D01*
X224587677Y-95557893D01*
X224741145Y-95486330D01*
X226852264Y-100013639D01*
X226852264Y-100013639D01*
G37*
X226852264Y-100013639D02*
X226698796Y-100085203D01*
X224587677Y-95557893D01*
X224741145Y-95486330D01*
X226852264Y-100013639D01*
G36*
X194623570Y-111951895D02*
X194687153Y-111945731D01*
X194795716Y-111960592D01*
X194890027Y-112007618D01*
X194976457Y-112092854D01*
X195061378Y-112222346D01*
X195137908Y-112373384D01*
X195196427Y-112503024D01*
X195232950Y-112597423D01*
X195251783Y-112671281D01*
X195257237Y-112739297D01*
X195256224Y-112777069D01*
X195242422Y-112875360D01*
X195215970Y-112961833D01*
X195204114Y-112985162D01*
X195130610Y-113063739D01*
X195023870Y-113132236D01*
X194907048Y-113178024D01*
X194828867Y-113189852D01*
X194752874Y-113175901D01*
X194668685Y-113140342D01*
X194599786Y-113094842D01*
X194572954Y-113062739D01*
X194590751Y-113041964D01*
X194641419Y-113002676D01*
X194665998Y-112985584D01*
X194738139Y-112944105D01*
X194793480Y-112936245D01*
X194838883Y-112949485D01*
X194920661Y-112959962D01*
X194983157Y-112924511D01*
X195021473Y-112851782D01*
X195030713Y-112750425D01*
X195011124Y-112645136D01*
X194980743Y-112544968D01*
X194916409Y-112638718D01*
X194830221Y-112722885D01*
X194719034Y-112775011D01*
X194603087Y-112787189D01*
X194558318Y-112778634D01*
X194443182Y-112718349D01*
X194350149Y-112621037D01*
X194308830Y-112544480D01*
X194530369Y-112441175D01*
X194586832Y-112517612D01*
X194660293Y-112568808D01*
X194740225Y-112582627D01*
X194779840Y-112571494D01*
X194827426Y-112528168D01*
X194858297Y-112472628D01*
X194865205Y-112378254D01*
X194828062Y-112282579D01*
X194755661Y-112204145D01*
X194720887Y-112182796D01*
X194629106Y-112157732D01*
X194558157Y-112184954D01*
X194510546Y-112261110D01*
X194501431Y-112351628D01*
X194530369Y-112441175D01*
X194308830Y-112544480D01*
X194284973Y-112500277D01*
X194253406Y-112369643D01*
X194261203Y-112242715D01*
X194295763Y-112159047D01*
X194379377Y-112067987D01*
X194496279Y-111994776D01*
X194623570Y-111951895D01*
X194623570Y-111951895D01*
G37*
X194623570Y-111951895D02*
X194687153Y-111945731D01*
X194795716Y-111960592D01*
X194890027Y-112007618D01*
X194976457Y-112092854D01*
X195061378Y-112222346D01*
X195137908Y-112373384D01*
X195196427Y-112503024D01*
X195232950Y-112597423D01*
X195251783Y-112671281D01*
X195257237Y-112739297D01*
X195256224Y-112777069D01*
X195242422Y-112875360D01*
X195215970Y-112961833D01*
X195204114Y-112985162D01*
X195130610Y-113063739D01*
X195023870Y-113132236D01*
X194907048Y-113178024D01*
X194828867Y-113189852D01*
X194752874Y-113175901D01*
X194668685Y-113140342D01*
X194599786Y-113094842D01*
X194572954Y-113062739D01*
X194590751Y-113041964D01*
X194641419Y-113002676D01*
X194665998Y-112985584D01*
X194738139Y-112944105D01*
X194793480Y-112936245D01*
X194838883Y-112949485D01*
X194920661Y-112959962D01*
X194983157Y-112924511D01*
X195021473Y-112851782D01*
X195030713Y-112750425D01*
X195011124Y-112645136D01*
X194980743Y-112544968D01*
X194916409Y-112638718D01*
X194830221Y-112722885D01*
X194719034Y-112775011D01*
X194603087Y-112787189D01*
X194558318Y-112778634D01*
X194443182Y-112718349D01*
X194350149Y-112621037D01*
X194308830Y-112544480D01*
X194530369Y-112441175D01*
X194586832Y-112517612D01*
X194660293Y-112568808D01*
X194740225Y-112582627D01*
X194779840Y-112571494D01*
X194827426Y-112528168D01*
X194858297Y-112472628D01*
X194865205Y-112378254D01*
X194828062Y-112282579D01*
X194755661Y-112204145D01*
X194720887Y-112182796D01*
X194629106Y-112157732D01*
X194558157Y-112184954D01*
X194510546Y-112261110D01*
X194501431Y-112351628D01*
X194530369Y-112441175D01*
X194308830Y-112544480D01*
X194284973Y-112500277D01*
X194253406Y-112369643D01*
X194261203Y-112242715D01*
X194295763Y-112159047D01*
X194379377Y-112067987D01*
X194496279Y-111994776D01*
X194623570Y-111951895D01*
G36*
X201496357Y-108733171D02*
X201625407Y-108716452D01*
X201747259Y-108741246D01*
X201799312Y-108769475D01*
X201886543Y-108858517D01*
X201930664Y-108968032D01*
X201928898Y-109083398D01*
X201879102Y-109189166D01*
X201821242Y-109264149D01*
X201916084Y-109260514D01*
X202039907Y-109279789D01*
X202133794Y-109346398D01*
X202194048Y-109457696D01*
X202194626Y-109459533D01*
X202211689Y-109549907D01*
X202209709Y-109631888D01*
X202206738Y-109644364D01*
X202144284Y-109760824D01*
X202039265Y-109858680D01*
X201904624Y-109929573D01*
X201753303Y-109965139D01*
X201706347Y-109967672D01*
X201579086Y-109947372D01*
X201490781Y-109895078D01*
X201436681Y-109844917D01*
X201409260Y-109808755D01*
X201408412Y-109802360D01*
X201437569Y-109769440D01*
X201492662Y-109731840D01*
X201554862Y-109699606D01*
X201605337Y-109682783D01*
X201624561Y-109687045D01*
X201669730Y-109726643D01*
X201745126Y-109748535D01*
X201825932Y-109747509D01*
X201860849Y-109736661D01*
X201932284Y-109675808D01*
X201960744Y-109589677D01*
X201943473Y-109502823D01*
X201887271Y-109442651D01*
X201801038Y-109420551D01*
X201698885Y-109439408D01*
X201677628Y-109448421D01*
X201619363Y-109470279D01*
X201585334Y-109457522D01*
X201553620Y-109401346D01*
X201552051Y-109397990D01*
X201528413Y-109335630D01*
X201538422Y-109300876D01*
X201581349Y-109275339D01*
X201663995Y-109213656D01*
X201705359Y-109132311D01*
X201698712Y-109045507D01*
X201694698Y-109036102D01*
X201636522Y-108962543D01*
X201562092Y-108933447D01*
X201486881Y-108947378D01*
X201426359Y-109002897D01*
X201401567Y-109063344D01*
X201364472Y-109141417D01*
X201290359Y-109193050D01*
X201209896Y-109219750D01*
X201164813Y-109204084D01*
X201149763Y-109142205D01*
X201151777Y-109093333D01*
X201187817Y-108971483D01*
X201265380Y-108866779D01*
X201372287Y-108785310D01*
X201496357Y-108733171D01*
X201496357Y-108733171D01*
G37*
X201496357Y-108733171D02*
X201625407Y-108716452D01*
X201747259Y-108741246D01*
X201799312Y-108769475D01*
X201886543Y-108858517D01*
X201930664Y-108968032D01*
X201928898Y-109083398D01*
X201879102Y-109189166D01*
X201821242Y-109264149D01*
X201916084Y-109260514D01*
X202039907Y-109279789D01*
X202133794Y-109346398D01*
X202194048Y-109457696D01*
X202194626Y-109459533D01*
X202211689Y-109549907D01*
X202209709Y-109631888D01*
X202206738Y-109644364D01*
X202144284Y-109760824D01*
X202039265Y-109858680D01*
X201904624Y-109929573D01*
X201753303Y-109965139D01*
X201706347Y-109967672D01*
X201579086Y-109947372D01*
X201490781Y-109895078D01*
X201436681Y-109844917D01*
X201409260Y-109808755D01*
X201408412Y-109802360D01*
X201437569Y-109769440D01*
X201492662Y-109731840D01*
X201554862Y-109699606D01*
X201605337Y-109682783D01*
X201624561Y-109687045D01*
X201669730Y-109726643D01*
X201745126Y-109748535D01*
X201825932Y-109747509D01*
X201860849Y-109736661D01*
X201932284Y-109675808D01*
X201960744Y-109589677D01*
X201943473Y-109502823D01*
X201887271Y-109442651D01*
X201801038Y-109420551D01*
X201698885Y-109439408D01*
X201677628Y-109448421D01*
X201619363Y-109470279D01*
X201585334Y-109457522D01*
X201553620Y-109401346D01*
X201552051Y-109397990D01*
X201528413Y-109335630D01*
X201538422Y-109300876D01*
X201581349Y-109275339D01*
X201663995Y-109213656D01*
X201705359Y-109132311D01*
X201698712Y-109045507D01*
X201694698Y-109036102D01*
X201636522Y-108962543D01*
X201562092Y-108933447D01*
X201486881Y-108947378D01*
X201426359Y-109002897D01*
X201401567Y-109063344D01*
X201364472Y-109141417D01*
X201290359Y-109193050D01*
X201209896Y-109219750D01*
X201164813Y-109204084D01*
X201149763Y-109142205D01*
X201151777Y-109093333D01*
X201187817Y-108971483D01*
X201265380Y-108866779D01*
X201372287Y-108785310D01*
X201496357Y-108733171D01*
G36*
X211035671Y-104493038D02*
X210575266Y-104707728D01*
X210640571Y-104847775D01*
X210678790Y-104927100D01*
X210703948Y-104962858D01*
X210726790Y-104962662D01*
X210758062Y-104934124D01*
X210759854Y-104932281D01*
X210871494Y-104852160D01*
X210993842Y-104821479D01*
X211116576Y-104837297D01*
X211229375Y-104896673D01*
X211321917Y-104996665D01*
X211375745Y-105107787D01*
X211398755Y-105256807D01*
X211369521Y-105396777D01*
X211292242Y-105518324D01*
X211171118Y-105612077D01*
X211143565Y-105625941D01*
X211044391Y-105657521D01*
X210940203Y-105670388D01*
X210931746Y-105670268D01*
X210858773Y-105657008D01*
X210778441Y-105626835D01*
X210707052Y-105588242D01*
X210660906Y-105549719D01*
X210652975Y-105525038D01*
X210678724Y-105498325D01*
X210733423Y-105456478D01*
X210745485Y-105448138D01*
X210812113Y-105411812D01*
X210868097Y-105412303D01*
X210915554Y-105432445D01*
X211007447Y-105454631D01*
X211084978Y-105430967D01*
X211139171Y-105371791D01*
X211161044Y-105287442D01*
X211141617Y-105188256D01*
X211136914Y-105177612D01*
X211080429Y-105102800D01*
X211004875Y-105059576D01*
X210925080Y-105049490D01*
X210855871Y-105074088D01*
X210812077Y-105134923D01*
X210809571Y-105143417D01*
X210771518Y-105194185D01*
X210690024Y-105245751D01*
X210679952Y-105250568D01*
X210564284Y-105304505D01*
X210500081Y-105124250D01*
X210453699Y-105001398D01*
X210401394Y-104873566D01*
X210367479Y-104796837D01*
X210299079Y-104649678D01*
X210964107Y-104339570D01*
X211035671Y-104493038D01*
X211035671Y-104493038D01*
G37*
X211035671Y-104493038D02*
X210575266Y-104707728D01*
X210640571Y-104847775D01*
X210678790Y-104927100D01*
X210703948Y-104962858D01*
X210726790Y-104962662D01*
X210758062Y-104934124D01*
X210759854Y-104932281D01*
X210871494Y-104852160D01*
X210993842Y-104821479D01*
X211116576Y-104837297D01*
X211229375Y-104896673D01*
X211321917Y-104996665D01*
X211375745Y-105107787D01*
X211398755Y-105256807D01*
X211369521Y-105396777D01*
X211292242Y-105518324D01*
X211171118Y-105612077D01*
X211143565Y-105625941D01*
X211044391Y-105657521D01*
X210940203Y-105670388D01*
X210931746Y-105670268D01*
X210858773Y-105657008D01*
X210778441Y-105626835D01*
X210707052Y-105588242D01*
X210660906Y-105549719D01*
X210652975Y-105525038D01*
X210678724Y-105498325D01*
X210733423Y-105456478D01*
X210745485Y-105448138D01*
X210812113Y-105411812D01*
X210868097Y-105412303D01*
X210915554Y-105432445D01*
X211007447Y-105454631D01*
X211084978Y-105430967D01*
X211139171Y-105371791D01*
X211161044Y-105287442D01*
X211141617Y-105188256D01*
X211136914Y-105177612D01*
X211080429Y-105102800D01*
X211004875Y-105059576D01*
X210925080Y-105049490D01*
X210855871Y-105074088D01*
X210812077Y-105134923D01*
X210809571Y-105143417D01*
X210771518Y-105194185D01*
X210690024Y-105245751D01*
X210679952Y-105250568D01*
X210564284Y-105304505D01*
X210500081Y-105124250D01*
X210453699Y-105001398D01*
X210401394Y-104873566D01*
X210367479Y-104796837D01*
X210299079Y-104649678D01*
X210964107Y-104339570D01*
X211035671Y-104493038D01*
G36*
X215352563Y-102273471D02*
X215482429Y-102258986D01*
X215597960Y-102289111D01*
X215621956Y-102303134D01*
X215680668Y-102344870D01*
X215714106Y-102373729D01*
X215716087Y-102376609D01*
X215699798Y-102400530D01*
X215649952Y-102441641D01*
X215625528Y-102458844D01*
X215553387Y-102500323D01*
X215498046Y-102508182D01*
X215452643Y-102494943D01*
X215370864Y-102484466D01*
X215308369Y-102519917D01*
X215270053Y-102592646D01*
X215260812Y-102694003D01*
X215280402Y-102799291D01*
X215310784Y-102899459D01*
X215375117Y-102805709D01*
X215461305Y-102721543D01*
X215572492Y-102669417D01*
X215688438Y-102657238D01*
X215733208Y-102665795D01*
X215849197Y-102726281D01*
X215940843Y-102823146D01*
X216003606Y-102943374D01*
X216032946Y-103073950D01*
X216024318Y-103201857D01*
X215973183Y-103314079D01*
X215963653Y-103326262D01*
X215850706Y-103425591D01*
X215718475Y-103481532D01*
X215581368Y-103488042D01*
X215578861Y-103487655D01*
X215466972Y-103459823D01*
X215376199Y-103410143D01*
X215297445Y-103329880D01*
X215221609Y-103210297D01*
X215217632Y-103202328D01*
X215437175Y-103099954D01*
X215481512Y-103186576D01*
X215556696Y-103254012D01*
X215570640Y-103261631D01*
X215662420Y-103286696D01*
X215733369Y-103259473D01*
X215780980Y-103183318D01*
X215790096Y-103092799D01*
X215761158Y-103003254D01*
X215704695Y-102926816D01*
X215631233Y-102875620D01*
X215551301Y-102861800D01*
X215511686Y-102872935D01*
X215450018Y-102928336D01*
X215425929Y-103008941D01*
X215437175Y-103099954D01*
X215217632Y-103202328D01*
X215158696Y-103084247D01*
X215077292Y-102881621D01*
X215038887Y-102711829D01*
X215043840Y-102570726D01*
X215092501Y-102454166D01*
X215185230Y-102358003D01*
X215223258Y-102331509D01*
X215352563Y-102273471D01*
X215352563Y-102273471D01*
G37*
X215352563Y-102273471D02*
X215482429Y-102258986D01*
X215597960Y-102289111D01*
X215621956Y-102303134D01*
X215680668Y-102344870D01*
X215714106Y-102373729D01*
X215716087Y-102376609D01*
X215699798Y-102400530D01*
X215649952Y-102441641D01*
X215625528Y-102458844D01*
X215553387Y-102500323D01*
X215498046Y-102508182D01*
X215452643Y-102494943D01*
X215370864Y-102484466D01*
X215308369Y-102519917D01*
X215270053Y-102592646D01*
X215260812Y-102694003D01*
X215280402Y-102799291D01*
X215310784Y-102899459D01*
X215375117Y-102805709D01*
X215461305Y-102721543D01*
X215572492Y-102669417D01*
X215688438Y-102657238D01*
X215733208Y-102665795D01*
X215849197Y-102726281D01*
X215940843Y-102823146D01*
X216003606Y-102943374D01*
X216032946Y-103073950D01*
X216024318Y-103201857D01*
X215973183Y-103314079D01*
X215963653Y-103326262D01*
X215850706Y-103425591D01*
X215718475Y-103481532D01*
X215581368Y-103488042D01*
X215578861Y-103487655D01*
X215466972Y-103459823D01*
X215376199Y-103410143D01*
X215297445Y-103329880D01*
X215221609Y-103210297D01*
X215217632Y-103202328D01*
X215437175Y-103099954D01*
X215481512Y-103186576D01*
X215556696Y-103254012D01*
X215570640Y-103261631D01*
X215662420Y-103286696D01*
X215733369Y-103259473D01*
X215780980Y-103183318D01*
X215790096Y-103092799D01*
X215761158Y-103003254D01*
X215704695Y-102926816D01*
X215631233Y-102875620D01*
X215551301Y-102861800D01*
X215511686Y-102872935D01*
X215450018Y-102928336D01*
X215425929Y-103008941D01*
X215437175Y-103099954D01*
X215217632Y-103202328D01*
X215158696Y-103084247D01*
X215077292Y-102881621D01*
X215038887Y-102711829D01*
X215043840Y-102570726D01*
X215092501Y-102454166D01*
X215185230Y-102358003D01*
X215223258Y-102331509D01*
X215352563Y-102273471D01*
G36*
X224620675Y-97962133D02*
X224748509Y-97961892D01*
X224858277Y-97998240D01*
X224941803Y-98065655D01*
X224990910Y-98158608D01*
X224997423Y-98271577D01*
X224979873Y-98340273D01*
X224957624Y-98415680D01*
X224962582Y-98452497D01*
X224981721Y-98461099D01*
X225031846Y-98461513D01*
X225044192Y-98458517D01*
X225082966Y-98468245D01*
X225139149Y-98510248D01*
X225197694Y-98570621D01*
X225243553Y-98635458D01*
X225250588Y-98649247D01*
X225278645Y-98769335D01*
X225264328Y-98897106D01*
X225211107Y-99009026D01*
X225194602Y-99029097D01*
X225084305Y-99117626D01*
X224947013Y-99181905D01*
X224809357Y-99209609D01*
X224804269Y-99209780D01*
X224688242Y-99187607D01*
X224578821Y-99123951D01*
X224496805Y-99031960D01*
X224483439Y-99006974D01*
X224477485Y-98987942D01*
X224705192Y-98881761D01*
X224767983Y-98968719D01*
X224848949Y-99012470D01*
X224936077Y-99007065D01*
X224948115Y-99002032D01*
X225016066Y-98942921D01*
X225035256Y-98892189D01*
X225031867Y-98791148D01*
X224992370Y-98702347D01*
X224927549Y-98636885D01*
X224848187Y-98605858D01*
X224769206Y-98618362D01*
X224703472Y-98676816D01*
X224678910Y-98763975D01*
X224698687Y-98866814D01*
X224705192Y-98881761D01*
X224477485Y-98987942D01*
X224460777Y-98934531D01*
X224449470Y-98850633D01*
X224450496Y-98775746D01*
X224464836Y-98730333D01*
X224470000Y-98726268D01*
X224500092Y-98696958D01*
X224512133Y-98680071D01*
X224514520Y-98651189D01*
X224475518Y-98623246D01*
X224420764Y-98600990D01*
X224314471Y-98538449D01*
X224270492Y-98477239D01*
X224498189Y-98371062D01*
X224554428Y-98441851D01*
X224629826Y-98474552D01*
X224697643Y-98464894D01*
X224745860Y-98421349D01*
X224766595Y-98383806D01*
X224772066Y-98302494D01*
X224738882Y-98226986D01*
X224679704Y-98170764D01*
X224607192Y-98147308D01*
X224554516Y-98157957D01*
X224498787Y-98211819D01*
X224479984Y-98292767D01*
X224498189Y-98371062D01*
X224270492Y-98477239D01*
X224251453Y-98450743D01*
X224230688Y-98347685D01*
X224251151Y-98239093D01*
X224311818Y-98134780D01*
X224411668Y-98044562D01*
X224482953Y-98004489D01*
X224620675Y-97962133D01*
X224620675Y-97962133D01*
G37*
X224620675Y-97962133D02*
X224748509Y-97961892D01*
X224858277Y-97998240D01*
X224941803Y-98065655D01*
X224990910Y-98158608D01*
X224997423Y-98271577D01*
X224979873Y-98340273D01*
X224957624Y-98415680D01*
X224962582Y-98452497D01*
X224981721Y-98461099D01*
X225031846Y-98461513D01*
X225044192Y-98458517D01*
X225082966Y-98468245D01*
X225139149Y-98510248D01*
X225197694Y-98570621D01*
X225243553Y-98635458D01*
X225250588Y-98649247D01*
X225278645Y-98769335D01*
X225264328Y-98897106D01*
X225211107Y-99009026D01*
X225194602Y-99029097D01*
X225084305Y-99117626D01*
X224947013Y-99181905D01*
X224809357Y-99209609D01*
X224804269Y-99209780D01*
X224688242Y-99187607D01*
X224578821Y-99123951D01*
X224496805Y-99031960D01*
X224483439Y-99006974D01*
X224477485Y-98987942D01*
X224705192Y-98881761D01*
X224767983Y-98968719D01*
X224848949Y-99012470D01*
X224936077Y-99007065D01*
X224948115Y-99002032D01*
X225016066Y-98942921D01*
X225035256Y-98892189D01*
X225031867Y-98791148D01*
X224992370Y-98702347D01*
X224927549Y-98636885D01*
X224848187Y-98605858D01*
X224769206Y-98618362D01*
X224703472Y-98676816D01*
X224678910Y-98763975D01*
X224698687Y-98866814D01*
X224705192Y-98881761D01*
X224477485Y-98987942D01*
X224460777Y-98934531D01*
X224449470Y-98850633D01*
X224450496Y-98775746D01*
X224464836Y-98730333D01*
X224470000Y-98726268D01*
X224500092Y-98696958D01*
X224512133Y-98680071D01*
X224514520Y-98651189D01*
X224475518Y-98623246D01*
X224420764Y-98600990D01*
X224314471Y-98538449D01*
X224270492Y-98477239D01*
X224498189Y-98371062D01*
X224554428Y-98441851D01*
X224629826Y-98474552D01*
X224697643Y-98464894D01*
X224745860Y-98421349D01*
X224766595Y-98383806D01*
X224772066Y-98302494D01*
X224738882Y-98226986D01*
X224679704Y-98170764D01*
X224607192Y-98147308D01*
X224554516Y-98157957D01*
X224498787Y-98211819D01*
X224479984Y-98292767D01*
X224498189Y-98371062D01*
X224270492Y-98477239D01*
X224251453Y-98450743D01*
X224230688Y-98347685D01*
X224251151Y-98239093D01*
X224311818Y-98134780D01*
X224411668Y-98044562D01*
X224482953Y-98004489D01*
X224620675Y-97962133D01*
G36*
X192810194Y-113957051D02*
X192938085Y-113897414D01*
X193014574Y-113863788D01*
X193057133Y-113856491D01*
X193082650Y-113877289D01*
X193101757Y-113914512D01*
X193137538Y-113991246D01*
X192370197Y-114349063D01*
X192334416Y-114272329D01*
X192316322Y-114227360D01*
X192321156Y-114197308D01*
X192358307Y-114169434D01*
X192437161Y-114130999D01*
X192579992Y-114064396D01*
X192407047Y-113693515D01*
X192344611Y-113562989D01*
X192289407Y-113453877D01*
X192246112Y-113374946D01*
X192219399Y-113334962D01*
X192214216Y-113331907D01*
X192185639Y-113361111D01*
X192159938Y-113399151D01*
X192119355Y-113465985D01*
X192076299Y-113535154D01*
X192027051Y-113613184D01*
X191987140Y-113527010D01*
X191969017Y-113475607D01*
X191971311Y-113426810D01*
X191998202Y-113364249D01*
X192051397Y-113275486D01*
X192127831Y-113167072D01*
X192199395Y-113097521D01*
X192262226Y-113060401D01*
X192368887Y-113010664D01*
X192810194Y-113957051D01*
X192810194Y-113957051D01*
G37*
X192810194Y-113957051D02*
X192938085Y-113897414D01*
X193014574Y-113863788D01*
X193057133Y-113856491D01*
X193082650Y-113877289D01*
X193101757Y-113914512D01*
X193137538Y-113991246D01*
X192370197Y-114349063D01*
X192334416Y-114272329D01*
X192316322Y-114227360D01*
X192321156Y-114197308D01*
X192358307Y-114169434D01*
X192437161Y-114130999D01*
X192579992Y-114064396D01*
X192407047Y-113693515D01*
X192344611Y-113562989D01*
X192289407Y-113453877D01*
X192246112Y-113374946D01*
X192219399Y-113334962D01*
X192214216Y-113331907D01*
X192185639Y-113361111D01*
X192159938Y-113399151D01*
X192119355Y-113465985D01*
X192076299Y-113535154D01*
X192027051Y-113613184D01*
X191987140Y-113527010D01*
X191969017Y-113475607D01*
X191971311Y-113426810D01*
X191998202Y-113364249D01*
X192051397Y-113275486D01*
X192127831Y-113167072D01*
X192199395Y-113097521D01*
X192262226Y-113060401D01*
X192368887Y-113010664D01*
X192810194Y-113957051D01*
G36*
X196980077Y-110869427D02*
X197002911Y-110867774D01*
X197128117Y-110887347D01*
X197236422Y-110954991D01*
X197314697Y-111062458D01*
X197315472Y-111064111D01*
X197338365Y-111170525D01*
X197327508Y-111307670D01*
X197284958Y-111462638D01*
X197232666Y-111584432D01*
X197185373Y-111686483D01*
X197148781Y-111778916D01*
X197130969Y-111841036D01*
X197119773Y-111916321D01*
X197632513Y-111677227D01*
X197716003Y-111856273D01*
X196948663Y-112214089D01*
X196909572Y-112130258D01*
X196890125Y-112078217D01*
X196882623Y-112022270D01*
X196888719Y-111952710D01*
X196910074Y-111859835D01*
X196948342Y-111733937D01*
X197005182Y-111565314D01*
X197006890Y-111560368D01*
X197057992Y-111403205D01*
X197086832Y-111290236D01*
X197094870Y-111214435D01*
X197086903Y-111174958D01*
X197030574Y-111105068D01*
X196958268Y-111078373D01*
X196885791Y-111092214D01*
X196828946Y-111143931D01*
X196804047Y-111222576D01*
X196791715Y-111288362D01*
X196757714Y-111331193D01*
X196686102Y-111370990D01*
X196684777Y-111371611D01*
X196615212Y-111401876D01*
X196580388Y-111404089D01*
X196564312Y-111374941D01*
X196557867Y-111345353D01*
X196555287Y-111203476D01*
X196602190Y-111078538D01*
X196692603Y-110976944D01*
X196820557Y-110905105D01*
X196980077Y-110869427D01*
X196980077Y-110869427D01*
G37*
X196980077Y-110869427D02*
X197002911Y-110867774D01*
X197128117Y-110887347D01*
X197236422Y-110954991D01*
X197314697Y-111062458D01*
X197315472Y-111064111D01*
X197338365Y-111170525D01*
X197327508Y-111307670D01*
X197284958Y-111462638D01*
X197232666Y-111584432D01*
X197185373Y-111686483D01*
X197148781Y-111778916D01*
X197130969Y-111841036D01*
X197119773Y-111916321D01*
X197632513Y-111677227D01*
X197716003Y-111856273D01*
X196948663Y-112214089D01*
X196909572Y-112130258D01*
X196890125Y-112078217D01*
X196882623Y-112022270D01*
X196888719Y-111952710D01*
X196910074Y-111859835D01*
X196948342Y-111733937D01*
X197005182Y-111565314D01*
X197006890Y-111560368D01*
X197057992Y-111403205D01*
X197086832Y-111290236D01*
X197094870Y-111214435D01*
X197086903Y-111174958D01*
X197030574Y-111105068D01*
X196958268Y-111078373D01*
X196885791Y-111092214D01*
X196828946Y-111143931D01*
X196804047Y-111222576D01*
X196791715Y-111288362D01*
X196757714Y-111331193D01*
X196686102Y-111370990D01*
X196684777Y-111371611D01*
X196615212Y-111401876D01*
X196580388Y-111404089D01*
X196564312Y-111374941D01*
X196557867Y-111345353D01*
X196555287Y-111203476D01*
X196602190Y-111078538D01*
X196692603Y-110976944D01*
X196820557Y-110905105D01*
X196980077Y-110869427D01*
G36*
X206668448Y-107214583D02*
X206745182Y-107178801D01*
X206802488Y-107159795D01*
X206836461Y-107180350D01*
X206857698Y-107219754D01*
X206876704Y-107277059D01*
X206856149Y-107311033D01*
X206816745Y-107332269D01*
X206771117Y-107357608D01*
X206757752Y-107387295D01*
X206773869Y-107439526D01*
X206793684Y-107483151D01*
X206847357Y-107598253D01*
X206617154Y-107705598D01*
X206509809Y-107475395D01*
X206023827Y-107702013D01*
X205987816Y-107624787D01*
X205975202Y-107562267D01*
X205975062Y-107537914D01*
X206130959Y-107465218D01*
X206438246Y-107321928D01*
X206321178Y-107072904D01*
X206266788Y-106959994D01*
X206230912Y-106893539D01*
X206209922Y-106868077D01*
X206200191Y-106878146D01*
X206198808Y-106888633D01*
X206193077Y-106945126D01*
X206182300Y-107040678D01*
X206168411Y-107158340D01*
X206162233Y-107209302D01*
X206130959Y-107465218D01*
X205975062Y-107537914D01*
X205974571Y-107452576D01*
X205986024Y-107293056D01*
X206009051Y-107086005D01*
X206066297Y-106624450D01*
X206334486Y-106498398D01*
X206668448Y-107214583D01*
X206668448Y-107214583D01*
G37*
X206668448Y-107214583D02*
X206745182Y-107178801D01*
X206802488Y-107159795D01*
X206836461Y-107180350D01*
X206857698Y-107219754D01*
X206876704Y-107277059D01*
X206856149Y-107311033D01*
X206816745Y-107332269D01*
X206771117Y-107357608D01*
X206757752Y-107387295D01*
X206773869Y-107439526D01*
X206793684Y-107483151D01*
X206847357Y-107598253D01*
X206617154Y-107705598D01*
X206509809Y-107475395D01*
X206023827Y-107702013D01*
X205987816Y-107624787D01*
X205975202Y-107562267D01*
X205975062Y-107537914D01*
X206130959Y-107465218D01*
X206438246Y-107321928D01*
X206321178Y-107072904D01*
X206266788Y-106959994D01*
X206230912Y-106893539D01*
X206209922Y-106868077D01*
X206200191Y-106878146D01*
X206198808Y-106888633D01*
X206193077Y-106945126D01*
X206182300Y-107040678D01*
X206168411Y-107158340D01*
X206162233Y-107209302D01*
X206130959Y-107465218D01*
X205975062Y-107537914D01*
X205974571Y-107452576D01*
X205986024Y-107293056D01*
X206009051Y-107086005D01*
X206066297Y-106624450D01*
X206334486Y-106498398D01*
X206668448Y-107214583D01*
G36*
X220289528Y-100097052D02*
X220310910Y-100180832D01*
X220318162Y-100299054D01*
X220314922Y-100378339D01*
X220306502Y-100620242D01*
X220318815Y-100845952D01*
X220350693Y-101040320D01*
X220371896Y-101115922D01*
X220422241Y-101268180D01*
X220310662Y-101320210D01*
X220239316Y-101349706D01*
X220200169Y-101350806D01*
X220176178Y-101322709D01*
X220171771Y-101313669D01*
X220134481Y-101196805D01*
X220108558Y-101038926D01*
X220094861Y-100854474D01*
X220094250Y-100657891D01*
X220107583Y-100463621D01*
X220116873Y-100390749D01*
X220132819Y-100282108D01*
X219616234Y-100522995D01*
X219532744Y-100343950D01*
X220248929Y-100009987D01*
X220289528Y-100097052D01*
X220289528Y-100097052D01*
G37*
X220289528Y-100097052D02*
X220310910Y-100180832D01*
X220318162Y-100299054D01*
X220314922Y-100378339D01*
X220306502Y-100620242D01*
X220318815Y-100845952D01*
X220350693Y-101040320D01*
X220371896Y-101115922D01*
X220422241Y-101268180D01*
X220310662Y-101320210D01*
X220239316Y-101349706D01*
X220200169Y-101350806D01*
X220176178Y-101322709D01*
X220171771Y-101313669D01*
X220134481Y-101196805D01*
X220108558Y-101038926D01*
X220094861Y-100854474D01*
X220094250Y-100657891D01*
X220107583Y-100463621D01*
X220116873Y-100390749D01*
X220132819Y-100282108D01*
X219616234Y-100522995D01*
X219532744Y-100343950D01*
X220248929Y-100009987D01*
X220289528Y-100097052D01*
G36*
X199687517Y-109654457D02*
X199808874Y-109673244D01*
X199925348Y-109743088D01*
X200033460Y-109862283D01*
X200129730Y-110029124D01*
X200174165Y-110134701D01*
X200228155Y-110316159D01*
X200239122Y-110464173D01*
X200206386Y-110582620D01*
X200129271Y-110675377D01*
X200072804Y-110713942D01*
X199991001Y-110752968D01*
X199917744Y-110774999D01*
X199902661Y-110776623D01*
X199781738Y-110752802D01*
X199665245Y-110676427D01*
X199557103Y-110551389D01*
X199461233Y-110381576D01*
X199434451Y-110319242D01*
X199638588Y-110224052D01*
X199720056Y-110398362D01*
X199797639Y-110517548D01*
X199872357Y-110582720D01*
X199945234Y-110594982D01*
X199972902Y-110585886D01*
X200017682Y-110551449D01*
X200034563Y-110492688D01*
X200034832Y-110440875D01*
X200022517Y-110358802D01*
X199988697Y-110260322D01*
X199928525Y-110132024D01*
X199910613Y-110097204D01*
X199836914Y-109965026D01*
X199775935Y-109880348D01*
X199721360Y-109837535D01*
X199666873Y-109830951D01*
X199627012Y-109844122D01*
X199578506Y-109879124D01*
X199557522Y-109931775D01*
X199564317Y-110010538D01*
X199599151Y-110123875D01*
X199638588Y-110224052D01*
X199434451Y-110319242D01*
X199429123Y-110306840D01*
X199371518Y-110131073D01*
X199353930Y-109989065D01*
X199376532Y-109874591D01*
X199439502Y-109781425D01*
X199444062Y-109776870D01*
X199564753Y-109688430D01*
X199687517Y-109654457D01*
X199687517Y-109654457D01*
G37*
X199687517Y-109654457D02*
X199808874Y-109673244D01*
X199925348Y-109743088D01*
X200033460Y-109862283D01*
X200129730Y-110029124D01*
X200174165Y-110134701D01*
X200228155Y-110316159D01*
X200239122Y-110464173D01*
X200206386Y-110582620D01*
X200129271Y-110675377D01*
X200072804Y-110713942D01*
X199991001Y-110752968D01*
X199917744Y-110774999D01*
X199902661Y-110776623D01*
X199781738Y-110752802D01*
X199665245Y-110676427D01*
X199557103Y-110551389D01*
X199461233Y-110381576D01*
X199434451Y-110319242D01*
X199638588Y-110224052D01*
X199720056Y-110398362D01*
X199797639Y-110517548D01*
X199872357Y-110582720D01*
X199945234Y-110594982D01*
X199972902Y-110585886D01*
X200017682Y-110551449D01*
X200034563Y-110492688D01*
X200034832Y-110440875D01*
X200022517Y-110358802D01*
X199988697Y-110260322D01*
X199928525Y-110132024D01*
X199910613Y-110097204D01*
X199836914Y-109965026D01*
X199775935Y-109880348D01*
X199721360Y-109837535D01*
X199666873Y-109830951D01*
X199627012Y-109844122D01*
X199578506Y-109879124D01*
X199557522Y-109931775D01*
X199564317Y-110010538D01*
X199599151Y-110123875D01*
X199638588Y-110224052D01*
X199434451Y-110319242D01*
X199429123Y-110306840D01*
X199371518Y-110131073D01*
X199353930Y-109989065D01*
X199376532Y-109874591D01*
X199439502Y-109781425D01*
X199444062Y-109776870D01*
X199564753Y-109688430D01*
X199687517Y-109654457D01*
G36*
X213430328Y-103227140D02*
X213553487Y-103211612D01*
X213668201Y-103235689D01*
X213763042Y-103299383D01*
X213815737Y-103376285D01*
X213832954Y-103456960D01*
X213823976Y-103546949D01*
X213793619Y-103623572D01*
X213755266Y-103660944D01*
X213757847Y-103673313D01*
X213804650Y-103685230D01*
X213826844Y-103688179D01*
X213954126Y-103724978D01*
X214041267Y-103800970D01*
X214086213Y-103913689D01*
X214091802Y-104006134D01*
X214061309Y-104112343D01*
X213987320Y-104208424D01*
X213882772Y-104285352D01*
X213760603Y-104334100D01*
X213633752Y-104345643D01*
X213609289Y-104342746D01*
X213511043Y-104315963D01*
X213432377Y-104274102D01*
X213384718Y-104225659D01*
X213379494Y-104179134D01*
X213382340Y-104173962D01*
X213423334Y-104134062D01*
X213480465Y-104101722D01*
X213532928Y-104086254D01*
X213559139Y-104094820D01*
X213601508Y-104130523D01*
X213673422Y-104152942D01*
X213748417Y-104155851D01*
X213781068Y-104147032D01*
X213842992Y-104092451D01*
X213867446Y-104016454D01*
X213856553Y-103936834D01*
X213812436Y-103871383D01*
X213744305Y-103838973D01*
X213659643Y-103840900D01*
X213597847Y-103858791D01*
X213544083Y-103875267D01*
X213510652Y-103852045D01*
X213491023Y-103815186D01*
X213472099Y-103757710D01*
X213492368Y-103723851D01*
X213528011Y-103704519D01*
X213596695Y-103648206D01*
X213627271Y-103572391D01*
X213619462Y-103494146D01*
X213572991Y-103430546D01*
X213532793Y-103408685D01*
X213463978Y-103400613D01*
X213426354Y-103409384D01*
X213380628Y-103451460D01*
X213349224Y-103514067D01*
X213345556Y-103569512D01*
X213347025Y-103573159D01*
X213332936Y-103599447D01*
X213285128Y-103629997D01*
X213224588Y-103655166D01*
X213172301Y-103665308D01*
X213155152Y-103661321D01*
X213132439Y-103616304D01*
X213134631Y-103541824D01*
X213158373Y-103457269D01*
X213200307Y-103382035D01*
X213204377Y-103376964D01*
X213310149Y-103282263D01*
X213430328Y-103227140D01*
X213430328Y-103227140D01*
G37*
X213430328Y-103227140D02*
X213553487Y-103211612D01*
X213668201Y-103235689D01*
X213763042Y-103299383D01*
X213815737Y-103376285D01*
X213832954Y-103456960D01*
X213823976Y-103546949D01*
X213793619Y-103623572D01*
X213755266Y-103660944D01*
X213757847Y-103673313D01*
X213804650Y-103685230D01*
X213826844Y-103688179D01*
X213954126Y-103724978D01*
X214041267Y-103800970D01*
X214086213Y-103913689D01*
X214091802Y-104006134D01*
X214061309Y-104112343D01*
X213987320Y-104208424D01*
X213882772Y-104285352D01*
X213760603Y-104334100D01*
X213633752Y-104345643D01*
X213609289Y-104342746D01*
X213511043Y-104315963D01*
X213432377Y-104274102D01*
X213384718Y-104225659D01*
X213379494Y-104179134D01*
X213382340Y-104173962D01*
X213423334Y-104134062D01*
X213480465Y-104101722D01*
X213532928Y-104086254D01*
X213559139Y-104094820D01*
X213601508Y-104130523D01*
X213673422Y-104152942D01*
X213748417Y-104155851D01*
X213781068Y-104147032D01*
X213842992Y-104092451D01*
X213867446Y-104016454D01*
X213856553Y-103936834D01*
X213812436Y-103871383D01*
X213744305Y-103838973D01*
X213659643Y-103840900D01*
X213597847Y-103858791D01*
X213544083Y-103875267D01*
X213510652Y-103852045D01*
X213491023Y-103815186D01*
X213472099Y-103757710D01*
X213492368Y-103723851D01*
X213528011Y-103704519D01*
X213596695Y-103648206D01*
X213627271Y-103572391D01*
X213619462Y-103494146D01*
X213572991Y-103430546D01*
X213532793Y-103408685D01*
X213463978Y-103400613D01*
X213426354Y-103409384D01*
X213380628Y-103451460D01*
X213349224Y-103514067D01*
X213345556Y-103569512D01*
X213347025Y-103573159D01*
X213332936Y-103599447D01*
X213285128Y-103629997D01*
X213224588Y-103655166D01*
X213172301Y-103665308D01*
X213155152Y-103661321D01*
X213132439Y-103616304D01*
X213134631Y-103541824D01*
X213158373Y-103457269D01*
X213200307Y-103382035D01*
X213204377Y-103376964D01*
X213310149Y-103282263D01*
X213430328Y-103227140D01*
G36*
X223004461Y-98974180D02*
X222595212Y-99165016D01*
X222649304Y-99281017D01*
X222683806Y-99349909D01*
X222706910Y-99374329D01*
X222729029Y-99361866D01*
X222740524Y-99347469D01*
X222826935Y-99275194D01*
X222937211Y-99242460D01*
X223054454Y-99249756D01*
X223161772Y-99297576D01*
X223203781Y-99333982D01*
X223279904Y-99445980D01*
X223326218Y-99578047D01*
X223334239Y-99705430D01*
X223333362Y-99712081D01*
X223290890Y-99822140D01*
X223205098Y-99917710D01*
X223088915Y-99989002D01*
X222955268Y-100026223D01*
X222914596Y-100029259D01*
X222833736Y-100017473D01*
X222757213Y-99984446D01*
X222699195Y-99939808D01*
X222673847Y-99893184D01*
X222679424Y-99869446D01*
X222746907Y-99811199D01*
X222835875Y-99795842D01*
X222903926Y-99815124D01*
X222992335Y-99836758D01*
X223063291Y-99812733D01*
X223109014Y-99752997D01*
X223121726Y-99667499D01*
X223095500Y-99570092D01*
X223039103Y-99491827D01*
X222966792Y-99446456D01*
X222892385Y-99436091D01*
X222829697Y-99462845D01*
X222793735Y-99523970D01*
X222757887Y-99573039D01*
X222685839Y-99620850D01*
X222676960Y-99625132D01*
X222574136Y-99673079D01*
X222517256Y-99508197D01*
X222474880Y-99393060D01*
X222428097Y-99277181D01*
X222402489Y-99219175D01*
X222344603Y-99095037D01*
X222932897Y-98820711D01*
X223004461Y-98974180D01*
X223004461Y-98974180D01*
G37*
X223004461Y-98974180D02*
X222595212Y-99165016D01*
X222649304Y-99281017D01*
X222683806Y-99349909D01*
X222706910Y-99374329D01*
X222729029Y-99361866D01*
X222740524Y-99347469D01*
X222826935Y-99275194D01*
X222937211Y-99242460D01*
X223054454Y-99249756D01*
X223161772Y-99297576D01*
X223203781Y-99333982D01*
X223279904Y-99445980D01*
X223326218Y-99578047D01*
X223334239Y-99705430D01*
X223333362Y-99712081D01*
X223290890Y-99822140D01*
X223205098Y-99917710D01*
X223088915Y-99989002D01*
X222955268Y-100026223D01*
X222914596Y-100029259D01*
X222833736Y-100017473D01*
X222757213Y-99984446D01*
X222699195Y-99939808D01*
X222673847Y-99893184D01*
X222679424Y-99869446D01*
X222746907Y-99811199D01*
X222835875Y-99795842D01*
X222903926Y-99815124D01*
X222992335Y-99836758D01*
X223063291Y-99812733D01*
X223109014Y-99752997D01*
X223121726Y-99667499D01*
X223095500Y-99570092D01*
X223039103Y-99491827D01*
X222966792Y-99446456D01*
X222892385Y-99436091D01*
X222829697Y-99462845D01*
X222793735Y-99523970D01*
X222757887Y-99573039D01*
X222685839Y-99620850D01*
X222676960Y-99625132D01*
X222574136Y-99673079D01*
X222517256Y-99508197D01*
X222474880Y-99393060D01*
X222428097Y-99277181D01*
X222402489Y-99219175D01*
X222344603Y-99095037D01*
X222932897Y-98820711D01*
X223004461Y-98974180D01*
G36*
X199283157Y-110876379D02*
X199398258Y-110822707D01*
X199470073Y-110791927D01*
X199509584Y-110789138D01*
X199534991Y-110817123D01*
X199549141Y-110845768D01*
X199584923Y-110922502D01*
X198894316Y-111244537D01*
X198858534Y-111167803D01*
X198840147Y-111121076D01*
X198846763Y-111090413D01*
X198887889Y-111061744D01*
X198950643Y-111031433D01*
X199078533Y-110971797D01*
X198923479Y-110639283D01*
X198865107Y-110515907D01*
X198815267Y-110413957D01*
X198778660Y-110342799D01*
X198759987Y-110311805D01*
X198758858Y-110311230D01*
X198738396Y-110334670D01*
X198696148Y-110390056D01*
X198661805Y-110436997D01*
X198574320Y-110558304D01*
X198537760Y-110479901D01*
X198521410Y-110428920D01*
X198528916Y-110378798D01*
X198565164Y-110312303D01*
X198599574Y-110261868D01*
X198689179Y-110155366D01*
X198779146Y-110084809D01*
X198793753Y-110077271D01*
X198889558Y-110032304D01*
X199283157Y-110876379D01*
X199283157Y-110876379D01*
G37*
X199283157Y-110876379D02*
X199398258Y-110822707D01*
X199470073Y-110791927D01*
X199509584Y-110789138D01*
X199534991Y-110817123D01*
X199549141Y-110845768D01*
X199584923Y-110922502D01*
X198894316Y-111244537D01*
X198858534Y-111167803D01*
X198840147Y-111121076D01*
X198846763Y-111090413D01*
X198887889Y-111061744D01*
X198950643Y-111031433D01*
X199078533Y-110971797D01*
X198923479Y-110639283D01*
X198865107Y-110515907D01*
X198815267Y-110413957D01*
X198778660Y-110342799D01*
X198759987Y-110311805D01*
X198758858Y-110311230D01*
X198738396Y-110334670D01*
X198696148Y-110390056D01*
X198661805Y-110436997D01*
X198574320Y-110558304D01*
X198537760Y-110479901D01*
X198521410Y-110428920D01*
X198528916Y-110378798D01*
X198565164Y-110312303D01*
X198599574Y-110261868D01*
X198689179Y-110155366D01*
X198779146Y-110084809D01*
X198793753Y-110077271D01*
X198889558Y-110032304D01*
X199283157Y-110876379D01*
G36*
X203887201Y-108729479D02*
X204002302Y-108675806D01*
X204074116Y-108645026D01*
X204113628Y-108642238D01*
X204139035Y-108670222D01*
X204153184Y-108698867D01*
X204188966Y-108775601D01*
X203498360Y-109097636D01*
X203462578Y-109020902D01*
X203444190Y-108974175D01*
X203450806Y-108943512D01*
X203491933Y-108914843D01*
X203554686Y-108884533D01*
X203682576Y-108824896D01*
X203527522Y-108492382D01*
X203469151Y-108369007D01*
X203419311Y-108267056D01*
X203382703Y-108195898D01*
X203364031Y-108164905D01*
X203362901Y-108164329D01*
X203342440Y-108187770D01*
X203300192Y-108243156D01*
X203265849Y-108290096D01*
X203178364Y-108411404D01*
X203141804Y-108333000D01*
X203125454Y-108282019D01*
X203132959Y-108231897D01*
X203169207Y-108165402D01*
X203203618Y-108114967D01*
X203293222Y-108008465D01*
X203383190Y-107937908D01*
X203397797Y-107930370D01*
X203493602Y-107885403D01*
X203887201Y-108729479D01*
X203887201Y-108729479D01*
G37*
X203887201Y-108729479D02*
X204002302Y-108675806D01*
X204074116Y-108645026D01*
X204113628Y-108642238D01*
X204139035Y-108670222D01*
X204153184Y-108698867D01*
X204188966Y-108775601D01*
X203498360Y-109097636D01*
X203462578Y-109020902D01*
X203444190Y-108974175D01*
X203450806Y-108943512D01*
X203491933Y-108914843D01*
X203554686Y-108884533D01*
X203682576Y-108824896D01*
X203527522Y-108492382D01*
X203469151Y-108369007D01*
X203419311Y-108267056D01*
X203382703Y-108195898D01*
X203364031Y-108164905D01*
X203362901Y-108164329D01*
X203342440Y-108187770D01*
X203300192Y-108243156D01*
X203265849Y-108290096D01*
X203178364Y-108411404D01*
X203141804Y-108333000D01*
X203125454Y-108282019D01*
X203132959Y-108231897D01*
X203169207Y-108165402D01*
X203203618Y-108114967D01*
X203293222Y-108008465D01*
X203383190Y-107937908D01*
X203397797Y-107930370D01*
X203493602Y-107885403D01*
X203887201Y-108729479D01*
G36*
X204705697Y-108347807D02*
X204820798Y-108294135D01*
X204892613Y-108263355D01*
X204932124Y-108260566D01*
X204957531Y-108288551D01*
X204971681Y-108317196D01*
X205007463Y-108393930D01*
X204316856Y-108715965D01*
X204281074Y-108639231D01*
X204262687Y-108592504D01*
X204269304Y-108561840D01*
X204310429Y-108533172D01*
X204373183Y-108502861D01*
X204501073Y-108443225D01*
X204346019Y-108110711D01*
X204287647Y-107987335D01*
X204237807Y-107885385D01*
X204201200Y-107814227D01*
X204182527Y-107783233D01*
X204181398Y-107782658D01*
X204160937Y-107806098D01*
X204118688Y-107861484D01*
X204084346Y-107908425D01*
X203996861Y-108029733D01*
X203960300Y-107951329D01*
X203943950Y-107900348D01*
X203951457Y-107850226D01*
X203987704Y-107783731D01*
X204022114Y-107733296D01*
X204111719Y-107626794D01*
X204201686Y-107556237D01*
X204216293Y-107548699D01*
X204312099Y-107503732D01*
X204705697Y-108347807D01*
X204705697Y-108347807D01*
G37*
X204705697Y-108347807D02*
X204820798Y-108294135D01*
X204892613Y-108263355D01*
X204932124Y-108260566D01*
X204957531Y-108288551D01*
X204971681Y-108317196D01*
X205007463Y-108393930D01*
X204316856Y-108715965D01*
X204281074Y-108639231D01*
X204262687Y-108592504D01*
X204269304Y-108561840D01*
X204310429Y-108533172D01*
X204373183Y-108502861D01*
X204501073Y-108443225D01*
X204346019Y-108110711D01*
X204287647Y-107987335D01*
X204237807Y-107885385D01*
X204201200Y-107814227D01*
X204182527Y-107783233D01*
X204181398Y-107782658D01*
X204160937Y-107806098D01*
X204118688Y-107861484D01*
X204084346Y-107908425D01*
X203996861Y-108029733D01*
X203960300Y-107951329D01*
X203943950Y-107900348D01*
X203951457Y-107850226D01*
X203987704Y-107783731D01*
X204022114Y-107733296D01*
X204111719Y-107626794D01*
X204201686Y-107556237D01*
X204216293Y-107548699D01*
X204312099Y-107503732D01*
X204705697Y-108347807D01*
G36*
X208491244Y-106582578D02*
X208606345Y-106528905D01*
X208678160Y-106498125D01*
X208717671Y-106495337D01*
X208743078Y-106523321D01*
X208757228Y-106551966D01*
X208793010Y-106628701D01*
X208102403Y-106950736D01*
X208066621Y-106874001D01*
X208048234Y-106827274D01*
X208054850Y-106796611D01*
X208095976Y-106767942D01*
X208158730Y-106737632D01*
X208286620Y-106677996D01*
X208131566Y-106345481D01*
X208073194Y-106222106D01*
X208023354Y-106120155D01*
X207986747Y-106048997D01*
X207968074Y-106018004D01*
X207966945Y-106017428D01*
X207946483Y-106040869D01*
X207904235Y-106096255D01*
X207869893Y-106143196D01*
X207782408Y-106264503D01*
X207745847Y-106186099D01*
X207729497Y-106135119D01*
X207737003Y-106084996D01*
X207773251Y-106018501D01*
X207807661Y-105968067D01*
X207897266Y-105861565D01*
X207987233Y-105791007D01*
X208001840Y-105783470D01*
X208097646Y-105738502D01*
X208491244Y-106582578D01*
X208491244Y-106582578D01*
G37*
X208491244Y-106582578D02*
X208606345Y-106528905D01*
X208678160Y-106498125D01*
X208717671Y-106495337D01*
X208743078Y-106523321D01*
X208757228Y-106551966D01*
X208793010Y-106628701D01*
X208102403Y-106950736D01*
X208066621Y-106874001D01*
X208048234Y-106827274D01*
X208054850Y-106796611D01*
X208095976Y-106767942D01*
X208158730Y-106737632D01*
X208286620Y-106677996D01*
X208131566Y-106345481D01*
X208073194Y-106222106D01*
X208023354Y-106120155D01*
X207986747Y-106048997D01*
X207968074Y-106018004D01*
X207966945Y-106017428D01*
X207946483Y-106040869D01*
X207904235Y-106096255D01*
X207869893Y-106143196D01*
X207782408Y-106264503D01*
X207745847Y-106186099D01*
X207729497Y-106135119D01*
X207737003Y-106084996D01*
X207773251Y-106018501D01*
X207807661Y-105968067D01*
X207897266Y-105861565D01*
X207987233Y-105791007D01*
X208001840Y-105783470D01*
X208097646Y-105738502D01*
X208491244Y-106582578D01*
G36*
X208884822Y-105365287D02*
X209011388Y-105367337D01*
X209011804Y-105367422D01*
X209106287Y-105412270D01*
X209187676Y-105495868D01*
X209240024Y-105600590D01*
X209246455Y-105626703D01*
X209243331Y-105691487D01*
X209219967Y-105796021D01*
X209179306Y-105928593D01*
X209150093Y-106010663D01*
X209037698Y-106312192D01*
X209276479Y-106209800D01*
X209515260Y-106107408D01*
X209585928Y-106258956D01*
X208895322Y-106580992D01*
X208861205Y-106507827D01*
X208841613Y-106406172D01*
X208858167Y-106262380D01*
X208910938Y-106076042D01*
X208960187Y-105943216D01*
X209008214Y-105808330D01*
X209027141Y-105710813D01*
X209016576Y-105639436D01*
X208976128Y-105582971D01*
X208946793Y-105558470D01*
X208885683Y-105542317D01*
X208819408Y-105564841D01*
X208764239Y-105613139D01*
X208736451Y-105674310D01*
X208742981Y-105720060D01*
X208727221Y-105745518D01*
X208674382Y-105780227D01*
X208651745Y-105791520D01*
X208578913Y-105817774D01*
X208539110Y-105807182D01*
X208526142Y-105753592D01*
X208531352Y-105671816D01*
X208569541Y-105565245D01*
X208650268Y-105472876D01*
X208759905Y-105403345D01*
X208884822Y-105365287D01*
X208884822Y-105365287D01*
G37*
X208884822Y-105365287D02*
X209011388Y-105367337D01*
X209011804Y-105367422D01*
X209106287Y-105412270D01*
X209187676Y-105495868D01*
X209240024Y-105600590D01*
X209246455Y-105626703D01*
X209243331Y-105691487D01*
X209219967Y-105796021D01*
X209179306Y-105928593D01*
X209150093Y-106010663D01*
X209037698Y-106312192D01*
X209276479Y-106209800D01*
X209515260Y-106107408D01*
X209585928Y-106258956D01*
X208895322Y-106580992D01*
X208861205Y-106507827D01*
X208841613Y-106406172D01*
X208858167Y-106262380D01*
X208910938Y-106076042D01*
X208960187Y-105943216D01*
X209008214Y-105808330D01*
X209027141Y-105710813D01*
X209016576Y-105639436D01*
X208976128Y-105582971D01*
X208946793Y-105558470D01*
X208885683Y-105542317D01*
X208819408Y-105564841D01*
X208764239Y-105613139D01*
X208736451Y-105674310D01*
X208742981Y-105720060D01*
X208727221Y-105745518D01*
X208674382Y-105780227D01*
X208651745Y-105791520D01*
X208578913Y-105817774D01*
X208539110Y-105807182D01*
X208526142Y-105753592D01*
X208531352Y-105671816D01*
X208569541Y-105565245D01*
X208650268Y-105472876D01*
X208759905Y-105403345D01*
X208884822Y-105365287D01*
G36*
X213095288Y-104435677D02*
X213210389Y-104382004D01*
X213282203Y-104351225D01*
X213321715Y-104348436D01*
X213347122Y-104376420D01*
X213361271Y-104405065D01*
X213397053Y-104481800D01*
X212706447Y-104803835D01*
X212670665Y-104727101D01*
X212652277Y-104680373D01*
X212658894Y-104649710D01*
X212700020Y-104621042D01*
X212762774Y-104590731D01*
X212890664Y-104531095D01*
X212735610Y-104198581D01*
X212677238Y-104075205D01*
X212627398Y-103973254D01*
X212590791Y-103902096D01*
X212572118Y-103871103D01*
X212570989Y-103870527D01*
X212550527Y-103893968D01*
X212508279Y-103949354D01*
X212473936Y-103996295D01*
X212386451Y-104117602D01*
X212349891Y-104039198D01*
X212333541Y-103988218D01*
X212341046Y-103938096D01*
X212377294Y-103871601D01*
X212411705Y-103821166D01*
X212501309Y-103714664D01*
X212591277Y-103644106D01*
X212605884Y-103636569D01*
X212701689Y-103591602D01*
X213095288Y-104435677D01*
X213095288Y-104435677D01*
G37*
X213095288Y-104435677D02*
X213210389Y-104382004D01*
X213282203Y-104351225D01*
X213321715Y-104348436D01*
X213347122Y-104376420D01*
X213361271Y-104405065D01*
X213397053Y-104481800D01*
X212706447Y-104803835D01*
X212670665Y-104727101D01*
X212652277Y-104680373D01*
X212658894Y-104649710D01*
X212700020Y-104621042D01*
X212762774Y-104590731D01*
X212890664Y-104531095D01*
X212735610Y-104198581D01*
X212677238Y-104075205D01*
X212627398Y-103973254D01*
X212590791Y-103902096D01*
X212572118Y-103871103D01*
X212570989Y-103870527D01*
X212550527Y-103893968D01*
X212508279Y-103949354D01*
X212473936Y-103996295D01*
X212386451Y-104117602D01*
X212349891Y-104039198D01*
X212333541Y-103988218D01*
X212341046Y-103938096D01*
X212377294Y-103871601D01*
X212411705Y-103821166D01*
X212501309Y-103714664D01*
X212591277Y-103644106D01*
X212605884Y-103636569D01*
X212701689Y-103591602D01*
X213095288Y-104435677D01*
G36*
X217699331Y-102288776D02*
X217814433Y-102235104D01*
X217886247Y-102204324D01*
X217925758Y-102201535D01*
X217951165Y-102229520D01*
X217965315Y-102258165D01*
X218001097Y-102334899D01*
X217310490Y-102656934D01*
X217274708Y-102580200D01*
X217256321Y-102533473D01*
X217262937Y-102502810D01*
X217304063Y-102474141D01*
X217366817Y-102443830D01*
X217494707Y-102384194D01*
X217339653Y-102051680D01*
X217281281Y-101928304D01*
X217231442Y-101826354D01*
X217194834Y-101755196D01*
X217176161Y-101724202D01*
X217175032Y-101723627D01*
X217154570Y-101747067D01*
X217112322Y-101802453D01*
X217077980Y-101849394D01*
X216990495Y-101970701D01*
X216953934Y-101892298D01*
X216937584Y-101841317D01*
X216945090Y-101791195D01*
X216981338Y-101724700D01*
X217015748Y-101674265D01*
X217105353Y-101567763D01*
X217195320Y-101497206D01*
X217209927Y-101489668D01*
X217305733Y-101444701D01*
X217699331Y-102288776D01*
X217699331Y-102288776D01*
G37*
X217699331Y-102288776D02*
X217814433Y-102235104D01*
X217886247Y-102204324D01*
X217925758Y-102201535D01*
X217951165Y-102229520D01*
X217965315Y-102258165D01*
X218001097Y-102334899D01*
X217310490Y-102656934D01*
X217274708Y-102580200D01*
X217256321Y-102533473D01*
X217262937Y-102502810D01*
X217304063Y-102474141D01*
X217366817Y-102443830D01*
X217494707Y-102384194D01*
X217339653Y-102051680D01*
X217281281Y-101928304D01*
X217231442Y-101826354D01*
X217194834Y-101755196D01*
X217176161Y-101724202D01*
X217175032Y-101723627D01*
X217154570Y-101747067D01*
X217112322Y-101802453D01*
X217077980Y-101849394D01*
X216990495Y-101970701D01*
X216953934Y-101892298D01*
X216937584Y-101841317D01*
X216945090Y-101791195D01*
X216981338Y-101724700D01*
X217015748Y-101674265D01*
X217105353Y-101567763D01*
X217195320Y-101497206D01*
X217209927Y-101489668D01*
X217305733Y-101444701D01*
X217699331Y-102288776D01*
G36*
X218550300Y-101642845D02*
X218614246Y-101613026D01*
X218663796Y-101599974D01*
X218696884Y-101627286D01*
X218713972Y-101659943D01*
X218732661Y-101717991D01*
X218712761Y-101751695D01*
X218685809Y-101766494D01*
X218647214Y-101791290D01*
X218641185Y-101826169D01*
X218665440Y-101889704D01*
X218669572Y-101898625D01*
X218697648Y-101965260D01*
X218693990Y-102002394D01*
X218650713Y-102031678D01*
X218614969Y-102048646D01*
X218548333Y-102076722D01*
X218511199Y-102073062D01*
X218481915Y-102029786D01*
X218464948Y-101994042D01*
X218417239Y-101891730D01*
X217956835Y-102106420D01*
X217920985Y-102029541D01*
X217908373Y-101968852D01*
X217908600Y-101924946D01*
X218057758Y-101855393D01*
X218084490Y-101852310D01*
X218146559Y-101829587D01*
X218204997Y-101803862D01*
X218345676Y-101738262D01*
X218139900Y-101296975D01*
X218095549Y-101569150D01*
X218077273Y-101686518D01*
X218064076Y-101781544D01*
X218057637Y-101841483D01*
X218057758Y-101855393D01*
X217908600Y-101924946D01*
X217908906Y-101865896D01*
X217922814Y-101716395D01*
X217947432Y-101535324D01*
X218009727Y-101117987D01*
X218130924Y-101060690D01*
X218252119Y-101003394D01*
X218550300Y-101642845D01*
X218550300Y-101642845D01*
G37*
X218550300Y-101642845D02*
X218614246Y-101613026D01*
X218663796Y-101599974D01*
X218696884Y-101627286D01*
X218713972Y-101659943D01*
X218732661Y-101717991D01*
X218712761Y-101751695D01*
X218685809Y-101766494D01*
X218647214Y-101791290D01*
X218641185Y-101826169D01*
X218665440Y-101889704D01*
X218669572Y-101898625D01*
X218697648Y-101965260D01*
X218693990Y-102002394D01*
X218650713Y-102031678D01*
X218614969Y-102048646D01*
X218548333Y-102076722D01*
X218511199Y-102073062D01*
X218481915Y-102029786D01*
X218464948Y-101994042D01*
X218417239Y-101891730D01*
X217956835Y-102106420D01*
X217920985Y-102029541D01*
X217908373Y-101968852D01*
X217908600Y-101924946D01*
X218057758Y-101855393D01*
X218084490Y-101852310D01*
X218146559Y-101829587D01*
X218204997Y-101803862D01*
X218345676Y-101738262D01*
X218139900Y-101296975D01*
X218095549Y-101569150D01*
X218077273Y-101686518D01*
X218064076Y-101781544D01*
X218057637Y-101841483D01*
X218057758Y-101855393D01*
X217908600Y-101924946D01*
X217908906Y-101865896D01*
X217922814Y-101716395D01*
X217947432Y-101535324D01*
X218009727Y-101117987D01*
X218130924Y-101060690D01*
X218252119Y-101003394D01*
X218550300Y-101642845D01*
G36*
X222354531Y-100118021D02*
X222469632Y-100064349D01*
X222541447Y-100033568D01*
X222580958Y-100030780D01*
X222606365Y-100058765D01*
X222620514Y-100087410D01*
X222656296Y-100164144D01*
X221965689Y-100486179D01*
X221929908Y-100409445D01*
X221911520Y-100362718D01*
X221918137Y-100332054D01*
X221959263Y-100303386D01*
X222022016Y-100273075D01*
X222149907Y-100213439D01*
X221994853Y-99880924D01*
X221936482Y-99757549D01*
X221886641Y-99655599D01*
X221850033Y-99584441D01*
X221831360Y-99553447D01*
X221830231Y-99552872D01*
X221809771Y-99576312D01*
X221767522Y-99631698D01*
X221733179Y-99678639D01*
X221645694Y-99799946D01*
X221609134Y-99721543D01*
X221592783Y-99670562D01*
X221600290Y-99620439D01*
X221636538Y-99553944D01*
X221670948Y-99503510D01*
X221760553Y-99397008D01*
X221850519Y-99326450D01*
X221865127Y-99318913D01*
X221960932Y-99273946D01*
X222354531Y-100118021D01*
X222354531Y-100118021D01*
G37*
X222354531Y-100118021D02*
X222469632Y-100064349D01*
X222541447Y-100033568D01*
X222580958Y-100030780D01*
X222606365Y-100058765D01*
X222620514Y-100087410D01*
X222656296Y-100164144D01*
X221965689Y-100486179D01*
X221929908Y-100409445D01*
X221911520Y-100362718D01*
X221918137Y-100332054D01*
X221959263Y-100303386D01*
X222022016Y-100273075D01*
X222149907Y-100213439D01*
X221994853Y-99880924D01*
X221936482Y-99757549D01*
X221886641Y-99655599D01*
X221850033Y-99584441D01*
X221831360Y-99553447D01*
X221830231Y-99552872D01*
X221809771Y-99576312D01*
X221767522Y-99631698D01*
X221733179Y-99678639D01*
X221645694Y-99799946D01*
X221609134Y-99721543D01*
X221592783Y-99670562D01*
X221600290Y-99620439D01*
X221636538Y-99553944D01*
X221670948Y-99503510D01*
X221760553Y-99397008D01*
X221850519Y-99326450D01*
X221865127Y-99318913D01*
X221960932Y-99273946D01*
X222354531Y-100118021D01*
G36*
X75327412Y-96423758D02*
X75326083Y-96441982D01*
X75317448Y-96473878D01*
X75300142Y-96522506D01*
X75272803Y-96590927D01*
X75234065Y-96682199D01*
X75182566Y-96799381D01*
X75116939Y-96945536D01*
X75035823Y-97123720D01*
X74937851Y-97336995D01*
X74821661Y-97588419D01*
X74685887Y-97881053D01*
X74529168Y-98217956D01*
X74350137Y-98602188D01*
X74305607Y-98697692D01*
X74121093Y-99093185D01*
X73958831Y-99440472D01*
X73817355Y-99742562D01*
X73695198Y-100002468D01*
X73590892Y-100223202D01*
X73502971Y-100407777D01*
X73429967Y-100559202D01*
X73370414Y-100680491D01*
X73322843Y-100774653D01*
X73285789Y-100844702D01*
X73257785Y-100893649D01*
X73237364Y-100924506D01*
X73223058Y-100940284D01*
X73213400Y-100943994D01*
X73211680Y-100943457D01*
X73207068Y-100935845D01*
X73208397Y-100917622D01*
X73217032Y-100885726D01*
X73234337Y-100837097D01*
X73261677Y-100768677D01*
X73300414Y-100677405D01*
X73351914Y-100560222D01*
X73417540Y-100414068D01*
X73498657Y-100235883D01*
X73596628Y-100022608D01*
X73712819Y-99771184D01*
X73848592Y-99478551D01*
X74005312Y-99141647D01*
X74184343Y-98757416D01*
X74228873Y-98661911D01*
X74413386Y-98266418D01*
X74575648Y-97919133D01*
X74717124Y-97617043D01*
X74839282Y-97357135D01*
X74943587Y-97136401D01*
X75031509Y-96951827D01*
X75104512Y-96800402D01*
X75164066Y-96679114D01*
X75211636Y-96584950D01*
X75248689Y-96514902D01*
X75276694Y-96465955D01*
X75297115Y-96435098D01*
X75311421Y-96419320D01*
X75321079Y-96415609D01*
X75322799Y-96416148D01*
X75327412Y-96423758D01*
X75327412Y-96423758D01*
G37*
X75327412Y-96423758D02*
X75326083Y-96441982D01*
X75317448Y-96473878D01*
X75300142Y-96522506D01*
X75272803Y-96590927D01*
X75234065Y-96682199D01*
X75182566Y-96799381D01*
X75116939Y-96945536D01*
X75035823Y-97123720D01*
X74937851Y-97336995D01*
X74821661Y-97588419D01*
X74685887Y-97881053D01*
X74529168Y-98217956D01*
X74350137Y-98602188D01*
X74305607Y-98697692D01*
X74121093Y-99093185D01*
X73958831Y-99440472D01*
X73817355Y-99742562D01*
X73695198Y-100002468D01*
X73590892Y-100223202D01*
X73502971Y-100407777D01*
X73429967Y-100559202D01*
X73370414Y-100680491D01*
X73322843Y-100774653D01*
X73285789Y-100844702D01*
X73257785Y-100893649D01*
X73237364Y-100924506D01*
X73223058Y-100940284D01*
X73213400Y-100943994D01*
X73211680Y-100943457D01*
X73207068Y-100935845D01*
X73208397Y-100917622D01*
X73217032Y-100885726D01*
X73234337Y-100837097D01*
X73261677Y-100768677D01*
X73300414Y-100677405D01*
X73351914Y-100560222D01*
X73417540Y-100414068D01*
X73498657Y-100235883D01*
X73596628Y-100022608D01*
X73712819Y-99771184D01*
X73848592Y-99478551D01*
X74005312Y-99141647D01*
X74184343Y-98757416D01*
X74228873Y-98661911D01*
X74413386Y-98266418D01*
X74575648Y-97919133D01*
X74717124Y-97617043D01*
X74839282Y-97357135D01*
X74943587Y-97136401D01*
X75031509Y-96951827D01*
X75104512Y-96800402D01*
X75164066Y-96679114D01*
X75211636Y-96584950D01*
X75248689Y-96514902D01*
X75276694Y-96465955D01*
X75297115Y-96435098D01*
X75311421Y-96419320D01*
X75321079Y-96415609D01*
X75322799Y-96416148D01*
X75327412Y-96423758D01*
G36*
X75552069Y-102034798D02*
X75321866Y-101927453D01*
X77432985Y-97400144D01*
X77663188Y-97507489D01*
X75552069Y-102034798D01*
X75552069Y-102034798D01*
G37*
X75552069Y-102034798D02*
X75321866Y-101927453D01*
X77432985Y-97400144D01*
X77663188Y-97507489D01*
X75552069Y-102034798D01*
G36*
X77854090Y-103108248D02*
X77623888Y-103000903D01*
X79735007Y-98473594D01*
X79965209Y-98580939D01*
X77854090Y-103108248D01*
X77854090Y-103108248D01*
G37*
X77854090Y-103108248D02*
X77623888Y-103000903D01*
X79735007Y-98473594D01*
X79965209Y-98580939D01*
X77854090Y-103108248D01*
G36*
X80156112Y-104181699D02*
X79925910Y-104074354D01*
X82037029Y-99547044D01*
X82267231Y-99654389D01*
X80156112Y-104181699D01*
X80156112Y-104181699D01*
G37*
X80156112Y-104181699D02*
X79925910Y-104074354D01*
X82037029Y-99547044D01*
X82267231Y-99654389D01*
X80156112Y-104181699D01*
G36*
X82458134Y-105255149D02*
X82227932Y-105147804D01*
X84339051Y-100620495D01*
X84569253Y-100727840D01*
X82458134Y-105255149D01*
X82458134Y-105255149D01*
G37*
X82458134Y-105255149D02*
X82227932Y-105147804D01*
X84339051Y-100620495D01*
X84569253Y-100727840D01*
X82458134Y-105255149D01*
G36*
X84760156Y-106328599D02*
X84529954Y-106221254D01*
X86641073Y-101693945D01*
X86871275Y-101801290D01*
X84760156Y-106328599D01*
X84760156Y-106328599D01*
G37*
X84760156Y-106328599D02*
X84529954Y-106221254D01*
X86641073Y-101693945D01*
X86871275Y-101801290D01*
X84760156Y-106328599D01*
G36*
X87062178Y-107402050D02*
X86831975Y-107294705D01*
X88943094Y-102767396D01*
X89173296Y-102874741D01*
X87062178Y-107402050D01*
X87062178Y-107402050D01*
G37*
X87062178Y-107402050D02*
X86831975Y-107294705D01*
X88943094Y-102767396D01*
X89173296Y-102874741D01*
X87062178Y-107402050D01*
G36*
X89389777Y-108487427D02*
X89133997Y-108368155D01*
X91245116Y-103840846D01*
X91500896Y-103960118D01*
X89389777Y-108487427D01*
X89389777Y-108487427D01*
G37*
X89389777Y-108487427D02*
X89133997Y-108368155D01*
X91245116Y-103840846D01*
X91500896Y-103960118D01*
X89389777Y-108487427D01*
G36*
X91691799Y-109560878D02*
X91436019Y-109441606D01*
X93547138Y-104914296D01*
X93802918Y-105033568D01*
X91691799Y-109560878D01*
X91691799Y-109560878D01*
G37*
X91691799Y-109560878D02*
X91436019Y-109441606D01*
X93547138Y-104914296D01*
X93802918Y-105033568D01*
X91691799Y-109560878D01*
G36*
X93993821Y-110634328D02*
X93738041Y-110515056D01*
X95849160Y-105987747D01*
X96104940Y-106107019D01*
X93993821Y-110634328D01*
X93993821Y-110634328D01*
G37*
X93993821Y-110634328D02*
X93738041Y-110515056D01*
X95849160Y-105987747D01*
X96104940Y-106107019D01*
X93993821Y-110634328D01*
G36*
X96295842Y-111707778D02*
X96065640Y-111600433D01*
X98176759Y-107073124D01*
X98406961Y-107180469D01*
X96295842Y-111707778D01*
X96295842Y-111707778D01*
G37*
X96295842Y-111707778D02*
X96065640Y-111600433D01*
X98176759Y-107073124D01*
X98406961Y-107180469D01*
X96295842Y-111707778D01*
G36*
X98597864Y-112781229D02*
X98367662Y-112673884D01*
X100478781Y-108146575D01*
X100708983Y-108253920D01*
X98597864Y-112781229D01*
X98597864Y-112781229D01*
G37*
X98597864Y-112781229D02*
X98367662Y-112673884D01*
X100478781Y-108146575D01*
X100708983Y-108253920D01*
X98597864Y-112781229D01*
G36*
X100925465Y-113866607D02*
X100669684Y-113747334D01*
X102780803Y-109220025D01*
X103036584Y-109339298D01*
X100925465Y-113866607D01*
X100925465Y-113866607D01*
G37*
X100925465Y-113866607D02*
X100669684Y-113747334D01*
X102780803Y-109220025D01*
X103036584Y-109339298D01*
X100925465Y-113866607D01*
G36*
X103227487Y-114940057D02*
X102997284Y-114832712D01*
X105108403Y-110305403D01*
X105338605Y-110412748D01*
X103227487Y-114940057D01*
X103227487Y-114940057D01*
G37*
X103227487Y-114940057D02*
X102997284Y-114832712D01*
X105108403Y-110305403D01*
X105338605Y-110412748D01*
X103227487Y-114940057D01*
G36*
X105555086Y-116025435D02*
X105324884Y-115918090D01*
X107436003Y-111390780D01*
X107666205Y-111498125D01*
X105555086Y-116025435D01*
X105555086Y-116025435D01*
G37*
X105555086Y-116025435D02*
X105324884Y-115918090D01*
X107436003Y-111390780D01*
X107666205Y-111498125D01*
X105555086Y-116025435D01*
G36*
X107729218Y-117039249D02*
X107575749Y-116967685D01*
X109686868Y-112440376D01*
X109840337Y-112511940D01*
X107729218Y-117039249D01*
X107729218Y-117039249D01*
G37*
X107729218Y-117039249D02*
X107575749Y-116967685D01*
X109686868Y-112440376D01*
X109840337Y-112511940D01*
X107729218Y-117039249D01*
G36*
X77867778Y-100024399D02*
X77913370Y-100069145D01*
X77971769Y-100161862D01*
X77996367Y-100264335D01*
X77986629Y-100385333D01*
X77942018Y-100533623D01*
X77875509Y-100689334D01*
X77813814Y-100817493D01*
X77764976Y-100906149D01*
X77720504Y-100968051D01*
X77671906Y-101015949D01*
X77642320Y-101039452D01*
X77558154Y-101092060D01*
X77474908Y-101127381D01*
X77449416Y-101133293D01*
X77341975Y-101127495D01*
X77220892Y-101089756D01*
X77110724Y-101029697D01*
X77051410Y-100977410D01*
X77013250Y-100910228D01*
X76986374Y-100822879D01*
X76976941Y-100740852D01*
X76984287Y-100699663D01*
X77011641Y-100699942D01*
X77074306Y-100713502D01*
X77103198Y-100721344D01*
X77181344Y-100749945D01*
X77222938Y-100787287D01*
X77241980Y-100830577D01*
X77286520Y-100899958D01*
X77353848Y-100925045D01*
X77434191Y-100907647D01*
X77517775Y-100849575D01*
X77585839Y-100766890D01*
X77643043Y-100679230D01*
X77529873Y-100690209D01*
X77409998Y-100678286D01*
X77298597Y-100626618D01*
X77214739Y-100545626D01*
X77192516Y-100505832D01*
X77164689Y-100378882D01*
X77179433Y-100245064D01*
X77211521Y-100164201D01*
X77433059Y-100267506D01*
X77410799Y-100359893D01*
X77418800Y-100449075D01*
X77459593Y-100519190D01*
X77493586Y-100542380D01*
X77557363Y-100550984D01*
X77619753Y-100538932D01*
X77696488Y-100483561D01*
X77745904Y-100393609D01*
X77759450Y-100287731D01*
X77753451Y-100247369D01*
X77713656Y-100160950D01*
X77647198Y-100124098D01*
X77558255Y-100136578D01*
X77483055Y-100187780D01*
X77433059Y-100267506D01*
X77211521Y-100164201D01*
X77230047Y-100117512D01*
X77309827Y-100009361D01*
X77412071Y-99933746D01*
X77498380Y-99906440D01*
X77621882Y-99911959D01*
X77753108Y-99954452D01*
X77867778Y-100024399D01*
X77867778Y-100024399D01*
G37*
X77867778Y-100024399D02*
X77913370Y-100069145D01*
X77971769Y-100161862D01*
X77996367Y-100264335D01*
X77986629Y-100385333D01*
X77942018Y-100533623D01*
X77875509Y-100689334D01*
X77813814Y-100817493D01*
X77764976Y-100906149D01*
X77720504Y-100968051D01*
X77671906Y-101015949D01*
X77642320Y-101039452D01*
X77558154Y-101092060D01*
X77474908Y-101127381D01*
X77449416Y-101133293D01*
X77341975Y-101127495D01*
X77220892Y-101089756D01*
X77110724Y-101029697D01*
X77051410Y-100977410D01*
X77013250Y-100910228D01*
X76986374Y-100822879D01*
X76976941Y-100740852D01*
X76984287Y-100699663D01*
X77011641Y-100699942D01*
X77074306Y-100713502D01*
X77103198Y-100721344D01*
X77181344Y-100749945D01*
X77222938Y-100787287D01*
X77241980Y-100830577D01*
X77286520Y-100899958D01*
X77353848Y-100925045D01*
X77434191Y-100907647D01*
X77517775Y-100849575D01*
X77585839Y-100766890D01*
X77643043Y-100679230D01*
X77529873Y-100690209D01*
X77409998Y-100678286D01*
X77298597Y-100626618D01*
X77214739Y-100545626D01*
X77192516Y-100505832D01*
X77164689Y-100378882D01*
X77179433Y-100245064D01*
X77211521Y-100164201D01*
X77433059Y-100267506D01*
X77410799Y-100359893D01*
X77418800Y-100449075D01*
X77459593Y-100519190D01*
X77493586Y-100542380D01*
X77557363Y-100550984D01*
X77619753Y-100538932D01*
X77696488Y-100483561D01*
X77745904Y-100393609D01*
X77759450Y-100287731D01*
X77753451Y-100247369D01*
X77713656Y-100160950D01*
X77647198Y-100124098D01*
X77558255Y-100136578D01*
X77483055Y-100187780D01*
X77433059Y-100267506D01*
X77211521Y-100164201D01*
X77230047Y-100117512D01*
X77309827Y-100009361D01*
X77412071Y-99933746D01*
X77498380Y-99906440D01*
X77621882Y-99911959D01*
X77753108Y-99954452D01*
X77867778Y-100024399D01*
G36*
X84751206Y-103220304D02*
X84846965Y-103308416D01*
X84906296Y-103417697D01*
X84918131Y-103475717D01*
X84905992Y-103599775D01*
X84850458Y-103703968D01*
X84760948Y-103776771D01*
X84647917Y-103806612D01*
X84553285Y-103810487D01*
X84617033Y-103880803D01*
X84681859Y-103988047D01*
X84691184Y-104102784D01*
X84644654Y-104220482D01*
X84643619Y-104222106D01*
X84585356Y-104293268D01*
X84521283Y-104344448D01*
X84509815Y-104350191D01*
X84380458Y-104377208D01*
X84237990Y-104359659D01*
X84097137Y-104302087D01*
X83972625Y-104209029D01*
X83940502Y-104174688D01*
X83874251Y-104064152D01*
X83857550Y-103962892D01*
X83861200Y-103889206D01*
X83871276Y-103844956D01*
X83875630Y-103840195D01*
X83919589Y-103841371D01*
X83983806Y-103859406D01*
X84048480Y-103886334D01*
X84093811Y-103914186D01*
X84102904Y-103931653D01*
X84101604Y-103991707D01*
X84133297Y-104063536D01*
X84186025Y-104124777D01*
X84216779Y-104144552D01*
X84309313Y-104160159D01*
X84393586Y-104126597D01*
X84449019Y-104057537D01*
X84458987Y-103975807D01*
X84420488Y-103895543D01*
X84340379Y-103829410D01*
X84319812Y-103818919D01*
X84265615Y-103788336D01*
X84253514Y-103754069D01*
X84276162Y-103693665D01*
X84277725Y-103690306D01*
X84310301Y-103632114D01*
X84343358Y-103617442D01*
X84390513Y-103633910D01*
X84490889Y-103657572D01*
X84579790Y-103636971D01*
X84642013Y-103576083D01*
X84646638Y-103566963D01*
X84665593Y-103475114D01*
X84640039Y-103399395D01*
X84581022Y-103350735D01*
X84499589Y-103340059D01*
X84437348Y-103359922D01*
X84353697Y-103381690D01*
X84266505Y-103358105D01*
X84194331Y-103313629D01*
X84177353Y-103269024D01*
X84215081Y-103217720D01*
X84253814Y-103187848D01*
X84370322Y-103137133D01*
X84500387Y-103129247D01*
X84631515Y-103158775D01*
X84751206Y-103220304D01*
X84751206Y-103220304D01*
G37*
X84751206Y-103220304D02*
X84846965Y-103308416D01*
X84906296Y-103417697D01*
X84918131Y-103475717D01*
X84905992Y-103599775D01*
X84850458Y-103703968D01*
X84760948Y-103776771D01*
X84647917Y-103806612D01*
X84553285Y-103810487D01*
X84617033Y-103880803D01*
X84681859Y-103988047D01*
X84691184Y-104102784D01*
X84644654Y-104220482D01*
X84643619Y-104222106D01*
X84585356Y-104293268D01*
X84521283Y-104344448D01*
X84509815Y-104350191D01*
X84380458Y-104377208D01*
X84237990Y-104359659D01*
X84097137Y-104302087D01*
X83972625Y-104209029D01*
X83940502Y-104174688D01*
X83874251Y-104064152D01*
X83857550Y-103962892D01*
X83861200Y-103889206D01*
X83871276Y-103844956D01*
X83875630Y-103840195D01*
X83919589Y-103841371D01*
X83983806Y-103859406D01*
X84048480Y-103886334D01*
X84093811Y-103914186D01*
X84102904Y-103931653D01*
X84101604Y-103991707D01*
X84133297Y-104063536D01*
X84186025Y-104124777D01*
X84216779Y-104144552D01*
X84309313Y-104160159D01*
X84393586Y-104126597D01*
X84449019Y-104057537D01*
X84458987Y-103975807D01*
X84420488Y-103895543D01*
X84340379Y-103829410D01*
X84319812Y-103818919D01*
X84265615Y-103788336D01*
X84253514Y-103754069D01*
X84276162Y-103693665D01*
X84277725Y-103690306D01*
X84310301Y-103632114D01*
X84343358Y-103617442D01*
X84390513Y-103633910D01*
X84490889Y-103657572D01*
X84579790Y-103636971D01*
X84642013Y-103576083D01*
X84646638Y-103566963D01*
X84665593Y-103475114D01*
X84640039Y-103399395D01*
X84581022Y-103350735D01*
X84499589Y-103340059D01*
X84437348Y-103359922D01*
X84353697Y-103381690D01*
X84266505Y-103358105D01*
X84194331Y-103313629D01*
X84177353Y-103269024D01*
X84215081Y-103217720D01*
X84253814Y-103187848D01*
X84370322Y-103137133D01*
X84500387Y-103129247D01*
X84631515Y-103158775D01*
X84751206Y-103220304D01*
G36*
X94131089Y-107802338D02*
X93670684Y-107587647D01*
X93605380Y-107727694D01*
X93569180Y-107807960D01*
X93557959Y-107850217D01*
X93572792Y-107867590D01*
X93614754Y-107873201D01*
X93617317Y-107873389D01*
X93750455Y-107907410D01*
X93852601Y-107981413D01*
X93919376Y-108085599D01*
X93946397Y-108210175D01*
X93929283Y-108345340D01*
X93878759Y-108458002D01*
X93779393Y-108571417D01*
X93653380Y-108638994D01*
X93510595Y-108657923D01*
X93360919Y-108625400D01*
X93332588Y-108613205D01*
X93244649Y-108557533D01*
X93167820Y-108485991D01*
X93162476Y-108479435D01*
X93125728Y-108415012D01*
X93097205Y-108334079D01*
X93080881Y-108254585D01*
X93080730Y-108194473D01*
X93094539Y-108172532D01*
X93131553Y-108175086D01*
X93198769Y-108190090D01*
X93212912Y-108193969D01*
X93283567Y-108221658D01*
X93319177Y-108264861D01*
X93334252Y-108314162D01*
X93376324Y-108398817D01*
X93444287Y-108442999D01*
X93524453Y-108446475D01*
X93603128Y-108409011D01*
X93666622Y-108330374D01*
X93671752Y-108319930D01*
X93692754Y-108228572D01*
X93677300Y-108142910D01*
X93633735Y-108075300D01*
X93570405Y-108038095D01*
X93495653Y-108043650D01*
X93487535Y-108047190D01*
X93424185Y-108050673D01*
X93332300Y-108021392D01*
X93322135Y-108016772D01*
X93206468Y-107962835D01*
X93303282Y-107797787D01*
X93367578Y-107683289D01*
X93431882Y-107561052D01*
X93468860Y-107485751D01*
X93537623Y-107338762D01*
X94202652Y-107648870D01*
X94131089Y-107802338D01*
X94131089Y-107802338D01*
G37*
X94131089Y-107802338D02*
X93670684Y-107587647D01*
X93605380Y-107727694D01*
X93569180Y-107807960D01*
X93557959Y-107850217D01*
X93572792Y-107867590D01*
X93614754Y-107873201D01*
X93617317Y-107873389D01*
X93750455Y-107907410D01*
X93852601Y-107981413D01*
X93919376Y-108085599D01*
X93946397Y-108210175D01*
X93929283Y-108345340D01*
X93878759Y-108458002D01*
X93779393Y-108571417D01*
X93653380Y-108638994D01*
X93510595Y-108657923D01*
X93360919Y-108625400D01*
X93332588Y-108613205D01*
X93244649Y-108557533D01*
X93167820Y-108485991D01*
X93162476Y-108479435D01*
X93125728Y-108415012D01*
X93097205Y-108334079D01*
X93080881Y-108254585D01*
X93080730Y-108194473D01*
X93094539Y-108172532D01*
X93131553Y-108175086D01*
X93198769Y-108190090D01*
X93212912Y-108193969D01*
X93283567Y-108221658D01*
X93319177Y-108264861D01*
X93334252Y-108314162D01*
X93376324Y-108398817D01*
X93444287Y-108442999D01*
X93524453Y-108446475D01*
X93603128Y-108409011D01*
X93666622Y-108330374D01*
X93671752Y-108319930D01*
X93692754Y-108228572D01*
X93677300Y-108142910D01*
X93633735Y-108075300D01*
X93570405Y-108038095D01*
X93495653Y-108043650D01*
X93487535Y-108047190D01*
X93424185Y-108050673D01*
X93332300Y-108021392D01*
X93322135Y-108016772D01*
X93206468Y-107962835D01*
X93303282Y-107797787D01*
X93367578Y-107683289D01*
X93431882Y-107561052D01*
X93468860Y-107485751D01*
X93537623Y-107338762D01*
X94202652Y-107648870D01*
X94131089Y-107802338D01*
G36*
X98606221Y-109682559D02*
X98700793Y-109772731D01*
X98751978Y-109880596D01*
X98756659Y-109907993D01*
X98762428Y-109979796D01*
X98761814Y-110023961D01*
X98760881Y-110027330D01*
X98732086Y-110030228D01*
X98668553Y-110018469D01*
X98639675Y-110010817D01*
X98561529Y-109982216D01*
X98519936Y-109944875D01*
X98500893Y-109901584D01*
X98456353Y-109832203D01*
X98389025Y-109807116D01*
X98308682Y-109824514D01*
X98225098Y-109882586D01*
X98157034Y-109965271D01*
X98099831Y-110052932D01*
X98213000Y-110041952D01*
X98332875Y-110053875D01*
X98444276Y-110105543D01*
X98528134Y-110186535D01*
X98550357Y-110226330D01*
X98578578Y-110354063D01*
X98563284Y-110486531D01*
X98511527Y-110611892D01*
X98430360Y-110718300D01*
X98326832Y-110793908D01*
X98207996Y-110826871D01*
X98192537Y-110827402D01*
X98043846Y-110804727D01*
X97915996Y-110739390D01*
X97822878Y-110638545D01*
X97821563Y-110636376D01*
X97770962Y-110532773D01*
X97750672Y-110431303D01*
X97761535Y-110319382D01*
X97804394Y-110184422D01*
X97807943Y-110176254D01*
X98027486Y-110278628D01*
X97989628Y-110368272D01*
X97986296Y-110469213D01*
X97989423Y-110484792D01*
X98029217Y-110571211D01*
X98095677Y-110608063D01*
X98184618Y-110595583D01*
X98259819Y-110544382D01*
X98309814Y-110464656D01*
X98332075Y-110372269D01*
X98324073Y-110283086D01*
X98283281Y-110212971D01*
X98249287Y-110189782D01*
X98167208Y-110178153D01*
X98089977Y-110211512D01*
X98027486Y-110278628D01*
X97807943Y-110176254D01*
X97860515Y-110055204D01*
X97963410Y-109862600D01*
X98068792Y-109724040D01*
X98180066Y-109637135D01*
X98300636Y-109599488D01*
X98433906Y-109608711D01*
X98478646Y-109620811D01*
X98606221Y-109682559D01*
X98606221Y-109682559D01*
G37*
X98606221Y-109682559D02*
X98700793Y-109772731D01*
X98751978Y-109880596D01*
X98756659Y-109907993D01*
X98762428Y-109979796D01*
X98761814Y-110023961D01*
X98760881Y-110027330D01*
X98732086Y-110030228D01*
X98668553Y-110018469D01*
X98639675Y-110010817D01*
X98561529Y-109982216D01*
X98519936Y-109944875D01*
X98500893Y-109901584D01*
X98456353Y-109832203D01*
X98389025Y-109807116D01*
X98308682Y-109824514D01*
X98225098Y-109882586D01*
X98157034Y-109965271D01*
X98099831Y-110052932D01*
X98213000Y-110041952D01*
X98332875Y-110053875D01*
X98444276Y-110105543D01*
X98528134Y-110186535D01*
X98550357Y-110226330D01*
X98578578Y-110354063D01*
X98563284Y-110486531D01*
X98511527Y-110611892D01*
X98430360Y-110718300D01*
X98326832Y-110793908D01*
X98207996Y-110826871D01*
X98192537Y-110827402D01*
X98043846Y-110804727D01*
X97915996Y-110739390D01*
X97822878Y-110638545D01*
X97821563Y-110636376D01*
X97770962Y-110532773D01*
X97750672Y-110431303D01*
X97761535Y-110319382D01*
X97804394Y-110184422D01*
X97807943Y-110176254D01*
X98027486Y-110278628D01*
X97989628Y-110368272D01*
X97986296Y-110469213D01*
X97989423Y-110484792D01*
X98029217Y-110571211D01*
X98095677Y-110608063D01*
X98184618Y-110595583D01*
X98259819Y-110544382D01*
X98309814Y-110464656D01*
X98332075Y-110372269D01*
X98324073Y-110283086D01*
X98283281Y-110212971D01*
X98249287Y-110189782D01*
X98167208Y-110178153D01*
X98089977Y-110211512D01*
X98027486Y-110278628D01*
X97807943Y-110176254D01*
X97860515Y-110055204D01*
X97963410Y-109862600D01*
X98068792Y-109724040D01*
X98180066Y-109637135D01*
X98300636Y-109599488D01*
X98433906Y-109608711D01*
X98478646Y-109620811D01*
X98606221Y-109682559D01*
G36*
X107866324Y-114011070D02*
X107948680Y-114108841D01*
X107991392Y-114216293D01*
X107993440Y-114323611D01*
X107953798Y-114420978D01*
X107871446Y-114498582D01*
X107807540Y-114529295D01*
X107735474Y-114560722D01*
X107710457Y-114588186D01*
X107716171Y-114608376D01*
X107748073Y-114647040D01*
X107758304Y-114654573D01*
X107775775Y-114690528D01*
X107779713Y-114760565D01*
X107771097Y-114844221D01*
X107750906Y-114921027D01*
X107744865Y-114935279D01*
X107670907Y-115033963D01*
X107563826Y-115105125D01*
X107443881Y-115136296D01*
X107417896Y-115136554D01*
X107279181Y-115108967D01*
X107141691Y-115045114D01*
X107031985Y-114957470D01*
X107028583Y-114953683D01*
X106970989Y-114850548D01*
X106949417Y-114725810D01*
X106967168Y-114603851D01*
X106977716Y-114577552D01*
X106988468Y-114560757D01*
X107216175Y-114666939D01*
X107189923Y-114770936D01*
X107208452Y-114861081D01*
X107268597Y-114924351D01*
X107280190Y-114930337D01*
X107369150Y-114944395D01*
X107420349Y-114926486D01*
X107495572Y-114858942D01*
X107538208Y-114771605D01*
X107546690Y-114679871D01*
X107519444Y-114599133D01*
X107459098Y-114546667D01*
X107372067Y-114533885D01*
X107289511Y-114571095D01*
X107223444Y-114652348D01*
X107216175Y-114666939D01*
X106988468Y-114560757D01*
X107018644Y-114513626D01*
X107075645Y-114451036D01*
X107133672Y-114403686D01*
X107177678Y-114385480D01*
X107184112Y-114386822D01*
X107225906Y-114391034D01*
X107246583Y-114389404D01*
X107270242Y-114372666D01*
X107266578Y-114324829D01*
X107248431Y-114268578D01*
X107228017Y-114146952D01*
X107246637Y-114073917D01*
X107474334Y-114180094D01*
X107456256Y-114268678D01*
X107479671Y-114347456D01*
X107530662Y-114393199D01*
X107595012Y-114402145D01*
X107637100Y-114393897D01*
X107702905Y-114345822D01*
X107739417Y-114271865D01*
X107744447Y-114190394D01*
X107715806Y-114119769D01*
X107673789Y-114086263D01*
X107596706Y-114078193D01*
X107522610Y-114115821D01*
X107474334Y-114180094D01*
X107246637Y-114073917D01*
X107254696Y-114042302D01*
X107320295Y-113960150D01*
X107416635Y-113906024D01*
X107535540Y-113885447D01*
X107668833Y-113903946D01*
X107745352Y-113932795D01*
X107866324Y-114011070D01*
X107866324Y-114011070D01*
G37*
X107866324Y-114011070D02*
X107948680Y-114108841D01*
X107991392Y-114216293D01*
X107993440Y-114323611D01*
X107953798Y-114420978D01*
X107871446Y-114498582D01*
X107807540Y-114529295D01*
X107735474Y-114560722D01*
X107710457Y-114588186D01*
X107716171Y-114608376D01*
X107748073Y-114647040D01*
X107758304Y-114654573D01*
X107775775Y-114690528D01*
X107779713Y-114760565D01*
X107771097Y-114844221D01*
X107750906Y-114921027D01*
X107744865Y-114935279D01*
X107670907Y-115033963D01*
X107563826Y-115105125D01*
X107443881Y-115136296D01*
X107417896Y-115136554D01*
X107279181Y-115108967D01*
X107141691Y-115045114D01*
X107031985Y-114957470D01*
X107028583Y-114953683D01*
X106970989Y-114850548D01*
X106949417Y-114725810D01*
X106967168Y-114603851D01*
X106977716Y-114577552D01*
X106988468Y-114560757D01*
X107216175Y-114666939D01*
X107189923Y-114770936D01*
X107208452Y-114861081D01*
X107268597Y-114924351D01*
X107280190Y-114930337D01*
X107369150Y-114944395D01*
X107420349Y-114926486D01*
X107495572Y-114858942D01*
X107538208Y-114771605D01*
X107546690Y-114679871D01*
X107519444Y-114599133D01*
X107459098Y-114546667D01*
X107372067Y-114533885D01*
X107289511Y-114571095D01*
X107223444Y-114652348D01*
X107216175Y-114666939D01*
X106988468Y-114560757D01*
X107018644Y-114513626D01*
X107075645Y-114451036D01*
X107133672Y-114403686D01*
X107177678Y-114385480D01*
X107184112Y-114386822D01*
X107225906Y-114391034D01*
X107246583Y-114389404D01*
X107270242Y-114372666D01*
X107266578Y-114324829D01*
X107248431Y-114268578D01*
X107228017Y-114146952D01*
X107246637Y-114073917D01*
X107474334Y-114180094D01*
X107456256Y-114268678D01*
X107479671Y-114347456D01*
X107530662Y-114393199D01*
X107595012Y-114402145D01*
X107637100Y-114393897D01*
X107702905Y-114345822D01*
X107739417Y-114271865D01*
X107744447Y-114190394D01*
X107715806Y-114119769D01*
X107673789Y-114086263D01*
X107596706Y-114078193D01*
X107522610Y-114115821D01*
X107474334Y-114180094D01*
X107246637Y-114073917D01*
X107254696Y-114042302D01*
X107320295Y-113960150D01*
X107416635Y-113906024D01*
X107535540Y-113885447D01*
X107668833Y-113903946D01*
X107745352Y-113932795D01*
X107866324Y-114011070D01*
G36*
X75166124Y-99924162D02*
X75294015Y-99983799D01*
X75368940Y-100020779D01*
X75401886Y-100048690D01*
X75402356Y-100081606D01*
X75386123Y-100120169D01*
X75350341Y-100196903D01*
X74583000Y-99839086D01*
X74618782Y-99762352D01*
X74641600Y-99719586D01*
X74667728Y-99703972D01*
X74712961Y-99714514D01*
X74793091Y-99750214D01*
X74935922Y-99816817D01*
X75108866Y-99445936D01*
X75168721Y-99314207D01*
X75216821Y-99201783D01*
X75249457Y-99117880D01*
X75262916Y-99071716D01*
X75261925Y-99065782D01*
X75221184Y-99062663D01*
X75175524Y-99067426D01*
X75098240Y-99079298D01*
X75017577Y-99090776D01*
X74926146Y-99103207D01*
X74966505Y-99017242D01*
X74994233Y-98970317D01*
X75033088Y-98940708D01*
X75098297Y-98921095D01*
X75200487Y-98904789D01*
X75332668Y-98893654D01*
X75431947Y-98903768D01*
X75500770Y-98928039D01*
X75607431Y-98977776D01*
X75166124Y-99924162D01*
X75166124Y-99924162D01*
G37*
X75166124Y-99924162D02*
X75294015Y-99983799D01*
X75368940Y-100020779D01*
X75401886Y-100048690D01*
X75402356Y-100081606D01*
X75386123Y-100120169D01*
X75350341Y-100196903D01*
X74583000Y-99839086D01*
X74618782Y-99762352D01*
X74641600Y-99719586D01*
X74667728Y-99703972D01*
X74712961Y-99714514D01*
X74793091Y-99750214D01*
X74935922Y-99816817D01*
X75108866Y-99445936D01*
X75168721Y-99314207D01*
X75216821Y-99201783D01*
X75249457Y-99117880D01*
X75262916Y-99071716D01*
X75261925Y-99065782D01*
X75221184Y-99062663D01*
X75175524Y-99067426D01*
X75098240Y-99079298D01*
X75017577Y-99090776D01*
X74926146Y-99103207D01*
X74966505Y-99017242D01*
X74994233Y-98970317D01*
X75033088Y-98940708D01*
X75098297Y-98921095D01*
X75200487Y-98904789D01*
X75332668Y-98893654D01*
X75431947Y-98903768D01*
X75500770Y-98928039D01*
X75607431Y-98977776D01*
X75166124Y-99924162D01*
G36*
X80211730Y-101133792D02*
X80227674Y-101150221D01*
X80293160Y-101258716D01*
X80310959Y-101385163D01*
X80278949Y-101514203D01*
X80278181Y-101515860D01*
X80211378Y-101601798D01*
X80099341Y-101681637D01*
X79953278Y-101748653D01*
X79826365Y-101786883D01*
X79717790Y-101816251D01*
X79623462Y-101847635D01*
X79564426Y-101873920D01*
X79499557Y-101913736D01*
X80012297Y-102152830D01*
X79928806Y-102331876D01*
X79161466Y-101974059D01*
X79200558Y-101890228D01*
X79227923Y-101841880D01*
X79265959Y-101800171D01*
X79323163Y-101760129D01*
X79408036Y-101716788D01*
X79529078Y-101665178D01*
X79694787Y-101600331D01*
X79699673Y-101598460D01*
X79852915Y-101536584D01*
X79957992Y-101486061D01*
X80021226Y-101443495D01*
X80046346Y-101412017D01*
X80063677Y-101323941D01*
X80037650Y-101251393D01*
X79980460Y-101204770D01*
X79904302Y-101194467D01*
X79828052Y-101225944D01*
X79769730Y-101258784D01*
X79715065Y-101260270D01*
X79638547Y-101230993D01*
X79637219Y-101230377D01*
X79569320Y-101196540D01*
X79545239Y-101171286D01*
X79557235Y-101140236D01*
X79575759Y-101116280D01*
X79682784Y-101023107D01*
X79808641Y-100978727D01*
X79944582Y-100982685D01*
X80081861Y-101034525D01*
X80211730Y-101133792D01*
X80211730Y-101133792D01*
G37*
X80211730Y-101133792D02*
X80227674Y-101150221D01*
X80293160Y-101258716D01*
X80310959Y-101385163D01*
X80278949Y-101514203D01*
X80278181Y-101515860D01*
X80211378Y-101601798D01*
X80099341Y-101681637D01*
X79953278Y-101748653D01*
X79826365Y-101786883D01*
X79717790Y-101816251D01*
X79623462Y-101847635D01*
X79564426Y-101873920D01*
X79499557Y-101913736D01*
X80012297Y-102152830D01*
X79928806Y-102331876D01*
X79161466Y-101974059D01*
X79200558Y-101890228D01*
X79227923Y-101841880D01*
X79265959Y-101800171D01*
X79323163Y-101760129D01*
X79408036Y-101716788D01*
X79529078Y-101665178D01*
X79694787Y-101600331D01*
X79699673Y-101598460D01*
X79852915Y-101536584D01*
X79957992Y-101486061D01*
X80021226Y-101443495D01*
X80046346Y-101412017D01*
X80063677Y-101323941D01*
X80037650Y-101251393D01*
X79980460Y-101204770D01*
X79904302Y-101194467D01*
X79828052Y-101225944D01*
X79769730Y-101258784D01*
X79715065Y-101260270D01*
X79638547Y-101230993D01*
X79637219Y-101230377D01*
X79569320Y-101196540D01*
X79545239Y-101171286D01*
X79557235Y-101140236D01*
X79575759Y-101116280D01*
X79682784Y-101023107D01*
X79808641Y-100978727D01*
X79944582Y-100982685D01*
X80081861Y-101034525D01*
X80211730Y-101133792D01*
G36*
X89239068Y-106206226D02*
X89315802Y-106242008D01*
X89367198Y-106273690D01*
X89373289Y-106312927D01*
X89356754Y-106354524D01*
X89325072Y-106405919D01*
X89285834Y-106412011D01*
X89244238Y-106395475D01*
X89195498Y-106376810D01*
X89164166Y-106385654D01*
X89134514Y-106431574D01*
X89113832Y-106474795D01*
X89060160Y-106589896D01*
X88829958Y-106482551D01*
X88937303Y-106252349D01*
X88451321Y-106025732D01*
X88487331Y-105948506D01*
X88527116Y-105898656D01*
X88545682Y-105882895D01*
X88701579Y-105955591D01*
X89008866Y-106098881D01*
X89124379Y-105849133D01*
X89175912Y-105734890D01*
X89203759Y-105664691D01*
X89209772Y-105632246D01*
X89195803Y-105631263D01*
X89186880Y-105636944D01*
X89139920Y-105668867D01*
X89059796Y-105722031D01*
X88960734Y-105787023D01*
X88917725Y-105815048D01*
X88701579Y-105955591D01*
X88545682Y-105882895D01*
X88610739Y-105827664D01*
X88740300Y-105733900D01*
X88913711Y-105618450D01*
X89304080Y-105365621D01*
X89573030Y-105490042D01*
X89239068Y-106206226D01*
X89239068Y-106206226D01*
G37*
X89239068Y-106206226D02*
X89315802Y-106242008D01*
X89367198Y-106273690D01*
X89373289Y-106312927D01*
X89356754Y-106354524D01*
X89325072Y-106405919D01*
X89285834Y-106412011D01*
X89244238Y-106395475D01*
X89195498Y-106376810D01*
X89164166Y-106385654D01*
X89134514Y-106431574D01*
X89113832Y-106474795D01*
X89060160Y-106589896D01*
X88829958Y-106482551D01*
X88937303Y-106252349D01*
X88451321Y-106025732D01*
X88487331Y-105948506D01*
X88527116Y-105898656D01*
X88545682Y-105882895D01*
X88701579Y-105955591D01*
X89008866Y-106098881D01*
X89124379Y-105849133D01*
X89175912Y-105734890D01*
X89203759Y-105664691D01*
X89209772Y-105632246D01*
X89195803Y-105631263D01*
X89186880Y-105636944D01*
X89139920Y-105668867D01*
X89059796Y-105722031D01*
X88960734Y-105787023D01*
X88917725Y-105815048D01*
X88701579Y-105955591D01*
X88545682Y-105882895D01*
X88610739Y-105827664D01*
X88740300Y-105733900D01*
X88913711Y-105618450D01*
X89304080Y-105365621D01*
X89573030Y-105490042D01*
X89239068Y-106206226D01*
G36*
X103446874Y-112065518D02*
X103396439Y-112135751D01*
X103310537Y-112217297D01*
X103247719Y-112265779D01*
X103056998Y-112414821D01*
X102892008Y-112569337D01*
X102763605Y-112718694D01*
X102719320Y-112783533D01*
X102635045Y-112919969D01*
X102523465Y-112867939D01*
X102455010Y-112832244D01*
X102429004Y-112802963D01*
X102435107Y-112766524D01*
X102439198Y-112757337D01*
X102504752Y-112653653D01*
X102609031Y-112532312D01*
X102741526Y-112403256D01*
X102891724Y-112276426D01*
X103049114Y-112161766D01*
X103110909Y-112122041D01*
X103204382Y-112064423D01*
X102687798Y-111823536D01*
X102771288Y-111644490D01*
X103487473Y-111978453D01*
X103446874Y-112065518D01*
X103446874Y-112065518D01*
G37*
X103446874Y-112065518D02*
X103396439Y-112135751D01*
X103310537Y-112217297D01*
X103247719Y-112265779D01*
X103056998Y-112414821D01*
X102892008Y-112569337D01*
X102763605Y-112718694D01*
X102719320Y-112783533D01*
X102635045Y-112919969D01*
X102523465Y-112867939D01*
X102455010Y-112832244D01*
X102429004Y-112802963D01*
X102435107Y-112766524D01*
X102439198Y-112757337D01*
X102504752Y-112653653D01*
X102609031Y-112532312D01*
X102741526Y-112403256D01*
X102891724Y-112276426D01*
X103049114Y-112161766D01*
X103110909Y-112122041D01*
X103204382Y-112064423D01*
X102687798Y-111823536D01*
X102771288Y-111644490D01*
X103487473Y-111978453D01*
X103446874Y-112065518D01*
G36*
X82882760Y-102426843D02*
X82946375Y-102531885D01*
X82967739Y-102666004D01*
X82945924Y-102825439D01*
X82879997Y-103006430D01*
X82827683Y-103108332D01*
X82723382Y-103266330D01*
X82617046Y-103369872D01*
X82505269Y-103420932D01*
X82384644Y-103421481D01*
X82318805Y-103403014D01*
X82236327Y-103365435D01*
X82172362Y-103323478D01*
X82161423Y-103312968D01*
X82101943Y-103205023D01*
X82085569Y-103066692D01*
X82111842Y-102903477D01*
X82180301Y-102720883D01*
X82210837Y-102660300D01*
X82414974Y-102755490D01*
X82333811Y-102929943D01*
X82292378Y-103065986D01*
X82290482Y-103165115D01*
X82327933Y-103228824D01*
X82352686Y-103244172D01*
X82407850Y-103256340D01*
X82463714Y-103231501D01*
X82503578Y-103198403D01*
X82558534Y-103136213D01*
X82612235Y-103047003D01*
X82671839Y-102918440D01*
X82686999Y-102882338D01*
X82740881Y-102740918D01*
X82766551Y-102639775D01*
X82764267Y-102570449D01*
X82734288Y-102524478D01*
X82698576Y-102502409D01*
X82640584Y-102487749D01*
X82586763Y-102505518D01*
X82530795Y-102561352D01*
X82466365Y-102660887D01*
X82414974Y-102755490D01*
X82210837Y-102660300D01*
X82216913Y-102648246D01*
X82314530Y-102491137D01*
X82412009Y-102386383D01*
X82514230Y-102330114D01*
X82626076Y-102318466D01*
X82632496Y-102319032D01*
X82777823Y-102354638D01*
X82882760Y-102426843D01*
X82882760Y-102426843D01*
G37*
X82882760Y-102426843D02*
X82946375Y-102531885D01*
X82967739Y-102666004D01*
X82945924Y-102825439D01*
X82879997Y-103006430D01*
X82827683Y-103108332D01*
X82723382Y-103266330D01*
X82617046Y-103369872D01*
X82505269Y-103420932D01*
X82384644Y-103421481D01*
X82318805Y-103403014D01*
X82236327Y-103365435D01*
X82172362Y-103323478D01*
X82161423Y-103312968D01*
X82101943Y-103205023D01*
X82085569Y-103066692D01*
X82111842Y-102903477D01*
X82180301Y-102720883D01*
X82210837Y-102660300D01*
X82414974Y-102755490D01*
X82333811Y-102929943D01*
X82292378Y-103065986D01*
X82290482Y-103165115D01*
X82327933Y-103228824D01*
X82352686Y-103244172D01*
X82407850Y-103256340D01*
X82463714Y-103231501D01*
X82503578Y-103198403D01*
X82558534Y-103136213D01*
X82612235Y-103047003D01*
X82671839Y-102918440D01*
X82686999Y-102882338D01*
X82740881Y-102740918D01*
X82766551Y-102639775D01*
X82764267Y-102570449D01*
X82734288Y-102524478D01*
X82698576Y-102502409D01*
X82640584Y-102487749D01*
X82586763Y-102505518D01*
X82530795Y-102561352D01*
X82466365Y-102660887D01*
X82414974Y-102755490D01*
X82210837Y-102660300D01*
X82216913Y-102648246D01*
X82314530Y-102491137D01*
X82412009Y-102386383D01*
X82514230Y-102330114D01*
X82626076Y-102318466D01*
X82632496Y-102319032D01*
X82777823Y-102354638D01*
X82882760Y-102426843D01*
G36*
X96640078Y-108823048D02*
X96731139Y-108907412D01*
X96786431Y-109010764D01*
X96798602Y-109124358D01*
X96773563Y-109214157D01*
X96722829Y-109279202D01*
X96648123Y-109330169D01*
X96569913Y-109356166D01*
X96516632Y-109350809D01*
X96508815Y-109360736D01*
X96529771Y-109404249D01*
X96541778Y-109423147D01*
X96595403Y-109544305D01*
X96593204Y-109659905D01*
X96535747Y-109766790D01*
X96468522Y-109830494D01*
X96367561Y-109875405D01*
X96246399Y-109880486D01*
X96120267Y-109849845D01*
X96004395Y-109787593D01*
X95914014Y-109697839D01*
X95900509Y-109677238D01*
X95857874Y-109584761D01*
X95839377Y-109497591D01*
X95845851Y-109429944D01*
X95878134Y-109396037D01*
X95883925Y-109394892D01*
X95940841Y-109400648D01*
X96002337Y-109423625D01*
X96047909Y-109453872D01*
X96058195Y-109479457D01*
X96058080Y-109534863D01*
X96087131Y-109604362D01*
X96133109Y-109663682D01*
X96160852Y-109683026D01*
X96242468Y-109695378D01*
X96316403Y-109665261D01*
X96370394Y-109605738D01*
X96392174Y-109529871D01*
X96373208Y-109456847D01*
X96317312Y-109393231D01*
X96263885Y-109357393D01*
X96216705Y-109326797D01*
X96213005Y-109286260D01*
X96228624Y-109247532D01*
X96260489Y-109196090D01*
X96299454Y-109189853D01*
X96337175Y-109204730D01*
X96424462Y-109221149D01*
X96502194Y-109195838D01*
X96557113Y-109139561D01*
X96575963Y-109063081D01*
X96566871Y-109018236D01*
X96528821Y-108960332D01*
X96497918Y-108937148D01*
X96436293Y-108929165D01*
X96368147Y-108945352D01*
X96323316Y-108978181D01*
X96321467Y-108981651D01*
X96292272Y-108987756D01*
X96238140Y-108970770D01*
X96179945Y-108940571D01*
X96138566Y-108907037D01*
X96130597Y-108891337D01*
X96150482Y-108845002D01*
X96208947Y-108798806D01*
X96288981Y-108762642D01*
X96373568Y-108746406D01*
X96380069Y-108746264D01*
X96520603Y-108766418D01*
X96640078Y-108823048D01*
X96640078Y-108823048D01*
G37*
X96640078Y-108823048D02*
X96731139Y-108907412D01*
X96786431Y-109010764D01*
X96798602Y-109124358D01*
X96773563Y-109214157D01*
X96722829Y-109279202D01*
X96648123Y-109330169D01*
X96569913Y-109356166D01*
X96516632Y-109350809D01*
X96508815Y-109360736D01*
X96529771Y-109404249D01*
X96541778Y-109423147D01*
X96595403Y-109544305D01*
X96593204Y-109659905D01*
X96535747Y-109766790D01*
X96468522Y-109830494D01*
X96367561Y-109875405D01*
X96246399Y-109880486D01*
X96120267Y-109849845D01*
X96004395Y-109787593D01*
X95914014Y-109697839D01*
X95900509Y-109677238D01*
X95857874Y-109584761D01*
X95839377Y-109497591D01*
X95845851Y-109429944D01*
X95878134Y-109396037D01*
X95883925Y-109394892D01*
X95940841Y-109400648D01*
X96002337Y-109423625D01*
X96047909Y-109453872D01*
X96058195Y-109479457D01*
X96058080Y-109534863D01*
X96087131Y-109604362D01*
X96133109Y-109663682D01*
X96160852Y-109683026D01*
X96242468Y-109695378D01*
X96316403Y-109665261D01*
X96370394Y-109605738D01*
X96392174Y-109529871D01*
X96373208Y-109456847D01*
X96317312Y-109393231D01*
X96263885Y-109357393D01*
X96216705Y-109326797D01*
X96213005Y-109286260D01*
X96228624Y-109247532D01*
X96260489Y-109196090D01*
X96299454Y-109189853D01*
X96337175Y-109204730D01*
X96424462Y-109221149D01*
X96502194Y-109195838D01*
X96557113Y-109139561D01*
X96575963Y-109063081D01*
X96566871Y-109018236D01*
X96528821Y-108960332D01*
X96497918Y-108937148D01*
X96436293Y-108929165D01*
X96368147Y-108945352D01*
X96323316Y-108978181D01*
X96321467Y-108981651D01*
X96292272Y-108987756D01*
X96238140Y-108970770D01*
X96179945Y-108940571D01*
X96138566Y-108907037D01*
X96130597Y-108891337D01*
X96150482Y-108845002D01*
X96208947Y-108798806D01*
X96288981Y-108762642D01*
X96373568Y-108746406D01*
X96380069Y-108746264D01*
X96520603Y-108766418D01*
X96640078Y-108823048D01*
G36*
X106052169Y-113423509D02*
X105642921Y-113232673D01*
X105588828Y-113348674D01*
X105558231Y-113419387D01*
X105554375Y-113452783D01*
X105578140Y-113461716D01*
X105596558Y-113461267D01*
X105707468Y-113481005D01*
X105803428Y-113544439D01*
X105873201Y-113638943D01*
X105905551Y-113751891D01*
X105904666Y-113807474D01*
X105867801Y-113937778D01*
X105796402Y-114058148D01*
X105703977Y-114146172D01*
X105698318Y-114149775D01*
X105586708Y-114187985D01*
X105458350Y-114183696D01*
X105329056Y-114140520D01*
X105214637Y-114062065D01*
X105186168Y-114032860D01*
X105143221Y-113963342D01*
X105119332Y-113883493D01*
X105116234Y-113810355D01*
X105135657Y-113760968D01*
X105157426Y-113749982D01*
X105245424Y-113764237D01*
X105314375Y-113822519D01*
X105343346Y-113887043D01*
X105383602Y-113968675D01*
X105447615Y-114007587D01*
X105522766Y-114004215D01*
X105596433Y-113958996D01*
X105654193Y-113876294D01*
X105677896Y-113782783D01*
X105666172Y-113698226D01*
X105626284Y-113634565D01*
X105565494Y-113603740D01*
X105495554Y-113615481D01*
X105434922Y-113619561D01*
X105351985Y-113595102D01*
X105342997Y-113591052D01*
X105240174Y-113543105D01*
X105329919Y-113393548D01*
X105390880Y-113287077D01*
X105449577Y-113176754D01*
X105477552Y-113119852D01*
X105535439Y-112995714D01*
X106123733Y-113270040D01*
X106052169Y-113423509D01*
X106052169Y-113423509D01*
G37*
X106052169Y-113423509D02*
X105642921Y-113232673D01*
X105588828Y-113348674D01*
X105558231Y-113419387D01*
X105554375Y-113452783D01*
X105578140Y-113461716D01*
X105596558Y-113461267D01*
X105707468Y-113481005D01*
X105803428Y-113544439D01*
X105873201Y-113638943D01*
X105905551Y-113751891D01*
X105904666Y-113807474D01*
X105867801Y-113937778D01*
X105796402Y-114058148D01*
X105703977Y-114146172D01*
X105698318Y-114149775D01*
X105586708Y-114187985D01*
X105458350Y-114183696D01*
X105329056Y-114140520D01*
X105214637Y-114062065D01*
X105186168Y-114032860D01*
X105143221Y-113963342D01*
X105119332Y-113883493D01*
X105116234Y-113810355D01*
X105135657Y-113760968D01*
X105157426Y-113749982D01*
X105245424Y-113764237D01*
X105314375Y-113822519D01*
X105343346Y-113887043D01*
X105383602Y-113968675D01*
X105447615Y-114007587D01*
X105522766Y-114004215D01*
X105596433Y-113958996D01*
X105654193Y-113876294D01*
X105677896Y-113782783D01*
X105666172Y-113698226D01*
X105626284Y-113634565D01*
X105565494Y-113603740D01*
X105495554Y-113615481D01*
X105434922Y-113619561D01*
X105351985Y-113595102D01*
X105342997Y-113591052D01*
X105240174Y-113543105D01*
X105329919Y-113393548D01*
X105390880Y-113287077D01*
X105449577Y-113176754D01*
X105477552Y-113119852D01*
X105535439Y-112995714D01*
X106123733Y-113270040D01*
X106052169Y-113423509D01*
G36*
X81686795Y-102902522D02*
X81801897Y-102956195D01*
X81871637Y-102991423D01*
X81899170Y-103019898D01*
X81894064Y-103057349D01*
X81881216Y-103086601D01*
X81845434Y-103163335D01*
X81154828Y-102841300D01*
X81190610Y-102764566D01*
X81214586Y-102720445D01*
X81242327Y-102705803D01*
X81290724Y-102718880D01*
X81354281Y-102747469D01*
X81482171Y-102807105D01*
X81637225Y-102474590D01*
X81694216Y-102350571D01*
X81740278Y-102246859D01*
X81771257Y-102173076D01*
X81782997Y-102138850D01*
X81782712Y-102137615D01*
X81751603Y-102137008D01*
X81682018Y-102140245D01*
X81623985Y-102144110D01*
X81474823Y-102155068D01*
X81511384Y-102076664D01*
X81539927Y-102031369D01*
X81583148Y-102004901D01*
X81657386Y-101989926D01*
X81718140Y-101983867D01*
X81857322Y-101984050D01*
X81969202Y-102007616D01*
X81984365Y-102013960D01*
X82080394Y-102058447D01*
X81686795Y-102902522D01*
X81686795Y-102902522D01*
G37*
X81686795Y-102902522D02*
X81801897Y-102956195D01*
X81871637Y-102991423D01*
X81899170Y-103019898D01*
X81894064Y-103057349D01*
X81881216Y-103086601D01*
X81845434Y-103163335D01*
X81154828Y-102841300D01*
X81190610Y-102764566D01*
X81214586Y-102720445D01*
X81242327Y-102705803D01*
X81290724Y-102718880D01*
X81354281Y-102747469D01*
X81482171Y-102807105D01*
X81637225Y-102474590D01*
X81694216Y-102350571D01*
X81740278Y-102246859D01*
X81771257Y-102173076D01*
X81782997Y-102138850D01*
X81782712Y-102137615D01*
X81751603Y-102137008D01*
X81682018Y-102140245D01*
X81623985Y-102144110D01*
X81474823Y-102155068D01*
X81511384Y-102076664D01*
X81539927Y-102031369D01*
X81583148Y-102004901D01*
X81657386Y-101989926D01*
X81718140Y-101983867D01*
X81857322Y-101984050D01*
X81969202Y-102007616D01*
X81984365Y-102013960D01*
X82080394Y-102058447D01*
X81686795Y-102902522D01*
G36*
X86290839Y-105049423D02*
X86405940Y-105103096D01*
X86475680Y-105138324D01*
X86503214Y-105166799D01*
X86498108Y-105204250D01*
X86485260Y-105233502D01*
X86449478Y-105310236D01*
X85758871Y-104988201D01*
X85794653Y-104911467D01*
X85818629Y-104867345D01*
X85846371Y-104852704D01*
X85894768Y-104865781D01*
X85958325Y-104894369D01*
X86086215Y-104954005D01*
X86241269Y-104621491D01*
X86298259Y-104497472D01*
X86344321Y-104393759D01*
X86375301Y-104319977D01*
X86387040Y-104285751D01*
X86386756Y-104284515D01*
X86355647Y-104283908D01*
X86286062Y-104287146D01*
X86228028Y-104291011D01*
X86078867Y-104301968D01*
X86115427Y-104223565D01*
X86143971Y-104178270D01*
X86187191Y-104151802D01*
X86261429Y-104136827D01*
X86322183Y-104130768D01*
X86461365Y-104130951D01*
X86573245Y-104154516D01*
X86588409Y-104160861D01*
X86684438Y-104205348D01*
X86290839Y-105049423D01*
X86290839Y-105049423D01*
G37*
X86290839Y-105049423D02*
X86405940Y-105103096D01*
X86475680Y-105138324D01*
X86503214Y-105166799D01*
X86498108Y-105204250D01*
X86485260Y-105233502D01*
X86449478Y-105310236D01*
X85758871Y-104988201D01*
X85794653Y-104911467D01*
X85818629Y-104867345D01*
X85846371Y-104852704D01*
X85894768Y-104865781D01*
X85958325Y-104894369D01*
X86086215Y-104954005D01*
X86241269Y-104621491D01*
X86298259Y-104497472D01*
X86344321Y-104393759D01*
X86375301Y-104319977D01*
X86387040Y-104285751D01*
X86386756Y-104284515D01*
X86355647Y-104283908D01*
X86286062Y-104287146D01*
X86228028Y-104291011D01*
X86078867Y-104301968D01*
X86115427Y-104223565D01*
X86143971Y-104178270D01*
X86187191Y-104151802D01*
X86261429Y-104136827D01*
X86322183Y-104130768D01*
X86461365Y-104130951D01*
X86573245Y-104154516D01*
X86588409Y-104160861D01*
X86684438Y-104205348D01*
X86290839Y-105049423D01*
G36*
X87109336Y-105431094D02*
X87224437Y-105484767D01*
X87294177Y-105519995D01*
X87321710Y-105548470D01*
X87316604Y-105585921D01*
X87303756Y-105615173D01*
X87267975Y-105691907D01*
X86577368Y-105369872D01*
X86613150Y-105293138D01*
X86637126Y-105249017D01*
X86664868Y-105234376D01*
X86713265Y-105247452D01*
X86776821Y-105276040D01*
X86904711Y-105335677D01*
X87059765Y-105003162D01*
X87116756Y-104879143D01*
X87162818Y-104775431D01*
X87193797Y-104701648D01*
X87205537Y-104667422D01*
X87205252Y-104666187D01*
X87174144Y-104665580D01*
X87104558Y-104668817D01*
X87046525Y-104672682D01*
X86897364Y-104683640D01*
X86933924Y-104605236D01*
X86962468Y-104559941D01*
X87005689Y-104533473D01*
X87079926Y-104518498D01*
X87140680Y-104512439D01*
X87279862Y-104512622D01*
X87391742Y-104536188D01*
X87406905Y-104542532D01*
X87502934Y-104587019D01*
X87109336Y-105431094D01*
X87109336Y-105431094D01*
G37*
X87109336Y-105431094D02*
X87224437Y-105484767D01*
X87294177Y-105519995D01*
X87321710Y-105548470D01*
X87316604Y-105585921D01*
X87303756Y-105615173D01*
X87267975Y-105691907D01*
X86577368Y-105369872D01*
X86613150Y-105293138D01*
X86637126Y-105249017D01*
X86664868Y-105234376D01*
X86713265Y-105247452D01*
X86776821Y-105276040D01*
X86904711Y-105335677D01*
X87059765Y-105003162D01*
X87116756Y-104879143D01*
X87162818Y-104775431D01*
X87193797Y-104701648D01*
X87205537Y-104667422D01*
X87205252Y-104666187D01*
X87174144Y-104665580D01*
X87104558Y-104668817D01*
X87046525Y-104672682D01*
X86897364Y-104683640D01*
X86933924Y-104605236D01*
X86962468Y-104559941D01*
X87005689Y-104533473D01*
X87079926Y-104518498D01*
X87140680Y-104512439D01*
X87279862Y-104512622D01*
X87391742Y-104536188D01*
X87406905Y-104542532D01*
X87502934Y-104587019D01*
X87109336Y-105431094D01*
G36*
X90894883Y-107196324D02*
X91009984Y-107249997D01*
X91079724Y-107285225D01*
X91107257Y-107313700D01*
X91102152Y-107351151D01*
X91089303Y-107380403D01*
X91053522Y-107457137D01*
X90362915Y-107135102D01*
X90398697Y-107058367D01*
X90422673Y-107014246D01*
X90450415Y-106999605D01*
X90498812Y-107012681D01*
X90562368Y-107041270D01*
X90690258Y-107100906D01*
X90845312Y-106768392D01*
X90902303Y-106644372D01*
X90948365Y-106540660D01*
X90979344Y-106466878D01*
X90991084Y-106432651D01*
X90990799Y-106431416D01*
X90959690Y-106430809D01*
X90890105Y-106434047D01*
X90832072Y-106437912D01*
X90682911Y-106448869D01*
X90719471Y-106370465D01*
X90748015Y-106325171D01*
X90791235Y-106298702D01*
X90865473Y-106283728D01*
X90926227Y-106277669D01*
X91065409Y-106277852D01*
X91177289Y-106301417D01*
X91192452Y-106307762D01*
X91288481Y-106352249D01*
X90894883Y-107196324D01*
X90894883Y-107196324D01*
G37*
X90894883Y-107196324D02*
X91009984Y-107249997D01*
X91079724Y-107285225D01*
X91107257Y-107313700D01*
X91102152Y-107351151D01*
X91089303Y-107380403D01*
X91053522Y-107457137D01*
X90362915Y-107135102D01*
X90398697Y-107058367D01*
X90422673Y-107014246D01*
X90450415Y-106999605D01*
X90498812Y-107012681D01*
X90562368Y-107041270D01*
X90690258Y-107100906D01*
X90845312Y-106768392D01*
X90902303Y-106644372D01*
X90948365Y-106540660D01*
X90979344Y-106466878D01*
X90991084Y-106432651D01*
X90990799Y-106431416D01*
X90959690Y-106430809D01*
X90890105Y-106434047D01*
X90832072Y-106437912D01*
X90682911Y-106448869D01*
X90719471Y-106370465D01*
X90748015Y-106325171D01*
X90791235Y-106298702D01*
X90865473Y-106283728D01*
X90926227Y-106277669D01*
X91065409Y-106277852D01*
X91177289Y-106301417D01*
X91192452Y-106307762D01*
X91288481Y-106352249D01*
X90894883Y-107196324D01*
G36*
X92080368Y-106715363D02*
X92160153Y-106813635D01*
X92160355Y-106814009D01*
X92186732Y-106915214D01*
X92175008Y-107031298D01*
X92128435Y-107138713D01*
X92112565Y-107160424D01*
X92060930Y-107199674D01*
X91965834Y-107248969D01*
X91838141Y-107303036D01*
X91756494Y-107333412D01*
X91453263Y-107441132D01*
X91685186Y-107558232D01*
X91917108Y-107675333D01*
X91846440Y-107826881D01*
X91155834Y-107504846D01*
X91189951Y-107431681D01*
X91255230Y-107351330D01*
X91376022Y-107271583D01*
X91552685Y-107192233D01*
X91686093Y-107144581D01*
X91820293Y-107094669D01*
X91907161Y-107046485D01*
X91955048Y-106992512D01*
X91972303Y-106925231D01*
X91972216Y-106887010D01*
X91945309Y-106829815D01*
X91885453Y-106793523D01*
X91812993Y-106782307D01*
X91748272Y-106800340D01*
X91717423Y-106834750D01*
X91687790Y-106839041D01*
X91627237Y-106820875D01*
X91604035Y-106810793D01*
X91537109Y-106771876D01*
X91519637Y-106734577D01*
X91552355Y-106690195D01*
X91618347Y-106641622D01*
X91724533Y-106602374D01*
X91847182Y-106604841D01*
X91970919Y-106644134D01*
X92080368Y-106715363D01*
X92080368Y-106715363D01*
G37*
X92080368Y-106715363D02*
X92160153Y-106813635D01*
X92160355Y-106814009D01*
X92186732Y-106915214D01*
X92175008Y-107031298D01*
X92128435Y-107138713D01*
X92112565Y-107160424D01*
X92060930Y-107199674D01*
X91965834Y-107248969D01*
X91838141Y-107303036D01*
X91756494Y-107333412D01*
X91453263Y-107441132D01*
X91685186Y-107558232D01*
X91917108Y-107675333D01*
X91846440Y-107826881D01*
X91155834Y-107504846D01*
X91189951Y-107431681D01*
X91255230Y-107351330D01*
X91376022Y-107271583D01*
X91552685Y-107192233D01*
X91686093Y-107144581D01*
X91820293Y-107094669D01*
X91907161Y-107046485D01*
X91955048Y-106992512D01*
X91972303Y-106925231D01*
X91972216Y-106887010D01*
X91945309Y-106829815D01*
X91885453Y-106793523D01*
X91812993Y-106782307D01*
X91748272Y-106800340D01*
X91717423Y-106834750D01*
X91687790Y-106839041D01*
X91627237Y-106820875D01*
X91604035Y-106810793D01*
X91537109Y-106771876D01*
X91519637Y-106734577D01*
X91552355Y-106690195D01*
X91618347Y-106641622D01*
X91724533Y-106602374D01*
X91847182Y-106604841D01*
X91970919Y-106644134D01*
X92080368Y-106715363D01*
G36*
X95498926Y-109343225D02*
X95614027Y-109396897D01*
X95683767Y-109432125D01*
X95711301Y-109460600D01*
X95706195Y-109498051D01*
X95693347Y-109527303D01*
X95657565Y-109604038D01*
X94966959Y-109282003D01*
X95002740Y-109205268D01*
X95026716Y-109161147D01*
X95054458Y-109146505D01*
X95102855Y-109159582D01*
X95166412Y-109188171D01*
X95294302Y-109247807D01*
X95449356Y-108915293D01*
X95506346Y-108791273D01*
X95552409Y-108687561D01*
X95583388Y-108613778D01*
X95595128Y-108579552D01*
X95594843Y-108578317D01*
X95563734Y-108577710D01*
X95494149Y-108580947D01*
X95436115Y-108584812D01*
X95286954Y-108595770D01*
X95323514Y-108517366D01*
X95352058Y-108472071D01*
X95395278Y-108445603D01*
X95469517Y-108430629D01*
X95530270Y-108424570D01*
X95669452Y-108424753D01*
X95781332Y-108448318D01*
X95796496Y-108454663D01*
X95892525Y-108499150D01*
X95498926Y-109343225D01*
X95498926Y-109343225D01*
G37*
X95498926Y-109343225D02*
X95614027Y-109396897D01*
X95683767Y-109432125D01*
X95711301Y-109460600D01*
X95706195Y-109498051D01*
X95693347Y-109527303D01*
X95657565Y-109604038D01*
X94966959Y-109282003D01*
X95002740Y-109205268D01*
X95026716Y-109161147D01*
X95054458Y-109146505D01*
X95102855Y-109159582D01*
X95166412Y-109188171D01*
X95294302Y-109247807D01*
X95449356Y-108915293D01*
X95506346Y-108791273D01*
X95552409Y-108687561D01*
X95583388Y-108613778D01*
X95595128Y-108579552D01*
X95594843Y-108578317D01*
X95563734Y-108577710D01*
X95494149Y-108580947D01*
X95436115Y-108584812D01*
X95286954Y-108595770D01*
X95323514Y-108517366D01*
X95352058Y-108472071D01*
X95395278Y-108445603D01*
X95469517Y-108430629D01*
X95530270Y-108424570D01*
X95669452Y-108424753D01*
X95781332Y-108448318D01*
X95796496Y-108454663D01*
X95892525Y-108499150D01*
X95498926Y-109343225D01*
G36*
X100102970Y-111490126D02*
X100218071Y-111543798D01*
X100287811Y-111579026D01*
X100315344Y-111607501D01*
X100310239Y-111644952D01*
X100297391Y-111674204D01*
X100261609Y-111750938D01*
X99571002Y-111428903D01*
X99606784Y-111352169D01*
X99630760Y-111308048D01*
X99658502Y-111293406D01*
X99706899Y-111306483D01*
X99770455Y-111335072D01*
X99898345Y-111394708D01*
X100053399Y-111062193D01*
X100110390Y-110938174D01*
X100156452Y-110834462D01*
X100187431Y-110760679D01*
X100199171Y-110726453D01*
X100198886Y-110725218D01*
X100167777Y-110724611D01*
X100098192Y-110727848D01*
X100040159Y-110731713D01*
X99890998Y-110742671D01*
X99927558Y-110664267D01*
X99956102Y-110618972D01*
X99999322Y-110592504D01*
X100073560Y-110577529D01*
X100134314Y-110571470D01*
X100273496Y-110571653D01*
X100385376Y-110595219D01*
X100400539Y-110601564D01*
X100496568Y-110646050D01*
X100102970Y-111490126D01*
X100102970Y-111490126D01*
G37*
X100102970Y-111490126D02*
X100218071Y-111543798D01*
X100287811Y-111579026D01*
X100315344Y-111607501D01*
X100310239Y-111644952D01*
X100297391Y-111674204D01*
X100261609Y-111750938D01*
X99571002Y-111428903D01*
X99606784Y-111352169D01*
X99630760Y-111308048D01*
X99658502Y-111293406D01*
X99706899Y-111306483D01*
X99770455Y-111335072D01*
X99898345Y-111394708D01*
X100053399Y-111062193D01*
X100110390Y-110938174D01*
X100156452Y-110834462D01*
X100187431Y-110760679D01*
X100199171Y-110726453D01*
X100198886Y-110725218D01*
X100167777Y-110724611D01*
X100098192Y-110727848D01*
X100040159Y-110731713D01*
X99890998Y-110742671D01*
X99927558Y-110664267D01*
X99956102Y-110618972D01*
X99999322Y-110592504D01*
X100073560Y-110577529D01*
X100134314Y-110571470D01*
X100273496Y-110571653D01*
X100385376Y-110595219D01*
X100400539Y-110601564D01*
X100496568Y-110646050D01*
X100102970Y-111490126D01*
G36*
X101144774Y-111726809D02*
X101208720Y-111756627D01*
X101250568Y-111786195D01*
X101250916Y-111829097D01*
X101236882Y-111863179D01*
X101204428Y-111914808D01*
X101165817Y-111921228D01*
X101137156Y-111910095D01*
X101093353Y-111896468D01*
X101062760Y-111914269D01*
X101029679Y-111973689D01*
X101025502Y-111982589D01*
X100992503Y-112046929D01*
X100961705Y-112067995D01*
X100911455Y-112053667D01*
X100875481Y-112037192D01*
X100811141Y-112004193D01*
X100790075Y-111973394D01*
X100804403Y-111923144D01*
X100820878Y-111887171D01*
X100868587Y-111784858D01*
X100408182Y-111570168D01*
X100444032Y-111493289D01*
X100482415Y-111444617D01*
X100516195Y-111416569D01*
X100665352Y-111486123D01*
X100684898Y-111504619D01*
X100742201Y-111537561D01*
X100799471Y-111565791D01*
X100940150Y-111631391D01*
X101145926Y-111190103D01*
X100908919Y-111331079D01*
X100807263Y-111392522D01*
X100725985Y-111443493D01*
X100675930Y-111477089D01*
X100665352Y-111486123D01*
X100516195Y-111416569D01*
X100561627Y-111378846D01*
X100685091Y-111293403D01*
X100839624Y-111195872D01*
X101199365Y-110975333D01*
X101321160Y-111031346D01*
X101442955Y-111087358D01*
X101144774Y-111726809D01*
X101144774Y-111726809D01*
G37*
X101144774Y-111726809D02*
X101208720Y-111756627D01*
X101250568Y-111786195D01*
X101250916Y-111829097D01*
X101236882Y-111863179D01*
X101204428Y-111914808D01*
X101165817Y-111921228D01*
X101137156Y-111910095D01*
X101093353Y-111896468D01*
X101062760Y-111914269D01*
X101029679Y-111973689D01*
X101025502Y-111982589D01*
X100992503Y-112046929D01*
X100961705Y-112067995D01*
X100911455Y-112053667D01*
X100875481Y-112037192D01*
X100811141Y-112004193D01*
X100790075Y-111973394D01*
X100804403Y-111923144D01*
X100820878Y-111887171D01*
X100868587Y-111784858D01*
X100408182Y-111570168D01*
X100444032Y-111493289D01*
X100482415Y-111444617D01*
X100516195Y-111416569D01*
X100665352Y-111486123D01*
X100684898Y-111504619D01*
X100742201Y-111537561D01*
X100799471Y-111565791D01*
X100940150Y-111631391D01*
X101145926Y-111190103D01*
X100908919Y-111331079D01*
X100807263Y-111392522D01*
X100725985Y-111443493D01*
X100675930Y-111477089D01*
X100665352Y-111486123D01*
X100516195Y-111416569D01*
X100561627Y-111378846D01*
X100685091Y-111293403D01*
X100839624Y-111195872D01*
X101199365Y-110975333D01*
X101321160Y-111031346D01*
X101442955Y-111087358D01*
X101144774Y-111726809D01*
G36*
X104758169Y-113660881D02*
X104873270Y-113714553D01*
X104943011Y-113749782D01*
X104970545Y-113778257D01*
X104965438Y-113815707D01*
X104952590Y-113844959D01*
X104916808Y-113921693D01*
X104226201Y-113599658D01*
X104261983Y-113522924D01*
X104285959Y-113478803D01*
X104313702Y-113464162D01*
X104362098Y-113477238D01*
X104425655Y-113505827D01*
X104553545Y-113565463D01*
X104708599Y-113232949D01*
X104765590Y-113108929D01*
X104811651Y-113005217D01*
X104842631Y-112931434D01*
X104854370Y-112897208D01*
X104854086Y-112895973D01*
X104822977Y-112895366D01*
X104753393Y-112898604D01*
X104695358Y-112902468D01*
X104546197Y-112913426D01*
X104582757Y-112835022D01*
X104611301Y-112789727D01*
X104654522Y-112763259D01*
X104728760Y-112748285D01*
X104789513Y-112742225D01*
X104928696Y-112742409D01*
X105040575Y-112765974D01*
X105055738Y-112772319D01*
X105151768Y-112816805D01*
X104758169Y-113660881D01*
X104758169Y-113660881D01*
G37*
X104758169Y-113660881D02*
X104873270Y-113714553D01*
X104943011Y-113749782D01*
X104970545Y-113778257D01*
X104965438Y-113815707D01*
X104952590Y-113844959D01*
X104916808Y-113921693D01*
X104226201Y-113599658D01*
X104261983Y-113522924D01*
X104285959Y-113478803D01*
X104313702Y-113464162D01*
X104362098Y-113477238D01*
X104425655Y-113505827D01*
X104553545Y-113565463D01*
X104708599Y-113232949D01*
X104765590Y-113108929D01*
X104811651Y-113005217D01*
X104842631Y-112931434D01*
X104854370Y-112897208D01*
X104854086Y-112895973D01*
X104822977Y-112895366D01*
X104753393Y-112898604D01*
X104695358Y-112902468D01*
X104546197Y-112913426D01*
X104582757Y-112835022D01*
X104611301Y-112789727D01*
X104654522Y-112763259D01*
X104728760Y-112748285D01*
X104789513Y-112742225D01*
X104928696Y-112742409D01*
X105040575Y-112765974D01*
X105055738Y-112772319D01*
X105151768Y-112816805D01*
X104758169Y-113660881D01*
D14*
X92241468Y-54833163D02*
X123442969Y-76680690D01*
X92241468Y-54833163D02*
X88461599Y-60231375D01*
X119663100Y-82078902D02*
X123442969Y-76680690D01*
X119663100Y-82078902D02*
X88461599Y-60231375D01*
X175521276Y-77397067D02*
X206722778Y-55549540D01*
X175521276Y-77397067D02*
X179301145Y-82795279D01*
X210502646Y-60947752D02*
X206722778Y-55549540D01*
X210502646Y-60947752D02*
X179301145Y-82795279D01*
X130470000Y-78960000D02*
X168560000Y-78960000D01*
X130470000Y-78960000D02*
X130470000Y-85550000D01*
X168560000Y-85550000D02*
X168560000Y-78960000D01*
X168560000Y-85550000D02*
X130470000Y-85550000D01*
X108794515Y-108997309D02*
X76457454Y-93918289D01*
X76457454Y-93918289D02*
X75282575Y-96437825D01*
X75282575Y-96437825D02*
X107619637Y-111516845D01*
X107619637Y-111516845D02*
X108794515Y-108997309D01*
X109945526Y-109534034D02*
X111205294Y-110121474D01*
X111205294Y-110121474D02*
X110617855Y-111381241D01*
X221217615Y-94006606D02*
X188880553Y-109085626D01*
X188880553Y-109085626D02*
X190055432Y-111605162D01*
X190055432Y-111605162D02*
X222392493Y-96526142D01*
X222392493Y-96526142D02*
X221217615Y-94006606D01*
X222368626Y-93469881D02*
X223628393Y-92882442D01*
X223628393Y-92882442D02*
X224215833Y-94142210D01*
X165170000Y-114210000D02*
X129490000Y-114210000D01*
X129490000Y-114210000D02*
X129490000Y-116990000D01*
X129490000Y-116990000D02*
X165170000Y-116990000D01*
X165170000Y-116990000D02*
X165170000Y-114210000D01*
X166440000Y-114210000D02*
X167830000Y-114210000D01*
X167830000Y-114210000D02*
X167830000Y-115600000D01*
D13*
G36*
X129599730Y-116921393D02*
X129606227Y-116938471D01*
X129611881Y-116971028D01*
X129616748Y-117022414D01*
X129620886Y-117095978D01*
X129624351Y-117195070D01*
X129627200Y-117323038D01*
X129629490Y-117483234D01*
X129631277Y-117679005D01*
X129632618Y-117913702D01*
X129633571Y-118190674D01*
X129634191Y-118513271D01*
X129634536Y-118884841D01*
X129634662Y-119308735D01*
X129634666Y-119414111D01*
X129634582Y-119850528D01*
X129634293Y-120233851D01*
X129633741Y-120567428D01*
X129632870Y-120854609D01*
X129631623Y-121098744D01*
X129629944Y-121303182D01*
X129627775Y-121471273D01*
X129625060Y-121606366D01*
X129621741Y-121711810D01*
X129617763Y-121790956D01*
X129613069Y-121847152D01*
X129607601Y-121883748D01*
X129601304Y-121904094D01*
X129594119Y-121911538D01*
X129592333Y-121911778D01*
X129584936Y-121906829D01*
X129578439Y-121889751D01*
X129572785Y-121857194D01*
X129567918Y-121805808D01*
X129563780Y-121732244D01*
X129560315Y-121633153D01*
X129557466Y-121505184D01*
X129555176Y-121344989D01*
X129553389Y-121149217D01*
X129552047Y-120914520D01*
X129551095Y-120637548D01*
X129550475Y-120314952D01*
X129550130Y-119943381D01*
X129550004Y-119519487D01*
X129550000Y-119414111D01*
X129550083Y-118977694D01*
X129550373Y-118594372D01*
X129550925Y-118260795D01*
X129551796Y-117973613D01*
X129553042Y-117729478D01*
X129554722Y-117525040D01*
X129556891Y-117356950D01*
X129559606Y-117221857D01*
X129562924Y-117116412D01*
X129566902Y-117037267D01*
X129571597Y-116981071D01*
X129577064Y-116944474D01*
X129583362Y-116924129D01*
X129590547Y-116916684D01*
X129592333Y-116916445D01*
X129599730Y-116921393D01*
X129599730Y-116921393D01*
G37*
X129599730Y-116921393D02*
X129606227Y-116938471D01*
X129611881Y-116971028D01*
X129616748Y-117022414D01*
X129620886Y-117095978D01*
X129624351Y-117195070D01*
X129627200Y-117323038D01*
X129629490Y-117483234D01*
X129631277Y-117679005D01*
X129632618Y-117913702D01*
X129633571Y-118190674D01*
X129634191Y-118513271D01*
X129634536Y-118884841D01*
X129634662Y-119308735D01*
X129634666Y-119414111D01*
X129634582Y-119850528D01*
X129634293Y-120233851D01*
X129633741Y-120567428D01*
X129632870Y-120854609D01*
X129631623Y-121098744D01*
X129629944Y-121303182D01*
X129627775Y-121471273D01*
X129625060Y-121606366D01*
X129621741Y-121711810D01*
X129617763Y-121790956D01*
X129613069Y-121847152D01*
X129607601Y-121883748D01*
X129601304Y-121904094D01*
X129594119Y-121911538D01*
X129592333Y-121911778D01*
X129584936Y-121906829D01*
X129578439Y-121889751D01*
X129572785Y-121857194D01*
X129567918Y-121805808D01*
X129563780Y-121732244D01*
X129560315Y-121633153D01*
X129557466Y-121505184D01*
X129555176Y-121344989D01*
X129553389Y-121149217D01*
X129552047Y-120914520D01*
X129551095Y-120637548D01*
X129550475Y-120314952D01*
X129550130Y-119943381D01*
X129550004Y-119519487D01*
X129550000Y-119414111D01*
X129550083Y-118977694D01*
X129550373Y-118594372D01*
X129550925Y-118260795D01*
X129551796Y-117973613D01*
X129553042Y-117729478D01*
X129554722Y-117525040D01*
X129556891Y-117356950D01*
X129559606Y-117221857D01*
X129562924Y-117116412D01*
X129566902Y-117037267D01*
X129571597Y-116981071D01*
X129577064Y-116944474D01*
X129583362Y-116924129D01*
X129590547Y-116916684D01*
X129592333Y-116916445D01*
X129599730Y-116921393D01*
G36*
X132174666Y-121911778D02*
X131920666Y-121911778D01*
X131920666Y-116916445D01*
X132174666Y-116916445D01*
X132174666Y-121911778D01*
X132174666Y-121911778D01*
G37*
X132174666Y-121911778D02*
X131920666Y-121911778D01*
X131920666Y-116916445D01*
X132174666Y-116916445D01*
X132174666Y-121911778D01*
G36*
X134714666Y-121911778D02*
X134460666Y-121911778D01*
X134460666Y-116916445D01*
X134714666Y-116916445D01*
X134714666Y-121911778D01*
X134714666Y-121911778D01*
G37*
X134714666Y-121911778D02*
X134460666Y-121911778D01*
X134460666Y-116916445D01*
X134714666Y-116916445D01*
X134714666Y-121911778D01*
G36*
X137254666Y-121911778D02*
X137000666Y-121911778D01*
X137000666Y-116916445D01*
X137254666Y-116916445D01*
X137254666Y-121911778D01*
X137254666Y-121911778D01*
G37*
X137254666Y-121911778D02*
X137000666Y-121911778D01*
X137000666Y-116916445D01*
X137254666Y-116916445D01*
X137254666Y-121911778D01*
G36*
X139794666Y-121911778D02*
X139540666Y-121911778D01*
X139540666Y-116916445D01*
X139794666Y-116916445D01*
X139794666Y-121911778D01*
X139794666Y-121911778D01*
G37*
X139794666Y-121911778D02*
X139540666Y-121911778D01*
X139540666Y-116916445D01*
X139794666Y-116916445D01*
X139794666Y-121911778D01*
G36*
X142334666Y-121911778D02*
X142080666Y-121911778D01*
X142080666Y-116916445D01*
X142334666Y-116916445D01*
X142334666Y-121911778D01*
X142334666Y-121911778D01*
G37*
X142334666Y-121911778D02*
X142080666Y-121911778D01*
X142080666Y-116916445D01*
X142334666Y-116916445D01*
X142334666Y-121911778D01*
G36*
X144874666Y-121911778D02*
X144620666Y-121911778D01*
X144620666Y-116916445D01*
X144874666Y-116916445D01*
X144874666Y-121911778D01*
X144874666Y-121911778D01*
G37*
X144874666Y-121911778D02*
X144620666Y-121911778D01*
X144620666Y-116916445D01*
X144874666Y-116916445D01*
X144874666Y-121911778D01*
G36*
X147442888Y-121911778D02*
X147160666Y-121911778D01*
X147160666Y-116916445D01*
X147442888Y-116916445D01*
X147442888Y-121911778D01*
X147442888Y-121911778D01*
G37*
X147442888Y-121911778D02*
X147160666Y-121911778D01*
X147160666Y-116916445D01*
X147442888Y-116916445D01*
X147442888Y-121911778D01*
G36*
X149982888Y-121911778D02*
X149700666Y-121911778D01*
X149700666Y-116916445D01*
X149982888Y-116916445D01*
X149982888Y-121911778D01*
X149982888Y-121911778D01*
G37*
X149982888Y-121911778D02*
X149700666Y-121911778D01*
X149700666Y-116916445D01*
X149982888Y-116916445D01*
X149982888Y-121911778D01*
G36*
X152522888Y-121911778D02*
X152240666Y-121911778D01*
X152240666Y-116916445D01*
X152522888Y-116916445D01*
X152522888Y-121911778D01*
X152522888Y-121911778D01*
G37*
X152522888Y-121911778D02*
X152240666Y-121911778D01*
X152240666Y-116916445D01*
X152522888Y-116916445D01*
X152522888Y-121911778D01*
G36*
X155062888Y-121911778D02*
X154808888Y-121911778D01*
X154808888Y-116916445D01*
X155062888Y-116916445D01*
X155062888Y-121911778D01*
X155062888Y-121911778D01*
G37*
X155062888Y-121911778D02*
X154808888Y-121911778D01*
X154808888Y-116916445D01*
X155062888Y-116916445D01*
X155062888Y-121911778D01*
G36*
X157602888Y-121911778D02*
X157348888Y-121911778D01*
X157348888Y-116916445D01*
X157602888Y-116916445D01*
X157602888Y-121911778D01*
X157602888Y-121911778D01*
G37*
X157602888Y-121911778D02*
X157348888Y-121911778D01*
X157348888Y-116916445D01*
X157602888Y-116916445D01*
X157602888Y-121911778D01*
G36*
X160171111Y-121911778D02*
X159888888Y-121911778D01*
X159888888Y-116916445D01*
X160171111Y-116916445D01*
X160171111Y-121911778D01*
X160171111Y-121911778D01*
G37*
X160171111Y-121911778D02*
X159888888Y-121911778D01*
X159888888Y-116916445D01*
X160171111Y-116916445D01*
X160171111Y-121911778D01*
G36*
X162711111Y-121911778D02*
X162457111Y-121911778D01*
X162457111Y-116916445D01*
X162711111Y-116916445D01*
X162711111Y-121911778D01*
X162711111Y-121911778D01*
G37*
X162711111Y-121911778D02*
X162457111Y-121911778D01*
X162457111Y-116916445D01*
X162711111Y-116916445D01*
X162711111Y-121911778D01*
G36*
X165279333Y-121911778D02*
X165025333Y-121911778D01*
X165025333Y-116916445D01*
X165279333Y-116916445D01*
X165279333Y-121911778D01*
X165279333Y-121911778D01*
G37*
X165279333Y-121911778D02*
X165025333Y-121911778D01*
X165025333Y-116916445D01*
X165279333Y-116916445D01*
X165279333Y-121911778D01*
G36*
X167678222Y-121911778D02*
X167508888Y-121911778D01*
X167508888Y-116916445D01*
X167678222Y-116916445D01*
X167678222Y-121911778D01*
X167678222Y-121911778D01*
G37*
X167678222Y-121911778D02*
X167508888Y-121911778D01*
X167508888Y-116916445D01*
X167678222Y-116916445D01*
X167678222Y-121911778D01*
G36*
X133423780Y-119111077D02*
X133484011Y-119132362D01*
X133576122Y-119191712D01*
X133641723Y-119274189D01*
X133684033Y-119387966D01*
X133706272Y-119541215D01*
X133711800Y-119710445D01*
X133710048Y-119852670D01*
X133703254Y-119953660D01*
X133689109Y-120028557D01*
X133665307Y-120092505D01*
X133648426Y-120126310D01*
X133594378Y-120209559D01*
X133533859Y-120276752D01*
X133513254Y-120292884D01*
X133413429Y-120333035D01*
X133287742Y-120350004D01*
X133162514Y-120342131D01*
X133086659Y-120319810D01*
X133023682Y-120275050D01*
X132962409Y-120207243D01*
X132919194Y-120136888D01*
X132908444Y-120096453D01*
X132933353Y-120085146D01*
X132995878Y-120070952D01*
X133025377Y-120065849D01*
X133108289Y-120058744D01*
X133161767Y-120075009D01*
X133197320Y-120106196D01*
X133267009Y-120150253D01*
X133338631Y-120144535D01*
X133404094Y-120094813D01*
X133455304Y-120006858D01*
X133482047Y-119903155D01*
X133496845Y-119799532D01*
X133398918Y-119857310D01*
X133285235Y-119897166D01*
X133162436Y-119897419D01*
X133052206Y-119859455D01*
X133015247Y-119832781D01*
X132936376Y-119729486D01*
X132893185Y-119601974D01*
X132888092Y-119515127D01*
X133132533Y-119515127D01*
X133151402Y-119608265D01*
X133196344Y-119685710D01*
X133262947Y-119732016D01*
X133303555Y-119738667D01*
X133364993Y-119719512D01*
X133416444Y-119682222D01*
X133462589Y-119599609D01*
X133469360Y-119497201D01*
X133436890Y-119395518D01*
X133414396Y-119361473D01*
X133341807Y-119299969D01*
X133266001Y-119294656D01*
X133190666Y-119343556D01*
X133144150Y-119421741D01*
X133132533Y-119515127D01*
X132888092Y-119515127D01*
X132885151Y-119464983D01*
X132911750Y-119333248D01*
X132972458Y-119221507D01*
X133039140Y-119160284D01*
X133153404Y-119113092D01*
X133290293Y-119096145D01*
X133423780Y-119111077D01*
X133423780Y-119111077D01*
G37*
X133423780Y-119111077D02*
X133484011Y-119132362D01*
X133576122Y-119191712D01*
X133641723Y-119274189D01*
X133684033Y-119387966D01*
X133706272Y-119541215D01*
X133711800Y-119710445D01*
X133710048Y-119852670D01*
X133703254Y-119953660D01*
X133689109Y-120028557D01*
X133665307Y-120092505D01*
X133648426Y-120126310D01*
X133594378Y-120209559D01*
X133533859Y-120276752D01*
X133513254Y-120292884D01*
X133413429Y-120333035D01*
X133287742Y-120350004D01*
X133162514Y-120342131D01*
X133086659Y-120319810D01*
X133023682Y-120275050D01*
X132962409Y-120207243D01*
X132919194Y-120136888D01*
X132908444Y-120096453D01*
X132933353Y-120085146D01*
X132995878Y-120070952D01*
X133025377Y-120065849D01*
X133108289Y-120058744D01*
X133161767Y-120075009D01*
X133197320Y-120106196D01*
X133267009Y-120150253D01*
X133338631Y-120144535D01*
X133404094Y-120094813D01*
X133455304Y-120006858D01*
X133482047Y-119903155D01*
X133496845Y-119799532D01*
X133398918Y-119857310D01*
X133285235Y-119897166D01*
X133162436Y-119897419D01*
X133052206Y-119859455D01*
X133015247Y-119832781D01*
X132936376Y-119729486D01*
X132893185Y-119601974D01*
X132888092Y-119515127D01*
X133132533Y-119515127D01*
X133151402Y-119608265D01*
X133196344Y-119685710D01*
X133262947Y-119732016D01*
X133303555Y-119738667D01*
X133364993Y-119719512D01*
X133416444Y-119682222D01*
X133462589Y-119599609D01*
X133469360Y-119497201D01*
X133436890Y-119395518D01*
X133414396Y-119361473D01*
X133341807Y-119299969D01*
X133266001Y-119294656D01*
X133190666Y-119343556D01*
X133144150Y-119421741D01*
X133132533Y-119515127D01*
X132888092Y-119515127D01*
X132885151Y-119464983D01*
X132911750Y-119333248D01*
X132972458Y-119221507D01*
X133039140Y-119160284D01*
X133153404Y-119113092D01*
X133290293Y-119096145D01*
X133423780Y-119111077D01*
G36*
X141012932Y-119098488D02*
X141136957Y-119137875D01*
X141236914Y-119211843D01*
X141272160Y-119259425D01*
X141313587Y-119376990D01*
X141307291Y-119494891D01*
X141256935Y-119598701D01*
X141167105Y-119673515D01*
X141082977Y-119717020D01*
X141170469Y-119753807D01*
X141274545Y-119823607D01*
X141331486Y-119923653D01*
X141339057Y-120049988D01*
X141338805Y-120051897D01*
X141316075Y-120141015D01*
X141279635Y-120214478D01*
X141271669Y-120224530D01*
X141165849Y-120303684D01*
X141029313Y-120347989D01*
X140877326Y-120355338D01*
X140725152Y-120323620D01*
X140681525Y-120306072D01*
X140574767Y-120233891D01*
X140516836Y-120149177D01*
X140489003Y-120080852D01*
X140479434Y-120036490D01*
X140481368Y-120030335D01*
X140521706Y-120012822D01*
X140587528Y-120002028D01*
X140657523Y-119999101D01*
X140710378Y-120005186D01*
X140726000Y-120017173D01*
X140750202Y-120072150D01*
X140809282Y-120123855D01*
X140882951Y-120157075D01*
X140919181Y-120162000D01*
X141009641Y-120137038D01*
X141071835Y-120071005D01*
X141092888Y-119984989D01*
X141067381Y-119906703D01*
X140998568Y-119850230D01*
X140898016Y-119824148D01*
X140874942Y-119823333D01*
X140812898Y-119818519D01*
X140787449Y-119792577D01*
X140782447Y-119728261D01*
X140782444Y-119724556D01*
X140787375Y-119658049D01*
X140811134Y-119630781D01*
X140860831Y-119625778D01*
X140961802Y-119604802D01*
X141033668Y-119548560D01*
X141064329Y-119467080D01*
X141064666Y-119456860D01*
X141043028Y-119365606D01*
X140987868Y-119307781D01*
X140913816Y-119288621D01*
X140835501Y-119313361D01*
X140787486Y-119357667D01*
X140720872Y-119412748D01*
X140631881Y-119428222D01*
X140547673Y-119418415D01*
X140513435Y-119385164D01*
X140525946Y-119322722D01*
X140548426Y-119279280D01*
X140632585Y-119184078D01*
X140747131Y-119121963D01*
X140878452Y-119093308D01*
X141012932Y-119098488D01*
X141012932Y-119098488D01*
G37*
X141012932Y-119098488D02*
X141136957Y-119137875D01*
X141236914Y-119211843D01*
X141272160Y-119259425D01*
X141313587Y-119376990D01*
X141307291Y-119494891D01*
X141256935Y-119598701D01*
X141167105Y-119673515D01*
X141082977Y-119717020D01*
X141170469Y-119753807D01*
X141274545Y-119823607D01*
X141331486Y-119923653D01*
X141339057Y-120049988D01*
X141338805Y-120051897D01*
X141316075Y-120141015D01*
X141279635Y-120214478D01*
X141271669Y-120224530D01*
X141165849Y-120303684D01*
X141029313Y-120347989D01*
X140877326Y-120355338D01*
X140725152Y-120323620D01*
X140681525Y-120306072D01*
X140574767Y-120233891D01*
X140516836Y-120149177D01*
X140489003Y-120080852D01*
X140479434Y-120036490D01*
X140481368Y-120030335D01*
X140521706Y-120012822D01*
X140587528Y-120002028D01*
X140657523Y-119999101D01*
X140710378Y-120005186D01*
X140726000Y-120017173D01*
X140750202Y-120072150D01*
X140809282Y-120123855D01*
X140882951Y-120157075D01*
X140919181Y-120162000D01*
X141009641Y-120137038D01*
X141071835Y-120071005D01*
X141092888Y-119984989D01*
X141067381Y-119906703D01*
X140998568Y-119850230D01*
X140898016Y-119824148D01*
X140874942Y-119823333D01*
X140812898Y-119818519D01*
X140787449Y-119792577D01*
X140782447Y-119728261D01*
X140782444Y-119724556D01*
X140787375Y-119658049D01*
X140811134Y-119630781D01*
X140860831Y-119625778D01*
X140961802Y-119604802D01*
X141033668Y-119548560D01*
X141064329Y-119467080D01*
X141064666Y-119456860D01*
X141043028Y-119365606D01*
X140987868Y-119307781D01*
X140913816Y-119288621D01*
X140835501Y-119313361D01*
X140787486Y-119357667D01*
X140720872Y-119412748D01*
X140631881Y-119428222D01*
X140547673Y-119418415D01*
X140513435Y-119385164D01*
X140525946Y-119322722D01*
X140548426Y-119279280D01*
X140632585Y-119184078D01*
X140747131Y-119121963D01*
X140878452Y-119093308D01*
X141012932Y-119098488D01*
G36*
X151450444Y-119287111D02*
X150942444Y-119287111D01*
X150942444Y-119441635D01*
X150943558Y-119529680D01*
X150951247Y-119572720D01*
X150972032Y-119582196D01*
X151012434Y-119569548D01*
X151014837Y-119568635D01*
X151149878Y-119543202D01*
X151273729Y-119567102D01*
X151378279Y-119633307D01*
X151455416Y-119734791D01*
X151497029Y-119864525D01*
X151498852Y-119987984D01*
X151456727Y-120132767D01*
X151371079Y-120247268D01*
X151249672Y-120324767D01*
X151100275Y-120358547D01*
X151069444Y-120359468D01*
X150966216Y-120346176D01*
X150866351Y-120313806D01*
X150858737Y-120310123D01*
X150798205Y-120267266D01*
X150738151Y-120205970D01*
X150689761Y-120140823D01*
X150664219Y-120086407D01*
X150667462Y-120060686D01*
X150702088Y-120047358D01*
X150769347Y-120032549D01*
X150783804Y-120030088D01*
X150859541Y-120025323D01*
X150910073Y-120049428D01*
X150944571Y-120087739D01*
X151018478Y-120146682D01*
X151098746Y-120158002D01*
X151172870Y-120127273D01*
X151228341Y-120060070D01*
X151252652Y-119961967D01*
X151252888Y-119950333D01*
X151233312Y-119858659D01*
X151183104Y-119787554D01*
X151115048Y-119744690D01*
X151041928Y-119737735D01*
X150976527Y-119774361D01*
X150970666Y-119781000D01*
X150914723Y-119810930D01*
X150819072Y-119823224D01*
X150807907Y-119823333D01*
X150680282Y-119823333D01*
X150698273Y-119632833D01*
X150708156Y-119501890D01*
X150714776Y-119363929D01*
X150716466Y-119280056D01*
X150716666Y-119117778D01*
X151450444Y-119117778D01*
X151450444Y-119287111D01*
X151450444Y-119287111D01*
G37*
X151450444Y-119287111D02*
X150942444Y-119287111D01*
X150942444Y-119441635D01*
X150943558Y-119529680D01*
X150951247Y-119572720D01*
X150972032Y-119582196D01*
X151012434Y-119569548D01*
X151014837Y-119568635D01*
X151149878Y-119543202D01*
X151273729Y-119567102D01*
X151378279Y-119633307D01*
X151455416Y-119734791D01*
X151497029Y-119864525D01*
X151498852Y-119987984D01*
X151456727Y-120132767D01*
X151371079Y-120247268D01*
X151249672Y-120324767D01*
X151100275Y-120358547D01*
X151069444Y-120359468D01*
X150966216Y-120346176D01*
X150866351Y-120313806D01*
X150858737Y-120310123D01*
X150798205Y-120267266D01*
X150738151Y-120205970D01*
X150689761Y-120140823D01*
X150664219Y-120086407D01*
X150667462Y-120060686D01*
X150702088Y-120047358D01*
X150769347Y-120032549D01*
X150783804Y-120030088D01*
X150859541Y-120025323D01*
X150910073Y-120049428D01*
X150944571Y-120087739D01*
X151018478Y-120146682D01*
X151098746Y-120158002D01*
X151172870Y-120127273D01*
X151228341Y-120060070D01*
X151252652Y-119961967D01*
X151252888Y-119950333D01*
X151233312Y-119858659D01*
X151183104Y-119787554D01*
X151115048Y-119744690D01*
X151041928Y-119737735D01*
X150976527Y-119774361D01*
X150970666Y-119781000D01*
X150914723Y-119810930D01*
X150819072Y-119823224D01*
X150807907Y-119823333D01*
X150680282Y-119823333D01*
X150698273Y-119632833D01*
X150708156Y-119501890D01*
X150714776Y-119363929D01*
X150716466Y-119280056D01*
X150716666Y-119117778D01*
X151450444Y-119117778D01*
X151450444Y-119287111D01*
G36*
X156300907Y-119099898D02*
X156424727Y-119141653D01*
X156516702Y-119217781D01*
X156532523Y-119240632D01*
X156568097Y-119303270D01*
X156586205Y-119343557D01*
X156586783Y-119347004D01*
X156561911Y-119361800D01*
X156499361Y-119377993D01*
X156469955Y-119383262D01*
X156387043Y-119390367D01*
X156333566Y-119374102D01*
X156298012Y-119342915D01*
X156228323Y-119298858D01*
X156156701Y-119304576D01*
X156091238Y-119354298D01*
X156040028Y-119442253D01*
X156013285Y-119545956D01*
X155998488Y-119649579D01*
X156096414Y-119591801D01*
X156210097Y-119551945D01*
X156332896Y-119551692D01*
X156443126Y-119589656D01*
X156480085Y-119616331D01*
X156559644Y-119720169D01*
X156601767Y-119846690D01*
X156607839Y-119982179D01*
X156579246Y-120112920D01*
X156517371Y-120225197D01*
X156423600Y-120305294D01*
X156409814Y-120312308D01*
X156265471Y-120354597D01*
X156121987Y-120349414D01*
X155994975Y-120297370D01*
X155992866Y-120295960D01*
X155903222Y-120223449D01*
X155841950Y-120140061D01*
X155804495Y-120034035D01*
X155786302Y-119893607D01*
X155786066Y-119884704D01*
X156028305Y-119884704D01*
X156031879Y-119981948D01*
X156071519Y-120074840D01*
X156080937Y-120087638D01*
X156153525Y-120149142D01*
X156229332Y-120154455D01*
X156304666Y-120105556D01*
X156351183Y-120027370D01*
X156362800Y-119933985D01*
X156343931Y-119840846D01*
X156298988Y-119763401D01*
X156232386Y-119717095D01*
X156191777Y-119710445D01*
X156112473Y-119734593D01*
X156056576Y-119797466D01*
X156028305Y-119884704D01*
X155786066Y-119884704D01*
X155782555Y-119752778D01*
X155794411Y-119534734D01*
X155831362Y-119364620D01*
X155895483Y-119238830D01*
X155988846Y-119153756D01*
X156113527Y-119105792D01*
X156159189Y-119097851D01*
X156300907Y-119099898D01*
X156300907Y-119099898D01*
G37*
X156300907Y-119099898D02*
X156424727Y-119141653D01*
X156516702Y-119217781D01*
X156532523Y-119240632D01*
X156568097Y-119303270D01*
X156586205Y-119343557D01*
X156586783Y-119347004D01*
X156561911Y-119361800D01*
X156499361Y-119377993D01*
X156469955Y-119383262D01*
X156387043Y-119390367D01*
X156333566Y-119374102D01*
X156298012Y-119342915D01*
X156228323Y-119298858D01*
X156156701Y-119304576D01*
X156091238Y-119354298D01*
X156040028Y-119442253D01*
X156013285Y-119545956D01*
X155998488Y-119649579D01*
X156096414Y-119591801D01*
X156210097Y-119551945D01*
X156332896Y-119551692D01*
X156443126Y-119589656D01*
X156480085Y-119616331D01*
X156559644Y-119720169D01*
X156601767Y-119846690D01*
X156607839Y-119982179D01*
X156579246Y-120112920D01*
X156517371Y-120225197D01*
X156423600Y-120305294D01*
X156409814Y-120312308D01*
X156265471Y-120354597D01*
X156121987Y-120349414D01*
X155994975Y-120297370D01*
X155992866Y-120295960D01*
X155903222Y-120223449D01*
X155841950Y-120140061D01*
X155804495Y-120034035D01*
X155786302Y-119893607D01*
X155786066Y-119884704D01*
X156028305Y-119884704D01*
X156031879Y-119981948D01*
X156071519Y-120074840D01*
X156080937Y-120087638D01*
X156153525Y-120149142D01*
X156229332Y-120154455D01*
X156304666Y-120105556D01*
X156351183Y-120027370D01*
X156362800Y-119933985D01*
X156343931Y-119840846D01*
X156298988Y-119763401D01*
X156232386Y-119717095D01*
X156191777Y-119710445D01*
X156112473Y-119734593D01*
X156056576Y-119797466D01*
X156028305Y-119884704D01*
X155786066Y-119884704D01*
X155782555Y-119752778D01*
X155794411Y-119534734D01*
X155831362Y-119364620D01*
X155895483Y-119238830D01*
X155988846Y-119153756D01*
X156113527Y-119105792D01*
X156159189Y-119097851D01*
X156300907Y-119099898D01*
G36*
X166522719Y-119109372D02*
X166638678Y-119163178D01*
X166722800Y-119242511D01*
X166770010Y-119338909D01*
X166775232Y-119443907D01*
X166733392Y-119549044D01*
X166688454Y-119603887D01*
X166636421Y-119662826D01*
X166625355Y-119698289D01*
X166639066Y-119714173D01*
X166684319Y-119735732D01*
X166696775Y-119738235D01*
X166727805Y-119763438D01*
X166760973Y-119825249D01*
X166788518Y-119904708D01*
X166802679Y-119982851D01*
X166803227Y-119998321D01*
X166777904Y-120119015D01*
X166710930Y-120228764D01*
X166615396Y-120307706D01*
X166591955Y-120318921D01*
X166454578Y-120352542D01*
X166302984Y-120352777D01*
X166166517Y-120319709D01*
X166161833Y-120317714D01*
X166066048Y-120248583D01*
X165993781Y-120144648D01*
X165958326Y-120026614D01*
X165956772Y-119998321D01*
X165959419Y-119978556D01*
X166210666Y-119978556D01*
X166230824Y-120083904D01*
X166285714Y-120157773D01*
X166366963Y-120189696D01*
X166380000Y-120190222D01*
X166466566Y-120165367D01*
X166505399Y-120127498D01*
X166545029Y-120034492D01*
X166546761Y-119937319D01*
X166515679Y-119850595D01*
X166456865Y-119788936D01*
X166380000Y-119766889D01*
X166295721Y-119792086D01*
X166236625Y-119860699D01*
X166211087Y-119962260D01*
X166210666Y-119978556D01*
X165959419Y-119978556D01*
X165966849Y-119923088D01*
X165992058Y-119842272D01*
X166024637Y-119774835D01*
X166056826Y-119739737D01*
X166063224Y-119738235D01*
X166102883Y-119724389D01*
X166120933Y-119714173D01*
X166135302Y-119689005D01*
X166111764Y-119647198D01*
X166071545Y-119603887D01*
X166001642Y-119502284D01*
X165987652Y-119428222D01*
X166238888Y-119428222D01*
X166259941Y-119516147D01*
X166314455Y-119577648D01*
X166380000Y-119597556D01*
X166442102Y-119578468D01*
X166476761Y-119553206D01*
X166516083Y-119481824D01*
X166517919Y-119399366D01*
X166488046Y-119323402D01*
X166432241Y-119271499D01*
X166380000Y-119258889D01*
X166306729Y-119284152D01*
X166255478Y-119349569D01*
X166238888Y-119428222D01*
X165987652Y-119428222D01*
X165981595Y-119396163D01*
X166006329Y-119293985D01*
X166070768Y-119204215D01*
X166169836Y-119135315D01*
X166298458Y-119095748D01*
X166380000Y-119089556D01*
X166522719Y-119109372D01*
X166522719Y-119109372D01*
G37*
X166522719Y-119109372D02*
X166638678Y-119163178D01*
X166722800Y-119242511D01*
X166770010Y-119338909D01*
X166775232Y-119443907D01*
X166733392Y-119549044D01*
X166688454Y-119603887D01*
X166636421Y-119662826D01*
X166625355Y-119698289D01*
X166639066Y-119714173D01*
X166684319Y-119735732D01*
X166696775Y-119738235D01*
X166727805Y-119763438D01*
X166760973Y-119825249D01*
X166788518Y-119904708D01*
X166802679Y-119982851D01*
X166803227Y-119998321D01*
X166777904Y-120119015D01*
X166710930Y-120228764D01*
X166615396Y-120307706D01*
X166591955Y-120318921D01*
X166454578Y-120352542D01*
X166302984Y-120352777D01*
X166166517Y-120319709D01*
X166161833Y-120317714D01*
X166066048Y-120248583D01*
X165993781Y-120144648D01*
X165958326Y-120026614D01*
X165956772Y-119998321D01*
X165959419Y-119978556D01*
X166210666Y-119978556D01*
X166230824Y-120083904D01*
X166285714Y-120157773D01*
X166366963Y-120189696D01*
X166380000Y-120190222D01*
X166466566Y-120165367D01*
X166505399Y-120127498D01*
X166545029Y-120034492D01*
X166546761Y-119937319D01*
X166515679Y-119850595D01*
X166456865Y-119788936D01*
X166380000Y-119766889D01*
X166295721Y-119792086D01*
X166236625Y-119860699D01*
X166211087Y-119962260D01*
X166210666Y-119978556D01*
X165959419Y-119978556D01*
X165966849Y-119923088D01*
X165992058Y-119842272D01*
X166024637Y-119774835D01*
X166056826Y-119739737D01*
X166063224Y-119738235D01*
X166102883Y-119724389D01*
X166120933Y-119714173D01*
X166135302Y-119689005D01*
X166111764Y-119647198D01*
X166071545Y-119603887D01*
X166001642Y-119502284D01*
X165987652Y-119428222D01*
X166238888Y-119428222D01*
X166259941Y-119516147D01*
X166314455Y-119577648D01*
X166380000Y-119597556D01*
X166442102Y-119578468D01*
X166476761Y-119553206D01*
X166516083Y-119481824D01*
X166517919Y-119399366D01*
X166488046Y-119323402D01*
X166432241Y-119271499D01*
X166380000Y-119258889D01*
X166306729Y-119284152D01*
X166255478Y-119349569D01*
X166238888Y-119428222D01*
X165987652Y-119428222D01*
X165981595Y-119396163D01*
X166006329Y-119293985D01*
X166070768Y-119204215D01*
X166169836Y-119135315D01*
X166298458Y-119095748D01*
X166380000Y-119089556D01*
X166522719Y-119109372D01*
G36*
X130932888Y-120162000D02*
X131074000Y-120162000D01*
X131157534Y-120163850D01*
X131199189Y-120175223D01*
X131213526Y-120204856D01*
X131215111Y-120246667D01*
X131215111Y-120331333D01*
X130368444Y-120331333D01*
X130368444Y-120246667D01*
X130371050Y-120198264D01*
X130388132Y-120173071D01*
X130433582Y-120163509D01*
X130521292Y-120162000D01*
X130678888Y-120162000D01*
X130678888Y-119752778D01*
X130677464Y-119608095D01*
X130673545Y-119485876D01*
X130667664Y-119396042D01*
X130660352Y-119348515D01*
X130656946Y-119343556D01*
X130618704Y-119357947D01*
X130579335Y-119381561D01*
X130514309Y-119424982D01*
X130446055Y-119469474D01*
X130368444Y-119519381D01*
X130368691Y-119424413D01*
X130373990Y-119370167D01*
X130396691Y-119326911D01*
X130447502Y-119281577D01*
X130533226Y-119223611D01*
X130648317Y-119157657D01*
X130742569Y-119124867D01*
X130815201Y-119117778D01*
X130932888Y-119117778D01*
X130932888Y-120162000D01*
X130932888Y-120162000D01*
G37*
X130932888Y-120162000D02*
X131074000Y-120162000D01*
X131157534Y-120163850D01*
X131199189Y-120175223D01*
X131213526Y-120204856D01*
X131215111Y-120246667D01*
X131215111Y-120331333D01*
X130368444Y-120331333D01*
X130368444Y-120246667D01*
X130371050Y-120198264D01*
X130388132Y-120173071D01*
X130433582Y-120163509D01*
X130521292Y-120162000D01*
X130678888Y-120162000D01*
X130678888Y-119752778D01*
X130677464Y-119608095D01*
X130673545Y-119485876D01*
X130667664Y-119396042D01*
X130660352Y-119348515D01*
X130656946Y-119343556D01*
X130618704Y-119357947D01*
X130579335Y-119381561D01*
X130514309Y-119424982D01*
X130446055Y-119469474D01*
X130368444Y-119519381D01*
X130368691Y-119424413D01*
X130373990Y-119370167D01*
X130396691Y-119326911D01*
X130447502Y-119281577D01*
X130533226Y-119223611D01*
X130648317Y-119157657D01*
X130742569Y-119124867D01*
X130815201Y-119117778D01*
X130932888Y-119117778D01*
X130932888Y-120162000D01*
G36*
X136016972Y-119125931D02*
X136038365Y-119134083D01*
X136143568Y-119204737D01*
X136213138Y-119311815D01*
X136238662Y-119442293D01*
X136238666Y-119444119D01*
X136214441Y-119550238D01*
X136146642Y-119669945D01*
X136042586Y-119792411D01*
X135943721Y-119880695D01*
X135857730Y-119953197D01*
X135785503Y-120021506D01*
X135743107Y-120070278D01*
X135701143Y-120133778D01*
X136266888Y-120133778D01*
X136266888Y-120331333D01*
X135420222Y-120331333D01*
X135420222Y-120238835D01*
X135424591Y-120183452D01*
X135441436Y-120129576D01*
X135476358Y-120069110D01*
X135534963Y-119993961D01*
X135622852Y-119896032D01*
X135745630Y-119767229D01*
X135749268Y-119763468D01*
X135862002Y-119642627D01*
X135935883Y-119552430D01*
X135975203Y-119487128D01*
X135984666Y-119447983D01*
X135963151Y-119360835D01*
X135908902Y-119306084D01*
X135837366Y-119287998D01*
X135763990Y-119310846D01*
X135708187Y-119371599D01*
X135669208Y-119426010D01*
X135620292Y-119450459D01*
X135538570Y-119456263D01*
X135537107Y-119456266D01*
X135461269Y-119454295D01*
X135428772Y-119441584D01*
X135426521Y-119408373D01*
X135433185Y-119378833D01*
X135490806Y-119249159D01*
X135586116Y-119155748D01*
X135710993Y-119101883D01*
X135857319Y-119090850D01*
X136016972Y-119125931D01*
X136016972Y-119125931D01*
G37*
X136016972Y-119125931D02*
X136038365Y-119134083D01*
X136143568Y-119204737D01*
X136213138Y-119311815D01*
X136238662Y-119442293D01*
X136238666Y-119444119D01*
X136214441Y-119550238D01*
X136146642Y-119669945D01*
X136042586Y-119792411D01*
X135943721Y-119880695D01*
X135857730Y-119953197D01*
X135785503Y-120021506D01*
X135743107Y-120070278D01*
X135701143Y-120133778D01*
X136266888Y-120133778D01*
X136266888Y-120331333D01*
X135420222Y-120331333D01*
X135420222Y-120238835D01*
X135424591Y-120183452D01*
X135441436Y-120129576D01*
X135476358Y-120069110D01*
X135534963Y-119993961D01*
X135622852Y-119896032D01*
X135745630Y-119767229D01*
X135749268Y-119763468D01*
X135862002Y-119642627D01*
X135935883Y-119552430D01*
X135975203Y-119487128D01*
X135984666Y-119447983D01*
X135963151Y-119360835D01*
X135908902Y-119306084D01*
X135837366Y-119287998D01*
X135763990Y-119310846D01*
X135708187Y-119371599D01*
X135669208Y-119426010D01*
X135620292Y-119450459D01*
X135538570Y-119456263D01*
X135537107Y-119456266D01*
X135461269Y-119454295D01*
X135428772Y-119441584D01*
X135426521Y-119408373D01*
X135433185Y-119378833D01*
X135490806Y-119249159D01*
X135586116Y-119155748D01*
X135710993Y-119101883D01*
X135857319Y-119090850D01*
X136016972Y-119125931D01*
G36*
X146342222Y-119908000D02*
X146426888Y-119908000D01*
X146486858Y-119914993D01*
X146508961Y-119947980D01*
X146511555Y-119992667D01*
X146504562Y-120052636D01*
X146471575Y-120074740D01*
X146426888Y-120077333D01*
X146374826Y-120081015D01*
X146350167Y-120102272D01*
X146342700Y-120156421D01*
X146342222Y-120204333D01*
X146342222Y-120331333D01*
X146088222Y-120331333D01*
X146088222Y-120077333D01*
X145552000Y-120077333D01*
X145552000Y-119992124D01*
X145566990Y-119930131D01*
X145577155Y-119908000D01*
X145749168Y-119908000D01*
X146088222Y-119908000D01*
X146087364Y-119632833D01*
X146085788Y-119507515D01*
X146081358Y-119432125D01*
X146073096Y-119400178D01*
X146060021Y-119405191D01*
X146054335Y-119414111D01*
X146025266Y-119462889D01*
X145975117Y-119544934D01*
X145912803Y-119645702D01*
X145885667Y-119689278D01*
X145749168Y-119908000D01*
X145577155Y-119908000D01*
X145612775Y-119830450D01*
X145690571Y-119690716D01*
X145798944Y-119512796D01*
X146045888Y-119118678D01*
X146342222Y-119117778D01*
X146342222Y-119908000D01*
X146342222Y-119908000D01*
G37*
X146342222Y-119908000D02*
X146426888Y-119908000D01*
X146486858Y-119914993D01*
X146508961Y-119947980D01*
X146511555Y-119992667D01*
X146504562Y-120052636D01*
X146471575Y-120074740D01*
X146426888Y-120077333D01*
X146374826Y-120081015D01*
X146350167Y-120102272D01*
X146342700Y-120156421D01*
X146342222Y-120204333D01*
X146342222Y-120331333D01*
X146088222Y-120331333D01*
X146088222Y-120077333D01*
X145552000Y-120077333D01*
X145552000Y-119992124D01*
X145566990Y-119930131D01*
X145577155Y-119908000D01*
X145749168Y-119908000D01*
X146088222Y-119908000D01*
X146087364Y-119632833D01*
X146085788Y-119507515D01*
X146081358Y-119432125D01*
X146073096Y-119400178D01*
X146060021Y-119405191D01*
X146054335Y-119414111D01*
X146025266Y-119462889D01*
X145975117Y-119544934D01*
X145912803Y-119645702D01*
X145885667Y-119689278D01*
X145749168Y-119908000D01*
X145577155Y-119908000D01*
X145612775Y-119830450D01*
X145690571Y-119690716D01*
X145798944Y-119512796D01*
X146045888Y-119118678D01*
X146342222Y-119117778D01*
X146342222Y-119908000D01*
G36*
X161695111Y-119213844D02*
X161679083Y-119298811D01*
X161635692Y-119409021D01*
X161599249Y-119479508D01*
X161489385Y-119695188D01*
X161405155Y-119904955D01*
X161351903Y-120094584D01*
X161339169Y-120172064D01*
X161320450Y-120331333D01*
X161197336Y-120331333D01*
X161120209Y-120327913D01*
X161084265Y-120312366D01*
X161074396Y-120276762D01*
X161074222Y-120266707D01*
X161089815Y-120145033D01*
X161133043Y-119990990D01*
X161198583Y-119818031D01*
X161281108Y-119639608D01*
X161375294Y-119469175D01*
X161414511Y-119407056D01*
X161474876Y-119315333D01*
X160904888Y-119315333D01*
X160904888Y-119117778D01*
X161695111Y-119117778D01*
X161695111Y-119213844D01*
X161695111Y-119213844D01*
G37*
X161695111Y-119213844D02*
X161679083Y-119298811D01*
X161635692Y-119409021D01*
X161599249Y-119479508D01*
X161489385Y-119695188D01*
X161405155Y-119904955D01*
X161351903Y-120094584D01*
X161339169Y-120172064D01*
X161320450Y-120331333D01*
X161197336Y-120331333D01*
X161120209Y-120327913D01*
X161084265Y-120312366D01*
X161074396Y-120276762D01*
X161074222Y-120266707D01*
X161089815Y-120145033D01*
X161133043Y-119990990D01*
X161198583Y-119818031D01*
X161281108Y-119639608D01*
X161375294Y-119469175D01*
X161414511Y-119407056D01*
X161474876Y-119315333D01*
X160904888Y-119315333D01*
X160904888Y-119117778D01*
X161695111Y-119117778D01*
X161695111Y-119213844D01*
G36*
X138984214Y-119169008D02*
X139086261Y-119237323D01*
X139162305Y-119349847D01*
X139209914Y-119503564D01*
X139226654Y-119695459D01*
X139222307Y-119809923D01*
X139194551Y-119997197D01*
X139141937Y-120135978D01*
X139062211Y-120229493D01*
X138953120Y-120280969D01*
X138885645Y-120292057D01*
X138795013Y-120292855D01*
X138719309Y-120281862D01*
X138704953Y-120276960D01*
X138605427Y-120204266D01*
X138532126Y-120085815D01*
X138486959Y-119926789D01*
X138471837Y-119732370D01*
X138473908Y-119664558D01*
X138699148Y-119664558D01*
X138699317Y-119856967D01*
X138719260Y-119997774D01*
X138759435Y-120088417D01*
X138820302Y-120130329D01*
X138849222Y-120133778D01*
X138904360Y-120121493D01*
X138944493Y-120075372D01*
X138966634Y-120028527D01*
X138990158Y-119948939D01*
X139001126Y-119845392D01*
X139000813Y-119703685D01*
X138999295Y-119664558D01*
X138988362Y-119513617D01*
X138968882Y-119411102D01*
X138937514Y-119349236D01*
X138890915Y-119320242D01*
X138849222Y-119315333D01*
X138790468Y-119326555D01*
X138749199Y-119365405D01*
X138722071Y-119439661D01*
X138705743Y-119557100D01*
X138699148Y-119664558D01*
X138473908Y-119664558D01*
X138474321Y-119651066D01*
X138496395Y-119467422D01*
X138540470Y-119331286D01*
X138609333Y-119237089D01*
X138705777Y-119179264D01*
X138711835Y-119177064D01*
X138858594Y-119147916D01*
X138984214Y-119169008D01*
X138984214Y-119169008D01*
G37*
X138984214Y-119169008D02*
X139086261Y-119237323D01*
X139162305Y-119349847D01*
X139209914Y-119503564D01*
X139226654Y-119695459D01*
X139222307Y-119809923D01*
X139194551Y-119997197D01*
X139141937Y-120135978D01*
X139062211Y-120229493D01*
X138953120Y-120280969D01*
X138885645Y-120292057D01*
X138795013Y-120292855D01*
X138719309Y-120281862D01*
X138704953Y-120276960D01*
X138605427Y-120204266D01*
X138532126Y-120085815D01*
X138486959Y-119926789D01*
X138471837Y-119732370D01*
X138473908Y-119664558D01*
X138699148Y-119664558D01*
X138699317Y-119856967D01*
X138719260Y-119997774D01*
X138759435Y-120088417D01*
X138820302Y-120130329D01*
X138849222Y-120133778D01*
X138904360Y-120121493D01*
X138944493Y-120075372D01*
X138966634Y-120028527D01*
X138990158Y-119948939D01*
X139001126Y-119845392D01*
X139000813Y-119703685D01*
X138999295Y-119664558D01*
X138988362Y-119513617D01*
X138968882Y-119411102D01*
X138937514Y-119349236D01*
X138890915Y-119320242D01*
X138849222Y-119315333D01*
X138790468Y-119326555D01*
X138749199Y-119365405D01*
X138722071Y-119439661D01*
X138705743Y-119557100D01*
X138699148Y-119664558D01*
X138473908Y-119664558D01*
X138474321Y-119651066D01*
X138496395Y-119467422D01*
X138540470Y-119331286D01*
X138609333Y-119237089D01*
X138705777Y-119179264D01*
X138711835Y-119177064D01*
X138858594Y-119147916D01*
X138984214Y-119169008D01*
G36*
X154155732Y-119151844D02*
X154273915Y-119189820D01*
X154367705Y-119260121D01*
X154426742Y-119357929D01*
X154442000Y-119449896D01*
X154423509Y-119530288D01*
X154377341Y-119608052D01*
X154317446Y-119664666D01*
X154266893Y-119682328D01*
X154264004Y-119694629D01*
X154301386Y-119725209D01*
X154320254Y-119737262D01*
X154420059Y-119824405D01*
X154466920Y-119930104D01*
X154460018Y-120051257D01*
X154426014Y-120137403D01*
X154353492Y-120220774D01*
X154245830Y-120276584D01*
X154118566Y-120302120D01*
X153987242Y-120294670D01*
X153867397Y-120251522D01*
X153846451Y-120238558D01*
X153768728Y-120172764D01*
X153715124Y-120101579D01*
X153692403Y-120037533D01*
X153707331Y-119993160D01*
X153712096Y-119989675D01*
X153766112Y-119970838D01*
X153831557Y-119965673D01*
X153885642Y-119973826D01*
X153905777Y-119992667D01*
X153929088Y-120042931D01*
X153984789Y-120093641D01*
X154051529Y-120127972D01*
X154084848Y-120133778D01*
X154164037Y-120110481D01*
X154218317Y-120051939D01*
X154242094Y-119975175D01*
X154229771Y-119897212D01*
X154181720Y-119839045D01*
X154104176Y-119805012D01*
X154040609Y-119795111D01*
X153984919Y-119787321D01*
X153964434Y-119752146D01*
X153962222Y-119710445D01*
X153969361Y-119650356D01*
X154002040Y-119628236D01*
X154042514Y-119625778D01*
X154128562Y-119603769D01*
X154188314Y-119547979D01*
X154214304Y-119473765D01*
X154199066Y-119396484D01*
X154171873Y-119359683D01*
X154112917Y-119323285D01*
X154075111Y-119315333D01*
X154015887Y-119334142D01*
X153960966Y-119377612D01*
X153934210Y-119426312D01*
X153934000Y-119430238D01*
X153910121Y-119448109D01*
X153853882Y-119455592D01*
X153788377Y-119452817D01*
X153736703Y-119439912D01*
X153722845Y-119429051D01*
X153721285Y-119378653D01*
X153754749Y-119312077D01*
X153812001Y-119245478D01*
X153881801Y-119195015D01*
X153887633Y-119192139D01*
X154023517Y-119151012D01*
X154155732Y-119151844D01*
X154155732Y-119151844D01*
G37*
X154155732Y-119151844D02*
X154273915Y-119189820D01*
X154367705Y-119260121D01*
X154426742Y-119357929D01*
X154442000Y-119449896D01*
X154423509Y-119530288D01*
X154377341Y-119608052D01*
X154317446Y-119664666D01*
X154266893Y-119682328D01*
X154264004Y-119694629D01*
X154301386Y-119725209D01*
X154320254Y-119737262D01*
X154420059Y-119824405D01*
X154466920Y-119930104D01*
X154460018Y-120051257D01*
X154426014Y-120137403D01*
X154353492Y-120220774D01*
X154245830Y-120276584D01*
X154118566Y-120302120D01*
X153987242Y-120294670D01*
X153867397Y-120251522D01*
X153846451Y-120238558D01*
X153768728Y-120172764D01*
X153715124Y-120101579D01*
X153692403Y-120037533D01*
X153707331Y-119993160D01*
X153712096Y-119989675D01*
X153766112Y-119970838D01*
X153831557Y-119965673D01*
X153885642Y-119973826D01*
X153905777Y-119992667D01*
X153929088Y-120042931D01*
X153984789Y-120093641D01*
X154051529Y-120127972D01*
X154084848Y-120133778D01*
X154164037Y-120110481D01*
X154218317Y-120051939D01*
X154242094Y-119975175D01*
X154229771Y-119897212D01*
X154181720Y-119839045D01*
X154104176Y-119805012D01*
X154040609Y-119795111D01*
X153984919Y-119787321D01*
X153964434Y-119752146D01*
X153962222Y-119710445D01*
X153969361Y-119650356D01*
X154002040Y-119628236D01*
X154042514Y-119625778D01*
X154128562Y-119603769D01*
X154188314Y-119547979D01*
X154214304Y-119473765D01*
X154199066Y-119396484D01*
X154171873Y-119359683D01*
X154112917Y-119323285D01*
X154075111Y-119315333D01*
X154015887Y-119334142D01*
X153960966Y-119377612D01*
X153934210Y-119426312D01*
X153934000Y-119430238D01*
X153910121Y-119448109D01*
X153853882Y-119455592D01*
X153788377Y-119452817D01*
X153736703Y-119439912D01*
X153722845Y-119429051D01*
X153721285Y-119378653D01*
X153754749Y-119312077D01*
X153812001Y-119245478D01*
X153881801Y-119195015D01*
X153887633Y-119192139D01*
X154023517Y-119151012D01*
X154155732Y-119151844D01*
G36*
X164630222Y-119343556D02*
X164178666Y-119343556D01*
X164178666Y-119471549D01*
X164180820Y-119548568D01*
X164191439Y-119580464D01*
X164216753Y-119578517D01*
X164233255Y-119570326D01*
X164342115Y-119541342D01*
X164455893Y-119558279D01*
X164559068Y-119614441D01*
X164636121Y-119703135D01*
X164658809Y-119753884D01*
X164680467Y-119887559D01*
X164666628Y-120026826D01*
X164620063Y-120145664D01*
X164616457Y-120151321D01*
X164531452Y-120233119D01*
X164413308Y-120283478D01*
X164277881Y-120298989D01*
X164141026Y-120276241D01*
X164102881Y-120261804D01*
X164034578Y-120216949D01*
X163979182Y-120154677D01*
X163945465Y-120089701D01*
X163942196Y-120036733D01*
X163957283Y-120017576D01*
X164043060Y-119993306D01*
X164130182Y-120016987D01*
X164183708Y-120063222D01*
X164254691Y-120120193D01*
X164329152Y-120128406D01*
X164395837Y-120093590D01*
X164443491Y-120021475D01*
X164460888Y-119922111D01*
X164442851Y-119827344D01*
X164396490Y-119755664D01*
X164333435Y-119714825D01*
X164265313Y-119712579D01*
X164206888Y-119752778D01*
X164153661Y-119782100D01*
X164068158Y-119794983D01*
X164058301Y-119795111D01*
X163944848Y-119795111D01*
X163962979Y-119621638D01*
X163973232Y-119499380D01*
X163979805Y-119374586D01*
X163981111Y-119311193D01*
X163981111Y-119174222D01*
X164630222Y-119174222D01*
X164630222Y-119343556D01*
X164630222Y-119343556D01*
G37*
X164630222Y-119343556D02*
X164178666Y-119343556D01*
X164178666Y-119471549D01*
X164180820Y-119548568D01*
X164191439Y-119580464D01*
X164216753Y-119578517D01*
X164233255Y-119570326D01*
X164342115Y-119541342D01*
X164455893Y-119558279D01*
X164559068Y-119614441D01*
X164636121Y-119703135D01*
X164658809Y-119753884D01*
X164680467Y-119887559D01*
X164666628Y-120026826D01*
X164620063Y-120145664D01*
X164616457Y-120151321D01*
X164531452Y-120233119D01*
X164413308Y-120283478D01*
X164277881Y-120298989D01*
X164141026Y-120276241D01*
X164102881Y-120261804D01*
X164034578Y-120216949D01*
X163979182Y-120154677D01*
X163945465Y-120089701D01*
X163942196Y-120036733D01*
X163957283Y-120017576D01*
X164043060Y-119993306D01*
X164130182Y-120016987D01*
X164183708Y-120063222D01*
X164254691Y-120120193D01*
X164329152Y-120128406D01*
X164395837Y-120093590D01*
X164443491Y-120021475D01*
X164460888Y-119922111D01*
X164442851Y-119827344D01*
X164396490Y-119755664D01*
X164333435Y-119714825D01*
X164265313Y-119712579D01*
X164206888Y-119752778D01*
X164153661Y-119782100D01*
X164068158Y-119794983D01*
X164058301Y-119795111D01*
X163944848Y-119795111D01*
X163962979Y-119621638D01*
X163973232Y-119499380D01*
X163979805Y-119374586D01*
X163981111Y-119311193D01*
X163981111Y-119174222D01*
X164630222Y-119174222D01*
X164630222Y-119343556D01*
G36*
X138101333Y-120105556D02*
X138228333Y-120105556D01*
X138306427Y-120108010D01*
X138343415Y-120122181D01*
X138354615Y-120158281D01*
X138355333Y-120190222D01*
X138355333Y-120274889D01*
X137593333Y-120274889D01*
X137593333Y-120190222D01*
X137596416Y-120140102D01*
X137615371Y-120115108D01*
X137664760Y-120106506D01*
X137734444Y-120105556D01*
X137875555Y-120105556D01*
X137875555Y-119738667D01*
X137874793Y-119602182D01*
X137872709Y-119488720D01*
X137869604Y-119408758D01*
X137865779Y-119372777D01*
X137864999Y-119371778D01*
X137836548Y-119384375D01*
X137774851Y-119416717D01*
X137723888Y-119444746D01*
X137593333Y-119517715D01*
X137593333Y-119431206D01*
X137600060Y-119378092D01*
X137628045Y-119335838D01*
X137688999Y-119290892D01*
X137741500Y-119259725D01*
X137867719Y-119201070D01*
X137979076Y-119175145D01*
X137995500Y-119174487D01*
X138101333Y-119174222D01*
X138101333Y-120105556D01*
X138101333Y-120105556D01*
G37*
X138101333Y-120105556D02*
X138228333Y-120105556D01*
X138306427Y-120108010D01*
X138343415Y-120122181D01*
X138354615Y-120158281D01*
X138355333Y-120190222D01*
X138355333Y-120274889D01*
X137593333Y-120274889D01*
X137593333Y-120190222D01*
X137596416Y-120140102D01*
X137615371Y-120115108D01*
X137664760Y-120106506D01*
X137734444Y-120105556D01*
X137875555Y-120105556D01*
X137875555Y-119738667D01*
X137874793Y-119602182D01*
X137872709Y-119488720D01*
X137869604Y-119408758D01*
X137865779Y-119372777D01*
X137864999Y-119371778D01*
X137836548Y-119384375D01*
X137774851Y-119416717D01*
X137723888Y-119444746D01*
X137593333Y-119517715D01*
X137593333Y-119431206D01*
X137600060Y-119378092D01*
X137628045Y-119335838D01*
X137688999Y-119290892D01*
X137741500Y-119259725D01*
X137867719Y-119201070D01*
X137979076Y-119175145D01*
X137995500Y-119174487D01*
X138101333Y-119174222D01*
X138101333Y-120105556D01*
G36*
X143181333Y-120105556D02*
X143308333Y-120105556D01*
X143386427Y-120108010D01*
X143423415Y-120122181D01*
X143434615Y-120158281D01*
X143435333Y-120190222D01*
X143435333Y-120274889D01*
X142673333Y-120274889D01*
X142673333Y-120190222D01*
X142676416Y-120140102D01*
X142695371Y-120115108D01*
X142744760Y-120106506D01*
X142814444Y-120105556D01*
X142955555Y-120105556D01*
X142955555Y-119738667D01*
X142954793Y-119602182D01*
X142952709Y-119488720D01*
X142949604Y-119408758D01*
X142945779Y-119372777D01*
X142944999Y-119371778D01*
X142916548Y-119384375D01*
X142854851Y-119416717D01*
X142803888Y-119444746D01*
X142673333Y-119517715D01*
X142673333Y-119431206D01*
X142680060Y-119378092D01*
X142708045Y-119335838D01*
X142768999Y-119290892D01*
X142821500Y-119259725D01*
X142947719Y-119201070D01*
X143059076Y-119175145D01*
X143075500Y-119174487D01*
X143181333Y-119174222D01*
X143181333Y-120105556D01*
X143181333Y-120105556D01*
G37*
X143181333Y-120105556D02*
X143308333Y-120105556D01*
X143386427Y-120108010D01*
X143423415Y-120122181D01*
X143434615Y-120158281D01*
X143435333Y-120190222D01*
X143435333Y-120274889D01*
X142673333Y-120274889D01*
X142673333Y-120190222D01*
X142676416Y-120140102D01*
X142695371Y-120115108D01*
X142744760Y-120106506D01*
X142814444Y-120105556D01*
X142955555Y-120105556D01*
X142955555Y-119738667D01*
X142954793Y-119602182D01*
X142952709Y-119488720D01*
X142949604Y-119408758D01*
X142945779Y-119372777D01*
X142944999Y-119371778D01*
X142916548Y-119384375D01*
X142854851Y-119416717D01*
X142803888Y-119444746D01*
X142673333Y-119517715D01*
X142673333Y-119431206D01*
X142680060Y-119378092D01*
X142708045Y-119335838D01*
X142768999Y-119290892D01*
X142821500Y-119259725D01*
X142947719Y-119201070D01*
X143059076Y-119175145D01*
X143075500Y-119174487D01*
X143181333Y-119174222D01*
X143181333Y-120105556D01*
G36*
X144084444Y-120105556D02*
X144211444Y-120105556D01*
X144289538Y-120108010D01*
X144326526Y-120122181D01*
X144337726Y-120158281D01*
X144338444Y-120190222D01*
X144338444Y-120274889D01*
X143576444Y-120274889D01*
X143576444Y-120190222D01*
X143579527Y-120140102D01*
X143598483Y-120115108D01*
X143647871Y-120106506D01*
X143717555Y-120105556D01*
X143858666Y-120105556D01*
X143858666Y-119738667D01*
X143857904Y-119602182D01*
X143855820Y-119488720D01*
X143852715Y-119408758D01*
X143848890Y-119372777D01*
X143848110Y-119371778D01*
X143819660Y-119384375D01*
X143757962Y-119416717D01*
X143706999Y-119444746D01*
X143576444Y-119517715D01*
X143576444Y-119431206D01*
X143583171Y-119378092D01*
X143611157Y-119335838D01*
X143672110Y-119290892D01*
X143724611Y-119259725D01*
X143850830Y-119201070D01*
X143962187Y-119175145D01*
X143978611Y-119174487D01*
X144084444Y-119174222D01*
X144084444Y-120105556D01*
X144084444Y-120105556D01*
G37*
X144084444Y-120105556D02*
X144211444Y-120105556D01*
X144289538Y-120108010D01*
X144326526Y-120122181D01*
X144337726Y-120158281D01*
X144338444Y-120190222D01*
X144338444Y-120274889D01*
X143576444Y-120274889D01*
X143576444Y-120190222D01*
X143579527Y-120140102D01*
X143598483Y-120115108D01*
X143647871Y-120106506D01*
X143717555Y-120105556D01*
X143858666Y-120105556D01*
X143858666Y-119738667D01*
X143857904Y-119602182D01*
X143855820Y-119488720D01*
X143852715Y-119408758D01*
X143848890Y-119372777D01*
X143848110Y-119371778D01*
X143819660Y-119384375D01*
X143757962Y-119416717D01*
X143706999Y-119444746D01*
X143576444Y-119517715D01*
X143576444Y-119431206D01*
X143583171Y-119378092D01*
X143611157Y-119335838D01*
X143672110Y-119290892D01*
X143724611Y-119259725D01*
X143850830Y-119201070D01*
X143962187Y-119175145D01*
X143978611Y-119174487D01*
X144084444Y-119174222D01*
X144084444Y-120105556D01*
G36*
X148261333Y-120105556D02*
X148388333Y-120105556D01*
X148466427Y-120108010D01*
X148503415Y-120122181D01*
X148514615Y-120158281D01*
X148515333Y-120190222D01*
X148515333Y-120274889D01*
X147753333Y-120274889D01*
X147753333Y-120190222D01*
X147756416Y-120140102D01*
X147775371Y-120115108D01*
X147824760Y-120106506D01*
X147894444Y-120105556D01*
X148035555Y-120105556D01*
X148035555Y-119738667D01*
X148034793Y-119602182D01*
X148032709Y-119488720D01*
X148029604Y-119408758D01*
X148025779Y-119372777D01*
X148024999Y-119371778D01*
X147996548Y-119384375D01*
X147934851Y-119416717D01*
X147883888Y-119444746D01*
X147753333Y-119517715D01*
X147753333Y-119431206D01*
X147760060Y-119378092D01*
X147788045Y-119335838D01*
X147848999Y-119290892D01*
X147901500Y-119259725D01*
X148027719Y-119201070D01*
X148139076Y-119175145D01*
X148155500Y-119174487D01*
X148261333Y-119174222D01*
X148261333Y-120105556D01*
X148261333Y-120105556D01*
G37*
X148261333Y-120105556D02*
X148388333Y-120105556D01*
X148466427Y-120108010D01*
X148503415Y-120122181D01*
X148514615Y-120158281D01*
X148515333Y-120190222D01*
X148515333Y-120274889D01*
X147753333Y-120274889D01*
X147753333Y-120190222D01*
X147756416Y-120140102D01*
X147775371Y-120115108D01*
X147824760Y-120106506D01*
X147894444Y-120105556D01*
X148035555Y-120105556D01*
X148035555Y-119738667D01*
X148034793Y-119602182D01*
X148032709Y-119488720D01*
X148029604Y-119408758D01*
X148025779Y-119372777D01*
X148024999Y-119371778D01*
X147996548Y-119384375D01*
X147934851Y-119416717D01*
X147883888Y-119444746D01*
X147753333Y-119517715D01*
X147753333Y-119431206D01*
X147760060Y-119378092D01*
X147788045Y-119335838D01*
X147848999Y-119290892D01*
X147901500Y-119259725D01*
X148027719Y-119201070D01*
X148139076Y-119175145D01*
X148155500Y-119174487D01*
X148261333Y-119174222D01*
X148261333Y-120105556D01*
G36*
X149132485Y-119168649D02*
X149246326Y-119223996D01*
X149246667Y-119224249D01*
X149313344Y-119304825D01*
X149351778Y-119414987D01*
X149354964Y-119532021D01*
X149349756Y-119558405D01*
X149319546Y-119615799D01*
X149254193Y-119700665D01*
X149161314Y-119803632D01*
X149100154Y-119865667D01*
X148870858Y-120091445D01*
X149130540Y-120099559D01*
X149390222Y-120107674D01*
X149390222Y-120274889D01*
X148628222Y-120274889D01*
X148628222Y-120194161D01*
X148653427Y-120093750D01*
X148729199Y-119970426D01*
X148855776Y-119823849D01*
X148956546Y-119724281D01*
X149057078Y-119622330D01*
X149115444Y-119541948D01*
X149136034Y-119472794D01*
X149123239Y-119404525D01*
X149107007Y-119369922D01*
X149058449Y-119329457D01*
X148988864Y-119321861D01*
X148918453Y-119342319D01*
X148867416Y-119386015D01*
X148854000Y-119430238D01*
X148828957Y-119446650D01*
X148766400Y-119455777D01*
X148741111Y-119456445D01*
X148664008Y-119449459D01*
X148632410Y-119423038D01*
X148643306Y-119368988D01*
X148682587Y-119297076D01*
X148762237Y-119216629D01*
X148874438Y-119167031D01*
X149003188Y-119150349D01*
X149132485Y-119168649D01*
X149132485Y-119168649D01*
G37*
X149132485Y-119168649D02*
X149246326Y-119223996D01*
X149246667Y-119224249D01*
X149313344Y-119304825D01*
X149351778Y-119414987D01*
X149354964Y-119532021D01*
X149349756Y-119558405D01*
X149319546Y-119615799D01*
X149254193Y-119700665D01*
X149161314Y-119803632D01*
X149100154Y-119865667D01*
X148870858Y-120091445D01*
X149130540Y-120099559D01*
X149390222Y-120107674D01*
X149390222Y-120274889D01*
X148628222Y-120274889D01*
X148628222Y-120194161D01*
X148653427Y-120093750D01*
X148729199Y-119970426D01*
X148855776Y-119823849D01*
X148956546Y-119724281D01*
X149057078Y-119622330D01*
X149115444Y-119541948D01*
X149136034Y-119472794D01*
X149123239Y-119404525D01*
X149107007Y-119369922D01*
X149058449Y-119329457D01*
X148988864Y-119321861D01*
X148918453Y-119342319D01*
X148867416Y-119386015D01*
X148854000Y-119430238D01*
X148828957Y-119446650D01*
X148766400Y-119455777D01*
X148741111Y-119456445D01*
X148664008Y-119449459D01*
X148632410Y-119423038D01*
X148643306Y-119368988D01*
X148682587Y-119297076D01*
X148762237Y-119216629D01*
X148874438Y-119167031D01*
X149003188Y-119150349D01*
X149132485Y-119168649D01*
G36*
X153341333Y-120105556D02*
X153468333Y-120105556D01*
X153546427Y-120108010D01*
X153583415Y-120122181D01*
X153594615Y-120158281D01*
X153595333Y-120190222D01*
X153595333Y-120274889D01*
X152833333Y-120274889D01*
X152833333Y-120190222D01*
X152836416Y-120140102D01*
X152855371Y-120115108D01*
X152904760Y-120106506D01*
X152974444Y-120105556D01*
X153115555Y-120105556D01*
X153115555Y-119738667D01*
X153114793Y-119602182D01*
X153112709Y-119488720D01*
X153109604Y-119408758D01*
X153105779Y-119372777D01*
X153104999Y-119371778D01*
X153076548Y-119384375D01*
X153014851Y-119416717D01*
X152963888Y-119444746D01*
X152833333Y-119517715D01*
X152833333Y-119431206D01*
X152840060Y-119378092D01*
X152868045Y-119335838D01*
X152928999Y-119290892D01*
X152981500Y-119259725D01*
X153107719Y-119201070D01*
X153219076Y-119175145D01*
X153235500Y-119174487D01*
X153341333Y-119174222D01*
X153341333Y-120105556D01*
X153341333Y-120105556D01*
G37*
X153341333Y-120105556D02*
X153468333Y-120105556D01*
X153546427Y-120108010D01*
X153583415Y-120122181D01*
X153594615Y-120158281D01*
X153595333Y-120190222D01*
X153595333Y-120274889D01*
X152833333Y-120274889D01*
X152833333Y-120190222D01*
X152836416Y-120140102D01*
X152855371Y-120115108D01*
X152904760Y-120106506D01*
X152974444Y-120105556D01*
X153115555Y-120105556D01*
X153115555Y-119738667D01*
X153114793Y-119602182D01*
X153112709Y-119488720D01*
X153109604Y-119408758D01*
X153105779Y-119372777D01*
X153104999Y-119371778D01*
X153076548Y-119384375D01*
X153014851Y-119416717D01*
X152963888Y-119444746D01*
X152833333Y-119517715D01*
X152833333Y-119431206D01*
X152840060Y-119378092D01*
X152868045Y-119335838D01*
X152928999Y-119290892D01*
X152981500Y-119259725D01*
X153107719Y-119201070D01*
X153219076Y-119175145D01*
X153235500Y-119174487D01*
X153341333Y-119174222D01*
X153341333Y-120105556D01*
G36*
X158421333Y-120105556D02*
X158548333Y-120105556D01*
X158626427Y-120108010D01*
X158663415Y-120122181D01*
X158674615Y-120158281D01*
X158675333Y-120190222D01*
X158675333Y-120274889D01*
X157913333Y-120274889D01*
X157913333Y-120190222D01*
X157916416Y-120140102D01*
X157935371Y-120115108D01*
X157984760Y-120106506D01*
X158054444Y-120105556D01*
X158195555Y-120105556D01*
X158195555Y-119738667D01*
X158194793Y-119602182D01*
X158192709Y-119488720D01*
X158189604Y-119408758D01*
X158185779Y-119372777D01*
X158184999Y-119371778D01*
X158156548Y-119384375D01*
X158094851Y-119416717D01*
X158043888Y-119444746D01*
X157913333Y-119517715D01*
X157913333Y-119431206D01*
X157920060Y-119378092D01*
X157948045Y-119335838D01*
X158008999Y-119290892D01*
X158061500Y-119259725D01*
X158187719Y-119201070D01*
X158299076Y-119175145D01*
X158315500Y-119174487D01*
X158421333Y-119174222D01*
X158421333Y-120105556D01*
X158421333Y-120105556D01*
G37*
X158421333Y-120105556D02*
X158548333Y-120105556D01*
X158626427Y-120108010D01*
X158663415Y-120122181D01*
X158674615Y-120158281D01*
X158675333Y-120190222D01*
X158675333Y-120274889D01*
X157913333Y-120274889D01*
X157913333Y-120190222D01*
X157916416Y-120140102D01*
X157935371Y-120115108D01*
X157984760Y-120106506D01*
X158054444Y-120105556D01*
X158195555Y-120105556D01*
X158195555Y-119738667D01*
X158194793Y-119602182D01*
X158192709Y-119488720D01*
X158189604Y-119408758D01*
X158185779Y-119372777D01*
X158184999Y-119371778D01*
X158156548Y-119384375D01*
X158094851Y-119416717D01*
X158043888Y-119444746D01*
X157913333Y-119517715D01*
X157913333Y-119431206D01*
X157920060Y-119378092D01*
X157948045Y-119335838D01*
X158008999Y-119290892D01*
X158061500Y-119259725D01*
X158187719Y-119201070D01*
X158299076Y-119175145D01*
X158315500Y-119174487D01*
X158421333Y-119174222D01*
X158421333Y-120105556D01*
G36*
X159465555Y-119879778D02*
X159536111Y-119879778D01*
X159586535Y-119888890D01*
X159604981Y-119927626D01*
X159606666Y-119964445D01*
X159599072Y-120024953D01*
X159566792Y-120047089D01*
X159536111Y-120049111D01*
X159490653Y-120055273D01*
X159470449Y-120084336D01*
X159465580Y-120152169D01*
X159465555Y-120162000D01*
X159462839Y-120234258D01*
X159443830Y-120266366D01*
X159392232Y-120274617D01*
X159352666Y-120274889D01*
X159280408Y-120272173D01*
X159248300Y-120253163D01*
X159240049Y-120201565D01*
X159239777Y-120162000D01*
X159239777Y-120049111D01*
X158731777Y-120049111D01*
X158731777Y-119964284D01*
X158745995Y-119903951D01*
X158764756Y-119864255D01*
X158929333Y-119864255D01*
X158954864Y-119872758D01*
X159020720Y-119878396D01*
X159084555Y-119879778D01*
X159239777Y-119879778D01*
X159239777Y-119392871D01*
X159084555Y-119620802D01*
X159018390Y-119719450D01*
X158966269Y-119799995D01*
X158935102Y-119851597D01*
X158929333Y-119864255D01*
X158764756Y-119864255D01*
X158789989Y-119810866D01*
X158865776Y-119681250D01*
X158964611Y-119527548D01*
X159197444Y-119175639D01*
X159331500Y-119174931D01*
X159465555Y-119174222D01*
X159465555Y-119879778D01*
X159465555Y-119879778D01*
G37*
X159465555Y-119879778D02*
X159536111Y-119879778D01*
X159586535Y-119888890D01*
X159604981Y-119927626D01*
X159606666Y-119964445D01*
X159599072Y-120024953D01*
X159566792Y-120047089D01*
X159536111Y-120049111D01*
X159490653Y-120055273D01*
X159470449Y-120084336D01*
X159465580Y-120152169D01*
X159465555Y-120162000D01*
X159462839Y-120234258D01*
X159443830Y-120266366D01*
X159392232Y-120274617D01*
X159352666Y-120274889D01*
X159280408Y-120272173D01*
X159248300Y-120253163D01*
X159240049Y-120201565D01*
X159239777Y-120162000D01*
X159239777Y-120049111D01*
X158731777Y-120049111D01*
X158731777Y-119964284D01*
X158745995Y-119903951D01*
X158764756Y-119864255D01*
X158929333Y-119864255D01*
X158954864Y-119872758D01*
X159020720Y-119878396D01*
X159084555Y-119879778D01*
X159239777Y-119879778D01*
X159239777Y-119392871D01*
X159084555Y-119620802D01*
X159018390Y-119719450D01*
X158966269Y-119799995D01*
X158935102Y-119851597D01*
X158929333Y-119864255D01*
X158764756Y-119864255D01*
X158789989Y-119810866D01*
X158865776Y-119681250D01*
X158964611Y-119527548D01*
X159197444Y-119175639D01*
X159331500Y-119174931D01*
X159465555Y-119174222D01*
X159465555Y-119879778D01*
G36*
X163557777Y-120105556D02*
X163684777Y-120105556D01*
X163762872Y-120108010D01*
X163799860Y-120122181D01*
X163811059Y-120158281D01*
X163811777Y-120190222D01*
X163811777Y-120274889D01*
X163049777Y-120274889D01*
X163049777Y-120190222D01*
X163052860Y-120140102D01*
X163071816Y-120115108D01*
X163121204Y-120106506D01*
X163190888Y-120105556D01*
X163332000Y-120105556D01*
X163332000Y-119738667D01*
X163331238Y-119602182D01*
X163329153Y-119488720D01*
X163326048Y-119408758D01*
X163322223Y-119372777D01*
X163321443Y-119371778D01*
X163292993Y-119384375D01*
X163231296Y-119416717D01*
X163180332Y-119444746D01*
X163049777Y-119517715D01*
X163049777Y-119431206D01*
X163056504Y-119378092D01*
X163084490Y-119335838D01*
X163145444Y-119290892D01*
X163197944Y-119259725D01*
X163324164Y-119201070D01*
X163435520Y-119175145D01*
X163451944Y-119174487D01*
X163557777Y-119174222D01*
X163557777Y-120105556D01*
X163557777Y-120105556D01*
G37*
X163557777Y-120105556D02*
X163684777Y-120105556D01*
X163762872Y-120108010D01*
X163799860Y-120122181D01*
X163811059Y-120158281D01*
X163811777Y-120190222D01*
X163811777Y-120274889D01*
X163049777Y-120274889D01*
X163049777Y-120190222D01*
X163052860Y-120140102D01*
X163071816Y-120115108D01*
X163121204Y-120106506D01*
X163190888Y-120105556D01*
X163332000Y-120105556D01*
X163332000Y-119738667D01*
X163331238Y-119602182D01*
X163329153Y-119488720D01*
X163326048Y-119408758D01*
X163322223Y-119372777D01*
X163321443Y-119371778D01*
X163292993Y-119384375D01*
X163231296Y-119416717D01*
X163180332Y-119444746D01*
X163049777Y-119517715D01*
X163049777Y-119431206D01*
X163056504Y-119378092D01*
X163084490Y-119335838D01*
X163145444Y-119290892D01*
X163197944Y-119259725D01*
X163324164Y-119201070D01*
X163435520Y-119175145D01*
X163451944Y-119174487D01*
X163557777Y-119174222D01*
X163557777Y-120105556D01*
M02*
