G04 #@! TF.FileFunction,Legend,Bot*
%FSLAX46Y46*%
G04 Gerber Fmt 4.6, Leading zero omitted, Abs format (unit mm)*
G04 Created by KiCad (PCBNEW 4.0.6) date Sat Oct 28 17:22:52 2017*
%MOMM*%
%LPD*%
G01*
G04 APERTURE LIST*
%ADD10C,0.100000*%
%ADD11C,0.500000*%
%ADD12C,0.650000*%
%ADD13C,0.010000*%
G04 APERTURE END LIST*
D10*
D11*
X197408955Y-121255019D02*
X197574448Y-121370899D01*
X198021315Y-121437165D01*
X198302688Y-121387552D01*
X198699943Y-121172444D01*
X198931702Y-120841456D01*
X199022775Y-120535276D01*
X199064234Y-119947722D01*
X198989813Y-119525661D01*
X198749899Y-118987721D01*
X198559599Y-118731154D01*
X198228612Y-118499394D01*
X197781744Y-118433128D01*
X197500370Y-118482742D01*
X197103117Y-118697849D01*
X196987237Y-118863343D01*
X194578909Y-120013301D02*
X194926205Y-121982917D01*
X195845090Y-119790039D02*
X196117965Y-121337594D01*
X196026893Y-121643775D01*
X195770326Y-121834075D01*
X195348265Y-121908496D01*
X195042085Y-121817423D01*
X194876591Y-121701543D01*
X193172040Y-120261370D02*
X193692984Y-123215793D01*
X193196847Y-120402057D02*
X192890667Y-120310984D01*
X192327919Y-120410211D01*
X192071352Y-120600512D01*
X191955473Y-120766005D01*
X191864400Y-121072186D01*
X192013241Y-121916307D01*
X192203541Y-122172874D01*
X192369035Y-122288754D01*
X192675215Y-122379827D01*
X193237963Y-122280599D01*
X193494529Y-122090299D01*
X190424226Y-122776737D02*
X190680793Y-122586437D01*
X190796673Y-122420943D01*
X190887745Y-122114762D01*
X190738904Y-121270641D01*
X190548604Y-121014074D01*
X190383110Y-120898194D01*
X190076930Y-120807121D01*
X189654869Y-120881542D01*
X189398302Y-121071843D01*
X189282423Y-121237336D01*
X189191350Y-121543516D01*
X189340191Y-122387637D01*
X189530492Y-122644205D01*
X189695985Y-122760085D01*
X190002165Y-122851158D01*
X190424226Y-122776737D01*
X187751176Y-123248068D02*
X188007743Y-123057767D01*
X188098816Y-122751586D01*
X187652292Y-120219224D01*
X185359500Y-123669785D02*
X185086624Y-122122229D01*
X185177697Y-121816049D01*
X185434264Y-121625749D01*
X185997011Y-121526521D01*
X186303192Y-121617594D01*
X185334693Y-123529098D02*
X185640873Y-123620171D01*
X186344308Y-123496137D01*
X186600874Y-123305836D01*
X186691947Y-122999655D01*
X186642333Y-122718282D01*
X186452033Y-122461715D01*
X186145853Y-122370642D01*
X185442418Y-122494677D01*
X185136238Y-122403604D01*
X179963787Y-124331073D02*
X180129281Y-124446953D01*
X180576148Y-124513219D01*
X180857521Y-124463605D01*
X181254775Y-124248498D01*
X181486535Y-123917510D01*
X181577608Y-123611329D01*
X181619067Y-123023776D01*
X181544646Y-122601715D01*
X181304732Y-122063775D01*
X181114432Y-121807208D01*
X180783445Y-121575448D01*
X180336577Y-121509182D01*
X180055203Y-121558796D01*
X179657950Y-121773903D01*
X179542070Y-121939396D01*
X177481038Y-125058970D02*
X177208162Y-123511415D01*
X177299235Y-123205235D01*
X177555802Y-123014934D01*
X178118549Y-122915707D01*
X178424729Y-123006780D01*
X177456231Y-124918284D02*
X177762411Y-125009357D01*
X178465846Y-124885322D01*
X178722412Y-124695022D01*
X178813485Y-124388841D01*
X178763871Y-124107467D01*
X178573571Y-123850901D01*
X178267391Y-123759828D01*
X177563956Y-123883862D01*
X177257776Y-123792789D01*
X176074169Y-125307039D02*
X175553225Y-122352616D01*
X175751680Y-123478110D02*
X175445499Y-123387037D01*
X174882752Y-123486265D01*
X174626185Y-123676565D01*
X174510305Y-123842059D01*
X174419232Y-124148239D01*
X174568074Y-124992360D01*
X174758374Y-125248928D01*
X174923868Y-125364808D01*
X175230048Y-125455881D01*
X175792796Y-125356653D01*
X176049362Y-125166353D01*
X172979059Y-125852791D02*
X173235626Y-125662490D01*
X173326698Y-125356309D01*
X172880175Y-122823947D01*
X170703262Y-126109014D02*
X171009443Y-126200087D01*
X171572190Y-126100860D01*
X171828757Y-125910559D01*
X171919830Y-125604378D01*
X171721375Y-124478884D01*
X171531074Y-124222317D01*
X171224894Y-124131244D01*
X170662146Y-124230472D01*
X170405580Y-124420772D01*
X170314507Y-124726952D01*
X170364121Y-125008327D01*
X171820602Y-125041631D01*
X165812528Y-125520773D02*
X166797336Y-125347124D01*
X167070212Y-126894680D02*
X166549267Y-123940257D01*
X165142399Y-124188325D01*
X163387547Y-127398972D02*
X163693727Y-127490045D01*
X164256475Y-127390818D01*
X164513042Y-127200517D01*
X164604114Y-126894336D01*
X164405659Y-125768841D01*
X164215359Y-125512275D01*
X163909179Y-125421202D01*
X163346431Y-125520430D01*
X163089864Y-125710730D01*
X162998792Y-126016910D01*
X163048405Y-126298285D01*
X164504887Y-126331589D01*
X160855184Y-127845496D02*
X161161364Y-127936569D01*
X161724112Y-127837341D01*
X161980678Y-127647041D01*
X162071751Y-127340860D01*
X161873296Y-126215365D01*
X161682996Y-125958799D01*
X161376815Y-125867726D01*
X160814068Y-125966954D01*
X160557501Y-126157254D01*
X160466428Y-126463434D01*
X160516042Y-126744809D01*
X161972524Y-126778113D01*
X158206941Y-128457514D02*
X157685996Y-125503090D01*
X158182134Y-128316827D02*
X158488314Y-128407900D01*
X159051062Y-128308672D01*
X159307628Y-128118372D01*
X159423508Y-127952878D01*
X159514581Y-127646697D01*
X159365740Y-126802576D01*
X159175439Y-126546010D01*
X159009946Y-126430130D01*
X158703766Y-126339057D01*
X158141018Y-126438284D01*
X157884451Y-126628585D01*
X156874837Y-126661546D02*
X155749342Y-126860001D01*
X156279128Y-125751159D02*
X156725651Y-128283522D01*
X156634579Y-128589703D01*
X156378012Y-128780003D01*
X156096639Y-128829617D01*
X155111830Y-129003265D02*
X154590885Y-126048842D01*
X153845649Y-129226527D02*
X153572773Y-127678972D01*
X153663846Y-127372791D01*
X153920413Y-127182491D01*
X154342474Y-127108070D01*
X154648654Y-127199143D01*
X154814147Y-127315023D01*
X152438780Y-129474596D02*
X152091484Y-127504981D01*
X152190711Y-128067727D02*
X152000411Y-127811161D01*
X151834917Y-127695281D01*
X151528737Y-127604208D01*
X151247363Y-127653822D01*
X150187791Y-129871506D02*
X150444358Y-129681206D01*
X150560238Y-129515712D01*
X150651310Y-129209531D01*
X150502469Y-128365410D01*
X150312169Y-128108843D01*
X150146675Y-127992964D01*
X149840495Y-127901891D01*
X149418434Y-127976311D01*
X149161867Y-128166612D01*
X149045987Y-128332105D01*
X148954915Y-128638285D01*
X149103756Y-129482407D01*
X149294056Y-129738974D01*
X149459550Y-129854854D01*
X149765730Y-129945927D01*
X150187791Y-129871506D01*
X146323324Y-128522063D02*
X146670620Y-130491678D01*
X147589505Y-128298801D02*
X147862381Y-129846355D01*
X147771308Y-130152537D01*
X147514741Y-130342837D01*
X147092680Y-130417258D01*
X146786500Y-130326185D01*
X146621006Y-130210305D01*
X143650274Y-128993394D02*
X144071991Y-131385069D01*
X144262291Y-131641637D01*
X144427785Y-131757516D01*
X144733966Y-131848589D01*
X145156026Y-131774169D01*
X145412593Y-131583868D01*
X143972763Y-130822322D02*
X144278944Y-130913395D01*
X144841691Y-130814168D01*
X145098258Y-130623867D01*
X145214138Y-130458374D01*
X145305211Y-130152193D01*
X145156369Y-129308072D01*
X144966069Y-129051505D01*
X144800575Y-128935625D01*
X144494395Y-128844552D01*
X143931647Y-128943780D01*
X143675081Y-129134080D01*
X142590702Y-131211078D02*
X142069757Y-128256655D01*
X141324520Y-131434340D02*
X141051645Y-129886784D01*
X141142718Y-129580604D01*
X141399284Y-129390304D01*
X141821345Y-129315883D01*
X142127525Y-129406956D01*
X142293019Y-129522836D01*
D12*
X144428571Y-127309524D02*
X144428571Y-124642857D01*
X144428571Y-125404762D02*
X144238095Y-125023810D01*
X144047619Y-124833333D01*
X143666666Y-124642857D01*
X143285714Y-124642857D01*
X140428572Y-127119048D02*
X140809524Y-127309524D01*
X141571429Y-127309524D01*
X141952381Y-127119048D01*
X142142857Y-126738095D01*
X142142857Y-125214286D01*
X141952381Y-124833333D01*
X141571429Y-124642857D01*
X140809524Y-124642857D01*
X140428572Y-124833333D01*
X140238095Y-125214286D01*
X140238095Y-125595238D01*
X142142857Y-125976190D01*
X138904762Y-124642857D02*
X137952381Y-127309524D01*
X137000001Y-124642857D01*
X133380953Y-127309524D02*
X135666667Y-127309524D01*
X134523810Y-127309524D02*
X134523810Y-123309524D01*
X134904762Y-123880952D01*
X135285715Y-124261905D01*
X135666667Y-124452381D01*
D11*
X129912037Y-127365907D02*
X130230672Y-127343261D01*
X130758603Y-127561938D01*
X130967899Y-127803259D01*
X131122526Y-128176563D01*
X131145171Y-128495197D01*
X130926495Y-129023129D01*
X130685174Y-129232425D01*
X130311871Y-129387052D01*
X129993236Y-129409697D01*
X129465305Y-129191021D01*
X129256008Y-128949700D01*
X130877320Y-126528720D02*
X131482565Y-126934049D01*
X131978472Y-127603342D01*
X132101075Y-128427264D01*
X131959712Y-129141846D01*
X131554384Y-129747091D01*
X130885091Y-130242998D01*
X130061170Y-130365601D01*
X129346587Y-130224238D01*
X128741342Y-129818910D01*
X128245435Y-129149617D01*
X128122832Y-128325696D01*
X128264194Y-127611112D01*
X128669523Y-127005868D01*
X129338816Y-126509961D01*
X130162738Y-126387358D01*
X130877320Y-126528720D01*
X122834141Y-126908186D02*
X124304712Y-125971041D01*
X124417934Y-127564214D02*
X125565985Y-124792576D01*
X124510122Y-124355223D01*
X124191488Y-124377868D01*
X124004836Y-124455182D01*
X123763516Y-124664478D01*
X123599508Y-125060427D01*
X123622153Y-125379061D01*
X123699467Y-125565713D01*
X123908763Y-125807033D01*
X124964625Y-126244386D01*
X120458451Y-125924143D02*
X121059811Y-124472331D01*
X121301131Y-124263035D01*
X121619766Y-124240390D01*
X122147697Y-124459067D01*
X122356994Y-124700388D01*
X120513120Y-125792160D02*
X120722416Y-126033481D01*
X121382330Y-126306826D01*
X121700965Y-126284181D01*
X121942286Y-126074884D01*
X122051624Y-125810919D01*
X122028979Y-125492284D01*
X121819683Y-125250964D01*
X121159769Y-124977618D01*
X120950472Y-124736298D01*
X119903989Y-123529693D02*
X118755939Y-126301331D01*
X119849320Y-123661675D02*
X119640024Y-123420355D01*
X119112092Y-123201678D01*
X118793458Y-123224323D01*
X118606806Y-123301636D01*
X118365486Y-123510933D01*
X118037471Y-124302830D01*
X118060116Y-124621465D01*
X118137429Y-124808117D01*
X118346726Y-125049437D01*
X118874657Y-125268114D01*
X119193291Y-125245469D01*
X116630949Y-124338739D02*
X117778999Y-121567101D01*
X115443104Y-123846718D02*
X116044464Y-122394907D01*
X116285785Y-122185611D01*
X116604419Y-122162966D01*
X117000368Y-122326973D01*
X117209664Y-122568294D01*
X117286978Y-122754946D01*
X112935431Y-122808006D02*
X113536791Y-121356195D01*
X113778111Y-121146898D01*
X114096746Y-121124254D01*
X114624677Y-121342930D01*
X114833974Y-121584251D01*
X112990100Y-122676023D02*
X113199396Y-122917344D01*
X113859311Y-123190689D01*
X114177945Y-123168044D01*
X114419266Y-122958747D01*
X114528604Y-122694782D01*
X114505959Y-122376148D01*
X114296663Y-122134827D01*
X113636749Y-121861481D01*
X113427452Y-121620161D01*
X110614409Y-121691980D02*
X110823706Y-121933300D01*
X111351637Y-122151977D01*
X111670272Y-122129332D01*
X111911593Y-121920035D01*
X112348945Y-120864173D01*
X112326300Y-120545538D01*
X112117004Y-120304218D01*
X111589073Y-120085541D01*
X111270438Y-120108186D01*
X111029118Y-120317482D01*
X110919779Y-120581449D01*
X112130269Y-121392104D01*
X108843964Y-121113265D02*
X109162598Y-121090620D01*
X109403919Y-120881323D01*
X110387962Y-118505633D01*
X104356549Y-119254516D02*
X105676376Y-119801207D01*
X106824427Y-117029568D01*
X102431476Y-118302498D02*
X102640773Y-118543819D01*
X103168704Y-118762495D01*
X103487338Y-118739850D01*
X103728659Y-118530553D01*
X104166012Y-117474691D01*
X104143367Y-117156057D01*
X103934071Y-116914736D01*
X103406139Y-116696059D01*
X103087505Y-116718704D01*
X102846184Y-116928000D01*
X102736846Y-117191967D01*
X103947335Y-118002622D01*
X101056979Y-117887790D02*
X102205029Y-115116151D01*
X99869134Y-117395768D02*
X100470494Y-115943957D01*
X100711814Y-115734661D01*
X101030449Y-115712016D01*
X101426398Y-115876024D01*
X101635694Y-116117344D01*
X101713008Y-116303996D01*
X98549306Y-116849077D02*
X99314672Y-115001318D01*
X99205334Y-115265284D02*
X99128021Y-115078632D01*
X98918724Y-114837311D01*
X98522775Y-114673304D01*
X98204141Y-114695949D01*
X97962821Y-114905245D01*
X97361461Y-116357056D01*
X97962821Y-114905245D02*
X97940176Y-114586611D01*
X97730880Y-114345290D01*
X97334931Y-114181282D01*
X97016296Y-114203927D01*
X96774976Y-114413223D01*
X96173616Y-115865034D01*
X93665943Y-114826322D02*
X94267302Y-113374511D01*
X94508623Y-113165215D01*
X94827257Y-113142570D01*
X95355189Y-113361247D01*
X95564485Y-113602567D01*
X93720612Y-114694340D02*
X93929908Y-114935660D01*
X94589822Y-115209006D01*
X94908456Y-115186361D01*
X95149777Y-114977064D01*
X95259115Y-114713098D01*
X95236471Y-114394464D01*
X95027174Y-114153143D01*
X94367260Y-113879798D01*
X94157964Y-113638477D01*
X93111481Y-112431872D02*
X92346114Y-114279631D01*
X93002143Y-112695838D02*
X92924829Y-112509186D01*
X92715533Y-112267865D01*
X92319584Y-112103858D01*
X92000950Y-112126503D01*
X91759629Y-112335799D01*
X91158269Y-113787610D01*
X90603808Y-111393160D02*
X89838441Y-113240919D01*
X90494470Y-111657125D02*
X90417156Y-111470474D01*
X90207860Y-111229153D01*
X89811911Y-111065146D01*
X89493276Y-111087790D01*
X89251956Y-111297087D01*
X88650596Y-112748898D01*
X86389738Y-108874498D02*
X86312424Y-108687846D01*
X86103128Y-108446525D01*
X85443214Y-108173180D01*
X85124580Y-108195825D01*
X84937928Y-108273138D01*
X84696607Y-108482434D01*
X84587269Y-108746401D01*
X84555244Y-109197018D01*
X85483009Y-111436840D01*
X83767233Y-110726142D01*
X83199507Y-107243806D02*
X82935541Y-107134468D01*
X82616906Y-107157112D01*
X82430255Y-107234426D01*
X82188934Y-107443722D01*
X81838275Y-107916985D01*
X81564929Y-108576899D01*
X81478236Y-109159499D01*
X81500880Y-109478134D01*
X81578194Y-109664786D01*
X81787490Y-109906106D01*
X82051457Y-110015445D01*
X82370091Y-109992800D01*
X82556743Y-109915486D01*
X82798064Y-109706189D01*
X83148722Y-109232927D01*
X83422068Y-108573013D01*
X83508761Y-107990413D01*
X83486117Y-107671778D01*
X83408803Y-107485127D01*
X83199507Y-107243806D01*
X78487921Y-108539380D02*
X80071714Y-109195408D01*
X79279818Y-108867394D02*
X80427868Y-106095756D01*
X80527827Y-106601042D01*
X80682453Y-106974346D01*
X80891750Y-107215667D01*
X78712092Y-105385058D02*
X76864333Y-104619691D01*
X76904127Y-107883351D01*
X220971379Y-110047173D02*
X221273946Y-108329829D01*
X222525049Y-109322685D02*
X221257194Y-106603761D01*
X220221414Y-107086754D01*
X220022843Y-107336974D01*
X219953744Y-107526820D01*
X219945020Y-107846139D01*
X220126142Y-108234557D01*
X220376363Y-108433128D01*
X220566209Y-108502227D01*
X220885528Y-108510951D01*
X221921308Y-108027959D01*
X218797216Y-107750868D02*
X218252455Y-111315028D01*
X216984601Y-108596104D02*
X220065071Y-110469791D01*
X216733682Y-110762240D02*
X214662122Y-111728225D01*
X212970951Y-110467700D02*
X213332498Y-113609241D01*
X211158336Y-111312936D01*
X211519882Y-114454478D02*
X210252027Y-111735555D01*
X210225157Y-115058218D02*
X208957302Y-112339295D01*
X207921522Y-112822287D01*
X207722951Y-113072508D01*
X207653852Y-113262354D01*
X207645128Y-113581673D01*
X207826250Y-113970091D01*
X208076471Y-114168662D01*
X208266317Y-114237760D01*
X208585636Y-114246485D01*
X209621416Y-113763493D01*
X206842119Y-114901875D02*
X205935811Y-115324493D01*
X206211508Y-116929813D02*
X207506233Y-116326073D01*
X206238379Y-113607150D01*
X204943654Y-114210890D01*
X203492585Y-118197668D02*
X203795152Y-116480324D01*
X205046255Y-117473180D02*
X203778400Y-114754257D01*
X202742620Y-115237249D01*
X202544049Y-115487469D01*
X202474951Y-115677316D01*
X202466226Y-115996635D01*
X202647348Y-116385053D01*
X202897569Y-116583623D01*
X203087415Y-116652722D01*
X203406734Y-116661446D01*
X204442514Y-116178454D01*
D10*
X82288775Y-66423571D02*
G75*
G02X82254525Y-59616449I3645543J3421990D01*
G01*
X216931957Y-66485934D02*
G75*
G02X82294010Y-66429133I-67292210J63466592D01*
G01*
X217030137Y-59622075D02*
G75*
G02X216985486Y-66429137I-3684961J-3379506D01*
G01*
X229956494Y-70652321D02*
G75*
G02X69205082Y-70512042I-80316747J67632979D01*
G01*
D13*
G36*
X192427412Y-116176242D02*
X192426083Y-116158018D01*
X192417448Y-116126122D01*
X192400142Y-116077494D01*
X192372803Y-116009073D01*
X192334065Y-115917801D01*
X192282566Y-115800619D01*
X192216939Y-115654464D01*
X192135823Y-115476280D01*
X192037851Y-115263005D01*
X191921661Y-115011581D01*
X191785887Y-114718947D01*
X191629168Y-114382044D01*
X191450137Y-113997812D01*
X191405607Y-113902308D01*
X191221093Y-113506815D01*
X191058831Y-113159528D01*
X190917355Y-112857438D01*
X190795198Y-112597532D01*
X190690892Y-112376798D01*
X190602971Y-112192223D01*
X190529967Y-112040798D01*
X190470414Y-111919509D01*
X190422843Y-111825347D01*
X190385789Y-111755298D01*
X190357785Y-111706351D01*
X190337364Y-111675494D01*
X190323058Y-111659716D01*
X190313400Y-111656006D01*
X190311680Y-111656543D01*
X190307068Y-111664155D01*
X190308397Y-111682378D01*
X190317032Y-111714274D01*
X190334337Y-111762903D01*
X190361677Y-111831323D01*
X190400414Y-111922595D01*
X190451914Y-112039778D01*
X190517540Y-112185932D01*
X190598657Y-112364117D01*
X190696628Y-112577392D01*
X190812819Y-112828816D01*
X190948592Y-113121449D01*
X191105312Y-113458353D01*
X191284343Y-113842584D01*
X191328873Y-113938089D01*
X191513386Y-114333582D01*
X191675648Y-114680867D01*
X191817124Y-114982957D01*
X191939282Y-115242865D01*
X192043587Y-115463599D01*
X192131509Y-115648173D01*
X192204512Y-115799598D01*
X192264066Y-115920886D01*
X192311636Y-116015050D01*
X192348689Y-116085098D01*
X192376694Y-116134045D01*
X192397115Y-116164902D01*
X192411421Y-116180680D01*
X192421079Y-116184391D01*
X192422799Y-116183852D01*
X192427412Y-116176242D01*
X192427412Y-116176242D01*
G37*
X192427412Y-116176242D02*
X192426083Y-116158018D01*
X192417448Y-116126122D01*
X192400142Y-116077494D01*
X192372803Y-116009073D01*
X192334065Y-115917801D01*
X192282566Y-115800619D01*
X192216939Y-115654464D01*
X192135823Y-115476280D01*
X192037851Y-115263005D01*
X191921661Y-115011581D01*
X191785887Y-114718947D01*
X191629168Y-114382044D01*
X191450137Y-113997812D01*
X191405607Y-113902308D01*
X191221093Y-113506815D01*
X191058831Y-113159528D01*
X190917355Y-112857438D01*
X190795198Y-112597532D01*
X190690892Y-112376798D01*
X190602971Y-112192223D01*
X190529967Y-112040798D01*
X190470414Y-111919509D01*
X190422843Y-111825347D01*
X190385789Y-111755298D01*
X190357785Y-111706351D01*
X190337364Y-111675494D01*
X190323058Y-111659716D01*
X190313400Y-111656006D01*
X190311680Y-111656543D01*
X190307068Y-111664155D01*
X190308397Y-111682378D01*
X190317032Y-111714274D01*
X190334337Y-111762903D01*
X190361677Y-111831323D01*
X190400414Y-111922595D01*
X190451914Y-112039778D01*
X190517540Y-112185932D01*
X190598657Y-112364117D01*
X190696628Y-112577392D01*
X190812819Y-112828816D01*
X190948592Y-113121449D01*
X191105312Y-113458353D01*
X191284343Y-113842584D01*
X191328873Y-113938089D01*
X191513386Y-114333582D01*
X191675648Y-114680867D01*
X191817124Y-114982957D01*
X191939282Y-115242865D01*
X192043587Y-115463599D01*
X192131509Y-115648173D01*
X192204512Y-115799598D01*
X192264066Y-115920886D01*
X192311636Y-116015050D01*
X192348689Y-116085098D01*
X192376694Y-116134045D01*
X192397115Y-116164902D01*
X192411421Y-116180680D01*
X192421079Y-116184391D01*
X192422799Y-116183852D01*
X192427412Y-116176242D01*
G36*
X192652069Y-110565202D02*
X192421866Y-110672547D01*
X194532985Y-115199856D01*
X194763188Y-115092511D01*
X192652069Y-110565202D01*
X192652069Y-110565202D01*
G37*
X192652069Y-110565202D02*
X192421866Y-110672547D01*
X194532985Y-115199856D01*
X194763188Y-115092511D01*
X192652069Y-110565202D01*
G36*
X194954090Y-109491752D02*
X194723888Y-109599097D01*
X196835007Y-114126406D01*
X197065209Y-114019061D01*
X194954090Y-109491752D01*
X194954090Y-109491752D01*
G37*
X194954090Y-109491752D02*
X194723888Y-109599097D01*
X196835007Y-114126406D01*
X197065209Y-114019061D01*
X194954090Y-109491752D01*
G36*
X197256112Y-108418301D02*
X197025910Y-108525646D01*
X199137029Y-113052956D01*
X199367231Y-112945611D01*
X197256112Y-108418301D01*
X197256112Y-108418301D01*
G37*
X197256112Y-108418301D02*
X197025910Y-108525646D01*
X199137029Y-113052956D01*
X199367231Y-112945611D01*
X197256112Y-108418301D01*
G36*
X199558134Y-107344851D02*
X199327932Y-107452196D01*
X201439051Y-111979505D01*
X201669253Y-111872160D01*
X199558134Y-107344851D01*
X199558134Y-107344851D01*
G37*
X199558134Y-107344851D02*
X199327932Y-107452196D01*
X201439051Y-111979505D01*
X201669253Y-111872160D01*
X199558134Y-107344851D01*
G36*
X201860156Y-106271401D02*
X201629954Y-106378746D01*
X203741073Y-110906055D01*
X203971275Y-110798710D01*
X201860156Y-106271401D01*
X201860156Y-106271401D01*
G37*
X201860156Y-106271401D02*
X201629954Y-106378746D01*
X203741073Y-110906055D01*
X203971275Y-110798710D01*
X201860156Y-106271401D01*
G36*
X204162178Y-105197950D02*
X203931975Y-105305295D01*
X206043094Y-109832604D01*
X206273296Y-109725259D01*
X204162178Y-105197950D01*
X204162178Y-105197950D01*
G37*
X204162178Y-105197950D02*
X203931975Y-105305295D01*
X206043094Y-109832604D01*
X206273296Y-109725259D01*
X204162178Y-105197950D01*
G36*
X206489777Y-104112573D02*
X206233997Y-104231845D01*
X208345116Y-108759154D01*
X208600896Y-108639882D01*
X206489777Y-104112573D01*
X206489777Y-104112573D01*
G37*
X206489777Y-104112573D02*
X206233997Y-104231845D01*
X208345116Y-108759154D01*
X208600896Y-108639882D01*
X206489777Y-104112573D01*
G36*
X208791799Y-103039122D02*
X208536019Y-103158394D01*
X210647138Y-107685704D01*
X210902918Y-107566432D01*
X208791799Y-103039122D01*
X208791799Y-103039122D01*
G37*
X208791799Y-103039122D02*
X208536019Y-103158394D01*
X210647138Y-107685704D01*
X210902918Y-107566432D01*
X208791799Y-103039122D01*
G36*
X211093821Y-101965672D02*
X210838041Y-102084944D01*
X212949160Y-106612253D01*
X213204940Y-106492981D01*
X211093821Y-101965672D01*
X211093821Y-101965672D01*
G37*
X211093821Y-101965672D02*
X210838041Y-102084944D01*
X212949160Y-106612253D01*
X213204940Y-106492981D01*
X211093821Y-101965672D01*
G36*
X213395842Y-100892222D02*
X213165640Y-100999567D01*
X215276759Y-105526876D01*
X215506961Y-105419531D01*
X213395842Y-100892222D01*
X213395842Y-100892222D01*
G37*
X213395842Y-100892222D02*
X213165640Y-100999567D01*
X215276759Y-105526876D01*
X215506961Y-105419531D01*
X213395842Y-100892222D01*
G36*
X215697864Y-99818771D02*
X215467662Y-99926116D01*
X217578781Y-104453425D01*
X217808983Y-104346080D01*
X215697864Y-99818771D01*
X215697864Y-99818771D01*
G37*
X215697864Y-99818771D02*
X215467662Y-99926116D01*
X217578781Y-104453425D01*
X217808983Y-104346080D01*
X215697864Y-99818771D01*
G36*
X218025465Y-98733393D02*
X217769684Y-98852666D01*
X219880803Y-103379975D01*
X220136584Y-103260702D01*
X218025465Y-98733393D01*
X218025465Y-98733393D01*
G37*
X218025465Y-98733393D02*
X217769684Y-98852666D01*
X219880803Y-103379975D01*
X220136584Y-103260702D01*
X218025465Y-98733393D01*
G36*
X220327487Y-97659943D02*
X220097284Y-97767288D01*
X222208403Y-102294597D01*
X222438605Y-102187252D01*
X220327487Y-97659943D01*
X220327487Y-97659943D01*
G37*
X220327487Y-97659943D02*
X220097284Y-97767288D01*
X222208403Y-102294597D01*
X222438605Y-102187252D01*
X220327487Y-97659943D01*
G36*
X222655086Y-96574565D02*
X222424884Y-96681910D01*
X224536003Y-101209220D01*
X224766205Y-101101875D01*
X222655086Y-96574565D01*
X222655086Y-96574565D01*
G37*
X222655086Y-96574565D02*
X222424884Y-96681910D01*
X224536003Y-101209220D01*
X224766205Y-101101875D01*
X222655086Y-96574565D01*
G36*
X224829218Y-95560751D02*
X224675749Y-95632315D01*
X226786868Y-100159624D01*
X226940337Y-100088060D01*
X224829218Y-95560751D01*
X224829218Y-95560751D01*
G37*
X224829218Y-95560751D02*
X224675749Y-95632315D01*
X226786868Y-100159624D01*
X226940337Y-100088060D01*
X224829218Y-95560751D01*
G36*
X194967778Y-112575601D02*
X195013370Y-112530855D01*
X195071769Y-112438138D01*
X195096367Y-112335665D01*
X195086629Y-112214667D01*
X195042018Y-112066377D01*
X194975509Y-111910666D01*
X194913814Y-111782507D01*
X194864976Y-111693851D01*
X194820504Y-111631949D01*
X194771906Y-111584051D01*
X194742320Y-111560548D01*
X194658154Y-111507940D01*
X194574908Y-111472619D01*
X194549416Y-111466707D01*
X194441975Y-111472505D01*
X194320892Y-111510244D01*
X194210724Y-111570303D01*
X194151410Y-111622590D01*
X194113250Y-111689772D01*
X194086374Y-111777121D01*
X194076941Y-111859148D01*
X194084287Y-111900337D01*
X194111641Y-111900058D01*
X194174306Y-111886498D01*
X194203198Y-111878656D01*
X194281344Y-111850055D01*
X194322938Y-111812713D01*
X194341980Y-111769423D01*
X194386520Y-111700042D01*
X194453848Y-111674955D01*
X194534191Y-111692353D01*
X194617775Y-111750425D01*
X194685839Y-111833110D01*
X194743043Y-111920770D01*
X194629873Y-111909791D01*
X194509998Y-111921714D01*
X194398597Y-111973382D01*
X194314739Y-112054374D01*
X194292516Y-112094168D01*
X194264689Y-112221118D01*
X194279433Y-112354936D01*
X194311521Y-112435799D01*
X194533059Y-112332494D01*
X194510799Y-112240107D01*
X194518800Y-112150925D01*
X194559593Y-112080810D01*
X194593586Y-112057620D01*
X194657363Y-112049016D01*
X194719753Y-112061068D01*
X194796488Y-112116439D01*
X194845904Y-112206391D01*
X194859450Y-112312269D01*
X194853451Y-112352631D01*
X194813656Y-112439050D01*
X194747198Y-112475902D01*
X194658255Y-112463422D01*
X194583055Y-112412220D01*
X194533059Y-112332494D01*
X194311521Y-112435799D01*
X194330047Y-112482488D01*
X194409827Y-112590639D01*
X194512071Y-112666254D01*
X194598380Y-112693560D01*
X194721882Y-112688041D01*
X194853108Y-112645548D01*
X194967778Y-112575601D01*
X194967778Y-112575601D01*
G37*
X194967778Y-112575601D02*
X195013370Y-112530855D01*
X195071769Y-112438138D01*
X195096367Y-112335665D01*
X195086629Y-112214667D01*
X195042018Y-112066377D01*
X194975509Y-111910666D01*
X194913814Y-111782507D01*
X194864976Y-111693851D01*
X194820504Y-111631949D01*
X194771906Y-111584051D01*
X194742320Y-111560548D01*
X194658154Y-111507940D01*
X194574908Y-111472619D01*
X194549416Y-111466707D01*
X194441975Y-111472505D01*
X194320892Y-111510244D01*
X194210724Y-111570303D01*
X194151410Y-111622590D01*
X194113250Y-111689772D01*
X194086374Y-111777121D01*
X194076941Y-111859148D01*
X194084287Y-111900337D01*
X194111641Y-111900058D01*
X194174306Y-111886498D01*
X194203198Y-111878656D01*
X194281344Y-111850055D01*
X194322938Y-111812713D01*
X194341980Y-111769423D01*
X194386520Y-111700042D01*
X194453848Y-111674955D01*
X194534191Y-111692353D01*
X194617775Y-111750425D01*
X194685839Y-111833110D01*
X194743043Y-111920770D01*
X194629873Y-111909791D01*
X194509998Y-111921714D01*
X194398597Y-111973382D01*
X194314739Y-112054374D01*
X194292516Y-112094168D01*
X194264689Y-112221118D01*
X194279433Y-112354936D01*
X194311521Y-112435799D01*
X194533059Y-112332494D01*
X194510799Y-112240107D01*
X194518800Y-112150925D01*
X194559593Y-112080810D01*
X194593586Y-112057620D01*
X194657363Y-112049016D01*
X194719753Y-112061068D01*
X194796488Y-112116439D01*
X194845904Y-112206391D01*
X194859450Y-112312269D01*
X194853451Y-112352631D01*
X194813656Y-112439050D01*
X194747198Y-112475902D01*
X194658255Y-112463422D01*
X194583055Y-112412220D01*
X194533059Y-112332494D01*
X194311521Y-112435799D01*
X194330047Y-112482488D01*
X194409827Y-112590639D01*
X194512071Y-112666254D01*
X194598380Y-112693560D01*
X194721882Y-112688041D01*
X194853108Y-112645548D01*
X194967778Y-112575601D01*
G36*
X201851206Y-109379696D02*
X201946965Y-109291584D01*
X202006296Y-109182303D01*
X202018131Y-109124283D01*
X202005992Y-109000225D01*
X201950458Y-108896032D01*
X201860948Y-108823229D01*
X201747917Y-108793388D01*
X201653285Y-108789513D01*
X201717033Y-108719197D01*
X201781859Y-108611953D01*
X201791184Y-108497216D01*
X201744654Y-108379518D01*
X201743619Y-108377894D01*
X201685356Y-108306732D01*
X201621283Y-108255552D01*
X201609815Y-108249809D01*
X201480458Y-108222792D01*
X201337990Y-108240341D01*
X201197137Y-108297913D01*
X201072625Y-108390971D01*
X201040502Y-108425312D01*
X200974251Y-108535848D01*
X200957550Y-108637108D01*
X200961200Y-108710794D01*
X200971276Y-108755044D01*
X200975630Y-108759805D01*
X201019589Y-108758629D01*
X201083806Y-108740594D01*
X201148480Y-108713666D01*
X201193811Y-108685814D01*
X201202904Y-108668347D01*
X201201604Y-108608293D01*
X201233297Y-108536464D01*
X201286025Y-108475223D01*
X201316779Y-108455448D01*
X201409313Y-108439841D01*
X201493586Y-108473403D01*
X201549019Y-108542463D01*
X201558987Y-108624193D01*
X201520488Y-108704457D01*
X201440379Y-108770590D01*
X201419812Y-108781081D01*
X201365615Y-108811664D01*
X201353514Y-108845931D01*
X201376162Y-108906335D01*
X201377725Y-108909694D01*
X201410301Y-108967886D01*
X201443358Y-108982558D01*
X201490513Y-108966090D01*
X201590889Y-108942428D01*
X201679790Y-108963029D01*
X201742013Y-109023917D01*
X201746638Y-109033037D01*
X201765593Y-109124886D01*
X201740039Y-109200605D01*
X201681022Y-109249265D01*
X201599589Y-109259941D01*
X201537348Y-109240078D01*
X201453697Y-109218310D01*
X201366505Y-109241895D01*
X201294331Y-109286371D01*
X201277353Y-109330976D01*
X201315081Y-109382280D01*
X201353814Y-109412152D01*
X201470322Y-109462867D01*
X201600387Y-109470753D01*
X201731515Y-109441225D01*
X201851206Y-109379696D01*
X201851206Y-109379696D01*
G37*
X201851206Y-109379696D02*
X201946965Y-109291584D01*
X202006296Y-109182303D01*
X202018131Y-109124283D01*
X202005992Y-109000225D01*
X201950458Y-108896032D01*
X201860948Y-108823229D01*
X201747917Y-108793388D01*
X201653285Y-108789513D01*
X201717033Y-108719197D01*
X201781859Y-108611953D01*
X201791184Y-108497216D01*
X201744654Y-108379518D01*
X201743619Y-108377894D01*
X201685356Y-108306732D01*
X201621283Y-108255552D01*
X201609815Y-108249809D01*
X201480458Y-108222792D01*
X201337990Y-108240341D01*
X201197137Y-108297913D01*
X201072625Y-108390971D01*
X201040502Y-108425312D01*
X200974251Y-108535848D01*
X200957550Y-108637108D01*
X200961200Y-108710794D01*
X200971276Y-108755044D01*
X200975630Y-108759805D01*
X201019589Y-108758629D01*
X201083806Y-108740594D01*
X201148480Y-108713666D01*
X201193811Y-108685814D01*
X201202904Y-108668347D01*
X201201604Y-108608293D01*
X201233297Y-108536464D01*
X201286025Y-108475223D01*
X201316779Y-108455448D01*
X201409313Y-108439841D01*
X201493586Y-108473403D01*
X201549019Y-108542463D01*
X201558987Y-108624193D01*
X201520488Y-108704457D01*
X201440379Y-108770590D01*
X201419812Y-108781081D01*
X201365615Y-108811664D01*
X201353514Y-108845931D01*
X201376162Y-108906335D01*
X201377725Y-108909694D01*
X201410301Y-108967886D01*
X201443358Y-108982558D01*
X201490513Y-108966090D01*
X201590889Y-108942428D01*
X201679790Y-108963029D01*
X201742013Y-109023917D01*
X201746638Y-109033037D01*
X201765593Y-109124886D01*
X201740039Y-109200605D01*
X201681022Y-109249265D01*
X201599589Y-109259941D01*
X201537348Y-109240078D01*
X201453697Y-109218310D01*
X201366505Y-109241895D01*
X201294331Y-109286371D01*
X201277353Y-109330976D01*
X201315081Y-109382280D01*
X201353814Y-109412152D01*
X201470322Y-109462867D01*
X201600387Y-109470753D01*
X201731515Y-109441225D01*
X201851206Y-109379696D01*
G36*
X211231089Y-104797662D02*
X210770684Y-105012353D01*
X210705380Y-104872306D01*
X210669180Y-104792040D01*
X210657959Y-104749783D01*
X210672792Y-104732410D01*
X210714754Y-104726799D01*
X210717317Y-104726611D01*
X210850455Y-104692590D01*
X210952601Y-104618587D01*
X211019376Y-104514401D01*
X211046397Y-104389825D01*
X211029283Y-104254660D01*
X210978759Y-104141998D01*
X210879393Y-104028583D01*
X210753380Y-103961006D01*
X210610595Y-103942077D01*
X210460919Y-103974600D01*
X210432588Y-103986795D01*
X210344649Y-104042467D01*
X210267820Y-104114009D01*
X210262476Y-104120565D01*
X210225728Y-104184988D01*
X210197205Y-104265921D01*
X210180881Y-104345415D01*
X210180730Y-104405527D01*
X210194539Y-104427468D01*
X210231553Y-104424914D01*
X210298769Y-104409910D01*
X210312912Y-104406031D01*
X210383567Y-104378342D01*
X210419177Y-104335139D01*
X210434252Y-104285838D01*
X210476324Y-104201183D01*
X210544287Y-104157001D01*
X210624453Y-104153525D01*
X210703128Y-104190989D01*
X210766622Y-104269626D01*
X210771752Y-104280070D01*
X210792754Y-104371428D01*
X210777300Y-104457090D01*
X210733735Y-104524700D01*
X210670405Y-104561905D01*
X210595653Y-104556350D01*
X210587535Y-104552810D01*
X210524185Y-104549327D01*
X210432300Y-104578608D01*
X210422135Y-104583228D01*
X210306468Y-104637165D01*
X210403282Y-104802213D01*
X210467578Y-104916711D01*
X210531882Y-105038948D01*
X210568860Y-105114249D01*
X210637623Y-105261238D01*
X211302652Y-104951130D01*
X211231089Y-104797662D01*
X211231089Y-104797662D01*
G37*
X211231089Y-104797662D02*
X210770684Y-105012353D01*
X210705380Y-104872306D01*
X210669180Y-104792040D01*
X210657959Y-104749783D01*
X210672792Y-104732410D01*
X210714754Y-104726799D01*
X210717317Y-104726611D01*
X210850455Y-104692590D01*
X210952601Y-104618587D01*
X211019376Y-104514401D01*
X211046397Y-104389825D01*
X211029283Y-104254660D01*
X210978759Y-104141998D01*
X210879393Y-104028583D01*
X210753380Y-103961006D01*
X210610595Y-103942077D01*
X210460919Y-103974600D01*
X210432588Y-103986795D01*
X210344649Y-104042467D01*
X210267820Y-104114009D01*
X210262476Y-104120565D01*
X210225728Y-104184988D01*
X210197205Y-104265921D01*
X210180881Y-104345415D01*
X210180730Y-104405527D01*
X210194539Y-104427468D01*
X210231553Y-104424914D01*
X210298769Y-104409910D01*
X210312912Y-104406031D01*
X210383567Y-104378342D01*
X210419177Y-104335139D01*
X210434252Y-104285838D01*
X210476324Y-104201183D01*
X210544287Y-104157001D01*
X210624453Y-104153525D01*
X210703128Y-104190989D01*
X210766622Y-104269626D01*
X210771752Y-104280070D01*
X210792754Y-104371428D01*
X210777300Y-104457090D01*
X210733735Y-104524700D01*
X210670405Y-104561905D01*
X210595653Y-104556350D01*
X210587535Y-104552810D01*
X210524185Y-104549327D01*
X210432300Y-104578608D01*
X210422135Y-104583228D01*
X210306468Y-104637165D01*
X210403282Y-104802213D01*
X210467578Y-104916711D01*
X210531882Y-105038948D01*
X210568860Y-105114249D01*
X210637623Y-105261238D01*
X211302652Y-104951130D01*
X211231089Y-104797662D01*
G36*
X215706221Y-102917441D02*
X215800793Y-102827269D01*
X215851978Y-102719404D01*
X215856659Y-102692007D01*
X215862428Y-102620204D01*
X215861814Y-102576039D01*
X215860881Y-102572670D01*
X215832086Y-102569772D01*
X215768553Y-102581531D01*
X215739675Y-102589183D01*
X215661529Y-102617784D01*
X215619936Y-102655125D01*
X215600893Y-102698416D01*
X215556353Y-102767797D01*
X215489025Y-102792884D01*
X215408682Y-102775486D01*
X215325098Y-102717414D01*
X215257034Y-102634729D01*
X215199831Y-102547068D01*
X215313000Y-102558048D01*
X215432875Y-102546125D01*
X215544276Y-102494457D01*
X215628134Y-102413465D01*
X215650357Y-102373670D01*
X215678578Y-102245937D01*
X215663284Y-102113469D01*
X215611527Y-101988108D01*
X215530360Y-101881700D01*
X215426832Y-101806092D01*
X215307996Y-101773129D01*
X215292537Y-101772598D01*
X215143846Y-101795273D01*
X215015996Y-101860610D01*
X214922878Y-101961455D01*
X214921563Y-101963624D01*
X214870962Y-102067227D01*
X214850672Y-102168697D01*
X214861535Y-102280618D01*
X214904394Y-102415578D01*
X214907943Y-102423746D01*
X215127486Y-102321372D01*
X215089628Y-102231728D01*
X215086296Y-102130787D01*
X215089423Y-102115208D01*
X215129217Y-102028789D01*
X215195677Y-101991937D01*
X215284618Y-102004417D01*
X215359819Y-102055618D01*
X215409814Y-102135344D01*
X215432075Y-102227731D01*
X215424073Y-102316914D01*
X215383281Y-102387029D01*
X215349287Y-102410218D01*
X215267208Y-102421847D01*
X215189977Y-102388488D01*
X215127486Y-102321372D01*
X214907943Y-102423746D01*
X214960515Y-102544796D01*
X215063410Y-102737400D01*
X215168792Y-102875960D01*
X215280066Y-102962865D01*
X215400636Y-103000512D01*
X215533906Y-102991289D01*
X215578646Y-102979189D01*
X215706221Y-102917441D01*
X215706221Y-102917441D01*
G37*
X215706221Y-102917441D02*
X215800793Y-102827269D01*
X215851978Y-102719404D01*
X215856659Y-102692007D01*
X215862428Y-102620204D01*
X215861814Y-102576039D01*
X215860881Y-102572670D01*
X215832086Y-102569772D01*
X215768553Y-102581531D01*
X215739675Y-102589183D01*
X215661529Y-102617784D01*
X215619936Y-102655125D01*
X215600893Y-102698416D01*
X215556353Y-102767797D01*
X215489025Y-102792884D01*
X215408682Y-102775486D01*
X215325098Y-102717414D01*
X215257034Y-102634729D01*
X215199831Y-102547068D01*
X215313000Y-102558048D01*
X215432875Y-102546125D01*
X215544276Y-102494457D01*
X215628134Y-102413465D01*
X215650357Y-102373670D01*
X215678578Y-102245937D01*
X215663284Y-102113469D01*
X215611527Y-101988108D01*
X215530360Y-101881700D01*
X215426832Y-101806092D01*
X215307996Y-101773129D01*
X215292537Y-101772598D01*
X215143846Y-101795273D01*
X215015996Y-101860610D01*
X214922878Y-101961455D01*
X214921563Y-101963624D01*
X214870962Y-102067227D01*
X214850672Y-102168697D01*
X214861535Y-102280618D01*
X214904394Y-102415578D01*
X214907943Y-102423746D01*
X215127486Y-102321372D01*
X215089628Y-102231728D01*
X215086296Y-102130787D01*
X215089423Y-102115208D01*
X215129217Y-102028789D01*
X215195677Y-101991937D01*
X215284618Y-102004417D01*
X215359819Y-102055618D01*
X215409814Y-102135344D01*
X215432075Y-102227731D01*
X215424073Y-102316914D01*
X215383281Y-102387029D01*
X215349287Y-102410218D01*
X215267208Y-102421847D01*
X215189977Y-102388488D01*
X215127486Y-102321372D01*
X214907943Y-102423746D01*
X214960515Y-102544796D01*
X215063410Y-102737400D01*
X215168792Y-102875960D01*
X215280066Y-102962865D01*
X215400636Y-103000512D01*
X215533906Y-102991289D01*
X215578646Y-102979189D01*
X215706221Y-102917441D01*
G36*
X224966324Y-98588930D02*
X225048680Y-98491159D01*
X225091392Y-98383707D01*
X225093440Y-98276389D01*
X225053798Y-98179022D01*
X224971446Y-98101418D01*
X224907540Y-98070705D01*
X224835474Y-98039278D01*
X224810457Y-98011814D01*
X224816171Y-97991624D01*
X224848073Y-97952960D01*
X224858304Y-97945427D01*
X224875775Y-97909472D01*
X224879713Y-97839435D01*
X224871097Y-97755779D01*
X224850906Y-97678973D01*
X224844865Y-97664721D01*
X224770907Y-97566037D01*
X224663826Y-97494875D01*
X224543881Y-97463704D01*
X224517896Y-97463446D01*
X224379181Y-97491033D01*
X224241691Y-97554886D01*
X224131985Y-97642530D01*
X224128583Y-97646317D01*
X224070989Y-97749452D01*
X224049417Y-97874190D01*
X224067168Y-97996149D01*
X224077716Y-98022448D01*
X224088468Y-98039243D01*
X224316175Y-97933061D01*
X224289923Y-97829064D01*
X224308452Y-97738919D01*
X224368597Y-97675649D01*
X224380190Y-97669663D01*
X224469150Y-97655605D01*
X224520349Y-97673514D01*
X224595572Y-97741058D01*
X224638208Y-97828395D01*
X224646690Y-97920129D01*
X224619444Y-98000867D01*
X224559098Y-98053333D01*
X224472067Y-98066115D01*
X224389511Y-98028905D01*
X224323444Y-97947652D01*
X224316175Y-97933061D01*
X224088468Y-98039243D01*
X224118644Y-98086374D01*
X224175645Y-98148964D01*
X224233672Y-98196314D01*
X224277678Y-98214520D01*
X224284112Y-98213178D01*
X224325906Y-98208966D01*
X224346583Y-98210596D01*
X224370242Y-98227334D01*
X224366578Y-98275171D01*
X224348431Y-98331422D01*
X224328017Y-98453048D01*
X224346637Y-98526083D01*
X224574334Y-98419906D01*
X224556256Y-98331322D01*
X224579671Y-98252544D01*
X224630662Y-98206801D01*
X224695012Y-98197855D01*
X224737100Y-98206103D01*
X224802905Y-98254178D01*
X224839417Y-98328135D01*
X224844447Y-98409606D01*
X224815806Y-98480231D01*
X224773789Y-98513737D01*
X224696706Y-98521807D01*
X224622610Y-98484179D01*
X224574334Y-98419906D01*
X224346637Y-98526083D01*
X224354696Y-98557698D01*
X224420295Y-98639850D01*
X224516635Y-98693976D01*
X224635540Y-98714553D01*
X224768833Y-98696054D01*
X224845352Y-98667205D01*
X224966324Y-98588930D01*
X224966324Y-98588930D01*
G37*
X224966324Y-98588930D02*
X225048680Y-98491159D01*
X225091392Y-98383707D01*
X225093440Y-98276389D01*
X225053798Y-98179022D01*
X224971446Y-98101418D01*
X224907540Y-98070705D01*
X224835474Y-98039278D01*
X224810457Y-98011814D01*
X224816171Y-97991624D01*
X224848073Y-97952960D01*
X224858304Y-97945427D01*
X224875775Y-97909472D01*
X224879713Y-97839435D01*
X224871097Y-97755779D01*
X224850906Y-97678973D01*
X224844865Y-97664721D01*
X224770907Y-97566037D01*
X224663826Y-97494875D01*
X224543881Y-97463704D01*
X224517896Y-97463446D01*
X224379181Y-97491033D01*
X224241691Y-97554886D01*
X224131985Y-97642530D01*
X224128583Y-97646317D01*
X224070989Y-97749452D01*
X224049417Y-97874190D01*
X224067168Y-97996149D01*
X224077716Y-98022448D01*
X224088468Y-98039243D01*
X224316175Y-97933061D01*
X224289923Y-97829064D01*
X224308452Y-97738919D01*
X224368597Y-97675649D01*
X224380190Y-97669663D01*
X224469150Y-97655605D01*
X224520349Y-97673514D01*
X224595572Y-97741058D01*
X224638208Y-97828395D01*
X224646690Y-97920129D01*
X224619444Y-98000867D01*
X224559098Y-98053333D01*
X224472067Y-98066115D01*
X224389511Y-98028905D01*
X224323444Y-97947652D01*
X224316175Y-97933061D01*
X224088468Y-98039243D01*
X224118644Y-98086374D01*
X224175645Y-98148964D01*
X224233672Y-98196314D01*
X224277678Y-98214520D01*
X224284112Y-98213178D01*
X224325906Y-98208966D01*
X224346583Y-98210596D01*
X224370242Y-98227334D01*
X224366578Y-98275171D01*
X224348431Y-98331422D01*
X224328017Y-98453048D01*
X224346637Y-98526083D01*
X224574334Y-98419906D01*
X224556256Y-98331322D01*
X224579671Y-98252544D01*
X224630662Y-98206801D01*
X224695012Y-98197855D01*
X224737100Y-98206103D01*
X224802905Y-98254178D01*
X224839417Y-98328135D01*
X224844447Y-98409606D01*
X224815806Y-98480231D01*
X224773789Y-98513737D01*
X224696706Y-98521807D01*
X224622610Y-98484179D01*
X224574334Y-98419906D01*
X224346637Y-98526083D01*
X224354696Y-98557698D01*
X224420295Y-98639850D01*
X224516635Y-98693976D01*
X224635540Y-98714553D01*
X224768833Y-98696054D01*
X224845352Y-98667205D01*
X224966324Y-98588930D01*
G36*
X192266124Y-112675838D02*
X192394015Y-112616201D01*
X192468940Y-112579221D01*
X192501886Y-112551310D01*
X192502356Y-112518394D01*
X192486123Y-112479831D01*
X192450341Y-112403097D01*
X191683000Y-112760914D01*
X191718782Y-112837648D01*
X191741600Y-112880414D01*
X191767728Y-112896028D01*
X191812961Y-112885486D01*
X191893091Y-112849786D01*
X192035922Y-112783183D01*
X192208866Y-113154064D01*
X192268721Y-113285793D01*
X192316821Y-113398217D01*
X192349457Y-113482120D01*
X192362916Y-113528284D01*
X192361925Y-113534218D01*
X192321184Y-113537337D01*
X192275524Y-113532574D01*
X192198240Y-113520702D01*
X192117577Y-113509224D01*
X192026146Y-113496793D01*
X192066505Y-113582758D01*
X192094233Y-113629683D01*
X192133088Y-113659292D01*
X192198297Y-113678905D01*
X192300487Y-113695211D01*
X192432668Y-113706346D01*
X192531947Y-113696232D01*
X192600770Y-113671961D01*
X192707431Y-113622224D01*
X192266124Y-112675838D01*
X192266124Y-112675838D01*
G37*
X192266124Y-112675838D02*
X192394015Y-112616201D01*
X192468940Y-112579221D01*
X192501886Y-112551310D01*
X192502356Y-112518394D01*
X192486123Y-112479831D01*
X192450341Y-112403097D01*
X191683000Y-112760914D01*
X191718782Y-112837648D01*
X191741600Y-112880414D01*
X191767728Y-112896028D01*
X191812961Y-112885486D01*
X191893091Y-112849786D01*
X192035922Y-112783183D01*
X192208866Y-113154064D01*
X192268721Y-113285793D01*
X192316821Y-113398217D01*
X192349457Y-113482120D01*
X192362916Y-113528284D01*
X192361925Y-113534218D01*
X192321184Y-113537337D01*
X192275524Y-113532574D01*
X192198240Y-113520702D01*
X192117577Y-113509224D01*
X192026146Y-113496793D01*
X192066505Y-113582758D01*
X192094233Y-113629683D01*
X192133088Y-113659292D01*
X192198297Y-113678905D01*
X192300487Y-113695211D01*
X192432668Y-113706346D01*
X192531947Y-113696232D01*
X192600770Y-113671961D01*
X192707431Y-113622224D01*
X192266124Y-112675838D01*
G36*
X197311730Y-111466208D02*
X197327674Y-111449779D01*
X197393160Y-111341284D01*
X197410959Y-111214837D01*
X197378949Y-111085797D01*
X197378181Y-111084140D01*
X197311378Y-110998202D01*
X197199341Y-110918363D01*
X197053278Y-110851347D01*
X196926365Y-110813117D01*
X196817790Y-110783749D01*
X196723462Y-110752365D01*
X196664426Y-110726080D01*
X196599557Y-110686264D01*
X197112297Y-110447170D01*
X197028806Y-110268124D01*
X196261466Y-110625941D01*
X196300558Y-110709772D01*
X196327923Y-110758120D01*
X196365959Y-110799829D01*
X196423163Y-110839871D01*
X196508036Y-110883212D01*
X196629078Y-110934822D01*
X196794787Y-110999669D01*
X196799673Y-111001540D01*
X196952915Y-111063416D01*
X197057992Y-111113939D01*
X197121226Y-111156505D01*
X197146346Y-111187983D01*
X197163677Y-111276059D01*
X197137650Y-111348607D01*
X197080460Y-111395230D01*
X197004302Y-111405533D01*
X196928052Y-111374056D01*
X196869730Y-111341216D01*
X196815065Y-111339730D01*
X196738547Y-111369007D01*
X196737219Y-111369623D01*
X196669320Y-111403460D01*
X196645239Y-111428714D01*
X196657235Y-111459764D01*
X196675759Y-111483720D01*
X196782784Y-111576893D01*
X196908641Y-111621273D01*
X197044582Y-111617315D01*
X197181861Y-111565475D01*
X197311730Y-111466208D01*
X197311730Y-111466208D01*
G37*
X197311730Y-111466208D02*
X197327674Y-111449779D01*
X197393160Y-111341284D01*
X197410959Y-111214837D01*
X197378949Y-111085797D01*
X197378181Y-111084140D01*
X197311378Y-110998202D01*
X197199341Y-110918363D01*
X197053278Y-110851347D01*
X196926365Y-110813117D01*
X196817790Y-110783749D01*
X196723462Y-110752365D01*
X196664426Y-110726080D01*
X196599557Y-110686264D01*
X197112297Y-110447170D01*
X197028806Y-110268124D01*
X196261466Y-110625941D01*
X196300558Y-110709772D01*
X196327923Y-110758120D01*
X196365959Y-110799829D01*
X196423163Y-110839871D01*
X196508036Y-110883212D01*
X196629078Y-110934822D01*
X196794787Y-110999669D01*
X196799673Y-111001540D01*
X196952915Y-111063416D01*
X197057992Y-111113939D01*
X197121226Y-111156505D01*
X197146346Y-111187983D01*
X197163677Y-111276059D01*
X197137650Y-111348607D01*
X197080460Y-111395230D01*
X197004302Y-111405533D01*
X196928052Y-111374056D01*
X196869730Y-111341216D01*
X196815065Y-111339730D01*
X196738547Y-111369007D01*
X196737219Y-111369623D01*
X196669320Y-111403460D01*
X196645239Y-111428714D01*
X196657235Y-111459764D01*
X196675759Y-111483720D01*
X196782784Y-111576893D01*
X196908641Y-111621273D01*
X197044582Y-111617315D01*
X197181861Y-111565475D01*
X197311730Y-111466208D01*
G36*
X206339068Y-106393774D02*
X206415802Y-106357992D01*
X206467198Y-106326310D01*
X206473289Y-106287073D01*
X206456754Y-106245476D01*
X206425072Y-106194081D01*
X206385834Y-106187989D01*
X206344238Y-106204525D01*
X206295498Y-106223190D01*
X206264166Y-106214346D01*
X206234514Y-106168426D01*
X206213832Y-106125205D01*
X206160160Y-106010104D01*
X205929958Y-106117449D01*
X206037303Y-106347651D01*
X205551321Y-106574268D01*
X205587331Y-106651494D01*
X205627116Y-106701344D01*
X205645682Y-106717105D01*
X205801579Y-106644409D01*
X206108866Y-106501119D01*
X206224379Y-106750867D01*
X206275912Y-106865110D01*
X206303759Y-106935309D01*
X206309772Y-106967754D01*
X206295803Y-106968737D01*
X206286880Y-106963056D01*
X206239920Y-106931133D01*
X206159796Y-106877969D01*
X206060734Y-106812977D01*
X206017725Y-106784952D01*
X205801579Y-106644409D01*
X205645682Y-106717105D01*
X205710739Y-106772336D01*
X205840300Y-106866100D01*
X206013711Y-106981550D01*
X206404080Y-107234379D01*
X206673030Y-107109958D01*
X206339068Y-106393774D01*
X206339068Y-106393774D01*
G37*
X206339068Y-106393774D02*
X206415802Y-106357992D01*
X206467198Y-106326310D01*
X206473289Y-106287073D01*
X206456754Y-106245476D01*
X206425072Y-106194081D01*
X206385834Y-106187989D01*
X206344238Y-106204525D01*
X206295498Y-106223190D01*
X206264166Y-106214346D01*
X206234514Y-106168426D01*
X206213832Y-106125205D01*
X206160160Y-106010104D01*
X205929958Y-106117449D01*
X206037303Y-106347651D01*
X205551321Y-106574268D01*
X205587331Y-106651494D01*
X205627116Y-106701344D01*
X205645682Y-106717105D01*
X205801579Y-106644409D01*
X206108866Y-106501119D01*
X206224379Y-106750867D01*
X206275912Y-106865110D01*
X206303759Y-106935309D01*
X206309772Y-106967754D01*
X206295803Y-106968737D01*
X206286880Y-106963056D01*
X206239920Y-106931133D01*
X206159796Y-106877969D01*
X206060734Y-106812977D01*
X206017725Y-106784952D01*
X205801579Y-106644409D01*
X205645682Y-106717105D01*
X205710739Y-106772336D01*
X205840300Y-106866100D01*
X206013711Y-106981550D01*
X206404080Y-107234379D01*
X206673030Y-107109958D01*
X206339068Y-106393774D01*
G36*
X220546874Y-100534482D02*
X220496439Y-100464249D01*
X220410537Y-100382703D01*
X220347719Y-100334221D01*
X220156998Y-100185179D01*
X219992008Y-100030663D01*
X219863605Y-99881306D01*
X219819320Y-99816467D01*
X219735045Y-99680031D01*
X219623465Y-99732061D01*
X219555010Y-99767756D01*
X219529004Y-99797037D01*
X219535107Y-99833476D01*
X219539198Y-99842663D01*
X219604752Y-99946347D01*
X219709031Y-100067688D01*
X219841526Y-100196744D01*
X219991724Y-100323574D01*
X220149114Y-100438234D01*
X220210909Y-100477959D01*
X220304382Y-100535577D01*
X219787798Y-100776464D01*
X219871288Y-100955510D01*
X220587473Y-100621547D01*
X220546874Y-100534482D01*
X220546874Y-100534482D01*
G37*
X220546874Y-100534482D02*
X220496439Y-100464249D01*
X220410537Y-100382703D01*
X220347719Y-100334221D01*
X220156998Y-100185179D01*
X219992008Y-100030663D01*
X219863605Y-99881306D01*
X219819320Y-99816467D01*
X219735045Y-99680031D01*
X219623465Y-99732061D01*
X219555010Y-99767756D01*
X219529004Y-99797037D01*
X219535107Y-99833476D01*
X219539198Y-99842663D01*
X219604752Y-99946347D01*
X219709031Y-100067688D01*
X219841526Y-100196744D01*
X219991724Y-100323574D01*
X220149114Y-100438234D01*
X220210909Y-100477959D01*
X220304382Y-100535577D01*
X219787798Y-100776464D01*
X219871288Y-100955510D01*
X220587473Y-100621547D01*
X220546874Y-100534482D01*
G36*
X199982760Y-110173157D02*
X200046375Y-110068115D01*
X200067739Y-109933996D01*
X200045924Y-109774561D01*
X199979997Y-109593570D01*
X199927683Y-109491668D01*
X199823382Y-109333670D01*
X199717046Y-109230128D01*
X199605269Y-109179068D01*
X199484644Y-109178519D01*
X199418805Y-109196986D01*
X199336327Y-109234565D01*
X199272362Y-109276522D01*
X199261423Y-109287032D01*
X199201943Y-109394977D01*
X199185569Y-109533308D01*
X199211842Y-109696523D01*
X199280301Y-109879117D01*
X199310837Y-109939700D01*
X199514974Y-109844510D01*
X199433811Y-109670057D01*
X199392378Y-109534014D01*
X199390482Y-109434885D01*
X199427933Y-109371176D01*
X199452686Y-109355828D01*
X199507850Y-109343660D01*
X199563714Y-109368499D01*
X199603578Y-109401597D01*
X199658534Y-109463787D01*
X199712235Y-109552997D01*
X199771839Y-109681560D01*
X199786999Y-109717662D01*
X199840881Y-109859082D01*
X199866551Y-109960225D01*
X199864267Y-110029551D01*
X199834288Y-110075522D01*
X199798576Y-110097591D01*
X199740584Y-110112251D01*
X199686763Y-110094482D01*
X199630795Y-110038648D01*
X199566365Y-109939113D01*
X199514974Y-109844510D01*
X199310837Y-109939700D01*
X199316913Y-109951754D01*
X199414530Y-110108863D01*
X199512009Y-110213617D01*
X199614230Y-110269886D01*
X199726076Y-110281534D01*
X199732496Y-110280968D01*
X199877823Y-110245362D01*
X199982760Y-110173157D01*
X199982760Y-110173157D01*
G37*
X199982760Y-110173157D02*
X200046375Y-110068115D01*
X200067739Y-109933996D01*
X200045924Y-109774561D01*
X199979997Y-109593570D01*
X199927683Y-109491668D01*
X199823382Y-109333670D01*
X199717046Y-109230128D01*
X199605269Y-109179068D01*
X199484644Y-109178519D01*
X199418805Y-109196986D01*
X199336327Y-109234565D01*
X199272362Y-109276522D01*
X199261423Y-109287032D01*
X199201943Y-109394977D01*
X199185569Y-109533308D01*
X199211842Y-109696523D01*
X199280301Y-109879117D01*
X199310837Y-109939700D01*
X199514974Y-109844510D01*
X199433811Y-109670057D01*
X199392378Y-109534014D01*
X199390482Y-109434885D01*
X199427933Y-109371176D01*
X199452686Y-109355828D01*
X199507850Y-109343660D01*
X199563714Y-109368499D01*
X199603578Y-109401597D01*
X199658534Y-109463787D01*
X199712235Y-109552997D01*
X199771839Y-109681560D01*
X199786999Y-109717662D01*
X199840881Y-109859082D01*
X199866551Y-109960225D01*
X199864267Y-110029551D01*
X199834288Y-110075522D01*
X199798576Y-110097591D01*
X199740584Y-110112251D01*
X199686763Y-110094482D01*
X199630795Y-110038648D01*
X199566365Y-109939113D01*
X199514974Y-109844510D01*
X199310837Y-109939700D01*
X199316913Y-109951754D01*
X199414530Y-110108863D01*
X199512009Y-110213617D01*
X199614230Y-110269886D01*
X199726076Y-110281534D01*
X199732496Y-110280968D01*
X199877823Y-110245362D01*
X199982760Y-110173157D01*
G36*
X213740078Y-103776952D02*
X213831139Y-103692588D01*
X213886431Y-103589236D01*
X213898602Y-103475642D01*
X213873563Y-103385843D01*
X213822829Y-103320798D01*
X213748123Y-103269831D01*
X213669913Y-103243834D01*
X213616632Y-103249191D01*
X213608815Y-103239264D01*
X213629771Y-103195751D01*
X213641778Y-103176853D01*
X213695403Y-103055695D01*
X213693204Y-102940095D01*
X213635747Y-102833210D01*
X213568522Y-102769506D01*
X213467561Y-102724595D01*
X213346399Y-102719514D01*
X213220267Y-102750155D01*
X213104395Y-102812407D01*
X213014014Y-102902161D01*
X213000509Y-102922762D01*
X212957874Y-103015239D01*
X212939377Y-103102409D01*
X212945851Y-103170056D01*
X212978134Y-103203963D01*
X212983925Y-103205108D01*
X213040841Y-103199352D01*
X213102337Y-103176375D01*
X213147909Y-103146128D01*
X213158195Y-103120543D01*
X213158080Y-103065137D01*
X213187131Y-102995638D01*
X213233109Y-102936318D01*
X213260852Y-102916974D01*
X213342468Y-102904622D01*
X213416403Y-102934739D01*
X213470394Y-102994262D01*
X213492174Y-103070129D01*
X213473208Y-103143153D01*
X213417312Y-103206769D01*
X213363885Y-103242607D01*
X213316705Y-103273203D01*
X213313005Y-103313740D01*
X213328624Y-103352468D01*
X213360489Y-103403910D01*
X213399454Y-103410147D01*
X213437175Y-103395270D01*
X213524462Y-103378851D01*
X213602194Y-103404162D01*
X213657113Y-103460439D01*
X213675963Y-103536919D01*
X213666871Y-103581764D01*
X213628821Y-103639668D01*
X213597918Y-103662852D01*
X213536293Y-103670835D01*
X213468147Y-103654648D01*
X213423316Y-103621819D01*
X213421467Y-103618349D01*
X213392272Y-103612244D01*
X213338140Y-103629230D01*
X213279945Y-103659429D01*
X213238566Y-103692963D01*
X213230597Y-103708663D01*
X213250482Y-103754998D01*
X213308947Y-103801194D01*
X213388981Y-103837358D01*
X213473568Y-103853594D01*
X213480069Y-103853736D01*
X213620603Y-103833582D01*
X213740078Y-103776952D01*
X213740078Y-103776952D01*
G37*
X213740078Y-103776952D02*
X213831139Y-103692588D01*
X213886431Y-103589236D01*
X213898602Y-103475642D01*
X213873563Y-103385843D01*
X213822829Y-103320798D01*
X213748123Y-103269831D01*
X213669913Y-103243834D01*
X213616632Y-103249191D01*
X213608815Y-103239264D01*
X213629771Y-103195751D01*
X213641778Y-103176853D01*
X213695403Y-103055695D01*
X213693204Y-102940095D01*
X213635747Y-102833210D01*
X213568522Y-102769506D01*
X213467561Y-102724595D01*
X213346399Y-102719514D01*
X213220267Y-102750155D01*
X213104395Y-102812407D01*
X213014014Y-102902161D01*
X213000509Y-102922762D01*
X212957874Y-103015239D01*
X212939377Y-103102409D01*
X212945851Y-103170056D01*
X212978134Y-103203963D01*
X212983925Y-103205108D01*
X213040841Y-103199352D01*
X213102337Y-103176375D01*
X213147909Y-103146128D01*
X213158195Y-103120543D01*
X213158080Y-103065137D01*
X213187131Y-102995638D01*
X213233109Y-102936318D01*
X213260852Y-102916974D01*
X213342468Y-102904622D01*
X213416403Y-102934739D01*
X213470394Y-102994262D01*
X213492174Y-103070129D01*
X213473208Y-103143153D01*
X213417312Y-103206769D01*
X213363885Y-103242607D01*
X213316705Y-103273203D01*
X213313005Y-103313740D01*
X213328624Y-103352468D01*
X213360489Y-103403910D01*
X213399454Y-103410147D01*
X213437175Y-103395270D01*
X213524462Y-103378851D01*
X213602194Y-103404162D01*
X213657113Y-103460439D01*
X213675963Y-103536919D01*
X213666871Y-103581764D01*
X213628821Y-103639668D01*
X213597918Y-103662852D01*
X213536293Y-103670835D01*
X213468147Y-103654648D01*
X213423316Y-103621819D01*
X213421467Y-103618349D01*
X213392272Y-103612244D01*
X213338140Y-103629230D01*
X213279945Y-103659429D01*
X213238566Y-103692963D01*
X213230597Y-103708663D01*
X213250482Y-103754998D01*
X213308947Y-103801194D01*
X213388981Y-103837358D01*
X213473568Y-103853594D01*
X213480069Y-103853736D01*
X213620603Y-103833582D01*
X213740078Y-103776952D01*
G36*
X223152169Y-99176491D02*
X222742921Y-99367327D01*
X222688828Y-99251326D01*
X222658231Y-99180613D01*
X222654375Y-99147217D01*
X222678140Y-99138284D01*
X222696558Y-99138733D01*
X222807468Y-99118995D01*
X222903428Y-99055561D01*
X222973201Y-98961057D01*
X223005551Y-98848109D01*
X223004666Y-98792526D01*
X222967801Y-98662222D01*
X222896402Y-98541852D01*
X222803977Y-98453828D01*
X222798318Y-98450225D01*
X222686708Y-98412015D01*
X222558350Y-98416304D01*
X222429056Y-98459480D01*
X222314637Y-98537935D01*
X222286168Y-98567140D01*
X222243221Y-98636658D01*
X222219332Y-98716507D01*
X222216234Y-98789645D01*
X222235657Y-98839032D01*
X222257426Y-98850018D01*
X222345424Y-98835763D01*
X222414375Y-98777481D01*
X222443346Y-98712957D01*
X222483602Y-98631325D01*
X222547615Y-98592413D01*
X222622766Y-98595785D01*
X222696433Y-98641004D01*
X222754193Y-98723706D01*
X222777896Y-98817217D01*
X222766172Y-98901774D01*
X222726284Y-98965435D01*
X222665494Y-98996260D01*
X222595554Y-98984519D01*
X222534922Y-98980439D01*
X222451985Y-99004898D01*
X222442997Y-99008948D01*
X222340174Y-99056895D01*
X222429919Y-99206452D01*
X222490880Y-99312923D01*
X222549577Y-99423246D01*
X222577552Y-99480148D01*
X222635439Y-99604286D01*
X223223733Y-99329960D01*
X223152169Y-99176491D01*
X223152169Y-99176491D01*
G37*
X223152169Y-99176491D02*
X222742921Y-99367327D01*
X222688828Y-99251326D01*
X222658231Y-99180613D01*
X222654375Y-99147217D01*
X222678140Y-99138284D01*
X222696558Y-99138733D01*
X222807468Y-99118995D01*
X222903428Y-99055561D01*
X222973201Y-98961057D01*
X223005551Y-98848109D01*
X223004666Y-98792526D01*
X222967801Y-98662222D01*
X222896402Y-98541852D01*
X222803977Y-98453828D01*
X222798318Y-98450225D01*
X222686708Y-98412015D01*
X222558350Y-98416304D01*
X222429056Y-98459480D01*
X222314637Y-98537935D01*
X222286168Y-98567140D01*
X222243221Y-98636658D01*
X222219332Y-98716507D01*
X222216234Y-98789645D01*
X222235657Y-98839032D01*
X222257426Y-98850018D01*
X222345424Y-98835763D01*
X222414375Y-98777481D01*
X222443346Y-98712957D01*
X222483602Y-98631325D01*
X222547615Y-98592413D01*
X222622766Y-98595785D01*
X222696433Y-98641004D01*
X222754193Y-98723706D01*
X222777896Y-98817217D01*
X222766172Y-98901774D01*
X222726284Y-98965435D01*
X222665494Y-98996260D01*
X222595554Y-98984519D01*
X222534922Y-98980439D01*
X222451985Y-99004898D01*
X222442997Y-99008948D01*
X222340174Y-99056895D01*
X222429919Y-99206452D01*
X222490880Y-99312923D01*
X222549577Y-99423246D01*
X222577552Y-99480148D01*
X222635439Y-99604286D01*
X223223733Y-99329960D01*
X223152169Y-99176491D01*
G36*
X198786795Y-109697478D02*
X198901897Y-109643805D01*
X198971637Y-109608577D01*
X198999170Y-109580102D01*
X198994064Y-109542651D01*
X198981216Y-109513399D01*
X198945434Y-109436665D01*
X198254828Y-109758700D01*
X198290610Y-109835434D01*
X198314586Y-109879555D01*
X198342327Y-109894197D01*
X198390724Y-109881120D01*
X198454281Y-109852531D01*
X198582171Y-109792895D01*
X198737225Y-110125410D01*
X198794216Y-110249429D01*
X198840278Y-110353141D01*
X198871257Y-110426924D01*
X198882997Y-110461150D01*
X198882712Y-110462385D01*
X198851603Y-110462992D01*
X198782018Y-110459755D01*
X198723985Y-110455890D01*
X198574823Y-110444932D01*
X198611384Y-110523336D01*
X198639927Y-110568631D01*
X198683148Y-110595099D01*
X198757386Y-110610074D01*
X198818140Y-110616133D01*
X198957322Y-110615950D01*
X199069202Y-110592384D01*
X199084365Y-110586040D01*
X199180394Y-110541553D01*
X198786795Y-109697478D01*
X198786795Y-109697478D01*
G37*
X198786795Y-109697478D02*
X198901897Y-109643805D01*
X198971637Y-109608577D01*
X198999170Y-109580102D01*
X198994064Y-109542651D01*
X198981216Y-109513399D01*
X198945434Y-109436665D01*
X198254828Y-109758700D01*
X198290610Y-109835434D01*
X198314586Y-109879555D01*
X198342327Y-109894197D01*
X198390724Y-109881120D01*
X198454281Y-109852531D01*
X198582171Y-109792895D01*
X198737225Y-110125410D01*
X198794216Y-110249429D01*
X198840278Y-110353141D01*
X198871257Y-110426924D01*
X198882997Y-110461150D01*
X198882712Y-110462385D01*
X198851603Y-110462992D01*
X198782018Y-110459755D01*
X198723985Y-110455890D01*
X198574823Y-110444932D01*
X198611384Y-110523336D01*
X198639927Y-110568631D01*
X198683148Y-110595099D01*
X198757386Y-110610074D01*
X198818140Y-110616133D01*
X198957322Y-110615950D01*
X199069202Y-110592384D01*
X199084365Y-110586040D01*
X199180394Y-110541553D01*
X198786795Y-109697478D01*
G36*
X203390839Y-107550577D02*
X203505940Y-107496904D01*
X203575680Y-107461676D01*
X203603214Y-107433201D01*
X203598108Y-107395750D01*
X203585260Y-107366498D01*
X203549478Y-107289764D01*
X202858871Y-107611799D01*
X202894653Y-107688533D01*
X202918629Y-107732655D01*
X202946371Y-107747296D01*
X202994768Y-107734219D01*
X203058325Y-107705631D01*
X203186215Y-107645995D01*
X203341269Y-107978509D01*
X203398259Y-108102528D01*
X203444321Y-108206241D01*
X203475301Y-108280023D01*
X203487040Y-108314249D01*
X203486756Y-108315485D01*
X203455647Y-108316092D01*
X203386062Y-108312854D01*
X203328028Y-108308989D01*
X203178867Y-108298032D01*
X203215427Y-108376435D01*
X203243971Y-108421730D01*
X203287191Y-108448198D01*
X203361429Y-108463173D01*
X203422183Y-108469232D01*
X203561365Y-108469049D01*
X203673245Y-108445484D01*
X203688409Y-108439139D01*
X203784438Y-108394652D01*
X203390839Y-107550577D01*
X203390839Y-107550577D01*
G37*
X203390839Y-107550577D02*
X203505940Y-107496904D01*
X203575680Y-107461676D01*
X203603214Y-107433201D01*
X203598108Y-107395750D01*
X203585260Y-107366498D01*
X203549478Y-107289764D01*
X202858871Y-107611799D01*
X202894653Y-107688533D01*
X202918629Y-107732655D01*
X202946371Y-107747296D01*
X202994768Y-107734219D01*
X203058325Y-107705631D01*
X203186215Y-107645995D01*
X203341269Y-107978509D01*
X203398259Y-108102528D01*
X203444321Y-108206241D01*
X203475301Y-108280023D01*
X203487040Y-108314249D01*
X203486756Y-108315485D01*
X203455647Y-108316092D01*
X203386062Y-108312854D01*
X203328028Y-108308989D01*
X203178867Y-108298032D01*
X203215427Y-108376435D01*
X203243971Y-108421730D01*
X203287191Y-108448198D01*
X203361429Y-108463173D01*
X203422183Y-108469232D01*
X203561365Y-108469049D01*
X203673245Y-108445484D01*
X203688409Y-108439139D01*
X203784438Y-108394652D01*
X203390839Y-107550577D01*
G36*
X204209336Y-107168906D02*
X204324437Y-107115233D01*
X204394177Y-107080005D01*
X204421710Y-107051530D01*
X204416604Y-107014079D01*
X204403756Y-106984827D01*
X204367975Y-106908093D01*
X203677368Y-107230128D01*
X203713150Y-107306862D01*
X203737126Y-107350983D01*
X203764868Y-107365624D01*
X203813265Y-107352548D01*
X203876821Y-107323960D01*
X204004711Y-107264323D01*
X204159765Y-107596838D01*
X204216756Y-107720857D01*
X204262818Y-107824569D01*
X204293797Y-107898352D01*
X204305537Y-107932578D01*
X204305252Y-107933813D01*
X204274144Y-107934420D01*
X204204558Y-107931183D01*
X204146525Y-107927318D01*
X203997364Y-107916360D01*
X204033924Y-107994764D01*
X204062468Y-108040059D01*
X204105689Y-108066527D01*
X204179926Y-108081502D01*
X204240680Y-108087561D01*
X204379862Y-108087378D01*
X204491742Y-108063812D01*
X204506905Y-108057468D01*
X204602934Y-108012981D01*
X204209336Y-107168906D01*
X204209336Y-107168906D01*
G37*
X204209336Y-107168906D02*
X204324437Y-107115233D01*
X204394177Y-107080005D01*
X204421710Y-107051530D01*
X204416604Y-107014079D01*
X204403756Y-106984827D01*
X204367975Y-106908093D01*
X203677368Y-107230128D01*
X203713150Y-107306862D01*
X203737126Y-107350983D01*
X203764868Y-107365624D01*
X203813265Y-107352548D01*
X203876821Y-107323960D01*
X204004711Y-107264323D01*
X204159765Y-107596838D01*
X204216756Y-107720857D01*
X204262818Y-107824569D01*
X204293797Y-107898352D01*
X204305537Y-107932578D01*
X204305252Y-107933813D01*
X204274144Y-107934420D01*
X204204558Y-107931183D01*
X204146525Y-107927318D01*
X203997364Y-107916360D01*
X204033924Y-107994764D01*
X204062468Y-108040059D01*
X204105689Y-108066527D01*
X204179926Y-108081502D01*
X204240680Y-108087561D01*
X204379862Y-108087378D01*
X204491742Y-108063812D01*
X204506905Y-108057468D01*
X204602934Y-108012981D01*
X204209336Y-107168906D01*
G36*
X207994883Y-105403676D02*
X208109984Y-105350003D01*
X208179724Y-105314775D01*
X208207257Y-105286300D01*
X208202152Y-105248849D01*
X208189303Y-105219597D01*
X208153522Y-105142863D01*
X207462915Y-105464898D01*
X207498697Y-105541633D01*
X207522673Y-105585754D01*
X207550415Y-105600395D01*
X207598812Y-105587319D01*
X207662368Y-105558730D01*
X207790258Y-105499094D01*
X207945312Y-105831608D01*
X208002303Y-105955628D01*
X208048365Y-106059340D01*
X208079344Y-106133122D01*
X208091084Y-106167349D01*
X208090799Y-106168584D01*
X208059690Y-106169191D01*
X207990105Y-106165953D01*
X207932072Y-106162088D01*
X207782911Y-106151131D01*
X207819471Y-106229535D01*
X207848015Y-106274829D01*
X207891235Y-106301298D01*
X207965473Y-106316272D01*
X208026227Y-106322331D01*
X208165409Y-106322148D01*
X208277289Y-106298583D01*
X208292452Y-106292238D01*
X208388481Y-106247751D01*
X207994883Y-105403676D01*
X207994883Y-105403676D01*
G37*
X207994883Y-105403676D02*
X208109984Y-105350003D01*
X208179724Y-105314775D01*
X208207257Y-105286300D01*
X208202152Y-105248849D01*
X208189303Y-105219597D01*
X208153522Y-105142863D01*
X207462915Y-105464898D01*
X207498697Y-105541633D01*
X207522673Y-105585754D01*
X207550415Y-105600395D01*
X207598812Y-105587319D01*
X207662368Y-105558730D01*
X207790258Y-105499094D01*
X207945312Y-105831608D01*
X208002303Y-105955628D01*
X208048365Y-106059340D01*
X208079344Y-106133122D01*
X208091084Y-106167349D01*
X208090799Y-106168584D01*
X208059690Y-106169191D01*
X207990105Y-106165953D01*
X207932072Y-106162088D01*
X207782911Y-106151131D01*
X207819471Y-106229535D01*
X207848015Y-106274829D01*
X207891235Y-106301298D01*
X207965473Y-106316272D01*
X208026227Y-106322331D01*
X208165409Y-106322148D01*
X208277289Y-106298583D01*
X208292452Y-106292238D01*
X208388481Y-106247751D01*
X207994883Y-105403676D01*
G36*
X209180368Y-105884637D02*
X209260153Y-105786365D01*
X209260355Y-105785991D01*
X209286732Y-105684786D01*
X209275008Y-105568702D01*
X209228435Y-105461287D01*
X209212565Y-105439576D01*
X209160930Y-105400326D01*
X209065834Y-105351031D01*
X208938141Y-105296964D01*
X208856494Y-105266588D01*
X208553263Y-105158868D01*
X208785186Y-105041768D01*
X209017108Y-104924667D01*
X208946440Y-104773119D01*
X208255834Y-105095154D01*
X208289951Y-105168319D01*
X208355230Y-105248670D01*
X208476022Y-105328417D01*
X208652685Y-105407767D01*
X208786093Y-105455419D01*
X208920293Y-105505331D01*
X209007161Y-105553515D01*
X209055048Y-105607488D01*
X209072303Y-105674769D01*
X209072216Y-105712990D01*
X209045309Y-105770185D01*
X208985453Y-105806477D01*
X208912993Y-105817693D01*
X208848272Y-105799660D01*
X208817423Y-105765250D01*
X208787790Y-105760959D01*
X208727237Y-105779125D01*
X208704035Y-105789207D01*
X208637109Y-105828124D01*
X208619637Y-105865423D01*
X208652355Y-105909805D01*
X208718347Y-105958378D01*
X208824533Y-105997626D01*
X208947182Y-105995159D01*
X209070919Y-105955866D01*
X209180368Y-105884637D01*
X209180368Y-105884637D01*
G37*
X209180368Y-105884637D02*
X209260153Y-105786365D01*
X209260355Y-105785991D01*
X209286732Y-105684786D01*
X209275008Y-105568702D01*
X209228435Y-105461287D01*
X209212565Y-105439576D01*
X209160930Y-105400326D01*
X209065834Y-105351031D01*
X208938141Y-105296964D01*
X208856494Y-105266588D01*
X208553263Y-105158868D01*
X208785186Y-105041768D01*
X209017108Y-104924667D01*
X208946440Y-104773119D01*
X208255834Y-105095154D01*
X208289951Y-105168319D01*
X208355230Y-105248670D01*
X208476022Y-105328417D01*
X208652685Y-105407767D01*
X208786093Y-105455419D01*
X208920293Y-105505331D01*
X209007161Y-105553515D01*
X209055048Y-105607488D01*
X209072303Y-105674769D01*
X209072216Y-105712990D01*
X209045309Y-105770185D01*
X208985453Y-105806477D01*
X208912993Y-105817693D01*
X208848272Y-105799660D01*
X208817423Y-105765250D01*
X208787790Y-105760959D01*
X208727237Y-105779125D01*
X208704035Y-105789207D01*
X208637109Y-105828124D01*
X208619637Y-105865423D01*
X208652355Y-105909805D01*
X208718347Y-105958378D01*
X208824533Y-105997626D01*
X208947182Y-105995159D01*
X209070919Y-105955866D01*
X209180368Y-105884637D01*
G36*
X212598926Y-103256775D02*
X212714027Y-103203103D01*
X212783767Y-103167875D01*
X212811301Y-103139400D01*
X212806195Y-103101949D01*
X212793347Y-103072697D01*
X212757565Y-102995962D01*
X212066959Y-103317997D01*
X212102740Y-103394732D01*
X212126716Y-103438853D01*
X212154458Y-103453495D01*
X212202855Y-103440418D01*
X212266412Y-103411829D01*
X212394302Y-103352193D01*
X212549356Y-103684707D01*
X212606346Y-103808727D01*
X212652409Y-103912439D01*
X212683388Y-103986222D01*
X212695128Y-104020448D01*
X212694843Y-104021683D01*
X212663734Y-104022290D01*
X212594149Y-104019053D01*
X212536115Y-104015188D01*
X212386954Y-104004230D01*
X212423514Y-104082634D01*
X212452058Y-104127929D01*
X212495278Y-104154397D01*
X212569517Y-104169371D01*
X212630270Y-104175430D01*
X212769452Y-104175247D01*
X212881332Y-104151682D01*
X212896496Y-104145337D01*
X212992525Y-104100850D01*
X212598926Y-103256775D01*
X212598926Y-103256775D01*
G37*
X212598926Y-103256775D02*
X212714027Y-103203103D01*
X212783767Y-103167875D01*
X212811301Y-103139400D01*
X212806195Y-103101949D01*
X212793347Y-103072697D01*
X212757565Y-102995962D01*
X212066959Y-103317997D01*
X212102740Y-103394732D01*
X212126716Y-103438853D01*
X212154458Y-103453495D01*
X212202855Y-103440418D01*
X212266412Y-103411829D01*
X212394302Y-103352193D01*
X212549356Y-103684707D01*
X212606346Y-103808727D01*
X212652409Y-103912439D01*
X212683388Y-103986222D01*
X212695128Y-104020448D01*
X212694843Y-104021683D01*
X212663734Y-104022290D01*
X212594149Y-104019053D01*
X212536115Y-104015188D01*
X212386954Y-104004230D01*
X212423514Y-104082634D01*
X212452058Y-104127929D01*
X212495278Y-104154397D01*
X212569517Y-104169371D01*
X212630270Y-104175430D01*
X212769452Y-104175247D01*
X212881332Y-104151682D01*
X212896496Y-104145337D01*
X212992525Y-104100850D01*
X212598926Y-103256775D01*
G36*
X217202970Y-101109874D02*
X217318071Y-101056202D01*
X217387811Y-101020974D01*
X217415344Y-100992499D01*
X217410239Y-100955048D01*
X217397391Y-100925796D01*
X217361609Y-100849062D01*
X216671002Y-101171097D01*
X216706784Y-101247831D01*
X216730760Y-101291952D01*
X216758502Y-101306594D01*
X216806899Y-101293517D01*
X216870455Y-101264928D01*
X216998345Y-101205292D01*
X217153399Y-101537807D01*
X217210390Y-101661826D01*
X217256452Y-101765538D01*
X217287431Y-101839321D01*
X217299171Y-101873547D01*
X217298886Y-101874782D01*
X217267777Y-101875389D01*
X217198192Y-101872152D01*
X217140159Y-101868287D01*
X216990998Y-101857329D01*
X217027558Y-101935733D01*
X217056102Y-101981028D01*
X217099322Y-102007496D01*
X217173560Y-102022471D01*
X217234314Y-102028530D01*
X217373496Y-102028347D01*
X217485376Y-102004781D01*
X217500539Y-101998436D01*
X217596568Y-101953950D01*
X217202970Y-101109874D01*
X217202970Y-101109874D01*
G37*
X217202970Y-101109874D02*
X217318071Y-101056202D01*
X217387811Y-101020974D01*
X217415344Y-100992499D01*
X217410239Y-100955048D01*
X217397391Y-100925796D01*
X217361609Y-100849062D01*
X216671002Y-101171097D01*
X216706784Y-101247831D01*
X216730760Y-101291952D01*
X216758502Y-101306594D01*
X216806899Y-101293517D01*
X216870455Y-101264928D01*
X216998345Y-101205292D01*
X217153399Y-101537807D01*
X217210390Y-101661826D01*
X217256452Y-101765538D01*
X217287431Y-101839321D01*
X217299171Y-101873547D01*
X217298886Y-101874782D01*
X217267777Y-101875389D01*
X217198192Y-101872152D01*
X217140159Y-101868287D01*
X216990998Y-101857329D01*
X217027558Y-101935733D01*
X217056102Y-101981028D01*
X217099322Y-102007496D01*
X217173560Y-102022471D01*
X217234314Y-102028530D01*
X217373496Y-102028347D01*
X217485376Y-102004781D01*
X217500539Y-101998436D01*
X217596568Y-101953950D01*
X217202970Y-101109874D01*
G36*
X218244774Y-100873191D02*
X218308720Y-100843373D01*
X218350568Y-100813805D01*
X218350916Y-100770903D01*
X218336882Y-100736821D01*
X218304428Y-100685192D01*
X218265817Y-100678772D01*
X218237156Y-100689905D01*
X218193353Y-100703532D01*
X218162760Y-100685731D01*
X218129679Y-100626311D01*
X218125502Y-100617411D01*
X218092503Y-100553071D01*
X218061705Y-100532005D01*
X218011455Y-100546333D01*
X217975481Y-100562808D01*
X217911141Y-100595807D01*
X217890075Y-100626606D01*
X217904403Y-100676856D01*
X217920878Y-100712829D01*
X217968587Y-100815142D01*
X217508182Y-101029832D01*
X217544032Y-101106711D01*
X217582415Y-101155383D01*
X217616195Y-101183431D01*
X217765352Y-101113877D01*
X217784898Y-101095381D01*
X217842201Y-101062439D01*
X217899471Y-101034209D01*
X218040150Y-100968609D01*
X218245926Y-101409897D01*
X218008919Y-101268921D01*
X217907263Y-101207478D01*
X217825985Y-101156507D01*
X217775930Y-101122911D01*
X217765352Y-101113877D01*
X217616195Y-101183431D01*
X217661627Y-101221154D01*
X217785091Y-101306597D01*
X217939624Y-101404128D01*
X218299365Y-101624667D01*
X218421160Y-101568654D01*
X218542955Y-101512642D01*
X218244774Y-100873191D01*
X218244774Y-100873191D01*
G37*
X218244774Y-100873191D02*
X218308720Y-100843373D01*
X218350568Y-100813805D01*
X218350916Y-100770903D01*
X218336882Y-100736821D01*
X218304428Y-100685192D01*
X218265817Y-100678772D01*
X218237156Y-100689905D01*
X218193353Y-100703532D01*
X218162760Y-100685731D01*
X218129679Y-100626311D01*
X218125502Y-100617411D01*
X218092503Y-100553071D01*
X218061705Y-100532005D01*
X218011455Y-100546333D01*
X217975481Y-100562808D01*
X217911141Y-100595807D01*
X217890075Y-100626606D01*
X217904403Y-100676856D01*
X217920878Y-100712829D01*
X217968587Y-100815142D01*
X217508182Y-101029832D01*
X217544032Y-101106711D01*
X217582415Y-101155383D01*
X217616195Y-101183431D01*
X217765352Y-101113877D01*
X217784898Y-101095381D01*
X217842201Y-101062439D01*
X217899471Y-101034209D01*
X218040150Y-100968609D01*
X218245926Y-101409897D01*
X218008919Y-101268921D01*
X217907263Y-101207478D01*
X217825985Y-101156507D01*
X217775930Y-101122911D01*
X217765352Y-101113877D01*
X217616195Y-101183431D01*
X217661627Y-101221154D01*
X217785091Y-101306597D01*
X217939624Y-101404128D01*
X218299365Y-101624667D01*
X218421160Y-101568654D01*
X218542955Y-101512642D01*
X218244774Y-100873191D01*
G36*
X221858169Y-98939119D02*
X221973270Y-98885447D01*
X222043011Y-98850218D01*
X222070545Y-98821743D01*
X222065438Y-98784293D01*
X222052590Y-98755041D01*
X222016808Y-98678307D01*
X221326201Y-99000342D01*
X221361983Y-99077076D01*
X221385959Y-99121197D01*
X221413702Y-99135838D01*
X221462098Y-99122762D01*
X221525655Y-99094173D01*
X221653545Y-99034537D01*
X221808599Y-99367051D01*
X221865590Y-99491071D01*
X221911651Y-99594783D01*
X221942631Y-99668566D01*
X221954370Y-99702792D01*
X221954086Y-99704027D01*
X221922977Y-99704634D01*
X221853393Y-99701396D01*
X221795358Y-99697532D01*
X221646197Y-99686574D01*
X221682757Y-99764978D01*
X221711301Y-99810273D01*
X221754522Y-99836741D01*
X221828760Y-99851715D01*
X221889513Y-99857775D01*
X222028696Y-99857591D01*
X222140575Y-99834026D01*
X222155738Y-99827681D01*
X222251768Y-99783195D01*
X221858169Y-98939119D01*
X221858169Y-98939119D01*
G37*
X221858169Y-98939119D02*
X221973270Y-98885447D01*
X222043011Y-98850218D01*
X222070545Y-98821743D01*
X222065438Y-98784293D01*
X222052590Y-98755041D01*
X222016808Y-98678307D01*
X221326201Y-99000342D01*
X221361983Y-99077076D01*
X221385959Y-99121197D01*
X221413702Y-99135838D01*
X221462098Y-99122762D01*
X221525655Y-99094173D01*
X221653545Y-99034537D01*
X221808599Y-99367051D01*
X221865590Y-99491071D01*
X221911651Y-99594783D01*
X221942631Y-99668566D01*
X221954370Y-99702792D01*
X221954086Y-99704027D01*
X221922977Y-99704634D01*
X221853393Y-99701396D01*
X221795358Y-99697532D01*
X221646197Y-99686574D01*
X221682757Y-99764978D01*
X221711301Y-99810273D01*
X221754522Y-99836741D01*
X221828760Y-99851715D01*
X221889513Y-99857775D01*
X222028696Y-99857591D01*
X222140575Y-99834026D01*
X222155738Y-99827681D01*
X222251768Y-99783195D01*
X221858169Y-98939119D01*
G36*
X73232403Y-101016520D02*
X73245509Y-101003788D01*
X73264392Y-100976670D01*
X73290520Y-100932156D01*
X73325359Y-100867233D01*
X73370378Y-100778889D01*
X73427042Y-100664115D01*
X73496819Y-100519896D01*
X73581175Y-100343222D01*
X73681577Y-100131081D01*
X73799494Y-99880462D01*
X73936392Y-99588352D01*
X74093737Y-99251741D01*
X74272996Y-98867616D01*
X74317534Y-98772115D01*
X74501895Y-98376551D01*
X74663633Y-98029020D01*
X74804108Y-97726464D01*
X74924687Y-97465821D01*
X75026732Y-97244033D01*
X75111610Y-97058039D01*
X75180683Y-96904780D01*
X75235315Y-96781197D01*
X75276869Y-96684230D01*
X75306712Y-96610818D01*
X75326208Y-96557903D01*
X75336718Y-96522425D01*
X75339610Y-96501324D01*
X75336244Y-96491541D01*
X75334727Y-96490569D01*
X75325931Y-96491928D01*
X75312825Y-96504660D01*
X75293942Y-96531777D01*
X75267814Y-96576292D01*
X75232974Y-96641215D01*
X75187956Y-96729557D01*
X75131292Y-96844333D01*
X75061516Y-96988551D01*
X74977159Y-97165225D01*
X74876756Y-97377366D01*
X74758839Y-97627985D01*
X74621943Y-97920095D01*
X74464597Y-98256707D01*
X74285338Y-98640832D01*
X74240800Y-98736333D01*
X74056438Y-99131896D01*
X73894702Y-99479427D01*
X73754226Y-99781983D01*
X73633647Y-100042627D01*
X73531601Y-100264415D01*
X73446724Y-100450409D01*
X73377652Y-100603667D01*
X73323020Y-100727250D01*
X73281464Y-100824218D01*
X73251621Y-100897629D01*
X73232127Y-100950544D01*
X73221615Y-100986022D01*
X73218725Y-101007123D01*
X73222090Y-101016907D01*
X73223608Y-101017878D01*
X73232403Y-101016520D01*
X73232403Y-101016520D01*
G37*
X73232403Y-101016520D02*
X73245509Y-101003788D01*
X73264392Y-100976670D01*
X73290520Y-100932156D01*
X73325359Y-100867233D01*
X73370378Y-100778889D01*
X73427042Y-100664115D01*
X73496819Y-100519896D01*
X73581175Y-100343222D01*
X73681577Y-100131081D01*
X73799494Y-99880462D01*
X73936392Y-99588352D01*
X74093737Y-99251741D01*
X74272996Y-98867616D01*
X74317534Y-98772115D01*
X74501895Y-98376551D01*
X74663633Y-98029020D01*
X74804108Y-97726464D01*
X74924687Y-97465821D01*
X75026732Y-97244033D01*
X75111610Y-97058039D01*
X75180683Y-96904780D01*
X75235315Y-96781197D01*
X75276869Y-96684230D01*
X75306712Y-96610818D01*
X75326208Y-96557903D01*
X75336718Y-96522425D01*
X75339610Y-96501324D01*
X75336244Y-96491541D01*
X75334727Y-96490569D01*
X75325931Y-96491928D01*
X75312825Y-96504660D01*
X75293942Y-96531777D01*
X75267814Y-96576292D01*
X75232974Y-96641215D01*
X75187956Y-96729557D01*
X75131292Y-96844333D01*
X75061516Y-96988551D01*
X74977159Y-97165225D01*
X74876756Y-97377366D01*
X74758839Y-97627985D01*
X74621943Y-97920095D01*
X74464597Y-98256707D01*
X74285338Y-98640832D01*
X74240800Y-98736333D01*
X74056438Y-99131896D01*
X73894702Y-99479427D01*
X73754226Y-99781983D01*
X73633647Y-100042627D01*
X73531601Y-100264415D01*
X73446724Y-100450409D01*
X73377652Y-100603667D01*
X73323020Y-100727250D01*
X73281464Y-100824218D01*
X73251621Y-100897629D01*
X73232127Y-100950544D01*
X73221615Y-100986022D01*
X73218725Y-101007123D01*
X73222090Y-101016907D01*
X73223608Y-101017878D01*
X73232403Y-101016520D01*
G36*
X77675115Y-97581910D02*
X77444913Y-97474565D01*
X75333794Y-102001874D01*
X75563996Y-102109219D01*
X77675115Y-97581910D01*
X77675115Y-97581910D01*
G37*
X77675115Y-97581910D02*
X77444913Y-97474565D01*
X75333794Y-102001874D01*
X75563996Y-102109219D01*
X77675115Y-97581910D01*
G36*
X79977137Y-98655360D02*
X79746935Y-98548015D01*
X77635816Y-103075324D01*
X77866018Y-103182670D01*
X79977137Y-98655360D01*
X79977137Y-98655360D01*
G37*
X79977137Y-98655360D02*
X79746935Y-98548015D01*
X77635816Y-103075324D01*
X77866018Y-103182670D01*
X79977137Y-98655360D01*
G36*
X82279159Y-99728811D02*
X82048957Y-99621466D01*
X79937838Y-104148775D01*
X80168040Y-104256120D01*
X82279159Y-99728811D01*
X82279159Y-99728811D01*
G37*
X82279159Y-99728811D02*
X82048957Y-99621466D01*
X79937838Y-104148775D01*
X80168040Y-104256120D01*
X82279159Y-99728811D01*
G36*
X84581180Y-100802261D02*
X84350978Y-100694916D01*
X82239859Y-105222225D01*
X82470062Y-105329570D01*
X84581180Y-100802261D01*
X84581180Y-100802261D01*
G37*
X84581180Y-100802261D02*
X84350978Y-100694916D01*
X82239859Y-105222225D01*
X82470062Y-105329570D01*
X84581180Y-100802261D01*
G36*
X86883202Y-101875711D02*
X86653000Y-101768366D01*
X84541881Y-106295676D01*
X84772083Y-106403021D01*
X86883202Y-101875711D01*
X86883202Y-101875711D01*
G37*
X86883202Y-101875711D02*
X86653000Y-101768366D01*
X84541881Y-106295676D01*
X84772083Y-106403021D01*
X86883202Y-101875711D01*
G36*
X89185224Y-102949162D02*
X88955022Y-102841817D01*
X86843903Y-107369126D01*
X87074105Y-107476471D01*
X89185224Y-102949162D01*
X89185224Y-102949162D01*
G37*
X89185224Y-102949162D02*
X88955022Y-102841817D01*
X86843903Y-107369126D01*
X87074105Y-107476471D01*
X89185224Y-102949162D01*
G36*
X91512824Y-104034539D02*
X91257044Y-103915267D01*
X89145925Y-108442576D01*
X89401705Y-108561849D01*
X91512824Y-104034539D01*
X91512824Y-104034539D01*
G37*
X91512824Y-104034539D02*
X91257044Y-103915267D01*
X89145925Y-108442576D01*
X89401705Y-108561849D01*
X91512824Y-104034539D01*
G36*
X93814845Y-105107990D02*
X93559065Y-104988718D01*
X91447946Y-109516027D01*
X91703726Y-109635299D01*
X93814845Y-105107990D01*
X93814845Y-105107990D01*
G37*
X93814845Y-105107990D02*
X93559065Y-104988718D01*
X91447946Y-109516027D01*
X91703726Y-109635299D01*
X93814845Y-105107990D01*
G36*
X96116867Y-106181440D02*
X95861087Y-106062168D01*
X93749968Y-110589477D01*
X94005748Y-110708749D01*
X96116867Y-106181440D01*
X96116867Y-106181440D01*
G37*
X96116867Y-106181440D02*
X95861087Y-106062168D01*
X93749968Y-110589477D01*
X94005748Y-110708749D01*
X96116867Y-106181440D01*
G36*
X98418889Y-107254891D02*
X98188687Y-107147545D01*
X96077568Y-111674855D01*
X96307770Y-111782200D01*
X98418889Y-107254891D01*
X98418889Y-107254891D01*
G37*
X98418889Y-107254891D02*
X98188687Y-107147545D01*
X96077568Y-111674855D01*
X96307770Y-111782200D01*
X98418889Y-107254891D01*
G36*
X100720911Y-108328341D02*
X100490709Y-108220996D01*
X98379590Y-112748305D01*
X98609792Y-112855650D01*
X100720911Y-108328341D01*
X100720911Y-108328341D01*
G37*
X100720911Y-108328341D02*
X100490709Y-108220996D01*
X98379590Y-112748305D01*
X98609792Y-112855650D01*
X100720911Y-108328341D01*
G36*
X103048511Y-109413719D02*
X102792730Y-109294446D01*
X100681611Y-113821755D01*
X100937392Y-113941028D01*
X103048511Y-109413719D01*
X103048511Y-109413719D01*
G37*
X103048511Y-109413719D02*
X102792730Y-109294446D01*
X100681611Y-113821755D01*
X100937392Y-113941028D01*
X103048511Y-109413719D01*
G36*
X105350533Y-110487169D02*
X105120331Y-110379824D01*
X103009212Y-114907133D01*
X103239414Y-115014478D01*
X105350533Y-110487169D01*
X105350533Y-110487169D01*
G37*
X105350533Y-110487169D02*
X105120331Y-110379824D01*
X103009212Y-114907133D01*
X103239414Y-115014478D01*
X105350533Y-110487169D01*
G36*
X107678133Y-111572547D02*
X107447930Y-111465202D01*
X105336812Y-115992511D01*
X105567014Y-116099856D01*
X107678133Y-111572547D01*
X107678133Y-111572547D01*
G37*
X107678133Y-111572547D02*
X107447930Y-111465202D01*
X105336812Y-115992511D01*
X105567014Y-116099856D01*
X107678133Y-111572547D01*
G36*
X109852264Y-112586361D02*
X109698796Y-112514797D01*
X107587677Y-117042107D01*
X107741145Y-117113670D01*
X109852264Y-112586361D01*
X109852264Y-112586361D01*
G37*
X109852264Y-112586361D02*
X109698796Y-112514797D01*
X107587677Y-117042107D01*
X107741145Y-117113670D01*
X109852264Y-112586361D01*
G36*
X77623570Y-100648105D02*
X77687153Y-100654269D01*
X77795716Y-100639408D01*
X77890027Y-100592382D01*
X77976457Y-100507146D01*
X78061378Y-100377654D01*
X78137908Y-100226616D01*
X78196427Y-100096976D01*
X78232950Y-100002577D01*
X78251783Y-99928719D01*
X78257237Y-99860703D01*
X78256224Y-99822931D01*
X78242422Y-99724640D01*
X78215970Y-99638167D01*
X78204114Y-99614838D01*
X78130610Y-99536261D01*
X78023870Y-99467764D01*
X77907048Y-99421976D01*
X77828867Y-99410148D01*
X77752874Y-99424099D01*
X77668685Y-99459658D01*
X77599786Y-99505158D01*
X77572954Y-99537261D01*
X77590751Y-99558036D01*
X77641419Y-99597324D01*
X77665998Y-99614416D01*
X77738139Y-99655895D01*
X77793480Y-99663755D01*
X77838883Y-99650515D01*
X77920661Y-99640038D01*
X77983157Y-99675489D01*
X78021473Y-99748218D01*
X78030713Y-99849575D01*
X78011124Y-99954864D01*
X77980743Y-100055032D01*
X77916409Y-99961282D01*
X77830221Y-99877115D01*
X77719034Y-99824989D01*
X77603087Y-99812811D01*
X77558318Y-99821366D01*
X77443182Y-99881651D01*
X77350149Y-99978963D01*
X77308830Y-100055520D01*
X77530369Y-100158825D01*
X77586832Y-100082388D01*
X77660293Y-100031192D01*
X77740225Y-100017373D01*
X77779840Y-100028506D01*
X77827426Y-100071832D01*
X77858297Y-100127372D01*
X77865205Y-100221746D01*
X77828062Y-100317421D01*
X77755661Y-100395855D01*
X77720887Y-100417204D01*
X77629106Y-100442268D01*
X77558157Y-100415046D01*
X77510546Y-100338890D01*
X77501431Y-100248372D01*
X77530369Y-100158825D01*
X77308830Y-100055520D01*
X77284973Y-100099723D01*
X77253406Y-100230357D01*
X77261203Y-100357285D01*
X77295763Y-100440953D01*
X77379377Y-100532013D01*
X77496279Y-100605224D01*
X77623570Y-100648105D01*
X77623570Y-100648105D01*
G37*
X77623570Y-100648105D02*
X77687153Y-100654269D01*
X77795716Y-100639408D01*
X77890027Y-100592382D01*
X77976457Y-100507146D01*
X78061378Y-100377654D01*
X78137908Y-100226616D01*
X78196427Y-100096976D01*
X78232950Y-100002577D01*
X78251783Y-99928719D01*
X78257237Y-99860703D01*
X78256224Y-99822931D01*
X78242422Y-99724640D01*
X78215970Y-99638167D01*
X78204114Y-99614838D01*
X78130610Y-99536261D01*
X78023870Y-99467764D01*
X77907048Y-99421976D01*
X77828867Y-99410148D01*
X77752874Y-99424099D01*
X77668685Y-99459658D01*
X77599786Y-99505158D01*
X77572954Y-99537261D01*
X77590751Y-99558036D01*
X77641419Y-99597324D01*
X77665998Y-99614416D01*
X77738139Y-99655895D01*
X77793480Y-99663755D01*
X77838883Y-99650515D01*
X77920661Y-99640038D01*
X77983157Y-99675489D01*
X78021473Y-99748218D01*
X78030713Y-99849575D01*
X78011124Y-99954864D01*
X77980743Y-100055032D01*
X77916409Y-99961282D01*
X77830221Y-99877115D01*
X77719034Y-99824989D01*
X77603087Y-99812811D01*
X77558318Y-99821366D01*
X77443182Y-99881651D01*
X77350149Y-99978963D01*
X77308830Y-100055520D01*
X77530369Y-100158825D01*
X77586832Y-100082388D01*
X77660293Y-100031192D01*
X77740225Y-100017373D01*
X77779840Y-100028506D01*
X77827426Y-100071832D01*
X77858297Y-100127372D01*
X77865205Y-100221746D01*
X77828062Y-100317421D01*
X77755661Y-100395855D01*
X77720887Y-100417204D01*
X77629106Y-100442268D01*
X77558157Y-100415046D01*
X77510546Y-100338890D01*
X77501431Y-100248372D01*
X77530369Y-100158825D01*
X77308830Y-100055520D01*
X77284973Y-100099723D01*
X77253406Y-100230357D01*
X77261203Y-100357285D01*
X77295763Y-100440953D01*
X77379377Y-100532013D01*
X77496279Y-100605224D01*
X77623570Y-100648105D01*
G36*
X84496357Y-103866829D02*
X84625407Y-103883548D01*
X84747259Y-103858754D01*
X84799312Y-103830525D01*
X84886543Y-103741483D01*
X84930664Y-103631968D01*
X84928898Y-103516602D01*
X84879102Y-103410834D01*
X84821242Y-103335851D01*
X84916084Y-103339486D01*
X85039907Y-103320211D01*
X85133794Y-103253602D01*
X85194048Y-103142304D01*
X85194626Y-103140467D01*
X85211689Y-103050093D01*
X85209709Y-102968112D01*
X85206738Y-102955636D01*
X85144284Y-102839176D01*
X85039265Y-102741320D01*
X84904624Y-102670427D01*
X84753303Y-102634861D01*
X84706347Y-102632328D01*
X84579086Y-102652628D01*
X84490781Y-102704922D01*
X84436681Y-102755083D01*
X84409260Y-102791245D01*
X84408412Y-102797640D01*
X84437569Y-102830560D01*
X84492662Y-102868160D01*
X84554862Y-102900394D01*
X84605337Y-102917217D01*
X84624561Y-102912955D01*
X84669730Y-102873357D01*
X84745126Y-102851465D01*
X84825932Y-102852491D01*
X84860849Y-102863339D01*
X84932284Y-102924192D01*
X84960744Y-103010323D01*
X84943473Y-103097177D01*
X84887271Y-103157349D01*
X84801038Y-103179449D01*
X84698885Y-103160592D01*
X84677628Y-103151579D01*
X84619363Y-103129721D01*
X84585334Y-103142478D01*
X84553620Y-103198654D01*
X84552051Y-103202010D01*
X84528413Y-103264370D01*
X84538422Y-103299124D01*
X84581349Y-103324661D01*
X84663995Y-103386344D01*
X84705359Y-103467689D01*
X84698712Y-103554493D01*
X84694698Y-103563898D01*
X84636522Y-103637457D01*
X84562092Y-103666553D01*
X84486881Y-103652622D01*
X84426359Y-103597103D01*
X84401567Y-103536656D01*
X84364472Y-103458583D01*
X84290359Y-103406950D01*
X84209896Y-103380250D01*
X84164813Y-103395916D01*
X84149763Y-103457795D01*
X84151777Y-103506667D01*
X84187817Y-103628517D01*
X84265380Y-103733221D01*
X84372287Y-103814690D01*
X84496357Y-103866829D01*
X84496357Y-103866829D01*
G37*
X84496357Y-103866829D02*
X84625407Y-103883548D01*
X84747259Y-103858754D01*
X84799312Y-103830525D01*
X84886543Y-103741483D01*
X84930664Y-103631968D01*
X84928898Y-103516602D01*
X84879102Y-103410834D01*
X84821242Y-103335851D01*
X84916084Y-103339486D01*
X85039907Y-103320211D01*
X85133794Y-103253602D01*
X85194048Y-103142304D01*
X85194626Y-103140467D01*
X85211689Y-103050093D01*
X85209709Y-102968112D01*
X85206738Y-102955636D01*
X85144284Y-102839176D01*
X85039265Y-102741320D01*
X84904624Y-102670427D01*
X84753303Y-102634861D01*
X84706347Y-102632328D01*
X84579086Y-102652628D01*
X84490781Y-102704922D01*
X84436681Y-102755083D01*
X84409260Y-102791245D01*
X84408412Y-102797640D01*
X84437569Y-102830560D01*
X84492662Y-102868160D01*
X84554862Y-102900394D01*
X84605337Y-102917217D01*
X84624561Y-102912955D01*
X84669730Y-102873357D01*
X84745126Y-102851465D01*
X84825932Y-102852491D01*
X84860849Y-102863339D01*
X84932284Y-102924192D01*
X84960744Y-103010323D01*
X84943473Y-103097177D01*
X84887271Y-103157349D01*
X84801038Y-103179449D01*
X84698885Y-103160592D01*
X84677628Y-103151579D01*
X84619363Y-103129721D01*
X84585334Y-103142478D01*
X84553620Y-103198654D01*
X84552051Y-103202010D01*
X84528413Y-103264370D01*
X84538422Y-103299124D01*
X84581349Y-103324661D01*
X84663995Y-103386344D01*
X84705359Y-103467689D01*
X84698712Y-103554493D01*
X84694698Y-103563898D01*
X84636522Y-103637457D01*
X84562092Y-103666553D01*
X84486881Y-103652622D01*
X84426359Y-103597103D01*
X84401567Y-103536656D01*
X84364472Y-103458583D01*
X84290359Y-103406950D01*
X84209896Y-103380250D01*
X84164813Y-103395916D01*
X84149763Y-103457795D01*
X84151777Y-103506667D01*
X84187817Y-103628517D01*
X84265380Y-103733221D01*
X84372287Y-103814690D01*
X84496357Y-103866829D01*
G36*
X94035671Y-108106962D02*
X93575266Y-107892272D01*
X93640571Y-107752225D01*
X93678790Y-107672900D01*
X93703948Y-107637142D01*
X93726790Y-107637338D01*
X93758062Y-107665876D01*
X93759854Y-107667719D01*
X93871494Y-107747840D01*
X93993842Y-107778521D01*
X94116576Y-107762703D01*
X94229375Y-107703327D01*
X94321917Y-107603335D01*
X94375745Y-107492213D01*
X94398755Y-107343193D01*
X94369521Y-107203223D01*
X94292242Y-107081676D01*
X94171118Y-106987923D01*
X94143565Y-106974059D01*
X94044391Y-106942479D01*
X93940203Y-106929612D01*
X93931746Y-106929732D01*
X93858773Y-106942992D01*
X93778441Y-106973165D01*
X93707052Y-107011758D01*
X93660906Y-107050281D01*
X93652975Y-107074962D01*
X93678724Y-107101675D01*
X93733423Y-107143522D01*
X93745485Y-107151862D01*
X93812113Y-107188188D01*
X93868097Y-107187697D01*
X93915554Y-107167555D01*
X94007447Y-107145369D01*
X94084978Y-107169033D01*
X94139171Y-107228209D01*
X94161044Y-107312558D01*
X94141617Y-107411744D01*
X94136914Y-107422388D01*
X94080429Y-107497200D01*
X94004875Y-107540424D01*
X93925080Y-107550510D01*
X93855871Y-107525912D01*
X93812077Y-107465077D01*
X93809571Y-107456583D01*
X93771518Y-107405815D01*
X93690024Y-107354249D01*
X93679952Y-107349432D01*
X93564284Y-107295495D01*
X93500081Y-107475750D01*
X93453699Y-107598602D01*
X93401394Y-107726434D01*
X93367479Y-107803163D01*
X93299079Y-107950322D01*
X93964107Y-108260430D01*
X94035671Y-108106962D01*
X94035671Y-108106962D01*
G37*
X94035671Y-108106962D02*
X93575266Y-107892272D01*
X93640571Y-107752225D01*
X93678790Y-107672900D01*
X93703948Y-107637142D01*
X93726790Y-107637338D01*
X93758062Y-107665876D01*
X93759854Y-107667719D01*
X93871494Y-107747840D01*
X93993842Y-107778521D01*
X94116576Y-107762703D01*
X94229375Y-107703327D01*
X94321917Y-107603335D01*
X94375745Y-107492213D01*
X94398755Y-107343193D01*
X94369521Y-107203223D01*
X94292242Y-107081676D01*
X94171118Y-106987923D01*
X94143565Y-106974059D01*
X94044391Y-106942479D01*
X93940203Y-106929612D01*
X93931746Y-106929732D01*
X93858773Y-106942992D01*
X93778441Y-106973165D01*
X93707052Y-107011758D01*
X93660906Y-107050281D01*
X93652975Y-107074962D01*
X93678724Y-107101675D01*
X93733423Y-107143522D01*
X93745485Y-107151862D01*
X93812113Y-107188188D01*
X93868097Y-107187697D01*
X93915554Y-107167555D01*
X94007447Y-107145369D01*
X94084978Y-107169033D01*
X94139171Y-107228209D01*
X94161044Y-107312558D01*
X94141617Y-107411744D01*
X94136914Y-107422388D01*
X94080429Y-107497200D01*
X94004875Y-107540424D01*
X93925080Y-107550510D01*
X93855871Y-107525912D01*
X93812077Y-107465077D01*
X93809571Y-107456583D01*
X93771518Y-107405815D01*
X93690024Y-107354249D01*
X93679952Y-107349432D01*
X93564284Y-107295495D01*
X93500081Y-107475750D01*
X93453699Y-107598602D01*
X93401394Y-107726434D01*
X93367479Y-107803163D01*
X93299079Y-107950322D01*
X93964107Y-108260430D01*
X94035671Y-108106962D01*
G36*
X98352563Y-110326529D02*
X98482429Y-110341014D01*
X98597960Y-110310889D01*
X98621956Y-110296866D01*
X98680668Y-110255130D01*
X98714106Y-110226271D01*
X98716087Y-110223391D01*
X98699798Y-110199470D01*
X98649952Y-110158359D01*
X98625528Y-110141156D01*
X98553387Y-110099677D01*
X98498046Y-110091818D01*
X98452643Y-110105057D01*
X98370864Y-110115534D01*
X98308369Y-110080083D01*
X98270053Y-110007354D01*
X98260812Y-109905997D01*
X98280402Y-109800709D01*
X98310784Y-109700541D01*
X98375117Y-109794291D01*
X98461305Y-109878457D01*
X98572492Y-109930583D01*
X98688438Y-109942762D01*
X98733208Y-109934205D01*
X98849197Y-109873719D01*
X98940843Y-109776854D01*
X99003606Y-109656626D01*
X99032946Y-109526050D01*
X99024318Y-109398143D01*
X98973183Y-109285921D01*
X98963653Y-109273738D01*
X98850706Y-109174409D01*
X98718475Y-109118468D01*
X98581368Y-109111958D01*
X98578861Y-109112345D01*
X98466972Y-109140177D01*
X98376199Y-109189857D01*
X98297445Y-109270120D01*
X98221609Y-109389703D01*
X98217632Y-109397672D01*
X98437175Y-109500046D01*
X98481512Y-109413424D01*
X98556696Y-109345988D01*
X98570640Y-109338369D01*
X98662420Y-109313304D01*
X98733369Y-109340527D01*
X98780980Y-109416682D01*
X98790096Y-109507201D01*
X98761158Y-109596746D01*
X98704695Y-109673184D01*
X98631233Y-109724380D01*
X98551301Y-109738200D01*
X98511686Y-109727065D01*
X98450018Y-109671664D01*
X98425929Y-109591059D01*
X98437175Y-109500046D01*
X98217632Y-109397672D01*
X98158696Y-109515753D01*
X98077292Y-109718379D01*
X98038887Y-109888171D01*
X98043840Y-110029274D01*
X98092501Y-110145834D01*
X98185230Y-110241997D01*
X98223258Y-110268491D01*
X98352563Y-110326529D01*
X98352563Y-110326529D01*
G37*
X98352563Y-110326529D02*
X98482429Y-110341014D01*
X98597960Y-110310889D01*
X98621956Y-110296866D01*
X98680668Y-110255130D01*
X98714106Y-110226271D01*
X98716087Y-110223391D01*
X98699798Y-110199470D01*
X98649952Y-110158359D01*
X98625528Y-110141156D01*
X98553387Y-110099677D01*
X98498046Y-110091818D01*
X98452643Y-110105057D01*
X98370864Y-110115534D01*
X98308369Y-110080083D01*
X98270053Y-110007354D01*
X98260812Y-109905997D01*
X98280402Y-109800709D01*
X98310784Y-109700541D01*
X98375117Y-109794291D01*
X98461305Y-109878457D01*
X98572492Y-109930583D01*
X98688438Y-109942762D01*
X98733208Y-109934205D01*
X98849197Y-109873719D01*
X98940843Y-109776854D01*
X99003606Y-109656626D01*
X99032946Y-109526050D01*
X99024318Y-109398143D01*
X98973183Y-109285921D01*
X98963653Y-109273738D01*
X98850706Y-109174409D01*
X98718475Y-109118468D01*
X98581368Y-109111958D01*
X98578861Y-109112345D01*
X98466972Y-109140177D01*
X98376199Y-109189857D01*
X98297445Y-109270120D01*
X98221609Y-109389703D01*
X98217632Y-109397672D01*
X98437175Y-109500046D01*
X98481512Y-109413424D01*
X98556696Y-109345988D01*
X98570640Y-109338369D01*
X98662420Y-109313304D01*
X98733369Y-109340527D01*
X98780980Y-109416682D01*
X98790096Y-109507201D01*
X98761158Y-109596746D01*
X98704695Y-109673184D01*
X98631233Y-109724380D01*
X98551301Y-109738200D01*
X98511686Y-109727065D01*
X98450018Y-109671664D01*
X98425929Y-109591059D01*
X98437175Y-109500046D01*
X98217632Y-109397672D01*
X98158696Y-109515753D01*
X98077292Y-109718379D01*
X98038887Y-109888171D01*
X98043840Y-110029274D01*
X98092501Y-110145834D01*
X98185230Y-110241997D01*
X98223258Y-110268491D01*
X98352563Y-110326529D01*
G36*
X107620675Y-114637867D02*
X107748509Y-114638108D01*
X107858277Y-114601760D01*
X107941803Y-114534345D01*
X107990910Y-114441392D01*
X107997423Y-114328423D01*
X107979873Y-114259727D01*
X107957624Y-114184320D01*
X107962582Y-114147503D01*
X107981721Y-114138901D01*
X108031846Y-114138487D01*
X108044192Y-114141483D01*
X108082966Y-114131755D01*
X108139149Y-114089752D01*
X108197694Y-114029379D01*
X108243553Y-113964542D01*
X108250588Y-113950753D01*
X108278645Y-113830665D01*
X108264328Y-113702894D01*
X108211107Y-113590974D01*
X108194602Y-113570903D01*
X108084305Y-113482374D01*
X107947013Y-113418095D01*
X107809357Y-113390391D01*
X107804269Y-113390220D01*
X107688242Y-113412393D01*
X107578821Y-113476049D01*
X107496805Y-113568040D01*
X107483439Y-113593026D01*
X107477485Y-113612058D01*
X107705192Y-113718239D01*
X107767983Y-113631281D01*
X107848949Y-113587530D01*
X107936077Y-113592935D01*
X107948115Y-113597968D01*
X108016066Y-113657079D01*
X108035256Y-113707811D01*
X108031867Y-113808852D01*
X107992370Y-113897653D01*
X107927549Y-113963115D01*
X107848187Y-113994142D01*
X107769206Y-113981638D01*
X107703472Y-113923184D01*
X107678910Y-113836025D01*
X107698687Y-113733186D01*
X107705192Y-113718239D01*
X107477485Y-113612058D01*
X107460777Y-113665469D01*
X107449470Y-113749367D01*
X107450496Y-113824254D01*
X107464836Y-113869667D01*
X107470000Y-113873732D01*
X107500092Y-113903042D01*
X107512133Y-113919929D01*
X107514520Y-113948811D01*
X107475518Y-113976754D01*
X107420764Y-113999010D01*
X107314471Y-114061551D01*
X107270492Y-114122761D01*
X107498189Y-114228938D01*
X107554428Y-114158149D01*
X107629826Y-114125448D01*
X107697643Y-114135106D01*
X107745860Y-114178651D01*
X107766595Y-114216194D01*
X107772066Y-114297506D01*
X107738882Y-114373014D01*
X107679704Y-114429236D01*
X107607192Y-114452692D01*
X107554516Y-114442043D01*
X107498787Y-114388181D01*
X107479984Y-114307233D01*
X107498189Y-114228938D01*
X107270492Y-114122761D01*
X107251453Y-114149257D01*
X107230688Y-114252315D01*
X107251151Y-114360907D01*
X107311818Y-114465220D01*
X107411668Y-114555438D01*
X107482953Y-114595511D01*
X107620675Y-114637867D01*
X107620675Y-114637867D01*
G37*
X107620675Y-114637867D02*
X107748509Y-114638108D01*
X107858277Y-114601760D01*
X107941803Y-114534345D01*
X107990910Y-114441392D01*
X107997423Y-114328423D01*
X107979873Y-114259727D01*
X107957624Y-114184320D01*
X107962582Y-114147503D01*
X107981721Y-114138901D01*
X108031846Y-114138487D01*
X108044192Y-114141483D01*
X108082966Y-114131755D01*
X108139149Y-114089752D01*
X108197694Y-114029379D01*
X108243553Y-113964542D01*
X108250588Y-113950753D01*
X108278645Y-113830665D01*
X108264328Y-113702894D01*
X108211107Y-113590974D01*
X108194602Y-113570903D01*
X108084305Y-113482374D01*
X107947013Y-113418095D01*
X107809357Y-113390391D01*
X107804269Y-113390220D01*
X107688242Y-113412393D01*
X107578821Y-113476049D01*
X107496805Y-113568040D01*
X107483439Y-113593026D01*
X107477485Y-113612058D01*
X107705192Y-113718239D01*
X107767983Y-113631281D01*
X107848949Y-113587530D01*
X107936077Y-113592935D01*
X107948115Y-113597968D01*
X108016066Y-113657079D01*
X108035256Y-113707811D01*
X108031867Y-113808852D01*
X107992370Y-113897653D01*
X107927549Y-113963115D01*
X107848187Y-113994142D01*
X107769206Y-113981638D01*
X107703472Y-113923184D01*
X107678910Y-113836025D01*
X107698687Y-113733186D01*
X107705192Y-113718239D01*
X107477485Y-113612058D01*
X107460777Y-113665469D01*
X107449470Y-113749367D01*
X107450496Y-113824254D01*
X107464836Y-113869667D01*
X107470000Y-113873732D01*
X107500092Y-113903042D01*
X107512133Y-113919929D01*
X107514520Y-113948811D01*
X107475518Y-113976754D01*
X107420764Y-113999010D01*
X107314471Y-114061551D01*
X107270492Y-114122761D01*
X107498189Y-114228938D01*
X107554428Y-114158149D01*
X107629826Y-114125448D01*
X107697643Y-114135106D01*
X107745860Y-114178651D01*
X107766595Y-114216194D01*
X107772066Y-114297506D01*
X107738882Y-114373014D01*
X107679704Y-114429236D01*
X107607192Y-114452692D01*
X107554516Y-114442043D01*
X107498787Y-114388181D01*
X107479984Y-114307233D01*
X107498189Y-114228938D01*
X107270492Y-114122761D01*
X107251453Y-114149257D01*
X107230688Y-114252315D01*
X107251151Y-114360907D01*
X107311818Y-114465220D01*
X107411668Y-114555438D01*
X107482953Y-114595511D01*
X107620675Y-114637867D01*
G36*
X75810194Y-98642949D02*
X75938085Y-98702586D01*
X76014574Y-98736212D01*
X76057133Y-98743509D01*
X76082650Y-98722711D01*
X76101757Y-98685488D01*
X76137538Y-98608754D01*
X75370197Y-98250937D01*
X75334416Y-98327671D01*
X75316322Y-98372640D01*
X75321156Y-98402692D01*
X75358307Y-98430566D01*
X75437161Y-98469001D01*
X75579992Y-98535604D01*
X75407047Y-98906485D01*
X75344611Y-99037011D01*
X75289407Y-99146123D01*
X75246112Y-99225054D01*
X75219399Y-99265038D01*
X75214216Y-99268093D01*
X75185639Y-99238889D01*
X75159938Y-99200849D01*
X75119355Y-99134015D01*
X75076299Y-99064846D01*
X75027051Y-98986816D01*
X74987140Y-99072990D01*
X74969017Y-99124393D01*
X74971311Y-99173190D01*
X74998202Y-99235751D01*
X75051397Y-99324514D01*
X75127831Y-99432928D01*
X75199395Y-99502479D01*
X75262226Y-99539599D01*
X75368887Y-99589336D01*
X75810194Y-98642949D01*
X75810194Y-98642949D01*
G37*
X75810194Y-98642949D02*
X75938085Y-98702586D01*
X76014574Y-98736212D01*
X76057133Y-98743509D01*
X76082650Y-98722711D01*
X76101757Y-98685488D01*
X76137538Y-98608754D01*
X75370197Y-98250937D01*
X75334416Y-98327671D01*
X75316322Y-98372640D01*
X75321156Y-98402692D01*
X75358307Y-98430566D01*
X75437161Y-98469001D01*
X75579992Y-98535604D01*
X75407047Y-98906485D01*
X75344611Y-99037011D01*
X75289407Y-99146123D01*
X75246112Y-99225054D01*
X75219399Y-99265038D01*
X75214216Y-99268093D01*
X75185639Y-99238889D01*
X75159938Y-99200849D01*
X75119355Y-99134015D01*
X75076299Y-99064846D01*
X75027051Y-98986816D01*
X74987140Y-99072990D01*
X74969017Y-99124393D01*
X74971311Y-99173190D01*
X74998202Y-99235751D01*
X75051397Y-99324514D01*
X75127831Y-99432928D01*
X75199395Y-99502479D01*
X75262226Y-99539599D01*
X75368887Y-99589336D01*
X75810194Y-98642949D01*
G36*
X79980077Y-101730573D02*
X80002911Y-101732226D01*
X80128117Y-101712653D01*
X80236422Y-101645009D01*
X80314697Y-101537542D01*
X80315472Y-101535889D01*
X80338365Y-101429475D01*
X80327508Y-101292330D01*
X80284958Y-101137362D01*
X80232666Y-101015568D01*
X80185373Y-100913517D01*
X80148781Y-100821084D01*
X80130969Y-100758964D01*
X80119773Y-100683679D01*
X80632513Y-100922773D01*
X80716003Y-100743727D01*
X79948663Y-100385911D01*
X79909572Y-100469742D01*
X79890125Y-100521783D01*
X79882623Y-100577730D01*
X79888719Y-100647290D01*
X79910074Y-100740165D01*
X79948342Y-100866063D01*
X80005182Y-101034686D01*
X80006890Y-101039632D01*
X80057992Y-101196795D01*
X80086832Y-101309764D01*
X80094870Y-101385565D01*
X80086903Y-101425042D01*
X80030574Y-101494932D01*
X79958268Y-101521627D01*
X79885791Y-101507786D01*
X79828946Y-101456069D01*
X79804047Y-101377424D01*
X79791715Y-101311638D01*
X79757714Y-101268807D01*
X79686102Y-101229010D01*
X79684777Y-101228389D01*
X79615212Y-101198124D01*
X79580388Y-101195911D01*
X79564312Y-101225059D01*
X79557867Y-101254647D01*
X79555287Y-101396524D01*
X79602190Y-101521462D01*
X79692603Y-101623056D01*
X79820557Y-101694895D01*
X79980077Y-101730573D01*
X79980077Y-101730573D01*
G37*
X79980077Y-101730573D02*
X80002911Y-101732226D01*
X80128117Y-101712653D01*
X80236422Y-101645009D01*
X80314697Y-101537542D01*
X80315472Y-101535889D01*
X80338365Y-101429475D01*
X80327508Y-101292330D01*
X80284958Y-101137362D01*
X80232666Y-101015568D01*
X80185373Y-100913517D01*
X80148781Y-100821084D01*
X80130969Y-100758964D01*
X80119773Y-100683679D01*
X80632513Y-100922773D01*
X80716003Y-100743727D01*
X79948663Y-100385911D01*
X79909572Y-100469742D01*
X79890125Y-100521783D01*
X79882623Y-100577730D01*
X79888719Y-100647290D01*
X79910074Y-100740165D01*
X79948342Y-100866063D01*
X80005182Y-101034686D01*
X80006890Y-101039632D01*
X80057992Y-101196795D01*
X80086832Y-101309764D01*
X80094870Y-101385565D01*
X80086903Y-101425042D01*
X80030574Y-101494932D01*
X79958268Y-101521627D01*
X79885791Y-101507786D01*
X79828946Y-101456069D01*
X79804047Y-101377424D01*
X79791715Y-101311638D01*
X79757714Y-101268807D01*
X79686102Y-101229010D01*
X79684777Y-101228389D01*
X79615212Y-101198124D01*
X79580388Y-101195911D01*
X79564312Y-101225059D01*
X79557867Y-101254647D01*
X79555287Y-101396524D01*
X79602190Y-101521462D01*
X79692603Y-101623056D01*
X79820557Y-101694895D01*
X79980077Y-101730573D01*
G36*
X89668448Y-105385417D02*
X89745182Y-105421199D01*
X89802488Y-105440205D01*
X89836461Y-105419650D01*
X89857698Y-105380246D01*
X89876704Y-105322941D01*
X89856149Y-105288967D01*
X89816745Y-105267731D01*
X89771117Y-105242392D01*
X89757752Y-105212705D01*
X89773869Y-105160474D01*
X89793684Y-105116849D01*
X89847357Y-105001747D01*
X89617154Y-104894402D01*
X89509809Y-105124605D01*
X89023827Y-104897987D01*
X88987816Y-104975213D01*
X88975202Y-105037733D01*
X88975062Y-105062086D01*
X89130959Y-105134782D01*
X89438246Y-105278072D01*
X89321178Y-105527096D01*
X89266788Y-105640006D01*
X89230912Y-105706461D01*
X89209922Y-105731923D01*
X89200191Y-105721854D01*
X89198808Y-105711367D01*
X89193077Y-105654874D01*
X89182300Y-105559322D01*
X89168411Y-105441660D01*
X89162233Y-105390698D01*
X89130959Y-105134782D01*
X88975062Y-105062086D01*
X88974571Y-105147424D01*
X88986024Y-105306944D01*
X89009051Y-105513995D01*
X89066297Y-105975550D01*
X89334486Y-106101602D01*
X89668448Y-105385417D01*
X89668448Y-105385417D01*
G37*
X89668448Y-105385417D02*
X89745182Y-105421199D01*
X89802488Y-105440205D01*
X89836461Y-105419650D01*
X89857698Y-105380246D01*
X89876704Y-105322941D01*
X89856149Y-105288967D01*
X89816745Y-105267731D01*
X89771117Y-105242392D01*
X89757752Y-105212705D01*
X89773869Y-105160474D01*
X89793684Y-105116849D01*
X89847357Y-105001747D01*
X89617154Y-104894402D01*
X89509809Y-105124605D01*
X89023827Y-104897987D01*
X88987816Y-104975213D01*
X88975202Y-105037733D01*
X88975062Y-105062086D01*
X89130959Y-105134782D01*
X89438246Y-105278072D01*
X89321178Y-105527096D01*
X89266788Y-105640006D01*
X89230912Y-105706461D01*
X89209922Y-105731923D01*
X89200191Y-105721854D01*
X89198808Y-105711367D01*
X89193077Y-105654874D01*
X89182300Y-105559322D01*
X89168411Y-105441660D01*
X89162233Y-105390698D01*
X89130959Y-105134782D01*
X88975062Y-105062086D01*
X88974571Y-105147424D01*
X88986024Y-105306944D01*
X89009051Y-105513995D01*
X89066297Y-105975550D01*
X89334486Y-106101602D01*
X89668448Y-105385417D01*
G36*
X103289528Y-112502948D02*
X103310910Y-112419168D01*
X103318162Y-112300946D01*
X103314922Y-112221661D01*
X103306502Y-111979758D01*
X103318815Y-111754048D01*
X103350693Y-111559680D01*
X103371896Y-111484078D01*
X103422241Y-111331820D01*
X103310662Y-111279790D01*
X103239316Y-111250294D01*
X103200169Y-111249194D01*
X103176178Y-111277291D01*
X103171771Y-111286331D01*
X103134481Y-111403195D01*
X103108558Y-111561074D01*
X103094861Y-111745526D01*
X103094250Y-111942109D01*
X103107583Y-112136379D01*
X103116873Y-112209251D01*
X103132819Y-112317892D01*
X102616234Y-112077005D01*
X102532744Y-112256050D01*
X103248929Y-112590013D01*
X103289528Y-112502948D01*
X103289528Y-112502948D01*
G37*
X103289528Y-112502948D02*
X103310910Y-112419168D01*
X103318162Y-112300946D01*
X103314922Y-112221661D01*
X103306502Y-111979758D01*
X103318815Y-111754048D01*
X103350693Y-111559680D01*
X103371896Y-111484078D01*
X103422241Y-111331820D01*
X103310662Y-111279790D01*
X103239316Y-111250294D01*
X103200169Y-111249194D01*
X103176178Y-111277291D01*
X103171771Y-111286331D01*
X103134481Y-111403195D01*
X103108558Y-111561074D01*
X103094861Y-111745526D01*
X103094250Y-111942109D01*
X103107583Y-112136379D01*
X103116873Y-112209251D01*
X103132819Y-112317892D01*
X102616234Y-112077005D01*
X102532744Y-112256050D01*
X103248929Y-112590013D01*
X103289528Y-112502948D01*
G36*
X82687517Y-102945543D02*
X82808874Y-102926756D01*
X82925348Y-102856912D01*
X83033460Y-102737717D01*
X83129730Y-102570876D01*
X83174165Y-102465299D01*
X83228155Y-102283841D01*
X83239122Y-102135827D01*
X83206386Y-102017380D01*
X83129271Y-101924623D01*
X83072804Y-101886058D01*
X82991001Y-101847032D01*
X82917744Y-101825001D01*
X82902661Y-101823377D01*
X82781738Y-101847198D01*
X82665245Y-101923573D01*
X82557103Y-102048611D01*
X82461233Y-102218424D01*
X82434451Y-102280758D01*
X82638588Y-102375948D01*
X82720056Y-102201638D01*
X82797639Y-102082452D01*
X82872357Y-102017280D01*
X82945234Y-102005018D01*
X82972902Y-102014114D01*
X83017682Y-102048551D01*
X83034563Y-102107312D01*
X83034832Y-102159125D01*
X83022517Y-102241198D01*
X82988697Y-102339678D01*
X82928525Y-102467976D01*
X82910613Y-102502796D01*
X82836914Y-102634974D01*
X82775935Y-102719652D01*
X82721360Y-102762465D01*
X82666873Y-102769049D01*
X82627012Y-102755878D01*
X82578506Y-102720876D01*
X82557522Y-102668225D01*
X82564317Y-102589462D01*
X82599151Y-102476125D01*
X82638588Y-102375948D01*
X82434451Y-102280758D01*
X82429123Y-102293160D01*
X82371518Y-102468927D01*
X82353930Y-102610935D01*
X82376532Y-102725409D01*
X82439502Y-102818575D01*
X82444062Y-102823130D01*
X82564753Y-102911570D01*
X82687517Y-102945543D01*
X82687517Y-102945543D01*
G37*
X82687517Y-102945543D02*
X82808874Y-102926756D01*
X82925348Y-102856912D01*
X83033460Y-102737717D01*
X83129730Y-102570876D01*
X83174165Y-102465299D01*
X83228155Y-102283841D01*
X83239122Y-102135827D01*
X83206386Y-102017380D01*
X83129271Y-101924623D01*
X83072804Y-101886058D01*
X82991001Y-101847032D01*
X82917744Y-101825001D01*
X82902661Y-101823377D01*
X82781738Y-101847198D01*
X82665245Y-101923573D01*
X82557103Y-102048611D01*
X82461233Y-102218424D01*
X82434451Y-102280758D01*
X82638588Y-102375948D01*
X82720056Y-102201638D01*
X82797639Y-102082452D01*
X82872357Y-102017280D01*
X82945234Y-102005018D01*
X82972902Y-102014114D01*
X83017682Y-102048551D01*
X83034563Y-102107312D01*
X83034832Y-102159125D01*
X83022517Y-102241198D01*
X82988697Y-102339678D01*
X82928525Y-102467976D01*
X82910613Y-102502796D01*
X82836914Y-102634974D01*
X82775935Y-102719652D01*
X82721360Y-102762465D01*
X82666873Y-102769049D01*
X82627012Y-102755878D01*
X82578506Y-102720876D01*
X82557522Y-102668225D01*
X82564317Y-102589462D01*
X82599151Y-102476125D01*
X82638588Y-102375948D01*
X82434451Y-102280758D01*
X82429123Y-102293160D01*
X82371518Y-102468927D01*
X82353930Y-102610935D01*
X82376532Y-102725409D01*
X82439502Y-102818575D01*
X82444062Y-102823130D01*
X82564753Y-102911570D01*
X82687517Y-102945543D01*
G36*
X96430328Y-109372860D02*
X96553487Y-109388388D01*
X96668201Y-109364311D01*
X96763042Y-109300617D01*
X96815737Y-109223715D01*
X96832954Y-109143040D01*
X96823976Y-109053051D01*
X96793619Y-108976428D01*
X96755266Y-108939056D01*
X96757847Y-108926687D01*
X96804650Y-108914770D01*
X96826844Y-108911821D01*
X96954126Y-108875022D01*
X97041267Y-108799030D01*
X97086213Y-108686311D01*
X97091802Y-108593866D01*
X97061309Y-108487657D01*
X96987320Y-108391576D01*
X96882772Y-108314648D01*
X96760603Y-108265900D01*
X96633752Y-108254357D01*
X96609289Y-108257254D01*
X96511043Y-108284037D01*
X96432377Y-108325898D01*
X96384718Y-108374341D01*
X96379494Y-108420866D01*
X96382340Y-108426038D01*
X96423334Y-108465938D01*
X96480465Y-108498278D01*
X96532928Y-108513746D01*
X96559139Y-108505180D01*
X96601508Y-108469477D01*
X96673422Y-108447058D01*
X96748417Y-108444149D01*
X96781068Y-108452968D01*
X96842992Y-108507549D01*
X96867446Y-108583546D01*
X96856553Y-108663166D01*
X96812436Y-108728617D01*
X96744305Y-108761027D01*
X96659643Y-108759100D01*
X96597847Y-108741209D01*
X96544083Y-108724733D01*
X96510652Y-108747955D01*
X96491023Y-108784814D01*
X96472099Y-108842290D01*
X96492368Y-108876149D01*
X96528011Y-108895481D01*
X96596695Y-108951794D01*
X96627271Y-109027609D01*
X96619462Y-109105854D01*
X96572991Y-109169454D01*
X96532793Y-109191315D01*
X96463978Y-109199387D01*
X96426354Y-109190616D01*
X96380628Y-109148540D01*
X96349224Y-109085933D01*
X96345556Y-109030488D01*
X96347025Y-109026841D01*
X96332936Y-109000553D01*
X96285128Y-108970003D01*
X96224588Y-108944834D01*
X96172301Y-108934692D01*
X96155152Y-108938679D01*
X96132439Y-108983696D01*
X96134631Y-109058176D01*
X96158373Y-109142731D01*
X96200307Y-109217965D01*
X96204377Y-109223036D01*
X96310149Y-109317737D01*
X96430328Y-109372860D01*
X96430328Y-109372860D01*
G37*
X96430328Y-109372860D02*
X96553487Y-109388388D01*
X96668201Y-109364311D01*
X96763042Y-109300617D01*
X96815737Y-109223715D01*
X96832954Y-109143040D01*
X96823976Y-109053051D01*
X96793619Y-108976428D01*
X96755266Y-108939056D01*
X96757847Y-108926687D01*
X96804650Y-108914770D01*
X96826844Y-108911821D01*
X96954126Y-108875022D01*
X97041267Y-108799030D01*
X97086213Y-108686311D01*
X97091802Y-108593866D01*
X97061309Y-108487657D01*
X96987320Y-108391576D01*
X96882772Y-108314648D01*
X96760603Y-108265900D01*
X96633752Y-108254357D01*
X96609289Y-108257254D01*
X96511043Y-108284037D01*
X96432377Y-108325898D01*
X96384718Y-108374341D01*
X96379494Y-108420866D01*
X96382340Y-108426038D01*
X96423334Y-108465938D01*
X96480465Y-108498278D01*
X96532928Y-108513746D01*
X96559139Y-108505180D01*
X96601508Y-108469477D01*
X96673422Y-108447058D01*
X96748417Y-108444149D01*
X96781068Y-108452968D01*
X96842992Y-108507549D01*
X96867446Y-108583546D01*
X96856553Y-108663166D01*
X96812436Y-108728617D01*
X96744305Y-108761027D01*
X96659643Y-108759100D01*
X96597847Y-108741209D01*
X96544083Y-108724733D01*
X96510652Y-108747955D01*
X96491023Y-108784814D01*
X96472099Y-108842290D01*
X96492368Y-108876149D01*
X96528011Y-108895481D01*
X96596695Y-108951794D01*
X96627271Y-109027609D01*
X96619462Y-109105854D01*
X96572991Y-109169454D01*
X96532793Y-109191315D01*
X96463978Y-109199387D01*
X96426354Y-109190616D01*
X96380628Y-109148540D01*
X96349224Y-109085933D01*
X96345556Y-109030488D01*
X96347025Y-109026841D01*
X96332936Y-109000553D01*
X96285128Y-108970003D01*
X96224588Y-108944834D01*
X96172301Y-108934692D01*
X96155152Y-108938679D01*
X96132439Y-108983696D01*
X96134631Y-109058176D01*
X96158373Y-109142731D01*
X96200307Y-109217965D01*
X96204377Y-109223036D01*
X96310149Y-109317737D01*
X96430328Y-109372860D01*
G36*
X106004461Y-113625820D02*
X105595212Y-113434984D01*
X105649304Y-113318983D01*
X105683806Y-113250091D01*
X105706910Y-113225671D01*
X105729029Y-113238134D01*
X105740524Y-113252531D01*
X105826935Y-113324806D01*
X105937211Y-113357540D01*
X106054454Y-113350244D01*
X106161772Y-113302424D01*
X106203781Y-113266018D01*
X106279904Y-113154020D01*
X106326218Y-113021953D01*
X106334239Y-112894570D01*
X106333362Y-112887919D01*
X106290890Y-112777860D01*
X106205098Y-112682290D01*
X106088915Y-112610998D01*
X105955268Y-112573777D01*
X105914596Y-112570741D01*
X105833736Y-112582527D01*
X105757213Y-112615554D01*
X105699195Y-112660192D01*
X105673847Y-112706816D01*
X105679424Y-112730554D01*
X105746907Y-112788801D01*
X105835875Y-112804158D01*
X105903926Y-112784876D01*
X105992335Y-112763242D01*
X106063291Y-112787267D01*
X106109014Y-112847003D01*
X106121726Y-112932501D01*
X106095500Y-113029908D01*
X106039103Y-113108173D01*
X105966792Y-113153544D01*
X105892385Y-113163909D01*
X105829697Y-113137155D01*
X105793735Y-113076030D01*
X105757887Y-113026961D01*
X105685839Y-112979150D01*
X105676960Y-112974868D01*
X105574136Y-112926921D01*
X105517256Y-113091803D01*
X105474880Y-113206940D01*
X105428097Y-113322819D01*
X105402489Y-113380825D01*
X105344603Y-113504963D01*
X105932897Y-113779289D01*
X106004461Y-113625820D01*
X106004461Y-113625820D01*
G37*
X106004461Y-113625820D02*
X105595212Y-113434984D01*
X105649304Y-113318983D01*
X105683806Y-113250091D01*
X105706910Y-113225671D01*
X105729029Y-113238134D01*
X105740524Y-113252531D01*
X105826935Y-113324806D01*
X105937211Y-113357540D01*
X106054454Y-113350244D01*
X106161772Y-113302424D01*
X106203781Y-113266018D01*
X106279904Y-113154020D01*
X106326218Y-113021953D01*
X106334239Y-112894570D01*
X106333362Y-112887919D01*
X106290890Y-112777860D01*
X106205098Y-112682290D01*
X106088915Y-112610998D01*
X105955268Y-112573777D01*
X105914596Y-112570741D01*
X105833736Y-112582527D01*
X105757213Y-112615554D01*
X105699195Y-112660192D01*
X105673847Y-112706816D01*
X105679424Y-112730554D01*
X105746907Y-112788801D01*
X105835875Y-112804158D01*
X105903926Y-112784876D01*
X105992335Y-112763242D01*
X106063291Y-112787267D01*
X106109014Y-112847003D01*
X106121726Y-112932501D01*
X106095500Y-113029908D01*
X106039103Y-113108173D01*
X105966792Y-113153544D01*
X105892385Y-113163909D01*
X105829697Y-113137155D01*
X105793735Y-113076030D01*
X105757887Y-113026961D01*
X105685839Y-112979150D01*
X105676960Y-112974868D01*
X105574136Y-112926921D01*
X105517256Y-113091803D01*
X105474880Y-113206940D01*
X105428097Y-113322819D01*
X105402489Y-113380825D01*
X105344603Y-113504963D01*
X105932897Y-113779289D01*
X106004461Y-113625820D01*
G36*
X82283157Y-101723621D02*
X82398258Y-101777293D01*
X82470073Y-101808073D01*
X82509584Y-101810862D01*
X82534991Y-101782877D01*
X82549141Y-101754232D01*
X82584923Y-101677498D01*
X81894316Y-101355463D01*
X81858534Y-101432197D01*
X81840147Y-101478924D01*
X81846763Y-101509587D01*
X81887889Y-101538256D01*
X81950643Y-101568567D01*
X82078533Y-101628203D01*
X81923479Y-101960717D01*
X81865107Y-102084093D01*
X81815267Y-102186043D01*
X81778660Y-102257201D01*
X81759987Y-102288195D01*
X81758858Y-102288770D01*
X81738396Y-102265330D01*
X81696148Y-102209944D01*
X81661805Y-102163003D01*
X81574320Y-102041696D01*
X81537760Y-102120099D01*
X81521410Y-102171080D01*
X81528916Y-102221202D01*
X81565164Y-102287697D01*
X81599574Y-102338132D01*
X81689179Y-102444634D01*
X81779146Y-102515191D01*
X81793753Y-102522729D01*
X81889558Y-102567696D01*
X82283157Y-101723621D01*
X82283157Y-101723621D01*
G37*
X82283157Y-101723621D02*
X82398258Y-101777293D01*
X82470073Y-101808073D01*
X82509584Y-101810862D01*
X82534991Y-101782877D01*
X82549141Y-101754232D01*
X82584923Y-101677498D01*
X81894316Y-101355463D01*
X81858534Y-101432197D01*
X81840147Y-101478924D01*
X81846763Y-101509587D01*
X81887889Y-101538256D01*
X81950643Y-101568567D01*
X82078533Y-101628203D01*
X81923479Y-101960717D01*
X81865107Y-102084093D01*
X81815267Y-102186043D01*
X81778660Y-102257201D01*
X81759987Y-102288195D01*
X81758858Y-102288770D01*
X81738396Y-102265330D01*
X81696148Y-102209944D01*
X81661805Y-102163003D01*
X81574320Y-102041696D01*
X81537760Y-102120099D01*
X81521410Y-102171080D01*
X81528916Y-102221202D01*
X81565164Y-102287697D01*
X81599574Y-102338132D01*
X81689179Y-102444634D01*
X81779146Y-102515191D01*
X81793753Y-102522729D01*
X81889558Y-102567696D01*
X82283157Y-101723621D01*
G36*
X86887201Y-103870521D02*
X87002302Y-103924194D01*
X87074116Y-103954974D01*
X87113628Y-103957762D01*
X87139035Y-103929778D01*
X87153184Y-103901133D01*
X87188966Y-103824399D01*
X86498360Y-103502364D01*
X86462578Y-103579098D01*
X86444190Y-103625825D01*
X86450806Y-103656488D01*
X86491933Y-103685157D01*
X86554686Y-103715467D01*
X86682576Y-103775104D01*
X86527522Y-104107618D01*
X86469151Y-104230993D01*
X86419311Y-104332944D01*
X86382703Y-104404102D01*
X86364031Y-104435095D01*
X86362901Y-104435671D01*
X86342440Y-104412230D01*
X86300192Y-104356844D01*
X86265849Y-104309904D01*
X86178364Y-104188596D01*
X86141804Y-104267000D01*
X86125454Y-104317981D01*
X86132959Y-104368103D01*
X86169207Y-104434598D01*
X86203618Y-104485033D01*
X86293222Y-104591535D01*
X86383190Y-104662092D01*
X86397797Y-104669630D01*
X86493602Y-104714597D01*
X86887201Y-103870521D01*
X86887201Y-103870521D01*
G37*
X86887201Y-103870521D02*
X87002302Y-103924194D01*
X87074116Y-103954974D01*
X87113628Y-103957762D01*
X87139035Y-103929778D01*
X87153184Y-103901133D01*
X87188966Y-103824399D01*
X86498360Y-103502364D01*
X86462578Y-103579098D01*
X86444190Y-103625825D01*
X86450806Y-103656488D01*
X86491933Y-103685157D01*
X86554686Y-103715467D01*
X86682576Y-103775104D01*
X86527522Y-104107618D01*
X86469151Y-104230993D01*
X86419311Y-104332944D01*
X86382703Y-104404102D01*
X86364031Y-104435095D01*
X86362901Y-104435671D01*
X86342440Y-104412230D01*
X86300192Y-104356844D01*
X86265849Y-104309904D01*
X86178364Y-104188596D01*
X86141804Y-104267000D01*
X86125454Y-104317981D01*
X86132959Y-104368103D01*
X86169207Y-104434598D01*
X86203618Y-104485033D01*
X86293222Y-104591535D01*
X86383190Y-104662092D01*
X86397797Y-104669630D01*
X86493602Y-104714597D01*
X86887201Y-103870521D01*
G36*
X87705697Y-104252193D02*
X87820798Y-104305865D01*
X87892613Y-104336645D01*
X87932124Y-104339434D01*
X87957531Y-104311449D01*
X87971681Y-104282804D01*
X88007463Y-104206070D01*
X87316856Y-103884035D01*
X87281074Y-103960769D01*
X87262687Y-104007496D01*
X87269304Y-104038160D01*
X87310429Y-104066828D01*
X87373183Y-104097139D01*
X87501073Y-104156775D01*
X87346019Y-104489289D01*
X87287647Y-104612665D01*
X87237807Y-104714615D01*
X87201200Y-104785773D01*
X87182527Y-104816767D01*
X87181398Y-104817342D01*
X87160937Y-104793902D01*
X87118688Y-104738516D01*
X87084346Y-104691575D01*
X86996861Y-104570267D01*
X86960300Y-104648671D01*
X86943950Y-104699652D01*
X86951457Y-104749774D01*
X86987704Y-104816269D01*
X87022114Y-104866704D01*
X87111719Y-104973206D01*
X87201686Y-105043763D01*
X87216293Y-105051301D01*
X87312099Y-105096268D01*
X87705697Y-104252193D01*
X87705697Y-104252193D01*
G37*
X87705697Y-104252193D02*
X87820798Y-104305865D01*
X87892613Y-104336645D01*
X87932124Y-104339434D01*
X87957531Y-104311449D01*
X87971681Y-104282804D01*
X88007463Y-104206070D01*
X87316856Y-103884035D01*
X87281074Y-103960769D01*
X87262687Y-104007496D01*
X87269304Y-104038160D01*
X87310429Y-104066828D01*
X87373183Y-104097139D01*
X87501073Y-104156775D01*
X87346019Y-104489289D01*
X87287647Y-104612665D01*
X87237807Y-104714615D01*
X87201200Y-104785773D01*
X87182527Y-104816767D01*
X87181398Y-104817342D01*
X87160937Y-104793902D01*
X87118688Y-104738516D01*
X87084346Y-104691575D01*
X86996861Y-104570267D01*
X86960300Y-104648671D01*
X86943950Y-104699652D01*
X86951457Y-104749774D01*
X86987704Y-104816269D01*
X87022114Y-104866704D01*
X87111719Y-104973206D01*
X87201686Y-105043763D01*
X87216293Y-105051301D01*
X87312099Y-105096268D01*
X87705697Y-104252193D01*
G36*
X91491244Y-106017422D02*
X91606345Y-106071095D01*
X91678160Y-106101875D01*
X91717671Y-106104663D01*
X91743078Y-106076679D01*
X91757228Y-106048034D01*
X91793010Y-105971299D01*
X91102403Y-105649264D01*
X91066621Y-105725999D01*
X91048234Y-105772726D01*
X91054850Y-105803389D01*
X91095976Y-105832058D01*
X91158730Y-105862368D01*
X91286620Y-105922004D01*
X91131566Y-106254519D01*
X91073194Y-106377894D01*
X91023354Y-106479845D01*
X90986747Y-106551003D01*
X90968074Y-106581996D01*
X90966945Y-106582572D01*
X90946483Y-106559131D01*
X90904235Y-106503745D01*
X90869893Y-106456804D01*
X90782408Y-106335497D01*
X90745847Y-106413901D01*
X90729497Y-106464881D01*
X90737003Y-106515004D01*
X90773251Y-106581499D01*
X90807661Y-106631933D01*
X90897266Y-106738435D01*
X90987233Y-106808993D01*
X91001840Y-106816530D01*
X91097646Y-106861498D01*
X91491244Y-106017422D01*
X91491244Y-106017422D01*
G37*
X91491244Y-106017422D02*
X91606345Y-106071095D01*
X91678160Y-106101875D01*
X91717671Y-106104663D01*
X91743078Y-106076679D01*
X91757228Y-106048034D01*
X91793010Y-105971299D01*
X91102403Y-105649264D01*
X91066621Y-105725999D01*
X91048234Y-105772726D01*
X91054850Y-105803389D01*
X91095976Y-105832058D01*
X91158730Y-105862368D01*
X91286620Y-105922004D01*
X91131566Y-106254519D01*
X91073194Y-106377894D01*
X91023354Y-106479845D01*
X90986747Y-106551003D01*
X90968074Y-106581996D01*
X90966945Y-106582572D01*
X90946483Y-106559131D01*
X90904235Y-106503745D01*
X90869893Y-106456804D01*
X90782408Y-106335497D01*
X90745847Y-106413901D01*
X90729497Y-106464881D01*
X90737003Y-106515004D01*
X90773251Y-106581499D01*
X90807661Y-106631933D01*
X90897266Y-106738435D01*
X90987233Y-106808993D01*
X91001840Y-106816530D01*
X91097646Y-106861498D01*
X91491244Y-106017422D01*
G36*
X91884822Y-107234713D02*
X92011388Y-107232663D01*
X92011804Y-107232578D01*
X92106287Y-107187730D01*
X92187676Y-107104132D01*
X92240024Y-106999410D01*
X92246455Y-106973297D01*
X92243331Y-106908513D01*
X92219967Y-106803979D01*
X92179306Y-106671407D01*
X92150093Y-106589337D01*
X92037698Y-106287808D01*
X92276479Y-106390200D01*
X92515260Y-106492592D01*
X92585928Y-106341044D01*
X91895322Y-106019008D01*
X91861205Y-106092173D01*
X91841613Y-106193828D01*
X91858167Y-106337620D01*
X91910938Y-106523958D01*
X91960187Y-106656784D01*
X92008214Y-106791670D01*
X92027141Y-106889187D01*
X92016576Y-106960564D01*
X91976128Y-107017029D01*
X91946793Y-107041530D01*
X91885683Y-107057683D01*
X91819408Y-107035159D01*
X91764239Y-106986861D01*
X91736451Y-106925690D01*
X91742981Y-106879940D01*
X91727221Y-106854482D01*
X91674382Y-106819773D01*
X91651745Y-106808480D01*
X91578913Y-106782226D01*
X91539110Y-106792818D01*
X91526142Y-106846408D01*
X91531352Y-106928184D01*
X91569541Y-107034755D01*
X91650268Y-107127124D01*
X91759905Y-107196655D01*
X91884822Y-107234713D01*
X91884822Y-107234713D01*
G37*
X91884822Y-107234713D02*
X92011388Y-107232663D01*
X92011804Y-107232578D01*
X92106287Y-107187730D01*
X92187676Y-107104132D01*
X92240024Y-106999410D01*
X92246455Y-106973297D01*
X92243331Y-106908513D01*
X92219967Y-106803979D01*
X92179306Y-106671407D01*
X92150093Y-106589337D01*
X92037698Y-106287808D01*
X92276479Y-106390200D01*
X92515260Y-106492592D01*
X92585928Y-106341044D01*
X91895322Y-106019008D01*
X91861205Y-106092173D01*
X91841613Y-106193828D01*
X91858167Y-106337620D01*
X91910938Y-106523958D01*
X91960187Y-106656784D01*
X92008214Y-106791670D01*
X92027141Y-106889187D01*
X92016576Y-106960564D01*
X91976128Y-107017029D01*
X91946793Y-107041530D01*
X91885683Y-107057683D01*
X91819408Y-107035159D01*
X91764239Y-106986861D01*
X91736451Y-106925690D01*
X91742981Y-106879940D01*
X91727221Y-106854482D01*
X91674382Y-106819773D01*
X91651745Y-106808480D01*
X91578913Y-106782226D01*
X91539110Y-106792818D01*
X91526142Y-106846408D01*
X91531352Y-106928184D01*
X91569541Y-107034755D01*
X91650268Y-107127124D01*
X91759905Y-107196655D01*
X91884822Y-107234713D01*
G36*
X96095288Y-108164323D02*
X96210389Y-108217996D01*
X96282203Y-108248775D01*
X96321715Y-108251564D01*
X96347122Y-108223580D01*
X96361271Y-108194935D01*
X96397053Y-108118200D01*
X95706447Y-107796165D01*
X95670665Y-107872899D01*
X95652277Y-107919627D01*
X95658894Y-107950290D01*
X95700020Y-107978958D01*
X95762774Y-108009269D01*
X95890664Y-108068905D01*
X95735610Y-108401419D01*
X95677238Y-108524795D01*
X95627398Y-108626746D01*
X95590791Y-108697904D01*
X95572118Y-108728897D01*
X95570989Y-108729473D01*
X95550527Y-108706032D01*
X95508279Y-108650646D01*
X95473936Y-108603705D01*
X95386451Y-108482398D01*
X95349891Y-108560802D01*
X95333541Y-108611782D01*
X95341046Y-108661904D01*
X95377294Y-108728399D01*
X95411705Y-108778834D01*
X95501309Y-108885336D01*
X95591277Y-108955894D01*
X95605884Y-108963431D01*
X95701689Y-109008398D01*
X96095288Y-108164323D01*
X96095288Y-108164323D01*
G37*
X96095288Y-108164323D02*
X96210389Y-108217996D01*
X96282203Y-108248775D01*
X96321715Y-108251564D01*
X96347122Y-108223580D01*
X96361271Y-108194935D01*
X96397053Y-108118200D01*
X95706447Y-107796165D01*
X95670665Y-107872899D01*
X95652277Y-107919627D01*
X95658894Y-107950290D01*
X95700020Y-107978958D01*
X95762774Y-108009269D01*
X95890664Y-108068905D01*
X95735610Y-108401419D01*
X95677238Y-108524795D01*
X95627398Y-108626746D01*
X95590791Y-108697904D01*
X95572118Y-108728897D01*
X95570989Y-108729473D01*
X95550527Y-108706032D01*
X95508279Y-108650646D01*
X95473936Y-108603705D01*
X95386451Y-108482398D01*
X95349891Y-108560802D01*
X95333541Y-108611782D01*
X95341046Y-108661904D01*
X95377294Y-108728399D01*
X95411705Y-108778834D01*
X95501309Y-108885336D01*
X95591277Y-108955894D01*
X95605884Y-108963431D01*
X95701689Y-109008398D01*
X96095288Y-108164323D01*
G36*
X100699331Y-110311224D02*
X100814433Y-110364896D01*
X100886247Y-110395676D01*
X100925758Y-110398465D01*
X100951165Y-110370480D01*
X100965315Y-110341835D01*
X101001097Y-110265101D01*
X100310490Y-109943066D01*
X100274708Y-110019800D01*
X100256321Y-110066527D01*
X100262937Y-110097190D01*
X100304063Y-110125859D01*
X100366817Y-110156170D01*
X100494707Y-110215806D01*
X100339653Y-110548320D01*
X100281281Y-110671696D01*
X100231442Y-110773646D01*
X100194834Y-110844804D01*
X100176161Y-110875798D01*
X100175032Y-110876373D01*
X100154570Y-110852933D01*
X100112322Y-110797547D01*
X100077980Y-110750606D01*
X99990495Y-110629299D01*
X99953934Y-110707702D01*
X99937584Y-110758683D01*
X99945090Y-110808805D01*
X99981338Y-110875300D01*
X100015748Y-110925735D01*
X100105353Y-111032237D01*
X100195320Y-111102794D01*
X100209927Y-111110332D01*
X100305733Y-111155299D01*
X100699331Y-110311224D01*
X100699331Y-110311224D01*
G37*
X100699331Y-110311224D02*
X100814433Y-110364896D01*
X100886247Y-110395676D01*
X100925758Y-110398465D01*
X100951165Y-110370480D01*
X100965315Y-110341835D01*
X101001097Y-110265101D01*
X100310490Y-109943066D01*
X100274708Y-110019800D01*
X100256321Y-110066527D01*
X100262937Y-110097190D01*
X100304063Y-110125859D01*
X100366817Y-110156170D01*
X100494707Y-110215806D01*
X100339653Y-110548320D01*
X100281281Y-110671696D01*
X100231442Y-110773646D01*
X100194834Y-110844804D01*
X100176161Y-110875798D01*
X100175032Y-110876373D01*
X100154570Y-110852933D01*
X100112322Y-110797547D01*
X100077980Y-110750606D01*
X99990495Y-110629299D01*
X99953934Y-110707702D01*
X99937584Y-110758683D01*
X99945090Y-110808805D01*
X99981338Y-110875300D01*
X100015748Y-110925735D01*
X100105353Y-111032237D01*
X100195320Y-111102794D01*
X100209927Y-111110332D01*
X100305733Y-111155299D01*
X100699331Y-110311224D01*
G36*
X101550300Y-110957155D02*
X101614246Y-110986974D01*
X101663796Y-111000026D01*
X101696884Y-110972714D01*
X101713972Y-110940057D01*
X101732661Y-110882009D01*
X101712761Y-110848305D01*
X101685809Y-110833506D01*
X101647214Y-110808710D01*
X101641185Y-110773831D01*
X101665440Y-110710296D01*
X101669572Y-110701375D01*
X101697648Y-110634740D01*
X101693990Y-110597606D01*
X101650713Y-110568322D01*
X101614969Y-110551354D01*
X101548333Y-110523278D01*
X101511199Y-110526938D01*
X101481915Y-110570214D01*
X101464948Y-110605958D01*
X101417239Y-110708270D01*
X100956835Y-110493580D01*
X100920985Y-110570459D01*
X100908373Y-110631148D01*
X100908600Y-110675054D01*
X101057758Y-110744607D01*
X101084490Y-110747690D01*
X101146559Y-110770413D01*
X101204997Y-110796138D01*
X101345676Y-110861738D01*
X101139900Y-111303025D01*
X101095549Y-111030850D01*
X101077273Y-110913482D01*
X101064076Y-110818456D01*
X101057637Y-110758517D01*
X101057758Y-110744607D01*
X100908600Y-110675054D01*
X100908906Y-110734104D01*
X100922814Y-110883605D01*
X100947432Y-111064676D01*
X101009727Y-111482013D01*
X101130924Y-111539310D01*
X101252119Y-111596606D01*
X101550300Y-110957155D01*
X101550300Y-110957155D01*
G37*
X101550300Y-110957155D02*
X101614246Y-110986974D01*
X101663796Y-111000026D01*
X101696884Y-110972714D01*
X101713972Y-110940057D01*
X101732661Y-110882009D01*
X101712761Y-110848305D01*
X101685809Y-110833506D01*
X101647214Y-110808710D01*
X101641185Y-110773831D01*
X101665440Y-110710296D01*
X101669572Y-110701375D01*
X101697648Y-110634740D01*
X101693990Y-110597606D01*
X101650713Y-110568322D01*
X101614969Y-110551354D01*
X101548333Y-110523278D01*
X101511199Y-110526938D01*
X101481915Y-110570214D01*
X101464948Y-110605958D01*
X101417239Y-110708270D01*
X100956835Y-110493580D01*
X100920985Y-110570459D01*
X100908373Y-110631148D01*
X100908600Y-110675054D01*
X101057758Y-110744607D01*
X101084490Y-110747690D01*
X101146559Y-110770413D01*
X101204997Y-110796138D01*
X101345676Y-110861738D01*
X101139900Y-111303025D01*
X101095549Y-111030850D01*
X101077273Y-110913482D01*
X101064076Y-110818456D01*
X101057637Y-110758517D01*
X101057758Y-110744607D01*
X100908600Y-110675054D01*
X100908906Y-110734104D01*
X100922814Y-110883605D01*
X100947432Y-111064676D01*
X101009727Y-111482013D01*
X101130924Y-111539310D01*
X101252119Y-111596606D01*
X101550300Y-110957155D01*
G36*
X105354531Y-112481979D02*
X105469632Y-112535651D01*
X105541447Y-112566432D01*
X105580958Y-112569220D01*
X105606365Y-112541235D01*
X105620514Y-112512590D01*
X105656296Y-112435856D01*
X104965689Y-112113821D01*
X104929908Y-112190555D01*
X104911520Y-112237282D01*
X104918137Y-112267946D01*
X104959263Y-112296614D01*
X105022016Y-112326925D01*
X105149907Y-112386561D01*
X104994853Y-112719076D01*
X104936482Y-112842451D01*
X104886641Y-112944401D01*
X104850033Y-113015559D01*
X104831360Y-113046553D01*
X104830231Y-113047128D01*
X104809771Y-113023688D01*
X104767522Y-112968302D01*
X104733179Y-112921361D01*
X104645694Y-112800054D01*
X104609134Y-112878457D01*
X104592783Y-112929438D01*
X104600290Y-112979561D01*
X104636538Y-113046056D01*
X104670948Y-113096490D01*
X104760553Y-113202992D01*
X104850519Y-113273550D01*
X104865127Y-113281087D01*
X104960932Y-113326054D01*
X105354531Y-112481979D01*
X105354531Y-112481979D01*
G37*
X105354531Y-112481979D02*
X105469632Y-112535651D01*
X105541447Y-112566432D01*
X105580958Y-112569220D01*
X105606365Y-112541235D01*
X105620514Y-112512590D01*
X105656296Y-112435856D01*
X104965689Y-112113821D01*
X104929908Y-112190555D01*
X104911520Y-112237282D01*
X104918137Y-112267946D01*
X104959263Y-112296614D01*
X105022016Y-112326925D01*
X105149907Y-112386561D01*
X104994853Y-112719076D01*
X104936482Y-112842451D01*
X104886641Y-112944401D01*
X104850033Y-113015559D01*
X104831360Y-113046553D01*
X104830231Y-113047128D01*
X104809771Y-113023688D01*
X104767522Y-112968302D01*
X104733179Y-112921361D01*
X104645694Y-112800054D01*
X104609134Y-112878457D01*
X104592783Y-112929438D01*
X104600290Y-112979561D01*
X104636538Y-113046056D01*
X104670948Y-113096490D01*
X104760553Y-113202992D01*
X104850519Y-113273550D01*
X104865127Y-113281087D01*
X104960932Y-113326054D01*
X105354531Y-112481979D01*
G36*
X129599730Y-121878607D02*
X129606227Y-121861529D01*
X129611881Y-121828972D01*
X129616748Y-121777586D01*
X129620886Y-121704022D01*
X129624351Y-121604930D01*
X129627200Y-121476962D01*
X129629490Y-121316766D01*
X129631277Y-121120995D01*
X129632618Y-120886298D01*
X129633571Y-120609326D01*
X129634191Y-120286729D01*
X129634536Y-119915159D01*
X129634662Y-119491265D01*
X129634666Y-119385889D01*
X129634582Y-118949472D01*
X129634293Y-118566149D01*
X129633741Y-118232572D01*
X129632870Y-117945391D01*
X129631623Y-117701256D01*
X129629944Y-117496818D01*
X129627775Y-117328727D01*
X129625060Y-117193634D01*
X129621741Y-117088190D01*
X129617763Y-117009044D01*
X129613069Y-116952848D01*
X129607601Y-116916252D01*
X129601304Y-116895906D01*
X129594119Y-116888462D01*
X129592333Y-116888222D01*
X129584936Y-116893171D01*
X129578439Y-116910249D01*
X129572785Y-116942806D01*
X129567918Y-116994192D01*
X129563780Y-117067756D01*
X129560315Y-117166847D01*
X129557466Y-117294816D01*
X129555176Y-117455011D01*
X129553389Y-117650783D01*
X129552047Y-117885480D01*
X129551095Y-118162452D01*
X129550475Y-118485048D01*
X129550130Y-118856619D01*
X129550004Y-119280513D01*
X129550000Y-119385889D01*
X129550083Y-119822306D01*
X129550373Y-120205628D01*
X129550925Y-120539205D01*
X129551796Y-120826387D01*
X129553042Y-121070522D01*
X129554722Y-121274960D01*
X129556891Y-121443050D01*
X129559606Y-121578143D01*
X129562924Y-121683588D01*
X129566902Y-121762733D01*
X129571597Y-121818929D01*
X129577064Y-121855526D01*
X129583362Y-121875871D01*
X129590547Y-121883316D01*
X129592333Y-121883555D01*
X129599730Y-121878607D01*
X129599730Y-121878607D01*
G37*
X129599730Y-121878607D02*
X129606227Y-121861529D01*
X129611881Y-121828972D01*
X129616748Y-121777586D01*
X129620886Y-121704022D01*
X129624351Y-121604930D01*
X129627200Y-121476962D01*
X129629490Y-121316766D01*
X129631277Y-121120995D01*
X129632618Y-120886298D01*
X129633571Y-120609326D01*
X129634191Y-120286729D01*
X129634536Y-119915159D01*
X129634662Y-119491265D01*
X129634666Y-119385889D01*
X129634582Y-118949472D01*
X129634293Y-118566149D01*
X129633741Y-118232572D01*
X129632870Y-117945391D01*
X129631623Y-117701256D01*
X129629944Y-117496818D01*
X129627775Y-117328727D01*
X129625060Y-117193634D01*
X129621741Y-117088190D01*
X129617763Y-117009044D01*
X129613069Y-116952848D01*
X129607601Y-116916252D01*
X129601304Y-116895906D01*
X129594119Y-116888462D01*
X129592333Y-116888222D01*
X129584936Y-116893171D01*
X129578439Y-116910249D01*
X129572785Y-116942806D01*
X129567918Y-116994192D01*
X129563780Y-117067756D01*
X129560315Y-117166847D01*
X129557466Y-117294816D01*
X129555176Y-117455011D01*
X129553389Y-117650783D01*
X129552047Y-117885480D01*
X129551095Y-118162452D01*
X129550475Y-118485048D01*
X129550130Y-118856619D01*
X129550004Y-119280513D01*
X129550000Y-119385889D01*
X129550083Y-119822306D01*
X129550373Y-120205628D01*
X129550925Y-120539205D01*
X129551796Y-120826387D01*
X129553042Y-121070522D01*
X129554722Y-121274960D01*
X129556891Y-121443050D01*
X129559606Y-121578143D01*
X129562924Y-121683588D01*
X129566902Y-121762733D01*
X129571597Y-121818929D01*
X129577064Y-121855526D01*
X129583362Y-121875871D01*
X129590547Y-121883316D01*
X129592333Y-121883555D01*
X129599730Y-121878607D01*
G36*
X132174666Y-116888222D02*
X131920666Y-116888222D01*
X131920666Y-121883555D01*
X132174666Y-121883555D01*
X132174666Y-116888222D01*
X132174666Y-116888222D01*
G37*
X132174666Y-116888222D02*
X131920666Y-116888222D01*
X131920666Y-121883555D01*
X132174666Y-121883555D01*
X132174666Y-116888222D01*
G36*
X134714666Y-116888222D02*
X134460666Y-116888222D01*
X134460666Y-121883555D01*
X134714666Y-121883555D01*
X134714666Y-116888222D01*
X134714666Y-116888222D01*
G37*
X134714666Y-116888222D02*
X134460666Y-116888222D01*
X134460666Y-121883555D01*
X134714666Y-121883555D01*
X134714666Y-116888222D01*
G36*
X137254666Y-116888222D02*
X137000666Y-116888222D01*
X137000666Y-121883555D01*
X137254666Y-121883555D01*
X137254666Y-116888222D01*
X137254666Y-116888222D01*
G37*
X137254666Y-116888222D02*
X137000666Y-116888222D01*
X137000666Y-121883555D01*
X137254666Y-121883555D01*
X137254666Y-116888222D01*
G36*
X139794666Y-116888222D02*
X139540666Y-116888222D01*
X139540666Y-121883555D01*
X139794666Y-121883555D01*
X139794666Y-116888222D01*
X139794666Y-116888222D01*
G37*
X139794666Y-116888222D02*
X139540666Y-116888222D01*
X139540666Y-121883555D01*
X139794666Y-121883555D01*
X139794666Y-116888222D01*
G36*
X142334666Y-116888222D02*
X142080666Y-116888222D01*
X142080666Y-121883555D01*
X142334666Y-121883555D01*
X142334666Y-116888222D01*
X142334666Y-116888222D01*
G37*
X142334666Y-116888222D02*
X142080666Y-116888222D01*
X142080666Y-121883555D01*
X142334666Y-121883555D01*
X142334666Y-116888222D01*
G36*
X144874666Y-116888222D02*
X144620666Y-116888222D01*
X144620666Y-121883555D01*
X144874666Y-121883555D01*
X144874666Y-116888222D01*
X144874666Y-116888222D01*
G37*
X144874666Y-116888222D02*
X144620666Y-116888222D01*
X144620666Y-121883555D01*
X144874666Y-121883555D01*
X144874666Y-116888222D01*
G36*
X147442888Y-116888222D02*
X147160666Y-116888222D01*
X147160666Y-121883555D01*
X147442888Y-121883555D01*
X147442888Y-116888222D01*
X147442888Y-116888222D01*
G37*
X147442888Y-116888222D02*
X147160666Y-116888222D01*
X147160666Y-121883555D01*
X147442888Y-121883555D01*
X147442888Y-116888222D01*
G36*
X149982888Y-116888222D02*
X149700666Y-116888222D01*
X149700666Y-121883555D01*
X149982888Y-121883555D01*
X149982888Y-116888222D01*
X149982888Y-116888222D01*
G37*
X149982888Y-116888222D02*
X149700666Y-116888222D01*
X149700666Y-121883555D01*
X149982888Y-121883555D01*
X149982888Y-116888222D01*
G36*
X152522888Y-116888222D02*
X152240666Y-116888222D01*
X152240666Y-121883555D01*
X152522888Y-121883555D01*
X152522888Y-116888222D01*
X152522888Y-116888222D01*
G37*
X152522888Y-116888222D02*
X152240666Y-116888222D01*
X152240666Y-121883555D01*
X152522888Y-121883555D01*
X152522888Y-116888222D01*
G36*
X155062888Y-116888222D02*
X154808888Y-116888222D01*
X154808888Y-121883555D01*
X155062888Y-121883555D01*
X155062888Y-116888222D01*
X155062888Y-116888222D01*
G37*
X155062888Y-116888222D02*
X154808888Y-116888222D01*
X154808888Y-121883555D01*
X155062888Y-121883555D01*
X155062888Y-116888222D01*
G36*
X157602888Y-116888222D02*
X157348888Y-116888222D01*
X157348888Y-121883555D01*
X157602888Y-121883555D01*
X157602888Y-116888222D01*
X157602888Y-116888222D01*
G37*
X157602888Y-116888222D02*
X157348888Y-116888222D01*
X157348888Y-121883555D01*
X157602888Y-121883555D01*
X157602888Y-116888222D01*
G36*
X160171111Y-116888222D02*
X159888888Y-116888222D01*
X159888888Y-121883555D01*
X160171111Y-121883555D01*
X160171111Y-116888222D01*
X160171111Y-116888222D01*
G37*
X160171111Y-116888222D02*
X159888888Y-116888222D01*
X159888888Y-121883555D01*
X160171111Y-121883555D01*
X160171111Y-116888222D01*
G36*
X162711111Y-116888222D02*
X162457111Y-116888222D01*
X162457111Y-121883555D01*
X162711111Y-121883555D01*
X162711111Y-116888222D01*
X162711111Y-116888222D01*
G37*
X162711111Y-116888222D02*
X162457111Y-116888222D01*
X162457111Y-121883555D01*
X162711111Y-121883555D01*
X162711111Y-116888222D01*
G36*
X165279333Y-116888222D02*
X165025333Y-116888222D01*
X165025333Y-121883555D01*
X165279333Y-121883555D01*
X165279333Y-116888222D01*
X165279333Y-116888222D01*
G37*
X165279333Y-116888222D02*
X165025333Y-116888222D01*
X165025333Y-121883555D01*
X165279333Y-121883555D01*
X165279333Y-116888222D01*
G36*
X167678222Y-116888222D02*
X167508888Y-116888222D01*
X167508888Y-121883555D01*
X167678222Y-121883555D01*
X167678222Y-116888222D01*
X167678222Y-116888222D01*
G37*
X167678222Y-116888222D02*
X167508888Y-116888222D01*
X167508888Y-121883555D01*
X167678222Y-121883555D01*
X167678222Y-116888222D01*
G36*
X133423780Y-119688923D02*
X133484011Y-119667638D01*
X133576122Y-119608288D01*
X133641723Y-119525811D01*
X133684033Y-119412034D01*
X133706272Y-119258785D01*
X133711800Y-119089555D01*
X133710048Y-118947330D01*
X133703254Y-118846340D01*
X133689109Y-118771443D01*
X133665307Y-118707495D01*
X133648426Y-118673690D01*
X133594378Y-118590441D01*
X133533859Y-118523248D01*
X133513254Y-118507116D01*
X133413429Y-118466965D01*
X133287742Y-118449996D01*
X133162514Y-118457869D01*
X133086659Y-118480190D01*
X133023682Y-118524950D01*
X132962409Y-118592757D01*
X132919194Y-118663112D01*
X132908444Y-118703547D01*
X132933353Y-118714854D01*
X132995878Y-118729048D01*
X133025377Y-118734151D01*
X133108289Y-118741256D01*
X133161767Y-118724991D01*
X133197320Y-118693804D01*
X133267009Y-118649747D01*
X133338631Y-118655465D01*
X133404094Y-118705187D01*
X133455304Y-118793142D01*
X133482047Y-118896845D01*
X133496845Y-119000468D01*
X133398918Y-118942690D01*
X133285235Y-118902834D01*
X133162436Y-118902581D01*
X133052206Y-118940545D01*
X133015247Y-118967219D01*
X132936376Y-119070514D01*
X132893185Y-119198026D01*
X132888092Y-119284873D01*
X133132533Y-119284873D01*
X133151402Y-119191735D01*
X133196344Y-119114290D01*
X133262947Y-119067984D01*
X133303555Y-119061333D01*
X133364993Y-119080488D01*
X133416444Y-119117778D01*
X133462589Y-119200391D01*
X133469360Y-119302799D01*
X133436890Y-119404482D01*
X133414396Y-119438527D01*
X133341807Y-119500031D01*
X133266001Y-119505344D01*
X133190666Y-119456444D01*
X133144150Y-119378259D01*
X133132533Y-119284873D01*
X132888092Y-119284873D01*
X132885151Y-119335017D01*
X132911750Y-119466752D01*
X132972458Y-119578493D01*
X133039140Y-119639716D01*
X133153404Y-119686908D01*
X133290293Y-119703855D01*
X133423780Y-119688923D01*
X133423780Y-119688923D01*
G37*
X133423780Y-119688923D02*
X133484011Y-119667638D01*
X133576122Y-119608288D01*
X133641723Y-119525811D01*
X133684033Y-119412034D01*
X133706272Y-119258785D01*
X133711800Y-119089555D01*
X133710048Y-118947330D01*
X133703254Y-118846340D01*
X133689109Y-118771443D01*
X133665307Y-118707495D01*
X133648426Y-118673690D01*
X133594378Y-118590441D01*
X133533859Y-118523248D01*
X133513254Y-118507116D01*
X133413429Y-118466965D01*
X133287742Y-118449996D01*
X133162514Y-118457869D01*
X133086659Y-118480190D01*
X133023682Y-118524950D01*
X132962409Y-118592757D01*
X132919194Y-118663112D01*
X132908444Y-118703547D01*
X132933353Y-118714854D01*
X132995878Y-118729048D01*
X133025377Y-118734151D01*
X133108289Y-118741256D01*
X133161767Y-118724991D01*
X133197320Y-118693804D01*
X133267009Y-118649747D01*
X133338631Y-118655465D01*
X133404094Y-118705187D01*
X133455304Y-118793142D01*
X133482047Y-118896845D01*
X133496845Y-119000468D01*
X133398918Y-118942690D01*
X133285235Y-118902834D01*
X133162436Y-118902581D01*
X133052206Y-118940545D01*
X133015247Y-118967219D01*
X132936376Y-119070514D01*
X132893185Y-119198026D01*
X132888092Y-119284873D01*
X133132533Y-119284873D01*
X133151402Y-119191735D01*
X133196344Y-119114290D01*
X133262947Y-119067984D01*
X133303555Y-119061333D01*
X133364993Y-119080488D01*
X133416444Y-119117778D01*
X133462589Y-119200391D01*
X133469360Y-119302799D01*
X133436890Y-119404482D01*
X133414396Y-119438527D01*
X133341807Y-119500031D01*
X133266001Y-119505344D01*
X133190666Y-119456444D01*
X133144150Y-119378259D01*
X133132533Y-119284873D01*
X132888092Y-119284873D01*
X132885151Y-119335017D01*
X132911750Y-119466752D01*
X132972458Y-119578493D01*
X133039140Y-119639716D01*
X133153404Y-119686908D01*
X133290293Y-119703855D01*
X133423780Y-119688923D01*
G36*
X141012932Y-119701512D02*
X141136957Y-119662125D01*
X141236914Y-119588157D01*
X141272160Y-119540575D01*
X141313587Y-119423010D01*
X141307291Y-119305109D01*
X141256935Y-119201299D01*
X141167105Y-119126485D01*
X141082977Y-119082980D01*
X141170469Y-119046193D01*
X141274545Y-118976393D01*
X141331486Y-118876347D01*
X141339057Y-118750012D01*
X141338805Y-118748103D01*
X141316075Y-118658985D01*
X141279635Y-118585522D01*
X141271669Y-118575470D01*
X141165849Y-118496316D01*
X141029313Y-118452011D01*
X140877326Y-118444662D01*
X140725152Y-118476380D01*
X140681525Y-118493928D01*
X140574767Y-118566109D01*
X140516836Y-118650823D01*
X140489003Y-118719148D01*
X140479434Y-118763510D01*
X140481368Y-118769665D01*
X140521706Y-118787178D01*
X140587528Y-118797972D01*
X140657523Y-118800899D01*
X140710378Y-118794814D01*
X140726000Y-118782827D01*
X140750202Y-118727850D01*
X140809282Y-118676145D01*
X140882951Y-118642925D01*
X140919181Y-118638000D01*
X141009641Y-118662962D01*
X141071835Y-118728995D01*
X141092888Y-118815011D01*
X141067381Y-118893297D01*
X140998568Y-118949770D01*
X140898016Y-118975852D01*
X140874942Y-118976667D01*
X140812898Y-118981481D01*
X140787449Y-119007423D01*
X140782447Y-119071739D01*
X140782444Y-119075444D01*
X140787375Y-119141951D01*
X140811134Y-119169219D01*
X140860831Y-119174222D01*
X140961802Y-119195198D01*
X141033668Y-119251440D01*
X141064329Y-119332920D01*
X141064666Y-119343140D01*
X141043028Y-119434394D01*
X140987868Y-119492219D01*
X140913816Y-119511379D01*
X140835501Y-119486639D01*
X140787486Y-119442333D01*
X140720872Y-119387252D01*
X140631881Y-119371778D01*
X140547673Y-119381585D01*
X140513435Y-119414836D01*
X140525946Y-119477278D01*
X140548426Y-119520720D01*
X140632585Y-119615922D01*
X140747131Y-119678037D01*
X140878452Y-119706692D01*
X141012932Y-119701512D01*
X141012932Y-119701512D01*
G37*
X141012932Y-119701512D02*
X141136957Y-119662125D01*
X141236914Y-119588157D01*
X141272160Y-119540575D01*
X141313587Y-119423010D01*
X141307291Y-119305109D01*
X141256935Y-119201299D01*
X141167105Y-119126485D01*
X141082977Y-119082980D01*
X141170469Y-119046193D01*
X141274545Y-118976393D01*
X141331486Y-118876347D01*
X141339057Y-118750012D01*
X141338805Y-118748103D01*
X141316075Y-118658985D01*
X141279635Y-118585522D01*
X141271669Y-118575470D01*
X141165849Y-118496316D01*
X141029313Y-118452011D01*
X140877326Y-118444662D01*
X140725152Y-118476380D01*
X140681525Y-118493928D01*
X140574767Y-118566109D01*
X140516836Y-118650823D01*
X140489003Y-118719148D01*
X140479434Y-118763510D01*
X140481368Y-118769665D01*
X140521706Y-118787178D01*
X140587528Y-118797972D01*
X140657523Y-118800899D01*
X140710378Y-118794814D01*
X140726000Y-118782827D01*
X140750202Y-118727850D01*
X140809282Y-118676145D01*
X140882951Y-118642925D01*
X140919181Y-118638000D01*
X141009641Y-118662962D01*
X141071835Y-118728995D01*
X141092888Y-118815011D01*
X141067381Y-118893297D01*
X140998568Y-118949770D01*
X140898016Y-118975852D01*
X140874942Y-118976667D01*
X140812898Y-118981481D01*
X140787449Y-119007423D01*
X140782447Y-119071739D01*
X140782444Y-119075444D01*
X140787375Y-119141951D01*
X140811134Y-119169219D01*
X140860831Y-119174222D01*
X140961802Y-119195198D01*
X141033668Y-119251440D01*
X141064329Y-119332920D01*
X141064666Y-119343140D01*
X141043028Y-119434394D01*
X140987868Y-119492219D01*
X140913816Y-119511379D01*
X140835501Y-119486639D01*
X140787486Y-119442333D01*
X140720872Y-119387252D01*
X140631881Y-119371778D01*
X140547673Y-119381585D01*
X140513435Y-119414836D01*
X140525946Y-119477278D01*
X140548426Y-119520720D01*
X140632585Y-119615922D01*
X140747131Y-119678037D01*
X140878452Y-119706692D01*
X141012932Y-119701512D01*
G36*
X151450444Y-119512889D02*
X150942444Y-119512889D01*
X150942444Y-119358365D01*
X150943558Y-119270320D01*
X150951247Y-119227280D01*
X150972032Y-119217804D01*
X151012434Y-119230452D01*
X151014837Y-119231365D01*
X151149878Y-119256798D01*
X151273729Y-119232898D01*
X151378279Y-119166693D01*
X151455416Y-119065209D01*
X151497029Y-118935475D01*
X151498852Y-118812016D01*
X151456727Y-118667233D01*
X151371079Y-118552732D01*
X151249672Y-118475233D01*
X151100275Y-118441453D01*
X151069444Y-118440532D01*
X150966216Y-118453824D01*
X150866351Y-118486194D01*
X150858737Y-118489877D01*
X150798205Y-118532734D01*
X150738151Y-118594030D01*
X150689761Y-118659177D01*
X150664219Y-118713593D01*
X150667462Y-118739314D01*
X150702088Y-118752642D01*
X150769347Y-118767451D01*
X150783804Y-118769912D01*
X150859541Y-118774677D01*
X150910073Y-118750572D01*
X150944571Y-118712261D01*
X151018478Y-118653318D01*
X151098746Y-118641998D01*
X151172870Y-118672727D01*
X151228341Y-118739930D01*
X151252652Y-118838033D01*
X151252888Y-118849667D01*
X151233312Y-118941341D01*
X151183104Y-119012446D01*
X151115048Y-119055310D01*
X151041928Y-119062265D01*
X150976527Y-119025639D01*
X150970666Y-119019000D01*
X150914723Y-118989070D01*
X150819072Y-118976776D01*
X150807907Y-118976667D01*
X150680282Y-118976667D01*
X150698273Y-119167167D01*
X150708156Y-119298110D01*
X150714776Y-119436071D01*
X150716466Y-119519944D01*
X150716666Y-119682222D01*
X151450444Y-119682222D01*
X151450444Y-119512889D01*
X151450444Y-119512889D01*
G37*
X151450444Y-119512889D02*
X150942444Y-119512889D01*
X150942444Y-119358365D01*
X150943558Y-119270320D01*
X150951247Y-119227280D01*
X150972032Y-119217804D01*
X151012434Y-119230452D01*
X151014837Y-119231365D01*
X151149878Y-119256798D01*
X151273729Y-119232898D01*
X151378279Y-119166693D01*
X151455416Y-119065209D01*
X151497029Y-118935475D01*
X151498852Y-118812016D01*
X151456727Y-118667233D01*
X151371079Y-118552732D01*
X151249672Y-118475233D01*
X151100275Y-118441453D01*
X151069444Y-118440532D01*
X150966216Y-118453824D01*
X150866351Y-118486194D01*
X150858737Y-118489877D01*
X150798205Y-118532734D01*
X150738151Y-118594030D01*
X150689761Y-118659177D01*
X150664219Y-118713593D01*
X150667462Y-118739314D01*
X150702088Y-118752642D01*
X150769347Y-118767451D01*
X150783804Y-118769912D01*
X150859541Y-118774677D01*
X150910073Y-118750572D01*
X150944571Y-118712261D01*
X151018478Y-118653318D01*
X151098746Y-118641998D01*
X151172870Y-118672727D01*
X151228341Y-118739930D01*
X151252652Y-118838033D01*
X151252888Y-118849667D01*
X151233312Y-118941341D01*
X151183104Y-119012446D01*
X151115048Y-119055310D01*
X151041928Y-119062265D01*
X150976527Y-119025639D01*
X150970666Y-119019000D01*
X150914723Y-118989070D01*
X150819072Y-118976776D01*
X150807907Y-118976667D01*
X150680282Y-118976667D01*
X150698273Y-119167167D01*
X150708156Y-119298110D01*
X150714776Y-119436071D01*
X150716466Y-119519944D01*
X150716666Y-119682222D01*
X151450444Y-119682222D01*
X151450444Y-119512889D01*
G36*
X156300907Y-119700102D02*
X156424727Y-119658347D01*
X156516702Y-119582219D01*
X156532523Y-119559368D01*
X156568097Y-119496730D01*
X156586205Y-119456443D01*
X156586783Y-119452996D01*
X156561911Y-119438200D01*
X156499361Y-119422007D01*
X156469955Y-119416738D01*
X156387043Y-119409633D01*
X156333566Y-119425898D01*
X156298012Y-119457085D01*
X156228323Y-119501142D01*
X156156701Y-119495424D01*
X156091238Y-119445702D01*
X156040028Y-119357747D01*
X156013285Y-119254044D01*
X155998488Y-119150421D01*
X156096414Y-119208199D01*
X156210097Y-119248055D01*
X156332896Y-119248308D01*
X156443126Y-119210344D01*
X156480085Y-119183669D01*
X156559644Y-119079831D01*
X156601767Y-118953310D01*
X156607839Y-118817821D01*
X156579246Y-118687080D01*
X156517371Y-118574803D01*
X156423600Y-118494706D01*
X156409814Y-118487692D01*
X156265471Y-118445403D01*
X156121987Y-118450586D01*
X155994975Y-118502630D01*
X155992866Y-118504040D01*
X155903222Y-118576551D01*
X155841950Y-118659939D01*
X155804495Y-118765965D01*
X155786302Y-118906393D01*
X155786066Y-118915296D01*
X156028305Y-118915296D01*
X156031879Y-118818052D01*
X156071519Y-118725160D01*
X156080937Y-118712362D01*
X156153525Y-118650858D01*
X156229332Y-118645545D01*
X156304666Y-118694444D01*
X156351183Y-118772630D01*
X156362800Y-118866015D01*
X156343931Y-118959154D01*
X156298988Y-119036599D01*
X156232386Y-119082905D01*
X156191777Y-119089555D01*
X156112473Y-119065407D01*
X156056576Y-119002534D01*
X156028305Y-118915296D01*
X155786066Y-118915296D01*
X155782555Y-119047222D01*
X155794411Y-119265266D01*
X155831362Y-119435380D01*
X155895483Y-119561170D01*
X155988846Y-119646244D01*
X156113527Y-119694208D01*
X156159189Y-119702149D01*
X156300907Y-119700102D01*
X156300907Y-119700102D01*
G37*
X156300907Y-119700102D02*
X156424727Y-119658347D01*
X156516702Y-119582219D01*
X156532523Y-119559368D01*
X156568097Y-119496730D01*
X156586205Y-119456443D01*
X156586783Y-119452996D01*
X156561911Y-119438200D01*
X156499361Y-119422007D01*
X156469955Y-119416738D01*
X156387043Y-119409633D01*
X156333566Y-119425898D01*
X156298012Y-119457085D01*
X156228323Y-119501142D01*
X156156701Y-119495424D01*
X156091238Y-119445702D01*
X156040028Y-119357747D01*
X156013285Y-119254044D01*
X155998488Y-119150421D01*
X156096414Y-119208199D01*
X156210097Y-119248055D01*
X156332896Y-119248308D01*
X156443126Y-119210344D01*
X156480085Y-119183669D01*
X156559644Y-119079831D01*
X156601767Y-118953310D01*
X156607839Y-118817821D01*
X156579246Y-118687080D01*
X156517371Y-118574803D01*
X156423600Y-118494706D01*
X156409814Y-118487692D01*
X156265471Y-118445403D01*
X156121987Y-118450586D01*
X155994975Y-118502630D01*
X155992866Y-118504040D01*
X155903222Y-118576551D01*
X155841950Y-118659939D01*
X155804495Y-118765965D01*
X155786302Y-118906393D01*
X155786066Y-118915296D01*
X156028305Y-118915296D01*
X156031879Y-118818052D01*
X156071519Y-118725160D01*
X156080937Y-118712362D01*
X156153525Y-118650858D01*
X156229332Y-118645545D01*
X156304666Y-118694444D01*
X156351183Y-118772630D01*
X156362800Y-118866015D01*
X156343931Y-118959154D01*
X156298988Y-119036599D01*
X156232386Y-119082905D01*
X156191777Y-119089555D01*
X156112473Y-119065407D01*
X156056576Y-119002534D01*
X156028305Y-118915296D01*
X155786066Y-118915296D01*
X155782555Y-119047222D01*
X155794411Y-119265266D01*
X155831362Y-119435380D01*
X155895483Y-119561170D01*
X155988846Y-119646244D01*
X156113527Y-119694208D01*
X156159189Y-119702149D01*
X156300907Y-119700102D01*
G36*
X166522719Y-119690628D02*
X166638678Y-119636822D01*
X166722800Y-119557489D01*
X166770010Y-119461091D01*
X166775232Y-119356093D01*
X166733392Y-119250956D01*
X166688454Y-119196113D01*
X166636421Y-119137174D01*
X166625355Y-119101711D01*
X166639066Y-119085827D01*
X166684319Y-119064268D01*
X166696775Y-119061765D01*
X166727805Y-119036562D01*
X166760973Y-118974751D01*
X166788518Y-118895292D01*
X166802679Y-118817149D01*
X166803227Y-118801679D01*
X166777904Y-118680985D01*
X166710930Y-118571236D01*
X166615396Y-118492294D01*
X166591955Y-118481079D01*
X166454578Y-118447458D01*
X166302984Y-118447223D01*
X166166517Y-118480291D01*
X166161833Y-118482286D01*
X166066048Y-118551417D01*
X165993781Y-118655352D01*
X165958326Y-118773386D01*
X165956772Y-118801679D01*
X165959419Y-118821444D01*
X166210666Y-118821444D01*
X166230824Y-118716096D01*
X166285714Y-118642227D01*
X166366963Y-118610304D01*
X166380000Y-118609778D01*
X166466566Y-118634633D01*
X166505399Y-118672502D01*
X166545029Y-118765508D01*
X166546761Y-118862681D01*
X166515679Y-118949405D01*
X166456865Y-119011064D01*
X166380000Y-119033111D01*
X166295721Y-119007914D01*
X166236625Y-118939301D01*
X166211087Y-118837740D01*
X166210666Y-118821444D01*
X165959419Y-118821444D01*
X165966849Y-118876912D01*
X165992058Y-118957728D01*
X166024637Y-119025165D01*
X166056826Y-119060263D01*
X166063224Y-119061765D01*
X166102883Y-119075611D01*
X166120933Y-119085827D01*
X166135302Y-119110995D01*
X166111764Y-119152802D01*
X166071545Y-119196113D01*
X166001642Y-119297716D01*
X165987652Y-119371778D01*
X166238888Y-119371778D01*
X166259941Y-119283853D01*
X166314455Y-119222352D01*
X166380000Y-119202444D01*
X166442102Y-119221532D01*
X166476761Y-119246794D01*
X166516083Y-119318176D01*
X166517919Y-119400634D01*
X166488046Y-119476598D01*
X166432241Y-119528501D01*
X166380000Y-119541111D01*
X166306729Y-119515848D01*
X166255478Y-119450431D01*
X166238888Y-119371778D01*
X165987652Y-119371778D01*
X165981595Y-119403837D01*
X166006329Y-119506015D01*
X166070768Y-119595785D01*
X166169836Y-119664685D01*
X166298458Y-119704252D01*
X166380000Y-119710444D01*
X166522719Y-119690628D01*
X166522719Y-119690628D01*
G37*
X166522719Y-119690628D02*
X166638678Y-119636822D01*
X166722800Y-119557489D01*
X166770010Y-119461091D01*
X166775232Y-119356093D01*
X166733392Y-119250956D01*
X166688454Y-119196113D01*
X166636421Y-119137174D01*
X166625355Y-119101711D01*
X166639066Y-119085827D01*
X166684319Y-119064268D01*
X166696775Y-119061765D01*
X166727805Y-119036562D01*
X166760973Y-118974751D01*
X166788518Y-118895292D01*
X166802679Y-118817149D01*
X166803227Y-118801679D01*
X166777904Y-118680985D01*
X166710930Y-118571236D01*
X166615396Y-118492294D01*
X166591955Y-118481079D01*
X166454578Y-118447458D01*
X166302984Y-118447223D01*
X166166517Y-118480291D01*
X166161833Y-118482286D01*
X166066048Y-118551417D01*
X165993781Y-118655352D01*
X165958326Y-118773386D01*
X165956772Y-118801679D01*
X165959419Y-118821444D01*
X166210666Y-118821444D01*
X166230824Y-118716096D01*
X166285714Y-118642227D01*
X166366963Y-118610304D01*
X166380000Y-118609778D01*
X166466566Y-118634633D01*
X166505399Y-118672502D01*
X166545029Y-118765508D01*
X166546761Y-118862681D01*
X166515679Y-118949405D01*
X166456865Y-119011064D01*
X166380000Y-119033111D01*
X166295721Y-119007914D01*
X166236625Y-118939301D01*
X166211087Y-118837740D01*
X166210666Y-118821444D01*
X165959419Y-118821444D01*
X165966849Y-118876912D01*
X165992058Y-118957728D01*
X166024637Y-119025165D01*
X166056826Y-119060263D01*
X166063224Y-119061765D01*
X166102883Y-119075611D01*
X166120933Y-119085827D01*
X166135302Y-119110995D01*
X166111764Y-119152802D01*
X166071545Y-119196113D01*
X166001642Y-119297716D01*
X165987652Y-119371778D01*
X166238888Y-119371778D01*
X166259941Y-119283853D01*
X166314455Y-119222352D01*
X166380000Y-119202444D01*
X166442102Y-119221532D01*
X166476761Y-119246794D01*
X166516083Y-119318176D01*
X166517919Y-119400634D01*
X166488046Y-119476598D01*
X166432241Y-119528501D01*
X166380000Y-119541111D01*
X166306729Y-119515848D01*
X166255478Y-119450431D01*
X166238888Y-119371778D01*
X165987652Y-119371778D01*
X165981595Y-119403837D01*
X166006329Y-119506015D01*
X166070768Y-119595785D01*
X166169836Y-119664685D01*
X166298458Y-119704252D01*
X166380000Y-119710444D01*
X166522719Y-119690628D01*
G36*
X130932888Y-118638000D02*
X131074000Y-118638000D01*
X131157534Y-118636150D01*
X131199189Y-118624777D01*
X131213526Y-118595144D01*
X131215111Y-118553333D01*
X131215111Y-118468667D01*
X130368444Y-118468667D01*
X130368444Y-118553333D01*
X130371050Y-118601736D01*
X130388132Y-118626929D01*
X130433582Y-118636491D01*
X130521292Y-118638000D01*
X130678888Y-118638000D01*
X130678888Y-119047222D01*
X130677464Y-119191905D01*
X130673545Y-119314124D01*
X130667664Y-119403958D01*
X130660352Y-119451485D01*
X130656946Y-119456444D01*
X130618704Y-119442053D01*
X130579335Y-119418439D01*
X130514309Y-119375018D01*
X130446055Y-119330526D01*
X130368444Y-119280619D01*
X130368691Y-119375587D01*
X130373990Y-119429833D01*
X130396691Y-119473089D01*
X130447502Y-119518423D01*
X130533226Y-119576389D01*
X130648317Y-119642343D01*
X130742569Y-119675133D01*
X130815201Y-119682222D01*
X130932888Y-119682222D01*
X130932888Y-118638000D01*
X130932888Y-118638000D01*
G37*
X130932888Y-118638000D02*
X131074000Y-118638000D01*
X131157534Y-118636150D01*
X131199189Y-118624777D01*
X131213526Y-118595144D01*
X131215111Y-118553333D01*
X131215111Y-118468667D01*
X130368444Y-118468667D01*
X130368444Y-118553333D01*
X130371050Y-118601736D01*
X130388132Y-118626929D01*
X130433582Y-118636491D01*
X130521292Y-118638000D01*
X130678888Y-118638000D01*
X130678888Y-119047222D01*
X130677464Y-119191905D01*
X130673545Y-119314124D01*
X130667664Y-119403958D01*
X130660352Y-119451485D01*
X130656946Y-119456444D01*
X130618704Y-119442053D01*
X130579335Y-119418439D01*
X130514309Y-119375018D01*
X130446055Y-119330526D01*
X130368444Y-119280619D01*
X130368691Y-119375587D01*
X130373990Y-119429833D01*
X130396691Y-119473089D01*
X130447502Y-119518423D01*
X130533226Y-119576389D01*
X130648317Y-119642343D01*
X130742569Y-119675133D01*
X130815201Y-119682222D01*
X130932888Y-119682222D01*
X130932888Y-118638000D01*
G36*
X136016972Y-119674069D02*
X136038365Y-119665917D01*
X136143568Y-119595263D01*
X136213138Y-119488185D01*
X136238662Y-119357707D01*
X136238666Y-119355881D01*
X136214441Y-119249762D01*
X136146642Y-119130055D01*
X136042586Y-119007589D01*
X135943721Y-118919305D01*
X135857730Y-118846803D01*
X135785503Y-118778494D01*
X135743107Y-118729722D01*
X135701143Y-118666222D01*
X136266888Y-118666222D01*
X136266888Y-118468667D01*
X135420222Y-118468667D01*
X135420222Y-118561165D01*
X135424591Y-118616548D01*
X135441436Y-118670424D01*
X135476358Y-118730890D01*
X135534963Y-118806039D01*
X135622852Y-118903968D01*
X135745630Y-119032771D01*
X135749268Y-119036532D01*
X135862002Y-119157373D01*
X135935883Y-119247570D01*
X135975203Y-119312872D01*
X135984666Y-119352017D01*
X135963151Y-119439165D01*
X135908902Y-119493916D01*
X135837366Y-119512002D01*
X135763990Y-119489154D01*
X135708187Y-119428401D01*
X135669208Y-119373990D01*
X135620292Y-119349541D01*
X135538570Y-119343737D01*
X135537107Y-119343734D01*
X135461269Y-119345705D01*
X135428772Y-119358416D01*
X135426521Y-119391627D01*
X135433185Y-119421167D01*
X135490806Y-119550841D01*
X135586116Y-119644252D01*
X135710993Y-119698117D01*
X135857319Y-119709150D01*
X136016972Y-119674069D01*
X136016972Y-119674069D01*
G37*
X136016972Y-119674069D02*
X136038365Y-119665917D01*
X136143568Y-119595263D01*
X136213138Y-119488185D01*
X136238662Y-119357707D01*
X136238666Y-119355881D01*
X136214441Y-119249762D01*
X136146642Y-119130055D01*
X136042586Y-119007589D01*
X135943721Y-118919305D01*
X135857730Y-118846803D01*
X135785503Y-118778494D01*
X135743107Y-118729722D01*
X135701143Y-118666222D01*
X136266888Y-118666222D01*
X136266888Y-118468667D01*
X135420222Y-118468667D01*
X135420222Y-118561165D01*
X135424591Y-118616548D01*
X135441436Y-118670424D01*
X135476358Y-118730890D01*
X135534963Y-118806039D01*
X135622852Y-118903968D01*
X135745630Y-119032771D01*
X135749268Y-119036532D01*
X135862002Y-119157373D01*
X135935883Y-119247570D01*
X135975203Y-119312872D01*
X135984666Y-119352017D01*
X135963151Y-119439165D01*
X135908902Y-119493916D01*
X135837366Y-119512002D01*
X135763990Y-119489154D01*
X135708187Y-119428401D01*
X135669208Y-119373990D01*
X135620292Y-119349541D01*
X135538570Y-119343737D01*
X135537107Y-119343734D01*
X135461269Y-119345705D01*
X135428772Y-119358416D01*
X135426521Y-119391627D01*
X135433185Y-119421167D01*
X135490806Y-119550841D01*
X135586116Y-119644252D01*
X135710993Y-119698117D01*
X135857319Y-119709150D01*
X136016972Y-119674069D01*
G36*
X146342222Y-118892000D02*
X146426888Y-118892000D01*
X146486858Y-118885007D01*
X146508961Y-118852020D01*
X146511555Y-118807333D01*
X146504562Y-118747364D01*
X146471575Y-118725260D01*
X146426888Y-118722667D01*
X146374826Y-118718985D01*
X146350167Y-118697728D01*
X146342700Y-118643579D01*
X146342222Y-118595667D01*
X146342222Y-118468667D01*
X146088222Y-118468667D01*
X146088222Y-118722667D01*
X145552000Y-118722667D01*
X145552000Y-118807876D01*
X145566990Y-118869869D01*
X145577155Y-118892000D01*
X145749168Y-118892000D01*
X146088222Y-118892000D01*
X146087364Y-119167167D01*
X146085788Y-119292485D01*
X146081358Y-119367875D01*
X146073096Y-119399822D01*
X146060021Y-119394809D01*
X146054335Y-119385889D01*
X146025266Y-119337111D01*
X145975117Y-119255066D01*
X145912803Y-119154298D01*
X145885667Y-119110722D01*
X145749168Y-118892000D01*
X145577155Y-118892000D01*
X145612775Y-118969550D01*
X145690571Y-119109284D01*
X145798944Y-119287204D01*
X146045888Y-119681322D01*
X146342222Y-119682222D01*
X146342222Y-118892000D01*
X146342222Y-118892000D01*
G37*
X146342222Y-118892000D02*
X146426888Y-118892000D01*
X146486858Y-118885007D01*
X146508961Y-118852020D01*
X146511555Y-118807333D01*
X146504562Y-118747364D01*
X146471575Y-118725260D01*
X146426888Y-118722667D01*
X146374826Y-118718985D01*
X146350167Y-118697728D01*
X146342700Y-118643579D01*
X146342222Y-118595667D01*
X146342222Y-118468667D01*
X146088222Y-118468667D01*
X146088222Y-118722667D01*
X145552000Y-118722667D01*
X145552000Y-118807876D01*
X145566990Y-118869869D01*
X145577155Y-118892000D01*
X145749168Y-118892000D01*
X146088222Y-118892000D01*
X146087364Y-119167167D01*
X146085788Y-119292485D01*
X146081358Y-119367875D01*
X146073096Y-119399822D01*
X146060021Y-119394809D01*
X146054335Y-119385889D01*
X146025266Y-119337111D01*
X145975117Y-119255066D01*
X145912803Y-119154298D01*
X145885667Y-119110722D01*
X145749168Y-118892000D01*
X145577155Y-118892000D01*
X145612775Y-118969550D01*
X145690571Y-119109284D01*
X145798944Y-119287204D01*
X146045888Y-119681322D01*
X146342222Y-119682222D01*
X146342222Y-118892000D01*
G36*
X161695111Y-119586156D02*
X161679083Y-119501189D01*
X161635692Y-119390979D01*
X161599249Y-119320492D01*
X161489385Y-119104812D01*
X161405155Y-118895045D01*
X161351903Y-118705416D01*
X161339169Y-118627936D01*
X161320450Y-118468667D01*
X161197336Y-118468667D01*
X161120209Y-118472087D01*
X161084265Y-118487634D01*
X161074396Y-118523238D01*
X161074222Y-118533293D01*
X161089815Y-118654967D01*
X161133043Y-118809010D01*
X161198583Y-118981969D01*
X161281108Y-119160392D01*
X161375294Y-119330825D01*
X161414511Y-119392944D01*
X161474876Y-119484667D01*
X160904888Y-119484667D01*
X160904888Y-119682222D01*
X161695111Y-119682222D01*
X161695111Y-119586156D01*
X161695111Y-119586156D01*
G37*
X161695111Y-119586156D02*
X161679083Y-119501189D01*
X161635692Y-119390979D01*
X161599249Y-119320492D01*
X161489385Y-119104812D01*
X161405155Y-118895045D01*
X161351903Y-118705416D01*
X161339169Y-118627936D01*
X161320450Y-118468667D01*
X161197336Y-118468667D01*
X161120209Y-118472087D01*
X161084265Y-118487634D01*
X161074396Y-118523238D01*
X161074222Y-118533293D01*
X161089815Y-118654967D01*
X161133043Y-118809010D01*
X161198583Y-118981969D01*
X161281108Y-119160392D01*
X161375294Y-119330825D01*
X161414511Y-119392944D01*
X161474876Y-119484667D01*
X160904888Y-119484667D01*
X160904888Y-119682222D01*
X161695111Y-119682222D01*
X161695111Y-119586156D01*
G36*
X138984214Y-119630992D02*
X139086261Y-119562677D01*
X139162305Y-119450153D01*
X139209914Y-119296436D01*
X139226654Y-119104541D01*
X139222307Y-118990077D01*
X139194551Y-118802803D01*
X139141937Y-118664022D01*
X139062211Y-118570507D01*
X138953120Y-118519031D01*
X138885645Y-118507943D01*
X138795013Y-118507145D01*
X138719309Y-118518138D01*
X138704953Y-118523040D01*
X138605427Y-118595734D01*
X138532126Y-118714185D01*
X138486959Y-118873211D01*
X138471837Y-119067630D01*
X138473908Y-119135442D01*
X138699148Y-119135442D01*
X138699317Y-118943033D01*
X138719260Y-118802226D01*
X138759435Y-118711583D01*
X138820302Y-118669671D01*
X138849222Y-118666222D01*
X138904360Y-118678507D01*
X138944493Y-118724628D01*
X138966634Y-118771473D01*
X138990158Y-118851061D01*
X139001126Y-118954608D01*
X139000813Y-119096315D01*
X138999295Y-119135442D01*
X138988362Y-119286383D01*
X138968882Y-119388898D01*
X138937514Y-119450764D01*
X138890915Y-119479758D01*
X138849222Y-119484667D01*
X138790468Y-119473445D01*
X138749199Y-119434595D01*
X138722071Y-119360339D01*
X138705743Y-119242900D01*
X138699148Y-119135442D01*
X138473908Y-119135442D01*
X138474321Y-119148934D01*
X138496395Y-119332578D01*
X138540470Y-119468714D01*
X138609333Y-119562911D01*
X138705777Y-119620736D01*
X138711835Y-119622936D01*
X138858594Y-119652084D01*
X138984214Y-119630992D01*
X138984214Y-119630992D01*
G37*
X138984214Y-119630992D02*
X139086261Y-119562677D01*
X139162305Y-119450153D01*
X139209914Y-119296436D01*
X139226654Y-119104541D01*
X139222307Y-118990077D01*
X139194551Y-118802803D01*
X139141937Y-118664022D01*
X139062211Y-118570507D01*
X138953120Y-118519031D01*
X138885645Y-118507943D01*
X138795013Y-118507145D01*
X138719309Y-118518138D01*
X138704953Y-118523040D01*
X138605427Y-118595734D01*
X138532126Y-118714185D01*
X138486959Y-118873211D01*
X138471837Y-119067630D01*
X138473908Y-119135442D01*
X138699148Y-119135442D01*
X138699317Y-118943033D01*
X138719260Y-118802226D01*
X138759435Y-118711583D01*
X138820302Y-118669671D01*
X138849222Y-118666222D01*
X138904360Y-118678507D01*
X138944493Y-118724628D01*
X138966634Y-118771473D01*
X138990158Y-118851061D01*
X139001126Y-118954608D01*
X139000813Y-119096315D01*
X138999295Y-119135442D01*
X138988362Y-119286383D01*
X138968882Y-119388898D01*
X138937514Y-119450764D01*
X138890915Y-119479758D01*
X138849222Y-119484667D01*
X138790468Y-119473445D01*
X138749199Y-119434595D01*
X138722071Y-119360339D01*
X138705743Y-119242900D01*
X138699148Y-119135442D01*
X138473908Y-119135442D01*
X138474321Y-119148934D01*
X138496395Y-119332578D01*
X138540470Y-119468714D01*
X138609333Y-119562911D01*
X138705777Y-119620736D01*
X138711835Y-119622936D01*
X138858594Y-119652084D01*
X138984214Y-119630992D01*
G36*
X154155732Y-119648156D02*
X154273915Y-119610180D01*
X154367705Y-119539879D01*
X154426742Y-119442071D01*
X154442000Y-119350104D01*
X154423509Y-119269712D01*
X154377341Y-119191948D01*
X154317446Y-119135334D01*
X154266893Y-119117672D01*
X154264004Y-119105371D01*
X154301386Y-119074791D01*
X154320254Y-119062738D01*
X154420059Y-118975595D01*
X154466920Y-118869896D01*
X154460018Y-118748743D01*
X154426014Y-118662597D01*
X154353492Y-118579226D01*
X154245830Y-118523416D01*
X154118566Y-118497880D01*
X153987242Y-118505330D01*
X153867397Y-118548478D01*
X153846451Y-118561442D01*
X153768728Y-118627236D01*
X153715124Y-118698421D01*
X153692403Y-118762467D01*
X153707331Y-118806840D01*
X153712096Y-118810325D01*
X153766112Y-118829162D01*
X153831557Y-118834327D01*
X153885642Y-118826174D01*
X153905777Y-118807333D01*
X153929088Y-118757069D01*
X153984789Y-118706359D01*
X154051529Y-118672028D01*
X154084848Y-118666222D01*
X154164037Y-118689519D01*
X154218317Y-118748061D01*
X154242094Y-118824825D01*
X154229771Y-118902788D01*
X154181720Y-118960955D01*
X154104176Y-118994988D01*
X154040609Y-119004889D01*
X153984919Y-119012679D01*
X153964434Y-119047854D01*
X153962222Y-119089555D01*
X153969361Y-119149644D01*
X154002040Y-119171764D01*
X154042514Y-119174222D01*
X154128562Y-119196231D01*
X154188314Y-119252021D01*
X154214304Y-119326235D01*
X154199066Y-119403516D01*
X154171873Y-119440317D01*
X154112917Y-119476715D01*
X154075111Y-119484667D01*
X154015887Y-119465858D01*
X153960966Y-119422388D01*
X153934210Y-119373688D01*
X153934000Y-119369762D01*
X153910121Y-119351891D01*
X153853882Y-119344408D01*
X153788377Y-119347183D01*
X153736703Y-119360088D01*
X153722845Y-119370949D01*
X153721285Y-119421347D01*
X153754749Y-119487923D01*
X153812001Y-119554522D01*
X153881801Y-119604985D01*
X153887633Y-119607861D01*
X154023517Y-119648988D01*
X154155732Y-119648156D01*
X154155732Y-119648156D01*
G37*
X154155732Y-119648156D02*
X154273915Y-119610180D01*
X154367705Y-119539879D01*
X154426742Y-119442071D01*
X154442000Y-119350104D01*
X154423509Y-119269712D01*
X154377341Y-119191948D01*
X154317446Y-119135334D01*
X154266893Y-119117672D01*
X154264004Y-119105371D01*
X154301386Y-119074791D01*
X154320254Y-119062738D01*
X154420059Y-118975595D01*
X154466920Y-118869896D01*
X154460018Y-118748743D01*
X154426014Y-118662597D01*
X154353492Y-118579226D01*
X154245830Y-118523416D01*
X154118566Y-118497880D01*
X153987242Y-118505330D01*
X153867397Y-118548478D01*
X153846451Y-118561442D01*
X153768728Y-118627236D01*
X153715124Y-118698421D01*
X153692403Y-118762467D01*
X153707331Y-118806840D01*
X153712096Y-118810325D01*
X153766112Y-118829162D01*
X153831557Y-118834327D01*
X153885642Y-118826174D01*
X153905777Y-118807333D01*
X153929088Y-118757069D01*
X153984789Y-118706359D01*
X154051529Y-118672028D01*
X154084848Y-118666222D01*
X154164037Y-118689519D01*
X154218317Y-118748061D01*
X154242094Y-118824825D01*
X154229771Y-118902788D01*
X154181720Y-118960955D01*
X154104176Y-118994988D01*
X154040609Y-119004889D01*
X153984919Y-119012679D01*
X153964434Y-119047854D01*
X153962222Y-119089555D01*
X153969361Y-119149644D01*
X154002040Y-119171764D01*
X154042514Y-119174222D01*
X154128562Y-119196231D01*
X154188314Y-119252021D01*
X154214304Y-119326235D01*
X154199066Y-119403516D01*
X154171873Y-119440317D01*
X154112917Y-119476715D01*
X154075111Y-119484667D01*
X154015887Y-119465858D01*
X153960966Y-119422388D01*
X153934210Y-119373688D01*
X153934000Y-119369762D01*
X153910121Y-119351891D01*
X153853882Y-119344408D01*
X153788377Y-119347183D01*
X153736703Y-119360088D01*
X153722845Y-119370949D01*
X153721285Y-119421347D01*
X153754749Y-119487923D01*
X153812001Y-119554522D01*
X153881801Y-119604985D01*
X153887633Y-119607861D01*
X154023517Y-119648988D01*
X154155732Y-119648156D01*
G36*
X164630222Y-119456444D02*
X164178666Y-119456444D01*
X164178666Y-119328451D01*
X164180820Y-119251432D01*
X164191439Y-119219536D01*
X164216753Y-119221483D01*
X164233255Y-119229674D01*
X164342115Y-119258658D01*
X164455893Y-119241721D01*
X164559068Y-119185559D01*
X164636121Y-119096865D01*
X164658809Y-119046116D01*
X164680467Y-118912441D01*
X164666628Y-118773174D01*
X164620063Y-118654336D01*
X164616457Y-118648679D01*
X164531452Y-118566881D01*
X164413308Y-118516522D01*
X164277881Y-118501011D01*
X164141026Y-118523759D01*
X164102881Y-118538196D01*
X164034578Y-118583051D01*
X163979182Y-118645323D01*
X163945465Y-118710299D01*
X163942196Y-118763267D01*
X163957283Y-118782424D01*
X164043060Y-118806694D01*
X164130182Y-118783013D01*
X164183708Y-118736778D01*
X164254691Y-118679807D01*
X164329152Y-118671594D01*
X164395837Y-118706410D01*
X164443491Y-118778525D01*
X164460888Y-118877889D01*
X164442851Y-118972656D01*
X164396490Y-119044336D01*
X164333435Y-119085175D01*
X164265313Y-119087421D01*
X164206888Y-119047222D01*
X164153661Y-119017900D01*
X164068158Y-119005017D01*
X164058301Y-119004889D01*
X163944848Y-119004889D01*
X163962979Y-119178362D01*
X163973232Y-119300620D01*
X163979805Y-119425414D01*
X163981111Y-119488807D01*
X163981111Y-119625778D01*
X164630222Y-119625778D01*
X164630222Y-119456444D01*
X164630222Y-119456444D01*
G37*
X164630222Y-119456444D02*
X164178666Y-119456444D01*
X164178666Y-119328451D01*
X164180820Y-119251432D01*
X164191439Y-119219536D01*
X164216753Y-119221483D01*
X164233255Y-119229674D01*
X164342115Y-119258658D01*
X164455893Y-119241721D01*
X164559068Y-119185559D01*
X164636121Y-119096865D01*
X164658809Y-119046116D01*
X164680467Y-118912441D01*
X164666628Y-118773174D01*
X164620063Y-118654336D01*
X164616457Y-118648679D01*
X164531452Y-118566881D01*
X164413308Y-118516522D01*
X164277881Y-118501011D01*
X164141026Y-118523759D01*
X164102881Y-118538196D01*
X164034578Y-118583051D01*
X163979182Y-118645323D01*
X163945465Y-118710299D01*
X163942196Y-118763267D01*
X163957283Y-118782424D01*
X164043060Y-118806694D01*
X164130182Y-118783013D01*
X164183708Y-118736778D01*
X164254691Y-118679807D01*
X164329152Y-118671594D01*
X164395837Y-118706410D01*
X164443491Y-118778525D01*
X164460888Y-118877889D01*
X164442851Y-118972656D01*
X164396490Y-119044336D01*
X164333435Y-119085175D01*
X164265313Y-119087421D01*
X164206888Y-119047222D01*
X164153661Y-119017900D01*
X164068158Y-119005017D01*
X164058301Y-119004889D01*
X163944848Y-119004889D01*
X163962979Y-119178362D01*
X163973232Y-119300620D01*
X163979805Y-119425414D01*
X163981111Y-119488807D01*
X163981111Y-119625778D01*
X164630222Y-119625778D01*
X164630222Y-119456444D01*
G36*
X138101333Y-118694444D02*
X138228333Y-118694444D01*
X138306427Y-118691990D01*
X138343415Y-118677819D01*
X138354615Y-118641719D01*
X138355333Y-118609778D01*
X138355333Y-118525111D01*
X137593333Y-118525111D01*
X137593333Y-118609778D01*
X137596416Y-118659898D01*
X137615371Y-118684892D01*
X137664760Y-118693494D01*
X137734444Y-118694444D01*
X137875555Y-118694444D01*
X137875555Y-119061333D01*
X137874793Y-119197818D01*
X137872709Y-119311280D01*
X137869604Y-119391242D01*
X137865779Y-119427223D01*
X137864999Y-119428222D01*
X137836548Y-119415625D01*
X137774851Y-119383283D01*
X137723888Y-119355254D01*
X137593333Y-119282285D01*
X137593333Y-119368794D01*
X137600060Y-119421908D01*
X137628045Y-119464162D01*
X137688999Y-119509108D01*
X137741500Y-119540275D01*
X137867719Y-119598930D01*
X137979076Y-119624855D01*
X137995500Y-119625513D01*
X138101333Y-119625778D01*
X138101333Y-118694444D01*
X138101333Y-118694444D01*
G37*
X138101333Y-118694444D02*
X138228333Y-118694444D01*
X138306427Y-118691990D01*
X138343415Y-118677819D01*
X138354615Y-118641719D01*
X138355333Y-118609778D01*
X138355333Y-118525111D01*
X137593333Y-118525111D01*
X137593333Y-118609778D01*
X137596416Y-118659898D01*
X137615371Y-118684892D01*
X137664760Y-118693494D01*
X137734444Y-118694444D01*
X137875555Y-118694444D01*
X137875555Y-119061333D01*
X137874793Y-119197818D01*
X137872709Y-119311280D01*
X137869604Y-119391242D01*
X137865779Y-119427223D01*
X137864999Y-119428222D01*
X137836548Y-119415625D01*
X137774851Y-119383283D01*
X137723888Y-119355254D01*
X137593333Y-119282285D01*
X137593333Y-119368794D01*
X137600060Y-119421908D01*
X137628045Y-119464162D01*
X137688999Y-119509108D01*
X137741500Y-119540275D01*
X137867719Y-119598930D01*
X137979076Y-119624855D01*
X137995500Y-119625513D01*
X138101333Y-119625778D01*
X138101333Y-118694444D01*
G36*
X143181333Y-118694444D02*
X143308333Y-118694444D01*
X143386427Y-118691990D01*
X143423415Y-118677819D01*
X143434615Y-118641719D01*
X143435333Y-118609778D01*
X143435333Y-118525111D01*
X142673333Y-118525111D01*
X142673333Y-118609778D01*
X142676416Y-118659898D01*
X142695371Y-118684892D01*
X142744760Y-118693494D01*
X142814444Y-118694444D01*
X142955555Y-118694444D01*
X142955555Y-119061333D01*
X142954793Y-119197818D01*
X142952709Y-119311280D01*
X142949604Y-119391242D01*
X142945779Y-119427223D01*
X142944999Y-119428222D01*
X142916548Y-119415625D01*
X142854851Y-119383283D01*
X142803888Y-119355254D01*
X142673333Y-119282285D01*
X142673333Y-119368794D01*
X142680060Y-119421908D01*
X142708045Y-119464162D01*
X142768999Y-119509108D01*
X142821500Y-119540275D01*
X142947719Y-119598930D01*
X143059076Y-119624855D01*
X143075500Y-119625513D01*
X143181333Y-119625778D01*
X143181333Y-118694444D01*
X143181333Y-118694444D01*
G37*
X143181333Y-118694444D02*
X143308333Y-118694444D01*
X143386427Y-118691990D01*
X143423415Y-118677819D01*
X143434615Y-118641719D01*
X143435333Y-118609778D01*
X143435333Y-118525111D01*
X142673333Y-118525111D01*
X142673333Y-118609778D01*
X142676416Y-118659898D01*
X142695371Y-118684892D01*
X142744760Y-118693494D01*
X142814444Y-118694444D01*
X142955555Y-118694444D01*
X142955555Y-119061333D01*
X142954793Y-119197818D01*
X142952709Y-119311280D01*
X142949604Y-119391242D01*
X142945779Y-119427223D01*
X142944999Y-119428222D01*
X142916548Y-119415625D01*
X142854851Y-119383283D01*
X142803888Y-119355254D01*
X142673333Y-119282285D01*
X142673333Y-119368794D01*
X142680060Y-119421908D01*
X142708045Y-119464162D01*
X142768999Y-119509108D01*
X142821500Y-119540275D01*
X142947719Y-119598930D01*
X143059076Y-119624855D01*
X143075500Y-119625513D01*
X143181333Y-119625778D01*
X143181333Y-118694444D01*
G36*
X144084444Y-118694444D02*
X144211444Y-118694444D01*
X144289538Y-118691990D01*
X144326526Y-118677819D01*
X144337726Y-118641719D01*
X144338444Y-118609778D01*
X144338444Y-118525111D01*
X143576444Y-118525111D01*
X143576444Y-118609778D01*
X143579527Y-118659898D01*
X143598483Y-118684892D01*
X143647871Y-118693494D01*
X143717555Y-118694444D01*
X143858666Y-118694444D01*
X143858666Y-119061333D01*
X143857904Y-119197818D01*
X143855820Y-119311280D01*
X143852715Y-119391242D01*
X143848890Y-119427223D01*
X143848110Y-119428222D01*
X143819660Y-119415625D01*
X143757962Y-119383283D01*
X143706999Y-119355254D01*
X143576444Y-119282285D01*
X143576444Y-119368794D01*
X143583171Y-119421908D01*
X143611157Y-119464162D01*
X143672110Y-119509108D01*
X143724611Y-119540275D01*
X143850830Y-119598930D01*
X143962187Y-119624855D01*
X143978611Y-119625513D01*
X144084444Y-119625778D01*
X144084444Y-118694444D01*
X144084444Y-118694444D01*
G37*
X144084444Y-118694444D02*
X144211444Y-118694444D01*
X144289538Y-118691990D01*
X144326526Y-118677819D01*
X144337726Y-118641719D01*
X144338444Y-118609778D01*
X144338444Y-118525111D01*
X143576444Y-118525111D01*
X143576444Y-118609778D01*
X143579527Y-118659898D01*
X143598483Y-118684892D01*
X143647871Y-118693494D01*
X143717555Y-118694444D01*
X143858666Y-118694444D01*
X143858666Y-119061333D01*
X143857904Y-119197818D01*
X143855820Y-119311280D01*
X143852715Y-119391242D01*
X143848890Y-119427223D01*
X143848110Y-119428222D01*
X143819660Y-119415625D01*
X143757962Y-119383283D01*
X143706999Y-119355254D01*
X143576444Y-119282285D01*
X143576444Y-119368794D01*
X143583171Y-119421908D01*
X143611157Y-119464162D01*
X143672110Y-119509108D01*
X143724611Y-119540275D01*
X143850830Y-119598930D01*
X143962187Y-119624855D01*
X143978611Y-119625513D01*
X144084444Y-119625778D01*
X144084444Y-118694444D01*
G36*
X148261333Y-118694444D02*
X148388333Y-118694444D01*
X148466427Y-118691990D01*
X148503415Y-118677819D01*
X148514615Y-118641719D01*
X148515333Y-118609778D01*
X148515333Y-118525111D01*
X147753333Y-118525111D01*
X147753333Y-118609778D01*
X147756416Y-118659898D01*
X147775371Y-118684892D01*
X147824760Y-118693494D01*
X147894444Y-118694444D01*
X148035555Y-118694444D01*
X148035555Y-119061333D01*
X148034793Y-119197818D01*
X148032709Y-119311280D01*
X148029604Y-119391242D01*
X148025779Y-119427223D01*
X148024999Y-119428222D01*
X147996548Y-119415625D01*
X147934851Y-119383283D01*
X147883888Y-119355254D01*
X147753333Y-119282285D01*
X147753333Y-119368794D01*
X147760060Y-119421908D01*
X147788045Y-119464162D01*
X147848999Y-119509108D01*
X147901500Y-119540275D01*
X148027719Y-119598930D01*
X148139076Y-119624855D01*
X148155500Y-119625513D01*
X148261333Y-119625778D01*
X148261333Y-118694444D01*
X148261333Y-118694444D01*
G37*
X148261333Y-118694444D02*
X148388333Y-118694444D01*
X148466427Y-118691990D01*
X148503415Y-118677819D01*
X148514615Y-118641719D01*
X148515333Y-118609778D01*
X148515333Y-118525111D01*
X147753333Y-118525111D01*
X147753333Y-118609778D01*
X147756416Y-118659898D01*
X147775371Y-118684892D01*
X147824760Y-118693494D01*
X147894444Y-118694444D01*
X148035555Y-118694444D01*
X148035555Y-119061333D01*
X148034793Y-119197818D01*
X148032709Y-119311280D01*
X148029604Y-119391242D01*
X148025779Y-119427223D01*
X148024999Y-119428222D01*
X147996548Y-119415625D01*
X147934851Y-119383283D01*
X147883888Y-119355254D01*
X147753333Y-119282285D01*
X147753333Y-119368794D01*
X147760060Y-119421908D01*
X147788045Y-119464162D01*
X147848999Y-119509108D01*
X147901500Y-119540275D01*
X148027719Y-119598930D01*
X148139076Y-119624855D01*
X148155500Y-119625513D01*
X148261333Y-119625778D01*
X148261333Y-118694444D01*
G36*
X149132485Y-119631351D02*
X149246326Y-119576004D01*
X149246667Y-119575751D01*
X149313344Y-119495175D01*
X149351778Y-119385013D01*
X149354964Y-119267979D01*
X149349756Y-119241595D01*
X149319546Y-119184201D01*
X149254193Y-119099335D01*
X149161314Y-118996368D01*
X149100154Y-118934333D01*
X148870858Y-118708555D01*
X149130540Y-118700441D01*
X149390222Y-118692326D01*
X149390222Y-118525111D01*
X148628222Y-118525111D01*
X148628222Y-118605839D01*
X148653427Y-118706250D01*
X148729199Y-118829574D01*
X148855776Y-118976151D01*
X148956546Y-119075719D01*
X149057078Y-119177670D01*
X149115444Y-119258052D01*
X149136034Y-119327206D01*
X149123239Y-119395475D01*
X149107007Y-119430078D01*
X149058449Y-119470543D01*
X148988864Y-119478139D01*
X148918453Y-119457681D01*
X148867416Y-119413985D01*
X148854000Y-119369762D01*
X148828957Y-119353350D01*
X148766400Y-119344223D01*
X148741111Y-119343555D01*
X148664008Y-119350541D01*
X148632410Y-119376962D01*
X148643306Y-119431012D01*
X148682587Y-119502924D01*
X148762237Y-119583371D01*
X148874438Y-119632969D01*
X149003188Y-119649651D01*
X149132485Y-119631351D01*
X149132485Y-119631351D01*
G37*
X149132485Y-119631351D02*
X149246326Y-119576004D01*
X149246667Y-119575751D01*
X149313344Y-119495175D01*
X149351778Y-119385013D01*
X149354964Y-119267979D01*
X149349756Y-119241595D01*
X149319546Y-119184201D01*
X149254193Y-119099335D01*
X149161314Y-118996368D01*
X149100154Y-118934333D01*
X148870858Y-118708555D01*
X149130540Y-118700441D01*
X149390222Y-118692326D01*
X149390222Y-118525111D01*
X148628222Y-118525111D01*
X148628222Y-118605839D01*
X148653427Y-118706250D01*
X148729199Y-118829574D01*
X148855776Y-118976151D01*
X148956546Y-119075719D01*
X149057078Y-119177670D01*
X149115444Y-119258052D01*
X149136034Y-119327206D01*
X149123239Y-119395475D01*
X149107007Y-119430078D01*
X149058449Y-119470543D01*
X148988864Y-119478139D01*
X148918453Y-119457681D01*
X148867416Y-119413985D01*
X148854000Y-119369762D01*
X148828957Y-119353350D01*
X148766400Y-119344223D01*
X148741111Y-119343555D01*
X148664008Y-119350541D01*
X148632410Y-119376962D01*
X148643306Y-119431012D01*
X148682587Y-119502924D01*
X148762237Y-119583371D01*
X148874438Y-119632969D01*
X149003188Y-119649651D01*
X149132485Y-119631351D01*
G36*
X153341333Y-118694444D02*
X153468333Y-118694444D01*
X153546427Y-118691990D01*
X153583415Y-118677819D01*
X153594615Y-118641719D01*
X153595333Y-118609778D01*
X153595333Y-118525111D01*
X152833333Y-118525111D01*
X152833333Y-118609778D01*
X152836416Y-118659898D01*
X152855371Y-118684892D01*
X152904760Y-118693494D01*
X152974444Y-118694444D01*
X153115555Y-118694444D01*
X153115555Y-119061333D01*
X153114793Y-119197818D01*
X153112709Y-119311280D01*
X153109604Y-119391242D01*
X153105779Y-119427223D01*
X153104999Y-119428222D01*
X153076548Y-119415625D01*
X153014851Y-119383283D01*
X152963888Y-119355254D01*
X152833333Y-119282285D01*
X152833333Y-119368794D01*
X152840060Y-119421908D01*
X152868045Y-119464162D01*
X152928999Y-119509108D01*
X152981500Y-119540275D01*
X153107719Y-119598930D01*
X153219076Y-119624855D01*
X153235500Y-119625513D01*
X153341333Y-119625778D01*
X153341333Y-118694444D01*
X153341333Y-118694444D01*
G37*
X153341333Y-118694444D02*
X153468333Y-118694444D01*
X153546427Y-118691990D01*
X153583415Y-118677819D01*
X153594615Y-118641719D01*
X153595333Y-118609778D01*
X153595333Y-118525111D01*
X152833333Y-118525111D01*
X152833333Y-118609778D01*
X152836416Y-118659898D01*
X152855371Y-118684892D01*
X152904760Y-118693494D01*
X152974444Y-118694444D01*
X153115555Y-118694444D01*
X153115555Y-119061333D01*
X153114793Y-119197818D01*
X153112709Y-119311280D01*
X153109604Y-119391242D01*
X153105779Y-119427223D01*
X153104999Y-119428222D01*
X153076548Y-119415625D01*
X153014851Y-119383283D01*
X152963888Y-119355254D01*
X152833333Y-119282285D01*
X152833333Y-119368794D01*
X152840060Y-119421908D01*
X152868045Y-119464162D01*
X152928999Y-119509108D01*
X152981500Y-119540275D01*
X153107719Y-119598930D01*
X153219076Y-119624855D01*
X153235500Y-119625513D01*
X153341333Y-119625778D01*
X153341333Y-118694444D01*
G36*
X158421333Y-118694444D02*
X158548333Y-118694444D01*
X158626427Y-118691990D01*
X158663415Y-118677819D01*
X158674615Y-118641719D01*
X158675333Y-118609778D01*
X158675333Y-118525111D01*
X157913333Y-118525111D01*
X157913333Y-118609778D01*
X157916416Y-118659898D01*
X157935371Y-118684892D01*
X157984760Y-118693494D01*
X158054444Y-118694444D01*
X158195555Y-118694444D01*
X158195555Y-119061333D01*
X158194793Y-119197818D01*
X158192709Y-119311280D01*
X158189604Y-119391242D01*
X158185779Y-119427223D01*
X158184999Y-119428222D01*
X158156548Y-119415625D01*
X158094851Y-119383283D01*
X158043888Y-119355254D01*
X157913333Y-119282285D01*
X157913333Y-119368794D01*
X157920060Y-119421908D01*
X157948045Y-119464162D01*
X158008999Y-119509108D01*
X158061500Y-119540275D01*
X158187719Y-119598930D01*
X158299076Y-119624855D01*
X158315500Y-119625513D01*
X158421333Y-119625778D01*
X158421333Y-118694444D01*
X158421333Y-118694444D01*
G37*
X158421333Y-118694444D02*
X158548333Y-118694444D01*
X158626427Y-118691990D01*
X158663415Y-118677819D01*
X158674615Y-118641719D01*
X158675333Y-118609778D01*
X158675333Y-118525111D01*
X157913333Y-118525111D01*
X157913333Y-118609778D01*
X157916416Y-118659898D01*
X157935371Y-118684892D01*
X157984760Y-118693494D01*
X158054444Y-118694444D01*
X158195555Y-118694444D01*
X158195555Y-119061333D01*
X158194793Y-119197818D01*
X158192709Y-119311280D01*
X158189604Y-119391242D01*
X158185779Y-119427223D01*
X158184999Y-119428222D01*
X158156548Y-119415625D01*
X158094851Y-119383283D01*
X158043888Y-119355254D01*
X157913333Y-119282285D01*
X157913333Y-119368794D01*
X157920060Y-119421908D01*
X157948045Y-119464162D01*
X158008999Y-119509108D01*
X158061500Y-119540275D01*
X158187719Y-119598930D01*
X158299076Y-119624855D01*
X158315500Y-119625513D01*
X158421333Y-119625778D01*
X158421333Y-118694444D01*
G36*
X159465555Y-118920222D02*
X159536111Y-118920222D01*
X159586535Y-118911110D01*
X159604981Y-118872374D01*
X159606666Y-118835555D01*
X159599072Y-118775047D01*
X159566792Y-118752911D01*
X159536111Y-118750889D01*
X159490653Y-118744727D01*
X159470449Y-118715664D01*
X159465580Y-118647831D01*
X159465555Y-118638000D01*
X159462839Y-118565742D01*
X159443830Y-118533634D01*
X159392232Y-118525383D01*
X159352666Y-118525111D01*
X159280408Y-118527827D01*
X159248300Y-118546837D01*
X159240049Y-118598435D01*
X159239777Y-118638000D01*
X159239777Y-118750889D01*
X158731777Y-118750889D01*
X158731777Y-118835716D01*
X158745995Y-118896049D01*
X158764756Y-118935745D01*
X158929333Y-118935745D01*
X158954864Y-118927242D01*
X159020720Y-118921604D01*
X159084555Y-118920222D01*
X159239777Y-118920222D01*
X159239777Y-119407129D01*
X159084555Y-119179198D01*
X159018390Y-119080550D01*
X158966269Y-119000005D01*
X158935102Y-118948403D01*
X158929333Y-118935745D01*
X158764756Y-118935745D01*
X158789989Y-118989134D01*
X158865776Y-119118750D01*
X158964611Y-119272452D01*
X159197444Y-119624361D01*
X159331500Y-119625069D01*
X159465555Y-119625778D01*
X159465555Y-118920222D01*
X159465555Y-118920222D01*
G37*
X159465555Y-118920222D02*
X159536111Y-118920222D01*
X159586535Y-118911110D01*
X159604981Y-118872374D01*
X159606666Y-118835555D01*
X159599072Y-118775047D01*
X159566792Y-118752911D01*
X159536111Y-118750889D01*
X159490653Y-118744727D01*
X159470449Y-118715664D01*
X159465580Y-118647831D01*
X159465555Y-118638000D01*
X159462839Y-118565742D01*
X159443830Y-118533634D01*
X159392232Y-118525383D01*
X159352666Y-118525111D01*
X159280408Y-118527827D01*
X159248300Y-118546837D01*
X159240049Y-118598435D01*
X159239777Y-118638000D01*
X159239777Y-118750889D01*
X158731777Y-118750889D01*
X158731777Y-118835716D01*
X158745995Y-118896049D01*
X158764756Y-118935745D01*
X158929333Y-118935745D01*
X158954864Y-118927242D01*
X159020720Y-118921604D01*
X159084555Y-118920222D01*
X159239777Y-118920222D01*
X159239777Y-119407129D01*
X159084555Y-119179198D01*
X159018390Y-119080550D01*
X158966269Y-119000005D01*
X158935102Y-118948403D01*
X158929333Y-118935745D01*
X158764756Y-118935745D01*
X158789989Y-118989134D01*
X158865776Y-119118750D01*
X158964611Y-119272452D01*
X159197444Y-119624361D01*
X159331500Y-119625069D01*
X159465555Y-119625778D01*
X159465555Y-118920222D01*
G36*
X163557777Y-118694444D02*
X163684777Y-118694444D01*
X163762872Y-118691990D01*
X163799860Y-118677819D01*
X163811059Y-118641719D01*
X163811777Y-118609778D01*
X163811777Y-118525111D01*
X163049777Y-118525111D01*
X163049777Y-118609778D01*
X163052860Y-118659898D01*
X163071816Y-118684892D01*
X163121204Y-118693494D01*
X163190888Y-118694444D01*
X163332000Y-118694444D01*
X163332000Y-119061333D01*
X163331238Y-119197818D01*
X163329153Y-119311280D01*
X163326048Y-119391242D01*
X163322223Y-119427223D01*
X163321443Y-119428222D01*
X163292993Y-119415625D01*
X163231296Y-119383283D01*
X163180332Y-119355254D01*
X163049777Y-119282285D01*
X163049777Y-119368794D01*
X163056504Y-119421908D01*
X163084490Y-119464162D01*
X163145444Y-119509108D01*
X163197944Y-119540275D01*
X163324164Y-119598930D01*
X163435520Y-119624855D01*
X163451944Y-119625513D01*
X163557777Y-119625778D01*
X163557777Y-118694444D01*
X163557777Y-118694444D01*
G37*
X163557777Y-118694444D02*
X163684777Y-118694444D01*
X163762872Y-118691990D01*
X163799860Y-118677819D01*
X163811059Y-118641719D01*
X163811777Y-118609778D01*
X163811777Y-118525111D01*
X163049777Y-118525111D01*
X163049777Y-118609778D01*
X163052860Y-118659898D01*
X163071816Y-118684892D01*
X163121204Y-118693494D01*
X163190888Y-118694444D01*
X163332000Y-118694444D01*
X163332000Y-119061333D01*
X163331238Y-119197818D01*
X163329153Y-119311280D01*
X163326048Y-119391242D01*
X163322223Y-119427223D01*
X163321443Y-119428222D01*
X163292993Y-119415625D01*
X163231296Y-119383283D01*
X163180332Y-119355254D01*
X163049777Y-119282285D01*
X163049777Y-119368794D01*
X163056504Y-119421908D01*
X163084490Y-119464162D01*
X163145444Y-119509108D01*
X163197944Y-119540275D01*
X163324164Y-119598930D01*
X163435520Y-119624855D01*
X163451944Y-119625513D01*
X163557777Y-119625778D01*
X163557777Y-118694444D01*
M02*
