M48
;DRILL file {KiCad 4.0.6} date Fri Oct 27 18:31:32 2017
;FORMAT={-:-/ absolute / inch / decimal}
FMAT,2
INCH,TZ
T1C0.016
T2C0.039
T3C0.040
T4C0.120
T5C0.146
%
G90
G05
M72
T1
X2.8543Y-3.1496
X2.8543Y-3.5433
X2.8543Y-3.8386
X2.8543Y-4.2323
X3.0512Y-4.5276
X3.3465Y-2.4016
X3.4213Y-3.5512
X3.4291Y-3.748
X3.4449Y-4.8228
X3.4646Y-2.2835
X3.5512Y-3.6417
X3.5827Y-2.1654
X3.7402Y-2.126
X3.878Y-5.
X3.8976Y-2.2441
X4.0945Y-2.3622
X4.252Y-2.4803
X4.311Y-5.1772
X4.4488Y-2.5984
X4.4488Y-4.4094
X4.6063Y-2.7165
X4.7638Y-5.2953
X4.8031Y-2.7953
X4.9409Y-4.5276
X4.9606Y-2.8346
X5.1181Y-2.874
X5.2165Y-5.374
X5.2756Y-2.9134
X5.4331Y-2.9528
X5.5906Y-2.9921
X5.689Y-5.4134
X5.748Y-2.9921
X5.9055Y-3.0315
X6.063Y-2.9921
X6.1417Y-5.4134
X6.2205Y-2.9921
X6.378Y-2.9528
X6.5354Y-2.9134
X6.5945Y-5.374
X6.6929Y-2.874
X6.7913Y-4.5472
X6.8504Y-2.8346
X7.0079Y-2.7953
X7.0669Y-5.2756
X7.1654Y-2.7165
X7.3228Y-2.6378
X7.3425Y-4.3898
X7.4409Y-2.5197
X7.5Y-5.1575
X7.5984Y-2.4409
X7.7165Y-2.3228
X7.8346Y-2.2441
X7.9331Y-5.
X7.9528Y-2.126
X8.1102Y-2.0866
X8.2283Y-2.1654
X8.3465Y-2.2441
X8.3465Y-4.8031
X8.3543Y-3.5551
X8.4646Y-2.3622
X8.4921Y-3.6614
X8.5039Y-3.4528
X8.7402Y-4.5669
X8.937Y-3.563
X8.937Y-3.8189
X8.937Y-4.2126
X8.9567Y-3.1496
T2
X3.0366Y-3.7703
X3.1272Y-3.8126
X3.2179Y-3.8548
X3.3085Y-3.8971
X3.3991Y-3.9393
X3.4898Y-3.9816
X3.5804Y-4.0239
X3.671Y-4.0661
X3.7617Y-4.1084
X3.8523Y-4.1507
X3.9429Y-4.1929
X4.0335Y-4.2352
X4.1242Y-4.2774
X4.2148Y-4.3197
X4.3054Y-4.362
X5.1528Y-4.5512
X5.2528Y-4.5512
X5.3528Y-4.5512
X5.4528Y-4.5512
X5.5528Y-4.5512
X5.6528Y-4.5512
X5.7528Y-4.5512
X5.8528Y-4.5512
X5.9528Y-4.5512
X6.0528Y-4.5512
X6.1528Y-4.5512
X6.2528Y-4.5512
X6.3528Y-4.5512
X6.4528Y-4.5512
X6.5528Y-4.5512
X7.509Y-4.3212
X7.5996Y-4.2789
X7.6902Y-4.2367
X7.7809Y-4.1944
X7.8715Y-4.1521
X7.9621Y-4.1099
X8.0528Y-4.0676
X8.1434Y-4.0253
X8.234Y-3.9831
X8.3246Y-3.9408
X8.4153Y-3.8986
X8.5059Y-3.8563
X8.5965Y-3.814
X8.6872Y-3.7718
X8.7778Y-3.7295
T3
X3.8736Y-2.5537
X3.8957Y-2.435
X3.9636Y-2.6167
X3.9818Y-2.4953
X4.0539Y-2.6799
X4.0718Y-2.5583
X4.14Y-2.7402
X4.1579Y-2.6186
X4.23Y-2.8032
X4.2478Y-2.6816
X4.3161Y-2.8635
X4.3381Y-2.7449
X4.4061Y-2.9265
X4.4239Y-2.8049
X4.5142Y-2.8682
X5.5114Y-3.1835
X5.5614Y-3.2933
X5.6165Y-3.1835
X5.6713Y-3.2933
X5.7264Y-3.1835
X5.7815Y-3.2933
X5.8315Y-3.1835
X5.8866Y-3.2933
X5.9413Y-3.1835
X5.9965Y-3.2933
X6.0516Y-3.1835
X6.1016Y-3.2933
X6.1563Y-3.1835
X6.2114Y-3.2933
X6.2665Y-3.1835
X7.2602Y-2.8934
X7.3463Y-2.8331
X7.3642Y-2.9547
X7.4363Y-2.7701
X7.4542Y-2.8917
X7.5224Y-2.7098
X7.5445Y-2.8285
X7.6124Y-2.6468
X7.6306Y-2.7682
X7.7027Y-2.5836
X7.7205Y-2.7052
X7.7885Y-2.5235
X7.8066Y-2.6449
X7.8788Y-2.4603
X7.8966Y-2.5819
T4
X3.6348Y-2.3196
X4.7077Y-3.0709
X5.2315Y-3.2386
X6.5413Y-3.2386
X7.0625Y-3.0991
X8.1355Y-2.3478
T5
X4.9213Y-3.4449
X6.8898Y-3.4449
T0
M30
