<?xml version="1.0" standalone="no"?>
 <!DOCTYPE svg PUBLIC "-//W3C//DTD SVG 1.1//EN" 
 "http://www.w3.org/Graphics/SVG/1.1/DTD/svg11.dtd"> 
<svg xmlns="http://www.w3.org/2000/svg" version="1.1" 
    width="29.7002cm" height="21.0007cm" viewBox="0 0 116930 82680 ">
<title>SVG Picture created as magnetic-distance.sch.svg date 2017/06/06 19:51:06 </title>
  <desc>Picture generated by Eeschema-SVG </desc>
<g style="fill:#000000; fill-opacity:1;stroke:#000000; stroke-opacity:1;
stroke-linecap:round; stroke-linejoin:round; "
 transform="translate(0 0) scale(1 1)">
</g>
<g style="fill:#000000; fill-opacity:0.0; 
stroke:#000000; stroke-width:-10; stroke-opacity:1; 
stroke-linecap:round; stroke-linejoin:round;">
</g>
<g style="fill:#840000; fill-opacity:0.0; 
stroke:#840000; stroke-width:-10; stroke-opacity:1; 
stroke-linecap:round; stroke-linejoin:round;">
</g>
<g style="fill:#840000; fill-opacity:0.0; 
stroke:#840000; stroke-width:100; stroke-opacity:1; 
stroke-linecap:round; stroke-linejoin:round;">
</g>
<g style="fill:#840000; fill-opacity:0.0; 
stroke:#840000; stroke-width:60; stroke-opacity:1; 
stroke-linecap:round; stroke-linejoin:round;">
<rect x="69690" y="65360" width="42520" height="12600" rx="0" />
</g>
<g style="fill:#840000; fill-opacity:0.0; 
stroke:#840000; stroke-width:100; stroke-opacity:1; 
stroke-linecap:round; stroke-linejoin:round;">
</g>
<g style="fill:#840000; fill-opacity:0.0; 
stroke:#840000; stroke-width:60; stroke-opacity:1; 
stroke-linecap:round; stroke-linejoin:round;">
<rect x="3940" y="3940" width="109050" height="74800" rx="0" />
</g>
<g style="fill:#840000; fill-opacity:0.0; 
stroke:#840000; stroke-width:100; stroke-opacity:1; 
stroke-linecap:round; stroke-linejoin:round;">
</g>
<g style="fill:#840000; fill-opacity:0.0; 
stroke:#840000; stroke-width:60; stroke-opacity:1; 
stroke-linecap:round; stroke-linejoin:round;">
<rect x="4720" y="4720" width="107490" height="73240" rx="0" />
</g>
<g style="fill:#840000; fill-opacity:0.0; 
stroke:#840000; stroke-width:100; stroke-opacity:1; 
stroke-linecap:round; stroke-linejoin:round;">
</g>
<g style="fill:#840000; fill-opacity:0.0; 
stroke:#840000; stroke-width:60; stroke-opacity:1; 
stroke-linecap:round; stroke-linejoin:round;">
<path d="M23620 4720
L23620 3940
" />
</g>
<g style="fill:#840000; fill-opacity:0.0; 
stroke:#840000; stroke-width:100; stroke-opacity:1; 
stroke-linecap:round; stroke-linejoin:round;">
</g>
<g style="fill:#840000; fill-opacity:0.0; 
stroke:#840000; stroke-width:60; stroke-opacity:1; 
stroke-linecap:round; stroke-linejoin:round;">
<path d="M43310 4720
L43310 3940
" />
</g>
<g style="fill:#840000; fill-opacity:0.0; 
stroke:#840000; stroke-width:100; stroke-opacity:1; 
stroke-linecap:round; stroke-linejoin:round;">
</g>
<g style="fill:#840000; fill-opacity:0.0; 
stroke:#840000; stroke-width:60; stroke-opacity:1; 
stroke-linecap:round; stroke-linejoin:round;">
<path d="M62990 4720
L62990 3940
" />
</g>
<g style="fill:#840000; fill-opacity:0.0; 
stroke:#840000; stroke-width:100; stroke-opacity:1; 
stroke-linecap:round; stroke-linejoin:round;">
</g>
<g style="fill:#840000; fill-opacity:0.0; 
stroke:#840000; stroke-width:60; stroke-opacity:1; 
stroke-linecap:round; stroke-linejoin:round;">
<path d="M82680 4720
L82680 3940
" />
</g>
<g style="fill:#840000; fill-opacity:0.0; 
stroke:#840000; stroke-width:100; stroke-opacity:1; 
stroke-linecap:round; stroke-linejoin:round;">
</g>
<g style="fill:#840000; fill-opacity:0.0; 
stroke:#840000; stroke-width:60; stroke-opacity:1; 
stroke-linecap:round; stroke-linejoin:round;">
<path d="M102360 4720
L102360 3940
" />
</g>
<g style="fill:#840000; fill-opacity:0.0; 
stroke:#840000; stroke-width:100; stroke-opacity:1; 
stroke-linecap:round; stroke-linejoin:round;">
</g>
<g style="fill:#840000; fill-opacity:0.0; 
stroke:#840000; stroke-width:60; stroke-opacity:1; 
stroke-linecap:round; stroke-linejoin:round;">
<path d="M14170 4560
L13880 4560
" />
<path d="M14020 4560
L14020 4050
L13970 4120
L13930 4170
L13880 4190
" />
</g>
<g style="fill:#840000; fill-opacity:0.0; 
stroke:#840000; stroke-width:100; stroke-opacity:1; 
stroke-linecap:round; stroke-linejoin:round;">
</g>
<g style="fill:#840000; fill-opacity:0.0; 
stroke:#840000; stroke-width:60; stroke-opacity:1; 
stroke-linecap:round; stroke-linejoin:round;">
<path d="M33560 4090
L33580 4070
L33630 4050
L33750 4050
L33800 4070
L33820 4090
L33850 4140
L33850 4190
L33820 4260
L33530 4560
L33850 4560
" />
</g>
<g style="fill:#840000; fill-opacity:0.0; 
stroke:#840000; stroke-width:100; stroke-opacity:1; 
stroke-linecap:round; stroke-linejoin:round;">
</g>
<g style="fill:#840000; fill-opacity:0.0; 
stroke:#840000; stroke-width:60; stroke-opacity:1; 
stroke-linecap:round; stroke-linejoin:round;">
<path d="M53220 4050
L53540 4050
L53370 4240
L53440 4240
L53490 4260
L53510 4290
L53540 4340
L53540 4460
L53510 4510
L53490 4530
L53440 4560
L53300 4560
L53250 4530
L53220 4510
" />
</g>
<g style="fill:#840000; fill-opacity:0.0; 
stroke:#840000; stroke-width:100; stroke-opacity:1; 
stroke-linecap:round; stroke-linejoin:round;">
</g>
<g style="fill:#840000; fill-opacity:0.0; 
stroke:#840000; stroke-width:60; stroke-opacity:1; 
stroke-linecap:round; stroke-linejoin:round;">
<path d="M73170 4220
L73170 4560
" />
<path d="M73050 4020
L72930 4390
L73240 4390
" />
</g>
<g style="fill:#840000; fill-opacity:0.0; 
stroke:#840000; stroke-width:100; stroke-opacity:1; 
stroke-linecap:round; stroke-linejoin:round;">
</g>
<g style="fill:#840000; fill-opacity:0.0; 
stroke:#840000; stroke-width:60; stroke-opacity:1; 
stroke-linecap:round; stroke-linejoin:round;">
<path d="M92880 4050
L92640 4050
L92620 4290
L92640 4260
L92690 4240
L92810 4240
L92860 4260
L92880 4290
L92910 4340
L92910 4460
L92880 4510
L92860 4530
L92810 4560
L92690 4560
L92640 4530
L92620 4510
" />
</g>
<g style="fill:#840000; fill-opacity:0.0; 
stroke:#840000; stroke-width:100; stroke-opacity:1; 
stroke-linecap:round; stroke-linejoin:round;">
</g>
<g style="fill:#840000; fill-opacity:0.0; 
stroke:#840000; stroke-width:60; stroke-opacity:1; 
stroke-linecap:round; stroke-linejoin:round;">
<path d="M112540 4050
L112440 4050
L112390 4070
L112370 4090
L112320 4170
L112300 4260
L112300 4460
L112320 4510
L112350 4530
L112390 4560
L112490 4560
L112540 4530
L112560 4510
L112590 4460
L112590 4340
L112560 4290
L112540 4260
L112490 4240
L112390 4240
L112350 4260
L112320 4290
L112300 4340
" />
</g>
<g style="fill:#840000; fill-opacity:0.0; 
stroke:#840000; stroke-width:100; stroke-opacity:1; 
stroke-linecap:round; stroke-linejoin:round;">
</g>
<g style="fill:#840000; fill-opacity:0.0; 
stroke:#840000; stroke-width:60; stroke-opacity:1; 
stroke-linecap:round; stroke-linejoin:round;">
<path d="M23620 77960
L23620 78740
" />
</g>
<g style="fill:#840000; fill-opacity:0.0; 
stroke:#840000; stroke-width:100; stroke-opacity:1; 
stroke-linecap:round; stroke-linejoin:round;">
</g>
<g style="fill:#840000; fill-opacity:0.0; 
stroke:#840000; stroke-width:60; stroke-opacity:1; 
stroke-linecap:round; stroke-linejoin:round;">
<path d="M43310 77960
L43310 78740
" />
</g>
<g style="fill:#840000; fill-opacity:0.0; 
stroke:#840000; stroke-width:100; stroke-opacity:1; 
stroke-linecap:round; stroke-linejoin:round;">
</g>
<g style="fill:#840000; fill-opacity:0.0; 
stroke:#840000; stroke-width:60; stroke-opacity:1; 
stroke-linecap:round; stroke-linejoin:round;">
<path d="M62990 77960
L62990 78740
" />
</g>
<g style="fill:#840000; fill-opacity:0.0; 
stroke:#840000; stroke-width:100; stroke-opacity:1; 
stroke-linecap:round; stroke-linejoin:round;">
</g>
<g style="fill:#840000; fill-opacity:0.0; 
stroke:#840000; stroke-width:60; stroke-opacity:1; 
stroke-linecap:round; stroke-linejoin:round;">
<path d="M82680 77960
L82680 78740
" />
</g>
<g style="fill:#840000; fill-opacity:0.0; 
stroke:#840000; stroke-width:100; stroke-opacity:1; 
stroke-linecap:round; stroke-linejoin:round;">
</g>
<g style="fill:#840000; fill-opacity:0.0; 
stroke:#840000; stroke-width:60; stroke-opacity:1; 
stroke-linecap:round; stroke-linejoin:round;">
<path d="M102360 77960
L102360 78740
" />
</g>
<g style="fill:#840000; fill-opacity:0.0; 
stroke:#840000; stroke-width:100; stroke-opacity:1; 
stroke-linecap:round; stroke-linejoin:round;">
</g>
<g style="fill:#840000; fill-opacity:0.0; 
stroke:#840000; stroke-width:60; stroke-opacity:1; 
stroke-linecap:round; stroke-linejoin:round;">
<path d="M14170 78580
L13880 78580
" />
<path d="M14020 78580
L14020 78070
L13970 78140
L13930 78190
L13880 78210
" />
</g>
<g style="fill:#840000; fill-opacity:0.0; 
stroke:#840000; stroke-width:100; stroke-opacity:1; 
stroke-linecap:round; stroke-linejoin:round;">
</g>
<g style="fill:#840000; fill-opacity:0.0; 
stroke:#840000; stroke-width:60; stroke-opacity:1; 
stroke-linecap:round; stroke-linejoin:round;">
<path d="M33560 78110
L33580 78090
L33630 78070
L33750 78070
L33800 78090
L33820 78110
L33850 78160
L33850 78210
L33820 78280
L33530 78580
L33850 78580
" />
</g>
<g style="fill:#840000; fill-opacity:0.0; 
stroke:#840000; stroke-width:100; stroke-opacity:1; 
stroke-linecap:round; stroke-linejoin:round;">
</g>
<g style="fill:#840000; fill-opacity:0.0; 
stroke:#840000; stroke-width:60; stroke-opacity:1; 
stroke-linecap:round; stroke-linejoin:round;">
<path d="M53220 78070
L53540 78070
L53370 78260
L53440 78260
L53490 78280
L53510 78310
L53540 78360
L53540 78480
L53510 78530
L53490 78550
L53440 78580
L53300 78580
L53250 78550
L53220 78530
" />
</g>
<g style="fill:#840000; fill-opacity:0.0; 
stroke:#840000; stroke-width:100; stroke-opacity:1; 
stroke-linecap:round; stroke-linejoin:round;">
</g>
<g style="fill:#840000; fill-opacity:0.0; 
stroke:#840000; stroke-width:60; stroke-opacity:1; 
stroke-linecap:round; stroke-linejoin:round;">
<path d="M73170 78240
L73170 78580
" />
<path d="M73050 78040
L72930 78410
L73240 78410
" />
</g>
<g style="fill:#840000; fill-opacity:0.0; 
stroke:#840000; stroke-width:100; stroke-opacity:1; 
stroke-linecap:round; stroke-linejoin:round;">
</g>
<g style="fill:#840000; fill-opacity:0.0; 
stroke:#840000; stroke-width:60; stroke-opacity:1; 
stroke-linecap:round; stroke-linejoin:round;">
<path d="M92880 78070
L92640 78070
L92620 78310
L92640 78280
L92690 78260
L92810 78260
L92860 78280
L92880 78310
L92910 78360
L92910 78480
L92880 78530
L92860 78550
L92810 78580
L92690 78580
L92640 78550
L92620 78530
" />
</g>
<g style="fill:#840000; fill-opacity:0.0; 
stroke:#840000; stroke-width:100; stroke-opacity:1; 
stroke-linecap:round; stroke-linejoin:round;">
</g>
<g style="fill:#840000; fill-opacity:0.0; 
stroke:#840000; stroke-width:60; stroke-opacity:1; 
stroke-linecap:round; stroke-linejoin:round;">
<path d="M112540 78070
L112440 78070
L112390 78090
L112370 78110
L112320 78190
L112300 78280
L112300 78480
L112320 78530
L112350 78550
L112390 78580
L112490 78580
L112540 78550
L112560 78530
L112590 78480
L112590 78360
L112560 78310
L112540 78280
L112490 78260
L112390 78260
L112350 78280
L112320 78310
L112300 78360
" />
</g>
<g style="fill:#840000; fill-opacity:0.0; 
stroke:#840000; stroke-width:100; stroke-opacity:1; 
stroke-linecap:round; stroke-linejoin:round;">
</g>
<g style="fill:#840000; fill-opacity:0.0; 
stroke:#840000; stroke-width:60; stroke-opacity:1; 
stroke-linecap:round; stroke-linejoin:round;">
<path d="M3940 23620
L4720 23620
" />
</g>
<g style="fill:#840000; fill-opacity:0.0; 
stroke:#840000; stroke-width:100; stroke-opacity:1; 
stroke-linecap:round; stroke-linejoin:round;">
</g>
<g style="fill:#840000; fill-opacity:0.0; 
stroke:#840000; stroke-width:60; stroke-opacity:1; 
stroke-linecap:round; stroke-linejoin:round;">
<path d="M3940 43310
L4720 43310
" />
</g>
<g style="fill:#840000; fill-opacity:0.0; 
stroke:#840000; stroke-width:100; stroke-opacity:1; 
stroke-linecap:round; stroke-linejoin:round;">
</g>
<g style="fill:#840000; fill-opacity:0.0; 
stroke:#840000; stroke-width:60; stroke-opacity:1; 
stroke-linecap:round; stroke-linejoin:round;">
<path d="M3940 62990
L4720 62990
" />
</g>
<g style="fill:#840000; fill-opacity:0.0; 
stroke:#840000; stroke-width:100; stroke-opacity:1; 
stroke-linecap:round; stroke-linejoin:round;">
</g>
<g style="fill:#840000; fill-opacity:0.0; 
stroke:#840000; stroke-width:60; stroke-opacity:1; 
stroke-linecap:round; stroke-linejoin:round;">
<path d="M4210 13860
L4450 13860
" />
<path d="M4160 14010
L4330 13500
L4500 14010
" />
</g>
<g style="fill:#840000; fill-opacity:0.0; 
stroke:#840000; stroke-width:100; stroke-opacity:1; 
stroke-linecap:round; stroke-linejoin:round;">
</g>
<g style="fill:#840000; fill-opacity:0.0; 
stroke:#840000; stroke-width:60; stroke-opacity:1; 
stroke-linecap:round; stroke-linejoin:round;">
<path d="M4370 33420
L4440 33440
L4470 33470
L4490 33520
L4490 33590
L4470 33640
L4440 33660
L4400 33690
L4200 33690
L4200 33180
L4370 33180
L4420 33200
L4440 33220
L4470 33270
L4470 33320
L4440 33370
L4420 33390
L4370 33420
L4200 33420
" />
</g>
<g style="fill:#840000; fill-opacity:0.0; 
stroke:#840000; stroke-width:100; stroke-opacity:1; 
stroke-linecap:round; stroke-linejoin:round;">
</g>
<g style="fill:#840000; fill-opacity:0.0; 
stroke:#840000; stroke-width:60; stroke-opacity:1; 
stroke-linecap:round; stroke-linejoin:round;">
<path d="M4490 53330
L4470 53350
L4400 53380
L4350 53380
L4270 53350
L4230 53300
L4200 53250
L4180 53160
L4180 53080
L4200 52990
L4230 52940
L4270 52890
L4350 52870
L4400 52870
L4470 52890
L4490 52910
" />
</g>
<g style="fill:#840000; fill-opacity:0.0; 
stroke:#840000; stroke-width:100; stroke-opacity:1; 
stroke-linecap:round; stroke-linejoin:round;">
</g>
<g style="fill:#840000; fill-opacity:0.0; 
stroke:#840000; stroke-width:60; stroke-opacity:1; 
stroke-linecap:round; stroke-linejoin:round;">
<path d="M4200 73060
L4200 72550
L4320 72550
L4400 72570
L4440 72620
L4470 72670
L4490 72760
L4490 72840
L4470 72930
L4440 72980
L4400 73030
L4320 73060
L4200 73060
" />
</g>
<g style="fill:#840000; fill-opacity:0.0; 
stroke:#840000; stroke-width:100; stroke-opacity:1; 
stroke-linecap:round; stroke-linejoin:round;">
</g>
<g style="fill:#840000; fill-opacity:0.0; 
stroke:#840000; stroke-width:60; stroke-opacity:1; 
stroke-linecap:round; stroke-linejoin:round;">
<path d="M112990 23620
L112210 23620
" />
</g>
<g style="fill:#840000; fill-opacity:0.0; 
stroke:#840000; stroke-width:100; stroke-opacity:1; 
stroke-linecap:round; stroke-linejoin:round;">
</g>
<g style="fill:#840000; fill-opacity:0.0; 
stroke:#840000; stroke-width:60; stroke-opacity:1; 
stroke-linecap:round; stroke-linejoin:round;">
<path d="M112990 43310
L112210 43310
" />
</g>
<g style="fill:#840000; fill-opacity:0.0; 
stroke:#840000; stroke-width:100; stroke-opacity:1; 
stroke-linecap:round; stroke-linejoin:round;">
</g>
<g style="fill:#840000; fill-opacity:0.0; 
stroke:#840000; stroke-width:60; stroke-opacity:1; 
stroke-linecap:round; stroke-linejoin:round;">
<path d="M112990 62990
L112210 62990
" />
</g>
<g style="fill:#840000; fill-opacity:0.0; 
stroke:#840000; stroke-width:100; stroke-opacity:1; 
stroke-linecap:round; stroke-linejoin:round;">
</g>
<g style="fill:#840000; fill-opacity:0.0; 
stroke:#840000; stroke-width:60; stroke-opacity:1; 
stroke-linecap:round; stroke-linejoin:round;">
<path d="M112480 13860
L112720 13860
" />
<path d="M112430 14010
L112600 13500
L112770 14010
" />
</g>
<g style="fill:#840000; fill-opacity:0.0; 
stroke:#840000; stroke-width:100; stroke-opacity:1; 
stroke-linecap:round; stroke-linejoin:round;">
</g>
<g style="fill:#840000; fill-opacity:0.0; 
stroke:#840000; stroke-width:60; stroke-opacity:1; 
stroke-linecap:round; stroke-linejoin:round;">
<path d="M112640 33420
L112710 33440
L112740 33470
L112760 33520
L112760 33590
L112740 33640
L112710 33660
L112670 33690
L112470 33690
L112470 33180
L112640 33180
L112690 33200
L112710 33220
L112740 33270
L112740 33320
L112710 33370
L112690 33390
L112640 33420
L112470 33420
" />
</g>
<g style="fill:#840000; fill-opacity:0.0; 
stroke:#840000; stroke-width:100; stroke-opacity:1; 
stroke-linecap:round; stroke-linejoin:round;">
</g>
<g style="fill:#840000; fill-opacity:0.0; 
stroke:#840000; stroke-width:60; stroke-opacity:1; 
stroke-linecap:round; stroke-linejoin:round;">
<path d="M112760 53330
L112740 53350
L112670 53380
L112620 53380
L112540 53350
L112500 53300
L112470 53250
L112450 53160
L112450 53080
L112470 52990
L112500 52940
L112540 52890
L112620 52870
L112670 52870
L112740 52890
L112760 52910
" />
</g>
<g style="fill:#840000; fill-opacity:0.0; 
stroke:#840000; stroke-width:100; stroke-opacity:1; 
stroke-linecap:round; stroke-linejoin:round;">
</g>
<g style="fill:#840000; fill-opacity:0.0; 
stroke:#840000; stroke-width:60; stroke-opacity:1; 
stroke-linecap:round; stroke-linejoin:round;">
<path d="M112470 73060
L112470 72550
L112590 72550
L112670 72570
L112710 72620
L112740 72670
L112760 72760
L112760 72840
L112740 72930
L112710 72980
L112670 73030
L112590 73060
L112470 73060
" />
</g>
<g style="fill:#840000; fill-opacity:0.0; 
stroke:#840000; stroke-width:100; stroke-opacity:1; 
stroke-linecap:round; stroke-linejoin:round;">
</g>
<g style="fill:#840000; fill-opacity:0.0; 
stroke:#840000; stroke-width:60; stroke-opacity:1; 
stroke-linecap:round; stroke-linejoin:round;">
<path d="M78880 76290
L78880 75700
L79020 75700
L79110 75730
L79160 75790
L79190 75840
L79220 75950
L79220 76040
L79190 76150
L79160 76210
L79110 76260
L79020 76290
L78880 76290
" />
<path d="M79720 76290
L79720 75980
L79700 75930
L79640 75900
L79530 75900
L79470 75930
" />
<path d="M79720 76260
L79670 76290
L79530 76290
L79470 76260
L79440 76210
L79440 76150
L79470 76100
L79530 76070
L79670 76070
L79720 76040
" />
<path d="M79920 75900
L80140 75900
" />
<path d="M80000 75700
L80000 76210
L80030 76260
L80080 76290
L80140 76290
" />
<path d="M80570 76260
L80510 76290
L80400 76290
L80340 76260
L80310 76210
L80310 75980
L80340 75930
L80400 75900
L80510 75900
L80570 75930
L80590 75980
L80590 76040
L80310 76100
" />
<path d="M80850 76240
L80880 76260
L80850 76290
L80820 76260
L80850 76240
L80850 76290
" />
<path d="M80850 75930
L80880 75950
L80850 75980
L80820 75950
L80850 75930
L80850 75980
" />
</g>
<g style="fill:#840000; fill-opacity:0.0; 
stroke:#840000; stroke-width:100; stroke-opacity:1; 
stroke-linecap:round; stroke-linejoin:round;">
</g>
<g style="fill:#840000; fill-opacity:0.0; 
stroke:#840000; stroke-width:60; stroke-opacity:1; 
stroke-linecap:round; stroke-linejoin:round;">
<path d="M69690 76580
L112210 76580
" />
</g>
<g style="fill:#840000; fill-opacity:0.0; 
stroke:#840000; stroke-width:100; stroke-opacity:1; 
stroke-linecap:round; stroke-linejoin:round;">
</g>
<g style="fill:#840000; fill-opacity:0.0; 
stroke:#840000; stroke-width:60; stroke-opacity:1; 
stroke-linecap:round; stroke-linejoin:round;">
<path d="M70220 77390
L70220 76800
" />
<path d="M70560 77390
L70300 77050
" />
<path d="M70560 76800
L70220 77140
" />
<path d="M70810 77390
L70810 77000
" />
<path d="M70810 76800
L70780 76830
L70810 76860
L70840 76830
L70810 76800
L70810 76860
" />
<path d="M71430 77340
L71400 77360
L71320 77390
L71260 77390
L71170 77360
L71120 77310
L71090 77250
L71060 77140
L71060 77050
L71090 76940
L71120 76890
L71170 76830
L71260 76800
L71320 76800
L71400 76830
L71430 76860
" />
<path d="M71930 77390
L71930 77080
L71910 77030
L71850 77000
L71740 77000
L71680 77030
" />
<path d="M71930 77360
L71880 77390
L71740 77390
L71680 77360
L71650 77310
L71650 77250
L71680 77200
L71740 77170
L71880 77170
L71930 77140
" />
<path d="M72460 77390
L72460 76800
" />
<path d="M72460 77360
L72410 77390
L72290 77390
L72240 77360
L72210 77340
L72180 77280
L72180 77110
L72210 77050
L72240 77030
L72290 77000
L72410 77000
L72460 77030
" />
<path d="M73190 77080
L73390 77080
" />
<path d="M73470 77390
L73190 77390
L73190 76800
L73470 76800
" />
<path d="M73720 77340
L73750 77360
L73720 77390
L73690 77360
L73720 77340
L73720 77390
" />
<path d="M74000 77390
L74000 76800
L74140 76800
L74230 76830
L74280 76890
L74310 76940
L74340 77050
L74340 77140
L74310 77250
L74280 77310
L74230 77360
L74140 77390
L74000 77390
" />
<path d="M74590 77340
L74620 77360
L74590 77390
L74560 77360
L74590 77340
L74590 77390
" />
<path d="M74840 77220
L75120 77220
" />
<path d="M74790 77390
L74980 76800
L75180 77390
" />
<path d="M75380 77340
L75410 77360
L75380 77390
L75350 77360
L75380 77340
L75380 77390
" />
<path d="M76560 77390
L76560 76800
" />
<path d="M76620 77170
L76790 77390
" />
<path d="M76790 77000
L76560 77220
" />
<path d="M77040 77390
L77040 77000
" />
<path d="M77040 76800
L77010 76830
L77040 76860
L77070 76830
L77040 76800
L77040 76860
" />
<path d="M77570 77360
L77520 77390
L77400 77390
L77350 77360
L77320 77340
L77290 77280
L77290 77110
L77320 77050
L77350 77030
L77400 77000
L77520 77000
L77570 77030
" />
<path d="M78080 77390
L78080 77080
L78060 77030
L78000 77000
L77890 77000
L77830 77030
" />
<path d="M78080 77360
L78030 77390
L77890 77390
L77830 77360
L77800 77310
L77800 77250
L77830 77200
L77890 77170
L78030 77170
L78080 77140
" />
<path d="M78610 77390
L78610 76800
" />
<path d="M78610 77360
L78560 77390
L78440 77390
L78390 77360
L78360 77340
L78330 77280
L78330 77110
L78360 77050
L78390 77030
L78440 77000
L78560 77000
L78610 77030
" />
<path d="M79590 77000
L79590 77390
" />
<path d="M79450 76770
L79310 77200
L79680 77200
" />
<path d="M79900 77340
L79930 77360
L79900 77390
L79870 77360
L79900 77340
L79900 77390
" />
<path d="M80290 76800
L80350 76800
L80410 76830
L80430 76860
L80460 76910
L80490 77030
L80490 77170
L80460 77280
L80430 77340
L80410 77360
L80350 77390
L80290 77390
L80240 77360
L80210 77340
L80180 77280
L80150 77170
L80150 77030
L80180 76910
L80210 76860
L80240 76830
L80290 76800
" />
<path d="M80740 77340
L80770 77360
L80740 77390
L80710 77360
L80740 77340
L80740 77390
" />
<path d="M81270 76800
L81160 76800
L81100 76830
L81080 76860
L81020 76940
L80990 77050
L80990 77280
L81020 77340
L81050 77360
L81100 77390
L81220 77390
L81270 77360
L81300 77340
L81330 77280
L81330 77140
L81300 77080
L81270 77050
L81220 77030
L81100 77030
L81050 77050
L81020 77080
L80990 77140
" />
</g>
<g style="fill:#840000; fill-opacity:0.0; 
stroke:#840000; stroke-width:100; stroke-opacity:1; 
stroke-linecap:round; stroke-linejoin:round;">
</g>
<g style="fill:#840000; fill-opacity:0.0; 
stroke:#840000; stroke-width:60; stroke-opacity:1; 
stroke-linecap:round; stroke-linejoin:round;">
<path d="M69690 75400
L112210 75400
" />
</g>
<g style="fill:#840000; fill-opacity:0.0; 
stroke:#840000; stroke-width:100; stroke-opacity:1; 
stroke-linecap:round; stroke-linejoin:round;">
</g>
<g style="fill:#840000; fill-opacity:0.0; 
stroke:#840000; stroke-width:120; stroke-opacity:1; 
stroke-linecap:round; stroke-linejoin:round;">
<path d="M104020 76290
L103820 76010
" />
<path d="M103680 76290
L103680 75700
L103910 75700
L103960 75730
L103990 75760
L104020 75810
L104020 75900
L103990 75950
L103960 75980
L103910 76010
L103680 76010
" />
<path d="M104500 76260
L104440 76290
L104330 76290
L104270 76260
L104240 76210
L104240 75980
L104270 75930
L104330 75900
L104440 75900
L104500 75930
L104520 75980
L104520 76040
L104240 76100
" />
<path d="M104720 75900
L104860 76290
L105010 75900
" />
<path d="M105230 76240
L105260 76260
L105230 76290
L105200 76260
L105230 76240
L105230 76290
" />
<path d="M105230 75930
L105260 75950
L105230 75980
L105200 75950
L105230 75930
L105230 75980
" />
</g>
<g style="fill:#840000; fill-opacity:0.0; 
stroke:#840000; stroke-width:100; stroke-opacity:1; 
stroke-linecap:round; stroke-linejoin:round;">
</g>
<g style="fill:#840000; fill-opacity:0.0; 
stroke:#840000; stroke-width:60; stroke-opacity:1; 
stroke-linecap:round; stroke-linejoin:round;">
<path d="M70190 76260
L70280 76290
L70420 76290
L70470 76260
L70500 76240
L70530 76180
L70530 76120
L70500 76070
L70470 76040
L70420 76010
L70300 75980
L70250 75950
L70220 75930
L70190 75870
L70190 75810
L70220 75760
L70250 75730
L70300 75700
L70450 75700
L70530 75730
" />
<path d="M70780 76290
L70780 75900
" />
<path d="M70780 75700
L70750 75730
L70780 75760
L70810 75730
L70780 75700
L70780 75760
" />
<path d="M71000 75900
L71310 75900
L71000 76290
L71310 76290
" />
<path d="M71770 76260
L71710 76290
L71600 76290
L71540 76260
L71510 76210
L71510 75980
L71540 75930
L71600 75900
L71710 75900
L71770 75930
L71790 75980
L71790 76040
L71510 76100
" />
<path d="M72050 76240
L72080 76260
L72050 76290
L72020 76260
L72050 76240
L72050 76290
" />
<path d="M72050 75930
L72080 75950
L72050 75980
L72020 75950
L72050 75930
L72050 75980
" />
<path d="M72750 76120
L73030 76120
" />
<path d="M72700 76290
L72890 75700
L73090 76290
" />
<path d="M73540 75900
L73540 76290
" />
<path d="M73400 75670
L73260 76100
L73630 76100
" />
</g>
<g style="fill:#840000; fill-opacity:0.0; 
stroke:#840000; stroke-width:100; stroke-opacity:1; 
stroke-linecap:round; stroke-linejoin:round;">
</g>
<g style="fill:#840000; fill-opacity:0.0; 
stroke:#840000; stroke-width:60; stroke-opacity:1; 
stroke-linecap:round; stroke-linejoin:round;">
<path d="M103680 77390
L103680 76800
" />
<path d="M104210 77390
L104210 76800
" />
<path d="M104210 77360
L104160 77390
L104040 77390
L103990 77360
L103960 77340
L103930 77280
L103930 77110
L103960 77050
L103990 77030
L104040 77000
L104160 77000
L104210 77030
" />
<path d="M104490 77340
L104520 77360
L104490 77390
L104460 77360
L104490 77340
L104490 77390
" />
<path d="M104490 77030
L104520 77050
L104490 77080
L104460 77050
L104490 77030
L104490 77080
" />
<path d="M105530 77390
L105190 77390
" />
<path d="M105360 77390
L105360 76800
L105300 76890
L105250 76940
L105190 76970
" />
<path d="M106200 76770
L105700 77530
" />
<path d="M106710 77390
L106370 77390
" />
<path d="M106540 77390
L106540 76800
L106480 76890
L106430 76940
L106370 76970
" />
</g>
<g style="fill:#840000; fill-opacity:0.0; 
stroke:#840000; stroke-width:100; stroke-opacity:1; 
stroke-linecap:round; stroke-linejoin:round;">
</g>
<g style="fill:#840000; fill-opacity:0.0; 
stroke:#840000; stroke-width:60; stroke-opacity:1; 
stroke-linecap:round; stroke-linejoin:round;">
<path d="M69690 73820
L112210 73820
" />
</g>
<g style="fill:#840000; fill-opacity:0.0; 
stroke:#840000; stroke-width:100; stroke-opacity:1; 
stroke-linecap:round; stroke-linejoin:round;">
</g>
<g style="fill:#840000; fill-opacity:0.0; 
stroke:#840000; stroke-width:160; stroke-opacity:1; 
stroke-linecap:round; stroke-linejoin:round;">
<path d="M70260 74090
L70710 74090
" />
<path d="M70390 74880
L70480 74090
" />
<path d="M70880 74880
L70940 74360
" />
<path d="M70970 74090
L70930 74130
L70960 74170
L71010 74130
L70970 74090
L70960 74170
" />
<path d="M71210 74360
L71510 74360
" />
<path d="M71350 74090
L71270 74770
L71300 74840
L71370 74880
L71450 74880
" />
<path d="M71820 74880
L71750 74840
L71720 74770
L71800 74090
" />
<path d="M72420 74840
L72340 74880
L72190 74880
L72120 74840
L72090 74770
L72130 74470
L72180 74390
L72250 74360
L72400 74360
L72480 74390
L72510 74470
L72500 74540
L72110 74620
" />
<path d="M72800 74810
L72840 74840
L72800 74880
L72760 74840
L72800 74810
L72800 74880
" />
<path d="M72860 74390
L72890 74430
L72850 74470
L72810 74430
L72860 74390
L72850 74470
" />
</g>
<g style="fill:#840000; fill-opacity:0.0; 
stroke:#840000; stroke-width:100; stroke-opacity:1; 
stroke-linecap:round; stroke-linejoin:round;">
</g>
<g style="fill:#840000; fill-opacity:0.0; 
stroke:#840000; stroke-width:60; stroke-opacity:1; 
stroke-linecap:round; stroke-linejoin:round;">
<path d="M70420 73060
L70220 73060
" />
<path d="M70220 73370
L70220 72780
L70500 72780
" />
<path d="M70730 73370
L70730 72980
" />
<path d="M70730 72780
L70700 72810
L70730 72840
L70760 72810
L70730 72780
L70730 72840
" />
<path d="M71090 73370
L71040 73340
L71010 73290
L71010 72780
" />
<path d="M71550 73340
L71490 73370
L71380 73370
L71320 73340
L71290 73290
L71290 73060
L71320 73010
L71380 72980
L71490 72980
L71550 73010
L71570 73060
L71570 73120
L71290 73180
" />
<path d="M71830 73320
L71860 73340
L71830 73370
L71800 73340
L71830 73320
L71830 73370
" />
<path d="M71830 73010
L71860 73030
L71830 73060
L71800 73030
L71830 73010
L71830 73060
" />
<path d="M72560 73370
L72560 72980
" />
<path d="M72560 73030
L72590 73010
L72640 72980
L72730 72980
L72790 73010
L72810 73060
L72810 73370
" />
<path d="M72810 73060
L72840 73010
L72900 72980
L72980 72980
L73040 73010
L73070 73060
L73070 73370
" />
<path d="M73600 73370
L73600 73060
L73580 73010
L73520 72980
L73410 72980
L73350 73010
" />
<path d="M73600 73340
L73550 73370
L73410 73370
L73350 73340
L73320 73290
L73320 73230
L73350 73180
L73410 73150
L73550 73150
L73600 73120
" />
<path d="M74130 72980
L74130 73460
L74110 73510
L74080 73540
L74020 73570
L73940 73570
L73880 73540
" />
<path d="M74130 73340
L74080 73370
L73960 73370
L73910 73340
L73880 73320
L73850 73260
L73850 73090
L73880 73030
L73910 73010
L73960 72980
L74080 72980
L74130 73010
" />
<path d="M74410 72980
L74410 73370
" />
<path d="M74410 73030
L74440 73010
L74490 72980
L74580 72980
L74640 73010
L74660 73060
L74660 73370
" />
<path d="M75170 73340
L75110 73370
L75000 73370
L74940 73340
L74910 73290
L74910 73060
L74940 73010
L75000 72980
L75110 72980
L75170 73010
L75190 73060
L75190 73120
L74910 73180
" />
<path d="M75370 72980
L75590 72980
" />
<path d="M75450 72780
L75450 73290
L75480 73340
L75530 73370
L75590 73370
" />
<path d="M75790 73370
L75790 72980
" />
<path d="M75790 72780
L75760 72810
L75790 72840
L75820 72810
L75790 72780
L75790 72840
" />
<path d="M76320 73340
L76270 73370
L76150 73370
L76100 73340
L76070 73320
L76040 73260
L76040 73090
L76070 73030
L76100 73010
L76150 72980
L76270 72980
L76320 73010
" />
<path d="M76580 73150
L77030 73150
" />
<path d="M77560 73370
L77560 72780
" />
<path d="M77560 73340
L77510 73370
L77390 73370
L77340 73340
L77310 73320
L77280 73260
L77280 73090
L77310 73030
L77340 73010
L77390 72980
L77510 72980
L77560 73010
" />
<path d="M77840 73370
L77840 72980
" />
<path d="M77840 72780
L77810 72810
L77840 72840
L77870 72810
L77840 72780
L77840 72840
" />
<path d="M78090 73340
L78150 73370
L78260 73370
L78320 73340
L78350 73290
L78350 73260
L78320 73200
L78260 73180
L78180 73180
L78120 73150
L78090 73090
L78090 73060
L78120 73010
L78180 72980
L78260 72980
L78320 73010
" />
<path d="M78520 72980
L78740 72980
" />
<path d="M78600 72780
L78600 73290
L78630 73340
L78680 73370
L78740 73370
" />
<path d="M79190 73370
L79190 73060
L79170 73010
L79110 72980
L79000 72980
L78940 73010
" />
<path d="M79190 73340
L79140 73370
L79000 73370
L78940 73340
L78910 73290
L78910 73230
L78940 73180
L79000 73150
L79140 73150
L79190 73120
" />
<path d="M79470 72980
L79470 73370
" />
<path d="M79470 73030
L79500 73010
L79550 72980
L79640 72980
L79700 73010
L79720 73060
L79720 73370
" />
<path d="M80250 73340
L80200 73370
L80080 73370
L80030 73340
L80000 73320
L79970 73260
L79970 73090
L80000 73030
L80030 73010
L80080 72980
L80200 72980
L80250 73010
" />
<path d="M80740 73340
L80680 73370
L80570 73370
L80510 73340
L80480 73290
L80480 73060
L80510 73010
L80570 72980
L80680 72980
L80740 73010
L80760 73060
L80760 73120
L80480 73180
" />
<path d="M81020 73320
L81050 73340
L81020 73370
L80990 73340
L81020 73320
L81020 73370
" />
<path d="M81270 73340
L81330 73370
L81440 73370
L81500 73340
L81530 73290
L81530 73260
L81500 73200
L81440 73180
L81360 73180
L81300 73150
L81270 73090
L81270 73060
L81300 73010
L81360 72980
L81440 72980
L81500 73010
" />
<path d="M82030 73340
L81980 73370
L81860 73370
L81810 73340
L81780 73320
L81750 73260
L81750 73090
L81780 73030
L81810 73010
L81860 72980
L81980 72980
L82030 73010
" />
<path d="M82290 73370
L82290 72780
" />
<path d="M82540 73370
L82540 73060
L82520 73010
L82460 72980
L82370 72980
L82320 73010
L82290 73030
" />
</g>
<g style="fill:#840000; fill-opacity:0.0; 
stroke:#840000; stroke-width:100; stroke-opacity:1; 
stroke-linecap:round; stroke-linejoin:round;">
</g>
<g style="fill:#840000; fill-opacity:0.0; 
stroke:#840000; stroke-width:60; stroke-opacity:1; 
stroke-linecap:round; stroke-linejoin:round;">
<path d="M69690 71460
L112210 71460
" />
</g>
<g style="fill:#840000; fill-opacity:0.0; 
stroke:#840000; stroke-width:100; stroke-opacity:1; 
stroke-linecap:round; stroke-linejoin:round;">
</g>
<g style="fill:#840000; fill-opacity:0.0; 
stroke:#840000; stroke-width:60; stroke-opacity:1; 
stroke-linecap:round; stroke-linejoin:round;">
<path d="M70190 72280
L70280 72310
L70420 72310
L70470 72280
L70500 72260
L70530 72200
L70530 72140
L70500 72090
L70470 72060
L70420 72030
L70300 72000
L70250 71970
L70220 71950
L70190 71890
L70190 71830
L70220 71780
L70250 71750
L70300 71720
L70450 71720
L70530 71750
" />
<path d="M70780 72310
L70780 71720
" />
<path d="M71030 72310
L71030 72000
L71010 71950
L70950 71920
L70860 71920
L70810 71950
L70780 71970
" />
<path d="M71540 72280
L71480 72310
L71370 72310
L71310 72280
L71280 72230
L71280 72000
L71310 71950
L71370 71920
L71480 71920
L71540 71950
L71560 72000
L71560 72060
L71280 72120
" />
<path d="M72050 72280
L71990 72310
L71880 72310
L71820 72280
L71790 72230
L71790 72000
L71820 71950
L71880 71920
L71990 71920
L72050 71950
L72070 72000
L72070 72060
L71790 72120
" />
<path d="M72250 71920
L72470 71920
" />
<path d="M72330 71720
L72330 72230
L72360 72280
L72410 72310
L72470 72310
" />
<path d="M72670 72260
L72700 72280
L72670 72310
L72640 72280
L72670 72260
L72670 72310
" />
<path d="M72670 71950
L72700 71970
L72670 72000
L72640 71970
L72670 71950
L72670 72000
" />
<path d="M73820 71690
L73320 72450
" />
</g>
<g style="fill:#840000; fill-opacity:0.0; 
stroke:#840000; stroke-width:100; stroke-opacity:1; 
stroke-linecap:round; stroke-linejoin:round;">
</g>
<g style="fill:#840000; fill-opacity:0.0; 
stroke:#840000; stroke-width:60; stroke-opacity:1; 
stroke-linecap:round; stroke-linejoin:round;">
<path d="M77560 75400
L77560 76580
" />
</g>
<g style="fill:#840000; fill-opacity:0.0; 
stroke:#840000; stroke-width:100; stroke-opacity:1; 
stroke-linecap:round; stroke-linejoin:round;">
</g>
<g style="fill:#840000; fill-opacity:0.0; 
stroke:#840000; stroke-width:60; stroke-opacity:1; 
stroke-linecap:round; stroke-linejoin:round;">
<path d="M102760 75400
L102760 77960
" />
</g>
<g style="fill:#840000; fill-opacity:0.0; 
stroke:#840000; stroke-width:0; stroke-opacity:1; 
stroke-linecap:round; stroke-linejoin:round;">
</g>
<g style="fill:#840000; fill-opacity:0.0; 
stroke:#840000; stroke-width:60; stroke-opacity:1; 
stroke-linecap:round; stroke-linejoin:round;">
<rect x="38500" y="15000" width="6000" height="11000" rx="0" />
<path d="M38500 16000
L36500 16000
" />
</g>
<g style="fill:#008484; fill-opacity:0.0; 
stroke:#008484; stroke-width:60; stroke-opacity:1; 
stroke-linecap:round; stroke-linejoin:round;">
<path d="M38950 15730
L39110 16230
L39280 15730
" />
<path d="M39430 16200
L39500 16230
L39620 16230
L39660 16200
L39690 16180
L39710 16130
L39710 16080
L39690 16040
L39660 16010
L39620 15990
L39520 15960
L39470 15940
L39450 15920
L39430 15870
L39430 15820
L39450 15770
L39470 15750
L39520 15730
L39640 15730
L39710 15750
" />
<path d="M39910 16200
L39980 16230
L40100 16230
L40140 16200
L40170 16180
L40190 16130
L40190 16080
L40170 16040
L40140 16010
L40100 15990
L40000 15960
L39950 15940
L39930 15920
L39910 15870
L39910 15820
L39930 15770
L39950 15750
L40000 15730
L40120 15730
L40190 15750
" />
</g>
<g style="fill:#840000; fill-opacity:0.0; 
stroke:#840000; stroke-width:60; stroke-opacity:1; 
stroke-linecap:round; stroke-linejoin:round;">
<path d="M37640 15880
L37360 15880
" />
<path d="M37500 15880
L37500 15380
L37450 15450
L37400 15500
L37360 15520
" />
<path d="M38500 17000
L36500 17000
" />
</g>
<g style="fill:#008484; fill-opacity:0.0; 
stroke:#008484; stroke-width:60; stroke-opacity:1; 
stroke-linecap:round; stroke-linejoin:round;">
<path d="M39000 17080
L39230 17080
" />
<path d="M38950 17230
L39110 16730
L39280 17230
" />
</g>
<g style="fill:#840000; fill-opacity:0.0; 
stroke:#840000; stroke-width:60; stroke-opacity:1; 
stroke-linecap:round; stroke-linejoin:round;">
<path d="M37360 16420
L37380 16400
L37430 16380
L37550 16380
L37590 16400
L37620 16420
L37640 16470
L37640 16520
L37620 16590
L37330 16880
L37640 16880
" />
<path d="M38500 18000
L36500 18000
" />
</g>
<g style="fill:#008484; fill-opacity:0.0; 
stroke:#008484; stroke-width:60; stroke-opacity:1; 
stroke-linecap:round; stroke-linejoin:round;">
<path d="M38950 17730
L39110 18230
L39280 17730
" />
<path d="M39450 18230
L39450 17730
L39570 17730
L39640 17750
L39690 17800
L39710 17850
L39730 17940
L39730 18010
L39710 18110
L39690 18150
L39640 18200
L39570 18230
L39450 18230
" />
<path d="M39950 18230
L39950 17730
L40070 17730
L40140 17750
L40190 17800
L40210 17850
L40230 17940
L40230 18010
L40210 18110
L40190 18150
L40140 18200
L40070 18230
L39950 18230
" />
<path d="M40450 18230
L40450 17730
L40640 17730
L40690 17750
L40710 17770
L40730 17820
L40730 17890
L40710 17940
L40690 17960
L40640 17990
L40450 17990
" />
</g>
<g style="fill:#840000; fill-opacity:0.0; 
stroke:#840000; stroke-width:60; stroke-opacity:1; 
stroke-linecap:round; stroke-linejoin:round;">
<path d="M37330 17380
L37640 17380
L37470 17570
L37550 17570
L37590 17590
L37620 17610
L37640 17660
L37640 17780
L37620 17830
L37590 17850
L37550 17880
L37400 17880
L37360 17850
L37330 17830
" />
<path d="M38500 19000
L36500 19000
" />
</g>
<g style="fill:#008484; fill-opacity:0.0; 
stroke:#008484; stroke-width:60; stroke-opacity:1; 
stroke-linecap:round; stroke-linejoin:round;">
<path d="M39190 18960
L39260 18990
L39280 19010
L39300 19060
L39300 19130
L39280 19180
L39260 19200
L39210 19230
L39020 19230
L39020 18730
L39190 18730
L39230 18750
L39260 18770
L39280 18820
L39280 18870
L39260 18920
L39230 18940
L39190 18960
L39020 18960
" />
</g>
<g style="fill:#840000; fill-opacity:0.0; 
stroke:#840000; stroke-width:60; stroke-opacity:1; 
stroke-linecap:round; stroke-linejoin:round;">
<path d="M37590 18540
L37590 18880
" />
<path d="M37470 18350
L37360 18710
L37660 18710
" />
<path d="M38500 20000
L36500 20000
" />
<path d="M36380 19880
L36620 20120
" />
<path d="M36620 19880
L36380 20120
" />
</g>
<g style="fill:#008484; fill-opacity:0.0; 
stroke:#008484; stroke-width:60; stroke-opacity:1; 
stroke-linecap:round; stroke-linejoin:round;">
<path d="M38950 19730
L39230 19730
" />
<path d="M39090 20230
L39090 19730
" />
<path d="M39400 19960
L39570 19960
" />
<path d="M39640 20230
L39400 20230
L39400 19730
L39640 19730
" />
<path d="M39830 20200
L39900 20230
L40020 20230
L40060 20200
L40090 20180
L40110 20130
L40110 20080
L40090 20040
L40060 20010
L40020 19990
L39920 19960
L39870 19940
L39850 19920
L39830 19870
L39830 19820
L39850 19770
L39870 19750
L39920 19730
L40040 19730
L40110 19750
" />
<path d="M40260 19730
L40540 19730
" />
<path d="M40400 20230
L40400 19730
" />
</g>
<g style="fill:#840000; fill-opacity:0.0; 
stroke:#840000; stroke-width:60; stroke-opacity:1; 
stroke-linecap:round; stroke-linejoin:round;">
<path d="M37620 19380
L37380 19380
L37360 19610
L37380 19590
L37430 19570
L37550 19570
L37590 19590
L37620 19610
L37640 19660
L37640 19780
L37620 19830
L37590 19850
L37550 19880
L37430 19880
L37380 19850
L37360 19830
" />
<path d="M38500 21000
L36500 21000
" />
</g>
<g style="fill:#008484; fill-opacity:0.0; 
stroke:#008484; stroke-width:60; stroke-opacity:1; 
stroke-linecap:round; stroke-linejoin:round;">
<path d="M39000 21080
L39230 21080
" />
<path d="M38950 21230
L39110 20730
L39280 21230
" />
<path d="M39540 20730
L39640 20730
L39690 20750
L39730 20800
L39760 20890
L39760 21060
L39730 21150
L39690 21200
L39640 21230
L39540 21230
L39500 21200
L39450 21150
L39430 21060
L39430 20890
L39450 20800
L39500 20750
L39540 20730
" />
</g>
<g style="fill:#840000; fill-opacity:0.0; 
stroke:#840000; stroke-width:60; stroke-opacity:1; 
stroke-linecap:round; stroke-linejoin:round;">
<path d="M37590 20380
L37500 20380
L37450 20400
L37430 20420
L37380 20500
L37360 20590
L37360 20780
L37380 20830
L37400 20850
L37450 20880
L37550 20880
L37590 20850
L37620 20830
L37640 20780
L37640 20660
L37620 20610
L37590 20590
L37550 20570
L37450 20570
L37400 20590
L37380 20610
L37360 20660
" />
<path d="M38500 22000
L36500 22000
" />
</g>
<g style="fill:#008484; fill-opacity:0.0; 
stroke:#008484; stroke-width:60; stroke-opacity:1; 
stroke-linecap:round; stroke-linejoin:round;">
<path d="M38950 21730
L39110 22230
L39280 21730
" />
<path d="M39450 22230
L39450 21730
L39570 21730
L39640 21750
L39690 21800
L39710 21850
L39730 21940
L39730 22010
L39710 22110
L39690 22150
L39640 22200
L39570 22230
L39450 22230
" />
<path d="M39950 22230
L39950 21730
L40070 21730
L40140 21750
L40190 21800
L40210 21850
L40230 21940
L40230 22010
L40210 22110
L40190 22150
L40140 22200
L40070 22230
L39950 22230
" />
</g>
<g style="fill:#840000; fill-opacity:0.0; 
stroke:#840000; stroke-width:60; stroke-opacity:1; 
stroke-linecap:round; stroke-linejoin:round;">
<path d="M37330 21380
L37660 21380
L37450 21880
" />
<path d="M38500 23000
L36500 23000
" />
</g>
<g style="fill:#008484; fill-opacity:0.0; 
stroke:#008484; stroke-width:60; stroke-opacity:1; 
stroke-linecap:round; stroke-linejoin:round;">
<path d="M39020 23230
L39020 22730
" />
<path d="M39260 23230
L39260 22730
L39540 23230
L39540 22730
" />
<path d="M39780 23230
L39780 22730
L39900 22730
L39970 22750
L40020 22800
L40040 22850
L40060 22940
L40060 23010
L40040 23110
L40020 23150
L39970 23200
L39900 23230
L39780 23230
" />
<path d="M40280 22960
L40450 22960
" />
<path d="M40520 23230
L40280 23230
L40280 22730
L40520 22730
" />
<path d="M40680 22730
L41010 23230
" />
<path d="M41010 22730
L40680 23230
" />
</g>
<g style="fill:#840000; fill-opacity:0.0; 
stroke:#840000; stroke-width:60; stroke-opacity:1; 
stroke-linecap:round; stroke-linejoin:round;">
<path d="M37450 22590
L37400 22570
L37380 22540
L37360 22500
L37360 22470
L37380 22420
L37400 22400
L37450 22380
L37550 22380
L37590 22400
L37620 22420
L37640 22470
L37640 22500
L37620 22540
L37590 22570
L37550 22590
L37450 22590
L37400 22610
L37380 22640
L37360 22690
L37360 22780
L37380 22830
L37400 22850
L37450 22880
L37550 22880
L37590 22850
L37620 22830
L37640 22780
L37640 22690
L37620 22640
L37590 22610
L37550 22590
" />
<path d="M38500 24000
L36500 24000
" />
<path d="M36380 23880
L36620 24120
" />
<path d="M36620 23880
L36380 24120
" />
</g>
<g style="fill:#008484; fill-opacity:0.0; 
stroke:#008484; stroke-width:60; stroke-opacity:1; 
stroke-linecap:round; stroke-linejoin:round;">
<path d="M39020 24230
L39020 23730
L39300 24230
L39300 23730
" />
<path d="M39820 24180
L39800 24200
L39730 24230
L39680 24230
L39610 24200
L39560 24150
L39540 24110
L39520 24010
L39520 23940
L39540 23850
L39560 23800
L39610 23750
L39680 23730
L39730 23730
L39800 23750
L39820 23770
" />
</g>
<g style="fill:#840000; fill-opacity:0.0; 
stroke:#840000; stroke-width:60; stroke-opacity:1; 
stroke-linecap:round; stroke-linejoin:round;">
<path d="M37400 23880
L37500 23880
L37550 23850
L37570 23830
L37620 23760
L37640 23660
L37640 23470
L37620 23420
L37590 23400
L37550 23380
L37450 23380
L37400 23400
L37380 23420
L37360 23470
L37360 23590
L37380 23640
L37400 23660
L37450 23690
L37550 23690
L37590 23660
L37620 23640
L37640 23590
" />
<path d="M38500 25000
L36500 25000
" />
<path d="M36380 24880
L36620 25120
" />
<path d="M36620 24880
L36380 25120
" />
</g>
<g style="fill:#008484; fill-opacity:0.0; 
stroke:#008484; stroke-width:60; stroke-opacity:1; 
stroke-linecap:round; stroke-linejoin:round;">
<path d="M39020 25230
L39020 24730
L39300 25230
L39300 24730
" />
<path d="M39820 25180
L39800 25200
L39730 25230
L39680 25230
L39610 25200
L39560 25150
L39540 25110
L39520 25010
L39520 24940
L39540 24850
L39560 24800
L39610 24750
L39680 24730
L39730 24730
L39800 24750
L39820 24770
" />
</g>
<g style="fill:#840000; fill-opacity:0.0; 
stroke:#840000; stroke-width:60; stroke-opacity:1; 
stroke-linecap:round; stroke-linejoin:round;">
<path d="M37400 24880
L37120 24880
" />
<path d="M37260 24880
L37260 24380
L37210 24450
L37160 24500
L37120 24520
" />
<path d="M37710 24380
L37760 24380
L37810 24400
L37830 24420
L37860 24470
L37880 24570
L37880 24690
L37860 24780
L37830 24830
L37810 24850
L37760 24880
L37710 24880
L37670 24850
L37640 24830
L37620 24780
L37600 24690
L37600 24570
L37620 24470
L37640 24420
L37670 24400
L37710 24380
" />
<path d="M44500 16000
L46500 16000
" />
</g>
<g style="fill:#008484; fill-opacity:0.0; 
stroke:#008484; stroke-width:60; stroke-opacity:1; 
stroke-linecap:round; stroke-linejoin:round;">
<path d="M42710 15730
L43040 15730
L42710 16230
L43040 16230
" />
<path d="M43240 16230
L43240 15730
L43430 15730
L43480 15750
L43500 15770
L43520 15820
L43520 15890
L43500 15940
L43480 15960
L43430 15990
L43240 15990
" />
<path d="M43690 15730
L44020 15730
L43690 16230
L44020 16230
" />
</g>
<g style="fill:#840000; fill-opacity:0.0; 
stroke:#840000; stroke-width:60; stroke-opacity:1; 
stroke-linecap:round; stroke-linejoin:round;">
<path d="M45120 15420
L45140 15400
L45190 15380
L45310 15380
L45350 15400
L45380 15420
L45400 15470
L45400 15520
L45380 15590
L45090 15880
L45400 15880
" />
<path d="M45710 15380
L45760 15380
L45810 15400
L45830 15420
L45860 15470
L45880 15570
L45880 15690
L45860 15780
L45830 15830
L45810 15850
L45760 15880
L45710 15880
L45670 15850
L45640 15830
L45620 15780
L45600 15690
L45600 15570
L45620 15470
L45640 15420
L45670 15400
L45710 15380
" />
<path d="M44500 25000
L46500 25000
" />
<path d="M46380 24880
L46620 25120
" />
<path d="M46620 24880
L46380 25120
" />
</g>
<g style="fill:#008484; fill-opacity:0.0; 
stroke:#008484; stroke-width:60; stroke-opacity:1; 
stroke-linecap:round; stroke-linejoin:round;">
<path d="M43200 25230
L43200 24730
L43480 25230
L43480 24730
" />
<path d="M44000 25180
L43980 25200
L43910 25230
L43860 25230
L43790 25200
L43740 25150
L43720 25110
L43700 25010
L43700 24940
L43720 24850
L43740 24800
L43790 24750
L43860 24730
L43910 24730
L43980 24750
L44000 24770
" />
</g>
<g style="fill:#840000; fill-opacity:0.0; 
stroke:#840000; stroke-width:60; stroke-opacity:1; 
stroke-linecap:round; stroke-linejoin:round;">
<path d="M45400 24880
L45120 24880
" />
<path d="M45260 24880
L45260 24380
L45210 24450
L45160 24500
L45120 24520
" />
<path d="M45880 24880
L45600 24880
" />
<path d="M45740 24880
L45740 24380
L45690 24450
L45640 24500
L45600 24520
" />
<path d="M44500 24000
L46500 24000
" />
<path d="M46380 23880
L46620 24120
" />
<path d="M46620 23880
L46380 24120
" />
</g>
<g style="fill:#008484; fill-opacity:0.0; 
stroke:#008484; stroke-width:60; stroke-opacity:1; 
stroke-linecap:round; stroke-linejoin:round;">
<path d="M42460 23730
L42740 23730
" />
<path d="M42600 24230
L42600 23730
" />
<path d="M42910 23960
L43080 23960
" />
<path d="M43150 24230
L42910 24230
L42910 23730
L43150 23730
" />
<path d="M43340 24200
L43410 24230
L43530 24230
L43570 24200
L43600 24180
L43620 24130
L43620 24080
L43600 24040
L43570 24010
L43530 23990
L43430 23960
L43380 23940
L43360 23920
L43340 23870
L43340 23820
L43360 23770
L43380 23750
L43430 23730
L43550 23730
L43620 23750
" />
<path d="M43770 23730
L44050 23730
" />
<path d="M43910 24230
L43910 23730
" />
</g>
<g style="fill:#840000; fill-opacity:0.0; 
stroke:#840000; stroke-width:60; stroke-opacity:1; 
stroke-linecap:round; stroke-linejoin:round;">
<path d="M45400 23880
L45120 23880
" />
<path d="M45260 23880
L45260 23380
L45210 23450
L45160 23500
L45120 23520
" />
<path d="M45600 23420
L45620 23400
L45670 23380
L45790 23380
L45830 23400
L45860 23420
L45880 23470
L45880 23520
L45860 23590
L45570 23880
L45880 23880
" />
<path d="M44500 23000
L46500 23000
" />
<path d="M46380 22880
L46620 23120
" />
<path d="M46620 22880
L46380 23120
" />
</g>
<g style="fill:#008484; fill-opacity:0.0; 
stroke:#008484; stroke-width:60; stroke-opacity:1; 
stroke-linecap:round; stroke-linejoin:round;">
<path d="M42460 22730
L42740 22730
" />
<path d="M42600 23230
L42600 22730
" />
<path d="M42910 22960
L43080 22960
" />
<path d="M43150 23230
L42910 23230
L42910 22730
L43150 22730
" />
<path d="M43340 23200
L43410 23230
L43530 23230
L43570 23200
L43600 23180
L43620 23130
L43620 23080
L43600 23040
L43570 23010
L43530 22990
L43430 22960
L43380 22940
L43360 22920
L43340 22870
L43340 22820
L43360 22770
L43380 22750
L43430 22730
L43550 22730
L43620 22750
" />
<path d="M43770 22730
L44050 22730
" />
<path d="M43910 23230
L43910 22730
" />
</g>
<g style="fill:#840000; fill-opacity:0.0; 
stroke:#840000; stroke-width:60; stroke-opacity:1; 
stroke-linecap:round; stroke-linejoin:round;">
<path d="M45400 22880
L45120 22880
" />
<path d="M45260 22880
L45260 22380
L45210 22450
L45160 22500
L45120 22520
" />
<path d="M45570 22380
L45880 22380
L45710 22570
L45790 22570
L45830 22590
L45860 22610
L45880 22660
L45880 22780
L45860 22830
L45830 22850
L45790 22880
L45640 22880
L45600 22850
L45570 22830
" />
<path d="M44500 22000
L46500 22000
" />
<path d="M46380 21880
L46620 22120
" />
<path d="M46620 21880
L46380 22120
" />
</g>
<g style="fill:#008484; fill-opacity:0.0; 
stroke:#008484; stroke-width:60; stroke-opacity:1; 
stroke-linecap:round; stroke-linejoin:round;">
<path d="M42460 21730
L42740 21730
" />
<path d="M42600 22230
L42600 21730
" />
<path d="M42910 21960
L43080 21960
" />
<path d="M43150 22230
L42910 22230
L42910 21730
L43150 21730
" />
<path d="M43340 22200
L43410 22230
L43530 22230
L43570 22200
L43600 22180
L43620 22130
L43620 22080
L43600 22040
L43570 22010
L43530 21990
L43430 21960
L43380 21940
L43360 21920
L43340 21870
L43340 21820
L43360 21770
L43380 21750
L43430 21730
L43550 21730
L43620 21750
" />
<path d="M43770 21730
L44050 21730
" />
<path d="M43910 22230
L43910 21730
" />
</g>
<g style="fill:#840000; fill-opacity:0.0; 
stroke:#840000; stroke-width:60; stroke-opacity:1; 
stroke-linecap:round; stroke-linejoin:round;">
<path d="M45400 21880
L45120 21880
" />
<path d="M45260 21880
L45260 21380
L45210 21450
L45160 21500
L45120 21520
" />
<path d="M45830 21540
L45830 21880
" />
<path d="M45710 21350
L45600 21710
L45900 21710
" />
<path d="M44500 21000
L46500 21000
" />
</g>
<g style="fill:#008484; fill-opacity:0.0; 
stroke:#008484; stroke-width:60; stroke-opacity:1; 
stroke-linecap:round; stroke-linejoin:round;">
<path d="M40560 20730
L40840 20730
" />
<path d="M40700 21230
L40700 20730
" />
<path d="M41010 20960
L41180 20960
" />
<path d="M41250 21230
L41010 21230
L41010 20730
L41250 20730
" />
<path d="M41440 21200
L41510 21230
L41630 21230
L41670 21200
L41700 21180
L41720 21130
L41720 21080
L41700 21040
L41670 21010
L41630 20990
L41530 20960
L41480 20940
L41460 20920
L41440 20870
L41440 20820
L41460 20770
L41480 20750
L41530 20730
L41650 20730
L41720 20750
" />
<path d="M41870 20730
L42150 20730
" />
<path d="M42010 21230
L42010 20730
" />
<path d="M42200 21270
L42580 21270
" />
<path d="M42960 20750
L42910 20730
L42840 20730
L42770 20750
L42720 20800
L42700 20850
L42680 20940
L42680 21010
L42700 21110
L42720 21150
L42770 21200
L42840 21230
L42890 21230
L42960 21200
L42980 21180
L42980 21010
L42890 21010
" />
<path d="M43200 21230
L43200 20730
L43480 21230
L43480 20730
" />
<path d="M43720 21230
L43720 20730
L43840 20730
L43910 20750
L43960 20800
L43980 20850
L44000 20940
L44000 21010
L43980 21110
L43960 21150
L43910 21200
L43840 21230
L43720 21230
" />
</g>
<g style="fill:#840000; fill-opacity:0.0; 
stroke:#840000; stroke-width:60; stroke-opacity:1; 
stroke-linecap:round; stroke-linejoin:round;">
<path d="M45400 20880
L45120 20880
" />
<path d="M45260 20880
L45260 20380
L45210 20450
L45160 20500
L45120 20520
" />
<path d="M45860 20380
L45620 20380
L45600 20610
L45620 20590
L45670 20570
L45790 20570
L45830 20590
L45860 20610
L45880 20660
L45880 20780
L45860 20830
L45830 20850
L45790 20880
L45670 20880
L45620 20850
L45600 20830
" />
<path d="M44500 20000
L46500 20000
" />
</g>
<g style="fill:#008484; fill-opacity:0.0; 
stroke:#008484; stroke-width:60; stroke-opacity:1; 
stroke-linecap:round; stroke-linejoin:round;">
<path d="M42290 19730
L42450 20230
L42620 19730
" />
<path d="M42790 20230
L42790 19730
L42910 19730
L42980 19750
L43030 19800
L43050 19850
L43070 19940
L43070 20010
L43050 20110
L43030 20150
L42980 20200
L42910 20230
L42790 20230
" />
<path d="M43290 20230
L43290 19730
L43410 19730
L43480 19750
L43530 19800
L43550 19850
L43570 19940
L43570 20010
L43550 20110
L43530 20150
L43480 20200
L43410 20230
L43290 20230
" />
<path d="M43770 20080
L44000 20080
" />
<path d="M43720 20230
L43880 19730
L44050 20230
" />
</g>
<g style="fill:#840000; fill-opacity:0.0; 
stroke:#840000; stroke-width:60; stroke-opacity:1; 
stroke-linecap:round; stroke-linejoin:round;">
<path d="M45400 19880
L45120 19880
" />
<path d="M45260 19880
L45260 19380
L45210 19450
L45160 19500
L45120 19520
" />
<path d="M45830 19380
L45740 19380
L45690 19400
L45670 19420
L45620 19500
L45600 19590
L45600 19780
L45620 19830
L45640 19850
L45690 19880
L45790 19880
L45830 19850
L45860 19830
L45880 19780
L45880 19660
L45860 19610
L45830 19590
L45790 19570
L45690 19570
L45640 19590
L45620 19610
L45600 19660
" />
<path d="M44500 19000
L46500 19000
" />
<path d="M46380 18880
L46620 19120
" />
<path d="M46620 18880
L46380 19120
" />
</g>
<g style="fill:#008484; fill-opacity:0.0; 
stroke:#008484; stroke-width:60; stroke-opacity:1; 
stroke-linecap:round; stroke-linejoin:round;">
<path d="M42460 18730
L42740 18730
" />
<path d="M42600 19230
L42600 18730
" />
<path d="M42910 18960
L43080 18960
" />
<path d="M43150 19230
L42910 19230
L42910 18730
L43150 18730
" />
<path d="M43340 19200
L43410 19230
L43530 19230
L43570 19200
L43600 19180
L43620 19130
L43620 19080
L43600 19040
L43570 19010
L43530 18990
L43430 18960
L43380 18940
L43360 18920
L43340 18870
L43340 18820
L43360 18770
L43380 18750
L43430 18730
L43550 18730
L43620 18750
" />
<path d="M43770 18730
L44050 18730
" />
<path d="M43910 19230
L43910 18730
" />
</g>
<g style="fill:#840000; fill-opacity:0.0; 
stroke:#840000; stroke-width:60; stroke-opacity:1; 
stroke-linecap:round; stroke-linejoin:round;">
<path d="M45400 18880
L45120 18880
" />
<path d="M45260 18880
L45260 18380
L45210 18450
L45160 18500
L45120 18520
" />
<path d="M45570 18380
L45900 18380
L45690 18880
" />
<path d="M44500 18000
L46500 18000
" />
<path d="M46380 17880
L46620 18120
" />
<path d="M46620 17880
L46380 18120
" />
</g>
<g style="fill:#008484; fill-opacity:0.0; 
stroke:#008484; stroke-width:60; stroke-opacity:1; 
stroke-linecap:round; stroke-linejoin:round;">
<path d="M42460 17730
L42740 17730
" />
<path d="M42600 18230
L42600 17730
" />
<path d="M42910 17960
L43080 17960
" />
<path d="M43150 18230
L42910 18230
L42910 17730
L43150 17730
" />
<path d="M43340 18200
L43410 18230
L43530 18230
L43570 18200
L43600 18180
L43620 18130
L43620 18080
L43600 18040
L43570 18010
L43530 17990
L43430 17960
L43380 17940
L43360 17920
L43340 17870
L43340 17820
L43360 17770
L43380 17750
L43430 17730
L43550 17730
L43620 17750
" />
<path d="M43770 17730
L44050 17730
" />
<path d="M43910 18230
L43910 17730
" />
</g>
<g style="fill:#840000; fill-opacity:0.0; 
stroke:#840000; stroke-width:60; stroke-opacity:1; 
stroke-linecap:round; stroke-linejoin:round;">
<path d="M45400 17880
L45120 17880
" />
<path d="M45260 17880
L45260 17380
L45210 17450
L45160 17500
L45120 17520
" />
<path d="M45690 17590
L45640 17570
L45620 17540
L45600 17500
L45600 17470
L45620 17420
L45640 17400
L45690 17380
L45790 17380
L45830 17400
L45860 17420
L45880 17470
L45880 17500
L45860 17540
L45830 17570
L45790 17590
L45690 17590
L45640 17610
L45620 17640
L45600 17690
L45600 17780
L45620 17830
L45640 17850
L45690 17880
L45790 17880
L45830 17850
L45860 17830
L45880 17780
L45880 17690
L45860 17640
L45830 17610
L45790 17590
" />
<path d="M44500 17000
L46500 17000
" />
<path d="M46380 16880
L46620 17120
" />
<path d="M46620 16880
L46380 17120
" />
</g>
<g style="fill:#008484; fill-opacity:0.0; 
stroke:#008484; stroke-width:60; stroke-opacity:1; 
stroke-linecap:round; stroke-linejoin:round;">
<path d="M42460 16730
L42740 16730
" />
<path d="M42600 17230
L42600 16730
" />
<path d="M42910 16960
L43080 16960
" />
<path d="M43150 17230
L42910 17230
L42910 16730
L43150 16730
" />
<path d="M43340 17200
L43410 17230
L43530 17230
L43570 17200
L43600 17180
L43620 17130
L43620 17080
L43600 17040
L43570 17010
L43530 16990
L43430 16960
L43380 16940
L43360 16920
L43340 16870
L43340 16820
L43360 16770
L43380 16750
L43430 16730
L43550 16730
L43620 16750
" />
<path d="M43770 16730
L44050 16730
" />
<path d="M43910 17230
L43910 16730
" />
</g>
<g style="fill:#840000; fill-opacity:0.0; 
stroke:#840000; stroke-width:60; stroke-opacity:1; 
stroke-linecap:round; stroke-linejoin:round;">
<path d="M45400 16880
L45120 16880
" />
<path d="M45260 16880
L45260 16380
L45210 16450
L45160 16500
L45120 16520
" />
<path d="M45640 16880
L45740 16880
L45790 16850
L45810 16830
L45860 16760
L45880 16660
L45880 16470
L45860 16420
L45830 16400
L45790 16380
L45690 16380
L45640 16400
L45620 16420
L45600 16470
L45600 16590
L45620 16640
L45640 16660
L45690 16690
L45790 16690
L45830 16660
L45860 16640
L45880 16590
" />
</g>
<g style="fill:#008484; fill-opacity:0.0; 
stroke:#008484; stroke-width:60; stroke-opacity:1; 
stroke-linecap:round; stroke-linejoin:round;">
<path d="M41040 14210
L41040 14700
L41070 14750
L41100 14780
L41160 14810
L41270 14810
L41330 14780
L41360 14750
L41390 14700
L41390 14210
" />
<path d="M41640 14270
L41670 14240
L41730 14210
L41870 14210
L41930 14240
L41960 14270
L41990 14330
L41990 14380
L41960 14470
L41620 14810
L41990 14810
" />
<path d="M39930 26640
L40220 26640
" />
<path d="M39880 26810
L40080 26210
L40280 26810
" />
<path d="M40440 26780
L40530 26810
L40670 26810
L40730 26780
L40760 26750
L40790 26700
L40790 26640
L40760 26580
L40730 26550
L40670 26530
L40560 26500
L40500 26470
L40470 26440
L40440 26380
L40440 26330
L40470 26270
L40500 26240
L40560 26210
L40700 26210
L40790 26240
" />
<path d="M41330 26210
L41040 26210
L41010 26500
L41040 26470
L41100 26440
L41240 26440
L41300 26470
L41330 26500
L41360 26550
L41360 26700
L41330 26750
L41300 26780
L41240 26810
L41100 26810
L41040 26780
L41010 26750
" />
<path d="M41560 26210
L41930 26210
L41730 26440
L41810 26440
L41870 26470
L41900 26500
L41930 26550
L41930 26700
L41900 26750
L41870 26780
L41810 26810
L41640 26810
L41580 26780
L41560 26750
" />
<path d="M42300 26210
L42350 26210
L42410 26240
L42440 26270
L42470 26330
L42500 26440
L42500 26580
L42470 26700
L42440 26750
L42410 26780
L42350 26810
L42300 26810
L42240 26780
L42210 26750
L42180 26700
L42150 26580
L42150 26440
L42180 26330
L42210 26270
L42240 26240
L42300 26210
" />
<path d="M43010 26410
L43010 26810
" />
<path d="M42870 26180
L42720 26610
L43100 26610
" />
</g>
<g style="fill:#008484; fill-opacity:0.0; 
stroke:#008484; stroke-width:0; stroke-opacity:1; 
stroke-linecap:round; stroke-linejoin:round;">
</g>
<g style="fill:#840000; fill-opacity:0.0; 
stroke:#840000; stroke-width:0; stroke-opacity:1; 
stroke-linecap:round; stroke-linejoin:round;">
</g>
<g style="fill:#840000; fill-opacity:0.0; 
stroke:#840000; stroke-width:60; stroke-opacity:1; 
stroke-linecap:round; stroke-linejoin:round;">
<rect x="38500" y="29000" width="6500" height="5000" rx="0" />
<path d="M38500 30000
L36500 30000
" />
</g>
<g style="fill:#008484; fill-opacity:0.0; 
stroke:#008484; stroke-width:60; stroke-opacity:1; 
stroke-linecap:round; stroke-linejoin:round;">
<path d="M38950 29730
L39110 30230
L39280 29730
" />
<path d="M39730 30180
L39710 30200
L39640 30230
L39590 30230
L39520 30200
L39470 30150
L39450 30110
L39430 30010
L39430 29940
L39450 29850
L39470 29800
L39520 29750
L39590 29730
L39640 29730
L39710 29750
L39730 29770
" />
<path d="M40230 30180
L40210 30200
L40140 30230
L40090 30230
L40020 30200
L39970 30150
L39950 30110
L39930 30010
L39930 29940
L39950 29850
L39970 29800
L40020 29750
L40090 29730
L40140 29730
L40210 29750
L40230 29770
" />
</g>
<g style="fill:#840000; fill-opacity:0.0; 
stroke:#840000; stroke-width:60; stroke-opacity:1; 
stroke-linecap:round; stroke-linejoin:round;">
<path d="M37640 29880
L37360 29880
" />
<path d="M37500 29880
L37500 29380
L37450 29450
L37400 29500
L37360 29520
" />
<path d="M38500 31000
L36500 31000
" />
</g>
<g style="fill:#008484; fill-opacity:0.0; 
stroke:#008484; stroke-width:60; stroke-opacity:1; 
stroke-linecap:round; stroke-linejoin:round;">
<path d="M39020 31230
L39020 30730
" />
<path d="M39260 31230
L39260 30730
L39540 31230
L39540 30730
" />
<path d="M39660 31270
L40040 31270
" />
<path d="M40140 31080
L40370 31080
" />
<path d="M40090 31230
L40250 30730
L40420 31230
" />
</g>
<g style="fill:#840000; fill-opacity:0.0; 
stroke:#840000; stroke-width:60; stroke-opacity:1; 
stroke-linecap:round; stroke-linejoin:round;">
<path d="M37360 30420
L37380 30400
L37430 30380
L37550 30380
L37590 30400
L37620 30420
L37640 30470
L37640 30520
L37620 30590
L37330 30880
L37640 30880
" />
<path d="M38500 32000
L36500 32000
" />
</g>
<g style="fill:#008484; fill-opacity:0.0; 
stroke:#008484; stroke-width:60; stroke-opacity:1; 
stroke-linecap:round; stroke-linejoin:round;">
<path d="M39020 32230
L39020 31730
" />
<path d="M39260 32230
L39260 31730
L39540 32230
L39540 31730
" />
<path d="M39660 32270
L40040 32270
" />
<path d="M40330 31960
L40400 31990
L40420 32010
L40440 32060
L40440 32130
L40420 32180
L40400 32200
L40350 32230
L40160 32230
L40160 31730
L40330 31730
L40370 31750
L40400 31770
L40420 31820
L40420 31870
L40400 31920
L40370 31940
L40330 31960
L40160 31960
" />
</g>
<g style="fill:#840000; fill-opacity:0.0; 
stroke:#840000; stroke-width:60; stroke-opacity:1; 
stroke-linecap:round; stroke-linejoin:round;">
<path d="M37330 31380
L37640 31380
L37470 31570
L37550 31570
L37590 31590
L37620 31610
L37640 31660
L37640 31780
L37620 31830
L37590 31850
L37550 31880
L37400 31880
L37360 31850
L37330 31830
" />
<path d="M38500 33000
L36500 33000
" />
</g>
<g style="fill:#008484; fill-opacity:0.0; 
stroke:#008484; stroke-width:60; stroke-opacity:1; 
stroke-linecap:round; stroke-linejoin:round;">
<path d="M39280 32750
L39230 32730
L39160 32730
L39090 32750
L39040 32800
L39020 32850
L39000 32940
L39000 33010
L39020 33110
L39040 33150
L39090 33200
L39160 33230
L39210 33230
L39280 33200
L39300 33180
L39300 33010
L39210 33010
" />
<path d="M39520 33230
L39520 32730
L39800 33230
L39800 32730
" />
<path d="M40040 33230
L40040 32730
L40160 32730
L40230 32750
L40280 32800
L40300 32850
L40320 32940
L40320 33010
L40300 33110
L40280 33150
L40230 33200
L40160 33230
L40040 33230
" />
</g>
<g style="fill:#840000; fill-opacity:0.0; 
stroke:#840000; stroke-width:60; stroke-opacity:1; 
stroke-linecap:round; stroke-linejoin:round;">
<path d="M37590 32540
L37590 32880
" />
<path d="M37470 32350
L37360 32710
L37660 32710
" />
<path d="M45000 33000
L47000 33000
" />
</g>
<g style="fill:#008484; fill-opacity:0.0; 
stroke:#008484; stroke-width:60; stroke-opacity:1; 
stroke-linecap:round; stroke-linejoin:round;">
<path d="M42130 32730
L42230 32730
L42280 32750
L42320 32800
L42350 32890
L42350 33060
L42320 33150
L42280 33200
L42230 33230
L42130 33230
L42090 33200
L42040 33150
L42020 33060
L42020 32890
L42040 32800
L42090 32750
L42130 32730
" />
<path d="M42560 32730
L42560 33130
L42580 33180
L42610 33200
L42650 33230
L42750 33230
L42800 33200
L42820 33180
L42840 33130
L42840 32730
" />
<path d="M43010 32730
L43290 32730
" />
<path d="M43150 33230
L43150 32730
" />
<path d="M43340 33270
L43720 33270
" />
<path d="M44010 32960
L44080 32990
L44100 33010
L44120 33060
L44120 33130
L44100 33180
L44080 33200
L44030 33230
L43840 33230
L43840 32730
L44010 32730
L44050 32750
L44080 32770
L44100 32820
L44100 32870
L44080 32920
L44050 32940
L44010 32960
L43840 32960
" />
<path d="M44410 32730
L44410 32850
" />
<path d="M44290 32800
L44410 32850
L44530 32800
" />
<path d="M44340 32940
L44410 32850
L44480 32940
" />
</g>
<g style="fill:#840000; fill-opacity:0.0; 
stroke:#840000; stroke-width:60; stroke-opacity:1; 
stroke-linecap:round; stroke-linejoin:round;">
<path d="M46120 32380
L45880 32380
L45860 32610
L45880 32590
L45930 32570
L46050 32570
L46090 32590
L46120 32610
L46140 32660
L46140 32780
L46120 32830
L46090 32850
L46050 32880
L45930 32880
L45880 32850
L45860 32830
" />
<path d="M45000 32000
L47000 32000
" />
</g>
<g style="fill:#008484; fill-opacity:0.0; 
stroke:#008484; stroke-width:60; stroke-opacity:1; 
stroke-linecap:round; stroke-linejoin:round;">
<path d="M42510 31730
L42610 31730
L42660 31750
L42700 31800
L42730 31890
L42730 32060
L42700 32150
L42660 32200
L42610 32230
L42510 32230
L42470 32200
L42420 32150
L42400 32060
L42400 31890
L42420 31800
L42470 31750
L42510 31730
" />
<path d="M42940 31730
L42940 32130
L42960 32180
L42990 32200
L43030 32230
L43130 32230
L43180 32200
L43200 32180
L43220 32130
L43220 31730
" />
<path d="M43390 31730
L43670 31730
" />
<path d="M43530 32230
L43530 31730
" />
<path d="M43720 32270
L44100 32270
" />
<path d="M44390 31960
L44460 31990
L44480 32010
L44500 32060
L44500 32130
L44480 32180
L44460 32200
L44410 32230
L44220 32230
L44220 31730
L44390 31730
L44430 31750
L44460 31770
L44480 31820
L44480 31870
L44460 31920
L44430 31940
L44390 31960
L44220 31960
" />
</g>
<g style="fill:#840000; fill-opacity:0.0; 
stroke:#840000; stroke-width:60; stroke-opacity:1; 
stroke-linecap:round; stroke-linejoin:round;">
<path d="M46090 31380
L46000 31380
L45950 31400
L45930 31420
L45880 31500
L45860 31590
L45860 31780
L45880 31830
L45900 31850
L45950 31880
L46050 31880
L46090 31850
L46120 31830
L46140 31780
L46140 31660
L46120 31610
L46090 31590
L46050 31570
L45950 31570
L45900 31590
L45880 31610
L45860 31660
" />
<path d="M45000 31000
L47000 31000
" />
</g>
<g style="fill:#008484; fill-opacity:0.0; 
stroke:#008484; stroke-width:60; stroke-opacity:1; 
stroke-linecap:round; stroke-linejoin:round;">
<path d="M42200 30730
L42300 30730
L42350 30750
L42390 30800
L42420 30890
L42420 31060
L42390 31150
L42350 31200
L42300 31230
L42200 31230
L42160 31200
L42110 31150
L42090 31060
L42090 30890
L42110 30800
L42160 30750
L42200 30730
" />
<path d="M42630 30730
L42630 31130
L42650 31180
L42680 31200
L42720 31230
L42820 31230
L42870 31200
L42890 31180
L42910 31130
L42910 30730
" />
<path d="M43080 30730
L43360 30730
" />
<path d="M43220 31230
L43220 30730
" />
<path d="M43410 31270
L43790 31270
" />
<path d="M43890 31080
L44120 31080
" />
<path d="M43840 31230
L44000 30730
L44170 31230
" />
<path d="M44410 30730
L44410 30850
" />
<path d="M44290 30800
L44410 30850
L44530 30800
" />
<path d="M44340 30940
L44410 30850
L44480 30940
" />
</g>
<g style="fill:#840000; fill-opacity:0.0; 
stroke:#840000; stroke-width:60; stroke-opacity:1; 
stroke-linecap:round; stroke-linejoin:round;">
<path d="M45830 30380
L46160 30380
L45950 30880
" />
<path d="M45000 30000
L47000 30000
" />
</g>
<g style="fill:#008484; fill-opacity:0.0; 
stroke:#008484; stroke-width:60; stroke-opacity:1; 
stroke-linecap:round; stroke-linejoin:round;">
<path d="M42580 29730
L42680 29730
L42730 29750
L42770 29800
L42800 29890
L42800 30060
L42770 30150
L42730 30200
L42680 30230
L42580 30230
L42540 30200
L42490 30150
L42470 30060
L42470 29890
L42490 29800
L42540 29750
L42580 29730
" />
<path d="M43010 29730
L43010 30130
L43030 30180
L43060 30200
L43100 30230
L43200 30230
L43250 30200
L43270 30180
L43290 30130
L43290 29730
" />
<path d="M43460 29730
L43740 29730
" />
<path d="M43600 30230
L43600 29730
" />
<path d="M43790 30270
L44170 30270
" />
<path d="M44270 30080
L44500 30080
" />
<path d="M44220 30230
L44380 29730
L44550 30230
" />
</g>
<g style="fill:#840000; fill-opacity:0.0; 
stroke:#840000; stroke-width:60; stroke-opacity:1; 
stroke-linecap:round; stroke-linejoin:round;">
<path d="M45950 29590
L45900 29570
L45880 29540
L45860 29500
L45860 29470
L45880 29420
L45900 29400
L45950 29380
L46050 29380
L46090 29400
L46120 29420
L46140 29470
L46140 29500
L46120 29540
L46090 29570
L46050 29590
L45950 29590
L45900 29610
L45880 29640
L45860 29690
L45860 29780
L45880 29830
L45900 29850
L45950 29880
L46050 29880
L46090 29850
L46120 29830
L46140 29780
L46140 29690
L46120 29640
L46090 29610
L46050 29590
" />
</g>
<g style="fill:#008484; fill-opacity:0.0; 
stroke:#008484; stroke-width:60; stroke-opacity:1; 
stroke-linecap:round; stroke-linejoin:round;">
<path d="M41040 28210
L41040 28700
L41070 28750
L41100 28780
L41160 28810
L41270 28810
L41330 28780
L41360 28750
L41390 28700
L41390 28210
" />
<path d="M41990 28810
L41640 28810
" />
<path d="M41820 28810
L41820 28210
L41760 28300
L41700 28350
L41640 28380
" />
<path d="M39920 34810
L39920 34210
L40070 34210
L40150 34240
L40210 34300
L40240 34350
L40270 34470
L40270 34550
L40240 34670
L40210 34730
L40150 34780
L40070 34810
L39920 34810
" />
<path d="M40490 34780
L40580 34810
L40720 34810
L40780 34780
L40810 34750
L40840 34700
L40840 34640
L40810 34580
L40780 34550
L40720 34530
L40610 34500
L40550 34470
L40520 34440
L40490 34380
L40490 34330
L40520 34270
L40550 34240
L40610 34210
L40750 34210
L40840 34240
" />
<path d="M41120 34810
L41240 34810
L41290 34780
L41320 34750
L41380 34670
L41410 34550
L41410 34330
L41380 34270
L41350 34240
L41290 34210
L41180 34210
L41120 34240
L41090 34270
L41060 34330
L41060 34470
L41090 34530
L41120 34550
L41180 34580
L41290 34580
L41350 34550
L41380 34530
L41410 34470
" />
<path d="M41920 34210
L41810 34210
L41750 34240
L41720 34270
L41660 34350
L41630 34470
L41630 34700
L41660 34750
L41690 34780
L41750 34810
L41860 34810
L41920 34780
L41950 34750
L41980 34700
L41980 34550
L41950 34500
L41920 34470
L41860 34440
L41750 34440
L41690 34470
L41660 34500
L41630 34550
" />
<path d="M42180 34210
L42550 34210
L42350 34440
L42430 34440
L42490 34470
L42520 34500
L42550 34550
L42550 34700
L42520 34750
L42490 34780
L42430 34810
L42260 34810
L42200 34780
L42180 34750
" />
<path d="M42890 34470
L42830 34440
L42800 34410
L42770 34350
L42770 34330
L42800 34270
L42830 34240
L42890 34210
L43000 34210
L43060 34240
L43090 34270
L43120 34330
L43120 34350
L43090 34410
L43060 34440
L43000 34470
L42890 34470
L42830 34500
L42800 34530
L42770 34580
L42770 34700
L42800 34750
L42830 34780
L42890 34810
L43000 34810
L43060 34780
L43090 34750
L43120 34700
L43120 34580
L43090 34530
L43060 34500
L43000 34470
" />
</g>
<g style="fill:#008400; fill-opacity:0.0; 
stroke:#008400; stroke-width:60; stroke-opacity:1; 
stroke-linecap:round; stroke-linejoin:round;">
<path d="M46500 16000
L50500 16000
" />
<path d="M50500 16000
L50500 37000
" />
<path d="M50500 37000
L33500 37000
" />
<path d="M33500 37000
L33500 16000
" />
<path d="M33500 33000
L36500 33000
" />
<path d="M46500 21000
L50500 21000
" />
</g>
<g style="fill:#008400; fill-opacity:0.0; 
stroke:#008400; stroke-width:0; stroke-opacity:1; 
stroke-linecap:round; stroke-linejoin:round;">
</g>
<g style="fill:#008400; fill-opacity:1.0; 
stroke:#008400; stroke-width:100; stroke-opacity:1; 
stroke-linecap:round; stroke-linejoin:round;">
<circle cx="50500" cy="21000" r="200" /> 
</g>
<g style="fill:#008400; fill-opacity:1.0; 
stroke:#008400; stroke-width:60; stroke-opacity:1; 
stroke-linecap:round; stroke-linejoin:round;">
</g>
<g style="fill:#008400; fill-opacity:0.0; 
stroke:#008400; stroke-width:60; stroke-opacity:1; 
stroke-linecap:round; stroke-linejoin:round;">
<path d="M33500 16000
L36500 16000
" />
</g>
<g style="fill:#008400; fill-opacity:0.0; 
stroke:#008400; stroke-width:0; stroke-opacity:1; 
stroke-linecap:round; stroke-linejoin:round;">
</g>
<g style="fill:#008400; fill-opacity:1.0; 
stroke:#008400; stroke-width:100; stroke-opacity:1; 
stroke-linecap:round; stroke-linejoin:round;">
<circle cx="33500" cy="33000" r="200" /> 
</g>
<g style="fill:#008400; fill-opacity:1.0; 
stroke:#008400; stroke-width:60; stroke-opacity:1; 
stroke-linecap:round; stroke-linejoin:round;">
</g>
<g style="fill:#008400; fill-opacity:0.0; 
stroke:#008400; stroke-width:60; stroke-opacity:1; 
stroke-linecap:round; stroke-linejoin:round;">
<path d="M36500 30000
L32500 30000
" />
<path d="M32500 18000
L32500 41500
" />
<path d="M32500 18000
L36500 18000
" />
<path d="M36500 22000
L32500 22000
" />
</g>
<g style="fill:#008400; fill-opacity:0.0; 
stroke:#008400; stroke-width:0; stroke-opacity:1; 
stroke-linecap:round; stroke-linejoin:round;">
</g>
<g style="fill:#008400; fill-opacity:1.0; 
stroke:#008400; stroke-width:100; stroke-opacity:1; 
stroke-linecap:round; stroke-linejoin:round;">
<circle cx="32500" cy="22000" r="200" /> 
</g>
<g style="fill:#008400; fill-opacity:1.0; 
stroke:#008400; stroke-width:60; stroke-opacity:1; 
stroke-linecap:round; stroke-linejoin:round;">
</g>
<g style="fill:#008400; fill-opacity:0.0; 
stroke:#008400; stroke-width:60; stroke-opacity:1; 
stroke-linecap:round; stroke-linejoin:round;">
<path d="M51500 16000
L51500 41500
" />
<path d="M51500 20000
L46500 20000
" />
</g>
<g style="fill:#008400; fill-opacity:0.0; 
stroke:#008400; stroke-width:0; stroke-opacity:1; 
stroke-linecap:round; stroke-linejoin:round;">
</g>
<g style="fill:#008400; fill-opacity:1.0; 
stroke:#008400; stroke-width:100; stroke-opacity:1; 
stroke-linecap:round; stroke-linejoin:round;">
<circle cx="32500" cy="30000" r="200" /> 
</g>
<g style="fill:#008400; fill-opacity:1.0; 
stroke:#008400; stroke-width:60; stroke-opacity:1; 
stroke-linecap:round; stroke-linejoin:round;">
</g>
<g style="fill:#008400; fill-opacity:0.0; 
stroke:#008400; stroke-width:60; stroke-opacity:1; 
stroke-linecap:round; stroke-linejoin:round;">
<path d="M36500 19000
L31500 19000
" />
<path d="M31500 19000
L31500 31000
" />
<path d="M31500 31000
L36500 31000
" />
<path d="M36500 17000
L30500 17000
" />
<path d="M30500 17000
L30500 32000
" />
<path d="M30500 32000
L36500 32000
" />
</g>
<g style="fill:#008400; fill-opacity:0.0; 
stroke:#008400; stroke-width:0; stroke-opacity:1; 
stroke-linecap:round; stroke-linejoin:round;">
</g>
<g style="fill:#840000; fill-opacity:0.0; 
stroke:#840000; stroke-width:0; stroke-opacity:1; 
stroke-linecap:round; stroke-linejoin:round;">
</g>
<g style="fill:#840000; fill-opacity:0.0; 
stroke:#840000; stroke-width:200; stroke-opacity:1; 
stroke-linecap:round; stroke-linejoin:round;">
<polyline fill="none;"
points="40700,39300
42300,39300
" /> 
<polyline fill="none;"
points="40700,38700
42300,38700
" /> 
</g>
<g style="fill:#840000; fill-opacity:0.0; 
stroke:#840000; stroke-width:60; stroke-opacity:1; 
stroke-linecap:round; stroke-linejoin:round;">
<path d="M41500 38600
L41500 37500
" />
<path d="M41500 39400
L41500 40500
" />
</g>
<g style="fill:#008484; fill-opacity:0.0; 
stroke:#008484; stroke-width:60; stroke-opacity:1; 
stroke-linecap:round; stroke-linejoin:round;">
<path d="M42150 38210
L42130 38230
L42060 38260
L42010 38260
L41940 38230
L41890 38180
L41870 38140
L41850 38040
L41850 37970
L41870 37880
L41890 37830
L41940 37780
L42010 37760
L42060 37760
L42130 37780
L42150 37800
" />
<path d="M42630 38260
L42350 38260
" />
<path d="M42490 38260
L42490 37760
L42440 37830
L42390 37880
L42350 37900
" />
<path d="M42130 40260
L41850 40260
" />
<path d="M41990 40260
L41990 39760
L41940 39830
L41890 39880
L41850 39900
" />
<path d="M42440 39760
L42490 39760
L42540 39780
L42560 39800
L42590 39850
L42610 39950
L42610 40070
L42590 40160
L42560 40210
L42540 40230
L42490 40260
L42440 40260
L42400 40230
L42370 40210
L42350 40160
L42330 40070
L42330 39950
L42350 39850
L42370 39800
L42400 39780
L42440 39760
" />
<path d="M42920 39760
L42970 39760
L43020 39780
L43040 39800
L43070 39850
L43090 39950
L43090 40070
L43070 40160
L43040 40210
L43020 40230
L42970 40260
L42920 40260
L42880 40230
L42850 40210
L42830 40160
L42810 40070
L42810 39950
L42830 39850
L42850 39800
L42880 39780
L42920 39760
" />
<path d="M43310 39920
L43310 40260
" />
<path d="M43310 39970
L43330 39950
L43380 39920
L43450 39920
L43500 39950
L43520 39990
L43520 40260
" />
<path d="M43930 39990
L43760 39990
" />
<path d="M43760 40260
L43760 39760
L44000 39760
" />
</g>
<g style="fill:#008400; fill-opacity:0.0; 
stroke:#008400; stroke-width:60; stroke-opacity:1; 
stroke-linecap:round; stroke-linejoin:round;">
<path d="M51500 41500
L32500 41500
" />
<path d="M41500 41500
L41500 40500
" />
</g>
<g style="fill:#008400; fill-opacity:0.0; 
stroke:#008400; stroke-width:0; stroke-opacity:1; 
stroke-linecap:round; stroke-linejoin:round;">
</g>
<g style="fill:#008400; fill-opacity:1.0; 
stroke:#008400; stroke-width:100; stroke-opacity:1; 
stroke-linecap:round; stroke-linejoin:round;">
<circle cx="41500" cy="41500" r="200" /> 
</g>
<g style="fill:#008400; fill-opacity:1.0; 
stroke:#008400; stroke-width:60; stroke-opacity:1; 
stroke-linecap:round; stroke-linejoin:round;">
</g>
<g style="fill:#008400; fill-opacity:0.0; 
stroke:#008400; stroke-width:60; stroke-opacity:1; 
stroke-linecap:round; stroke-linejoin:round;">
<path d="M41500 37000
L41500 37500
" />
</g>
<g style="fill:#008400; fill-opacity:0.0; 
stroke:#008400; stroke-width:0; stroke-opacity:1; 
stroke-linecap:round; stroke-linejoin:round;">
</g>
<g style="fill:#008400; fill-opacity:1.0; 
stroke:#008400; stroke-width:100; stroke-opacity:1; 
stroke-linecap:round; stroke-linejoin:round;">
<circle cx="41500" cy="37000" r="200" /> 
</g>
<g style="fill:#008400; fill-opacity:1.0; 
stroke:#008400; stroke-width:0; stroke-opacity:1; 
stroke-linecap:round; stroke-linejoin:round;">
</g>
<g style="fill:#840000; fill-opacity:1.0; 
stroke:#840000; stroke-width:0; stroke-opacity:1; 
stroke-linecap:round; stroke-linejoin:round;">
</g>
<g style="fill:#840000; fill-opacity:0.0; 
stroke:#840000; stroke-width:60; stroke-opacity:1; 
stroke-linecap:round; stroke-linejoin:round;">
<rect x="54450" y="22500" width="100" height="500" rx="0" />
<rect x="55450" y="22500" width="100" height="500" rx="0" />
<rect x="56450" y="22500" width="100" height="500" rx="0" />
<rect x="54000" y="22500" width="3000" height="2000" rx="0" />
<rect x="54450" y="24000" width="100" height="500" rx="0" />
<rect x="55450" y="24000" width="100" height="500" rx="0" />
<rect x="56450" y="24000" width="100" height="500" rx="0" />
<path d="M56500 22500
L56500 21000
" />
<path d="M56380 21610
L56380 21890
" />
<path d="M56380 21750
L55880 21750
L55950 21800
L56000 21850
L56020 21890
" />
<path d="M56500 24500
L56500 26000
" />
<path d="M55920 25390
L55900 25370
L55880 25320
L55880 25200
L55900 25160
L55920 25130
L55970 25110
L56020 25110
L56090 25130
L56380 25420
L56380 25110
" />
<path d="M55500 22500
L55500 21000
" />
<path d="M54880 21920
L54880 21610
L55070 21780
L55070 21700
L55090 21660
L55110 21630
L55160 21610
L55280 21610
L55330 21630
L55350 21660
L55380 21700
L55380 21850
L55350 21890
L55330 21920
" />
<path d="M55500 24500
L55500 26000
" />
<path d="M55040 25160
L55380 25160
" />
<path d="M54850 25280
L55210 25390
L55210 25090
" />
<path d="M54500 22500
L54500 21000
" />
<path d="M53880 21630
L53880 21870
L54110 21890
L54090 21870
L54070 21820
L54070 21700
L54090 21660
L54110 21630
L54160 21610
L54280 21610
L54330 21630
L54350 21660
L54380 21700
L54380 21820
L54350 21870
L54330 21890
" />
<path d="M54500 24500
L54500 26000
" />
<path d="M53880 25160
L53880 25250
L53900 25300
L53920 25320
L54000 25370
L54090 25390
L54280 25390
L54330 25370
L54350 25350
L54380 25300
L54380 25200
L54350 25160
L54330 25130
L54280 25110
L54160 25110
L54110 25130
L54090 25160
L54070 25200
L54070 25300
L54090 25350
L54110 25370
L54160 25390
" />
</g>
<g style="fill:#008484; fill-opacity:0.0; 
stroke:#008484; stroke-width:60; stroke-opacity:1; 
stroke-linecap:round; stroke-linejoin:round;">
<path d="M57190 23670
L57540 23670
L57610 23690
L57660 23740
L57690 23810
L57690 23860
" />
<path d="M57690 23170
L57690 23450
" />
<path d="M57690 23310
L57190 23310
L57260 23360
L57310 23410
L57330 23450
" />
<path d="M53640 25520
L53660 25540
L53690 25610
L53690 25660
L53660 25730
L53610 25780
L53570 25800
L53470 25820
L53400 25820
L53310 25800
L53260 25780
L53210 25730
L53190 25660
L53190 25610
L53210 25540
L53230 25520
" />
<path d="M53190 25210
L53190 25110
L53210 25060
L53260 25020
L53350 24990
L53520 24990
L53610 25020
L53660 25060
L53690 25110
L53690 25210
L53660 25250
L53610 25300
L53520 25320
L53350 25320
L53260 25300
L53210 25250
L53190 25210
" />
<path d="M53690 24780
L53190 24780
L53690 24500
L53190 24500
" />
<path d="M53690 24260
L53190 24260
L53690 23980
L53190 23980
" />
<path d="M53730 23860
L53730 23480
" />
<path d="M53190 23270
L53190 23220
L53210 23170
L53230 23150
L53280 23120
L53380 23100
L53500 23100
L53590 23120
L53640 23150
L53660 23170
L53690 23220
L53690 23270
L53660 23310
L53640 23340
L53590 23360
L53500 23380
L53380 23380
L53280 23360
L53230 23340
L53210 23310
L53190 23270
" />
<path d="M53230 22900
L53210 22880
L53190 22830
L53190 22710
L53210 22670
L53230 22640
L53280 22620
L53330 22620
L53400 22640
L53690 22930
L53690 22620
" />
<path d="M53190 22450
L53690 22120
" />
<path d="M53190 22120
L53690 22450
" />
<path d="M53190 21830
L53190 21780
L53210 21730
L53230 21710
L53280 21680
L53380 21660
L53500 21660
L53590 21680
L53640 21710
L53660 21730
L53690 21780
L53690 21830
L53660 21870
L53640 21900
L53590 21920
L53500 21940
L53380 21940
L53280 21920
L53230 21900
L53210 21870
L53190 21830
" />
<path d="M53190 21490
L53190 21180
L53380 21350
L53380 21270
L53400 21230
L53420 21200
L53470 21180
L53590 21180
L53640 21200
L53660 21230
L53690 21270
L53690 21420
L53660 21460
L53640 21490
" />
</g>
<g style="fill:#008400; fill-opacity:0.0; 
stroke:#008400; stroke-width:60; stroke-opacity:1; 
stroke-linecap:round; stroke-linejoin:round;">
<path d="M47000 30000
L56500 30000
" />
<path d="M56500 30000
L56500 26000
" />
<path d="M55500 26000
L55500 31000
" />
<path d="M55500 31000
L47000 31000
" />
<path d="M54500 26000
L54500 32000
" />
<path d="M54500 32000
L47000 32000
" />
<path d="M47000 33000
L52500 33000
" />
<path d="M52500 33000
L52500 20000
" />
<path d="M52500 20000
L54500 20000
" />
<path d="M54500 20000
L54500 21000
" />
<path d="M56500 21000
L56500 16000
" />
<path d="M56500 16000
L51500 16000
" />
</g>
<g style="fill:#008400; fill-opacity:0.0; 
stroke:#008400; stroke-width:0; stroke-opacity:1; 
stroke-linecap:round; stroke-linejoin:round;">
</g>
<g style="fill:#008400; fill-opacity:1.0; 
stroke:#008400; stroke-width:100; stroke-opacity:1; 
stroke-linecap:round; stroke-linejoin:round;">
<circle cx="51500" cy="20000" r="200" /> 
</g>
<g style="fill:#008400; fill-opacity:1.0; 
stroke:#008400; stroke-width:60; stroke-opacity:1; 
stroke-linecap:round; stroke-linejoin:round;">
</g>
<g style="fill:#008400; fill-opacity:0.0; 
stroke:#008400; stroke-width:60; stroke-opacity:1; 
stroke-linecap:round; stroke-linejoin:round;">
<path d="M55500 21000
L55500 19000
" />
<path d="M55500 19000
L50500 19000
" />
</g>
<g style="fill:#008400; fill-opacity:0.0; 
stroke:#008400; stroke-width:0; stroke-opacity:1; 
stroke-linecap:round; stroke-linejoin:round;">
</g>
<g style="fill:#008400; fill-opacity:1.0; 
stroke:#008400; stroke-width:100; stroke-opacity:1; 
stroke-linecap:round; stroke-linejoin:round;">
<circle cx="50500" cy="19000" r="200" /> 
</g>
<g style="fill:#008400; fill-opacity:1.0; 
stroke:#008400; stroke-width:60; stroke-opacity:1; 
stroke-linecap:round; stroke-linejoin:round;">
</g>
<g style="fill:#000000; fill-opacity:0.0; 
stroke:#000000; stroke-width:60; stroke-opacity:1; 
stroke-linecap:round; stroke-linejoin:round;">
<path d="M56560 18270
L56760 18870
L56960 18270
" />
<path d="M57500 18810
L57470 18840
L57380 18870
L57320 18870
L57240 18840
L57180 18790
L57150 18730
L57120 18610
L57120 18530
L57150 18410
L57180 18360
L57240 18300
L57320 18270
L57380 18270
L57470 18300
L57500 18330
" />
<path d="M58100 18810
L58070 18840
L57980 18870
L57920 18870
L57840 18840
L57780 18790
L57750 18730
L57720 18610
L57720 18530
L57750 18410
L57780 18360
L57840 18300
L57920 18270
L57980 18270
L58070 18300
L58100 18330
" />
<path d="M52960 18300
L52900 18270
L52810 18270
L52730 18300
L52670 18360
L52640 18410
L52610 18530
L52610 18610
L52640 18730
L52670 18790
L52730 18840
L52810 18870
L52870 18870
L52960 18840
L52990 18810
L52990 18610
L52870 18610
" />
<path d="M53240 18870
L53240 18270
L53590 18870
L53590 18270
" />
<path d="M53870 18870
L53870 18270
L54020 18270
L54100 18300
L54160 18360
L54190 18410
L54220 18530
L54220 18610
L54190 18730
L54160 18790
L54100 18840
L54020 18870
L53870 18870
" />
<path d="M53340 19560
L53430 19590
L53460 19610
L53490 19670
L53490 19760
L53460 19810
L53430 19840
L53370 19870
L53140 19870
L53140 19270
L53340 19270
L53400 19300
L53430 19330
L53460 19390
L53460 19440
L53430 19500
L53400 19530
L53340 19560
L53140 19560
" />
<path d="M53830 19270
L53830 19410
" />
<path d="M53690 19360
L53830 19410
L53970 19360
" />
<path d="M53740 19530
L53830 19410
L53910 19530
" />
<path d="M53110 29700
L53400 29700
" />
<path d="M53060 29870
L53260 29270
L53460 29870
" />
<path d="M53110 30700
L53400 30700
" />
<path d="M53060 30870
L53260 30270
L53460 30870
" />
<path d="M53740 30270
L53740 30410
" />
<path d="M53600 30360
L53740 30410
L53880 30360
" />
<path d="M53650 30530
L53740 30410
L53820 30530
" />
<path d="M53340 31560
L53430 31590
L53460 31610
L53490 31670
L53490 31760
L53460 31810
L53430 31840
L53370 31870
L53140 31870
L53140 31270
L53340 31270
L53400 31300
L53430 31330
L53460 31390
L53460 31440
L53430 31500
L53400 31530
L53340 31560
L53140 31560
" />
</g>
<g style="fill:#000000; fill-opacity:0.0; 
stroke:#000000; stroke-width:0; stroke-opacity:1; 
stroke-linecap:round; stroke-linejoin:round;">
</g>
<g style="fill:#840000; fill-opacity:0.0; 
stroke:#840000; stroke-width:0; stroke-opacity:1; 
stroke-linecap:round; stroke-linejoin:round;">
</g>
<g style="fill:#840000; fill-opacity:0.0; 
stroke:#840000; stroke-width:60; stroke-opacity:1; 
stroke-linecap:round; stroke-linejoin:round;">
<polyline fill="none;"
points="27000,21000
27500,21500
28000,21000
27500,20500
27000,21000
27000,21000
" /> 
<path d="M28000 21000
L29000 21000
" />
</g>
<g style="fill:#008484; fill-opacity:0.0; 
stroke:#008484; stroke-width:60; stroke-opacity:1; 
stroke-linecap:round; stroke-linejoin:round;">
<path d="M25480 21630
L25480 21350
" />
<path d="M25980 21490
L25480 21490
" />
<path d="M25980 21180
L25480 21180
L25480 20990
L25500 20940
L25520 20920
L25570 20900
L25640 20900
L25690 20920
L25710 20940
L25740 20990
L25740 21180
" />
<path d="M25980 20420
L25980 20700
" />
<path d="M25980 20560
L25480 20560
L25550 20610
L25600 20660
L25620 20700
" />
<path d="M26610 21360
L26610 21130
" />
<path d="M26760 21410
L26260 21250
L26760 21080
" />
<path d="M26260 20820
L26260 20720
L26280 20670
L26330 20630
L26420 20600
L26590 20600
L26680 20630
L26730 20670
L26760 20720
L26760 20820
L26730 20860
L26680 20910
L26590 20930
L26420 20930
L26330 20910
L26280 20860
L26260 20820
" />
</g>
<g style="fill:#008400; fill-opacity:0.0; 
stroke:#008400; stroke-width:60; stroke-opacity:1; 
stroke-linecap:round; stroke-linejoin:round;">
<path d="M36500 21000
L29000 21000
" />
</g>
<g style="fill:#000000; fill-opacity:0.0; 
stroke:#000000; stroke-width:60; stroke-opacity:1; 
stroke-linecap:round; stroke-linejoin:round;">
<path d="M29110 20700
L29400 20700
" />
<path d="M29060 20870
L29260 20270
L29460 20870
" />
<path d="M29770 20270
L29880 20270
L29940 20300
L30000 20360
L30020 20470
L30020 20670
L30000 20790
L29940 20840
L29880 20870
L29770 20870
L29710 20840
L29650 20790
L29620 20670
L29620 20470
L29650 20360
L29710 20300
L29770 20270
" />
<path d="M34610 16700
L34900 16700
" />
<path d="M34560 16870
L34760 16270
L34960 16870
" />
<path d="M35010 16930
L35470 16930
" />
<path d="M35870 16840
L35810 16870
L35700 16870
L35640 16840
L35610 16810
L35580 16760
L35580 16590
L35610 16530
L35640 16500
L35700 16470
L35810 16470
L35870 16500
" />
<path d="M34840 18560
L34930 18590
L34960 18610
L34990 18670
L34990 18760
L34960 18810
L34930 18840
L34870 18870
L34640 18870
L34640 18270
L34840 18270
L34900 18300
L34930 18330
L34960 18390
L34960 18440
L34930 18500
L34900 18530
L34840 18560
L34640 18560
" />
<path d="M35100 18930
L35560 18930
" />
<path d="M35960 18840
L35900 18870
L35790 18870
L35730 18840
L35700 18810
L35670 18760
L35670 18590
L35700 18530
L35730 18500
L35790 18470
L35900 18470
L35960 18500
" />
</g> 
</svg>
