<?xml version="1.0" standalone="no"?>
 <!DOCTYPE svg PUBLIC "-//W3C//DTD SVG 1.1//EN" 
 "http://www.w3.org/Graphics/SVG/1.1/DTD/svg11.dtd"> 
<svg xmlns="http://www.w3.org/2000/svg" version="1.1" 
    width="29.7002cm" height="21.0007cm" viewBox="0 0 116930 82680 ">
<title>SVG Picture created as powerboard_mosfet_driver-Powerboard_MOSFET_Driver.svg date 2017/12/04 02:27:37 </title>
  <desc>Picture generated by Eeschema-SVG </desc>
<g style="fill:#000000; fill-opacity:1;stroke:#000000; stroke-opacity:1;
stroke-linecap:round; stroke-linejoin:round; "
 transform="translate(0 0) scale(1 1)">
</g>
<g style="fill:#000000; fill-opacity:0.0; 
stroke:#000000; stroke-width:-10; stroke-opacity:1; 
stroke-linecap:round; stroke-linejoin:round;">
</g>
<g style="fill:#840000; fill-opacity:0.0; 
stroke:#840000; stroke-width:-10; stroke-opacity:1; 
stroke-linecap:round; stroke-linejoin:round;">
</g>
<g style="fill:#840000; fill-opacity:0.0; 
stroke:#840000; stroke-width:100; stroke-opacity:1; 
stroke-linecap:round; stroke-linejoin:round;">
</g>
<g style="fill:#840000; fill-opacity:0.0; 
stroke:#840000; stroke-width:60; stroke-opacity:1; 
stroke-linecap:round; stroke-linejoin:round;">
<rect x="69690" y="65360" width="42520" height="12600" rx="0" />
</g>
<g style="fill:#840000; fill-opacity:0.0; 
stroke:#840000; stroke-width:100; stroke-opacity:1; 
stroke-linecap:round; stroke-linejoin:round;">
</g>
<g style="fill:#840000; fill-opacity:0.0; 
stroke:#840000; stroke-width:60; stroke-opacity:1; 
stroke-linecap:round; stroke-linejoin:round;">
<rect x="3940" y="3940" width="109050" height="74800" rx="0" />
</g>
<g style="fill:#840000; fill-opacity:0.0; 
stroke:#840000; stroke-width:100; stroke-opacity:1; 
stroke-linecap:round; stroke-linejoin:round;">
</g>
<g style="fill:#840000; fill-opacity:0.0; 
stroke:#840000; stroke-width:60; stroke-opacity:1; 
stroke-linecap:round; stroke-linejoin:round;">
<rect x="4720" y="4720" width="107490" height="73240" rx="0" />
</g>
<g style="fill:#840000; fill-opacity:0.0; 
stroke:#840000; stroke-width:100; stroke-opacity:1; 
stroke-linecap:round; stroke-linejoin:round;">
</g>
<g style="fill:#840000; fill-opacity:0.0; 
stroke:#840000; stroke-width:60; stroke-opacity:1; 
stroke-linecap:round; stroke-linejoin:round;">
<path d="M23620 4720
L23620 3940
" />
</g>
<g style="fill:#840000; fill-opacity:0.0; 
stroke:#840000; stroke-width:100; stroke-opacity:1; 
stroke-linecap:round; stroke-linejoin:round;">
</g>
<g style="fill:#840000; fill-opacity:0.0; 
stroke:#840000; stroke-width:60; stroke-opacity:1; 
stroke-linecap:round; stroke-linejoin:round;">
<path d="M43310 4720
L43310 3940
" />
</g>
<g style="fill:#840000; fill-opacity:0.0; 
stroke:#840000; stroke-width:100; stroke-opacity:1; 
stroke-linecap:round; stroke-linejoin:round;">
</g>
<g style="fill:#840000; fill-opacity:0.0; 
stroke:#840000; stroke-width:60; stroke-opacity:1; 
stroke-linecap:round; stroke-linejoin:round;">
<path d="M62990 4720
L62990 3940
" />
</g>
<g style="fill:#840000; fill-opacity:0.0; 
stroke:#840000; stroke-width:100; stroke-opacity:1; 
stroke-linecap:round; stroke-linejoin:round;">
</g>
<g style="fill:#840000; fill-opacity:0.0; 
stroke:#840000; stroke-width:60; stroke-opacity:1; 
stroke-linecap:round; stroke-linejoin:round;">
<path d="M82680 4720
L82680 3940
" />
</g>
<g style="fill:#840000; fill-opacity:0.0; 
stroke:#840000; stroke-width:100; stroke-opacity:1; 
stroke-linecap:round; stroke-linejoin:round;">
</g>
<g style="fill:#840000; fill-opacity:0.0; 
stroke:#840000; stroke-width:60; stroke-opacity:1; 
stroke-linecap:round; stroke-linejoin:round;">
<path d="M102360 4720
L102360 3940
" />
</g>
<g style="fill:#840000; fill-opacity:0.0; 
stroke:#840000; stroke-width:100; stroke-opacity:1; 
stroke-linecap:round; stroke-linejoin:round;">
</g>
<g style="fill:#840000; fill-opacity:0.0; 
stroke:#840000; stroke-width:60; stroke-opacity:1; 
stroke-linecap:round; stroke-linejoin:round;">
<path d="M14170 4560
L13880 4560
" />
<path d="M14020 4560
L14020 4050
L13970 4120
L13930 4170
L13880 4190
" />
</g>
<g style="fill:#840000; fill-opacity:0.0; 
stroke:#840000; stroke-width:100; stroke-opacity:1; 
stroke-linecap:round; stroke-linejoin:round;">
</g>
<g style="fill:#840000; fill-opacity:0.0; 
stroke:#840000; stroke-width:60; stroke-opacity:1; 
stroke-linecap:round; stroke-linejoin:round;">
<path d="M33560 4090
L33580 4070
L33630 4050
L33750 4050
L33800 4070
L33820 4090
L33850 4140
L33850 4190
L33820 4260
L33530 4560
L33850 4560
" />
</g>
<g style="fill:#840000; fill-opacity:0.0; 
stroke:#840000; stroke-width:100; stroke-opacity:1; 
stroke-linecap:round; stroke-linejoin:round;">
</g>
<g style="fill:#840000; fill-opacity:0.0; 
stroke:#840000; stroke-width:60; stroke-opacity:1; 
stroke-linecap:round; stroke-linejoin:round;">
<path d="M53220 4050
L53540 4050
L53370 4240
L53440 4240
L53490 4260
L53510 4290
L53540 4340
L53540 4460
L53510 4510
L53490 4530
L53440 4560
L53300 4560
L53250 4530
L53220 4510
" />
</g>
<g style="fill:#840000; fill-opacity:0.0; 
stroke:#840000; stroke-width:100; stroke-opacity:1; 
stroke-linecap:round; stroke-linejoin:round;">
</g>
<g style="fill:#840000; fill-opacity:0.0; 
stroke:#840000; stroke-width:60; stroke-opacity:1; 
stroke-linecap:round; stroke-linejoin:round;">
<path d="M73170 4220
L73170 4560
" />
<path d="M73050 4020
L72930 4390
L73240 4390
" />
</g>
<g style="fill:#840000; fill-opacity:0.0; 
stroke:#840000; stroke-width:100; stroke-opacity:1; 
stroke-linecap:round; stroke-linejoin:round;">
</g>
<g style="fill:#840000; fill-opacity:0.0; 
stroke:#840000; stroke-width:60; stroke-opacity:1; 
stroke-linecap:round; stroke-linejoin:round;">
<path d="M92880 4050
L92640 4050
L92620 4290
L92640 4260
L92690 4240
L92810 4240
L92860 4260
L92880 4290
L92910 4340
L92910 4460
L92880 4510
L92860 4530
L92810 4560
L92690 4560
L92640 4530
L92620 4510
" />
</g>
<g style="fill:#840000; fill-opacity:0.0; 
stroke:#840000; stroke-width:100; stroke-opacity:1; 
stroke-linecap:round; stroke-linejoin:round;">
</g>
<g style="fill:#840000; fill-opacity:0.0; 
stroke:#840000; stroke-width:60; stroke-opacity:1; 
stroke-linecap:round; stroke-linejoin:round;">
<path d="M112540 4050
L112440 4050
L112390 4070
L112370 4090
L112320 4170
L112300 4260
L112300 4460
L112320 4510
L112350 4530
L112390 4560
L112490 4560
L112540 4530
L112560 4510
L112590 4460
L112590 4340
L112560 4290
L112540 4260
L112490 4240
L112390 4240
L112350 4260
L112320 4290
L112300 4340
" />
</g>
<g style="fill:#840000; fill-opacity:0.0; 
stroke:#840000; stroke-width:100; stroke-opacity:1; 
stroke-linecap:round; stroke-linejoin:round;">
</g>
<g style="fill:#840000; fill-opacity:0.0; 
stroke:#840000; stroke-width:60; stroke-opacity:1; 
stroke-linecap:round; stroke-linejoin:round;">
<path d="M23620 77960
L23620 78740
" />
</g>
<g style="fill:#840000; fill-opacity:0.0; 
stroke:#840000; stroke-width:100; stroke-opacity:1; 
stroke-linecap:round; stroke-linejoin:round;">
</g>
<g style="fill:#840000; fill-opacity:0.0; 
stroke:#840000; stroke-width:60; stroke-opacity:1; 
stroke-linecap:round; stroke-linejoin:round;">
<path d="M43310 77960
L43310 78740
" />
</g>
<g style="fill:#840000; fill-opacity:0.0; 
stroke:#840000; stroke-width:100; stroke-opacity:1; 
stroke-linecap:round; stroke-linejoin:round;">
</g>
<g style="fill:#840000; fill-opacity:0.0; 
stroke:#840000; stroke-width:60; stroke-opacity:1; 
stroke-linecap:round; stroke-linejoin:round;">
<path d="M62990 77960
L62990 78740
" />
</g>
<g style="fill:#840000; fill-opacity:0.0; 
stroke:#840000; stroke-width:100; stroke-opacity:1; 
stroke-linecap:round; stroke-linejoin:round;">
</g>
<g style="fill:#840000; fill-opacity:0.0; 
stroke:#840000; stroke-width:60; stroke-opacity:1; 
stroke-linecap:round; stroke-linejoin:round;">
<path d="M82680 77960
L82680 78740
" />
</g>
<g style="fill:#840000; fill-opacity:0.0; 
stroke:#840000; stroke-width:100; stroke-opacity:1; 
stroke-linecap:round; stroke-linejoin:round;">
</g>
<g style="fill:#840000; fill-opacity:0.0; 
stroke:#840000; stroke-width:60; stroke-opacity:1; 
stroke-linecap:round; stroke-linejoin:round;">
<path d="M102360 77960
L102360 78740
" />
</g>
<g style="fill:#840000; fill-opacity:0.0; 
stroke:#840000; stroke-width:100; stroke-opacity:1; 
stroke-linecap:round; stroke-linejoin:round;">
</g>
<g style="fill:#840000; fill-opacity:0.0; 
stroke:#840000; stroke-width:60; stroke-opacity:1; 
stroke-linecap:round; stroke-linejoin:round;">
<path d="M14170 78580
L13880 78580
" />
<path d="M14020 78580
L14020 78070
L13970 78140
L13930 78190
L13880 78210
" />
</g>
<g style="fill:#840000; fill-opacity:0.0; 
stroke:#840000; stroke-width:100; stroke-opacity:1; 
stroke-linecap:round; stroke-linejoin:round;">
</g>
<g style="fill:#840000; fill-opacity:0.0; 
stroke:#840000; stroke-width:60; stroke-opacity:1; 
stroke-linecap:round; stroke-linejoin:round;">
<path d="M33560 78110
L33580 78090
L33630 78070
L33750 78070
L33800 78090
L33820 78110
L33850 78160
L33850 78210
L33820 78280
L33530 78580
L33850 78580
" />
</g>
<g style="fill:#840000; fill-opacity:0.0; 
stroke:#840000; stroke-width:100; stroke-opacity:1; 
stroke-linecap:round; stroke-linejoin:round;">
</g>
<g style="fill:#840000; fill-opacity:0.0; 
stroke:#840000; stroke-width:60; stroke-opacity:1; 
stroke-linecap:round; stroke-linejoin:round;">
<path d="M53220 78070
L53540 78070
L53370 78260
L53440 78260
L53490 78280
L53510 78310
L53540 78360
L53540 78480
L53510 78530
L53490 78550
L53440 78580
L53300 78580
L53250 78550
L53220 78530
" />
</g>
<g style="fill:#840000; fill-opacity:0.0; 
stroke:#840000; stroke-width:100; stroke-opacity:1; 
stroke-linecap:round; stroke-linejoin:round;">
</g>
<g style="fill:#840000; fill-opacity:0.0; 
stroke:#840000; stroke-width:60; stroke-opacity:1; 
stroke-linecap:round; stroke-linejoin:round;">
<path d="M73170 78240
L73170 78580
" />
<path d="M73050 78040
L72930 78410
L73240 78410
" />
</g>
<g style="fill:#840000; fill-opacity:0.0; 
stroke:#840000; stroke-width:100; stroke-opacity:1; 
stroke-linecap:round; stroke-linejoin:round;">
</g>
<g style="fill:#840000; fill-opacity:0.0; 
stroke:#840000; stroke-width:60; stroke-opacity:1; 
stroke-linecap:round; stroke-linejoin:round;">
<path d="M92880 78070
L92640 78070
L92620 78310
L92640 78280
L92690 78260
L92810 78260
L92860 78280
L92880 78310
L92910 78360
L92910 78480
L92880 78530
L92860 78550
L92810 78580
L92690 78580
L92640 78550
L92620 78530
" />
</g>
<g style="fill:#840000; fill-opacity:0.0; 
stroke:#840000; stroke-width:100; stroke-opacity:1; 
stroke-linecap:round; stroke-linejoin:round;">
</g>
<g style="fill:#840000; fill-opacity:0.0; 
stroke:#840000; stroke-width:60; stroke-opacity:1; 
stroke-linecap:round; stroke-linejoin:round;">
<path d="M112540 78070
L112440 78070
L112390 78090
L112370 78110
L112320 78190
L112300 78280
L112300 78480
L112320 78530
L112350 78550
L112390 78580
L112490 78580
L112540 78550
L112560 78530
L112590 78480
L112590 78360
L112560 78310
L112540 78280
L112490 78260
L112390 78260
L112350 78280
L112320 78310
L112300 78360
" />
</g>
<g style="fill:#840000; fill-opacity:0.0; 
stroke:#840000; stroke-width:100; stroke-opacity:1; 
stroke-linecap:round; stroke-linejoin:round;">
</g>
<g style="fill:#840000; fill-opacity:0.0; 
stroke:#840000; stroke-width:60; stroke-opacity:1; 
stroke-linecap:round; stroke-linejoin:round;">
<path d="M3940 23620
L4720 23620
" />
</g>
<g style="fill:#840000; fill-opacity:0.0; 
stroke:#840000; stroke-width:100; stroke-opacity:1; 
stroke-linecap:round; stroke-linejoin:round;">
</g>
<g style="fill:#840000; fill-opacity:0.0; 
stroke:#840000; stroke-width:60; stroke-opacity:1; 
stroke-linecap:round; stroke-linejoin:round;">
<path d="M3940 43310
L4720 43310
" />
</g>
<g style="fill:#840000; fill-opacity:0.0; 
stroke:#840000; stroke-width:100; stroke-opacity:1; 
stroke-linecap:round; stroke-linejoin:round;">
</g>
<g style="fill:#840000; fill-opacity:0.0; 
stroke:#840000; stroke-width:60; stroke-opacity:1; 
stroke-linecap:round; stroke-linejoin:round;">
<path d="M3940 62990
L4720 62990
" />
</g>
<g style="fill:#840000; fill-opacity:0.0; 
stroke:#840000; stroke-width:100; stroke-opacity:1; 
stroke-linecap:round; stroke-linejoin:round;">
</g>
<g style="fill:#840000; fill-opacity:0.0; 
stroke:#840000; stroke-width:60; stroke-opacity:1; 
stroke-linecap:round; stroke-linejoin:round;">
<path d="M4210 13860
L4450 13860
" />
<path d="M4160 14010
L4330 13500
L4500 14010
" />
</g>
<g style="fill:#840000; fill-opacity:0.0; 
stroke:#840000; stroke-width:100; stroke-opacity:1; 
stroke-linecap:round; stroke-linejoin:round;">
</g>
<g style="fill:#840000; fill-opacity:0.0; 
stroke:#840000; stroke-width:60; stroke-opacity:1; 
stroke-linecap:round; stroke-linejoin:round;">
<path d="M4370 33420
L4440 33440
L4470 33470
L4490 33520
L4490 33590
L4470 33640
L4440 33660
L4400 33690
L4200 33690
L4200 33180
L4370 33180
L4420 33200
L4440 33220
L4470 33270
L4470 33320
L4440 33370
L4420 33390
L4370 33420
L4200 33420
" />
</g>
<g style="fill:#840000; fill-opacity:0.0; 
stroke:#840000; stroke-width:100; stroke-opacity:1; 
stroke-linecap:round; stroke-linejoin:round;">
</g>
<g style="fill:#840000; fill-opacity:0.0; 
stroke:#840000; stroke-width:60; stroke-opacity:1; 
stroke-linecap:round; stroke-linejoin:round;">
<path d="M4490 53330
L4470 53350
L4400 53380
L4350 53380
L4270 53350
L4230 53300
L4200 53250
L4180 53160
L4180 53080
L4200 52990
L4230 52940
L4270 52890
L4350 52870
L4400 52870
L4470 52890
L4490 52910
" />
</g>
<g style="fill:#840000; fill-opacity:0.0; 
stroke:#840000; stroke-width:100; stroke-opacity:1; 
stroke-linecap:round; stroke-linejoin:round;">
</g>
<g style="fill:#840000; fill-opacity:0.0; 
stroke:#840000; stroke-width:60; stroke-opacity:1; 
stroke-linecap:round; stroke-linejoin:round;">
<path d="M4200 73060
L4200 72550
L4320 72550
L4400 72570
L4440 72620
L4470 72670
L4490 72760
L4490 72840
L4470 72930
L4440 72980
L4400 73030
L4320 73060
L4200 73060
" />
</g>
<g style="fill:#840000; fill-opacity:0.0; 
stroke:#840000; stroke-width:100; stroke-opacity:1; 
stroke-linecap:round; stroke-linejoin:round;">
</g>
<g style="fill:#840000; fill-opacity:0.0; 
stroke:#840000; stroke-width:60; stroke-opacity:1; 
stroke-linecap:round; stroke-linejoin:round;">
<path d="M112990 23620
L112210 23620
" />
</g>
<g style="fill:#840000; fill-opacity:0.0; 
stroke:#840000; stroke-width:100; stroke-opacity:1; 
stroke-linecap:round; stroke-linejoin:round;">
</g>
<g style="fill:#840000; fill-opacity:0.0; 
stroke:#840000; stroke-width:60; stroke-opacity:1; 
stroke-linecap:round; stroke-linejoin:round;">
<path d="M112990 43310
L112210 43310
" />
</g>
<g style="fill:#840000; fill-opacity:0.0; 
stroke:#840000; stroke-width:100; stroke-opacity:1; 
stroke-linecap:round; stroke-linejoin:round;">
</g>
<g style="fill:#840000; fill-opacity:0.0; 
stroke:#840000; stroke-width:60; stroke-opacity:1; 
stroke-linecap:round; stroke-linejoin:round;">
<path d="M112990 62990
L112210 62990
" />
</g>
<g style="fill:#840000; fill-opacity:0.0; 
stroke:#840000; stroke-width:100; stroke-opacity:1; 
stroke-linecap:round; stroke-linejoin:round;">
</g>
<g style="fill:#840000; fill-opacity:0.0; 
stroke:#840000; stroke-width:60; stroke-opacity:1; 
stroke-linecap:round; stroke-linejoin:round;">
<path d="M112480 13860
L112720 13860
" />
<path d="M112430 14010
L112600 13500
L112770 14010
" />
</g>
<g style="fill:#840000; fill-opacity:0.0; 
stroke:#840000; stroke-width:100; stroke-opacity:1; 
stroke-linecap:round; stroke-linejoin:round;">
</g>
<g style="fill:#840000; fill-opacity:0.0; 
stroke:#840000; stroke-width:60; stroke-opacity:1; 
stroke-linecap:round; stroke-linejoin:round;">
<path d="M112640 33420
L112710 33440
L112740 33470
L112760 33520
L112760 33590
L112740 33640
L112710 33660
L112670 33690
L112470 33690
L112470 33180
L112640 33180
L112690 33200
L112710 33220
L112740 33270
L112740 33320
L112710 33370
L112690 33390
L112640 33420
L112470 33420
" />
</g>
<g style="fill:#840000; fill-opacity:0.0; 
stroke:#840000; stroke-width:100; stroke-opacity:1; 
stroke-linecap:round; stroke-linejoin:round;">
</g>
<g style="fill:#840000; fill-opacity:0.0; 
stroke:#840000; stroke-width:60; stroke-opacity:1; 
stroke-linecap:round; stroke-linejoin:round;">
<path d="M112760 53330
L112740 53350
L112670 53380
L112620 53380
L112540 53350
L112500 53300
L112470 53250
L112450 53160
L112450 53080
L112470 52990
L112500 52940
L112540 52890
L112620 52870
L112670 52870
L112740 52890
L112760 52910
" />
</g>
<g style="fill:#840000; fill-opacity:0.0; 
stroke:#840000; stroke-width:100; stroke-opacity:1; 
stroke-linecap:round; stroke-linejoin:round;">
</g>
<g style="fill:#840000; fill-opacity:0.0; 
stroke:#840000; stroke-width:60; stroke-opacity:1; 
stroke-linecap:round; stroke-linejoin:round;">
<path d="M112470 73060
L112470 72550
L112590 72550
L112670 72570
L112710 72620
L112740 72670
L112760 72760
L112760 72840
L112740 72930
L112710 72980
L112670 73030
L112590 73060
L112470 73060
" />
</g>
<g style="fill:#840000; fill-opacity:0.0; 
stroke:#840000; stroke-width:100; stroke-opacity:1; 
stroke-linecap:round; stroke-linejoin:round;">
</g>
<g style="fill:#840000; fill-opacity:0.0; 
stroke:#840000; stroke-width:60; stroke-opacity:1; 
stroke-linecap:round; stroke-linejoin:round;">
<path d="M78880 76290
L78880 75700
L79020 75700
L79110 75730
L79160 75790
L79190 75840
L79220 75950
L79220 76040
L79190 76150
L79160 76210
L79110 76260
L79020 76290
L78880 76290
" />
<path d="M79720 76290
L79720 75980
L79700 75930
L79640 75900
L79530 75900
L79470 75930
" />
<path d="M79720 76260
L79670 76290
L79530 76290
L79470 76260
L79440 76210
L79440 76150
L79470 76100
L79530 76070
L79670 76070
L79720 76040
" />
<path d="M79920 75900
L80140 75900
" />
<path d="M80000 75700
L80000 76210
L80030 76260
L80080 76290
L80140 76290
" />
<path d="M80570 76260
L80510 76290
L80400 76290
L80340 76260
L80310 76210
L80310 75980
L80340 75930
L80400 75900
L80510 75900
L80570 75930
L80590 75980
L80590 76040
L80310 76100
" />
<path d="M80850 76240
L80880 76260
L80850 76290
L80820 76260
L80850 76240
L80850 76290
" />
<path d="M80850 75930
L80880 75950
L80850 75980
L80820 75950
L80850 75930
L80850 75980
" />
<path d="M81550 75760
L81580 75730
L81640 75700
L81780 75700
L81830 75730
L81860 75760
L81890 75810
L81890 75870
L81860 75950
L81520 76290
L81890 76290
" />
<path d="M82250 75700
L82310 75700
L82370 75730
L82390 75760
L82420 75810
L82450 75930
L82450 76070
L82420 76180
L82390 76240
L82370 76260
L82310 76290
L82250 76290
L82200 76260
L82170 76240
L82140 76180
L82110 76070
L82110 75930
L82140 75810
L82170 75760
L82200 75730
L82250 75700
" />
<path d="M83010 76290
L82670 76290
" />
<path d="M82840 76290
L82840 75700
L82780 75790
L82730 75840
L82670 75870
" />
<path d="M83200 75700
L83600 75700
L83340 76290
" />
<path d="M83820 76070
L84270 76070
" />
<path d="M84860 76290
L84520 76290
" />
<path d="M84690 76290
L84690 75700
L84630 75790
L84580 75840
L84520 75870
" />
<path d="M85420 76290
L85080 76290
" />
<path d="M85250 76290
L85250 75700
L85190 75790
L85140 75840
L85080 75870
" />
<path d="M85670 76070
L86120 76070
" />
<path d="M86370 75760
L86400 75730
L86460 75700
L86600 75700
L86650 75730
L86680 75760
L86710 75810
L86710 75870
L86680 75950
L86340 76290
L86710 76290
" />
<path d="M86900 75700
L87270 75700
L87070 75930
L87160 75930
L87210 75950
L87240 75980
L87270 76040
L87270 76180
L87240 76240
L87210 76260
L87160 76290
L86990 76290
L86930 76260
L86900 76240
" />
</g>
<g style="fill:#840000; fill-opacity:0.0; 
stroke:#840000; stroke-width:100; stroke-opacity:1; 
stroke-linecap:round; stroke-linejoin:round;">
</g>
<g style="fill:#840000; fill-opacity:0.0; 
stroke:#840000; stroke-width:60; stroke-opacity:1; 
stroke-linecap:round; stroke-linejoin:round;">
<path d="M69690 76580
L112210 76580
" />
</g>
<g style="fill:#840000; fill-opacity:0.0; 
stroke:#840000; stroke-width:100; stroke-opacity:1; 
stroke-linecap:round; stroke-linejoin:round;">
</g>
<g style="fill:#840000; fill-opacity:0.0; 
stroke:#840000; stroke-width:60; stroke-opacity:1; 
stroke-linecap:round; stroke-linejoin:round;">
<path d="M70220 77390
L70220 76800
" />
<path d="M70560 77390
L70300 77050
" />
<path d="M70560 76800
L70220 77140
" />
<path d="M70810 77390
L70810 77000
" />
<path d="M70810 76800
L70780 76830
L70810 76860
L70840 76830
L70810 76800
L70810 76860
" />
<path d="M71430 77340
L71400 77360
L71320 77390
L71260 77390
L71170 77360
L71120 77310
L71090 77250
L71060 77140
L71060 77050
L71090 76940
L71120 76890
L71170 76830
L71260 76800
L71320 76800
L71400 76830
L71430 76860
" />
<path d="M71930 77390
L71930 77080
L71910 77030
L71850 77000
L71740 77000
L71680 77030
" />
<path d="M71930 77360
L71880 77390
L71740 77390
L71680 77360
L71650 77310
L71650 77250
L71680 77200
L71740 77170
L71880 77170
L71930 77140
" />
<path d="M72460 77390
L72460 76800
" />
<path d="M72460 77360
L72410 77390
L72290 77390
L72240 77360
L72210 77340
L72180 77280
L72180 77110
L72210 77050
L72240 77030
L72290 77000
L72410 77000
L72460 77030
" />
<path d="M73190 77080
L73390 77080
" />
<path d="M73470 77390
L73190 77390
L73190 76800
L73470 76800
" />
<path d="M73720 77340
L73750 77360
L73720 77390
L73690 77360
L73720 77340
L73720 77390
" />
<path d="M74000 77390
L74000 76800
L74140 76800
L74230 76830
L74280 76890
L74310 76940
L74340 77050
L74340 77140
L74310 77250
L74280 77310
L74230 77360
L74140 77390
L74000 77390
" />
<path d="M74590 77340
L74620 77360
L74590 77390
L74560 77360
L74590 77340
L74590 77390
" />
<path d="M74840 77220
L75120 77220
" />
<path d="M74790 77390
L74980 76800
L75180 77390
" />
<path d="M75380 77340
L75410 77360
L75380 77390
L75350 77360
L75380 77340
L75380 77390
" />
<path d="M76560 77390
L76560 76800
" />
<path d="M76620 77170
L76790 77390
" />
<path d="M76790 77000
L76560 77220
" />
<path d="M77040 77390
L77040 77000
" />
<path d="M77040 76800
L77010 76830
L77040 76860
L77070 76830
L77040 76800
L77040 76860
" />
<path d="M77570 77360
L77520 77390
L77400 77390
L77350 77360
L77320 77340
L77290 77280
L77290 77110
L77320 77050
L77350 77030
L77400 77000
L77520 77000
L77570 77030
" />
<path d="M78080 77390
L78080 77080
L78060 77030
L78000 77000
L77890 77000
L77830 77030
" />
<path d="M78080 77360
L78030 77390
L77890 77390
L77830 77360
L77800 77310
L77800 77250
L77830 77200
L77890 77170
L78030 77170
L78080 77140
" />
<path d="M78610 77390
L78610 76800
" />
<path d="M78610 77360
L78560 77390
L78440 77390
L78390 77360
L78360 77340
L78330 77280
L78330 77110
L78360 77050
L78390 77030
L78440 77000
L78560 77000
L78610 77030
" />
<path d="M79590 77000
L79590 77390
" />
<path d="M79450 76770
L79310 77200
L79680 77200
" />
<path d="M79900 77340
L79930 77360
L79900 77390
L79870 77360
L79900 77340
L79900 77390
" />
<path d="M80290 76800
L80350 76800
L80410 76830
L80430 76860
L80460 76910
L80490 77030
L80490 77170
L80460 77280
L80430 77340
L80410 77360
L80350 77390
L80290 77390
L80240 77360
L80210 77340
L80180 77280
L80150 77170
L80150 77030
L80180 76910
L80210 76860
L80240 76830
L80290 76800
" />
<path d="M80740 77340
L80770 77360
L80740 77390
L80710 77360
L80740 77340
L80740 77390
" />
<path d="M81270 76800
L81160 76800
L81100 76830
L81080 76860
L81020 76940
L80990 77050
L80990 77280
L81020 77340
L81050 77360
L81100 77390
L81220 77390
L81270 77360
L81300 77340
L81330 77280
L81330 77140
L81300 77080
L81270 77050
L81220 77030
L81100 77030
L81050 77050
L81020 77080
L80990 77140
" />
</g>
<g style="fill:#840000; fill-opacity:0.0; 
stroke:#840000; stroke-width:100; stroke-opacity:1; 
stroke-linecap:round; stroke-linejoin:round;">
</g>
<g style="fill:#840000; fill-opacity:0.0; 
stroke:#840000; stroke-width:60; stroke-opacity:1; 
stroke-linecap:round; stroke-linejoin:round;">
<path d="M69690 75400
L112210 75400
" />
</g>
<g style="fill:#840000; fill-opacity:0.0; 
stroke:#840000; stroke-width:100; stroke-opacity:1; 
stroke-linecap:round; stroke-linejoin:round;">
</g>
<g style="fill:#840000; fill-opacity:0.0; 
stroke:#840000; stroke-width:120; stroke-opacity:1; 
stroke-linecap:round; stroke-linejoin:round;">
<path d="M104020 76290
L103820 76010
" />
<path d="M103680 76290
L103680 75700
L103910 75700
L103960 75730
L103990 75760
L104020 75810
L104020 75900
L103990 75950
L103960 75980
L103910 76010
L103680 76010
" />
<path d="M104500 76260
L104440 76290
L104330 76290
L104270 76260
L104240 76210
L104240 75980
L104270 75930
L104330 75900
L104440 75900
L104500 75930
L104520 75980
L104520 76040
L104240 76100
" />
<path d="M104720 75900
L104860 76290
L105010 75900
" />
<path d="M105230 76240
L105260 76260
L105230 76290
L105200 76260
L105230 76240
L105230 76290
" />
<path d="M105230 75930
L105260 75950
L105230 75980
L105200 75950
L105230 75930
L105230 75980
" />
<path d="M105960 76290
L105960 75900
" />
<path d="M105960 76010
L105990 75950
L106020 75930
L106070 75900
L106130 75900
" />
<path d="M106560 76260
L106500 76290
L106390 76290
L106330 76260
L106300 76210
L106300 75980
L106330 75930
L106390 75900
L106500 75900
L106560 75930
L106580 75980
L106580 76040
L106300 76100
" />
<path d="M106780 75900
L106920 76290
L107070 75900
" />
<path d="M107600 76290
L107260 76290
" />
<path d="M107430 76290
L107430 75700
L107370 75790
L107320 75840
L107260 75870
" />
<path d="M107960 75700
L108020 75700
L108080 75730
L108100 75760
L108130 75810
L108160 75930
L108160 76070
L108130 76180
L108100 76240
L108080 76260
L108020 76290
L107960 76290
L107910 76260
L107880 76240
L107850 76180
L107820 76070
L107820 75930
L107850 75810
L107880 75760
L107910 75730
L107960 75700
" />
</g>
<g style="fill:#840000; fill-opacity:0.0; 
stroke:#840000; stroke-width:100; stroke-opacity:1; 
stroke-linecap:round; stroke-linejoin:round;">
</g>
<g style="fill:#840000; fill-opacity:0.0; 
stroke:#840000; stroke-width:60; stroke-opacity:1; 
stroke-linecap:round; stroke-linejoin:round;">
<path d="M70190 76260
L70280 76290
L70420 76290
L70470 76260
L70500 76240
L70530 76180
L70530 76120
L70500 76070
L70470 76040
L70420 76010
L70300 75980
L70250 75950
L70220 75930
L70190 75870
L70190 75810
L70220 75760
L70250 75730
L70300 75700
L70450 75700
L70530 75730
" />
<path d="M70780 76290
L70780 75900
" />
<path d="M70780 75700
L70750 75730
L70780 75760
L70810 75730
L70780 75700
L70780 75760
" />
<path d="M71000 75900
L71310 75900
L71000 76290
L71310 76290
" />
<path d="M71770 76260
L71710 76290
L71600 76290
L71540 76260
L71510 76210
L71510 75980
L71540 75930
L71600 75900
L71710 75900
L71770 75930
L71790 75980
L71790 76040
L71510 76100
" />
<path d="M72050 76240
L72080 76260
L72050 76290
L72020 76260
L72050 76240
L72050 76290
" />
<path d="M72050 75930
L72080 75950
L72050 75980
L72020 75950
L72050 75930
L72050 75980
" />
<path d="M72750 76120
L73030 76120
" />
<path d="M72700 76290
L72890 75700
L73090 76290
" />
<path d="M73540 75900
L73540 76290
" />
<path d="M73400 75670
L73260 76100
L73630 76100
" />
</g>
<g style="fill:#840000; fill-opacity:0.0; 
stroke:#840000; stroke-width:100; stroke-opacity:1; 
stroke-linecap:round; stroke-linejoin:round;">
</g>
<g style="fill:#840000; fill-opacity:0.0; 
stroke:#840000; stroke-width:60; stroke-opacity:1; 
stroke-linecap:round; stroke-linejoin:round;">
<path d="M103680 77390
L103680 76800
" />
<path d="M104210 77390
L104210 76800
" />
<path d="M104210 77360
L104160 77390
L104040 77390
L103990 77360
L103960 77340
L103930 77280
L103930 77110
L103960 77050
L103990 77030
L104040 77000
L104160 77000
L104210 77030
" />
<path d="M104490 77340
L104520 77360
L104490 77390
L104460 77360
L104490 77340
L104490 77390
" />
<path d="M104490 77030
L104520 77050
L104490 77080
L104460 77050
L104490 77030
L104490 77080
" />
<path d="M105530 77390
L105190 77390
" />
<path d="M105360 77390
L105360 76800
L105300 76890
L105250 76940
L105190 76970
" />
<path d="M106090 77390
L105750 77390
" />
<path d="M105920 77390
L105920 76800
L105860 76890
L105810 76940
L105750 76970
" />
<path d="M106760 76770
L106260 77530
" />
<path d="M107270 77390
L106930 77390
" />
<path d="M107100 77390
L107100 76800
L107040 76890
L106990 76940
L106930 76970
" />
<path d="M107830 77390
L107490 77390
" />
<path d="M107660 77390
L107660 76800
L107600 76890
L107550 76940
L107490 76970
" />
</g>
<g style="fill:#840000; fill-opacity:0.0; 
stroke:#840000; stroke-width:100; stroke-opacity:1; 
stroke-linecap:round; stroke-linejoin:round;">
</g>
<g style="fill:#840000; fill-opacity:0.0; 
stroke:#840000; stroke-width:60; stroke-opacity:1; 
stroke-linecap:round; stroke-linejoin:round;">
<path d="M69690 73820
L112210 73820
" />
</g>
<g style="fill:#840000; fill-opacity:0.0; 
stroke:#840000; stroke-width:100; stroke-opacity:1; 
stroke-linecap:round; stroke-linejoin:round;">
</g>
<g style="fill:#840000; fill-opacity:0.0; 
stroke:#840000; stroke-width:160; stroke-opacity:1; 
stroke-linecap:round; stroke-linejoin:round;">
<path d="M70260 74090
L70710 74090
" />
<path d="M70390 74880
L70480 74090
" />
<path d="M70880 74880
L70940 74360
" />
<path d="M70970 74090
L70930 74130
L70960 74170
L71010 74130
L70970 74090
L70960 74170
" />
<path d="M71210 74360
L71510 74360
" />
<path d="M71350 74090
L71270 74770
L71300 74840
L71370 74880
L71450 74880
" />
<path d="M71820 74880
L71750 74840
L71720 74770
L71800 74090
" />
<path d="M72420 74840
L72340 74880
L72190 74880
L72120 74840
L72090 74770
L72130 74470
L72180 74390
L72250 74360
L72400 74360
L72480 74390
L72510 74470
L72500 74540
L72110 74620
" />
<path d="M72800 74810
L72840 74840
L72800 74880
L72760 74840
L72800 74810
L72800 74880
" />
<path d="M72860 74390
L72890 74430
L72850 74470
L72810 74430
L72860 74390
L72850 74470
" />
<path d="M73780 74880
L73870 74090
L74170 74090
L74240 74130
L74270 74170
L74310 74240
L74290 74360
L74240 74430
L74200 74470
L74120 74510
L73820 74510
" />
<path d="M74680 74880
L74610 74840
L74570 74810
L74540 74730
L74570 74510
L74620 74430
L74670 74390
L74740 74360
L74850 74360
L74930 74390
L74960 74430
L74980 74510
L74950 74730
L74910 74810
L74870 74840
L74790 74880
L74680 74880
" />
<path d="M75260 74360
L75350 74880
L75540 74510
L75650 74880
L75860 74360
" />
<path d="M76410 74840
L76330 74880
L76180 74880
L76110 74840
L76080 74770
L76120 74470
L76170 74390
L76240 74360
L76390 74360
L76470 74390
L76500 74470
L76490 74540
L76100 74620
" />
<path d="M76790 74880
L76850 74360
" />
<path d="M76830 74510
L76880 74430
L76920 74390
L77000 74360
L77070 74360
" />
<path d="M77280 74880
L77370 74090
" />
<path d="M77340 74390
L77410 74360
L77560 74360
L77640 74390
L77670 74430
L77690 74510
L77660 74730
L77620 74810
L77580 74840
L77500 74880
L77350 74880
L77280 74840
" />
<path d="M78100 74880
L78030 74840
L77990 74810
L77960 74730
L77990 74510
L78040 74430
L78090 74390
L78160 74360
L78270 74360
L78350 74390
L78380 74430
L78400 74510
L78370 74730
L78330 74810
L78290 74840
L78210 74880
L78100 74880
" />
<path d="M79040 74880
L79090 74470
L79060 74390
L78980 74360
L78830 74360
L78760 74390
" />
<path d="M79040 74840
L78960 74880
L78770 74880
L78700 74840
L78670 74770
L78680 74690
L78730 74620
L78800 74580
L78990 74580
L79080 74540
" />
<path d="M79410 74880
L79470 74360
" />
<path d="M79450 74510
L79500 74430
L79540 74390
L79620 74360
L79690 74360
" />
<path d="M80240 74880
L80330 74090
" />
<path d="M80240 74840
L80160 74880
L80010 74880
L79940 74840
L79900 74810
L79870 74730
L79900 74510
L79950 74430
L80000 74390
L80070 74360
L80220 74360
L80300 74390
" />
<path d="M81210 74880
L81300 74090
L81490 74660
L81820 74090
L81730 74880
" />
<path d="M82350 74090
L82500 74090
L82570 74130
L82640 74210
L82660 74360
L82630 74620
L82570 74770
L82480 74840
L82410 74880
L82260 74880
L82180 74840
L82120 74770
L82100 74620
L82130 74360
L82190 74210
L82270 74130
L82350 74090
" />
<path d="M82900 74840
L83010 74880
L83200 74880
L83280 74840
L83310 74810
L83360 74730
L83370 74660
L83340 74580
L83320 74540
L83240 74510
L83100 74470
L83030 74430
L83000 74390
L82970 74320
L82980 74240
L83020 74170
L83070 74130
L83140 74090
L83330 74090
L83440 74130
" />
<path d="M84000 74470
L83740 74470
" />
<path d="M83690 74880
L83780 74090
L84150 74090
" />
<path d="M84420 74470
L84680 74470
" />
<path d="M84740 74880
L84370 74880
L84460 74090
L84830 74090
" />
<path d="M85060 74090
L85510 74090
" />
<path d="M85190 74880
L85280 74090
" />
<path d="M86280 74880
L86370 74090
L86560 74090
L86670 74130
L86730 74210
L86760 74280
L86780 74430
L86770 74540
L86710 74690
L86660 74770
L86580 74840
L86470 74880
L86280 74880
" />
<path d="M87070 74880
L87130 74360
" />
<path d="M87110 74510
L87160 74430
L87200 74390
L87280 74360
L87350 74360
" />
<path d="M87560 74880
L87620 74360
" />
<path d="M87650 74090
L87610 74130
L87640 74170
L87690 74130
L87650 74090
L87640 74170
" />
<path d="M87920 74360
L88050 74880
L88300 74360
" />
<path d="M88840 74840
L88760 74880
L88610 74880
L88540 74840
L88510 74770
L88550 74470
L88600 74390
L88670 74360
L88820 74360
L88900 74390
L88930 74470
L88920 74540
L88530 74620
" />
<path d="M89220 74880
L89280 74360
" />
<path d="M89260 74510
L89310 74430
L89350 74390
L89430 74360
L89500 74360
" />
</g>
<g style="fill:#840000; fill-opacity:0.0; 
stroke:#840000; stroke-width:100; stroke-opacity:1; 
stroke-linecap:round; stroke-linejoin:round;">
</g>
<g style="fill:#840000; fill-opacity:0.0; 
stroke:#840000; stroke-width:60; stroke-opacity:1; 
stroke-linecap:round; stroke-linejoin:round;">
<path d="M70420 73060
L70220 73060
" />
<path d="M70220 73370
L70220 72780
L70500 72780
" />
<path d="M70730 73370
L70730 72980
" />
<path d="M70730 72780
L70700 72810
L70730 72840
L70760 72810
L70730 72780
L70730 72840
" />
<path d="M71090 73370
L71040 73340
L71010 73290
L71010 72780
" />
<path d="M71550 73340
L71490 73370
L71380 73370
L71320 73340
L71290 73290
L71290 73060
L71320 73010
L71380 72980
L71490 72980
L71550 73010
L71570 73060
L71570 73120
L71290 73180
" />
<path d="M71830 73320
L71860 73340
L71830 73370
L71800 73340
L71830 73320
L71830 73370
" />
<path d="M71830 73010
L71860 73030
L71830 73060
L71800 73030
L71830 73010
L71830 73060
" />
<path d="M72560 72980
L72560 73570
" />
<path d="M72560 73010
L72620 72980
L72730 72980
L72790 73010
L72810 73030
L72840 73090
L72840 73260
L72810 73320
L72790 73340
L72730 73370
L72620 73370
L72560 73340
" />
<path d="M73170 73370
L73120 73340
L73090 73320
L73060 73260
L73060 73090
L73090 73030
L73120 73010
L73170 72980
L73260 72980
L73320 73010
L73340 73030
L73370 73090
L73370 73260
L73340 73320
L73320 73340
L73260 73370
L73170 73370
" />
<path d="M73560 72980
L73680 73370
L73790 73090
L73900 73370
L74010 72980
" />
<path d="M74470 73340
L74410 73370
L74300 73370
L74240 73340
L74210 73290
L74210 73060
L74240 73010
L74300 72980
L74410 72980
L74470 73010
L74490 73060
L74490 73120
L74210 73180
" />
<path d="M74750 73370
L74750 72980
" />
<path d="M74750 73090
L74780 73030
L74810 73010
L74860 72980
L74920 72980
" />
<path d="M75120 73370
L75120 72780
" />
<path d="M75120 73010
L75180 72980
L75290 72980
L75350 73010
L75370 73030
L75400 73090
L75400 73260
L75370 73320
L75350 73340
L75290 73370
L75180 73370
L75120 73340
" />
<path d="M75730 73370
L75680 73340
L75650 73320
L75620 73260
L75620 73090
L75650 73030
L75680 73010
L75730 72980
L75820 72980
L75880 73010
L75900 73030
L75930 73090
L75930 73260
L75900 73320
L75880 73340
L75820 73370
L75730 73370
" />
<path d="M76430 73370
L76430 73060
L76410 73010
L76350 72980
L76240 72980
L76180 73010
" />
<path d="M76430 73340
L76380 73370
L76240 73370
L76180 73340
L76150 73290
L76150 73230
L76180 73180
L76240 73150
L76380 73150
L76430 73120
" />
<path d="M76710 73370
L76710 72980
" />
<path d="M76710 73090
L76740 73030
L76770 73010
L76820 72980
L76880 72980
" />
<path d="M77330 73370
L77330 72780
" />
<path d="M77330 73340
L77280 73370
L77160 73370
L77110 73340
L77080 73320
L77050 73260
L77050 73090
L77080 73030
L77110 73010
L77160 72980
L77280 72980
L77330 73010
" />
<path d="M77470 73430
L77920 73430
" />
<path d="M78060 73370
L78060 72980
" />
<path d="M78060 73030
L78090 73010
L78140 72980
L78230 72980
L78290 73010
L78310 73060
L78310 73370
" />
<path d="M78310 73060
L78340 73010
L78400 72980
L78480 72980
L78540 73010
L78570 73060
L78570 73370
" />
<path d="M78930 73370
L78880 73340
L78850 73320
L78820 73260
L78820 73090
L78850 73030
L78880 73010
L78930 72980
L79020 72980
L79080 73010
L79100 73030
L79130 73090
L79130 73260
L79100 73320
L79080 73340
L79020 73370
L78930 73370
" />
<path d="M79350 73340
L79410 73370
L79520 73370
L79580 73340
L79610 73290
L79610 73260
L79580 73200
L79520 73180
L79440 73180
L79380 73150
L79350 73090
L79350 73060
L79380 73010
L79440 72980
L79520 72980
L79580 73010
" />
<path d="M79780 72980
L80000 72980
" />
<path d="M79860 73370
L79860 72870
L79890 72810
L79940 72780
L80000 72780
" />
<path d="M80430 73340
L80370 73370
L80260 73370
L80200 73340
L80170 73290
L80170 73060
L80200 73010
L80260 72980
L80370 72980
L80430 73010
L80450 73060
L80450 73120
L80170 73180
" />
<path d="M80630 72980
L80850 72980
" />
<path d="M80710 72780
L80710 73290
L80740 73340
L80790 73370
L80850 73370
" />
<path d="M80910 73430
L81360 73430
" />
<path d="M81750 73370
L81750 72780
" />
<path d="M81750 73340
L81700 73370
L81580 73370
L81530 73340
L81500 73320
L81470 73260
L81470 73090
L81500 73030
L81530 73010
L81580 72980
L81700 72980
L81750 73010
" />
<path d="M82030 73370
L82030 72980
" />
<path d="M82030 73090
L82060 73030
L82090 73010
L82140 72980
L82200 72980
" />
<path d="M82400 73370
L82400 72980
" />
<path d="M82400 72780
L82370 72810
L82400 72840
L82430 72810
L82400 72780
L82400 72840
" />
<path d="M82620 72980
L82760 73370
L82910 72980
" />
<path d="M83360 73340
L83300 73370
L83190 73370
L83130 73340
L83100 73290
L83100 73060
L83130 73010
L83190 72980
L83300 72980
L83360 73010
L83380 73060
L83380 73120
L83100 73180
" />
<path d="M83640 73370
L83640 72980
" />
<path d="M83640 73090
L83670 73030
L83700 73010
L83750 72980
L83810 72980
" />
<path d="M84010 73320
L84040 73340
L84010 73370
L83980 73340
L84010 73320
L84010 73370
" />
<path d="M84260 73340
L84320 73370
L84430 73370
L84490 73340
L84520 73290
L84520 73260
L84490 73200
L84430 73180
L84350 73180
L84290 73150
L84260 73090
L84260 73060
L84290 73010
L84350 72980
L84430 72980
L84490 73010
" />
<path d="M85020 73340
L84970 73370
L84850 73370
L84800 73340
L84770 73320
L84740 73260
L84740 73090
L84770 73030
L84800 73010
L84850 72980
L84970 72980
L85020 73010
" />
<path d="M85280 73370
L85280 72780
" />
<path d="M85530 73370
L85530 73060
L85510 73010
L85450 72980
L85360 72980
L85310 73010
L85280 73030
" />
</g>
<g style="fill:#840000; fill-opacity:0.0; 
stroke:#840000; stroke-width:100; stroke-opacity:1; 
stroke-linecap:round; stroke-linejoin:round;">
</g>
<g style="fill:#840000; fill-opacity:0.0; 
stroke:#840000; stroke-width:60; stroke-opacity:1; 
stroke-linecap:round; stroke-linejoin:round;">
<path d="M69690 71460
L112210 71460
" />
</g>
<g style="fill:#840000; fill-opacity:0.0; 
stroke:#840000; stroke-width:100; stroke-opacity:1; 
stroke-linecap:round; stroke-linejoin:round;">
</g>
<g style="fill:#840000; fill-opacity:0.0; 
stroke:#840000; stroke-width:60; stroke-opacity:1; 
stroke-linecap:round; stroke-linejoin:round;">
<path d="M70190 72280
L70280 72310
L70420 72310
L70470 72280
L70500 72260
L70530 72200
L70530 72140
L70500 72090
L70470 72060
L70420 72030
L70300 72000
L70250 71970
L70220 71950
L70190 71890
L70190 71830
L70220 71780
L70250 71750
L70300 71720
L70450 71720
L70530 71750
" />
<path d="M70780 72310
L70780 71720
" />
<path d="M71030 72310
L71030 72000
L71010 71950
L70950 71920
L70860 71920
L70810 71950
L70780 71970
" />
<path d="M71540 72280
L71480 72310
L71370 72310
L71310 72280
L71280 72230
L71280 72000
L71310 71950
L71370 71920
L71480 71920
L71540 71950
L71560 72000
L71560 72060
L71280 72120
" />
<path d="M72050 72280
L71990 72310
L71880 72310
L71820 72280
L71790 72230
L71790 72000
L71820 71950
L71880 71920
L71990 71920
L72050 71950
L72070 72000
L72070 72060
L71790 72120
" />
<path d="M72250 71920
L72470 71920
" />
<path d="M72330 71720
L72330 72230
L72360 72280
L72410 72310
L72470 72310
" />
<path d="M72670 72260
L72700 72280
L72670 72310
L72640 72280
L72670 72260
L72670 72310
" />
<path d="M72670 71950
L72700 71970
L72670 72000
L72640 71970
L72670 71950
L72670 72000
" />
<path d="M73820 71690
L73320 72450
" />
<path d="M74020 72310
L74020 71720
L74250 71720
L74300 71750
L74330 71780
L74360 71830
L74360 71920
L74330 71970
L74300 72000
L74250 72030
L74020 72030
" />
<path d="M74690 72310
L74640 72280
L74610 72260
L74580 72200
L74580 72030
L74610 71970
L74640 71950
L74690 71920
L74780 71920
L74840 71950
L74860 71970
L74890 72030
L74890 72200
L74860 72260
L74840 72280
L74780 72310
L74690 72310
" />
<path d="M75080 71920
L75200 72310
L75310 72030
L75420 72310
L75530 71920
" />
<path d="M75990 72280
L75930 72310
L75820 72310
L75760 72280
L75730 72230
L75730 72000
L75760 71950
L75820 71920
L75930 71920
L75990 71950
L76010 72000
L76010 72060
L75730 72120
" />
<path d="M76270 72310
L76270 71920
" />
<path d="M76270 72030
L76300 71970
L76330 71950
L76380 71920
L76440 71920
" />
<path d="M76640 72310
L76640 71720
" />
<path d="M76640 71950
L76700 71920
L76810 71920
L76870 71950
L76890 71970
L76920 72030
L76920 72200
L76890 72260
L76870 72280
L76810 72310
L76700 72310
L76640 72280
" />
<path d="M77250 72310
L77200 72280
L77170 72260
L77140 72200
L77140 72030
L77170 71970
L77200 71950
L77250 71920
L77340 71920
L77400 71950
L77420 71970
L77450 72030
L77450 72200
L77420 72260
L77400 72280
L77340 72310
L77250 72310
" />
<path d="M77950 72310
L77950 72000
L77930 71950
L77870 71920
L77760 71920
L77700 71950
" />
<path d="M77950 72280
L77900 72310
L77760 72310
L77700 72280
L77670 72230
L77670 72170
L77700 72120
L77760 72090
L77900 72090
L77950 72060
" />
<path d="M78230 72310
L78230 71920
" />
<path d="M78230 72030
L78260 71970
L78290 71950
L78340 71920
L78400 71920
" />
<path d="M78850 72310
L78850 71720
" />
<path d="M78850 72280
L78800 72310
L78680 72310
L78630 72280
L78600 72260
L78570 72200
L78570 72030
L78600 71970
L78630 71950
L78680 71920
L78800 71920
L78850 71950
" />
<path d="M78990 72370
L79440 72370
" />
<path d="M79580 72310
L79580 71720
L79780 72140
L79970 71720
L79970 72310
" />
<path d="M80360 71720
L80480 71720
L80530 71750
L80590 71810
L80620 71920
L80620 72120
L80590 72230
L80530 72280
L80480 72310
L80360 72310
L80310 72280
L80250 72230
L80220 72120
L80220 71920
L80250 71810
L80310 71750
L80360 71720
" />
<path d="M80840 72280
L80930 72310
L81070 72310
L81120 72280
L81150 72260
L81180 72200
L81180 72140
L81150 72090
L81120 72060
L81070 72030
L80950 72000
L80900 71970
L80870 71950
L80840 71890
L80840 71830
L80870 71780
L80900 71750
L80950 71720
L81100 71720
L81180 71750
" />
<path d="M81630 72000
L81430 72000
" />
<path d="M81430 72310
L81430 71720
L81710 71720
" />
<path d="M81940 72000
L82140 72000
" />
<path d="M82220 72310
L81940 72310
L81940 71720
L82220 71720
" />
<path d="M82390 71720
L82720 71720
" />
<path d="M82550 72310
L82550 71720
" />
<path d="M82780 72370
L83230 72370
" />
<path d="M83370 72310
L83370 71720
L83510 71720
L83600 71750
L83650 71810
L83680 71860
L83710 71970
L83710 72060
L83680 72170
L83650 72230
L83600 72280
L83510 72310
L83370 72310
" />
<path d="M83960 72310
L83960 71920
" />
<path d="M83960 72030
L83990 71970
L84020 71950
L84070 71920
L84130 71920
" />
<path d="M84330 72310
L84330 71920
" />
<path d="M84330 71720
L84300 71750
L84330 71780
L84360 71750
L84330 71720
L84330 71780
" />
<path d="M84550 71920
L84690 72310
L84840 71920
" />
<path d="M85290 72280
L85230 72310
L85120 72310
L85060 72280
L85030 72230
L85030 72000
L85060 71950
L85120 71920
L85230 71920
L85290 71950
L85310 72000
L85310 72060
L85030 72120
" />
<path d="M85570 72310
L85570 71920
" />
<path d="M85570 72030
L85600 71970
L85630 71950
L85680 71920
L85740 71920
" />
<path d="M86360 71690
L85860 72450
" />
</g>
<g style="fill:#840000; fill-opacity:0.0; 
stroke:#840000; stroke-width:100; stroke-opacity:1; 
stroke-linecap:round; stroke-linejoin:round;">
</g>
<g style="fill:#840000; fill-opacity:0.0; 
stroke:#840000; stroke-width:120; stroke-opacity:1; 
stroke-linecap:round; stroke-linejoin:round;">
<path d="M70140 70540
L70330 71130
L70530 70540
" />
<path d="M70730 71130
L70730 70540
" />
<path d="M71010 71130
L71010 70540
L71240 70540
L71290 70570
L71320 70600
L71350 70650
L71350 70740
L71320 70790
L71290 70820
L71240 70850
L71010 70850
" />
<path d="M71600 70820
L71800 70820
" />
<path d="M71880 71130
L71600 71130
L71600 70540
L71880 70540
" />
<path d="M72470 71130
L72270 70850
" />
<path d="M72130 71130
L72130 70540
L72360 70540
L72410 70570
L72440 70600
L72470 70650
L72470 70740
L72440 70790
L72410 70820
L72360 70850
L72130 70850
" />
</g>
<g style="fill:#840000; fill-opacity:0.0; 
stroke:#840000; stroke-width:100; stroke-opacity:1; 
stroke-linecap:round; stroke-linejoin:round;">
</g>
<g style="fill:#840000; fill-opacity:0.0; 
stroke:#840000; stroke-width:60; stroke-opacity:1; 
stroke-linecap:round; stroke-linejoin:round;">
<path d="M77560 75400
L77560 76580
" />
</g>
<g style="fill:#840000; fill-opacity:0.0; 
stroke:#840000; stroke-width:100; stroke-opacity:1; 
stroke-linecap:round; stroke-linejoin:round;">
</g>
<g style="fill:#840000; fill-opacity:0.0; 
stroke:#840000; stroke-width:60; stroke-opacity:1; 
stroke-linecap:round; stroke-linejoin:round;">
<path d="M102760 75400
L102760 77960
" />
</g>
<g style="fill:#840000; fill-opacity:0.0; 
stroke:#840000; stroke-width:0; stroke-opacity:1; 
stroke-linecap:round; stroke-linejoin:round;">
</g>
<g style="fill:#FFFFC2; fill-opacity:0.0; 
stroke:#FFFFC2; stroke-width:0; stroke-opacity:1; 
stroke-linecap:round; stroke-linejoin:round;">
</g>
<g style="fill:#FFFFC2; fill-opacity:0.6; 
stroke:#FFFFC2; stroke-width:0; stroke-opacity:1; 
stroke-linecap:round; stroke-linejoin:round;">
<rect x="53000" y="34000" width="7000" height="11000" rx="0" />
</g>
<g style="fill:#840000; fill-opacity:0.6; 
stroke:#840000; stroke-width:0; stroke-opacity:1; 
stroke-linecap:round; stroke-linejoin:round;">
</g>
<g style="fill:#840000; fill-opacity:0.0; 
stroke:#840000; stroke-width:60; stroke-opacity:1; 
stroke-linecap:round; stroke-linejoin:round;">
<rect x="53000" y="34000" width="7000" height="11000" rx="0" />
<path d="M53000 35000
L51000 35000
" />
</g>
<g style="fill:#008484; fill-opacity:0.0; 
stroke:#008484; stroke-width:60; stroke-opacity:1; 
stroke-linecap:round; stroke-linejoin:round;">
<path d="M53450 34730
L53610 35230
L53780 34730
" />
<path d="M54230 35180
L54210 35200
L54140 35230
L54090 35230
L54020 35200
L53970 35150
L53950 35110
L53930 35010
L53930 34940
L53950 34850
L53970 34800
L54020 34750
L54090 34730
L54140 34730
L54210 34750
L54230 34770
" />
<path d="M54730 35180
L54710 35200
L54640 35230
L54590 35230
L54520 35200
L54470 35150
L54450 35110
L54430 35010
L54430 34940
L54450 34850
L54470 34800
L54520 34750
L54590 34730
L54640 34730
L54710 34750
L54730 34770
" />
</g>
<g style="fill:#840000; fill-opacity:0.0; 
stroke:#840000; stroke-width:60; stroke-opacity:1; 
stroke-linecap:round; stroke-linejoin:round;">
<path d="M52140 34880
L51860 34880
" />
<path d="M52000 34880
L52000 34380
L51950 34450
L51900 34500
L51860 34520
" />
<path d="M53000 36000
L51000 36000
" />
</g>
<g style="fill:#008484; fill-opacity:0.0; 
stroke:#008484; stroke-width:60; stroke-opacity:1; 
stroke-linecap:round; stroke-linejoin:round;">
<path d="M53500 36080
L53730 36080
" />
<path d="M53450 36230
L53610 35730
L53780 36230
" />
<path d="M53830 36270
L54210 36270
" />
<path d="M54330 35960
L54500 35960
" />
<path d="M54570 36230
L54330 36230
L54330 35730
L54570 35730
" />
<path d="M54780 36230
L54780 35730
L55060 36230
L55060 35730
" />
</g>
<g style="fill:#840000; fill-opacity:0.0; 
stroke:#840000; stroke-width:60; stroke-opacity:1; 
stroke-linecap:round; stroke-linejoin:round;">
<path d="M51860 35420
L51880 35400
L51930 35380
L52050 35380
L52090 35400
L52120 35420
L52140 35470
L52140 35520
L52120 35590
L51830 35880
L52140 35880
" />
<path d="M53000 37000
L51000 37000
" />
</g>
<g style="fill:#008484; fill-opacity:0.0; 
stroke:#008484; stroke-width:60; stroke-opacity:1; 
stroke-linecap:round; stroke-linejoin:round;">
<path d="M53500 37080
L53730 37080
" />
<path d="M53450 37230
L53610 36730
L53780 37230
" />
</g>
<g style="fill:#840000; fill-opacity:0.0; 
stroke:#840000; stroke-width:60; stroke-opacity:1; 
stroke-linecap:round; stroke-linejoin:round;">
<path d="M51830 36380
L52140 36380
L51970 36570
L52050 36570
L52090 36590
L52120 36610
L52140 36660
L52140 36780
L52120 36830
L52090 36850
L52050 36880
L51900 36880
L51860 36850
L51830 36830
" />
<path d="M60000 36500
L62000 36500
" />
</g>
<g style="fill:#008484; fill-opacity:0.0; 
stroke:#008484; stroke-width:60; stroke-opacity:1; 
stroke-linecap:round; stroke-linejoin:round;">
<path d="M59270 36460
L59440 36460
" />
<path d="M59510 36730
L59270 36730
L59270 36230
L59510 36230
" />
</g>
<g style="fill:#840000; fill-opacity:0.0; 
stroke:#840000; stroke-width:60; stroke-opacity:1; 
stroke-linecap:round; stroke-linejoin:round;">
<path d="M61090 36040
L61090 36380
" />
<path d="M60970 35850
L60860 36210
L61160 36210
" />
<path d="M60000 38500
L62000 38500
" />
</g>
<g style="fill:#008484; fill-opacity:0.0; 
stroke:#008484; stroke-width:60; stroke-opacity:1; 
stroke-linecap:round; stroke-linejoin:round;">
<path d="M59460 38460
L59290 38460
" />
<path d="M59290 38730
L59290 38230
L59530 38230
" />
</g>
<g style="fill:#840000; fill-opacity:0.0; 
stroke:#840000; stroke-width:60; stroke-opacity:1; 
stroke-linecap:round; stroke-linejoin:round;">
<path d="M61120 37880
L60880 37880
L60860 38110
L60880 38090
L60930 38070
L61050 38070
L61090 38090
L61120 38110
L61140 38160
L61140 38280
L61120 38330
L61090 38350
L61050 38380
L60930 38380
L60880 38350
L60860 38330
" />
<path d="M53000 39000
L51000 39000
" />
</g>
<g style="fill:#008484; fill-opacity:0.0; 
stroke:#008484; stroke-width:60; stroke-opacity:1; 
stroke-linecap:round; stroke-linejoin:round;">
<path d="M53690 38960
L53760 38990
L53780 39010
L53800 39060
L53800 39130
L53780 39180
L53760 39200
L53710 39230
L53520 39230
L53520 38730
L53690 38730
L53730 38750
L53760 38770
L53780 38820
L53780 38870
L53760 38920
L53730 38940
L53690 38960
L53520 38960
" />
</g>
<g style="fill:#840000; fill-opacity:0.0; 
stroke:#840000; stroke-width:60; stroke-opacity:1; 
stroke-linecap:round; stroke-linejoin:round;">
<path d="M52090 38380
L52000 38380
L51950 38400
L51930 38420
L51880 38500
L51860 38590
L51860 38780
L51880 38830
L51900 38850
L51950 38880
L52050 38880
L52090 38850
L52120 38830
L52140 38780
L52140 38660
L52120 38610
L52090 38590
L52050 38570
L51950 38570
L51900 38590
L51880 38610
L51860 38660
" />
<path d="M53000 38000
L51000 38000
" />
</g>
<g style="fill:#008484; fill-opacity:0.0; 
stroke:#008484; stroke-width:60; stroke-opacity:1; 
stroke-linecap:round; stroke-linejoin:round;">
<path d="M53690 37960
L53760 37990
L53780 38010
L53800 38060
L53800 38130
L53780 38180
L53760 38200
L53710 38230
L53520 38230
L53520 37730
L53690 37730
L53730 37750
L53760 37770
L53780 37820
L53780 37870
L53760 37920
L53730 37940
L53690 37960
L53520 37960
" />
<path d="M53900 38270
L54280 38270
" />
<path d="M54400 37960
L54570 37960
" />
<path d="M54640 38230
L54400 38230
L54400 37730
L54640 37730
" />
<path d="M54850 38230
L54850 37730
L55130 38230
L55130 37730
" />
</g>
<g style="fill:#840000; fill-opacity:0.0; 
stroke:#840000; stroke-width:60; stroke-opacity:1; 
stroke-linecap:round; stroke-linejoin:round;">
<path d="M51830 37380
L52160 37380
L51950 37880
" />
<path d="M53000 44000
L51000 44000
" />
</g>
<g style="fill:#008484; fill-opacity:0.0; 
stroke:#008484; stroke-width:60; stroke-opacity:1; 
stroke-linecap:round; stroke-linejoin:round;">
<path d="M53450 43730
L53610 44230
L53780 43730
" />
<path d="M53930 44200
L54000 44230
L54120 44230
L54160 44200
L54190 44180
L54210 44130
L54210 44080
L54190 44040
L54160 44010
L54120 43990
L54020 43960
L53970 43940
L53950 43920
L53930 43870
L53930 43820
L53950 43770
L53970 43750
L54020 43730
L54140 43730
L54210 43750
" />
<path d="M54410 44200
L54480 44230
L54600 44230
L54640 44200
L54670 44180
L54690 44130
L54690 44080
L54670 44040
L54640 44010
L54600 43990
L54500 43960
L54450 43940
L54430 43920
L54410 43870
L54410 43820
L54430 43770
L54450 43750
L54500 43730
L54620 43730
L54690 43750
" />
</g>
<g style="fill:#840000; fill-opacity:0.0; 
stroke:#840000; stroke-width:60; stroke-opacity:1; 
stroke-linecap:round; stroke-linejoin:round;">
<path d="M51950 43590
L51900 43570
L51880 43540
L51860 43500
L51860 43470
L51880 43420
L51900 43400
L51950 43380
L52050 43380
L52090 43400
L52120 43420
L52140 43470
L52140 43500
L52120 43540
L52090 43570
L52050 43590
L51950 43590
L51900 43610
L51880 43640
L51860 43690
L51860 43780
L51880 43830
L51900 43850
L51950 43880
L52050 43880
L52090 43850
L52120 43830
L52140 43780
L52140 43690
L52120 43640
L52090 43610
L52050 43590
" />
<path d="M53000 40000
L51000 40000
" />
</g>
<g style="fill:#008484; fill-opacity:0.0; 
stroke:#008484; stroke-width:60; stroke-opacity:1; 
stroke-linecap:round; stroke-linejoin:round;">
<path d="M53800 40180
L53780 40200
L53710 40230
L53660 40230
L53590 40200
L53540 40150
L53520 40110
L53500 40010
L53500 39940
L53520 39850
L53540 39800
L53590 39750
L53660 39730
L53710 39730
L53780 39750
L53800 39770
" />
<path d="M53900 40270
L54280 40270
" />
<path d="M54400 39960
L54570 39960
" />
<path d="M54640 40230
L54400 40230
L54400 39730
L54640 39730
" />
<path d="M54850 40230
L54850 39730
L55130 40230
L55130 39730
" />
</g>
<g style="fill:#840000; fill-opacity:0.0; 
stroke:#840000; stroke-width:60; stroke-opacity:1; 
stroke-linecap:round; stroke-linejoin:round;">
<path d="M51900 39880
L52000 39880
L52050 39850
L52070 39830
L52120 39760
L52140 39660
L52140 39470
L52120 39420
L52090 39400
L52050 39380
L51950 39380
L51900 39400
L51880 39420
L51860 39470
L51860 39590
L51880 39640
L51900 39660
L51950 39690
L52050 39690
L52090 39660
L52120 39640
L52140 39590
" />
<path d="M53000 41000
L51000 41000
" />
</g>
<g style="fill:#008484; fill-opacity:0.0; 
stroke:#008484; stroke-width:60; stroke-opacity:1; 
stroke-linecap:round; stroke-linejoin:round;">
<path d="M53800 41180
L53780 41200
L53710 41230
L53660 41230
L53590 41200
L53540 41150
L53520 41110
L53500 41010
L53500 40940
L53520 40850
L53540 40800
L53590 40750
L53660 40730
L53710 40730
L53780 40750
L53800 40770
" />
</g>
<g style="fill:#840000; fill-opacity:0.0; 
stroke:#840000; stroke-width:60; stroke-opacity:1; 
stroke-linecap:round; stroke-linejoin:round;">
<path d="M51900 40880
L51620 40880
" />
<path d="M51760 40880
L51760 40380
L51710 40450
L51660 40500
L51620 40520
" />
<path d="M52210 40380
L52260 40380
L52310 40400
L52330 40420
L52360 40470
L52380 40570
L52380 40690
L52360 40780
L52330 40830
L52310 40850
L52260 40880
L52210 40880
L52170 40850
L52140 40830
L52120 40780
L52100 40690
L52100 40570
L52120 40470
L52140 40420
L52170 40400
L52210 40380
" />
<path d="M60000 40500
L62000 40500
" />
</g>
<g style="fill:#008484; fill-opacity:0.0; 
stroke:#008484; stroke-width:60; stroke-opacity:1; 
stroke-linecap:round; stroke-linejoin:round;">
<path d="M59480 40250
L59430 40230
L59360 40230
L59290 40250
L59240 40300
L59220 40350
L59200 40440
L59200 40510
L59220 40610
L59240 40650
L59290 40700
L59360 40730
L59410 40730
L59480 40700
L59500 40680
L59500 40510
L59410 40510
" />
</g>
<g style="fill:#840000; fill-opacity:0.0; 
stroke:#840000; stroke-width:60; stroke-opacity:1; 
stroke-linecap:round; stroke-linejoin:round;">
<path d="M60900 40380
L60620 40380
" />
<path d="M60760 40380
L60760 39880
L60710 39950
L60660 40000
L60620 40020
" />
<path d="M61380 40380
L61100 40380
" />
<path d="M61240 40380
L61240 39880
L61190 39950
L61140 40000
L61100 40020
" />
<path d="M60000 44000
L62000 44000
" />
<path d="M61880 43880
L62120 44120
" />
<path d="M62120 43880
L61880 44120
" />
</g>
<g style="fill:#008484; fill-opacity:0.0; 
stroke:#008484; stroke-width:60; stroke-opacity:1; 
stroke-linecap:round; stroke-linejoin:round;">
<path d="M58700 44230
L58700 43730
L58980 44230
L58980 43730
" />
<path d="M59500 44180
L59480 44200
L59410 44230
L59360 44230
L59290 44200
L59240 44150
L59220 44110
L59200 44010
L59200 43940
L59220 43850
L59240 43800
L59290 43750
L59360 43730
L59410 43730
L59480 43750
L59500 43770
" />
</g>
<g style="fill:#840000; fill-opacity:0.0; 
stroke:#840000; stroke-width:60; stroke-opacity:1; 
stroke-linecap:round; stroke-linejoin:round;">
<path d="M60900 43880
L60620 43880
" />
<path d="M60760 43880
L60760 43380
L60710 43450
L60660 43500
L60620 43520
" />
<path d="M61100 43420
L61120 43400
L61170 43380
L61290 43380
L61330 43400
L61360 43420
L61380 43470
L61380 43520
L61360 43590
L61070 43880
L61380 43880
" />
<path d="M60000 42500
L62000 42500
" />
</g>
<g style="fill:#008484; fill-opacity:0.0; 
stroke:#008484; stroke-width:60; stroke-opacity:1; 
stroke-linecap:round; stroke-linejoin:round;">
<path d="M59200 42730
L59200 42230
" />
<path d="M59200 42460
L59480 42460
" />
<path d="M59480 42730
L59480 42230
" />
</g>
<g style="fill:#840000; fill-opacity:0.0; 
stroke:#840000; stroke-width:60; stroke-opacity:1; 
stroke-linecap:round; stroke-linejoin:round;">
<path d="M60900 42380
L60620 42380
" />
<path d="M60760 42380
L60760 41880
L60710 41950
L60660 42000
L60620 42020
" />
<path d="M61070 41880
L61380 41880
L61210 42070
L61290 42070
L61330 42090
L61360 42110
L61380 42160
L61380 42280
L61360 42330
L61330 42350
L61290 42380
L61140 42380
L61100 42350
L61070 42330
" />
<path d="M53000 43000
L51000 43000
" />
</g>
<g style="fill:#008484; fill-opacity:0.0; 
stroke:#008484; stroke-width:60; stroke-opacity:1; 
stroke-linecap:round; stroke-linejoin:round;">
<path d="M53520 43230
L53520 42730
L53640 42730
L53710 42750
L53760 42800
L53780 42850
L53800 42940
L53800 43010
L53780 43110
L53760 43150
L53710 43200
L53640 43230
L53520 43230
" />
</g>
<g style="fill:#840000; fill-opacity:0.0; 
stroke:#840000; stroke-width:60; stroke-opacity:1; 
stroke-linecap:round; stroke-linejoin:round;">
<path d="M51900 42880
L51620 42880
" />
<path d="M51760 42880
L51760 42380
L51710 42450
L51660 42500
L51620 42520
" />
<path d="M52330 42540
L52330 42880
" />
<path d="M52210 42350
L52100 42710
L52400 42710
" />
<path d="M53000 42000
L51000 42000
" />
</g>
<g style="fill:#008484; fill-opacity:0.0; 
stroke:#008484; stroke-width:60; stroke-opacity:1; 
stroke-linecap:round; stroke-linejoin:round;">
<path d="M53520 42230
L53520 41730
L53640 41730
L53710 41750
L53760 41800
L53780 41850
L53800 41940
L53800 42010
L53780 42110
L53760 42150
L53710 42200
L53640 42230
L53520 42230
" />
<path d="M53900 42270
L54280 42270
" />
<path d="M54400 41960
L54570 41960
" />
<path d="M54640 42230
L54400 42230
L54400 41730
L54640 41730
" />
<path d="M54850 42230
L54850 41730
L55130 42230
L55130 41730
" />
</g>
<g style="fill:#840000; fill-opacity:0.0; 
stroke:#840000; stroke-width:60; stroke-opacity:1; 
stroke-linecap:round; stroke-linejoin:round;">
<path d="M51900 41880
L51620 41880
" />
<path d="M51760 41880
L51760 41380
L51710 41450
L51660 41500
L51620 41520
" />
<path d="M52360 41380
L52120 41380
L52100 41610
L52120 41590
L52170 41570
L52290 41570
L52330 41590
L52360 41610
L52380 41660
L52380 41780
L52360 41830
L52330 41850
L52290 41880
L52170 41880
L52120 41850
L52100 41830
" />
<path d="M60000 35000
L62000 35000
" />
</g>
<g style="fill:#008484; fill-opacity:0.0; 
stroke:#008484; stroke-width:60; stroke-opacity:1; 
stroke-linecap:round; stroke-linejoin:round;">
<path d="M58220 34730
L58380 35230
L58550 34730
" />
<path d="M58720 35230
L58720 34730
L58840 34730
L58910 34750
L58960 34800
L58980 34850
L59000 34940
L59000 35010
L58980 35110
L58960 35150
L58910 35200
L58840 35230
L58720 35230
" />
<path d="M59220 35230
L59220 34730
L59340 34730
L59410 34750
L59460 34800
L59480 34850
L59500 34940
L59500 35010
L59480 35110
L59460 35150
L59410 35200
L59340 35230
L59220 35230
" />
</g>
<g style="fill:#840000; fill-opacity:0.0; 
stroke:#840000; stroke-width:60; stroke-opacity:1; 
stroke-linecap:round; stroke-linejoin:round;">
<path d="M60900 34880
L60620 34880
" />
<path d="M60760 34880
L60760 34380
L60710 34450
L60660 34500
L60620 34520
" />
<path d="M61330 34380
L61240 34380
L61190 34400
L61170 34420
L61120 34500
L61100 34590
L61100 34780
L61120 34830
L61140 34850
L61190 34880
L61290 34880
L61330 34850
L61360 34830
L61380 34780
L61380 34660
L61360 34610
L61330 34590
L61290 34570
L61190 34570
L61140 34590
L61120 34610
L61100 34660
" />
</g>
<g style="fill:#008484; fill-opacity:0.0; 
stroke:#008484; stroke-width:60; stroke-opacity:1; 
stroke-linecap:round; stroke-linejoin:round;">
<path d="M55190 45210
L55190 45700
L55220 45750
L55250 45780
L55310 45810
L55420 45810
L55480 45780
L55510 45750
L55540 45700
L55540 45210
" />
<path d="M56140 45810
L55790 45810
" />
<path d="M55970 45810
L55970 45210
L55910 45300
L55850 45350
L55790 45380
" />
<path d="M56360 45270
L56390 45240
L56450 45210
L56590 45210
L56650 45240
L56680 45270
L56710 45330
L56710 45380
L56680 45470
L56340 45810
L56710 45810
" />
<path d="M57080 45210
L57130 45210
L57190 45240
L57220 45270
L57250 45330
L57280 45440
L57280 45580
L57250 45700
L57220 45750
L57190 45780
L57130 45810
L57080 45810
L57020 45780
L56990 45750
L56960 45700
L56930 45580
L56930 45440
L56960 45330
L56990 45270
L57020 45240
L57080 45210
" />
<path d="M57850 45810
L57500 45810
" />
<path d="M57680 45810
L57680 45210
L57620 45300
L57560 45350
L57500 45380
" />
<path d="M54670 33750
L54640 33780
L54550 33810
L54490 33810
L54410 33780
L54350 33730
L54320 33670
L54290 33550
L54290 33470
L54320 33350
L54350 33300
L54410 33240
L54490 33210
L54550 33210
L54640 33240
L54670 33270
" />
<path d="M54920 33810
L54920 33210
L55070 33210
L55150 33240
L55210 33300
L55240 33350
L55270 33470
L55270 33550
L55240 33670
L55210 33730
L55150 33780
L55070 33810
L54920 33810
" />
<path d="M55780 33410
L55780 33810
" />
<path d="M55640 33180
L55490 33610
L55870 33610
" />
<path d="M56210 33210
L56260 33210
L56320 33240
L56350 33270
L56380 33330
L56410 33440
L56410 33580
L56380 33700
L56350 33750
L56320 33780
L56260 33810
L56210 33810
L56150 33780
L56120 33750
L56090 33700
L56060 33580
L56060 33440
L56090 33330
L56120 33270
L56150 33240
L56210 33210
" />
<path d="M56980 33810
L56630 33810
" />
<path d="M56810 33810
L56810 33210
L56750 33300
L56690 33350
L56630 33380
" />
<path d="M57350 33210
L57400 33210
L57460 33240
L57490 33270
L57520 33330
L57550 33440
L57550 33580
L57520 33700
L57490 33750
L57460 33780
L57400 33810
L57350 33810
L57290 33780
L57260 33750
L57230 33700
L57200 33580
L57200 33440
L57230 33330
L57260 33270
L57290 33240
L57350 33210
" />
<path d="M57830 33810
L57950 33810
L58000 33780
L58030 33750
L58090 33670
L58120 33550
L58120 33330
L58090 33270
L58060 33240
L58000 33210
L57890 33210
L57830 33240
L57800 33270
L57770 33330
L57770 33470
L57800 33530
L57830 33550
L57890 33580
L58000 33580
L58060 33550
L58090 33530
L58120 33470
" />
<path d="M58570 33500
L58660 33530
L58690 33550
L58720 33610
L58720 33700
L58690 33750
L58660 33780
L58600 33810
L58370 33810
L58370 33210
L58570 33210
L58630 33240
L58660 33270
L58690 33330
L58690 33380
L58660 33440
L58630 33470
L58570 33500
L58370 33500
" />
</g>
<g style="fill:#848400; fill-opacity:0.0; 
stroke:#848400; stroke-width:60; stroke-opacity:1; 
stroke-linecap:round; stroke-linejoin:round;">
<path d="M45490 37270
L45490 36670
" />
<path d="M45780 37270
L45780 36670
L46130 37270
L46130 36670
" />
<path d="M46270 37330
L46730 37330
" />
<path d="M46840 37100
L47130 37100
" />
<path d="M46790 37270
L46990 36670
L47190 37270
" />
</g>
<g style="fill:#848400; fill-opacity:0.0; 
stroke:#848400; stroke-width:100; stroke-opacity:1; 
stroke-linecap:round; stroke-linejoin:round;">
<polyline fill="none;"
points="48000,37000
47700,36700
47400,36700
47400,37300
47700,37300
48000,37000
" /> 
</g>
<g style="fill:#848400; fill-opacity:0.0; 
stroke:#848400; stroke-width:60; stroke-opacity:1; 
stroke-linecap:round; stroke-linejoin:round;">
<path d="M45400 39270
L45400 38670
" />
<path d="M45690 39270
L45690 38670
L46040 39270
L46040 38670
" />
<path d="M46180 39330
L46640 39330
" />
<path d="M46980 38960
L47070 38990
L47100 39010
L47130 39070
L47130 39160
L47100 39210
L47070 39240
L47010 39270
L46780 39270
L46780 38670
L46980 38670
L47040 38700
L47070 38730
L47100 38790
L47100 38840
L47070 38900
L47040 38930
L46980 38960
L46780 38960
" />
</g>
<g style="fill:#848400; fill-opacity:0.0; 
stroke:#848400; stroke-width:100; stroke-opacity:1; 
stroke-linecap:round; stroke-linejoin:round;">
<polyline fill="none;"
points="48000,39000
47700,38700
47400,38700
47400,39300
47700,39300
48000,39000
" /> 
</g>
<g style="fill:#848400; fill-opacity:0.0; 
stroke:#848400; stroke-width:60; stroke-opacity:1; 
stroke-linecap:round; stroke-linejoin:round;">
<path d="M45400 41270
L45400 40670
" />
<path d="M45690 41270
L45690 40670
L46040 41270
L46040 40670
" />
<path d="M46180 41330
L46640 41330
" />
<path d="M47130 41210
L47100 41240
L47010 41270
L46950 41270
L46870 41240
L46810 41190
L46780 41130
L46750 41010
L46750 40930
L46780 40810
L46810 40760
L46870 40700
L46950 40670
L47010 40670
L47100 40700
L47130 40730
" />
</g>
<g style="fill:#848400; fill-opacity:0.0; 
stroke:#848400; stroke-width:100; stroke-opacity:1; 
stroke-linecap:round; stroke-linejoin:round;">
<polyline fill="none;"
points="48000,41000
47700,40700
47400,40700
47400,41300
47700,41300
48000,41000
" /> 
</g>
<g style="fill:#848400; fill-opacity:0.0; 
stroke:#848400; stroke-width:0; stroke-opacity:1; 
stroke-linecap:round; stroke-linejoin:round;">
</g>
<g style="fill:#840000; fill-opacity:0.0; 
stroke:#840000; stroke-width:0; stroke-opacity:1; 
stroke-linecap:round; stroke-linejoin:round;">
</g>
<g style="fill:#840000; fill-opacity:0.0; 
stroke:#840000; stroke-width:60; stroke-opacity:1; 
stroke-linecap:round; stroke-linejoin:round;">
<polyline fill="none;"
points="49700,33500
50000,33000
" /> 
<polyline fill="none;"
points="50000,34000
50000,33000
" /> 
<polyline fill="none;"
points="50000,33000
50300,33500
" /> 
</g>
<g style="fill:#008484; fill-opacity:0.0; 
stroke:#008484; stroke-width:60; stroke-opacity:1; 
stroke-linecap:round; stroke-linejoin:round;">
<path d="M49120 32670
L49500 32670
" />
<path d="M49310 32860
L49310 32480
" />
<path d="M49690 32360
L50000 32360
L49830 32550
L49910 32550
L49950 32570
L49980 32590
L50000 32640
L50000 32760
L49980 32810
L49950 32830
L49910 32860
L49760 32860
L49720 32830
L49690 32810
" />
<path d="M50150 32360
L50310 32860
L50480 32360
" />
<path d="M50600 32360
L50910 32360
L50740 32550
L50820 32550
L50860 32570
L50890 32590
L50910 32640
L50910 32760
L50890 32810
L50860 32830
L50820 32860
L50670 32860
L50630 32830
L50600 32810
" />
</g>
<g style="fill:#008484; fill-opacity:0.0; 
stroke:#008484; stroke-width:0; stroke-opacity:1; 
stroke-linecap:round; stroke-linejoin:round;">
</g>
<g style="fill:#840000; fill-opacity:0.0; 
stroke:#840000; stroke-width:0; stroke-opacity:1; 
stroke-linecap:round; stroke-linejoin:round;">
</g>
<g style="fill:#840000; fill-opacity:0.0; 
stroke:#840000; stroke-width:60; stroke-opacity:1; 
stroke-linecap:round; stroke-linejoin:round;">
<polyline fill="none;"
points="62700,33500
63000,33000
" /> 
<polyline fill="none;"
points="63000,34000
63000,33000
" /> 
<polyline fill="none;"
points="63000,33000
63300,33500
" /> 
</g>
<g style="fill:#008484; fill-opacity:0.0; 
stroke:#008484; stroke-width:60; stroke-opacity:1; 
stroke-linecap:round; stroke-linejoin:round;">
<path d="M62120 32670
L62500 32670
" />
<path d="M62310 32860
L62310 32480
" />
<path d="M63000 32860
L62720 32860
" />
<path d="M62860 32860
L62860 32360
L62810 32430
L62760 32480
L62720 32500
" />
<path d="M63200 32400
L63220 32380
L63270 32360
L63390 32360
L63430 32380
L63460 32400
L63480 32450
L63480 32500
L63460 32570
L63170 32860
L63480 32860
" />
<path d="M63630 32360
L63790 32860
L63960 32360
" />
</g>
<g style="fill:#848400; fill-opacity:0.0; 
stroke:#848400; stroke-width:60; stroke-opacity:1; 
stroke-linecap:round; stroke-linejoin:round;">
<path d="M64020 36170
L64130 36170
L64190 36200
L64250 36260
L64270 36370
L64270 36570
L64250 36690
L64190 36740
L64130 36770
L64020 36770
L63960 36740
L63900 36690
L63870 36570
L63870 36370
L63900 36260
L63960 36200
L64020 36170
" />
<path d="M64530 36170
L64530 36660
L64560 36710
L64590 36740
L64650 36770
L64760 36770
L64820 36740
L64850 36710
L64880 36660
L64880 36170
" />
<path d="M65080 36170
L65420 36170
" />
<path d="M65250 36770
L65250 36170
" />
<path d="M65480 36830
L65940 36830
" />
<path d="M66050 36600
L66340 36600
" />
<path d="M66000 36770
L66200 36170
L66400 36770
" />
</g>
<g style="fill:#848400; fill-opacity:0.0; 
stroke:#848400; stroke-width:100; stroke-opacity:1; 
stroke-linecap:round; stroke-linejoin:round;">
<polyline fill="none;"
points="63600,36500
63300,36200
63000,36200
63000,36800
63300,36800
63600,36500
" /> 
</g>
<g style="fill:#848400; fill-opacity:0.0; 
stroke:#848400; stroke-width:60; stroke-opacity:1; 
stroke-linecap:round; stroke-linejoin:round;">
<path d="M64020 38170
L64130 38170
L64190 38200
L64250 38260
L64270 38370
L64270 38570
L64250 38690
L64190 38740
L64130 38770
L64020 38770
L63960 38740
L63900 38690
L63870 38570
L63870 38370
L63900 38260
L63960 38200
L64020 38170
" />
<path d="M64530 38170
L64530 38660
L64560 38710
L64590 38740
L64650 38770
L64760 38770
L64820 38740
L64850 38710
L64880 38660
L64880 38170
" />
<path d="M65080 38170
L65420 38170
" />
<path d="M65250 38770
L65250 38170
" />
<path d="M65480 38830
L65940 38830
" />
<path d="M66280 38460
L66370 38490
L66400 38510
L66430 38570
L66430 38660
L66400 38710
L66370 38740
L66310 38770
L66080 38770
L66080 38170
L66280 38170
L66340 38200
L66370 38230
L66400 38290
L66400 38340
L66370 38400
L66340 38430
L66280 38460
L66080 38460
" />
</g>
<g style="fill:#848400; fill-opacity:0.0; 
stroke:#848400; stroke-width:100; stroke-opacity:1; 
stroke-linecap:round; stroke-linejoin:round;">
<polyline fill="none;"
points="63600,38500
63300,38200
63000,38200
63000,38800
63300,38800
63600,38500
" /> 
</g>
<g style="fill:#848400; fill-opacity:0.0; 
stroke:#848400; stroke-width:60; stroke-opacity:1; 
stroke-linecap:round; stroke-linejoin:round;">
<path d="M64020 40170
L64130 40170
L64190 40200
L64250 40260
L64270 40370
L64270 40570
L64250 40690
L64190 40740
L64130 40770
L64020 40770
L63960 40740
L63900 40690
L63870 40570
L63870 40370
L63900 40260
L63960 40200
L64020 40170
" />
<path d="M64530 40170
L64530 40660
L64560 40710
L64590 40740
L64650 40770
L64760 40770
L64820 40740
L64850 40710
L64880 40660
L64880 40170
" />
<path d="M65080 40170
L65420 40170
" />
<path d="M65250 40770
L65250 40170
" />
<path d="M65480 40830
L65940 40830
" />
<path d="M66430 40710
L66400 40740
L66310 40770
L66250 40770
L66170 40740
L66110 40690
L66080 40630
L66050 40510
L66050 40430
L66080 40310
L66110 40260
L66170 40200
L66250 40170
L66310 40170
L66400 40200
L66430 40230
" />
</g>
<g style="fill:#848400; fill-opacity:0.0; 
stroke:#848400; stroke-width:100; stroke-opacity:1; 
stroke-linecap:round; stroke-linejoin:round;">
<polyline fill="none;"
points="63600,40500
63300,40200
63000,40200
63000,40800
63300,40800
63600,40500
" /> 
</g>
<g style="fill:#848400; fill-opacity:0.0; 
stroke:#848400; stroke-width:0; stroke-opacity:1; 
stroke-linecap:round; stroke-linejoin:round;">
</g>
<g style="fill:#840000; fill-opacity:0.0; 
stroke:#840000; stroke-width:0; stroke-opacity:1; 
stroke-linecap:round; stroke-linejoin:round;">
</g>
<g style="fill:#840000; fill-opacity:0.0; 
stroke:#840000; stroke-width:200; stroke-opacity:1; 
stroke-linecap:round; stroke-linejoin:round;">
<polyline fill="none;"
points="52700,25300
54300,25300
" /> 
<polyline fill="none;"
points="52700,24700
54300,24700
" /> 
</g>
<g style="fill:#840000; fill-opacity:0.0; 
stroke:#840000; stroke-width:60; stroke-opacity:1; 
stroke-linecap:round; stroke-linejoin:round;">
<path d="M53500 24600
L53500 23500
" />
<path d="M53500 25400
L53500 26500
" />
</g>
<g style="fill:#008484; fill-opacity:0.0; 
stroke:#008484; stroke-width:60; stroke-opacity:1; 
stroke-linecap:round; stroke-linejoin:round;">
<path d="M54150 24210
L54130 24230
L54060 24260
L54010 24260
L53940 24230
L53890 24180
L53870 24140
L53850 24040
L53850 23970
L53870 23880
L53890 23830
L53940 23780
L54010 23760
L54060 23760
L54130 23780
L54150 23800
" />
<path d="M54630 24260
L54350 24260
" />
<path d="M54490 24260
L54490 23760
L54440 23830
L54390 23880
L54350 23900
" />
<path d="M54830 23800
L54850 23780
L54900 23760
L55020 23760
L55060 23780
L55090 23800
L55110 23850
L55110 23900
L55090 23970
L54800 24260
L55110 24260
" />
<path d="M55420 23760
L55470 23760
L55520 23780
L55540 23800
L55570 23850
L55590 23950
L55590 24070
L55570 24160
L55540 24210
L55520 24230
L55470 24260
L55420 24260
L55380 24230
L55350 24210
L55330 24160
L55310 24070
L55310 23950
L55330 23850
L55350 23800
L55380 23780
L55420 23760
" />
<path d="M56070 24260
L55790 24260
" />
<path d="M55930 24260
L55930 23760
L55880 23830
L55830 23880
L55790 23900
" />
<path d="M54130 26260
L53850 26260
" />
<path d="M53990 26260
L53990 25760
L53940 25830
L53890 25880
L53850 25900
" />
<path d="M54440 25760
L54490 25760
L54540 25780
L54560 25800
L54590 25850
L54610 25950
L54610 26070
L54590 26160
L54560 26210
L54540 26230
L54490 26260
L54440 26260
L54400 26230
L54370 26210
L54350 26160
L54330 26070
L54330 25950
L54350 25850
L54370 25800
L54400 25780
L54440 25760
" />
<path d="M54920 25760
L54970 25760
L55020 25780
L55040 25800
L55070 25850
L55090 25950
L55090 26070
L55070 26160
L55040 26210
L55020 26230
L54970 26260
L54920 26260
L54880 26230
L54850 26210
L54830 26160
L54810 26070
L54810 25950
L54830 25850
L54850 25800
L54880 25780
L54920 25760
" />
<path d="M55310 25920
L55310 26260
" />
<path d="M55310 25970
L55330 25950
L55380 25920
L55450 25920
L55500 25950
L55520 25990
L55520 26260
" />
</g>
<g style="fill:#008484; fill-opacity:0.0; 
stroke:#008484; stroke-width:0; stroke-opacity:1; 
stroke-linecap:round; stroke-linejoin:round;">
</g>
<g style="fill:#840000; fill-opacity:0.0; 
stroke:#840000; stroke-width:0; stroke-opacity:1; 
stroke-linecap:round; stroke-linejoin:round;">
</g>
<g style="fill:#840000; fill-opacity:0.0; 
stroke:#840000; stroke-width:200; stroke-opacity:1; 
stroke-linecap:round; stroke-linejoin:round;">
<polyline fill="none;"
points="56700,25300
58300,25300
" /> 
<polyline fill="none;"
points="56700,24700
58300,24700
" /> 
</g>
<g style="fill:#840000; fill-opacity:0.0; 
stroke:#840000; stroke-width:60; stroke-opacity:1; 
stroke-linecap:round; stroke-linejoin:round;">
<path d="M57500 24600
L57500 23500
" />
<path d="M57500 25400
L57500 26500
" />
</g>
<g style="fill:#008484; fill-opacity:0.0; 
stroke:#008484; stroke-width:60; stroke-opacity:1; 
stroke-linecap:round; stroke-linejoin:round;">
<path d="M58150 24210
L58130 24230
L58060 24260
L58010 24260
L57940 24230
L57890 24180
L57870 24140
L57850 24040
L57850 23970
L57870 23880
L57890 23830
L57940 23780
L58010 23760
L58060 23760
L58130 23780
L58150 23800
" />
<path d="M58630 24260
L58350 24260
" />
<path d="M58490 24260
L58490 23760
L58440 23830
L58390 23880
L58350 23900
" />
<path d="M58830 23800
L58850 23780
L58900 23760
L59020 23760
L59060 23780
L59090 23800
L59110 23850
L59110 23900
L59090 23970
L58800 24260
L59110 24260
" />
<path d="M59420 23760
L59470 23760
L59520 23780
L59540 23800
L59570 23850
L59590 23950
L59590 24070
L59570 24160
L59540 24210
L59520 24230
L59470 24260
L59420 24260
L59380 24230
L59350 24210
L59330 24160
L59310 24070
L59310 23950
L59330 23850
L59350 23800
L59380 23780
L59420 23760
" />
<path d="M59790 23800
L59810 23780
L59860 23760
L59980 23760
L60020 23780
L60050 23800
L60070 23850
L60070 23900
L60050 23970
L59760 24260
L60070 24260
" />
<path d="M58130 26260
L57850 26260
" />
<path d="M57990 26260
L57990 25760
L57940 25830
L57890 25880
L57850 25900
" />
<path d="M58440 25760
L58490 25760
L58540 25780
L58560 25800
L58590 25850
L58610 25950
L58610 26070
L58590 26160
L58560 26210
L58540 26230
L58490 26260
L58440 26260
L58400 26230
L58370 26210
L58350 26160
L58330 26070
L58330 25950
L58350 25850
L58370 25800
L58400 25780
L58440 25760
" />
<path d="M58920 25760
L58970 25760
L59020 25780
L59040 25800
L59070 25850
L59090 25950
L59090 26070
L59070 26160
L59040 26210
L59020 26230
L58970 26260
L58920 26260
L58880 26230
L58850 26210
L58830 26160
L58810 26070
L58810 25950
L58830 25850
L58850 25800
L58880 25780
L58920 25760
" />
<path d="M59310 25920
L59310 26260
" />
<path d="M59310 25970
L59330 25950
L59380 25920
L59450 25920
L59500 25950
L59520 25990
L59520 26260
" />
</g>
<g style="fill:#008484; fill-opacity:0.0; 
stroke:#008484; stroke-width:0; stroke-opacity:1; 
stroke-linecap:round; stroke-linejoin:round;">
</g>
<g style="fill:#840000; fill-opacity:0.0; 
stroke:#840000; stroke-width:0; stroke-opacity:1; 
stroke-linecap:round; stroke-linejoin:round;">
</g>
<g style="fill:#840000; fill-opacity:0.0; 
stroke:#840000; stroke-width:60; stroke-opacity:1; 
stroke-linecap:round; stroke-linejoin:round;">
<polyline fill="none;"
points="53200,22000
53500,21500
" /> 
<polyline fill="none;"
points="53500,22500
53500,21500
" /> 
<polyline fill="none;"
points="53500,21500
53800,22000
" /> 
</g>
<g style="fill:#008484; fill-opacity:0.0; 
stroke:#008484; stroke-width:60; stroke-opacity:1; 
stroke-linecap:round; stroke-linejoin:round;">
<path d="M52620 21170
L53000 21170
" />
<path d="M52810 21360
L52810 20980
" />
<path d="M53190 20860
L53500 20860
L53330 21050
L53410 21050
L53450 21070
L53480 21090
L53500 21140
L53500 21260
L53480 21310
L53450 21330
L53410 21360
L53260 21360
L53220 21330
L53190 21310
" />
<path d="M53650 20860
L53810 21360
L53980 20860
" />
<path d="M54100 20860
L54410 20860
L54240 21050
L54320 21050
L54360 21070
L54390 21090
L54410 21140
L54410 21260
L54390 21310
L54360 21330
L54320 21360
L54170 21360
L54130 21330
L54100 21310
" />
</g>
<g style="fill:#008484; fill-opacity:0.0; 
stroke:#008484; stroke-width:0; stroke-opacity:1; 
stroke-linecap:round; stroke-linejoin:round;">
</g>
<g style="fill:#840000; fill-opacity:0.0; 
stroke:#840000; stroke-width:0; stroke-opacity:1; 
stroke-linecap:round; stroke-linejoin:round;">
</g>
<g style="fill:#840000; fill-opacity:0.0; 
stroke:#840000; stroke-width:60; stroke-opacity:1; 
stroke-linecap:round; stroke-linejoin:round;">
<polyline fill="none;"
points="57200,22000
57500,21500
" /> 
<polyline fill="none;"
points="57500,22500
57500,21500
" /> 
<polyline fill="none;"
points="57500,21500
57800,22000
" /> 
</g>
<g style="fill:#008484; fill-opacity:0.0; 
stroke:#008484; stroke-width:60; stroke-opacity:1; 
stroke-linecap:round; stroke-linejoin:round;">
<path d="M56620 21170
L57000 21170
" />
<path d="M56810 21360
L56810 20980
" />
<path d="M57500 21360
L57220 21360
" />
<path d="M57360 21360
L57360 20860
L57310 20930
L57260 20980
L57220 21000
" />
<path d="M57700 20900
L57720 20880
L57770 20860
L57890 20860
L57930 20880
L57960 20900
L57980 20950
L57980 21000
L57960 21070
L57670 21360
L57980 21360
" />
<path d="M58130 20860
L58290 21360
L58460 20860
" />
</g>
<g style="fill:#000084; fill-opacity:0.0; 
stroke:#000084; stroke-width:60; stroke-opacity:1; 
stroke-linecap:round; stroke-linejoin:round;">
<path d="M61760 42260
L62240 42740
" />
<path d="M62240 42260
L61760 42740
" />
</g>
<g style="fill:#008400; fill-opacity:0.0; 
stroke:#008400; stroke-width:60; stroke-opacity:1; 
stroke-linecap:round; stroke-linejoin:round;">
<path d="M50000 44000
L51000 44000
" />
<path d="M63000 34000
L63000 35000
" />
<path d="M63000 35000
L62000 35000
" />
<path d="M51000 35000
L50000 35000
" />
<path d="M62000 36500
L63000 36500
" />
<path d="M62000 40500
L63000 40500
" />
<path d="M50000 36000
L51000 36000
" />
</g>
<g style="fill:#008400; fill-opacity:0.0; 
stroke:#008400; stroke-width:0; stroke-opacity:1; 
stroke-linecap:round; stroke-linejoin:round;">
</g>
<g style="fill:#008400; fill-opacity:1.0; 
stroke:#008400; stroke-width:100; stroke-opacity:1; 
stroke-linecap:round; stroke-linejoin:round;">
<circle cx="50000" cy="35000" r="200" /> 
</g>
<g style="fill:#008400; fill-opacity:1.0; 
stroke:#008400; stroke-width:60; stroke-opacity:1; 
stroke-linecap:round; stroke-linejoin:round;">
</g>
<g style="fill:#008400; fill-opacity:0.0; 
stroke:#008400; stroke-width:60; stroke-opacity:1; 
stroke-linecap:round; stroke-linejoin:round;">
<path d="M50000 38000
L51000 38000
" />
</g>
<g style="fill:#008400; fill-opacity:0.0; 
stroke:#008400; stroke-width:0; stroke-opacity:1; 
stroke-linecap:round; stroke-linejoin:round;">
</g>
<g style="fill:#008400; fill-opacity:1.0; 
stroke:#008400; stroke-width:100; stroke-opacity:1; 
stroke-linecap:round; stroke-linejoin:round;">
<circle cx="50000" cy="36000" r="200" /> 
</g>
<g style="fill:#008400; fill-opacity:1.0; 
stroke:#008400; stroke-width:60; stroke-opacity:1; 
stroke-linecap:round; stroke-linejoin:round;">
</g>
<g style="fill:#008400; fill-opacity:0.0; 
stroke:#008400; stroke-width:60; stroke-opacity:1; 
stroke-linecap:round; stroke-linejoin:round;">
<path d="M50000 40000
L51000 40000
" />
</g>
<g style="fill:#008400; fill-opacity:0.0; 
stroke:#008400; stroke-width:0; stroke-opacity:1; 
stroke-linecap:round; stroke-linejoin:round;">
</g>
<g style="fill:#008400; fill-opacity:1.0; 
stroke:#008400; stroke-width:100; stroke-opacity:1; 
stroke-linecap:round; stroke-linejoin:round;">
<circle cx="50000" cy="38000" r="200" /> 
</g>
<g style="fill:#008400; fill-opacity:1.0; 
stroke:#008400; stroke-width:60; stroke-opacity:1; 
stroke-linecap:round; stroke-linejoin:round;">
</g>
<g style="fill:#008400; fill-opacity:0.0; 
stroke:#008400; stroke-width:60; stroke-opacity:1; 
stroke-linecap:round; stroke-linejoin:round;">
<path d="M50000 42000
L51000 42000
" />
</g>
<g style="fill:#008400; fill-opacity:0.0; 
stroke:#008400; stroke-width:0; stroke-opacity:1; 
stroke-linecap:round; stroke-linejoin:round;">
</g>
<g style="fill:#008400; fill-opacity:1.0; 
stroke:#008400; stroke-width:100; stroke-opacity:1; 
stroke-linecap:round; stroke-linejoin:round;">
<circle cx="50000" cy="40000" r="200" /> 
</g>
<g style="fill:#008400; fill-opacity:1.0; 
stroke:#008400; stroke-width:60; stroke-opacity:1; 
stroke-linecap:round; stroke-linejoin:round;">
</g>
<g style="fill:#008400; fill-opacity:0.0; 
stroke:#008400; stroke-width:60; stroke-opacity:1; 
stroke-linecap:round; stroke-linejoin:round;">
<path d="M51000 39000
L48000 39000
" />
<path d="M48000 41000
L51000 41000
" />
<path d="M57500 27500
L57500 26500
" />
<path d="M53500 27500
L57500 27500
" />
<path d="M55500 27500
L55500 28500
" />
<path d="M53500 27500
L53500 26500
" />
</g>
<g style="fill:#008400; fill-opacity:0.0; 
stroke:#008400; stroke-width:0; stroke-opacity:1; 
stroke-linecap:round; stroke-linejoin:round;">
</g>
<g style="fill:#008400; fill-opacity:1.0; 
stroke:#008400; stroke-width:100; stroke-opacity:1; 
stroke-linecap:round; stroke-linejoin:round;">
<circle cx="55500" cy="27500" r="200" /> 
</g>
<g style="fill:#008400; fill-opacity:1.0; 
stroke:#008400; stroke-width:60; stroke-opacity:1; 
stroke-linecap:round; stroke-linejoin:round;">
</g>
<g style="fill:#008400; fill-opacity:0.0; 
stroke:#008400; stroke-width:60; stroke-opacity:1; 
stroke-linecap:round; stroke-linejoin:round;">
<path d="M57500 22500
L57500 23500
" />
<path d="M53500 22500
L53500 23500
" />
<path d="M50000 44000
L50000 45000
" />
<path d="M48000 37000
L51000 37000
" />
<path d="M63000 38500
L62000 38500
" />
</g>
<g style="fill:#008400; fill-opacity:0.0; 
stroke:#008400; stroke-width:0; stroke-opacity:1; 
stroke-linecap:round; stroke-linejoin:round;">
</g>
<g style="fill:#008400; fill-opacity:1.0; 
stroke:#008400; stroke-width:100; stroke-opacity:1; 
stroke-linecap:round; stroke-linejoin:round;">
<circle cx="50000" cy="42000" r="200" /> 
</g>
<g style="fill:#008400; fill-opacity:1.0; 
stroke:#008400; stroke-width:60; stroke-opacity:1; 
stroke-linecap:round; stroke-linejoin:round;">
</g>
<g style="fill:#008400; fill-opacity:0.0; 
stroke:#008400; stroke-width:60; stroke-opacity:1; 
stroke-linecap:round; stroke-linejoin:round;">
<path d="M50000 34000
L50000 43000
" />
<path d="M50000 43000
L51000 43000
" />
</g>
<g style="fill:#008400; fill-opacity:0.0; 
stroke:#008400; stroke-width:0; stroke-opacity:1; 
stroke-linecap:round; stroke-linejoin:round;">
</g>
<g style="fill:#840000; fill-opacity:0.0; 
stroke:#840000; stroke-width:0; stroke-opacity:1; 
stroke-linecap:round; stroke-linejoin:round;">
</g>
<g style="fill:#840000; fill-opacity:0.0; 
stroke:#840000; stroke-width:60; stroke-opacity:1; 
stroke-linecap:round; stroke-linejoin:round;">
<polyline fill="none;"
points="55500,29000
55500,28500
" /> 
</g>
<g style="fill:#840000; fill-opacity:0.0; 
stroke:#840000; stroke-width:80; stroke-opacity:1; 
stroke-linecap:round; stroke-linejoin:round;">
<polyline fill="none;"
points="55100,29000
55000,29300
55000,29300
" /> 
<polyline fill="none;"
points="55300,29000
55200,29300
55200,29300
" /> 
<polyline fill="none;"
points="55500,29000
55400,29300
55400,29300
" /> 
<polyline fill="none;"
points="55700,29000
55600,29300
55600,29300
" /> 
<polyline fill="none;"
points="55900,29000
55100,29000
55100,29000
" /> 
<polyline fill="none;"
points="55900,29000
55800,29300
55800,29300
55800,29300
" /> 
</g>
<g style="fill:#008484; fill-opacity:0.0; 
stroke:#008484; stroke-width:80; stroke-opacity:1; 
stroke-linecap:round; stroke-linejoin:round;">
</g>
<g style="fill:#008484; fill-opacity:0.0; 
stroke:#008484; stroke-width:60; stroke-opacity:1; 
stroke-linecap:round; stroke-linejoin:round;">
<path d="M54340 29580
L54290 29560
L54220 29560
L54150 29580
L54100 29630
L54080 29680
L54060 29770
L54060 29840
L54080 29940
L54100 29980
L54150 30030
L54220 30060
L54270 30060
L54340 30030
L54360 30010
L54360 29840
L54270 29840
" />
<path d="M54580 30060
L54580 29560
L54860 30060
L54860 29560
" />
<path d="M55100 30060
L55100 29560
L55220 29560
L55290 29580
L55340 29630
L55360 29680
L55380 29770
L55380 29840
L55360 29940
L55340 29980
L55290 30030
L55220 30060
L55100 30060
" />
<path d="M55600 30060
L55600 29560
L55790 29560
L55840 29580
L55860 29600
L55880 29650
L55880 29720
L55860 29770
L55840 29790
L55790 29820
L55600 29820
" />
<path d="M56050 29560
L56170 30060
L56270 29700
L56360 30060
L56480 29560
" />
<path d="M56950 30060
L56790 29820
" />
<path d="M56670 30060
L56670 29560
L56860 29560
L56910 29580
L56930 29600
L56950 29650
L56950 29720
L56930 29770
L56910 29790
L56860 29820
L56670 29820
" />
</g>
<g style="fill:#008484; fill-opacity:0.0; 
stroke:#008484; stroke-width:0; stroke-opacity:1; 
stroke-linecap:round; stroke-linejoin:round;">
</g>
<g style="fill:#840000; fill-opacity:0.0; 
stroke:#840000; stroke-width:0; stroke-opacity:1; 
stroke-linecap:round; stroke-linejoin:round;">
</g>
<g style="fill:#840000; fill-opacity:0.0; 
stroke:#840000; stroke-width:60; stroke-opacity:1; 
stroke-linecap:round; stroke-linejoin:round;">
<polyline fill="none;"
points="50000,45500
50000,45000
" /> 
</g>
<g style="fill:#840000; fill-opacity:0.0; 
stroke:#840000; stroke-width:80; stroke-opacity:1; 
stroke-linecap:round; stroke-linejoin:round;">
<polyline fill="none;"
points="49600,45500
49500,45800
49500,45800
" /> 
<polyline fill="none;"
points="49800,45500
49700,45800
49700,45800
" /> 
<polyline fill="none;"
points="50000,45500
49900,45800
49900,45800
" /> 
<polyline fill="none;"
points="50200,45500
50100,45800
50100,45800
" /> 
<polyline fill="none;"
points="50400,45500
49600,45500
49600,45500
" /> 
<polyline fill="none;"
points="50400,45500
50300,45800
50300,45800
50300,45800
" /> 
</g>
<g style="fill:#008484; fill-opacity:0.0; 
stroke:#008484; stroke-width:80; stroke-opacity:1; 
stroke-linecap:round; stroke-linejoin:round;">
</g>
<g style="fill:#008484; fill-opacity:0.0; 
stroke:#008484; stroke-width:60; stroke-opacity:1; 
stroke-linecap:round; stroke-linejoin:round;">
<path d="M48840 46080
L48790 46060
L48720 46060
L48650 46080
L48600 46130
L48580 46180
L48560 46270
L48560 46340
L48580 46440
L48600 46480
L48650 46530
L48720 46560
L48770 46560
L48840 46530
L48860 46510
L48860 46340
L48770 46340
" />
<path d="M49080 46560
L49080 46060
L49360 46560
L49360 46060
" />
<path d="M49600 46560
L49600 46060
L49720 46060
L49790 46080
L49840 46130
L49860 46180
L49880 46270
L49880 46340
L49860 46440
L49840 46480
L49790 46530
L49720 46560
L49600 46560
" />
<path d="M50100 46560
L50100 46060
L50290 46060
L50340 46080
L50360 46100
L50380 46150
L50380 46220
L50360 46270
L50340 46290
L50290 46320
L50100 46320
" />
<path d="M50550 46060
L50670 46560
L50770 46200
L50860 46560
L50980 46060
" />
<path d="M51450 46560
L51290 46320
" />
<path d="M51170 46560
L51170 46060
L51360 46060
L51410 46080
L51430 46100
L51450 46150
L51450 46220
L51430 46270
L51410 46290
L51360 46320
L51170 46320
" />
</g>
<g style="fill:#0000C2; fill-opacity:0.0; 
stroke:#0000C2; stroke-width:60; stroke-opacity:1; 
stroke-linecap:round; stroke-linejoin:round;">
<path d="M40960 49000
L40900 48970
L40810 48970
L40730 49000
L40670 49060
L40640 49110
L40610 49230
L40610 49310
L40640 49430
L40670 49490
L40730 49540
L40810 49570
L40870 49570
L40960 49540
L40990 49510
L40990 49310
L40870 49310
" />
<path d="M41240 49570
L41240 48970
L41590 49570
L41590 48970
" />
<path d="M41870 49570
L41870 48970
L42020 48970
L42100 49000
L42160 49060
L42190 49110
L42220 49230
L42220 49310
L42190 49430
L42160 49490
L42100 49540
L42020 49570
L41870 49570
" />
<path d="M42470 49570
L42470 48970
L42700 48970
L42760 49000
L42790 49030
L42820 49090
L42820 49170
L42790 49230
L42760 49260
L42700 49290
L42470 49290
" />
<path d="M43020 48970
L43160 49570
L43270 49140
L43390 49570
L43530 48970
" />
<path d="M44110 49570
L43910 49290
" />
<path d="M43760 49570
L43760 48970
L43990 48970
L44050 49000
L44080 49030
L44110 49090
L44110 49170
L44080 49230
L44050 49260
L43990 49290
L43760 49290
" />
<path d="M44820 49570
L44820 49170
" />
<path d="M44820 48970
L44790 49000
L44820 49030
L44850 49000
L44820 48970
L44820 49030
" />
<path d="M45110 49170
L45110 49570
" />
<path d="M45110 49230
L45140 49200
L45200 49170
L45280 49170
L45340 49200
L45370 49260
L45370 49570
" />
<path d="M45620 49540
L45680 49570
L45800 49570
L45850 49540
L45880 49490
L45880 49460
L45850 49400
L45800 49370
L45710 49370
L45650 49340
L45620 49290
L45620 49260
L45650 49200
L45710 49170
L45800 49170
L45850 49200
" />
<path d="M46060 49170
L46290 49170
" />
<path d="M46140 48970
L46140 49490
L46170 49540
L46230 49570
L46290 49570
" />
<path d="M46710 49540
L46650 49570
L46540 49570
L46480 49540
L46450 49490
L46450 49260
L46480 49200
L46540 49170
L46650 49170
L46710 49200
L46740 49260
L46740 49310
L46450 49370
" />
<path d="M47250 49570
L47250 49260
L47220 49200
L47160 49170
L47050 49170
L46990 49200
" />
<path d="M47250 49540
L47190 49570
L47050 49570
L46990 49540
L46960 49490
L46960 49430
L46990 49370
L47050 49340
L47190 49340
L47250 49310
" />
<path d="M47790 49570
L47790 48970
" />
<path d="M47790 49540
L47730 49570
L47620 49570
L47560 49540
L47530 49510
L47500 49460
L47500 49290
L47530 49230
L47560 49200
L47620 49170
L47730 49170
L47790 49200
" />
<path d="M48620 49570
L48560 49540
L48530 49510
L48500 49460
L48500 49290
L48530 49230
L48560 49200
L48620 49170
L48700 49170
L48760 49200
L48790 49230
L48820 49290
L48820 49460
L48790 49510
L48760 49540
L48700 49570
L48620 49570
" />
<path d="M48990 49170
L49220 49170
" />
<path d="M49070 49570
L49070 49060
L49100 49000
L49160 48970
L49220 48970
" />
<path d="M50190 49000
L50130 48970
L50040 48970
L49960 49000
L49900 49060
L49870 49110
L49840 49230
L49840 49310
L49870 49430
L49900 49490
L49960 49540
L50040 49570
L50100 49570
L50190 49540
L50220 49510
L50220 49310
L50100 49310
" />
<path d="M50470 49570
L50470 48970
L50820 49570
L50820 48970
" />
<path d="M51100 49570
L51100 48970
L51250 48970
L51330 49000
L51390 49060
L51420 49110
L51450 49230
L51450 49310
L51420 49430
L51390 49490
L51330 49540
L51250 49570
L51100 49570
" />
<path d="M40640 50470
L40640 49870
" />
<path d="M40640 50100
L40700 50070
L40810 50070
L40870 50100
L40900 50130
L40930 50190
L40930 50360
L40900 50410
L40870 50440
L40810 50470
L40700 50470
L40640 50440
" />
<path d="M41410 50440
L41350 50470
L41240 50470
L41180 50440
L41150 50390
L41150 50160
L41180 50100
L41240 50070
L41350 50070
L41410 50100
L41440 50160
L41440 50210
L41150 50270
" />
<path d="M41950 50440
L41890 50470
L41780 50470
L41720 50440
L41690 50410
L41660 50360
L41660 50190
L41690 50130
L41720 50100
L41780 50070
L41890 50070
L41950 50100
" />
<path d="M42460 50470
L42460 50160
L42430 50100
L42370 50070
L42260 50070
L42200 50100
" />
<path d="M42460 50440
L42400 50470
L42260 50470
L42200 50440
L42170 50390
L42170 50330
L42200 50270
L42260 50240
L42400 50240
L42460 50210
" />
<path d="M43000 50070
L43000 50470
" />
<path d="M42740 50070
L42740 50390
L42770 50440
L42830 50470
L42910 50470
L42970 50440
L43000 50410
" />
<path d="M43250 50440
L43310 50470
L43430 50470
L43480 50440
L43510 50390
L43510 50360
L43480 50300
L43430 50270
L43340 50270
L43280 50240
L43250 50190
L43250 50160
L43280 50100
L43340 50070
L43430 50070
L43480 50100
" />
<path d="M44000 50440
L43940 50470
L43830 50470
L43770 50440
L43740 50390
L43740 50160
L43770 50100
L43830 50070
L43940 50070
L44000 50100
L44030 50160
L44030 50210
L43740 50270
" />
<path d="M44830 50470
L44770 50440
L44740 50410
L44710 50360
L44710 50190
L44740 50130
L44770 50100
L44830 50070
L44910 50070
L44970 50100
L45000 50130
L45030 50190
L45030 50360
L45000 50410
L44970 50440
L44910 50470
L44830 50470
" />
<path d="M45200 50070
L45430 50070
" />
<path d="M45280 50470
L45280 49960
L45310 49900
L45370 49870
L45430 49870
" />
<path d="M46080 50470
L46080 49870
" />
<path d="M46080 50100
L46140 50070
L46250 50070
L46310 50100
L46340 50130
L46370 50190
L46370 50360
L46340 50410
L46310 50440
L46250 50470
L46140 50470
L46080 50440
" />
<path d="M46850 50440
L46790 50470
L46680 50470
L46620 50440
L46590 50390
L46590 50160
L46620 50100
L46680 50070
L46790 50070
L46850 50100
L46880 50160
L46880 50210
L46590 50270
" />
<path d="M47050 50070
L47280 50070
" />
<path d="M47130 49870
L47130 50390
L47160 50440
L47220 50470
L47280 50470
" />
<path d="M47390 50070
L47620 50070
" />
<path d="M47470 49870
L47470 50390
L47500 50440
L47560 50470
L47620 50470
" />
<path d="M48040 50440
L47980 50470
L47870 50470
L47810 50440
L47780 50390
L47780 50160
L47810 50100
L47870 50070
L47980 50070
L48040 50100
L48070 50160
L48070 50210
L47780 50270
" />
<path d="M48320 50470
L48320 50070
" />
<path d="M48320 50190
L48350 50130
L48380 50100
L48440 50070
L48490 50070
" />
<path d="M49150 50470
L49150 49870
L49380 49870
L49440 49900
L49470 49930
L49500 49990
L49500 50070
L49470 50130
L49440 50160
L49380 50190
L49150 50190
" />
<path d="M50100 50410
L50070 50440
L49980 50470
L49920 50470
L49840 50440
L49780 50390
L49750 50330
L49720 50210
L49720 50130
L49750 50010
L49780 49960
L49840 49900
L49920 49870
L49980 49870
L50070 49900
L50100 49930
" />
<path d="M50550 50160
L50640 50190
L50670 50210
L50700 50270
L50700 50360
L50670 50410
L50640 50440
L50580 50470
L50350 50470
L50350 49870
L50550 49870
L50610 49900
L50640 49930
L50670 49990
L50670 50040
L50640 50100
L50610 50130
L50550 50160
L50350 50160
" />
<path d="M51500 50470
L51440 50440
L51410 50390
L51410 49870
" />
<path d="M51980 50470
L51980 50160
L51950 50100
L51890 50070
L51780 50070
L51720 50100
" />
<path d="M51980 50440
L51920 50470
L51780 50470
L51720 50440
L51690 50390
L51690 50330
L51720 50270
L51780 50240
L51920 50240
L51980 50210
" />
<path d="M52210 50070
L52350 50470
" />
<path d="M52490 50070
L52350 50470
L52290 50610
L52260 50640
L52210 50670
" />
<path d="M52810 50470
L52750 50440
L52720 50410
L52690 50360
L52690 50190
L52720 50130
L52750 50100
L52810 50070
L52890 50070
L52950 50100
L52980 50130
L53010 50190
L53010 50360
L52980 50410
L52950 50440
L52890 50470
L52810 50470
" />
<path d="M53520 50070
L53520 50470
" />
<path d="M53260 50070
L53260 50390
L53290 50440
L53350 50470
L53430 50470
L53490 50440
L53520 50410
" />
<path d="M53720 50070
L53950 50070
" />
<path d="M53800 49870
L53800 50390
L53830 50440
L53890 50470
L53950 50470
" />
</g> 
</svg>
