<?xml version="1.0" standalone="no"?>
 <!DOCTYPE svg PUBLIC "-//W3C//DTD SVG 1.1//EN" 
 "http://www.w3.org/Graphics/SVG/1.1/DTD/svg11.dtd"> 
<svg xmlns="http://www.w3.org/2000/svg" version="1.1" 
    width="29.7002cm" height="21.0007cm" viewBox="0 0 116930 82680 ">
<title>SVG Picture created as powerboard_motor_controller-Powerboard Motor Controller.svg date 2017/04/20 23:02:18 </title>
  <desc>Picture generated by Eeschema-SVG </desc>
<g style="fill:#000000; fill-opacity:1;stroke:#000000; stroke-opacity:1;
stroke-linecap:round; stroke-linejoin:round; "
 transform="translate(0 0) scale(1 1)">
</g>
<g style="fill:#000000; fill-opacity:0.0; 
stroke:#000000; stroke-width:-10; stroke-opacity:1; 
stroke-linecap:round; stroke-linejoin:round;">
</g>
<g style="fill:#840000; fill-opacity:0.0; 
stroke:#840000; stroke-width:-10; stroke-opacity:1; 
stroke-linecap:round; stroke-linejoin:round;">
</g>
<g style="fill:#840000; fill-opacity:0.0; 
stroke:#840000; stroke-width:100; stroke-opacity:1; 
stroke-linecap:round; stroke-linejoin:round;">
</g>
<g style="fill:#840000; fill-opacity:0.0; 
stroke:#840000; stroke-width:60; stroke-opacity:1; 
stroke-linecap:round; stroke-linejoin:round;">
<rect x="69690" y="65360" width="42520" height="12600" rx="0" />
</g>
<g style="fill:#840000; fill-opacity:0.0; 
stroke:#840000; stroke-width:100; stroke-opacity:1; 
stroke-linecap:round; stroke-linejoin:round;">
</g>
<g style="fill:#840000; fill-opacity:0.0; 
stroke:#840000; stroke-width:60; stroke-opacity:1; 
stroke-linecap:round; stroke-linejoin:round;">
<rect x="3940" y="3940" width="109050" height="74800" rx="0" />
</g>
<g style="fill:#840000; fill-opacity:0.0; 
stroke:#840000; stroke-width:100; stroke-opacity:1; 
stroke-linecap:round; stroke-linejoin:round;">
</g>
<g style="fill:#840000; fill-opacity:0.0; 
stroke:#840000; stroke-width:60; stroke-opacity:1; 
stroke-linecap:round; stroke-linejoin:round;">
<rect x="4720" y="4720" width="107490" height="73240" rx="0" />
</g>
<g style="fill:#840000; fill-opacity:0.0; 
stroke:#840000; stroke-width:100; stroke-opacity:1; 
stroke-linecap:round; stroke-linejoin:round;">
</g>
<g style="fill:#840000; fill-opacity:0.0; 
stroke:#840000; stroke-width:60; stroke-opacity:1; 
stroke-linecap:round; stroke-linejoin:round;">
<path d="M23620 4720
L23620 3940
" />
</g>
<g style="fill:#840000; fill-opacity:0.0; 
stroke:#840000; stroke-width:100; stroke-opacity:1; 
stroke-linecap:round; stroke-linejoin:round;">
</g>
<g style="fill:#840000; fill-opacity:0.0; 
stroke:#840000; stroke-width:60; stroke-opacity:1; 
stroke-linecap:round; stroke-linejoin:round;">
<path d="M43310 4720
L43310 3940
" />
</g>
<g style="fill:#840000; fill-opacity:0.0; 
stroke:#840000; stroke-width:100; stroke-opacity:1; 
stroke-linecap:round; stroke-linejoin:round;">
</g>
<g style="fill:#840000; fill-opacity:0.0; 
stroke:#840000; stroke-width:60; stroke-opacity:1; 
stroke-linecap:round; stroke-linejoin:round;">
<path d="M62990 4720
L62990 3940
" />
</g>
<g style="fill:#840000; fill-opacity:0.0; 
stroke:#840000; stroke-width:100; stroke-opacity:1; 
stroke-linecap:round; stroke-linejoin:round;">
</g>
<g style="fill:#840000; fill-opacity:0.0; 
stroke:#840000; stroke-width:60; stroke-opacity:1; 
stroke-linecap:round; stroke-linejoin:round;">
<path d="M82680 4720
L82680 3940
" />
</g>
<g style="fill:#840000; fill-opacity:0.0; 
stroke:#840000; stroke-width:100; stroke-opacity:1; 
stroke-linecap:round; stroke-linejoin:round;">
</g>
<g style="fill:#840000; fill-opacity:0.0; 
stroke:#840000; stroke-width:60; stroke-opacity:1; 
stroke-linecap:round; stroke-linejoin:round;">
<path d="M102360 4720
L102360 3940
" />
</g>
<g style="fill:#840000; fill-opacity:0.0; 
stroke:#840000; stroke-width:100; stroke-opacity:1; 
stroke-linecap:round; stroke-linejoin:round;">
</g>
<g style="fill:#840000; fill-opacity:0.0; 
stroke:#840000; stroke-width:60; stroke-opacity:1; 
stroke-linecap:round; stroke-linejoin:round;">
<path d="M14170 4560
L13880 4560
" />
<path d="M14020 4560
L14020 4050
L13970 4120
L13930 4170
L13880 4190
" />
</g>
<g style="fill:#840000; fill-opacity:0.0; 
stroke:#840000; stroke-width:100; stroke-opacity:1; 
stroke-linecap:round; stroke-linejoin:round;">
</g>
<g style="fill:#840000; fill-opacity:0.0; 
stroke:#840000; stroke-width:60; stroke-opacity:1; 
stroke-linecap:round; stroke-linejoin:round;">
<path d="M33560 4090
L33580 4070
L33630 4050
L33750 4050
L33800 4070
L33820 4090
L33850 4140
L33850 4190
L33820 4260
L33530 4560
L33850 4560
" />
</g>
<g style="fill:#840000; fill-opacity:0.0; 
stroke:#840000; stroke-width:100; stroke-opacity:1; 
stroke-linecap:round; stroke-linejoin:round;">
</g>
<g style="fill:#840000; fill-opacity:0.0; 
stroke:#840000; stroke-width:60; stroke-opacity:1; 
stroke-linecap:round; stroke-linejoin:round;">
<path d="M53220 4050
L53540 4050
L53370 4240
L53440 4240
L53490 4260
L53510 4290
L53540 4340
L53540 4460
L53510 4510
L53490 4530
L53440 4560
L53300 4560
L53250 4530
L53220 4510
" />
</g>
<g style="fill:#840000; fill-opacity:0.0; 
stroke:#840000; stroke-width:100; stroke-opacity:1; 
stroke-linecap:round; stroke-linejoin:round;">
</g>
<g style="fill:#840000; fill-opacity:0.0; 
stroke:#840000; stroke-width:60; stroke-opacity:1; 
stroke-linecap:round; stroke-linejoin:round;">
<path d="M73170 4220
L73170 4560
" />
<path d="M73050 4020
L72930 4390
L73240 4390
" />
</g>
<g style="fill:#840000; fill-opacity:0.0; 
stroke:#840000; stroke-width:100; stroke-opacity:1; 
stroke-linecap:round; stroke-linejoin:round;">
</g>
<g style="fill:#840000; fill-opacity:0.0; 
stroke:#840000; stroke-width:60; stroke-opacity:1; 
stroke-linecap:round; stroke-linejoin:round;">
<path d="M92880 4050
L92640 4050
L92620 4290
L92640 4260
L92690 4240
L92810 4240
L92860 4260
L92880 4290
L92910 4340
L92910 4460
L92880 4510
L92860 4530
L92810 4560
L92690 4560
L92640 4530
L92620 4510
" />
</g>
<g style="fill:#840000; fill-opacity:0.0; 
stroke:#840000; stroke-width:100; stroke-opacity:1; 
stroke-linecap:round; stroke-linejoin:round;">
</g>
<g style="fill:#840000; fill-opacity:0.0; 
stroke:#840000; stroke-width:60; stroke-opacity:1; 
stroke-linecap:round; stroke-linejoin:round;">
<path d="M112540 4050
L112440 4050
L112390 4070
L112370 4090
L112320 4170
L112300 4260
L112300 4460
L112320 4510
L112350 4530
L112390 4560
L112490 4560
L112540 4530
L112560 4510
L112590 4460
L112590 4340
L112560 4290
L112540 4260
L112490 4240
L112390 4240
L112350 4260
L112320 4290
L112300 4340
" />
</g>
<g style="fill:#840000; fill-opacity:0.0; 
stroke:#840000; stroke-width:100; stroke-opacity:1; 
stroke-linecap:round; stroke-linejoin:round;">
</g>
<g style="fill:#840000; fill-opacity:0.0; 
stroke:#840000; stroke-width:60; stroke-opacity:1; 
stroke-linecap:round; stroke-linejoin:round;">
<path d="M23620 77960
L23620 78740
" />
</g>
<g style="fill:#840000; fill-opacity:0.0; 
stroke:#840000; stroke-width:100; stroke-opacity:1; 
stroke-linecap:round; stroke-linejoin:round;">
</g>
<g style="fill:#840000; fill-opacity:0.0; 
stroke:#840000; stroke-width:60; stroke-opacity:1; 
stroke-linecap:round; stroke-linejoin:round;">
<path d="M43310 77960
L43310 78740
" />
</g>
<g style="fill:#840000; fill-opacity:0.0; 
stroke:#840000; stroke-width:100; stroke-opacity:1; 
stroke-linecap:round; stroke-linejoin:round;">
</g>
<g style="fill:#840000; fill-opacity:0.0; 
stroke:#840000; stroke-width:60; stroke-opacity:1; 
stroke-linecap:round; stroke-linejoin:round;">
<path d="M62990 77960
L62990 78740
" />
</g>
<g style="fill:#840000; fill-opacity:0.0; 
stroke:#840000; stroke-width:100; stroke-opacity:1; 
stroke-linecap:round; stroke-linejoin:round;">
</g>
<g style="fill:#840000; fill-opacity:0.0; 
stroke:#840000; stroke-width:60; stroke-opacity:1; 
stroke-linecap:round; stroke-linejoin:round;">
<path d="M82680 77960
L82680 78740
" />
</g>
<g style="fill:#840000; fill-opacity:0.0; 
stroke:#840000; stroke-width:100; stroke-opacity:1; 
stroke-linecap:round; stroke-linejoin:round;">
</g>
<g style="fill:#840000; fill-opacity:0.0; 
stroke:#840000; stroke-width:60; stroke-opacity:1; 
stroke-linecap:round; stroke-linejoin:round;">
<path d="M102360 77960
L102360 78740
" />
</g>
<g style="fill:#840000; fill-opacity:0.0; 
stroke:#840000; stroke-width:100; stroke-opacity:1; 
stroke-linecap:round; stroke-linejoin:round;">
</g>
<g style="fill:#840000; fill-opacity:0.0; 
stroke:#840000; stroke-width:60; stroke-opacity:1; 
stroke-linecap:round; stroke-linejoin:round;">
<path d="M14170 78580
L13880 78580
" />
<path d="M14020 78580
L14020 78070
L13970 78140
L13930 78190
L13880 78210
" />
</g>
<g style="fill:#840000; fill-opacity:0.0; 
stroke:#840000; stroke-width:100; stroke-opacity:1; 
stroke-linecap:round; stroke-linejoin:round;">
</g>
<g style="fill:#840000; fill-opacity:0.0; 
stroke:#840000; stroke-width:60; stroke-opacity:1; 
stroke-linecap:round; stroke-linejoin:round;">
<path d="M33560 78110
L33580 78090
L33630 78070
L33750 78070
L33800 78090
L33820 78110
L33850 78160
L33850 78210
L33820 78280
L33530 78580
L33850 78580
" />
</g>
<g style="fill:#840000; fill-opacity:0.0; 
stroke:#840000; stroke-width:100; stroke-opacity:1; 
stroke-linecap:round; stroke-linejoin:round;">
</g>
<g style="fill:#840000; fill-opacity:0.0; 
stroke:#840000; stroke-width:60; stroke-opacity:1; 
stroke-linecap:round; stroke-linejoin:round;">
<path d="M53220 78070
L53540 78070
L53370 78260
L53440 78260
L53490 78280
L53510 78310
L53540 78360
L53540 78480
L53510 78530
L53490 78550
L53440 78580
L53300 78580
L53250 78550
L53220 78530
" />
</g>
<g style="fill:#840000; fill-opacity:0.0; 
stroke:#840000; stroke-width:100; stroke-opacity:1; 
stroke-linecap:round; stroke-linejoin:round;">
</g>
<g style="fill:#840000; fill-opacity:0.0; 
stroke:#840000; stroke-width:60; stroke-opacity:1; 
stroke-linecap:round; stroke-linejoin:round;">
<path d="M73170 78240
L73170 78580
" />
<path d="M73050 78040
L72930 78410
L73240 78410
" />
</g>
<g style="fill:#840000; fill-opacity:0.0; 
stroke:#840000; stroke-width:100; stroke-opacity:1; 
stroke-linecap:round; stroke-linejoin:round;">
</g>
<g style="fill:#840000; fill-opacity:0.0; 
stroke:#840000; stroke-width:60; stroke-opacity:1; 
stroke-linecap:round; stroke-linejoin:round;">
<path d="M92880 78070
L92640 78070
L92620 78310
L92640 78280
L92690 78260
L92810 78260
L92860 78280
L92880 78310
L92910 78360
L92910 78480
L92880 78530
L92860 78550
L92810 78580
L92690 78580
L92640 78550
L92620 78530
" />
</g>
<g style="fill:#840000; fill-opacity:0.0; 
stroke:#840000; stroke-width:100; stroke-opacity:1; 
stroke-linecap:round; stroke-linejoin:round;">
</g>
<g style="fill:#840000; fill-opacity:0.0; 
stroke:#840000; stroke-width:60; stroke-opacity:1; 
stroke-linecap:round; stroke-linejoin:round;">
<path d="M112540 78070
L112440 78070
L112390 78090
L112370 78110
L112320 78190
L112300 78280
L112300 78480
L112320 78530
L112350 78550
L112390 78580
L112490 78580
L112540 78550
L112560 78530
L112590 78480
L112590 78360
L112560 78310
L112540 78280
L112490 78260
L112390 78260
L112350 78280
L112320 78310
L112300 78360
" />
</g>
<g style="fill:#840000; fill-opacity:0.0; 
stroke:#840000; stroke-width:100; stroke-opacity:1; 
stroke-linecap:round; stroke-linejoin:round;">
</g>
<g style="fill:#840000; fill-opacity:0.0; 
stroke:#840000; stroke-width:60; stroke-opacity:1; 
stroke-linecap:round; stroke-linejoin:round;">
<path d="M3940 23620
L4720 23620
" />
</g>
<g style="fill:#840000; fill-opacity:0.0; 
stroke:#840000; stroke-width:100; stroke-opacity:1; 
stroke-linecap:round; stroke-linejoin:round;">
</g>
<g style="fill:#840000; fill-opacity:0.0; 
stroke:#840000; stroke-width:60; stroke-opacity:1; 
stroke-linecap:round; stroke-linejoin:round;">
<path d="M3940 43310
L4720 43310
" />
</g>
<g style="fill:#840000; fill-opacity:0.0; 
stroke:#840000; stroke-width:100; stroke-opacity:1; 
stroke-linecap:round; stroke-linejoin:round;">
</g>
<g style="fill:#840000; fill-opacity:0.0; 
stroke:#840000; stroke-width:60; stroke-opacity:1; 
stroke-linecap:round; stroke-linejoin:round;">
<path d="M3940 62990
L4720 62990
" />
</g>
<g style="fill:#840000; fill-opacity:0.0; 
stroke:#840000; stroke-width:100; stroke-opacity:1; 
stroke-linecap:round; stroke-linejoin:round;">
</g>
<g style="fill:#840000; fill-opacity:0.0; 
stroke:#840000; stroke-width:60; stroke-opacity:1; 
stroke-linecap:round; stroke-linejoin:round;">
<path d="M4210 13860
L4450 13860
" />
<path d="M4160 14010
L4330 13500
L4500 14010
" />
</g>
<g style="fill:#840000; fill-opacity:0.0; 
stroke:#840000; stroke-width:100; stroke-opacity:1; 
stroke-linecap:round; stroke-linejoin:round;">
</g>
<g style="fill:#840000; fill-opacity:0.0; 
stroke:#840000; stroke-width:60; stroke-opacity:1; 
stroke-linecap:round; stroke-linejoin:round;">
<path d="M4370 33420
L4440 33440
L4470 33470
L4490 33520
L4490 33590
L4470 33640
L4440 33660
L4400 33690
L4200 33690
L4200 33180
L4370 33180
L4420 33200
L4440 33220
L4470 33270
L4470 33320
L4440 33370
L4420 33390
L4370 33420
L4200 33420
" />
</g>
<g style="fill:#840000; fill-opacity:0.0; 
stroke:#840000; stroke-width:100; stroke-opacity:1; 
stroke-linecap:round; stroke-linejoin:round;">
</g>
<g style="fill:#840000; fill-opacity:0.0; 
stroke:#840000; stroke-width:60; stroke-opacity:1; 
stroke-linecap:round; stroke-linejoin:round;">
<path d="M4490 53330
L4470 53350
L4400 53380
L4350 53380
L4270 53350
L4230 53300
L4200 53250
L4180 53160
L4180 53080
L4200 52990
L4230 52940
L4270 52890
L4350 52870
L4400 52870
L4470 52890
L4490 52910
" />
</g>
<g style="fill:#840000; fill-opacity:0.0; 
stroke:#840000; stroke-width:100; stroke-opacity:1; 
stroke-linecap:round; stroke-linejoin:round;">
</g>
<g style="fill:#840000; fill-opacity:0.0; 
stroke:#840000; stroke-width:60; stroke-opacity:1; 
stroke-linecap:round; stroke-linejoin:round;">
<path d="M4200 73060
L4200 72550
L4320 72550
L4400 72570
L4440 72620
L4470 72670
L4490 72760
L4490 72840
L4470 72930
L4440 72980
L4400 73030
L4320 73060
L4200 73060
" />
</g>
<g style="fill:#840000; fill-opacity:0.0; 
stroke:#840000; stroke-width:100; stroke-opacity:1; 
stroke-linecap:round; stroke-linejoin:round;">
</g>
<g style="fill:#840000; fill-opacity:0.0; 
stroke:#840000; stroke-width:60; stroke-opacity:1; 
stroke-linecap:round; stroke-linejoin:round;">
<path d="M112990 23620
L112210 23620
" />
</g>
<g style="fill:#840000; fill-opacity:0.0; 
stroke:#840000; stroke-width:100; stroke-opacity:1; 
stroke-linecap:round; stroke-linejoin:round;">
</g>
<g style="fill:#840000; fill-opacity:0.0; 
stroke:#840000; stroke-width:60; stroke-opacity:1; 
stroke-linecap:round; stroke-linejoin:round;">
<path d="M112990 43310
L112210 43310
" />
</g>
<g style="fill:#840000; fill-opacity:0.0; 
stroke:#840000; stroke-width:100; stroke-opacity:1; 
stroke-linecap:round; stroke-linejoin:round;">
</g>
<g style="fill:#840000; fill-opacity:0.0; 
stroke:#840000; stroke-width:60; stroke-opacity:1; 
stroke-linecap:round; stroke-linejoin:round;">
<path d="M112990 62990
L112210 62990
" />
</g>
<g style="fill:#840000; fill-opacity:0.0; 
stroke:#840000; stroke-width:100; stroke-opacity:1; 
stroke-linecap:round; stroke-linejoin:round;">
</g>
<g style="fill:#840000; fill-opacity:0.0; 
stroke:#840000; stroke-width:60; stroke-opacity:1; 
stroke-linecap:round; stroke-linejoin:round;">
<path d="M112480 13860
L112720 13860
" />
<path d="M112430 14010
L112600 13500
L112770 14010
" />
</g>
<g style="fill:#840000; fill-opacity:0.0; 
stroke:#840000; stroke-width:100; stroke-opacity:1; 
stroke-linecap:round; stroke-linejoin:round;">
</g>
<g style="fill:#840000; fill-opacity:0.0; 
stroke:#840000; stroke-width:60; stroke-opacity:1; 
stroke-linecap:round; stroke-linejoin:round;">
<path d="M112640 33420
L112710 33440
L112740 33470
L112760 33520
L112760 33590
L112740 33640
L112710 33660
L112670 33690
L112470 33690
L112470 33180
L112640 33180
L112690 33200
L112710 33220
L112740 33270
L112740 33320
L112710 33370
L112690 33390
L112640 33420
L112470 33420
" />
</g>
<g style="fill:#840000; fill-opacity:0.0; 
stroke:#840000; stroke-width:100; stroke-opacity:1; 
stroke-linecap:round; stroke-linejoin:round;">
</g>
<g style="fill:#840000; fill-opacity:0.0; 
stroke:#840000; stroke-width:60; stroke-opacity:1; 
stroke-linecap:round; stroke-linejoin:round;">
<path d="M112760 53330
L112740 53350
L112670 53380
L112620 53380
L112540 53350
L112500 53300
L112470 53250
L112450 53160
L112450 53080
L112470 52990
L112500 52940
L112540 52890
L112620 52870
L112670 52870
L112740 52890
L112760 52910
" />
</g>
<g style="fill:#840000; fill-opacity:0.0; 
stroke:#840000; stroke-width:100; stroke-opacity:1; 
stroke-linecap:round; stroke-linejoin:round;">
</g>
<g style="fill:#840000; fill-opacity:0.0; 
stroke:#840000; stroke-width:60; stroke-opacity:1; 
stroke-linecap:round; stroke-linejoin:round;">
<path d="M112470 73060
L112470 72550
L112590 72550
L112670 72570
L112710 72620
L112740 72670
L112760 72760
L112760 72840
L112740 72930
L112710 72980
L112670 73030
L112590 73060
L112470 73060
" />
</g>
<g style="fill:#840000; fill-opacity:0.0; 
stroke:#840000; stroke-width:100; stroke-opacity:1; 
stroke-linecap:round; stroke-linejoin:round;">
</g>
<g style="fill:#840000; fill-opacity:0.0; 
stroke:#840000; stroke-width:60; stroke-opacity:1; 
stroke-linecap:round; stroke-linejoin:round;">
<path d="M78880 76290
L78880 75700
L79020 75700
L79110 75730
L79160 75790
L79190 75840
L79220 75950
L79220 76040
L79190 76150
L79160 76210
L79110 76260
L79020 76290
L78880 76290
" />
<path d="M79720 76290
L79720 75980
L79700 75930
L79640 75900
L79530 75900
L79470 75930
" />
<path d="M79720 76260
L79670 76290
L79530 76290
L79470 76260
L79440 76210
L79440 76150
L79470 76100
L79530 76070
L79670 76070
L79720 76040
" />
<path d="M79920 75900
L80140 75900
" />
<path d="M80000 75700
L80000 76210
L80030 76260
L80080 76290
L80140 76290
" />
<path d="M80570 76260
L80510 76290
L80400 76290
L80340 76260
L80310 76210
L80310 75980
L80340 75930
L80400 75900
L80510 75900
L80570 75930
L80590 75980
L80590 76040
L80310 76100
" />
<path d="M80850 76240
L80880 76260
L80850 76290
L80820 76260
L80850 76240
L80850 76290
" />
<path d="M80850 75930
L80880 75950
L80850 75980
L80820 75950
L80850 75930
L80850 75980
" />
<path d="M81550 75760
L81580 75730
L81640 75700
L81780 75700
L81830 75730
L81860 75760
L81890 75810
L81890 75870
L81860 75950
L81520 76290
L81890 76290
" />
<path d="M82250 75700
L82310 75700
L82370 75730
L82390 75760
L82420 75810
L82450 75930
L82450 76070
L82420 76180
L82390 76240
L82370 76260
L82310 76290
L82250 76290
L82200 76260
L82170 76240
L82140 76180
L82110 76070
L82110 75930
L82140 75810
L82170 75760
L82200 75730
L82250 75700
" />
<path d="M83010 76290
L82670 76290
" />
<path d="M82840 76290
L82840 75700
L82780 75790
L82730 75840
L82670 75870
" />
<path d="M83200 75700
L83600 75700
L83340 76290
" />
<path d="M83820 76070
L84270 76070
" />
<path d="M84660 75700
L84720 75700
L84780 75730
L84800 75760
L84830 75810
L84860 75930
L84860 76070
L84830 76180
L84800 76240
L84780 76260
L84720 76290
L84660 76290
L84610 76260
L84580 76240
L84550 76180
L84520 76070
L84520 75930
L84550 75810
L84580 75760
L84610 75730
L84660 75700
" />
<path d="M85050 75700
L85420 75700
L85220 75930
L85310 75930
L85360 75950
L85390 75980
L85420 76040
L85420 76180
L85390 76240
L85360 76260
L85310 76290
L85140 76290
L85080 76260
L85050 76240
" />
<path d="M85670 76070
L86120 76070
" />
<path d="M86710 76290
L86370 76290
" />
<path d="M86540 76290
L86540 75700
L86480 75790
L86430 75840
L86370 75870
" />
<path d="M87210 75900
L87210 76290
" />
<path d="M87070 75670
L86930 76100
L87300 76100
" />
</g>
<g style="fill:#840000; fill-opacity:0.0; 
stroke:#840000; stroke-width:100; stroke-opacity:1; 
stroke-linecap:round; stroke-linejoin:round;">
</g>
<g style="fill:#840000; fill-opacity:0.0; 
stroke:#840000; stroke-width:60; stroke-opacity:1; 
stroke-linecap:round; stroke-linejoin:round;">
<path d="M69690 76580
L112210 76580
" />
</g>
<g style="fill:#840000; fill-opacity:0.0; 
stroke:#840000; stroke-width:100; stroke-opacity:1; 
stroke-linecap:round; stroke-linejoin:round;">
</g>
<g style="fill:#840000; fill-opacity:0.0; 
stroke:#840000; stroke-width:60; stroke-opacity:1; 
stroke-linecap:round; stroke-linejoin:round;">
<path d="M70220 77390
L70220 76800
" />
<path d="M70560 77390
L70300 77050
" />
<path d="M70560 76800
L70220 77140
" />
<path d="M70810 77390
L70810 77000
" />
<path d="M70810 76800
L70780 76830
L70810 76860
L70840 76830
L70810 76800
L70810 76860
" />
<path d="M71430 77340
L71400 77360
L71320 77390
L71260 77390
L71170 77360
L71120 77310
L71090 77250
L71060 77140
L71060 77050
L71090 76940
L71120 76890
L71170 76830
L71260 76800
L71320 76800
L71400 76830
L71430 76860
" />
<path d="M71930 77390
L71930 77080
L71910 77030
L71850 77000
L71740 77000
L71680 77030
" />
<path d="M71930 77360
L71880 77390
L71740 77390
L71680 77360
L71650 77310
L71650 77250
L71680 77200
L71740 77170
L71880 77170
L71930 77140
" />
<path d="M72460 77390
L72460 76800
" />
<path d="M72460 77360
L72410 77390
L72290 77390
L72240 77360
L72210 77340
L72180 77280
L72180 77110
L72210 77050
L72240 77030
L72290 77000
L72410 77000
L72460 77030
" />
<path d="M73190 77080
L73390 77080
" />
<path d="M73470 77390
L73190 77390
L73190 76800
L73470 76800
" />
<path d="M73720 77340
L73750 77360
L73720 77390
L73690 77360
L73720 77340
L73720 77390
" />
<path d="M74000 77390
L74000 76800
L74140 76800
L74230 76830
L74280 76890
L74310 76940
L74340 77050
L74340 77140
L74310 77250
L74280 77310
L74230 77360
L74140 77390
L74000 77390
" />
<path d="M74590 77340
L74620 77360
L74590 77390
L74560 77360
L74590 77340
L74590 77390
" />
<path d="M74840 77220
L75120 77220
" />
<path d="M74790 77390
L74980 76800
L75180 77390
" />
<path d="M75380 77340
L75410 77360
L75380 77390
L75350 77360
L75380 77340
L75380 77390
" />
<path d="M76560 77390
L76560 76800
" />
<path d="M76620 77170
L76790 77390
" />
<path d="M76790 77000
L76560 77220
" />
<path d="M77040 77390
L77040 77000
" />
<path d="M77040 76800
L77010 76830
L77040 76860
L77070 76830
L77040 76800
L77040 76860
" />
<path d="M77570 77360
L77520 77390
L77400 77390
L77350 77360
L77320 77340
L77290 77280
L77290 77110
L77320 77050
L77350 77030
L77400 77000
L77520 77000
L77570 77030
" />
<path d="M78080 77390
L78080 77080
L78060 77030
L78000 77000
L77890 77000
L77830 77030
" />
<path d="M78080 77360
L78030 77390
L77890 77390
L77830 77360
L77800 77310
L77800 77250
L77830 77200
L77890 77170
L78030 77170
L78080 77140
" />
<path d="M78610 77390
L78610 76800
" />
<path d="M78610 77360
L78560 77390
L78440 77390
L78390 77360
L78360 77340
L78330 77280
L78330 77110
L78360 77050
L78390 77030
L78440 77000
L78560 77000
L78610 77030
" />
<path d="M79590 77000
L79590 77390
" />
<path d="M79450 76770
L79310 77200
L79680 77200
" />
<path d="M79900 77340
L79930 77360
L79900 77390
L79870 77360
L79900 77340
L79900 77390
" />
<path d="M80290 76800
L80350 76800
L80410 76830
L80430 76860
L80460 76910
L80490 77030
L80490 77170
L80460 77280
L80430 77340
L80410 77360
L80350 77390
L80290 77390
L80240 77360
L80210 77340
L80180 77280
L80150 77170
L80150 77030
L80180 76910
L80210 76860
L80240 76830
L80290 76800
" />
<path d="M80740 77340
L80770 77360
L80740 77390
L80710 77360
L80740 77340
L80740 77390
" />
<path d="M81270 76800
L81160 76800
L81100 76830
L81080 76860
L81020 76940
L80990 77050
L80990 77280
L81020 77340
L81050 77360
L81100 77390
L81220 77390
L81270 77360
L81300 77340
L81330 77280
L81330 77140
L81300 77080
L81270 77050
L81220 77030
L81100 77030
L81050 77050
L81020 77080
L80990 77140
" />
</g>
<g style="fill:#840000; fill-opacity:0.0; 
stroke:#840000; stroke-width:100; stroke-opacity:1; 
stroke-linecap:round; stroke-linejoin:round;">
</g>
<g style="fill:#840000; fill-opacity:0.0; 
stroke:#840000; stroke-width:60; stroke-opacity:1; 
stroke-linecap:round; stroke-linejoin:round;">
<path d="M69690 75400
L112210 75400
" />
</g>
<g style="fill:#840000; fill-opacity:0.0; 
stroke:#840000; stroke-width:100; stroke-opacity:1; 
stroke-linecap:round; stroke-linejoin:round;">
</g>
<g style="fill:#840000; fill-opacity:0.0; 
stroke:#840000; stroke-width:120; stroke-opacity:1; 
stroke-linecap:round; stroke-linejoin:round;">
<path d="M104020 76290
L103820 76010
" />
<path d="M103680 76290
L103680 75700
L103910 75700
L103960 75730
L103990 75760
L104020 75810
L104020 75900
L103990 75950
L103960 75980
L103910 76010
L103680 76010
" />
<path d="M104500 76260
L104440 76290
L104330 76290
L104270 76260
L104240 76210
L104240 75980
L104270 75930
L104330 75900
L104440 75900
L104500 75930
L104520 75980
L104520 76040
L104240 76100
" />
<path d="M104720 75900
L104860 76290
L105010 75900
" />
<path d="M105230 76240
L105260 76260
L105230 76290
L105200 76260
L105230 76240
L105230 76290
" />
<path d="M105230 75930
L105260 75950
L105230 75980
L105200 75950
L105230 75930
L105230 75980
" />
<path d="M106270 76290
L105930 76290
" />
<path d="M106100 76290
L106100 75700
L106040 75790
L105990 75840
L105930 75870
" />
<path d="M106630 75700
L106690 75700
L106750 75730
L106770 75760
L106800 75810
L106830 75930
L106830 76070
L106800 76180
L106770 76240
L106750 76260
L106690 76290
L106630 76290
L106580 76260
L106550 76240
L106520 76180
L106490 76070
L106490 75930
L106520 75810
L106550 75760
L106580 75730
L106630 75700
" />
</g>
<g style="fill:#840000; fill-opacity:0.0; 
stroke:#840000; stroke-width:100; stroke-opacity:1; 
stroke-linecap:round; stroke-linejoin:round;">
</g>
<g style="fill:#840000; fill-opacity:0.0; 
stroke:#840000; stroke-width:60; stroke-opacity:1; 
stroke-linecap:round; stroke-linejoin:round;">
<path d="M70190 76260
L70280 76290
L70420 76290
L70470 76260
L70500 76240
L70530 76180
L70530 76120
L70500 76070
L70470 76040
L70420 76010
L70300 75980
L70250 75950
L70220 75930
L70190 75870
L70190 75810
L70220 75760
L70250 75730
L70300 75700
L70450 75700
L70530 75730
" />
<path d="M70780 76290
L70780 75900
" />
<path d="M70780 75700
L70750 75730
L70780 75760
L70810 75730
L70780 75700
L70780 75760
" />
<path d="M71000 75900
L71310 75900
L71000 76290
L71310 76290
" />
<path d="M71770 76260
L71710 76290
L71600 76290
L71540 76260
L71510 76210
L71510 75980
L71540 75930
L71600 75900
L71710 75900
L71770 75930
L71790 75980
L71790 76040
L71510 76100
" />
<path d="M72050 76240
L72080 76260
L72050 76290
L72020 76260
L72050 76240
L72050 76290
" />
<path d="M72050 75930
L72080 75950
L72050 75980
L72020 75950
L72050 75930
L72050 75980
" />
<path d="M72750 76120
L73030 76120
" />
<path d="M72700 76290
L72890 75700
L73090 76290
" />
<path d="M73540 75900
L73540 76290
" />
<path d="M73400 75670
L73260 76100
L73630 76100
" />
</g>
<g style="fill:#840000; fill-opacity:0.0; 
stroke:#840000; stroke-width:100; stroke-opacity:1; 
stroke-linecap:round; stroke-linejoin:round;">
</g>
<g style="fill:#840000; fill-opacity:0.0; 
stroke:#840000; stroke-width:60; stroke-opacity:1; 
stroke-linecap:round; stroke-linejoin:round;">
<path d="M103680 77390
L103680 76800
" />
<path d="M104210 77390
L104210 76800
" />
<path d="M104210 77360
L104160 77390
L104040 77390
L103990 77360
L103960 77340
L103930 77280
L103930 77110
L103960 77050
L103990 77030
L104040 77000
L104160 77000
L104210 77030
" />
<path d="M104490 77340
L104520 77360
L104490 77390
L104460 77360
L104490 77340
L104490 77390
" />
<path d="M104490 77030
L104520 77050
L104490 77080
L104460 77050
L104490 77030
L104490 77080
" />
<path d="M105470 77000
L105470 77390
" />
<path d="M105330 76770
L105190 77200
L105560 77200
" />
<path d="M106200 76770
L105700 77530
" />
<path d="M106710 77390
L106370 77390
" />
<path d="M106540 77390
L106540 76800
L106480 76890
L106430 76940
L106370 76970
" />
<path d="M107270 77390
L106930 77390
" />
<path d="M107100 77390
L107100 76800
L107040 76890
L106990 76940
L106930 76970
" />
</g>
<g style="fill:#840000; fill-opacity:0.0; 
stroke:#840000; stroke-width:100; stroke-opacity:1; 
stroke-linecap:round; stroke-linejoin:round;">
</g>
<g style="fill:#840000; fill-opacity:0.0; 
stroke:#840000; stroke-width:60; stroke-opacity:1; 
stroke-linecap:round; stroke-linejoin:round;">
<path d="M69690 73820
L112210 73820
" />
</g>
<g style="fill:#840000; fill-opacity:0.0; 
stroke:#840000; stroke-width:100; stroke-opacity:1; 
stroke-linecap:round; stroke-linejoin:round;">
</g>
<g style="fill:#840000; fill-opacity:0.0; 
stroke:#840000; stroke-width:160; stroke-opacity:1; 
stroke-linecap:round; stroke-linejoin:round;">
<path d="M70260 74090
L70710 74090
" />
<path d="M70390 74880
L70480 74090
" />
<path d="M70880 74880
L70940 74360
" />
<path d="M70970 74090
L70930 74130
L70960 74170
L71010 74130
L70970 74090
L70960 74170
" />
<path d="M71210 74360
L71510 74360
" />
<path d="M71350 74090
L71270 74770
L71300 74840
L71370 74880
L71450 74880
" />
<path d="M71820 74880
L71750 74840
L71720 74770
L71800 74090
" />
<path d="M72420 74840
L72340 74880
L72190 74880
L72120 74840
L72090 74770
L72130 74470
L72180 74390
L72250 74360
L72400 74360
L72480 74390
L72510 74470
L72500 74540
L72110 74620
" />
<path d="M72800 74810
L72840 74840
L72800 74880
L72760 74840
L72800 74810
L72800 74880
" />
<path d="M72860 74390
L72890 74430
L72850 74470
L72810 74430
L72860 74390
L72850 74470
" />
<path d="M73780 74880
L73870 74090
L74170 74090
L74240 74130
L74270 74170
L74310 74240
L74290 74360
L74240 74430
L74200 74470
L74120 74510
L73820 74510
" />
<path d="M74680 74880
L74610 74840
L74570 74810
L74540 74730
L74570 74510
L74620 74430
L74670 74390
L74740 74360
L74850 74360
L74930 74390
L74960 74430
L74980 74510
L74950 74730
L74910 74810
L74870 74840
L74790 74880
L74680 74880
" />
<path d="M75260 74360
L75350 74880
L75540 74510
L75650 74880
L75860 74360
" />
<path d="M76410 74840
L76330 74880
L76180 74880
L76110 74840
L76080 74770
L76120 74470
L76170 74390
L76240 74360
L76390 74360
L76470 74390
L76500 74470
L76490 74540
L76100 74620
" />
<path d="M76790 74880
L76850 74360
" />
<path d="M76830 74510
L76880 74430
L76920 74390
L77000 74360
L77070 74360
" />
<path d="M77280 74880
L77370 74090
" />
<path d="M77340 74390
L77410 74360
L77560 74360
L77640 74390
L77670 74430
L77690 74510
L77660 74730
L77620 74810
L77580 74840
L77500 74880
L77350 74880
L77280 74840
" />
<path d="M78100 74880
L78030 74840
L77990 74810
L77960 74730
L77990 74510
L78040 74430
L78090 74390
L78160 74360
L78270 74360
L78350 74390
L78380 74430
L78400 74510
L78370 74730
L78330 74810
L78290 74840
L78210 74880
L78100 74880
" />
<path d="M79040 74880
L79090 74470
L79060 74390
L78980 74360
L78830 74360
L78760 74390
" />
<path d="M79040 74840
L78960 74880
L78770 74880
L78700 74840
L78670 74770
L78680 74690
L78730 74620
L78800 74580
L78990 74580
L79080 74540
" />
<path d="M79410 74880
L79470 74360
" />
<path d="M79450 74510
L79500 74430
L79540 74390
L79620 74360
L79690 74360
" />
<path d="M80240 74880
L80330 74090
" />
<path d="M80240 74840
L80160 74880
L80010 74880
L79940 74840
L79900 74810
L79870 74730
L79900 74510
L79950 74430
L80000 74390
L80070 74360
L80220 74360
L80300 74390
" />
<path d="M81210 74880
L81270 74360
" />
<path d="M81260 74430
L81310 74390
L81380 74360
L81490 74360
L81570 74390
L81600 74470
L81550 74880
" />
<path d="M81600 74470
L81640 74390
L81720 74360
L81830 74360
L81910 74390
L81940 74470
L81890 74880
" />
<path d="M82370 74880
L82300 74840
L82260 74810
L82230 74730
L82260 74510
L82310 74430
L82360 74390
L82430 74360
L82540 74360
L82620 74390
L82650 74430
L82670 74510
L82640 74730
L82600 74810
L82560 74840
L82480 74880
L82370 74880
" />
<path d="M82920 74360
L83220 74360
" />
<path d="M83060 74090
L82980 74770
L83010 74840
L83080 74880
L83160 74880
" />
<path d="M83530 74880
L83460 74840
L83420 74810
L83390 74730
L83420 74510
L83470 74430
L83520 74390
L83590 74360
L83700 74360
L83780 74390
L83810 74430
L83830 74510
L83800 74730
L83760 74810
L83720 74840
L83640 74880
L83530 74880
" />
<path d="M84130 74880
L84190 74360
" />
<path d="M84170 74510
L84220 74430
L84260 74390
L84340 74360
L84410 74360
" />
<path d="M85560 74840
L85480 74880
L85330 74880
L85260 74840
L85220 74810
L85190 74730
L85220 74510
L85270 74430
L85320 74390
L85390 74360
L85540 74360
L85620 74390
" />
<path d="M86010 74880
L85940 74840
L85900 74810
L85870 74730
L85900 74510
L85950 74430
L86000 74390
L86070 74360
L86180 74360
L86260 74390
L86290 74430
L86310 74510
L86280 74730
L86240 74810
L86200 74840
L86120 74880
L86010 74880
" />
<path d="M86670 74360
L86610 74880
" />
<path d="M86660 74430
L86710 74390
L86780 74360
L86890 74360
L86970 74390
L87000 74470
L86950 74880
" />
<path d="M87270 74360
L87570 74360
" />
<path d="M87410 74090
L87330 74770
L87360 74840
L87430 74880
L87510 74880
" />
<path d="M87770 74880
L87830 74360
" />
<path d="M87810 74510
L87860 74430
L87900 74390
L87980 74360
L88050 74360
" />
<path d="M88370 74880
L88300 74840
L88260 74810
L88230 74730
L88260 74510
L88310 74430
L88360 74390
L88430 74360
L88540 74360
L88620 74390
L88650 74430
L88670 74510
L88640 74730
L88600 74810
L88560 74840
L88480 74880
L88370 74880
" />
<path d="M89080 74880
L89010 74840
L88980 74770
L89060 74090
" />
<path d="M89490 74880
L89420 74840
L89390 74770
L89470 74090
" />
<path d="M90090 74840
L90010 74880
L89860 74880
L89790 74840
L89760 74770
L89800 74470
L89850 74390
L89920 74360
L90070 74360
L90150 74390
L90180 74470
L90170 74540
L89780 74620
" />
<path d="M90470 74880
L90530 74360
" />
<path d="M90510 74510
L90560 74430
L90600 74390
L90680 74360
L90750 74360
" />
</g>
<g style="fill:#840000; fill-opacity:0.0; 
stroke:#840000; stroke-width:100; stroke-opacity:1; 
stroke-linecap:round; stroke-linejoin:round;">
</g>
<g style="fill:#840000; fill-opacity:0.0; 
stroke:#840000; stroke-width:60; stroke-opacity:1; 
stroke-linecap:round; stroke-linejoin:round;">
<path d="M70420 73060
L70220 73060
" />
<path d="M70220 73370
L70220 72780
L70500 72780
" />
<path d="M70730 73370
L70730 72980
" />
<path d="M70730 72780
L70700 72810
L70730 72840
L70760 72810
L70730 72780
L70730 72840
" />
<path d="M71090 73370
L71040 73340
L71010 73290
L71010 72780
" />
<path d="M71550 73340
L71490 73370
L71380 73370
L71320 73340
L71290 73290
L71290 73060
L71320 73010
L71380 72980
L71490 72980
L71550 73010
L71570 73060
L71570 73120
L71290 73180
" />
<path d="M71830 73320
L71860 73340
L71830 73370
L71800 73340
L71830 73320
L71830 73370
" />
<path d="M71830 73010
L71860 73030
L71830 73060
L71800 73030
L71830 73010
L71830 73060
" />
<path d="M72560 72980
L72560 73570
" />
<path d="M72560 73010
L72620 72980
L72730 72980
L72790 73010
L72810 73030
L72840 73090
L72840 73260
L72810 73320
L72790 73340
L72730 73370
L72620 73370
L72560 73340
" />
<path d="M73170 73370
L73120 73340
L73090 73320
L73060 73260
L73060 73090
L73090 73030
L73120 73010
L73170 72980
L73260 72980
L73320 73010
L73340 73030
L73370 73090
L73370 73260
L73340 73320
L73320 73340
L73260 73370
L73170 73370
" />
<path d="M73560 72980
L73680 73370
L73790 73090
L73900 73370
L74010 72980
" />
<path d="M74470 73340
L74410 73370
L74300 73370
L74240 73340
L74210 73290
L74210 73060
L74240 73010
L74300 72980
L74410 72980
L74470 73010
L74490 73060
L74490 73120
L74210 73180
" />
<path d="M74750 73370
L74750 72980
" />
<path d="M74750 73090
L74780 73030
L74810 73010
L74860 72980
L74920 72980
" />
<path d="M75120 73370
L75120 72780
" />
<path d="M75120 73010
L75180 72980
L75290 72980
L75350 73010
L75370 73030
L75400 73090
L75400 73260
L75370 73320
L75350 73340
L75290 73370
L75180 73370
L75120 73340
" />
<path d="M75730 73370
L75680 73340
L75650 73320
L75620 73260
L75620 73090
L75650 73030
L75680 73010
L75730 72980
L75820 72980
L75880 73010
L75900 73030
L75930 73090
L75930 73260
L75900 73320
L75880 73340
L75820 73370
L75730 73370
" />
<path d="M76430 73370
L76430 73060
L76410 73010
L76350 72980
L76240 72980
L76180 73010
" />
<path d="M76430 73340
L76380 73370
L76240 73370
L76180 73340
L76150 73290
L76150 73230
L76180 73180
L76240 73150
L76380 73150
L76430 73120
" />
<path d="M76710 73370
L76710 72980
" />
<path d="M76710 73090
L76740 73030
L76770 73010
L76820 72980
L76880 72980
" />
<path d="M77330 73370
L77330 72780
" />
<path d="M77330 73340
L77280 73370
L77160 73370
L77110 73340
L77080 73320
L77050 73260
L77050 73090
L77080 73030
L77110 73010
L77160 72980
L77280 72980
L77330 73010
" />
<path d="M77470 73430
L77920 73430
" />
<path d="M78060 73370
L78060 72980
" />
<path d="M78060 73030
L78090 73010
L78140 72980
L78230 72980
L78290 73010
L78310 73060
L78310 73370
" />
<path d="M78310 73060
L78340 73010
L78400 72980
L78480 72980
L78540 73010
L78570 73060
L78570 73370
" />
<path d="M78930 73370
L78880 73340
L78850 73320
L78820 73260
L78820 73090
L78850 73030
L78880 73010
L78930 72980
L79020 72980
L79080 73010
L79100 73030
L79130 73090
L79130 73260
L79100 73320
L79080 73340
L79020 73370
L78930 73370
" />
<path d="M79300 72980
L79520 72980
" />
<path d="M79380 72780
L79380 73290
L79410 73340
L79460 73370
L79520 73370
" />
<path d="M79800 73370
L79750 73340
L79720 73320
L79690 73260
L79690 73090
L79720 73030
L79750 73010
L79800 72980
L79890 72980
L79950 73010
L79970 73030
L80000 73090
L80000 73260
L79970 73320
L79950 73340
L79890 73370
L79800 73370
" />
<path d="M80250 73370
L80250 72980
" />
<path d="M80250 73090
L80280 73030
L80310 73010
L80360 72980
L80420 72980
" />
<path d="M80480 73430
L80930 73430
" />
<path d="M81320 73340
L81270 73370
L81150 73370
L81100 73340
L81070 73320
L81040 73260
L81040 73090
L81070 73030
L81100 73010
L81150 72980
L81270 72980
L81320 73010
" />
<path d="M81660 73370
L81610 73340
L81580 73320
L81550 73260
L81550 73090
L81580 73030
L81610 73010
L81660 72980
L81750 72980
L81810 73010
L81830 73030
L81860 73090
L81860 73260
L81830 73320
L81810 73340
L81750 73370
L81660 73370
" />
<path d="M82110 72980
L82110 73370
" />
<path d="M82110 73030
L82140 73010
L82190 72980
L82280 72980
L82340 73010
L82360 73060
L82360 73370
" />
<path d="M82560 72980
L82780 72980
" />
<path d="M82640 72780
L82640 73290
L82670 73340
L82720 73370
L82780 73370
" />
<path d="M82980 73370
L82980 72980
" />
<path d="M82980 73090
L83010 73030
L83040 73010
L83090 72980
L83150 72980
" />
<path d="M83430 73370
L83380 73340
L83350 73320
L83320 73260
L83320 73090
L83350 73030
L83380 73010
L83430 72980
L83520 72980
L83580 73010
L83600 73030
L83630 73090
L83630 73260
L83600 73320
L83580 73340
L83520 73370
L83430 73370
" />
<path d="M83960 73370
L83910 73340
L83880 73290
L83880 72780
" />
<path d="M84270 73370
L84220 73340
L84190 73290
L84190 72780
" />
<path d="M84730 73340
L84670 73370
L84560 73370
L84500 73340
L84470 73290
L84470 73060
L84500 73010
L84560 72980
L84670 72980
L84730 73010
L84750 73060
L84750 73120
L84470 73180
" />
<path d="M85010 73370
L85010 72980
" />
<path d="M85010 73090
L85040 73030
L85070 73010
L85120 72980
L85180 72980
" />
<path d="M85380 73320
L85410 73340
L85380 73370
L85350 73340
L85380 73320
L85380 73370
" />
<path d="M85630 73340
L85690 73370
L85800 73370
L85860 73340
L85890 73290
L85890 73260
L85860 73200
L85800 73180
L85720 73180
L85660 73150
L85630 73090
L85630 73060
L85660 73010
L85720 72980
L85800 72980
L85860 73010
" />
<path d="M86390 73340
L86340 73370
L86220 73370
L86170 73340
L86140 73320
L86110 73260
L86110 73090
L86140 73030
L86170 73010
L86220 72980
L86340 72980
L86390 73010
" />
<path d="M86650 73370
L86650 72780
" />
<path d="M86900 73370
L86900 73060
L86880 73010
L86820 72980
L86730 72980
L86680 73010
L86650 73030
" />
</g>
<g style="fill:#840000; fill-opacity:0.0; 
stroke:#840000; stroke-width:100; stroke-opacity:1; 
stroke-linecap:round; stroke-linejoin:round;">
</g>
<g style="fill:#840000; fill-opacity:0.0; 
stroke:#840000; stroke-width:60; stroke-opacity:1; 
stroke-linecap:round; stroke-linejoin:round;">
<path d="M69690 71460
L112210 71460
" />
</g>
<g style="fill:#840000; fill-opacity:0.0; 
stroke:#840000; stroke-width:100; stroke-opacity:1; 
stroke-linecap:round; stroke-linejoin:round;">
</g>
<g style="fill:#840000; fill-opacity:0.0; 
stroke:#840000; stroke-width:60; stroke-opacity:1; 
stroke-linecap:round; stroke-linejoin:round;">
<path d="M70190 72280
L70280 72310
L70420 72310
L70470 72280
L70500 72260
L70530 72200
L70530 72140
L70500 72090
L70470 72060
L70420 72030
L70300 72000
L70250 71970
L70220 71950
L70190 71890
L70190 71830
L70220 71780
L70250 71750
L70300 71720
L70450 71720
L70530 71750
" />
<path d="M70780 72310
L70780 71720
" />
<path d="M71030 72310
L71030 72000
L71010 71950
L70950 71920
L70860 71920
L70810 71950
L70780 71970
" />
<path d="M71540 72280
L71480 72310
L71370 72310
L71310 72280
L71280 72230
L71280 72000
L71310 71950
L71370 71920
L71480 71920
L71540 71950
L71560 72000
L71560 72060
L71280 72120
" />
<path d="M72050 72280
L71990 72310
L71880 72310
L71820 72280
L71790 72230
L71790 72000
L71820 71950
L71880 71920
L71990 71920
L72050 71950
L72070 72000
L72070 72060
L71790 72120
" />
<path d="M72250 71920
L72470 71920
" />
<path d="M72330 71720
L72330 72230
L72360 72280
L72410 72310
L72470 72310
" />
<path d="M72670 72260
L72700 72280
L72670 72310
L72640 72280
L72670 72260
L72670 72310
" />
<path d="M72670 71950
L72700 71970
L72670 72000
L72640 71970
L72670 71950
L72670 72000
" />
<path d="M73820 71690
L73320 72450
" />
<path d="M74020 72310
L74020 71720
L74250 71720
L74300 71750
L74330 71780
L74360 71830
L74360 71920
L74330 71970
L74300 72000
L74250 72030
L74020 72030
" />
<path d="M74690 72310
L74640 72280
L74610 72260
L74580 72200
L74580 72030
L74610 71970
L74640 71950
L74690 71920
L74780 71920
L74840 71950
L74860 71970
L74890 72030
L74890 72200
L74860 72260
L74840 72280
L74780 72310
L74690 72310
" />
<path d="M75080 71920
L75200 72310
L75310 72030
L75420 72310
L75530 71920
" />
<path d="M75990 72280
L75930 72310
L75820 72310
L75760 72280
L75730 72230
L75730 72000
L75760 71950
L75820 71920
L75930 71920
L75990 71950
L76010 72000
L76010 72060
L75730 72120
" />
<path d="M76270 72310
L76270 71920
" />
<path d="M76270 72030
L76300 71970
L76330 71950
L76380 71920
L76440 71920
" />
<path d="M76640 72310
L76640 71720
" />
<path d="M76640 71950
L76700 71920
L76810 71920
L76870 71950
L76890 71970
L76920 72030
L76920 72200
L76890 72260
L76870 72280
L76810 72310
L76700 72310
L76640 72280
" />
<path d="M77250 72310
L77200 72280
L77170 72260
L77140 72200
L77140 72030
L77170 71970
L77200 71950
L77250 71920
L77340 71920
L77400 71950
L77420 71970
L77450 72030
L77450 72200
L77420 72260
L77400 72280
L77340 72310
L77250 72310
" />
<path d="M77950 72310
L77950 72000
L77930 71950
L77870 71920
L77760 71920
L77700 71950
" />
<path d="M77950 72280
L77900 72310
L77760 72310
L77700 72280
L77670 72230
L77670 72170
L77700 72120
L77760 72090
L77900 72090
L77950 72060
" />
<path d="M78230 72310
L78230 71920
" />
<path d="M78230 72030
L78260 71970
L78290 71950
L78340 71920
L78400 71920
" />
<path d="M78850 72310
L78850 71720
" />
<path d="M78850 72280
L78800 72310
L78680 72310
L78630 72280
L78600 72260
L78570 72200
L78570 72030
L78600 71970
L78630 71950
L78680 71920
L78800 71920
L78850 71950
" />
<path d="M79580 72310
L79580 71720
L79780 72140
L79970 71720
L79970 72310
" />
<path d="M80330 72310
L80280 72280
L80250 72260
L80220 72200
L80220 72030
L80250 71970
L80280 71950
L80330 71920
L80420 71920
L80480 71950
L80500 71970
L80530 72030
L80530 72200
L80500 72260
L80480 72280
L80420 72310
L80330 72310
" />
<path d="M80700 71920
L80920 71920
" />
<path d="M80780 71720
L80780 72230
L80810 72280
L80860 72310
L80920 72310
" />
<path d="M81200 72310
L81150 72280
L81120 72260
L81090 72200
L81090 72030
L81120 71970
L81150 71950
L81200 71920
L81290 71920
L81350 71950
L81370 71970
L81400 72030
L81400 72200
L81370 72260
L81350 72280
L81290 72310
L81200 72310
" />
<path d="M81650 72310
L81650 71920
" />
<path d="M81650 72030
L81680 71970
L81710 71950
L81760 71920
L81820 71920
" />
<path d="M82810 72260
L82780 72280
L82700 72310
L82640 72310
L82550 72280
L82500 72230
L82470 72170
L82440 72060
L82440 71970
L82470 71860
L82500 71810
L82550 71750
L82640 71720
L82700 71720
L82780 71750
L82810 71780
" />
<path d="M83140 72310
L83090 72280
L83060 72260
L83030 72200
L83030 72030
L83060 71970
L83090 71950
L83140 71920
L83230 71920
L83290 71950
L83310 71970
L83340 72030
L83340 72200
L83310 72260
L83290 72280
L83230 72310
L83140 72310
" />
<path d="M83590 71920
L83590 72310
" />
<path d="M83590 71970
L83620 71950
L83670 71920
L83760 71920
L83820 71950
L83840 72000
L83840 72310
" />
<path d="M84040 71920
L84260 71920
" />
<path d="M84120 71720
L84120 72230
L84150 72280
L84200 72310
L84260 72310
" />
<path d="M84460 72310
L84460 71920
" />
<path d="M84460 72030
L84490 71970
L84520 71950
L84570 71920
L84630 71920
" />
<path d="M84910 72310
L84860 72280
L84830 72260
L84800 72200
L84800 72030
L84830 71970
L84860 71950
L84910 71920
L85000 71920
L85060 71950
L85080 71970
L85110 72030
L85110 72200
L85080 72260
L85060 72280
L85000 72310
L84910 72310
" />
<path d="M85440 72310
L85390 72280
L85360 72230
L85360 71720
" />
<path d="M85750 72310
L85700 72280
L85670 72230
L85670 71720
" />
<path d="M86210 72280
L86150 72310
L86040 72310
L85980 72280
L85950 72230
L85950 72000
L85980 71950
L86040 71920
L86150 71920
L86210 71950
L86230 72000
L86230 72060
L85950 72120
" />
<path d="M86490 72310
L86490 71920
" />
<path d="M86490 72030
L86520 71970
L86550 71950
L86600 71920
L86660 71920
" />
<path d="M87280 71690
L86780 72450
" />
</g>
<g style="fill:#840000; fill-opacity:0.0; 
stroke:#840000; stroke-width:100; stroke-opacity:1; 
stroke-linecap:round; stroke-linejoin:round;">
</g>
<g style="fill:#840000; fill-opacity:0.0; 
stroke:#840000; stroke-width:120; stroke-opacity:1; 
stroke-linecap:round; stroke-linejoin:round;">
<path d="M70140 70540
L70330 71130
L70530 70540
" />
<path d="M70730 71130
L70730 70540
" />
<path d="M71010 71130
L71010 70540
L71240 70540
L71290 70570
L71320 70600
L71350 70650
L71350 70740
L71320 70790
L71290 70820
L71240 70850
L71010 70850
" />
<path d="M71600 70820
L71800 70820
" />
<path d="M71880 71130
L71600 71130
L71600 70540
L71880 70540
" />
<path d="M72470 71130
L72270 70850
" />
<path d="M72130 71130
L72130 70540
L72360 70540
L72410 70570
L72440 70600
L72470 70650
L72470 70740
L72440 70790
L72410 70820
L72360 70850
L72130 70850
" />
</g>
<g style="fill:#840000; fill-opacity:0.0; 
stroke:#840000; stroke-width:100; stroke-opacity:1; 
stroke-linecap:round; stroke-linejoin:round;">
</g>
<g style="fill:#840000; fill-opacity:0.0; 
stroke:#840000; stroke-width:60; stroke-opacity:1; 
stroke-linecap:round; stroke-linejoin:round;">
<path d="M77560 75400
L77560 76580
" />
</g>
<g style="fill:#840000; fill-opacity:0.0; 
stroke:#840000; stroke-width:100; stroke-opacity:1; 
stroke-linecap:round; stroke-linejoin:round;">
</g>
<g style="fill:#840000; fill-opacity:0.0; 
stroke:#840000; stroke-width:60; stroke-opacity:1; 
stroke-linecap:round; stroke-linejoin:round;">
<path d="M102760 75400
L102760 77960
" />
</g>
<g style="fill:#848400; fill-opacity:0.0; 
stroke:#848400; stroke-width:60; stroke-opacity:1; 
stroke-linecap:round; stroke-linejoin:round;">
<path d="M51910 34670
L52110 35270
L52310 34670
" />
<path d="M52360 35330
L52820 35330
" />
<path d="M52960 35270
L52960 34670
" />
<path d="M53250 35270
L53250 34670
L53600 35270
L53600 34670
" />
</g>
<g style="fill:#848400; fill-opacity:0.0; 
stroke:#848400; stroke-width:100; stroke-opacity:1; 
stroke-linecap:round; stroke-linejoin:round;">
<polyline fill="none;"
points="54500,35000
54200,34700
53900,34700
53900,35300
54200,35300
54500,35000
" /> 
</g>
<g style="fill:#848400; fill-opacity:0.0; 
stroke:#848400; stroke-width:60; stroke-opacity:1; 
stroke-linecap:round; stroke-linejoin:round;">
<path d="M66400 38270
L66400 37670
L66630 37670
L66690 37700
L66720 37730
L66750 37790
L66750 37870
L66720 37930
L66690 37960
L66630 37990
L66400 37990
" />
<path d="M67000 38270
L67000 37670
" />
<path d="M67260 38270
L67260 37960
L67230 37900
L67170 37870
L67090 37870
L67030 37900
L67000 37930
" />
<path d="M67800 38270
L67800 37960
L67770 37900
L67710 37870
L67600 37870
L67540 37900
" />
<path d="M67800 38240
L67740 38270
L67600 38270
L67540 38240
L67510 38190
L67510 38130
L67540 38070
L67600 38040
L67740 38040
L67800 38010
" />
<path d="M68050 38240
L68110 38270
L68230 38270
L68280 38240
L68310 38190
L68310 38160
L68280 38100
L68230 38070
L68140 38070
L68080 38040
L68050 37990
L68050 37960
L68080 37900
L68140 37870
L68230 37870
L68280 37900
" />
<path d="M68800 38240
L68740 38270
L68630 38270
L68570 38240
L68540 38190
L68540 37960
L68570 37900
L68630 37870
L68740 37870
L68800 37900
L68830 37960
L68830 38010
L68540 38070
" />
<path d="M68940 38330
L69400 38330
" />
<path d="M69540 37670
L69540 38160
L69570 38210
L69600 38240
L69660 38270
L69770 38270
L69830 38240
L69860 38210
L69890 38160
L69890 37670
" />
</g>
<g style="fill:#848400; fill-opacity:0.0; 
stroke:#848400; stroke-width:100; stroke-opacity:1; 
stroke-linecap:round; stroke-linejoin:round;">
<polyline fill="none;"
points="66100,38000
65800,37700
65500,37700
65500,38300
65800,38300
66100,38000
" /> 
</g>
<g style="fill:#848400; fill-opacity:0.0; 
stroke:#848400; stroke-width:60; stroke-opacity:1; 
stroke-linecap:round; stroke-linejoin:round;">
<path d="M66400 39270
L66400 38670
L66630 38670
L66690 38700
L66720 38730
L66750 38790
L66750 38870
L66720 38930
L66690 38960
L66630 38990
L66400 38990
" />
<path d="M67000 39270
L67000 38670
" />
<path d="M67260 39270
L67260 38960
L67230 38900
L67170 38870
L67090 38870
L67030 38900
L67000 38930
" />
<path d="M67800 39270
L67800 38960
L67770 38900
L67710 38870
L67600 38870
L67540 38900
" />
<path d="M67800 39240
L67740 39270
L67600 39270
L67540 39240
L67510 39190
L67510 39130
L67540 39070
L67600 39040
L67740 39040
L67800 39010
" />
<path d="M68050 39240
L68110 39270
L68230 39270
L68280 39240
L68310 39190
L68310 39160
L68280 39100
L68230 39070
L68140 39070
L68080 39040
L68050 38990
L68050 38960
L68080 38900
L68140 38870
L68230 38870
L68280 38900
" />
<path d="M68800 39240
L68740 39270
L68630 39270
L68570 39240
L68540 39190
L68540 38960
L68570 38900
L68630 38870
L68740 38870
L68800 38900
L68830 38960
L68830 39010
L68540 39070
" />
<path d="M68940 39330
L69400 39330
" />
<path d="M69460 38670
L69660 39270
L69860 38670
" />
</g>
<g style="fill:#848400; fill-opacity:0.0; 
stroke:#848400; stroke-width:100; stroke-opacity:1; 
stroke-linecap:round; stroke-linejoin:round;">
<polyline fill="none;"
points="66100,39000
65800,38700
65500,38700
65500,39300
65800,39300
66100,39000
" /> 
</g>
<g style="fill:#848400; fill-opacity:0.0; 
stroke:#848400; stroke-width:60; stroke-opacity:1; 
stroke-linecap:round; stroke-linejoin:round;">
<path d="M66400 40270
L66400 39670
L66630 39670
L66690 39700
L66720 39730
L66750 39790
L66750 39870
L66720 39930
L66690 39960
L66630 39990
L66400 39990
" />
<path d="M67000 40270
L67000 39670
" />
<path d="M67260 40270
L67260 39960
L67230 39900
L67170 39870
L67090 39870
L67030 39900
L67000 39930
" />
<path d="M67800 40270
L67800 39960
L67770 39900
L67710 39870
L67600 39870
L67540 39900
" />
<path d="M67800 40240
L67740 40270
L67600 40270
L67540 40240
L67510 40190
L67510 40130
L67540 40070
L67600 40040
L67740 40040
L67800 40010
" />
<path d="M68050 40240
L68110 40270
L68230 40270
L68280 40240
L68310 40190
L68310 40160
L68280 40100
L68230 40070
L68140 40070
L68080 40040
L68050 39990
L68050 39960
L68080 39900
L68140 39870
L68230 39870
L68280 39900
" />
<path d="M68800 40240
L68740 40270
L68630 40270
L68570 40240
L68540 40190
L68540 39960
L68570 39900
L68630 39870
L68740 39870
L68800 39900
L68830 39960
L68830 40010
L68540 40070
" />
<path d="M68940 40330
L69400 40330
" />
<path d="M69490 39670
L69630 40270
L69740 39840
L69860 40270
L70000 39670
" />
</g>
<g style="fill:#848400; fill-opacity:0.0; 
stroke:#848400; stroke-width:100; stroke-opacity:1; 
stroke-linecap:round; stroke-linejoin:round;">
<polyline fill="none;"
points="66100,40000
65800,39700
65500,39700
65500,40300
65800,40300
66100,40000
" /> 
</g>
<g style="fill:#848400; fill-opacity:0.0; 
stroke:#848400; stroke-width:60; stroke-opacity:1; 
stroke-linecap:round; stroke-linejoin:round;">
</g>
<g style="fill:#0000C2; fill-opacity:0.0; 
stroke:#0000C2; stroke-width:60; stroke-opacity:1; 
stroke-linecap:round; stroke-linejoin:round;">
<path d="M56190 37940
L57310 37940
" />
<path d="M56750 39910
L56750 37940
" />
<path d="M58340 37940
L58720 37940
L58910 38030
L59090 38220
L59190 38590
L59190 39250
L59090 39620
L58910 39810
L58720 39910
L58340 39910
L58160 39810
L57970 39620
L57880 39250
L57880 38590
L57970 38220
L58160 38030
L58340 37940
" />
<path d="M60030 39910
L60030 37940
L60500 37940
L60780 38030
L60970 38220
L61060 38410
L61150 38780
L61150 39060
L61060 39440
L60970 39620
L60780 39810
L60500 39910
L60030 39910
" />
<path d="M62370 37940
L62750 37940
L62940 38030
L63120 38220
L63220 38590
L63220 39250
L63120 39620
L62940 39810
L62750 39910
L62370 39910
L62190 39810
L62000 39620
L61910 39250
L61910 38590
L62000 38220
L62190 38030
L62370 37940
" />
</g>
<g style="fill:#848400; fill-opacity:0.0; 
stroke:#848400; stroke-width:60; stroke-opacity:1; 
stroke-linecap:round; stroke-linejoin:round;">
<path d="M49250 37270
L49250 36670
L49450 37100
L49650 36670
L49650 37270
" />
<path d="M50030 37270
L49970 37240
L49940 37210
L49910 37160
L49910 36990
L49940 36930
L49970 36900
L50030 36870
L50110 36870
L50170 36900
L50200 36930
L50230 36990
L50230 37160
L50200 37210
L50170 37240
L50110 37270
L50030 37270
" />
<path d="M50400 36870
L50630 36870
" />
<path d="M50480 36670
L50480 37190
L50510 37240
L50570 37270
L50630 37270
" />
<path d="M50910 37270
L50850 37240
L50820 37210
L50790 37160
L50790 36990
L50820 36930
L50850 36900
L50910 36870
L50990 36870
L51050 36900
L51080 36930
L51110 36990
L51110 37160
L51080 37210
L51050 37240
L50990 37270
L50910 37270
" />
<path d="M51360 37270
L51360 36870
" />
<path d="M51360 36990
L51390 36930
L51420 36900
L51480 36870
L51530 36870
" />
<path d="M51590 37330
L52050 37330
" />
<path d="M52190 36670
L52190 37160
L52220 37210
L52250 37240
L52310 37270
L52420 37270
L52480 37240
L52510 37210
L52540 37160
L52540 36670
" />
<path d="M52680 37330
L53140 37330
" />
<path d="M53280 37270
L53280 36670
L53510 36670
L53570 36700
L53600 36730
L53630 36790
L53630 36870
L53600 36930
L53570 36960
L53510 36990
L53280 36990
" />
</g>
<g style="fill:#848400; fill-opacity:0.0; 
stroke:#848400; stroke-width:100; stroke-opacity:1; 
stroke-linecap:round; stroke-linejoin:round;">
<polyline fill="none;"
points="54500,37000
54200,36700
53900,36700
53900,37300
54200,37300
54500,37000
" /> 
</g>
<g style="fill:#848400; fill-opacity:0.0; 
stroke:#848400; stroke-width:60; stroke-opacity:1; 
stroke-linecap:round; stroke-linejoin:round;">
<path d="M49220 38270
L49220 37670
L49420 38100
L49620 37670
L49620 38270
" />
<path d="M50000 38270
L49940 38240
L49910 38210
L49880 38160
L49880 37990
L49910 37930
L49940 37900
L50000 37870
L50080 37870
L50140 37900
L50170 37930
L50200 37990
L50200 38160
L50170 38210
L50140 38240
L50080 38270
L50000 38270
" />
<path d="M50370 37870
L50600 37870
" />
<path d="M50450 37670
L50450 38190
L50480 38240
L50540 38270
L50600 38270
" />
<path d="M50880 38270
L50820 38240
L50790 38210
L50760 38160
L50760 37990
L50790 37930
L50820 37900
L50880 37870
L50960 37870
L51020 37900
L51050 37930
L51080 37990
L51080 38160
L51050 38210
L51020 38240
L50960 38270
L50880 38270
" />
<path d="M51330 38270
L51330 37870
" />
<path d="M51330 37990
L51360 37930
L51390 37900
L51450 37870
L51500 37870
" />
<path d="M51560 38330
L52020 38330
" />
<path d="M52160 37670
L52160 38160
L52190 38210
L52220 38240
L52280 38270
L52390 38270
L52450 38240
L52480 38210
L52510 38160
L52510 37670
" />
<path d="M52650 38330
L53110 38330
" />
<path d="M53250 38270
L53250 37670
L53600 38270
L53600 37670
" />
</g>
<g style="fill:#848400; fill-opacity:0.0; 
stroke:#848400; stroke-width:100; stroke-opacity:1; 
stroke-linecap:round; stroke-linejoin:round;">
<polyline fill="none;"
points="54500,38000
54200,37700
53900,37700
53900,38300
54200,38300
54500,38000
" /> 
</g>
<g style="fill:#848400; fill-opacity:0.0; 
stroke:#848400; stroke-width:60; stroke-opacity:1; 
stroke-linecap:round; stroke-linejoin:round;">
<path d="M49370 39270
L49370 38670
L49570 39100
L49770 38670
L49770 39270
" />
<path d="M50150 39270
L50090 39240
L50060 39210
L50030 39160
L50030 38990
L50060 38930
L50090 38900
L50150 38870
L50230 38870
L50290 38900
L50320 38930
L50350 38990
L50350 39160
L50320 39210
L50290 39240
L50230 39270
L50150 39270
" />
<path d="M50520 38870
L50750 38870
" />
<path d="M50600 38670
L50600 39190
L50630 39240
L50690 39270
L50750 39270
" />
<path d="M51030 39270
L50970 39240
L50940 39210
L50910 39160
L50910 38990
L50940 38930
L50970 38900
L51030 38870
L51110 38870
L51170 38900
L51200 38930
L51230 38990
L51230 39160
L51200 39210
L51170 39240
L51110 39270
L51030 39270
" />
<path d="M51480 39270
L51480 38870
" />
<path d="M51480 38990
L51510 38930
L51540 38900
L51600 38870
L51650 38870
" />
<path d="M51710 39330
L52170 39330
" />
<path d="M52230 38670
L52430 39270
L52630 38670
" />
<path d="M52680 39330
L53140 39330
" />
<path d="M53280 39270
L53280 38670
L53510 38670
L53570 38700
L53600 38730
L53630 38790
L53630 38870
L53600 38930
L53570 38960
L53510 38990
L53280 38990
" />
</g>
<g style="fill:#848400; fill-opacity:0.0; 
stroke:#848400; stroke-width:100; stroke-opacity:1; 
stroke-linecap:round; stroke-linejoin:round;">
<polyline fill="none;"
points="54500,39000
54200,38700
53900,38700
53900,39300
54200,39300
54500,39000
" /> 
</g>
<g style="fill:#848400; fill-opacity:0.0; 
stroke:#848400; stroke-width:60; stroke-opacity:1; 
stroke-linecap:round; stroke-linejoin:round;">
<path d="M49340 40270
L49340 39670
L49540 40100
L49740 39670
L49740 40270
" />
<path d="M50120 40270
L50060 40240
L50030 40210
L50000 40160
L50000 39990
L50030 39930
L50060 39900
L50120 39870
L50200 39870
L50260 39900
L50290 39930
L50320 39990
L50320 40160
L50290 40210
L50260 40240
L50200 40270
L50120 40270
" />
<path d="M50490 39870
L50720 39870
" />
<path d="M50570 39670
L50570 40190
L50600 40240
L50660 40270
L50720 40270
" />
<path d="M51000 40270
L50940 40240
L50910 40210
L50880 40160
L50880 39990
L50910 39930
L50940 39900
L51000 39870
L51080 39870
L51140 39900
L51170 39930
L51200 39990
L51200 40160
L51170 40210
L51140 40240
L51080 40270
L51000 40270
" />
<path d="M51450 40270
L51450 39870
" />
<path d="M51450 39990
L51480 39930
L51510 39900
L51570 39870
L51620 39870
" />
<path d="M51680 40330
L52140 40330
" />
<path d="M52200 39670
L52400 40270
L52600 39670
" />
<path d="M52650 40330
L53110 40330
" />
<path d="M53250 40270
L53250 39670
L53600 40270
L53600 39670
" />
</g>
<g style="fill:#848400; fill-opacity:0.0; 
stroke:#848400; stroke-width:100; stroke-opacity:1; 
stroke-linecap:round; stroke-linejoin:round;">
<polyline fill="none;"
points="54500,40000
54200,39700
53900,39700
53900,40300
54200,40300
54500,40000
" /> 
</g>
<g style="fill:#848400; fill-opacity:0.0; 
stroke:#848400; stroke-width:60; stroke-opacity:1; 
stroke-linecap:round; stroke-linejoin:round;">
<path d="M49190 41270
L49190 40670
L49390 41100
L49590 40670
L49590 41270
" />
<path d="M49970 41270
L49910 41240
L49880 41210
L49850 41160
L49850 40990
L49880 40930
L49910 40900
L49970 40870
L50050 40870
L50110 40900
L50140 40930
L50170 40990
L50170 41160
L50140 41210
L50110 41240
L50050 41270
L49970 41270
" />
<path d="M50340 40870
L50570 40870
" />
<path d="M50420 40670
L50420 41190
L50450 41240
L50510 41270
L50570 41270
" />
<path d="M50850 41270
L50790 41240
L50760 41210
L50730 41160
L50730 40990
L50760 40930
L50790 40900
L50850 40870
L50930 40870
L50990 40900
L51020 40930
L51050 40990
L51050 41160
L51020 41210
L50990 41240
L50930 41270
L50850 41270
" />
<path d="M51300 41270
L51300 40870
" />
<path d="M51300 40990
L51330 40930
L51360 40900
L51420 40870
L51470 40870
" />
<path d="M51530 41330
L51990 41330
" />
<path d="M52080 40670
L52220 41270
L52330 40840
L52450 41270
L52590 40670
" />
<path d="M52680 41330
L53140 41330
" />
<path d="M53280 41270
L53280 40670
L53510 40670
L53570 40700
L53600 40730
L53630 40790
L53630 40870
L53600 40930
L53570 40960
L53510 40990
L53280 40990
" />
</g>
<g style="fill:#848400; fill-opacity:0.0; 
stroke:#848400; stroke-width:100; stroke-opacity:1; 
stroke-linecap:round; stroke-linejoin:round;">
<polyline fill="none;"
points="54500,41000
54200,40700
53900,40700
53900,41300
54200,41300
54500,41000
" /> 
</g>
<g style="fill:#848400; fill-opacity:0.0; 
stroke:#848400; stroke-width:60; stroke-opacity:1; 
stroke-linecap:round; stroke-linejoin:round;">
<path d="M49160 42270
L49160 41670
L49360 42100
L49560 41670
L49560 42270
" />
<path d="M49940 42270
L49880 42240
L49850 42210
L49820 42160
L49820 41990
L49850 41930
L49880 41900
L49940 41870
L50020 41870
L50080 41900
L50110 41930
L50140 41990
L50140 42160
L50110 42210
L50080 42240
L50020 42270
L49940 42270
" />
<path d="M50310 41870
L50540 41870
" />
<path d="M50390 41670
L50390 42190
L50420 42240
L50480 42270
L50540 42270
" />
<path d="M50820 42270
L50760 42240
L50730 42210
L50700 42160
L50700 41990
L50730 41930
L50760 41900
L50820 41870
L50900 41870
L50960 41900
L50990 41930
L51020 41990
L51020 42160
L50990 42210
L50960 42240
L50900 42270
L50820 42270
" />
<path d="M51270 42270
L51270 41870
" />
<path d="M51270 41990
L51300 41930
L51330 41900
L51390 41870
L51440 41870
" />
<path d="M51500 42330
L51960 42330
" />
<path d="M52050 41670
L52190 42270
L52300 41840
L52420 42270
L52560 41670
" />
<path d="M52650 42330
L53110 42330
" />
<path d="M53250 42270
L53250 41670
L53600 42270
L53600 41670
" />
</g>
<g style="fill:#848400; fill-opacity:0.0; 
stroke:#848400; stroke-width:100; stroke-opacity:1; 
stroke-linecap:round; stroke-linejoin:round;">
<polyline fill="none;"
points="54500,42000
54200,41700
53900,41700
53900,42300
54200,42300
54500,42000
" /> 
</g> 
</svg>
