<?xml version="1.0" standalone="no"?>
 <!DOCTYPE svg PUBLIC "-//W3C//DTD SVG 1.1//EN" 
 "http://www.w3.org/Graphics/SVG/1.1/DTD/svg11.dtd"> 
<svg xmlns="http://www.w3.org/2000/svg" version="1.1" 
    width="29.7002cm" height="21.0007cm" viewBox="0 0 116930 82680 ">
<title>SVG Picture created as rxsm-event-lines-RXSM_Event_Lines.svg date 2017/06/06 22:15:04 </title>
  <desc>Picture generated by Eeschema-SVG </desc>
<g style="fill:#000000; fill-opacity:1;stroke:#000000; stroke-opacity:1;
stroke-linecap:round; stroke-linejoin:round; "
 transform="translate(0 0) scale(1 1)">
</g>
<g style="fill:#000000; fill-opacity:0.0; 
stroke:#000000; stroke-width:-10; stroke-opacity:1; 
stroke-linecap:round; stroke-linejoin:round;">
</g>
<g style="fill:#840000; fill-opacity:0.0; 
stroke:#840000; stroke-width:-10; stroke-opacity:1; 
stroke-linecap:round; stroke-linejoin:round;">
</g>
<g style="fill:#840000; fill-opacity:0.0; 
stroke:#840000; stroke-width:100; stroke-opacity:1; 
stroke-linecap:round; stroke-linejoin:round;">
</g>
<g style="fill:#840000; fill-opacity:0.0; 
stroke:#840000; stroke-width:60; stroke-opacity:1; 
stroke-linecap:round; stroke-linejoin:round;">
<rect x="69690" y="65360" width="42520" height="12600" rx="0" />
</g>
<g style="fill:#840000; fill-opacity:0.0; 
stroke:#840000; stroke-width:100; stroke-opacity:1; 
stroke-linecap:round; stroke-linejoin:round;">
</g>
<g style="fill:#840000; fill-opacity:0.0; 
stroke:#840000; stroke-width:60; stroke-opacity:1; 
stroke-linecap:round; stroke-linejoin:round;">
<rect x="3940" y="3940" width="109050" height="74800" rx="0" />
</g>
<g style="fill:#840000; fill-opacity:0.0; 
stroke:#840000; stroke-width:100; stroke-opacity:1; 
stroke-linecap:round; stroke-linejoin:round;">
</g>
<g style="fill:#840000; fill-opacity:0.0; 
stroke:#840000; stroke-width:60; stroke-opacity:1; 
stroke-linecap:round; stroke-linejoin:round;">
<rect x="4720" y="4720" width="107490" height="73240" rx="0" />
</g>
<g style="fill:#840000; fill-opacity:0.0; 
stroke:#840000; stroke-width:100; stroke-opacity:1; 
stroke-linecap:round; stroke-linejoin:round;">
</g>
<g style="fill:#840000; fill-opacity:0.0; 
stroke:#840000; stroke-width:60; stroke-opacity:1; 
stroke-linecap:round; stroke-linejoin:round;">
<path d="M23620 4720
L23620 3940
" />
</g>
<g style="fill:#840000; fill-opacity:0.0; 
stroke:#840000; stroke-width:100; stroke-opacity:1; 
stroke-linecap:round; stroke-linejoin:round;">
</g>
<g style="fill:#840000; fill-opacity:0.0; 
stroke:#840000; stroke-width:60; stroke-opacity:1; 
stroke-linecap:round; stroke-linejoin:round;">
<path d="M43310 4720
L43310 3940
" />
</g>
<g style="fill:#840000; fill-opacity:0.0; 
stroke:#840000; stroke-width:100; stroke-opacity:1; 
stroke-linecap:round; stroke-linejoin:round;">
</g>
<g style="fill:#840000; fill-opacity:0.0; 
stroke:#840000; stroke-width:60; stroke-opacity:1; 
stroke-linecap:round; stroke-linejoin:round;">
<path d="M62990 4720
L62990 3940
" />
</g>
<g style="fill:#840000; fill-opacity:0.0; 
stroke:#840000; stroke-width:100; stroke-opacity:1; 
stroke-linecap:round; stroke-linejoin:round;">
</g>
<g style="fill:#840000; fill-opacity:0.0; 
stroke:#840000; stroke-width:60; stroke-opacity:1; 
stroke-linecap:round; stroke-linejoin:round;">
<path d="M82680 4720
L82680 3940
" />
</g>
<g style="fill:#840000; fill-opacity:0.0; 
stroke:#840000; stroke-width:100; stroke-opacity:1; 
stroke-linecap:round; stroke-linejoin:round;">
</g>
<g style="fill:#840000; fill-opacity:0.0; 
stroke:#840000; stroke-width:60; stroke-opacity:1; 
stroke-linecap:round; stroke-linejoin:round;">
<path d="M102360 4720
L102360 3940
" />
</g>
<g style="fill:#840000; fill-opacity:0.0; 
stroke:#840000; stroke-width:100; stroke-opacity:1; 
stroke-linecap:round; stroke-linejoin:round;">
</g>
<g style="fill:#840000; fill-opacity:0.0; 
stroke:#840000; stroke-width:60; stroke-opacity:1; 
stroke-linecap:round; stroke-linejoin:round;">
<path d="M14170 4560
L13880 4560
" />
<path d="M14020 4560
L14020 4050
L13970 4120
L13930 4170
L13880 4190
" />
</g>
<g style="fill:#840000; fill-opacity:0.0; 
stroke:#840000; stroke-width:100; stroke-opacity:1; 
stroke-linecap:round; stroke-linejoin:round;">
</g>
<g style="fill:#840000; fill-opacity:0.0; 
stroke:#840000; stroke-width:60; stroke-opacity:1; 
stroke-linecap:round; stroke-linejoin:round;">
<path d="M33560 4090
L33580 4070
L33630 4050
L33750 4050
L33800 4070
L33820 4090
L33850 4140
L33850 4190
L33820 4260
L33530 4560
L33850 4560
" />
</g>
<g style="fill:#840000; fill-opacity:0.0; 
stroke:#840000; stroke-width:100; stroke-opacity:1; 
stroke-linecap:round; stroke-linejoin:round;">
</g>
<g style="fill:#840000; fill-opacity:0.0; 
stroke:#840000; stroke-width:60; stroke-opacity:1; 
stroke-linecap:round; stroke-linejoin:round;">
<path d="M53220 4050
L53540 4050
L53370 4240
L53440 4240
L53490 4260
L53510 4290
L53540 4340
L53540 4460
L53510 4510
L53490 4530
L53440 4560
L53300 4560
L53250 4530
L53220 4510
" />
</g>
<g style="fill:#840000; fill-opacity:0.0; 
stroke:#840000; stroke-width:100; stroke-opacity:1; 
stroke-linecap:round; stroke-linejoin:round;">
</g>
<g style="fill:#840000; fill-opacity:0.0; 
stroke:#840000; stroke-width:60; stroke-opacity:1; 
stroke-linecap:round; stroke-linejoin:round;">
<path d="M73170 4220
L73170 4560
" />
<path d="M73050 4020
L72930 4390
L73240 4390
" />
</g>
<g style="fill:#840000; fill-opacity:0.0; 
stroke:#840000; stroke-width:100; stroke-opacity:1; 
stroke-linecap:round; stroke-linejoin:round;">
</g>
<g style="fill:#840000; fill-opacity:0.0; 
stroke:#840000; stroke-width:60; stroke-opacity:1; 
stroke-linecap:round; stroke-linejoin:round;">
<path d="M92880 4050
L92640 4050
L92620 4290
L92640 4260
L92690 4240
L92810 4240
L92860 4260
L92880 4290
L92910 4340
L92910 4460
L92880 4510
L92860 4530
L92810 4560
L92690 4560
L92640 4530
L92620 4510
" />
</g>
<g style="fill:#840000; fill-opacity:0.0; 
stroke:#840000; stroke-width:100; stroke-opacity:1; 
stroke-linecap:round; stroke-linejoin:round;">
</g>
<g style="fill:#840000; fill-opacity:0.0; 
stroke:#840000; stroke-width:60; stroke-opacity:1; 
stroke-linecap:round; stroke-linejoin:round;">
<path d="M112540 4050
L112440 4050
L112390 4070
L112370 4090
L112320 4170
L112300 4260
L112300 4460
L112320 4510
L112350 4530
L112390 4560
L112490 4560
L112540 4530
L112560 4510
L112590 4460
L112590 4340
L112560 4290
L112540 4260
L112490 4240
L112390 4240
L112350 4260
L112320 4290
L112300 4340
" />
</g>
<g style="fill:#840000; fill-opacity:0.0; 
stroke:#840000; stroke-width:100; stroke-opacity:1; 
stroke-linecap:round; stroke-linejoin:round;">
</g>
<g style="fill:#840000; fill-opacity:0.0; 
stroke:#840000; stroke-width:60; stroke-opacity:1; 
stroke-linecap:round; stroke-linejoin:round;">
<path d="M23620 77960
L23620 78740
" />
</g>
<g style="fill:#840000; fill-opacity:0.0; 
stroke:#840000; stroke-width:100; stroke-opacity:1; 
stroke-linecap:round; stroke-linejoin:round;">
</g>
<g style="fill:#840000; fill-opacity:0.0; 
stroke:#840000; stroke-width:60; stroke-opacity:1; 
stroke-linecap:round; stroke-linejoin:round;">
<path d="M43310 77960
L43310 78740
" />
</g>
<g style="fill:#840000; fill-opacity:0.0; 
stroke:#840000; stroke-width:100; stroke-opacity:1; 
stroke-linecap:round; stroke-linejoin:round;">
</g>
<g style="fill:#840000; fill-opacity:0.0; 
stroke:#840000; stroke-width:60; stroke-opacity:1; 
stroke-linecap:round; stroke-linejoin:round;">
<path d="M62990 77960
L62990 78740
" />
</g>
<g style="fill:#840000; fill-opacity:0.0; 
stroke:#840000; stroke-width:100; stroke-opacity:1; 
stroke-linecap:round; stroke-linejoin:round;">
</g>
<g style="fill:#840000; fill-opacity:0.0; 
stroke:#840000; stroke-width:60; stroke-opacity:1; 
stroke-linecap:round; stroke-linejoin:round;">
<path d="M82680 77960
L82680 78740
" />
</g>
<g style="fill:#840000; fill-opacity:0.0; 
stroke:#840000; stroke-width:100; stroke-opacity:1; 
stroke-linecap:round; stroke-linejoin:round;">
</g>
<g style="fill:#840000; fill-opacity:0.0; 
stroke:#840000; stroke-width:60; stroke-opacity:1; 
stroke-linecap:round; stroke-linejoin:round;">
<path d="M102360 77960
L102360 78740
" />
</g>
<g style="fill:#840000; fill-opacity:0.0; 
stroke:#840000; stroke-width:100; stroke-opacity:1; 
stroke-linecap:round; stroke-linejoin:round;">
</g>
<g style="fill:#840000; fill-opacity:0.0; 
stroke:#840000; stroke-width:60; stroke-opacity:1; 
stroke-linecap:round; stroke-linejoin:round;">
<path d="M14170 78580
L13880 78580
" />
<path d="M14020 78580
L14020 78070
L13970 78140
L13930 78190
L13880 78210
" />
</g>
<g style="fill:#840000; fill-opacity:0.0; 
stroke:#840000; stroke-width:100; stroke-opacity:1; 
stroke-linecap:round; stroke-linejoin:round;">
</g>
<g style="fill:#840000; fill-opacity:0.0; 
stroke:#840000; stroke-width:60; stroke-opacity:1; 
stroke-linecap:round; stroke-linejoin:round;">
<path d="M33560 78110
L33580 78090
L33630 78070
L33750 78070
L33800 78090
L33820 78110
L33850 78160
L33850 78210
L33820 78280
L33530 78580
L33850 78580
" />
</g>
<g style="fill:#840000; fill-opacity:0.0; 
stroke:#840000; stroke-width:100; stroke-opacity:1; 
stroke-linecap:round; stroke-linejoin:round;">
</g>
<g style="fill:#840000; fill-opacity:0.0; 
stroke:#840000; stroke-width:60; stroke-opacity:1; 
stroke-linecap:round; stroke-linejoin:round;">
<path d="M53220 78070
L53540 78070
L53370 78260
L53440 78260
L53490 78280
L53510 78310
L53540 78360
L53540 78480
L53510 78530
L53490 78550
L53440 78580
L53300 78580
L53250 78550
L53220 78530
" />
</g>
<g style="fill:#840000; fill-opacity:0.0; 
stroke:#840000; stroke-width:100; stroke-opacity:1; 
stroke-linecap:round; stroke-linejoin:round;">
</g>
<g style="fill:#840000; fill-opacity:0.0; 
stroke:#840000; stroke-width:60; stroke-opacity:1; 
stroke-linecap:round; stroke-linejoin:round;">
<path d="M73170 78240
L73170 78580
" />
<path d="M73050 78040
L72930 78410
L73240 78410
" />
</g>
<g style="fill:#840000; fill-opacity:0.0; 
stroke:#840000; stroke-width:100; stroke-opacity:1; 
stroke-linecap:round; stroke-linejoin:round;">
</g>
<g style="fill:#840000; fill-opacity:0.0; 
stroke:#840000; stroke-width:60; stroke-opacity:1; 
stroke-linecap:round; stroke-linejoin:round;">
<path d="M92880 78070
L92640 78070
L92620 78310
L92640 78280
L92690 78260
L92810 78260
L92860 78280
L92880 78310
L92910 78360
L92910 78480
L92880 78530
L92860 78550
L92810 78580
L92690 78580
L92640 78550
L92620 78530
" />
</g>
<g style="fill:#840000; fill-opacity:0.0; 
stroke:#840000; stroke-width:100; stroke-opacity:1; 
stroke-linecap:round; stroke-linejoin:round;">
</g>
<g style="fill:#840000; fill-opacity:0.0; 
stroke:#840000; stroke-width:60; stroke-opacity:1; 
stroke-linecap:round; stroke-linejoin:round;">
<path d="M112540 78070
L112440 78070
L112390 78090
L112370 78110
L112320 78190
L112300 78280
L112300 78480
L112320 78530
L112350 78550
L112390 78580
L112490 78580
L112540 78550
L112560 78530
L112590 78480
L112590 78360
L112560 78310
L112540 78280
L112490 78260
L112390 78260
L112350 78280
L112320 78310
L112300 78360
" />
</g>
<g style="fill:#840000; fill-opacity:0.0; 
stroke:#840000; stroke-width:100; stroke-opacity:1; 
stroke-linecap:round; stroke-linejoin:round;">
</g>
<g style="fill:#840000; fill-opacity:0.0; 
stroke:#840000; stroke-width:60; stroke-opacity:1; 
stroke-linecap:round; stroke-linejoin:round;">
<path d="M3940 23620
L4720 23620
" />
</g>
<g style="fill:#840000; fill-opacity:0.0; 
stroke:#840000; stroke-width:100; stroke-opacity:1; 
stroke-linecap:round; stroke-linejoin:round;">
</g>
<g style="fill:#840000; fill-opacity:0.0; 
stroke:#840000; stroke-width:60; stroke-opacity:1; 
stroke-linecap:round; stroke-linejoin:round;">
<path d="M3940 43310
L4720 43310
" />
</g>
<g style="fill:#840000; fill-opacity:0.0; 
stroke:#840000; stroke-width:100; stroke-opacity:1; 
stroke-linecap:round; stroke-linejoin:round;">
</g>
<g style="fill:#840000; fill-opacity:0.0; 
stroke:#840000; stroke-width:60; stroke-opacity:1; 
stroke-linecap:round; stroke-linejoin:round;">
<path d="M3940 62990
L4720 62990
" />
</g>
<g style="fill:#840000; fill-opacity:0.0; 
stroke:#840000; stroke-width:100; stroke-opacity:1; 
stroke-linecap:round; stroke-linejoin:round;">
</g>
<g style="fill:#840000; fill-opacity:0.0; 
stroke:#840000; stroke-width:60; stroke-opacity:1; 
stroke-linecap:round; stroke-linejoin:round;">
<path d="M4210 13860
L4450 13860
" />
<path d="M4160 14010
L4330 13500
L4500 14010
" />
</g>
<g style="fill:#840000; fill-opacity:0.0; 
stroke:#840000; stroke-width:100; stroke-opacity:1; 
stroke-linecap:round; stroke-linejoin:round;">
</g>
<g style="fill:#840000; fill-opacity:0.0; 
stroke:#840000; stroke-width:60; stroke-opacity:1; 
stroke-linecap:round; stroke-linejoin:round;">
<path d="M4370 33420
L4440 33440
L4470 33470
L4490 33520
L4490 33590
L4470 33640
L4440 33660
L4400 33690
L4200 33690
L4200 33180
L4370 33180
L4420 33200
L4440 33220
L4470 33270
L4470 33320
L4440 33370
L4420 33390
L4370 33420
L4200 33420
" />
</g>
<g style="fill:#840000; fill-opacity:0.0; 
stroke:#840000; stroke-width:100; stroke-opacity:1; 
stroke-linecap:round; stroke-linejoin:round;">
</g>
<g style="fill:#840000; fill-opacity:0.0; 
stroke:#840000; stroke-width:60; stroke-opacity:1; 
stroke-linecap:round; stroke-linejoin:round;">
<path d="M4490 53330
L4470 53350
L4400 53380
L4350 53380
L4270 53350
L4230 53300
L4200 53250
L4180 53160
L4180 53080
L4200 52990
L4230 52940
L4270 52890
L4350 52870
L4400 52870
L4470 52890
L4490 52910
" />
</g>
<g style="fill:#840000; fill-opacity:0.0; 
stroke:#840000; stroke-width:100; stroke-opacity:1; 
stroke-linecap:round; stroke-linejoin:round;">
</g>
<g style="fill:#840000; fill-opacity:0.0; 
stroke:#840000; stroke-width:60; stroke-opacity:1; 
stroke-linecap:round; stroke-linejoin:round;">
<path d="M4200 73060
L4200 72550
L4320 72550
L4400 72570
L4440 72620
L4470 72670
L4490 72760
L4490 72840
L4470 72930
L4440 72980
L4400 73030
L4320 73060
L4200 73060
" />
</g>
<g style="fill:#840000; fill-opacity:0.0; 
stroke:#840000; stroke-width:100; stroke-opacity:1; 
stroke-linecap:round; stroke-linejoin:round;">
</g>
<g style="fill:#840000; fill-opacity:0.0; 
stroke:#840000; stroke-width:60; stroke-opacity:1; 
stroke-linecap:round; stroke-linejoin:round;">
<path d="M112990 23620
L112210 23620
" />
</g>
<g style="fill:#840000; fill-opacity:0.0; 
stroke:#840000; stroke-width:100; stroke-opacity:1; 
stroke-linecap:round; stroke-linejoin:round;">
</g>
<g style="fill:#840000; fill-opacity:0.0; 
stroke:#840000; stroke-width:60; stroke-opacity:1; 
stroke-linecap:round; stroke-linejoin:round;">
<path d="M112990 43310
L112210 43310
" />
</g>
<g style="fill:#840000; fill-opacity:0.0; 
stroke:#840000; stroke-width:100; stroke-opacity:1; 
stroke-linecap:round; stroke-linejoin:round;">
</g>
<g style="fill:#840000; fill-opacity:0.0; 
stroke:#840000; stroke-width:60; stroke-opacity:1; 
stroke-linecap:round; stroke-linejoin:round;">
<path d="M112990 62990
L112210 62990
" />
</g>
<g style="fill:#840000; fill-opacity:0.0; 
stroke:#840000; stroke-width:100; stroke-opacity:1; 
stroke-linecap:round; stroke-linejoin:round;">
</g>
<g style="fill:#840000; fill-opacity:0.0; 
stroke:#840000; stroke-width:60; stroke-opacity:1; 
stroke-linecap:round; stroke-linejoin:round;">
<path d="M112480 13860
L112720 13860
" />
<path d="M112430 14010
L112600 13500
L112770 14010
" />
</g>
<g style="fill:#840000; fill-opacity:0.0; 
stroke:#840000; stroke-width:100; stroke-opacity:1; 
stroke-linecap:round; stroke-linejoin:round;">
</g>
<g style="fill:#840000; fill-opacity:0.0; 
stroke:#840000; stroke-width:60; stroke-opacity:1; 
stroke-linecap:round; stroke-linejoin:round;">
<path d="M112640 33420
L112710 33440
L112740 33470
L112760 33520
L112760 33590
L112740 33640
L112710 33660
L112670 33690
L112470 33690
L112470 33180
L112640 33180
L112690 33200
L112710 33220
L112740 33270
L112740 33320
L112710 33370
L112690 33390
L112640 33420
L112470 33420
" />
</g>
<g style="fill:#840000; fill-opacity:0.0; 
stroke:#840000; stroke-width:100; stroke-opacity:1; 
stroke-linecap:round; stroke-linejoin:round;">
</g>
<g style="fill:#840000; fill-opacity:0.0; 
stroke:#840000; stroke-width:60; stroke-opacity:1; 
stroke-linecap:round; stroke-linejoin:round;">
<path d="M112760 53330
L112740 53350
L112670 53380
L112620 53380
L112540 53350
L112500 53300
L112470 53250
L112450 53160
L112450 53080
L112470 52990
L112500 52940
L112540 52890
L112620 52870
L112670 52870
L112740 52890
L112760 52910
" />
</g>
<g style="fill:#840000; fill-opacity:0.0; 
stroke:#840000; stroke-width:100; stroke-opacity:1; 
stroke-linecap:round; stroke-linejoin:round;">
</g>
<g style="fill:#840000; fill-opacity:0.0; 
stroke:#840000; stroke-width:60; stroke-opacity:1; 
stroke-linecap:round; stroke-linejoin:round;">
<path d="M112470 73060
L112470 72550
L112590 72550
L112670 72570
L112710 72620
L112740 72670
L112760 72760
L112760 72840
L112740 72930
L112710 72980
L112670 73030
L112590 73060
L112470 73060
" />
</g>
<g style="fill:#840000; fill-opacity:0.0; 
stroke:#840000; stroke-width:100; stroke-opacity:1; 
stroke-linecap:round; stroke-linejoin:round;">
</g>
<g style="fill:#840000; fill-opacity:0.0; 
stroke:#840000; stroke-width:60; stroke-opacity:1; 
stroke-linecap:round; stroke-linejoin:round;">
<path d="M78880 76290
L78880 75700
L79020 75700
L79110 75730
L79160 75790
L79190 75840
L79220 75950
L79220 76040
L79190 76150
L79160 76210
L79110 76260
L79020 76290
L78880 76290
" />
<path d="M79720 76290
L79720 75980
L79700 75930
L79640 75900
L79530 75900
L79470 75930
" />
<path d="M79720 76260
L79670 76290
L79530 76290
L79470 76260
L79440 76210
L79440 76150
L79470 76100
L79530 76070
L79670 76070
L79720 76040
" />
<path d="M79920 75900
L80140 75900
" />
<path d="M80000 75700
L80000 76210
L80030 76260
L80080 76290
L80140 76290
" />
<path d="M80570 76260
L80510 76290
L80400 76290
L80340 76260
L80310 76210
L80310 75980
L80340 75930
L80400 75900
L80510 75900
L80570 75930
L80590 75980
L80590 76040
L80310 76100
" />
<path d="M80850 76240
L80880 76260
L80850 76290
L80820 76260
L80850 76240
L80850 76290
" />
<path d="M80850 75930
L80880 75950
L80850 75980
L80820 75950
L80850 75930
L80850 75980
" />
<path d="M81550 75760
L81580 75730
L81640 75700
L81780 75700
L81830 75730
L81860 75760
L81890 75810
L81890 75870
L81860 75950
L81520 76290
L81890 76290
" />
<path d="M82250 75700
L82310 75700
L82370 75730
L82390 75760
L82420 75810
L82450 75930
L82450 76070
L82420 76180
L82390 76240
L82370 76260
L82310 76290
L82250 76290
L82200 76260
L82170 76240
L82140 76180
L82110 76070
L82110 75930
L82140 75810
L82170 75760
L82200 75730
L82250 75700
" />
<path d="M83010 76290
L82670 76290
" />
<path d="M82840 76290
L82840 75700
L82780 75790
L82730 75840
L82670 75870
" />
<path d="M83200 75700
L83600 75700
L83340 76290
" />
<path d="M83820 76070
L84270 76070
" />
<path d="M84660 75700
L84720 75700
L84780 75730
L84800 75760
L84830 75810
L84860 75930
L84860 76070
L84830 76180
L84800 76240
L84780 76260
L84720 76290
L84660 76290
L84610 76260
L84580 76240
L84550 76180
L84520 76070
L84520 75930
L84550 75810
L84580 75760
L84610 75730
L84660 75700
" />
<path d="M85360 75900
L85360 76290
" />
<path d="M85220 75670
L85080 76100
L85450 76100
" />
<path d="M85670 76070
L86120 76070
" />
<path d="M86710 76290
L86370 76290
" />
<path d="M86540 76290
L86540 75700
L86480 75790
L86430 75840
L86370 75870
" />
<path d="M87210 75900
L87210 76290
" />
<path d="M87070 75670
L86930 76100
L87300 76100
" />
</g>
<g style="fill:#840000; fill-opacity:0.0; 
stroke:#840000; stroke-width:100; stroke-opacity:1; 
stroke-linecap:round; stroke-linejoin:round;">
</g>
<g style="fill:#840000; fill-opacity:0.0; 
stroke:#840000; stroke-width:60; stroke-opacity:1; 
stroke-linecap:round; stroke-linejoin:round;">
<path d="M69690 76580
L112210 76580
" />
</g>
<g style="fill:#840000; fill-opacity:0.0; 
stroke:#840000; stroke-width:100; stroke-opacity:1; 
stroke-linecap:round; stroke-linejoin:round;">
</g>
<g style="fill:#840000; fill-opacity:0.0; 
stroke:#840000; stroke-width:60; stroke-opacity:1; 
stroke-linecap:round; stroke-linejoin:round;">
<path d="M70220 77390
L70220 76800
" />
<path d="M70560 77390
L70300 77050
" />
<path d="M70560 76800
L70220 77140
" />
<path d="M70810 77390
L70810 77000
" />
<path d="M70810 76800
L70780 76830
L70810 76860
L70840 76830
L70810 76800
L70810 76860
" />
<path d="M71430 77340
L71400 77360
L71320 77390
L71260 77390
L71170 77360
L71120 77310
L71090 77250
L71060 77140
L71060 77050
L71090 76940
L71120 76890
L71170 76830
L71260 76800
L71320 76800
L71400 76830
L71430 76860
" />
<path d="M71930 77390
L71930 77080
L71910 77030
L71850 77000
L71740 77000
L71680 77030
" />
<path d="M71930 77360
L71880 77390
L71740 77390
L71680 77360
L71650 77310
L71650 77250
L71680 77200
L71740 77170
L71880 77170
L71930 77140
" />
<path d="M72460 77390
L72460 76800
" />
<path d="M72460 77360
L72410 77390
L72290 77390
L72240 77360
L72210 77340
L72180 77280
L72180 77110
L72210 77050
L72240 77030
L72290 77000
L72410 77000
L72460 77030
" />
<path d="M73190 77080
L73390 77080
" />
<path d="M73470 77390
L73190 77390
L73190 76800
L73470 76800
" />
<path d="M73720 77340
L73750 77360
L73720 77390
L73690 77360
L73720 77340
L73720 77390
" />
<path d="M74000 77390
L74000 76800
L74140 76800
L74230 76830
L74280 76890
L74310 76940
L74340 77050
L74340 77140
L74310 77250
L74280 77310
L74230 77360
L74140 77390
L74000 77390
" />
<path d="M74590 77340
L74620 77360
L74590 77390
L74560 77360
L74590 77340
L74590 77390
" />
<path d="M74840 77220
L75120 77220
" />
<path d="M74790 77390
L74980 76800
L75180 77390
" />
<path d="M75380 77340
L75410 77360
L75380 77390
L75350 77360
L75380 77340
L75380 77390
" />
<path d="M76560 77390
L76560 76800
" />
<path d="M76620 77170
L76790 77390
" />
<path d="M76790 77000
L76560 77220
" />
<path d="M77040 77390
L77040 77000
" />
<path d="M77040 76800
L77010 76830
L77040 76860
L77070 76830
L77040 76800
L77040 76860
" />
<path d="M77570 77360
L77520 77390
L77400 77390
L77350 77360
L77320 77340
L77290 77280
L77290 77110
L77320 77050
L77350 77030
L77400 77000
L77520 77000
L77570 77030
" />
<path d="M78080 77390
L78080 77080
L78060 77030
L78000 77000
L77890 77000
L77830 77030
" />
<path d="M78080 77360
L78030 77390
L77890 77390
L77830 77360
L77800 77310
L77800 77250
L77830 77200
L77890 77170
L78030 77170
L78080 77140
" />
<path d="M78610 77390
L78610 76800
" />
<path d="M78610 77360
L78560 77390
L78440 77390
L78390 77360
L78360 77340
L78330 77280
L78330 77110
L78360 77050
L78390 77030
L78440 77000
L78560 77000
L78610 77030
" />
<path d="M79590 77000
L79590 77390
" />
<path d="M79450 76770
L79310 77200
L79680 77200
" />
<path d="M79900 77340
L79930 77360
L79900 77390
L79870 77360
L79900 77340
L79900 77390
" />
<path d="M80290 76800
L80350 76800
L80410 76830
L80430 76860
L80460 76910
L80490 77030
L80490 77170
L80460 77280
L80430 77340
L80410 77360
L80350 77390
L80290 77390
L80240 77360
L80210 77340
L80180 77280
L80150 77170
L80150 77030
L80180 76910
L80210 76860
L80240 76830
L80290 76800
" />
<path d="M80740 77340
L80770 77360
L80740 77390
L80710 77360
L80740 77340
L80740 77390
" />
<path d="M81270 76800
L81160 76800
L81100 76830
L81080 76860
L81020 76940
L80990 77050
L80990 77280
L81020 77340
L81050 77360
L81100 77390
L81220 77390
L81270 77360
L81300 77340
L81330 77280
L81330 77140
L81300 77080
L81270 77050
L81220 77030
L81100 77030
L81050 77050
L81020 77080
L80990 77140
" />
</g>
<g style="fill:#840000; fill-opacity:0.0; 
stroke:#840000; stroke-width:100; stroke-opacity:1; 
stroke-linecap:round; stroke-linejoin:round;">
</g>
<g style="fill:#840000; fill-opacity:0.0; 
stroke:#840000; stroke-width:60; stroke-opacity:1; 
stroke-linecap:round; stroke-linejoin:round;">
<path d="M69690 75400
L112210 75400
" />
</g>
<g style="fill:#840000; fill-opacity:0.0; 
stroke:#840000; stroke-width:100; stroke-opacity:1; 
stroke-linecap:round; stroke-linejoin:round;">
</g>
<g style="fill:#840000; fill-opacity:0.0; 
stroke:#840000; stroke-width:120; stroke-opacity:1; 
stroke-linecap:round; stroke-linejoin:round;">
<path d="M104020 76290
L103820 76010
" />
<path d="M103680 76290
L103680 75700
L103910 75700
L103960 75730
L103990 75760
L104020 75810
L104020 75900
L103990 75950
L103960 75980
L103910 76010
L103680 76010
" />
<path d="M104500 76260
L104440 76290
L104330 76290
L104270 76260
L104240 76210
L104240 75980
L104270 75930
L104330 75900
L104440 75900
L104500 75930
L104520 75980
L104520 76040
L104240 76100
" />
<path d="M104720 75900
L104860 76290
L105010 75900
" />
<path d="M105230 76240
L105260 76260
L105230 76290
L105200 76260
L105230 76240
L105230 76290
" />
<path d="M105230 75930
L105260 75950
L105230 75980
L105200 75950
L105230 75930
L105230 75980
" />
<path d="M106270 76290
L105930 76290
" />
<path d="M106100 76290
L106100 75700
L106040 75790
L105990 75840
L105930 75870
" />
<path d="M106630 75700
L106690 75700
L106750 75730
L106770 75760
L106800 75810
L106830 75930
L106830 76070
L106800 76180
L106770 76240
L106750 76260
L106690 76290
L106630 76290
L106580 76260
L106550 76240
L106520 76180
L106490 76070
L106490 75930
L106520 75810
L106550 75760
L106580 75730
L106630 75700
" />
</g>
<g style="fill:#840000; fill-opacity:0.0; 
stroke:#840000; stroke-width:100; stroke-opacity:1; 
stroke-linecap:round; stroke-linejoin:round;">
</g>
<g style="fill:#840000; fill-opacity:0.0; 
stroke:#840000; stroke-width:60; stroke-opacity:1; 
stroke-linecap:round; stroke-linejoin:round;">
<path d="M70190 76260
L70280 76290
L70420 76290
L70470 76260
L70500 76240
L70530 76180
L70530 76120
L70500 76070
L70470 76040
L70420 76010
L70300 75980
L70250 75950
L70220 75930
L70190 75870
L70190 75810
L70220 75760
L70250 75730
L70300 75700
L70450 75700
L70530 75730
" />
<path d="M70780 76290
L70780 75900
" />
<path d="M70780 75700
L70750 75730
L70780 75760
L70810 75730
L70780 75700
L70780 75760
" />
<path d="M71000 75900
L71310 75900
L71000 76290
L71310 76290
" />
<path d="M71770 76260
L71710 76290
L71600 76290
L71540 76260
L71510 76210
L71510 75980
L71540 75930
L71600 75900
L71710 75900
L71770 75930
L71790 75980
L71790 76040
L71510 76100
" />
<path d="M72050 76240
L72080 76260
L72050 76290
L72020 76260
L72050 76240
L72050 76290
" />
<path d="M72050 75930
L72080 75950
L72050 75980
L72020 75950
L72050 75930
L72050 75980
" />
<path d="M72750 76120
L73030 76120
" />
<path d="M72700 76290
L72890 75700
L73090 76290
" />
<path d="M73540 75900
L73540 76290
" />
<path d="M73400 75670
L73260 76100
L73630 76100
" />
</g>
<g style="fill:#840000; fill-opacity:0.0; 
stroke:#840000; stroke-width:100; stroke-opacity:1; 
stroke-linecap:round; stroke-linejoin:round;">
</g>
<g style="fill:#840000; fill-opacity:0.0; 
stroke:#840000; stroke-width:60; stroke-opacity:1; 
stroke-linecap:round; stroke-linejoin:round;">
<path d="M103680 77390
L103680 76800
" />
<path d="M104210 77390
L104210 76800
" />
<path d="M104210 77360
L104160 77390
L104040 77390
L103990 77360
L103960 77340
L103930 77280
L103930 77110
L103960 77050
L103990 77030
L104040 77000
L104160 77000
L104210 77030
" />
<path d="M104490 77340
L104520 77360
L104490 77390
L104460 77360
L104490 77340
L104490 77390
" />
<path d="M104490 77030
L104520 77050
L104490 77080
L104460 77050
L104490 77030
L104490 77080
" />
<path d="M105500 76800
L105220 76800
L105190 77080
L105220 77050
L105280 77030
L105420 77030
L105470 77050
L105500 77080
L105530 77140
L105530 77280
L105500 77340
L105470 77360
L105420 77390
L105280 77390
L105220 77360
L105190 77340
" />
<path d="M106200 76770
L105700 77530
" />
<path d="M106710 77390
L106370 77390
" />
<path d="M106540 77390
L106540 76800
L106480 76890
L106430 76940
L106370 76970
" />
<path d="M107070 76800
L107130 76800
L107190 76830
L107210 76860
L107240 76910
L107270 77030
L107270 77170
L107240 77280
L107210 77340
L107190 77360
L107130 77390
L107070 77390
L107020 77360
L106990 77340
L106960 77280
L106930 77170
L106930 77030
L106960 76910
L106990 76860
L107020 76830
L107070 76800
" />
</g>
<g style="fill:#840000; fill-opacity:0.0; 
stroke:#840000; stroke-width:100; stroke-opacity:1; 
stroke-linecap:round; stroke-linejoin:round;">
</g>
<g style="fill:#840000; fill-opacity:0.0; 
stroke:#840000; stroke-width:60; stroke-opacity:1; 
stroke-linecap:round; stroke-linejoin:round;">
<path d="M69690 73820
L112210 73820
" />
</g>
<g style="fill:#840000; fill-opacity:0.0; 
stroke:#840000; stroke-width:100; stroke-opacity:1; 
stroke-linecap:round; stroke-linejoin:round;">
</g>
<g style="fill:#840000; fill-opacity:0.0; 
stroke:#840000; stroke-width:160; stroke-opacity:1; 
stroke-linecap:round; stroke-linejoin:round;">
<path d="M70260 74090
L70710 74090
" />
<path d="M70390 74880
L70480 74090
" />
<path d="M70880 74880
L70940 74360
" />
<path d="M70970 74090
L70930 74130
L70960 74170
L71010 74130
L70970 74090
L70960 74170
" />
<path d="M71210 74360
L71510 74360
" />
<path d="M71350 74090
L71270 74770
L71300 74840
L71370 74880
L71450 74880
" />
<path d="M71820 74880
L71750 74840
L71720 74770
L71800 74090
" />
<path d="M72420 74840
L72340 74880
L72190 74880
L72120 74840
L72090 74770
L72130 74470
L72180 74390
L72250 74360
L72400 74360
L72480 74390
L72510 74470
L72500 74540
L72110 74620
" />
<path d="M72800 74810
L72840 74840
L72800 74880
L72760 74840
L72800 74810
L72800 74880
" />
<path d="M72860 74390
L72890 74430
L72850 74470
L72810 74430
L72860 74390
L72850 74470
" />
<path d="M73780 74880
L73870 74090
L74170 74090
L74240 74130
L74270 74170
L74310 74240
L74290 74360
L74240 74430
L74200 74470
L74120 74510
L73820 74510
" />
<path d="M74680 74880
L74610 74840
L74570 74810
L74540 74730
L74570 74510
L74620 74430
L74670 74390
L74740 74360
L74850 74360
L74930 74390
L74960 74430
L74980 74510
L74950 74730
L74910 74810
L74870 74840
L74790 74880
L74680 74880
" />
<path d="M75260 74360
L75350 74880
L75540 74510
L75650 74880
L75860 74360
" />
<path d="M76410 74840
L76330 74880
L76180 74880
L76110 74840
L76080 74770
L76120 74470
L76170 74390
L76240 74360
L76390 74360
L76470 74390
L76500 74470
L76490 74540
L76100 74620
" />
<path d="M76790 74880
L76850 74360
" />
<path d="M76830 74510
L76880 74430
L76920 74390
L77000 74360
L77070 74360
" />
<path d="M77280 74880
L77370 74090
" />
<path d="M77340 74390
L77410 74360
L77560 74360
L77640 74390
L77670 74430
L77690 74510
L77660 74730
L77620 74810
L77580 74840
L77500 74880
L77350 74880
L77280 74840
" />
<path d="M78100 74880
L78030 74840
L77990 74810
L77960 74730
L77990 74510
L78040 74430
L78090 74390
L78160 74360
L78270 74360
L78350 74390
L78380 74430
L78400 74510
L78370 74730
L78330 74810
L78290 74840
L78210 74880
L78100 74880
" />
<path d="M79040 74880
L79090 74470
L79060 74390
L78980 74360
L78830 74360
L78760 74390
" />
<path d="M79040 74840
L78960 74880
L78770 74880
L78700 74840
L78670 74770
L78680 74690
L78730 74620
L78800 74580
L78990 74580
L79080 74540
" />
<path d="M79410 74880
L79470 74360
" />
<path d="M79450 74510
L79500 74430
L79540 74390
L79620 74360
L79690 74360
" />
<path d="M80240 74880
L80330 74090
" />
<path d="M80240 74840
L80160 74880
L80010 74880
L79940 74840
L79900 74810
L79870 74730
L79900 74510
L79950 74430
L80000 74390
L80070 74360
L80220 74360
L80300 74390
" />
<path d="M80610 74810
L80650 74840
L80610 74880
L80570 74840
L80610 74810
L80610 74880
" />
<path d="M80670 74390
L80700 74430
L80660 74470
L80620 74430
L80670 74390
L80660 74470
" />
<path d="M82040 74880
L81820 74510
" />
<path d="M81590 74880
L81680 74090
L81980 74090
L82050 74130
L82080 74170
L82120 74240
L82100 74360
L82050 74430
L82010 74470
L81930 74510
L81630 74510
" />
<path d="M82390 74090
L82830 74880
" />
<path d="M82920 74090
L82300 74880
" />
<path d="M83090 74840
L83200 74880
L83390 74880
L83470 74840
L83500 74810
L83550 74730
L83560 74660
L83530 74580
L83510 74540
L83430 74510
L83290 74470
L83220 74430
L83190 74390
L83160 74320
L83170 74240
L83210 74170
L83260 74130
L83330 74090
L83520 74090
L83630 74130
" />
<path d="M83880 74880
L83970 74090
L84160 74660
L84490 74090
L84400 74880
" />
<path d="M85430 74470
L85690 74470
" />
<path d="M85750 74880
L85380 74880
L85470 74090
L85840 74090
" />
<path d="M86070 74360
L86200 74880
L86450 74360
" />
<path d="M86990 74840
L86910 74880
L86760 74880
L86690 74840
L86660 74770
L86700 74470
L86750 74390
L86820 74360
L86970 74360
L87050 74390
L87080 74470
L87070 74540
L86680 74620
" />
<path d="M87430 74360
L87370 74880
" />
<path d="M87420 74430
L87470 74390
L87540 74360
L87650 74360
L87730 74390
L87760 74470
L87710 74880
" />
<path d="M88030 74360
L88330 74360
" />
<path d="M88170 74090
L88090 74770
L88120 74840
L88190 74880
L88270 74880
" />
<path d="M89500 74880
L89130 74880
L89220 74090
" />
<path d="M89770 74880
L89830 74360
" />
<path d="M89860 74090
L89820 74130
L89850 74170
L89900 74130
L89860 74090
L89850 74170
" />
<path d="M90210 74360
L90150 74880
" />
<path d="M90200 74430
L90250 74390
L90320 74360
L90430 74360
L90510 74390
L90540 74470
L90490 74880
" />
<path d="M91160 74840
L91080 74880
L90930 74880
L90860 74840
L90830 74770
L90870 74470
L90920 74390
L90990 74360
L91140 74360
L91220 74390
L91250 74470
L91240 74540
L90850 74620
" />
<path d="M91500 74840
L91580 74880
L91730 74880
L91800 74840
L91850 74770
L91850 74730
L91820 74660
L91760 74620
L91640 74620
L91570 74580
L91540 74510
L91550 74470
L91600 74390
L91670 74360
L91790 74360
L91860 74390
" />
</g>
<g style="fill:#840000; fill-opacity:0.0; 
stroke:#840000; stroke-width:100; stroke-opacity:1; 
stroke-linecap:round; stroke-linejoin:round;">
</g>
<g style="fill:#840000; fill-opacity:0.0; 
stroke:#840000; stroke-width:60; stroke-opacity:1; 
stroke-linecap:round; stroke-linejoin:round;">
<path d="M70420 73060
L70220 73060
" />
<path d="M70220 73370
L70220 72780
L70500 72780
" />
<path d="M70730 73370
L70730 72980
" />
<path d="M70730 72780
L70700 72810
L70730 72840
L70760 72810
L70730 72780
L70730 72840
" />
<path d="M71090 73370
L71040 73340
L71010 73290
L71010 72780
" />
<path d="M71550 73340
L71490 73370
L71380 73370
L71320 73340
L71290 73290
L71290 73060
L71320 73010
L71380 72980
L71490 72980
L71550 73010
L71570 73060
L71570 73120
L71290 73180
" />
<path d="M71830 73320
L71860 73340
L71830 73370
L71800 73340
L71830 73320
L71830 73370
" />
<path d="M71830 73010
L71860 73030
L71830 73060
L71800 73030
L71830 73010
L71830 73060
" />
<path d="M72560 73370
L72560 72980
" />
<path d="M72560 73090
L72590 73030
L72620 73010
L72670 72980
L72730 72980
" />
<path d="M72870 73370
L73180 72980
" />
<path d="M72870 72980
L73180 73370
" />
<path d="M73380 73340
L73440 73370
L73550 73370
L73610 73340
L73640 73290
L73640 73260
L73610 73200
L73550 73180
L73470 73180
L73410 73150
L73380 73090
L73380 73060
L73410 73010
L73470 72980
L73550 72980
L73610 73010
" />
<path d="M73890 73370
L73890 72980
" />
<path d="M73890 73030
L73920 73010
L73970 72980
L74060 72980
L74120 73010
L74140 73060
L74140 73370
" />
<path d="M74140 73060
L74170 73010
L74230 72980
L74310 72980
L74370 73010
L74400 73060
L74400 73370
" />
<path d="M74680 73150
L75130 73150
" />
<path d="M75640 73340
L75580 73370
L75470 73370
L75410 73340
L75380 73290
L75380 73060
L75410 73010
L75470 72980
L75580 72980
L75640 73010
L75660 73060
L75660 73120
L75380 73180
" />
<path d="M75860 72980
L76000 73370
L76150 72980
" />
<path d="M76600 73340
L76540 73370
L76430 73370
L76370 73340
L76340 73290
L76340 73060
L76370 73010
L76430 72980
L76540 72980
L76600 73010
L76620 73060
L76620 73120
L76340 73180
" />
<path d="M76880 72980
L76880 73370
" />
<path d="M76880 73030
L76910 73010
L76960 72980
L77050 72980
L77110 73010
L77130 73060
L77130 73370
" />
<path d="M77330 72980
L77550 72980
" />
<path d="M77410 72780
L77410 73290
L77440 73340
L77490 73370
L77550 73370
" />
<path d="M77750 73150
L78200 73150
" />
<path d="M78560 73370
L78510 73340
L78480 73290
L78480 72780
" />
<path d="M78790 73370
L78790 72980
" />
<path d="M78790 72780
L78760 72810
L78790 72840
L78820 72810
L78790 72780
L78790 72840
" />
<path d="M79070 72980
L79070 73370
" />
<path d="M79070 73030
L79100 73010
L79150 72980
L79240 72980
L79300 73010
L79320 73060
L79320 73370
" />
<path d="M79830 73340
L79770 73370
L79660 73370
L79600 73340
L79570 73290
L79570 73060
L79600 73010
L79660 72980
L79770 72980
L79830 73010
L79850 73060
L79850 73120
L79570 73180
" />
<path d="M80080 73340
L80140 73370
L80250 73370
L80310 73340
L80340 73290
L80340 73260
L80310 73200
L80250 73180
L80170 73180
L80110 73150
L80080 73090
L80080 73060
L80110 73010
L80170 72980
L80250 72980
L80310 73010
" />
<path d="M80590 73320
L80620 73340
L80590 73370
L80560 73340
L80590 73320
L80590 73370
" />
<path d="M80840 73340
L80900 73370
L81010 73370
L81070 73340
L81100 73290
L81100 73260
L81070 73200
L81010 73180
L80930 73180
L80870 73150
L80840 73090
L80840 73060
L80870 73010
L80930 72980
L81010 72980
L81070 73010
" />
<path d="M81600 73340
L81550 73370
L81430 73370
L81380 73340
L81350 73320
L81320 73260
L81320 73090
L81350 73030
L81380 73010
L81430 72980
L81550 72980
L81600 73010
" />
<path d="M81860 73370
L81860 72780
" />
<path d="M82110 73370
L82110 73060
L82090 73010
L82030 72980
L81940 72980
L81890 73010
L81860 73030
" />
</g>
<g style="fill:#840000; fill-opacity:0.0; 
stroke:#840000; stroke-width:100; stroke-opacity:1; 
stroke-linecap:round; stroke-linejoin:round;">
</g>
<g style="fill:#840000; fill-opacity:0.0; 
stroke:#840000; stroke-width:60; stroke-opacity:1; 
stroke-linecap:round; stroke-linejoin:round;">
<path d="M69690 71460
L112210 71460
" />
</g>
<g style="fill:#840000; fill-opacity:0.0; 
stroke:#840000; stroke-width:100; stroke-opacity:1; 
stroke-linecap:round; stroke-linejoin:round;">
</g>
<g style="fill:#840000; fill-opacity:0.0; 
stroke:#840000; stroke-width:60; stroke-opacity:1; 
stroke-linecap:round; stroke-linejoin:round;">
<path d="M70190 72280
L70280 72310
L70420 72310
L70470 72280
L70500 72260
L70530 72200
L70530 72140
L70500 72090
L70470 72060
L70420 72030
L70300 72000
L70250 71970
L70220 71950
L70190 71890
L70190 71830
L70220 71780
L70250 71750
L70300 71720
L70450 71720
L70530 71750
" />
<path d="M70780 72310
L70780 71720
" />
<path d="M71030 72310
L71030 72000
L71010 71950
L70950 71920
L70860 71920
L70810 71950
L70780 71970
" />
<path d="M71540 72280
L71480 72310
L71370 72310
L71310 72280
L71280 72230
L71280 72000
L71310 71950
L71370 71920
L71480 71920
L71540 71950
L71560 72000
L71560 72060
L71280 72120
" />
<path d="M72050 72280
L71990 72310
L71880 72310
L71820 72280
L71790 72230
L71790 72000
L71820 71950
L71880 71920
L71990 71920
L72050 71950
L72070 72000
L72070 72060
L71790 72120
" />
<path d="M72250 71920
L72470 71920
" />
<path d="M72330 71720
L72330 72230
L72360 72280
L72410 72310
L72470 72310
" />
<path d="M72670 72260
L72700 72280
L72670 72310
L72640 72280
L72670 72260
L72670 72310
" />
<path d="M72670 71950
L72700 71970
L72670 72000
L72640 71970
L72670 71950
L72670 72000
" />
<path d="M73820 71690
L73320 72450
" />
<path d="M74360 72310
L74160 72030
" />
<path d="M74020 72310
L74020 71720
L74250 71720
L74300 71750
L74330 71780
L74360 71830
L74360 71920
L74330 71970
L74300 72000
L74250 72030
L74020 72030
" />
<path d="M74550 71720
L74950 72310
" />
<path d="M74950 71720
L74550 72310
" />
<path d="M75140 72280
L75230 72310
L75370 72310
L75420 72280
L75450 72260
L75480 72200
L75480 72140
L75450 72090
L75420 72060
L75370 72030
L75250 72000
L75200 71970
L75170 71950
L75140 71890
L75140 71830
L75170 71780
L75200 71750
L75250 71720
L75400 71720
L75480 71750
" />
<path d="M75730 72310
L75730 71720
L75930 72140
L76120 71720
L76120 72310
" />
<path d="M76260 72370
L76710 72370
" />
<path d="M76850 72000
L77050 72000
" />
<path d="M77130 72310
L76850 72310
L76850 71720
L77130 71720
" />
<path d="M77320 71920
L77460 72310
L77610 71920
" />
<path d="M78060 72280
L78000 72310
L77890 72310
L77830 72280
L77800 72230
L77800 72000
L77830 71950
L77890 71920
L78000 71920
L78060 71950
L78080 72000
L78080 72060
L77800 72120
" />
<path d="M78340 71920
L78340 72310
" />
<path d="M78340 71970
L78370 71950
L78420 71920
L78510 71920
L78570 71950
L78590 72000
L78590 72310
" />
<path d="M78790 71920
L79010 71920
" />
<path d="M78870 71720
L78870 72230
L78900 72280
L78950 72310
L79010 72310
" />
<path d="M79070 72370
L79520 72370
" />
<path d="M79940 72310
L79660 72310
L79660 71720
" />
<path d="M80140 72310
L80140 71920
" />
<path d="M80140 71720
L80110 71750
L80140 71780
L80170 71750
L80140 71720
L80140 71780
" />
<path d="M80420 71920
L80420 72310
" />
<path d="M80420 71970
L80450 71950
L80500 71920
L80590 71920
L80650 71950
L80670 72000
L80670 72310
" />
<path d="M81180 72280
L81120 72310
L81010 72310
L80950 72280
L80920 72230
L80920 72000
L80950 71950
L81010 71920
L81120 71920
L81180 71950
L81200 72000
L81200 72060
L80920 72120
" />
<path d="M81430 72280
L81490 72310
L81600 72310
L81660 72280
L81690 72230
L81690 72200
L81660 72140
L81600 72120
L81520 72120
L81460 72090
L81430 72030
L81430 72000
L81460 71950
L81520 71920
L81600 71920
L81660 71950
" />
<path d="M82360 71690
L81860 72450
" />
</g>
<g style="fill:#840000; fill-opacity:0.0; 
stroke:#840000; stroke-width:100; stroke-opacity:1; 
stroke-linecap:round; stroke-linejoin:round;">
</g>
<g style="fill:#840000; fill-opacity:0.0; 
stroke:#840000; stroke-width:120; stroke-opacity:1; 
stroke-linecap:round; stroke-linejoin:round;">
<path d="M70140 70540
L70330 71130
L70530 70540
" />
<path d="M70730 71130
L70730 70540
" />
<path d="M71010 71130
L71010 70540
L71240 70540
L71290 70570
L71320 70600
L71350 70650
L71350 70740
L71320 70790
L71290 70820
L71240 70850
L71010 70850
" />
<path d="M71600 70820
L71800 70820
" />
<path d="M71880 71130
L71600 71130
L71600 70540
L71880 70540
" />
<path d="M72470 71130
L72270 70850
" />
<path d="M72130 71130
L72130 70540
L72360 70540
L72410 70570
L72440 70600
L72470 70650
L72470 70740
L72440 70790
L72410 70820
L72360 70850
L72130 70850
" />
</g>
<g style="fill:#840000; fill-opacity:0.0; 
stroke:#840000; stroke-width:100; stroke-opacity:1; 
stroke-linecap:round; stroke-linejoin:round;">
</g>
<g style="fill:#840000; fill-opacity:0.0; 
stroke:#840000; stroke-width:60; stroke-opacity:1; 
stroke-linecap:round; stroke-linejoin:round;">
<path d="M77560 75400
L77560 76580
" />
</g>
<g style="fill:#840000; fill-opacity:0.0; 
stroke:#840000; stroke-width:100; stroke-opacity:1; 
stroke-linecap:round; stroke-linejoin:round;">
</g>
<g style="fill:#840000; fill-opacity:0.0; 
stroke:#840000; stroke-width:60; stroke-opacity:1; 
stroke-linecap:round; stroke-linejoin:round;">
<path d="M102760 75400
L102760 77960
" />
</g>
<g style="fill:#840000; fill-opacity:0.0; 
stroke:#840000; stroke-width:0; stroke-opacity:1; 
stroke-linecap:round; stroke-linejoin:round;">
</g>
<g style="fill:#FFFFC2; fill-opacity:0.0; 
stroke:#FFFFC2; stroke-width:0; stroke-opacity:1; 
stroke-linecap:round; stroke-linejoin:round;">
</g>
<g style="fill:#FFFFC2; fill-opacity:0.6; 
stroke:#FFFFC2; stroke-width:0; stroke-opacity:1; 
stroke-linecap:round; stroke-linejoin:round;">
<rect x="58500" y="33500" width="4000" height="3000" rx="0" />
</g>
<g style="fill:#840000; fill-opacity:0.6; 
stroke:#840000; stroke-width:0; stroke-opacity:1; 
stroke-linecap:round; stroke-linejoin:round;">
</g>
<g style="fill:#840000; fill-opacity:0.0; 
stroke:#840000; stroke-width:100; stroke-opacity:1; 
stroke-linecap:round; stroke-linejoin:round;">
<rect x="58500" y="33500" width="4000" height="3000" rx="0" />
<polyline fill="none;"
points="62000,35250
61500,35250
" /> 
</g>
<g style="fill:#840000; fill-opacity:0.0; 
stroke:#840000; stroke-width:60; stroke-opacity:1; 
stroke-linecap:round; stroke-linejoin:round;">
<polyline fill="none;"
points="61750,36000
62500,36000
" /> 
<polyline fill="none;"
points="61750,35250
61750,36000
" /> 
<polyline fill="none;"
points="61750,34750
61750,34000
" /> 
<polyline fill="none;"
points="61750,34000
62500,34000
" /> 
<polyline fill="none;"
points="59500,34750
58750,34000
" /> 
</g>
<g style="fill:#840000; fill-opacity:1.0; 
stroke:#840000; stroke-width:60; stroke-opacity:1; 
stroke-linecap:round; stroke-linejoin:round;">
<polyline style="fill-rule:evenodd;"
points="58750,36000
59500,35250
" /> 
</g>
<g style="fill:#840000; fill-opacity:0.0; 
stroke:#840000; stroke-width:60; stroke-opacity:1; 
stroke-linecap:round; stroke-linejoin:round;">
<polyline fill="none;"
points="58750,36000
58500,36000
" /> 
<polyline fill="none;"
points="58750,34000
58500,34000
" /> 
</g>
<g style="fill:#840000; fill-opacity:0.0; 
stroke:#840000; stroke-width:200; stroke-opacity:1; 
stroke-linecap:round; stroke-linejoin:round;">
<polyline fill="none;"
points="59500,34250
59500,35750
59500,35750
" /> 
</g>
<g style="fill:#840000; fill-opacity:1.0; 
stroke:#840000; stroke-width:100; stroke-opacity:1; 
stroke-linecap:round; stroke-linejoin:round;">
<polyline style="fill-rule:evenodd;"
points="62000,34750
61500,34750
61750,35250
62000,34750
" /> 
</g>
<g style="fill:#840000; fill-opacity:0.0; 
stroke:#840000; stroke-width:60; stroke-opacity:1; 
stroke-linecap:round; stroke-linejoin:round;">
<polyline fill="none;"
points="60700,34900
60490,34700
60490,34900
60190,34600
" /> 
<polyline fill="none;"
points="60190,34600
60390,34700
60290,34800
60190,34600
" /> 
</g>
<g style="fill:#840000; fill-opacity:1.0; 
stroke:#840000; stroke-width:60; stroke-opacity:1; 
stroke-linecap:round; stroke-linejoin:round;">
<polyline style="fill-rule:evenodd;"
points="59300,35650
59100,35450
58900,35850
59300,35650
59300,35650
" /> 
</g>
<g style="fill:#840000; fill-opacity:0.0; 
stroke:#840000; stroke-width:60; stroke-opacity:1; 
stroke-linecap:round; stroke-linejoin:round;">
<polyline fill="none;"
points="60700,35300
60490,35100
60490,35300
60190,35000
60390,35100
60290,35200
60190,35000
" /> 
<path d="M62500 34000
L63500 34000
" />
<path d="M63140 33880
L62860 33880
" />
<path d="M63000 33880
L63000 33380
L62950 33450
L62900 33500
L62860 33520
" />
<path d="M62500 36000
L63500 36000
" />
<path d="M62860 35420
L62880 35400
L62930 35380
L63050 35380
L63090 35400
L63120 35420
L63140 35470
L63140 35520
L63120 35590
L62830 35880
L63140 35880
" />
<path d="M58500 36000
L57500 36000
" />
<path d="M57830 35380
L58140 35380
L57970 35570
L58050 35570
L58090 35590
L58120 35610
L58140 35660
L58140 35780
L58120 35830
L58090 35850
L58050 35880
L57900 35880
L57860 35850
L57830 35830
" />
<path d="M58500 34000
L57500 34000
" />
<path d="M58090 33540
L58090 33880
" />
<path d="M57970 33350
L57860 33710
L58160 33710
" />
</g>
<g style="fill:#008484; fill-opacity:0.0; 
stroke:#008484; stroke-width:60; stroke-opacity:1; 
stroke-linecap:round; stroke-linejoin:round;">
<path d="M60660 32760
L60660 33160
L60680 33210
L60710 33230
L60750 33260
L60850 33260
L60900 33230
L60920 33210
L60940 33160
L60940 32760
" />
<path d="M61390 32760
L61300 32760
L61250 32780
L61230 32800
L61180 32880
L61160 32970
L61160 33160
L61180 33210
L61200 33230
L61250 33260
L61350 33260
L61390 33230
L61420 33210
L61440 33160
L61440 33040
L61420 32990
L61390 32970
L61350 32950
L61250 32950
L61200 32970
L61180 32990
L61160 33040
" />
<path d="M61750 32760
L61800 32760
L61850 32780
L61870 32800
L61900 32850
L61920 32950
L61920 33070
L61900 33160
L61870 33210
L61850 33230
L61800 33260
L61750 33260
L61710 33230
L61680 33210
L61660 33160
L61640 33070
L61640 32950
L61660 32850
L61680 32800
L61710 32780
L61750 32760
" />
<path d="M62400 33260
L62120 33260
" />
<path d="M62260 33260
L62260 32760
L62210 32830
L62160 32880
L62120 32900
" />
<path d="M58140 33260
L58140 32760
L58330 32760
L58380 32780
L58400 32800
L58420 32850
L58420 32920
L58400 32970
L58380 32990
L58330 33020
L58140 33020
" />
<path d="M58920 33210
L58900 33230
L58830 33260
L58780 33260
L58710 33230
L58660 33180
L58640 33140
L58620 33040
L58620 32970
L58640 32880
L58660 32830
L58710 32780
L58780 32760
L58830 32760
L58900 32780
L58920 32800
" />
<path d="M59090 32760
L59400 32760
L59230 32950
L59310 32950
L59350 32970
L59380 32990
L59400 33040
L59400 33160
L59380 33210
L59350 33230
L59310 33260
L59160 33260
L59120 33230
L59090 33210
" />
<path d="M59620 33260
L59620 32760
" />
<path d="M59620 32990
L59900 32990
" />
<path d="M59900 33260
L59900 32760
" />
<path d="M60090 32760
L60420 32760
L60210 33260
" />
</g>
<g style="fill:#840084; fill-opacity:0.0; 
stroke:#840084; stroke-width:60; stroke-opacity:1; 
stroke-linecap:round; stroke-linejoin:round;">
<path d="M59950 37230
L60010 37260
L60130 37260
L60180 37230
L60210 37210
L60240 37160
L60240 37110
L60230 37070
L60200 37040
L60160 37020
L60070 36990
L60020 36970
L60000 36950
L59990 36900
L59990 36850
L60020 36800
L60040 36780
L60100 36760
L60220 36760
L60280 36780
" />
<path d="M60600 36760
L60700 36760
L60740 36780
L60780 36830
L60800 36920
L60770 37090
L60730 37180
L60690 37230
L60630 37260
L60530 37260
L60500 37230
L60450 37180
L60440 37090
L60470 36920
L60500 36830
L60550 36780
L60600 36760
" />
<path d="M60960 37260
L61030 36760
L61220 36760
L61260 36780
L61280 36800
L61290 36850
L61290 36920
L61260 36970
L61240 36990
L61180 37020
L60990 37020
" />
<path d="M61490 37070
L61870 37070
" />
<path d="M62340 36920
L62290 37260
" />
<path d="M62240 36730
L62080 37090
L62380 37090
" />
</g>
<g style="fill:#840084; fill-opacity:0.0; 
stroke:#840084; stroke-width:0; stroke-opacity:1; 
stroke-linecap:round; stroke-linejoin:round;">
</g>
<g style="fill:#840000; fill-opacity:0.0; 
stroke:#840000; stroke-width:0; stroke-opacity:1; 
stroke-linecap:round; stroke-linejoin:round;">
</g>
<g style="fill:#FFFFC2; fill-opacity:0.0; 
stroke:#FFFFC2; stroke-width:0; stroke-opacity:1; 
stroke-linecap:round; stroke-linejoin:round;">
</g>
<g style="fill:#FFFFC2; fill-opacity:0.6; 
stroke:#FFFFC2; stroke-width:0; stroke-opacity:1; 
stroke-linecap:round; stroke-linejoin:round;">
<rect x="58500" y="38000" width="4000" height="3000" rx="0" />
</g>
<g style="fill:#840000; fill-opacity:0.6; 
stroke:#840000; stroke-width:0; stroke-opacity:1; 
stroke-linecap:round; stroke-linejoin:round;">
</g>
<g style="fill:#840000; fill-opacity:0.0; 
stroke:#840000; stroke-width:100; stroke-opacity:1; 
stroke-linecap:round; stroke-linejoin:round;">
<rect x="58500" y="38000" width="4000" height="3000" rx="0" />
<polyline fill="none;"
points="62000,39750
61500,39750
" /> 
</g>
<g style="fill:#840000; fill-opacity:0.0; 
stroke:#840000; stroke-width:60; stroke-opacity:1; 
stroke-linecap:round; stroke-linejoin:round;">
<polyline fill="none;"
points="61750,40500
62500,40500
" /> 
<polyline fill="none;"
points="61750,39750
61750,40500
" /> 
<polyline fill="none;"
points="61750,39250
61750,38500
" /> 
<polyline fill="none;"
points="61750,38500
62500,38500
" /> 
<polyline fill="none;"
points="59500,39250
58750,38500
" /> 
</g>
<g style="fill:#840000; fill-opacity:1.0; 
stroke:#840000; stroke-width:60; stroke-opacity:1; 
stroke-linecap:round; stroke-linejoin:round;">
<polyline style="fill-rule:evenodd;"
points="58750,40500
59500,39750
" /> 
</g>
<g style="fill:#840000; fill-opacity:0.0; 
stroke:#840000; stroke-width:60; stroke-opacity:1; 
stroke-linecap:round; stroke-linejoin:round;">
<polyline fill="none;"
points="58750,40500
58500,40500
" /> 
<polyline fill="none;"
points="58750,38500
58500,38500
" /> 
</g>
<g style="fill:#840000; fill-opacity:0.0; 
stroke:#840000; stroke-width:200; stroke-opacity:1; 
stroke-linecap:round; stroke-linejoin:round;">
<polyline fill="none;"
points="59500,38750
59500,40250
59500,40250
" /> 
</g>
<g style="fill:#840000; fill-opacity:1.0; 
stroke:#840000; stroke-width:100; stroke-opacity:1; 
stroke-linecap:round; stroke-linejoin:round;">
<polyline style="fill-rule:evenodd;"
points="62000,39250
61500,39250
61750,39750
62000,39250
" /> 
</g>
<g style="fill:#840000; fill-opacity:0.0; 
stroke:#840000; stroke-width:60; stroke-opacity:1; 
stroke-linecap:round; stroke-linejoin:round;">
<polyline fill="none;"
points="60700,39400
60490,39200
60490,39400
60190,39100
" /> 
<polyline fill="none;"
points="60190,39100
60390,39200
60290,39300
60190,39100
" /> 
</g>
<g style="fill:#840000; fill-opacity:1.0; 
stroke:#840000; stroke-width:60; stroke-opacity:1; 
stroke-linecap:round; stroke-linejoin:round;">
<polyline style="fill-rule:evenodd;"
points="59300,40150
59100,39950
58900,40350
59300,40150
59300,40150
" /> 
</g>
<g style="fill:#840000; fill-opacity:0.0; 
stroke:#840000; stroke-width:60; stroke-opacity:1; 
stroke-linecap:round; stroke-linejoin:round;">
<polyline fill="none;"
points="60700,39800
60490,39600
60490,39800
60190,39500
60390,39600
60290,39700
60190,39500
" /> 
<path d="M62500 38500
L63500 38500
" />
<path d="M63140 38380
L62860 38380
" />
<path d="M63000 38380
L63000 37880
L62950 37950
L62900 38000
L62860 38020
" />
<path d="M62500 40500
L63500 40500
" />
<path d="M62860 39920
L62880 39900
L62930 39880
L63050 39880
L63090 39900
L63120 39920
L63140 39970
L63140 40020
L63120 40090
L62830 40380
L63140 40380
" />
<path d="M58500 40500
L57500 40500
" />
<path d="M57830 39880
L58140 39880
L57970 40070
L58050 40070
L58090 40090
L58120 40110
L58140 40160
L58140 40280
L58120 40330
L58090 40350
L58050 40380
L57900 40380
L57860 40350
L57830 40330
" />
<path d="M58500 38500
L57500 38500
" />
<path d="M58090 38040
L58090 38380
" />
<path d="M57970 37850
L57860 38210
L58160 38210
" />
</g>
<g style="fill:#008484; fill-opacity:0.0; 
stroke:#008484; stroke-width:60; stroke-opacity:1; 
stroke-linecap:round; stroke-linejoin:round;">
<path d="M60660 37260
L60660 37660
L60680 37710
L60710 37730
L60750 37760
L60850 37760
L60900 37730
L60920 37710
L60940 37660
L60940 37260
" />
<path d="M61390 37260
L61300 37260
L61250 37280
L61230 37300
L61180 37380
L61160 37470
L61160 37660
L61180 37710
L61200 37730
L61250 37760
L61350 37760
L61390 37730
L61420 37710
L61440 37660
L61440 37540
L61420 37490
L61390 37470
L61350 37450
L61250 37450
L61200 37470
L61180 37490
L61160 37540
" />
<path d="M61750 37260
L61800 37260
L61850 37280
L61870 37300
L61900 37350
L61920 37450
L61920 37570
L61900 37660
L61870 37710
L61850 37730
L61800 37760
L61750 37760
L61710 37730
L61680 37710
L61660 37660
L61640 37570
L61640 37450
L61660 37350
L61680 37300
L61710 37280
L61750 37260
" />
<path d="M62120 37300
L62140 37280
L62190 37260
L62310 37260
L62350 37280
L62380 37300
L62400 37350
L62400 37400
L62380 37470
L62090 37760
L62400 37760
" />
<path d="M58140 37760
L58140 37260
L58330 37260
L58380 37280
L58400 37300
L58420 37350
L58420 37420
L58400 37470
L58380 37490
L58330 37520
L58140 37520
" />
<path d="M58920 37710
L58900 37730
L58830 37760
L58780 37760
L58710 37730
L58660 37680
L58640 37640
L58620 37540
L58620 37470
L58640 37380
L58660 37330
L58710 37280
L58780 37260
L58830 37260
L58900 37280
L58920 37300
" />
<path d="M59090 37260
L59400 37260
L59230 37450
L59310 37450
L59350 37470
L59380 37490
L59400 37540
L59400 37660
L59380 37710
L59350 37730
L59310 37760
L59160 37760
L59120 37730
L59090 37710
" />
<path d="M59620 37760
L59620 37260
" />
<path d="M59620 37490
L59900 37490
" />
<path d="M59900 37760
L59900 37260
" />
<path d="M60090 37260
L60420 37260
L60210 37760
" />
</g>
<g style="fill:#840084; fill-opacity:0.0; 
stroke:#840084; stroke-width:60; stroke-opacity:1; 
stroke-linecap:round; stroke-linejoin:round;">
<path d="M59950 41730
L60010 41760
L60130 41760
L60180 41730
L60210 41710
L60240 41660
L60240 41610
L60230 41570
L60200 41540
L60160 41520
L60070 41490
L60020 41470
L60000 41450
L59990 41400
L59990 41350
L60020 41300
L60040 41280
L60100 41260
L60220 41260
L60280 41280
" />
<path d="M60600 41260
L60700 41260
L60740 41280
L60780 41330
L60800 41420
L60770 41590
L60730 41680
L60690 41730
L60630 41760
L60530 41760
L60500 41730
L60450 41680
L60440 41590
L60470 41420
L60500 41330
L60550 41280
L60600 41260
" />
<path d="M60960 41760
L61030 41260
L61220 41260
L61260 41280
L61280 41300
L61290 41350
L61290 41420
L61260 41470
L61240 41490
L61180 41520
L60990 41520
" />
<path d="M61490 41570
L61870 41570
" />
<path d="M62340 41420
L62290 41760
" />
<path d="M62240 41230
L62080 41590
L62380 41590
" />
</g>
<g style="fill:#840084; fill-opacity:0.0; 
stroke:#840084; stroke-width:0; stroke-opacity:1; 
stroke-linecap:round; stroke-linejoin:round;">
</g>
<g style="fill:#840000; fill-opacity:0.0; 
stroke:#840000; stroke-width:0; stroke-opacity:1; 
stroke-linecap:round; stroke-linejoin:round;">
</g>
<g style="fill:#FFFFC2; fill-opacity:0.0; 
stroke:#FFFFC2; stroke-width:0; stroke-opacity:1; 
stroke-linecap:round; stroke-linejoin:round;">
</g>
<g style="fill:#FFFFC2; fill-opacity:0.6; 
stroke:#FFFFC2; stroke-width:0; stroke-opacity:1; 
stroke-linecap:round; stroke-linejoin:round;">
<rect x="58500" y="42500" width="4000" height="3000" rx="0" />
</g>
<g style="fill:#840000; fill-opacity:0.6; 
stroke:#840000; stroke-width:0; stroke-opacity:1; 
stroke-linecap:round; stroke-linejoin:round;">
</g>
<g style="fill:#840000; fill-opacity:0.0; 
stroke:#840000; stroke-width:100; stroke-opacity:1; 
stroke-linecap:round; stroke-linejoin:round;">
<rect x="58500" y="42500" width="4000" height="3000" rx="0" />
<polyline fill="none;"
points="62000,44250
61500,44250
" /> 
</g>
<g style="fill:#840000; fill-opacity:0.0; 
stroke:#840000; stroke-width:60; stroke-opacity:1; 
stroke-linecap:round; stroke-linejoin:round;">
<polyline fill="none;"
points="61750,45000
62500,45000
" /> 
<polyline fill="none;"
points="61750,44250
61750,45000
" /> 
<polyline fill="none;"
points="61750,43750
61750,43000
" /> 
<polyline fill="none;"
points="61750,43000
62500,43000
" /> 
<polyline fill="none;"
points="59500,43750
58750,43000
" /> 
</g>
<g style="fill:#840000; fill-opacity:1.0; 
stroke:#840000; stroke-width:60; stroke-opacity:1; 
stroke-linecap:round; stroke-linejoin:round;">
<polyline style="fill-rule:evenodd;"
points="58750,45000
59500,44250
" /> 
</g>
<g style="fill:#840000; fill-opacity:0.0; 
stroke:#840000; stroke-width:60; stroke-opacity:1; 
stroke-linecap:round; stroke-linejoin:round;">
<polyline fill="none;"
points="58750,45000
58500,45000
" /> 
<polyline fill="none;"
points="58750,43000
58500,43000
" /> 
</g>
<g style="fill:#840000; fill-opacity:0.0; 
stroke:#840000; stroke-width:200; stroke-opacity:1; 
stroke-linecap:round; stroke-linejoin:round;">
<polyline fill="none;"
points="59500,43250
59500,44750
59500,44750
" /> 
</g>
<g style="fill:#840000; fill-opacity:1.0; 
stroke:#840000; stroke-width:100; stroke-opacity:1; 
stroke-linecap:round; stroke-linejoin:round;">
<polyline style="fill-rule:evenodd;"
points="62000,43750
61500,43750
61750,44250
62000,43750
" /> 
</g>
<g style="fill:#840000; fill-opacity:0.0; 
stroke:#840000; stroke-width:60; stroke-opacity:1; 
stroke-linecap:round; stroke-linejoin:round;">
<polyline fill="none;"
points="60700,43900
60490,43700
60490,43900
60190,43600
" /> 
<polyline fill="none;"
points="60190,43600
60390,43700
60290,43800
60190,43600
" /> 
</g>
<g style="fill:#840000; fill-opacity:1.0; 
stroke:#840000; stroke-width:60; stroke-opacity:1; 
stroke-linecap:round; stroke-linejoin:round;">
<polyline style="fill-rule:evenodd;"
points="59300,44650
59100,44450
58900,44850
59300,44650
59300,44650
" /> 
</g>
<g style="fill:#840000; fill-opacity:0.0; 
stroke:#840000; stroke-width:60; stroke-opacity:1; 
stroke-linecap:round; stroke-linejoin:round;">
<polyline fill="none;"
points="60700,44300
60490,44100
60490,44300
60190,44000
60390,44100
60290,44200
60190,44000
" /> 
<path d="M62500 43000
L63500 43000
" />
<path d="M63140 42880
L62860 42880
" />
<path d="M63000 42880
L63000 42380
L62950 42450
L62900 42500
L62860 42520
" />
<path d="M62500 45000
L63500 45000
" />
<path d="M62860 44420
L62880 44400
L62930 44380
L63050 44380
L63090 44400
L63120 44420
L63140 44470
L63140 44520
L63120 44590
L62830 44880
L63140 44880
" />
<path d="M58500 45000
L57500 45000
" />
<path d="M57830 44380
L58140 44380
L57970 44570
L58050 44570
L58090 44590
L58120 44610
L58140 44660
L58140 44780
L58120 44830
L58090 44850
L58050 44880
L57900 44880
L57860 44850
L57830 44830
" />
<path d="M58500 43000
L57500 43000
" />
<path d="M58090 42540
L58090 42880
" />
<path d="M57970 42350
L57860 42710
L58160 42710
" />
</g>
<g style="fill:#008484; fill-opacity:0.0; 
stroke:#008484; stroke-width:60; stroke-opacity:1; 
stroke-linecap:round; stroke-linejoin:round;">
<path d="M60660 41760
L60660 42160
L60680 42210
L60710 42230
L60750 42260
L60850 42260
L60900 42230
L60920 42210
L60940 42160
L60940 41760
" />
<path d="M61390 41760
L61300 41760
L61250 41780
L61230 41800
L61180 41880
L61160 41970
L61160 42160
L61180 42210
L61200 42230
L61250 42260
L61350 42260
L61390 42230
L61420 42210
L61440 42160
L61440 42040
L61420 41990
L61390 41970
L61350 41950
L61250 41950
L61200 41970
L61180 41990
L61160 42040
" />
<path d="M61750 41760
L61800 41760
L61850 41780
L61870 41800
L61900 41850
L61920 41950
L61920 42070
L61900 42160
L61870 42210
L61850 42230
L61800 42260
L61750 42260
L61710 42230
L61680 42210
L61660 42160
L61640 42070
L61640 41950
L61660 41850
L61680 41800
L61710 41780
L61750 41760
" />
<path d="M62090 41760
L62400 41760
L62230 41950
L62310 41950
L62350 41970
L62380 41990
L62400 42040
L62400 42160
L62380 42210
L62350 42230
L62310 42260
L62160 42260
L62120 42230
L62090 42210
" />
<path d="M58140 42260
L58140 41760
L58330 41760
L58380 41780
L58400 41800
L58420 41850
L58420 41920
L58400 41970
L58380 41990
L58330 42020
L58140 42020
" />
<path d="M58920 42210
L58900 42230
L58830 42260
L58780 42260
L58710 42230
L58660 42180
L58640 42140
L58620 42040
L58620 41970
L58640 41880
L58660 41830
L58710 41780
L58780 41760
L58830 41760
L58900 41780
L58920 41800
" />
<path d="M59090 41760
L59400 41760
L59230 41950
L59310 41950
L59350 41970
L59380 41990
L59400 42040
L59400 42160
L59380 42210
L59350 42230
L59310 42260
L59160 42260
L59120 42230
L59090 42210
" />
<path d="M59620 42260
L59620 41760
" />
<path d="M59620 41990
L59900 41990
" />
<path d="M59900 42260
L59900 41760
" />
<path d="M60090 41760
L60420 41760
L60210 42260
" />
</g>
<g style="fill:#840084; fill-opacity:0.0; 
stroke:#840084; stroke-width:60; stroke-opacity:1; 
stroke-linecap:round; stroke-linejoin:round;">
<path d="M59950 46230
L60010 46260
L60130 46260
L60180 46230
L60210 46210
L60240 46160
L60240 46110
L60230 46070
L60200 46040
L60160 46020
L60070 45990
L60020 45970
L60000 45950
L59990 45900
L59990 45850
L60020 45800
L60040 45780
L60100 45760
L60220 45760
L60280 45780
" />
<path d="M60600 45760
L60700 45760
L60740 45780
L60780 45830
L60800 45920
L60770 46090
L60730 46180
L60690 46230
L60630 46260
L60530 46260
L60500 46230
L60450 46180
L60440 46090
L60470 45920
L60500 45830
L60550 45780
L60600 45760
" />
<path d="M60960 46260
L61030 45760
L61220 45760
L61260 45780
L61280 45800
L61290 45850
L61290 45920
L61260 45970
L61240 45990
L61180 46020
L60990 46020
" />
<path d="M61490 46070
L61870 46070
" />
<path d="M62340 45920
L62290 46260
" />
<path d="M62240 45730
L62080 46090
L62380 46090
" />
</g>
<g style="fill:#840084; fill-opacity:0.0; 
stroke:#840084; stroke-width:0; stroke-opacity:1; 
stroke-linecap:round; stroke-linejoin:round;">
</g>
<g style="fill:#840000; fill-opacity:0.0; 
stroke:#840000; stroke-width:0; stroke-opacity:1; 
stroke-linecap:round; stroke-linejoin:round;">
</g>
<g style="fill:#840000; fill-opacity:0.0; 
stroke:#840000; stroke-width:100; stroke-opacity:1; 
stroke-linecap:round; stroke-linejoin:round;">
<rect x="65600" y="31000" width="800" height="2000" rx="0" />
</g>
<g style="fill:#840000; fill-opacity:0.0; 
stroke:#840000; stroke-width:60; stroke-opacity:1; 
stroke-linecap:round; stroke-linejoin:round;">
<path d="M66000 31000
L66000 30500
" />
<path d="M66000 33000
L66000 33500
" />
</g>
<g style="fill:#008484; fill-opacity:0.0; 
stroke:#008484; stroke-width:60; stroke-opacity:1; 
stroke-linecap:round; stroke-linejoin:round;">
<path d="M67060 32570
L66820 32730
" />
<path d="M67060 32850
L66560 32850
L66560 32660
L66580 32610
L66600 32590
L66650 32570
L66720 32570
L66770 32590
L66790 32610
L66820 32660
L66820 32850
" />
<path d="M66560 32140
L66560 32230
L66580 32280
L66600 32300
L66680 32350
L66770 32370
L66960 32370
L67010 32350
L67030 32330
L67060 32280
L67060 32180
L67030 32140
L67010 32110
L66960 32090
L66840 32090
L66790 32110
L66770 32140
L66750 32180
L66750 32280
L66770 32330
L66790 32350
L66840 32370
" />
<path d="M66560 31780
L66560 31730
L66580 31680
L66600 31660
L66650 31630
L66750 31610
L66870 31610
L66960 31630
L67010 31660
L67030 31680
L67060 31730
L67060 31780
L67030 31820
L67010 31850
L66960 31870
L66870 31890
L66750 31890
L66650 31870
L66600 31850
L66580 31820
L66560 31780
" />
<path d="M66560 31150
L66560 31390
L66790 31410
L66770 31390
L66750 31340
L66750 31220
L66770 31180
L66790 31150
L66840 31130
L66960 31130
L67010 31150
L67030 31180
L67060 31220
L67060 31340
L67030 31390
L67010 31410
" />
<path d="M65760 32370
L65760 32060
L65950 32230
L65950 32150
L65970 32110
L65990 32080
L66040 32060
L66160 32060
L66210 32080
L66230 32110
L66260 32150
L66260 32300
L66230 32340
L66210 32370
" />
<path d="M66260 31840
L65760 31840
" />
<path d="M66070 31790
L66260 31650
" />
<path d="M65920 31650
L66110 31840
" />
</g>
<g style="fill:#008484; fill-opacity:0.0; 
stroke:#008484; stroke-width:0; stroke-opacity:1; 
stroke-linecap:round; stroke-linejoin:round;">
</g>
<g style="fill:#840000; fill-opacity:0.0; 
stroke:#840000; stroke-width:0; stroke-opacity:1; 
stroke-linecap:round; stroke-linejoin:round;">
</g>
<g style="fill:#840000; fill-opacity:0.0; 
stroke:#840000; stroke-width:100; stroke-opacity:1; 
stroke-linecap:round; stroke-linejoin:round;">
<rect x="63600" y="31000" width="800" height="2000" rx="0" />
</g>
<g style="fill:#840000; fill-opacity:0.0; 
stroke:#840000; stroke-width:60; stroke-opacity:1; 
stroke-linecap:round; stroke-linejoin:round;">
<path d="M64000 31000
L64000 30500
" />
<path d="M64000 33000
L64000 33500
" />
</g>
<g style="fill:#008484; fill-opacity:0.0; 
stroke:#008484; stroke-width:60; stroke-opacity:1; 
stroke-linecap:round; stroke-linejoin:round;">
<path d="M65060 32570
L64820 32730
" />
<path d="M65060 32850
L64560 32850
L64560 32660
L64580 32610
L64600 32590
L64650 32570
L64720 32570
L64770 32590
L64790 32610
L64820 32660
L64820 32850
" />
<path d="M64560 32140
L64560 32230
L64580 32280
L64600 32300
L64680 32350
L64770 32370
L64960 32370
L65010 32350
L65030 32330
L65060 32280
L65060 32180
L65030 32140
L65010 32110
L64960 32090
L64840 32090
L64790 32110
L64770 32140
L64750 32180
L64750 32280
L64770 32330
L64790 32350
L64840 32370
" />
<path d="M64560 31780
L64560 31730
L64580 31680
L64600 31660
L64650 31630
L64750 31610
L64870 31610
L64960 31630
L65010 31660
L65030 31680
L65060 31730
L65060 31780
L65030 31820
L65010 31850
L64960 31870
L64870 31890
L64750 31890
L64650 31870
L64600 31850
L64580 31820
L64560 31780
" />
<path d="M64720 31180
L65060 31180
" />
<path d="M64530 31300
L64890 31410
L64890 31110
" />
<path d="M63760 32370
L63760 32060
L63950 32230
L63950 32150
L63970 32110
L63990 32080
L64040 32060
L64160 32060
L64210 32080
L64230 32110
L64260 32150
L64260 32300
L64230 32340
L64210 32370
" />
<path d="M64260 31840
L63760 31840
" />
<path d="M64070 31790
L64260 31650
" />
<path d="M63920 31650
L64110 31840
" />
</g>
<g style="fill:#008484; fill-opacity:0.0; 
stroke:#008484; stroke-width:0; stroke-opacity:1; 
stroke-linecap:round; stroke-linejoin:round;">
</g>
<g style="fill:#840000; fill-opacity:0.0; 
stroke:#840000; stroke-width:0; stroke-opacity:1; 
stroke-linecap:round; stroke-linejoin:round;">
</g>
<g style="fill:#840000; fill-opacity:0.0; 
stroke:#840000; stroke-width:100; stroke-opacity:1; 
stroke-linecap:round; stroke-linejoin:round;">
<rect x="67600" y="31000" width="800" height="2000" rx="0" />
</g>
<g style="fill:#840000; fill-opacity:0.0; 
stroke:#840000; stroke-width:60; stroke-opacity:1; 
stroke-linecap:round; stroke-linejoin:round;">
<path d="M68000 31000
L68000 30500
" />
<path d="M68000 33000
L68000 33500
" />
</g>
<g style="fill:#008484; fill-opacity:0.0; 
stroke:#008484; stroke-width:60; stroke-opacity:1; 
stroke-linecap:round; stroke-linejoin:round;">
<path d="M69060 32570
L68820 32730
" />
<path d="M69060 32850
L68560 32850
L68560 32660
L68580 32610
L68600 32590
L68650 32570
L68720 32570
L68770 32590
L68790 32610
L68820 32660
L68820 32850
" />
<path d="M68560 32140
L68560 32230
L68580 32280
L68600 32300
L68680 32350
L68770 32370
L68960 32370
L69010 32350
L69030 32330
L69060 32280
L69060 32180
L69030 32140
L69010 32110
L68960 32090
L68840 32090
L68790 32110
L68770 32140
L68750 32180
L68750 32280
L68770 32330
L68790 32350
L68840 32370
" />
<path d="M68560 31780
L68560 31730
L68580 31680
L68600 31660
L68650 31630
L68750 31610
L68870 31610
L68960 31630
L69010 31660
L69030 31680
L69060 31730
L69060 31780
L69030 31820
L69010 31850
L68960 31870
L68870 31890
L68750 31890
L68650 31870
L68600 31850
L68580 31820
L68560 31780
" />
<path d="M68560 31180
L68560 31270
L68580 31320
L68600 31340
L68680 31390
L68770 31410
L68960 31410
L69010 31390
L69030 31370
L69060 31320
L69060 31220
L69030 31180
L69010 31150
L68960 31130
L68840 31130
L68790 31150
L68770 31180
L68750 31220
L68750 31320
L68770 31370
L68790 31390
L68840 31410
" />
<path d="M67760 32370
L67760 32060
L67950 32230
L67950 32150
L67970 32110
L67990 32080
L68040 32060
L68160 32060
L68210 32080
L68230 32110
L68260 32150
L68260 32300
L68230 32340
L68210 32370
" />
<path d="M68260 31840
L67760 31840
" />
<path d="M68070 31790
L68260 31650
" />
<path d="M67920 31650
L68110 31840
" />
</g>
<g style="fill:#008484; fill-opacity:0.0; 
stroke:#008484; stroke-width:0; stroke-opacity:1; 
stroke-linecap:round; stroke-linejoin:round;">
</g>
<g style="fill:#840000; fill-opacity:0.0; 
stroke:#840000; stroke-width:0; stroke-opacity:1; 
stroke-linecap:round; stroke-linejoin:round;">
</g>
<g style="fill:#840000; fill-opacity:0.0; 
stroke:#840000; stroke-width:60; stroke-opacity:1; 
stroke-linecap:round; stroke-linejoin:round;">
<polyline fill="none;"
points="56000,45000
56000,45500
56500,45500
56000,46000
55500,45500
56000,45500
" /> 
</g>
<g style="fill:#008484; fill-opacity:0.0; 
stroke:#008484; stroke-width:60; stroke-opacity:1; 
stroke-linecap:round; stroke-linejoin:round;">
<path d="M55620 46280
L55570 46260
L55500 46260
L55430 46280
L55380 46330
L55360 46380
L55340 46470
L55340 46540
L55360 46640
L55380 46680
L55430 46730
L55500 46760
L55550 46760
L55620 46730
L55640 46710
L55640 46540
L55550 46540
" />
<path d="M55860 46760
L55860 46260
L56140 46760
L56140 46260
" />
<path d="M56380 46760
L56380 46260
L56500 46260
L56570 46280
L56620 46330
L56640 46380
L56660 46470
L56660 46540
L56640 46640
L56620 46680
L56570 46730
L56500 46760
L56380 46760
" />
</g>
<g style="fill:#008484; fill-opacity:0.0; 
stroke:#008484; stroke-width:0; stroke-opacity:1; 
stroke-linecap:round; stroke-linejoin:round;">
</g>
<g style="fill:#840000; fill-opacity:0.0; 
stroke:#840000; stroke-width:0; stroke-opacity:1; 
stroke-linecap:round; stroke-linejoin:round;">
</g>
<g style="fill:#840000; fill-opacity:0.0; 
stroke:#840000; stroke-width:100; stroke-opacity:1; 
stroke-linecap:round; stroke-linejoin:round;">
<rect x="52000" y="32100" width="2000" height="800" rx="0" />
</g>
<g style="fill:#840000; fill-opacity:0.0; 
stroke:#840000; stroke-width:60; stroke-opacity:1; 
stroke-linecap:round; stroke-linejoin:round;">
<path d="M54000 32500
L54500 32500
" />
<path d="M52000 32500
L51500 32500
" />
</g>
<g style="fill:#008484; fill-opacity:0.0; 
stroke:#008484; stroke-width:60; stroke-opacity:1; 
stroke-linecap:round; stroke-linejoin:round;">
<path d="M52430 33560
L52270 33320
" />
<path d="M52150 33560
L52150 33060
L52340 33060
L52390 33080
L52410 33100
L52430 33150
L52430 33220
L52410 33270
L52390 33290
L52340 33320
L52150 33320
" />
<path d="M52860 33060
L52770 33060
L52720 33080
L52700 33100
L52650 33180
L52630 33270
L52630 33460
L52650 33510
L52670 33530
L52720 33560
L52820 33560
L52860 33530
L52890 33510
L52910 33460
L52910 33340
L52890 33290
L52860 33270
L52820 33250
L52720 33250
L52670 33270
L52650 33290
L52630 33340
" />
<path d="M53220 33060
L53270 33060
L53320 33080
L53340 33100
L53370 33150
L53390 33250
L53390 33370
L53370 33460
L53340 33510
L53320 33530
L53270 33560
L53220 33560
L53180 33530
L53150 33510
L53130 33460
L53110 33370
L53110 33250
L53130 33150
L53150 33100
L53180 33080
L53220 33060
" />
<path d="M53870 33560
L53590 33560
" />
<path d="M53730 33560
L53730 33060
L53680 33130
L53630 33180
L53590 33200
" />
<path d="M52940 32760
L52660 32760
" />
<path d="M52800 32760
L52800 32260
L52750 32330
L52700 32380
L52660 32400
" />
<path d="M53160 32760
L53160 32260
" />
<path d="M53210 32570
L53350 32760
" />
<path d="M53350 32420
L53160 32610
" />
</g>
<g style="fill:#008484; fill-opacity:0.0; 
stroke:#008484; stroke-width:0; stroke-opacity:1; 
stroke-linecap:round; stroke-linejoin:round;">
</g>
<g style="fill:#840000; fill-opacity:0.0; 
stroke:#840000; stroke-width:0; stroke-opacity:1; 
stroke-linecap:round; stroke-linejoin:round;">
</g>
<g style="fill:#840000; fill-opacity:0.0; 
stroke:#840000; stroke-width:60; stroke-opacity:1; 
stroke-linecap:round; stroke-linejoin:round;">
<polyline fill="none;"
points="50000,32800
49500,32500
" /> 
<polyline fill="none;"
points="50500,32500
49500,32500
" /> 
<polyline fill="none;"
points="49500,32500
50000,32200
" /> 
</g>
<g style="fill:#008484; fill-opacity:0.0; 
stroke:#008484; stroke-width:60; stroke-opacity:1; 
stroke-linecap:round; stroke-linejoin:round;">
<path d="M49170 33370
L49170 32990
" />
<path d="M49360 33180
L48980 33180
" />
<path d="M48860 32800
L48860 32490
L49050 32660
L49050 32580
L49070 32540
L49090 32510
L49140 32490
L49260 32490
L49310 32510
L49330 32540
L49360 32580
L49360 32730
L49330 32770
L49310 32800
" />
<path d="M48860 32340
L49360 32180
L48860 32010
" />
<path d="M48860 31890
L48860 31580
L49050 31750
L49050 31670
L49070 31630
L49090 31600
L49140 31580
L49260 31580
L49310 31600
L49330 31630
L49360 31670
L49360 31820
L49330 31860
L49310 31890
" />
</g>
<g style="fill:#008484; fill-opacity:0.0; 
stroke:#008484; stroke-width:0; stroke-opacity:1; 
stroke-linecap:round; stroke-linejoin:round;">
</g>
<g style="fill:#840000; fill-opacity:0.0; 
stroke:#840000; stroke-width:0; stroke-opacity:1; 
stroke-linecap:round; stroke-linejoin:round;">
</g>
<g style="fill:#840000; fill-opacity:0.0; 
stroke:#840000; stroke-width:60; stroke-opacity:1; 
stroke-linecap:round; stroke-linejoin:round;">
<polyline fill="none;"
points="50000,37300
49500,37000
" /> 
<polyline fill="none;"
points="50500,37000
49500,37000
" /> 
<polyline fill="none;"
points="49500,37000
50000,36700
" /> 
</g>
<g style="fill:#008484; fill-opacity:0.0; 
stroke:#008484; stroke-width:60; stroke-opacity:1; 
stroke-linecap:round; stroke-linejoin:round;">
<path d="M49170 37870
L49170 37490
" />
<path d="M49360 37680
L48980 37680
" />
<path d="M48860 37300
L48860 36990
L49050 37160
L49050 37080
L49070 37040
L49090 37010
L49140 36990
L49260 36990
L49310 37010
L49330 37040
L49360 37080
L49360 37230
L49330 37270
L49310 37300
" />
<path d="M48860 36840
L49360 36680
L48860 36510
" />
<path d="M48860 36390
L48860 36080
L49050 36250
L49050 36170
L49070 36130
L49090 36100
L49140 36080
L49260 36080
L49310 36100
L49330 36130
L49360 36170
L49360 36320
L49330 36360
L49310 36390
" />
</g>
<g style="fill:#008484; fill-opacity:0.0; 
stroke:#008484; stroke-width:0; stroke-opacity:1; 
stroke-linecap:round; stroke-linejoin:round;">
</g>
<g style="fill:#840000; fill-opacity:0.0; 
stroke:#840000; stroke-width:0; stroke-opacity:1; 
stroke-linecap:round; stroke-linejoin:round;">
</g>
<g style="fill:#840000; fill-opacity:0.0; 
stroke:#840000; stroke-width:100; stroke-opacity:1; 
stroke-linecap:round; stroke-linejoin:round;">
<rect x="52000" y="36600" width="2000" height="800" rx="0" />
</g>
<g style="fill:#840000; fill-opacity:0.0; 
stroke:#840000; stroke-width:60; stroke-opacity:1; 
stroke-linecap:round; stroke-linejoin:round;">
<path d="M54000 37000
L54500 37000
" />
<path d="M52000 37000
L51500 37000
" />
</g>
<g style="fill:#008484; fill-opacity:0.0; 
stroke:#008484; stroke-width:60; stroke-opacity:1; 
stroke-linecap:round; stroke-linejoin:round;">
<path d="M52430 38060
L52270 37820
" />
<path d="M52150 38060
L52150 37560
L52340 37560
L52390 37580
L52410 37600
L52430 37650
L52430 37720
L52410 37770
L52390 37790
L52340 37820
L52150 37820
" />
<path d="M52860 37560
L52770 37560
L52720 37580
L52700 37600
L52650 37680
L52630 37770
L52630 37960
L52650 38010
L52670 38030
L52720 38060
L52820 38060
L52860 38030
L52890 38010
L52910 37960
L52910 37840
L52890 37790
L52860 37770
L52820 37750
L52720 37750
L52670 37770
L52650 37790
L52630 37840
" />
<path d="M53220 37560
L53270 37560
L53320 37580
L53340 37600
L53370 37650
L53390 37750
L53390 37870
L53370 37960
L53340 38010
L53320 38030
L53270 38060
L53220 38060
L53180 38030
L53150 38010
L53130 37960
L53110 37870
L53110 37750
L53130 37650
L53150 37600
L53180 37580
L53220 37560
" />
<path d="M53590 37600
L53610 37580
L53660 37560
L53780 37560
L53820 37580
L53850 37600
L53870 37650
L53870 37700
L53850 37770
L53560 38060
L53870 38060
" />
<path d="M52940 37260
L52660 37260
" />
<path d="M52800 37260
L52800 36760
L52750 36830
L52700 36880
L52660 36900
" />
<path d="M53160 37260
L53160 36760
" />
<path d="M53210 37070
L53350 37260
" />
<path d="M53350 36920
L53160 37110
" />
</g>
<g style="fill:#008484; fill-opacity:0.0; 
stroke:#008484; stroke-width:0; stroke-opacity:1; 
stroke-linecap:round; stroke-linejoin:round;">
</g>
<g style="fill:#840000; fill-opacity:0.0; 
stroke:#840000; stroke-width:0; stroke-opacity:1; 
stroke-linecap:round; stroke-linejoin:round;">
</g>
<g style="fill:#840000; fill-opacity:0.0; 
stroke:#840000; stroke-width:100; stroke-opacity:1; 
stroke-linecap:round; stroke-linejoin:round;">
<rect x="52000" y="41100" width="2000" height="800" rx="0" />
</g>
<g style="fill:#840000; fill-opacity:0.0; 
stroke:#840000; stroke-width:60; stroke-opacity:1; 
stroke-linecap:round; stroke-linejoin:round;">
<path d="M54000 41500
L54500 41500
" />
<path d="M52000 41500
L51500 41500
" />
</g>
<g style="fill:#008484; fill-opacity:0.0; 
stroke:#008484; stroke-width:60; stroke-opacity:1; 
stroke-linecap:round; stroke-linejoin:round;">
<path d="M52430 42560
L52270 42320
" />
<path d="M52150 42560
L52150 42060
L52340 42060
L52390 42080
L52410 42100
L52430 42150
L52430 42220
L52410 42270
L52390 42290
L52340 42320
L52150 42320
" />
<path d="M52860 42060
L52770 42060
L52720 42080
L52700 42100
L52650 42180
L52630 42270
L52630 42460
L52650 42510
L52670 42530
L52720 42560
L52820 42560
L52860 42530
L52890 42510
L52910 42460
L52910 42340
L52890 42290
L52860 42270
L52820 42250
L52720 42250
L52670 42270
L52650 42290
L52630 42340
" />
<path d="M53220 42060
L53270 42060
L53320 42080
L53340 42100
L53370 42150
L53390 42250
L53390 42370
L53370 42460
L53340 42510
L53320 42530
L53270 42560
L53220 42560
L53180 42530
L53150 42510
L53130 42460
L53110 42370
L53110 42250
L53130 42150
L53150 42100
L53180 42080
L53220 42060
" />
<path d="M53560 42060
L53870 42060
L53700 42250
L53780 42250
L53820 42270
L53850 42290
L53870 42340
L53870 42460
L53850 42510
L53820 42530
L53780 42560
L53630 42560
L53590 42530
L53560 42510
" />
<path d="M52940 41760
L52660 41760
" />
<path d="M52800 41760
L52800 41260
L52750 41330
L52700 41380
L52660 41400
" />
<path d="M53160 41760
L53160 41260
" />
<path d="M53210 41570
L53350 41760
" />
<path d="M53350 41420
L53160 41610
" />
</g>
<g style="fill:#008484; fill-opacity:0.0; 
stroke:#008484; stroke-width:0; stroke-opacity:1; 
stroke-linecap:round; stroke-linejoin:round;">
</g>
<g style="fill:#840000; fill-opacity:0.0; 
stroke:#840000; stroke-width:0; stroke-opacity:1; 
stroke-linecap:round; stroke-linejoin:round;">
</g>
<g style="fill:#840000; fill-opacity:0.0; 
stroke:#840000; stroke-width:60; stroke-opacity:1; 
stroke-linecap:round; stroke-linejoin:round;">
<polyline fill="none;"
points="50000,41800
49500,41500
" /> 
<polyline fill="none;"
points="50500,41500
49500,41500
" /> 
<polyline fill="none;"
points="49500,41500
50000,41200
" /> 
</g>
<g style="fill:#008484; fill-opacity:0.0; 
stroke:#008484; stroke-width:60; stroke-opacity:1; 
stroke-linecap:round; stroke-linejoin:round;">
<path d="M49170 42370
L49170 41990
" />
<path d="M49360 42180
L48980 42180
" />
<path d="M48860 41800
L48860 41490
L49050 41660
L49050 41580
L49070 41540
L49090 41510
L49140 41490
L49260 41490
L49310 41510
L49330 41540
L49360 41580
L49360 41730
L49330 41770
L49310 41800
" />
<path d="M48860 41340
L49360 41180
L48860 41010
" />
<path d="M48860 40890
L48860 40580
L49050 40750
L49050 40670
L49070 40630
L49090 40600
L49140 40580
L49260 40580
L49310 40600
L49330 40630
L49360 40670
L49360 40820
L49330 40860
L49310 40890
" />
</g>
<g style="fill:#008400; fill-opacity:0.0; 
stroke:#008400; stroke-width:60; stroke-opacity:1; 
stroke-linecap:round; stroke-linejoin:round;">
<path d="M56000 45000
L57500 45000
" />
<path d="M56000 36000
L56000 45000
" />
<path d="M56000 40500
L57500 40500
" />
<path d="M56000 36000
L57500 36000
" />
</g>
<g style="fill:#008400; fill-opacity:0.0; 
stroke:#008400; stroke-width:0; stroke-opacity:1; 
stroke-linecap:round; stroke-linejoin:round;">
</g>
<g style="fill:#008400; fill-opacity:1.0; 
stroke:#008400; stroke-width:100; stroke-opacity:1; 
stroke-linecap:round; stroke-linejoin:round;">
<circle cx="56000" cy="40500" r="200" /> 
</g>
<g style="fill:#008400; fill-opacity:1.0; 
stroke:#008400; stroke-width:0; stroke-opacity:1; 
stroke-linecap:round; stroke-linejoin:round;">
</g>
<g style="fill:#008400; fill-opacity:1.0; 
stroke:#008400; stroke-width:100; stroke-opacity:1; 
stroke-linecap:round; stroke-linejoin:round;">
<circle cx="56000" cy="45000" r="200" /> 
</g>
<g style="fill:#008400; fill-opacity:1.0; 
stroke:#008400; stroke-width:60; stroke-opacity:1; 
stroke-linecap:round; stroke-linejoin:round;">
</g>
<g style="fill:#008400; fill-opacity:0.0; 
stroke:#008400; stroke-width:60; stroke-opacity:1; 
stroke-linecap:round; stroke-linejoin:round;">
<path d="M50500 41500
L51500 41500
" />
<path d="M54500 41500
L54500 43000
" />
</g>
<g style="fill:#008400; fill-opacity:0.0; 
stroke:#008400; stroke-width:0; stroke-opacity:1; 
stroke-linecap:round; stroke-linejoin:round;">
</g>
<g style="fill:#008400; fill-opacity:1.0; 
stroke:#008400; stroke-width:100; stroke-opacity:1; 
stroke-linecap:round; stroke-linejoin:round;">
<circle cx="54500" cy="43000" r="200" /> 
</g>
<g style="fill:#008400; fill-opacity:1.0; 
stroke:#008400; stroke-width:60; stroke-opacity:1; 
stroke-linecap:round; stroke-linejoin:round;">
</g>
<g style="fill:#008400; fill-opacity:0.0; 
stroke:#008400; stroke-width:60; stroke-opacity:1; 
stroke-linecap:round; stroke-linejoin:round;">
<path d="M54500 37000
L54500 38500
" />
</g>
<g style="fill:#008400; fill-opacity:0.0; 
stroke:#008400; stroke-width:0; stroke-opacity:1; 
stroke-linecap:round; stroke-linejoin:round;">
</g>
<g style="fill:#008400; fill-opacity:1.0; 
stroke:#008400; stroke-width:100; stroke-opacity:1; 
stroke-linecap:round; stroke-linejoin:round;">
<circle cx="54500" cy="38500" r="200" /> 
</g>
<g style="fill:#008400; fill-opacity:1.0; 
stroke:#008400; stroke-width:60; stroke-opacity:1; 
stroke-linecap:round; stroke-linejoin:round;">
</g>
<g style="fill:#008400; fill-opacity:0.0; 
stroke:#008400; stroke-width:60; stroke-opacity:1; 
stroke-linecap:round; stroke-linejoin:round;">
<path d="M50500 37000
L51500 37000
" />
<path d="M63500 43000
L64000 43000
" />
<path d="M64000 43000
L64000 33500
" />
<path d="M66000 33500
L66000 38500
" />
<path d="M66000 38500
L63500 38500
" />
<path d="M68000 33500
L68000 34000
" />
<path d="M68000 34000
L63500 34000
" />
<path d="M63500 40500
L70000 40500
" />
<path d="M63500 36000
L70000 36000
" />
<path d="M63500 45000
L70000 45000
" />
<path d="M64000 30500
L64000 30000
" />
<path d="M64000 30000
L68000 30000
" />
<path d="M66000 27000
L66000 30500
" />
<path d="M68000 30000
L68000 30500
" />
</g>
<g style="fill:#008400; fill-opacity:0.0; 
stroke:#008400; stroke-width:0; stroke-opacity:1; 
stroke-linecap:round; stroke-linejoin:round;">
</g>
<g style="fill:#008400; fill-opacity:1.0; 
stroke:#008400; stroke-width:100; stroke-opacity:1; 
stroke-linecap:round; stroke-linejoin:round;">
<circle cx="66000" cy="30000" r="200" /> 
</g>
<g style="fill:#008400; fill-opacity:1.0; 
stroke:#008400; stroke-width:60; stroke-opacity:1; 
stroke-linecap:round; stroke-linejoin:round;">
</g>
<g style="fill:#008400; fill-opacity:0.0; 
stroke:#008400; stroke-width:60; stroke-opacity:1; 
stroke-linecap:round; stroke-linejoin:round;">
<path d="M46000 38500
L57500 38500
" />
<path d="M46000 43000
L57500 43000
" />
<path d="M50500 32500
L51500 32500
" />
<path d="M54500 32500
L54500 34000
" />
<path d="M46000 34000
L57500 34000
" />
</g>
<g style="fill:#008400; fill-opacity:0.0; 
stroke:#008400; stroke-width:0; stroke-opacity:1; 
stroke-linecap:round; stroke-linejoin:round;">
</g>
<g style="fill:#008400; fill-opacity:1.0; 
stroke:#008400; stroke-width:100; stroke-opacity:1; 
stroke-linecap:round; stroke-linejoin:round;">
<circle cx="54500" cy="34000" r="200" /> 
</g>
<g style="fill:#008400; fill-opacity:1.0; 
stroke:#008400; stroke-width:60; stroke-opacity:1; 
stroke-linecap:round; stroke-linejoin:round;">
</g>
<g style="fill:#848400; fill-opacity:0.0; 
stroke:#848400; stroke-width:60; stroke-opacity:1; 
stroke-linecap:round; stroke-linejoin:round;">
<path d="M44550 34270
L44260 34270
L44260 33670
" />
<path d="M44870 33670
L44980 33670
L45040 33700
L45100 33760
L45120 33870
L45120 34070
L45100 34190
L45040 34240
L44980 34270
L44870 34270
L44810 34240
L44750 34190
L44720 34070
L44720 33870
L44750 33760
L44810 33700
L44870 33670
" />
</g>
<g style="fill:#848400; fill-opacity:0.0; 
stroke:#848400; stroke-width:100; stroke-opacity:1; 
stroke-linecap:round; stroke-linejoin:round;">
<polyline fill="none;"
points="45400,34000
45700,34300
46000,34300
46000,33700
45700,33700
45400,34000
" /> 
</g>
<g style="fill:#848400; fill-opacity:0.0; 
stroke:#848400; stroke-width:60; stroke-opacity:1; 
stroke-linecap:round; stroke-linejoin:round;">
<path d="M43610 38740
L43700 38770
L43840 38770
L43900 38740
L43930 38710
L43960 38660
L43960 38600
L43930 38540
L43900 38510
L43840 38490
L43730 38460
L43670 38430
L43640 38400
L43610 38340
L43610 38290
L43640 38230
L43670 38200
L43730 38170
L43870 38170
L43960 38200
" />
<path d="M44330 38170
L44440 38170
L44500 38200
L44560 38260
L44580 38370
L44580 38570
L44560 38690
L44500 38740
L44440 38770
L44330 38770
L44270 38740
L44210 38690
L44180 38570
L44180 38370
L44210 38260
L44270 38200
L44330 38170
" />
<path d="M44840 38460
L45040 38460
" />
<path d="M45130 38770
L44840 38770
L44840 38170
L45130 38170
" />
</g>
<g style="fill:#848400; fill-opacity:0.0; 
stroke:#848400; stroke-width:100; stroke-opacity:1; 
stroke-linecap:round; stroke-linejoin:round;">
<polyline fill="none;"
points="45400,38500
45700,38800
46000,38800
46000,38200
45700,38200
45400,38500
" /> 
</g>
<g style="fill:#848400; fill-opacity:0.0; 
stroke:#848400; stroke-width:60; stroke-opacity:1; 
stroke-linecap:round; stroke-linejoin:round;">
<path d="M42980 43240
L43070 43270
L43210 43270
L43270 43240
L43300 43210
L43330 43160
L43330 43100
L43300 43040
L43270 43010
L43210 42990
L43100 42960
L43040 42930
L43010 42900
L42980 42840
L42980 42790
L43010 42730
L43040 42700
L43100 42670
L43240 42670
L43330 42700
" />
<path d="M43700 42670
L43810 42670
L43870 42700
L43930 42760
L43950 42870
L43950 43070
L43930 43190
L43870 43240
L43810 43270
L43700 43270
L43640 43240
L43580 43190
L43550 43070
L43550 42870
L43580 42760
L43640 42700
L43700 42670
" />
<path d="M44210 43270
L44210 42670
L44360 42670
L44440 42700
L44500 42760
L44530 42810
L44560 42930
L44560 43010
L44530 43130
L44500 43190
L44440 43240
L44360 43270
L44210 43270
" />
<path d="M44780 43240
L44870 43270
L45010 43270
L45070 43240
L45100 43210
L45130 43160
L45130 43100
L45100 43040
L45070 43010
L45010 42990
L44900 42960
L44840 42930
L44810 42900
L44780 42840
L44780 42790
L44810 42730
L44840 42700
L44900 42670
L45040 42670
L45130 42700
" />
</g>
<g style="fill:#848400; fill-opacity:0.0; 
stroke:#848400; stroke-width:100; stroke-opacity:1; 
stroke-linecap:round; stroke-linejoin:round;">
<polyline fill="none;"
points="45400,43000
45700,43300
46000,43300
46000,42700
45700,42700
45400,43000
" /> 
</g>
<g style="fill:#848400; fill-opacity:0.0; 
stroke:#848400; stroke-width:60; stroke-opacity:1; 
stroke-linecap:round; stroke-linejoin:round;">
<path d="M71250 27270
L71050 26990
" />
<path d="M70900 27270
L70900 26670
L71130 26670
L71190 26700
L71220 26730
L71250 26790
L71250 26870
L71220 26930
L71190 26960
L71130 26990
L70900 26990
" />
<path d="M71450 26670
L71850 27270
" />
<path d="M71850 26670
L71450 27270
" />
<path d="M72040 27240
L72130 27270
L72270 27270
L72330 27240
L72360 27210
L72390 27160
L72390 27100
L72360 27040
L72330 27010
L72270 26990
L72160 26960
L72100 26930
L72070 26900
L72040 26840
L72040 26790
L72070 26730
L72100 26700
L72160 26670
L72300 26670
L72390 26700
" />
<path d="M72640 27270
L72640 26670
L72840 27100
L73040 26670
L73040 27270
" />
<path d="M73190 27330
L73650 27330
" />
<path d="M73760 26730
L73790 26700
L73850 26670
L73990 26670
L74050 26700
L74080 26730
L74110 26790
L74110 26840
L74080 26930
L73740 27270
L74110 27270
" />
<path d="M74450 26930
L74390 26900
L74360 26870
L74330 26810
L74330 26790
L74360 26730
L74390 26700
L74450 26670
L74560 26670
L74620 26700
L74650 26730
L74680 26790
L74680 26810
L74650 26870
L74620 26900
L74560 26930
L74450 26930
L74390 26960
L74360 26990
L74330 27040
L74330 27160
L74360 27210
L74390 27240
L74450 27270
L74560 27270
L74620 27240
L74650 27210
L74680 27160
L74680 27040
L74650 26990
L74620 26960
L74560 26930
" />
<path d="M74850 26670
L75050 27270
L75250 26670
" />
</g>
<g style="fill:#848400; fill-opacity:0.0; 
stroke:#848400; stroke-width:100; stroke-opacity:1; 
stroke-linecap:round; stroke-linejoin:round;">
<polyline fill="none;"
points="70000,27000
70300,27300
70600,27300
70600,26700
70300,26700
70000,27000
" /> 
</g>
<g style="fill:#848400; fill-opacity:0.0; 
stroke:#848400; stroke-width:60; stroke-opacity:1; 
stroke-linecap:round; stroke-linejoin:round;">
</g>
<g style="fill:#008400; fill-opacity:0.0; 
stroke:#008400; stroke-width:60; stroke-opacity:1; 
stroke-linecap:round; stroke-linejoin:round;">
<path d="M70000 27000
L66000 27000
" />
</g>
<g style="fill:#848400; fill-opacity:0.0; 
stroke:#848400; stroke-width:60; stroke-opacity:1; 
stroke-linecap:round; stroke-linejoin:round;">
<path d="M71250 36270
L71050 35990
" />
<path d="M70900 36270
L70900 35670
L71130 35670
L71190 35700
L71220 35730
L71250 35790
L71250 35870
L71220 35930
L71190 35960
L71130 35990
L70900 35990
" />
<path d="M71450 35670
L71850 36270
" />
<path d="M71850 35670
L71450 36270
" />
<path d="M72040 36240
L72130 36270
L72270 36270
L72330 36240
L72360 36210
L72390 36160
L72390 36100
L72360 36040
L72330 36010
L72270 35990
L72160 35960
L72100 35930
L72070 35900
L72040 35840
L72040 35790
L72070 35730
L72100 35700
L72160 35670
L72300 35670
L72390 35700
" />
<path d="M72640 36270
L72640 35670
L72840 36100
L73040 35670
L73040 36270
" />
<path d="M73190 36330
L73650 36330
" />
<path d="M74080 36270
L73790 36270
L73790 35670
" />
<path d="M74400 35670
L74510 35670
L74570 35700
L74630 35760
L74650 35870
L74650 36070
L74630 36190
L74570 36240
L74510 36270
L74400 36270
L74340 36240
L74280 36190
L74250 36070
L74250 35870
L74280 35760
L74340 35700
L74400 35670
" />
</g>
<g style="fill:#848400; fill-opacity:0.0; 
stroke:#848400; stroke-width:100; stroke-opacity:1; 
stroke-linecap:round; stroke-linejoin:round;">
<polyline fill="none;"
points="70000,36000
70300,36300
70600,36300
70600,35700
70300,35700
70000,36000
" /> 
</g>
<g style="fill:#848400; fill-opacity:0.0; 
stroke:#848400; stroke-width:60; stroke-opacity:1; 
stroke-linecap:round; stroke-linejoin:round;">
<path d="M71250 40770
L71050 40490
" />
<path d="M70900 40770
L70900 40170
L71130 40170
L71190 40200
L71220 40230
L71250 40290
L71250 40370
L71220 40430
L71190 40460
L71130 40490
L70900 40490
" />
<path d="M71450 40170
L71850 40770
" />
<path d="M71850 40170
L71450 40770
" />
<path d="M72040 40740
L72130 40770
L72270 40770
L72330 40740
L72360 40710
L72390 40660
L72390 40600
L72360 40540
L72330 40510
L72270 40490
L72160 40460
L72100 40430
L72070 40400
L72040 40340
L72040 40290
L72070 40230
L72100 40200
L72160 40170
L72300 40170
L72390 40200
" />
<path d="M72640 40770
L72640 40170
L72840 40600
L73040 40170
L73040 40770
" />
<path d="M73190 40830
L73650 40830
" />
<path d="M73760 40740
L73850 40770
L73990 40770
L74050 40740
L74080 40710
L74110 40660
L74110 40600
L74080 40540
L74050 40510
L73990 40490
L73880 40460
L73820 40430
L73790 40400
L73760 40340
L73760 40290
L73790 40230
L73820 40200
L73880 40170
L74020 40170
L74110 40200
" />
<path d="M74480 40170
L74590 40170
L74650 40200
L74710 40260
L74730 40370
L74730 40570
L74710 40690
L74650 40740
L74590 40770
L74480 40770
L74420 40740
L74360 40690
L74330 40570
L74330 40370
L74360 40260
L74420 40200
L74480 40170
" />
<path d="M74990 40460
L75190 40460
" />
<path d="M75280 40770
L74990 40770
L74990 40170
L75280 40170
" />
</g>
<g style="fill:#848400; fill-opacity:0.0; 
stroke:#848400; stroke-width:100; stroke-opacity:1; 
stroke-linecap:round; stroke-linejoin:round;">
<polyline fill="none;"
points="70000,40500
70300,40800
70600,40800
70600,40200
70300,40200
70000,40500
" /> 
</g>
<g style="fill:#848400; fill-opacity:0.0; 
stroke:#848400; stroke-width:60; stroke-opacity:1; 
stroke-linecap:round; stroke-linejoin:round;">
<path d="M71250 45270
L71050 44990
" />
<path d="M70900 45270
L70900 44670
L71130 44670
L71190 44700
L71220 44730
L71250 44790
L71250 44870
L71220 44930
L71190 44960
L71130 44990
L70900 44990
" />
<path d="M71450 44670
L71850 45270
" />
<path d="M71850 44670
L71450 45270
" />
<path d="M72040 45240
L72130 45270
L72270 45270
L72330 45240
L72360 45210
L72390 45160
L72390 45100
L72360 45040
L72330 45010
L72270 44990
L72160 44960
L72100 44930
L72070 44900
L72040 44840
L72040 44790
L72070 44730
L72100 44700
L72160 44670
L72300 44670
L72390 44700
" />
<path d="M72640 45270
L72640 44670
L72840 45100
L73040 44670
L73040 45270
" />
<path d="M73190 45330
L73650 45330
" />
<path d="M73760 45240
L73850 45270
L73990 45270
L74050 45240
L74080 45210
L74110 45160
L74110 45100
L74080 45040
L74050 45010
L73990 44990
L73880 44960
L73820 44930
L73790 44900
L73760 44840
L73760 44790
L73790 44730
L73820 44700
L73880 44670
L74020 44670
L74110 44700
" />
<path d="M74480 44670
L74590 44670
L74650 44700
L74710 44760
L74730 44870
L74730 45070
L74710 45190
L74650 45240
L74590 45270
L74480 45270
L74420 45240
L74360 45190
L74330 45070
L74330 44870
L74360 44760
L74420 44700
L74480 44670
" />
<path d="M74990 45270
L74990 44670
L75140 44670
L75220 44700
L75280 44760
L75310 44810
L75340 44930
L75340 45010
L75310 45130
L75280 45190
L75220 45240
L75140 45270
L74990 45270
" />
<path d="M75560 45240
L75650 45270
L75790 45270
L75850 45240
L75880 45210
L75910 45160
L75910 45100
L75880 45040
L75850 45010
L75790 44990
L75680 44960
L75620 44930
L75590 44900
L75560 44840
L75560 44790
L75590 44730
L75620 44700
L75680 44670
L75820 44670
L75910 44700
" />
</g>
<g style="fill:#848400; fill-opacity:0.0; 
stroke:#848400; stroke-width:100; stroke-opacity:1; 
stroke-linecap:round; stroke-linejoin:round;">
<polyline fill="none;"
points="70000,45000
70300,45300
70600,45300
70600,44700
70300,44700
70000,45000
" /> 
</g> 
</svg>
