G04 #@! TF.FileFunction,Soldermask,Top*
%FSLAX46Y46*%
G04 Gerber Fmt 4.6, Leading zero omitted, Abs format (unit mm)*
G04 Created by KiCad (PCBNEW 4.0.6) date Mon Jan  8 22:22:41 2018*
%MOMM*%
%LPD*%
G01*
G04 APERTURE LIST*
%ADD10C,0.100000*%
%ADD11C,1.500000*%
%ADD12C,5.650000*%
%ADD13R,0.400000X1.600000*%
%ADD14R,1.600000X0.400000*%
%ADD15R,1.550000X1.350000*%
%ADD16R,0.950000X0.900000*%
%ADD17R,1.150000X1.400000*%
%ADD18R,0.900000X0.950000*%
%ADD19R,1.400000X1.150000*%
%ADD20R,0.950000X0.950000*%
%ADD21R,1.850000X1.850000*%
%ADD22O,1.850000X1.850000*%
%ADD23R,1.050000X1.850000*%
%ADD24R,0.650000X1.050000*%
%ADD25R,1.050000X0.650000*%
%ADD26R,1.750000X2.330000*%
%ADD27R,2.150000X3.950000*%
%ADD28R,2.150000X1.650000*%
%ADD29R,1.450000X0.400000*%
%ADD30R,0.400000X1.450000*%
%ADD31C,1.650000*%
%ADD32R,3.550000X2.150000*%
%ADD33C,3.960000*%
%ADD34R,1.670000X1.670000*%
%ADD35C,1.670000*%
%ADD36C,6.550000*%
G04 APERTURE END LIST*
D10*
D11*
X106247000Y-53290000D03*
X106247000Y-51000000D03*
X106247000Y-48710000D03*
X106247000Y-46420000D03*
X106247000Y-44130000D03*
X106247000Y-41840000D03*
X106247000Y-39550000D03*
X106247000Y-37260000D03*
X106247000Y-34970000D03*
X104267000Y-54440000D03*
X104267000Y-52150000D03*
X104267000Y-49860000D03*
X104267000Y-47570000D03*
X104267000Y-45280000D03*
X104267000Y-42990000D03*
X104267000Y-40700000D03*
X104267000Y-38410000D03*
X104267000Y-36120000D03*
X102287000Y-53290000D03*
X102287000Y-51000000D03*
X102287000Y-48710000D03*
X102287000Y-46420000D03*
X102287000Y-44130000D03*
X102287000Y-41840000D03*
X102287000Y-39550000D03*
X102287000Y-37260000D03*
D12*
X104267000Y-61340000D03*
X104267000Y-27940000D03*
D13*
X118181683Y-81461814D03*
X118681683Y-81461814D03*
X119181683Y-81461814D03*
X119681683Y-81461814D03*
X120181683Y-81461814D03*
X120681683Y-81461814D03*
X121181683Y-81461814D03*
X121681683Y-81461814D03*
X122181683Y-81461814D03*
X122681683Y-81461814D03*
X123181683Y-81461814D03*
X123681683Y-81461814D03*
X124181683Y-81461814D03*
X124681683Y-81461814D03*
X125181683Y-81461814D03*
X125681683Y-81461814D03*
X126181683Y-81461814D03*
X126681683Y-81461814D03*
X127181683Y-81461814D03*
X127681683Y-81461814D03*
X128181683Y-81461814D03*
X128681683Y-81461814D03*
X129181683Y-81461814D03*
X129681683Y-81461814D03*
X130181683Y-81461814D03*
X130681683Y-81461814D03*
X131181683Y-81461814D03*
X131681683Y-81461814D03*
X132181683Y-81461814D03*
X132681683Y-81461814D03*
X133181683Y-81461814D03*
X133681683Y-81461814D03*
X134181683Y-81461814D03*
X134681683Y-81461814D03*
X135181683Y-81461814D03*
X135681683Y-81461814D03*
D14*
X137481683Y-79661814D03*
X137481683Y-79161814D03*
X137481683Y-78661814D03*
X137481683Y-78161814D03*
X137481683Y-77661814D03*
X137481683Y-77161814D03*
X137481683Y-76661814D03*
X137481683Y-76161814D03*
X137481683Y-75661814D03*
X137481683Y-75161814D03*
X137481683Y-74661814D03*
X137481683Y-74161814D03*
X137481683Y-73661814D03*
X137481683Y-73161814D03*
X137481683Y-72661814D03*
X137481683Y-72161814D03*
X137481683Y-71661814D03*
X137481683Y-71161814D03*
X137481683Y-70661814D03*
X137481683Y-70161814D03*
X137481683Y-69661814D03*
X137481683Y-69161814D03*
X137481683Y-68661814D03*
X137481683Y-68161814D03*
X137481683Y-67661814D03*
X137481683Y-67161814D03*
X137481683Y-66661814D03*
X137481683Y-66161814D03*
X137481683Y-65661814D03*
X137481683Y-65161814D03*
X137481683Y-64661814D03*
X137481683Y-64161814D03*
X137481683Y-63661814D03*
X137481683Y-63161814D03*
X137481683Y-62661814D03*
X137481683Y-62161814D03*
D13*
X135681683Y-60361814D03*
X135181683Y-60361814D03*
X134681683Y-60361814D03*
X134181683Y-60361814D03*
X133681683Y-60361814D03*
X133181683Y-60361814D03*
X132681683Y-60361814D03*
X132181683Y-60361814D03*
X131681683Y-60361814D03*
X131181683Y-60361814D03*
X130681683Y-60361814D03*
X130181683Y-60361814D03*
X129681683Y-60361814D03*
X129181683Y-60361814D03*
X128681683Y-60361814D03*
X128181683Y-60361814D03*
X127681683Y-60361814D03*
X127181683Y-60361814D03*
X126681683Y-60361814D03*
X126181683Y-60361814D03*
X125681683Y-60361814D03*
X125181683Y-60361814D03*
X124681683Y-60361814D03*
X124181683Y-60361814D03*
X123681683Y-60361814D03*
X123181683Y-60361814D03*
X122681683Y-60361814D03*
X122181683Y-60361814D03*
X121681683Y-60361814D03*
X121181683Y-60361814D03*
X120681683Y-60361814D03*
X120181683Y-60361814D03*
X119681683Y-60361814D03*
X119181683Y-60361814D03*
X118681683Y-60361814D03*
X118181683Y-60361814D03*
D14*
X116381683Y-62161814D03*
X116381683Y-62661814D03*
X116381683Y-63161814D03*
X116381683Y-63661814D03*
X116381683Y-64161814D03*
X116381683Y-64661814D03*
X116381683Y-65161814D03*
X116381683Y-65661814D03*
X116381683Y-66161814D03*
X116381683Y-66661814D03*
X116381683Y-67161814D03*
X116381683Y-67661814D03*
X116381683Y-68161814D03*
X116381683Y-68661814D03*
X116381683Y-69161814D03*
X116381683Y-69661814D03*
X116381683Y-70161814D03*
X116381683Y-70661814D03*
X116381683Y-71161814D03*
X116381683Y-71661814D03*
X116381683Y-72161814D03*
X116381683Y-72661814D03*
X116381683Y-73161814D03*
X116381683Y-73661814D03*
X116381683Y-74161814D03*
X116381683Y-74661814D03*
X116381683Y-75161814D03*
X116381683Y-75661814D03*
X116381683Y-76161814D03*
X116381683Y-76661814D03*
X116381683Y-77161814D03*
X116381683Y-77661814D03*
X116381683Y-78161814D03*
X116381683Y-78661814D03*
X116381683Y-79161814D03*
X116381683Y-79661814D03*
D15*
X125095000Y-86022000D03*
X127635000Y-86022000D03*
X127635000Y-88265000D03*
X125095000Y-88265000D03*
D16*
X148233000Y-85217000D03*
X149733000Y-85217000D03*
X143510000Y-87122000D03*
X145010000Y-87122000D03*
D17*
X143637000Y-88646000D03*
X145637000Y-88646000D03*
D18*
X143637000Y-90170000D03*
X143637000Y-91670000D03*
X133350000Y-90805000D03*
X133350000Y-92305000D03*
D19*
X131445000Y-90170000D03*
X131445000Y-92170000D03*
D16*
X49760000Y-53975000D03*
X48260000Y-53975000D03*
X49760000Y-55245000D03*
X48260000Y-55245000D03*
X60325000Y-62865000D03*
X61825000Y-62865000D03*
X61825000Y-57150000D03*
X60325000Y-57150000D03*
X48260000Y-64135000D03*
X49760000Y-64135000D03*
X49760000Y-56515000D03*
X48260000Y-56515000D03*
X48260000Y-65405000D03*
X49760000Y-65405000D03*
X49760000Y-57785000D03*
X48260000Y-57785000D03*
X60325000Y-64770000D03*
X61825000Y-64770000D03*
X61825000Y-59055000D03*
X60325000Y-59055000D03*
X48260000Y-66675000D03*
X49760000Y-66675000D03*
X49760000Y-59055000D03*
X48260000Y-59055000D03*
X48260000Y-67945000D03*
X49760000Y-67945000D03*
X49760000Y-60325000D03*
X48260000Y-60325000D03*
X60325000Y-66675000D03*
X61825000Y-66675000D03*
X61825000Y-60960000D03*
X60325000Y-60960000D03*
X49760000Y-61595000D03*
X48260000Y-61595000D03*
X49760000Y-62865000D03*
X48260000Y-62865000D03*
X49760000Y-69215000D03*
X48260000Y-69215000D03*
X49760000Y-70485000D03*
X48260000Y-70485000D03*
X60325000Y-76835000D03*
X61825000Y-76835000D03*
X61825000Y-69215000D03*
X60325000Y-69215000D03*
X48260000Y-79375000D03*
X49760000Y-79375000D03*
X49760000Y-71755000D03*
X48260000Y-71755000D03*
X48260000Y-80645000D03*
X49760000Y-80645000D03*
X49760000Y-73025000D03*
X48260000Y-73025000D03*
X60325000Y-78740000D03*
X61825000Y-78740000D03*
X61825000Y-73025000D03*
X60325000Y-73025000D03*
X48260000Y-81915000D03*
X49760000Y-81915000D03*
X49760000Y-74295000D03*
X48260000Y-74295000D03*
X48260000Y-83185000D03*
X49760000Y-83185000D03*
X49760000Y-75565000D03*
X48260000Y-75565000D03*
X48260000Y-84455000D03*
X49760000Y-84455000D03*
X61825000Y-74930000D03*
X60325000Y-74930000D03*
X49760000Y-76835000D03*
X48260000Y-76835000D03*
X49760000Y-78105000D03*
X48260000Y-78105000D03*
X49760000Y-38735000D03*
X48260000Y-38735000D03*
X49760000Y-40005000D03*
X48260000Y-40005000D03*
X60325000Y-43815000D03*
X61825000Y-43815000D03*
X61825000Y-38100000D03*
X60325000Y-38100000D03*
X48260000Y-48895000D03*
X49760000Y-48895000D03*
X49760000Y-41275000D03*
X48260000Y-41275000D03*
X48260000Y-50165000D03*
X49760000Y-50165000D03*
X49760000Y-42545000D03*
X48260000Y-42545000D03*
X60325000Y-45720000D03*
X61825000Y-45720000D03*
X61825000Y-40005000D03*
X60325000Y-40005000D03*
X48260000Y-51435000D03*
X49760000Y-51435000D03*
X49760000Y-43815000D03*
X48260000Y-43815000D03*
X48260000Y-52705000D03*
X49760000Y-52705000D03*
X49760000Y-45085000D03*
X48260000Y-45085000D03*
X60325000Y-47625000D03*
X61825000Y-47625000D03*
X61825000Y-41910000D03*
X60325000Y-41910000D03*
X49760000Y-46355000D03*
X48260000Y-46355000D03*
X49760000Y-47625000D03*
X48260000Y-47625000D03*
X74700000Y-48260000D03*
X76200000Y-48260000D03*
X70255000Y-45720000D03*
X71755000Y-45720000D03*
D17*
X70390000Y-34925000D03*
X72390000Y-34925000D03*
D19*
X74041000Y-31020000D03*
X74041000Y-33020000D03*
D18*
X70485000Y-38100000D03*
X70485000Y-36600000D03*
D16*
X68985000Y-41910000D03*
X70485000Y-41910000D03*
D18*
X70485000Y-39140000D03*
X70485000Y-40640000D03*
D17*
X71850000Y-43815000D03*
X69850000Y-43815000D03*
D19*
X76200000Y-31020000D03*
X76200000Y-33020000D03*
D16*
X70255000Y-66040000D03*
X71755000Y-66040000D03*
D17*
X70390000Y-55245000D03*
X72390000Y-55245000D03*
X76073000Y-52705000D03*
X74073000Y-52705000D03*
D18*
X70485000Y-58015000D03*
X70485000Y-56515000D03*
D16*
X68985000Y-62230000D03*
X70485000Y-62230000D03*
D18*
X70485000Y-59055000D03*
X70485000Y-60555000D03*
D17*
X72695000Y-64040000D03*
X70695000Y-64040000D03*
X75470000Y-50800000D03*
X77470000Y-50800000D03*
D16*
X69620000Y-85090000D03*
X71120000Y-85090000D03*
X69620000Y-83820000D03*
X71120000Y-83820000D03*
D17*
X70834000Y-71755000D03*
X68834000Y-71755000D03*
X74676000Y-70104000D03*
X72676000Y-70104000D03*
D18*
X69215000Y-75970000D03*
X69215000Y-77470000D03*
X68961000Y-80240000D03*
X68961000Y-78740000D03*
X69215000Y-74791000D03*
X69215000Y-73291000D03*
D17*
X70961000Y-81534000D03*
X68961000Y-81534000D03*
X73692000Y-68453000D03*
X75692000Y-68453000D03*
D18*
X123190000Y-86360000D03*
X123190000Y-87860000D03*
X129286000Y-84098000D03*
X129286000Y-85598000D03*
D17*
X140462000Y-61087000D03*
X142462000Y-61087000D03*
D18*
X140335000Y-78510000D03*
X140335000Y-80010000D03*
D16*
X129183000Y-58293000D03*
X130683000Y-58293000D03*
X125119000Y-58293000D03*
X126619000Y-58293000D03*
X131977000Y-84074000D03*
X133477000Y-84074000D03*
D18*
X117094000Y-60071000D03*
X117094000Y-58571000D03*
D16*
X126595000Y-83947000D03*
X125095000Y-83947000D03*
D18*
X140462000Y-66572000D03*
X140462000Y-68072000D03*
X139954000Y-71755000D03*
X139954000Y-73255000D03*
D16*
X114935000Y-62865000D03*
X113435000Y-62865000D03*
D20*
X82550000Y-34925000D03*
X80950000Y-34925000D03*
X82550000Y-55245000D03*
X80950000Y-55245000D03*
X81280000Y-72517000D03*
X79680000Y-72517000D03*
D21*
X149225000Y-83185000D03*
D22*
X151765000Y-83185000D03*
X149225000Y-80645000D03*
X151765000Y-80645000D03*
X149225000Y-78105000D03*
X151765000Y-78105000D03*
X149225000Y-75565000D03*
X151765000Y-75565000D03*
X149225000Y-73025000D03*
X151765000Y-73025000D03*
X149225000Y-70485000D03*
X151765000Y-70485000D03*
X149225000Y-67945000D03*
X151765000Y-67945000D03*
X149225000Y-65405000D03*
X151765000Y-65405000D03*
X149225000Y-62865000D03*
X151765000Y-62865000D03*
X149225000Y-60325000D03*
X151765000Y-60325000D03*
X149225000Y-57785000D03*
X151765000Y-57785000D03*
X149225000Y-55245000D03*
X151765000Y-55245000D03*
X149225000Y-52705000D03*
X151765000Y-52705000D03*
X149225000Y-50165000D03*
X151765000Y-50165000D03*
X149225000Y-47625000D03*
X151765000Y-47625000D03*
X149225000Y-45085000D03*
X151765000Y-45085000D03*
X149225000Y-42545000D03*
X151765000Y-42545000D03*
X149225000Y-40005000D03*
X151765000Y-40005000D03*
X149225000Y-37465000D03*
X151765000Y-37465000D03*
X149225000Y-34925000D03*
X151765000Y-34925000D03*
D21*
X124587000Y-51435000D03*
D22*
X122047000Y-51435000D03*
X119507000Y-51435000D03*
D21*
X124587000Y-55245000D03*
D22*
X122047000Y-55245000D03*
X119507000Y-55245000D03*
D10*
G36*
X132065579Y-55151959D02*
X132808041Y-55894421D01*
X132348421Y-56354041D01*
X131605959Y-55611579D01*
X132065579Y-55151959D01*
X132065579Y-55151959D01*
G37*
G36*
X131004919Y-56212619D02*
X131747381Y-56955081D01*
X131287761Y-57414701D01*
X130545299Y-56672239D01*
X131004919Y-56212619D01*
X131004919Y-56212619D01*
G37*
G36*
X130033579Y-53119959D02*
X130776041Y-53862421D01*
X130316421Y-54322041D01*
X129573959Y-53579579D01*
X130033579Y-53119959D01*
X130033579Y-53119959D01*
G37*
G36*
X128972919Y-54180619D02*
X129715381Y-54923081D01*
X129255761Y-55382701D01*
X128513299Y-54640239D01*
X128972919Y-54180619D01*
X128972919Y-54180619D01*
G37*
G36*
X131049579Y-54135959D02*
X131792041Y-54878421D01*
X131332421Y-55338041D01*
X130589959Y-54595579D01*
X131049579Y-54135959D01*
X131049579Y-54135959D01*
G37*
G36*
X129988919Y-55196619D02*
X130731381Y-55939081D01*
X130271761Y-56398701D01*
X129529299Y-55656239D01*
X129988919Y-55196619D01*
X129988919Y-55196619D01*
G37*
D23*
X73300000Y-46355000D03*
X76200000Y-46355000D03*
D24*
X80415000Y-32385000D03*
X81915000Y-32385000D03*
X79629000Y-32131000D03*
X78129000Y-32131000D03*
D23*
X73300000Y-66675000D03*
X76200000Y-66675000D03*
D24*
X79780000Y-52705000D03*
X81280000Y-52705000D03*
X78970000Y-52705000D03*
X77470000Y-52705000D03*
D23*
X72390000Y-83947000D03*
X75290000Y-83947000D03*
D24*
X79145000Y-70104000D03*
X80645000Y-70104000D03*
X77597000Y-70104000D03*
X76097000Y-70104000D03*
D25*
X130683000Y-85447000D03*
X130683000Y-83947000D03*
D24*
X116229000Y-34163000D03*
X117729000Y-34163000D03*
X113411000Y-35560000D03*
X111911000Y-35560000D03*
X111355000Y-55245000D03*
X109855000Y-55245000D03*
X110895000Y-53975000D03*
X112395000Y-53975000D03*
X114705000Y-35560000D03*
X116205000Y-35560000D03*
X114784000Y-34036000D03*
X113284000Y-34036000D03*
X114935000Y-61595000D03*
X113435000Y-61595000D03*
D26*
X103505000Y-73007000D03*
X103505000Y-82187000D03*
X107315000Y-73007000D03*
X107315000Y-82187000D03*
X99695000Y-73007000D03*
X99695000Y-82187000D03*
X95885000Y-82187000D03*
X95885000Y-73007000D03*
D27*
X135305000Y-89347436D03*
D28*
X141605000Y-89347436D03*
X141605000Y-87047436D03*
X141605000Y-91647436D03*
D29*
X72390000Y-36965000D03*
X72390000Y-37465000D03*
X72390000Y-37965000D03*
X72390000Y-38465000D03*
X72390000Y-38965000D03*
X72390000Y-39465000D03*
X72390000Y-39965000D03*
X72390000Y-40465000D03*
X72390000Y-40965000D03*
X72390000Y-41465000D03*
X72390000Y-41965000D03*
X72390000Y-42465000D03*
D30*
X73990000Y-44065000D03*
X74490000Y-44065000D03*
X74990000Y-44065000D03*
X75490000Y-44065000D03*
X75990000Y-44065000D03*
X76490000Y-44065000D03*
X76990000Y-44065000D03*
X77490000Y-44065000D03*
X77990000Y-44065000D03*
X78490000Y-44065000D03*
X78990000Y-44065000D03*
X79490000Y-44065000D03*
D29*
X81090000Y-42465000D03*
X81090000Y-41965000D03*
X81090000Y-41465000D03*
X81090000Y-40965000D03*
X81090000Y-40465000D03*
X81090000Y-39965000D03*
X81090000Y-39465000D03*
X81090000Y-38965000D03*
X81090000Y-38465000D03*
X81090000Y-37965000D03*
X81090000Y-37465000D03*
X81090000Y-36965000D03*
D30*
X79490000Y-35365000D03*
X78990000Y-35365000D03*
X78490000Y-35365000D03*
X77990000Y-35365000D03*
X77490000Y-35365000D03*
X76990000Y-35365000D03*
X76490000Y-35365000D03*
X75990000Y-35365000D03*
X75490000Y-35365000D03*
X74990000Y-35365000D03*
X74490000Y-35365000D03*
X73990000Y-35365000D03*
D29*
X72580000Y-56960000D03*
X72580000Y-57460000D03*
X72580000Y-57960000D03*
X72580000Y-58460000D03*
X72580000Y-58960000D03*
X72580000Y-59460000D03*
X72580000Y-59960000D03*
X72580000Y-60460000D03*
X72580000Y-60960000D03*
X72580000Y-61460000D03*
X72580000Y-61960000D03*
X72580000Y-62460000D03*
D30*
X74180000Y-64060000D03*
X74680000Y-64060000D03*
X75180000Y-64060000D03*
X75680000Y-64060000D03*
X76180000Y-64060000D03*
X76680000Y-64060000D03*
X77180000Y-64060000D03*
X77680000Y-64060000D03*
X78180000Y-64060000D03*
X78680000Y-64060000D03*
X79180000Y-64060000D03*
X79680000Y-64060000D03*
D29*
X81280000Y-62460000D03*
X81280000Y-61960000D03*
X81280000Y-61460000D03*
X81280000Y-60960000D03*
X81280000Y-60460000D03*
X81280000Y-59960000D03*
X81280000Y-59460000D03*
X81280000Y-58960000D03*
X81280000Y-58460000D03*
X81280000Y-57960000D03*
X81280000Y-57460000D03*
X81280000Y-56960000D03*
D30*
X79680000Y-55360000D03*
X79180000Y-55360000D03*
X78680000Y-55360000D03*
X78180000Y-55360000D03*
X77680000Y-55360000D03*
X77180000Y-55360000D03*
X76680000Y-55360000D03*
X76180000Y-55360000D03*
X75680000Y-55360000D03*
X75180000Y-55360000D03*
X74680000Y-55360000D03*
X74180000Y-55360000D03*
D29*
X70965000Y-74180000D03*
X70965000Y-74680000D03*
X70965000Y-75180000D03*
X70965000Y-75680000D03*
X70965000Y-76180000D03*
X70965000Y-76680000D03*
X70965000Y-77180000D03*
X70965000Y-77680000D03*
X70965000Y-78180000D03*
X70965000Y-78680000D03*
X70965000Y-79180000D03*
X70965000Y-79680000D03*
D30*
X72565000Y-81280000D03*
X73065000Y-81280000D03*
X73565000Y-81280000D03*
X74065000Y-81280000D03*
X74565000Y-81280000D03*
X75065000Y-81280000D03*
X75565000Y-81280000D03*
X76065000Y-81280000D03*
X76565000Y-81280000D03*
X77065000Y-81280000D03*
X77565000Y-81280000D03*
X78065000Y-81280000D03*
D29*
X79665000Y-79680000D03*
X79665000Y-79180000D03*
X79665000Y-78680000D03*
X79665000Y-78180000D03*
X79665000Y-77680000D03*
X79665000Y-77180000D03*
X79665000Y-76680000D03*
X79665000Y-76180000D03*
X79665000Y-75680000D03*
X79665000Y-75180000D03*
X79665000Y-74680000D03*
X79665000Y-74180000D03*
D30*
X78065000Y-72580000D03*
X77565000Y-72580000D03*
X77065000Y-72580000D03*
X76565000Y-72580000D03*
X76065000Y-72580000D03*
X75565000Y-72580000D03*
X75065000Y-72580000D03*
X74565000Y-72580000D03*
X74065000Y-72580000D03*
X73565000Y-72580000D03*
X73065000Y-72580000D03*
X72565000Y-72580000D03*
D18*
X113919000Y-68453000D03*
X113919000Y-66953000D03*
X114300000Y-73406000D03*
X114300000Y-71906000D03*
D10*
G36*
X133165315Y-55466436D02*
X132493564Y-54794685D01*
X133165315Y-54122934D01*
X133837066Y-54794685D01*
X133165315Y-55466436D01*
X133165315Y-55466436D01*
G37*
G36*
X134296685Y-54335066D02*
X133624934Y-53663315D01*
X134296685Y-52991564D01*
X134968436Y-53663315D01*
X134296685Y-54335066D01*
X134296685Y-54335066D01*
G37*
G36*
X131191000Y-53630751D02*
X130519249Y-52959000D01*
X131191000Y-52287249D01*
X131862751Y-52959000D01*
X131191000Y-53630751D01*
X131191000Y-53630751D01*
G37*
G36*
X132322370Y-52499381D02*
X131650619Y-51827630D01*
X132322370Y-51155879D01*
X132994121Y-51827630D01*
X132322370Y-52499381D01*
X132322370Y-52499381D01*
G37*
G36*
X132207000Y-54508121D02*
X131535249Y-53836370D01*
X132207000Y-53164619D01*
X132878751Y-53836370D01*
X132207000Y-54508121D01*
X132207000Y-54508121D01*
G37*
G36*
X133338370Y-53376751D02*
X132666619Y-52705000D01*
X133338370Y-52033249D01*
X134010121Y-52705000D01*
X133338370Y-53376751D01*
X133338370Y-53376751D01*
G37*
D31*
X132715000Y-86995000D03*
X128905000Y-92075000D03*
X65532000Y-88519000D03*
X64516000Y-86360000D03*
X66421000Y-86233000D03*
X81026000Y-51054000D03*
X78994000Y-33655000D03*
X113792000Y-81153000D03*
X114173000Y-64643000D03*
D24*
X59055000Y-92075000D03*
X57555000Y-92075000D03*
D25*
X147193000Y-33401000D03*
X147193000Y-31901000D03*
D24*
X144804000Y-91694000D03*
X146304000Y-91694000D03*
D25*
X95250000Y-33885000D03*
X95250000Y-32385000D03*
D24*
X58650000Y-32385000D03*
X57150000Y-32385000D03*
X104370000Y-66040000D03*
X102870000Y-66040000D03*
D16*
X114705000Y-52705000D03*
X116205000Y-52705000D03*
D32*
X145542000Y-84426000D03*
X145542000Y-81026000D03*
D33*
X139910000Y-43000000D03*
X114890000Y-43000000D03*
D34*
X122000000Y-44400000D03*
D35*
X124670000Y-44400000D03*
X127460000Y-44400000D03*
X130130000Y-44400000D03*
X132920000Y-44400000D03*
X123270000Y-41610000D03*
X126060000Y-41610000D03*
X128730000Y-41610000D03*
X131530000Y-41610000D03*
D33*
X139910000Y-28381961D03*
X114890000Y-28381961D03*
D34*
X122000000Y-29781961D03*
D35*
X124670000Y-29781961D03*
X127460000Y-29781961D03*
X130130000Y-29781961D03*
X132920000Y-29781961D03*
X123270000Y-26991961D03*
X126060000Y-26991961D03*
X128730000Y-26991961D03*
X131530000Y-26991961D03*
D33*
X116715000Y-90040000D03*
X69725000Y-90040000D03*
D34*
X76585000Y-91440000D03*
D35*
X79375000Y-91440000D03*
X82175000Y-91440000D03*
X84965000Y-91440000D03*
X87765000Y-91440000D03*
X90425000Y-91440000D03*
X93225000Y-91440000D03*
X96015000Y-91440000D03*
X98815000Y-91440000D03*
X101605000Y-91440000D03*
X104275000Y-91440000D03*
X107065000Y-91440000D03*
X109855000Y-91440000D03*
X77985000Y-88650000D03*
X80775000Y-88650000D03*
X83575000Y-88650000D03*
X86235000Y-88650000D03*
X89035000Y-88650000D03*
X91825000Y-88650000D03*
X94615000Y-88650000D03*
X97415000Y-88650000D03*
X100085000Y-88650000D03*
X102875000Y-88650000D03*
X105665000Y-88650000D03*
X108465000Y-88650000D03*
D11*
X57960000Y-81695000D03*
X57960000Y-79285000D03*
X57960000Y-76875000D03*
X57960000Y-74465000D03*
X57960000Y-72055000D03*
X57960000Y-69645000D03*
X57960000Y-67235000D03*
X57960000Y-64825000D03*
X57960000Y-62415000D03*
X57960000Y-60005000D03*
X57960000Y-57595000D03*
X57960000Y-55185000D03*
X57960000Y-52775000D03*
X57960000Y-50365000D03*
X57960000Y-47955000D03*
X57960000Y-45535000D03*
X57960000Y-43135000D03*
X57960000Y-40725000D03*
X57960000Y-38315000D03*
X57960000Y-35895000D03*
X55880000Y-80485000D03*
X55880000Y-78075000D03*
X55880000Y-75665000D03*
X55880000Y-73255000D03*
X55880000Y-70845000D03*
X55880000Y-68435000D03*
X55880000Y-66025000D03*
X55880000Y-63615000D03*
X55880000Y-61205000D03*
X55880000Y-58795000D03*
X55880000Y-56385000D03*
X55880000Y-53975000D03*
X55880000Y-51565000D03*
X55880000Y-49155000D03*
X55880000Y-46745000D03*
X55880000Y-44335000D03*
X55880000Y-41925000D03*
X55880000Y-39515000D03*
X55880000Y-37105000D03*
X53800000Y-81695000D03*
X53800000Y-79285000D03*
X53800000Y-76875000D03*
X53800000Y-74465000D03*
X53800000Y-72055000D03*
X53800000Y-69645000D03*
X53800000Y-67235000D03*
X53800000Y-64825000D03*
X53800000Y-62415000D03*
X53800000Y-60005000D03*
X53800000Y-57595000D03*
X53800000Y-55185000D03*
X53800000Y-52775000D03*
X53800000Y-50365000D03*
X53800000Y-47955000D03*
X53800000Y-45535000D03*
X53800000Y-43135000D03*
X53800000Y-40725000D03*
X53800000Y-38315000D03*
X53800000Y-35895000D03*
X51720000Y-80485000D03*
X51720000Y-78075000D03*
X51720000Y-75665000D03*
X51720000Y-73255000D03*
X51720000Y-70845000D03*
X51720000Y-68435000D03*
X51720000Y-66025000D03*
X51720000Y-63615000D03*
X51720000Y-61205000D03*
X51720000Y-58795000D03*
X51720000Y-56385000D03*
X51720000Y-53975000D03*
X51720000Y-51565000D03*
X51720000Y-49155000D03*
X51720000Y-46745000D03*
X51720000Y-44335000D03*
X51720000Y-41925000D03*
X51720000Y-39515000D03*
X51720000Y-37105000D03*
D12*
X54840000Y-89295000D03*
X54840000Y-28295000D03*
D36*
X50165000Y-90170000D03*
X151130000Y-27940000D03*
X151130000Y-90170000D03*
X95250000Y-27940000D03*
X50165000Y-27940000D03*
X99060000Y-67945000D03*
D11*
X91515000Y-67085000D03*
X91515000Y-64795000D03*
X91515000Y-62505000D03*
X91515000Y-60215000D03*
X91515000Y-57925000D03*
X91515000Y-55635000D03*
X91515000Y-53345000D03*
X91515000Y-51055000D03*
X91515000Y-48765000D03*
X91515000Y-46475000D03*
X91515000Y-44185000D03*
X91515000Y-41895000D03*
X91515000Y-39605000D03*
X91515000Y-37315000D03*
X91515000Y-35025000D03*
X89535000Y-68235000D03*
X89535000Y-65945000D03*
X89535000Y-63655000D03*
X89535000Y-61365000D03*
X89535000Y-59075000D03*
X89535000Y-56785000D03*
X89535000Y-54495000D03*
X89535000Y-52205000D03*
X89535000Y-49915000D03*
X89535000Y-47625000D03*
X89535000Y-45335000D03*
X89535000Y-43045000D03*
X89535000Y-40755000D03*
X89535000Y-38465000D03*
X89535000Y-36175000D03*
X87555000Y-67085000D03*
X87555000Y-64795000D03*
X87555000Y-62505000D03*
X87555000Y-60215000D03*
X87555000Y-57925000D03*
X87555000Y-55635000D03*
X87555000Y-53345000D03*
X87555000Y-51055000D03*
X87555000Y-48765000D03*
X87555000Y-46475000D03*
X87555000Y-44185000D03*
X87555000Y-41895000D03*
X87555000Y-39605000D03*
X87555000Y-37315000D03*
D12*
X89535000Y-75085000D03*
X89535000Y-28045000D03*
M02*
