G04 #@! TF.FileFunction,Soldermask,Bot*
%FSLAX46Y46*%
G04 Gerber Fmt 4.6, Leading zero omitted, Abs format (unit mm)*
G04 Created by KiCad (PCBNEW 4.0.6) date Mon Jan  8 22:22:41 2018*
%MOMM*%
%LPD*%
G01*
G04 APERTURE LIST*
%ADD10C,0.100000*%
%ADD11C,1.500000*%
%ADD12C,5.650000*%
%ADD13R,0.950000X0.900000*%
%ADD14R,1.400000X1.150000*%
%ADD15R,1.150000X1.400000*%
%ADD16R,0.900000X0.950000*%
%ADD17R,0.950000X0.950000*%
%ADD18R,1.850000X1.850000*%
%ADD19O,1.850000X1.850000*%
%ADD20R,0.650000X1.050000*%
%ADD21R,1.050000X1.850000*%
%ADD22R,1.850000X1.050000*%
%ADD23R,1.050000X0.650000*%
%ADD24R,1.450000X0.400000*%
%ADD25R,0.400000X1.450000*%
%ADD26R,0.750000X1.650000*%
%ADD27C,1.650000*%
%ADD28C,3.960000*%
%ADD29R,1.670000X1.670000*%
%ADD30C,1.670000*%
%ADD31C,6.550000*%
%ADD32R,0.800000X1.850000*%
G04 APERTURE END LIST*
D10*
D11*
X106247000Y-53290000D03*
X106247000Y-51000000D03*
X106247000Y-48710000D03*
X106247000Y-46420000D03*
X106247000Y-44130000D03*
X106247000Y-41840000D03*
X106247000Y-39550000D03*
X106247000Y-37260000D03*
X106247000Y-34970000D03*
X104267000Y-54440000D03*
X104267000Y-52150000D03*
X104267000Y-49860000D03*
X104267000Y-47570000D03*
X104267000Y-45280000D03*
X104267000Y-42990000D03*
X104267000Y-40700000D03*
X104267000Y-38410000D03*
X104267000Y-36120000D03*
X102287000Y-53290000D03*
X102287000Y-51000000D03*
X102287000Y-48710000D03*
X102287000Y-46420000D03*
X102287000Y-44130000D03*
X102287000Y-41840000D03*
X102287000Y-39550000D03*
X102287000Y-37260000D03*
D12*
X104267000Y-61340000D03*
X104267000Y-27940000D03*
D13*
X67715000Y-68580000D03*
X69215000Y-68580000D03*
X72620000Y-68580000D03*
X71120000Y-68580000D03*
D14*
X72390000Y-53245000D03*
X72390000Y-55245000D03*
D15*
X68215000Y-52705000D03*
X70215000Y-52705000D03*
D16*
X74295000Y-57150000D03*
X74295000Y-55650000D03*
X74295000Y-62865000D03*
X74295000Y-61365000D03*
X74295000Y-58559000D03*
X74295000Y-60059000D03*
D15*
X72295000Y-64135000D03*
X74295000Y-64135000D03*
X69310000Y-50800000D03*
X67310000Y-50800000D03*
D13*
X60325000Y-88265000D03*
X61825000Y-88265000D03*
X60325000Y-89535000D03*
X61825000Y-89535000D03*
D14*
X73025000Y-73565000D03*
X73025000Y-75565000D03*
D15*
X69120000Y-73025000D03*
X71120000Y-73025000D03*
D16*
X74295000Y-78105000D03*
X74295000Y-76605000D03*
X74295000Y-83820000D03*
X74295000Y-82320000D03*
X74295000Y-79375000D03*
X74295000Y-80875000D03*
D15*
X72295000Y-85090000D03*
X74295000Y-85090000D03*
X69850000Y-71120000D03*
X67850000Y-71120000D03*
D13*
X67715000Y-48260000D03*
X69215000Y-48260000D03*
X72390000Y-48260000D03*
X70890000Y-48260000D03*
D14*
X72390000Y-32290000D03*
X72390000Y-34290000D03*
D15*
X68485000Y-32639000D03*
X70485000Y-32639000D03*
D16*
X74295000Y-38100000D03*
X74295000Y-36600000D03*
D13*
X75541000Y-42291000D03*
X74041000Y-42291000D03*
D16*
X74295000Y-39497000D03*
X74295000Y-40997000D03*
D15*
X72390000Y-43815000D03*
X74390000Y-43815000D03*
X69215000Y-31115000D03*
X67215000Y-31115000D03*
D13*
X82145000Y-28575000D03*
X80645000Y-28575000D03*
X82145000Y-29845000D03*
X80645000Y-29845000D03*
X80645000Y-42545000D03*
X82145000Y-42545000D03*
X82145000Y-31115000D03*
X80645000Y-31115000D03*
X80645000Y-43815000D03*
X82145000Y-43815000D03*
X82145000Y-32385000D03*
X80645000Y-32385000D03*
X80645000Y-45085000D03*
X82145000Y-45085000D03*
X82145000Y-33655000D03*
X80645000Y-33655000D03*
X80645000Y-46355000D03*
X82145000Y-46355000D03*
X82145000Y-34925000D03*
X80645000Y-34925000D03*
X80645000Y-47625000D03*
X82145000Y-47625000D03*
X82145000Y-36195000D03*
X80645000Y-36195000D03*
X80645000Y-48895000D03*
X82145000Y-48895000D03*
X82145000Y-37465000D03*
X80645000Y-37465000D03*
X80645000Y-50165000D03*
X82145000Y-50165000D03*
X82145000Y-38735000D03*
X80645000Y-38735000D03*
X82145000Y-40005000D03*
X80645000Y-40005000D03*
X82145000Y-41275000D03*
X80645000Y-41275000D03*
X82145000Y-51435000D03*
X80645000Y-51435000D03*
X82145000Y-52705000D03*
X80645000Y-52705000D03*
X80645000Y-65405000D03*
X82145000Y-65405000D03*
X82145000Y-53975000D03*
X80645000Y-53975000D03*
X80645000Y-66675000D03*
X82145000Y-66675000D03*
X82145000Y-55245000D03*
X80645000Y-55245000D03*
X80645000Y-67945000D03*
X82145000Y-67945000D03*
X82145000Y-56515000D03*
X80645000Y-56515000D03*
X80645000Y-69215000D03*
X82145000Y-69215000D03*
X82145000Y-57785000D03*
X80645000Y-57785000D03*
X82145000Y-59055000D03*
X80645000Y-59055000D03*
X82145000Y-60325000D03*
X80645000Y-60325000D03*
X82145000Y-61595000D03*
X80645000Y-61595000D03*
X74065000Y-68580000D03*
X75565000Y-68580000D03*
X82145000Y-62865000D03*
X80645000Y-62865000D03*
X82145000Y-64135000D03*
X80645000Y-64135000D03*
D16*
X109220000Y-85725000D03*
X109220000Y-84225000D03*
X107950000Y-85725000D03*
X107950000Y-84225000D03*
X89535000Y-84225000D03*
X89535000Y-85725000D03*
X106680000Y-85725000D03*
X106680000Y-84225000D03*
X86360000Y-84225000D03*
X86360000Y-85725000D03*
X103505000Y-85725000D03*
X103505000Y-84225000D03*
X85090000Y-84225000D03*
X85090000Y-85725000D03*
X102235000Y-85725000D03*
X102235000Y-84225000D03*
X83820000Y-84225000D03*
X83820000Y-85725000D03*
X100965000Y-85725000D03*
X100965000Y-84225000D03*
X82550000Y-84225000D03*
X82550000Y-85725000D03*
X97790000Y-85725000D03*
X97790000Y-84225000D03*
X81280000Y-84225000D03*
X81280000Y-85725000D03*
X96520000Y-85725000D03*
X96520000Y-84225000D03*
X80010000Y-84225000D03*
X80010000Y-85725000D03*
X95250000Y-85725000D03*
X95250000Y-84225000D03*
X92075000Y-85725000D03*
X92075000Y-84225000D03*
X90805000Y-85725000D03*
X90805000Y-84225000D03*
D14*
X118745000Y-60039000D03*
X118745000Y-58039000D03*
X133985000Y-89535000D03*
X133985000Y-91535000D03*
X131445000Y-89535000D03*
X131445000Y-91535000D03*
D13*
X118745000Y-63500000D03*
X120245000Y-63500000D03*
X136703500Y-84455000D03*
X135203500Y-84455000D03*
D16*
X109855000Y-69215000D03*
X109855000Y-70715000D03*
X107061000Y-69215000D03*
X107061000Y-70715000D03*
X108458000Y-69215000D03*
X108458000Y-70715000D03*
X130429000Y-47474000D03*
X130429000Y-45974000D03*
X128905000Y-47498000D03*
X128905000Y-45998000D03*
D17*
X62230000Y-55245000D03*
X63830000Y-55245000D03*
X63500000Y-73965000D03*
X63500000Y-75565000D03*
X62230000Y-34925000D03*
X63830000Y-34925000D03*
D18*
X149225000Y-83185000D03*
D19*
X151765000Y-83185000D03*
X149225000Y-80645000D03*
X151765000Y-80645000D03*
X149225000Y-78105000D03*
X151765000Y-78105000D03*
X149225000Y-75565000D03*
X151765000Y-75565000D03*
X149225000Y-73025000D03*
X151765000Y-73025000D03*
X149225000Y-70485000D03*
X151765000Y-70485000D03*
X149225000Y-67945000D03*
X151765000Y-67945000D03*
X149225000Y-65405000D03*
X151765000Y-65405000D03*
X149225000Y-62865000D03*
X151765000Y-62865000D03*
X149225000Y-60325000D03*
X151765000Y-60325000D03*
X149225000Y-57785000D03*
X151765000Y-57785000D03*
X149225000Y-55245000D03*
X151765000Y-55245000D03*
X149225000Y-52705000D03*
X151765000Y-52705000D03*
X149225000Y-50165000D03*
X151765000Y-50165000D03*
X149225000Y-47625000D03*
X151765000Y-47625000D03*
X149225000Y-45085000D03*
X151765000Y-45085000D03*
X149225000Y-42545000D03*
X151765000Y-42545000D03*
X149225000Y-40005000D03*
X151765000Y-40005000D03*
X149225000Y-37465000D03*
X151765000Y-37465000D03*
X149225000Y-34925000D03*
X151765000Y-34925000D03*
D18*
X124587000Y-51435000D03*
D19*
X122047000Y-51435000D03*
X119507000Y-51435000D03*
D18*
X124587000Y-55245000D03*
D19*
X122047000Y-55245000D03*
X119507000Y-55245000D03*
D20*
X127786000Y-35052000D03*
X129286000Y-35052000D03*
X126619000Y-36576000D03*
X125119000Y-36576000D03*
X127762000Y-36576000D03*
X129262000Y-36576000D03*
X126619000Y-35052000D03*
X125119000Y-35052000D03*
X121134000Y-27178000D03*
X119634000Y-27178000D03*
D21*
X72115000Y-66675000D03*
X69215000Y-66675000D03*
D20*
X63730000Y-53975000D03*
X62230000Y-53975000D03*
X65175000Y-52705000D03*
X66675000Y-52705000D03*
D22*
X63500000Y-91165000D03*
X63500000Y-88265000D03*
D20*
X64770000Y-73025000D03*
X63270000Y-73025000D03*
X65810000Y-73025000D03*
X67310000Y-73025000D03*
D21*
X71935000Y-46355000D03*
X69035000Y-46355000D03*
D20*
X63730000Y-33655000D03*
X62230000Y-33655000D03*
X65175000Y-33020000D03*
X66675000Y-33020000D03*
D23*
X116205000Y-76581000D03*
X116205000Y-75081000D03*
D20*
X113284000Y-63754000D03*
X114784000Y-63754000D03*
X111252000Y-62357000D03*
X109752000Y-62357000D03*
X109982000Y-53594000D03*
X108482000Y-53594000D03*
X112165000Y-53594000D03*
X113665000Y-53594000D03*
X112268000Y-62357000D03*
X113768000Y-62357000D03*
X112268000Y-63754000D03*
X110768000Y-63754000D03*
D23*
X109855000Y-68175000D03*
X109855000Y-66675000D03*
X107061000Y-68175000D03*
X107061000Y-66675000D03*
X108458000Y-68175000D03*
X108458000Y-66675000D03*
D20*
X131294000Y-51308000D03*
X129794000Y-51308000D03*
X128881000Y-49022000D03*
X127381000Y-49022000D03*
D24*
X72295000Y-56940000D03*
X72295000Y-57440000D03*
X72295000Y-57940000D03*
X72295000Y-58440000D03*
X72295000Y-58940000D03*
X72295000Y-59440000D03*
X72295000Y-59940000D03*
X72295000Y-60440000D03*
X72295000Y-60940000D03*
X72295000Y-61440000D03*
X72295000Y-61940000D03*
X72295000Y-62440000D03*
D25*
X70695000Y-64040000D03*
X70195000Y-64040000D03*
X69695000Y-64040000D03*
X69195000Y-64040000D03*
X68695000Y-64040000D03*
X68195000Y-64040000D03*
X67695000Y-64040000D03*
X67195000Y-64040000D03*
X66695000Y-64040000D03*
X66195000Y-64040000D03*
X65695000Y-64040000D03*
X65195000Y-64040000D03*
D24*
X63595000Y-62440000D03*
X63595000Y-61940000D03*
X63595000Y-61440000D03*
X63595000Y-60940000D03*
X63595000Y-60440000D03*
X63595000Y-59940000D03*
X63595000Y-59440000D03*
X63595000Y-58940000D03*
X63595000Y-58440000D03*
X63595000Y-57940000D03*
X63595000Y-57440000D03*
X63595000Y-56940000D03*
D25*
X65195000Y-55340000D03*
X65695000Y-55340000D03*
X66195000Y-55340000D03*
X66695000Y-55340000D03*
X67195000Y-55340000D03*
X67695000Y-55340000D03*
X68195000Y-55340000D03*
X68695000Y-55340000D03*
X69195000Y-55340000D03*
X69695000Y-55340000D03*
X70195000Y-55340000D03*
X70695000Y-55340000D03*
D24*
X72295000Y-77260000D03*
X72295000Y-77760000D03*
X72295000Y-78260000D03*
X72295000Y-78760000D03*
X72295000Y-79260000D03*
X72295000Y-79760000D03*
X72295000Y-80260000D03*
X72295000Y-80760000D03*
X72295000Y-81260000D03*
X72295000Y-81760000D03*
X72295000Y-82260000D03*
X72295000Y-82760000D03*
D25*
X70695000Y-84360000D03*
X70195000Y-84360000D03*
X69695000Y-84360000D03*
X69195000Y-84360000D03*
X68695000Y-84360000D03*
X68195000Y-84360000D03*
X67695000Y-84360000D03*
X67195000Y-84360000D03*
X66695000Y-84360000D03*
X66195000Y-84360000D03*
X65695000Y-84360000D03*
X65195000Y-84360000D03*
D24*
X63595000Y-82760000D03*
X63595000Y-82260000D03*
X63595000Y-81760000D03*
X63595000Y-81260000D03*
X63595000Y-80760000D03*
X63595000Y-80260000D03*
X63595000Y-79760000D03*
X63595000Y-79260000D03*
X63595000Y-78760000D03*
X63595000Y-78260000D03*
X63595000Y-77760000D03*
X63595000Y-77260000D03*
D25*
X65195000Y-75660000D03*
X65695000Y-75660000D03*
X66195000Y-75660000D03*
X66695000Y-75660000D03*
X67195000Y-75660000D03*
X67695000Y-75660000D03*
X68195000Y-75660000D03*
X68695000Y-75660000D03*
X69195000Y-75660000D03*
X69695000Y-75660000D03*
X70195000Y-75660000D03*
X70695000Y-75660000D03*
D24*
X72295000Y-36620000D03*
X72295000Y-37120000D03*
X72295000Y-37620000D03*
X72295000Y-38120000D03*
X72295000Y-38620000D03*
X72295000Y-39120000D03*
X72295000Y-39620000D03*
X72295000Y-40120000D03*
X72295000Y-40620000D03*
X72295000Y-41120000D03*
X72295000Y-41620000D03*
X72295000Y-42120000D03*
D25*
X70695000Y-43720000D03*
X70195000Y-43720000D03*
X69695000Y-43720000D03*
X69195000Y-43720000D03*
X68695000Y-43720000D03*
X68195000Y-43720000D03*
X67695000Y-43720000D03*
X67195000Y-43720000D03*
X66695000Y-43720000D03*
X66195000Y-43720000D03*
X65695000Y-43720000D03*
X65195000Y-43720000D03*
D24*
X63595000Y-42120000D03*
X63595000Y-41620000D03*
X63595000Y-41120000D03*
X63595000Y-40620000D03*
X63595000Y-40120000D03*
X63595000Y-39620000D03*
X63595000Y-39120000D03*
X63595000Y-38620000D03*
X63595000Y-38120000D03*
X63595000Y-37620000D03*
X63595000Y-37120000D03*
X63595000Y-36620000D03*
D25*
X65195000Y-35020000D03*
X65695000Y-35020000D03*
X66195000Y-35020000D03*
X66695000Y-35020000D03*
X67195000Y-35020000D03*
X67695000Y-35020000D03*
X68195000Y-35020000D03*
X68695000Y-35020000D03*
X69195000Y-35020000D03*
X69695000Y-35020000D03*
X70195000Y-35020000D03*
X70695000Y-35020000D03*
D26*
X116586000Y-60645000D03*
X115316000Y-60645000D03*
X114046000Y-60645000D03*
X112776000Y-60645000D03*
X111506000Y-60645000D03*
X110236000Y-60645000D03*
X108966000Y-60645000D03*
X107696000Y-60645000D03*
X107696000Y-55245000D03*
X108966000Y-55245000D03*
X110236000Y-55245000D03*
X111506000Y-55245000D03*
X112776000Y-55245000D03*
X114046000Y-55245000D03*
X115316000Y-55245000D03*
X116586000Y-55245000D03*
X118618000Y-38420000D03*
X117348000Y-38420000D03*
X116078000Y-38420000D03*
X114808000Y-38420000D03*
X113538000Y-38420000D03*
X112268000Y-38420000D03*
X110998000Y-38420000D03*
X109728000Y-38420000D03*
X109728000Y-33020000D03*
X110998000Y-33020000D03*
X112268000Y-33020000D03*
X113538000Y-33020000D03*
X114808000Y-33020000D03*
X116078000Y-33020000D03*
X117348000Y-33020000D03*
X118618000Y-33020000D03*
D27*
X129159000Y-38354000D03*
X131191000Y-38354000D03*
X123190000Y-38354000D03*
X125222000Y-38354000D03*
X120904000Y-32766000D03*
X124460000Y-32766000D03*
X127889000Y-76835000D03*
X129667000Y-78740000D03*
X127635000Y-81407000D03*
X66040000Y-71247000D03*
X65405000Y-50927000D03*
X65405000Y-30988000D03*
X114935000Y-65405000D03*
X121475500Y-67627500D03*
X116332000Y-63373000D03*
X121285000Y-73533000D03*
X140271500Y-83629500D03*
X136715500Y-73533000D03*
X138176000Y-84709000D03*
X134874000Y-73660000D03*
X111633000Y-68707000D03*
X105791000Y-69215000D03*
X112141000Y-70485000D03*
X132334000Y-48133000D03*
X130556000Y-49403000D03*
D13*
X113895000Y-50292000D03*
X112395000Y-50292000D03*
D28*
X139910000Y-43000000D03*
X114890000Y-43000000D03*
D29*
X122000000Y-44400000D03*
D30*
X124670000Y-44400000D03*
X127460000Y-44400000D03*
X130130000Y-44400000D03*
X132920000Y-44400000D03*
X123270000Y-41610000D03*
X126060000Y-41610000D03*
X128730000Y-41610000D03*
X131530000Y-41610000D03*
D28*
X139910000Y-28381961D03*
X114890000Y-28381961D03*
D29*
X122000000Y-29781961D03*
D30*
X124670000Y-29781961D03*
X127460000Y-29781961D03*
X130130000Y-29781961D03*
X132920000Y-29781961D03*
X123270000Y-26991961D03*
X126060000Y-26991961D03*
X128730000Y-26991961D03*
X131530000Y-26991961D03*
D28*
X116715000Y-90040000D03*
X69725000Y-90040000D03*
D29*
X76585000Y-91440000D03*
D30*
X79375000Y-91440000D03*
X82175000Y-91440000D03*
X84965000Y-91440000D03*
X87765000Y-91440000D03*
X90425000Y-91440000D03*
X93225000Y-91440000D03*
X96015000Y-91440000D03*
X98815000Y-91440000D03*
X101605000Y-91440000D03*
X104275000Y-91440000D03*
X107065000Y-91440000D03*
X109855000Y-91440000D03*
X77985000Y-88650000D03*
X80775000Y-88650000D03*
X83575000Y-88650000D03*
X86235000Y-88650000D03*
X89035000Y-88650000D03*
X91825000Y-88650000D03*
X94615000Y-88650000D03*
X97415000Y-88650000D03*
X100085000Y-88650000D03*
X102875000Y-88650000D03*
X105665000Y-88650000D03*
X108465000Y-88650000D03*
D11*
X57960000Y-81695000D03*
X57960000Y-79285000D03*
X57960000Y-76875000D03*
X57960000Y-74465000D03*
X57960000Y-72055000D03*
X57960000Y-69645000D03*
X57960000Y-67235000D03*
X57960000Y-64825000D03*
X57960000Y-62415000D03*
X57960000Y-60005000D03*
X57960000Y-57595000D03*
X57960000Y-55185000D03*
X57960000Y-52775000D03*
X57960000Y-50365000D03*
X57960000Y-47955000D03*
X57960000Y-45535000D03*
X57960000Y-43135000D03*
X57960000Y-40725000D03*
X57960000Y-38315000D03*
X57960000Y-35895000D03*
X55880000Y-80485000D03*
X55880000Y-78075000D03*
X55880000Y-75665000D03*
X55880000Y-73255000D03*
X55880000Y-70845000D03*
X55880000Y-68435000D03*
X55880000Y-66025000D03*
X55880000Y-63615000D03*
X55880000Y-61205000D03*
X55880000Y-58795000D03*
X55880000Y-56385000D03*
X55880000Y-53975000D03*
X55880000Y-51565000D03*
X55880000Y-49155000D03*
X55880000Y-46745000D03*
X55880000Y-44335000D03*
X55880000Y-41925000D03*
X55880000Y-39515000D03*
X55880000Y-37105000D03*
X53800000Y-81695000D03*
X53800000Y-79285000D03*
X53800000Y-76875000D03*
X53800000Y-74465000D03*
X53800000Y-72055000D03*
X53800000Y-69645000D03*
X53800000Y-67235000D03*
X53800000Y-64825000D03*
X53800000Y-62415000D03*
X53800000Y-60005000D03*
X53800000Y-57595000D03*
X53800000Y-55185000D03*
X53800000Y-52775000D03*
X53800000Y-50365000D03*
X53800000Y-47955000D03*
X53800000Y-45535000D03*
X53800000Y-43135000D03*
X53800000Y-40725000D03*
X53800000Y-38315000D03*
X53800000Y-35895000D03*
X51720000Y-80485000D03*
X51720000Y-78075000D03*
X51720000Y-75665000D03*
X51720000Y-73255000D03*
X51720000Y-70845000D03*
X51720000Y-68435000D03*
X51720000Y-66025000D03*
X51720000Y-63615000D03*
X51720000Y-61205000D03*
X51720000Y-58795000D03*
X51720000Y-56385000D03*
X51720000Y-53975000D03*
X51720000Y-51565000D03*
X51720000Y-49155000D03*
X51720000Y-46745000D03*
X51720000Y-44335000D03*
X51720000Y-41925000D03*
X51720000Y-39515000D03*
X51720000Y-37105000D03*
D12*
X54840000Y-89295000D03*
X54840000Y-28295000D03*
D31*
X50165000Y-90170000D03*
X151130000Y-27940000D03*
X151130000Y-90170000D03*
X95250000Y-27940000D03*
X50165000Y-27940000D03*
X99060000Y-67945000D03*
D11*
X91515000Y-67085000D03*
X91515000Y-64795000D03*
X91515000Y-62505000D03*
X91515000Y-60215000D03*
X91515000Y-57925000D03*
X91515000Y-55635000D03*
X91515000Y-53345000D03*
X91515000Y-51055000D03*
X91515000Y-48765000D03*
X91515000Y-46475000D03*
X91515000Y-44185000D03*
X91515000Y-41895000D03*
X91515000Y-39605000D03*
X91515000Y-37315000D03*
X91515000Y-35025000D03*
X89535000Y-68235000D03*
X89535000Y-65945000D03*
X89535000Y-63655000D03*
X89535000Y-61365000D03*
X89535000Y-59075000D03*
X89535000Y-56785000D03*
X89535000Y-54495000D03*
X89535000Y-52205000D03*
X89535000Y-49915000D03*
X89535000Y-47625000D03*
X89535000Y-45335000D03*
X89535000Y-43045000D03*
X89535000Y-40755000D03*
X89535000Y-38465000D03*
X89535000Y-36175000D03*
X87555000Y-67085000D03*
X87555000Y-64795000D03*
X87555000Y-62505000D03*
X87555000Y-60215000D03*
X87555000Y-57925000D03*
X87555000Y-55635000D03*
X87555000Y-53345000D03*
X87555000Y-51055000D03*
X87555000Y-48765000D03*
X87555000Y-46475000D03*
X87555000Y-44185000D03*
X87555000Y-41895000D03*
X87555000Y-39605000D03*
X87555000Y-37315000D03*
D12*
X89535000Y-75085000D03*
X89535000Y-28045000D03*
D32*
X116205000Y-65217000D03*
X117475000Y-65217000D03*
X118745000Y-65217000D03*
X120015000Y-65217000D03*
X120015000Y-72517000D03*
X118745000Y-72517000D03*
X117475000Y-72517000D03*
X116205000Y-72517000D03*
X139065000Y-82865000D03*
X137795000Y-82865000D03*
X136525000Y-82865000D03*
X135255000Y-82865000D03*
X135255000Y-75565000D03*
X136525000Y-75565000D03*
X137795000Y-75565000D03*
X139065000Y-75565000D03*
M02*
