G04 #@! TF.FileFunction,Paste,Bot*
%FSLAX46Y46*%
G04 Gerber Fmt 4.6, Leading zero omitted, Abs format (unit mm)*
G04 Created by KiCad (PCBNEW 4.0.6) date Fri Jul 21 15:53:30 2017*
%MOMM*%
%LPD*%
G01*
G04 APERTURE LIST*
%ADD10C,0.100000*%
%ADD11R,0.600000X1.550000*%
%ADD12R,0.800000X0.750000*%
%ADD13R,1.250000X1.000000*%
%ADD14R,1.000000X1.250000*%
%ADD15R,0.750000X0.800000*%
%ADD16R,0.800000X0.800000*%
%ADD17R,0.500000X0.900000*%
%ADD18R,0.900000X1.700000*%
%ADD19R,1.700000X0.900000*%
%ADD20R,0.900000X0.500000*%
%ADD21R,1.300000X0.250000*%
%ADD22R,0.250000X1.300000*%
%ADD23R,0.600000X1.500000*%
G04 APERTURE END LIST*
D10*
D11*
X139065000Y-81915000D03*
X137795000Y-81915000D03*
X136525000Y-81915000D03*
X135255000Y-81915000D03*
X135255000Y-76515000D03*
X136525000Y-76515000D03*
X137795000Y-76515000D03*
X139065000Y-76515000D03*
D12*
X67715000Y-68580000D03*
X69215000Y-68580000D03*
X72620000Y-68580000D03*
X71120000Y-68580000D03*
D13*
X72390000Y-53245000D03*
X72390000Y-55245000D03*
D14*
X68215000Y-52705000D03*
X70215000Y-52705000D03*
D15*
X74295000Y-57150000D03*
X74295000Y-55650000D03*
X74295000Y-62865000D03*
X74295000Y-61365000D03*
X74295000Y-58559000D03*
X74295000Y-60059000D03*
D14*
X72295000Y-64135000D03*
X74295000Y-64135000D03*
X69310000Y-50800000D03*
X67310000Y-50800000D03*
D12*
X60325000Y-88265000D03*
X61825000Y-88265000D03*
X60325000Y-89535000D03*
X61825000Y-89535000D03*
D13*
X73025000Y-73565000D03*
X73025000Y-75565000D03*
D14*
X69120000Y-73025000D03*
X71120000Y-73025000D03*
D15*
X74295000Y-78105000D03*
X74295000Y-76605000D03*
X74295000Y-83820000D03*
X74295000Y-82320000D03*
X74295000Y-79375000D03*
X74295000Y-80875000D03*
D14*
X72295000Y-85090000D03*
X74295000Y-85090000D03*
X69850000Y-71120000D03*
X67850000Y-71120000D03*
D12*
X67715000Y-48260000D03*
X69215000Y-48260000D03*
X72390000Y-48260000D03*
X70890000Y-48260000D03*
D13*
X72390000Y-32290000D03*
X72390000Y-34290000D03*
D14*
X68485000Y-32639000D03*
X70485000Y-32639000D03*
D15*
X74295000Y-38100000D03*
X74295000Y-36600000D03*
D12*
X75541000Y-42291000D03*
X74041000Y-42291000D03*
D15*
X74295000Y-39497000D03*
X74295000Y-40997000D03*
D14*
X72390000Y-43815000D03*
X74390000Y-43815000D03*
X69215000Y-31115000D03*
X67215000Y-31115000D03*
D12*
X82145000Y-28575000D03*
X80645000Y-28575000D03*
X82145000Y-29845000D03*
X80645000Y-29845000D03*
X80645000Y-42545000D03*
X82145000Y-42545000D03*
X82145000Y-31115000D03*
X80645000Y-31115000D03*
X80645000Y-43815000D03*
X82145000Y-43815000D03*
X82145000Y-32385000D03*
X80645000Y-32385000D03*
X80645000Y-45085000D03*
X82145000Y-45085000D03*
X82145000Y-33655000D03*
X80645000Y-33655000D03*
X80645000Y-46355000D03*
X82145000Y-46355000D03*
X82145000Y-34925000D03*
X80645000Y-34925000D03*
X80645000Y-47625000D03*
X82145000Y-47625000D03*
X82145000Y-36195000D03*
X80645000Y-36195000D03*
X80645000Y-48895000D03*
X82145000Y-48895000D03*
X82145000Y-37465000D03*
X80645000Y-37465000D03*
X80645000Y-50165000D03*
X82145000Y-50165000D03*
X82145000Y-38735000D03*
X80645000Y-38735000D03*
X82145000Y-40005000D03*
X80645000Y-40005000D03*
X82145000Y-41275000D03*
X80645000Y-41275000D03*
X82145000Y-51435000D03*
X80645000Y-51435000D03*
X82145000Y-52705000D03*
X80645000Y-52705000D03*
X80645000Y-65405000D03*
X82145000Y-65405000D03*
X82145000Y-53975000D03*
X80645000Y-53975000D03*
X80645000Y-66675000D03*
X82145000Y-66675000D03*
X82145000Y-55245000D03*
X80645000Y-55245000D03*
X80645000Y-67945000D03*
X82145000Y-67945000D03*
X82145000Y-56515000D03*
X80645000Y-56515000D03*
X80645000Y-69215000D03*
X82145000Y-69215000D03*
X82145000Y-57785000D03*
X80645000Y-57785000D03*
X82145000Y-59055000D03*
X80645000Y-59055000D03*
X82145000Y-60325000D03*
X80645000Y-60325000D03*
X82145000Y-61595000D03*
X80645000Y-61595000D03*
X74065000Y-68580000D03*
X75565000Y-68580000D03*
X82145000Y-62865000D03*
X80645000Y-62865000D03*
X82145000Y-64135000D03*
X80645000Y-64135000D03*
D15*
X109220000Y-85725000D03*
X109220000Y-84225000D03*
X107950000Y-85725000D03*
X107950000Y-84225000D03*
X89535000Y-84225000D03*
X89535000Y-85725000D03*
X106680000Y-85725000D03*
X106680000Y-84225000D03*
X86360000Y-84225000D03*
X86360000Y-85725000D03*
X103505000Y-85725000D03*
X103505000Y-84225000D03*
X85090000Y-84225000D03*
X85090000Y-85725000D03*
X102235000Y-85725000D03*
X102235000Y-84225000D03*
X83820000Y-84225000D03*
X83820000Y-85725000D03*
X100965000Y-85725000D03*
X100965000Y-84225000D03*
X82550000Y-84225000D03*
X82550000Y-85725000D03*
X97790000Y-85725000D03*
X97790000Y-84225000D03*
X81280000Y-84225000D03*
X81280000Y-85725000D03*
X96520000Y-85725000D03*
X96520000Y-84225000D03*
X80010000Y-84225000D03*
X80010000Y-85725000D03*
X95250000Y-85725000D03*
X95250000Y-84225000D03*
X92075000Y-85725000D03*
X92075000Y-84225000D03*
X90805000Y-85725000D03*
X90805000Y-84225000D03*
D13*
X118745000Y-60039000D03*
X118745000Y-58039000D03*
X133985000Y-89535000D03*
X133985000Y-91535000D03*
X131445000Y-89535000D03*
X131445000Y-91535000D03*
D12*
X118745000Y-63500000D03*
X120245000Y-63500000D03*
X136779000Y-83566000D03*
X135279000Y-83566000D03*
D15*
X109855000Y-69215000D03*
X109855000Y-70715000D03*
X107061000Y-69215000D03*
X107061000Y-70715000D03*
X108458000Y-69215000D03*
X108458000Y-70715000D03*
X130429000Y-47474000D03*
X130429000Y-45974000D03*
X128905000Y-47498000D03*
X128905000Y-45998000D03*
D16*
X62230000Y-55245000D03*
X63830000Y-55245000D03*
X63500000Y-73965000D03*
X63500000Y-75565000D03*
X62230000Y-34925000D03*
X63830000Y-34925000D03*
D17*
X127786000Y-35052000D03*
X129286000Y-35052000D03*
X126619000Y-36576000D03*
X125119000Y-36576000D03*
X127762000Y-36576000D03*
X129262000Y-36576000D03*
X126619000Y-35052000D03*
X125119000Y-35052000D03*
X121134000Y-27178000D03*
X119634000Y-27178000D03*
D18*
X72115000Y-66675000D03*
X69215000Y-66675000D03*
D17*
X63730000Y-53975000D03*
X62230000Y-53975000D03*
X65175000Y-52705000D03*
X66675000Y-52705000D03*
D19*
X63500000Y-91165000D03*
X63500000Y-88265000D03*
D17*
X64770000Y-73025000D03*
X63270000Y-73025000D03*
X65810000Y-73025000D03*
X67310000Y-73025000D03*
D18*
X71935000Y-46355000D03*
X69035000Y-46355000D03*
D17*
X63730000Y-33655000D03*
X62230000Y-33655000D03*
X65175000Y-33020000D03*
X66675000Y-33020000D03*
D20*
X116205000Y-76581000D03*
X116205000Y-75081000D03*
D17*
X113284000Y-63754000D03*
X114784000Y-63754000D03*
X111252000Y-62357000D03*
X109752000Y-62357000D03*
X109982000Y-53594000D03*
X108482000Y-53594000D03*
X112165000Y-53594000D03*
X113665000Y-53594000D03*
X112268000Y-62357000D03*
X113768000Y-62357000D03*
X112268000Y-63754000D03*
X110768000Y-63754000D03*
D20*
X109855000Y-68175000D03*
X109855000Y-66675000D03*
X107061000Y-68175000D03*
X107061000Y-66675000D03*
X108458000Y-68175000D03*
X108458000Y-66675000D03*
D17*
X131294000Y-51308000D03*
X129794000Y-51308000D03*
X128881000Y-49022000D03*
X127381000Y-49022000D03*
D21*
X72295000Y-56940000D03*
X72295000Y-57440000D03*
X72295000Y-57940000D03*
X72295000Y-58440000D03*
X72295000Y-58940000D03*
X72295000Y-59440000D03*
X72295000Y-59940000D03*
X72295000Y-60440000D03*
X72295000Y-60940000D03*
X72295000Y-61440000D03*
X72295000Y-61940000D03*
X72295000Y-62440000D03*
D22*
X70695000Y-64040000D03*
X70195000Y-64040000D03*
X69695000Y-64040000D03*
X69195000Y-64040000D03*
X68695000Y-64040000D03*
X68195000Y-64040000D03*
X67695000Y-64040000D03*
X67195000Y-64040000D03*
X66695000Y-64040000D03*
X66195000Y-64040000D03*
X65695000Y-64040000D03*
X65195000Y-64040000D03*
D21*
X63595000Y-62440000D03*
X63595000Y-61940000D03*
X63595000Y-61440000D03*
X63595000Y-60940000D03*
X63595000Y-60440000D03*
X63595000Y-59940000D03*
X63595000Y-59440000D03*
X63595000Y-58940000D03*
X63595000Y-58440000D03*
X63595000Y-57940000D03*
X63595000Y-57440000D03*
X63595000Y-56940000D03*
D22*
X65195000Y-55340000D03*
X65695000Y-55340000D03*
X66195000Y-55340000D03*
X66695000Y-55340000D03*
X67195000Y-55340000D03*
X67695000Y-55340000D03*
X68195000Y-55340000D03*
X68695000Y-55340000D03*
X69195000Y-55340000D03*
X69695000Y-55340000D03*
X70195000Y-55340000D03*
X70695000Y-55340000D03*
D21*
X72295000Y-77260000D03*
X72295000Y-77760000D03*
X72295000Y-78260000D03*
X72295000Y-78760000D03*
X72295000Y-79260000D03*
X72295000Y-79760000D03*
X72295000Y-80260000D03*
X72295000Y-80760000D03*
X72295000Y-81260000D03*
X72295000Y-81760000D03*
X72295000Y-82260000D03*
X72295000Y-82760000D03*
D22*
X70695000Y-84360000D03*
X70195000Y-84360000D03*
X69695000Y-84360000D03*
X69195000Y-84360000D03*
X68695000Y-84360000D03*
X68195000Y-84360000D03*
X67695000Y-84360000D03*
X67195000Y-84360000D03*
X66695000Y-84360000D03*
X66195000Y-84360000D03*
X65695000Y-84360000D03*
X65195000Y-84360000D03*
D21*
X63595000Y-82760000D03*
X63595000Y-82260000D03*
X63595000Y-81760000D03*
X63595000Y-81260000D03*
X63595000Y-80760000D03*
X63595000Y-80260000D03*
X63595000Y-79760000D03*
X63595000Y-79260000D03*
X63595000Y-78760000D03*
X63595000Y-78260000D03*
X63595000Y-77760000D03*
X63595000Y-77260000D03*
D22*
X65195000Y-75660000D03*
X65695000Y-75660000D03*
X66195000Y-75660000D03*
X66695000Y-75660000D03*
X67195000Y-75660000D03*
X67695000Y-75660000D03*
X68195000Y-75660000D03*
X68695000Y-75660000D03*
X69195000Y-75660000D03*
X69695000Y-75660000D03*
X70195000Y-75660000D03*
X70695000Y-75660000D03*
D21*
X72295000Y-36620000D03*
X72295000Y-37120000D03*
X72295000Y-37620000D03*
X72295000Y-38120000D03*
X72295000Y-38620000D03*
X72295000Y-39120000D03*
X72295000Y-39620000D03*
X72295000Y-40120000D03*
X72295000Y-40620000D03*
X72295000Y-41120000D03*
X72295000Y-41620000D03*
X72295000Y-42120000D03*
D22*
X70695000Y-43720000D03*
X70195000Y-43720000D03*
X69695000Y-43720000D03*
X69195000Y-43720000D03*
X68695000Y-43720000D03*
X68195000Y-43720000D03*
X67695000Y-43720000D03*
X67195000Y-43720000D03*
X66695000Y-43720000D03*
X66195000Y-43720000D03*
X65695000Y-43720000D03*
X65195000Y-43720000D03*
D21*
X63595000Y-42120000D03*
X63595000Y-41620000D03*
X63595000Y-41120000D03*
X63595000Y-40620000D03*
X63595000Y-40120000D03*
X63595000Y-39620000D03*
X63595000Y-39120000D03*
X63595000Y-38620000D03*
X63595000Y-38120000D03*
X63595000Y-37620000D03*
X63595000Y-37120000D03*
X63595000Y-36620000D03*
D22*
X65195000Y-35020000D03*
X65695000Y-35020000D03*
X66195000Y-35020000D03*
X66695000Y-35020000D03*
X67195000Y-35020000D03*
X67695000Y-35020000D03*
X68195000Y-35020000D03*
X68695000Y-35020000D03*
X69195000Y-35020000D03*
X69695000Y-35020000D03*
X70195000Y-35020000D03*
X70695000Y-35020000D03*
D11*
X116205000Y-65245000D03*
X117475000Y-65245000D03*
X118745000Y-65245000D03*
X120015000Y-65245000D03*
X120015000Y-70645000D03*
X118745000Y-70645000D03*
X117475000Y-70645000D03*
X116205000Y-70645000D03*
D23*
X116586000Y-60645000D03*
X115316000Y-60645000D03*
X114046000Y-60645000D03*
X112776000Y-60645000D03*
X111506000Y-60645000D03*
X110236000Y-60645000D03*
X108966000Y-60645000D03*
X107696000Y-60645000D03*
X107696000Y-55245000D03*
X108966000Y-55245000D03*
X110236000Y-55245000D03*
X111506000Y-55245000D03*
X112776000Y-55245000D03*
X114046000Y-55245000D03*
X115316000Y-55245000D03*
X116586000Y-55245000D03*
X118618000Y-38420000D03*
X117348000Y-38420000D03*
X116078000Y-38420000D03*
X114808000Y-38420000D03*
X113538000Y-38420000D03*
X112268000Y-38420000D03*
X110998000Y-38420000D03*
X109728000Y-38420000D03*
X109728000Y-33020000D03*
X110998000Y-33020000D03*
X112268000Y-33020000D03*
X113538000Y-33020000D03*
X114808000Y-33020000D03*
X116078000Y-33020000D03*
X117348000Y-33020000D03*
X118618000Y-33020000D03*
D12*
X113895000Y-50292000D03*
X112395000Y-50292000D03*
M02*
