M48
;DRILL file {KiCad 4.0.6} date Fri Jul 21 15:53:31 2017
;FORMAT={-:-/ absolute / inch / decimal}
FMAT,2
INCH,TZ
T1C0.010
T2C0.012
T3C0.016
T4C0.039
T5C0.040
T6C0.041
T7C0.120
T8C0.126
%
G90
G05
M72
T1
X2.3143Y-2.9045
X2.335Y-2.185
X2.335Y-2.565
X2.3476Y-2.8469
X2.38Y-3.265
X2.3976Y-2.2825
X2.4023Y-3.205
X2.415Y-2.37
X2.425Y-1.6
X2.445Y-2.5195
X2.45Y-2.84
X2.46Y-2.635
X2.465Y-1.7384
X2.505Y-1.965
X2.51Y-1.9399
X2.525Y-1.8535
X2.5354Y-3.0809
X2.55Y-1.615
X2.965Y-2.65
X3.295Y-1.795
X3.295Y-1.85
X3.33Y-1.7993
X3.34Y-1.6118
X3.34Y-1.97
X3.355Y-1.745
X3.36Y-1.945
X3.37Y-1.595
X3.3705Y-1.7055
X3.375Y-1.6745
X3.3757Y-1.5699
X3.465Y-2.3159
T2
X2.Y-3.4
X2.2Y-3.3
X2.335Y-1.325
X2.37Y-1.135
X2.375Y-2.075
X2.375Y-2.68
X2.39Y-1.245
X2.395Y-2.805
X2.4Y-2.125
X2.4044Y-2.9206
X2.425Y-2.075
X2.425Y-2.815
X2.475Y-2.05
X2.5Y-1.135
X2.5Y-1.695
X2.5433Y-2.2419
X2.5595Y-3.0633
X2.56Y-1.525
X2.5699Y-2.23
X2.57Y-1.655
X2.5807Y-3.1046
X2.585Y-3.17
X2.5974Y-2.23
X2.6Y-2.445
X2.6Y-2.685
X2.6Y-2.735
X2.6061Y-3.0789
X2.61Y-1.505
X2.625Y-2.23
X2.6326Y-3.0313
X2.64Y-1.475
X2.64Y-2.365
X2.655Y-2.23
X2.6633Y-1.4455
X2.67Y-2.455
X2.685Y-1.52
X2.72Y-1.535
X2.72Y-2.745
X2.725Y-1.135
X2.7419Y-1.675
X2.75Y-3.255
X2.7726Y-2.
X2.7976Y-2.225
X2.8Y-1.105
X2.8Y-2.755
X2.84Y-3.395
X2.86Y-1.195
X2.8663Y-3.4046
X2.92Y-1.105
X2.925Y-2.
X2.9531Y-1.685
X2.9535Y-3.3947
X2.9608Y-2.36
X2.97Y-3.025
X2.98Y-3.145
X2.985Y-3.375
X2.994Y-3.4158
X3.Y-1.175
X3.04Y-3.095
X3.07Y-1.5
X3.07Y-2.255
X3.0711Y-2.0436
X3.08Y-3.145
X3.09Y-1.115
X3.095Y-2.295
X3.105Y-1.525
X3.13Y-1.51
X3.17Y-1.955
X3.225Y-2.8
X3.33Y-3.285
X3.34Y-1.175
X3.35Y-1.875
X3.35Y-2.8
X3.35Y-2.925
X3.42Y-1.255
X3.45Y-3.395
X3.475Y-2.8
X3.5Y-1.3341
X3.6Y-2.8
X3.62Y-1.275
X3.725Y-1.425
X3.725Y-1.55
X3.725Y-1.675
X3.725Y-1.8
X3.725Y-1.925
X3.725Y-2.05
X3.725Y-2.175
X3.725Y-2.3
X3.725Y-2.425
X3.725Y-2.55
X3.725Y-2.675
X3.725Y-2.8
X3.725Y-2.95
X3.725Y-3.05
X3.7981Y-2.8
X3.8Y-2.5
X3.85Y-1.3
X3.85Y-2.875
X3.85Y-3.05
X3.95Y-1.3
X3.95Y-2.975
X4.Y-2.875
X4.025Y-2.55
X4.025Y-2.8
X4.05Y-2.975
X4.1Y-2.55
X4.1Y-2.675
X4.1Y-2.8
X4.225Y-2.975
X4.265Y-3.05
X4.275Y-2.975
X4.275Y-3.6497
X4.285Y-2.895
X4.325Y-2.9
X4.325Y-2.975
X4.345Y-3.32
X4.35Y-2.925
X4.375Y-2.95
X4.375Y-3.475
X4.375Y-3.55
X4.425Y-3.625
X4.445Y-3.285
X4.45Y-3.525
X4.475Y-3.315
X4.5Y-3.45
X4.5Y-3.65
X4.515Y-3.325
X4.536Y-3.2997
X4.5598Y-2.3108
X4.56Y-3.205
X4.5732Y-3.2876
X4.585Y-3.19
X4.6015Y-3.168
X4.625Y-2.4
X4.65Y-3.2667
X4.675Y-3.45
X4.69Y-1.93
X4.69Y-3.02
X4.7Y-3.65
X4.7103Y-3.2826
X4.725Y-2.925
X4.725Y-3.425
X4.7335Y-3.265
X4.75Y-2.925
X4.7634Y-3.0637
X4.766Y-2.7986
X4.775Y-3.5
X4.775Y-3.575
X4.805Y-2.815
X4.825Y-2.55
X4.825Y-2.625
X4.825Y-2.7
X4.85Y-2.775
X4.85Y-3.05
X4.85Y-3.525
X4.85Y-3.6
X4.8614Y-3.0057
X4.9Y-2.55
X4.9Y-2.625
X4.9Y-2.7
X4.9Y-2.775
X4.91Y-1.1
X4.925Y-3.55
X4.925Y-3.625
X4.94Y-2.48
X4.94Y-3.26
X4.95Y-2.975
X4.95Y-3.05
X4.9585Y-2.9085
X4.975Y-2.55
X4.975Y-2.625
X4.975Y-2.7
X4.975Y-2.775
X5.Y-1.3
X5.Y-3.63
X5.05Y-2.55
X5.05Y-2.625
X5.05Y-2.7
X5.05Y-2.825
X5.05Y-2.9
X5.065Y-1.58
X5.07Y-1.13
X5.1Y-2.48
X5.1Y-2.54
X5.1Y-2.6
X5.1Y-2.66
X5.1Y-2.78
X5.1Y-2.86
X5.125Y-3.005
X5.125Y-3.625
X5.15Y-1.3
X5.21Y-3.07
X5.225Y-2.675
X5.225Y-2.75
X5.225Y-3.6341
X5.2435Y-2.6185
X5.25Y-2.855
X5.27Y-2.975
X5.295Y-2.675
X5.295Y-2.75
X5.3Y-1.075
X5.3Y-1.225
X5.3Y-1.375
X5.3Y-1.5
X5.3Y-1.65
X5.325Y-1.975
X5.325Y-3.6341
X5.35Y-2.05
X5.375Y-2.
X5.395Y-2.215
X5.4Y-1.575
X5.4Y-1.775
X5.425Y-3.6341
X5.45Y-1.225
X5.45Y-1.375
X5.475Y-1.85
X5.475Y-2.15
X5.5Y-1.475
X5.53Y-3.645
X5.56Y-2.68
X5.56Y-2.885
X5.575Y-2.375
X5.575Y-2.45
X5.595Y-1.765
X5.6Y-1.225
X5.6Y-1.375
X5.6Y-1.575
X5.6Y-2.075
X5.6Y-2.15
X5.6Y-2.225
X5.62Y-2.93
X5.64Y-3.12
X5.65Y-1.625
X5.65Y-2.375
X5.65Y-2.75
X5.65Y-2.825
X5.65Y-3.645
X5.675Y-2.45
X5.68Y-1.915
X5.7Y-1.475
X5.705Y-3.065
X5.72Y-3.645
X5.724Y-2.149
X5.73Y-2.53
X5.74Y-2.26
X5.745Y-3.42
X5.75Y-1.525
X5.75Y-2.075
X5.75Y-2.375
X5.77Y-2.855
X5.77Y-3.125
X5.77Y-3.545
X5.78Y-2.975
X5.785Y-1.365
X5.79Y-2.21
X5.8Y-3.425
X5.89Y-3.385
X6.0055Y-3.125
X6.03Y-3.36
T3
X1.9Y-1.325
X1.9Y-1.425
X1.9Y-1.475
X1.9Y-1.65
X1.9Y-1.8
X1.9Y-1.95
X1.9Y-2.1
X1.9Y-2.25
X1.9Y-2.4
X1.9Y-2.55
X1.9Y-2.7
X1.9Y-2.85
X1.9Y-3.
X1.9Y-3.15
X1.9Y-3.3
X1.9Y-3.375
X1.901Y-1.375
X2.025Y-1.325
X2.175Y-1.325
X2.335Y-3.43
X2.35Y-1.025
X2.35Y-3.6
X2.4Y-3.6
X2.42Y-1.525
X2.445Y-1.435
X2.475Y-1.025
X2.525Y-3.035
X2.535Y-1.295
X2.585Y-2.125
X2.6Y-1.025
X2.6047Y-2.895
X2.625Y-3.6
X2.6936Y-3.1516
X2.6986Y-3.0439
X2.725Y-1.025
X2.7252Y-2.9209
X2.745Y-1.475
X2.745Y-2.415
X2.75Y-2.305
X2.7524Y-1.6
X2.775Y-1.4646
X2.81Y-1.415
X2.85Y-1.025
X2.895Y-1.895
X2.895Y-3.025
X2.895Y-3.075
X2.9Y-3.55
X2.9Y-3.6
X2.91Y-2.73
X2.91Y-3.395
X2.915Y-2.805
X2.9226Y-2.2822
X2.945Y-1.525
X2.949Y-2.45
X2.95Y-1.59
X2.965Y-2.235
X2.975Y-1.025
X2.975Y-2.91
X2.995Y-1.4409
X2.995Y-2.125
X3.005Y-2.235
X3.01Y-2.91
X3.0255Y-2.745
X3.035Y-1.47
X3.0354Y-2.9396
X3.04Y-2.28
X3.0615Y-2.9112
X3.1Y-1.025
X3.1236Y-2.3178
X3.1258Y-1.2122
X3.1546Y-2.245
X3.195Y-1.425
X3.225Y-1.025
X3.305Y-2.4
X3.35Y-1.025
X3.835Y-2.925
X3.8729Y-3.2823
X3.875Y-1.425
X3.875Y-1.55
X3.875Y-1.675
X3.875Y-1.8
X3.875Y-1.925
X3.875Y-2.05
X3.875Y-2.175
X3.875Y-2.3
X3.875Y-2.425
X4.05Y-2.25
X4.1071Y-3.3008
X4.11Y-1.265
X4.16Y-1.88
X4.2Y-2.17
X4.215Y-2.595
X4.27Y-2.595
X4.275Y-2.335
X4.3Y-1.045
X4.305Y-2.125
X4.32Y-1.465
X4.32Y-1.565
X4.325Y-1.91
X4.335Y-2.055
X4.35Y-1.375
X4.355Y-1.68
X4.38Y-1.17
X4.41Y-1.435
X4.41Y-3.44
X4.42Y-2.225
X4.425Y-1.945
X4.425Y-2.345
X4.435Y-2.105
X4.4688Y-2.3482
X4.47Y-1.43
X4.47Y-3.355
X4.495Y-2.9254
X4.51Y-2.005
X4.515Y-1.43
X4.5241Y-2.855
X4.5265Y-2.925
X4.5314Y-3.0214
X4.545Y-2.105
X4.565Y-1.8
X4.565Y-1.93
X4.565Y-2.04
X4.57Y-1.43
X4.5826Y-1.225
X4.62Y-1.43
X4.6293Y-2.7278
X4.635Y-2.9313
X4.6379Y-2.5022
X4.6396Y-2.3059
X4.6438Y-2.2033
X4.645Y-3.0904
X4.65Y-1.05
X4.65Y-3.02
X4.66Y-1.57
X4.6674Y-1.6376
X4.67Y-2.915
X4.6795Y-2.6885
X4.68Y-1.435
X4.6924Y-2.3244
X4.705Y-2.1
X4.725Y-2.455
X4.725Y-2.635
X4.725Y-2.73
X4.73Y-1.795
X4.77Y-1.63
X4.77Y-1.84
X4.775Y-2.315
X4.795Y-2.465
X4.795Y-2.505
X4.805Y-1.4
X4.81Y-2.32
X4.83Y-3.3
X4.85Y-3.275
X4.86Y-2.86
X4.88Y-3.4
X4.905Y-2.435
X4.93Y-2.1
X4.975Y-2.105
X4.9885Y-2.0467
X4.99Y-3.065
X4.9909Y-1.8109
X4.995Y-1.985
X5.Y-3.1111
X5.02Y-2.4354
X5.0249Y-3.1303
X5.025Y-3.575
X5.05Y-3.11
X5.0562Y-3.3437
X5.06Y-2.05
X5.11Y-2.26
X5.115Y-2.435
X5.175Y-3.145
X5.175Y-3.475
X5.185Y-3.255
X5.195Y-2.445
X5.2063Y-3.1415
X5.2196Y-2.513
X5.2636Y-3.0227
X5.265Y-3.475
X5.2673Y-3.054
X5.2675Y-3.1525
X5.2795Y-3.2754
X5.28Y-2.045
X5.28Y-2.455
X5.3Y-2.5
X5.3024Y-2.5324
X5.32Y-2.88
X5.3533Y-3.0916
X5.355Y-2.6215
X5.36Y-1.86
X5.3662Y-3.1233
X5.39Y-2.41
X5.4609Y-2.525
X5.475Y-2.815
X5.475Y-3.145
X5.48Y-2.365
X5.48Y-2.4969
X5.485Y-2.465
X5.4868Y-2.6442
X5.5159Y-3.6082
X5.6135Y-3.0886
X5.625Y-3.025
X5.6482Y-2.977
X5.6742Y-3.0381
X5.79Y-2.125
X5.8Y-2.495
X5.8138Y-2.7662
X5.82Y-3.13
X5.8229Y-2.5619
T4
X4.705Y-2.025
X4.705Y-2.175
X4.805Y-2.025
X4.805Y-2.175
X4.905Y-2.025
X4.905Y-2.175
X5.875Y-1.375
X5.875Y-1.475
X5.875Y-1.575
X5.875Y-1.675
X5.875Y-1.775
X5.875Y-1.875
X5.875Y-1.975
X5.875Y-2.075
X5.875Y-2.175
X5.875Y-2.275
X5.875Y-2.375
X5.875Y-2.475
X5.875Y-2.575
X5.875Y-2.675
X5.875Y-2.775
X5.875Y-2.875
X5.875Y-2.975
X5.875Y-3.075
X5.875Y-3.175
X5.875Y-3.275
X5.975Y-1.375
X5.975Y-1.475
X5.975Y-1.575
X5.975Y-1.675
X5.975Y-1.775
X5.975Y-1.875
X5.975Y-1.975
X5.975Y-2.075
X5.975Y-2.175
X5.975Y-2.275
X5.975Y-2.375
X5.975Y-2.475
X5.975Y-2.575
X5.975Y-2.675
X5.975Y-2.775
X5.975Y-2.875
X5.975Y-2.975
X5.975Y-3.075
X5.975Y-3.175
X5.975Y-3.275
T5
X3.0152Y-3.6
X3.0703Y-3.4902
X3.125Y-3.6
X3.1801Y-3.4902
X3.2352Y-3.6
X3.2904Y-3.4902
X3.3451Y-3.6
X3.3951Y-3.4902
X3.4553Y-3.6
X3.5053Y-3.4902
X3.56Y-3.6
X3.6152Y-3.4902
X3.6703Y-3.6
X3.725Y-3.4902
X3.7801Y-3.6
X3.8352Y-3.4902
X3.8904Y-3.6
X3.9404Y-3.4902
X4.0002Y-3.6
X4.0502Y-3.4902
X4.1053Y-3.6
X4.16Y-3.4902
X4.2152Y-3.6
X4.2703Y-3.4902
X4.325Y-3.6
X4.8031Y-1.1725
X4.8031Y-1.748
X4.8531Y-1.0627
X4.8531Y-1.6382
X4.9083Y-1.1725
X4.9083Y-1.748
X4.963Y-1.0627
X4.963Y-1.6382
X5.0181Y-1.1725
X5.0181Y-1.748
X5.0681Y-1.0627
X5.0681Y-1.6382
X5.1232Y-1.1725
X5.1232Y-1.748
X5.1783Y-1.0627
X5.1783Y-1.6382
X5.2331Y-1.1725
X5.2331Y-1.748
T6
X2.0362Y-1.4608
X2.0362Y-1.5557
X2.0362Y-1.6506
X2.0362Y-1.7455
X2.0362Y-1.8404
X2.0362Y-1.9352
X2.0362Y-2.0301
X2.0362Y-2.125
X2.0362Y-2.2199
X2.0362Y-2.3148
X2.0362Y-2.4096
X2.0362Y-2.5045
X2.0362Y-2.5994
X2.0362Y-2.6943
X2.0362Y-2.7892
X2.0362Y-2.8841
X2.0362Y-2.9789
X2.0362Y-3.0738
X2.0362Y-3.1687
X2.1181Y-1.4132
X2.1181Y-1.5085
X2.1181Y-1.6033
X2.1181Y-1.6982
X2.1181Y-1.7927
X2.1181Y-1.888
X2.1181Y-1.9829
X2.1181Y-2.0778
X2.1181Y-2.1726
X2.1181Y-2.2675
X2.1181Y-2.3624
X2.1181Y-2.4573
X2.1181Y-2.5522
X2.1181Y-2.647
X2.1181Y-2.7419
X2.1181Y-2.8368
X2.1181Y-2.9317
X2.1181Y-3.0266
X2.1181Y-3.1215
X2.1181Y-3.2163
X2.2Y-1.4608
X2.2Y-1.5557
X2.2Y-1.6506
X2.2Y-1.7455
X2.2Y-1.8404
X2.2Y-1.9352
X2.2Y-2.0301
X2.2Y-2.125
X2.2Y-2.2199
X2.2Y-2.3148
X2.2Y-2.4096
X2.2Y-2.5045
X2.2Y-2.5994
X2.2Y-2.6943
X2.2Y-2.7892
X2.2Y-2.8841
X2.2Y-2.9789
X2.2Y-3.0738
X2.2Y-3.1687
X2.2819Y-1.4132
X2.2819Y-1.5085
X2.2819Y-1.6033
X2.2819Y-1.6982
X2.2819Y-1.7927
X2.2819Y-1.888
X2.2819Y-1.9829
X2.2819Y-2.0778
X2.2819Y-2.1726
X2.2819Y-2.2675
X2.2819Y-2.3624
X2.2819Y-2.4573
X2.2819Y-2.5522
X2.2819Y-2.647
X2.2819Y-2.7419
X2.2819Y-2.8368
X2.2819Y-2.9317
X2.2819Y-3.0266
X2.2819Y-3.1215
X2.2819Y-3.2163
X3.425Y-1.4691
X3.425Y-1.5593
X3.425Y-1.6494
X3.425Y-1.7396
X3.425Y-1.8297
X3.425Y-1.9199
X3.425Y-2.01
X3.425Y-2.1002
X3.425Y-2.1904
X3.425Y-2.2805
X3.425Y-2.3707
X3.425Y-2.4608
X3.425Y-2.551
X3.425Y-2.6411
X3.525Y-1.4242
X3.525Y-1.5144
X3.525Y-1.6045
X3.525Y-1.6947
X3.525Y-1.7848
X3.525Y-1.875
X3.525Y-1.9652
X3.525Y-2.0553
X3.525Y-2.1455
X3.525Y-2.2356
X3.525Y-2.3258
X3.525Y-2.4159
X3.525Y-2.5061
X3.525Y-2.5963
X3.525Y-2.6864
X3.625Y-1.3789
X3.625Y-1.4691
X3.625Y-1.5593
X3.625Y-1.6494
X3.625Y-1.7396
X3.625Y-1.8297
X3.625Y-1.9199
X3.625Y-2.01
X3.625Y-2.1002
X3.625Y-2.1904
X3.625Y-2.2805
X3.625Y-2.3707
X3.625Y-2.4608
X3.625Y-2.551
X3.625Y-2.6411
X4.005Y-1.4669
X4.005Y-1.5571
X4.005Y-1.6472
X4.005Y-1.7374
X4.005Y-1.8276
X4.005Y-1.9177
X4.005Y-2.0079
X4.005Y-2.098
X4.105Y-1.422
X4.105Y-1.5122
X4.105Y-1.6024
X4.105Y-1.6925
X4.105Y-1.7827
X4.105Y-1.8728
X4.105Y-1.963
X4.105Y-2.0531
X4.105Y-2.1433
X4.205Y-1.3768
X4.205Y-1.4669
X4.205Y-1.5571
X4.205Y-1.6472
X4.205Y-1.7374
X4.205Y-1.8276
X4.205Y-1.9177
X4.205Y-2.0079
X4.205Y-2.098
T7
X2.7451Y-3.5449
X4.5232Y-1.1174
X4.5232Y-1.6929
X4.5951Y-3.5449
X5.5083Y-1.1174
X5.5083Y-1.6929
T8
X1.975Y-1.1
X1.975Y-3.55
X2.1591Y-1.114
X2.1591Y-3.5156
X3.525Y-1.1041
X3.525Y-2.9561
X3.75Y-1.1
X3.9Y-2.675
X4.105Y-1.1
X4.105Y-2.415
X5.95Y-1.1
X5.95Y-3.55
T0
M30
