G04 #@! TF.FileFunction,Legend,Bot*
%FSLAX46Y46*%
G04 Gerber Fmt 4.6, Leading zero omitted, Abs format (unit mm)*
G04 Created by KiCad (PCBNEW 4.0.6) date Mon Jan  8 22:22:41 2018*
%MOMM*%
%LPD*%
G01*
G04 APERTURE LIST*
%ADD10C,0.100000*%
%ADD11C,0.300000*%
%ADD12C,0.200000*%
%ADD13C,0.150000*%
%ADD14C,0.120000*%
G04 APERTURE END LIST*
D10*
D11*
X97551762Y-57102714D02*
X96218429Y-57102714D01*
X96599381Y-57102714D02*
X96408905Y-57197953D01*
X96313667Y-57293191D01*
X96218429Y-57483667D01*
X96218429Y-57674143D01*
X97456524Y-59102714D02*
X97551762Y-58912238D01*
X97551762Y-58531286D01*
X97456524Y-58340809D01*
X97266048Y-58245571D01*
X96504143Y-58245571D01*
X96313667Y-58340809D01*
X96218429Y-58531286D01*
X96218429Y-58912238D01*
X96313667Y-59102714D01*
X96504143Y-59197952D01*
X96694619Y-59197952D01*
X96885095Y-58245571D01*
X96218429Y-59864619D02*
X97551762Y-60340810D01*
X96218429Y-60817000D01*
X95551762Y-61388429D02*
X95551762Y-62626525D01*
X96313667Y-61959858D01*
X96313667Y-62245572D01*
X96408905Y-62436048D01*
X96504143Y-62531286D01*
X96694619Y-62626525D01*
X97170810Y-62626525D01*
X97361286Y-62531286D01*
X97456524Y-62436048D01*
X97551762Y-62245572D01*
X97551762Y-61674144D01*
X97456524Y-61483667D01*
X97361286Y-61388429D01*
X49319714Y-44653429D02*
X49248286Y-44496287D01*
X49248286Y-44182001D01*
X49319714Y-44024858D01*
X49462571Y-43867715D01*
X49605429Y-43789144D01*
X49891143Y-43789144D01*
X50034000Y-43867715D01*
X50176857Y-44024858D01*
X50248286Y-44182001D01*
X50248286Y-44496287D01*
X50176857Y-44653429D01*
X48748286Y-44339144D02*
X48819714Y-43946287D01*
X49034000Y-43553429D01*
X49391143Y-43317715D01*
X49748286Y-43239144D01*
X50105429Y-43317715D01*
X50462571Y-43553429D01*
X50676857Y-43946287D01*
X50748286Y-44339144D01*
X50676857Y-44732001D01*
X50462571Y-45124858D01*
X50105429Y-45360572D01*
X49748286Y-45439144D01*
X49391143Y-45360572D01*
X49034000Y-45124858D01*
X48819714Y-44732001D01*
X48748286Y-44339144D01*
X50462571Y-48346286D02*
X49748286Y-47796286D01*
X50462571Y-47403429D02*
X48962571Y-47403429D01*
X48962571Y-48032001D01*
X49034000Y-48189143D01*
X49105429Y-48267715D01*
X49248286Y-48346286D01*
X49462571Y-48346286D01*
X49605429Y-48267715D01*
X49676857Y-48189143D01*
X49748286Y-48032001D01*
X49748286Y-47403429D01*
X50462571Y-49760572D02*
X49676857Y-49760572D01*
X49534000Y-49682001D01*
X49462571Y-49524858D01*
X49462571Y-49210572D01*
X49534000Y-49053429D01*
X50391143Y-49760572D02*
X50462571Y-49603429D01*
X50462571Y-49210572D01*
X50391143Y-49053429D01*
X50248286Y-48974858D01*
X50105429Y-48974858D01*
X49962571Y-49053429D01*
X49891143Y-49210572D01*
X49891143Y-49603429D01*
X49819714Y-49760572D01*
X49462571Y-50546286D02*
X50962571Y-50546286D01*
X49534000Y-50546286D02*
X49462571Y-50703429D01*
X49462571Y-51017715D01*
X49534000Y-51174858D01*
X49605429Y-51253429D01*
X49748286Y-51332000D01*
X50176857Y-51332000D01*
X50319714Y-51253429D01*
X50391143Y-51174858D01*
X50462571Y-51017715D01*
X50462571Y-50703429D01*
X50391143Y-50546286D01*
X50462571Y-52039143D02*
X48962571Y-52039143D01*
X50462571Y-52746286D02*
X49676857Y-52746286D01*
X49534000Y-52667715D01*
X49462571Y-52510572D01*
X49462571Y-52274857D01*
X49534000Y-52117715D01*
X49605429Y-52039143D01*
X50462571Y-54239143D02*
X49676857Y-54239143D01*
X49534000Y-54160572D01*
X49462571Y-54003429D01*
X49462571Y-53689143D01*
X49534000Y-53532000D01*
X50391143Y-54239143D02*
X50462571Y-54082000D01*
X50462571Y-53689143D01*
X50391143Y-53532000D01*
X50248286Y-53453429D01*
X50105429Y-53453429D01*
X49962571Y-53532000D01*
X49891143Y-53689143D01*
X49891143Y-54082000D01*
X49819714Y-54239143D01*
X50391143Y-55653429D02*
X50462571Y-55496286D01*
X50462571Y-55182000D01*
X50391143Y-55024857D01*
X50248286Y-54946286D01*
X49676857Y-54946286D01*
X49534000Y-55024857D01*
X49462571Y-55182000D01*
X49462571Y-55496286D01*
X49534000Y-55653429D01*
X49676857Y-55732000D01*
X49819714Y-55732000D01*
X49962571Y-54946286D01*
X50462571Y-56674857D02*
X50391143Y-56517715D01*
X50248286Y-56439143D01*
X48962571Y-56439143D01*
X50462571Y-59346286D02*
X50462571Y-58560572D01*
X48962571Y-58560572D01*
X50391143Y-60524858D02*
X50462571Y-60367715D01*
X50462571Y-60053429D01*
X50391143Y-59896286D01*
X50248286Y-59817715D01*
X49676857Y-59817715D01*
X49534000Y-59896286D01*
X49462571Y-60053429D01*
X49462571Y-60367715D01*
X49534000Y-60524858D01*
X49676857Y-60603429D01*
X49819714Y-60603429D01*
X49962571Y-59817715D01*
X50462571Y-61310572D02*
X48962571Y-61310572D01*
X50462571Y-62017715D02*
X49676857Y-62017715D01*
X49534000Y-61939144D01*
X49462571Y-61782001D01*
X49462571Y-61546286D01*
X49534000Y-61389144D01*
X49605429Y-61310572D01*
X50462571Y-62803429D02*
X49462571Y-62803429D01*
X49605429Y-62803429D02*
X49534000Y-62882001D01*
X49462571Y-63039143D01*
X49462571Y-63274858D01*
X49534000Y-63432001D01*
X49676857Y-63510572D01*
X50462571Y-63510572D01*
X49676857Y-63510572D02*
X49534000Y-63589143D01*
X49462571Y-63746286D01*
X49462571Y-63982001D01*
X49534000Y-64139143D01*
X49676857Y-64217715D01*
X50462571Y-64217715D01*
X50462571Y-65710572D02*
X49676857Y-65710572D01*
X49534000Y-65632001D01*
X49462571Y-65474858D01*
X49462571Y-65160572D01*
X49534000Y-65003429D01*
X50391143Y-65710572D02*
X50462571Y-65553429D01*
X50462571Y-65160572D01*
X50391143Y-65003429D01*
X50248286Y-64924858D01*
X50105429Y-64924858D01*
X49962571Y-65003429D01*
X49891143Y-65160572D01*
X49891143Y-65553429D01*
X49819714Y-65710572D01*
X49462571Y-66496286D02*
X50462571Y-66496286D01*
X49605429Y-66496286D02*
X49534000Y-66574858D01*
X49462571Y-66732000D01*
X49462571Y-66967715D01*
X49534000Y-67124858D01*
X49676857Y-67203429D01*
X50462571Y-67203429D01*
X49462571Y-67989143D02*
X50462571Y-67989143D01*
X49605429Y-67989143D02*
X49534000Y-68067715D01*
X49462571Y-68224857D01*
X49462571Y-68460572D01*
X49534000Y-68617715D01*
X49676857Y-68696286D01*
X50462571Y-68696286D01*
X144310571Y-35631713D02*
X143596286Y-35081713D01*
X144310571Y-34688856D02*
X142810571Y-34688856D01*
X142810571Y-35317428D01*
X142882000Y-35474570D01*
X142953429Y-35553142D01*
X143096286Y-35631713D01*
X143310571Y-35631713D01*
X143453429Y-35553142D01*
X143524857Y-35474570D01*
X143596286Y-35317428D01*
X143596286Y-34688856D01*
X142810571Y-36181713D02*
X144310571Y-37281713D01*
X142810571Y-37281713D02*
X144310571Y-36181713D01*
X143739143Y-37910285D02*
X143739143Y-39167428D01*
X142810571Y-39717428D02*
X144310571Y-40267428D01*
X142810571Y-40817428D01*
X144310571Y-41367428D02*
X142810571Y-41367428D01*
X144310571Y-42153142D02*
X142810571Y-42153142D01*
X142810571Y-42781714D01*
X142882000Y-42938856D01*
X142953429Y-43017428D01*
X143096286Y-43095999D01*
X143310571Y-43095999D01*
X143453429Y-43017428D01*
X143524857Y-42938856D01*
X143596286Y-42781714D01*
X143596286Y-42153142D01*
X143524857Y-43803142D02*
X143524857Y-44353142D01*
X144310571Y-44588856D02*
X144310571Y-43803142D01*
X142810571Y-43803142D01*
X142810571Y-44588856D01*
X144310571Y-46238856D02*
X143596286Y-45688856D01*
X144310571Y-45295999D02*
X142810571Y-45295999D01*
X142810571Y-45924571D01*
X142882000Y-46081713D01*
X142953429Y-46160285D01*
X143096286Y-46238856D01*
X143310571Y-46238856D01*
X143453429Y-46160285D01*
X143524857Y-46081713D01*
X143596286Y-45924571D01*
X143596286Y-45295999D01*
X142953429Y-48124571D02*
X142882000Y-48203142D01*
X142810571Y-48360285D01*
X142810571Y-48753142D01*
X142882000Y-48910285D01*
X142953429Y-48988856D01*
X143096286Y-49067428D01*
X143239143Y-49067428D01*
X143453429Y-48988856D01*
X144310571Y-48045999D01*
X144310571Y-49067428D01*
X142810571Y-50088857D02*
X142810571Y-50246000D01*
X142882000Y-50403143D01*
X142953429Y-50481714D01*
X143096286Y-50560285D01*
X143382000Y-50638857D01*
X143739143Y-50638857D01*
X144024857Y-50560285D01*
X144167714Y-50481714D01*
X144239143Y-50403143D01*
X144310571Y-50246000D01*
X144310571Y-50088857D01*
X144239143Y-49931714D01*
X144167714Y-49853143D01*
X144024857Y-49774571D01*
X143739143Y-49696000D01*
X143382000Y-49696000D01*
X143096286Y-49774571D01*
X142953429Y-49853143D01*
X142882000Y-49931714D01*
X142810571Y-50088857D01*
X144310571Y-52210286D02*
X144310571Y-51267429D01*
X144310571Y-51738857D02*
X142810571Y-51738857D01*
X143024857Y-51581714D01*
X143167714Y-51424572D01*
X143239143Y-51267429D01*
X142810571Y-52760286D02*
X142810571Y-53860286D01*
X144310571Y-53153143D01*
X146860571Y-38106715D02*
X145860571Y-38106715D01*
X146003429Y-38106715D02*
X145932000Y-38185287D01*
X145860571Y-38342429D01*
X145860571Y-38578144D01*
X145932000Y-38735287D01*
X146074857Y-38813858D01*
X146860571Y-38813858D01*
X146074857Y-38813858D02*
X145932000Y-38892429D01*
X145860571Y-39049572D01*
X145860571Y-39285287D01*
X145932000Y-39442429D01*
X146074857Y-39521001D01*
X146860571Y-39521001D01*
X146860571Y-41013858D02*
X146074857Y-41013858D01*
X145932000Y-40935287D01*
X145860571Y-40778144D01*
X145860571Y-40463858D01*
X145932000Y-40306715D01*
X146789143Y-41013858D02*
X146860571Y-40856715D01*
X146860571Y-40463858D01*
X146789143Y-40306715D01*
X146646286Y-40228144D01*
X146503429Y-40228144D01*
X146360571Y-40306715D01*
X146289143Y-40463858D01*
X146289143Y-40856715D01*
X146217714Y-41013858D01*
X146860571Y-41799572D02*
X145860571Y-41799572D01*
X145360571Y-41799572D02*
X145432000Y-41721001D01*
X145503429Y-41799572D01*
X145432000Y-41878144D01*
X145360571Y-41799572D01*
X145503429Y-41799572D01*
X145860571Y-42585286D02*
X146860571Y-42585286D01*
X146003429Y-42585286D02*
X145932000Y-42663858D01*
X145860571Y-42821000D01*
X145860571Y-43056715D01*
X145932000Y-43213858D01*
X146074857Y-43292429D01*
X146860571Y-43292429D01*
X146860571Y-44078143D02*
X145360571Y-44078143D01*
X145932000Y-44078143D02*
X145860571Y-44235286D01*
X145860571Y-44549572D01*
X145932000Y-44706715D01*
X146003429Y-44785286D01*
X146146286Y-44863857D01*
X146574857Y-44863857D01*
X146717714Y-44785286D01*
X146789143Y-44706715D01*
X146860571Y-44549572D01*
X146860571Y-44235286D01*
X146789143Y-44078143D01*
X146860571Y-45806714D02*
X146789143Y-45649572D01*
X146717714Y-45571000D01*
X146574857Y-45492429D01*
X146146286Y-45492429D01*
X146003429Y-45571000D01*
X145932000Y-45649572D01*
X145860571Y-45806714D01*
X145860571Y-46042429D01*
X145932000Y-46199572D01*
X146003429Y-46278143D01*
X146146286Y-46356714D01*
X146574857Y-46356714D01*
X146717714Y-46278143D01*
X146789143Y-46199572D01*
X146860571Y-46042429D01*
X146860571Y-45806714D01*
X146860571Y-47771000D02*
X146074857Y-47771000D01*
X145932000Y-47692429D01*
X145860571Y-47535286D01*
X145860571Y-47221000D01*
X145932000Y-47063857D01*
X146789143Y-47771000D02*
X146860571Y-47613857D01*
X146860571Y-47221000D01*
X146789143Y-47063857D01*
X146646286Y-46985286D01*
X146503429Y-46985286D01*
X146360571Y-47063857D01*
X146289143Y-47221000D01*
X146289143Y-47613857D01*
X146217714Y-47771000D01*
X146860571Y-48556714D02*
X145860571Y-48556714D01*
X146146286Y-48556714D02*
X146003429Y-48635286D01*
X145932000Y-48713857D01*
X145860571Y-48871000D01*
X145860571Y-49028143D01*
X146860571Y-50285286D02*
X145360571Y-50285286D01*
X146789143Y-50285286D02*
X146860571Y-50128143D01*
X146860571Y-49813857D01*
X146789143Y-49656715D01*
X146717714Y-49578143D01*
X146574857Y-49499572D01*
X146146286Y-49499572D01*
X146003429Y-49578143D01*
X145932000Y-49656715D01*
X145860571Y-49813857D01*
X145860571Y-50128143D01*
X145932000Y-50285286D01*
D12*
X124079000Y-37592000D02*
X124587000Y-37592000D01*
X124460000Y-37084000D02*
X124079000Y-37592000D01*
X124587000Y-37592000D02*
X124460000Y-37084000D01*
X122682000Y-36449000D02*
X124587000Y-37592000D01*
X121920000Y-38735000D02*
X122301000Y-38735000D01*
X122301000Y-39116000D02*
X121920000Y-38735000D01*
X122301000Y-38735000D02*
X122301000Y-39116000D01*
X121412000Y-39370000D02*
X122301000Y-38735000D01*
X132334000Y-39116000D02*
X132080000Y-38735000D01*
X132588000Y-38608000D02*
X132334000Y-39116000D01*
X132080000Y-38735000D02*
X132588000Y-38608000D01*
X133858000Y-39497000D02*
X132080000Y-38735000D01*
X130302000Y-37592000D02*
X129794000Y-37592000D01*
X129794000Y-37084000D02*
X130302000Y-37592000D01*
X129794000Y-37592000D02*
X129794000Y-37084000D01*
X130937000Y-36322000D02*
X129794000Y-37592000D01*
D11*
X95156571Y-39187713D02*
X94442286Y-38637713D01*
X95156571Y-38244856D02*
X93656571Y-38244856D01*
X93656571Y-38873428D01*
X93728000Y-39030570D01*
X93799429Y-39109142D01*
X93942286Y-39187713D01*
X94156571Y-39187713D01*
X94299429Y-39109142D01*
X94370857Y-39030570D01*
X94442286Y-38873428D01*
X94442286Y-38244856D01*
X93656571Y-39737713D02*
X95156571Y-40837713D01*
X93656571Y-40837713D02*
X95156571Y-39737713D01*
X94585143Y-41466285D02*
X94585143Y-42723428D01*
X93656571Y-43273428D02*
X95156571Y-43823428D01*
X93656571Y-44373428D01*
X95156571Y-44923428D02*
X93656571Y-44923428D01*
X95156571Y-45709142D02*
X93656571Y-45709142D01*
X93656571Y-46337714D01*
X93728000Y-46494856D01*
X93799429Y-46573428D01*
X93942286Y-46651999D01*
X94156571Y-46651999D01*
X94299429Y-46573428D01*
X94370857Y-46494856D01*
X94442286Y-46337714D01*
X94442286Y-45709142D01*
X94370857Y-47359142D02*
X94370857Y-47909142D01*
X95156571Y-48144856D02*
X95156571Y-47359142D01*
X93656571Y-47359142D01*
X93656571Y-48144856D01*
X95156571Y-49794856D02*
X94442286Y-49244856D01*
X95156571Y-48851999D02*
X93656571Y-48851999D01*
X93656571Y-49480571D01*
X93728000Y-49637713D01*
X93799429Y-49716285D01*
X93942286Y-49794856D01*
X94156571Y-49794856D01*
X94299429Y-49716285D01*
X94370857Y-49637713D01*
X94442286Y-49480571D01*
X94442286Y-48851999D01*
X93799429Y-51680571D02*
X93728000Y-51759142D01*
X93656571Y-51916285D01*
X93656571Y-52309142D01*
X93728000Y-52466285D01*
X93799429Y-52544856D01*
X93942286Y-52623428D01*
X94085143Y-52623428D01*
X94299429Y-52544856D01*
X95156571Y-51601999D01*
X95156571Y-52623428D01*
X93656571Y-53644857D02*
X93656571Y-53802000D01*
X93728000Y-53959143D01*
X93799429Y-54037714D01*
X93942286Y-54116285D01*
X94228000Y-54194857D01*
X94585143Y-54194857D01*
X94870857Y-54116285D01*
X95013714Y-54037714D01*
X95085143Y-53959143D01*
X95156571Y-53802000D01*
X95156571Y-53644857D01*
X95085143Y-53487714D01*
X95013714Y-53409143D01*
X94870857Y-53330571D01*
X94585143Y-53252000D01*
X94228000Y-53252000D01*
X93942286Y-53330571D01*
X93799429Y-53409143D01*
X93728000Y-53487714D01*
X93656571Y-53644857D01*
X95156571Y-55766286D02*
X95156571Y-54823429D01*
X95156571Y-55294857D02*
X93656571Y-55294857D01*
X93870857Y-55137714D01*
X94013714Y-54980572D01*
X94085143Y-54823429D01*
X93656571Y-56316286D02*
X93656571Y-57416286D01*
X95156571Y-56709143D01*
X97706571Y-41662715D02*
X96706571Y-41662715D01*
X96849429Y-41662715D02*
X96778000Y-41741287D01*
X96706571Y-41898429D01*
X96706571Y-42134144D01*
X96778000Y-42291287D01*
X96920857Y-42369858D01*
X97706571Y-42369858D01*
X96920857Y-42369858D02*
X96778000Y-42448429D01*
X96706571Y-42605572D01*
X96706571Y-42841287D01*
X96778000Y-42998429D01*
X96920857Y-43077001D01*
X97706571Y-43077001D01*
X97706571Y-44569858D02*
X96920857Y-44569858D01*
X96778000Y-44491287D01*
X96706571Y-44334144D01*
X96706571Y-44019858D01*
X96778000Y-43862715D01*
X97635143Y-44569858D02*
X97706571Y-44412715D01*
X97706571Y-44019858D01*
X97635143Y-43862715D01*
X97492286Y-43784144D01*
X97349429Y-43784144D01*
X97206571Y-43862715D01*
X97135143Y-44019858D01*
X97135143Y-44412715D01*
X97063714Y-44569858D01*
X97706571Y-45355572D02*
X96706571Y-45355572D01*
X96206571Y-45355572D02*
X96278000Y-45277001D01*
X96349429Y-45355572D01*
X96278000Y-45434144D01*
X96206571Y-45355572D01*
X96349429Y-45355572D01*
X96706571Y-46141286D02*
X97706571Y-46141286D01*
X96849429Y-46141286D02*
X96778000Y-46219858D01*
X96706571Y-46377000D01*
X96706571Y-46612715D01*
X96778000Y-46769858D01*
X96920857Y-46848429D01*
X97706571Y-46848429D01*
X97706571Y-47634143D02*
X96206571Y-47634143D01*
X96778000Y-47634143D02*
X96706571Y-47791286D01*
X96706571Y-48105572D01*
X96778000Y-48262715D01*
X96849429Y-48341286D01*
X96992286Y-48419857D01*
X97420857Y-48419857D01*
X97563714Y-48341286D01*
X97635143Y-48262715D01*
X97706571Y-48105572D01*
X97706571Y-47791286D01*
X97635143Y-47634143D01*
X97706571Y-49362714D02*
X97635143Y-49205572D01*
X97563714Y-49127000D01*
X97420857Y-49048429D01*
X96992286Y-49048429D01*
X96849429Y-49127000D01*
X96778000Y-49205572D01*
X96706571Y-49362714D01*
X96706571Y-49598429D01*
X96778000Y-49755572D01*
X96849429Y-49834143D01*
X96992286Y-49912714D01*
X97420857Y-49912714D01*
X97563714Y-49834143D01*
X97635143Y-49755572D01*
X97706571Y-49598429D01*
X97706571Y-49362714D01*
X97706571Y-51327000D02*
X96920857Y-51327000D01*
X96778000Y-51248429D01*
X96706571Y-51091286D01*
X96706571Y-50777000D01*
X96778000Y-50619857D01*
X97635143Y-51327000D02*
X97706571Y-51169857D01*
X97706571Y-50777000D01*
X97635143Y-50619857D01*
X97492286Y-50541286D01*
X97349429Y-50541286D01*
X97206571Y-50619857D01*
X97135143Y-50777000D01*
X97135143Y-51169857D01*
X97063714Y-51327000D01*
X97706571Y-52112714D02*
X96706571Y-52112714D01*
X96992286Y-52112714D02*
X96849429Y-52191286D01*
X96778000Y-52269857D01*
X96706571Y-52427000D01*
X96706571Y-52584143D01*
X97706571Y-53841286D02*
X96206571Y-53841286D01*
X97635143Y-53841286D02*
X97706571Y-53684143D01*
X97706571Y-53369857D01*
X97635143Y-53212715D01*
X97563714Y-53134143D01*
X97420857Y-53055572D01*
X96992286Y-53055572D01*
X96849429Y-53134143D01*
X96778000Y-53212715D01*
X96706571Y-53369857D01*
X96706571Y-53684143D01*
X96778000Y-53841286D01*
X99113714Y-36398429D02*
X99042286Y-36241287D01*
X99042286Y-35927001D01*
X99113714Y-35769858D01*
X99256571Y-35612715D01*
X99399429Y-35534144D01*
X99685143Y-35534144D01*
X99828000Y-35612715D01*
X99970857Y-35769858D01*
X100042286Y-35927001D01*
X100042286Y-36241287D01*
X99970857Y-36398429D01*
X98542286Y-36084144D02*
X98613714Y-35691287D01*
X98828000Y-35298429D01*
X99185143Y-35062715D01*
X99542286Y-34984144D01*
X99899429Y-35062715D01*
X100256571Y-35298429D01*
X100470857Y-35691287D01*
X100542286Y-36084144D01*
X100470857Y-36477001D01*
X100256571Y-36869858D01*
X99899429Y-37105572D01*
X99542286Y-37184144D01*
X99185143Y-37105572D01*
X98828000Y-36869858D01*
X98613714Y-36477001D01*
X98542286Y-36084144D01*
X100256571Y-40091286D02*
X99542286Y-39541286D01*
X100256571Y-39148429D02*
X98756571Y-39148429D01*
X98756571Y-39777001D01*
X98828000Y-39934143D01*
X98899429Y-40012715D01*
X99042286Y-40091286D01*
X99256571Y-40091286D01*
X99399429Y-40012715D01*
X99470857Y-39934143D01*
X99542286Y-39777001D01*
X99542286Y-39148429D01*
X100256571Y-41505572D02*
X99470857Y-41505572D01*
X99328000Y-41427001D01*
X99256571Y-41269858D01*
X99256571Y-40955572D01*
X99328000Y-40798429D01*
X100185143Y-41505572D02*
X100256571Y-41348429D01*
X100256571Y-40955572D01*
X100185143Y-40798429D01*
X100042286Y-40719858D01*
X99899429Y-40719858D01*
X99756571Y-40798429D01*
X99685143Y-40955572D01*
X99685143Y-41348429D01*
X99613714Y-41505572D01*
X99256571Y-42291286D02*
X100756571Y-42291286D01*
X99328000Y-42291286D02*
X99256571Y-42448429D01*
X99256571Y-42762715D01*
X99328000Y-42919858D01*
X99399429Y-42998429D01*
X99542286Y-43077000D01*
X99970857Y-43077000D01*
X100113714Y-42998429D01*
X100185143Y-42919858D01*
X100256571Y-42762715D01*
X100256571Y-42448429D01*
X100185143Y-42291286D01*
X100256571Y-43784143D02*
X98756571Y-43784143D01*
X100256571Y-44491286D02*
X99470857Y-44491286D01*
X99328000Y-44412715D01*
X99256571Y-44255572D01*
X99256571Y-44019857D01*
X99328000Y-43862715D01*
X99399429Y-43784143D01*
X100256571Y-45984143D02*
X99470857Y-45984143D01*
X99328000Y-45905572D01*
X99256571Y-45748429D01*
X99256571Y-45434143D01*
X99328000Y-45277000D01*
X100185143Y-45984143D02*
X100256571Y-45827000D01*
X100256571Y-45434143D01*
X100185143Y-45277000D01*
X100042286Y-45198429D01*
X99899429Y-45198429D01*
X99756571Y-45277000D01*
X99685143Y-45434143D01*
X99685143Y-45827000D01*
X99613714Y-45984143D01*
X100185143Y-47398429D02*
X100256571Y-47241286D01*
X100256571Y-46927000D01*
X100185143Y-46769857D01*
X100042286Y-46691286D01*
X99470857Y-46691286D01*
X99328000Y-46769857D01*
X99256571Y-46927000D01*
X99256571Y-47241286D01*
X99328000Y-47398429D01*
X99470857Y-47477000D01*
X99613714Y-47477000D01*
X99756571Y-46691286D01*
X100256571Y-48419857D02*
X100185143Y-48262715D01*
X100042286Y-48184143D01*
X98756571Y-48184143D01*
X100256571Y-51091286D02*
X100256571Y-50305572D01*
X98756571Y-50305572D01*
X100185143Y-52269858D02*
X100256571Y-52112715D01*
X100256571Y-51798429D01*
X100185143Y-51641286D01*
X100042286Y-51562715D01*
X99470857Y-51562715D01*
X99328000Y-51641286D01*
X99256571Y-51798429D01*
X99256571Y-52112715D01*
X99328000Y-52269858D01*
X99470857Y-52348429D01*
X99613714Y-52348429D01*
X99756571Y-51562715D01*
X100256571Y-53055572D02*
X98756571Y-53055572D01*
X100256571Y-53762715D02*
X99470857Y-53762715D01*
X99328000Y-53684144D01*
X99256571Y-53527001D01*
X99256571Y-53291286D01*
X99328000Y-53134144D01*
X99399429Y-53055572D01*
X100256571Y-54548429D02*
X99256571Y-54548429D01*
X99399429Y-54548429D02*
X99328000Y-54627001D01*
X99256571Y-54784143D01*
X99256571Y-55019858D01*
X99328000Y-55177001D01*
X99470857Y-55255572D01*
X100256571Y-55255572D01*
X99470857Y-55255572D02*
X99328000Y-55334143D01*
X99256571Y-55491286D01*
X99256571Y-55727001D01*
X99328000Y-55884143D01*
X99470857Y-55962715D01*
X100256571Y-55962715D01*
X100256571Y-57455572D02*
X99470857Y-57455572D01*
X99328000Y-57377001D01*
X99256571Y-57219858D01*
X99256571Y-56905572D01*
X99328000Y-56748429D01*
X100185143Y-57455572D02*
X100256571Y-57298429D01*
X100256571Y-56905572D01*
X100185143Y-56748429D01*
X100042286Y-56669858D01*
X99899429Y-56669858D01*
X99756571Y-56748429D01*
X99685143Y-56905572D01*
X99685143Y-57298429D01*
X99613714Y-57455572D01*
X99256571Y-58241286D02*
X100256571Y-58241286D01*
X99399429Y-58241286D02*
X99328000Y-58319858D01*
X99256571Y-58477000D01*
X99256571Y-58712715D01*
X99328000Y-58869858D01*
X99470857Y-58948429D01*
X100256571Y-58948429D01*
X99256571Y-59734143D02*
X100256571Y-59734143D01*
X99399429Y-59734143D02*
X99328000Y-59812715D01*
X99256571Y-59969857D01*
X99256571Y-60205572D01*
X99328000Y-60362715D01*
X99470857Y-60441286D01*
X100256571Y-60441286D01*
X122193857Y-65532429D02*
X122193857Y-65032429D01*
X122979571Y-65032429D02*
X121479571Y-65032429D01*
X121479571Y-65746715D01*
X122979571Y-66532429D02*
X122908143Y-66389571D01*
X122765286Y-66318143D01*
X121479571Y-66318143D01*
X122979571Y-67746714D02*
X122193857Y-67746714D01*
X122051000Y-67675285D01*
X121979571Y-67532428D01*
X121979571Y-67246714D01*
X122051000Y-67103857D01*
X122908143Y-67746714D02*
X122979571Y-67603857D01*
X122979571Y-67246714D01*
X122908143Y-67103857D01*
X122765286Y-67032428D01*
X122622429Y-67032428D01*
X122479571Y-67103857D01*
X122408143Y-67246714D01*
X122408143Y-67603857D01*
X122336714Y-67746714D01*
X122908143Y-68389571D02*
X122979571Y-68532428D01*
X122979571Y-68818143D01*
X122908143Y-68961000D01*
X122765286Y-69032428D01*
X122693857Y-69032428D01*
X122551000Y-68961000D01*
X122479571Y-68818143D01*
X122479571Y-68603857D01*
X122408143Y-68461000D01*
X122265286Y-68389571D01*
X122193857Y-68389571D01*
X122051000Y-68461000D01*
X121979571Y-68603857D01*
X121979571Y-68818143D01*
X122051000Y-68961000D01*
X122979571Y-69675286D02*
X121479571Y-69675286D01*
X122979571Y-70318143D02*
X122193857Y-70318143D01*
X122051000Y-70246714D01*
X121979571Y-70103857D01*
X121979571Y-69889572D01*
X122051000Y-69746714D01*
X122122429Y-69675286D01*
X121622429Y-72103857D02*
X121551000Y-72175286D01*
X121479571Y-72318143D01*
X121479571Y-72675286D01*
X121551000Y-72818143D01*
X121622429Y-72889572D01*
X121765286Y-72961000D01*
X121908143Y-72961000D01*
X122122429Y-72889572D01*
X122979571Y-72032429D01*
X122979571Y-72961000D01*
D12*
X131572000Y-50419000D02*
X131445000Y-50038000D01*
X131826000Y-50038000D02*
X131572000Y-50419000D01*
X131445000Y-50038000D02*
X131826000Y-50038000D01*
X132334000Y-50673000D02*
X131445000Y-50038000D01*
D11*
X105611572Y-75314429D02*
X106161572Y-74528714D01*
X106554429Y-75314429D02*
X106554429Y-73664429D01*
X105925857Y-73664429D01*
X105768715Y-73743000D01*
X105690143Y-73821571D01*
X105611572Y-73978714D01*
X105611572Y-74214429D01*
X105690143Y-74371571D01*
X105768715Y-74450143D01*
X105925857Y-74528714D01*
X106554429Y-74528714D01*
X105061572Y-73664429D02*
X103961572Y-75314429D01*
X103961572Y-73664429D02*
X105061572Y-75314429D01*
X103333000Y-74685857D02*
X102075857Y-74685857D01*
X101525857Y-73664429D02*
X100975857Y-75314429D01*
X100425857Y-73664429D01*
X99875857Y-75314429D02*
X99875857Y-73664429D01*
X99090143Y-75314429D02*
X99090143Y-73664429D01*
X98461571Y-73664429D01*
X98304429Y-73743000D01*
X98225857Y-73821571D01*
X98147286Y-73978714D01*
X98147286Y-74214429D01*
X98225857Y-74371571D01*
X98304429Y-74450143D01*
X98461571Y-74528714D01*
X99090143Y-74528714D01*
X97440143Y-74450143D02*
X96890143Y-74450143D01*
X96654429Y-75314429D02*
X97440143Y-75314429D01*
X97440143Y-73664429D01*
X96654429Y-73664429D01*
X95004429Y-75314429D02*
X95554429Y-74528714D01*
X95947286Y-75314429D02*
X95947286Y-73664429D01*
X95318714Y-73664429D01*
X95161572Y-73743000D01*
X95083000Y-73821571D01*
X95004429Y-73978714D01*
X95004429Y-74214429D01*
X95083000Y-74371571D01*
X95161572Y-74450143D01*
X95318714Y-74528714D01*
X95947286Y-74528714D01*
X84318713Y-73821571D02*
X84240142Y-73743000D01*
X84082999Y-73664429D01*
X83690142Y-73664429D01*
X83532999Y-73743000D01*
X83454428Y-73821571D01*
X83375856Y-73978714D01*
X83375856Y-74135857D01*
X83454428Y-74371571D01*
X84397285Y-75314429D01*
X83375856Y-75314429D01*
X82354427Y-73664429D02*
X82197284Y-73664429D01*
X82040141Y-73743000D01*
X81961570Y-73821571D01*
X81882999Y-73978714D01*
X81804427Y-74293000D01*
X81804427Y-74685857D01*
X81882999Y-75000143D01*
X81961570Y-75157286D01*
X82040141Y-75235857D01*
X82197284Y-75314429D01*
X82354427Y-75314429D01*
X82511570Y-75235857D01*
X82590141Y-75157286D01*
X82668713Y-75000143D01*
X82747284Y-74685857D01*
X82747284Y-74293000D01*
X82668713Y-73978714D01*
X82590141Y-73821571D01*
X82511570Y-73743000D01*
X82354427Y-73664429D01*
X80232998Y-75314429D02*
X81175855Y-75314429D01*
X80704427Y-75314429D02*
X80704427Y-73664429D01*
X80861570Y-73900143D01*
X81018712Y-74057286D01*
X81175855Y-74135857D01*
X79682998Y-73664429D02*
X78582998Y-73664429D01*
X79290141Y-75314429D01*
X107536571Y-78089429D02*
X107536571Y-76989429D01*
X107536571Y-77146571D02*
X107457999Y-77068000D01*
X107300857Y-76989429D01*
X107065142Y-76989429D01*
X106907999Y-77068000D01*
X106829428Y-77225143D01*
X106829428Y-78089429D01*
X106829428Y-77225143D02*
X106750857Y-77068000D01*
X106593714Y-76989429D01*
X106357999Y-76989429D01*
X106200857Y-77068000D01*
X106122285Y-77225143D01*
X106122285Y-78089429D01*
X104629428Y-78089429D02*
X104629428Y-77225143D01*
X104707999Y-77068000D01*
X104865142Y-76989429D01*
X105179428Y-76989429D01*
X105336571Y-77068000D01*
X104629428Y-78010857D02*
X104786571Y-78089429D01*
X105179428Y-78089429D01*
X105336571Y-78010857D01*
X105415142Y-77853714D01*
X105415142Y-77696571D01*
X105336571Y-77539429D01*
X105179428Y-77460857D01*
X104786571Y-77460857D01*
X104629428Y-77382286D01*
X103843714Y-78089429D02*
X103843714Y-76989429D01*
X103843714Y-76439429D02*
X103922285Y-76518000D01*
X103843714Y-76596571D01*
X103765142Y-76518000D01*
X103843714Y-76439429D01*
X103843714Y-76596571D01*
X103058000Y-76989429D02*
X103058000Y-78089429D01*
X103058000Y-77146571D02*
X102979428Y-77068000D01*
X102822286Y-76989429D01*
X102586571Y-76989429D01*
X102429428Y-77068000D01*
X102350857Y-77225143D01*
X102350857Y-78089429D01*
X101565143Y-78089429D02*
X101565143Y-76439429D01*
X101565143Y-77068000D02*
X101408000Y-76989429D01*
X101093714Y-76989429D01*
X100936571Y-77068000D01*
X100858000Y-77146571D01*
X100779429Y-77303714D01*
X100779429Y-77775143D01*
X100858000Y-77932286D01*
X100936571Y-78010857D01*
X101093714Y-78089429D01*
X101408000Y-78089429D01*
X101565143Y-78010857D01*
X99836572Y-78089429D02*
X99993714Y-78010857D01*
X100072286Y-77932286D01*
X100150857Y-77775143D01*
X100150857Y-77303714D01*
X100072286Y-77146571D01*
X99993714Y-77068000D01*
X99836572Y-76989429D01*
X99600857Y-76989429D01*
X99443714Y-77068000D01*
X99365143Y-77146571D01*
X99286572Y-77303714D01*
X99286572Y-77775143D01*
X99365143Y-77932286D01*
X99443714Y-78010857D01*
X99600857Y-78089429D01*
X99836572Y-78089429D01*
X97872286Y-78089429D02*
X97872286Y-77225143D01*
X97950857Y-77068000D01*
X98108000Y-76989429D01*
X98422286Y-76989429D01*
X98579429Y-77068000D01*
X97872286Y-78010857D02*
X98029429Y-78089429D01*
X98422286Y-78089429D01*
X98579429Y-78010857D01*
X98658000Y-77853714D01*
X98658000Y-77696571D01*
X98579429Y-77539429D01*
X98422286Y-77460857D01*
X98029429Y-77460857D01*
X97872286Y-77382286D01*
X97086572Y-78089429D02*
X97086572Y-76989429D01*
X97086572Y-77303714D02*
X97008000Y-77146571D01*
X96929429Y-77068000D01*
X96772286Y-76989429D01*
X96615143Y-76989429D01*
X95358000Y-78089429D02*
X95358000Y-76439429D01*
X95358000Y-78010857D02*
X95515143Y-78089429D01*
X95829429Y-78089429D01*
X95986571Y-78010857D01*
X96065143Y-77932286D01*
X96143714Y-77775143D01*
X96143714Y-77303714D01*
X96065143Y-77146571D01*
X95986571Y-77068000D01*
X95829429Y-76989429D01*
X95515143Y-76989429D01*
X95358000Y-77068000D01*
X110286571Y-79607286D02*
X110443713Y-79528714D01*
X110757999Y-79528714D01*
X110915142Y-79607286D01*
X111072285Y-79764429D01*
X111150856Y-79921571D01*
X111150856Y-80235857D01*
X111072285Y-80393000D01*
X110915142Y-80550143D01*
X110757999Y-80628714D01*
X110443713Y-80628714D01*
X110286571Y-80550143D01*
X110600856Y-78978714D02*
X110993713Y-79057286D01*
X111386571Y-79293000D01*
X111622285Y-79685857D01*
X111700856Y-80078714D01*
X111622285Y-80471571D01*
X111386571Y-80864429D01*
X110993713Y-81100143D01*
X110600856Y-81178714D01*
X110207999Y-81100143D01*
X109815142Y-80864429D01*
X109579428Y-80471571D01*
X109500856Y-80078714D01*
X109579428Y-79685857D01*
X109815142Y-79293000D01*
X110207999Y-79057286D01*
X110600856Y-78978714D01*
X106593714Y-80864429D02*
X107143714Y-80078714D01*
X107536571Y-80864429D02*
X107536571Y-79214429D01*
X106907999Y-79214429D01*
X106750857Y-79293000D01*
X106672285Y-79371571D01*
X106593714Y-79528714D01*
X106593714Y-79764429D01*
X106672285Y-79921571D01*
X106750857Y-80000143D01*
X106907999Y-80078714D01*
X107536571Y-80078714D01*
X105179428Y-80864429D02*
X105179428Y-80000143D01*
X105257999Y-79843000D01*
X105415142Y-79764429D01*
X105729428Y-79764429D01*
X105886571Y-79843000D01*
X105179428Y-80785857D02*
X105336571Y-80864429D01*
X105729428Y-80864429D01*
X105886571Y-80785857D01*
X105965142Y-80628714D01*
X105965142Y-80471571D01*
X105886571Y-80314429D01*
X105729428Y-80235857D01*
X105336571Y-80235857D01*
X105179428Y-80157286D01*
X104393714Y-79764429D02*
X104393714Y-81414429D01*
X104393714Y-79843000D02*
X104236571Y-79764429D01*
X103922285Y-79764429D01*
X103765142Y-79843000D01*
X103686571Y-79921571D01*
X103608000Y-80078714D01*
X103608000Y-80550143D01*
X103686571Y-80707286D01*
X103765142Y-80785857D01*
X103922285Y-80864429D01*
X104236571Y-80864429D01*
X104393714Y-80785857D01*
X102900857Y-80864429D02*
X102900857Y-79214429D01*
X102193714Y-80864429D02*
X102193714Y-80000143D01*
X102272285Y-79843000D01*
X102429428Y-79764429D01*
X102665143Y-79764429D01*
X102822285Y-79843000D01*
X102900857Y-79921571D01*
X100700857Y-80864429D02*
X100700857Y-80000143D01*
X100779428Y-79843000D01*
X100936571Y-79764429D01*
X101250857Y-79764429D01*
X101408000Y-79843000D01*
X100700857Y-80785857D02*
X100858000Y-80864429D01*
X101250857Y-80864429D01*
X101408000Y-80785857D01*
X101486571Y-80628714D01*
X101486571Y-80471571D01*
X101408000Y-80314429D01*
X101250857Y-80235857D01*
X100858000Y-80235857D01*
X100700857Y-80157286D01*
X99286571Y-80785857D02*
X99443714Y-80864429D01*
X99758000Y-80864429D01*
X99915143Y-80785857D01*
X99993714Y-80628714D01*
X99993714Y-80000143D01*
X99915143Y-79843000D01*
X99758000Y-79764429D01*
X99443714Y-79764429D01*
X99286571Y-79843000D01*
X99208000Y-80000143D01*
X99208000Y-80157286D01*
X99993714Y-80314429D01*
X98265143Y-80864429D02*
X98422285Y-80785857D01*
X98500857Y-80628714D01*
X98500857Y-79214429D01*
X95593714Y-80864429D02*
X96379428Y-80864429D01*
X96379428Y-79214429D01*
X94415142Y-80785857D02*
X94572285Y-80864429D01*
X94886571Y-80864429D01*
X95043714Y-80785857D01*
X95122285Y-80628714D01*
X95122285Y-80000143D01*
X95043714Y-79843000D01*
X94886571Y-79764429D01*
X94572285Y-79764429D01*
X94415142Y-79843000D01*
X94336571Y-80000143D01*
X94336571Y-80157286D01*
X95122285Y-80314429D01*
X93629428Y-80864429D02*
X93629428Y-79214429D01*
X92922285Y-80864429D02*
X92922285Y-80000143D01*
X93000856Y-79843000D01*
X93157999Y-79764429D01*
X93393714Y-79764429D01*
X93550856Y-79843000D01*
X93629428Y-79921571D01*
X92136571Y-80864429D02*
X92136571Y-79764429D01*
X92136571Y-79921571D02*
X92057999Y-79843000D01*
X91900857Y-79764429D01*
X91665142Y-79764429D01*
X91507999Y-79843000D01*
X91429428Y-80000143D01*
X91429428Y-80864429D01*
X91429428Y-80000143D02*
X91350857Y-79843000D01*
X91193714Y-79764429D01*
X90957999Y-79764429D01*
X90800857Y-79843000D01*
X90722285Y-80000143D01*
X90722285Y-80864429D01*
X89229428Y-80864429D02*
X89229428Y-80000143D01*
X89307999Y-79843000D01*
X89465142Y-79764429D01*
X89779428Y-79764429D01*
X89936571Y-79843000D01*
X89229428Y-80785857D02*
X89386571Y-80864429D01*
X89779428Y-80864429D01*
X89936571Y-80785857D01*
X90015142Y-80628714D01*
X90015142Y-80471571D01*
X89936571Y-80314429D01*
X89779428Y-80235857D01*
X89386571Y-80235857D01*
X89229428Y-80157286D01*
X88443714Y-79764429D02*
X88443714Y-80864429D01*
X88443714Y-79921571D02*
X88365142Y-79843000D01*
X88208000Y-79764429D01*
X87972285Y-79764429D01*
X87815142Y-79843000D01*
X87736571Y-80000143D01*
X87736571Y-80864429D01*
X86950857Y-79764429D02*
X86950857Y-80864429D01*
X86950857Y-79921571D02*
X86872285Y-79843000D01*
X86715143Y-79764429D01*
X86479428Y-79764429D01*
X86322285Y-79843000D01*
X86243714Y-80000143D01*
X86243714Y-80864429D01*
D12*
X123793000Y-35511714D02*
X123793000Y-36511714D01*
X123793000Y-35559333D02*
X123697762Y-35511714D01*
X123507285Y-35511714D01*
X123412047Y-35559333D01*
X123364428Y-35606952D01*
X123316809Y-35702190D01*
X123316809Y-35987905D01*
X123364428Y-36083143D01*
X123412047Y-36130762D01*
X123507285Y-36178381D01*
X123697762Y-36178381D01*
X123793000Y-36130762D01*
X122888238Y-36178381D02*
X122888238Y-35511714D01*
X122888238Y-35702190D02*
X122840619Y-35606952D01*
X122793000Y-35559333D01*
X122697762Y-35511714D01*
X122602523Y-35511714D01*
X121888237Y-36130762D02*
X121983475Y-36178381D01*
X122173952Y-36178381D01*
X122269190Y-36130762D01*
X122316809Y-36035524D01*
X122316809Y-35654571D01*
X122269190Y-35559333D01*
X122173952Y-35511714D01*
X121983475Y-35511714D01*
X121888237Y-35559333D01*
X121840618Y-35654571D01*
X121840618Y-35749810D01*
X122316809Y-35845048D01*
X121459666Y-36130762D02*
X121364428Y-36178381D01*
X121173952Y-36178381D01*
X121078713Y-36130762D01*
X121031094Y-36035524D01*
X121031094Y-35987905D01*
X121078713Y-35892667D01*
X121173952Y-35845048D01*
X121316809Y-35845048D01*
X121412047Y-35797429D01*
X121459666Y-35702190D01*
X121459666Y-35654571D01*
X121412047Y-35559333D01*
X121316809Y-35511714D01*
X121173952Y-35511714D01*
X121078713Y-35559333D01*
X120650142Y-36130762D02*
X120554904Y-36178381D01*
X120364428Y-36178381D01*
X120269189Y-36130762D01*
X120221570Y-36035524D01*
X120221570Y-35987905D01*
X120269189Y-35892667D01*
X120364428Y-35845048D01*
X120507285Y-35845048D01*
X120602523Y-35797429D01*
X120650142Y-35702190D01*
X120650142Y-35654571D01*
X120602523Y-35559333D01*
X120507285Y-35511714D01*
X120364428Y-35511714D01*
X120269189Y-35559333D01*
X119792999Y-36083143D02*
X119745380Y-36130762D01*
X119792999Y-36178381D01*
X119840618Y-36130762D01*
X119792999Y-36083143D01*
X119792999Y-36178381D01*
X122245381Y-37830762D02*
X122102524Y-37878381D01*
X121864428Y-37878381D01*
X121769190Y-37830762D01*
X121721571Y-37783143D01*
X121673952Y-37687905D01*
X121673952Y-37592667D01*
X121721571Y-37497429D01*
X121769190Y-37449810D01*
X121864428Y-37402190D01*
X122054905Y-37354571D01*
X122150143Y-37306952D01*
X122197762Y-37259333D01*
X122245381Y-37164095D01*
X122245381Y-37068857D01*
X122197762Y-36973619D01*
X122150143Y-36926000D01*
X122054905Y-36878381D01*
X121816809Y-36878381D01*
X121673952Y-36926000D01*
X121245381Y-37878381D02*
X121245381Y-36878381D01*
X121007286Y-36878381D01*
X120864428Y-36926000D01*
X120769190Y-37021238D01*
X120721571Y-37116476D01*
X120673952Y-37306952D01*
X120673952Y-37449810D01*
X120721571Y-37640286D01*
X120769190Y-37735524D01*
X120864428Y-37830762D01*
X121007286Y-37878381D01*
X121245381Y-37878381D01*
X120293000Y-37592667D02*
X119816809Y-37592667D01*
X120388238Y-37878381D02*
X120054905Y-36878381D01*
X119721571Y-37878381D01*
X129850000Y-35901286D02*
X130230952Y-35901286D01*
X129992857Y-36234619D02*
X129992857Y-35377476D01*
X130040476Y-35282238D01*
X130135714Y-35234619D01*
X130230952Y-35234619D01*
X130945239Y-35282238D02*
X130850001Y-35234619D01*
X130659524Y-35234619D01*
X130564286Y-35282238D01*
X130516667Y-35377476D01*
X130516667Y-35758429D01*
X130564286Y-35853667D01*
X130659524Y-35901286D01*
X130850001Y-35901286D01*
X130945239Y-35853667D01*
X130992858Y-35758429D01*
X130992858Y-35663190D01*
X130516667Y-35567952D01*
X131421429Y-35234619D02*
X131421429Y-35901286D01*
X131421429Y-35806048D02*
X131469048Y-35853667D01*
X131564286Y-35901286D01*
X131707144Y-35901286D01*
X131802382Y-35853667D01*
X131850001Y-35758429D01*
X131850001Y-35234619D01*
X131850001Y-35758429D02*
X131897620Y-35853667D01*
X131992858Y-35901286D01*
X132135715Y-35901286D01*
X132230953Y-35853667D01*
X132278572Y-35758429D01*
X132278572Y-35234619D01*
X132754762Y-35901286D02*
X132754762Y-34901286D01*
X132754762Y-35853667D02*
X132850000Y-35901286D01*
X133040477Y-35901286D01*
X133135715Y-35853667D01*
X133183334Y-35806048D01*
X133230953Y-35710810D01*
X133230953Y-35425095D01*
X133183334Y-35329857D01*
X133135715Y-35282238D01*
X133040477Y-35234619D01*
X132850000Y-35234619D01*
X132754762Y-35282238D01*
X133421429Y-35139381D02*
X134183334Y-35139381D01*
X134373810Y-35282238D02*
X134516667Y-35234619D01*
X134754763Y-35234619D01*
X134850001Y-35282238D01*
X134897620Y-35329857D01*
X134945239Y-35425095D01*
X134945239Y-35520333D01*
X134897620Y-35615571D01*
X134850001Y-35663190D01*
X134754763Y-35710810D01*
X134564286Y-35758429D01*
X134469048Y-35806048D01*
X134421429Y-35853667D01*
X134373810Y-35948905D01*
X134373810Y-36044143D01*
X134421429Y-36139381D01*
X134469048Y-36187000D01*
X134564286Y-36234619D01*
X134802382Y-36234619D01*
X134945239Y-36187000D01*
X135945239Y-35329857D02*
X135897620Y-35282238D01*
X135754763Y-35234619D01*
X135659525Y-35234619D01*
X135516667Y-35282238D01*
X135421429Y-35377476D01*
X135373810Y-35472714D01*
X135326191Y-35663190D01*
X135326191Y-35806048D01*
X135373810Y-35996524D01*
X135421429Y-36091762D01*
X135516667Y-36187000D01*
X135659525Y-36234619D01*
X135754763Y-36234619D01*
X135897620Y-36187000D01*
X135945239Y-36139381D01*
X136850001Y-35234619D02*
X136373810Y-35234619D01*
X136373810Y-36234619D01*
X116570713Y-40346286D02*
X116570713Y-39346286D01*
X116570713Y-40298667D02*
X116665951Y-40346286D01*
X116856428Y-40346286D01*
X116951666Y-40298667D01*
X116999285Y-40251048D01*
X117046904Y-40155810D01*
X117046904Y-39870095D01*
X116999285Y-39774857D01*
X116951666Y-39727238D01*
X116856428Y-39679619D01*
X116665951Y-39679619D01*
X116570713Y-39727238D01*
X117475475Y-39679619D02*
X117475475Y-40346286D01*
X117475475Y-40155810D02*
X117523094Y-40251048D01*
X117570713Y-40298667D01*
X117665951Y-40346286D01*
X117761190Y-40346286D01*
X118475476Y-39727238D02*
X118380238Y-39679619D01*
X118189761Y-39679619D01*
X118094523Y-39727238D01*
X118046904Y-39822476D01*
X118046904Y-40203429D01*
X118094523Y-40298667D01*
X118189761Y-40346286D01*
X118380238Y-40346286D01*
X118475476Y-40298667D01*
X118523095Y-40203429D01*
X118523095Y-40108190D01*
X118046904Y-40012952D01*
X118904047Y-39727238D02*
X118999285Y-39679619D01*
X119189761Y-39679619D01*
X119285000Y-39727238D01*
X119332619Y-39822476D01*
X119332619Y-39870095D01*
X119285000Y-39965333D01*
X119189761Y-40012952D01*
X119046904Y-40012952D01*
X118951666Y-40060571D01*
X118904047Y-40155810D01*
X118904047Y-40203429D01*
X118951666Y-40298667D01*
X119046904Y-40346286D01*
X119189761Y-40346286D01*
X119285000Y-40298667D01*
X119713571Y-39727238D02*
X119808809Y-39679619D01*
X119999285Y-39679619D01*
X120094524Y-39727238D01*
X120142143Y-39822476D01*
X120142143Y-39870095D01*
X120094524Y-39965333D01*
X119999285Y-40012952D01*
X119856428Y-40012952D01*
X119761190Y-40060571D01*
X119713571Y-40155810D01*
X119713571Y-40203429D01*
X119761190Y-40298667D01*
X119856428Y-40346286D01*
X119999285Y-40346286D01*
X120094524Y-40298667D01*
X120999286Y-40346286D02*
X120999286Y-39679619D01*
X120570714Y-40346286D02*
X120570714Y-39822476D01*
X120618333Y-39727238D01*
X120713571Y-39679619D01*
X120856429Y-39679619D01*
X120951667Y-39727238D01*
X120999286Y-39774857D01*
X121475476Y-39679619D02*
X121475476Y-40346286D01*
X121475476Y-40155810D02*
X121523095Y-40251048D01*
X121570714Y-40298667D01*
X121665952Y-40346286D01*
X121761191Y-40346286D01*
X122475477Y-39727238D02*
X122380239Y-39679619D01*
X122189762Y-39679619D01*
X122094524Y-39727238D01*
X122046905Y-39822476D01*
X122046905Y-40203429D01*
X122094524Y-40298667D01*
X122189762Y-40346286D01*
X122380239Y-40346286D01*
X122475477Y-40298667D01*
X122523096Y-40203429D01*
X122523096Y-40108190D01*
X122046905Y-40012952D01*
X122713572Y-39584381D02*
X123475477Y-39584381D01*
X123665953Y-39727238D02*
X123808810Y-39679619D01*
X124046906Y-39679619D01*
X124142144Y-39727238D01*
X124189763Y-39774857D01*
X124237382Y-39870095D01*
X124237382Y-39965333D01*
X124189763Y-40060571D01*
X124142144Y-40108190D01*
X124046906Y-40155810D01*
X123856429Y-40203429D01*
X123761191Y-40251048D01*
X123713572Y-40298667D01*
X123665953Y-40393905D01*
X123665953Y-40489143D01*
X123713572Y-40584381D01*
X123761191Y-40632000D01*
X123856429Y-40679619D01*
X124094525Y-40679619D01*
X124237382Y-40632000D01*
X125237382Y-39774857D02*
X125189763Y-39727238D01*
X125046906Y-39679619D01*
X124951668Y-39679619D01*
X124808810Y-39727238D01*
X124713572Y-39822476D01*
X124665953Y-39917714D01*
X124618334Y-40108190D01*
X124618334Y-40251048D01*
X124665953Y-40441524D01*
X124713572Y-40536762D01*
X124808810Y-40632000D01*
X124951668Y-40679619D01*
X125046906Y-40679619D01*
X125189763Y-40632000D01*
X125237382Y-40584381D01*
X126142144Y-39679619D02*
X125665953Y-39679619D01*
X125665953Y-40679619D01*
X136873810Y-39790714D02*
X136492858Y-39790714D01*
X136730953Y-39457381D02*
X136730953Y-40314524D01*
X136683334Y-40409762D01*
X136588096Y-40457381D01*
X136492858Y-40457381D01*
X135778571Y-40409762D02*
X135873809Y-40457381D01*
X136064286Y-40457381D01*
X136159524Y-40409762D01*
X136207143Y-40314524D01*
X136207143Y-39933571D01*
X136159524Y-39838333D01*
X136064286Y-39790714D01*
X135873809Y-39790714D01*
X135778571Y-39838333D01*
X135730952Y-39933571D01*
X135730952Y-40028810D01*
X136207143Y-40124048D01*
X135302381Y-40457381D02*
X135302381Y-39790714D01*
X135302381Y-39885952D02*
X135254762Y-39838333D01*
X135159524Y-39790714D01*
X135016666Y-39790714D01*
X134921428Y-39838333D01*
X134873809Y-39933571D01*
X134873809Y-40457381D01*
X134873809Y-39933571D02*
X134826190Y-39838333D01*
X134730952Y-39790714D01*
X134588095Y-39790714D01*
X134492857Y-39838333D01*
X134445238Y-39933571D01*
X134445238Y-40457381D01*
X133969048Y-39790714D02*
X133969048Y-40790714D01*
X133969048Y-39838333D02*
X133873810Y-39790714D01*
X133683333Y-39790714D01*
X133588095Y-39838333D01*
X133540476Y-39885952D01*
X133492857Y-39981190D01*
X133492857Y-40266905D01*
X133540476Y-40362143D01*
X133588095Y-40409762D01*
X133683333Y-40457381D01*
X133873810Y-40457381D01*
X133969048Y-40409762D01*
X133302381Y-40552619D02*
X132540476Y-40552619D01*
X132350000Y-40409762D02*
X132207143Y-40457381D01*
X131969047Y-40457381D01*
X131873809Y-40409762D01*
X131826190Y-40362143D01*
X131778571Y-40266905D01*
X131778571Y-40171667D01*
X131826190Y-40076429D01*
X131873809Y-40028810D01*
X131969047Y-39981190D01*
X132159524Y-39933571D01*
X132254762Y-39885952D01*
X132302381Y-39838333D01*
X132350000Y-39743095D01*
X132350000Y-39647857D01*
X132302381Y-39552619D01*
X132254762Y-39505000D01*
X132159524Y-39457381D01*
X131921428Y-39457381D01*
X131778571Y-39505000D01*
X131350000Y-40457381D02*
X131350000Y-39457381D01*
X131111905Y-39457381D01*
X130969047Y-39505000D01*
X130873809Y-39600238D01*
X130826190Y-39695476D01*
X130778571Y-39885952D01*
X130778571Y-40028810D01*
X130826190Y-40219286D01*
X130873809Y-40314524D01*
X130969047Y-40409762D01*
X131111905Y-40457381D01*
X131350000Y-40457381D01*
X130397619Y-40171667D02*
X129921428Y-40171667D01*
X130492857Y-40457381D02*
X130159524Y-39457381D01*
X129826190Y-40457381D01*
X126150666Y-31821381D02*
X126484000Y-31345190D01*
X126722095Y-31821381D02*
X126722095Y-30821381D01*
X126341142Y-30821381D01*
X126245904Y-30869000D01*
X126198285Y-30916619D01*
X126150666Y-31011857D01*
X126150666Y-31154714D01*
X126198285Y-31249952D01*
X126245904Y-31297571D01*
X126341142Y-31345190D01*
X126722095Y-31345190D01*
X125817333Y-30821381D02*
X125150666Y-31821381D01*
X125150666Y-30821381D02*
X125817333Y-31821381D01*
X120903905Y-30567381D02*
X120332476Y-30567381D01*
X120618191Y-31567381D02*
X120618191Y-30567381D01*
X120094381Y-30567381D02*
X119427714Y-31567381D01*
X119427714Y-30567381D02*
X120094381Y-31567381D01*
X123261381Y-31480286D02*
X122785190Y-31146952D01*
X123261381Y-30908857D02*
X122261381Y-30908857D01*
X122261381Y-31289810D01*
X122309000Y-31385048D01*
X122356619Y-31432667D01*
X122451857Y-31480286D01*
X122594714Y-31480286D01*
X122689952Y-31432667D01*
X122737571Y-31385048D01*
X122785190Y-31289810D01*
X122785190Y-30908857D01*
X123261381Y-32337429D02*
X122737571Y-32337429D01*
X122642333Y-32289810D01*
X122594714Y-32194572D01*
X122594714Y-32004095D01*
X122642333Y-31908857D01*
X123213762Y-32337429D02*
X123261381Y-32242191D01*
X123261381Y-32004095D01*
X123213762Y-31908857D01*
X123118524Y-31861238D01*
X123023286Y-31861238D01*
X122928048Y-31908857D01*
X122880429Y-32004095D01*
X122880429Y-32242191D01*
X122832810Y-32337429D01*
X123213762Y-32766000D02*
X123261381Y-32861238D01*
X123261381Y-33051714D01*
X123213762Y-33146953D01*
X123118524Y-33194572D01*
X123070905Y-33194572D01*
X122975667Y-33146953D01*
X122928048Y-33051714D01*
X122928048Y-32908857D01*
X122880429Y-32813619D01*
X122785190Y-32766000D01*
X122737571Y-32766000D01*
X122642333Y-32813619D01*
X122594714Y-32908857D01*
X122594714Y-33051714D01*
X122642333Y-33146953D01*
X123261381Y-33623143D02*
X122261381Y-33623143D01*
X122261381Y-34004096D01*
X122309000Y-34099334D01*
X122356619Y-34146953D01*
X122451857Y-34194572D01*
X122594714Y-34194572D01*
X122689952Y-34146953D01*
X122737571Y-34099334D01*
X122785190Y-34004096D01*
X122785190Y-33623143D01*
X123261381Y-34623143D02*
X122594714Y-34623143D01*
X122261381Y-34623143D02*
X122309000Y-34575524D01*
X122356619Y-34623143D01*
X122309000Y-34670762D01*
X122261381Y-34623143D01*
X122356619Y-34623143D01*
X75311000Y-43053000D02*
X75184000Y-42926000D01*
X76454000Y-43053000D02*
X75311000Y-43053000D01*
X76454000Y-41275000D02*
X76454000Y-43053000D01*
X76200000Y-41275000D02*
X76454000Y-41275000D01*
X76200000Y-40894000D02*
X76200000Y-41275000D01*
X75184000Y-34290000D02*
X75946000Y-34290000D01*
X74422000Y-35814000D02*
X75184000Y-34290000D01*
X73787000Y-35814000D02*
X74422000Y-35814000D01*
D13*
X75271381Y-34592000D02*
X75271381Y-35211048D01*
X75652333Y-34877714D01*
X75652333Y-35020572D01*
X75699952Y-35115810D01*
X75747571Y-35163429D01*
X75842810Y-35211048D01*
X76080905Y-35211048D01*
X76176143Y-35163429D01*
X76223762Y-35115810D01*
X76271381Y-35020572D01*
X76271381Y-34734857D01*
X76223762Y-34639619D01*
X76176143Y-34592000D01*
X76271381Y-35544381D02*
X75604714Y-36068191D01*
X75604714Y-35544381D02*
X76271381Y-36068191D01*
X76271381Y-37734858D02*
X76271381Y-37163429D01*
X76271381Y-37449143D02*
X75271381Y-37449143D01*
X75414238Y-37353905D01*
X75509476Y-37258667D01*
X75557095Y-37163429D01*
X75271381Y-38353905D02*
X75271381Y-38449144D01*
X75319000Y-38544382D01*
X75366619Y-38592001D01*
X75461857Y-38639620D01*
X75652333Y-38687239D01*
X75890429Y-38687239D01*
X76080905Y-38639620D01*
X76176143Y-38592001D01*
X76223762Y-38544382D01*
X76271381Y-38449144D01*
X76271381Y-38353905D01*
X76223762Y-38258667D01*
X76176143Y-38211048D01*
X76080905Y-38163429D01*
X75890429Y-38115810D01*
X75652333Y-38115810D01*
X75461857Y-38163429D01*
X75366619Y-38211048D01*
X75319000Y-38258667D01*
X75271381Y-38353905D01*
X75271381Y-39306286D02*
X75271381Y-39401525D01*
X75319000Y-39496763D01*
X75366619Y-39544382D01*
X75461857Y-39592001D01*
X75652333Y-39639620D01*
X75890429Y-39639620D01*
X76080905Y-39592001D01*
X76176143Y-39544382D01*
X76223762Y-39496763D01*
X76271381Y-39401525D01*
X76271381Y-39306286D01*
X76223762Y-39211048D01*
X76176143Y-39163429D01*
X76080905Y-39115810D01*
X75890429Y-39068191D01*
X75652333Y-39068191D01*
X75461857Y-39115810D01*
X75366619Y-39163429D01*
X75319000Y-39211048D01*
X75271381Y-39306286D01*
X75604714Y-40068191D02*
X76271381Y-40068191D01*
X75699952Y-40068191D02*
X75652333Y-40115810D01*
X75604714Y-40211048D01*
X75604714Y-40353906D01*
X75652333Y-40449144D01*
X75747571Y-40496763D01*
X76271381Y-40496763D01*
D12*
X67056000Y-49149000D02*
X69596000Y-49657000D01*
X67056000Y-48895000D02*
X67056000Y-49149000D01*
X75184000Y-49022000D02*
X75184000Y-49530000D01*
X73279000Y-48768000D02*
X75184000Y-49022000D01*
D13*
X74866191Y-49204619D02*
X74818572Y-49157000D01*
X74723334Y-49109381D01*
X74485238Y-49109381D01*
X74390000Y-49157000D01*
X74342381Y-49204619D01*
X74294762Y-49299857D01*
X74294762Y-49395095D01*
X74342381Y-49537952D01*
X74913810Y-50109381D01*
X74294762Y-50109381D01*
X73961429Y-50109381D02*
X73437619Y-49442714D01*
X73961429Y-49442714D02*
X73437619Y-50109381D01*
X71770952Y-50109381D02*
X72342381Y-50109381D01*
X72056667Y-50109381D02*
X72056667Y-49109381D01*
X72151905Y-49252238D01*
X72247143Y-49347476D01*
X72342381Y-49395095D01*
X71151905Y-49109381D02*
X71056666Y-49109381D01*
X70961428Y-49157000D01*
X70913809Y-49204619D01*
X70866190Y-49299857D01*
X70818571Y-49490333D01*
X70818571Y-49728429D01*
X70866190Y-49918905D01*
X70913809Y-50014143D01*
X70961428Y-50061762D01*
X71056666Y-50109381D01*
X71151905Y-50109381D01*
X71247143Y-50061762D01*
X71294762Y-50014143D01*
X71342381Y-49918905D01*
X71390000Y-49728429D01*
X71390000Y-49490333D01*
X71342381Y-49299857D01*
X71294762Y-49204619D01*
X71247143Y-49157000D01*
X71151905Y-49109381D01*
X70390000Y-49442714D02*
X70390000Y-50109381D01*
X70390000Y-49537952D02*
X70342381Y-49490333D01*
X70247143Y-49442714D01*
X70104285Y-49442714D01*
X70009047Y-49490333D01*
X69961428Y-49585571D01*
X69961428Y-50109381D01*
D12*
X75946000Y-54991000D02*
X74930000Y-54991000D01*
X75946000Y-57277000D02*
X75946000Y-54991000D01*
X75692000Y-63754000D02*
X76327000Y-63754000D01*
X75311000Y-63500000D02*
X75692000Y-63754000D01*
X74930000Y-63500000D02*
X75311000Y-63500000D01*
D13*
X75271381Y-57579000D02*
X75271381Y-58198048D01*
X75652333Y-57864714D01*
X75652333Y-58007572D01*
X75699952Y-58102810D01*
X75747571Y-58150429D01*
X75842810Y-58198048D01*
X76080905Y-58198048D01*
X76176143Y-58150429D01*
X76223762Y-58102810D01*
X76271381Y-58007572D01*
X76271381Y-57721857D01*
X76223762Y-57626619D01*
X76176143Y-57579000D01*
X76271381Y-58531381D02*
X75604714Y-59055191D01*
X75604714Y-58531381D02*
X76271381Y-59055191D01*
X76271381Y-60721858D02*
X76271381Y-60150429D01*
X76271381Y-60436143D02*
X75271381Y-60436143D01*
X75414238Y-60340905D01*
X75509476Y-60245667D01*
X75557095Y-60150429D01*
X75271381Y-61340905D02*
X75271381Y-61436144D01*
X75319000Y-61531382D01*
X75366619Y-61579001D01*
X75461857Y-61626620D01*
X75652333Y-61674239D01*
X75890429Y-61674239D01*
X76080905Y-61626620D01*
X76176143Y-61579001D01*
X76223762Y-61531382D01*
X76271381Y-61436144D01*
X76271381Y-61340905D01*
X76223762Y-61245667D01*
X76176143Y-61198048D01*
X76080905Y-61150429D01*
X75890429Y-61102810D01*
X75652333Y-61102810D01*
X75461857Y-61150429D01*
X75366619Y-61198048D01*
X75319000Y-61245667D01*
X75271381Y-61340905D01*
X75271381Y-62293286D02*
X75271381Y-62388525D01*
X75319000Y-62483763D01*
X75366619Y-62531382D01*
X75461857Y-62579001D01*
X75652333Y-62626620D01*
X75890429Y-62626620D01*
X76080905Y-62579001D01*
X76176143Y-62531382D01*
X76223762Y-62483763D01*
X76271381Y-62388525D01*
X76271381Y-62293286D01*
X76223762Y-62198048D01*
X76176143Y-62150429D01*
X76080905Y-62102810D01*
X75890429Y-62055191D01*
X75652333Y-62055191D01*
X75461857Y-62102810D01*
X75366619Y-62150429D01*
X75319000Y-62198048D01*
X75271381Y-62293286D01*
X75604714Y-63055191D02*
X76271381Y-63055191D01*
X75699952Y-63055191D02*
X75652333Y-63102810D01*
X75604714Y-63198048D01*
X75604714Y-63340906D01*
X75652333Y-63436144D01*
X75747571Y-63483763D01*
X76271381Y-63483763D01*
D12*
X75819000Y-84455000D02*
X75819000Y-84074000D01*
X74930000Y-84455000D02*
X75819000Y-84455000D01*
X75946000Y-75946000D02*
X75946000Y-77470000D01*
X74930000Y-75946000D02*
X75946000Y-75946000D01*
D13*
X75144381Y-77899000D02*
X75144381Y-78518048D01*
X75525333Y-78184714D01*
X75525333Y-78327572D01*
X75572952Y-78422810D01*
X75620571Y-78470429D01*
X75715810Y-78518048D01*
X75953905Y-78518048D01*
X76049143Y-78470429D01*
X76096762Y-78422810D01*
X76144381Y-78327572D01*
X76144381Y-78041857D01*
X76096762Y-77946619D01*
X76049143Y-77899000D01*
X76144381Y-78851381D02*
X75477714Y-79375191D01*
X75477714Y-78851381D02*
X76144381Y-79375191D01*
X76144381Y-81041858D02*
X76144381Y-80470429D01*
X76144381Y-80756143D02*
X75144381Y-80756143D01*
X75287238Y-80660905D01*
X75382476Y-80565667D01*
X75430095Y-80470429D01*
X75144381Y-81660905D02*
X75144381Y-81756144D01*
X75192000Y-81851382D01*
X75239619Y-81899001D01*
X75334857Y-81946620D01*
X75525333Y-81994239D01*
X75763429Y-81994239D01*
X75953905Y-81946620D01*
X76049143Y-81899001D01*
X76096762Y-81851382D01*
X76144381Y-81756144D01*
X76144381Y-81660905D01*
X76096762Y-81565667D01*
X76049143Y-81518048D01*
X75953905Y-81470429D01*
X75763429Y-81422810D01*
X75525333Y-81422810D01*
X75334857Y-81470429D01*
X75239619Y-81518048D01*
X75192000Y-81565667D01*
X75144381Y-81660905D01*
X75144381Y-82613286D02*
X75144381Y-82708525D01*
X75192000Y-82803763D01*
X75239619Y-82851382D01*
X75334857Y-82899001D01*
X75525333Y-82946620D01*
X75763429Y-82946620D01*
X75953905Y-82899001D01*
X76049143Y-82851382D01*
X76096762Y-82803763D01*
X76144381Y-82708525D01*
X76144381Y-82613286D01*
X76096762Y-82518048D01*
X76049143Y-82470429D01*
X75953905Y-82422810D01*
X75763429Y-82375191D01*
X75525333Y-82375191D01*
X75334857Y-82422810D01*
X75239619Y-82470429D01*
X75192000Y-82518048D01*
X75144381Y-82613286D01*
X75477714Y-83375191D02*
X76144381Y-83375191D01*
X75572952Y-83375191D02*
X75525333Y-83422810D01*
X75477714Y-83518048D01*
X75477714Y-83660906D01*
X75525333Y-83756144D01*
X75620571Y-83803763D01*
X76144381Y-83803763D01*
X75929810Y-69556381D02*
X75310762Y-69556381D01*
X75644096Y-69937333D01*
X75501238Y-69937333D01*
X75406000Y-69984952D01*
X75358381Y-70032571D01*
X75310762Y-70127810D01*
X75310762Y-70365905D01*
X75358381Y-70461143D01*
X75406000Y-70508762D01*
X75501238Y-70556381D01*
X75786953Y-70556381D01*
X75882191Y-70508762D01*
X75929810Y-70461143D01*
X74977429Y-70556381D02*
X74453619Y-69889714D01*
X74977429Y-69889714D02*
X74453619Y-70556381D01*
X72786952Y-70556381D02*
X73358381Y-70556381D01*
X73072667Y-70556381D02*
X73072667Y-69556381D01*
X73167905Y-69699238D01*
X73263143Y-69794476D01*
X73358381Y-69842095D01*
X72167905Y-69556381D02*
X72072666Y-69556381D01*
X71977428Y-69604000D01*
X71929809Y-69651619D01*
X71882190Y-69746857D01*
X71834571Y-69937333D01*
X71834571Y-70175429D01*
X71882190Y-70365905D01*
X71929809Y-70461143D01*
X71977428Y-70508762D01*
X72072666Y-70556381D01*
X72167905Y-70556381D01*
X72263143Y-70508762D01*
X72310762Y-70461143D01*
X72358381Y-70365905D01*
X72406000Y-70175429D01*
X72406000Y-69937333D01*
X72358381Y-69746857D01*
X72310762Y-69651619D01*
X72263143Y-69604000D01*
X72167905Y-69556381D01*
X71406000Y-69889714D02*
X71406000Y-70556381D01*
X71406000Y-69984952D02*
X71358381Y-69937333D01*
X71263143Y-69889714D01*
X71120285Y-69889714D01*
X71025047Y-69937333D01*
X70977428Y-70032571D01*
X70977428Y-70556381D01*
D12*
X76200000Y-69215000D02*
X76200000Y-69977000D01*
X67056000Y-69596000D02*
X70866000Y-69596000D01*
X67056000Y-69215000D02*
X67056000Y-69596000D01*
X63308762Y-67842000D02*
X63356381Y-67984857D01*
X63356381Y-68222953D01*
X63308762Y-68318191D01*
X63261143Y-68365810D01*
X63165905Y-68413429D01*
X63070667Y-68413429D01*
X62975429Y-68365810D01*
X62927810Y-68318191D01*
X62880190Y-68222953D01*
X62832571Y-68032476D01*
X62784952Y-67937238D01*
X62737333Y-67889619D01*
X62642095Y-67842000D01*
X62546857Y-67842000D01*
X62451619Y-67889619D01*
X62404000Y-67937238D01*
X62356381Y-68032476D01*
X62356381Y-68270572D01*
X62404000Y-68413429D01*
X63356381Y-68842000D02*
X62356381Y-68842000D01*
X62356381Y-69222953D01*
X62404000Y-69318191D01*
X62451619Y-69365810D01*
X62546857Y-69413429D01*
X62689714Y-69413429D01*
X62784952Y-69365810D01*
X62832571Y-69318191D01*
X62880190Y-69222953D01*
X62880190Y-68842000D01*
X63356381Y-69842000D02*
X62356381Y-69842000D01*
X63356381Y-70842000D02*
X63356381Y-70270571D01*
X63356381Y-70556285D02*
X62356381Y-70556285D01*
X62499238Y-70461047D01*
X62594476Y-70365809D01*
X62642095Y-70270571D01*
X64961143Y-68699143D02*
X65008762Y-68651524D01*
X65056381Y-68508667D01*
X65056381Y-68413429D01*
X65008762Y-68270571D01*
X64913524Y-68175333D01*
X64818286Y-68127714D01*
X64627810Y-68080095D01*
X64484952Y-68080095D01*
X64294476Y-68127714D01*
X64199238Y-68175333D01*
X64104000Y-68270571D01*
X64056381Y-68413429D01*
X64056381Y-68508667D01*
X64104000Y-68651524D01*
X64151619Y-68699143D01*
X65008762Y-69080095D02*
X65056381Y-69222952D01*
X65056381Y-69461048D01*
X65008762Y-69556286D01*
X64961143Y-69603905D01*
X64865905Y-69651524D01*
X64770667Y-69651524D01*
X64675429Y-69603905D01*
X64627810Y-69556286D01*
X64580190Y-69461048D01*
X64532571Y-69270571D01*
X64484952Y-69175333D01*
X64437333Y-69127714D01*
X64342095Y-69080095D01*
X64246857Y-69080095D01*
X64151619Y-69127714D01*
X64104000Y-69175333D01*
X64056381Y-69270571D01*
X64056381Y-69508667D01*
X64104000Y-69651524D01*
X65056381Y-70603905D02*
X65056381Y-70032476D01*
X65056381Y-70318190D02*
X64056381Y-70318190D01*
X64199238Y-70222952D01*
X64294476Y-70127714D01*
X64342095Y-70032476D01*
X63754000Y-51054000D02*
X64262000Y-50800000D01*
X63754000Y-50546000D02*
X63754000Y-51054000D01*
X64262000Y-50800000D02*
X63754000Y-50546000D01*
X62992000Y-50800000D02*
X64262000Y-50800000D01*
X60895762Y-48284000D02*
X60943381Y-48426857D01*
X60943381Y-48664953D01*
X60895762Y-48760191D01*
X60848143Y-48807810D01*
X60752905Y-48855429D01*
X60657667Y-48855429D01*
X60562429Y-48807810D01*
X60514810Y-48760191D01*
X60467190Y-48664953D01*
X60419571Y-48474476D01*
X60371952Y-48379238D01*
X60324333Y-48331619D01*
X60229095Y-48284000D01*
X60133857Y-48284000D01*
X60038619Y-48331619D01*
X59991000Y-48379238D01*
X59943381Y-48474476D01*
X59943381Y-48712572D01*
X59991000Y-48855429D01*
X60943381Y-49284000D02*
X59943381Y-49284000D01*
X59943381Y-49664953D01*
X59991000Y-49760191D01*
X60038619Y-49807810D01*
X60133857Y-49855429D01*
X60276714Y-49855429D01*
X60371952Y-49807810D01*
X60419571Y-49760191D01*
X60467190Y-49664953D01*
X60467190Y-49284000D01*
X60943381Y-50284000D02*
X59943381Y-50284000D01*
X60943381Y-51284000D02*
X60943381Y-50712571D01*
X60943381Y-50998285D02*
X59943381Y-50998285D01*
X60086238Y-50903047D01*
X60181476Y-50807809D01*
X60229095Y-50712571D01*
X62548143Y-49141143D02*
X62595762Y-49093524D01*
X62643381Y-48950667D01*
X62643381Y-48855429D01*
X62595762Y-48712571D01*
X62500524Y-48617333D01*
X62405286Y-48569714D01*
X62214810Y-48522095D01*
X62071952Y-48522095D01*
X61881476Y-48569714D01*
X61786238Y-48617333D01*
X61691000Y-48712571D01*
X61643381Y-48855429D01*
X61643381Y-48950667D01*
X61691000Y-49093524D01*
X61738619Y-49141143D01*
X62595762Y-49522095D02*
X62643381Y-49664952D01*
X62643381Y-49903048D01*
X62595762Y-49998286D01*
X62548143Y-50045905D01*
X62452905Y-50093524D01*
X62357667Y-50093524D01*
X62262429Y-50045905D01*
X62214810Y-49998286D01*
X62167190Y-49903048D01*
X62119571Y-49712571D01*
X62071952Y-49617333D01*
X62024333Y-49569714D01*
X61929095Y-49522095D01*
X61833857Y-49522095D01*
X61738619Y-49569714D01*
X61691000Y-49617333D01*
X61643381Y-49712571D01*
X61643381Y-49950667D01*
X61691000Y-50093524D01*
X61738619Y-50474476D02*
X61691000Y-50522095D01*
X61643381Y-50617333D01*
X61643381Y-50855429D01*
X61691000Y-50950667D01*
X61738619Y-50998286D01*
X61833857Y-51045905D01*
X61929095Y-51045905D01*
X62071952Y-50998286D01*
X62643381Y-50426857D01*
X62643381Y-51045905D01*
X62292762Y-29234000D02*
X62340381Y-29376857D01*
X62340381Y-29614953D01*
X62292762Y-29710191D01*
X62245143Y-29757810D01*
X62149905Y-29805429D01*
X62054667Y-29805429D01*
X61959429Y-29757810D01*
X61911810Y-29710191D01*
X61864190Y-29614953D01*
X61816571Y-29424476D01*
X61768952Y-29329238D01*
X61721333Y-29281619D01*
X61626095Y-29234000D01*
X61530857Y-29234000D01*
X61435619Y-29281619D01*
X61388000Y-29329238D01*
X61340381Y-29424476D01*
X61340381Y-29662572D01*
X61388000Y-29805429D01*
X62340381Y-30234000D02*
X61340381Y-30234000D01*
X61340381Y-30614953D01*
X61388000Y-30710191D01*
X61435619Y-30757810D01*
X61530857Y-30805429D01*
X61673714Y-30805429D01*
X61768952Y-30757810D01*
X61816571Y-30710191D01*
X61864190Y-30614953D01*
X61864190Y-30234000D01*
X62340381Y-31234000D02*
X61340381Y-31234000D01*
X62340381Y-32234000D02*
X62340381Y-31662571D01*
X62340381Y-31948285D02*
X61340381Y-31948285D01*
X61483238Y-31853047D01*
X61578476Y-31757809D01*
X61626095Y-31662571D01*
X63945143Y-30091143D02*
X63992762Y-30043524D01*
X64040381Y-29900667D01*
X64040381Y-29805429D01*
X63992762Y-29662571D01*
X63897524Y-29567333D01*
X63802286Y-29519714D01*
X63611810Y-29472095D01*
X63468952Y-29472095D01*
X63278476Y-29519714D01*
X63183238Y-29567333D01*
X63088000Y-29662571D01*
X63040381Y-29805429D01*
X63040381Y-29900667D01*
X63088000Y-30043524D01*
X63135619Y-30091143D01*
X63992762Y-30472095D02*
X64040381Y-30614952D01*
X64040381Y-30853048D01*
X63992762Y-30948286D01*
X63945143Y-30995905D01*
X63849905Y-31043524D01*
X63754667Y-31043524D01*
X63659429Y-30995905D01*
X63611810Y-30948286D01*
X63564190Y-30853048D01*
X63516571Y-30662571D01*
X63468952Y-30567333D01*
X63421333Y-30519714D01*
X63326095Y-30472095D01*
X63230857Y-30472095D01*
X63135619Y-30519714D01*
X63088000Y-30567333D01*
X63040381Y-30662571D01*
X63040381Y-30900667D01*
X63088000Y-31043524D01*
X63040381Y-31376857D02*
X63040381Y-31995905D01*
X63421333Y-31662571D01*
X63421333Y-31805429D01*
X63468952Y-31900667D01*
X63516571Y-31948286D01*
X63611810Y-31995905D01*
X63849905Y-31995905D01*
X63945143Y-31948286D01*
X63992762Y-31900667D01*
X64040381Y-31805429D01*
X64040381Y-31519714D01*
X63992762Y-31424476D01*
X63945143Y-31376857D01*
D13*
X78192381Y-43101000D02*
X78192381Y-43720048D01*
X78573333Y-43386714D01*
X78573333Y-43529572D01*
X78620952Y-43624810D01*
X78668571Y-43672429D01*
X78763810Y-43720048D01*
X79001905Y-43720048D01*
X79097143Y-43672429D01*
X79144762Y-43624810D01*
X79192381Y-43529572D01*
X79192381Y-43243857D01*
X79144762Y-43148619D01*
X79097143Y-43101000D01*
X78192381Y-44053381D02*
X78192381Y-44672429D01*
X78573333Y-44339095D01*
X78573333Y-44481953D01*
X78620952Y-44577191D01*
X78668571Y-44624810D01*
X78763810Y-44672429D01*
X79001905Y-44672429D01*
X79097143Y-44624810D01*
X79144762Y-44577191D01*
X79192381Y-44481953D01*
X79192381Y-44196238D01*
X79144762Y-44101000D01*
X79097143Y-44053381D01*
X79192381Y-45005762D02*
X78525714Y-45529572D01*
X78525714Y-45005762D02*
X79192381Y-45529572D01*
X79192381Y-47196239D02*
X79192381Y-46624810D01*
X79192381Y-46910524D02*
X78192381Y-46910524D01*
X78335238Y-46815286D01*
X78430476Y-46720048D01*
X78478095Y-46624810D01*
X78192381Y-47815286D02*
X78192381Y-47910525D01*
X78240000Y-48005763D01*
X78287619Y-48053382D01*
X78382857Y-48101001D01*
X78573333Y-48148620D01*
X78811429Y-48148620D01*
X79001905Y-48101001D01*
X79097143Y-48053382D01*
X79144762Y-48005763D01*
X79192381Y-47910525D01*
X79192381Y-47815286D01*
X79144762Y-47720048D01*
X79097143Y-47672429D01*
X79001905Y-47624810D01*
X78811429Y-47577191D01*
X78573333Y-47577191D01*
X78382857Y-47624810D01*
X78287619Y-47672429D01*
X78240000Y-47720048D01*
X78192381Y-47815286D01*
X78525714Y-48577191D02*
X79192381Y-48577191D01*
X78620952Y-48577191D02*
X78573333Y-48624810D01*
X78525714Y-48720048D01*
X78525714Y-48862906D01*
X78573333Y-48958144D01*
X78668571Y-49005763D01*
X79192381Y-49005763D01*
D12*
X78740000Y-69850000D02*
X80010000Y-69850000D01*
X78740000Y-49530000D02*
X78740000Y-69850000D01*
X78740000Y-27940000D02*
X78740000Y-42672000D01*
X80010000Y-27940000D02*
X78740000Y-27940000D01*
X79502000Y-82804000D02*
X79502000Y-83566000D01*
X79502000Y-82804000D02*
X90805000Y-82804000D01*
X109855000Y-82804000D02*
X109855000Y-83566000D01*
X98044000Y-82804000D02*
X109855000Y-82804000D01*
D13*
X96614952Y-83256381D02*
X97186381Y-83256381D01*
X96900667Y-83256381D02*
X96900667Y-82256381D01*
X96995905Y-82399238D01*
X97091143Y-82494476D01*
X97186381Y-82542095D01*
X96043524Y-82684952D02*
X96138762Y-82637333D01*
X96186381Y-82589714D01*
X96234000Y-82494476D01*
X96234000Y-82446857D01*
X96186381Y-82351619D01*
X96138762Y-82304000D01*
X96043524Y-82256381D01*
X95853047Y-82256381D01*
X95757809Y-82304000D01*
X95710190Y-82351619D01*
X95662571Y-82446857D01*
X95662571Y-82494476D01*
X95710190Y-82589714D01*
X95757809Y-82637333D01*
X95853047Y-82684952D01*
X96043524Y-82684952D01*
X96138762Y-82732571D01*
X96186381Y-82780190D01*
X96234000Y-82875429D01*
X96234000Y-83065905D01*
X96186381Y-83161143D01*
X96138762Y-83208762D01*
X96043524Y-83256381D01*
X95853047Y-83256381D01*
X95757809Y-83208762D01*
X95710190Y-83161143D01*
X95662571Y-83065905D01*
X95662571Y-82875429D01*
X95710190Y-82780190D01*
X95757809Y-82732571D01*
X95853047Y-82684952D01*
X95329238Y-83256381D02*
X94805428Y-82589714D01*
X95329238Y-82589714D02*
X94805428Y-83256381D01*
X93138761Y-83256381D02*
X93710190Y-83256381D01*
X93424476Y-83256381D02*
X93424476Y-82256381D01*
X93519714Y-82399238D01*
X93614952Y-82494476D01*
X93710190Y-82542095D01*
X92519714Y-82256381D02*
X92424475Y-82256381D01*
X92329237Y-82304000D01*
X92281618Y-82351619D01*
X92233999Y-82446857D01*
X92186380Y-82637333D01*
X92186380Y-82875429D01*
X92233999Y-83065905D01*
X92281618Y-83161143D01*
X92329237Y-83208762D01*
X92424475Y-83256381D01*
X92519714Y-83256381D01*
X92614952Y-83208762D01*
X92662571Y-83161143D01*
X92710190Y-83065905D01*
X92757809Y-82875429D01*
X92757809Y-82637333D01*
X92710190Y-82446857D01*
X92662571Y-82351619D01*
X92614952Y-82304000D01*
X92519714Y-82256381D01*
X91757809Y-82589714D02*
X91757809Y-83256381D01*
X91757809Y-82684952D02*
X91710190Y-82637333D01*
X91614952Y-82589714D01*
X91472094Y-82589714D01*
X91376856Y-82637333D01*
X91329237Y-82732571D01*
X91329237Y-83256381D01*
D12*
X121412000Y-73914000D02*
X121285000Y-73406000D01*
X121793000Y-73533000D02*
X121412000Y-73914000D01*
X121285000Y-73406000D02*
X121793000Y-73533000D01*
X122301000Y-74549000D02*
X121285000Y-73406000D01*
X129032000Y-75692000D02*
X128397000Y-75819000D01*
X128651000Y-75184000D02*
X129032000Y-75692000D01*
X128397000Y-75819000D02*
X128651000Y-75184000D01*
X128397000Y-75819000D02*
X129413000Y-75057000D01*
X129032000Y-82677000D02*
X128651000Y-82042000D01*
X129413000Y-82042000D02*
X129032000Y-82677000D01*
X128651000Y-82042000D02*
X129413000Y-82042000D01*
X130429000Y-83058000D02*
X128651000Y-82042000D01*
X140565143Y-85431334D02*
X140612762Y-85383715D01*
X140660381Y-85240858D01*
X140660381Y-85145620D01*
X140612762Y-85002762D01*
X140517524Y-84907524D01*
X140422286Y-84859905D01*
X140231810Y-84812286D01*
X140088952Y-84812286D01*
X139898476Y-84859905D01*
X139803238Y-84907524D01*
X139708000Y-85002762D01*
X139660381Y-85145620D01*
X139660381Y-85240858D01*
X139708000Y-85383715D01*
X139755619Y-85431334D01*
X140612762Y-85812286D02*
X140660381Y-85955143D01*
X140660381Y-86193239D01*
X140612762Y-86288477D01*
X140565143Y-86336096D01*
X140469905Y-86383715D01*
X140374667Y-86383715D01*
X140279429Y-86336096D01*
X140231810Y-86288477D01*
X140184190Y-86193239D01*
X140136571Y-86002762D01*
X140088952Y-85907524D01*
X140041333Y-85859905D01*
X139946095Y-85812286D01*
X139850857Y-85812286D01*
X139755619Y-85859905D01*
X139708000Y-85907524D01*
X139660381Y-86002762D01*
X139660381Y-86240858D01*
X139708000Y-86383715D01*
X138755381Y-85042572D02*
X137755381Y-85042572D01*
X138469667Y-85375906D01*
X137755381Y-85709239D01*
X138755381Y-85709239D01*
X138755381Y-86185429D02*
X137755381Y-86185429D01*
X138707762Y-86614000D02*
X138755381Y-86756857D01*
X138755381Y-86994953D01*
X138707762Y-87090191D01*
X138660143Y-87137810D01*
X138564905Y-87185429D01*
X138469667Y-87185429D01*
X138374429Y-87137810D01*
X138326810Y-87090191D01*
X138279190Y-86994953D01*
X138231571Y-86804476D01*
X138183952Y-86709238D01*
X138136333Y-86661619D01*
X138041095Y-86614000D01*
X137945857Y-86614000D01*
X137850619Y-86661619D01*
X137803000Y-86709238D01*
X137755381Y-86804476D01*
X137755381Y-87042572D01*
X137803000Y-87185429D01*
X137755381Y-87804476D02*
X137755381Y-87994953D01*
X137803000Y-88090191D01*
X137898238Y-88185429D01*
X138088714Y-88233048D01*
X138422048Y-88233048D01*
X138612524Y-88185429D01*
X138707762Y-88090191D01*
X138755381Y-87994953D01*
X138755381Y-87804476D01*
X138707762Y-87709238D01*
X138612524Y-87614000D01*
X138422048Y-87566381D01*
X138088714Y-87566381D01*
X137898238Y-87614000D01*
X137803000Y-87709238D01*
X137755381Y-87804476D01*
X135580381Y-70183572D02*
X134580381Y-70183572D01*
X135294667Y-70516906D01*
X134580381Y-70850239D01*
X135580381Y-70850239D01*
X134580381Y-71516905D02*
X134580381Y-71707382D01*
X134628000Y-71802620D01*
X134723238Y-71897858D01*
X134913714Y-71945477D01*
X135247048Y-71945477D01*
X135437524Y-71897858D01*
X135532762Y-71802620D01*
X135580381Y-71707382D01*
X135580381Y-71516905D01*
X135532762Y-71421667D01*
X135437524Y-71326429D01*
X135247048Y-71278810D01*
X134913714Y-71278810D01*
X134723238Y-71326429D01*
X134628000Y-71421667D01*
X134580381Y-71516905D01*
X135532762Y-72326429D02*
X135580381Y-72469286D01*
X135580381Y-72707382D01*
X135532762Y-72802620D01*
X135485143Y-72850239D01*
X135389905Y-72897858D01*
X135294667Y-72897858D01*
X135199429Y-72850239D01*
X135151810Y-72802620D01*
X135104190Y-72707382D01*
X135056571Y-72516905D01*
X135008952Y-72421667D01*
X134961333Y-72374048D01*
X134866095Y-72326429D01*
X134770857Y-72326429D01*
X134675619Y-72374048D01*
X134628000Y-72421667D01*
X134580381Y-72516905D01*
X134580381Y-72755001D01*
X134628000Y-72897858D01*
X135580381Y-73326429D02*
X134580381Y-73326429D01*
X137310762Y-70723286D02*
X137358381Y-70866143D01*
X137358381Y-71104239D01*
X137310762Y-71199477D01*
X137263143Y-71247096D01*
X137167905Y-71294715D01*
X137072667Y-71294715D01*
X136977429Y-71247096D01*
X136929810Y-71199477D01*
X136882190Y-71104239D01*
X136834571Y-70913762D01*
X136786952Y-70818524D01*
X136739333Y-70770905D01*
X136644095Y-70723286D01*
X136548857Y-70723286D01*
X136453619Y-70770905D01*
X136406000Y-70818524D01*
X136358381Y-70913762D01*
X136358381Y-71151858D01*
X136406000Y-71294715D01*
X137263143Y-72294715D02*
X137310762Y-72247096D01*
X137358381Y-72104239D01*
X137358381Y-72009001D01*
X137310762Y-71866143D01*
X137215524Y-71770905D01*
X137120286Y-71723286D01*
X136929810Y-71675667D01*
X136786952Y-71675667D01*
X136596476Y-71723286D01*
X136501238Y-71770905D01*
X136406000Y-71866143D01*
X136358381Y-72009001D01*
X136358381Y-72104239D01*
X136406000Y-72247096D01*
X136453619Y-72294715D01*
X137358381Y-72723286D02*
X136358381Y-72723286D01*
X137358381Y-73294715D02*
X136786952Y-72866143D01*
X136358381Y-73294715D02*
X136929810Y-72723286D01*
D11*
X141243857Y-74930429D02*
X141243857Y-74430429D01*
X142029571Y-74430429D02*
X140529571Y-74430429D01*
X140529571Y-75144715D01*
X142029571Y-75930429D02*
X141958143Y-75787571D01*
X141815286Y-75716143D01*
X140529571Y-75716143D01*
X142029571Y-77144714D02*
X141243857Y-77144714D01*
X141101000Y-77073285D01*
X141029571Y-76930428D01*
X141029571Y-76644714D01*
X141101000Y-76501857D01*
X141958143Y-77144714D02*
X142029571Y-77001857D01*
X142029571Y-76644714D01*
X141958143Y-76501857D01*
X141815286Y-76430428D01*
X141672429Y-76430428D01*
X141529571Y-76501857D01*
X141458143Y-76644714D01*
X141458143Y-77001857D01*
X141386714Y-77144714D01*
X141958143Y-77787571D02*
X142029571Y-77930428D01*
X142029571Y-78216143D01*
X141958143Y-78359000D01*
X141815286Y-78430428D01*
X141743857Y-78430428D01*
X141601000Y-78359000D01*
X141529571Y-78216143D01*
X141529571Y-78001857D01*
X141458143Y-77859000D01*
X141315286Y-77787571D01*
X141243857Y-77787571D01*
X141101000Y-77859000D01*
X141029571Y-78001857D01*
X141029571Y-78216143D01*
X141101000Y-78359000D01*
X142029571Y-79073286D02*
X140529571Y-79073286D01*
X142029571Y-79716143D02*
X141243857Y-79716143D01*
X141101000Y-79644714D01*
X141029571Y-79501857D01*
X141029571Y-79287572D01*
X141101000Y-79144714D01*
X141172429Y-79073286D01*
X142029571Y-82359000D02*
X142029571Y-81501857D01*
X142029571Y-81930429D02*
X140529571Y-81930429D01*
X140743857Y-81787572D01*
X140886714Y-81644714D01*
X140958143Y-81501857D01*
D12*
X127381000Y-78740000D02*
X128143000Y-78486000D01*
X127508000Y-78105000D02*
X127381000Y-78740000D01*
X128143000Y-78486000D02*
X127508000Y-78105000D01*
X126238000Y-78232000D02*
X128143000Y-78486000D01*
X124014762Y-78002000D02*
X124062381Y-78144857D01*
X124062381Y-78382953D01*
X124014762Y-78478191D01*
X123967143Y-78525810D01*
X123871905Y-78573429D01*
X123776667Y-78573429D01*
X123681429Y-78525810D01*
X123633810Y-78478191D01*
X123586190Y-78382953D01*
X123538571Y-78192476D01*
X123490952Y-78097238D01*
X123443333Y-78049619D01*
X123348095Y-78002000D01*
X123252857Y-78002000D01*
X123157619Y-78049619D01*
X123110000Y-78097238D01*
X123062381Y-78192476D01*
X123062381Y-78430572D01*
X123110000Y-78573429D01*
X124062381Y-79002000D02*
X123062381Y-79002000D01*
X123062381Y-79382953D01*
X123110000Y-79478191D01*
X123157619Y-79525810D01*
X123252857Y-79573429D01*
X123395714Y-79573429D01*
X123490952Y-79525810D01*
X123538571Y-79478191D01*
X123586190Y-79382953D01*
X123586190Y-79002000D01*
X124062381Y-80002000D02*
X123062381Y-80002000D01*
X123157619Y-80430571D02*
X123110000Y-80478190D01*
X123062381Y-80573428D01*
X123062381Y-80811524D01*
X123110000Y-80906762D01*
X123157619Y-80954381D01*
X123252857Y-81002000D01*
X123348095Y-81002000D01*
X123490952Y-80954381D01*
X124062381Y-80382952D01*
X124062381Y-81002000D01*
X125762381Y-77930572D02*
X124762381Y-77930572D01*
X125476667Y-78263906D01*
X124762381Y-78597239D01*
X125762381Y-78597239D01*
X125762381Y-79073429D02*
X124762381Y-79073429D01*
X125714762Y-79502000D02*
X125762381Y-79644857D01*
X125762381Y-79882953D01*
X125714762Y-79978191D01*
X125667143Y-80025810D01*
X125571905Y-80073429D01*
X125476667Y-80073429D01*
X125381429Y-80025810D01*
X125333810Y-79978191D01*
X125286190Y-79882953D01*
X125238571Y-79692476D01*
X125190952Y-79597238D01*
X125143333Y-79549619D01*
X125048095Y-79502000D01*
X124952857Y-79502000D01*
X124857619Y-79549619D01*
X124810000Y-79597238D01*
X124762381Y-79692476D01*
X124762381Y-79930572D01*
X124810000Y-80073429D01*
X124762381Y-80692476D02*
X124762381Y-80882953D01*
X124810000Y-80978191D01*
X124905238Y-81073429D01*
X125095714Y-81121048D01*
X125429048Y-81121048D01*
X125619524Y-81073429D01*
X125714762Y-80978191D01*
X125762381Y-80882953D01*
X125762381Y-80692476D01*
X125714762Y-80597238D01*
X125619524Y-80502000D01*
X125429048Y-80454381D01*
X125095714Y-80454381D01*
X124905238Y-80502000D01*
X124810000Y-80597238D01*
X124762381Y-80692476D01*
X130745762Y-72922000D02*
X130793381Y-73064857D01*
X130793381Y-73302953D01*
X130745762Y-73398191D01*
X130698143Y-73445810D01*
X130602905Y-73493429D01*
X130507667Y-73493429D01*
X130412429Y-73445810D01*
X130364810Y-73398191D01*
X130317190Y-73302953D01*
X130269571Y-73112476D01*
X130221952Y-73017238D01*
X130174333Y-72969619D01*
X130079095Y-72922000D01*
X129983857Y-72922000D01*
X129888619Y-72969619D01*
X129841000Y-73017238D01*
X129793381Y-73112476D01*
X129793381Y-73350572D01*
X129841000Y-73493429D01*
X130793381Y-73922000D02*
X129793381Y-73922000D01*
X129793381Y-74302953D01*
X129841000Y-74398191D01*
X129888619Y-74445810D01*
X129983857Y-74493429D01*
X130126714Y-74493429D01*
X130221952Y-74445810D01*
X130269571Y-74398191D01*
X130317190Y-74302953D01*
X130317190Y-73922000D01*
X130793381Y-74922000D02*
X129793381Y-74922000D01*
X129888619Y-75350571D02*
X129841000Y-75398190D01*
X129793381Y-75493428D01*
X129793381Y-75731524D01*
X129841000Y-75826762D01*
X129888619Y-75874381D01*
X129983857Y-75922000D01*
X130079095Y-75922000D01*
X130221952Y-75874381D01*
X130793381Y-75302952D01*
X130793381Y-75922000D01*
X132445762Y-73136286D02*
X132493381Y-73279143D01*
X132493381Y-73517239D01*
X132445762Y-73612477D01*
X132398143Y-73660096D01*
X132302905Y-73707715D01*
X132207667Y-73707715D01*
X132112429Y-73660096D01*
X132064810Y-73612477D01*
X132017190Y-73517239D01*
X131969571Y-73326762D01*
X131921952Y-73231524D01*
X131874333Y-73183905D01*
X131779095Y-73136286D01*
X131683857Y-73136286D01*
X131588619Y-73183905D01*
X131541000Y-73231524D01*
X131493381Y-73326762D01*
X131493381Y-73564858D01*
X131541000Y-73707715D01*
X132398143Y-74707715D02*
X132445762Y-74660096D01*
X132493381Y-74517239D01*
X132493381Y-74422001D01*
X132445762Y-74279143D01*
X132350524Y-74183905D01*
X132255286Y-74136286D01*
X132064810Y-74088667D01*
X131921952Y-74088667D01*
X131731476Y-74136286D01*
X131636238Y-74183905D01*
X131541000Y-74279143D01*
X131493381Y-74422001D01*
X131493381Y-74517239D01*
X131541000Y-74660096D01*
X131588619Y-74707715D01*
X132493381Y-75136286D02*
X131493381Y-75136286D01*
X132493381Y-75707715D02*
X131921952Y-75279143D01*
X131493381Y-75707715D02*
X132064810Y-75136286D01*
X130618762Y-83717000D02*
X130666381Y-83859857D01*
X130666381Y-84097953D01*
X130618762Y-84193191D01*
X130571143Y-84240810D01*
X130475905Y-84288429D01*
X130380667Y-84288429D01*
X130285429Y-84240810D01*
X130237810Y-84193191D01*
X130190190Y-84097953D01*
X130142571Y-83907476D01*
X130094952Y-83812238D01*
X130047333Y-83764619D01*
X129952095Y-83717000D01*
X129856857Y-83717000D01*
X129761619Y-83764619D01*
X129714000Y-83812238D01*
X129666381Y-83907476D01*
X129666381Y-84145572D01*
X129714000Y-84288429D01*
X130666381Y-84717000D02*
X129666381Y-84717000D01*
X129666381Y-85097953D01*
X129714000Y-85193191D01*
X129761619Y-85240810D01*
X129856857Y-85288429D01*
X129999714Y-85288429D01*
X130094952Y-85240810D01*
X130142571Y-85193191D01*
X130190190Y-85097953D01*
X130190190Y-84717000D01*
X130666381Y-85717000D02*
X129666381Y-85717000D01*
X129761619Y-86145571D02*
X129714000Y-86193190D01*
X129666381Y-86288428D01*
X129666381Y-86526524D01*
X129714000Y-86621762D01*
X129761619Y-86669381D01*
X129856857Y-86717000D01*
X129952095Y-86717000D01*
X130094952Y-86669381D01*
X130666381Y-86097952D01*
X130666381Y-86717000D01*
X132366381Y-83645572D02*
X131366381Y-83645572D01*
X132080667Y-83978906D01*
X131366381Y-84312239D01*
X132366381Y-84312239D01*
X131366381Y-84978905D02*
X131366381Y-85169382D01*
X131414000Y-85264620D01*
X131509238Y-85359858D01*
X131699714Y-85407477D01*
X132033048Y-85407477D01*
X132223524Y-85359858D01*
X132318762Y-85264620D01*
X132366381Y-85169382D01*
X132366381Y-84978905D01*
X132318762Y-84883667D01*
X132223524Y-84788429D01*
X132033048Y-84740810D01*
X131699714Y-84740810D01*
X131509238Y-84788429D01*
X131414000Y-84883667D01*
X131366381Y-84978905D01*
X132318762Y-85788429D02*
X132366381Y-85931286D01*
X132366381Y-86169382D01*
X132318762Y-86264620D01*
X132271143Y-86312239D01*
X132175905Y-86359858D01*
X132080667Y-86359858D01*
X131985429Y-86312239D01*
X131937810Y-86264620D01*
X131890190Y-86169382D01*
X131842571Y-85978905D01*
X131794952Y-85883667D01*
X131747333Y-85836048D01*
X131652095Y-85788429D01*
X131556857Y-85788429D01*
X131461619Y-85836048D01*
X131414000Y-85883667D01*
X131366381Y-85978905D01*
X131366381Y-86217001D01*
X131414000Y-86359858D01*
X132366381Y-86788429D02*
X131366381Y-86788429D01*
X119808428Y-62428381D02*
X119808428Y-61428381D01*
X119475094Y-62142667D01*
X119141761Y-61428381D01*
X119141761Y-62428381D01*
X118665571Y-62428381D02*
X118665571Y-61428381D01*
X118237000Y-62380762D02*
X118094143Y-62428381D01*
X117856047Y-62428381D01*
X117760809Y-62380762D01*
X117713190Y-62333143D01*
X117665571Y-62237905D01*
X117665571Y-62142667D01*
X117713190Y-62047429D01*
X117760809Y-61999810D01*
X117856047Y-61952190D01*
X118046524Y-61904571D01*
X118141762Y-61856952D01*
X118189381Y-61809333D01*
X118237000Y-61714095D01*
X118237000Y-61618857D01*
X118189381Y-61523619D01*
X118141762Y-61476000D01*
X118046524Y-61428381D01*
X117808428Y-61428381D01*
X117665571Y-61476000D01*
X117046524Y-61428381D02*
X116856047Y-61428381D01*
X116760809Y-61476000D01*
X116665571Y-61571238D01*
X116617952Y-61761714D01*
X116617952Y-62095048D01*
X116665571Y-62285524D01*
X116760809Y-62380762D01*
X116856047Y-62428381D01*
X117046524Y-62428381D01*
X117141762Y-62380762D01*
X117237000Y-62285524D01*
X117284619Y-62095048D01*
X117284619Y-61761714D01*
X117237000Y-61571238D01*
X117141762Y-61476000D01*
X117046524Y-61428381D01*
X113768143Y-65238334D02*
X113815762Y-65190715D01*
X113863381Y-65047858D01*
X113863381Y-64952620D01*
X113815762Y-64809762D01*
X113720524Y-64714524D01*
X113625286Y-64666905D01*
X113434810Y-64619286D01*
X113291952Y-64619286D01*
X113101476Y-64666905D01*
X113006238Y-64714524D01*
X112911000Y-64809762D01*
X112863381Y-64952620D01*
X112863381Y-65047858D01*
X112911000Y-65190715D01*
X112958619Y-65238334D01*
X113815762Y-65619286D02*
X113863381Y-65762143D01*
X113863381Y-66000239D01*
X113815762Y-66095477D01*
X113768143Y-66143096D01*
X113672905Y-66190715D01*
X113577667Y-66190715D01*
X113482429Y-66143096D01*
X113434810Y-66095477D01*
X113387190Y-66000239D01*
X113339571Y-65809762D01*
X113291952Y-65714524D01*
X113244333Y-65666905D01*
X113149095Y-65619286D01*
X113053857Y-65619286D01*
X112958619Y-65666905D01*
X112911000Y-65714524D01*
X112863381Y-65809762D01*
X112863381Y-66047858D01*
X112911000Y-66190715D01*
X109874382Y-64890398D02*
X110110084Y-65126100D01*
X110581489Y-64856726D02*
X110244771Y-64520008D01*
X109537665Y-65227115D01*
X109874382Y-65563833D01*
X110884535Y-65159771D02*
X110177428Y-65866878D01*
X111288596Y-65563833D01*
X110581489Y-66270939D01*
X111962031Y-66371955D02*
X111962031Y-66304611D01*
X111894688Y-66169924D01*
X111827344Y-66102581D01*
X111692657Y-66035237D01*
X111557970Y-66035237D01*
X111456955Y-66068908D01*
X111288596Y-66169924D01*
X111187580Y-66270939D01*
X111086565Y-66439298D01*
X111052893Y-66540313D01*
X111052893Y-66675000D01*
X111120237Y-66809688D01*
X111187581Y-66877031D01*
X111322268Y-66944374D01*
X111389611Y-66944374D01*
X112702810Y-66978046D02*
X112298748Y-66573985D01*
X112500778Y-66776015D02*
X111793672Y-67483122D01*
X111827343Y-67314763D01*
X111827343Y-67180076D01*
X111793672Y-67079061D01*
X112904840Y-67045390D02*
X113443588Y-67584138D01*
X113409916Y-68425932D02*
X113544603Y-68493276D01*
X113611947Y-68493275D01*
X113712962Y-68459603D01*
X113813978Y-68358588D01*
X113847649Y-68257573D01*
X113847649Y-68190229D01*
X113813978Y-68089214D01*
X113544603Y-67819840D01*
X112837496Y-68526947D01*
X113073199Y-68762649D01*
X113174214Y-68796321D01*
X113241558Y-68796321D01*
X113342573Y-68762649D01*
X113409916Y-68695306D01*
X113443588Y-68594291D01*
X113443588Y-68526947D01*
X113409916Y-68425932D01*
X113174214Y-68190229D01*
X105592571Y-62754190D02*
X105592571Y-63087524D01*
X106116381Y-63230381D02*
X106116381Y-62754190D01*
X105116381Y-62754190D01*
X105116381Y-63230381D01*
X106116381Y-63658952D02*
X105116381Y-63658952D01*
X106116381Y-64230381D01*
X105116381Y-64230381D01*
X106021143Y-65278000D02*
X106068762Y-65230381D01*
X106116381Y-65087524D01*
X106116381Y-64992286D01*
X106068762Y-64849428D01*
X105973524Y-64754190D01*
X105878286Y-64706571D01*
X105687810Y-64658952D01*
X105544952Y-64658952D01*
X105354476Y-64706571D01*
X105259238Y-64754190D01*
X105164000Y-64849428D01*
X105116381Y-64992286D01*
X105116381Y-65087524D01*
X105164000Y-65230381D01*
X105211619Y-65278000D01*
X105211619Y-65658952D02*
X105164000Y-65706571D01*
X105116381Y-65801809D01*
X105116381Y-66039905D01*
X105164000Y-66135143D01*
X105211619Y-66182762D01*
X105306857Y-66230381D01*
X105402095Y-66230381D01*
X105544952Y-66182762D01*
X106116381Y-65611333D01*
X106116381Y-66230381D01*
X106211619Y-66420857D02*
X106211619Y-67182762D01*
X105830667Y-67373238D02*
X105830667Y-67849429D01*
X106116381Y-67278000D02*
X105116381Y-67611333D01*
X106116381Y-67944667D01*
X113466238Y-72064571D02*
X113132904Y-72064571D01*
X112990047Y-72588381D02*
X113466238Y-72588381D01*
X113466238Y-71588381D01*
X112990047Y-71588381D01*
X112561476Y-72588381D02*
X112561476Y-71588381D01*
X111990047Y-72588381D01*
X111990047Y-71588381D01*
X110942428Y-72493143D02*
X110990047Y-72540762D01*
X111132904Y-72588381D01*
X111228142Y-72588381D01*
X111371000Y-72540762D01*
X111466238Y-72445524D01*
X111513857Y-72350286D01*
X111561476Y-72159810D01*
X111561476Y-72016952D01*
X111513857Y-71826476D01*
X111466238Y-71731238D01*
X111371000Y-71636000D01*
X111228142Y-71588381D01*
X111132904Y-71588381D01*
X110990047Y-71636000D01*
X110942428Y-71683619D01*
X110561476Y-71683619D02*
X110513857Y-71636000D01*
X110418619Y-71588381D01*
X110180523Y-71588381D01*
X110085285Y-71636000D01*
X110037666Y-71683619D01*
X109990047Y-71778857D01*
X109990047Y-71874095D01*
X110037666Y-72016952D01*
X110609095Y-72588381D01*
X109990047Y-72588381D01*
X109799571Y-72683619D02*
X109037666Y-72683619D01*
X108466237Y-72064571D02*
X108323380Y-72112190D01*
X108275761Y-72159810D01*
X108228142Y-72255048D01*
X108228142Y-72397905D01*
X108275761Y-72493143D01*
X108323380Y-72540762D01*
X108418618Y-72588381D01*
X108799571Y-72588381D01*
X108799571Y-71588381D01*
X108466237Y-71588381D01*
X108370999Y-71636000D01*
X108323380Y-71683619D01*
X108275761Y-71778857D01*
X108275761Y-71874095D01*
X108323380Y-71969333D01*
X108370999Y-72016952D01*
X108466237Y-72064571D01*
X108799571Y-72064571D01*
X119149762Y-74660286D02*
X119197381Y-74803143D01*
X119197381Y-75041239D01*
X119149762Y-75136477D01*
X119102143Y-75184096D01*
X119006905Y-75231715D01*
X118911667Y-75231715D01*
X118816429Y-75184096D01*
X118768810Y-75136477D01*
X118721190Y-75041239D01*
X118673571Y-74850762D01*
X118625952Y-74755524D01*
X118578333Y-74707905D01*
X118483095Y-74660286D01*
X118387857Y-74660286D01*
X118292619Y-74707905D01*
X118245000Y-74755524D01*
X118197381Y-74850762D01*
X118197381Y-75088858D01*
X118245000Y-75231715D01*
X119102143Y-76231715D02*
X119149762Y-76184096D01*
X119197381Y-76041239D01*
X119197381Y-75946001D01*
X119149762Y-75803143D01*
X119054524Y-75707905D01*
X118959286Y-75660286D01*
X118768810Y-75612667D01*
X118625952Y-75612667D01*
X118435476Y-75660286D01*
X118340238Y-75707905D01*
X118245000Y-75803143D01*
X118197381Y-75946001D01*
X118197381Y-76041239D01*
X118245000Y-76184096D01*
X118292619Y-76231715D01*
X119197381Y-76660286D02*
X118197381Y-76660286D01*
X119197381Y-77231715D02*
X118625952Y-76803143D01*
X118197381Y-77231715D02*
X118768810Y-76660286D01*
X122626381Y-74882572D02*
X121626381Y-74882572D01*
X122340667Y-75215906D01*
X121626381Y-75549239D01*
X122626381Y-75549239D01*
X121626381Y-76215905D02*
X121626381Y-76406382D01*
X121674000Y-76501620D01*
X121769238Y-76596858D01*
X121959714Y-76644477D01*
X122293048Y-76644477D01*
X122483524Y-76596858D01*
X122578762Y-76501620D01*
X122626381Y-76406382D01*
X122626381Y-76215905D01*
X122578762Y-76120667D01*
X122483524Y-76025429D01*
X122293048Y-75977810D01*
X121959714Y-75977810D01*
X121769238Y-76025429D01*
X121674000Y-76120667D01*
X121626381Y-76215905D01*
X122578762Y-77025429D02*
X122626381Y-77168286D01*
X122626381Y-77406382D01*
X122578762Y-77501620D01*
X122531143Y-77549239D01*
X122435905Y-77596858D01*
X122340667Y-77596858D01*
X122245429Y-77549239D01*
X122197810Y-77501620D01*
X122150190Y-77406382D01*
X122102571Y-77215905D01*
X122054952Y-77120667D01*
X122007333Y-77073048D01*
X121912095Y-77025429D01*
X121816857Y-77025429D01*
X121721619Y-77073048D01*
X121674000Y-77120667D01*
X121626381Y-77215905D01*
X121626381Y-77454001D01*
X121674000Y-77596858D01*
X122626381Y-78025429D02*
X121626381Y-78025429D01*
X133151571Y-49347762D02*
X133151571Y-49681096D01*
X133675381Y-49823953D02*
X133675381Y-49347762D01*
X132675381Y-49347762D01*
X132675381Y-49823953D01*
X133675381Y-50252524D02*
X132675381Y-50252524D01*
X133675381Y-50823953D01*
X132675381Y-50823953D01*
X133580143Y-51871572D02*
X133627762Y-51823953D01*
X133675381Y-51681096D01*
X133675381Y-51585858D01*
X133627762Y-51443000D01*
X133532524Y-51347762D01*
X133437286Y-51300143D01*
X133246810Y-51252524D01*
X133103952Y-51252524D01*
X132913476Y-51300143D01*
X132818238Y-51347762D01*
X132723000Y-51443000D01*
X132675381Y-51585858D01*
X132675381Y-51681096D01*
X132723000Y-51823953D01*
X132770619Y-51871572D01*
X132675381Y-52204905D02*
X132675381Y-52823953D01*
X133056333Y-52490619D01*
X133056333Y-52633477D01*
X133103952Y-52728715D01*
X133151571Y-52776334D01*
X133246810Y-52823953D01*
X133484905Y-52823953D01*
X133580143Y-52776334D01*
X133627762Y-52728715D01*
X133675381Y-52633477D01*
X133675381Y-52347762D01*
X133627762Y-52252524D01*
X133580143Y-52204905D01*
X133770619Y-53014429D02*
X133770619Y-53776334D01*
X133151571Y-54347763D02*
X133199190Y-54490620D01*
X133246810Y-54538239D01*
X133342048Y-54585858D01*
X133484905Y-54585858D01*
X133580143Y-54538239D01*
X133627762Y-54490620D01*
X133675381Y-54395382D01*
X133675381Y-54014429D01*
X132675381Y-54014429D01*
X132675381Y-54347763D01*
X132723000Y-54443001D01*
X132770619Y-54490620D01*
X132865857Y-54538239D01*
X132961095Y-54538239D01*
X133056333Y-54490620D01*
X133103952Y-54443001D01*
X133151571Y-54347763D01*
X133151571Y-54014429D01*
X134040571Y-43577190D02*
X134040571Y-43910524D01*
X134564381Y-44053381D02*
X134564381Y-43577190D01*
X133564381Y-43577190D01*
X133564381Y-44053381D01*
X134564381Y-44481952D02*
X133564381Y-44481952D01*
X134564381Y-45053381D01*
X133564381Y-45053381D01*
X134469143Y-46101000D02*
X134516762Y-46053381D01*
X134564381Y-45910524D01*
X134564381Y-45815286D01*
X134516762Y-45672428D01*
X134421524Y-45577190D01*
X134326286Y-45529571D01*
X134135810Y-45481952D01*
X133992952Y-45481952D01*
X133802476Y-45529571D01*
X133707238Y-45577190D01*
X133612000Y-45672428D01*
X133564381Y-45815286D01*
X133564381Y-45910524D01*
X133612000Y-46053381D01*
X133659619Y-46101000D01*
X133564381Y-46434333D02*
X133564381Y-47053381D01*
X133945333Y-46720047D01*
X133945333Y-46862905D01*
X133992952Y-46958143D01*
X134040571Y-47005762D01*
X134135810Y-47053381D01*
X134373905Y-47053381D01*
X134469143Y-47005762D01*
X134516762Y-46958143D01*
X134564381Y-46862905D01*
X134564381Y-46577190D01*
X134516762Y-46481952D01*
X134469143Y-46434333D01*
X134659619Y-47243857D02*
X134659619Y-48005762D01*
X134278667Y-48196238D02*
X134278667Y-48672429D01*
X134564381Y-48101000D02*
X133564381Y-48434333D01*
X134564381Y-48767667D01*
D14*
X68115000Y-69180000D02*
X68815000Y-69180000D01*
X68815000Y-67980000D02*
X68115000Y-67980000D01*
X72220000Y-67980000D02*
X71520000Y-67980000D01*
X71520000Y-69180000D02*
X72220000Y-69180000D01*
X71540000Y-54745000D02*
X71540000Y-53745000D01*
X73240000Y-53745000D02*
X73240000Y-54745000D01*
X69715000Y-53555000D02*
X68715000Y-53555000D01*
X68715000Y-51855000D02*
X69715000Y-51855000D01*
X74895000Y-56750000D02*
X74895000Y-56050000D01*
X73695000Y-56050000D02*
X73695000Y-56750000D01*
X74895000Y-62465000D02*
X74895000Y-61765000D01*
X73695000Y-61765000D02*
X73695000Y-62465000D01*
X73695000Y-58959000D02*
X73695000Y-59659000D01*
X74895000Y-59659000D02*
X74895000Y-58959000D01*
X73795000Y-64985000D02*
X72795000Y-64985000D01*
X72795000Y-63285000D02*
X73795000Y-63285000D01*
X67810000Y-49950000D02*
X68810000Y-49950000D01*
X68810000Y-51650000D02*
X67810000Y-51650000D01*
X60725000Y-88865000D02*
X61425000Y-88865000D01*
X61425000Y-87665000D02*
X60725000Y-87665000D01*
X60725000Y-90135000D02*
X61425000Y-90135000D01*
X61425000Y-88935000D02*
X60725000Y-88935000D01*
X72175000Y-75065000D02*
X72175000Y-74065000D01*
X73875000Y-74065000D02*
X73875000Y-75065000D01*
X70620000Y-73875000D02*
X69620000Y-73875000D01*
X69620000Y-72175000D02*
X70620000Y-72175000D01*
X74895000Y-77705000D02*
X74895000Y-77005000D01*
X73695000Y-77005000D02*
X73695000Y-77705000D01*
X74895000Y-83420000D02*
X74895000Y-82720000D01*
X73695000Y-82720000D02*
X73695000Y-83420000D01*
X73695000Y-79775000D02*
X73695000Y-80475000D01*
X74895000Y-80475000D02*
X74895000Y-79775000D01*
X73795000Y-85940000D02*
X72795000Y-85940000D01*
X72795000Y-84240000D02*
X73795000Y-84240000D01*
X68350000Y-70270000D02*
X69350000Y-70270000D01*
X69350000Y-71970000D02*
X68350000Y-71970000D01*
X68115000Y-48860000D02*
X68815000Y-48860000D01*
X68815000Y-47660000D02*
X68115000Y-47660000D01*
X71990000Y-47660000D02*
X71290000Y-47660000D01*
X71290000Y-48860000D02*
X71990000Y-48860000D01*
X71540000Y-33790000D02*
X71540000Y-32790000D01*
X73240000Y-32790000D02*
X73240000Y-33790000D01*
X69985000Y-33489000D02*
X68985000Y-33489000D01*
X68985000Y-31789000D02*
X69985000Y-31789000D01*
X74895000Y-37700000D02*
X74895000Y-37000000D01*
X73695000Y-37000000D02*
X73695000Y-37700000D01*
X75141000Y-41691000D02*
X74441000Y-41691000D01*
X74441000Y-42891000D02*
X75141000Y-42891000D01*
X73695000Y-39897000D02*
X73695000Y-40597000D01*
X74895000Y-40597000D02*
X74895000Y-39897000D01*
X73890000Y-44665000D02*
X72890000Y-44665000D01*
X72890000Y-42965000D02*
X73890000Y-42965000D01*
X67715000Y-30265000D02*
X68715000Y-30265000D01*
X68715000Y-31965000D02*
X67715000Y-31965000D01*
X81745000Y-27975000D02*
X81045000Y-27975000D01*
X81045000Y-29175000D02*
X81745000Y-29175000D01*
X81745000Y-29245000D02*
X81045000Y-29245000D01*
X81045000Y-30445000D02*
X81745000Y-30445000D01*
X81045000Y-43145000D02*
X81745000Y-43145000D01*
X81745000Y-41945000D02*
X81045000Y-41945000D01*
X81745000Y-30515000D02*
X81045000Y-30515000D01*
X81045000Y-31715000D02*
X81745000Y-31715000D01*
X81045000Y-44415000D02*
X81745000Y-44415000D01*
X81745000Y-43215000D02*
X81045000Y-43215000D01*
X81745000Y-31785000D02*
X81045000Y-31785000D01*
X81045000Y-32985000D02*
X81745000Y-32985000D01*
X81045000Y-45685000D02*
X81745000Y-45685000D01*
X81745000Y-44485000D02*
X81045000Y-44485000D01*
X81745000Y-33055000D02*
X81045000Y-33055000D01*
X81045000Y-34255000D02*
X81745000Y-34255000D01*
X81045000Y-46955000D02*
X81745000Y-46955000D01*
X81745000Y-45755000D02*
X81045000Y-45755000D01*
X81745000Y-34325000D02*
X81045000Y-34325000D01*
X81045000Y-35525000D02*
X81745000Y-35525000D01*
X81045000Y-48225000D02*
X81745000Y-48225000D01*
X81745000Y-47025000D02*
X81045000Y-47025000D01*
X81745000Y-35595000D02*
X81045000Y-35595000D01*
X81045000Y-36795000D02*
X81745000Y-36795000D01*
X81045000Y-49495000D02*
X81745000Y-49495000D01*
X81745000Y-48295000D02*
X81045000Y-48295000D01*
X81745000Y-36865000D02*
X81045000Y-36865000D01*
X81045000Y-38065000D02*
X81745000Y-38065000D01*
X81045000Y-50765000D02*
X81745000Y-50765000D01*
X81745000Y-49565000D02*
X81045000Y-49565000D01*
X81745000Y-38135000D02*
X81045000Y-38135000D01*
X81045000Y-39335000D02*
X81745000Y-39335000D01*
X81745000Y-39405000D02*
X81045000Y-39405000D01*
X81045000Y-40605000D02*
X81745000Y-40605000D01*
X81745000Y-40675000D02*
X81045000Y-40675000D01*
X81045000Y-41875000D02*
X81745000Y-41875000D01*
X81745000Y-50835000D02*
X81045000Y-50835000D01*
X81045000Y-52035000D02*
X81745000Y-52035000D01*
X81745000Y-52105000D02*
X81045000Y-52105000D01*
X81045000Y-53305000D02*
X81745000Y-53305000D01*
X81045000Y-66005000D02*
X81745000Y-66005000D01*
X81745000Y-64805000D02*
X81045000Y-64805000D01*
X81745000Y-53375000D02*
X81045000Y-53375000D01*
X81045000Y-54575000D02*
X81745000Y-54575000D01*
X81045000Y-67275000D02*
X81745000Y-67275000D01*
X81745000Y-66075000D02*
X81045000Y-66075000D01*
X81745000Y-54645000D02*
X81045000Y-54645000D01*
X81045000Y-55845000D02*
X81745000Y-55845000D01*
X81045000Y-68545000D02*
X81745000Y-68545000D01*
X81745000Y-67345000D02*
X81045000Y-67345000D01*
X81745000Y-55915000D02*
X81045000Y-55915000D01*
X81045000Y-57115000D02*
X81745000Y-57115000D01*
X81045000Y-69815000D02*
X81745000Y-69815000D01*
X81745000Y-68615000D02*
X81045000Y-68615000D01*
X81745000Y-57185000D02*
X81045000Y-57185000D01*
X81045000Y-58385000D02*
X81745000Y-58385000D01*
X81745000Y-58455000D02*
X81045000Y-58455000D01*
X81045000Y-59655000D02*
X81745000Y-59655000D01*
X81745000Y-59725000D02*
X81045000Y-59725000D01*
X81045000Y-60925000D02*
X81745000Y-60925000D01*
X81745000Y-60995000D02*
X81045000Y-60995000D01*
X81045000Y-62195000D02*
X81745000Y-62195000D01*
X74465000Y-69180000D02*
X75165000Y-69180000D01*
X75165000Y-67980000D02*
X74465000Y-67980000D01*
X81745000Y-62265000D02*
X81045000Y-62265000D01*
X81045000Y-63465000D02*
X81745000Y-63465000D01*
X81745000Y-63535000D02*
X81045000Y-63535000D01*
X81045000Y-64735000D02*
X81745000Y-64735000D01*
X109820000Y-85325000D02*
X109820000Y-84625000D01*
X108620000Y-84625000D02*
X108620000Y-85325000D01*
X108550000Y-85325000D02*
X108550000Y-84625000D01*
X107350000Y-84625000D02*
X107350000Y-85325000D01*
X88935000Y-84625000D02*
X88935000Y-85325000D01*
X90135000Y-85325000D02*
X90135000Y-84625000D01*
X107280000Y-85325000D02*
X107280000Y-84625000D01*
X106080000Y-84625000D02*
X106080000Y-85325000D01*
X85760000Y-84625000D02*
X85760000Y-85325000D01*
X86960000Y-85325000D02*
X86960000Y-84625000D01*
X104105000Y-85325000D02*
X104105000Y-84625000D01*
X102905000Y-84625000D02*
X102905000Y-85325000D01*
X84490000Y-84625000D02*
X84490000Y-85325000D01*
X85690000Y-85325000D02*
X85690000Y-84625000D01*
X102835000Y-85325000D02*
X102835000Y-84625000D01*
X101635000Y-84625000D02*
X101635000Y-85325000D01*
X83220000Y-84625000D02*
X83220000Y-85325000D01*
X84420000Y-85325000D02*
X84420000Y-84625000D01*
X101565000Y-85325000D02*
X101565000Y-84625000D01*
X100365000Y-84625000D02*
X100365000Y-85325000D01*
X81950000Y-84625000D02*
X81950000Y-85325000D01*
X83150000Y-85325000D02*
X83150000Y-84625000D01*
X98390000Y-85325000D02*
X98390000Y-84625000D01*
X97190000Y-84625000D02*
X97190000Y-85325000D01*
X80680000Y-84625000D02*
X80680000Y-85325000D01*
X81880000Y-85325000D02*
X81880000Y-84625000D01*
X97120000Y-85325000D02*
X97120000Y-84625000D01*
X95920000Y-84625000D02*
X95920000Y-85325000D01*
X79410000Y-84625000D02*
X79410000Y-85325000D01*
X80610000Y-85325000D02*
X80610000Y-84625000D01*
X95850000Y-85325000D02*
X95850000Y-84625000D01*
X94650000Y-84625000D02*
X94650000Y-85325000D01*
X92675000Y-85325000D02*
X92675000Y-84625000D01*
X91475000Y-84625000D02*
X91475000Y-85325000D01*
X91405000Y-85325000D02*
X91405000Y-84625000D01*
X90205000Y-84625000D02*
X90205000Y-85325000D01*
X119595000Y-58539000D02*
X119595000Y-59539000D01*
X117895000Y-59539000D02*
X117895000Y-58539000D01*
X133135000Y-91035000D02*
X133135000Y-90035000D01*
X134835000Y-90035000D02*
X134835000Y-91035000D01*
X130595000Y-91035000D02*
X130595000Y-90035000D01*
X132295000Y-90035000D02*
X132295000Y-91035000D01*
X119145000Y-64100000D02*
X119845000Y-64100000D01*
X119845000Y-62900000D02*
X119145000Y-62900000D01*
X136303500Y-83855000D02*
X135603500Y-83855000D01*
X135603500Y-85055000D02*
X136303500Y-85055000D01*
X109255000Y-69615000D02*
X109255000Y-70315000D01*
X110455000Y-70315000D02*
X110455000Y-69615000D01*
X106461000Y-69615000D02*
X106461000Y-70315000D01*
X107661000Y-70315000D02*
X107661000Y-69615000D01*
X107858000Y-69615000D02*
X107858000Y-70315000D01*
X109058000Y-70315000D02*
X109058000Y-69615000D01*
X131029000Y-47074000D02*
X131029000Y-46374000D01*
X129829000Y-46374000D02*
X129829000Y-47074000D01*
X129505000Y-47098000D02*
X129505000Y-46398000D01*
X128305000Y-46398000D02*
X128305000Y-47098000D01*
X64330000Y-54745000D02*
X64330000Y-55745000D01*
X64330000Y-55745000D02*
X62230000Y-55745000D01*
X64330000Y-54745000D02*
X62230000Y-54745000D01*
X64000000Y-76065000D02*
X63000000Y-76065000D01*
X63000000Y-76065000D02*
X63000000Y-73965000D01*
X64000000Y-76065000D02*
X64000000Y-73965000D01*
X64330000Y-34425000D02*
X64330000Y-35425000D01*
X64330000Y-35425000D02*
X62230000Y-35425000D01*
X64330000Y-34425000D02*
X62230000Y-34425000D01*
X147835000Y-81915000D02*
X147835000Y-33535000D01*
X147835000Y-33535000D02*
X153155000Y-33535000D01*
X153155000Y-33535000D02*
X153155000Y-84575000D01*
X153155000Y-84575000D02*
X150495000Y-84575000D01*
X150495000Y-84575000D02*
X150495000Y-81915000D01*
X150495000Y-81915000D02*
X147835000Y-81915000D01*
X147835000Y-83185000D02*
X147835000Y-84575000D01*
X147835000Y-84575000D02*
X149225000Y-84575000D01*
X129036000Y-34372000D02*
X128036000Y-34372000D01*
X128036000Y-35732000D02*
X129036000Y-35732000D01*
X125369000Y-37256000D02*
X126369000Y-37256000D01*
X126369000Y-35896000D02*
X125369000Y-35896000D01*
X129012000Y-35896000D02*
X128012000Y-35896000D01*
X128012000Y-37256000D02*
X129012000Y-37256000D01*
X125369000Y-35732000D02*
X126369000Y-35732000D01*
X126369000Y-34372000D02*
X125369000Y-34372000D01*
X119884000Y-27858000D02*
X120884000Y-27858000D01*
X120884000Y-26498000D02*
X119884000Y-26498000D01*
X69665000Y-67745000D02*
X71665000Y-67745000D01*
X71665000Y-65605000D02*
X69665000Y-65605000D01*
X62480000Y-54655000D02*
X63480000Y-54655000D01*
X63480000Y-53295000D02*
X62480000Y-53295000D01*
X66425000Y-52025000D02*
X65425000Y-52025000D01*
X65425000Y-53385000D02*
X66425000Y-53385000D01*
X62430000Y-88715000D02*
X62430000Y-90715000D01*
X64570000Y-90715000D02*
X64570000Y-88715000D01*
X63520000Y-73705000D02*
X64520000Y-73705000D01*
X64520000Y-72345000D02*
X63520000Y-72345000D01*
X67060000Y-72345000D02*
X66060000Y-72345000D01*
X66060000Y-73705000D02*
X67060000Y-73705000D01*
X69485000Y-47425000D02*
X71485000Y-47425000D01*
X71485000Y-45285000D02*
X69485000Y-45285000D01*
X62480000Y-34335000D02*
X63480000Y-34335000D01*
X63480000Y-32975000D02*
X62480000Y-32975000D01*
X66425000Y-32340000D02*
X65425000Y-32340000D01*
X65425000Y-33700000D02*
X66425000Y-33700000D01*
X115525000Y-75331000D02*
X115525000Y-76331000D01*
X116885000Y-76331000D02*
X116885000Y-75331000D01*
X114534000Y-63074000D02*
X113534000Y-63074000D01*
X113534000Y-64434000D02*
X114534000Y-64434000D01*
X110002000Y-63037000D02*
X111002000Y-63037000D01*
X111002000Y-61677000D02*
X110002000Y-61677000D01*
X108732000Y-54274000D02*
X109732000Y-54274000D01*
X109732000Y-52914000D02*
X108732000Y-52914000D01*
X113415000Y-52914000D02*
X112415000Y-52914000D01*
X112415000Y-54274000D02*
X113415000Y-54274000D01*
X113518000Y-61677000D02*
X112518000Y-61677000D01*
X112518000Y-63037000D02*
X113518000Y-63037000D01*
X111018000Y-64434000D02*
X112018000Y-64434000D01*
X112018000Y-63074000D02*
X111018000Y-63074000D01*
X109175000Y-66925000D02*
X109175000Y-67925000D01*
X110535000Y-67925000D02*
X110535000Y-66925000D01*
X106381000Y-66925000D02*
X106381000Y-67925000D01*
X107741000Y-67925000D02*
X107741000Y-66925000D01*
X107778000Y-66925000D02*
X107778000Y-67925000D01*
X109138000Y-67925000D02*
X109138000Y-66925000D01*
X130044000Y-51988000D02*
X131044000Y-51988000D01*
X131044000Y-50628000D02*
X130044000Y-50628000D01*
X127631000Y-49702000D02*
X128631000Y-49702000D01*
X128631000Y-48342000D02*
X127631000Y-48342000D01*
D13*
X71570000Y-56065000D02*
X71570000Y-56515000D01*
X64320000Y-56065000D02*
X64320000Y-56590000D01*
X64320000Y-63315000D02*
X64320000Y-62790000D01*
X71570000Y-63315000D02*
X71570000Y-62790000D01*
X71570000Y-56065000D02*
X71045000Y-56065000D01*
X71570000Y-63315000D02*
X71045000Y-63315000D01*
X64320000Y-63315000D02*
X64845000Y-63315000D01*
X64320000Y-56065000D02*
X64845000Y-56065000D01*
X71570000Y-56515000D02*
X72945000Y-56515000D01*
X71570000Y-76385000D02*
X71570000Y-76835000D01*
X64320000Y-76385000D02*
X64320000Y-76910000D01*
X64320000Y-83635000D02*
X64320000Y-83110000D01*
X71570000Y-83635000D02*
X71570000Y-83110000D01*
X71570000Y-76385000D02*
X71045000Y-76385000D01*
X71570000Y-83635000D02*
X71045000Y-83635000D01*
X64320000Y-83635000D02*
X64845000Y-83635000D01*
X64320000Y-76385000D02*
X64845000Y-76385000D01*
X71570000Y-76835000D02*
X72945000Y-76835000D01*
X71570000Y-35745000D02*
X71570000Y-36195000D01*
X64320000Y-35745000D02*
X64320000Y-36270000D01*
X64320000Y-42995000D02*
X64320000Y-42470000D01*
X71570000Y-42995000D02*
X71570000Y-42470000D01*
X71570000Y-35745000D02*
X71045000Y-35745000D01*
X71570000Y-42995000D02*
X71045000Y-42995000D01*
X64320000Y-42995000D02*
X64845000Y-42995000D01*
X64320000Y-35745000D02*
X64845000Y-35745000D01*
X71570000Y-36195000D02*
X72945000Y-36195000D01*
X117216000Y-60020000D02*
X117191000Y-60020000D01*
X117216000Y-55870000D02*
X117111000Y-55870000D01*
X107066000Y-55870000D02*
X107171000Y-55870000D01*
X107066000Y-60020000D02*
X107171000Y-60020000D01*
X117216000Y-60020000D02*
X117216000Y-55870000D01*
X107066000Y-60020000D02*
X107066000Y-55870000D01*
X117191000Y-60020000D02*
X117191000Y-61395000D01*
X119248000Y-37795000D02*
X119223000Y-37795000D01*
X119248000Y-33645000D02*
X119143000Y-33645000D01*
X109098000Y-33645000D02*
X109203000Y-33645000D01*
X109098000Y-37795000D02*
X109203000Y-37795000D01*
X119248000Y-37795000D02*
X119248000Y-33645000D01*
X109098000Y-37795000D02*
X109098000Y-33645000D01*
X119223000Y-37795000D02*
X119223000Y-39170000D01*
D14*
X113495000Y-49692000D02*
X112795000Y-49692000D01*
X112795000Y-50892000D02*
X113495000Y-50892000D01*
D13*
X115355000Y-66117000D02*
X115560000Y-66117000D01*
X115355000Y-71617000D02*
X115655000Y-71617000D01*
X120865000Y-71617000D02*
X120565000Y-71617000D01*
X120865000Y-66117000D02*
X120565000Y-66117000D01*
X115355000Y-66117000D02*
X115355000Y-71617000D01*
X120865000Y-66117000D02*
X120865000Y-71617000D01*
X115560000Y-66117000D02*
X115560000Y-64367000D01*
X139915000Y-81965000D02*
X139710000Y-81965000D01*
X139915000Y-76465000D02*
X139615000Y-76465000D01*
X134405000Y-76465000D02*
X134705000Y-76465000D01*
X134405000Y-81965000D02*
X134705000Y-81965000D01*
X139915000Y-81965000D02*
X139915000Y-76465000D01*
X134405000Y-81965000D02*
X134405000Y-76465000D01*
X139710000Y-81965000D02*
X139710000Y-83715000D01*
X61729857Y-87320381D02*
X62301286Y-87320381D01*
X62015572Y-87320381D02*
X62015572Y-86320381D01*
X62110810Y-86463238D01*
X62206048Y-86558476D01*
X62301286Y-86606095D01*
X61110810Y-86320381D02*
X61015571Y-86320381D01*
X60920333Y-86368000D01*
X60872714Y-86415619D01*
X60825095Y-86510857D01*
X60777476Y-86701333D01*
X60777476Y-86939429D01*
X60825095Y-87129905D01*
X60872714Y-87225143D01*
X60920333Y-87272762D01*
X61015571Y-87320381D01*
X61110810Y-87320381D01*
X61206048Y-87272762D01*
X61253667Y-87225143D01*
X61301286Y-87129905D01*
X61348905Y-86939429D01*
X61348905Y-86701333D01*
X61301286Y-86510857D01*
X61253667Y-86415619D01*
X61206048Y-86368000D01*
X61110810Y-86320381D01*
X60348905Y-86653714D02*
X60348905Y-87320381D01*
X60348905Y-86748952D02*
X60301286Y-86701333D01*
X60206048Y-86653714D01*
X60063190Y-86653714D01*
X59967952Y-86701333D01*
X59920333Y-86796571D01*
X59920333Y-87320381D01*
X61602857Y-91257381D02*
X62174286Y-91257381D01*
X61888572Y-91257381D02*
X61888572Y-90257381D01*
X61983810Y-90400238D01*
X62079048Y-90495476D01*
X62174286Y-90543095D01*
X60983810Y-90257381D02*
X60888571Y-90257381D01*
X60793333Y-90305000D01*
X60745714Y-90352619D01*
X60698095Y-90447857D01*
X60650476Y-90638333D01*
X60650476Y-90876429D01*
X60698095Y-91066905D01*
X60745714Y-91162143D01*
X60793333Y-91209762D01*
X60888571Y-91257381D01*
X60983810Y-91257381D01*
X61079048Y-91209762D01*
X61126667Y-91162143D01*
X61174286Y-91066905D01*
X61221905Y-90876429D01*
X61221905Y-90638333D01*
X61174286Y-90447857D01*
X61126667Y-90352619D01*
X61079048Y-90305000D01*
X60983810Y-90257381D01*
X60221905Y-90590714D02*
X60221905Y-91257381D01*
X60221905Y-90685952D02*
X60174286Y-90638333D01*
X60079048Y-90590714D01*
X59936190Y-90590714D01*
X59840952Y-90638333D01*
X59793333Y-90733571D01*
X59793333Y-91257381D01*
X73517095Y-87701381D02*
X74088524Y-87701381D01*
X73802810Y-87701381D02*
X73802810Y-86701381D01*
X73898048Y-86844238D01*
X73993286Y-86939476D01*
X74088524Y-86987095D01*
X73088524Y-87034714D02*
X73088524Y-88034714D01*
X72612333Y-87558524D02*
X72564714Y-87653762D01*
X72469476Y-87701381D01*
X73088524Y-87558524D02*
X73040905Y-87653762D01*
X72945667Y-87701381D01*
X72755190Y-87701381D01*
X72659952Y-87653762D01*
X72612333Y-87558524D01*
X72612333Y-87034714D01*
X136187381Y-89820715D02*
X136187381Y-89249286D01*
X136187381Y-89535000D02*
X135187381Y-89535000D01*
X135330238Y-89439762D01*
X135425476Y-89344524D01*
X135473095Y-89249286D01*
X135187381Y-90439762D02*
X135187381Y-90535001D01*
X135235000Y-90630239D01*
X135282619Y-90677858D01*
X135377857Y-90725477D01*
X135568333Y-90773096D01*
X135806429Y-90773096D01*
X135996905Y-90725477D01*
X136092143Y-90677858D01*
X136139762Y-90630239D01*
X136187381Y-90535001D01*
X136187381Y-90439762D01*
X136139762Y-90344524D01*
X136092143Y-90296905D01*
X135996905Y-90249286D01*
X135806429Y-90201667D01*
X135568333Y-90201667D01*
X135377857Y-90249286D01*
X135282619Y-90296905D01*
X135235000Y-90344524D01*
X135187381Y-90439762D01*
X135520714Y-91201667D02*
X136520714Y-91201667D01*
X136044524Y-91677858D02*
X136139762Y-91725477D01*
X136187381Y-91820715D01*
X136044524Y-91201667D02*
X136139762Y-91249286D01*
X136187381Y-91344524D01*
X136187381Y-91535001D01*
X136139762Y-91630239D01*
X136044524Y-91677858D01*
X135520714Y-91677858D01*
X129325714Y-89725477D02*
X129992381Y-89725477D01*
X128944762Y-89487381D02*
X129659048Y-89249286D01*
X129659048Y-89868334D01*
X129325714Y-90249286D02*
X130325714Y-90249286D01*
X129849524Y-90725477D02*
X129944762Y-90773096D01*
X129992381Y-90868334D01*
X129849524Y-90249286D02*
X129944762Y-90296905D01*
X129992381Y-90392143D01*
X129992381Y-90582620D01*
X129944762Y-90677858D01*
X129849524Y-90725477D01*
X129325714Y-90725477D01*
X128992381Y-91201667D02*
X128992381Y-91868334D01*
X129992381Y-91439762D01*
X131500619Y-44759714D02*
X131453000Y-44807333D01*
X131405381Y-44902571D01*
X131405381Y-45140667D01*
X131453000Y-45235905D01*
X131500619Y-45283524D01*
X131595857Y-45331143D01*
X131691095Y-45331143D01*
X131833952Y-45283524D01*
X132405381Y-44712095D01*
X132405381Y-45331143D01*
X131738714Y-45759714D02*
X132405381Y-45759714D01*
X131833952Y-45759714D02*
X131786333Y-45807333D01*
X131738714Y-45902571D01*
X131738714Y-46045429D01*
X131786333Y-46140667D01*
X131881571Y-46188286D01*
X132405381Y-46188286D01*
X131405381Y-46569238D02*
X131405381Y-47235905D01*
X132405381Y-46807333D01*
X127182619Y-44886714D02*
X127135000Y-44934333D01*
X127087381Y-45029571D01*
X127087381Y-45267667D01*
X127135000Y-45362905D01*
X127182619Y-45410524D01*
X127277857Y-45458143D01*
X127373095Y-45458143D01*
X127515952Y-45410524D01*
X128087381Y-44839095D01*
X128087381Y-45458143D01*
X127420714Y-45886714D02*
X128087381Y-45886714D01*
X127515952Y-45886714D02*
X127468333Y-45934333D01*
X127420714Y-46029571D01*
X127420714Y-46172429D01*
X127468333Y-46267667D01*
X127563571Y-46315286D01*
X128087381Y-46315286D01*
X127087381Y-46696238D02*
X127087381Y-47362905D01*
X128087381Y-46934333D01*
X64952619Y-88019143D02*
X64905000Y-88066762D01*
X64857381Y-88162000D01*
X64857381Y-88400096D01*
X64905000Y-88495334D01*
X64952619Y-88542953D01*
X65047857Y-88590572D01*
X65143095Y-88590572D01*
X65285952Y-88542953D01*
X65857381Y-87971524D01*
X65857381Y-88590572D01*
X65857381Y-89019143D02*
X64857381Y-89019143D01*
X65476429Y-89114381D02*
X65857381Y-89400096D01*
X65190714Y-89400096D02*
X65571667Y-89019143D01*
X64857381Y-90019143D02*
X64857381Y-90114382D01*
X64905000Y-90209620D01*
X64952619Y-90257239D01*
X65047857Y-90304858D01*
X65238333Y-90352477D01*
X65476429Y-90352477D01*
X65666905Y-90304858D01*
X65762143Y-90257239D01*
X65809762Y-90209620D01*
X65857381Y-90114382D01*
X65857381Y-90019143D01*
X65809762Y-89923905D01*
X65762143Y-89876286D01*
X65666905Y-89828667D01*
X65476429Y-89781048D01*
X65238333Y-89781048D01*
X65047857Y-89828667D01*
X64952619Y-89876286D01*
X64905000Y-89923905D01*
X64857381Y-90019143D01*
X64857381Y-90971524D02*
X64857381Y-91066763D01*
X64905000Y-91162001D01*
X64952619Y-91209620D01*
X65047857Y-91257239D01*
X65238333Y-91304858D01*
X65476429Y-91304858D01*
X65666905Y-91257239D01*
X65762143Y-91209620D01*
X65809762Y-91162001D01*
X65857381Y-91066763D01*
X65857381Y-90971524D01*
X65809762Y-90876286D01*
X65762143Y-90828667D01*
X65666905Y-90781048D01*
X65476429Y-90733429D01*
X65238333Y-90733429D01*
X65047857Y-90781048D01*
X64952619Y-90828667D01*
X64905000Y-90876286D01*
X64857381Y-90971524D01*
X76064857Y-45902619D02*
X76017238Y-45855000D01*
X75922000Y-45807381D01*
X75683904Y-45807381D01*
X75588666Y-45855000D01*
X75541047Y-45902619D01*
X75493428Y-45997857D01*
X75493428Y-46093095D01*
X75541047Y-46235952D01*
X76112476Y-46807381D01*
X75493428Y-46807381D01*
X75064857Y-46807381D02*
X75064857Y-45807381D01*
X74969619Y-46426429D02*
X74683904Y-46807381D01*
X74683904Y-46140714D02*
X75064857Y-46521667D01*
X74064857Y-45807381D02*
X73969618Y-45807381D01*
X73874380Y-45855000D01*
X73826761Y-45902619D01*
X73779142Y-45997857D01*
X73731523Y-46188333D01*
X73731523Y-46426429D01*
X73779142Y-46616905D01*
X73826761Y-46712143D01*
X73874380Y-46759762D01*
X73969618Y-46807381D01*
X74064857Y-46807381D01*
X74160095Y-46759762D01*
X74207714Y-46712143D01*
X74255333Y-46616905D01*
X74302952Y-46426429D01*
X74302952Y-46188333D01*
X74255333Y-45997857D01*
X74207714Y-45902619D01*
X74160095Y-45855000D01*
X74064857Y-45807381D01*
X73112476Y-45807381D02*
X73017237Y-45807381D01*
X72921999Y-45855000D01*
X72874380Y-45902619D01*
X72826761Y-45997857D01*
X72779142Y-46188333D01*
X72779142Y-46426429D01*
X72826761Y-46616905D01*
X72874380Y-46712143D01*
X72921999Y-46759762D01*
X73017237Y-46807381D01*
X73112476Y-46807381D01*
X73207714Y-46759762D01*
X73255333Y-46712143D01*
X73302952Y-46616905D01*
X73350571Y-46426429D01*
X73350571Y-46188333D01*
X73302952Y-45997857D01*
X73255333Y-45902619D01*
X73207714Y-45855000D01*
X73112476Y-45807381D01*
X128555666Y-50998381D02*
X129127095Y-50998381D01*
X128841381Y-50998381D02*
X128841381Y-49998381D01*
X128936619Y-50141238D01*
X129031857Y-50236476D01*
X129127095Y-50284095D01*
X127936619Y-49998381D02*
X127841380Y-49998381D01*
X127746142Y-50046000D01*
X127698523Y-50093619D01*
X127650904Y-50188857D01*
X127603285Y-50379333D01*
X127603285Y-50617429D01*
X127650904Y-50807905D01*
X127698523Y-50903143D01*
X127746142Y-50950762D01*
X127841380Y-50998381D01*
X127936619Y-50998381D01*
X128031857Y-50950762D01*
X128079476Y-50903143D01*
X128127095Y-50807905D01*
X128174714Y-50617429D01*
X128174714Y-50379333D01*
X128127095Y-50188857D01*
X128079476Y-50093619D01*
X128031857Y-50046000D01*
X127936619Y-49998381D01*
X126984238Y-49998381D02*
X126888999Y-49998381D01*
X126793761Y-50046000D01*
X126746142Y-50093619D01*
X126698523Y-50188857D01*
X126650904Y-50379333D01*
X126650904Y-50617429D01*
X126698523Y-50807905D01*
X126746142Y-50903143D01*
X126793761Y-50950762D01*
X126888999Y-50998381D01*
X126984238Y-50998381D01*
X127079476Y-50950762D01*
X127127095Y-50903143D01*
X127174714Y-50807905D01*
X127222333Y-50617429D01*
X127222333Y-50379333D01*
X127174714Y-50188857D01*
X127127095Y-50093619D01*
X127079476Y-50046000D01*
X126984238Y-49998381D01*
X118204715Y-31694381D02*
X118204715Y-30694381D01*
X117966620Y-30694381D01*
X117823762Y-30742000D01*
X117728524Y-30837238D01*
X117680905Y-30932476D01*
X117633286Y-31122952D01*
X117633286Y-31265810D01*
X117680905Y-31456286D01*
X117728524Y-31551524D01*
X117823762Y-31646762D01*
X117966620Y-31694381D01*
X118204715Y-31694381D01*
X117252334Y-31646762D02*
X117109477Y-31694381D01*
X116871381Y-31694381D01*
X116776143Y-31646762D01*
X116728524Y-31599143D01*
X116680905Y-31503905D01*
X116680905Y-31408667D01*
X116728524Y-31313429D01*
X116776143Y-31265810D01*
X116871381Y-31218190D01*
X117061858Y-31170571D01*
X117157096Y-31122952D01*
X117204715Y-31075333D01*
X117252334Y-30980095D01*
X117252334Y-30884857D01*
X117204715Y-30789619D01*
X117157096Y-30742000D01*
X117061858Y-30694381D01*
X116823762Y-30694381D01*
X116680905Y-30742000D01*
X116299953Y-30789619D02*
X116252334Y-30742000D01*
X116157096Y-30694381D01*
X115919000Y-30694381D01*
X115823762Y-30742000D01*
X115776143Y-30789619D01*
X115728524Y-30884857D01*
X115728524Y-30980095D01*
X115776143Y-31122952D01*
X116347572Y-31694381D01*
X115728524Y-31694381D01*
X114871381Y-30694381D02*
X115061858Y-30694381D01*
X115157096Y-30742000D01*
X115204715Y-30789619D01*
X115299953Y-30932476D01*
X115347572Y-31122952D01*
X115347572Y-31503905D01*
X115299953Y-31599143D01*
X115252334Y-31646762D01*
X115157096Y-31694381D01*
X114966619Y-31694381D01*
X114871381Y-31646762D01*
X114823762Y-31599143D01*
X114776143Y-31503905D01*
X114776143Y-31265810D01*
X114823762Y-31170571D01*
X114871381Y-31122952D01*
X114966619Y-31075333D01*
X115157096Y-31075333D01*
X115252334Y-31122952D01*
X115299953Y-31170571D01*
X115347572Y-31265810D01*
X113871381Y-31694381D02*
X114347572Y-31694381D01*
X114347572Y-30694381D01*
X113680905Y-30694381D02*
X113347572Y-31694381D01*
X113014238Y-30694381D01*
X112776143Y-30694381D02*
X112157095Y-30694381D01*
X112490429Y-31075333D01*
X112347571Y-31075333D01*
X112252333Y-31122952D01*
X112204714Y-31170571D01*
X112157095Y-31265810D01*
X112157095Y-31503905D01*
X112204714Y-31599143D01*
X112252333Y-31646762D01*
X112347571Y-31694381D01*
X112633286Y-31694381D01*
X112728524Y-31646762D01*
X112776143Y-31599143D01*
X111776143Y-30789619D02*
X111728524Y-30742000D01*
X111633286Y-30694381D01*
X111395190Y-30694381D01*
X111299952Y-30742000D01*
X111252333Y-30789619D01*
X111204714Y-30884857D01*
X111204714Y-30980095D01*
X111252333Y-31122952D01*
X111823762Y-31694381D01*
X111204714Y-31694381D01*
X110823762Y-31408667D02*
X110347571Y-31408667D01*
X110919000Y-31694381D02*
X110585667Y-30694381D01*
X110252333Y-31694381D01*
X110061857Y-30694381D02*
X109490428Y-30694381D01*
X109776143Y-31694381D02*
X109776143Y-30694381D01*
M02*
