G04 #@! TF.FileFunction,Copper,L2,Bot,Signal*
%FSLAX46Y46*%
G04 Gerber Fmt 4.6, Leading zero omitted, Abs format (unit mm)*
G04 Created by KiCad (PCBNEW 4.0.7) date Sat Jun  9 20:24:17 2018*
%MOMM*%
%LPD*%
G01*
G04 APERTURE LIST*
%ADD10C,0.100000*%
%ADD11R,0.800000X0.750000*%
%ADD12R,1.200000X0.400000*%
%ADD13R,1.700000X1.700000*%
%ADD14O,1.700000X1.700000*%
%ADD15C,0.600000*%
%ADD16C,0.500000*%
%ADD17C,0.350000*%
%ADD18C,0.250000*%
G04 APERTURE END LIST*
D10*
D11*
X58250000Y-48000000D03*
X56750000Y-48000000D03*
D12*
X54050000Y-46275000D03*
X54050000Y-45625000D03*
X54050000Y-44975000D03*
X54050000Y-44325000D03*
X54050000Y-43675000D03*
X54050000Y-43025000D03*
X54050000Y-42375000D03*
X54050000Y-41725000D03*
X60950000Y-41725000D03*
X60950000Y-42375000D03*
X60950000Y-43025000D03*
X60950000Y-43675000D03*
X60950000Y-44325000D03*
X60950000Y-44975000D03*
X60950000Y-45625000D03*
X60950000Y-46275000D03*
D13*
X64000000Y-64000000D03*
D14*
X61460000Y-64000000D03*
X58920000Y-64000000D03*
X56380000Y-64000000D03*
X53840000Y-64000000D03*
X51300000Y-64000000D03*
D15*
X61500000Y-48000000D03*
X57500000Y-43250000D03*
X59000000Y-44000000D03*
X57000000Y-46000000D03*
X59000000Y-41000000D03*
X57000000Y-41000000D03*
X62000000Y-49000000D03*
X61000000Y-53000000D03*
X63000000Y-41000000D03*
X60000000Y-38000000D03*
X55000000Y-38000000D03*
X52000000Y-41000000D03*
X51000000Y-47000000D03*
X51000000Y-52000000D03*
X51000000Y-55000000D03*
X51000000Y-61000000D03*
X51000000Y-58000000D03*
X56000000Y-58000000D03*
X59000000Y-58000000D03*
X59000000Y-61000000D03*
X58500000Y-49500000D03*
X57500000Y-44500000D03*
X60800000Y-47200006D03*
X56000000Y-51000000D03*
X62000000Y-52000000D03*
X55500000Y-45000000D03*
X52500000Y-45000000D03*
D16*
X61500000Y-48000000D02*
X61449999Y-48050001D01*
X61449999Y-48050001D02*
X58300001Y-48050001D01*
X58300001Y-48050001D02*
X58250000Y-48000000D01*
D17*
X60950000Y-46275000D02*
X59250000Y-46275000D01*
X59250000Y-46275000D02*
X58250000Y-47275000D01*
X58250000Y-47275000D02*
X58250000Y-48000000D01*
D18*
X54050000Y-41725000D02*
X52725000Y-41725000D01*
X52725000Y-41725000D02*
X52000000Y-41000000D01*
D17*
X57500000Y-44500000D02*
X58500000Y-44500000D01*
X58500000Y-44500000D02*
X59000000Y-44000000D01*
X57000000Y-41000000D02*
X59000000Y-41000000D01*
X60950000Y-42375000D02*
X61900000Y-42375000D01*
X61900000Y-42375000D02*
X63000000Y-41275000D01*
X63000000Y-41275000D02*
X63000000Y-41000000D01*
X60000000Y-38000000D02*
X63000000Y-41000000D01*
X52000000Y-41000000D02*
X55000000Y-38000000D01*
X51000000Y-52000000D02*
X51000000Y-47000000D01*
X51000000Y-58000000D02*
X51000000Y-55000000D01*
X56000000Y-58000000D02*
X51000000Y-58000000D01*
X59000000Y-58000000D02*
X56000000Y-58000000D01*
X61460000Y-64000000D02*
X59000000Y-61540000D01*
X59000000Y-61540000D02*
X59000000Y-61000000D01*
X58500000Y-49500000D02*
X58250000Y-49500000D01*
X58250000Y-49500000D02*
X56750000Y-48000000D01*
X57500000Y-44500000D02*
X57125000Y-44125000D01*
X57125000Y-44125000D02*
X56750000Y-44125000D01*
X56750000Y-44125000D02*
X58500000Y-42375000D01*
X58500000Y-42375000D02*
X60950000Y-42375000D01*
X56750000Y-48000000D02*
X56750000Y-44125000D01*
X56750000Y-44125000D02*
X55000000Y-42375000D01*
X55000000Y-42375000D02*
X54050000Y-42375000D01*
X62250000Y-46450002D02*
X61499996Y-47200006D01*
X61499996Y-47200006D02*
X60800000Y-47200006D01*
X62250000Y-45975000D02*
X62250000Y-46450002D01*
X60950000Y-45625000D02*
X61900000Y-45625000D01*
X61900000Y-45625000D02*
X62250000Y-45975000D01*
X54050000Y-46275000D02*
X54275000Y-46275000D01*
X54275000Y-46275000D02*
X55250000Y-47250000D01*
X55250000Y-47250000D02*
X55250000Y-50250000D01*
X55250000Y-50250000D02*
X56000000Y-51000000D01*
X54050000Y-45625000D02*
X54875000Y-45625000D01*
X54875000Y-45625000D02*
X55974999Y-46724999D01*
X55974999Y-46724999D02*
X55974999Y-49724999D01*
X55974999Y-49724999D02*
X57500000Y-51250000D01*
X57500000Y-51250000D02*
X61250000Y-51250000D01*
X61250000Y-51250000D02*
X62000000Y-52000000D01*
X54050000Y-44975000D02*
X55475000Y-44975000D01*
X55475000Y-44975000D02*
X55500000Y-45000000D01*
X52500000Y-45000000D02*
X53175000Y-44325000D01*
X53175000Y-44325000D02*
X54050000Y-44325000D01*
D18*
G36*
X60571441Y-37616868D02*
X60571443Y-37616870D01*
X62822482Y-39351446D01*
X64199958Y-41748562D01*
X64575000Y-44034633D01*
X64575000Y-62767654D01*
X63150000Y-62767654D01*
X63011034Y-62793802D01*
X62883401Y-62875931D01*
X62797777Y-63001246D01*
X62767654Y-63150000D01*
X62767654Y-64575000D01*
X62525039Y-64575000D01*
X62665757Y-64216285D01*
X62590997Y-64025000D01*
X61485000Y-64025000D01*
X61485000Y-64045000D01*
X61435000Y-64045000D01*
X61435000Y-64025000D01*
X60329003Y-64025000D01*
X60254243Y-64216285D01*
X60394961Y-64575000D01*
X59996819Y-64575000D01*
X60051752Y-64492786D01*
X60145000Y-64023999D01*
X60145000Y-63976001D01*
X60106752Y-63783715D01*
X60254243Y-63783715D01*
X60329003Y-63975000D01*
X61435000Y-63975000D01*
X61435000Y-62869026D01*
X61485000Y-62869026D01*
X61485000Y-63975000D01*
X62590997Y-63975000D01*
X62665757Y-63783715D01*
X62491206Y-63338755D01*
X62159663Y-62994464D01*
X61721602Y-62803256D01*
X61676285Y-62794245D01*
X61485000Y-62869026D01*
X61435000Y-62869026D01*
X61243715Y-62794245D01*
X61198398Y-62803256D01*
X60760337Y-62994464D01*
X60428794Y-63338755D01*
X60254243Y-63783715D01*
X60106752Y-63783715D01*
X60051752Y-63507214D01*
X59786206Y-63109795D01*
X59388787Y-62844249D01*
X58920000Y-62751001D01*
X58451213Y-62844249D01*
X58053794Y-63109795D01*
X57788248Y-63507214D01*
X57695000Y-63976001D01*
X57695000Y-64023999D01*
X57788248Y-64492786D01*
X57843181Y-64575000D01*
X57456819Y-64575000D01*
X57511752Y-64492786D01*
X57605000Y-64023999D01*
X57605000Y-63976001D01*
X57511752Y-63507214D01*
X57246206Y-63109795D01*
X56848787Y-62844249D01*
X56380000Y-62751001D01*
X55911213Y-62844249D01*
X55513794Y-63109795D01*
X55248248Y-63507214D01*
X55155000Y-63976001D01*
X55155000Y-64023999D01*
X55248248Y-64492786D01*
X55303181Y-64575000D01*
X54916819Y-64575000D01*
X54971752Y-64492786D01*
X55065000Y-64023999D01*
X55065000Y-63976001D01*
X54971752Y-63507214D01*
X54706206Y-63109795D01*
X54308787Y-62844249D01*
X53840000Y-62751001D01*
X53371213Y-62844249D01*
X52973794Y-63109795D01*
X52708248Y-63507214D01*
X52615000Y-63976001D01*
X52615000Y-64023999D01*
X52708248Y-64492786D01*
X52763181Y-64575000D01*
X52376819Y-64575000D01*
X52431752Y-64492786D01*
X52525000Y-64023999D01*
X52525000Y-63976001D01*
X52431752Y-63507214D01*
X52166206Y-63109795D01*
X51768787Y-62844249D01*
X51300000Y-62751001D01*
X50831213Y-62844249D01*
X50433794Y-63109795D01*
X50425000Y-63122956D01*
X50425000Y-53500000D01*
X54875000Y-53500000D01*
X54875000Y-55500000D01*
X54884187Y-55547037D01*
X54911612Y-55588388D01*
X56411612Y-57088388D01*
X56451368Y-57115152D01*
X56500000Y-57125000D01*
X58500000Y-57125000D01*
X58547037Y-57115813D01*
X58588388Y-57088388D01*
X60088388Y-55588388D01*
X60115152Y-55548632D01*
X60125000Y-55500000D01*
X60125000Y-53500000D01*
X60115813Y-53452963D01*
X60088388Y-53411612D01*
X58588388Y-51911612D01*
X58548632Y-51884848D01*
X58500000Y-51875000D01*
X56500000Y-51875000D01*
X56452963Y-51884187D01*
X56411612Y-51911612D01*
X54911612Y-53411612D01*
X54884848Y-53451368D01*
X54875000Y-53500000D01*
X50425000Y-53500000D01*
X50425000Y-45133677D01*
X51824883Y-45133677D01*
X51927429Y-45381857D01*
X52117144Y-45571903D01*
X52365145Y-45674883D01*
X52633677Y-45675117D01*
X52881857Y-45572571D01*
X53071903Y-45382856D01*
X53080267Y-45362713D01*
X53067654Y-45425000D01*
X53067654Y-45825000D01*
X53092038Y-45954589D01*
X53067654Y-46075000D01*
X53067654Y-46475000D01*
X53093802Y-46613966D01*
X53175931Y-46741599D01*
X53301246Y-46827223D01*
X53450000Y-46857346D01*
X54079528Y-46857346D01*
X54700000Y-47477818D01*
X54700000Y-50250000D01*
X54741866Y-50460476D01*
X54861091Y-50638909D01*
X55324910Y-51102728D01*
X55324883Y-51133677D01*
X55427429Y-51381857D01*
X55617144Y-51571903D01*
X55865145Y-51674883D01*
X56133677Y-51675117D01*
X56381857Y-51572571D01*
X56571903Y-51382856D01*
X56654977Y-51182795D01*
X57111091Y-51638909D01*
X57289524Y-51758134D01*
X57500000Y-51800000D01*
X61022182Y-51800000D01*
X61324910Y-52102728D01*
X61324883Y-52133677D01*
X61427429Y-52381857D01*
X61617144Y-52571903D01*
X61865145Y-52674883D01*
X62133677Y-52675117D01*
X62381857Y-52572571D01*
X62571903Y-52382856D01*
X62674883Y-52134855D01*
X62675117Y-51866323D01*
X62572571Y-51618143D01*
X62382856Y-51428097D01*
X62134855Y-51325117D01*
X62102907Y-51325089D01*
X61638909Y-50861091D01*
X61460476Y-50741866D01*
X61250000Y-50700000D01*
X57727818Y-50700000D01*
X56524999Y-49497181D01*
X56524999Y-48750000D01*
X56631250Y-48750000D01*
X56725000Y-48656250D01*
X56725000Y-48025000D01*
X56705000Y-48025000D01*
X56705000Y-47975000D01*
X56725000Y-47975000D01*
X56725000Y-47343750D01*
X56775000Y-47343750D01*
X56775000Y-47975000D01*
X56795000Y-47975000D01*
X56795000Y-48025000D01*
X56775000Y-48025000D01*
X56775000Y-48656250D01*
X56868750Y-48750000D01*
X57224592Y-48750000D01*
X57362420Y-48692910D01*
X57467910Y-48587421D01*
X57496560Y-48518252D01*
X57575931Y-48641599D01*
X57701246Y-48727223D01*
X57850000Y-48757346D01*
X58650000Y-48757346D01*
X58788966Y-48731198D01*
X58876299Y-48675001D01*
X61449999Y-48675001D01*
X61450220Y-48674957D01*
X61633677Y-48675117D01*
X61881857Y-48572571D01*
X62071903Y-48382856D01*
X62174883Y-48134855D01*
X62175117Y-47866323D01*
X62072571Y-47618143D01*
X61966217Y-47511603D01*
X62638909Y-46838911D01*
X62758134Y-46660478D01*
X62800001Y-46450002D01*
X62800000Y-46449997D01*
X62800000Y-45975005D01*
X62800001Y-45975000D01*
X62758134Y-45764524D01*
X62638909Y-45586091D01*
X62288909Y-45236091D01*
X62110476Y-45116866D01*
X61932346Y-45081434D01*
X61932346Y-44775000D01*
X61907962Y-44645411D01*
X61932346Y-44525000D01*
X61932346Y-44125000D01*
X61907962Y-43995411D01*
X61932346Y-43875000D01*
X61932346Y-43475000D01*
X61907962Y-43345411D01*
X61932346Y-43225000D01*
X61932346Y-42825000D01*
X61907356Y-42692189D01*
X61925000Y-42649592D01*
X61925000Y-42493750D01*
X61831250Y-42400000D01*
X60975000Y-42400000D01*
X60975000Y-42420000D01*
X60925000Y-42420000D01*
X60925000Y-42400000D01*
X60068750Y-42400000D01*
X59975000Y-42493750D01*
X59975000Y-42649592D01*
X59993923Y-42695277D01*
X59967654Y-42825000D01*
X59967654Y-43225000D01*
X59992038Y-43354589D01*
X59967654Y-43475000D01*
X59967654Y-43875000D01*
X59992038Y-44004589D01*
X59967654Y-44125000D01*
X59967654Y-44525000D01*
X59992038Y-44654589D01*
X59967654Y-44775000D01*
X59967654Y-45175000D01*
X59992038Y-45304589D01*
X59967654Y-45425000D01*
X59967654Y-45725000D01*
X59250005Y-45725000D01*
X59250000Y-45724999D01*
X59051298Y-45764524D01*
X59039524Y-45766866D01*
X58861091Y-45886091D01*
X58861089Y-45886094D01*
X57861091Y-46886091D01*
X57741866Y-47064524D01*
X57700000Y-47275000D01*
X57700000Y-47275902D01*
X57583401Y-47350931D01*
X57497777Y-47476246D01*
X57496629Y-47481914D01*
X57467910Y-47412579D01*
X57362420Y-47307090D01*
X57224592Y-47250000D01*
X56868750Y-47250000D01*
X56775000Y-47343750D01*
X56725000Y-47343750D01*
X56631250Y-47250000D01*
X56524999Y-47250000D01*
X56524999Y-46725004D01*
X56525000Y-46724999D01*
X56483133Y-46514523D01*
X56463724Y-46485476D01*
X56363908Y-46336090D01*
X56363905Y-46336088D01*
X55682685Y-45654867D01*
X55881857Y-45572571D01*
X56071903Y-45382856D01*
X56174883Y-45134855D01*
X56175117Y-44866323D01*
X56072571Y-44618143D01*
X55882856Y-44428097D01*
X55634855Y-44325117D01*
X55366323Y-44324883D01*
X55124022Y-44425000D01*
X55032346Y-44425000D01*
X55032346Y-44125000D01*
X55007962Y-43995411D01*
X55032346Y-43875000D01*
X55032346Y-43475000D01*
X55007962Y-43345411D01*
X55032346Y-43225000D01*
X55032346Y-42825000D01*
X55007356Y-42692189D01*
X55025000Y-42649592D01*
X55025000Y-42493750D01*
X54931250Y-42400000D01*
X54075000Y-42400000D01*
X54075000Y-42420000D01*
X54025000Y-42420000D01*
X54025000Y-42400000D01*
X53168750Y-42400000D01*
X53075000Y-42493750D01*
X53075000Y-42649592D01*
X53093923Y-42695277D01*
X53067654Y-42825000D01*
X53067654Y-43225000D01*
X53092038Y-43354589D01*
X53067654Y-43475000D01*
X53067654Y-43796352D01*
X52964524Y-43816866D01*
X52786091Y-43936091D01*
X52397272Y-44324910D01*
X52366323Y-44324883D01*
X52118143Y-44427429D01*
X51928097Y-44617144D01*
X51825117Y-44865145D01*
X51824883Y-45133677D01*
X50425000Y-45133677D01*
X50425000Y-44041860D01*
X50862231Y-41843750D01*
X53075000Y-41843750D01*
X53075000Y-41999592D01*
X53095879Y-42050000D01*
X53075000Y-42100408D01*
X53075000Y-42256250D01*
X53168750Y-42350000D01*
X54025000Y-42350000D01*
X54025000Y-41750000D01*
X54075000Y-41750000D01*
X54075000Y-42350000D01*
X54931250Y-42350000D01*
X55025000Y-42256250D01*
X55025000Y-42100408D01*
X55004121Y-42050000D01*
X55025000Y-41999592D01*
X55025000Y-41843750D01*
X54931250Y-41750000D01*
X54075000Y-41750000D01*
X54025000Y-41750000D01*
X53168750Y-41750000D01*
X53075000Y-41843750D01*
X50862231Y-41843750D01*
X50940472Y-41450408D01*
X53075000Y-41450408D01*
X53075000Y-41606250D01*
X53168750Y-41700000D01*
X54025000Y-41700000D01*
X54025000Y-41243750D01*
X54075000Y-41243750D01*
X54075000Y-41700000D01*
X54931250Y-41700000D01*
X55025000Y-41606250D01*
X55025000Y-41525000D01*
X59967654Y-41525000D01*
X59967654Y-41925000D01*
X59992644Y-42057811D01*
X59975000Y-42100408D01*
X59975000Y-42256250D01*
X60068750Y-42350000D01*
X60925000Y-42350000D01*
X60925000Y-42330000D01*
X60975000Y-42330000D01*
X60975000Y-42350000D01*
X61831250Y-42350000D01*
X61925000Y-42256250D01*
X61925000Y-42100408D01*
X61906077Y-42054723D01*
X61932346Y-41925000D01*
X61932346Y-41525000D01*
X61906198Y-41386034D01*
X61824069Y-41258401D01*
X61698754Y-41172777D01*
X61550000Y-41142654D01*
X60350000Y-41142654D01*
X60211034Y-41168802D01*
X60083401Y-41250931D01*
X59997777Y-41376246D01*
X59967654Y-41525000D01*
X55025000Y-41525000D01*
X55025000Y-41450408D01*
X54967910Y-41312579D01*
X54862420Y-41207090D01*
X54724592Y-41150000D01*
X54168750Y-41150000D01*
X54075000Y-41243750D01*
X54025000Y-41243750D01*
X53931250Y-41150000D01*
X53375408Y-41150000D01*
X53237580Y-41207090D01*
X53132090Y-41312579D01*
X53075000Y-41450408D01*
X50940472Y-41450408D01*
X50971246Y-41295700D01*
X52507234Y-38996931D01*
X54406631Y-37632913D01*
X54741200Y-37422014D01*
X54787127Y-37378468D01*
X54836940Y-37339431D01*
X54875000Y-37295128D01*
X54875000Y-37482820D01*
X54895661Y-37551656D01*
X54930662Y-37586826D01*
X56430662Y-38586826D01*
X56500000Y-38607820D01*
X58500000Y-38607820D01*
X58569338Y-38586826D01*
X60069338Y-37586826D01*
X60115152Y-37531452D01*
X60125000Y-37482820D01*
X60125000Y-37272855D01*
X60571441Y-37616868D01*
X60571441Y-37616868D01*
G37*
X60571441Y-37616868D02*
X60571443Y-37616870D01*
X62822482Y-39351446D01*
X64199958Y-41748562D01*
X64575000Y-44034633D01*
X64575000Y-62767654D01*
X63150000Y-62767654D01*
X63011034Y-62793802D01*
X62883401Y-62875931D01*
X62797777Y-63001246D01*
X62767654Y-63150000D01*
X62767654Y-64575000D01*
X62525039Y-64575000D01*
X62665757Y-64216285D01*
X62590997Y-64025000D01*
X61485000Y-64025000D01*
X61485000Y-64045000D01*
X61435000Y-64045000D01*
X61435000Y-64025000D01*
X60329003Y-64025000D01*
X60254243Y-64216285D01*
X60394961Y-64575000D01*
X59996819Y-64575000D01*
X60051752Y-64492786D01*
X60145000Y-64023999D01*
X60145000Y-63976001D01*
X60106752Y-63783715D01*
X60254243Y-63783715D01*
X60329003Y-63975000D01*
X61435000Y-63975000D01*
X61435000Y-62869026D01*
X61485000Y-62869026D01*
X61485000Y-63975000D01*
X62590997Y-63975000D01*
X62665757Y-63783715D01*
X62491206Y-63338755D01*
X62159663Y-62994464D01*
X61721602Y-62803256D01*
X61676285Y-62794245D01*
X61485000Y-62869026D01*
X61435000Y-62869026D01*
X61243715Y-62794245D01*
X61198398Y-62803256D01*
X60760337Y-62994464D01*
X60428794Y-63338755D01*
X60254243Y-63783715D01*
X60106752Y-63783715D01*
X60051752Y-63507214D01*
X59786206Y-63109795D01*
X59388787Y-62844249D01*
X58920000Y-62751001D01*
X58451213Y-62844249D01*
X58053794Y-63109795D01*
X57788248Y-63507214D01*
X57695000Y-63976001D01*
X57695000Y-64023999D01*
X57788248Y-64492786D01*
X57843181Y-64575000D01*
X57456819Y-64575000D01*
X57511752Y-64492786D01*
X57605000Y-64023999D01*
X57605000Y-63976001D01*
X57511752Y-63507214D01*
X57246206Y-63109795D01*
X56848787Y-62844249D01*
X56380000Y-62751001D01*
X55911213Y-62844249D01*
X55513794Y-63109795D01*
X55248248Y-63507214D01*
X55155000Y-63976001D01*
X55155000Y-64023999D01*
X55248248Y-64492786D01*
X55303181Y-64575000D01*
X54916819Y-64575000D01*
X54971752Y-64492786D01*
X55065000Y-64023999D01*
X55065000Y-63976001D01*
X54971752Y-63507214D01*
X54706206Y-63109795D01*
X54308787Y-62844249D01*
X53840000Y-62751001D01*
X53371213Y-62844249D01*
X52973794Y-63109795D01*
X52708248Y-63507214D01*
X52615000Y-63976001D01*
X52615000Y-64023999D01*
X52708248Y-64492786D01*
X52763181Y-64575000D01*
X52376819Y-64575000D01*
X52431752Y-64492786D01*
X52525000Y-64023999D01*
X52525000Y-63976001D01*
X52431752Y-63507214D01*
X52166206Y-63109795D01*
X51768787Y-62844249D01*
X51300000Y-62751001D01*
X50831213Y-62844249D01*
X50433794Y-63109795D01*
X50425000Y-63122956D01*
X50425000Y-53500000D01*
X54875000Y-53500000D01*
X54875000Y-55500000D01*
X54884187Y-55547037D01*
X54911612Y-55588388D01*
X56411612Y-57088388D01*
X56451368Y-57115152D01*
X56500000Y-57125000D01*
X58500000Y-57125000D01*
X58547037Y-57115813D01*
X58588388Y-57088388D01*
X60088388Y-55588388D01*
X60115152Y-55548632D01*
X60125000Y-55500000D01*
X60125000Y-53500000D01*
X60115813Y-53452963D01*
X60088388Y-53411612D01*
X58588388Y-51911612D01*
X58548632Y-51884848D01*
X58500000Y-51875000D01*
X56500000Y-51875000D01*
X56452963Y-51884187D01*
X56411612Y-51911612D01*
X54911612Y-53411612D01*
X54884848Y-53451368D01*
X54875000Y-53500000D01*
X50425000Y-53500000D01*
X50425000Y-45133677D01*
X51824883Y-45133677D01*
X51927429Y-45381857D01*
X52117144Y-45571903D01*
X52365145Y-45674883D01*
X52633677Y-45675117D01*
X52881857Y-45572571D01*
X53071903Y-45382856D01*
X53080267Y-45362713D01*
X53067654Y-45425000D01*
X53067654Y-45825000D01*
X53092038Y-45954589D01*
X53067654Y-46075000D01*
X53067654Y-46475000D01*
X53093802Y-46613966D01*
X53175931Y-46741599D01*
X53301246Y-46827223D01*
X53450000Y-46857346D01*
X54079528Y-46857346D01*
X54700000Y-47477818D01*
X54700000Y-50250000D01*
X54741866Y-50460476D01*
X54861091Y-50638909D01*
X55324910Y-51102728D01*
X55324883Y-51133677D01*
X55427429Y-51381857D01*
X55617144Y-51571903D01*
X55865145Y-51674883D01*
X56133677Y-51675117D01*
X56381857Y-51572571D01*
X56571903Y-51382856D01*
X56654977Y-51182795D01*
X57111091Y-51638909D01*
X57289524Y-51758134D01*
X57500000Y-51800000D01*
X61022182Y-51800000D01*
X61324910Y-52102728D01*
X61324883Y-52133677D01*
X61427429Y-52381857D01*
X61617144Y-52571903D01*
X61865145Y-52674883D01*
X62133677Y-52675117D01*
X62381857Y-52572571D01*
X62571903Y-52382856D01*
X62674883Y-52134855D01*
X62675117Y-51866323D01*
X62572571Y-51618143D01*
X62382856Y-51428097D01*
X62134855Y-51325117D01*
X62102907Y-51325089D01*
X61638909Y-50861091D01*
X61460476Y-50741866D01*
X61250000Y-50700000D01*
X57727818Y-50700000D01*
X56524999Y-49497181D01*
X56524999Y-48750000D01*
X56631250Y-48750000D01*
X56725000Y-48656250D01*
X56725000Y-48025000D01*
X56705000Y-48025000D01*
X56705000Y-47975000D01*
X56725000Y-47975000D01*
X56725000Y-47343750D01*
X56775000Y-47343750D01*
X56775000Y-47975000D01*
X56795000Y-47975000D01*
X56795000Y-48025000D01*
X56775000Y-48025000D01*
X56775000Y-48656250D01*
X56868750Y-48750000D01*
X57224592Y-48750000D01*
X57362420Y-48692910D01*
X57467910Y-48587421D01*
X57496560Y-48518252D01*
X57575931Y-48641599D01*
X57701246Y-48727223D01*
X57850000Y-48757346D01*
X58650000Y-48757346D01*
X58788966Y-48731198D01*
X58876299Y-48675001D01*
X61449999Y-48675001D01*
X61450220Y-48674957D01*
X61633677Y-48675117D01*
X61881857Y-48572571D01*
X62071903Y-48382856D01*
X62174883Y-48134855D01*
X62175117Y-47866323D01*
X62072571Y-47618143D01*
X61966217Y-47511603D01*
X62638909Y-46838911D01*
X62758134Y-46660478D01*
X62800001Y-46450002D01*
X62800000Y-46449997D01*
X62800000Y-45975005D01*
X62800001Y-45975000D01*
X62758134Y-45764524D01*
X62638909Y-45586091D01*
X62288909Y-45236091D01*
X62110476Y-45116866D01*
X61932346Y-45081434D01*
X61932346Y-44775000D01*
X61907962Y-44645411D01*
X61932346Y-44525000D01*
X61932346Y-44125000D01*
X61907962Y-43995411D01*
X61932346Y-43875000D01*
X61932346Y-43475000D01*
X61907962Y-43345411D01*
X61932346Y-43225000D01*
X61932346Y-42825000D01*
X61907356Y-42692189D01*
X61925000Y-42649592D01*
X61925000Y-42493750D01*
X61831250Y-42400000D01*
X60975000Y-42400000D01*
X60975000Y-42420000D01*
X60925000Y-42420000D01*
X60925000Y-42400000D01*
X60068750Y-42400000D01*
X59975000Y-42493750D01*
X59975000Y-42649592D01*
X59993923Y-42695277D01*
X59967654Y-42825000D01*
X59967654Y-43225000D01*
X59992038Y-43354589D01*
X59967654Y-43475000D01*
X59967654Y-43875000D01*
X59992038Y-44004589D01*
X59967654Y-44125000D01*
X59967654Y-44525000D01*
X59992038Y-44654589D01*
X59967654Y-44775000D01*
X59967654Y-45175000D01*
X59992038Y-45304589D01*
X59967654Y-45425000D01*
X59967654Y-45725000D01*
X59250005Y-45725000D01*
X59250000Y-45724999D01*
X59051298Y-45764524D01*
X59039524Y-45766866D01*
X58861091Y-45886091D01*
X58861089Y-45886094D01*
X57861091Y-46886091D01*
X57741866Y-47064524D01*
X57700000Y-47275000D01*
X57700000Y-47275902D01*
X57583401Y-47350931D01*
X57497777Y-47476246D01*
X57496629Y-47481914D01*
X57467910Y-47412579D01*
X57362420Y-47307090D01*
X57224592Y-47250000D01*
X56868750Y-47250000D01*
X56775000Y-47343750D01*
X56725000Y-47343750D01*
X56631250Y-47250000D01*
X56524999Y-47250000D01*
X56524999Y-46725004D01*
X56525000Y-46724999D01*
X56483133Y-46514523D01*
X56463724Y-46485476D01*
X56363908Y-46336090D01*
X56363905Y-46336088D01*
X55682685Y-45654867D01*
X55881857Y-45572571D01*
X56071903Y-45382856D01*
X56174883Y-45134855D01*
X56175117Y-44866323D01*
X56072571Y-44618143D01*
X55882856Y-44428097D01*
X55634855Y-44325117D01*
X55366323Y-44324883D01*
X55124022Y-44425000D01*
X55032346Y-44425000D01*
X55032346Y-44125000D01*
X55007962Y-43995411D01*
X55032346Y-43875000D01*
X55032346Y-43475000D01*
X55007962Y-43345411D01*
X55032346Y-43225000D01*
X55032346Y-42825000D01*
X55007356Y-42692189D01*
X55025000Y-42649592D01*
X55025000Y-42493750D01*
X54931250Y-42400000D01*
X54075000Y-42400000D01*
X54075000Y-42420000D01*
X54025000Y-42420000D01*
X54025000Y-42400000D01*
X53168750Y-42400000D01*
X53075000Y-42493750D01*
X53075000Y-42649592D01*
X53093923Y-42695277D01*
X53067654Y-42825000D01*
X53067654Y-43225000D01*
X53092038Y-43354589D01*
X53067654Y-43475000D01*
X53067654Y-43796352D01*
X52964524Y-43816866D01*
X52786091Y-43936091D01*
X52397272Y-44324910D01*
X52366323Y-44324883D01*
X52118143Y-44427429D01*
X51928097Y-44617144D01*
X51825117Y-44865145D01*
X51824883Y-45133677D01*
X50425000Y-45133677D01*
X50425000Y-44041860D01*
X50862231Y-41843750D01*
X53075000Y-41843750D01*
X53075000Y-41999592D01*
X53095879Y-42050000D01*
X53075000Y-42100408D01*
X53075000Y-42256250D01*
X53168750Y-42350000D01*
X54025000Y-42350000D01*
X54025000Y-41750000D01*
X54075000Y-41750000D01*
X54075000Y-42350000D01*
X54931250Y-42350000D01*
X55025000Y-42256250D01*
X55025000Y-42100408D01*
X55004121Y-42050000D01*
X55025000Y-41999592D01*
X55025000Y-41843750D01*
X54931250Y-41750000D01*
X54075000Y-41750000D01*
X54025000Y-41750000D01*
X53168750Y-41750000D01*
X53075000Y-41843750D01*
X50862231Y-41843750D01*
X50940472Y-41450408D01*
X53075000Y-41450408D01*
X53075000Y-41606250D01*
X53168750Y-41700000D01*
X54025000Y-41700000D01*
X54025000Y-41243750D01*
X54075000Y-41243750D01*
X54075000Y-41700000D01*
X54931250Y-41700000D01*
X55025000Y-41606250D01*
X55025000Y-41525000D01*
X59967654Y-41525000D01*
X59967654Y-41925000D01*
X59992644Y-42057811D01*
X59975000Y-42100408D01*
X59975000Y-42256250D01*
X60068750Y-42350000D01*
X60925000Y-42350000D01*
X60925000Y-42330000D01*
X60975000Y-42330000D01*
X60975000Y-42350000D01*
X61831250Y-42350000D01*
X61925000Y-42256250D01*
X61925000Y-42100408D01*
X61906077Y-42054723D01*
X61932346Y-41925000D01*
X61932346Y-41525000D01*
X61906198Y-41386034D01*
X61824069Y-41258401D01*
X61698754Y-41172777D01*
X61550000Y-41142654D01*
X60350000Y-41142654D01*
X60211034Y-41168802D01*
X60083401Y-41250931D01*
X59997777Y-41376246D01*
X59967654Y-41525000D01*
X55025000Y-41525000D01*
X55025000Y-41450408D01*
X54967910Y-41312579D01*
X54862420Y-41207090D01*
X54724592Y-41150000D01*
X54168750Y-41150000D01*
X54075000Y-41243750D01*
X54025000Y-41243750D01*
X53931250Y-41150000D01*
X53375408Y-41150000D01*
X53237580Y-41207090D01*
X53132090Y-41312579D01*
X53075000Y-41450408D01*
X50940472Y-41450408D01*
X50971246Y-41295700D01*
X52507234Y-38996931D01*
X54406631Y-37632913D01*
X54741200Y-37422014D01*
X54787127Y-37378468D01*
X54836940Y-37339431D01*
X54875000Y-37295128D01*
X54875000Y-37482820D01*
X54895661Y-37551656D01*
X54930662Y-37586826D01*
X56430662Y-38586826D01*
X56500000Y-38607820D01*
X58500000Y-38607820D01*
X58569338Y-38586826D01*
X60069338Y-37586826D01*
X60115152Y-37531452D01*
X60125000Y-37482820D01*
X60125000Y-37272855D01*
X60571441Y-37616868D01*
M02*
