M48
;DRILL file {KiCad 4.0.7} date Sat Jun  9 20:24:20 2018
;FORMAT={-:-/ absolute / inch / decimal}
FMAT,2
INCH,TZ
T1C0.016
T2C0.039
%
G90
G05
M72
T1
X2.0079Y-1.8504
X2.0079Y-2.0472
X2.0079Y-2.1654
X2.0079Y-2.2835
X2.0079Y-2.4016
X2.0472Y-1.6142
X2.0669Y-1.7717
X2.1654Y-1.4961
X2.185Y-1.7717
X2.2047Y-2.0079
X2.2047Y-2.2835
X2.2441Y-1.6142
X2.2441Y-1.811
X2.2638Y-1.7028
X2.2638Y-1.752
X2.3031Y-1.9488
X2.3228Y-1.6142
X2.3228Y-1.7323
X2.3228Y-2.2835
X2.3228Y-2.4016
X2.3622Y-1.4961
X2.3937Y-1.8583
X2.4016Y-2.0866
X2.4213Y-1.8898
X2.4409Y-1.9291
X2.4409Y-2.0472
X2.4803Y-1.6142
T2
X2.0197Y-2.5197
X2.1197Y-2.5197
X2.2197Y-2.5197
X2.3197Y-2.5197
X2.4197Y-2.5197
X2.5197Y-2.5197
T0
M30
