G04 #@! TF.FileFunction,Legend,Top*
%FSLAX46Y46*%
G04 Gerber Fmt 4.6, Leading zero omitted, Abs format (unit mm)*
G04 Created by KiCad (PCBNEW 4.0.7) date Sat Jun  9 20:24:17 2018*
%MOMM*%
%LPD*%
G01*
G04 APERTURE LIST*
%ADD10C,0.100000*%
%ADD11C,0.150000*%
%ADD12C,0.200000*%
%ADD13C,0.250000*%
%ADD14C,0.120000*%
G04 APERTURE END LIST*
D10*
D11*
X61000000Y-61250000D02*
X61250000Y-61250000D01*
X61250000Y-61000000D02*
X61000000Y-61250000D01*
X61250000Y-61250000D02*
X61250000Y-61000000D01*
X60000000Y-59750000D02*
X61250000Y-61250000D01*
D12*
X61150000Y-60011904D02*
X61092857Y-60107142D01*
X61092857Y-60249999D01*
X61150000Y-60392857D01*
X61264286Y-60488095D01*
X61378571Y-60535714D01*
X61607143Y-60583333D01*
X61778571Y-60583333D01*
X62007143Y-60535714D01*
X62121429Y-60488095D01*
X62235714Y-60392857D01*
X62292857Y-60249999D01*
X62292857Y-60154761D01*
X62235714Y-60011904D01*
X62178571Y-59964285D01*
X61778571Y-59964285D01*
X61778571Y-60154761D01*
X62292857Y-59535714D02*
X61092857Y-59535714D01*
X62292857Y-58964285D01*
X61092857Y-58964285D01*
X62292857Y-58488095D02*
X61092857Y-58488095D01*
X61092857Y-58250000D01*
X61150000Y-58107142D01*
X61264286Y-58011904D01*
X61378571Y-57964285D01*
X61607143Y-57916666D01*
X61778571Y-57916666D01*
X62007143Y-57964285D01*
X62121429Y-58011904D01*
X62235714Y-58107142D01*
X62292857Y-58250000D01*
X62292857Y-58488095D01*
X63835714Y-60535714D02*
X63835714Y-59773809D01*
X64292857Y-60154761D02*
X63378571Y-60154761D01*
X63092857Y-58821428D02*
X63092857Y-59297619D01*
X63664286Y-59345238D01*
X63607143Y-59297619D01*
X63550000Y-59202381D01*
X63550000Y-58964285D01*
X63607143Y-58869047D01*
X63664286Y-58821428D01*
X63778571Y-58773809D01*
X64064286Y-58773809D01*
X64178571Y-58821428D01*
X64235714Y-58869047D01*
X64292857Y-58964285D01*
X64292857Y-59202381D01*
X64235714Y-59297619D01*
X64178571Y-59345238D01*
X63092857Y-58488095D02*
X64292857Y-58154762D01*
X63092857Y-57821428D01*
D13*
X51392857Y-61642857D02*
X51464286Y-61428571D01*
X51535714Y-61357143D01*
X51678571Y-61285714D01*
X51892857Y-61285714D01*
X52035714Y-61357143D01*
X52107143Y-61428571D01*
X52178571Y-61571429D01*
X52178571Y-62142857D01*
X50678571Y-62142857D01*
X50678571Y-61642857D01*
X50750000Y-61500000D01*
X50821429Y-61428571D01*
X50964286Y-61357143D01*
X51107143Y-61357143D01*
X51250000Y-61428571D01*
X51321429Y-61500000D01*
X51392857Y-61642857D01*
X51392857Y-62142857D01*
X50678571Y-60428571D02*
X51035714Y-60428571D01*
X50892857Y-60785714D02*
X51035714Y-60428571D01*
X50892857Y-60071429D01*
X51321429Y-60642857D02*
X51035714Y-60428571D01*
X51321429Y-60214286D01*
X53892857Y-61642857D02*
X53964286Y-61428571D01*
X54035714Y-61357143D01*
X54178571Y-61285714D01*
X54392857Y-61285714D01*
X54535714Y-61357143D01*
X54607143Y-61428571D01*
X54678571Y-61571429D01*
X54678571Y-62142857D01*
X53178571Y-62142857D01*
X53178571Y-61642857D01*
X53250000Y-61500000D01*
X53321429Y-61428571D01*
X53464286Y-61357143D01*
X53607143Y-61357143D01*
X53750000Y-61428571D01*
X53821429Y-61500000D01*
X53892857Y-61642857D01*
X53892857Y-62142857D01*
X56750000Y-62214286D02*
X56750000Y-61500000D01*
X57178571Y-62357143D02*
X55678571Y-61857143D01*
X57178571Y-61357143D01*
X55678571Y-60642857D02*
X56035714Y-60642857D01*
X55892857Y-61000000D02*
X56035714Y-60642857D01*
X55892857Y-60285715D01*
X56321429Y-60857143D02*
X56035714Y-60642857D01*
X56321429Y-60428572D01*
X59250000Y-62214286D02*
X59250000Y-61500000D01*
X59678571Y-62357143D02*
X58178571Y-61857143D01*
X59678571Y-61357143D01*
D11*
X60000000Y-36000000D02*
G75*
G03X60000000Y-36000000I-2500000J0D01*
G01*
X60000000Y-54500000D02*
G75*
G03X60000000Y-54500000I-2500000J0D01*
G01*
D14*
X59850000Y-48600000D02*
X59150000Y-48600000D01*
X59150000Y-47400000D02*
X59850000Y-47400000D01*
X54850000Y-41600000D02*
X54150000Y-41600000D01*
X54150000Y-40400000D02*
X54850000Y-40400000D01*
X63100000Y-62100000D02*
X62400000Y-62100000D01*
X62400000Y-60900000D02*
X63100000Y-60900000D01*
X56200000Y-50500000D02*
X56200000Y-51500000D01*
X56200000Y-51500000D02*
X58300000Y-51500000D01*
X56200000Y-50500000D02*
X58300000Y-50500000D01*
X63000000Y-52700000D02*
X62000000Y-52700000D01*
X62000000Y-52700000D02*
X62000000Y-54800000D01*
X63000000Y-52700000D02*
X63000000Y-54800000D01*
X61000000Y-51680000D02*
X60000000Y-51680000D01*
X60000000Y-50320000D02*
X61000000Y-50320000D01*
X61820000Y-57250000D02*
X61820000Y-56250000D01*
X63180000Y-56250000D02*
X63180000Y-57250000D01*
X59000000Y-44430000D02*
X61000000Y-44430000D01*
X61000000Y-46570000D02*
X59000000Y-46570000D01*
X58430000Y-42000000D02*
X58430000Y-40000000D01*
X60570000Y-40000000D02*
X60570000Y-42000000D01*
D11*
X56575000Y-43925000D02*
X56525000Y-43925000D01*
X56575000Y-48075000D02*
X56430000Y-48075000D01*
X51425000Y-48075000D02*
X51570000Y-48075000D01*
X51425000Y-43925000D02*
X51570000Y-43925000D01*
X56575000Y-43925000D02*
X56575000Y-48075000D01*
X51425000Y-43925000D02*
X51425000Y-48075000D01*
X56525000Y-43925000D02*
X56525000Y-42525000D01*
X53380953Y-39952381D02*
X52809524Y-39952381D01*
X53095238Y-39952381D02*
X53095238Y-38952381D01*
X53000000Y-39095238D01*
X52904762Y-39190476D01*
X52809524Y-39238095D01*
X54000000Y-38952381D02*
X54095239Y-38952381D01*
X54190477Y-39000000D01*
X54238096Y-39047619D01*
X54285715Y-39142857D01*
X54333334Y-39333333D01*
X54333334Y-39571429D01*
X54285715Y-39761905D01*
X54238096Y-39857143D01*
X54190477Y-39904762D01*
X54095239Y-39952381D01*
X54000000Y-39952381D01*
X53904762Y-39904762D01*
X53857143Y-39857143D01*
X53809524Y-39761905D01*
X53761905Y-39571429D01*
X53761905Y-39333333D01*
X53809524Y-39142857D01*
X53857143Y-39047619D01*
X53904762Y-39000000D01*
X54000000Y-38952381D01*
X54952381Y-38952381D02*
X55047620Y-38952381D01*
X55142858Y-39000000D01*
X55190477Y-39047619D01*
X55238096Y-39142857D01*
X55285715Y-39333333D01*
X55285715Y-39571429D01*
X55238096Y-39761905D01*
X55190477Y-39857143D01*
X55142858Y-39904762D01*
X55047620Y-39952381D01*
X54952381Y-39952381D01*
X54857143Y-39904762D01*
X54809524Y-39857143D01*
X54761905Y-39761905D01*
X54714286Y-39571429D01*
X54714286Y-39333333D01*
X54761905Y-39142857D01*
X54809524Y-39047619D01*
X54857143Y-39000000D01*
X54952381Y-38952381D01*
X55714286Y-39285714D02*
X55714286Y-39952381D01*
X55714286Y-39380952D02*
X55761905Y-39333333D01*
X55857143Y-39285714D01*
X56000001Y-39285714D01*
X56095239Y-39333333D01*
X56142858Y-39428571D01*
X56142858Y-39952381D01*
X57250000Y-59452381D02*
X56678571Y-59452381D01*
X56964285Y-59452381D02*
X56964285Y-58452381D01*
X56869047Y-58595238D01*
X56773809Y-58690476D01*
X56678571Y-58738095D01*
X57678571Y-58785714D02*
X57678571Y-59785714D01*
X58154762Y-59309524D02*
X58202381Y-59404762D01*
X58297619Y-59452381D01*
X57678571Y-59309524D02*
X57726190Y-59404762D01*
X57821428Y-59452381D01*
X58011905Y-59452381D01*
X58107143Y-59404762D01*
X58154762Y-59309524D01*
X58154762Y-58785714D01*
X60011905Y-59452381D02*
X59440476Y-59452381D01*
X59726190Y-59452381D02*
X59726190Y-58452381D01*
X59630952Y-58595238D01*
X59535714Y-58690476D01*
X59440476Y-58738095D01*
X60630952Y-58452381D02*
X60726191Y-58452381D01*
X60821429Y-58500000D01*
X60869048Y-58547619D01*
X60916667Y-58642857D01*
X60964286Y-58833333D01*
X60964286Y-59071429D01*
X60916667Y-59261905D01*
X60869048Y-59357143D01*
X60821429Y-59404762D01*
X60726191Y-59452381D01*
X60630952Y-59452381D01*
X60535714Y-59404762D01*
X60488095Y-59357143D01*
X60440476Y-59261905D01*
X60392857Y-59071429D01*
X60392857Y-58833333D01*
X60440476Y-58642857D01*
X60488095Y-58547619D01*
X60535714Y-58500000D01*
X60630952Y-58452381D01*
X61250000Y-58452381D02*
X61583333Y-59452381D01*
X61916667Y-58452381D01*
X56821428Y-49726190D02*
X56821428Y-50202381D01*
X56488095Y-49202381D02*
X56821428Y-49726190D01*
X57154762Y-49202381D01*
X57869048Y-50154762D02*
X57773810Y-50202381D01*
X57583333Y-50202381D01*
X57488095Y-50154762D01*
X57440476Y-50059524D01*
X57440476Y-49678571D01*
X57488095Y-49583333D01*
X57583333Y-49535714D01*
X57773810Y-49535714D01*
X57869048Y-49583333D01*
X57916667Y-49678571D01*
X57916667Y-49773810D01*
X57440476Y-49869048D01*
X58488095Y-50202381D02*
X58392857Y-50154762D01*
X58345238Y-50059524D01*
X58345238Y-49202381D01*
X59011905Y-50202381D02*
X58916667Y-50154762D01*
X58869048Y-50059524D01*
X58869048Y-49202381D01*
X59535715Y-50202381D02*
X59440477Y-50154762D01*
X59392858Y-50107143D01*
X59345239Y-50011905D01*
X59345239Y-49726190D01*
X59392858Y-49630952D01*
X59440477Y-49583333D01*
X59535715Y-49535714D01*
X59678573Y-49535714D01*
X59773811Y-49583333D01*
X59821430Y-49630952D01*
X59869049Y-49726190D01*
X59869049Y-50011905D01*
X59821430Y-50107143D01*
X59773811Y-50154762D01*
X59678573Y-50202381D01*
X59535715Y-50202381D01*
X60202382Y-49535714D02*
X60392858Y-50202381D01*
X60583335Y-49726190D01*
X60773811Y-50202381D01*
X60964287Y-49535714D01*
X64452381Y-54571428D02*
X63976190Y-54904762D01*
X64452381Y-55142857D02*
X63452381Y-55142857D01*
X63452381Y-54761904D01*
X63500000Y-54666666D01*
X63547619Y-54619047D01*
X63642857Y-54571428D01*
X63785714Y-54571428D01*
X63880952Y-54619047D01*
X63928571Y-54666666D01*
X63976190Y-54761904D01*
X63976190Y-55142857D01*
X64404762Y-53761904D02*
X64452381Y-53857142D01*
X64452381Y-54047619D01*
X64404762Y-54142857D01*
X64309524Y-54190476D01*
X63928571Y-54190476D01*
X63833333Y-54142857D01*
X63785714Y-54047619D01*
X63785714Y-53857142D01*
X63833333Y-53761904D01*
X63928571Y-53714285D01*
X64023810Y-53714285D01*
X64119048Y-54190476D01*
X64452381Y-52857142D02*
X63452381Y-52857142D01*
X64404762Y-52857142D02*
X64452381Y-52952380D01*
X64452381Y-53142857D01*
X64404762Y-53238095D01*
X64357143Y-53285714D01*
X64261905Y-53333333D01*
X63976190Y-53333333D01*
X63880952Y-53285714D01*
X63833333Y-53238095D01*
X63785714Y-53142857D01*
X63785714Y-52952380D01*
X63833333Y-52857142D01*
X62059524Y-50547619D02*
X62107143Y-50500000D01*
X62202381Y-50452381D01*
X62440477Y-50452381D01*
X62535715Y-50500000D01*
X62583334Y-50547619D01*
X62630953Y-50642857D01*
X62630953Y-50738095D01*
X62583334Y-50880952D01*
X62011905Y-51452381D01*
X62630953Y-51452381D01*
X63059524Y-51452381D02*
X63059524Y-50452381D01*
X63154762Y-51071429D02*
X63440477Y-51452381D01*
X63440477Y-50785714D02*
X63059524Y-51166667D01*
X60547619Y-57440476D02*
X60500000Y-57392857D01*
X60452381Y-57297619D01*
X60452381Y-57059523D01*
X60500000Y-56964285D01*
X60547619Y-56916666D01*
X60642857Y-56869047D01*
X60738095Y-56869047D01*
X60880952Y-56916666D01*
X61452381Y-57488095D01*
X61452381Y-56869047D01*
X61452381Y-56440476D02*
X60452381Y-56440476D01*
X61071429Y-56345238D02*
X61452381Y-56059523D01*
X60785714Y-56059523D02*
X61166667Y-56440476D01*
X63452381Y-47047619D02*
X62452381Y-47047619D01*
X62928571Y-47047619D02*
X62928571Y-46476190D01*
X63452381Y-46476190D02*
X62452381Y-46476190D01*
X62928571Y-46000000D02*
X62928571Y-45666666D01*
X63452381Y-45523809D02*
X63452381Y-46000000D01*
X62452381Y-46000000D01*
X62452381Y-45523809D01*
X63166667Y-45142857D02*
X63166667Y-44666666D01*
X63452381Y-45238095D02*
X62452381Y-44904762D01*
X63452381Y-44571428D01*
X62452381Y-44380952D02*
X62452381Y-43809523D01*
X63452381Y-44095238D02*
X62452381Y-44095238D01*
X61952381Y-42547619D02*
X60952381Y-42547619D01*
X61428571Y-42547619D02*
X61428571Y-41976190D01*
X61952381Y-41976190D02*
X60952381Y-41976190D01*
X61428571Y-41500000D02*
X61428571Y-41166666D01*
X61952381Y-41023809D02*
X61952381Y-41500000D01*
X60952381Y-41500000D01*
X60952381Y-41023809D01*
X61666667Y-40642857D02*
X61666667Y-40166666D01*
X61952381Y-40738095D02*
X60952381Y-40404762D01*
X61952381Y-40071428D01*
X60952381Y-39880952D02*
X60952381Y-39309523D01*
X61952381Y-39595238D02*
X60952381Y-39595238D01*
X50357143Y-50952381D02*
X50357143Y-49952381D01*
X50595238Y-49952381D01*
X50738096Y-50000000D01*
X50833334Y-50095238D01*
X50880953Y-50190476D01*
X50928572Y-50380952D01*
X50928572Y-50523810D01*
X50880953Y-50714286D01*
X50833334Y-50809524D01*
X50738096Y-50904762D01*
X50595238Y-50952381D01*
X50357143Y-50952381D01*
X51309524Y-50904762D02*
X51452381Y-50952381D01*
X51690477Y-50952381D01*
X51785715Y-50904762D01*
X51833334Y-50857143D01*
X51880953Y-50761905D01*
X51880953Y-50666667D01*
X51833334Y-50571429D01*
X51785715Y-50523810D01*
X51690477Y-50476190D01*
X51500000Y-50428571D01*
X51404762Y-50380952D01*
X51357143Y-50333333D01*
X51309524Y-50238095D01*
X51309524Y-50142857D01*
X51357143Y-50047619D01*
X51404762Y-50000000D01*
X51500000Y-49952381D01*
X51738096Y-49952381D01*
X51880953Y-50000000D01*
X52357143Y-50952381D02*
X52547619Y-50952381D01*
X52642858Y-50904762D01*
X52690477Y-50857143D01*
X52785715Y-50714286D01*
X52833334Y-50523810D01*
X52833334Y-50142857D01*
X52785715Y-50047619D01*
X52738096Y-50000000D01*
X52642858Y-49952381D01*
X52452381Y-49952381D01*
X52357143Y-50000000D01*
X52309524Y-50047619D01*
X52261905Y-50142857D01*
X52261905Y-50380952D01*
X52309524Y-50476190D01*
X52357143Y-50523810D01*
X52452381Y-50571429D01*
X52642858Y-50571429D01*
X52738096Y-50523810D01*
X52785715Y-50476190D01*
X52833334Y-50380952D01*
X53690477Y-49952381D02*
X53500000Y-49952381D01*
X53404762Y-50000000D01*
X53357143Y-50047619D01*
X53261905Y-50190476D01*
X53214286Y-50380952D01*
X53214286Y-50761905D01*
X53261905Y-50857143D01*
X53309524Y-50904762D01*
X53404762Y-50952381D01*
X53595239Y-50952381D01*
X53690477Y-50904762D01*
X53738096Y-50857143D01*
X53785715Y-50761905D01*
X53785715Y-50523810D01*
X53738096Y-50428571D01*
X53690477Y-50380952D01*
X53595239Y-50333333D01*
X53404762Y-50333333D01*
X53309524Y-50380952D01*
X53261905Y-50428571D01*
X53214286Y-50523810D01*
X54119048Y-49952381D02*
X54738096Y-49952381D01*
X54404762Y-50333333D01*
X54547620Y-50333333D01*
X54642858Y-50380952D01*
X54690477Y-50428571D01*
X54738096Y-50523810D01*
X54738096Y-50761905D01*
X54690477Y-50857143D01*
X54642858Y-50904762D01*
X54547620Y-50952381D01*
X54261905Y-50952381D01*
X54166667Y-50904762D01*
X54119048Y-50857143D01*
X55309524Y-50380952D02*
X55214286Y-50333333D01*
X55166667Y-50285714D01*
X55119048Y-50190476D01*
X55119048Y-50142857D01*
X55166667Y-50047619D01*
X55214286Y-50000000D01*
X55309524Y-49952381D01*
X55500001Y-49952381D01*
X55595239Y-50000000D01*
X55642858Y-50047619D01*
X55690477Y-50142857D01*
X55690477Y-50190476D01*
X55642858Y-50285714D01*
X55595239Y-50333333D01*
X55500001Y-50380952D01*
X55309524Y-50380952D01*
X55214286Y-50428571D01*
X55166667Y-50476190D01*
X55119048Y-50571429D01*
X55119048Y-50761905D01*
X55166667Y-50857143D01*
X55214286Y-50904762D01*
X55309524Y-50952381D01*
X55500001Y-50952381D01*
X55595239Y-50904762D01*
X55642858Y-50857143D01*
X55690477Y-50761905D01*
X55690477Y-50571429D01*
X55642858Y-50476190D01*
X55595239Y-50428571D01*
X55500001Y-50380952D01*
M02*
