G04 #@! TF.FileFunction,Legend,Bot*
%FSLAX46Y46*%
G04 Gerber Fmt 4.6, Leading zero omitted, Abs format (unit mm)*
G04 Created by KiCad (PCBNEW 4.0.7) date Sat Jun  9 20:24:17 2018*
%MOMM*%
%LPD*%
G01*
G04 APERTURE LIST*
%ADD10C,0.100000*%
%ADD11C,0.250000*%
%ADD12C,0.150000*%
%ADD13C,0.120000*%
G04 APERTURE END LIST*
D10*
D11*
X51392857Y-60464286D02*
X51464286Y-60678572D01*
X51535714Y-60750000D01*
X51678571Y-60821429D01*
X51892857Y-60821429D01*
X52035714Y-60750000D01*
X52107143Y-60678572D01*
X52178571Y-60535714D01*
X52178571Y-59964286D01*
X50678571Y-59964286D01*
X50678571Y-60464286D01*
X50750000Y-60607143D01*
X50821429Y-60678572D01*
X50964286Y-60750000D01*
X51107143Y-60750000D01*
X51250000Y-60678572D01*
X51321429Y-60607143D01*
X51392857Y-60464286D01*
X51392857Y-59964286D01*
X50678571Y-61678572D02*
X51035714Y-61678572D01*
X50892857Y-61321429D02*
X51035714Y-61678572D01*
X50892857Y-62035714D01*
X51321429Y-61464286D02*
X51035714Y-61678572D01*
X51321429Y-61892857D01*
X53892857Y-61607143D02*
X53964286Y-61821429D01*
X54035714Y-61892857D01*
X54178571Y-61964286D01*
X54392857Y-61964286D01*
X54535714Y-61892857D01*
X54607143Y-61821429D01*
X54678571Y-61678571D01*
X54678571Y-61107143D01*
X53178571Y-61107143D01*
X53178571Y-61607143D01*
X53250000Y-61750000D01*
X53321429Y-61821429D01*
X53464286Y-61892857D01*
X53607143Y-61892857D01*
X53750000Y-61821429D01*
X53821429Y-61750000D01*
X53892857Y-61607143D01*
X53892857Y-61107143D01*
X56750000Y-60107143D02*
X56750000Y-60821429D01*
X57178571Y-59964286D02*
X55678571Y-60464286D01*
X57178571Y-60964286D01*
X55678571Y-61678572D02*
X56035714Y-61678572D01*
X55892857Y-61321429D02*
X56035714Y-61678572D01*
X55892857Y-62035714D01*
X56321429Y-61464286D02*
X56035714Y-61678572D01*
X56321429Y-61892857D01*
X59250000Y-61250000D02*
X59250000Y-61964286D01*
X59678571Y-61107143D02*
X58178571Y-61607143D01*
X59678571Y-62107143D01*
X60750000Y-58821428D02*
X60678571Y-58678571D01*
X60678571Y-58464285D01*
X60750000Y-58250000D01*
X60892857Y-58107142D01*
X61035714Y-58035714D01*
X61321429Y-57964285D01*
X61535714Y-57964285D01*
X61821429Y-58035714D01*
X61964286Y-58107142D01*
X62107143Y-58250000D01*
X62178571Y-58464285D01*
X62178571Y-58607142D01*
X62107143Y-58821428D01*
X62035714Y-58892857D01*
X61535714Y-58892857D01*
X61535714Y-58607142D01*
X62178571Y-59535714D02*
X60678571Y-59535714D01*
X62178571Y-60392857D01*
X60678571Y-60392857D01*
X62178571Y-61107143D02*
X60678571Y-61107143D01*
X60678571Y-61464286D01*
X60750000Y-61678571D01*
X60892857Y-61821429D01*
X61035714Y-61892857D01*
X61321429Y-61964286D01*
X61535714Y-61964286D01*
X61821429Y-61892857D01*
X61964286Y-61821429D01*
X62107143Y-61678571D01*
X62178571Y-61464286D01*
X62178571Y-61107143D01*
X64107143Y-58035715D02*
X64107143Y-59178572D01*
X64678571Y-58607143D02*
X63535714Y-58607143D01*
X63178571Y-60607144D02*
X63178571Y-59892858D01*
X63892857Y-59821429D01*
X63821429Y-59892858D01*
X63750000Y-60035715D01*
X63750000Y-60392858D01*
X63821429Y-60535715D01*
X63892857Y-60607144D01*
X64035714Y-60678572D01*
X64392857Y-60678572D01*
X64535714Y-60607144D01*
X64607143Y-60535715D01*
X64678571Y-60392858D01*
X64678571Y-60035715D01*
X64607143Y-59892858D01*
X64535714Y-59821429D01*
X63178571Y-61107143D02*
X64678571Y-61607143D01*
X63178571Y-62107143D01*
D12*
X62500000Y-44000000D02*
G75*
G03X62500000Y-44000000I-5000000J0D01*
G01*
D13*
X57850000Y-47400000D02*
X57150000Y-47400000D01*
X57150000Y-48600000D02*
X57850000Y-48600000D01*
D12*
X54725000Y-47275000D02*
X54725000Y-46800000D01*
X60275000Y-47275000D02*
X60275000Y-46700000D01*
X60275000Y-40725000D02*
X60275000Y-41300000D01*
X54725000Y-40725000D02*
X54725000Y-41300000D01*
X54725000Y-47275000D02*
X60275000Y-47275000D01*
X54725000Y-40725000D02*
X60275000Y-40725000D01*
X54725000Y-46800000D02*
X53450000Y-46800000D01*
D13*
X62730000Y-65390000D02*
X49910000Y-65390000D01*
X49910000Y-65390000D02*
X49910000Y-62610000D01*
X49910000Y-62610000D02*
X62730000Y-62610000D01*
X62730000Y-62610000D02*
X62730000Y-65390000D01*
X64000000Y-65390000D02*
X65390000Y-65390000D01*
X65390000Y-65390000D02*
X65390000Y-64000000D01*
D12*
X58619047Y-50202381D02*
X59190476Y-50202381D01*
X58904762Y-50202381D02*
X58904762Y-49202381D01*
X59000000Y-49345238D01*
X59095238Y-49440476D01*
X59190476Y-49488095D01*
X58000000Y-49202381D02*
X57904761Y-49202381D01*
X57809523Y-49250000D01*
X57761904Y-49297619D01*
X57714285Y-49392857D01*
X57666666Y-49583333D01*
X57666666Y-49821429D01*
X57714285Y-50011905D01*
X57761904Y-50107143D01*
X57809523Y-50154762D01*
X57904761Y-50202381D01*
X58000000Y-50202381D01*
X58095238Y-50154762D01*
X58142857Y-50107143D01*
X58190476Y-50011905D01*
X58238095Y-49821429D01*
X58238095Y-49583333D01*
X58190476Y-49392857D01*
X58142857Y-49297619D01*
X58095238Y-49250000D01*
X58000000Y-49202381D01*
X57047619Y-49202381D02*
X56952380Y-49202381D01*
X56857142Y-49250000D01*
X56809523Y-49297619D01*
X56761904Y-49392857D01*
X56714285Y-49583333D01*
X56714285Y-49821429D01*
X56761904Y-50011905D01*
X56809523Y-50107143D01*
X56857142Y-50154762D01*
X56952380Y-50202381D01*
X57047619Y-50202381D01*
X57142857Y-50154762D01*
X57190476Y-50107143D01*
X57238095Y-50011905D01*
X57285714Y-49821429D01*
X57285714Y-49583333D01*
X57238095Y-49392857D01*
X57190476Y-49297619D01*
X57142857Y-49250000D01*
X57047619Y-49202381D01*
X56285714Y-49535714D02*
X56285714Y-50202381D01*
X56285714Y-49630952D02*
X56238095Y-49583333D01*
X56142857Y-49535714D01*
X55999999Y-49535714D01*
X55904761Y-49583333D01*
X55857142Y-49678571D01*
X55857142Y-50202381D01*
X63416667Y-41380952D02*
X63416667Y-41857143D01*
X63702381Y-41285714D02*
X62702381Y-41619047D01*
X63702381Y-41952381D01*
X63654762Y-42238095D02*
X63702381Y-42380952D01*
X63702381Y-42619048D01*
X63654762Y-42714286D01*
X63607143Y-42761905D01*
X63511905Y-42809524D01*
X63416667Y-42809524D01*
X63321429Y-42761905D01*
X63273810Y-42714286D01*
X63226190Y-42619048D01*
X63178571Y-42428571D01*
X63130952Y-42333333D01*
X63083333Y-42285714D01*
X62988095Y-42238095D01*
X62892857Y-42238095D01*
X62797619Y-42285714D01*
X62750000Y-42333333D01*
X62702381Y-42428571D01*
X62702381Y-42666667D01*
X62750000Y-42809524D01*
X62702381Y-43714286D02*
X62702381Y-43238095D01*
X63178571Y-43190476D01*
X63130952Y-43238095D01*
X63083333Y-43333333D01*
X63083333Y-43571429D01*
X63130952Y-43666667D01*
X63178571Y-43714286D01*
X63273810Y-43761905D01*
X63511905Y-43761905D01*
X63607143Y-43714286D01*
X63654762Y-43666667D01*
X63702381Y-43571429D01*
X63702381Y-43333333D01*
X63654762Y-43238095D01*
X63607143Y-43190476D01*
X62702381Y-44380952D02*
X62702381Y-44476191D01*
X62750000Y-44571429D01*
X62797619Y-44619048D01*
X62892857Y-44666667D01*
X63083333Y-44714286D01*
X63321429Y-44714286D01*
X63511905Y-44666667D01*
X63607143Y-44619048D01*
X63654762Y-44571429D01*
X63702381Y-44476191D01*
X63702381Y-44380952D01*
X63654762Y-44285714D01*
X63607143Y-44238095D01*
X63511905Y-44190476D01*
X63321429Y-44142857D01*
X63083333Y-44142857D01*
X62892857Y-44190476D01*
X62797619Y-44238095D01*
X62750000Y-44285714D01*
X62702381Y-44380952D01*
X63035714Y-45571429D02*
X63702381Y-45571429D01*
X62654762Y-45333333D02*
X63369048Y-45095238D01*
X63369048Y-45714286D01*
X62702381Y-46571429D02*
X62702381Y-46095238D01*
X63178571Y-46047619D01*
X63130952Y-46095238D01*
X63083333Y-46190476D01*
X63083333Y-46428572D01*
X63130952Y-46523810D01*
X63178571Y-46571429D01*
X63273810Y-46619048D01*
X63511905Y-46619048D01*
X63607143Y-46571429D01*
X63654762Y-46523810D01*
X63702381Y-46428572D01*
X63702381Y-46190476D01*
X63654762Y-46095238D01*
X63607143Y-46047619D01*
X63178571Y-47380953D02*
X63226190Y-47523810D01*
X63273810Y-47571429D01*
X63369048Y-47619048D01*
X63511905Y-47619048D01*
X63607143Y-47571429D01*
X63654762Y-47523810D01*
X63702381Y-47428572D01*
X63702381Y-47047619D01*
X62702381Y-47047619D01*
X62702381Y-47380953D01*
X62750000Y-47476191D01*
X62797619Y-47523810D01*
X62892857Y-47571429D01*
X62988095Y-47571429D01*
X63083333Y-47523810D01*
X63130952Y-47476191D01*
X63178571Y-47380953D01*
X63178571Y-47047619D01*
X65842381Y-63666667D02*
X66556667Y-63666667D01*
X66699524Y-63619047D01*
X66794762Y-63523809D01*
X66842381Y-63380952D01*
X66842381Y-63285714D01*
X66842381Y-64666667D02*
X66842381Y-64095238D01*
X66842381Y-64380952D02*
X65842381Y-64380952D01*
X65985238Y-64285714D01*
X66080476Y-64190476D01*
X66128095Y-64095238D01*
M02*
