M48
;DRILL file {KiCad 4.0.6} date Thu Nov 16 07:28:41 2017
;FORMAT={-:-/ absolute / inch / decimal}
FMAT,2
INCH,TZ
T1C0.016
T2C0.039
T3C0.106
%
G90
G05
M72
T1
X5.7165Y-4.7087
X5.7717Y-4.563
X5.8189Y-4.5965
X5.8307Y-4.0276
X5.8346Y-4.4921
X5.8504Y-3.8543
X5.8504Y-4.1456
X5.8999Y-4.2281
X5.9055Y-4.685
X5.9078Y-4.1977
X5.9094Y-4.4213
X5.9267Y-4.1725
X5.9331Y-4.3189
X5.9488Y-4.5433
X5.9528Y-3.8701
X5.9567Y-3.8386
X5.9579Y-4.1773
X5.9921Y-4.1811
X6.Y-4.248
X6.0236Y-4.5591
X6.0315Y-3.4724
X6.0315Y-4.2057
X6.0394Y-4.4016
X6.063Y-3.9921
X6.0925Y-3.8524
X6.0945Y-4.1614
X6.0984Y-4.252
X6.1024Y-4.0453
X6.1063Y-4.3071
X6.1172Y-4.4374
X6.126Y-3.2992
X6.1319Y-4.3465
X6.1339Y-3.811
X6.1457Y-3.9764
X6.1457Y-4.0492
X6.1516Y-4.2795
X6.155Y-4.3999
X6.1575Y-4.6496
X6.1614Y-4.1594
X6.1673Y-4.2402
X6.1673Y-4.3465
X6.1673Y-4.5512
X6.1929Y-4.1339
X6.1969Y-3.7835
X6.1969Y-3.9016
X6.2205Y-3.1772
X6.2323Y-4.4921
X6.2362Y-4.0394
X6.2441Y-3.8386
X6.2559Y-3.5
X6.2756Y-3.7323
X6.2756Y-4.5236
X6.2795Y-3.3976
X6.2992Y-3.7047
X6.2992Y-4.1496
X6.2992Y-4.311
X6.311Y-4.4331
X6.3228Y-4.0236
X6.378Y-3.8543
X6.378Y-4.6535
X6.3819Y-4.1063
X6.3858Y-3.7126
X6.3858Y-4.311
X6.3858Y-4.7992
X6.3996Y-3.9272
X6.4016Y-4.5079
X6.4213Y-4.6535
X6.4252Y-3.2008
X6.4331Y-3.6024
X6.4331Y-4.4409
X6.4567Y-3.9921
X6.4803Y-4.1929
X6.5157Y-4.5787
X6.5157Y-4.5433
X6.5472Y-3.8465
X6.5591Y-3.3858
X6.5591Y-4.6772
X6.6457Y-3.1929
T2
X6.6201Y-3.9232
X6.6201Y-4.0232
X6.624Y-4.1496
X6.624Y-4.2496
X6.624Y-4.3496
X6.624Y-4.4496
X6.628Y-4.5787
X6.6358Y-3.437
X6.6358Y-3.537
T3
X5.8012Y-4.8228G85X6.2067Y-4.8228
G05
X6.0374Y-3.6024G85X6.1673Y-3.6024
G05
X6.6004Y-3.7165G85X6.6909Y-3.7165
G05
T0
M30
