G04 #@! TF.FileFunction,Legend,Top*
%FSLAX46Y46*%
G04 Gerber Fmt 4.6, Leading zero omitted, Abs format (unit mm)*
G04 Created by KiCad (PCBNEW 4.0.6) date Thu Nov 16 07:28:37 2017*
%MOMM*%
%LPD*%
G01*
G04 APERTURE LIST*
%ADD10C,0.100000*%
%ADD11C,0.250000*%
%ADD12C,0.200000*%
%ADD13C,0.300000*%
%ADD14C,0.120000*%
%ADD15C,0.150000*%
G04 APERTURE END LIST*
D10*
D11*
X148178571Y-102535714D02*
X149678571Y-102035714D01*
X148178571Y-101535714D01*
X149678571Y-101035714D02*
X148178571Y-101035714D01*
X149678571Y-100321428D02*
X148178571Y-100321428D01*
X148178571Y-99750000D01*
X148250000Y-99607142D01*
X148321429Y-99535714D01*
X148464286Y-99464285D01*
X148678571Y-99464285D01*
X148821429Y-99535714D01*
X148892857Y-99607142D01*
X148964286Y-99750000D01*
X148964286Y-100321428D01*
X148892857Y-98821428D02*
X148892857Y-98321428D01*
X149678571Y-98107142D02*
X149678571Y-98821428D01*
X148178571Y-98821428D01*
X148178571Y-98107142D01*
X149678571Y-96607142D02*
X148964286Y-97107142D01*
X149678571Y-97464285D02*
X148178571Y-97464285D01*
X148178571Y-96892857D01*
X148250000Y-96749999D01*
X148321429Y-96678571D01*
X148464286Y-96607142D01*
X148678571Y-96607142D01*
X148821429Y-96678571D01*
X148892857Y-96749999D01*
X148964286Y-96892857D01*
X148964286Y-97464285D01*
D12*
X155100000Y-100400000D02*
X155600000Y-100200000D01*
X162200000Y-101000000D02*
X162300000Y-100700000D01*
X162600000Y-100800000D02*
X162200000Y-101000000D01*
X162300000Y-100700000D02*
X162600000Y-100800000D01*
X162700000Y-101500000D02*
X162300000Y-100700000D01*
X158900000Y-118300000D02*
X159200000Y-118200000D01*
X159300000Y-118500000D02*
X158900000Y-118300000D01*
X159200000Y-118200000D02*
X159300000Y-118500000D01*
X158900000Y-118800000D02*
X159200000Y-118200000D01*
X155100000Y-100400000D02*
X155200000Y-100000000D01*
X155200000Y-100000000D02*
X155600000Y-100200000D01*
X155600000Y-101000000D02*
X155200000Y-100000000D01*
X161261905Y-101852381D02*
X161880953Y-101852381D01*
X161547619Y-102233333D01*
X161690477Y-102233333D01*
X161785715Y-102280952D01*
X161833334Y-102328571D01*
X161880953Y-102423810D01*
X161880953Y-102661905D01*
X161833334Y-102757143D01*
X161785715Y-102804762D01*
X161690477Y-102852381D01*
X161404762Y-102852381D01*
X161309524Y-102804762D01*
X161261905Y-102757143D01*
X162166667Y-101852381D02*
X162500000Y-102852381D01*
X162833334Y-101852381D01*
X163357143Y-101852381D02*
X163452382Y-101852381D01*
X163547620Y-101900000D01*
X163595239Y-101947619D01*
X163642858Y-102042857D01*
X163690477Y-102233333D01*
X163690477Y-102471429D01*
X163642858Y-102661905D01*
X163595239Y-102757143D01*
X163547620Y-102804762D01*
X163452382Y-102852381D01*
X163357143Y-102852381D01*
X163261905Y-102804762D01*
X163214286Y-102757143D01*
X163166667Y-102661905D01*
X163119048Y-102471429D01*
X163119048Y-102233333D01*
X163166667Y-102042857D01*
X163214286Y-101947619D01*
X163261905Y-101900000D01*
X163357143Y-101852381D01*
X159880953Y-119652381D02*
X159309524Y-119652381D01*
X159595238Y-119652381D02*
X159595238Y-118652381D01*
X159500000Y-118795238D01*
X159404762Y-118890476D01*
X159309524Y-118938095D01*
X160166667Y-118652381D02*
X160500000Y-119652381D01*
X160833334Y-118652381D01*
X161119048Y-118747619D02*
X161166667Y-118700000D01*
X161261905Y-118652381D01*
X161500001Y-118652381D01*
X161595239Y-118700000D01*
X161642858Y-118747619D01*
X161690477Y-118842857D01*
X161690477Y-118938095D01*
X161642858Y-119080952D01*
X161071429Y-119652381D01*
X161690477Y-119652381D01*
X154409524Y-101447619D02*
X154457143Y-101400000D01*
X154552381Y-101352381D01*
X154790477Y-101352381D01*
X154885715Y-101400000D01*
X154933334Y-101447619D01*
X154980953Y-101542857D01*
X154980953Y-101638095D01*
X154933334Y-101780952D01*
X154361905Y-102352381D01*
X154980953Y-102352381D01*
X155266667Y-101352381D02*
X155600000Y-102352381D01*
X155933334Y-101352381D01*
X156409524Y-101780952D02*
X156314286Y-101733333D01*
X156266667Y-101685714D01*
X156219048Y-101590476D01*
X156219048Y-101542857D01*
X156266667Y-101447619D01*
X156314286Y-101400000D01*
X156409524Y-101352381D01*
X156600001Y-101352381D01*
X156695239Y-101400000D01*
X156742858Y-101447619D01*
X156790477Y-101542857D01*
X156790477Y-101590476D01*
X156742858Y-101685714D01*
X156695239Y-101733333D01*
X156600001Y-101780952D01*
X156409524Y-101780952D01*
X156314286Y-101828571D01*
X156266667Y-101876190D01*
X156219048Y-101971429D01*
X156219048Y-102161905D01*
X156266667Y-102257143D01*
X156314286Y-102304762D01*
X156409524Y-102352381D01*
X156600001Y-102352381D01*
X156695239Y-102304762D01*
X156742858Y-102257143D01*
X156790477Y-102161905D01*
X156790477Y-101971429D01*
X156742858Y-101876190D01*
X156695239Y-101828571D01*
X156600001Y-101780952D01*
X164300000Y-92200000D02*
X164800000Y-92300000D01*
X164700000Y-92800000D02*
X164300000Y-92200000D01*
X164800000Y-92300000D02*
X164700000Y-92800000D01*
X163600000Y-92900000D02*
X164800000Y-92300000D01*
X161138096Y-92900000D02*
X161042858Y-92852381D01*
X160900001Y-92852381D01*
X160757143Y-92900000D01*
X160661905Y-92995238D01*
X160614286Y-93090476D01*
X160566667Y-93280952D01*
X160566667Y-93423810D01*
X160614286Y-93614286D01*
X160661905Y-93709524D01*
X160757143Y-93804762D01*
X160900001Y-93852381D01*
X160995239Y-93852381D01*
X161138096Y-93804762D01*
X161185715Y-93757143D01*
X161185715Y-93423810D01*
X160995239Y-93423810D01*
X161614286Y-93852381D02*
X161614286Y-92852381D01*
X162185715Y-93852381D01*
X162185715Y-92852381D01*
X162661905Y-93852381D02*
X162661905Y-92852381D01*
X162900000Y-92852381D01*
X163042858Y-92900000D01*
X163138096Y-92995238D01*
X163185715Y-93090476D01*
X163233334Y-93280952D01*
X163233334Y-93423810D01*
X163185715Y-93614286D01*
X163138096Y-93709524D01*
X163042858Y-93804762D01*
X162900000Y-93852381D01*
X162661905Y-93852381D01*
D13*
X168500000Y-85607143D02*
X169642857Y-85607143D01*
X169071428Y-86178571D02*
X169071428Y-85035714D01*
X153864287Y-117478571D02*
X153864287Y-116478571D01*
X153864287Y-116764286D02*
X153935715Y-116621429D01*
X154007144Y-116550000D01*
X154150001Y-116478571D01*
X154292858Y-116478571D01*
X155364286Y-117407143D02*
X155221429Y-117478571D01*
X154935715Y-117478571D01*
X154792858Y-117407143D01*
X154721429Y-117264286D01*
X154721429Y-116692857D01*
X154792858Y-116550000D01*
X154935715Y-116478571D01*
X155221429Y-116478571D01*
X155364286Y-116550000D01*
X155435715Y-116692857D01*
X155435715Y-116835714D01*
X154721429Y-116978571D01*
X155935715Y-116478571D02*
X156292858Y-117478571D01*
X156650000Y-116478571D01*
X158007143Y-117478571D02*
X157150000Y-117478571D01*
X157578572Y-117478571D02*
X157578572Y-115978571D01*
X157435715Y-116192857D01*
X157292857Y-116335714D01*
X157150000Y-116407143D01*
D12*
X163328572Y-113052381D02*
X163328572Y-112052381D01*
X163661906Y-112766667D01*
X163995239Y-112052381D01*
X163995239Y-113052381D01*
X164471429Y-113052381D02*
X164471429Y-112052381D01*
X164900000Y-113004762D02*
X165042857Y-113052381D01*
X165280953Y-113052381D01*
X165376191Y-113004762D01*
X165423810Y-112957143D01*
X165471429Y-112861905D01*
X165471429Y-112766667D01*
X165423810Y-112671429D01*
X165376191Y-112623810D01*
X165280953Y-112576190D01*
X165090476Y-112528571D01*
X164995238Y-112480952D01*
X164947619Y-112433333D01*
X164900000Y-112338095D01*
X164900000Y-112242857D01*
X164947619Y-112147619D01*
X164995238Y-112100000D01*
X165090476Y-112052381D01*
X165328572Y-112052381D01*
X165471429Y-112100000D01*
X166090476Y-112052381D02*
X166280953Y-112052381D01*
X166376191Y-112100000D01*
X166471429Y-112195238D01*
X166519048Y-112385714D01*
X166519048Y-112719048D01*
X166471429Y-112909524D01*
X166376191Y-113004762D01*
X166280953Y-113052381D01*
X166090476Y-113052381D01*
X165995238Y-113004762D01*
X165900000Y-112909524D01*
X165852381Y-112719048D01*
X165852381Y-112385714D01*
X165900000Y-112195238D01*
X165995238Y-112100000D01*
X166090476Y-112052381D01*
D13*
X162421668Y-120748782D02*
X162266319Y-120785891D01*
X162102167Y-120923632D01*
X161983929Y-121116089D01*
X161966320Y-121317351D01*
X162003429Y-121472699D01*
X162132366Y-121737483D01*
X162270105Y-121901635D01*
X162508477Y-122074592D01*
X162655021Y-122138114D01*
X162856283Y-122155721D01*
X163066348Y-122072698D01*
X163175783Y-121980872D01*
X163294023Y-121788414D01*
X163302827Y-121687783D01*
X162981433Y-121304760D01*
X162762562Y-121488415D01*
X163887110Y-121383997D02*
X162922929Y-120234930D01*
X163360668Y-119867623D01*
X163516017Y-119830514D01*
X163616648Y-119839319D01*
X163763193Y-119902840D01*
X163900932Y-120066992D01*
X163938042Y-120222341D01*
X163929238Y-120322971D01*
X163865716Y-120469516D01*
X163427977Y-120836823D01*
X165036177Y-120419816D02*
X164071996Y-119270749D01*
X164838040Y-118627961D02*
X165056910Y-118444308D01*
X165212259Y-118407198D01*
X165413520Y-118424806D01*
X165651891Y-118597763D01*
X165973285Y-118980785D01*
X166102222Y-119245569D01*
X166084614Y-119446830D01*
X166021091Y-119593375D01*
X165802221Y-119777028D01*
X165646874Y-119814138D01*
X165445612Y-119796530D01*
X165207240Y-119623573D01*
X164885846Y-119240551D01*
X164756911Y-118975767D01*
X164774519Y-118774506D01*
X164838040Y-118627961D01*
X165713520Y-117893346D02*
X166424847Y-117296472D01*
X166409132Y-118055606D01*
X166573285Y-117917866D01*
X166728633Y-117880757D01*
X166829264Y-117889560D01*
X166975808Y-117953082D01*
X167205375Y-118226669D01*
X167242484Y-118382017D01*
X167233680Y-118482649D01*
X167170159Y-118629192D01*
X166841853Y-118904673D01*
X166686505Y-118941783D01*
X166585875Y-118932978D01*
X164785715Y-105885714D02*
X164714286Y-105957143D01*
X164500000Y-106028571D01*
X164357143Y-106028571D01*
X164142858Y-105957143D01*
X164000000Y-105814286D01*
X163928572Y-105671429D01*
X163857143Y-105385714D01*
X163857143Y-105171429D01*
X163928572Y-104885714D01*
X164000000Y-104742857D01*
X164142858Y-104600000D01*
X164357143Y-104528571D01*
X164500000Y-104528571D01*
X164714286Y-104600000D01*
X164785715Y-104671429D01*
X165357143Y-105957143D02*
X165571429Y-106028571D01*
X165928572Y-106028571D01*
X166071429Y-105957143D01*
X166142858Y-105885714D01*
X166214286Y-105742857D01*
X166214286Y-105600000D01*
X166142858Y-105457143D01*
X166071429Y-105385714D01*
X165928572Y-105314286D01*
X165642858Y-105242857D01*
X165500000Y-105171429D01*
X165428572Y-105100000D01*
X165357143Y-104957143D01*
X165357143Y-104814286D01*
X165428572Y-104671429D01*
X165500000Y-104600000D01*
X165642858Y-104528571D01*
X166000000Y-104528571D01*
X166214286Y-104600000D01*
X163500000Y-108435714D02*
X163428571Y-108507143D01*
X163214285Y-108578571D01*
X163071428Y-108578571D01*
X162857143Y-108507143D01*
X162714285Y-108364286D01*
X162642857Y-108221429D01*
X162571428Y-107935714D01*
X162571428Y-107721429D01*
X162642857Y-107435714D01*
X162714285Y-107292857D01*
X162857143Y-107150000D01*
X163071428Y-107078571D01*
X163214285Y-107078571D01*
X163428571Y-107150000D01*
X163500000Y-107221429D01*
X164857143Y-108578571D02*
X164142857Y-108578571D01*
X164142857Y-107078571D01*
X165357143Y-108578571D02*
X165357143Y-107078571D01*
X166214286Y-108578571D02*
X165571429Y-107721429D01*
X166214286Y-107078571D02*
X165357143Y-107935714D01*
X161428571Y-111128571D02*
X161428571Y-109628571D01*
X161928571Y-110700000D01*
X162428571Y-109628571D01*
X162428571Y-111128571D01*
X163428571Y-109628571D02*
X163714285Y-109628571D01*
X163857143Y-109700000D01*
X164000000Y-109842857D01*
X164071428Y-110128571D01*
X164071428Y-110628571D01*
X164000000Y-110914286D01*
X163857143Y-111057143D01*
X163714285Y-111128571D01*
X163428571Y-111128571D01*
X163285714Y-111057143D01*
X163142857Y-110914286D01*
X163071428Y-110628571D01*
X163071428Y-110128571D01*
X163142857Y-109842857D01*
X163285714Y-109700000D01*
X163428571Y-109628571D01*
X164642857Y-111057143D02*
X164857143Y-111128571D01*
X165214286Y-111128571D01*
X165357143Y-111057143D01*
X165428572Y-110985714D01*
X165500000Y-110842857D01*
X165500000Y-110700000D01*
X165428572Y-110557143D01*
X165357143Y-110485714D01*
X165214286Y-110414286D01*
X164928572Y-110342857D01*
X164785714Y-110271429D01*
X164714286Y-110200000D01*
X164642857Y-110057143D01*
X164642857Y-109914286D01*
X164714286Y-109771429D01*
X164785714Y-109700000D01*
X164928572Y-109628571D01*
X165285714Y-109628571D01*
X165500000Y-109700000D01*
X166142857Y-111128571D02*
X166142857Y-109628571D01*
D12*
X164185714Y-100785714D02*
X164328571Y-100842857D01*
X164566667Y-100842857D01*
X164661905Y-100785714D01*
X164709524Y-100728571D01*
X164757143Y-100614286D01*
X164757143Y-100500000D01*
X164709524Y-100385714D01*
X164661905Y-100328571D01*
X164566667Y-100271429D01*
X164376190Y-100214286D01*
X164280952Y-100157143D01*
X164233333Y-100100000D01*
X164185714Y-99985714D01*
X164185714Y-99871429D01*
X164233333Y-99757143D01*
X164280952Y-99700000D01*
X164376190Y-99642857D01*
X164614286Y-99642857D01*
X164757143Y-99700000D01*
X165185714Y-100842857D02*
X165185714Y-99642857D01*
X165423809Y-99642857D01*
X165566667Y-99700000D01*
X165661905Y-99814286D01*
X165709524Y-99928571D01*
X165757143Y-100157143D01*
X165757143Y-100328571D01*
X165709524Y-100557143D01*
X165661905Y-100671429D01*
X165566667Y-100785714D01*
X165423809Y-100842857D01*
X165185714Y-100842857D01*
X166138095Y-100500000D02*
X166614286Y-100500000D01*
X166042857Y-100842857D02*
X166376190Y-99642857D01*
X166709524Y-100842857D01*
X164209524Y-102785714D02*
X164352381Y-102842857D01*
X164590477Y-102842857D01*
X164685715Y-102785714D01*
X164733334Y-102728571D01*
X164780953Y-102614286D01*
X164780953Y-102500000D01*
X164733334Y-102385714D01*
X164685715Y-102328571D01*
X164590477Y-102271429D01*
X164400000Y-102214286D01*
X164304762Y-102157143D01*
X164257143Y-102100000D01*
X164209524Y-101985714D01*
X164209524Y-101871429D01*
X164257143Y-101757143D01*
X164304762Y-101700000D01*
X164400000Y-101642857D01*
X164638096Y-101642857D01*
X164780953Y-101700000D01*
X165780953Y-102728571D02*
X165733334Y-102785714D01*
X165590477Y-102842857D01*
X165495239Y-102842857D01*
X165352381Y-102785714D01*
X165257143Y-102671429D01*
X165209524Y-102557143D01*
X165161905Y-102328571D01*
X165161905Y-102157143D01*
X165209524Y-101928571D01*
X165257143Y-101814286D01*
X165352381Y-101700000D01*
X165495239Y-101642857D01*
X165590477Y-101642857D01*
X165733334Y-101700000D01*
X165780953Y-101757143D01*
X166685715Y-102842857D02*
X166209524Y-102842857D01*
X166209524Y-101642857D01*
D14*
X151800000Y-100800000D02*
X152500000Y-100800000D01*
X152500000Y-102000000D02*
X151800000Y-102000000D01*
X159100000Y-100850000D02*
X159800000Y-100850000D01*
X159800000Y-102050000D02*
X159100000Y-102050000D01*
X161350000Y-112150000D02*
X162050000Y-112150000D01*
X162050000Y-113350000D02*
X161350000Y-113350000D01*
X167900000Y-82750000D02*
X167900000Y-83750000D01*
X169600000Y-83750000D02*
X169600000Y-82750000D01*
X157500000Y-88100000D02*
X156800000Y-88100000D01*
X156800000Y-86900000D02*
X157500000Y-86900000D01*
X155600000Y-98800000D02*
X155600000Y-98100000D01*
X156800000Y-98100000D02*
X156800000Y-98800000D01*
X162850000Y-99200000D02*
X162850000Y-98500000D01*
X164050000Y-98500000D02*
X164050000Y-99200000D01*
X158400000Y-117000000D02*
X158400000Y-116300000D01*
X159600000Y-116300000D02*
X159600000Y-117000000D01*
X156530000Y-83450000D02*
X156530000Y-85450000D01*
X158570000Y-85450000D02*
X158570000Y-83450000D01*
X146300000Y-117700000D02*
X146300000Y-118400000D01*
X145100000Y-118400000D02*
X145100000Y-117700000D01*
X159700000Y-87800000D02*
X159700000Y-92100000D01*
X159700000Y-92100000D02*
X165400000Y-92100000D01*
X159700000Y-87800000D02*
X165400000Y-87800000D01*
X167160000Y-88570000D02*
X167160000Y-91230000D01*
X167160000Y-91230000D02*
X169940000Y-91230000D01*
X169940000Y-91230000D02*
X169940000Y-88570000D01*
X169940000Y-88570000D02*
X167160000Y-88570000D01*
X167160000Y-87300000D02*
X167160000Y-85910000D01*
X167160000Y-85910000D02*
X168550000Y-85910000D01*
X169540000Y-100920000D02*
X169540000Y-98260000D01*
X169540000Y-98260000D02*
X166760000Y-98260000D01*
X166760000Y-98260000D02*
X166760000Y-100920000D01*
X166760000Y-100920000D02*
X169540000Y-100920000D01*
X169540000Y-102190000D02*
X169540000Y-103580000D01*
X169540000Y-103580000D02*
X168150000Y-103580000D01*
X166860000Y-106670000D02*
X166860000Y-114410000D01*
X166860000Y-114410000D02*
X169640000Y-114410000D01*
X169640000Y-114410000D02*
X169640000Y-106670000D01*
X169640000Y-106670000D02*
X166860000Y-106670000D01*
X166860000Y-105400000D02*
X166860000Y-104010000D01*
X166860000Y-104010000D02*
X168250000Y-104010000D01*
X166960000Y-117570000D02*
X166960000Y-117690000D01*
X166960000Y-117690000D02*
X169740000Y-117690000D01*
X169740000Y-117690000D02*
X169740000Y-117570000D01*
X169740000Y-117570000D02*
X166960000Y-117570000D01*
X166960000Y-116300000D02*
X166960000Y-114910000D01*
X166960000Y-114910000D02*
X168350000Y-114910000D01*
X159700000Y-82400000D02*
X159700000Y-80100000D01*
X159700000Y-80100000D02*
X167100000Y-80100000D01*
X167100000Y-80100000D02*
X167100000Y-82400000D01*
X167100000Y-85200000D02*
X167100000Y-87500000D01*
X167100000Y-87500000D02*
X159700000Y-87500000D01*
X159700000Y-87500000D02*
X159700000Y-85200000D01*
X147780000Y-117550000D02*
X147780000Y-118550000D01*
X146420000Y-118550000D02*
X146420000Y-117550000D01*
X150500000Y-99150000D02*
X150500000Y-96550000D01*
X155300000Y-95250000D02*
X155300000Y-99150000D01*
X157750000Y-99200000D02*
X157750000Y-96600000D01*
X162550000Y-95300000D02*
X162550000Y-99200000D01*
X161300000Y-113550000D02*
X163900000Y-113550000D01*
X165200000Y-118350000D02*
X161300000Y-118350000D01*
X147750000Y-114640000D02*
G75*
G03X147750000Y-114640000I-100000J0D01*
G01*
X158250000Y-114540000D02*
X158050000Y-114540000D01*
X158750000Y-114040000D02*
X158750000Y-113840000D01*
X158750000Y-104040000D02*
X158750000Y-104240000D01*
X158250000Y-103540000D02*
X158050000Y-103540000D01*
X148250000Y-103540000D02*
X148450000Y-103540000D01*
X147750000Y-104240000D02*
X147750000Y-104040000D01*
X158250000Y-114540000D02*
G75*
G03X158750000Y-114040000I0J500000D01*
G01*
X158750000Y-104040000D02*
G75*
G03X158250000Y-103540000I-500000J0D01*
G01*
X148250000Y-103540000D02*
G75*
G03X147750000Y-104040000I0J-500000D01*
G01*
X147750000Y-114040000D02*
G75*
G03X148250000Y-114540000I500000J0D01*
G01*
X147750000Y-113840000D02*
X147750000Y-114040000D01*
X148450000Y-114540000D02*
X148250000Y-114540000D01*
D15*
X147968000Y-118928000D02*
X148857000Y-118928000D01*
X147968000Y-118039000D02*
X147968000Y-118928000D01*
X149746000Y-115626000D02*
X150254000Y-115626000D01*
X148222000Y-117404000D02*
X148222000Y-116896000D01*
X150254000Y-118674000D02*
X149746000Y-118674000D01*
X151778000Y-116896000D02*
X151778000Y-117404000D01*
X163752381Y-91290476D02*
X162752381Y-91290476D01*
X162752381Y-91052381D01*
X162800000Y-90909523D01*
X162895238Y-90814285D01*
X162990476Y-90766666D01*
X163180952Y-90719047D01*
X163323810Y-90719047D01*
X163514286Y-90766666D01*
X163609524Y-90814285D01*
X163704762Y-90909523D01*
X163752381Y-91052381D01*
X163752381Y-91290476D01*
X163752381Y-89766666D02*
X163752381Y-90338095D01*
X163752381Y-90052381D02*
X162752381Y-90052381D01*
X162895238Y-90147619D01*
X162990476Y-90242857D01*
X163038095Y-90338095D01*
X162752381Y-89147619D02*
X162752381Y-89052380D01*
X162800000Y-88957142D01*
X162847619Y-88909523D01*
X162942857Y-88861904D01*
X163133333Y-88814285D01*
X163371429Y-88814285D01*
X163561905Y-88861904D01*
X163657143Y-88909523D01*
X163704762Y-88957142D01*
X163752381Y-89052380D01*
X163752381Y-89147619D01*
X163704762Y-89242857D01*
X163657143Y-89290476D01*
X163561905Y-89338095D01*
X163371429Y-89385714D01*
X163133333Y-89385714D01*
X162942857Y-89338095D01*
X162847619Y-89290476D01*
X162800000Y-89242857D01*
X162752381Y-89147619D01*
X163752381Y-87861904D02*
X163752381Y-88433333D01*
X163752381Y-88147619D02*
X162752381Y-88147619D01*
X162895238Y-88242857D01*
X162990476Y-88338095D01*
X163038095Y-88433333D01*
X162280953Y-84352381D02*
X161804762Y-84352381D01*
X161804762Y-83352381D01*
X163138096Y-84352381D02*
X162566667Y-84352381D01*
X162852381Y-84352381D02*
X162852381Y-83352381D01*
X162757143Y-83495238D01*
X162661905Y-83590476D01*
X162566667Y-83638095D01*
X163757143Y-83352381D02*
X163852382Y-83352381D01*
X163947620Y-83400000D01*
X163995239Y-83447619D01*
X164042858Y-83542857D01*
X164090477Y-83733333D01*
X164090477Y-83971429D01*
X164042858Y-84161905D01*
X163995239Y-84257143D01*
X163947620Y-84304762D01*
X163852382Y-84352381D01*
X163757143Y-84352381D01*
X163661905Y-84304762D01*
X163614286Y-84257143D01*
X163566667Y-84161905D01*
X163519048Y-83971429D01*
X163519048Y-83733333D01*
X163566667Y-83542857D01*
X163614286Y-83447619D01*
X163661905Y-83400000D01*
X163757143Y-83352381D01*
X165042858Y-84352381D02*
X164471429Y-84352381D01*
X164757143Y-84352381D02*
X164757143Y-83352381D01*
X164661905Y-83495238D01*
X164566667Y-83590476D01*
X164471429Y-83638095D01*
M02*
