G04 #@! TF.FileFunction,Copper,L1,Top,Signal*
%FSLAX46Y46*%
G04 Gerber Fmt 4.6, Leading zero omitted, Abs format (unit mm)*
G04 Created by KiCad (PCBNEW 4.0.6) date Thu Nov 16 07:28:37 2017*
%MOMM*%
%LPD*%
G01*
G04 APERTURE LIST*
%ADD10C,0.100000*%
%ADD11O,8.000000X5.400000*%
%ADD12O,16.000000X5.400000*%
%ADD13R,0.800000X0.750000*%
%ADD14R,1.250000X1.000000*%
%ADD15R,0.750000X0.800000*%
%ADD16R,1.600000X1.000000*%
%ADD17R,2.500000X2.300000*%
%ADD18R,1.700000X1.700000*%
%ADD19O,1.700000X1.700000*%
%ADD20R,1.500000X2.200000*%
%ADD21R,0.900000X0.500000*%
%ADD22R,0.700000X1.500000*%
%ADD23R,1.000000X1.500000*%
%ADD24R,2.000000X0.800000*%
%ADD25R,1.500000X0.700000*%
%ADD26R,1.500000X1.000000*%
%ADD27R,0.800000X2.000000*%
%ADD28R,0.500000X0.840000*%
%ADD29R,0.840000X0.500000*%
%ADD30R,0.650000X0.650000*%
%ADD31R,1.100000X0.650000*%
%ADD32R,0.650000X1.100000*%
%ADD33R,1.400000X1.200000*%
%ADD34O,9.000000X5.400000*%
%ADD35C,0.600000*%
%ADD36C,0.350000*%
%ADD37C,0.500000*%
%ADD38C,0.250000*%
G04 APERTURE END LIST*
D10*
D11*
X168800000Y-94400000D03*
D12*
X152500000Y-122500000D03*
D13*
X151400000Y-101400000D03*
X152900000Y-101400000D03*
X158700000Y-101450000D03*
X160200000Y-101450000D03*
X160950000Y-112750000D03*
X162450000Y-112750000D03*
D14*
X168750000Y-84250000D03*
X168750000Y-82250000D03*
D13*
X157900000Y-87500000D03*
X156400000Y-87500000D03*
D15*
X156200000Y-99200000D03*
X156200000Y-97700000D03*
X163450000Y-99600000D03*
X163450000Y-98100000D03*
X159000000Y-117400000D03*
X159000000Y-115900000D03*
D16*
X157550000Y-85950000D03*
X157550000Y-82950000D03*
D15*
X145700000Y-117300000D03*
X145700000Y-118800000D03*
D17*
X161100000Y-89950000D03*
X165400000Y-89950000D03*
D18*
X168550000Y-87300000D03*
D19*
X168550000Y-89840000D03*
D18*
X168150000Y-102190000D03*
D19*
X168150000Y-99650000D03*
D18*
X168250000Y-105400000D03*
D19*
X168250000Y-107940000D03*
X168250000Y-110480000D03*
X168250000Y-113020000D03*
D18*
X168350000Y-116300000D03*
D20*
X166600000Y-83800000D03*
X160200000Y-83800000D03*
D21*
X147100000Y-118800000D03*
X147100000Y-117300000D03*
D10*
G36*
X153900000Y-98250000D02*
X153400000Y-99000000D01*
X152400000Y-99000000D01*
X151900000Y-98250000D01*
X153900000Y-98250000D01*
X153900000Y-98250000D01*
G37*
D22*
X154400000Y-99700000D03*
X151400000Y-99700000D03*
X154400000Y-96000000D03*
D23*
X152900000Y-96000000D03*
D22*
X151400000Y-96000000D03*
D23*
X152900000Y-99700000D03*
D10*
G36*
X151900000Y-97450000D02*
X152400000Y-96700000D01*
X153400000Y-96700000D01*
X153900000Y-97450000D01*
X151900000Y-97450000D01*
X151900000Y-97450000D01*
G37*
D24*
X152900000Y-97850000D03*
D10*
G36*
X161150000Y-98300000D02*
X160650000Y-99050000D01*
X159650000Y-99050000D01*
X159150000Y-98300000D01*
X161150000Y-98300000D01*
X161150000Y-98300000D01*
G37*
D22*
X161650000Y-99750000D03*
X158650000Y-99750000D03*
X161650000Y-96050000D03*
D23*
X160150000Y-96050000D03*
D22*
X158650000Y-96050000D03*
D23*
X160150000Y-99750000D03*
D10*
G36*
X159150000Y-97500000D02*
X159650000Y-96750000D01*
X160650000Y-96750000D01*
X161150000Y-97500000D01*
X159150000Y-97500000D01*
X159150000Y-97500000D01*
G37*
D24*
X160150000Y-97900000D03*
D10*
G36*
X162200000Y-116950000D02*
X161450000Y-116450000D01*
X161450000Y-115450000D01*
X162200000Y-114950000D01*
X162200000Y-116950000D01*
X162200000Y-116950000D01*
G37*
D25*
X160750000Y-117450000D03*
X160750000Y-114450000D03*
X164450000Y-117450000D03*
D26*
X164450000Y-115950000D03*
D25*
X164450000Y-114450000D03*
D26*
X160750000Y-115950000D03*
D10*
G36*
X163000000Y-114950000D02*
X163750000Y-115450000D01*
X163750000Y-116450000D01*
X163000000Y-116950000D01*
X163000000Y-114950000D01*
X163000000Y-114950000D01*
G37*
D27*
X162600000Y-115950000D03*
D28*
X150100000Y-113350000D03*
X150100000Y-104730000D03*
X151000000Y-113350000D03*
X151000000Y-104730000D03*
X151900000Y-113350000D03*
X151900000Y-104730000D03*
X152800000Y-113350000D03*
X152800000Y-104730000D03*
X153700000Y-113350000D03*
X153700000Y-104730000D03*
X154600000Y-113350000D03*
X154600000Y-104730000D03*
X155500000Y-113350000D03*
X155500000Y-104730000D03*
X156400000Y-113350000D03*
X156400000Y-104730000D03*
D29*
X148940000Y-112190000D03*
X148940000Y-111290000D03*
X148940000Y-110390000D03*
X148940000Y-109490000D03*
X148940000Y-108590000D03*
X148940000Y-107690000D03*
X148940000Y-106790000D03*
X148940000Y-105890000D03*
X157560000Y-112190000D03*
X157560000Y-111290000D03*
X157560000Y-110390000D03*
X157560000Y-109490000D03*
X157560000Y-108590000D03*
X157560000Y-107690000D03*
X157560000Y-106790000D03*
X157560000Y-105890000D03*
D30*
X150550000Y-114345000D03*
X150550000Y-103735000D03*
X151450000Y-114345000D03*
X151450000Y-103735000D03*
X152350000Y-114345000D03*
X152350000Y-103735000D03*
X153250000Y-114345000D03*
X153250000Y-103735000D03*
X154150000Y-114345000D03*
X154150000Y-103735000D03*
X155050000Y-114345000D03*
X155050000Y-103735000D03*
X155950000Y-114345000D03*
X155950000Y-103735000D03*
X147945000Y-111740000D03*
X147945000Y-110840000D03*
X147945000Y-109940000D03*
X147945000Y-109040000D03*
X147945000Y-108140000D03*
X147945000Y-107240000D03*
X147945000Y-106340000D03*
X158555000Y-111740000D03*
X158555000Y-110840000D03*
X158555000Y-109940000D03*
X158555000Y-109040000D03*
X158555000Y-108140000D03*
X158555000Y-107240000D03*
X158555000Y-106340000D03*
D31*
X149420000Y-114345000D03*
X149420000Y-103735000D03*
X157080000Y-114345000D03*
X157080000Y-103735000D03*
D32*
X147945000Y-112870000D03*
X147945000Y-105210000D03*
X158555000Y-112870000D03*
X158555000Y-105210000D03*
D33*
X148900000Y-116200000D03*
X151100000Y-116200000D03*
X148900000Y-118100000D03*
X151100000Y-118100000D03*
D34*
X155000000Y-91500000D03*
D35*
X160300000Y-112600000D03*
X146600000Y-115900000D03*
X145200004Y-119600000D03*
X166300000Y-97700000D03*
X156500000Y-105650030D03*
X151200000Y-98300000D03*
X160000000Y-94100000D03*
X159400000Y-94800000D03*
X158899994Y-88900000D03*
X162200000Y-121900000D03*
X166600000Y-118800000D03*
X153400000Y-111800000D03*
X160000000Y-105400000D03*
X152400000Y-107900000D03*
X165500004Y-115400000D03*
X165500000Y-116300000D03*
X159400000Y-114900000D03*
X163100000Y-118200000D03*
X162000000Y-118200000D03*
X150000000Y-119000000D03*
X156400000Y-118100000D03*
X153000000Y-115800000D03*
X163200000Y-81300000D03*
X163400000Y-91500000D03*
X162200000Y-94300000D03*
X162100000Y-104300000D03*
X164000000Y-101400000D03*
X160600000Y-102200000D03*
X157400000Y-96100000D03*
X158600000Y-97500000D03*
X154900000Y-108000000D03*
X155100000Y-109400000D03*
X150100000Y-112300000D03*
X150700000Y-109700000D03*
X164600000Y-106500000D03*
X162200000Y-109500000D03*
X160000000Y-109500000D03*
X158400000Y-102600000D03*
X148600000Y-97900000D03*
X148100000Y-102300000D03*
X154000000Y-101400000D03*
X156100000Y-101000000D03*
X157400000Y-99100000D03*
X155800000Y-96800000D03*
X151300000Y-97500000D03*
X158000000Y-80700000D03*
X155600000Y-83800000D03*
X153200000Y-88200000D03*
X159500000Y-86300000D03*
X166600000Y-86000000D03*
X168800000Y-81100000D03*
X156100000Y-102850000D03*
X148200000Y-114100000D03*
X158300000Y-114100000D03*
X150059015Y-106620400D03*
X163400000Y-112800000D03*
X162600000Y-114500000D03*
X148601392Y-105297216D03*
X162000000Y-97900000D03*
X154750000Y-97850000D03*
X155000000Y-102750000D03*
X154800000Y-105700000D03*
X162550000Y-99750000D03*
X147800000Y-116750000D03*
X157300000Y-105000000D03*
X155376462Y-112710360D03*
X156650000Y-115600000D03*
X150539225Y-105980543D03*
X153200000Y-106825010D03*
X152200000Y-106200000D03*
X156650000Y-107700000D03*
X156250000Y-108700000D03*
X156650000Y-110400000D03*
X155750000Y-110400000D03*
X156336868Y-111758085D03*
X151329577Y-106104492D03*
X149857949Y-107394732D03*
X151100000Y-115400000D03*
D36*
X151400000Y-99700000D02*
X151400000Y-99600000D01*
X150749999Y-94874999D02*
X153674999Y-94874999D01*
X151400000Y-99600000D02*
X150500000Y-98700000D01*
X150500000Y-98700000D02*
X150500000Y-95124998D01*
X150500000Y-95124998D02*
X150749999Y-94874999D01*
D37*
X161100000Y-91654786D02*
X160800000Y-91954786D01*
X160800000Y-91954786D02*
X160800000Y-94800000D01*
X160800000Y-94800000D02*
X161650000Y-95650000D01*
X161100000Y-89950000D02*
X161100000Y-91654786D01*
X161100000Y-91654786D02*
X157879787Y-94874999D01*
X157879787Y-94874999D02*
X157150000Y-94874999D01*
X158800000Y-87500000D02*
X161100000Y-89800000D01*
X157900000Y-87500000D02*
X158800000Y-87500000D01*
X161100000Y-89800000D02*
X161100000Y-89950000D01*
D36*
X160750000Y-114450000D02*
X161150000Y-114450000D01*
X166275001Y-116724999D02*
X165550000Y-117450000D01*
X161150000Y-114450000D02*
X161875001Y-113724999D01*
X161875001Y-113724999D02*
X165500001Y-113724999D01*
X165500001Y-113724999D02*
X166275001Y-114499999D01*
X166275001Y-114499999D02*
X166275001Y-116724999D01*
X165550000Y-117450000D02*
X164450000Y-117450000D01*
D37*
X157550000Y-85950000D02*
X157550000Y-87150000D01*
X157550000Y-87150000D02*
X157900000Y-87500000D01*
X160200000Y-83800000D02*
X159700000Y-83800000D01*
X159700000Y-83800000D02*
X157550000Y-85950000D01*
D38*
X160300000Y-112600000D02*
X160800000Y-112600000D01*
X160800000Y-112600000D02*
X160950000Y-112750000D01*
D36*
X160750000Y-114450000D02*
X160750000Y-112950000D01*
X160750000Y-112950000D02*
X160950000Y-112750000D01*
X158700000Y-101450000D02*
X158725000Y-101450000D01*
X158725000Y-101450000D02*
X160950000Y-103675000D01*
X160950000Y-103675000D02*
X160950000Y-112025000D01*
X160950000Y-112025000D02*
X160950000Y-112750000D01*
X160200000Y-83800000D02*
X160200000Y-84150000D01*
X151400000Y-99700000D02*
X151400000Y-101400000D01*
X158650000Y-99750000D02*
X158650000Y-101400000D01*
X158650000Y-101400000D02*
X158700000Y-101450000D01*
X153674999Y-94874999D02*
X157150000Y-94874999D01*
X156000000Y-96000000D02*
X156024999Y-96000000D01*
X156024999Y-96000000D02*
X157150000Y-94874999D01*
X160874999Y-94874999D02*
X161650000Y-95650000D01*
X161650000Y-95650000D02*
X161650000Y-96050000D01*
X154400000Y-96000000D02*
X156000000Y-96000000D01*
X156000000Y-96000000D02*
X158650000Y-98650000D01*
X158650000Y-98650000D02*
X158650000Y-99750000D01*
X154400000Y-95600000D02*
X154400000Y-96000000D01*
X153674999Y-94874999D02*
X154400000Y-95600000D01*
D38*
X147945000Y-112870000D02*
X147330000Y-112870000D01*
X147330000Y-112870000D02*
X147300000Y-112900000D01*
X147300000Y-112900000D02*
X147300000Y-114775736D01*
X147300000Y-114775736D02*
X146700000Y-115375736D01*
X146600000Y-115475736D02*
X146600000Y-115900000D01*
X146700000Y-115375736D02*
X146600000Y-115475736D01*
X146700000Y-115100000D02*
X146700000Y-115375736D01*
X146600000Y-115000000D02*
X146700000Y-115100000D01*
X145700000Y-118800000D02*
X145700000Y-119275732D01*
X145700000Y-119275732D02*
X145824268Y-119400000D01*
X145824268Y-119400000D02*
X145624268Y-119600000D01*
X149600000Y-119400000D02*
X145824268Y-119400000D01*
X145624268Y-119600000D02*
X145200004Y-119600000D01*
X150000000Y-119000000D02*
X149600000Y-119400000D01*
X166000001Y-97400001D02*
X166300000Y-97700000D01*
X162900000Y-94300000D02*
X166000001Y-97400001D01*
X162200000Y-94300000D02*
X162900000Y-94300000D01*
D36*
X157080000Y-103735000D02*
X158555000Y-105210000D01*
D38*
X156500000Y-106074294D02*
X156500000Y-105650030D01*
X156500000Y-106400000D02*
X156500000Y-106074294D01*
X154900000Y-108000000D02*
X156500000Y-106400000D01*
D36*
X157400000Y-99100000D02*
X157400000Y-98900000D01*
X157400000Y-98900000D02*
X156200000Y-97700000D01*
X151300000Y-97500000D02*
X151300000Y-98200000D01*
X151300000Y-98200000D02*
X151200000Y-98300000D01*
X160150000Y-96050000D02*
X160150000Y-95550000D01*
X160150000Y-95550000D02*
X159400000Y-94800000D01*
X158599995Y-88600001D02*
X158899994Y-88900000D01*
X158424984Y-88424990D02*
X158599995Y-88600001D01*
X153200000Y-88200000D02*
X153624264Y-88200000D01*
X153624264Y-88200000D02*
X153849254Y-88424990D01*
X153849254Y-88424990D02*
X158424984Y-88424990D01*
D38*
X162499999Y-121600001D02*
X162200000Y-121900000D01*
X163100000Y-121000000D02*
X162499999Y-121600001D01*
X163100000Y-118200000D02*
X163100000Y-121000000D01*
X150100000Y-112300000D02*
X151058587Y-112300000D01*
X151058587Y-112300000D02*
X151558587Y-111800000D01*
X151558587Y-111800000D02*
X153400000Y-111800000D01*
X148200000Y-114100000D02*
X150000000Y-112300000D01*
X150000000Y-112300000D02*
X150100000Y-112300000D01*
X147400000Y-104300000D02*
X147400000Y-105300000D01*
X147490000Y-105210000D02*
X147400000Y-105300000D01*
X147400000Y-105300000D02*
X147400000Y-106300000D01*
X147945000Y-105210000D02*
X147490000Y-105210000D01*
X147440000Y-106340000D02*
X147400000Y-106300000D01*
X147400000Y-106300000D02*
X147400000Y-107300000D01*
X147945000Y-106340000D02*
X147440000Y-106340000D01*
X147400000Y-107300000D02*
X147400000Y-108100000D01*
X147945000Y-107240000D02*
X147460000Y-107240000D01*
X147460000Y-107240000D02*
X147400000Y-107300000D01*
X147400000Y-108100000D02*
X147400000Y-109100000D01*
X147945000Y-108140000D02*
X147440000Y-108140000D01*
X147440000Y-108140000D02*
X147400000Y-108100000D01*
X147400000Y-109100000D02*
X147400000Y-109900000D01*
X147945000Y-109040000D02*
X147460000Y-109040000D01*
X147460000Y-109040000D02*
X147400000Y-109100000D01*
X147400000Y-109900000D02*
X147400000Y-110800000D01*
X147440000Y-110840000D02*
X147400000Y-110800000D01*
X147400000Y-110800000D02*
X147400000Y-111800000D01*
X147945000Y-110840000D02*
X147440000Y-110840000D01*
X147440000Y-109940000D02*
X147400000Y-109900000D01*
X147945000Y-109940000D02*
X147440000Y-109940000D01*
X147400000Y-111800000D02*
X147400000Y-112740000D01*
X147400000Y-111800000D02*
X147885000Y-111800000D01*
X147885000Y-111800000D02*
X147945000Y-111740000D01*
X148100000Y-103600000D02*
X147400000Y-104300000D01*
X148100000Y-102300000D02*
X148100000Y-103600000D01*
X147945000Y-106340000D02*
X148395000Y-105890000D01*
X148395000Y-105890000D02*
X148940000Y-105890000D01*
X158555000Y-105210000D02*
X159810000Y-105210000D01*
X159810000Y-105210000D02*
X160000000Y-105400000D01*
X155950000Y-103735000D02*
X155500000Y-104185000D01*
X155500000Y-104730000D02*
X155500000Y-104185000D01*
X155500000Y-104185000D02*
X155050000Y-103735000D01*
X153700000Y-104185000D02*
X154150000Y-103735000D01*
X153700000Y-104730000D02*
X153700000Y-104185000D01*
X153700000Y-104185000D02*
X153250000Y-103735000D01*
X158105000Y-106790000D02*
X158555000Y-107240000D01*
X157560000Y-106790000D02*
X158105000Y-106790000D01*
X158105000Y-106790000D02*
X158555000Y-106340000D01*
X150700000Y-109700000D02*
X152400000Y-108000000D01*
X152400000Y-108000000D02*
X152400000Y-107900000D01*
X165500000Y-116300000D02*
X164800000Y-116300000D01*
X164800000Y-116300000D02*
X164450000Y-115950000D01*
X165500004Y-115400000D02*
X165500004Y-116299996D01*
X165500004Y-116299996D02*
X165500000Y-116300000D01*
X164950004Y-115950000D02*
X165200005Y-115699999D01*
X162600000Y-115950000D02*
X164950004Y-115950000D01*
X165200005Y-115699999D02*
X165500004Y-115400000D01*
X159000000Y-115900000D02*
X159000000Y-115300000D01*
X159000000Y-115300000D02*
X159400000Y-114900000D01*
X163100000Y-118200000D02*
X163100000Y-116450000D01*
X163100000Y-116450000D02*
X162600000Y-115950000D01*
X156400000Y-118100000D02*
X156699999Y-118399999D01*
X156699999Y-118399999D02*
X161800001Y-118399999D01*
X161800001Y-118399999D02*
X162000000Y-118200000D01*
X156400000Y-118100000D02*
X155975736Y-118100000D01*
X155975736Y-118100000D02*
X151100000Y-118100000D01*
X151100000Y-118100000D02*
X151200000Y-118100000D01*
X151200000Y-118100000D02*
X153000000Y-116300000D01*
X153000000Y-116300000D02*
X153000000Y-115800000D01*
X158000000Y-80700000D02*
X162600000Y-80700000D01*
X162600000Y-80700000D02*
X163200000Y-81300000D01*
X164000000Y-101400000D02*
X164000000Y-102400000D01*
X164000000Y-102400000D02*
X162100000Y-104300000D01*
X160200000Y-101450000D02*
X160200000Y-101800000D01*
X160200000Y-101800000D02*
X160600000Y-102200000D01*
X160150000Y-97900000D02*
X159000000Y-97900000D01*
X159000000Y-97900000D02*
X158600000Y-97500000D01*
X157560000Y-112190000D02*
X156890000Y-112190000D01*
X156400000Y-112680000D02*
X156400000Y-113350000D01*
X156890000Y-112190000D02*
X156400000Y-112680000D01*
X157560000Y-112190000D02*
X156400000Y-113350000D01*
X158105000Y-111290000D02*
X158555000Y-111740000D01*
X158555000Y-112870000D02*
X158555000Y-112640000D01*
X158555000Y-112640000D02*
X158105000Y-112190000D01*
X157560000Y-112190000D02*
X158105000Y-112190000D01*
X158105000Y-112190000D02*
X158555000Y-111740000D01*
X157560000Y-111290000D02*
X158105000Y-111290000D01*
X158105000Y-111290000D02*
X158555000Y-110840000D01*
X155100000Y-111100000D02*
X156700000Y-111100000D01*
X156700000Y-111100000D02*
X156890000Y-111290000D01*
X156890000Y-111290000D02*
X157560000Y-111290000D01*
X154800001Y-110800001D02*
X155100000Y-111100000D01*
X155100000Y-109400000D02*
X154800001Y-109699999D01*
X154800001Y-109699999D02*
X154800001Y-110800001D01*
X150700000Y-109700000D02*
X154800000Y-109700000D01*
X154800000Y-109700000D02*
X155100000Y-109400000D01*
X154600000Y-113350000D02*
X154600000Y-113895000D01*
X154600000Y-113895000D02*
X154150000Y-114345000D01*
X150100000Y-113350000D02*
X150100000Y-113895000D01*
X150100000Y-113895000D02*
X150550000Y-114345000D01*
X147945000Y-110840000D02*
X148395000Y-110390000D01*
X148940000Y-110390000D02*
X148395000Y-110390000D01*
X148395000Y-110390000D02*
X147945000Y-109940000D01*
X149900000Y-108294998D02*
X149900000Y-108900000D01*
X149900000Y-108900000D02*
X150700000Y-109700000D01*
X148940000Y-107690000D02*
X149264999Y-108014999D01*
X149264999Y-108014999D02*
X149620001Y-108014999D01*
X149620001Y-108014999D02*
X149900000Y-108294998D01*
X148940000Y-107690000D02*
X148395000Y-107690000D01*
X148395000Y-107690000D02*
X147945000Y-107240000D01*
D36*
X162200000Y-109500000D02*
X162200000Y-108900000D01*
X162200000Y-108900000D02*
X164600000Y-106500000D01*
X158555000Y-109940000D02*
X159560000Y-109940000D01*
X159560000Y-109940000D02*
X160000000Y-109500000D01*
X156100000Y-102850000D02*
X158150000Y-102850000D01*
X158150000Y-102850000D02*
X158400000Y-102600000D01*
X154000000Y-101400000D02*
X153100000Y-102300000D01*
X153100000Y-102300000D02*
X148100000Y-102300000D01*
X157400000Y-99100000D02*
X157400000Y-99700000D01*
X157400000Y-99700000D02*
X156100000Y-101000000D01*
X154750000Y-97850000D02*
X155800000Y-96800000D01*
X152900000Y-97850000D02*
X151650000Y-97850000D01*
X151650000Y-97850000D02*
X151300000Y-97500000D01*
X157550000Y-82950000D02*
X157550000Y-81150000D01*
X157550000Y-81150000D02*
X158000000Y-80700000D01*
X155600000Y-83800000D02*
X156700000Y-83800000D01*
X156700000Y-83800000D02*
X157550000Y-82950000D01*
X166600000Y-86000000D02*
X159800000Y-86000000D01*
X159800000Y-86000000D02*
X159500000Y-86300000D01*
X168750000Y-82250000D02*
X168750000Y-81150000D01*
X168750000Y-81150000D02*
X168800000Y-81100000D01*
X156100000Y-102850000D02*
X156100000Y-103585000D01*
X156100000Y-103585000D02*
X155950000Y-103735000D01*
X149420000Y-114345000D02*
X148445000Y-114345000D01*
X148445000Y-114345000D02*
X148200000Y-114100000D01*
X147945000Y-112870000D02*
X147945000Y-113845000D01*
X147945000Y-113845000D02*
X148200000Y-114100000D01*
X151100000Y-118100000D02*
X152150000Y-118100000D01*
X152150000Y-118100000D02*
X152350000Y-117900000D01*
X152350000Y-117900000D02*
X152350000Y-115020000D01*
X152350000Y-115020000D02*
X152350000Y-114345000D01*
X159000000Y-115900000D02*
X160700000Y-115900000D01*
X160700000Y-115900000D02*
X160750000Y-115950000D01*
X159000000Y-115900000D02*
X159000000Y-114800000D01*
X159000000Y-114800000D02*
X158300000Y-114100000D01*
X156400000Y-113350000D02*
X156400000Y-113665000D01*
X156400000Y-113665000D02*
X157080000Y-114345000D01*
X158300000Y-114100000D02*
X157325000Y-114100000D01*
X157325000Y-114100000D02*
X157080000Y-114345000D01*
D38*
X149610000Y-105890000D02*
X149759016Y-106039016D01*
X148940000Y-105890000D02*
X149610000Y-105890000D01*
X149759016Y-106039016D02*
X149759016Y-106320401D01*
X149759016Y-106320401D02*
X150059015Y-106620400D01*
D36*
X163400000Y-112800000D02*
X162500000Y-112800000D01*
X162500000Y-112800000D02*
X162450000Y-112750000D01*
X162600000Y-115950000D02*
X162600000Y-114500000D01*
D38*
X148601392Y-105297216D02*
X148032216Y-105297216D01*
X148032216Y-105297216D02*
X147945000Y-105210000D01*
D36*
X167625000Y-82100000D02*
X163500000Y-82100000D01*
X163500000Y-82100000D02*
X158700000Y-82100000D01*
X165400000Y-89950000D02*
X165400000Y-88450000D01*
X165400000Y-88450000D02*
X163500000Y-86550000D01*
X163500000Y-86550000D02*
X163500000Y-82100000D01*
X163450000Y-98100000D02*
X163450000Y-91800000D01*
X163450000Y-91800000D02*
X165300000Y-89950000D01*
X165300000Y-89950000D02*
X165400000Y-89950000D01*
X160200000Y-101450000D02*
X160200000Y-99800000D01*
X160200000Y-99800000D02*
X160150000Y-99750000D01*
X152900000Y-99700000D02*
X152900000Y-101400000D01*
X162000000Y-97900000D02*
X163250000Y-97900000D01*
X160150000Y-97900000D02*
X162000000Y-97900000D01*
X154750000Y-97850000D02*
X156050000Y-97850000D01*
X152900000Y-97850000D02*
X154750000Y-97850000D01*
X156050000Y-97850000D02*
X156200000Y-97700000D01*
X163250000Y-97900000D02*
X163450000Y-98100000D01*
X157550000Y-82950000D02*
X157550000Y-83800000D01*
X157550000Y-83800000D02*
X156374999Y-84975001D01*
X156374999Y-84975001D02*
X156374999Y-86749999D01*
X156374999Y-86749999D02*
X156400000Y-86775000D01*
X156400000Y-86775000D02*
X156400000Y-87500000D01*
X168750000Y-82250000D02*
X167775000Y-82250000D01*
X167775000Y-82250000D02*
X167625000Y-82100000D01*
X158700000Y-82100000D02*
X157850000Y-82950000D01*
X157850000Y-82950000D02*
X157550000Y-82950000D01*
X168550000Y-89840000D02*
X165510000Y-89840000D01*
X165510000Y-89840000D02*
X165400000Y-89950000D01*
D37*
X166600000Y-83800000D02*
X167100000Y-83800000D01*
X167100000Y-83800000D02*
X168550000Y-85250000D01*
X168550000Y-85250000D02*
X168550000Y-85600000D01*
X168550000Y-87300000D02*
X168550000Y-85600000D01*
X168550000Y-85600000D02*
X168550000Y-84450000D01*
D36*
X168550000Y-84450000D02*
X168750000Y-84250000D01*
X156200000Y-99200000D02*
X154900000Y-99200000D01*
X154900000Y-99200000D02*
X154400000Y-99700000D01*
X155000000Y-102750000D02*
X155000000Y-100300000D01*
X155000000Y-100300000D02*
X154400000Y-99700000D01*
X154800000Y-105700000D02*
X154800000Y-104930000D01*
X154800000Y-104930000D02*
X154600000Y-104730000D01*
X148200000Y-116350000D02*
X147800000Y-116750000D01*
X146500000Y-117225000D02*
X147325000Y-117225000D01*
X147325000Y-117225000D02*
X147800000Y-116750000D01*
X145700000Y-117300000D02*
X146425000Y-117300000D01*
X146425000Y-117300000D02*
X146500000Y-117225000D01*
X145700000Y-117300000D02*
X145900000Y-117300000D01*
X148200000Y-116900000D02*
X148900000Y-116200000D01*
X145900000Y-117300000D02*
X146300000Y-116900000D01*
X146300000Y-116900000D02*
X148200000Y-116900000D01*
X145700000Y-117300000D02*
X147800000Y-117300000D01*
X147800000Y-117300000D02*
X147850000Y-117250000D01*
X147850000Y-117250000D02*
X147850000Y-117150000D01*
X147850000Y-117150000D02*
X148800000Y-116200000D01*
X148800000Y-116200000D02*
X148900000Y-116200000D01*
X145700000Y-117300000D02*
X147100000Y-117300000D01*
X162550000Y-99750000D02*
X163300000Y-99750000D01*
X161650000Y-99750000D02*
X162550000Y-99750000D01*
X147800000Y-116750000D02*
X147650000Y-116750000D01*
X147650000Y-116750000D02*
X147100000Y-117300000D01*
X147800000Y-116750000D02*
X148350000Y-116750000D01*
X148350000Y-116750000D02*
X148900000Y-116200000D01*
X157560000Y-105350000D02*
X157560000Y-105890000D01*
X157560000Y-105350000D02*
X157560000Y-105260000D01*
X157560000Y-105260000D02*
X157300000Y-105000000D01*
X163300000Y-99750000D02*
X163450000Y-99600000D01*
X155500000Y-113350000D02*
X155376462Y-113226462D01*
X155376462Y-113226462D02*
X155376462Y-113134624D01*
X155376462Y-113134624D02*
X155376462Y-112710360D01*
X159000000Y-117400000D02*
X158450000Y-117400000D01*
X158450000Y-117400000D02*
X156650000Y-115600000D01*
X160750000Y-117450000D02*
X159050000Y-117450000D01*
X159050000Y-117450000D02*
X159000000Y-117400000D01*
X150239226Y-105680544D02*
X150539225Y-105980543D01*
X150100000Y-104730000D02*
X150100000Y-105541318D01*
X150100000Y-105541318D02*
X150239226Y-105680544D01*
D38*
X153200000Y-106400746D02*
X153200000Y-106825010D01*
X152800000Y-105400000D02*
X153200000Y-105800000D01*
X152800000Y-104730000D02*
X152800000Y-105400000D01*
X153200000Y-105800000D02*
X153200000Y-106400746D01*
X152200000Y-105775736D02*
X152200000Y-106200000D01*
X151900000Y-105475736D02*
X152200000Y-105775736D01*
X151900000Y-104730000D02*
X151900000Y-105475736D01*
X157560000Y-107690000D02*
X156660000Y-107690000D01*
X156660000Y-107690000D02*
X156650000Y-107700000D01*
X156250000Y-108700000D02*
X157450000Y-108700000D01*
X157450000Y-108700000D02*
X157560000Y-108590000D01*
X157560000Y-110390000D02*
X156660000Y-110390000D01*
X156660000Y-110390000D02*
X156650000Y-110400000D01*
X157560000Y-109490000D02*
X156660000Y-109490000D01*
X156660000Y-109490000D02*
X155750000Y-110400000D01*
X151000000Y-113350000D02*
X151000000Y-113000000D01*
X151000000Y-113000000D02*
X151200000Y-112800000D01*
X151200000Y-112800000D02*
X151200000Y-112794998D01*
X151200000Y-112794998D02*
X151494998Y-112500000D01*
X151494998Y-112500000D02*
X154500000Y-112500000D01*
X154500000Y-112500000D02*
X155241915Y-111758085D01*
X155241915Y-111758085D02*
X155912604Y-111758085D01*
X155912604Y-111758085D02*
X156336868Y-111758085D01*
D36*
X151000000Y-105350651D02*
X151329577Y-105680228D01*
X151000000Y-104730000D02*
X151000000Y-105350651D01*
X151329577Y-105680228D02*
X151329577Y-106104492D01*
X147100000Y-118800000D02*
X148200000Y-118800000D01*
X148200000Y-118800000D02*
X148900000Y-118100000D01*
D38*
X149857949Y-107394732D02*
X149253217Y-106790000D01*
X149253217Y-106790000D02*
X148940000Y-106790000D01*
X151100000Y-116200000D02*
X151100000Y-115400000D01*
G36*
X169575000Y-81426945D02*
X169449592Y-81375000D01*
X168868750Y-81375000D01*
X168775000Y-81468750D01*
X168775000Y-82225000D01*
X168795000Y-82225000D01*
X168795000Y-82275000D01*
X168775000Y-82275000D01*
X168775000Y-83031250D01*
X168868750Y-83125000D01*
X169449592Y-83125000D01*
X169575000Y-83073055D01*
X169575000Y-83432792D01*
X169523754Y-83397777D01*
X169375000Y-83367654D01*
X168125000Y-83367654D01*
X167986034Y-83393802D01*
X167858401Y-83475931D01*
X167777791Y-83593907D01*
X167732346Y-83548462D01*
X167732346Y-82700000D01*
X167706198Y-82561034D01*
X167624069Y-82433401D01*
X167529450Y-82368750D01*
X167750000Y-82368750D01*
X167750000Y-82824592D01*
X167807090Y-82962420D01*
X167912579Y-83067910D01*
X168050408Y-83125000D01*
X168631250Y-83125000D01*
X168725000Y-83031250D01*
X168725000Y-82275000D01*
X167843750Y-82275000D01*
X167750000Y-82368750D01*
X167529450Y-82368750D01*
X167498754Y-82347777D01*
X167350000Y-82317654D01*
X165850000Y-82317654D01*
X165711034Y-82343802D01*
X165583401Y-82425931D01*
X165497777Y-82551246D01*
X165467654Y-82700000D01*
X165467654Y-84900000D01*
X165493802Y-85038966D01*
X165575931Y-85166599D01*
X165701246Y-85252223D01*
X165850000Y-85282346D01*
X167350000Y-85282346D01*
X167488966Y-85256198D01*
X167600527Y-85184411D01*
X167925000Y-85508884D01*
X167925000Y-86067654D01*
X167700000Y-86067654D01*
X167561034Y-86093802D01*
X167433401Y-86175931D01*
X167347777Y-86301246D01*
X167317654Y-86450000D01*
X167317654Y-88150000D01*
X167343802Y-88288966D01*
X167425931Y-88416599D01*
X167551246Y-88502223D01*
X167700000Y-88532346D01*
X169400000Y-88532346D01*
X169538966Y-88506198D01*
X169575000Y-88483011D01*
X169575000Y-89184929D01*
X169555536Y-89140337D01*
X169211245Y-88808794D01*
X168766285Y-88634243D01*
X168575000Y-88709003D01*
X168575000Y-89815000D01*
X168595000Y-89815000D01*
X168595000Y-89865000D01*
X168575000Y-89865000D01*
X168575000Y-90970997D01*
X168766285Y-91045757D01*
X169211245Y-90871206D01*
X169555536Y-90539663D01*
X169575000Y-90495071D01*
X169575000Y-91325000D01*
X167414289Y-91325000D01*
X166784095Y-91450353D01*
X166862420Y-91417910D01*
X166967910Y-91312421D01*
X167025000Y-91174592D01*
X167025000Y-90068750D01*
X167012535Y-90056285D01*
X167344245Y-90056285D01*
X167353256Y-90101602D01*
X167544464Y-90539663D01*
X167888755Y-90871206D01*
X168333715Y-91045757D01*
X168525000Y-90970997D01*
X168525000Y-89865000D01*
X167419026Y-89865000D01*
X167344245Y-90056285D01*
X167012535Y-90056285D01*
X166931250Y-89975000D01*
X165425000Y-89975000D01*
X165425000Y-91381250D01*
X165518750Y-91475000D01*
X166660186Y-91475000D01*
X166237537Y-91559070D01*
X165239936Y-92225647D01*
X164573359Y-93223248D01*
X164339289Y-94400000D01*
X164573359Y-95576752D01*
X165239936Y-96574353D01*
X166237537Y-97240930D01*
X167414289Y-97475000D01*
X169575000Y-97475000D01*
X169575000Y-115410959D01*
X169556198Y-115311034D01*
X169474069Y-115183401D01*
X169348754Y-115097777D01*
X169200000Y-115067654D01*
X167500000Y-115067654D01*
X167361034Y-115093802D01*
X167233401Y-115175931D01*
X167147777Y-115301246D01*
X167117654Y-115450000D01*
X167117654Y-117150000D01*
X167143802Y-117288966D01*
X167225931Y-117416599D01*
X167351246Y-117502223D01*
X167500000Y-117532346D01*
X168654235Y-117532346D01*
X160611240Y-123966743D01*
X160805006Y-123676752D01*
X161039076Y-122500000D01*
X160805006Y-121323248D01*
X160138429Y-120325647D01*
X159140828Y-119659070D01*
X157964076Y-119425000D01*
X147589041Y-119425000D01*
X147688966Y-119406198D01*
X147776301Y-119350000D01*
X148200000Y-119350000D01*
X148410476Y-119308134D01*
X148588909Y-119188909D01*
X148695472Y-119082346D01*
X149600000Y-119082346D01*
X149738966Y-119056198D01*
X149866599Y-118974069D01*
X149952223Y-118848754D01*
X149982346Y-118700000D01*
X149982346Y-118218750D01*
X150025000Y-118218750D01*
X150025000Y-118774592D01*
X150082090Y-118912421D01*
X150187580Y-119017910D01*
X150325408Y-119075000D01*
X150981250Y-119075000D01*
X151075000Y-118981250D01*
X151075000Y-118125000D01*
X151125000Y-118125000D01*
X151125000Y-118981250D01*
X151218750Y-119075000D01*
X151874592Y-119075000D01*
X152012420Y-119017910D01*
X152117910Y-118912421D01*
X152175000Y-118774592D01*
X152175000Y-118218750D01*
X152081250Y-118125000D01*
X151125000Y-118125000D01*
X151075000Y-118125000D01*
X150118750Y-118125000D01*
X150025000Y-118218750D01*
X149982346Y-118218750D01*
X149982346Y-117500000D01*
X149956198Y-117361034D01*
X149874069Y-117233401D01*
X149750354Y-117148870D01*
X149866599Y-117074069D01*
X149952223Y-116948754D01*
X149982346Y-116800000D01*
X149982346Y-115600000D01*
X149956198Y-115461034D01*
X149874069Y-115333401D01*
X149748754Y-115247777D01*
X149600000Y-115217654D01*
X148200000Y-115217654D01*
X148061034Y-115243802D01*
X147933401Y-115325931D01*
X147847777Y-115451246D01*
X147817654Y-115600000D01*
X147817654Y-115956707D01*
X147811091Y-115961092D01*
X147697273Y-116074910D01*
X147666323Y-116074883D01*
X147418143Y-116177429D01*
X147245271Y-116350000D01*
X146300000Y-116350000D01*
X146089524Y-116391866D01*
X145911091Y-116511091D01*
X145911089Y-116511094D01*
X145904529Y-116517654D01*
X145325000Y-116517654D01*
X145186034Y-116543802D01*
X145058401Y-116625931D01*
X144972777Y-116751246D01*
X144942654Y-116900000D01*
X144942654Y-117700000D01*
X144968802Y-117838966D01*
X145050931Y-117966599D01*
X145176246Y-118052223D01*
X145181914Y-118053371D01*
X145112579Y-118082090D01*
X145007090Y-118187580D01*
X144950000Y-118325408D01*
X144950000Y-118681250D01*
X145043750Y-118775000D01*
X145675000Y-118775000D01*
X145675000Y-118755000D01*
X145725000Y-118755000D01*
X145725000Y-118775000D01*
X145745000Y-118775000D01*
X145745000Y-118825000D01*
X145725000Y-118825000D01*
X145725000Y-119481250D01*
X145818750Y-119575000D01*
X146149592Y-119575000D01*
X146287421Y-119517910D01*
X146392910Y-119412420D01*
X146420100Y-119346778D01*
X146501246Y-119402223D01*
X146650000Y-119432346D01*
X146998993Y-119432346D01*
X145859172Y-119659070D01*
X144925000Y-120283265D01*
X144925000Y-118918750D01*
X144950000Y-118918750D01*
X144950000Y-119274592D01*
X145007090Y-119412420D01*
X145112579Y-119517910D01*
X145250408Y-119575000D01*
X145581250Y-119575000D01*
X145675000Y-119481250D01*
X145675000Y-118825000D01*
X145043750Y-118825000D01*
X144950000Y-118918750D01*
X144925000Y-118918750D01*
X144925000Y-116636198D01*
X146476748Y-114463750D01*
X148495000Y-114463750D01*
X148495000Y-114744592D01*
X148552090Y-114882420D01*
X148657579Y-114987910D01*
X148795408Y-115045000D01*
X149301250Y-115045000D01*
X149395000Y-114951250D01*
X149395000Y-114370000D01*
X149445000Y-114370000D01*
X149445000Y-114951250D01*
X149538750Y-115045000D01*
X150044592Y-115045000D01*
X150097500Y-115023085D01*
X150150408Y-115045000D01*
X150431250Y-115045000D01*
X150524998Y-114951252D01*
X150524998Y-115024607D01*
X150444837Y-115217654D01*
X150400000Y-115217654D01*
X150261034Y-115243802D01*
X150133401Y-115325931D01*
X150047777Y-115451246D01*
X150017654Y-115600000D01*
X150017654Y-116800000D01*
X150043802Y-116938966D01*
X150125931Y-117066599D01*
X150251246Y-117152223D01*
X150256914Y-117153371D01*
X150187580Y-117182090D01*
X150082090Y-117287579D01*
X150025000Y-117425408D01*
X150025000Y-117981250D01*
X150118750Y-118075000D01*
X151075000Y-118075000D01*
X151075000Y-118055000D01*
X151125000Y-118055000D01*
X151125000Y-118075000D01*
X152081250Y-118075000D01*
X152175000Y-117981250D01*
X152175000Y-117425408D01*
X152117910Y-117287579D01*
X152012420Y-117182090D01*
X151943252Y-117153440D01*
X152066599Y-117074069D01*
X152152223Y-116948754D01*
X152182346Y-116800000D01*
X152182346Y-115733677D01*
X155974883Y-115733677D01*
X156077429Y-115981857D01*
X156267144Y-116171903D01*
X156515145Y-116274883D01*
X156547093Y-116274911D01*
X158061089Y-117788906D01*
X158061091Y-117788909D01*
X158211672Y-117889524D01*
X158239524Y-117908134D01*
X158263913Y-117912985D01*
X158268802Y-117938966D01*
X158350931Y-118066599D01*
X158476246Y-118152223D01*
X158625000Y-118182346D01*
X159375000Y-118182346D01*
X159513966Y-118156198D01*
X159641599Y-118074069D01*
X159687505Y-118006883D01*
X159725931Y-118066599D01*
X159851246Y-118152223D01*
X160000000Y-118182346D01*
X161500000Y-118182346D01*
X161638966Y-118156198D01*
X161766599Y-118074069D01*
X161852223Y-117948754D01*
X161882346Y-117800000D01*
X161882346Y-117100000D01*
X161856198Y-116961034D01*
X161774069Y-116833401D01*
X161648754Y-116747777D01*
X161500000Y-116717654D01*
X160000000Y-116717654D01*
X159861034Y-116743802D01*
X159733401Y-116825931D01*
X159720634Y-116844617D01*
X159649069Y-116733401D01*
X159523754Y-116647777D01*
X159375000Y-116617654D01*
X158625000Y-116617654D01*
X158486034Y-116643802D01*
X158477263Y-116649446D01*
X157325090Y-115497272D01*
X157325117Y-115466323D01*
X157222571Y-115218143D01*
X157032856Y-115028097D01*
X156784855Y-114925117D01*
X156516323Y-114924883D01*
X156268143Y-115027429D01*
X156078097Y-115217144D01*
X155975117Y-115465145D01*
X155974883Y-115733677D01*
X152182346Y-115733677D01*
X152182346Y-115600000D01*
X152156198Y-115461034D01*
X152074069Y-115333401D01*
X151948754Y-115247777D01*
X151800000Y-115217654D01*
X151755007Y-115217654D01*
X151683668Y-115045000D01*
X151849592Y-115045000D01*
X151900000Y-115024120D01*
X151950408Y-115045000D01*
X152231250Y-115045000D01*
X152325000Y-114951250D01*
X152325000Y-114370000D01*
X152375000Y-114370000D01*
X152375000Y-114951250D01*
X152468750Y-115045000D01*
X152749592Y-115045000D01*
X152800000Y-115024120D01*
X152850408Y-115045000D01*
X153131250Y-115045000D01*
X153225000Y-114951250D01*
X153225000Y-114370000D01*
X153275000Y-114370000D01*
X153275000Y-114951250D01*
X153368750Y-115045000D01*
X153649592Y-115045000D01*
X153700000Y-115024120D01*
X153750408Y-115045000D01*
X154031250Y-115045000D01*
X154125000Y-114951250D01*
X154125000Y-114370000D01*
X154175000Y-114370000D01*
X154175000Y-114951250D01*
X154268750Y-115045000D01*
X154549592Y-115045000D01*
X154600000Y-115024120D01*
X154650408Y-115045000D01*
X154931250Y-115045000D01*
X155025000Y-114951250D01*
X155025000Y-114370000D01*
X155075000Y-114370000D01*
X155075000Y-114951250D01*
X155168750Y-115045000D01*
X155449592Y-115045000D01*
X155587420Y-114987910D01*
X155692910Y-114882421D01*
X155750000Y-114744592D01*
X155750000Y-114463750D01*
X155656250Y-114370000D01*
X155075000Y-114370000D01*
X155025000Y-114370000D01*
X154175000Y-114370000D01*
X154125000Y-114370000D01*
X153275000Y-114370000D01*
X153225000Y-114370000D01*
X152375000Y-114370000D01*
X152325000Y-114370000D01*
X151475000Y-114370000D01*
X151475000Y-114390000D01*
X151425000Y-114390000D01*
X151425000Y-114370000D01*
X150575000Y-114370000D01*
X150575000Y-114390000D01*
X150525000Y-114390000D01*
X150525000Y-114370000D01*
X149445000Y-114370000D01*
X149395000Y-114370000D01*
X148588750Y-114370000D01*
X148495000Y-114463750D01*
X146476748Y-114463750D01*
X146846992Y-113945408D01*
X148495000Y-113945408D01*
X148495000Y-114226250D01*
X148588750Y-114320000D01*
X149395000Y-114320000D01*
X149395000Y-113738750D01*
X149301250Y-113645000D01*
X148795408Y-113645000D01*
X148657579Y-113702090D01*
X148552090Y-113807580D01*
X148495000Y-113945408D01*
X146846992Y-113945408D01*
X147245000Y-113388198D01*
X147245000Y-113494592D01*
X147302090Y-113632421D01*
X147407580Y-113737910D01*
X147545408Y-113795000D01*
X147826250Y-113795000D01*
X147920000Y-113701250D01*
X147920000Y-112895000D01*
X147970000Y-112895000D01*
X147970000Y-113701250D01*
X148063750Y-113795000D01*
X148344592Y-113795000D01*
X148482420Y-113737910D01*
X148587910Y-113632421D01*
X148645000Y-113494592D01*
X148645000Y-112988750D01*
X148551250Y-112895000D01*
X147970000Y-112895000D01*
X147920000Y-112895000D01*
X147900000Y-112895000D01*
X147900000Y-112845000D01*
X147920000Y-112845000D01*
X147920000Y-111765000D01*
X147900000Y-111765000D01*
X147900000Y-111715000D01*
X147920000Y-111715000D01*
X147920000Y-110865000D01*
X147900000Y-110865000D01*
X147900000Y-110815000D01*
X147920000Y-110815000D01*
X147920000Y-109965000D01*
X147900000Y-109965000D01*
X147900000Y-109915000D01*
X147920000Y-109915000D01*
X147920000Y-109065000D01*
X147900000Y-109065000D01*
X147900000Y-109015000D01*
X147920000Y-109015000D01*
X147920000Y-108165000D01*
X147900000Y-108165000D01*
X147900000Y-108115000D01*
X147920000Y-108115000D01*
X147920000Y-107265000D01*
X147900000Y-107265000D01*
X147900000Y-107215000D01*
X147920000Y-107215000D01*
X147920000Y-106365000D01*
X147900000Y-106365000D01*
X147900000Y-106315000D01*
X147920000Y-106315000D01*
X147920000Y-105235000D01*
X147970000Y-105235000D01*
X147970000Y-106315000D01*
X147990000Y-106315000D01*
X147990000Y-106365000D01*
X147970000Y-106365000D01*
X147970000Y-107215000D01*
X147990000Y-107215000D01*
X147990000Y-107265000D01*
X147970000Y-107265000D01*
X147970000Y-108115000D01*
X147990000Y-108115000D01*
X147990000Y-108165000D01*
X147970000Y-108165000D01*
X147970000Y-109015000D01*
X147990000Y-109015000D01*
X147990000Y-109065000D01*
X147970000Y-109065000D01*
X147970000Y-109915000D01*
X147990000Y-109915000D01*
X147990000Y-109965000D01*
X147970000Y-109965000D01*
X147970000Y-110815000D01*
X147990000Y-110815000D01*
X147990000Y-110865000D01*
X147970000Y-110865000D01*
X147970000Y-111715000D01*
X147990000Y-111715000D01*
X147990000Y-111765000D01*
X147970000Y-111765000D01*
X147970000Y-112845000D01*
X148551250Y-112845000D01*
X148573904Y-112822346D01*
X149360000Y-112822346D01*
X149498966Y-112796198D01*
X149499729Y-112795707D01*
X149475000Y-112855408D01*
X149475000Y-113231250D01*
X149568750Y-113325000D01*
X150075000Y-113325000D01*
X150075000Y-112648750D01*
X149981250Y-112555000D01*
X149775408Y-112555000D01*
X149713899Y-112580478D01*
X149742346Y-112440000D01*
X149742346Y-111940000D01*
X149716198Y-111801034D01*
X149677062Y-111740214D01*
X149712223Y-111688754D01*
X149742346Y-111540000D01*
X149742346Y-111040000D01*
X149716198Y-110901034D01*
X149680654Y-110845797D01*
X149735000Y-110714592D01*
X149735000Y-110508750D01*
X149641250Y-110415000D01*
X148965000Y-110415000D01*
X148965000Y-110435000D01*
X148915000Y-110435000D01*
X148915000Y-110415000D01*
X148895000Y-110415000D01*
X148895000Y-110365000D01*
X148915000Y-110365000D01*
X148915000Y-110345000D01*
X148965000Y-110345000D01*
X148965000Y-110365000D01*
X149641250Y-110365000D01*
X149735000Y-110271250D01*
X149735000Y-110065408D01*
X149680848Y-109934673D01*
X149712223Y-109888754D01*
X149742346Y-109740000D01*
X149742346Y-109240000D01*
X149716198Y-109101034D01*
X149677062Y-109040214D01*
X149712223Y-108988754D01*
X149742346Y-108840000D01*
X149742346Y-108340000D01*
X149716198Y-108201034D01*
X149680654Y-108145797D01*
X149713806Y-108065758D01*
X149723094Y-108069615D01*
X149991626Y-108069849D01*
X150239806Y-107967303D01*
X150429852Y-107777588D01*
X150532832Y-107529587D01*
X150533066Y-107261055D01*
X150430520Y-107012875D01*
X150240805Y-106822829D01*
X149992804Y-106719849D01*
X149890083Y-106719759D01*
X149742346Y-106572023D01*
X149742346Y-106540000D01*
X149716198Y-106401034D01*
X149680654Y-106345797D01*
X149735000Y-106214592D01*
X149735000Y-106008750D01*
X149641252Y-105915002D01*
X149700918Y-105915002D01*
X149711091Y-105930227D01*
X149864135Y-106083271D01*
X149864108Y-106114220D01*
X149966654Y-106362400D01*
X150156369Y-106552446D01*
X150404370Y-106655426D01*
X150672902Y-106655660D01*
X150852106Y-106581615D01*
X150946721Y-106676395D01*
X151194722Y-106779375D01*
X151463254Y-106779609D01*
X151711434Y-106677063D01*
X151716961Y-106671545D01*
X151817144Y-106771903D01*
X152065145Y-106874883D01*
X152333677Y-106875117D01*
X152525025Y-106796054D01*
X152524883Y-106958687D01*
X152627429Y-107206867D01*
X152817144Y-107396913D01*
X153065145Y-107499893D01*
X153333677Y-107500127D01*
X153581857Y-107397581D01*
X153771903Y-107207866D01*
X153874883Y-106959865D01*
X153875117Y-106691333D01*
X153772571Y-106443153D01*
X153700000Y-106370455D01*
X153700000Y-105800000D01*
X153661940Y-105608658D01*
X153654609Y-105597687D01*
X153596111Y-105510139D01*
X153675000Y-105431250D01*
X153675000Y-104755000D01*
X153655000Y-104755000D01*
X153655000Y-104705000D01*
X153675000Y-104705000D01*
X153675000Y-104685000D01*
X153725000Y-104685000D01*
X153725000Y-104705000D01*
X153745000Y-104705000D01*
X153745000Y-104755000D01*
X153725000Y-104755000D01*
X153725000Y-105431250D01*
X153818750Y-105525000D01*
X154024592Y-105525000D01*
X154155327Y-105470848D01*
X154162296Y-105475609D01*
X154125117Y-105565145D01*
X154124883Y-105833677D01*
X154227429Y-106081857D01*
X154417144Y-106271903D01*
X154665145Y-106374883D01*
X154933677Y-106375117D01*
X155181857Y-106272571D01*
X155371903Y-106082856D01*
X155474883Y-105834855D01*
X155475117Y-105566323D01*
X155435590Y-105470660D01*
X155475000Y-105431250D01*
X155475000Y-104755000D01*
X155455000Y-104755000D01*
X155455000Y-104705000D01*
X155475000Y-104705000D01*
X155475000Y-104685000D01*
X155525000Y-104685000D01*
X155525000Y-104705000D01*
X155545000Y-104705000D01*
X155545000Y-104755000D01*
X155525000Y-104755000D01*
X155525000Y-105431250D01*
X155618750Y-105525000D01*
X155824592Y-105525000D01*
X155955327Y-105470848D01*
X156001246Y-105502223D01*
X156150000Y-105532346D01*
X156650000Y-105532346D01*
X156784582Y-105507023D01*
X156757654Y-105640000D01*
X156757654Y-106140000D01*
X156783802Y-106278966D01*
X156819346Y-106334203D01*
X156765000Y-106465408D01*
X156765000Y-106671250D01*
X156858750Y-106765000D01*
X157535000Y-106765000D01*
X157535000Y-106745000D01*
X157585000Y-106745000D01*
X157585000Y-106765000D01*
X157605000Y-106765000D01*
X157605000Y-106815000D01*
X157585000Y-106815000D01*
X157585000Y-106835000D01*
X157535000Y-106835000D01*
X157535000Y-106815000D01*
X156858750Y-106815000D01*
X156765000Y-106908750D01*
X156765000Y-107025100D01*
X156516323Y-107024883D01*
X156268143Y-107127429D01*
X156078097Y-107317144D01*
X155975117Y-107565145D01*
X155974883Y-107833677D01*
X156062993Y-108046919D01*
X155868143Y-108127429D01*
X155678097Y-108317144D01*
X155575117Y-108565145D01*
X155574883Y-108833677D01*
X155677429Y-109081857D01*
X155867144Y-109271903D01*
X156081840Y-109361053D01*
X155717922Y-109724972D01*
X155616323Y-109724883D01*
X155368143Y-109827429D01*
X155178097Y-110017144D01*
X155075117Y-110265145D01*
X155074883Y-110533677D01*
X155177429Y-110781857D01*
X155367144Y-110971903D01*
X155615145Y-111074883D01*
X155883677Y-111075117D01*
X156131857Y-110972571D01*
X156199952Y-110904594D01*
X156267144Y-110971903D01*
X156515145Y-111074883D01*
X156765000Y-111075101D01*
X156765000Y-111171250D01*
X156858748Y-111264998D01*
X156798402Y-111264998D01*
X156719724Y-111186182D01*
X156471723Y-111083202D01*
X156203191Y-111082968D01*
X155955011Y-111185514D01*
X155882313Y-111258085D01*
X155241915Y-111258085D01*
X155050573Y-111296145D01*
X154888361Y-111404532D01*
X154292894Y-112000000D01*
X151494998Y-112000000D01*
X151317818Y-112035243D01*
X151303656Y-112038060D01*
X151141444Y-112146447D01*
X150846447Y-112441445D01*
X150836376Y-112456517D01*
X150744136Y-112548757D01*
X150611034Y-112573802D01*
X150555797Y-112609346D01*
X150424592Y-112555000D01*
X150218750Y-112555000D01*
X150125000Y-112648750D01*
X150125000Y-113325000D01*
X150145000Y-113325000D01*
X150145000Y-113375000D01*
X150125000Y-113375000D01*
X150125000Y-113395000D01*
X150075000Y-113395000D01*
X150075000Y-113375000D01*
X149568750Y-113375000D01*
X149475000Y-113468750D01*
X149475000Y-113708750D01*
X149445000Y-113738750D01*
X149445000Y-114320000D01*
X150525000Y-114320000D01*
X150525000Y-114300000D01*
X150575000Y-114300000D01*
X150575000Y-114320000D01*
X151425000Y-114320000D01*
X151425000Y-114300000D01*
X151475000Y-114300000D01*
X151475000Y-114320000D01*
X152325000Y-114320000D01*
X152325000Y-114300000D01*
X152375000Y-114300000D01*
X152375000Y-114320000D01*
X153225000Y-114320000D01*
X153225000Y-114300000D01*
X153275000Y-114300000D01*
X153275000Y-114320000D01*
X154125000Y-114320000D01*
X154125000Y-114300000D01*
X154175000Y-114300000D01*
X154175000Y-114320000D01*
X155025000Y-114320000D01*
X155025000Y-114300000D01*
X155075000Y-114300000D01*
X155075000Y-114320000D01*
X155656250Y-114320000D01*
X155750000Y-114226250D01*
X155750000Y-114152346D01*
X155888966Y-114126198D01*
X155944203Y-114090654D01*
X156075408Y-114145000D01*
X156281250Y-114145000D01*
X156375000Y-114051250D01*
X156375000Y-113375000D01*
X156425000Y-113375000D01*
X156425000Y-114051250D01*
X156518750Y-114145000D01*
X156724592Y-114145000D01*
X156862421Y-114087910D01*
X156967910Y-113982420D01*
X157025000Y-113844592D01*
X157025000Y-113468750D01*
X156931250Y-113375000D01*
X156425000Y-113375000D01*
X156375000Y-113375000D01*
X156355000Y-113375000D01*
X156355000Y-113325000D01*
X156375000Y-113325000D01*
X156375000Y-112648750D01*
X156281250Y-112555000D01*
X156075408Y-112555000D01*
X156047411Y-112566596D01*
X155949033Y-112328503D01*
X155878738Y-112258085D01*
X155882234Y-112258085D01*
X155954012Y-112329988D01*
X156202013Y-112432968D01*
X156470545Y-112433202D01*
X156718725Y-112330656D01*
X156834581Y-112215002D01*
X156858748Y-112215002D01*
X156765000Y-112308750D01*
X156765000Y-112514592D01*
X156793572Y-112583572D01*
X156724592Y-112555000D01*
X156518750Y-112555000D01*
X156425000Y-112648750D01*
X156425000Y-113325000D01*
X156931250Y-113325000D01*
X157025000Y-113231250D01*
X157025000Y-112855408D01*
X156996427Y-112786427D01*
X157065408Y-112815000D01*
X157441250Y-112815000D01*
X157535000Y-112721250D01*
X157535000Y-112215000D01*
X157585000Y-112215000D01*
X157585000Y-112721250D01*
X157678750Y-112815000D01*
X158054592Y-112815000D01*
X158192420Y-112757910D01*
X158297910Y-112652421D01*
X158355000Y-112514592D01*
X158355000Y-112308750D01*
X158261250Y-112215000D01*
X157585000Y-112215000D01*
X157535000Y-112215000D01*
X157515000Y-112215000D01*
X157515000Y-112165000D01*
X157535000Y-112165000D01*
X157535000Y-111315000D01*
X157515000Y-111315000D01*
X157515000Y-111265000D01*
X157535000Y-111265000D01*
X157535000Y-111245000D01*
X157585000Y-111245000D01*
X157585000Y-111265000D01*
X157605000Y-111265000D01*
X157605000Y-111315000D01*
X157585000Y-111315000D01*
X157585000Y-112165000D01*
X158261250Y-112165000D01*
X158355000Y-112071250D01*
X158355000Y-111865408D01*
X158303055Y-111740000D01*
X158355000Y-111614592D01*
X158355000Y-111540000D01*
X158436250Y-111540000D01*
X158530000Y-111446250D01*
X158530000Y-110865000D01*
X158580000Y-110865000D01*
X158580000Y-111446250D01*
X158673750Y-111540000D01*
X158954592Y-111540000D01*
X159092420Y-111482910D01*
X159197910Y-111377421D01*
X159255000Y-111239592D01*
X159255000Y-110958750D01*
X159161250Y-110865000D01*
X158580000Y-110865000D01*
X158530000Y-110865000D01*
X158510000Y-110865000D01*
X158510000Y-110815000D01*
X158530000Y-110815000D01*
X158530000Y-109965000D01*
X158580000Y-109965000D01*
X158580000Y-110815000D01*
X159161250Y-110815000D01*
X159255000Y-110721250D01*
X159255000Y-110440408D01*
X159234121Y-110390000D01*
X159255000Y-110339592D01*
X159255000Y-110058750D01*
X159161250Y-109965000D01*
X158580000Y-109965000D01*
X158530000Y-109965000D01*
X158510000Y-109965000D01*
X158510000Y-109915000D01*
X158530000Y-109915000D01*
X158530000Y-109065000D01*
X158580000Y-109065000D01*
X158580000Y-109915000D01*
X159161250Y-109915000D01*
X159255000Y-109821250D01*
X159255000Y-109540408D01*
X159234121Y-109490000D01*
X159255000Y-109439592D01*
X159255000Y-109158750D01*
X159161250Y-109065000D01*
X158580000Y-109065000D01*
X158530000Y-109065000D01*
X158510000Y-109065000D01*
X158510000Y-109015000D01*
X158530000Y-109015000D01*
X158530000Y-108165000D01*
X158580000Y-108165000D01*
X158580000Y-109015000D01*
X159161250Y-109015000D01*
X159255000Y-108921250D01*
X159255000Y-108640408D01*
X159234121Y-108590000D01*
X159255000Y-108539592D01*
X159255000Y-108258750D01*
X159161250Y-108165000D01*
X158580000Y-108165000D01*
X158530000Y-108165000D01*
X158510000Y-108165000D01*
X158510000Y-108115000D01*
X158530000Y-108115000D01*
X158530000Y-107265000D01*
X158580000Y-107265000D01*
X158580000Y-108115000D01*
X159161250Y-108115000D01*
X159255000Y-108021250D01*
X159255000Y-107740408D01*
X159234121Y-107690000D01*
X159255000Y-107639592D01*
X159255000Y-107358750D01*
X159161250Y-107265000D01*
X158580000Y-107265000D01*
X158530000Y-107265000D01*
X158510000Y-107265000D01*
X158510000Y-107215000D01*
X158530000Y-107215000D01*
X158530000Y-106365000D01*
X158580000Y-106365000D01*
X158580000Y-107215000D01*
X159161250Y-107215000D01*
X159255000Y-107121250D01*
X159255000Y-106840408D01*
X159234121Y-106790000D01*
X159255000Y-106739592D01*
X159255000Y-106458750D01*
X159161250Y-106365000D01*
X158580000Y-106365000D01*
X158530000Y-106365000D01*
X158510000Y-106365000D01*
X158510000Y-106315000D01*
X158530000Y-106315000D01*
X158530000Y-105235000D01*
X158580000Y-105235000D01*
X158580000Y-106315000D01*
X159161250Y-106315000D01*
X159255000Y-106221250D01*
X159255000Y-105940408D01*
X159233085Y-105887500D01*
X159255000Y-105834592D01*
X159255000Y-105328750D01*
X159161250Y-105235000D01*
X158580000Y-105235000D01*
X158530000Y-105235000D01*
X158510000Y-105235000D01*
X158510000Y-105185000D01*
X158530000Y-105185000D01*
X158530000Y-104378750D01*
X158580000Y-104378750D01*
X158580000Y-105185000D01*
X159161250Y-105185000D01*
X159255000Y-105091250D01*
X159255000Y-104585408D01*
X159197910Y-104447579D01*
X159092420Y-104342090D01*
X158954592Y-104285000D01*
X158673750Y-104285000D01*
X158580000Y-104378750D01*
X158530000Y-104378750D01*
X158436250Y-104285000D01*
X158155408Y-104285000D01*
X158017580Y-104342090D01*
X157912090Y-104447579D01*
X157855000Y-104585408D01*
X157855000Y-104600541D01*
X157689747Y-104435000D01*
X157704592Y-104435000D01*
X157842421Y-104377910D01*
X157947910Y-104272420D01*
X158005000Y-104134592D01*
X158005000Y-103853750D01*
X157911250Y-103760000D01*
X157105000Y-103760000D01*
X157105000Y-103780000D01*
X157055000Y-103780000D01*
X157055000Y-103760000D01*
X155975000Y-103760000D01*
X155975000Y-103780000D01*
X155925000Y-103780000D01*
X155925000Y-103760000D01*
X155075000Y-103760000D01*
X155075000Y-103780000D01*
X155025000Y-103780000D01*
X155025000Y-103760000D01*
X154175000Y-103760000D01*
X154175000Y-103780000D01*
X154125000Y-103780000D01*
X154125000Y-103760000D01*
X153275000Y-103760000D01*
X153275000Y-103780000D01*
X153225000Y-103780000D01*
X153225000Y-103760000D01*
X152375000Y-103760000D01*
X152375000Y-103780000D01*
X152325000Y-103780000D01*
X152325000Y-103760000D01*
X151475000Y-103760000D01*
X151475000Y-103780000D01*
X151425000Y-103780000D01*
X151425000Y-103760000D01*
X150575000Y-103760000D01*
X150575000Y-103780000D01*
X150525000Y-103780000D01*
X150525000Y-103760000D01*
X149445000Y-103760000D01*
X149445000Y-104341250D01*
X149467654Y-104363904D01*
X149467654Y-105150000D01*
X149493802Y-105288966D01*
X149494293Y-105289729D01*
X149434592Y-105265000D01*
X149058750Y-105265000D01*
X148965000Y-105358750D01*
X148965000Y-105865000D01*
X148985000Y-105865000D01*
X148985000Y-105915000D01*
X148965000Y-105915000D01*
X148965000Y-105935000D01*
X148915000Y-105935000D01*
X148915000Y-105915000D01*
X148895000Y-105915000D01*
X148895000Y-105865000D01*
X148915000Y-105865000D01*
X148915000Y-105358750D01*
X148821250Y-105265000D01*
X148581250Y-105265000D01*
X148551250Y-105235000D01*
X147970000Y-105235000D01*
X147920000Y-105235000D01*
X147900000Y-105235000D01*
X147900000Y-105185000D01*
X147920000Y-105185000D01*
X147920000Y-104378750D01*
X147970000Y-104378750D01*
X147970000Y-105185000D01*
X148551250Y-105185000D01*
X148645000Y-105091250D01*
X148645000Y-104585408D01*
X148587910Y-104447579D01*
X148482420Y-104342090D01*
X148344592Y-104285000D01*
X148063750Y-104285000D01*
X147970000Y-104378750D01*
X147920000Y-104378750D01*
X147826250Y-104285000D01*
X147545408Y-104285000D01*
X147425000Y-104334874D01*
X147425000Y-103853750D01*
X148495000Y-103853750D01*
X148495000Y-104134592D01*
X148552090Y-104272420D01*
X148657579Y-104377910D01*
X148795408Y-104435000D01*
X149301250Y-104435000D01*
X149395000Y-104341250D01*
X149395000Y-103760000D01*
X148588750Y-103760000D01*
X148495000Y-103853750D01*
X147425000Y-103853750D01*
X147425000Y-103335408D01*
X148495000Y-103335408D01*
X148495000Y-103616250D01*
X148588750Y-103710000D01*
X149395000Y-103710000D01*
X149395000Y-103128750D01*
X149445000Y-103128750D01*
X149445000Y-103710000D01*
X150525000Y-103710000D01*
X150525000Y-103128750D01*
X150575000Y-103128750D01*
X150575000Y-103710000D01*
X151425000Y-103710000D01*
X151425000Y-103128750D01*
X151475000Y-103128750D01*
X151475000Y-103710000D01*
X152325000Y-103710000D01*
X152325000Y-103128750D01*
X152375000Y-103128750D01*
X152375000Y-103710000D01*
X153225000Y-103710000D01*
X153225000Y-103128750D01*
X153275000Y-103128750D01*
X153275000Y-103710000D01*
X154125000Y-103710000D01*
X154125000Y-103128750D01*
X154031250Y-103035000D01*
X153750408Y-103035000D01*
X153700000Y-103055880D01*
X153649592Y-103035000D01*
X153368750Y-103035000D01*
X153275000Y-103128750D01*
X153225000Y-103128750D01*
X153131250Y-103035000D01*
X152850408Y-103035000D01*
X152800000Y-103055880D01*
X152749592Y-103035000D01*
X152468750Y-103035000D01*
X152375000Y-103128750D01*
X152325000Y-103128750D01*
X152231250Y-103035000D01*
X151950408Y-103035000D01*
X151900000Y-103055880D01*
X151849592Y-103035000D01*
X151568750Y-103035000D01*
X151475000Y-103128750D01*
X151425000Y-103128750D01*
X151331250Y-103035000D01*
X151050408Y-103035000D01*
X151000000Y-103055880D01*
X150949592Y-103035000D01*
X150668750Y-103035000D01*
X150575000Y-103128750D01*
X150525000Y-103128750D01*
X150431250Y-103035000D01*
X150150408Y-103035000D01*
X150097500Y-103056915D01*
X150044592Y-103035000D01*
X149538750Y-103035000D01*
X149445000Y-103128750D01*
X149395000Y-103128750D01*
X149301250Y-103035000D01*
X148795408Y-103035000D01*
X148657579Y-103092090D01*
X148552090Y-103197580D01*
X148495000Y-103335408D01*
X147425000Y-103335408D01*
X147425000Y-98110129D01*
X150361835Y-92823826D01*
X150930140Y-93674353D01*
X151903899Y-94324999D01*
X150749999Y-94324999D01*
X150539523Y-94366865D01*
X150361090Y-94486090D01*
X150111091Y-94736089D01*
X149991866Y-94914522D01*
X149950000Y-95124998D01*
X149950000Y-98700000D01*
X149991866Y-98910476D01*
X150111091Y-99088909D01*
X150667654Y-99645472D01*
X150667654Y-100450000D01*
X150693802Y-100588966D01*
X150775931Y-100716599D01*
X150781181Y-100720186D01*
X150733401Y-100750931D01*
X150647777Y-100876246D01*
X150617654Y-101025000D01*
X150617654Y-101775000D01*
X150643802Y-101913966D01*
X150725931Y-102041599D01*
X150851246Y-102127223D01*
X151000000Y-102157346D01*
X151800000Y-102157346D01*
X151938966Y-102131198D01*
X152066599Y-102049069D01*
X152152223Y-101923754D01*
X152182346Y-101775000D01*
X152182346Y-101025000D01*
X152156198Y-100886034D01*
X152074069Y-100758401D01*
X152018898Y-100720704D01*
X152102223Y-100598754D01*
X152132346Y-100450000D01*
X152132346Y-98950000D01*
X153667654Y-98950000D01*
X153667654Y-100450000D01*
X153693802Y-100588966D01*
X153775931Y-100716599D01*
X153901246Y-100802223D01*
X154050000Y-100832346D01*
X154450000Y-100832346D01*
X154450000Y-102345279D01*
X154428097Y-102367144D01*
X154325117Y-102615145D01*
X154324883Y-102883677D01*
X154387408Y-103035000D01*
X154268750Y-103035000D01*
X154175000Y-103128750D01*
X154175000Y-103710000D01*
X155025000Y-103710000D01*
X155025000Y-103690000D01*
X155075000Y-103690000D01*
X155075000Y-103710000D01*
X155925000Y-103710000D01*
X155925000Y-103128750D01*
X155975000Y-103128750D01*
X155975000Y-103710000D01*
X157055000Y-103710000D01*
X157055000Y-103128750D01*
X157105000Y-103128750D01*
X157105000Y-103710000D01*
X157911250Y-103710000D01*
X158005000Y-103616250D01*
X158005000Y-103335408D01*
X157947910Y-103197580D01*
X157842421Y-103092090D01*
X157704592Y-103035000D01*
X157198750Y-103035000D01*
X157105000Y-103128750D01*
X157055000Y-103128750D01*
X156961250Y-103035000D01*
X156455408Y-103035000D01*
X156402500Y-103056915D01*
X156349592Y-103035000D01*
X156068750Y-103035000D01*
X155975000Y-103128750D01*
X155925000Y-103128750D01*
X155831250Y-103035000D01*
X155612537Y-103035000D01*
X155674883Y-102884855D01*
X155675117Y-102616323D01*
X155572571Y-102368143D01*
X155550000Y-102345533D01*
X155550000Y-100300000D01*
X155508134Y-100089524D01*
X155388909Y-99911091D01*
X155227818Y-99750000D01*
X155475902Y-99750000D01*
X155550931Y-99866599D01*
X155676246Y-99952223D01*
X155825000Y-99982346D01*
X156575000Y-99982346D01*
X156713966Y-99956198D01*
X156841599Y-99874069D01*
X156927223Y-99748754D01*
X156957346Y-99600000D01*
X156957346Y-98800000D01*
X156931198Y-98661034D01*
X156849069Y-98533401D01*
X156723754Y-98447777D01*
X156575000Y-98417654D01*
X155825000Y-98417654D01*
X155686034Y-98443802D01*
X155558401Y-98525931D01*
X155473628Y-98650000D01*
X154975185Y-98650000D01*
X154898754Y-98597777D01*
X154750000Y-98567654D01*
X154050000Y-98567654D01*
X153911034Y-98593802D01*
X153783401Y-98675931D01*
X153697777Y-98801246D01*
X153667654Y-98950000D01*
X152132346Y-98950000D01*
X152106198Y-98811034D01*
X152024069Y-98683401D01*
X151898754Y-98597777D01*
X151750000Y-98567654D01*
X151145472Y-98567654D01*
X151050000Y-98472182D01*
X151050000Y-97132346D01*
X151750000Y-97132346D01*
X151888966Y-97106198D01*
X152016599Y-97024069D01*
X152102223Y-96898754D01*
X152132346Y-96750000D01*
X152132346Y-95424999D01*
X153447181Y-95424999D01*
X153667654Y-95645472D01*
X153667654Y-96750000D01*
X153693802Y-96888966D01*
X153775931Y-97016599D01*
X153901246Y-97102223D01*
X154050000Y-97132346D01*
X154750000Y-97132346D01*
X154888966Y-97106198D01*
X155016599Y-97024069D01*
X155102223Y-96898754D01*
X155132346Y-96750000D01*
X155132346Y-96550000D01*
X155772182Y-96550000D01*
X157998781Y-98776599D01*
X157947777Y-98851246D01*
X157917654Y-99000000D01*
X157917654Y-100500000D01*
X157943802Y-100638966D01*
X158025931Y-100766599D01*
X158055431Y-100786755D01*
X158033401Y-100800931D01*
X157947777Y-100926246D01*
X157917654Y-101075000D01*
X157917654Y-101825000D01*
X157943802Y-101963966D01*
X158025931Y-102091599D01*
X158151246Y-102177223D01*
X158300000Y-102207346D01*
X158704528Y-102207346D01*
X160400000Y-103902818D01*
X160400000Y-111925087D01*
X160166323Y-111924883D01*
X159918143Y-112027429D01*
X159728097Y-112217144D01*
X159625117Y-112465145D01*
X159624883Y-112733677D01*
X159727429Y-112981857D01*
X159917144Y-113171903D01*
X160165145Y-113274883D01*
X160200000Y-113274913D01*
X160200000Y-113717654D01*
X160000000Y-113717654D01*
X159861034Y-113743802D01*
X159733401Y-113825931D01*
X159647777Y-113951246D01*
X159617654Y-114100000D01*
X159617654Y-114800000D01*
X159643802Y-114938966D01*
X159725931Y-115066599D01*
X159851246Y-115152223D01*
X160000000Y-115182346D01*
X161500000Y-115182346D01*
X161638966Y-115156198D01*
X161766599Y-115074069D01*
X161852223Y-114948754D01*
X161882346Y-114800000D01*
X161882346Y-114495472D01*
X162102819Y-114274999D01*
X163317654Y-114274999D01*
X163317654Y-114800000D01*
X163343802Y-114938966D01*
X163425931Y-115066599D01*
X163551246Y-115152223D01*
X163700000Y-115182346D01*
X165200000Y-115182346D01*
X165338966Y-115156198D01*
X165466599Y-115074069D01*
X165552223Y-114948754D01*
X165582346Y-114800000D01*
X165582346Y-114585161D01*
X165725001Y-114727816D01*
X165725001Y-116497181D01*
X165423401Y-116798781D01*
X165348754Y-116747777D01*
X165200000Y-116717654D01*
X163700000Y-116717654D01*
X163561034Y-116743802D01*
X163433401Y-116825931D01*
X163347777Y-116951246D01*
X163317654Y-117100000D01*
X163317654Y-117800000D01*
X163343802Y-117938966D01*
X163425931Y-118066599D01*
X163551246Y-118152223D01*
X163700000Y-118182346D01*
X165200000Y-118182346D01*
X165338966Y-118156198D01*
X165466599Y-118074069D01*
X165517208Y-118000000D01*
X165550000Y-118000000D01*
X165760476Y-117958134D01*
X165938909Y-117838909D01*
X166663910Y-117113908D01*
X166783135Y-116935475D01*
X166825001Y-116724999D01*
X166825001Y-114500004D01*
X166825002Y-114499999D01*
X166783135Y-114289523D01*
X166691079Y-114151752D01*
X166663910Y-114111090D01*
X166663907Y-114111088D01*
X165888910Y-113336090D01*
X165710477Y-113216865D01*
X165500001Y-113174999D01*
X163225000Y-113174999D01*
X163225000Y-113020000D01*
X167001001Y-113020000D01*
X167094249Y-113488787D01*
X167359795Y-113886206D01*
X167757214Y-114151752D01*
X168226001Y-114245000D01*
X168273999Y-114245000D01*
X168742786Y-114151752D01*
X169140205Y-113886206D01*
X169405751Y-113488787D01*
X169498999Y-113020000D01*
X169405751Y-112551213D01*
X169140205Y-112153794D01*
X168742786Y-111888248D01*
X168273999Y-111795000D01*
X168226001Y-111795000D01*
X167757214Y-111888248D01*
X167359795Y-112153794D01*
X167094249Y-112551213D01*
X167001001Y-113020000D01*
X163225000Y-113020000D01*
X163225000Y-112868750D01*
X163131250Y-112775000D01*
X162475000Y-112775000D01*
X162475000Y-112795000D01*
X162425000Y-112795000D01*
X162425000Y-112775000D01*
X162405000Y-112775000D01*
X162405000Y-112725000D01*
X162425000Y-112725000D01*
X162425000Y-112093750D01*
X162475000Y-112093750D01*
X162475000Y-112725000D01*
X163131250Y-112725000D01*
X163225000Y-112631250D01*
X163225000Y-112300408D01*
X163167910Y-112162579D01*
X163062420Y-112057090D01*
X162924592Y-112000000D01*
X162568750Y-112000000D01*
X162475000Y-112093750D01*
X162425000Y-112093750D01*
X162331250Y-112000000D01*
X161975408Y-112000000D01*
X161837580Y-112057090D01*
X161732090Y-112162579D01*
X161703440Y-112231748D01*
X161624069Y-112108401D01*
X161500000Y-112023628D01*
X161500000Y-110480000D01*
X167001001Y-110480000D01*
X167094249Y-110948787D01*
X167359795Y-111346206D01*
X167757214Y-111611752D01*
X168226001Y-111705000D01*
X168273999Y-111705000D01*
X168742786Y-111611752D01*
X169140205Y-111346206D01*
X169405751Y-110948787D01*
X169498999Y-110480000D01*
X169405751Y-110011213D01*
X169140205Y-109613794D01*
X168742786Y-109348248D01*
X168273999Y-109255000D01*
X168226001Y-109255000D01*
X167757214Y-109348248D01*
X167359795Y-109613794D01*
X167094249Y-110011213D01*
X167001001Y-110480000D01*
X161500000Y-110480000D01*
X161500000Y-107940000D01*
X167001001Y-107940000D01*
X167094249Y-108408787D01*
X167359795Y-108806206D01*
X167757214Y-109071752D01*
X168226001Y-109165000D01*
X168273999Y-109165000D01*
X168742786Y-109071752D01*
X169140205Y-108806206D01*
X169405751Y-108408787D01*
X169498999Y-107940000D01*
X169405751Y-107471213D01*
X169140205Y-107073794D01*
X168742786Y-106808248D01*
X168273999Y-106715000D01*
X168226001Y-106715000D01*
X167757214Y-106808248D01*
X167359795Y-107073794D01*
X167094249Y-107471213D01*
X167001001Y-107940000D01*
X161500000Y-107940000D01*
X161500000Y-104550000D01*
X167017654Y-104550000D01*
X167017654Y-106250000D01*
X167043802Y-106388966D01*
X167125931Y-106516599D01*
X167251246Y-106602223D01*
X167400000Y-106632346D01*
X169100000Y-106632346D01*
X169238966Y-106606198D01*
X169366599Y-106524069D01*
X169452223Y-106398754D01*
X169482346Y-106250000D01*
X169482346Y-104550000D01*
X169456198Y-104411034D01*
X169374069Y-104283401D01*
X169248754Y-104197777D01*
X169100000Y-104167654D01*
X167400000Y-104167654D01*
X167261034Y-104193802D01*
X167133401Y-104275931D01*
X167047777Y-104401246D01*
X167017654Y-104550000D01*
X161500000Y-104550000D01*
X161500000Y-103675000D01*
X161458134Y-103464524D01*
X161338909Y-103286091D01*
X159482346Y-101429528D01*
X159482346Y-101340000D01*
X166917654Y-101340000D01*
X166917654Y-103040000D01*
X166943802Y-103178966D01*
X167025931Y-103306599D01*
X167151246Y-103392223D01*
X167300000Y-103422346D01*
X169000000Y-103422346D01*
X169138966Y-103396198D01*
X169266599Y-103314069D01*
X169352223Y-103188754D01*
X169382346Y-103040000D01*
X169382346Y-101340000D01*
X169356198Y-101201034D01*
X169274069Y-101073401D01*
X169148754Y-100987777D01*
X169000000Y-100957654D01*
X167300000Y-100957654D01*
X167161034Y-100983802D01*
X167033401Y-101065931D01*
X166947777Y-101191246D01*
X166917654Y-101340000D01*
X159482346Y-101340000D01*
X159482346Y-101075000D01*
X159456198Y-100936034D01*
X159374069Y-100808401D01*
X159284812Y-100747414D01*
X159352223Y-100648754D01*
X159382346Y-100500000D01*
X159382346Y-99000000D01*
X160917654Y-99000000D01*
X160917654Y-100500000D01*
X160943802Y-100638966D01*
X161025931Y-100766599D01*
X161151246Y-100852223D01*
X161300000Y-100882346D01*
X162000000Y-100882346D01*
X162138966Y-100856198D01*
X162266599Y-100774069D01*
X162352223Y-100648754D01*
X162382346Y-100500000D01*
X162382346Y-100411264D01*
X162415145Y-100424883D01*
X162683677Y-100425117D01*
X162901317Y-100335190D01*
X162926246Y-100352223D01*
X163075000Y-100382346D01*
X163825000Y-100382346D01*
X163963966Y-100356198D01*
X164091599Y-100274069D01*
X164177223Y-100148754D01*
X164207346Y-100000000D01*
X164207346Y-99650000D01*
X166901001Y-99650000D01*
X166994249Y-100118787D01*
X167259795Y-100516206D01*
X167657214Y-100781752D01*
X168126001Y-100875000D01*
X168173999Y-100875000D01*
X168642786Y-100781752D01*
X169040205Y-100516206D01*
X169305751Y-100118787D01*
X169398999Y-99650000D01*
X169305751Y-99181213D01*
X169040205Y-98783794D01*
X168642786Y-98518248D01*
X168173999Y-98425000D01*
X168126001Y-98425000D01*
X167657214Y-98518248D01*
X167259795Y-98783794D01*
X166994249Y-99181213D01*
X166901001Y-99650000D01*
X164207346Y-99650000D01*
X164207346Y-99200000D01*
X164181198Y-99061034D01*
X164099069Y-98933401D01*
X163973754Y-98847777D01*
X163825000Y-98817654D01*
X163075000Y-98817654D01*
X162936034Y-98843802D01*
X162808401Y-98925931D01*
X162722777Y-99051246D01*
X162715377Y-99087791D01*
X162684855Y-99075117D01*
X162416323Y-99074883D01*
X162382346Y-99088922D01*
X162382346Y-99000000D01*
X162356198Y-98861034D01*
X162274069Y-98733401D01*
X162148754Y-98647777D01*
X162000000Y-98617654D01*
X161300000Y-98617654D01*
X161161034Y-98643802D01*
X161033401Y-98725931D01*
X160947777Y-98851246D01*
X160917654Y-99000000D01*
X159382346Y-99000000D01*
X159356198Y-98861034D01*
X159274069Y-98733401D01*
X159200000Y-98682792D01*
X159200000Y-98650000D01*
X159158134Y-98439524D01*
X159038909Y-98261091D01*
X156790317Y-96012499D01*
X157302817Y-95499999D01*
X157879787Y-95499999D01*
X157917654Y-95492467D01*
X157917654Y-96800000D01*
X157943802Y-96938966D01*
X158025931Y-97066599D01*
X158151246Y-97152223D01*
X158300000Y-97182346D01*
X159000000Y-97182346D01*
X159138966Y-97156198D01*
X159266599Y-97074069D01*
X159352223Y-96948754D01*
X159382346Y-96800000D01*
X159382346Y-95300000D01*
X159356198Y-95161034D01*
X159274069Y-95033401D01*
X159148754Y-94947777D01*
X159000000Y-94917654D01*
X158721016Y-94917654D01*
X160175000Y-93463670D01*
X160175000Y-94800000D01*
X160222575Y-95039177D01*
X160358058Y-95241942D01*
X160917654Y-95801537D01*
X160917654Y-96800000D01*
X160943802Y-96938966D01*
X161025931Y-97066599D01*
X161151246Y-97152223D01*
X161300000Y-97182346D01*
X162000000Y-97182346D01*
X162138966Y-97156198D01*
X162266599Y-97074069D01*
X162352223Y-96948754D01*
X162382346Y-96800000D01*
X162382346Y-95300000D01*
X162356198Y-95161034D01*
X162274069Y-95033401D01*
X162148754Y-94947777D01*
X162000000Y-94917654D01*
X161801537Y-94917654D01*
X161425000Y-94541116D01*
X161425000Y-92213670D01*
X161541942Y-92096728D01*
X161677425Y-91893964D01*
X161725000Y-91654786D01*
X161725000Y-91482346D01*
X162350000Y-91482346D01*
X162488966Y-91456198D01*
X162616599Y-91374069D01*
X162702223Y-91248754D01*
X162732346Y-91100000D01*
X162732346Y-90068750D01*
X163775000Y-90068750D01*
X163775000Y-91174592D01*
X163832090Y-91312421D01*
X163937580Y-91417910D01*
X164075408Y-91475000D01*
X165281250Y-91475000D01*
X165375000Y-91381250D01*
X165375000Y-89975000D01*
X163868750Y-89975000D01*
X163775000Y-90068750D01*
X162732346Y-90068750D01*
X162732346Y-88800000D01*
X162718311Y-88725408D01*
X163775000Y-88725408D01*
X163775000Y-89831250D01*
X163868750Y-89925000D01*
X165375000Y-89925000D01*
X165375000Y-88518750D01*
X165425000Y-88518750D01*
X165425000Y-89925000D01*
X166931250Y-89925000D01*
X167025000Y-89831250D01*
X167025000Y-89623715D01*
X167344245Y-89623715D01*
X167419026Y-89815000D01*
X168525000Y-89815000D01*
X168525000Y-88709003D01*
X168333715Y-88634243D01*
X167888755Y-88808794D01*
X167544464Y-89140337D01*
X167353256Y-89578398D01*
X167344245Y-89623715D01*
X167025000Y-89623715D01*
X167025000Y-88725408D01*
X166967910Y-88587579D01*
X166862420Y-88482090D01*
X166724592Y-88425000D01*
X165518750Y-88425000D01*
X165425000Y-88518750D01*
X165375000Y-88518750D01*
X165281250Y-88425000D01*
X164075408Y-88425000D01*
X163937580Y-88482090D01*
X163832090Y-88587579D01*
X163775000Y-88725408D01*
X162718311Y-88725408D01*
X162706198Y-88661034D01*
X162624069Y-88533401D01*
X162498754Y-88447777D01*
X162350000Y-88417654D01*
X160601538Y-88417654D01*
X159241942Y-87058058D01*
X159039177Y-86922575D01*
X158800000Y-86875000D01*
X158584750Y-86875000D01*
X158574069Y-86858401D01*
X158493447Y-86803314D01*
X158616599Y-86724069D01*
X158702223Y-86598754D01*
X158732346Y-86450000D01*
X158732346Y-85651538D01*
X159200499Y-85183385D01*
X159301246Y-85252223D01*
X159450000Y-85282346D01*
X160950000Y-85282346D01*
X161088966Y-85256198D01*
X161216599Y-85174069D01*
X161302223Y-85048754D01*
X161332346Y-84900000D01*
X161332346Y-82700000D01*
X161306198Y-82561034D01*
X161224069Y-82433401D01*
X161098754Y-82347777D01*
X160950000Y-82317654D01*
X159450000Y-82317654D01*
X159311034Y-82343802D01*
X159183401Y-82425931D01*
X159097777Y-82551246D01*
X159067654Y-82700000D01*
X159067654Y-83548462D01*
X157548462Y-85067654D01*
X156750000Y-85067654D01*
X156611034Y-85093802D01*
X156483401Y-85175931D01*
X156397777Y-85301246D01*
X156367654Y-85450000D01*
X156367654Y-86450000D01*
X156393802Y-86588966D01*
X156475931Y-86716599D01*
X156524815Y-86750000D01*
X156518750Y-86750000D01*
X156425000Y-86843750D01*
X156425000Y-87475000D01*
X156445000Y-87475000D01*
X156445000Y-87525000D01*
X156425000Y-87525000D01*
X156425000Y-88156250D01*
X156518750Y-88250000D01*
X156874592Y-88250000D01*
X157012420Y-88192910D01*
X157117910Y-88087421D01*
X157146560Y-88018252D01*
X157225931Y-88141599D01*
X157351246Y-88227223D01*
X157500000Y-88257346D01*
X158300000Y-88257346D01*
X158438966Y-88231198D01*
X158565739Y-88149623D01*
X159467654Y-89051538D01*
X159467654Y-89920987D01*
X159069860Y-89325647D01*
X158072259Y-88659070D01*
X156895507Y-88425000D01*
X153104493Y-88425000D01*
X152768497Y-88491834D01*
X153253543Y-87618750D01*
X155625000Y-87618750D01*
X155625000Y-87949592D01*
X155682090Y-88087421D01*
X155787580Y-88192910D01*
X155925408Y-88250000D01*
X156281250Y-88250000D01*
X156375000Y-88156250D01*
X156375000Y-87525000D01*
X155718750Y-87525000D01*
X155625000Y-87618750D01*
X153253543Y-87618750D01*
X153569288Y-87050408D01*
X155625000Y-87050408D01*
X155625000Y-87381250D01*
X155718750Y-87475000D01*
X156375000Y-87475000D01*
X156375000Y-86843750D01*
X156281250Y-86750000D01*
X155925408Y-86750000D01*
X155787580Y-86807090D01*
X155682090Y-86912579D01*
X155625000Y-87050408D01*
X153569288Y-87050408D01*
X155781320Y-83068750D01*
X156375000Y-83068750D01*
X156375000Y-83524592D01*
X156432090Y-83662420D01*
X156537579Y-83767910D01*
X156675408Y-83825000D01*
X157431250Y-83825000D01*
X157525000Y-83731250D01*
X157525000Y-82975000D01*
X157575000Y-82975000D01*
X157575000Y-83731250D01*
X157668750Y-83825000D01*
X158424592Y-83825000D01*
X158562421Y-83767910D01*
X158667910Y-83662420D01*
X158725000Y-83524592D01*
X158725000Y-83068750D01*
X158631250Y-82975000D01*
X157575000Y-82975000D01*
X157525000Y-82975000D01*
X156468750Y-82975000D01*
X156375000Y-83068750D01*
X155781320Y-83068750D01*
X156166510Y-82375408D01*
X156375000Y-82375408D01*
X156375000Y-82831250D01*
X156468750Y-82925000D01*
X157525000Y-82925000D01*
X157525000Y-82168750D01*
X157575000Y-82168750D01*
X157575000Y-82925000D01*
X158631250Y-82925000D01*
X158725000Y-82831250D01*
X158725000Y-82375408D01*
X158667910Y-82237580D01*
X158562421Y-82132090D01*
X158424592Y-82075000D01*
X157668750Y-82075000D01*
X157575000Y-82168750D01*
X157525000Y-82168750D01*
X157431250Y-82075000D01*
X156675408Y-82075000D01*
X156537579Y-82132090D01*
X156432090Y-82237580D01*
X156375000Y-82375408D01*
X156166510Y-82375408D01*
X156555399Y-81675408D01*
X167750000Y-81675408D01*
X167750000Y-82131250D01*
X167843750Y-82225000D01*
X168725000Y-82225000D01*
X168725000Y-81468750D01*
X168631250Y-81375000D01*
X168050408Y-81375000D01*
X167912579Y-81432090D01*
X167807090Y-81537580D01*
X167750000Y-81675408D01*
X156555399Y-81675408D01*
X157250071Y-80425000D01*
X169575000Y-80425000D01*
X169575000Y-81426945D01*
X169575000Y-81426945D01*
G37*
X169575000Y-81426945D02*
X169449592Y-81375000D01*
X168868750Y-81375000D01*
X168775000Y-81468750D01*
X168775000Y-82225000D01*
X168795000Y-82225000D01*
X168795000Y-82275000D01*
X168775000Y-82275000D01*
X168775000Y-83031250D01*
X168868750Y-83125000D01*
X169449592Y-83125000D01*
X169575000Y-83073055D01*
X169575000Y-83432792D01*
X169523754Y-83397777D01*
X169375000Y-83367654D01*
X168125000Y-83367654D01*
X167986034Y-83393802D01*
X167858401Y-83475931D01*
X167777791Y-83593907D01*
X167732346Y-83548462D01*
X167732346Y-82700000D01*
X167706198Y-82561034D01*
X167624069Y-82433401D01*
X167529450Y-82368750D01*
X167750000Y-82368750D01*
X167750000Y-82824592D01*
X167807090Y-82962420D01*
X167912579Y-83067910D01*
X168050408Y-83125000D01*
X168631250Y-83125000D01*
X168725000Y-83031250D01*
X168725000Y-82275000D01*
X167843750Y-82275000D01*
X167750000Y-82368750D01*
X167529450Y-82368750D01*
X167498754Y-82347777D01*
X167350000Y-82317654D01*
X165850000Y-82317654D01*
X165711034Y-82343802D01*
X165583401Y-82425931D01*
X165497777Y-82551246D01*
X165467654Y-82700000D01*
X165467654Y-84900000D01*
X165493802Y-85038966D01*
X165575931Y-85166599D01*
X165701246Y-85252223D01*
X165850000Y-85282346D01*
X167350000Y-85282346D01*
X167488966Y-85256198D01*
X167600527Y-85184411D01*
X167925000Y-85508884D01*
X167925000Y-86067654D01*
X167700000Y-86067654D01*
X167561034Y-86093802D01*
X167433401Y-86175931D01*
X167347777Y-86301246D01*
X167317654Y-86450000D01*
X167317654Y-88150000D01*
X167343802Y-88288966D01*
X167425931Y-88416599D01*
X167551246Y-88502223D01*
X167700000Y-88532346D01*
X169400000Y-88532346D01*
X169538966Y-88506198D01*
X169575000Y-88483011D01*
X169575000Y-89184929D01*
X169555536Y-89140337D01*
X169211245Y-88808794D01*
X168766285Y-88634243D01*
X168575000Y-88709003D01*
X168575000Y-89815000D01*
X168595000Y-89815000D01*
X168595000Y-89865000D01*
X168575000Y-89865000D01*
X168575000Y-90970997D01*
X168766285Y-91045757D01*
X169211245Y-90871206D01*
X169555536Y-90539663D01*
X169575000Y-90495071D01*
X169575000Y-91325000D01*
X167414289Y-91325000D01*
X166784095Y-91450353D01*
X166862420Y-91417910D01*
X166967910Y-91312421D01*
X167025000Y-91174592D01*
X167025000Y-90068750D01*
X167012535Y-90056285D01*
X167344245Y-90056285D01*
X167353256Y-90101602D01*
X167544464Y-90539663D01*
X167888755Y-90871206D01*
X168333715Y-91045757D01*
X168525000Y-90970997D01*
X168525000Y-89865000D01*
X167419026Y-89865000D01*
X167344245Y-90056285D01*
X167012535Y-90056285D01*
X166931250Y-89975000D01*
X165425000Y-89975000D01*
X165425000Y-91381250D01*
X165518750Y-91475000D01*
X166660186Y-91475000D01*
X166237537Y-91559070D01*
X165239936Y-92225647D01*
X164573359Y-93223248D01*
X164339289Y-94400000D01*
X164573359Y-95576752D01*
X165239936Y-96574353D01*
X166237537Y-97240930D01*
X167414289Y-97475000D01*
X169575000Y-97475000D01*
X169575000Y-115410959D01*
X169556198Y-115311034D01*
X169474069Y-115183401D01*
X169348754Y-115097777D01*
X169200000Y-115067654D01*
X167500000Y-115067654D01*
X167361034Y-115093802D01*
X167233401Y-115175931D01*
X167147777Y-115301246D01*
X167117654Y-115450000D01*
X167117654Y-117150000D01*
X167143802Y-117288966D01*
X167225931Y-117416599D01*
X167351246Y-117502223D01*
X167500000Y-117532346D01*
X168654235Y-117532346D01*
X160611240Y-123966743D01*
X160805006Y-123676752D01*
X161039076Y-122500000D01*
X160805006Y-121323248D01*
X160138429Y-120325647D01*
X159140828Y-119659070D01*
X157964076Y-119425000D01*
X147589041Y-119425000D01*
X147688966Y-119406198D01*
X147776301Y-119350000D01*
X148200000Y-119350000D01*
X148410476Y-119308134D01*
X148588909Y-119188909D01*
X148695472Y-119082346D01*
X149600000Y-119082346D01*
X149738966Y-119056198D01*
X149866599Y-118974069D01*
X149952223Y-118848754D01*
X149982346Y-118700000D01*
X149982346Y-118218750D01*
X150025000Y-118218750D01*
X150025000Y-118774592D01*
X150082090Y-118912421D01*
X150187580Y-119017910D01*
X150325408Y-119075000D01*
X150981250Y-119075000D01*
X151075000Y-118981250D01*
X151075000Y-118125000D01*
X151125000Y-118125000D01*
X151125000Y-118981250D01*
X151218750Y-119075000D01*
X151874592Y-119075000D01*
X152012420Y-119017910D01*
X152117910Y-118912421D01*
X152175000Y-118774592D01*
X152175000Y-118218750D01*
X152081250Y-118125000D01*
X151125000Y-118125000D01*
X151075000Y-118125000D01*
X150118750Y-118125000D01*
X150025000Y-118218750D01*
X149982346Y-118218750D01*
X149982346Y-117500000D01*
X149956198Y-117361034D01*
X149874069Y-117233401D01*
X149750354Y-117148870D01*
X149866599Y-117074069D01*
X149952223Y-116948754D01*
X149982346Y-116800000D01*
X149982346Y-115600000D01*
X149956198Y-115461034D01*
X149874069Y-115333401D01*
X149748754Y-115247777D01*
X149600000Y-115217654D01*
X148200000Y-115217654D01*
X148061034Y-115243802D01*
X147933401Y-115325931D01*
X147847777Y-115451246D01*
X147817654Y-115600000D01*
X147817654Y-115956707D01*
X147811091Y-115961092D01*
X147697273Y-116074910D01*
X147666323Y-116074883D01*
X147418143Y-116177429D01*
X147245271Y-116350000D01*
X146300000Y-116350000D01*
X146089524Y-116391866D01*
X145911091Y-116511091D01*
X145911089Y-116511094D01*
X145904529Y-116517654D01*
X145325000Y-116517654D01*
X145186034Y-116543802D01*
X145058401Y-116625931D01*
X144972777Y-116751246D01*
X144942654Y-116900000D01*
X144942654Y-117700000D01*
X144968802Y-117838966D01*
X145050931Y-117966599D01*
X145176246Y-118052223D01*
X145181914Y-118053371D01*
X145112579Y-118082090D01*
X145007090Y-118187580D01*
X144950000Y-118325408D01*
X144950000Y-118681250D01*
X145043750Y-118775000D01*
X145675000Y-118775000D01*
X145675000Y-118755000D01*
X145725000Y-118755000D01*
X145725000Y-118775000D01*
X145745000Y-118775000D01*
X145745000Y-118825000D01*
X145725000Y-118825000D01*
X145725000Y-119481250D01*
X145818750Y-119575000D01*
X146149592Y-119575000D01*
X146287421Y-119517910D01*
X146392910Y-119412420D01*
X146420100Y-119346778D01*
X146501246Y-119402223D01*
X146650000Y-119432346D01*
X146998993Y-119432346D01*
X145859172Y-119659070D01*
X144925000Y-120283265D01*
X144925000Y-118918750D01*
X144950000Y-118918750D01*
X144950000Y-119274592D01*
X145007090Y-119412420D01*
X145112579Y-119517910D01*
X145250408Y-119575000D01*
X145581250Y-119575000D01*
X145675000Y-119481250D01*
X145675000Y-118825000D01*
X145043750Y-118825000D01*
X144950000Y-118918750D01*
X144925000Y-118918750D01*
X144925000Y-116636198D01*
X146476748Y-114463750D01*
X148495000Y-114463750D01*
X148495000Y-114744592D01*
X148552090Y-114882420D01*
X148657579Y-114987910D01*
X148795408Y-115045000D01*
X149301250Y-115045000D01*
X149395000Y-114951250D01*
X149395000Y-114370000D01*
X149445000Y-114370000D01*
X149445000Y-114951250D01*
X149538750Y-115045000D01*
X150044592Y-115045000D01*
X150097500Y-115023085D01*
X150150408Y-115045000D01*
X150431250Y-115045000D01*
X150524998Y-114951252D01*
X150524998Y-115024607D01*
X150444837Y-115217654D01*
X150400000Y-115217654D01*
X150261034Y-115243802D01*
X150133401Y-115325931D01*
X150047777Y-115451246D01*
X150017654Y-115600000D01*
X150017654Y-116800000D01*
X150043802Y-116938966D01*
X150125931Y-117066599D01*
X150251246Y-117152223D01*
X150256914Y-117153371D01*
X150187580Y-117182090D01*
X150082090Y-117287579D01*
X150025000Y-117425408D01*
X150025000Y-117981250D01*
X150118750Y-118075000D01*
X151075000Y-118075000D01*
X151075000Y-118055000D01*
X151125000Y-118055000D01*
X151125000Y-118075000D01*
X152081250Y-118075000D01*
X152175000Y-117981250D01*
X152175000Y-117425408D01*
X152117910Y-117287579D01*
X152012420Y-117182090D01*
X151943252Y-117153440D01*
X152066599Y-117074069D01*
X152152223Y-116948754D01*
X152182346Y-116800000D01*
X152182346Y-115733677D01*
X155974883Y-115733677D01*
X156077429Y-115981857D01*
X156267144Y-116171903D01*
X156515145Y-116274883D01*
X156547093Y-116274911D01*
X158061089Y-117788906D01*
X158061091Y-117788909D01*
X158211672Y-117889524D01*
X158239524Y-117908134D01*
X158263913Y-117912985D01*
X158268802Y-117938966D01*
X158350931Y-118066599D01*
X158476246Y-118152223D01*
X158625000Y-118182346D01*
X159375000Y-118182346D01*
X159513966Y-118156198D01*
X159641599Y-118074069D01*
X159687505Y-118006883D01*
X159725931Y-118066599D01*
X159851246Y-118152223D01*
X160000000Y-118182346D01*
X161500000Y-118182346D01*
X161638966Y-118156198D01*
X161766599Y-118074069D01*
X161852223Y-117948754D01*
X161882346Y-117800000D01*
X161882346Y-117100000D01*
X161856198Y-116961034D01*
X161774069Y-116833401D01*
X161648754Y-116747777D01*
X161500000Y-116717654D01*
X160000000Y-116717654D01*
X159861034Y-116743802D01*
X159733401Y-116825931D01*
X159720634Y-116844617D01*
X159649069Y-116733401D01*
X159523754Y-116647777D01*
X159375000Y-116617654D01*
X158625000Y-116617654D01*
X158486034Y-116643802D01*
X158477263Y-116649446D01*
X157325090Y-115497272D01*
X157325117Y-115466323D01*
X157222571Y-115218143D01*
X157032856Y-115028097D01*
X156784855Y-114925117D01*
X156516323Y-114924883D01*
X156268143Y-115027429D01*
X156078097Y-115217144D01*
X155975117Y-115465145D01*
X155974883Y-115733677D01*
X152182346Y-115733677D01*
X152182346Y-115600000D01*
X152156198Y-115461034D01*
X152074069Y-115333401D01*
X151948754Y-115247777D01*
X151800000Y-115217654D01*
X151755007Y-115217654D01*
X151683668Y-115045000D01*
X151849592Y-115045000D01*
X151900000Y-115024120D01*
X151950408Y-115045000D01*
X152231250Y-115045000D01*
X152325000Y-114951250D01*
X152325000Y-114370000D01*
X152375000Y-114370000D01*
X152375000Y-114951250D01*
X152468750Y-115045000D01*
X152749592Y-115045000D01*
X152800000Y-115024120D01*
X152850408Y-115045000D01*
X153131250Y-115045000D01*
X153225000Y-114951250D01*
X153225000Y-114370000D01*
X153275000Y-114370000D01*
X153275000Y-114951250D01*
X153368750Y-115045000D01*
X153649592Y-115045000D01*
X153700000Y-115024120D01*
X153750408Y-115045000D01*
X154031250Y-115045000D01*
X154125000Y-114951250D01*
X154125000Y-114370000D01*
X154175000Y-114370000D01*
X154175000Y-114951250D01*
X154268750Y-115045000D01*
X154549592Y-115045000D01*
X154600000Y-115024120D01*
X154650408Y-115045000D01*
X154931250Y-115045000D01*
X155025000Y-114951250D01*
X155025000Y-114370000D01*
X155075000Y-114370000D01*
X155075000Y-114951250D01*
X155168750Y-115045000D01*
X155449592Y-115045000D01*
X155587420Y-114987910D01*
X155692910Y-114882421D01*
X155750000Y-114744592D01*
X155750000Y-114463750D01*
X155656250Y-114370000D01*
X155075000Y-114370000D01*
X155025000Y-114370000D01*
X154175000Y-114370000D01*
X154125000Y-114370000D01*
X153275000Y-114370000D01*
X153225000Y-114370000D01*
X152375000Y-114370000D01*
X152325000Y-114370000D01*
X151475000Y-114370000D01*
X151475000Y-114390000D01*
X151425000Y-114390000D01*
X151425000Y-114370000D01*
X150575000Y-114370000D01*
X150575000Y-114390000D01*
X150525000Y-114390000D01*
X150525000Y-114370000D01*
X149445000Y-114370000D01*
X149395000Y-114370000D01*
X148588750Y-114370000D01*
X148495000Y-114463750D01*
X146476748Y-114463750D01*
X146846992Y-113945408D01*
X148495000Y-113945408D01*
X148495000Y-114226250D01*
X148588750Y-114320000D01*
X149395000Y-114320000D01*
X149395000Y-113738750D01*
X149301250Y-113645000D01*
X148795408Y-113645000D01*
X148657579Y-113702090D01*
X148552090Y-113807580D01*
X148495000Y-113945408D01*
X146846992Y-113945408D01*
X147245000Y-113388198D01*
X147245000Y-113494592D01*
X147302090Y-113632421D01*
X147407580Y-113737910D01*
X147545408Y-113795000D01*
X147826250Y-113795000D01*
X147920000Y-113701250D01*
X147920000Y-112895000D01*
X147970000Y-112895000D01*
X147970000Y-113701250D01*
X148063750Y-113795000D01*
X148344592Y-113795000D01*
X148482420Y-113737910D01*
X148587910Y-113632421D01*
X148645000Y-113494592D01*
X148645000Y-112988750D01*
X148551250Y-112895000D01*
X147970000Y-112895000D01*
X147920000Y-112895000D01*
X147900000Y-112895000D01*
X147900000Y-112845000D01*
X147920000Y-112845000D01*
X147920000Y-111765000D01*
X147900000Y-111765000D01*
X147900000Y-111715000D01*
X147920000Y-111715000D01*
X147920000Y-110865000D01*
X147900000Y-110865000D01*
X147900000Y-110815000D01*
X147920000Y-110815000D01*
X147920000Y-109965000D01*
X147900000Y-109965000D01*
X147900000Y-109915000D01*
X147920000Y-109915000D01*
X147920000Y-109065000D01*
X147900000Y-109065000D01*
X147900000Y-109015000D01*
X147920000Y-109015000D01*
X147920000Y-108165000D01*
X147900000Y-108165000D01*
X147900000Y-108115000D01*
X147920000Y-108115000D01*
X147920000Y-107265000D01*
X147900000Y-107265000D01*
X147900000Y-107215000D01*
X147920000Y-107215000D01*
X147920000Y-106365000D01*
X147900000Y-106365000D01*
X147900000Y-106315000D01*
X147920000Y-106315000D01*
X147920000Y-105235000D01*
X147970000Y-105235000D01*
X147970000Y-106315000D01*
X147990000Y-106315000D01*
X147990000Y-106365000D01*
X147970000Y-106365000D01*
X147970000Y-107215000D01*
X147990000Y-107215000D01*
X147990000Y-107265000D01*
X147970000Y-107265000D01*
X147970000Y-108115000D01*
X147990000Y-108115000D01*
X147990000Y-108165000D01*
X147970000Y-108165000D01*
X147970000Y-109015000D01*
X147990000Y-109015000D01*
X147990000Y-109065000D01*
X147970000Y-109065000D01*
X147970000Y-109915000D01*
X147990000Y-109915000D01*
X147990000Y-109965000D01*
X147970000Y-109965000D01*
X147970000Y-110815000D01*
X147990000Y-110815000D01*
X147990000Y-110865000D01*
X147970000Y-110865000D01*
X147970000Y-111715000D01*
X147990000Y-111715000D01*
X147990000Y-111765000D01*
X147970000Y-111765000D01*
X147970000Y-112845000D01*
X148551250Y-112845000D01*
X148573904Y-112822346D01*
X149360000Y-112822346D01*
X149498966Y-112796198D01*
X149499729Y-112795707D01*
X149475000Y-112855408D01*
X149475000Y-113231250D01*
X149568750Y-113325000D01*
X150075000Y-113325000D01*
X150075000Y-112648750D01*
X149981250Y-112555000D01*
X149775408Y-112555000D01*
X149713899Y-112580478D01*
X149742346Y-112440000D01*
X149742346Y-111940000D01*
X149716198Y-111801034D01*
X149677062Y-111740214D01*
X149712223Y-111688754D01*
X149742346Y-111540000D01*
X149742346Y-111040000D01*
X149716198Y-110901034D01*
X149680654Y-110845797D01*
X149735000Y-110714592D01*
X149735000Y-110508750D01*
X149641250Y-110415000D01*
X148965000Y-110415000D01*
X148965000Y-110435000D01*
X148915000Y-110435000D01*
X148915000Y-110415000D01*
X148895000Y-110415000D01*
X148895000Y-110365000D01*
X148915000Y-110365000D01*
X148915000Y-110345000D01*
X148965000Y-110345000D01*
X148965000Y-110365000D01*
X149641250Y-110365000D01*
X149735000Y-110271250D01*
X149735000Y-110065408D01*
X149680848Y-109934673D01*
X149712223Y-109888754D01*
X149742346Y-109740000D01*
X149742346Y-109240000D01*
X149716198Y-109101034D01*
X149677062Y-109040214D01*
X149712223Y-108988754D01*
X149742346Y-108840000D01*
X149742346Y-108340000D01*
X149716198Y-108201034D01*
X149680654Y-108145797D01*
X149713806Y-108065758D01*
X149723094Y-108069615D01*
X149991626Y-108069849D01*
X150239806Y-107967303D01*
X150429852Y-107777588D01*
X150532832Y-107529587D01*
X150533066Y-107261055D01*
X150430520Y-107012875D01*
X150240805Y-106822829D01*
X149992804Y-106719849D01*
X149890083Y-106719759D01*
X149742346Y-106572023D01*
X149742346Y-106540000D01*
X149716198Y-106401034D01*
X149680654Y-106345797D01*
X149735000Y-106214592D01*
X149735000Y-106008750D01*
X149641252Y-105915002D01*
X149700918Y-105915002D01*
X149711091Y-105930227D01*
X149864135Y-106083271D01*
X149864108Y-106114220D01*
X149966654Y-106362400D01*
X150156369Y-106552446D01*
X150404370Y-106655426D01*
X150672902Y-106655660D01*
X150852106Y-106581615D01*
X150946721Y-106676395D01*
X151194722Y-106779375D01*
X151463254Y-106779609D01*
X151711434Y-106677063D01*
X151716961Y-106671545D01*
X151817144Y-106771903D01*
X152065145Y-106874883D01*
X152333677Y-106875117D01*
X152525025Y-106796054D01*
X152524883Y-106958687D01*
X152627429Y-107206867D01*
X152817144Y-107396913D01*
X153065145Y-107499893D01*
X153333677Y-107500127D01*
X153581857Y-107397581D01*
X153771903Y-107207866D01*
X153874883Y-106959865D01*
X153875117Y-106691333D01*
X153772571Y-106443153D01*
X153700000Y-106370455D01*
X153700000Y-105800000D01*
X153661940Y-105608658D01*
X153654609Y-105597687D01*
X153596111Y-105510139D01*
X153675000Y-105431250D01*
X153675000Y-104755000D01*
X153655000Y-104755000D01*
X153655000Y-104705000D01*
X153675000Y-104705000D01*
X153675000Y-104685000D01*
X153725000Y-104685000D01*
X153725000Y-104705000D01*
X153745000Y-104705000D01*
X153745000Y-104755000D01*
X153725000Y-104755000D01*
X153725000Y-105431250D01*
X153818750Y-105525000D01*
X154024592Y-105525000D01*
X154155327Y-105470848D01*
X154162296Y-105475609D01*
X154125117Y-105565145D01*
X154124883Y-105833677D01*
X154227429Y-106081857D01*
X154417144Y-106271903D01*
X154665145Y-106374883D01*
X154933677Y-106375117D01*
X155181857Y-106272571D01*
X155371903Y-106082856D01*
X155474883Y-105834855D01*
X155475117Y-105566323D01*
X155435590Y-105470660D01*
X155475000Y-105431250D01*
X155475000Y-104755000D01*
X155455000Y-104755000D01*
X155455000Y-104705000D01*
X155475000Y-104705000D01*
X155475000Y-104685000D01*
X155525000Y-104685000D01*
X155525000Y-104705000D01*
X155545000Y-104705000D01*
X155545000Y-104755000D01*
X155525000Y-104755000D01*
X155525000Y-105431250D01*
X155618750Y-105525000D01*
X155824592Y-105525000D01*
X155955327Y-105470848D01*
X156001246Y-105502223D01*
X156150000Y-105532346D01*
X156650000Y-105532346D01*
X156784582Y-105507023D01*
X156757654Y-105640000D01*
X156757654Y-106140000D01*
X156783802Y-106278966D01*
X156819346Y-106334203D01*
X156765000Y-106465408D01*
X156765000Y-106671250D01*
X156858750Y-106765000D01*
X157535000Y-106765000D01*
X157535000Y-106745000D01*
X157585000Y-106745000D01*
X157585000Y-106765000D01*
X157605000Y-106765000D01*
X157605000Y-106815000D01*
X157585000Y-106815000D01*
X157585000Y-106835000D01*
X157535000Y-106835000D01*
X157535000Y-106815000D01*
X156858750Y-106815000D01*
X156765000Y-106908750D01*
X156765000Y-107025100D01*
X156516323Y-107024883D01*
X156268143Y-107127429D01*
X156078097Y-107317144D01*
X155975117Y-107565145D01*
X155974883Y-107833677D01*
X156062993Y-108046919D01*
X155868143Y-108127429D01*
X155678097Y-108317144D01*
X155575117Y-108565145D01*
X155574883Y-108833677D01*
X155677429Y-109081857D01*
X155867144Y-109271903D01*
X156081840Y-109361053D01*
X155717922Y-109724972D01*
X155616323Y-109724883D01*
X155368143Y-109827429D01*
X155178097Y-110017144D01*
X155075117Y-110265145D01*
X155074883Y-110533677D01*
X155177429Y-110781857D01*
X155367144Y-110971903D01*
X155615145Y-111074883D01*
X155883677Y-111075117D01*
X156131857Y-110972571D01*
X156199952Y-110904594D01*
X156267144Y-110971903D01*
X156515145Y-111074883D01*
X156765000Y-111075101D01*
X156765000Y-111171250D01*
X156858748Y-111264998D01*
X156798402Y-111264998D01*
X156719724Y-111186182D01*
X156471723Y-111083202D01*
X156203191Y-111082968D01*
X155955011Y-111185514D01*
X155882313Y-111258085D01*
X155241915Y-111258085D01*
X155050573Y-111296145D01*
X154888361Y-111404532D01*
X154292894Y-112000000D01*
X151494998Y-112000000D01*
X151317818Y-112035243D01*
X151303656Y-112038060D01*
X151141444Y-112146447D01*
X150846447Y-112441445D01*
X150836376Y-112456517D01*
X150744136Y-112548757D01*
X150611034Y-112573802D01*
X150555797Y-112609346D01*
X150424592Y-112555000D01*
X150218750Y-112555000D01*
X150125000Y-112648750D01*
X150125000Y-113325000D01*
X150145000Y-113325000D01*
X150145000Y-113375000D01*
X150125000Y-113375000D01*
X150125000Y-113395000D01*
X150075000Y-113395000D01*
X150075000Y-113375000D01*
X149568750Y-113375000D01*
X149475000Y-113468750D01*
X149475000Y-113708750D01*
X149445000Y-113738750D01*
X149445000Y-114320000D01*
X150525000Y-114320000D01*
X150525000Y-114300000D01*
X150575000Y-114300000D01*
X150575000Y-114320000D01*
X151425000Y-114320000D01*
X151425000Y-114300000D01*
X151475000Y-114300000D01*
X151475000Y-114320000D01*
X152325000Y-114320000D01*
X152325000Y-114300000D01*
X152375000Y-114300000D01*
X152375000Y-114320000D01*
X153225000Y-114320000D01*
X153225000Y-114300000D01*
X153275000Y-114300000D01*
X153275000Y-114320000D01*
X154125000Y-114320000D01*
X154125000Y-114300000D01*
X154175000Y-114300000D01*
X154175000Y-114320000D01*
X155025000Y-114320000D01*
X155025000Y-114300000D01*
X155075000Y-114300000D01*
X155075000Y-114320000D01*
X155656250Y-114320000D01*
X155750000Y-114226250D01*
X155750000Y-114152346D01*
X155888966Y-114126198D01*
X155944203Y-114090654D01*
X156075408Y-114145000D01*
X156281250Y-114145000D01*
X156375000Y-114051250D01*
X156375000Y-113375000D01*
X156425000Y-113375000D01*
X156425000Y-114051250D01*
X156518750Y-114145000D01*
X156724592Y-114145000D01*
X156862421Y-114087910D01*
X156967910Y-113982420D01*
X157025000Y-113844592D01*
X157025000Y-113468750D01*
X156931250Y-113375000D01*
X156425000Y-113375000D01*
X156375000Y-113375000D01*
X156355000Y-113375000D01*
X156355000Y-113325000D01*
X156375000Y-113325000D01*
X156375000Y-112648750D01*
X156281250Y-112555000D01*
X156075408Y-112555000D01*
X156047411Y-112566596D01*
X155949033Y-112328503D01*
X155878738Y-112258085D01*
X155882234Y-112258085D01*
X155954012Y-112329988D01*
X156202013Y-112432968D01*
X156470545Y-112433202D01*
X156718725Y-112330656D01*
X156834581Y-112215002D01*
X156858748Y-112215002D01*
X156765000Y-112308750D01*
X156765000Y-112514592D01*
X156793572Y-112583572D01*
X156724592Y-112555000D01*
X156518750Y-112555000D01*
X156425000Y-112648750D01*
X156425000Y-113325000D01*
X156931250Y-113325000D01*
X157025000Y-113231250D01*
X157025000Y-112855408D01*
X156996427Y-112786427D01*
X157065408Y-112815000D01*
X157441250Y-112815000D01*
X157535000Y-112721250D01*
X157535000Y-112215000D01*
X157585000Y-112215000D01*
X157585000Y-112721250D01*
X157678750Y-112815000D01*
X158054592Y-112815000D01*
X158192420Y-112757910D01*
X158297910Y-112652421D01*
X158355000Y-112514592D01*
X158355000Y-112308750D01*
X158261250Y-112215000D01*
X157585000Y-112215000D01*
X157535000Y-112215000D01*
X157515000Y-112215000D01*
X157515000Y-112165000D01*
X157535000Y-112165000D01*
X157535000Y-111315000D01*
X157515000Y-111315000D01*
X157515000Y-111265000D01*
X157535000Y-111265000D01*
X157535000Y-111245000D01*
X157585000Y-111245000D01*
X157585000Y-111265000D01*
X157605000Y-111265000D01*
X157605000Y-111315000D01*
X157585000Y-111315000D01*
X157585000Y-112165000D01*
X158261250Y-112165000D01*
X158355000Y-112071250D01*
X158355000Y-111865408D01*
X158303055Y-111740000D01*
X158355000Y-111614592D01*
X158355000Y-111540000D01*
X158436250Y-111540000D01*
X158530000Y-111446250D01*
X158530000Y-110865000D01*
X158580000Y-110865000D01*
X158580000Y-111446250D01*
X158673750Y-111540000D01*
X158954592Y-111540000D01*
X159092420Y-111482910D01*
X159197910Y-111377421D01*
X159255000Y-111239592D01*
X159255000Y-110958750D01*
X159161250Y-110865000D01*
X158580000Y-110865000D01*
X158530000Y-110865000D01*
X158510000Y-110865000D01*
X158510000Y-110815000D01*
X158530000Y-110815000D01*
X158530000Y-109965000D01*
X158580000Y-109965000D01*
X158580000Y-110815000D01*
X159161250Y-110815000D01*
X159255000Y-110721250D01*
X159255000Y-110440408D01*
X159234121Y-110390000D01*
X159255000Y-110339592D01*
X159255000Y-110058750D01*
X159161250Y-109965000D01*
X158580000Y-109965000D01*
X158530000Y-109965000D01*
X158510000Y-109965000D01*
X158510000Y-109915000D01*
X158530000Y-109915000D01*
X158530000Y-109065000D01*
X158580000Y-109065000D01*
X158580000Y-109915000D01*
X159161250Y-109915000D01*
X159255000Y-109821250D01*
X159255000Y-109540408D01*
X159234121Y-109490000D01*
X159255000Y-109439592D01*
X159255000Y-109158750D01*
X159161250Y-109065000D01*
X158580000Y-109065000D01*
X158530000Y-109065000D01*
X158510000Y-109065000D01*
X158510000Y-109015000D01*
X158530000Y-109015000D01*
X158530000Y-108165000D01*
X158580000Y-108165000D01*
X158580000Y-109015000D01*
X159161250Y-109015000D01*
X159255000Y-108921250D01*
X159255000Y-108640408D01*
X159234121Y-108590000D01*
X159255000Y-108539592D01*
X159255000Y-108258750D01*
X159161250Y-108165000D01*
X158580000Y-108165000D01*
X158530000Y-108165000D01*
X158510000Y-108165000D01*
X158510000Y-108115000D01*
X158530000Y-108115000D01*
X158530000Y-107265000D01*
X158580000Y-107265000D01*
X158580000Y-108115000D01*
X159161250Y-108115000D01*
X159255000Y-108021250D01*
X159255000Y-107740408D01*
X159234121Y-107690000D01*
X159255000Y-107639592D01*
X159255000Y-107358750D01*
X159161250Y-107265000D01*
X158580000Y-107265000D01*
X158530000Y-107265000D01*
X158510000Y-107265000D01*
X158510000Y-107215000D01*
X158530000Y-107215000D01*
X158530000Y-106365000D01*
X158580000Y-106365000D01*
X158580000Y-107215000D01*
X159161250Y-107215000D01*
X159255000Y-107121250D01*
X159255000Y-106840408D01*
X159234121Y-106790000D01*
X159255000Y-106739592D01*
X159255000Y-106458750D01*
X159161250Y-106365000D01*
X158580000Y-106365000D01*
X158530000Y-106365000D01*
X158510000Y-106365000D01*
X158510000Y-106315000D01*
X158530000Y-106315000D01*
X158530000Y-105235000D01*
X158580000Y-105235000D01*
X158580000Y-106315000D01*
X159161250Y-106315000D01*
X159255000Y-106221250D01*
X159255000Y-105940408D01*
X159233085Y-105887500D01*
X159255000Y-105834592D01*
X159255000Y-105328750D01*
X159161250Y-105235000D01*
X158580000Y-105235000D01*
X158530000Y-105235000D01*
X158510000Y-105235000D01*
X158510000Y-105185000D01*
X158530000Y-105185000D01*
X158530000Y-104378750D01*
X158580000Y-104378750D01*
X158580000Y-105185000D01*
X159161250Y-105185000D01*
X159255000Y-105091250D01*
X159255000Y-104585408D01*
X159197910Y-104447579D01*
X159092420Y-104342090D01*
X158954592Y-104285000D01*
X158673750Y-104285000D01*
X158580000Y-104378750D01*
X158530000Y-104378750D01*
X158436250Y-104285000D01*
X158155408Y-104285000D01*
X158017580Y-104342090D01*
X157912090Y-104447579D01*
X157855000Y-104585408D01*
X157855000Y-104600541D01*
X157689747Y-104435000D01*
X157704592Y-104435000D01*
X157842421Y-104377910D01*
X157947910Y-104272420D01*
X158005000Y-104134592D01*
X158005000Y-103853750D01*
X157911250Y-103760000D01*
X157105000Y-103760000D01*
X157105000Y-103780000D01*
X157055000Y-103780000D01*
X157055000Y-103760000D01*
X155975000Y-103760000D01*
X155975000Y-103780000D01*
X155925000Y-103780000D01*
X155925000Y-103760000D01*
X155075000Y-103760000D01*
X155075000Y-103780000D01*
X155025000Y-103780000D01*
X155025000Y-103760000D01*
X154175000Y-103760000D01*
X154175000Y-103780000D01*
X154125000Y-103780000D01*
X154125000Y-103760000D01*
X153275000Y-103760000D01*
X153275000Y-103780000D01*
X153225000Y-103780000D01*
X153225000Y-103760000D01*
X152375000Y-103760000D01*
X152375000Y-103780000D01*
X152325000Y-103780000D01*
X152325000Y-103760000D01*
X151475000Y-103760000D01*
X151475000Y-103780000D01*
X151425000Y-103780000D01*
X151425000Y-103760000D01*
X150575000Y-103760000D01*
X150575000Y-103780000D01*
X150525000Y-103780000D01*
X150525000Y-103760000D01*
X149445000Y-103760000D01*
X149445000Y-104341250D01*
X149467654Y-104363904D01*
X149467654Y-105150000D01*
X149493802Y-105288966D01*
X149494293Y-105289729D01*
X149434592Y-105265000D01*
X149058750Y-105265000D01*
X148965000Y-105358750D01*
X148965000Y-105865000D01*
X148985000Y-105865000D01*
X148985000Y-105915000D01*
X148965000Y-105915000D01*
X148965000Y-105935000D01*
X148915000Y-105935000D01*
X148915000Y-105915000D01*
X148895000Y-105915000D01*
X148895000Y-105865000D01*
X148915000Y-105865000D01*
X148915000Y-105358750D01*
X148821250Y-105265000D01*
X148581250Y-105265000D01*
X148551250Y-105235000D01*
X147970000Y-105235000D01*
X147920000Y-105235000D01*
X147900000Y-105235000D01*
X147900000Y-105185000D01*
X147920000Y-105185000D01*
X147920000Y-104378750D01*
X147970000Y-104378750D01*
X147970000Y-105185000D01*
X148551250Y-105185000D01*
X148645000Y-105091250D01*
X148645000Y-104585408D01*
X148587910Y-104447579D01*
X148482420Y-104342090D01*
X148344592Y-104285000D01*
X148063750Y-104285000D01*
X147970000Y-104378750D01*
X147920000Y-104378750D01*
X147826250Y-104285000D01*
X147545408Y-104285000D01*
X147425000Y-104334874D01*
X147425000Y-103853750D01*
X148495000Y-103853750D01*
X148495000Y-104134592D01*
X148552090Y-104272420D01*
X148657579Y-104377910D01*
X148795408Y-104435000D01*
X149301250Y-104435000D01*
X149395000Y-104341250D01*
X149395000Y-103760000D01*
X148588750Y-103760000D01*
X148495000Y-103853750D01*
X147425000Y-103853750D01*
X147425000Y-103335408D01*
X148495000Y-103335408D01*
X148495000Y-103616250D01*
X148588750Y-103710000D01*
X149395000Y-103710000D01*
X149395000Y-103128750D01*
X149445000Y-103128750D01*
X149445000Y-103710000D01*
X150525000Y-103710000D01*
X150525000Y-103128750D01*
X150575000Y-103128750D01*
X150575000Y-103710000D01*
X151425000Y-103710000D01*
X151425000Y-103128750D01*
X151475000Y-103128750D01*
X151475000Y-103710000D01*
X152325000Y-103710000D01*
X152325000Y-103128750D01*
X152375000Y-103128750D01*
X152375000Y-103710000D01*
X153225000Y-103710000D01*
X153225000Y-103128750D01*
X153275000Y-103128750D01*
X153275000Y-103710000D01*
X154125000Y-103710000D01*
X154125000Y-103128750D01*
X154031250Y-103035000D01*
X153750408Y-103035000D01*
X153700000Y-103055880D01*
X153649592Y-103035000D01*
X153368750Y-103035000D01*
X153275000Y-103128750D01*
X153225000Y-103128750D01*
X153131250Y-103035000D01*
X152850408Y-103035000D01*
X152800000Y-103055880D01*
X152749592Y-103035000D01*
X152468750Y-103035000D01*
X152375000Y-103128750D01*
X152325000Y-103128750D01*
X152231250Y-103035000D01*
X151950408Y-103035000D01*
X151900000Y-103055880D01*
X151849592Y-103035000D01*
X151568750Y-103035000D01*
X151475000Y-103128750D01*
X151425000Y-103128750D01*
X151331250Y-103035000D01*
X151050408Y-103035000D01*
X151000000Y-103055880D01*
X150949592Y-103035000D01*
X150668750Y-103035000D01*
X150575000Y-103128750D01*
X150525000Y-103128750D01*
X150431250Y-103035000D01*
X150150408Y-103035000D01*
X150097500Y-103056915D01*
X150044592Y-103035000D01*
X149538750Y-103035000D01*
X149445000Y-103128750D01*
X149395000Y-103128750D01*
X149301250Y-103035000D01*
X148795408Y-103035000D01*
X148657579Y-103092090D01*
X148552090Y-103197580D01*
X148495000Y-103335408D01*
X147425000Y-103335408D01*
X147425000Y-98110129D01*
X150361835Y-92823826D01*
X150930140Y-93674353D01*
X151903899Y-94324999D01*
X150749999Y-94324999D01*
X150539523Y-94366865D01*
X150361090Y-94486090D01*
X150111091Y-94736089D01*
X149991866Y-94914522D01*
X149950000Y-95124998D01*
X149950000Y-98700000D01*
X149991866Y-98910476D01*
X150111091Y-99088909D01*
X150667654Y-99645472D01*
X150667654Y-100450000D01*
X150693802Y-100588966D01*
X150775931Y-100716599D01*
X150781181Y-100720186D01*
X150733401Y-100750931D01*
X150647777Y-100876246D01*
X150617654Y-101025000D01*
X150617654Y-101775000D01*
X150643802Y-101913966D01*
X150725931Y-102041599D01*
X150851246Y-102127223D01*
X151000000Y-102157346D01*
X151800000Y-102157346D01*
X151938966Y-102131198D01*
X152066599Y-102049069D01*
X152152223Y-101923754D01*
X152182346Y-101775000D01*
X152182346Y-101025000D01*
X152156198Y-100886034D01*
X152074069Y-100758401D01*
X152018898Y-100720704D01*
X152102223Y-100598754D01*
X152132346Y-100450000D01*
X152132346Y-98950000D01*
X153667654Y-98950000D01*
X153667654Y-100450000D01*
X153693802Y-100588966D01*
X153775931Y-100716599D01*
X153901246Y-100802223D01*
X154050000Y-100832346D01*
X154450000Y-100832346D01*
X154450000Y-102345279D01*
X154428097Y-102367144D01*
X154325117Y-102615145D01*
X154324883Y-102883677D01*
X154387408Y-103035000D01*
X154268750Y-103035000D01*
X154175000Y-103128750D01*
X154175000Y-103710000D01*
X155025000Y-103710000D01*
X155025000Y-103690000D01*
X155075000Y-103690000D01*
X155075000Y-103710000D01*
X155925000Y-103710000D01*
X155925000Y-103128750D01*
X155975000Y-103128750D01*
X155975000Y-103710000D01*
X157055000Y-103710000D01*
X157055000Y-103128750D01*
X157105000Y-103128750D01*
X157105000Y-103710000D01*
X157911250Y-103710000D01*
X158005000Y-103616250D01*
X158005000Y-103335408D01*
X157947910Y-103197580D01*
X157842421Y-103092090D01*
X157704592Y-103035000D01*
X157198750Y-103035000D01*
X157105000Y-103128750D01*
X157055000Y-103128750D01*
X156961250Y-103035000D01*
X156455408Y-103035000D01*
X156402500Y-103056915D01*
X156349592Y-103035000D01*
X156068750Y-103035000D01*
X155975000Y-103128750D01*
X155925000Y-103128750D01*
X155831250Y-103035000D01*
X155612537Y-103035000D01*
X155674883Y-102884855D01*
X155675117Y-102616323D01*
X155572571Y-102368143D01*
X155550000Y-102345533D01*
X155550000Y-100300000D01*
X155508134Y-100089524D01*
X155388909Y-99911091D01*
X155227818Y-99750000D01*
X155475902Y-99750000D01*
X155550931Y-99866599D01*
X155676246Y-99952223D01*
X155825000Y-99982346D01*
X156575000Y-99982346D01*
X156713966Y-99956198D01*
X156841599Y-99874069D01*
X156927223Y-99748754D01*
X156957346Y-99600000D01*
X156957346Y-98800000D01*
X156931198Y-98661034D01*
X156849069Y-98533401D01*
X156723754Y-98447777D01*
X156575000Y-98417654D01*
X155825000Y-98417654D01*
X155686034Y-98443802D01*
X155558401Y-98525931D01*
X155473628Y-98650000D01*
X154975185Y-98650000D01*
X154898754Y-98597777D01*
X154750000Y-98567654D01*
X154050000Y-98567654D01*
X153911034Y-98593802D01*
X153783401Y-98675931D01*
X153697777Y-98801246D01*
X153667654Y-98950000D01*
X152132346Y-98950000D01*
X152106198Y-98811034D01*
X152024069Y-98683401D01*
X151898754Y-98597777D01*
X151750000Y-98567654D01*
X151145472Y-98567654D01*
X151050000Y-98472182D01*
X151050000Y-97132346D01*
X151750000Y-97132346D01*
X151888966Y-97106198D01*
X152016599Y-97024069D01*
X152102223Y-96898754D01*
X152132346Y-96750000D01*
X152132346Y-95424999D01*
X153447181Y-95424999D01*
X153667654Y-95645472D01*
X153667654Y-96750000D01*
X153693802Y-96888966D01*
X153775931Y-97016599D01*
X153901246Y-97102223D01*
X154050000Y-97132346D01*
X154750000Y-97132346D01*
X154888966Y-97106198D01*
X155016599Y-97024069D01*
X155102223Y-96898754D01*
X155132346Y-96750000D01*
X155132346Y-96550000D01*
X155772182Y-96550000D01*
X157998781Y-98776599D01*
X157947777Y-98851246D01*
X157917654Y-99000000D01*
X157917654Y-100500000D01*
X157943802Y-100638966D01*
X158025931Y-100766599D01*
X158055431Y-100786755D01*
X158033401Y-100800931D01*
X157947777Y-100926246D01*
X157917654Y-101075000D01*
X157917654Y-101825000D01*
X157943802Y-101963966D01*
X158025931Y-102091599D01*
X158151246Y-102177223D01*
X158300000Y-102207346D01*
X158704528Y-102207346D01*
X160400000Y-103902818D01*
X160400000Y-111925087D01*
X160166323Y-111924883D01*
X159918143Y-112027429D01*
X159728097Y-112217144D01*
X159625117Y-112465145D01*
X159624883Y-112733677D01*
X159727429Y-112981857D01*
X159917144Y-113171903D01*
X160165145Y-113274883D01*
X160200000Y-113274913D01*
X160200000Y-113717654D01*
X160000000Y-113717654D01*
X159861034Y-113743802D01*
X159733401Y-113825931D01*
X159647777Y-113951246D01*
X159617654Y-114100000D01*
X159617654Y-114800000D01*
X159643802Y-114938966D01*
X159725931Y-115066599D01*
X159851246Y-115152223D01*
X160000000Y-115182346D01*
X161500000Y-115182346D01*
X161638966Y-115156198D01*
X161766599Y-115074069D01*
X161852223Y-114948754D01*
X161882346Y-114800000D01*
X161882346Y-114495472D01*
X162102819Y-114274999D01*
X163317654Y-114274999D01*
X163317654Y-114800000D01*
X163343802Y-114938966D01*
X163425931Y-115066599D01*
X163551246Y-115152223D01*
X163700000Y-115182346D01*
X165200000Y-115182346D01*
X165338966Y-115156198D01*
X165466599Y-115074069D01*
X165552223Y-114948754D01*
X165582346Y-114800000D01*
X165582346Y-114585161D01*
X165725001Y-114727816D01*
X165725001Y-116497181D01*
X165423401Y-116798781D01*
X165348754Y-116747777D01*
X165200000Y-116717654D01*
X163700000Y-116717654D01*
X163561034Y-116743802D01*
X163433401Y-116825931D01*
X163347777Y-116951246D01*
X163317654Y-117100000D01*
X163317654Y-117800000D01*
X163343802Y-117938966D01*
X163425931Y-118066599D01*
X163551246Y-118152223D01*
X163700000Y-118182346D01*
X165200000Y-118182346D01*
X165338966Y-118156198D01*
X165466599Y-118074069D01*
X165517208Y-118000000D01*
X165550000Y-118000000D01*
X165760476Y-117958134D01*
X165938909Y-117838909D01*
X166663910Y-117113908D01*
X166783135Y-116935475D01*
X166825001Y-116724999D01*
X166825001Y-114500004D01*
X166825002Y-114499999D01*
X166783135Y-114289523D01*
X166691079Y-114151752D01*
X166663910Y-114111090D01*
X166663907Y-114111088D01*
X165888910Y-113336090D01*
X165710477Y-113216865D01*
X165500001Y-113174999D01*
X163225000Y-113174999D01*
X163225000Y-113020000D01*
X167001001Y-113020000D01*
X167094249Y-113488787D01*
X167359795Y-113886206D01*
X167757214Y-114151752D01*
X168226001Y-114245000D01*
X168273999Y-114245000D01*
X168742786Y-114151752D01*
X169140205Y-113886206D01*
X169405751Y-113488787D01*
X169498999Y-113020000D01*
X169405751Y-112551213D01*
X169140205Y-112153794D01*
X168742786Y-111888248D01*
X168273999Y-111795000D01*
X168226001Y-111795000D01*
X167757214Y-111888248D01*
X167359795Y-112153794D01*
X167094249Y-112551213D01*
X167001001Y-113020000D01*
X163225000Y-113020000D01*
X163225000Y-112868750D01*
X163131250Y-112775000D01*
X162475000Y-112775000D01*
X162475000Y-112795000D01*
X162425000Y-112795000D01*
X162425000Y-112775000D01*
X162405000Y-112775000D01*
X162405000Y-112725000D01*
X162425000Y-112725000D01*
X162425000Y-112093750D01*
X162475000Y-112093750D01*
X162475000Y-112725000D01*
X163131250Y-112725000D01*
X163225000Y-112631250D01*
X163225000Y-112300408D01*
X163167910Y-112162579D01*
X163062420Y-112057090D01*
X162924592Y-112000000D01*
X162568750Y-112000000D01*
X162475000Y-112093750D01*
X162425000Y-112093750D01*
X162331250Y-112000000D01*
X161975408Y-112000000D01*
X161837580Y-112057090D01*
X161732090Y-112162579D01*
X161703440Y-112231748D01*
X161624069Y-112108401D01*
X161500000Y-112023628D01*
X161500000Y-110480000D01*
X167001001Y-110480000D01*
X167094249Y-110948787D01*
X167359795Y-111346206D01*
X167757214Y-111611752D01*
X168226001Y-111705000D01*
X168273999Y-111705000D01*
X168742786Y-111611752D01*
X169140205Y-111346206D01*
X169405751Y-110948787D01*
X169498999Y-110480000D01*
X169405751Y-110011213D01*
X169140205Y-109613794D01*
X168742786Y-109348248D01*
X168273999Y-109255000D01*
X168226001Y-109255000D01*
X167757214Y-109348248D01*
X167359795Y-109613794D01*
X167094249Y-110011213D01*
X167001001Y-110480000D01*
X161500000Y-110480000D01*
X161500000Y-107940000D01*
X167001001Y-107940000D01*
X167094249Y-108408787D01*
X167359795Y-108806206D01*
X167757214Y-109071752D01*
X168226001Y-109165000D01*
X168273999Y-109165000D01*
X168742786Y-109071752D01*
X169140205Y-108806206D01*
X169405751Y-108408787D01*
X169498999Y-107940000D01*
X169405751Y-107471213D01*
X169140205Y-107073794D01*
X168742786Y-106808248D01*
X168273999Y-106715000D01*
X168226001Y-106715000D01*
X167757214Y-106808248D01*
X167359795Y-107073794D01*
X167094249Y-107471213D01*
X167001001Y-107940000D01*
X161500000Y-107940000D01*
X161500000Y-104550000D01*
X167017654Y-104550000D01*
X167017654Y-106250000D01*
X167043802Y-106388966D01*
X167125931Y-106516599D01*
X167251246Y-106602223D01*
X167400000Y-106632346D01*
X169100000Y-106632346D01*
X169238966Y-106606198D01*
X169366599Y-106524069D01*
X169452223Y-106398754D01*
X169482346Y-106250000D01*
X169482346Y-104550000D01*
X169456198Y-104411034D01*
X169374069Y-104283401D01*
X169248754Y-104197777D01*
X169100000Y-104167654D01*
X167400000Y-104167654D01*
X167261034Y-104193802D01*
X167133401Y-104275931D01*
X167047777Y-104401246D01*
X167017654Y-104550000D01*
X161500000Y-104550000D01*
X161500000Y-103675000D01*
X161458134Y-103464524D01*
X161338909Y-103286091D01*
X159482346Y-101429528D01*
X159482346Y-101340000D01*
X166917654Y-101340000D01*
X166917654Y-103040000D01*
X166943802Y-103178966D01*
X167025931Y-103306599D01*
X167151246Y-103392223D01*
X167300000Y-103422346D01*
X169000000Y-103422346D01*
X169138966Y-103396198D01*
X169266599Y-103314069D01*
X169352223Y-103188754D01*
X169382346Y-103040000D01*
X169382346Y-101340000D01*
X169356198Y-101201034D01*
X169274069Y-101073401D01*
X169148754Y-100987777D01*
X169000000Y-100957654D01*
X167300000Y-100957654D01*
X167161034Y-100983802D01*
X167033401Y-101065931D01*
X166947777Y-101191246D01*
X166917654Y-101340000D01*
X159482346Y-101340000D01*
X159482346Y-101075000D01*
X159456198Y-100936034D01*
X159374069Y-100808401D01*
X159284812Y-100747414D01*
X159352223Y-100648754D01*
X159382346Y-100500000D01*
X159382346Y-99000000D01*
X160917654Y-99000000D01*
X160917654Y-100500000D01*
X160943802Y-100638966D01*
X161025931Y-100766599D01*
X161151246Y-100852223D01*
X161300000Y-100882346D01*
X162000000Y-100882346D01*
X162138966Y-100856198D01*
X162266599Y-100774069D01*
X162352223Y-100648754D01*
X162382346Y-100500000D01*
X162382346Y-100411264D01*
X162415145Y-100424883D01*
X162683677Y-100425117D01*
X162901317Y-100335190D01*
X162926246Y-100352223D01*
X163075000Y-100382346D01*
X163825000Y-100382346D01*
X163963966Y-100356198D01*
X164091599Y-100274069D01*
X164177223Y-100148754D01*
X164207346Y-100000000D01*
X164207346Y-99650000D01*
X166901001Y-99650000D01*
X166994249Y-100118787D01*
X167259795Y-100516206D01*
X167657214Y-100781752D01*
X168126001Y-100875000D01*
X168173999Y-100875000D01*
X168642786Y-100781752D01*
X169040205Y-100516206D01*
X169305751Y-100118787D01*
X169398999Y-99650000D01*
X169305751Y-99181213D01*
X169040205Y-98783794D01*
X168642786Y-98518248D01*
X168173999Y-98425000D01*
X168126001Y-98425000D01*
X167657214Y-98518248D01*
X167259795Y-98783794D01*
X166994249Y-99181213D01*
X166901001Y-99650000D01*
X164207346Y-99650000D01*
X164207346Y-99200000D01*
X164181198Y-99061034D01*
X164099069Y-98933401D01*
X163973754Y-98847777D01*
X163825000Y-98817654D01*
X163075000Y-98817654D01*
X162936034Y-98843802D01*
X162808401Y-98925931D01*
X162722777Y-99051246D01*
X162715377Y-99087791D01*
X162684855Y-99075117D01*
X162416323Y-99074883D01*
X162382346Y-99088922D01*
X162382346Y-99000000D01*
X162356198Y-98861034D01*
X162274069Y-98733401D01*
X162148754Y-98647777D01*
X162000000Y-98617654D01*
X161300000Y-98617654D01*
X161161034Y-98643802D01*
X161033401Y-98725931D01*
X160947777Y-98851246D01*
X160917654Y-99000000D01*
X159382346Y-99000000D01*
X159356198Y-98861034D01*
X159274069Y-98733401D01*
X159200000Y-98682792D01*
X159200000Y-98650000D01*
X159158134Y-98439524D01*
X159038909Y-98261091D01*
X156790317Y-96012499D01*
X157302817Y-95499999D01*
X157879787Y-95499999D01*
X157917654Y-95492467D01*
X157917654Y-96800000D01*
X157943802Y-96938966D01*
X158025931Y-97066599D01*
X158151246Y-97152223D01*
X158300000Y-97182346D01*
X159000000Y-97182346D01*
X159138966Y-97156198D01*
X159266599Y-97074069D01*
X159352223Y-96948754D01*
X159382346Y-96800000D01*
X159382346Y-95300000D01*
X159356198Y-95161034D01*
X159274069Y-95033401D01*
X159148754Y-94947777D01*
X159000000Y-94917654D01*
X158721016Y-94917654D01*
X160175000Y-93463670D01*
X160175000Y-94800000D01*
X160222575Y-95039177D01*
X160358058Y-95241942D01*
X160917654Y-95801537D01*
X160917654Y-96800000D01*
X160943802Y-96938966D01*
X161025931Y-97066599D01*
X161151246Y-97152223D01*
X161300000Y-97182346D01*
X162000000Y-97182346D01*
X162138966Y-97156198D01*
X162266599Y-97074069D01*
X162352223Y-96948754D01*
X162382346Y-96800000D01*
X162382346Y-95300000D01*
X162356198Y-95161034D01*
X162274069Y-95033401D01*
X162148754Y-94947777D01*
X162000000Y-94917654D01*
X161801537Y-94917654D01*
X161425000Y-94541116D01*
X161425000Y-92213670D01*
X161541942Y-92096728D01*
X161677425Y-91893964D01*
X161725000Y-91654786D01*
X161725000Y-91482346D01*
X162350000Y-91482346D01*
X162488966Y-91456198D01*
X162616599Y-91374069D01*
X162702223Y-91248754D01*
X162732346Y-91100000D01*
X162732346Y-90068750D01*
X163775000Y-90068750D01*
X163775000Y-91174592D01*
X163832090Y-91312421D01*
X163937580Y-91417910D01*
X164075408Y-91475000D01*
X165281250Y-91475000D01*
X165375000Y-91381250D01*
X165375000Y-89975000D01*
X163868750Y-89975000D01*
X163775000Y-90068750D01*
X162732346Y-90068750D01*
X162732346Y-88800000D01*
X162718311Y-88725408D01*
X163775000Y-88725408D01*
X163775000Y-89831250D01*
X163868750Y-89925000D01*
X165375000Y-89925000D01*
X165375000Y-88518750D01*
X165425000Y-88518750D01*
X165425000Y-89925000D01*
X166931250Y-89925000D01*
X167025000Y-89831250D01*
X167025000Y-89623715D01*
X167344245Y-89623715D01*
X167419026Y-89815000D01*
X168525000Y-89815000D01*
X168525000Y-88709003D01*
X168333715Y-88634243D01*
X167888755Y-88808794D01*
X167544464Y-89140337D01*
X167353256Y-89578398D01*
X167344245Y-89623715D01*
X167025000Y-89623715D01*
X167025000Y-88725408D01*
X166967910Y-88587579D01*
X166862420Y-88482090D01*
X166724592Y-88425000D01*
X165518750Y-88425000D01*
X165425000Y-88518750D01*
X165375000Y-88518750D01*
X165281250Y-88425000D01*
X164075408Y-88425000D01*
X163937580Y-88482090D01*
X163832090Y-88587579D01*
X163775000Y-88725408D01*
X162718311Y-88725408D01*
X162706198Y-88661034D01*
X162624069Y-88533401D01*
X162498754Y-88447777D01*
X162350000Y-88417654D01*
X160601538Y-88417654D01*
X159241942Y-87058058D01*
X159039177Y-86922575D01*
X158800000Y-86875000D01*
X158584750Y-86875000D01*
X158574069Y-86858401D01*
X158493447Y-86803314D01*
X158616599Y-86724069D01*
X158702223Y-86598754D01*
X158732346Y-86450000D01*
X158732346Y-85651538D01*
X159200499Y-85183385D01*
X159301246Y-85252223D01*
X159450000Y-85282346D01*
X160950000Y-85282346D01*
X161088966Y-85256198D01*
X161216599Y-85174069D01*
X161302223Y-85048754D01*
X161332346Y-84900000D01*
X161332346Y-82700000D01*
X161306198Y-82561034D01*
X161224069Y-82433401D01*
X161098754Y-82347777D01*
X160950000Y-82317654D01*
X159450000Y-82317654D01*
X159311034Y-82343802D01*
X159183401Y-82425931D01*
X159097777Y-82551246D01*
X159067654Y-82700000D01*
X159067654Y-83548462D01*
X157548462Y-85067654D01*
X156750000Y-85067654D01*
X156611034Y-85093802D01*
X156483401Y-85175931D01*
X156397777Y-85301246D01*
X156367654Y-85450000D01*
X156367654Y-86450000D01*
X156393802Y-86588966D01*
X156475931Y-86716599D01*
X156524815Y-86750000D01*
X156518750Y-86750000D01*
X156425000Y-86843750D01*
X156425000Y-87475000D01*
X156445000Y-87475000D01*
X156445000Y-87525000D01*
X156425000Y-87525000D01*
X156425000Y-88156250D01*
X156518750Y-88250000D01*
X156874592Y-88250000D01*
X157012420Y-88192910D01*
X157117910Y-88087421D01*
X157146560Y-88018252D01*
X157225931Y-88141599D01*
X157351246Y-88227223D01*
X157500000Y-88257346D01*
X158300000Y-88257346D01*
X158438966Y-88231198D01*
X158565739Y-88149623D01*
X159467654Y-89051538D01*
X159467654Y-89920987D01*
X159069860Y-89325647D01*
X158072259Y-88659070D01*
X156895507Y-88425000D01*
X153104493Y-88425000D01*
X152768497Y-88491834D01*
X153253543Y-87618750D01*
X155625000Y-87618750D01*
X155625000Y-87949592D01*
X155682090Y-88087421D01*
X155787580Y-88192910D01*
X155925408Y-88250000D01*
X156281250Y-88250000D01*
X156375000Y-88156250D01*
X156375000Y-87525000D01*
X155718750Y-87525000D01*
X155625000Y-87618750D01*
X153253543Y-87618750D01*
X153569288Y-87050408D01*
X155625000Y-87050408D01*
X155625000Y-87381250D01*
X155718750Y-87475000D01*
X156375000Y-87475000D01*
X156375000Y-86843750D01*
X156281250Y-86750000D01*
X155925408Y-86750000D01*
X155787580Y-86807090D01*
X155682090Y-86912579D01*
X155625000Y-87050408D01*
X153569288Y-87050408D01*
X155781320Y-83068750D01*
X156375000Y-83068750D01*
X156375000Y-83524592D01*
X156432090Y-83662420D01*
X156537579Y-83767910D01*
X156675408Y-83825000D01*
X157431250Y-83825000D01*
X157525000Y-83731250D01*
X157525000Y-82975000D01*
X157575000Y-82975000D01*
X157575000Y-83731250D01*
X157668750Y-83825000D01*
X158424592Y-83825000D01*
X158562421Y-83767910D01*
X158667910Y-83662420D01*
X158725000Y-83524592D01*
X158725000Y-83068750D01*
X158631250Y-82975000D01*
X157575000Y-82975000D01*
X157525000Y-82975000D01*
X156468750Y-82975000D01*
X156375000Y-83068750D01*
X155781320Y-83068750D01*
X156166510Y-82375408D01*
X156375000Y-82375408D01*
X156375000Y-82831250D01*
X156468750Y-82925000D01*
X157525000Y-82925000D01*
X157525000Y-82168750D01*
X157575000Y-82168750D01*
X157575000Y-82925000D01*
X158631250Y-82925000D01*
X158725000Y-82831250D01*
X158725000Y-82375408D01*
X158667910Y-82237580D01*
X158562421Y-82132090D01*
X158424592Y-82075000D01*
X157668750Y-82075000D01*
X157575000Y-82168750D01*
X157525000Y-82168750D01*
X157431250Y-82075000D01*
X156675408Y-82075000D01*
X156537579Y-82132090D01*
X156432090Y-82237580D01*
X156375000Y-82375408D01*
X156166510Y-82375408D01*
X156555399Y-81675408D01*
X167750000Y-81675408D01*
X167750000Y-82131250D01*
X167843750Y-82225000D01*
X168725000Y-82225000D01*
X168725000Y-81468750D01*
X168631250Y-81375000D01*
X168050408Y-81375000D01*
X167912579Y-81432090D01*
X167807090Y-81537580D01*
X167750000Y-81675408D01*
X156555399Y-81675408D01*
X157250071Y-80425000D01*
X169575000Y-80425000D01*
X169575000Y-81426945D01*
G36*
X154625000Y-113325000D02*
X154645000Y-113325000D01*
X154645000Y-113375000D01*
X154625000Y-113375000D01*
X154625000Y-113395000D01*
X154575000Y-113395000D01*
X154575000Y-113375000D01*
X154555000Y-113375000D01*
X154555000Y-113325000D01*
X154575000Y-113325000D01*
X154575000Y-113305000D01*
X154625000Y-113305000D01*
X154625000Y-113325000D01*
X154625000Y-113325000D01*
G37*
X154625000Y-113325000D02*
X154645000Y-113325000D01*
X154645000Y-113375000D01*
X154625000Y-113375000D01*
X154625000Y-113395000D01*
X154575000Y-113395000D01*
X154575000Y-113375000D01*
X154555000Y-113375000D01*
X154555000Y-113325000D01*
X154575000Y-113325000D01*
X154575000Y-113305000D01*
X154625000Y-113305000D01*
X154625000Y-113325000D01*
G36*
X148965000Y-107665000D02*
X148985000Y-107665000D01*
X148985000Y-107715000D01*
X148965000Y-107715000D01*
X148965000Y-107735000D01*
X148915000Y-107735000D01*
X148915000Y-107715000D01*
X148895000Y-107715000D01*
X148895000Y-107665000D01*
X148915000Y-107665000D01*
X148915000Y-107645000D01*
X148965000Y-107645000D01*
X148965000Y-107665000D01*
X148965000Y-107665000D01*
G37*
X148965000Y-107665000D02*
X148985000Y-107665000D01*
X148985000Y-107715000D01*
X148965000Y-107715000D01*
X148965000Y-107735000D01*
X148915000Y-107735000D01*
X148915000Y-107715000D01*
X148895000Y-107715000D01*
X148895000Y-107665000D01*
X148915000Y-107665000D01*
X148915000Y-107645000D01*
X148965000Y-107645000D01*
X148965000Y-107665000D01*
M02*
