G04 #@! TF.FileFunction,Legend,Bot*
%FSLAX46Y46*%
G04 Gerber Fmt 4.6, Leading zero omitted, Abs format (unit mm)*
G04 Created by KiCad (PCBNEW 4.0.6) date Thu Nov 16 07:28:37 2017*
%MOMM*%
%LPD*%
G01*
G04 APERTURE LIST*
%ADD10C,0.100000*%
%ADD11C,0.200000*%
%ADD12C,0.300000*%
%ADD13C,0.120000*%
G04 APERTURE END LIST*
D10*
D11*
X166744945Y-90369567D02*
X166818153Y-90292247D01*
X166952395Y-90243387D01*
X167102924Y-90239274D01*
X167224992Y-90296195D01*
X167302313Y-90369402D01*
X167412206Y-90532105D01*
X167461067Y-90666347D01*
X167481466Y-90861623D01*
X167469292Y-90967404D01*
X167412371Y-91089472D01*
X167294415Y-91183079D01*
X167204921Y-91215653D01*
X167054392Y-91219765D01*
X166993358Y-91191305D01*
X166879352Y-90878074D01*
X167058341Y-90812928D01*
X166623207Y-91427379D02*
X166281187Y-90487687D01*
X166086239Y-91622819D01*
X165744219Y-90683127D01*
X165638767Y-91785686D02*
X165296747Y-90845993D01*
X165073011Y-90927427D01*
X164955055Y-91021034D01*
X164898134Y-91143102D01*
X164885960Y-91248883D01*
X164906359Y-91444159D01*
X164955219Y-91578401D01*
X165065113Y-91741103D01*
X165142434Y-91814311D01*
X165264502Y-91871232D01*
X165415031Y-91867119D01*
X165638767Y-91785686D01*
D12*
X169400000Y-85407143D02*
X168257143Y-85407143D01*
X168828572Y-85978571D02*
X168828572Y-84835714D01*
X165585714Y-82903571D02*
X166085714Y-82189286D01*
X166442857Y-82903571D02*
X166442857Y-81403571D01*
X165871429Y-81403571D01*
X165728571Y-81475000D01*
X165657143Y-81546429D01*
X165585714Y-81689286D01*
X165585714Y-81903571D01*
X165657143Y-82046429D01*
X165728571Y-82117857D01*
X165871429Y-82189286D01*
X166442857Y-82189286D01*
X164300000Y-82903571D02*
X164300000Y-82117857D01*
X164371429Y-81975000D01*
X164514286Y-81903571D01*
X164800000Y-81903571D01*
X164942857Y-81975000D01*
X164300000Y-82832143D02*
X164442857Y-82903571D01*
X164800000Y-82903571D01*
X164942857Y-82832143D01*
X165014286Y-82689286D01*
X165014286Y-82546429D01*
X164942857Y-82403571D01*
X164800000Y-82332143D01*
X164442857Y-82332143D01*
X164300000Y-82260714D01*
X163585714Y-81903571D02*
X163585714Y-83403571D01*
X163585714Y-81975000D02*
X163442857Y-81903571D01*
X163157143Y-81903571D01*
X163014286Y-81975000D01*
X162942857Y-82046429D01*
X162871428Y-82189286D01*
X162871428Y-82617857D01*
X162942857Y-82760714D01*
X163014286Y-82832143D01*
X163157143Y-82903571D01*
X163442857Y-82903571D01*
X163585714Y-82832143D01*
X162228571Y-82903571D02*
X162228571Y-81403571D01*
X161585714Y-82903571D02*
X161585714Y-82117857D01*
X161657143Y-81975000D01*
X161800000Y-81903571D01*
X162014285Y-81903571D01*
X162157143Y-81975000D01*
X162228571Y-82046429D01*
X160228571Y-82903571D02*
X160228571Y-82117857D01*
X160300000Y-81975000D01*
X160442857Y-81903571D01*
X160728571Y-81903571D01*
X160871428Y-81975000D01*
X160228571Y-82832143D02*
X160371428Y-82903571D01*
X160728571Y-82903571D01*
X160871428Y-82832143D01*
X160942857Y-82689286D01*
X160942857Y-82546429D01*
X160871428Y-82403571D01*
X160728571Y-82332143D01*
X160371428Y-82332143D01*
X160228571Y-82260714D01*
X158942857Y-82832143D02*
X159085714Y-82903571D01*
X159371428Y-82903571D01*
X159514285Y-82832143D01*
X159585714Y-82689286D01*
X159585714Y-82117857D01*
X159514285Y-81975000D01*
X159371428Y-81903571D01*
X159085714Y-81903571D01*
X158942857Y-81975000D01*
X158871428Y-82117857D01*
X158871428Y-82260714D01*
X159585714Y-82403571D01*
X158014285Y-82903571D02*
X158157143Y-82832143D01*
X158228571Y-82689286D01*
X158228571Y-81403571D01*
X166192857Y-85453571D02*
X166907143Y-85453571D01*
X166907143Y-83953571D01*
X165121429Y-85382143D02*
X165264286Y-85453571D01*
X165550000Y-85453571D01*
X165692857Y-85382143D01*
X165764286Y-85239286D01*
X165764286Y-84667857D01*
X165692857Y-84525000D01*
X165550000Y-84453571D01*
X165264286Y-84453571D01*
X165121429Y-84525000D01*
X165050000Y-84667857D01*
X165050000Y-84810714D01*
X165764286Y-84953571D01*
X164407143Y-85453571D02*
X164407143Y-83953571D01*
X163764286Y-85453571D02*
X163764286Y-84667857D01*
X163835715Y-84525000D01*
X163978572Y-84453571D01*
X164192857Y-84453571D01*
X164335715Y-84525000D01*
X164407143Y-84596429D01*
X163050000Y-85453571D02*
X163050000Y-84453571D01*
X163050000Y-84596429D02*
X162978572Y-84525000D01*
X162835714Y-84453571D01*
X162621429Y-84453571D01*
X162478572Y-84525000D01*
X162407143Y-84667857D01*
X162407143Y-85453571D01*
X162407143Y-84667857D02*
X162335714Y-84525000D01*
X162192857Y-84453571D01*
X161978572Y-84453571D01*
X161835714Y-84525000D01*
X161764286Y-84667857D01*
X161764286Y-85453571D01*
X160407143Y-85453571D02*
X160407143Y-84667857D01*
X160478572Y-84525000D01*
X160621429Y-84453571D01*
X160907143Y-84453571D01*
X161050000Y-84525000D01*
X160407143Y-85382143D02*
X160550000Y-85453571D01*
X160907143Y-85453571D01*
X161050000Y-85382143D01*
X161121429Y-85239286D01*
X161121429Y-85096429D01*
X161050000Y-84953571D01*
X160907143Y-84882143D01*
X160550000Y-84882143D01*
X160407143Y-84810714D01*
X159692857Y-84453571D02*
X159692857Y-85453571D01*
X159692857Y-84596429D02*
X159621429Y-84525000D01*
X159478571Y-84453571D01*
X159264286Y-84453571D01*
X159121429Y-84525000D01*
X159050000Y-84667857D01*
X159050000Y-85453571D01*
X158335714Y-84453571D02*
X158335714Y-85453571D01*
X158335714Y-84596429D02*
X158264286Y-84525000D01*
X158121428Y-84453571D01*
X157907143Y-84453571D01*
X157764286Y-84525000D01*
X157692857Y-84667857D01*
X157692857Y-85453571D01*
X153335713Y-102678571D02*
X153335713Y-101678571D01*
X153335713Y-101964286D02*
X153264285Y-101821429D01*
X153192856Y-101750000D01*
X153049999Y-101678571D01*
X152907142Y-101678571D01*
X151835714Y-102607143D02*
X151978571Y-102678571D01*
X152264285Y-102678571D01*
X152407142Y-102607143D01*
X152478571Y-102464286D01*
X152478571Y-101892857D01*
X152407142Y-101750000D01*
X152264285Y-101678571D01*
X151978571Y-101678571D01*
X151835714Y-101750000D01*
X151764285Y-101892857D01*
X151764285Y-102035714D01*
X152478571Y-102178571D01*
X151264285Y-101678571D02*
X150907142Y-102678571D01*
X150550000Y-101678571D01*
X149192857Y-102678571D02*
X150050000Y-102678571D01*
X149621428Y-102678571D02*
X149621428Y-101178571D01*
X149764285Y-101392857D01*
X149907143Y-101535714D01*
X150050000Y-101607143D01*
X159857142Y-100478571D02*
X160357142Y-99764286D01*
X160714285Y-100478571D02*
X160714285Y-98978571D01*
X160142857Y-98978571D01*
X159999999Y-99050000D01*
X159928571Y-99121429D01*
X159857142Y-99264286D01*
X159857142Y-99478571D01*
X159928571Y-99621429D01*
X159999999Y-99692857D01*
X160142857Y-99764286D01*
X160714285Y-99764286D01*
X159357142Y-98978571D02*
X158357142Y-100478571D01*
X158357142Y-98978571D02*
X159357142Y-100478571D01*
X157785714Y-99907143D02*
X156642857Y-99907143D01*
X156142857Y-98978571D02*
X155642857Y-100478571D01*
X155142857Y-98978571D01*
X154642857Y-100478571D02*
X154642857Y-98978571D01*
X153928571Y-100478571D02*
X153928571Y-98978571D01*
X153357143Y-98978571D01*
X153214285Y-99050000D01*
X153142857Y-99121429D01*
X153071428Y-99264286D01*
X153071428Y-99478571D01*
X153142857Y-99621429D01*
X153214285Y-99692857D01*
X153357143Y-99764286D01*
X153928571Y-99764286D01*
X152428571Y-99692857D02*
X151928571Y-99692857D01*
X151714285Y-100478571D02*
X152428571Y-100478571D01*
X152428571Y-98978571D01*
X151714285Y-98978571D01*
X150214285Y-100478571D02*
X150714285Y-99764286D01*
X151071428Y-100478571D02*
X151071428Y-98978571D01*
X150500000Y-98978571D01*
X150357142Y-99050000D01*
X150285714Y-99121429D01*
X150214285Y-99264286D01*
X150214285Y-99478571D01*
X150285714Y-99621429D01*
X150357142Y-99692857D01*
X150500000Y-99764286D01*
X151071428Y-99764286D01*
X162107143Y-95278571D02*
X161535714Y-95278571D01*
X161892857Y-96278571D02*
X161892857Y-94992857D01*
X161821429Y-94850000D01*
X161678571Y-94778571D01*
X161535714Y-94778571D01*
X160821428Y-96278571D02*
X160964286Y-96207143D01*
X161035714Y-96064286D01*
X161035714Y-94778571D01*
X160250000Y-96278571D02*
X160250000Y-95278571D01*
X160250000Y-94778571D02*
X160321429Y-94850000D01*
X160250000Y-94921429D01*
X160178572Y-94850000D01*
X160250000Y-94778571D01*
X160250000Y-94921429D01*
X159535714Y-96278571D02*
X159535714Y-95278571D01*
X159535714Y-95564286D02*
X159464286Y-95421429D01*
X159392857Y-95350000D01*
X159250000Y-95278571D01*
X159107143Y-95278571D01*
X158607143Y-95707143D02*
X157464286Y-95707143D01*
X156750000Y-96278571D02*
X156750000Y-94778571D01*
X156750000Y-95350000D02*
X156607143Y-95278571D01*
X156321429Y-95278571D01*
X156178572Y-95350000D01*
X156107143Y-95421429D01*
X156035714Y-95564286D01*
X156035714Y-95992857D01*
X156107143Y-96135714D01*
X156178572Y-96207143D01*
X156321429Y-96278571D01*
X156607143Y-96278571D01*
X156750000Y-96207143D01*
X155178571Y-96278571D02*
X155321429Y-96207143D01*
X155392857Y-96135714D01*
X155464286Y-95992857D01*
X155464286Y-95564286D01*
X155392857Y-95421429D01*
X155321429Y-95350000D01*
X155178571Y-95278571D01*
X154964286Y-95278571D01*
X154821429Y-95350000D01*
X154750000Y-95421429D01*
X154678571Y-95564286D01*
X154678571Y-95992857D01*
X154750000Y-96135714D01*
X154821429Y-96207143D01*
X154964286Y-96278571D01*
X155178571Y-96278571D01*
X153392857Y-96278571D02*
X153392857Y-95492857D01*
X153464286Y-95350000D01*
X153607143Y-95278571D01*
X153892857Y-95278571D01*
X154035714Y-95350000D01*
X153392857Y-96207143D02*
X153535714Y-96278571D01*
X153892857Y-96278571D01*
X154035714Y-96207143D01*
X154107143Y-96064286D01*
X154107143Y-95921429D01*
X154035714Y-95778571D01*
X153892857Y-95707143D01*
X153535714Y-95707143D01*
X153392857Y-95635714D01*
X152678571Y-96278571D02*
X152678571Y-95278571D01*
X152678571Y-95564286D02*
X152607143Y-95421429D01*
X152535714Y-95350000D01*
X152392857Y-95278571D01*
X152250000Y-95278571D01*
X151107143Y-96278571D02*
X151107143Y-94778571D01*
X151107143Y-96207143D02*
X151250000Y-96278571D01*
X151535714Y-96278571D01*
X151678572Y-96207143D01*
X151750000Y-96135714D01*
X151821429Y-95992857D01*
X151821429Y-95564286D01*
X151750000Y-95421429D01*
X151678572Y-95350000D01*
X151535714Y-95278571D01*
X151250000Y-95278571D01*
X151107143Y-95350000D01*
X166014286Y-115550000D02*
X166157143Y-115478571D01*
X166371429Y-115478571D01*
X166585714Y-115550000D01*
X166728572Y-115692857D01*
X166800000Y-115835714D01*
X166871429Y-116121429D01*
X166871429Y-116335714D01*
X166800000Y-116621429D01*
X166728572Y-116764286D01*
X166585714Y-116907143D01*
X166371429Y-116978571D01*
X166228572Y-116978571D01*
X166014286Y-116907143D01*
X165942857Y-116835714D01*
X165942857Y-116335714D01*
X166228572Y-116335714D01*
X165300000Y-116978571D02*
X165300000Y-115478571D01*
X164728572Y-115478571D01*
X164585714Y-115550000D01*
X164514286Y-115621429D01*
X164442857Y-115764286D01*
X164442857Y-115978571D01*
X164514286Y-116121429D01*
X164585714Y-116192857D01*
X164728572Y-116264286D01*
X165300000Y-116264286D01*
X163800000Y-116978571D02*
X163800000Y-115478571D01*
X162800000Y-115478571D02*
X162514286Y-115478571D01*
X162371428Y-115550000D01*
X162228571Y-115692857D01*
X162157143Y-115978571D01*
X162157143Y-116478571D01*
X162228571Y-116764286D01*
X162371428Y-116907143D01*
X162514286Y-116978571D01*
X162800000Y-116978571D01*
X162942857Y-116907143D01*
X163085714Y-116764286D01*
X163157143Y-116478571D01*
X163157143Y-115978571D01*
X163085714Y-115692857D01*
X162942857Y-115550000D01*
X162800000Y-115478571D01*
X161657142Y-115478571D02*
X160728571Y-115478571D01*
X161228571Y-116050000D01*
X161014285Y-116050000D01*
X160871428Y-116121429D01*
X160799999Y-116192857D01*
X160728571Y-116335714D01*
X160728571Y-116692857D01*
X160799999Y-116835714D01*
X160871428Y-116907143D01*
X161014285Y-116978571D01*
X161442857Y-116978571D01*
X161585714Y-116907143D01*
X161657142Y-116835714D01*
X165885714Y-105910714D02*
X165957143Y-105982143D01*
X166171429Y-106053571D01*
X166314286Y-106053571D01*
X166528571Y-105982143D01*
X166671429Y-105839286D01*
X166742857Y-105696429D01*
X166814286Y-105410714D01*
X166814286Y-105196429D01*
X166742857Y-104910714D01*
X166671429Y-104767857D01*
X166528571Y-104625000D01*
X166314286Y-104553571D01*
X166171429Y-104553571D01*
X165957143Y-104625000D01*
X165885714Y-104696429D01*
X165314286Y-105982143D02*
X165100000Y-106053571D01*
X164742857Y-106053571D01*
X164600000Y-105982143D01*
X164528571Y-105910714D01*
X164457143Y-105767857D01*
X164457143Y-105625000D01*
X164528571Y-105482143D01*
X164600000Y-105410714D01*
X164742857Y-105339286D01*
X165028571Y-105267857D01*
X165171429Y-105196429D01*
X165242857Y-105125000D01*
X165314286Y-104982143D01*
X165314286Y-104839286D01*
X165242857Y-104696429D01*
X165171429Y-104625000D01*
X165028571Y-104553571D01*
X164671429Y-104553571D01*
X164457143Y-104625000D01*
X165885714Y-108460714D02*
X165957143Y-108532143D01*
X166171429Y-108603571D01*
X166314286Y-108603571D01*
X166528571Y-108532143D01*
X166671429Y-108389286D01*
X166742857Y-108246429D01*
X166814286Y-107960714D01*
X166814286Y-107746429D01*
X166742857Y-107460714D01*
X166671429Y-107317857D01*
X166528571Y-107175000D01*
X166314286Y-107103571D01*
X166171429Y-107103571D01*
X165957143Y-107175000D01*
X165885714Y-107246429D01*
X164528571Y-108603571D02*
X165242857Y-108603571D01*
X165242857Y-107103571D01*
X164028571Y-108603571D02*
X164028571Y-107103571D01*
X163171428Y-108603571D02*
X163814285Y-107746429D01*
X163171428Y-107103571D02*
X164028571Y-107960714D01*
X166742857Y-111153571D02*
X166742857Y-109653571D01*
X166242857Y-110725000D01*
X165742857Y-109653571D01*
X165742857Y-111153571D01*
X164742857Y-109653571D02*
X164457143Y-109653571D01*
X164314285Y-109725000D01*
X164171428Y-109867857D01*
X164100000Y-110153571D01*
X164100000Y-110653571D01*
X164171428Y-110939286D01*
X164314285Y-111082143D01*
X164457143Y-111153571D01*
X164742857Y-111153571D01*
X164885714Y-111082143D01*
X165028571Y-110939286D01*
X165100000Y-110653571D01*
X165100000Y-110153571D01*
X165028571Y-109867857D01*
X164885714Y-109725000D01*
X164742857Y-109653571D01*
X163528571Y-111082143D02*
X163314285Y-111153571D01*
X162957142Y-111153571D01*
X162814285Y-111082143D01*
X162742856Y-111010714D01*
X162671428Y-110867857D01*
X162671428Y-110725000D01*
X162742856Y-110582143D01*
X162814285Y-110510714D01*
X162957142Y-110439286D01*
X163242856Y-110367857D01*
X163385714Y-110296429D01*
X163457142Y-110225000D01*
X163528571Y-110082143D01*
X163528571Y-109939286D01*
X163457142Y-109796429D01*
X163385714Y-109725000D01*
X163242856Y-109653571D01*
X162885714Y-109653571D01*
X162671428Y-109725000D01*
X162028571Y-111153571D02*
X162028571Y-109653571D01*
X166742857Y-113703571D02*
X166742857Y-112203571D01*
X166242857Y-113275000D01*
X165742857Y-112203571D01*
X165742857Y-113703571D01*
X165028571Y-113703571D02*
X165028571Y-112203571D01*
X164385714Y-113632143D02*
X164171428Y-113703571D01*
X163814285Y-113703571D01*
X163671428Y-113632143D01*
X163599999Y-113560714D01*
X163528571Y-113417857D01*
X163528571Y-113275000D01*
X163599999Y-113132143D01*
X163671428Y-113060714D01*
X163814285Y-112989286D01*
X164099999Y-112917857D01*
X164242857Y-112846429D01*
X164314285Y-112775000D01*
X164385714Y-112632143D01*
X164385714Y-112489286D01*
X164314285Y-112346429D01*
X164242857Y-112275000D01*
X164099999Y-112203571D01*
X163742857Y-112203571D01*
X163528571Y-112275000D01*
X162600000Y-112203571D02*
X162314286Y-112203571D01*
X162171428Y-112275000D01*
X162028571Y-112417857D01*
X161957143Y-112703571D01*
X161957143Y-113203571D01*
X162028571Y-113489286D01*
X162171428Y-113632143D01*
X162314286Y-113703571D01*
X162600000Y-113703571D01*
X162742857Y-113632143D01*
X162885714Y-113489286D01*
X162957143Y-113203571D01*
X162957143Y-112703571D01*
X162885714Y-112417857D01*
X162742857Y-112275000D01*
X162600000Y-112203571D01*
X166821428Y-100232143D02*
X166607142Y-100303571D01*
X166249999Y-100303571D01*
X166107142Y-100232143D01*
X166035713Y-100160714D01*
X165964285Y-100017857D01*
X165964285Y-99875000D01*
X166035713Y-99732143D01*
X166107142Y-99660714D01*
X166249999Y-99589286D01*
X166535713Y-99517857D01*
X166678571Y-99446429D01*
X166749999Y-99375000D01*
X166821428Y-99232143D01*
X166821428Y-99089286D01*
X166749999Y-98946429D01*
X166678571Y-98875000D01*
X166535713Y-98803571D01*
X166178571Y-98803571D01*
X165964285Y-98875000D01*
X165321428Y-100303571D02*
X165321428Y-98803571D01*
X164964285Y-98803571D01*
X164750000Y-98875000D01*
X164607142Y-99017857D01*
X164535714Y-99160714D01*
X164464285Y-99446429D01*
X164464285Y-99660714D01*
X164535714Y-99946429D01*
X164607142Y-100089286D01*
X164750000Y-100232143D01*
X164964285Y-100303571D01*
X165321428Y-100303571D01*
X163892857Y-99875000D02*
X163178571Y-99875000D01*
X164035714Y-100303571D02*
X163535714Y-98803571D01*
X163035714Y-100303571D01*
X166785714Y-102782143D02*
X166571428Y-102853571D01*
X166214285Y-102853571D01*
X166071428Y-102782143D01*
X165999999Y-102710714D01*
X165928571Y-102567857D01*
X165928571Y-102425000D01*
X165999999Y-102282143D01*
X166071428Y-102210714D01*
X166214285Y-102139286D01*
X166499999Y-102067857D01*
X166642857Y-101996429D01*
X166714285Y-101925000D01*
X166785714Y-101782143D01*
X166785714Y-101639286D01*
X166714285Y-101496429D01*
X166642857Y-101425000D01*
X166499999Y-101353571D01*
X166142857Y-101353571D01*
X165928571Y-101425000D01*
X164428571Y-102710714D02*
X164500000Y-102782143D01*
X164714286Y-102853571D01*
X164857143Y-102853571D01*
X165071428Y-102782143D01*
X165214286Y-102639286D01*
X165285714Y-102496429D01*
X165357143Y-102210714D01*
X165357143Y-101996429D01*
X165285714Y-101710714D01*
X165214286Y-101567857D01*
X165071428Y-101425000D01*
X164857143Y-101353571D01*
X164714286Y-101353571D01*
X164500000Y-101425000D01*
X164428571Y-101496429D01*
X163071428Y-102853571D02*
X163785714Y-102853571D01*
X163785714Y-101353571D01*
D13*
X165950000Y-88250000D02*
X165950000Y-88950000D01*
X167150000Y-88950000D02*
X167150000Y-88250000D01*
X148600000Y-104850000D02*
X148600000Y-105550000D01*
X149800000Y-105550000D02*
X149800000Y-104850000D01*
X155800000Y-114650000D02*
X156500000Y-114650000D01*
X156500000Y-113450000D02*
X155800000Y-113450000D01*
X157100000Y-105000000D02*
X156400000Y-105000000D01*
X156400000Y-106200000D02*
X157100000Y-106200000D01*
X155100000Y-104950000D02*
X155800000Y-104950000D01*
X155800000Y-103750000D02*
X155100000Y-103750000D01*
X165820000Y-89550000D02*
X165820000Y-87550000D01*
X163680000Y-87550000D02*
X163680000Y-89550000D01*
X149630000Y-108800000D02*
X149630000Y-110800000D01*
X151770000Y-110800000D02*
X151770000Y-108800000D01*
X151380000Y-105050000D02*
X151380000Y-104050000D01*
X150020000Y-104050000D02*
X150020000Y-105050000D01*
X152830000Y-105050000D02*
X152830000Y-104050000D01*
X151470000Y-104050000D02*
X151470000Y-105050000D01*
M02*
