G04 #@! TF.FileFunction,Soldermask,Top*
%FSLAX46Y46*%
G04 Gerber Fmt 4.6, Leading zero omitted, Abs format (unit mm)*
G04 Created by KiCad (PCBNEW 4.0.6) date Thu Nov 16 07:28:37 2017*
%MOMM*%
%LPD*%
G01*
G04 APERTURE LIST*
%ADD10C,0.100000*%
%ADD11O,8.100000X5.500000*%
%ADD12O,16.100000X5.500000*%
%ADD13R,0.900000X0.850000*%
%ADD14R,1.350000X1.100000*%
%ADD15R,0.850000X0.900000*%
%ADD16R,1.700000X1.100000*%
%ADD17R,2.600000X2.400000*%
%ADD18R,1.800000X1.800000*%
%ADD19O,1.800000X1.800000*%
%ADD20R,1.600000X2.300000*%
%ADD21R,1.000000X0.600000*%
%ADD22R,0.800000X1.600000*%
%ADD23R,1.100000X1.600000*%
%ADD24R,2.100000X0.900000*%
%ADD25R,1.600000X0.800000*%
%ADD26R,1.600000X1.100000*%
%ADD27R,0.900000X2.100000*%
%ADD28R,0.600000X0.940000*%
%ADD29R,0.940000X0.600000*%
%ADD30R,0.750000X0.750000*%
%ADD31R,1.200000X0.750000*%
%ADD32R,0.750000X1.200000*%
%ADD33R,1.500000X1.300000*%
%ADD34O,9.100000X5.500000*%
G04 APERTURE END LIST*
D10*
D11*
X168800000Y-94400000D03*
D12*
X152500000Y-122500000D03*
D13*
X151400000Y-101400000D03*
X152900000Y-101400000D03*
X158700000Y-101450000D03*
X160200000Y-101450000D03*
X160950000Y-112750000D03*
X162450000Y-112750000D03*
D14*
X168750000Y-84250000D03*
X168750000Y-82250000D03*
D13*
X157900000Y-87500000D03*
X156400000Y-87500000D03*
D15*
X156200000Y-99200000D03*
X156200000Y-97700000D03*
X163450000Y-99600000D03*
X163450000Y-98100000D03*
X159000000Y-117400000D03*
X159000000Y-115900000D03*
D16*
X157550000Y-85950000D03*
X157550000Y-82950000D03*
D15*
X145700000Y-117300000D03*
X145700000Y-118800000D03*
D17*
X161100000Y-89950000D03*
X165400000Y-89950000D03*
D18*
X168550000Y-87300000D03*
D19*
X168550000Y-89840000D03*
D18*
X168150000Y-102190000D03*
D19*
X168150000Y-99650000D03*
D18*
X168250000Y-105400000D03*
D19*
X168250000Y-107940000D03*
X168250000Y-110480000D03*
X168250000Y-113020000D03*
D18*
X168350000Y-116300000D03*
D20*
X166600000Y-83800000D03*
X160200000Y-83800000D03*
D21*
X147100000Y-118800000D03*
X147100000Y-117300000D03*
D10*
G36*
X153950000Y-98200000D02*
X153450000Y-99050000D01*
X152350000Y-99050000D01*
X151850000Y-98200000D01*
X153950000Y-98200000D01*
X153950000Y-98200000D01*
G37*
D22*
X154400000Y-99700000D03*
X151400000Y-99700000D03*
X154400000Y-96000000D03*
D23*
X152900000Y-96000000D03*
D22*
X151400000Y-96000000D03*
D23*
X152900000Y-99700000D03*
D10*
G36*
X151850000Y-97500000D02*
X152350000Y-96650000D01*
X153450000Y-96650000D01*
X153950000Y-97500000D01*
X151850000Y-97500000D01*
X151850000Y-97500000D01*
G37*
D24*
X152900000Y-97850000D03*
D10*
G36*
X161200000Y-98250000D02*
X160700000Y-99100000D01*
X159600000Y-99100000D01*
X159100000Y-98250000D01*
X161200000Y-98250000D01*
X161200000Y-98250000D01*
G37*
D22*
X161650000Y-99750000D03*
X158650000Y-99750000D03*
X161650000Y-96050000D03*
D23*
X160150000Y-96050000D03*
D22*
X158650000Y-96050000D03*
D23*
X160150000Y-99750000D03*
D10*
G36*
X159100000Y-97550000D02*
X159600000Y-96700000D01*
X160700000Y-96700000D01*
X161200000Y-97550000D01*
X159100000Y-97550000D01*
X159100000Y-97550000D01*
G37*
D24*
X160150000Y-97900000D03*
D10*
G36*
X162250000Y-117000000D02*
X161400000Y-116500000D01*
X161400000Y-115400000D01*
X162250000Y-114900000D01*
X162250000Y-117000000D01*
X162250000Y-117000000D01*
G37*
D25*
X160750000Y-117450000D03*
X160750000Y-114450000D03*
X164450000Y-117450000D03*
D26*
X164450000Y-115950000D03*
D25*
X164450000Y-114450000D03*
D26*
X160750000Y-115950000D03*
D10*
G36*
X162950000Y-114900000D02*
X163800000Y-115400000D01*
X163800000Y-116500000D01*
X162950000Y-117000000D01*
X162950000Y-114900000D01*
X162950000Y-114900000D01*
G37*
D27*
X162600000Y-115950000D03*
D28*
X150100000Y-113350000D03*
X150100000Y-104730000D03*
X151000000Y-113350000D03*
X151000000Y-104730000D03*
X151900000Y-113350000D03*
X151900000Y-104730000D03*
X152800000Y-113350000D03*
X152800000Y-104730000D03*
X153700000Y-113350000D03*
X153700000Y-104730000D03*
X154600000Y-113350000D03*
X154600000Y-104730000D03*
X155500000Y-113350000D03*
X155500000Y-104730000D03*
X156400000Y-113350000D03*
X156400000Y-104730000D03*
D29*
X148940000Y-112190000D03*
X148940000Y-111290000D03*
X148940000Y-110390000D03*
X148940000Y-109490000D03*
X148940000Y-108590000D03*
X148940000Y-107690000D03*
X148940000Y-106790000D03*
X148940000Y-105890000D03*
X157560000Y-112190000D03*
X157560000Y-111290000D03*
X157560000Y-110390000D03*
X157560000Y-109490000D03*
X157560000Y-108590000D03*
X157560000Y-107690000D03*
X157560000Y-106790000D03*
X157560000Y-105890000D03*
D30*
X150550000Y-114345000D03*
X150550000Y-103735000D03*
X151450000Y-114345000D03*
X151450000Y-103735000D03*
X152350000Y-114345000D03*
X152350000Y-103735000D03*
X153250000Y-114345000D03*
X153250000Y-103735000D03*
X154150000Y-114345000D03*
X154150000Y-103735000D03*
X155050000Y-114345000D03*
X155050000Y-103735000D03*
X155950000Y-114345000D03*
X155950000Y-103735000D03*
X147945000Y-111740000D03*
X147945000Y-110840000D03*
X147945000Y-109940000D03*
X147945000Y-109040000D03*
X147945000Y-108140000D03*
X147945000Y-107240000D03*
X147945000Y-106340000D03*
X158555000Y-111740000D03*
X158555000Y-110840000D03*
X158555000Y-109940000D03*
X158555000Y-109040000D03*
X158555000Y-108140000D03*
X158555000Y-107240000D03*
X158555000Y-106340000D03*
D31*
X149420000Y-114345000D03*
X149420000Y-103735000D03*
X157080000Y-114345000D03*
X157080000Y-103735000D03*
D32*
X147945000Y-112870000D03*
X147945000Y-105210000D03*
X158555000Y-112870000D03*
X158555000Y-105210000D03*
D33*
X148900000Y-116200000D03*
X151100000Y-116200000D03*
X148900000Y-118100000D03*
X151100000Y-118100000D03*
D34*
X155000000Y-91500000D03*
M02*
