G04 #@! TF.FileFunction,Copper,L2,Bot,Signal*
%FSLAX46Y46*%
G04 Gerber Fmt 4.6, Leading zero omitted, Abs format (unit mm)*
G04 Created by KiCad (PCBNEW 4.0.6) date Thu Nov 16 07:28:37 2017*
%MOMM*%
%LPD*%
G01*
G04 APERTURE LIST*
%ADD10C,0.100000*%
%ADD11O,8.000000X5.400000*%
%ADD12O,16.000000X5.400000*%
%ADD13R,0.750000X0.800000*%
%ADD14R,0.800000X0.750000*%
%ADD15R,1.700000X1.700000*%
%ADD16O,1.700000X1.700000*%
%ADD17R,1.700000X0.900000*%
%ADD18R,0.900000X0.500000*%
%ADD19O,9.000000X5.400000*%
%ADD20C,0.600000*%
%ADD21C,0.250000*%
%ADD22C,0.350000*%
%ADD23C,0.500000*%
G04 APERTURE END LIST*
D10*
D11*
X168800000Y-94400000D03*
D12*
X152500000Y-122500000D03*
D13*
X166550000Y-87850000D03*
X166550000Y-89350000D03*
X149200000Y-104450000D03*
X149200000Y-105950000D03*
D14*
X155400000Y-114050000D03*
X156900000Y-114050000D03*
X157500000Y-105600000D03*
X156000000Y-105600000D03*
X154700000Y-104350000D03*
X156200000Y-104350000D03*
D15*
X168550000Y-87300000D03*
D16*
X168550000Y-89840000D03*
D15*
X168150000Y-102190000D03*
D16*
X168150000Y-99650000D03*
D15*
X168250000Y-105400000D03*
D16*
X168250000Y-107940000D03*
X168250000Y-110480000D03*
X168250000Y-113020000D03*
D15*
X168350000Y-116300000D03*
D17*
X164750000Y-87100000D03*
X164750000Y-90000000D03*
X150700000Y-111250000D03*
X150700000Y-108350000D03*
D18*
X150700000Y-103800000D03*
X150700000Y-105300000D03*
X152150000Y-103800000D03*
X152150000Y-105300000D03*
D19*
X155000000Y-91500000D03*
D20*
X160300000Y-112600000D03*
X146600000Y-115900000D03*
X145200004Y-119600000D03*
X166300000Y-97700000D03*
X156500000Y-105650030D03*
X151200000Y-98300000D03*
X160000000Y-94100000D03*
X159400000Y-94800000D03*
X158899994Y-88900000D03*
X162200000Y-121900000D03*
X166600000Y-118800000D03*
X153400000Y-111800000D03*
X160000000Y-105400000D03*
X152400000Y-107900000D03*
X165500004Y-115400000D03*
X165500000Y-116300000D03*
X159400000Y-114900000D03*
X163100000Y-118200000D03*
X162000000Y-118200000D03*
X150000000Y-119000000D03*
X156400000Y-118100000D03*
X153000000Y-115800000D03*
X163200000Y-81300000D03*
X163400000Y-91500000D03*
X162200000Y-94300000D03*
X162100000Y-104300000D03*
X164000000Y-101400000D03*
X160600000Y-102200000D03*
X157400000Y-96100000D03*
X158600000Y-97500000D03*
X154900000Y-108000000D03*
X155100000Y-109400000D03*
X150100000Y-112300000D03*
X150700000Y-109700000D03*
X164600000Y-106500000D03*
X162200000Y-109500000D03*
X160000000Y-109500000D03*
X158400000Y-102600000D03*
X148600000Y-97900000D03*
X148100000Y-102300000D03*
X154000000Y-101400000D03*
X156100000Y-101000000D03*
X157400000Y-99100000D03*
X155800000Y-96800000D03*
X151300000Y-97500000D03*
X158000000Y-80700000D03*
X155600000Y-83800000D03*
X153200000Y-88200000D03*
X159500000Y-86300000D03*
X166600000Y-86000000D03*
X168800000Y-81100000D03*
X156100000Y-102850000D03*
X148200000Y-114100000D03*
X158300000Y-114100000D03*
X150059015Y-106620400D03*
X163400000Y-112800000D03*
X162600000Y-114500000D03*
X148601392Y-105297216D03*
X162000000Y-97900000D03*
X154750000Y-97850000D03*
X155000000Y-102750000D03*
X154800000Y-105700000D03*
X162550000Y-99750000D03*
X147800000Y-116750000D03*
X157300000Y-105000000D03*
X155376462Y-112710360D03*
X156650000Y-115600000D03*
X150539225Y-105980543D03*
X153200000Y-106825010D03*
X152200000Y-106200000D03*
X156650000Y-107700000D03*
X156250000Y-108700000D03*
X156650000Y-110400000D03*
X155750000Y-110400000D03*
X156336868Y-111758085D03*
X151329577Y-106104492D03*
X149857949Y-107394732D03*
X151100000Y-115400000D03*
D21*
X150700000Y-111250000D02*
X150950000Y-111000000D01*
X150950000Y-111000000D02*
X154550000Y-111000000D01*
X154550000Y-111000000D02*
X156150000Y-112600000D01*
X156150000Y-112600000D02*
X160300000Y-112600000D01*
X163700001Y-101699999D02*
X164000000Y-101400000D01*
X163200000Y-102200000D02*
X163700001Y-101699999D01*
X160600000Y-102200000D02*
X163200000Y-102200000D01*
X166000001Y-97999999D02*
X166300000Y-97700000D01*
X164000000Y-100000000D02*
X166000001Y-97999999D01*
X164000000Y-101400000D02*
X164000000Y-100000000D01*
D22*
X153200000Y-88200000D02*
X155500000Y-85900000D01*
X155500000Y-85900000D02*
X155500000Y-83900000D01*
X155500000Y-83900000D02*
X155600000Y-83800000D01*
D21*
X156000000Y-105600000D02*
X156050030Y-105650030D01*
X156075736Y-105650030D02*
X156500000Y-105650030D01*
X156050030Y-105650030D02*
X156075736Y-105650030D01*
D22*
X159400000Y-94800000D02*
X159400000Y-94700000D01*
X159400000Y-94700000D02*
X160000000Y-94100000D01*
X159199993Y-88600001D02*
X158899994Y-88900000D01*
X159500000Y-88299994D02*
X159199993Y-88600001D01*
X159500000Y-86300000D02*
X159500000Y-88299994D01*
D21*
X166600000Y-118800000D02*
X165500000Y-118800000D01*
X165500000Y-118800000D02*
X162624264Y-121675736D01*
X162624264Y-121675736D02*
X162624264Y-121900000D01*
X162624264Y-121900000D02*
X162200000Y-121900000D01*
X165500000Y-115400004D02*
X165500004Y-115400000D01*
X165500000Y-116300000D02*
X165500000Y-115400004D01*
X162000000Y-118200000D02*
X163100000Y-118200000D01*
X153000000Y-115800000D02*
X154100000Y-115800000D01*
X154100000Y-115800000D02*
X156400000Y-118100000D01*
X164750000Y-90000000D02*
X164750000Y-90150000D01*
X164750000Y-90150000D02*
X163400000Y-91500000D01*
X162200000Y-94300000D02*
X162200000Y-92150000D01*
X162200000Y-92150000D02*
X164350000Y-90000000D01*
X164350000Y-90000000D02*
X164750000Y-90000000D01*
X158600000Y-97500000D02*
X158600000Y-97300000D01*
X158600000Y-97300000D02*
X157400000Y-96100000D01*
X154900000Y-108000000D02*
X154900000Y-109200000D01*
X154900000Y-109200000D02*
X155100000Y-109400000D01*
X150700000Y-109700000D02*
X150700000Y-108350000D01*
D22*
X160000000Y-109500000D02*
X162200000Y-109500000D01*
X148100000Y-102300000D02*
X148100000Y-98400000D01*
X148100000Y-98400000D02*
X148600000Y-97900000D01*
X156100000Y-101000000D02*
X154400000Y-101000000D01*
X154400000Y-101000000D02*
X154000000Y-101400000D01*
X155800000Y-96800000D02*
X155800000Y-97500000D01*
X155800000Y-97500000D02*
X157400000Y-99100000D01*
X158000000Y-80700000D02*
X158400000Y-81100000D01*
X158400000Y-81100000D02*
X168800000Y-81100000D01*
X168800000Y-81100000D02*
X166600000Y-83300000D01*
X166600000Y-83300000D02*
X166600000Y-86000000D01*
X156200000Y-104350000D02*
X156200000Y-102950000D01*
X156200000Y-102950000D02*
X156100000Y-102850000D01*
X150670399Y-106920399D02*
X150700000Y-106950000D01*
X150700000Y-106950000D02*
X150700000Y-108350000D01*
X150059015Y-106620400D02*
X150359014Y-106920399D01*
X150359014Y-106920399D02*
X150670399Y-106920399D01*
X148350000Y-113525736D02*
X148350000Y-107550000D01*
X148350000Y-107550000D02*
X149200000Y-106700000D01*
X149200000Y-106700000D02*
X149200000Y-105950000D01*
X148200000Y-114100000D02*
X148200000Y-113675736D01*
X148200000Y-113675736D02*
X148350000Y-113525736D01*
X156900000Y-114050000D02*
X158250000Y-114050000D01*
X158250000Y-114050000D02*
X158300000Y-114100000D01*
D21*
X149845400Y-106620400D02*
X150059015Y-106620400D01*
X149200000Y-105950000D02*
X149200000Y-105975000D01*
X149200000Y-105975000D02*
X149845400Y-106620400D01*
D22*
X162600000Y-114500000D02*
X162600000Y-113600000D01*
X162600000Y-113600000D02*
X163400000Y-112800000D01*
D21*
X156200000Y-104350000D02*
X156200000Y-105400000D01*
X156200000Y-105400000D02*
X156000000Y-105600000D01*
X149200000Y-105950000D02*
X149200000Y-105895824D01*
X149200000Y-105895824D02*
X148601392Y-105297216D01*
D22*
X156200000Y-104350000D02*
X155950000Y-104350000D01*
X162000000Y-97900000D02*
X154800000Y-97900000D01*
X154800000Y-97900000D02*
X154750000Y-97850000D01*
X166550000Y-89350000D02*
X165400000Y-89350000D01*
X165400000Y-89350000D02*
X164750000Y-90000000D01*
X168550000Y-89840000D02*
X167040000Y-89840000D01*
X167040000Y-89840000D02*
X166550000Y-89350000D01*
D23*
X168550000Y-87300000D02*
X164950000Y-87300000D01*
X164950000Y-87300000D02*
X164750000Y-87100000D01*
D22*
X164750000Y-87100000D02*
X165800000Y-87100000D01*
X165800000Y-87100000D02*
X166550000Y-87850000D01*
X168550000Y-87300000D02*
X167100000Y-87300000D01*
X167100000Y-87300000D02*
X166550000Y-87850000D01*
X154700000Y-104350000D02*
X154700000Y-103050000D01*
X154700000Y-103050000D02*
X155000000Y-102750000D01*
X154700000Y-104350000D02*
X154700000Y-105600000D01*
X154700000Y-105600000D02*
X154800000Y-105700000D01*
X157249996Y-101400000D02*
X156574998Y-102074998D01*
X162550000Y-99750000D02*
X160900000Y-101400000D01*
X160900000Y-101400000D02*
X157249996Y-101400000D01*
X157300000Y-105000000D02*
X157300000Y-102800000D01*
X157300000Y-102800000D02*
X156574998Y-102074998D01*
X152150000Y-103800000D02*
X152950000Y-103800000D01*
X152950000Y-103800000D02*
X154675002Y-102074998D01*
X154675002Y-102074998D02*
X156574998Y-102074998D01*
D21*
X157500000Y-105600000D02*
X157500000Y-105200000D01*
X157500000Y-105200000D02*
X157300000Y-105000000D01*
D22*
X147450000Y-104749998D02*
X147450000Y-116400000D01*
X147450000Y-116400000D02*
X147800000Y-116750000D01*
X150700000Y-103800000D02*
X150500000Y-103800000D01*
X150500000Y-103800000D02*
X150374999Y-103674999D01*
X150374999Y-103674999D02*
X148524999Y-103674999D01*
X148524999Y-103674999D02*
X147450000Y-104749998D01*
X150700000Y-103800000D02*
X152150000Y-103800000D01*
X155400000Y-114050000D02*
X155400000Y-112733898D01*
X155400000Y-112733898D02*
X155376462Y-112710360D01*
X156650000Y-115600000D02*
X156650000Y-115300000D01*
X156650000Y-115300000D02*
X155400000Y-114050000D01*
D21*
X150700000Y-105300000D02*
X150050000Y-105300000D01*
X150050000Y-105300000D02*
X149200000Y-104450000D01*
D22*
X150539225Y-105460775D02*
X150539225Y-105556279D01*
X150700000Y-105300000D02*
X150539225Y-105460775D01*
X150539225Y-105556279D02*
X150539225Y-105980543D01*
D21*
X168150000Y-102190000D02*
X166510000Y-102190000D01*
X166510000Y-102190000D02*
X161650000Y-107050000D01*
X161650000Y-107050000D02*
X153849254Y-107050000D01*
X153849254Y-107050000D02*
X153624264Y-106825010D01*
X153624264Y-106825010D02*
X153200000Y-106825010D01*
X167300001Y-100499999D02*
X168150000Y-99650000D01*
X161474998Y-106325002D02*
X167300001Y-100499999D01*
X154374996Y-106200000D02*
X154499998Y-106325002D01*
X152200000Y-106200000D02*
X154374996Y-106200000D01*
X154499998Y-106325002D02*
X161474998Y-106325002D01*
X156650000Y-107700000D02*
X165950000Y-107700000D01*
X165950000Y-107700000D02*
X168250000Y-105400000D01*
X168250000Y-107940000D02*
X167047919Y-107940000D01*
X167047919Y-107940000D02*
X166587919Y-108400000D01*
X166587919Y-108400000D02*
X156550000Y-108400000D01*
X156550000Y-108400000D02*
X156250000Y-108700000D01*
X156650000Y-110400000D02*
X168170000Y-110400000D01*
X168170000Y-110400000D02*
X168250000Y-110480000D01*
X155750000Y-110400000D02*
X156500654Y-111150654D01*
X156500654Y-111150654D02*
X165750654Y-111150654D01*
X165750654Y-111150654D02*
X167620000Y-113020000D01*
X167620000Y-113020000D02*
X168250000Y-113020000D01*
X168350000Y-116300000D02*
X168350000Y-115200000D01*
X168350000Y-115200000D02*
X164908085Y-111758085D01*
X164908085Y-111758085D02*
X156761132Y-111758085D01*
X156761132Y-111758085D02*
X156336868Y-111758085D01*
D22*
X151329577Y-105920423D02*
X151329577Y-106104492D01*
X151950000Y-105300000D02*
X151329577Y-105920423D01*
X152150000Y-105300000D02*
X151950000Y-105300000D01*
D21*
X149150000Y-108102681D02*
X149857949Y-107394732D01*
X149150000Y-113025736D02*
X149150000Y-108102681D01*
X151100000Y-115400000D02*
X151100000Y-114975736D01*
X151100000Y-114975736D02*
X149150000Y-113025736D01*
G36*
X169575000Y-86115710D02*
X169548754Y-86097777D01*
X169400000Y-86067654D01*
X167700000Y-86067654D01*
X167561034Y-86093802D01*
X167433401Y-86175931D01*
X167347777Y-86301246D01*
X167317654Y-86450000D01*
X167317654Y-86675000D01*
X166134895Y-86675000D01*
X166010476Y-86591866D01*
X165969888Y-86583793D01*
X165956198Y-86511034D01*
X165874069Y-86383401D01*
X165748754Y-86297777D01*
X165600000Y-86267654D01*
X163900000Y-86267654D01*
X163761034Y-86293802D01*
X163633401Y-86375931D01*
X163547777Y-86501246D01*
X163517654Y-86650000D01*
X163517654Y-87550000D01*
X163543802Y-87688966D01*
X163625931Y-87816599D01*
X163751246Y-87902223D01*
X163900000Y-87932346D01*
X165600000Y-87932346D01*
X165639041Y-87925000D01*
X165792654Y-87925000D01*
X165792654Y-88250000D01*
X165818802Y-88388966D01*
X165900931Y-88516599D01*
X166026246Y-88602223D01*
X166031914Y-88603371D01*
X165962579Y-88632090D01*
X165857090Y-88737580D01*
X165800000Y-88875408D01*
X165800000Y-89231250D01*
X165893750Y-89325000D01*
X166525000Y-89325000D01*
X166525000Y-89305000D01*
X166575000Y-89305000D01*
X166575000Y-89325000D01*
X167206250Y-89325000D01*
X167300000Y-89231250D01*
X167300000Y-88875408D01*
X167242910Y-88737580D01*
X167137421Y-88632090D01*
X167068252Y-88603440D01*
X167191599Y-88524069D01*
X167277223Y-88398754D01*
X167307346Y-88250000D01*
X167307346Y-87925000D01*
X167317654Y-87925000D01*
X167317654Y-88150000D01*
X167343802Y-88288966D01*
X167425931Y-88416599D01*
X167551246Y-88502223D01*
X167700000Y-88532346D01*
X169400000Y-88532346D01*
X169538966Y-88506198D01*
X169575000Y-88483011D01*
X169575000Y-89184929D01*
X169555536Y-89140337D01*
X169211245Y-88808794D01*
X168766285Y-88634243D01*
X168575000Y-88709003D01*
X168575000Y-89815000D01*
X168595000Y-89815000D01*
X168595000Y-89865000D01*
X168575000Y-89865000D01*
X168575000Y-90970997D01*
X168766285Y-91045757D01*
X169211245Y-90871206D01*
X169555536Y-90539663D01*
X169575000Y-90495071D01*
X169575000Y-91325000D01*
X167414289Y-91325000D01*
X166237537Y-91559070D01*
X165239936Y-92225647D01*
X164573359Y-93223248D01*
X164339289Y-94400000D01*
X164573359Y-95576752D01*
X165239936Y-96574353D01*
X166237537Y-97240930D01*
X167414289Y-97475000D01*
X169575000Y-97475000D01*
X169575000Y-115410959D01*
X169556198Y-115311034D01*
X169474069Y-115183401D01*
X169348754Y-115097777D01*
X169200000Y-115067654D01*
X168823675Y-115067654D01*
X168811940Y-115008658D01*
X168703553Y-114846447D01*
X168071342Y-114214236D01*
X168226001Y-114245000D01*
X168273999Y-114245000D01*
X168742786Y-114151752D01*
X169140205Y-113886206D01*
X169405751Y-113488787D01*
X169498999Y-113020000D01*
X169405751Y-112551213D01*
X169140205Y-112153794D01*
X168742786Y-111888248D01*
X168273999Y-111795000D01*
X168226001Y-111795000D01*
X167757214Y-111888248D01*
X167420404Y-112113297D01*
X166207106Y-110900000D01*
X167084545Y-110900000D01*
X167094249Y-110948787D01*
X167359795Y-111346206D01*
X167757214Y-111611752D01*
X168226001Y-111705000D01*
X168273999Y-111705000D01*
X168742786Y-111611752D01*
X169140205Y-111346206D01*
X169405751Y-110948787D01*
X169498999Y-110480000D01*
X169405751Y-110011213D01*
X169140205Y-109613794D01*
X168742786Y-109348248D01*
X168273999Y-109255000D01*
X168226001Y-109255000D01*
X167757214Y-109348248D01*
X167359795Y-109613794D01*
X167168559Y-109900000D01*
X157104634Y-109900000D01*
X157032856Y-109828097D01*
X156784855Y-109725117D01*
X156516323Y-109724883D01*
X156268143Y-109827429D01*
X156200048Y-109895406D01*
X156132856Y-109828097D01*
X155884855Y-109725117D01*
X155616323Y-109724883D01*
X155368143Y-109827429D01*
X155178097Y-110017144D01*
X155075117Y-110265145D01*
X155074883Y-110533677D01*
X155177429Y-110781857D01*
X155367144Y-110971903D01*
X155615145Y-111074883D01*
X155717867Y-111074973D01*
X155891654Y-111248760D01*
X155764965Y-111375229D01*
X155726051Y-111468944D01*
X154903553Y-110646447D01*
X154741342Y-110538060D01*
X154725229Y-110534855D01*
X154550000Y-110500000D01*
X151775185Y-110500000D01*
X151698754Y-110447777D01*
X151550000Y-110417654D01*
X149850000Y-110417654D01*
X149711034Y-110443802D01*
X149650000Y-110483076D01*
X149650000Y-108309787D01*
X149890027Y-108069760D01*
X149991626Y-108069849D01*
X150239806Y-107967303D01*
X150429852Y-107777588D01*
X150532832Y-107529587D01*
X150533066Y-107261055D01*
X150430520Y-107012875D01*
X150240805Y-106822829D01*
X149992804Y-106719849D01*
X149724272Y-106719615D01*
X149476092Y-106822161D01*
X149286046Y-107011876D01*
X149183066Y-107259877D01*
X149182976Y-107362599D01*
X148796447Y-107749128D01*
X148688060Y-107911339D01*
X148650000Y-108102681D01*
X148650000Y-113025736D01*
X148677232Y-113162640D01*
X148688060Y-113217078D01*
X148796447Y-113379289D01*
X150500577Y-115083420D01*
X150425117Y-115265145D01*
X150424883Y-115533677D01*
X150527429Y-115781857D01*
X150717144Y-115971903D01*
X150965145Y-116074883D01*
X151233677Y-116075117D01*
X151481857Y-115972571D01*
X151671903Y-115782856D01*
X151774883Y-115534855D01*
X151775117Y-115266323D01*
X151672571Y-115018143D01*
X151592476Y-114937908D01*
X151561940Y-114784394D01*
X151557148Y-114777223D01*
X151453553Y-114622182D01*
X149650000Y-112818630D01*
X149650000Y-112017208D01*
X149701246Y-112052223D01*
X149850000Y-112082346D01*
X151550000Y-112082346D01*
X151688966Y-112056198D01*
X151816599Y-111974069D01*
X151902223Y-111848754D01*
X151932346Y-111700000D01*
X151932346Y-111500000D01*
X154342894Y-111500000D01*
X154987638Y-112144744D01*
X154804559Y-112327504D01*
X154701579Y-112575505D01*
X154701345Y-112844037D01*
X154803891Y-113092217D01*
X154850000Y-113138406D01*
X154850000Y-113325902D01*
X154733401Y-113400931D01*
X154647777Y-113526246D01*
X154617654Y-113675000D01*
X154617654Y-114425000D01*
X154643802Y-114563966D01*
X154725931Y-114691599D01*
X154851246Y-114777223D01*
X155000000Y-114807346D01*
X155379528Y-114807346D01*
X155993370Y-115421188D01*
X155975117Y-115465145D01*
X155974883Y-115733677D01*
X156077429Y-115981857D01*
X156267144Y-116171903D01*
X156515145Y-116274883D01*
X156783677Y-116275117D01*
X157031857Y-116172571D01*
X157221903Y-115982856D01*
X157324883Y-115734855D01*
X157325117Y-115466323D01*
X157222571Y-115218143D01*
X157174049Y-115169537D01*
X157158134Y-115089524D01*
X157038909Y-114911091D01*
X156925002Y-114797184D01*
X156925002Y-114706252D01*
X157018750Y-114800000D01*
X157374592Y-114800000D01*
X157512420Y-114742910D01*
X157617910Y-114637421D01*
X157675000Y-114499592D01*
X157675000Y-114168750D01*
X157581250Y-114075000D01*
X156925000Y-114075000D01*
X156925000Y-114095000D01*
X156875000Y-114095000D01*
X156875000Y-114075000D01*
X156855000Y-114075000D01*
X156855000Y-114025000D01*
X156875000Y-114025000D01*
X156875000Y-113393750D01*
X156925000Y-113393750D01*
X156925000Y-114025000D01*
X157581250Y-114025000D01*
X157675000Y-113931250D01*
X157675000Y-113600408D01*
X157617910Y-113462579D01*
X157512420Y-113357090D01*
X157374592Y-113300000D01*
X157018750Y-113300000D01*
X156925000Y-113393750D01*
X156875000Y-113393750D01*
X156781250Y-113300000D01*
X156425408Y-113300000D01*
X156287580Y-113357090D01*
X156182090Y-113462579D01*
X156153440Y-113531748D01*
X156074069Y-113408401D01*
X155950000Y-113323628D01*
X155950000Y-113089279D01*
X155961147Y-113062435D01*
X156150000Y-113100000D01*
X159845366Y-113100000D01*
X159917144Y-113171903D01*
X160165145Y-113274883D01*
X160433677Y-113275117D01*
X160681857Y-113172571D01*
X160871903Y-112982856D01*
X160974883Y-112734855D01*
X160975117Y-112466323D01*
X160889075Y-112258085D01*
X164700979Y-112258085D01*
X167510548Y-115067654D01*
X167500000Y-115067654D01*
X167361034Y-115093802D01*
X167233401Y-115175931D01*
X167147777Y-115301246D01*
X167117654Y-115450000D01*
X167117654Y-117150000D01*
X167143802Y-117288966D01*
X167225931Y-117416599D01*
X167351246Y-117502223D01*
X167500000Y-117532346D01*
X168654235Y-117532346D01*
X160611240Y-123966743D01*
X160805006Y-123676752D01*
X161039076Y-122500000D01*
X160805006Y-121323248D01*
X160138429Y-120325647D01*
X159140828Y-119659070D01*
X157964076Y-119425000D01*
X147035924Y-119425000D01*
X145859172Y-119659070D01*
X144925000Y-120283265D01*
X144925000Y-116636198D01*
X146900000Y-113871198D01*
X146900000Y-116400000D01*
X146941866Y-116610476D01*
X147061091Y-116788909D01*
X147124910Y-116852728D01*
X147124883Y-116883677D01*
X147227429Y-117131857D01*
X147417144Y-117321903D01*
X147665145Y-117424883D01*
X147933677Y-117425117D01*
X148181857Y-117322571D01*
X148371903Y-117132856D01*
X148474883Y-116884855D01*
X148475117Y-116616323D01*
X148372571Y-116368143D01*
X148182856Y-116178097D01*
X148000000Y-116102168D01*
X148000000Y-106068750D01*
X148450000Y-106068750D01*
X148450000Y-106424592D01*
X148507090Y-106562420D01*
X148612579Y-106667910D01*
X148750408Y-106725000D01*
X149081250Y-106725000D01*
X149175000Y-106631250D01*
X149175000Y-105975000D01*
X148543750Y-105975000D01*
X148450000Y-106068750D01*
X148000000Y-106068750D01*
X148000000Y-104977816D01*
X148442654Y-104535162D01*
X148442654Y-104850000D01*
X148468802Y-104988966D01*
X148550931Y-105116599D01*
X148676246Y-105202223D01*
X148681914Y-105203371D01*
X148612579Y-105232090D01*
X148507090Y-105337580D01*
X148450000Y-105475408D01*
X148450000Y-105831250D01*
X148543750Y-105925000D01*
X149175000Y-105925000D01*
X149175000Y-105905000D01*
X149225000Y-105905000D01*
X149225000Y-105925000D01*
X149245000Y-105925000D01*
X149245000Y-105975000D01*
X149225000Y-105975000D01*
X149225000Y-106631250D01*
X149318750Y-106725000D01*
X149649592Y-106725000D01*
X149787421Y-106667910D01*
X149892910Y-106562420D01*
X149950000Y-106424592D01*
X149950000Y-106322094D01*
X149966654Y-106362400D01*
X150156369Y-106552446D01*
X150404370Y-106655426D01*
X150672902Y-106655660D01*
X150852106Y-106581615D01*
X150946721Y-106676395D01*
X151194722Y-106779375D01*
X151463254Y-106779609D01*
X151711434Y-106677063D01*
X151716961Y-106671545D01*
X151817144Y-106771903D01*
X152065145Y-106874883D01*
X152333677Y-106875117D01*
X152525025Y-106796054D01*
X152524883Y-106958687D01*
X152627429Y-107206867D01*
X152817144Y-107396913D01*
X153065145Y-107499893D01*
X153333677Y-107500127D01*
X153523098Y-107421860D01*
X153657912Y-107511940D01*
X153849254Y-107550000D01*
X155981406Y-107550000D01*
X155975117Y-107565145D01*
X155974883Y-107833677D01*
X156062993Y-108046919D01*
X155868143Y-108127429D01*
X155678097Y-108317144D01*
X155575117Y-108565145D01*
X155574883Y-108833677D01*
X155677429Y-109081857D01*
X155867144Y-109271903D01*
X156115145Y-109374883D01*
X156383677Y-109375117D01*
X156631857Y-109272571D01*
X156821903Y-109082856D01*
X156897832Y-108900000D01*
X166587919Y-108900000D01*
X166779261Y-108861940D01*
X166941472Y-108753553D01*
X167171149Y-108523876D01*
X167359795Y-108806206D01*
X167757214Y-109071752D01*
X168226001Y-109165000D01*
X168273999Y-109165000D01*
X168742786Y-109071752D01*
X169140205Y-108806206D01*
X169405751Y-108408787D01*
X169498999Y-107940000D01*
X169405751Y-107471213D01*
X169140205Y-107073794D01*
X168742786Y-106808248D01*
X168273999Y-106715000D01*
X168226001Y-106715000D01*
X167757214Y-106808248D01*
X167359795Y-107073794D01*
X167115105Y-107440000D01*
X167047919Y-107440000D01*
X166884625Y-107472481D01*
X167724761Y-106632346D01*
X169100000Y-106632346D01*
X169238966Y-106606198D01*
X169366599Y-106524069D01*
X169452223Y-106398754D01*
X169482346Y-106250000D01*
X169482346Y-104550000D01*
X169456198Y-104411034D01*
X169374069Y-104283401D01*
X169248754Y-104197777D01*
X169100000Y-104167654D01*
X167400000Y-104167654D01*
X167261034Y-104193802D01*
X167133401Y-104275931D01*
X167047777Y-104401246D01*
X167017654Y-104550000D01*
X167017654Y-105925239D01*
X165742894Y-107200000D01*
X162207106Y-107200000D01*
X166717106Y-102690000D01*
X166917654Y-102690000D01*
X166917654Y-103040000D01*
X166943802Y-103178966D01*
X167025931Y-103306599D01*
X167151246Y-103392223D01*
X167300000Y-103422346D01*
X169000000Y-103422346D01*
X169138966Y-103396198D01*
X169266599Y-103314069D01*
X169352223Y-103188754D01*
X169382346Y-103040000D01*
X169382346Y-101340000D01*
X169356198Y-101201034D01*
X169274069Y-101073401D01*
X169148754Y-100987777D01*
X169000000Y-100957654D01*
X167549453Y-100957654D01*
X167653554Y-100853553D01*
X167653556Y-100853550D01*
X167714049Y-100793057D01*
X168126001Y-100875000D01*
X168173999Y-100875000D01*
X168642786Y-100781752D01*
X169040205Y-100516206D01*
X169305751Y-100118787D01*
X169398999Y-99650000D01*
X169305751Y-99181213D01*
X169040205Y-98783794D01*
X168642786Y-98518248D01*
X168173999Y-98425000D01*
X168126001Y-98425000D01*
X167657214Y-98518248D01*
X167259795Y-98783794D01*
X166994249Y-99181213D01*
X166901001Y-99650000D01*
X166990907Y-100101987D01*
X166946450Y-100146444D01*
X166946447Y-100146446D01*
X161267892Y-105825002D01*
X158282346Y-105825002D01*
X158282346Y-105225000D01*
X158256198Y-105086034D01*
X158174069Y-104958401D01*
X158048754Y-104872777D01*
X157971303Y-104857093D01*
X157872571Y-104618143D01*
X157850000Y-104595533D01*
X157850000Y-102800005D01*
X157850001Y-102800000D01*
X157808134Y-102589524D01*
X157724199Y-102463907D01*
X157688909Y-102411091D01*
X157688906Y-102411089D01*
X157352815Y-102074998D01*
X157477813Y-101950000D01*
X160900000Y-101950000D01*
X161110476Y-101908134D01*
X161288909Y-101788909D01*
X162652727Y-100425090D01*
X162683677Y-100425117D01*
X162931857Y-100322571D01*
X163121903Y-100132856D01*
X163224883Y-99884855D01*
X163225117Y-99616323D01*
X163122571Y-99368143D01*
X162932856Y-99178097D01*
X162684855Y-99075117D01*
X162416323Y-99074883D01*
X162168143Y-99177429D01*
X161978097Y-99367144D01*
X161875117Y-99615145D01*
X161875089Y-99647094D01*
X160672182Y-100850000D01*
X157249996Y-100850000D01*
X157039520Y-100891866D01*
X156861087Y-101011091D01*
X156861085Y-101011094D01*
X156347180Y-101524998D01*
X154675002Y-101524998D01*
X154464526Y-101566864D01*
X154286093Y-101686089D01*
X152763993Y-103208189D01*
X152748754Y-103197777D01*
X152600000Y-103167654D01*
X151700000Y-103167654D01*
X151561034Y-103193802D01*
X151473699Y-103250000D01*
X151375185Y-103250000D01*
X151298754Y-103197777D01*
X151150000Y-103167654D01*
X150586656Y-103167654D01*
X150585475Y-103166865D01*
X150374999Y-103124999D01*
X148524999Y-103124999D01*
X148314523Y-103166865D01*
X148136090Y-103286090D01*
X147425000Y-103997180D01*
X147425000Y-98110129D01*
X150361835Y-92823826D01*
X150930140Y-93674353D01*
X151927741Y-94340930D01*
X153104493Y-94575000D01*
X156895507Y-94575000D01*
X158072259Y-94340930D01*
X159069860Y-93674353D01*
X159736437Y-92676752D01*
X159970507Y-91500000D01*
X159736437Y-90323248D01*
X159165479Y-89468750D01*
X165800000Y-89468750D01*
X165800000Y-89824592D01*
X165857090Y-89962420D01*
X165962579Y-90067910D01*
X166100408Y-90125000D01*
X166431250Y-90125000D01*
X166525000Y-90031250D01*
X166525000Y-89375000D01*
X166575000Y-89375000D01*
X166575000Y-90031250D01*
X166668750Y-90125000D01*
X166999592Y-90125000D01*
X167137421Y-90067910D01*
X167149045Y-90056285D01*
X167344245Y-90056285D01*
X167353256Y-90101602D01*
X167544464Y-90539663D01*
X167888755Y-90871206D01*
X168333715Y-91045757D01*
X168525000Y-90970997D01*
X168525000Y-89865000D01*
X167419026Y-89865000D01*
X167344245Y-90056285D01*
X167149045Y-90056285D01*
X167242910Y-89962420D01*
X167300000Y-89824592D01*
X167300000Y-89623715D01*
X167344245Y-89623715D01*
X167419026Y-89815000D01*
X168525000Y-89815000D01*
X168525000Y-88709003D01*
X168333715Y-88634243D01*
X167888755Y-88808794D01*
X167544464Y-89140337D01*
X167353256Y-89578398D01*
X167344245Y-89623715D01*
X167300000Y-89623715D01*
X167300000Y-89468750D01*
X167206250Y-89375000D01*
X166575000Y-89375000D01*
X166525000Y-89375000D01*
X165893750Y-89375000D01*
X165800000Y-89468750D01*
X159165479Y-89468750D01*
X159069860Y-89325647D01*
X158072259Y-88659070D01*
X156895507Y-88425000D01*
X153104493Y-88425000D01*
X152768497Y-88491834D01*
X157250071Y-80425000D01*
X169575000Y-80425000D01*
X169575000Y-86115710D01*
X169575000Y-86115710D01*
G37*
X169575000Y-86115710D02*
X169548754Y-86097777D01*
X169400000Y-86067654D01*
X167700000Y-86067654D01*
X167561034Y-86093802D01*
X167433401Y-86175931D01*
X167347777Y-86301246D01*
X167317654Y-86450000D01*
X167317654Y-86675000D01*
X166134895Y-86675000D01*
X166010476Y-86591866D01*
X165969888Y-86583793D01*
X165956198Y-86511034D01*
X165874069Y-86383401D01*
X165748754Y-86297777D01*
X165600000Y-86267654D01*
X163900000Y-86267654D01*
X163761034Y-86293802D01*
X163633401Y-86375931D01*
X163547777Y-86501246D01*
X163517654Y-86650000D01*
X163517654Y-87550000D01*
X163543802Y-87688966D01*
X163625931Y-87816599D01*
X163751246Y-87902223D01*
X163900000Y-87932346D01*
X165600000Y-87932346D01*
X165639041Y-87925000D01*
X165792654Y-87925000D01*
X165792654Y-88250000D01*
X165818802Y-88388966D01*
X165900931Y-88516599D01*
X166026246Y-88602223D01*
X166031914Y-88603371D01*
X165962579Y-88632090D01*
X165857090Y-88737580D01*
X165800000Y-88875408D01*
X165800000Y-89231250D01*
X165893750Y-89325000D01*
X166525000Y-89325000D01*
X166525000Y-89305000D01*
X166575000Y-89305000D01*
X166575000Y-89325000D01*
X167206250Y-89325000D01*
X167300000Y-89231250D01*
X167300000Y-88875408D01*
X167242910Y-88737580D01*
X167137421Y-88632090D01*
X167068252Y-88603440D01*
X167191599Y-88524069D01*
X167277223Y-88398754D01*
X167307346Y-88250000D01*
X167307346Y-87925000D01*
X167317654Y-87925000D01*
X167317654Y-88150000D01*
X167343802Y-88288966D01*
X167425931Y-88416599D01*
X167551246Y-88502223D01*
X167700000Y-88532346D01*
X169400000Y-88532346D01*
X169538966Y-88506198D01*
X169575000Y-88483011D01*
X169575000Y-89184929D01*
X169555536Y-89140337D01*
X169211245Y-88808794D01*
X168766285Y-88634243D01*
X168575000Y-88709003D01*
X168575000Y-89815000D01*
X168595000Y-89815000D01*
X168595000Y-89865000D01*
X168575000Y-89865000D01*
X168575000Y-90970997D01*
X168766285Y-91045757D01*
X169211245Y-90871206D01*
X169555536Y-90539663D01*
X169575000Y-90495071D01*
X169575000Y-91325000D01*
X167414289Y-91325000D01*
X166237537Y-91559070D01*
X165239936Y-92225647D01*
X164573359Y-93223248D01*
X164339289Y-94400000D01*
X164573359Y-95576752D01*
X165239936Y-96574353D01*
X166237537Y-97240930D01*
X167414289Y-97475000D01*
X169575000Y-97475000D01*
X169575000Y-115410959D01*
X169556198Y-115311034D01*
X169474069Y-115183401D01*
X169348754Y-115097777D01*
X169200000Y-115067654D01*
X168823675Y-115067654D01*
X168811940Y-115008658D01*
X168703553Y-114846447D01*
X168071342Y-114214236D01*
X168226001Y-114245000D01*
X168273999Y-114245000D01*
X168742786Y-114151752D01*
X169140205Y-113886206D01*
X169405751Y-113488787D01*
X169498999Y-113020000D01*
X169405751Y-112551213D01*
X169140205Y-112153794D01*
X168742786Y-111888248D01*
X168273999Y-111795000D01*
X168226001Y-111795000D01*
X167757214Y-111888248D01*
X167420404Y-112113297D01*
X166207106Y-110900000D01*
X167084545Y-110900000D01*
X167094249Y-110948787D01*
X167359795Y-111346206D01*
X167757214Y-111611752D01*
X168226001Y-111705000D01*
X168273999Y-111705000D01*
X168742786Y-111611752D01*
X169140205Y-111346206D01*
X169405751Y-110948787D01*
X169498999Y-110480000D01*
X169405751Y-110011213D01*
X169140205Y-109613794D01*
X168742786Y-109348248D01*
X168273999Y-109255000D01*
X168226001Y-109255000D01*
X167757214Y-109348248D01*
X167359795Y-109613794D01*
X167168559Y-109900000D01*
X157104634Y-109900000D01*
X157032856Y-109828097D01*
X156784855Y-109725117D01*
X156516323Y-109724883D01*
X156268143Y-109827429D01*
X156200048Y-109895406D01*
X156132856Y-109828097D01*
X155884855Y-109725117D01*
X155616323Y-109724883D01*
X155368143Y-109827429D01*
X155178097Y-110017144D01*
X155075117Y-110265145D01*
X155074883Y-110533677D01*
X155177429Y-110781857D01*
X155367144Y-110971903D01*
X155615145Y-111074883D01*
X155717867Y-111074973D01*
X155891654Y-111248760D01*
X155764965Y-111375229D01*
X155726051Y-111468944D01*
X154903553Y-110646447D01*
X154741342Y-110538060D01*
X154725229Y-110534855D01*
X154550000Y-110500000D01*
X151775185Y-110500000D01*
X151698754Y-110447777D01*
X151550000Y-110417654D01*
X149850000Y-110417654D01*
X149711034Y-110443802D01*
X149650000Y-110483076D01*
X149650000Y-108309787D01*
X149890027Y-108069760D01*
X149991626Y-108069849D01*
X150239806Y-107967303D01*
X150429852Y-107777588D01*
X150532832Y-107529587D01*
X150533066Y-107261055D01*
X150430520Y-107012875D01*
X150240805Y-106822829D01*
X149992804Y-106719849D01*
X149724272Y-106719615D01*
X149476092Y-106822161D01*
X149286046Y-107011876D01*
X149183066Y-107259877D01*
X149182976Y-107362599D01*
X148796447Y-107749128D01*
X148688060Y-107911339D01*
X148650000Y-108102681D01*
X148650000Y-113025736D01*
X148677232Y-113162640D01*
X148688060Y-113217078D01*
X148796447Y-113379289D01*
X150500577Y-115083420D01*
X150425117Y-115265145D01*
X150424883Y-115533677D01*
X150527429Y-115781857D01*
X150717144Y-115971903D01*
X150965145Y-116074883D01*
X151233677Y-116075117D01*
X151481857Y-115972571D01*
X151671903Y-115782856D01*
X151774883Y-115534855D01*
X151775117Y-115266323D01*
X151672571Y-115018143D01*
X151592476Y-114937908D01*
X151561940Y-114784394D01*
X151557148Y-114777223D01*
X151453553Y-114622182D01*
X149650000Y-112818630D01*
X149650000Y-112017208D01*
X149701246Y-112052223D01*
X149850000Y-112082346D01*
X151550000Y-112082346D01*
X151688966Y-112056198D01*
X151816599Y-111974069D01*
X151902223Y-111848754D01*
X151932346Y-111700000D01*
X151932346Y-111500000D01*
X154342894Y-111500000D01*
X154987638Y-112144744D01*
X154804559Y-112327504D01*
X154701579Y-112575505D01*
X154701345Y-112844037D01*
X154803891Y-113092217D01*
X154850000Y-113138406D01*
X154850000Y-113325902D01*
X154733401Y-113400931D01*
X154647777Y-113526246D01*
X154617654Y-113675000D01*
X154617654Y-114425000D01*
X154643802Y-114563966D01*
X154725931Y-114691599D01*
X154851246Y-114777223D01*
X155000000Y-114807346D01*
X155379528Y-114807346D01*
X155993370Y-115421188D01*
X155975117Y-115465145D01*
X155974883Y-115733677D01*
X156077429Y-115981857D01*
X156267144Y-116171903D01*
X156515145Y-116274883D01*
X156783677Y-116275117D01*
X157031857Y-116172571D01*
X157221903Y-115982856D01*
X157324883Y-115734855D01*
X157325117Y-115466323D01*
X157222571Y-115218143D01*
X157174049Y-115169537D01*
X157158134Y-115089524D01*
X157038909Y-114911091D01*
X156925002Y-114797184D01*
X156925002Y-114706252D01*
X157018750Y-114800000D01*
X157374592Y-114800000D01*
X157512420Y-114742910D01*
X157617910Y-114637421D01*
X157675000Y-114499592D01*
X157675000Y-114168750D01*
X157581250Y-114075000D01*
X156925000Y-114075000D01*
X156925000Y-114095000D01*
X156875000Y-114095000D01*
X156875000Y-114075000D01*
X156855000Y-114075000D01*
X156855000Y-114025000D01*
X156875000Y-114025000D01*
X156875000Y-113393750D01*
X156925000Y-113393750D01*
X156925000Y-114025000D01*
X157581250Y-114025000D01*
X157675000Y-113931250D01*
X157675000Y-113600408D01*
X157617910Y-113462579D01*
X157512420Y-113357090D01*
X157374592Y-113300000D01*
X157018750Y-113300000D01*
X156925000Y-113393750D01*
X156875000Y-113393750D01*
X156781250Y-113300000D01*
X156425408Y-113300000D01*
X156287580Y-113357090D01*
X156182090Y-113462579D01*
X156153440Y-113531748D01*
X156074069Y-113408401D01*
X155950000Y-113323628D01*
X155950000Y-113089279D01*
X155961147Y-113062435D01*
X156150000Y-113100000D01*
X159845366Y-113100000D01*
X159917144Y-113171903D01*
X160165145Y-113274883D01*
X160433677Y-113275117D01*
X160681857Y-113172571D01*
X160871903Y-112982856D01*
X160974883Y-112734855D01*
X160975117Y-112466323D01*
X160889075Y-112258085D01*
X164700979Y-112258085D01*
X167510548Y-115067654D01*
X167500000Y-115067654D01*
X167361034Y-115093802D01*
X167233401Y-115175931D01*
X167147777Y-115301246D01*
X167117654Y-115450000D01*
X167117654Y-117150000D01*
X167143802Y-117288966D01*
X167225931Y-117416599D01*
X167351246Y-117502223D01*
X167500000Y-117532346D01*
X168654235Y-117532346D01*
X160611240Y-123966743D01*
X160805006Y-123676752D01*
X161039076Y-122500000D01*
X160805006Y-121323248D01*
X160138429Y-120325647D01*
X159140828Y-119659070D01*
X157964076Y-119425000D01*
X147035924Y-119425000D01*
X145859172Y-119659070D01*
X144925000Y-120283265D01*
X144925000Y-116636198D01*
X146900000Y-113871198D01*
X146900000Y-116400000D01*
X146941866Y-116610476D01*
X147061091Y-116788909D01*
X147124910Y-116852728D01*
X147124883Y-116883677D01*
X147227429Y-117131857D01*
X147417144Y-117321903D01*
X147665145Y-117424883D01*
X147933677Y-117425117D01*
X148181857Y-117322571D01*
X148371903Y-117132856D01*
X148474883Y-116884855D01*
X148475117Y-116616323D01*
X148372571Y-116368143D01*
X148182856Y-116178097D01*
X148000000Y-116102168D01*
X148000000Y-106068750D01*
X148450000Y-106068750D01*
X148450000Y-106424592D01*
X148507090Y-106562420D01*
X148612579Y-106667910D01*
X148750408Y-106725000D01*
X149081250Y-106725000D01*
X149175000Y-106631250D01*
X149175000Y-105975000D01*
X148543750Y-105975000D01*
X148450000Y-106068750D01*
X148000000Y-106068750D01*
X148000000Y-104977816D01*
X148442654Y-104535162D01*
X148442654Y-104850000D01*
X148468802Y-104988966D01*
X148550931Y-105116599D01*
X148676246Y-105202223D01*
X148681914Y-105203371D01*
X148612579Y-105232090D01*
X148507090Y-105337580D01*
X148450000Y-105475408D01*
X148450000Y-105831250D01*
X148543750Y-105925000D01*
X149175000Y-105925000D01*
X149175000Y-105905000D01*
X149225000Y-105905000D01*
X149225000Y-105925000D01*
X149245000Y-105925000D01*
X149245000Y-105975000D01*
X149225000Y-105975000D01*
X149225000Y-106631250D01*
X149318750Y-106725000D01*
X149649592Y-106725000D01*
X149787421Y-106667910D01*
X149892910Y-106562420D01*
X149950000Y-106424592D01*
X149950000Y-106322094D01*
X149966654Y-106362400D01*
X150156369Y-106552446D01*
X150404370Y-106655426D01*
X150672902Y-106655660D01*
X150852106Y-106581615D01*
X150946721Y-106676395D01*
X151194722Y-106779375D01*
X151463254Y-106779609D01*
X151711434Y-106677063D01*
X151716961Y-106671545D01*
X151817144Y-106771903D01*
X152065145Y-106874883D01*
X152333677Y-106875117D01*
X152525025Y-106796054D01*
X152524883Y-106958687D01*
X152627429Y-107206867D01*
X152817144Y-107396913D01*
X153065145Y-107499893D01*
X153333677Y-107500127D01*
X153523098Y-107421860D01*
X153657912Y-107511940D01*
X153849254Y-107550000D01*
X155981406Y-107550000D01*
X155975117Y-107565145D01*
X155974883Y-107833677D01*
X156062993Y-108046919D01*
X155868143Y-108127429D01*
X155678097Y-108317144D01*
X155575117Y-108565145D01*
X155574883Y-108833677D01*
X155677429Y-109081857D01*
X155867144Y-109271903D01*
X156115145Y-109374883D01*
X156383677Y-109375117D01*
X156631857Y-109272571D01*
X156821903Y-109082856D01*
X156897832Y-108900000D01*
X166587919Y-108900000D01*
X166779261Y-108861940D01*
X166941472Y-108753553D01*
X167171149Y-108523876D01*
X167359795Y-108806206D01*
X167757214Y-109071752D01*
X168226001Y-109165000D01*
X168273999Y-109165000D01*
X168742786Y-109071752D01*
X169140205Y-108806206D01*
X169405751Y-108408787D01*
X169498999Y-107940000D01*
X169405751Y-107471213D01*
X169140205Y-107073794D01*
X168742786Y-106808248D01*
X168273999Y-106715000D01*
X168226001Y-106715000D01*
X167757214Y-106808248D01*
X167359795Y-107073794D01*
X167115105Y-107440000D01*
X167047919Y-107440000D01*
X166884625Y-107472481D01*
X167724761Y-106632346D01*
X169100000Y-106632346D01*
X169238966Y-106606198D01*
X169366599Y-106524069D01*
X169452223Y-106398754D01*
X169482346Y-106250000D01*
X169482346Y-104550000D01*
X169456198Y-104411034D01*
X169374069Y-104283401D01*
X169248754Y-104197777D01*
X169100000Y-104167654D01*
X167400000Y-104167654D01*
X167261034Y-104193802D01*
X167133401Y-104275931D01*
X167047777Y-104401246D01*
X167017654Y-104550000D01*
X167017654Y-105925239D01*
X165742894Y-107200000D01*
X162207106Y-107200000D01*
X166717106Y-102690000D01*
X166917654Y-102690000D01*
X166917654Y-103040000D01*
X166943802Y-103178966D01*
X167025931Y-103306599D01*
X167151246Y-103392223D01*
X167300000Y-103422346D01*
X169000000Y-103422346D01*
X169138966Y-103396198D01*
X169266599Y-103314069D01*
X169352223Y-103188754D01*
X169382346Y-103040000D01*
X169382346Y-101340000D01*
X169356198Y-101201034D01*
X169274069Y-101073401D01*
X169148754Y-100987777D01*
X169000000Y-100957654D01*
X167549453Y-100957654D01*
X167653554Y-100853553D01*
X167653556Y-100853550D01*
X167714049Y-100793057D01*
X168126001Y-100875000D01*
X168173999Y-100875000D01*
X168642786Y-100781752D01*
X169040205Y-100516206D01*
X169305751Y-100118787D01*
X169398999Y-99650000D01*
X169305751Y-99181213D01*
X169040205Y-98783794D01*
X168642786Y-98518248D01*
X168173999Y-98425000D01*
X168126001Y-98425000D01*
X167657214Y-98518248D01*
X167259795Y-98783794D01*
X166994249Y-99181213D01*
X166901001Y-99650000D01*
X166990907Y-100101987D01*
X166946450Y-100146444D01*
X166946447Y-100146446D01*
X161267892Y-105825002D01*
X158282346Y-105825002D01*
X158282346Y-105225000D01*
X158256198Y-105086034D01*
X158174069Y-104958401D01*
X158048754Y-104872777D01*
X157971303Y-104857093D01*
X157872571Y-104618143D01*
X157850000Y-104595533D01*
X157850000Y-102800005D01*
X157850001Y-102800000D01*
X157808134Y-102589524D01*
X157724199Y-102463907D01*
X157688909Y-102411091D01*
X157688906Y-102411089D01*
X157352815Y-102074998D01*
X157477813Y-101950000D01*
X160900000Y-101950000D01*
X161110476Y-101908134D01*
X161288909Y-101788909D01*
X162652727Y-100425090D01*
X162683677Y-100425117D01*
X162931857Y-100322571D01*
X163121903Y-100132856D01*
X163224883Y-99884855D01*
X163225117Y-99616323D01*
X163122571Y-99368143D01*
X162932856Y-99178097D01*
X162684855Y-99075117D01*
X162416323Y-99074883D01*
X162168143Y-99177429D01*
X161978097Y-99367144D01*
X161875117Y-99615145D01*
X161875089Y-99647094D01*
X160672182Y-100850000D01*
X157249996Y-100850000D01*
X157039520Y-100891866D01*
X156861087Y-101011091D01*
X156861085Y-101011094D01*
X156347180Y-101524998D01*
X154675002Y-101524998D01*
X154464526Y-101566864D01*
X154286093Y-101686089D01*
X152763993Y-103208189D01*
X152748754Y-103197777D01*
X152600000Y-103167654D01*
X151700000Y-103167654D01*
X151561034Y-103193802D01*
X151473699Y-103250000D01*
X151375185Y-103250000D01*
X151298754Y-103197777D01*
X151150000Y-103167654D01*
X150586656Y-103167654D01*
X150585475Y-103166865D01*
X150374999Y-103124999D01*
X148524999Y-103124999D01*
X148314523Y-103166865D01*
X148136090Y-103286090D01*
X147425000Y-103997180D01*
X147425000Y-98110129D01*
X150361835Y-92823826D01*
X150930140Y-93674353D01*
X151927741Y-94340930D01*
X153104493Y-94575000D01*
X156895507Y-94575000D01*
X158072259Y-94340930D01*
X159069860Y-93674353D01*
X159736437Y-92676752D01*
X159970507Y-91500000D01*
X159736437Y-90323248D01*
X159165479Y-89468750D01*
X165800000Y-89468750D01*
X165800000Y-89824592D01*
X165857090Y-89962420D01*
X165962579Y-90067910D01*
X166100408Y-90125000D01*
X166431250Y-90125000D01*
X166525000Y-90031250D01*
X166525000Y-89375000D01*
X166575000Y-89375000D01*
X166575000Y-90031250D01*
X166668750Y-90125000D01*
X166999592Y-90125000D01*
X167137421Y-90067910D01*
X167149045Y-90056285D01*
X167344245Y-90056285D01*
X167353256Y-90101602D01*
X167544464Y-90539663D01*
X167888755Y-90871206D01*
X168333715Y-91045757D01*
X168525000Y-90970997D01*
X168525000Y-89865000D01*
X167419026Y-89865000D01*
X167344245Y-90056285D01*
X167149045Y-90056285D01*
X167242910Y-89962420D01*
X167300000Y-89824592D01*
X167300000Y-89623715D01*
X167344245Y-89623715D01*
X167419026Y-89815000D01*
X168525000Y-89815000D01*
X168525000Y-88709003D01*
X168333715Y-88634243D01*
X167888755Y-88808794D01*
X167544464Y-89140337D01*
X167353256Y-89578398D01*
X167344245Y-89623715D01*
X167300000Y-89623715D01*
X167300000Y-89468750D01*
X167206250Y-89375000D01*
X166575000Y-89375000D01*
X166525000Y-89375000D01*
X165893750Y-89375000D01*
X165800000Y-89468750D01*
X159165479Y-89468750D01*
X159069860Y-89325647D01*
X158072259Y-88659070D01*
X156895507Y-88425000D01*
X153104493Y-88425000D01*
X152768497Y-88491834D01*
X157250071Y-80425000D01*
X169575000Y-80425000D01*
X169575000Y-86115710D01*
G36*
X156025000Y-105575000D02*
X156045000Y-105575000D01*
X156045000Y-105625000D01*
X156025000Y-105625000D01*
X156025000Y-105645000D01*
X155975000Y-105645000D01*
X155975000Y-105625000D01*
X155955000Y-105625000D01*
X155955000Y-105575000D01*
X155975000Y-105575000D01*
X155975000Y-105555000D01*
X156025000Y-105555000D01*
X156025000Y-105575000D01*
X156025000Y-105575000D01*
G37*
X156025000Y-105575000D02*
X156045000Y-105575000D01*
X156045000Y-105625000D01*
X156025000Y-105625000D01*
X156025000Y-105645000D01*
X155975000Y-105645000D01*
X155975000Y-105625000D01*
X155955000Y-105625000D01*
X155955000Y-105575000D01*
X155975000Y-105575000D01*
X155975000Y-105555000D01*
X156025000Y-105555000D01*
X156025000Y-105575000D01*
G36*
X156750000Y-103027817D02*
X156750000Y-103631235D01*
X156674592Y-103600000D01*
X156318750Y-103600000D01*
X156225000Y-103693750D01*
X156225000Y-104325000D01*
X156245000Y-104325000D01*
X156245000Y-104375000D01*
X156225000Y-104375000D01*
X156225000Y-104395000D01*
X156175000Y-104395000D01*
X156175000Y-104375000D01*
X156155000Y-104375000D01*
X156155000Y-104325000D01*
X156175000Y-104325000D01*
X156175000Y-103693750D01*
X156081250Y-103600000D01*
X155725408Y-103600000D01*
X155587580Y-103657090D01*
X155482090Y-103762579D01*
X155453440Y-103831748D01*
X155374069Y-103708401D01*
X155250000Y-103623628D01*
X155250000Y-103377053D01*
X155381857Y-103322571D01*
X155571903Y-103132856D01*
X155674883Y-102884855D01*
X155675109Y-102624998D01*
X156347180Y-102624998D01*
X156750000Y-103027817D01*
X156750000Y-103027817D01*
G37*
X156750000Y-103027817D02*
X156750000Y-103631235D01*
X156674592Y-103600000D01*
X156318750Y-103600000D01*
X156225000Y-103693750D01*
X156225000Y-104325000D01*
X156245000Y-104325000D01*
X156245000Y-104375000D01*
X156225000Y-104375000D01*
X156225000Y-104395000D01*
X156175000Y-104395000D01*
X156175000Y-104375000D01*
X156155000Y-104375000D01*
X156155000Y-104325000D01*
X156175000Y-104325000D01*
X156175000Y-103693750D01*
X156081250Y-103600000D01*
X155725408Y-103600000D01*
X155587580Y-103657090D01*
X155482090Y-103762579D01*
X155453440Y-103831748D01*
X155374069Y-103708401D01*
X155250000Y-103623628D01*
X155250000Y-103377053D01*
X155381857Y-103322571D01*
X155571903Y-103132856D01*
X155674883Y-102884855D01*
X155675109Y-102624998D01*
X156347180Y-102624998D01*
X156750000Y-103027817D01*
M02*
