<?xml version="1.0" standalone="no"?>
 <!DOCTYPE svg PUBLIC "-//W3C//DTD SVG 1.1//EN" 
 "http://www.w3.org/Graphics/SVG/1.1/DTD/svg11.dtd"> 
<svg xmlns="http://www.w3.org/2000/svg" version="1.1" 
    width="29.7002cm" height="21.0007cm" viewBox="0 0 116930 82680 ">
<title>SVG Picture created as camera-light.svg date 2017/12/04 02:09:21 </title>
  <desc>Picture generated by Eeschema-SVG </desc>
<g style="fill:#000000; fill-opacity:1;stroke:#000000; stroke-opacity:1;
stroke-linecap:round; stroke-linejoin:round; "
 transform="translate(0 0) scale(1 1)">
</g>
<g style="fill:#000000; fill-opacity:0.0; 
stroke:#000000; stroke-width:-10; stroke-opacity:1; 
stroke-linecap:round; stroke-linejoin:round;">
</g>
<g style="fill:#840000; fill-opacity:0.0; 
stroke:#840000; stroke-width:-10; stroke-opacity:1; 
stroke-linecap:round; stroke-linejoin:round;">
</g>
<g style="fill:#840000; fill-opacity:0.0; 
stroke:#840000; stroke-width:100; stroke-opacity:1; 
stroke-linecap:round; stroke-linejoin:round;">
</g>
<g style="fill:#840000; fill-opacity:0.0; 
stroke:#840000; stroke-width:60; stroke-opacity:1; 
stroke-linecap:round; stroke-linejoin:round;">
<rect x="69690" y="65360" width="42520" height="12600" rx="0" />
</g>
<g style="fill:#840000; fill-opacity:0.0; 
stroke:#840000; stroke-width:100; stroke-opacity:1; 
stroke-linecap:round; stroke-linejoin:round;">
</g>
<g style="fill:#840000; fill-opacity:0.0; 
stroke:#840000; stroke-width:60; stroke-opacity:1; 
stroke-linecap:round; stroke-linejoin:round;">
<rect x="3940" y="3940" width="109050" height="74800" rx="0" />
</g>
<g style="fill:#840000; fill-opacity:0.0; 
stroke:#840000; stroke-width:100; stroke-opacity:1; 
stroke-linecap:round; stroke-linejoin:round;">
</g>
<g style="fill:#840000; fill-opacity:0.0; 
stroke:#840000; stroke-width:60; stroke-opacity:1; 
stroke-linecap:round; stroke-linejoin:round;">
<rect x="4720" y="4720" width="107490" height="73240" rx="0" />
</g>
<g style="fill:#840000; fill-opacity:0.0; 
stroke:#840000; stroke-width:100; stroke-opacity:1; 
stroke-linecap:round; stroke-linejoin:round;">
</g>
<g style="fill:#840000; fill-opacity:0.0; 
stroke:#840000; stroke-width:60; stroke-opacity:1; 
stroke-linecap:round; stroke-linejoin:round;">
<path d="M23620 4720
L23620 3940
" />
</g>
<g style="fill:#840000; fill-opacity:0.0; 
stroke:#840000; stroke-width:100; stroke-opacity:1; 
stroke-linecap:round; stroke-linejoin:round;">
</g>
<g style="fill:#840000; fill-opacity:0.0; 
stroke:#840000; stroke-width:60; stroke-opacity:1; 
stroke-linecap:round; stroke-linejoin:round;">
<path d="M43310 4720
L43310 3940
" />
</g>
<g style="fill:#840000; fill-opacity:0.0; 
stroke:#840000; stroke-width:100; stroke-opacity:1; 
stroke-linecap:round; stroke-linejoin:round;">
</g>
<g style="fill:#840000; fill-opacity:0.0; 
stroke:#840000; stroke-width:60; stroke-opacity:1; 
stroke-linecap:round; stroke-linejoin:round;">
<path d="M62990 4720
L62990 3940
" />
</g>
<g style="fill:#840000; fill-opacity:0.0; 
stroke:#840000; stroke-width:100; stroke-opacity:1; 
stroke-linecap:round; stroke-linejoin:round;">
</g>
<g style="fill:#840000; fill-opacity:0.0; 
stroke:#840000; stroke-width:60; stroke-opacity:1; 
stroke-linecap:round; stroke-linejoin:round;">
<path d="M82680 4720
L82680 3940
" />
</g>
<g style="fill:#840000; fill-opacity:0.0; 
stroke:#840000; stroke-width:100; stroke-opacity:1; 
stroke-linecap:round; stroke-linejoin:round;">
</g>
<g style="fill:#840000; fill-opacity:0.0; 
stroke:#840000; stroke-width:60; stroke-opacity:1; 
stroke-linecap:round; stroke-linejoin:round;">
<path d="M102360 4720
L102360 3940
" />
</g>
<g style="fill:#840000; fill-opacity:0.0; 
stroke:#840000; stroke-width:100; stroke-opacity:1; 
stroke-linecap:round; stroke-linejoin:round;">
</g>
<g style="fill:#840000; fill-opacity:0.0; 
stroke:#840000; stroke-width:60; stroke-opacity:1; 
stroke-linecap:round; stroke-linejoin:round;">
<path d="M14170 4560
L13880 4560
" />
<path d="M14020 4560
L14020 4050
L13970 4120
L13930 4170
L13880 4190
" />
</g>
<g style="fill:#840000; fill-opacity:0.0; 
stroke:#840000; stroke-width:100; stroke-opacity:1; 
stroke-linecap:round; stroke-linejoin:round;">
</g>
<g style="fill:#840000; fill-opacity:0.0; 
stroke:#840000; stroke-width:60; stroke-opacity:1; 
stroke-linecap:round; stroke-linejoin:round;">
<path d="M33560 4090
L33580 4070
L33630 4050
L33750 4050
L33800 4070
L33820 4090
L33850 4140
L33850 4190
L33820 4260
L33530 4560
L33850 4560
" />
</g>
<g style="fill:#840000; fill-opacity:0.0; 
stroke:#840000; stroke-width:100; stroke-opacity:1; 
stroke-linecap:round; stroke-linejoin:round;">
</g>
<g style="fill:#840000; fill-opacity:0.0; 
stroke:#840000; stroke-width:60; stroke-opacity:1; 
stroke-linecap:round; stroke-linejoin:round;">
<path d="M53220 4050
L53540 4050
L53370 4240
L53440 4240
L53490 4260
L53510 4290
L53540 4340
L53540 4460
L53510 4510
L53490 4530
L53440 4560
L53300 4560
L53250 4530
L53220 4510
" />
</g>
<g style="fill:#840000; fill-opacity:0.0; 
stroke:#840000; stroke-width:100; stroke-opacity:1; 
stroke-linecap:round; stroke-linejoin:round;">
</g>
<g style="fill:#840000; fill-opacity:0.0; 
stroke:#840000; stroke-width:60; stroke-opacity:1; 
stroke-linecap:round; stroke-linejoin:round;">
<path d="M73170 4220
L73170 4560
" />
<path d="M73050 4020
L72930 4390
L73240 4390
" />
</g>
<g style="fill:#840000; fill-opacity:0.0; 
stroke:#840000; stroke-width:100; stroke-opacity:1; 
stroke-linecap:round; stroke-linejoin:round;">
</g>
<g style="fill:#840000; fill-opacity:0.0; 
stroke:#840000; stroke-width:60; stroke-opacity:1; 
stroke-linecap:round; stroke-linejoin:round;">
<path d="M92880 4050
L92640 4050
L92620 4290
L92640 4260
L92690 4240
L92810 4240
L92860 4260
L92880 4290
L92910 4340
L92910 4460
L92880 4510
L92860 4530
L92810 4560
L92690 4560
L92640 4530
L92620 4510
" />
</g>
<g style="fill:#840000; fill-opacity:0.0; 
stroke:#840000; stroke-width:100; stroke-opacity:1; 
stroke-linecap:round; stroke-linejoin:round;">
</g>
<g style="fill:#840000; fill-opacity:0.0; 
stroke:#840000; stroke-width:60; stroke-opacity:1; 
stroke-linecap:round; stroke-linejoin:round;">
<path d="M112540 4050
L112440 4050
L112390 4070
L112370 4090
L112320 4170
L112300 4260
L112300 4460
L112320 4510
L112350 4530
L112390 4560
L112490 4560
L112540 4530
L112560 4510
L112590 4460
L112590 4340
L112560 4290
L112540 4260
L112490 4240
L112390 4240
L112350 4260
L112320 4290
L112300 4340
" />
</g>
<g style="fill:#840000; fill-opacity:0.0; 
stroke:#840000; stroke-width:100; stroke-opacity:1; 
stroke-linecap:round; stroke-linejoin:round;">
</g>
<g style="fill:#840000; fill-opacity:0.0; 
stroke:#840000; stroke-width:60; stroke-opacity:1; 
stroke-linecap:round; stroke-linejoin:round;">
<path d="M23620 77960
L23620 78740
" />
</g>
<g style="fill:#840000; fill-opacity:0.0; 
stroke:#840000; stroke-width:100; stroke-opacity:1; 
stroke-linecap:round; stroke-linejoin:round;">
</g>
<g style="fill:#840000; fill-opacity:0.0; 
stroke:#840000; stroke-width:60; stroke-opacity:1; 
stroke-linecap:round; stroke-linejoin:round;">
<path d="M43310 77960
L43310 78740
" />
</g>
<g style="fill:#840000; fill-opacity:0.0; 
stroke:#840000; stroke-width:100; stroke-opacity:1; 
stroke-linecap:round; stroke-linejoin:round;">
</g>
<g style="fill:#840000; fill-opacity:0.0; 
stroke:#840000; stroke-width:60; stroke-opacity:1; 
stroke-linecap:round; stroke-linejoin:round;">
<path d="M62990 77960
L62990 78740
" />
</g>
<g style="fill:#840000; fill-opacity:0.0; 
stroke:#840000; stroke-width:100; stroke-opacity:1; 
stroke-linecap:round; stroke-linejoin:round;">
</g>
<g style="fill:#840000; fill-opacity:0.0; 
stroke:#840000; stroke-width:60; stroke-opacity:1; 
stroke-linecap:round; stroke-linejoin:round;">
<path d="M82680 77960
L82680 78740
" />
</g>
<g style="fill:#840000; fill-opacity:0.0; 
stroke:#840000; stroke-width:100; stroke-opacity:1; 
stroke-linecap:round; stroke-linejoin:round;">
</g>
<g style="fill:#840000; fill-opacity:0.0; 
stroke:#840000; stroke-width:60; stroke-opacity:1; 
stroke-linecap:round; stroke-linejoin:round;">
<path d="M102360 77960
L102360 78740
" />
</g>
<g style="fill:#840000; fill-opacity:0.0; 
stroke:#840000; stroke-width:100; stroke-opacity:1; 
stroke-linecap:round; stroke-linejoin:round;">
</g>
<g style="fill:#840000; fill-opacity:0.0; 
stroke:#840000; stroke-width:60; stroke-opacity:1; 
stroke-linecap:round; stroke-linejoin:round;">
<path d="M14170 78580
L13880 78580
" />
<path d="M14020 78580
L14020 78070
L13970 78140
L13930 78190
L13880 78210
" />
</g>
<g style="fill:#840000; fill-opacity:0.0; 
stroke:#840000; stroke-width:100; stroke-opacity:1; 
stroke-linecap:round; stroke-linejoin:round;">
</g>
<g style="fill:#840000; fill-opacity:0.0; 
stroke:#840000; stroke-width:60; stroke-opacity:1; 
stroke-linecap:round; stroke-linejoin:round;">
<path d="M33560 78110
L33580 78090
L33630 78070
L33750 78070
L33800 78090
L33820 78110
L33850 78160
L33850 78210
L33820 78280
L33530 78580
L33850 78580
" />
</g>
<g style="fill:#840000; fill-opacity:0.0; 
stroke:#840000; stroke-width:100; stroke-opacity:1; 
stroke-linecap:round; stroke-linejoin:round;">
</g>
<g style="fill:#840000; fill-opacity:0.0; 
stroke:#840000; stroke-width:60; stroke-opacity:1; 
stroke-linecap:round; stroke-linejoin:round;">
<path d="M53220 78070
L53540 78070
L53370 78260
L53440 78260
L53490 78280
L53510 78310
L53540 78360
L53540 78480
L53510 78530
L53490 78550
L53440 78580
L53300 78580
L53250 78550
L53220 78530
" />
</g>
<g style="fill:#840000; fill-opacity:0.0; 
stroke:#840000; stroke-width:100; stroke-opacity:1; 
stroke-linecap:round; stroke-linejoin:round;">
</g>
<g style="fill:#840000; fill-opacity:0.0; 
stroke:#840000; stroke-width:60; stroke-opacity:1; 
stroke-linecap:round; stroke-linejoin:round;">
<path d="M73170 78240
L73170 78580
" />
<path d="M73050 78040
L72930 78410
L73240 78410
" />
</g>
<g style="fill:#840000; fill-opacity:0.0; 
stroke:#840000; stroke-width:100; stroke-opacity:1; 
stroke-linecap:round; stroke-linejoin:round;">
</g>
<g style="fill:#840000; fill-opacity:0.0; 
stroke:#840000; stroke-width:60; stroke-opacity:1; 
stroke-linecap:round; stroke-linejoin:round;">
<path d="M92880 78070
L92640 78070
L92620 78310
L92640 78280
L92690 78260
L92810 78260
L92860 78280
L92880 78310
L92910 78360
L92910 78480
L92880 78530
L92860 78550
L92810 78580
L92690 78580
L92640 78550
L92620 78530
" />
</g>
<g style="fill:#840000; fill-opacity:0.0; 
stroke:#840000; stroke-width:100; stroke-opacity:1; 
stroke-linecap:round; stroke-linejoin:round;">
</g>
<g style="fill:#840000; fill-opacity:0.0; 
stroke:#840000; stroke-width:60; stroke-opacity:1; 
stroke-linecap:round; stroke-linejoin:round;">
<path d="M112540 78070
L112440 78070
L112390 78090
L112370 78110
L112320 78190
L112300 78280
L112300 78480
L112320 78530
L112350 78550
L112390 78580
L112490 78580
L112540 78550
L112560 78530
L112590 78480
L112590 78360
L112560 78310
L112540 78280
L112490 78260
L112390 78260
L112350 78280
L112320 78310
L112300 78360
" />
</g>
<g style="fill:#840000; fill-opacity:0.0; 
stroke:#840000; stroke-width:100; stroke-opacity:1; 
stroke-linecap:round; stroke-linejoin:round;">
</g>
<g style="fill:#840000; fill-opacity:0.0; 
stroke:#840000; stroke-width:60; stroke-opacity:1; 
stroke-linecap:round; stroke-linejoin:round;">
<path d="M3940 23620
L4720 23620
" />
</g>
<g style="fill:#840000; fill-opacity:0.0; 
stroke:#840000; stroke-width:100; stroke-opacity:1; 
stroke-linecap:round; stroke-linejoin:round;">
</g>
<g style="fill:#840000; fill-opacity:0.0; 
stroke:#840000; stroke-width:60; stroke-opacity:1; 
stroke-linecap:round; stroke-linejoin:round;">
<path d="M3940 43310
L4720 43310
" />
</g>
<g style="fill:#840000; fill-opacity:0.0; 
stroke:#840000; stroke-width:100; stroke-opacity:1; 
stroke-linecap:round; stroke-linejoin:round;">
</g>
<g style="fill:#840000; fill-opacity:0.0; 
stroke:#840000; stroke-width:60; stroke-opacity:1; 
stroke-linecap:round; stroke-linejoin:round;">
<path d="M3940 62990
L4720 62990
" />
</g>
<g style="fill:#840000; fill-opacity:0.0; 
stroke:#840000; stroke-width:100; stroke-opacity:1; 
stroke-linecap:round; stroke-linejoin:round;">
</g>
<g style="fill:#840000; fill-opacity:0.0; 
stroke:#840000; stroke-width:60; stroke-opacity:1; 
stroke-linecap:round; stroke-linejoin:round;">
<path d="M4210 13860
L4450 13860
" />
<path d="M4160 14010
L4330 13500
L4500 14010
" />
</g>
<g style="fill:#840000; fill-opacity:0.0; 
stroke:#840000; stroke-width:100; stroke-opacity:1; 
stroke-linecap:round; stroke-linejoin:round;">
</g>
<g style="fill:#840000; fill-opacity:0.0; 
stroke:#840000; stroke-width:60; stroke-opacity:1; 
stroke-linecap:round; stroke-linejoin:round;">
<path d="M4370 33420
L4440 33440
L4470 33470
L4490 33520
L4490 33590
L4470 33640
L4440 33660
L4400 33690
L4200 33690
L4200 33180
L4370 33180
L4420 33200
L4440 33220
L4470 33270
L4470 33320
L4440 33370
L4420 33390
L4370 33420
L4200 33420
" />
</g>
<g style="fill:#840000; fill-opacity:0.0; 
stroke:#840000; stroke-width:100; stroke-opacity:1; 
stroke-linecap:round; stroke-linejoin:round;">
</g>
<g style="fill:#840000; fill-opacity:0.0; 
stroke:#840000; stroke-width:60; stroke-opacity:1; 
stroke-linecap:round; stroke-linejoin:round;">
<path d="M4490 53330
L4470 53350
L4400 53380
L4350 53380
L4270 53350
L4230 53300
L4200 53250
L4180 53160
L4180 53080
L4200 52990
L4230 52940
L4270 52890
L4350 52870
L4400 52870
L4470 52890
L4490 52910
" />
</g>
<g style="fill:#840000; fill-opacity:0.0; 
stroke:#840000; stroke-width:100; stroke-opacity:1; 
stroke-linecap:round; stroke-linejoin:round;">
</g>
<g style="fill:#840000; fill-opacity:0.0; 
stroke:#840000; stroke-width:60; stroke-opacity:1; 
stroke-linecap:round; stroke-linejoin:round;">
<path d="M4200 73060
L4200 72550
L4320 72550
L4400 72570
L4440 72620
L4470 72670
L4490 72760
L4490 72840
L4470 72930
L4440 72980
L4400 73030
L4320 73060
L4200 73060
" />
</g>
<g style="fill:#840000; fill-opacity:0.0; 
stroke:#840000; stroke-width:100; stroke-opacity:1; 
stroke-linecap:round; stroke-linejoin:round;">
</g>
<g style="fill:#840000; fill-opacity:0.0; 
stroke:#840000; stroke-width:60; stroke-opacity:1; 
stroke-linecap:round; stroke-linejoin:round;">
<path d="M112990 23620
L112210 23620
" />
</g>
<g style="fill:#840000; fill-opacity:0.0; 
stroke:#840000; stroke-width:100; stroke-opacity:1; 
stroke-linecap:round; stroke-linejoin:round;">
</g>
<g style="fill:#840000; fill-opacity:0.0; 
stroke:#840000; stroke-width:60; stroke-opacity:1; 
stroke-linecap:round; stroke-linejoin:round;">
<path d="M112990 43310
L112210 43310
" />
</g>
<g style="fill:#840000; fill-opacity:0.0; 
stroke:#840000; stroke-width:100; stroke-opacity:1; 
stroke-linecap:round; stroke-linejoin:round;">
</g>
<g style="fill:#840000; fill-opacity:0.0; 
stroke:#840000; stroke-width:60; stroke-opacity:1; 
stroke-linecap:round; stroke-linejoin:round;">
<path d="M112990 62990
L112210 62990
" />
</g>
<g style="fill:#840000; fill-opacity:0.0; 
stroke:#840000; stroke-width:100; stroke-opacity:1; 
stroke-linecap:round; stroke-linejoin:round;">
</g>
<g style="fill:#840000; fill-opacity:0.0; 
stroke:#840000; stroke-width:60; stroke-opacity:1; 
stroke-linecap:round; stroke-linejoin:round;">
<path d="M112480 13860
L112720 13860
" />
<path d="M112430 14010
L112600 13500
L112770 14010
" />
</g>
<g style="fill:#840000; fill-opacity:0.0; 
stroke:#840000; stroke-width:100; stroke-opacity:1; 
stroke-linecap:round; stroke-linejoin:round;">
</g>
<g style="fill:#840000; fill-opacity:0.0; 
stroke:#840000; stroke-width:60; stroke-opacity:1; 
stroke-linecap:round; stroke-linejoin:round;">
<path d="M112640 33420
L112710 33440
L112740 33470
L112760 33520
L112760 33590
L112740 33640
L112710 33660
L112670 33690
L112470 33690
L112470 33180
L112640 33180
L112690 33200
L112710 33220
L112740 33270
L112740 33320
L112710 33370
L112690 33390
L112640 33420
L112470 33420
" />
</g>
<g style="fill:#840000; fill-opacity:0.0; 
stroke:#840000; stroke-width:100; stroke-opacity:1; 
stroke-linecap:round; stroke-linejoin:round;">
</g>
<g style="fill:#840000; fill-opacity:0.0; 
stroke:#840000; stroke-width:60; stroke-opacity:1; 
stroke-linecap:round; stroke-linejoin:round;">
<path d="M112760 53330
L112740 53350
L112670 53380
L112620 53380
L112540 53350
L112500 53300
L112470 53250
L112450 53160
L112450 53080
L112470 52990
L112500 52940
L112540 52890
L112620 52870
L112670 52870
L112740 52890
L112760 52910
" />
</g>
<g style="fill:#840000; fill-opacity:0.0; 
stroke:#840000; stroke-width:100; stroke-opacity:1; 
stroke-linecap:round; stroke-linejoin:round;">
</g>
<g style="fill:#840000; fill-opacity:0.0; 
stroke:#840000; stroke-width:60; stroke-opacity:1; 
stroke-linecap:round; stroke-linejoin:round;">
<path d="M112470 73060
L112470 72550
L112590 72550
L112670 72570
L112710 72620
L112740 72670
L112760 72760
L112760 72840
L112740 72930
L112710 72980
L112670 73030
L112590 73060
L112470 73060
" />
</g>
<g style="fill:#840000; fill-opacity:0.0; 
stroke:#840000; stroke-width:100; stroke-opacity:1; 
stroke-linecap:round; stroke-linejoin:round;">
</g>
<g style="fill:#840000; fill-opacity:0.0; 
stroke:#840000; stroke-width:60; stroke-opacity:1; 
stroke-linecap:round; stroke-linejoin:round;">
<path d="M78880 76290
L78880 75700
L79020 75700
L79110 75730
L79160 75790
L79190 75840
L79220 75950
L79220 76040
L79190 76150
L79160 76210
L79110 76260
L79020 76290
L78880 76290
" />
<path d="M79720 76290
L79720 75980
L79700 75930
L79640 75900
L79530 75900
L79470 75930
" />
<path d="M79720 76260
L79670 76290
L79530 76290
L79470 76260
L79440 76210
L79440 76150
L79470 76100
L79530 76070
L79670 76070
L79720 76040
" />
<path d="M79920 75900
L80140 75900
" />
<path d="M80000 75700
L80000 76210
L80030 76260
L80080 76290
L80140 76290
" />
<path d="M80570 76260
L80510 76290
L80400 76290
L80340 76260
L80310 76210
L80310 75980
L80340 75930
L80400 75900
L80510 75900
L80570 75930
L80590 75980
L80590 76040
L80310 76100
" />
<path d="M80850 76240
L80880 76260
L80850 76290
L80820 76260
L80850 76240
L80850 76290
" />
<path d="M80850 75930
L80880 75950
L80850 75980
L80820 75950
L80850 75930
L80850 75980
" />
<path d="M81550 75760
L81580 75730
L81640 75700
L81780 75700
L81830 75730
L81860 75760
L81890 75810
L81890 75870
L81860 75950
L81520 76290
L81890 76290
" />
<path d="M82250 75700
L82310 75700
L82370 75730
L82390 75760
L82420 75810
L82450 75930
L82450 76070
L82420 76180
L82390 76240
L82370 76260
L82310 76290
L82250 76290
L82200 76260
L82170 76240
L82140 76180
L82110 76070
L82110 75930
L82140 75810
L82170 75760
L82200 75730
L82250 75700
" />
<path d="M83010 76290
L82670 76290
" />
<path d="M82840 76290
L82840 75700
L82780 75790
L82730 75840
L82670 75870
" />
<path d="M83200 75700
L83600 75700
L83340 76290
" />
<path d="M83820 76070
L84270 76070
" />
<path d="M84660 75700
L84720 75700
L84780 75730
L84800 75760
L84830 75810
L84860 75930
L84860 76070
L84830 76180
L84800 76240
L84780 76260
L84720 76290
L84660 76290
L84610 76260
L84580 76240
L84550 76180
L84520 76070
L84520 75930
L84550 75810
L84580 75760
L84610 75730
L84660 75700
" />
<path d="M85190 75950
L85140 75930
L85110 75900
L85080 75840
L85080 75810
L85110 75760
L85140 75730
L85190 75700
L85310 75700
L85360 75730
L85390 75760
L85420 75810
L85420 75840
L85390 75900
L85360 75930
L85310 75950
L85190 75950
L85140 75980
L85110 76010
L85080 76070
L85080 76180
L85110 76240
L85140 76260
L85190 76290
L85310 76290
L85360 76260
L85390 76240
L85420 76180
L85420 76070
L85390 76010
L85360 75980
L85310 75950
" />
<path d="M85670 76070
L86120 76070
" />
<path d="M86370 75760
L86400 75730
L86460 75700
L86600 75700
L86650 75730
L86680 75760
L86710 75810
L86710 75870
L86680 75950
L86340 76290
L86710 76290
" />
<path d="M86900 75700
L87270 75700
L87070 75930
L87160 75930
L87210 75950
L87240 75980
L87270 76040
L87270 76180
L87240 76240
L87210 76260
L87160 76290
L86990 76290
L86930 76260
L86900 76240
" />
</g>
<g style="fill:#840000; fill-opacity:0.0; 
stroke:#840000; stroke-width:100; stroke-opacity:1; 
stroke-linecap:round; stroke-linejoin:round;">
</g>
<g style="fill:#840000; fill-opacity:0.0; 
stroke:#840000; stroke-width:60; stroke-opacity:1; 
stroke-linecap:round; stroke-linejoin:round;">
<path d="M69690 76580
L112210 76580
" />
</g>
<g style="fill:#840000; fill-opacity:0.0; 
stroke:#840000; stroke-width:100; stroke-opacity:1; 
stroke-linecap:round; stroke-linejoin:round;">
</g>
<g style="fill:#840000; fill-opacity:0.0; 
stroke:#840000; stroke-width:60; stroke-opacity:1; 
stroke-linecap:round; stroke-linejoin:round;">
<path d="M70220 77390
L70220 76800
" />
<path d="M70560 77390
L70300 77050
" />
<path d="M70560 76800
L70220 77140
" />
<path d="M70810 77390
L70810 77000
" />
<path d="M70810 76800
L70780 76830
L70810 76860
L70840 76830
L70810 76800
L70810 76860
" />
<path d="M71430 77340
L71400 77360
L71320 77390
L71260 77390
L71170 77360
L71120 77310
L71090 77250
L71060 77140
L71060 77050
L71090 76940
L71120 76890
L71170 76830
L71260 76800
L71320 76800
L71400 76830
L71430 76860
" />
<path d="M71930 77390
L71930 77080
L71910 77030
L71850 77000
L71740 77000
L71680 77030
" />
<path d="M71930 77360
L71880 77390
L71740 77390
L71680 77360
L71650 77310
L71650 77250
L71680 77200
L71740 77170
L71880 77170
L71930 77140
" />
<path d="M72460 77390
L72460 76800
" />
<path d="M72460 77360
L72410 77390
L72290 77390
L72240 77360
L72210 77340
L72180 77280
L72180 77110
L72210 77050
L72240 77030
L72290 77000
L72410 77000
L72460 77030
" />
<path d="M73190 77080
L73390 77080
" />
<path d="M73470 77390
L73190 77390
L73190 76800
L73470 76800
" />
<path d="M73720 77340
L73750 77360
L73720 77390
L73690 77360
L73720 77340
L73720 77390
" />
<path d="M74000 77390
L74000 76800
L74140 76800
L74230 76830
L74280 76890
L74310 76940
L74340 77050
L74340 77140
L74310 77250
L74280 77310
L74230 77360
L74140 77390
L74000 77390
" />
<path d="M74590 77340
L74620 77360
L74590 77390
L74560 77360
L74590 77340
L74590 77390
" />
<path d="M74840 77220
L75120 77220
" />
<path d="M74790 77390
L74980 76800
L75180 77390
" />
<path d="M75380 77340
L75410 77360
L75380 77390
L75350 77360
L75380 77340
L75380 77390
" />
<path d="M76560 77390
L76560 76800
" />
<path d="M76620 77170
L76790 77390
" />
<path d="M76790 77000
L76560 77220
" />
<path d="M77040 77390
L77040 77000
" />
<path d="M77040 76800
L77010 76830
L77040 76860
L77070 76830
L77040 76800
L77040 76860
" />
<path d="M77570 77360
L77520 77390
L77400 77390
L77350 77360
L77320 77340
L77290 77280
L77290 77110
L77320 77050
L77350 77030
L77400 77000
L77520 77000
L77570 77030
" />
<path d="M78080 77390
L78080 77080
L78060 77030
L78000 77000
L77890 77000
L77830 77030
" />
<path d="M78080 77360
L78030 77390
L77890 77390
L77830 77360
L77800 77310
L77800 77250
L77830 77200
L77890 77170
L78030 77170
L78080 77140
" />
<path d="M78610 77390
L78610 76800
" />
<path d="M78610 77360
L78560 77390
L78440 77390
L78390 77360
L78360 77340
L78330 77280
L78330 77110
L78360 77050
L78390 77030
L78440 77000
L78560 77000
L78610 77030
" />
<path d="M79590 77000
L79590 77390
" />
<path d="M79450 76770
L79310 77200
L79680 77200
" />
<path d="M79900 77340
L79930 77360
L79900 77390
L79870 77360
L79900 77340
L79900 77390
" />
<path d="M80290 76800
L80350 76800
L80410 76830
L80430 76860
L80460 76910
L80490 77030
L80490 77170
L80460 77280
L80430 77340
L80410 77360
L80350 77390
L80290 77390
L80240 77360
L80210 77340
L80180 77280
L80150 77170
L80150 77030
L80180 76910
L80210 76860
L80240 76830
L80290 76800
" />
<path d="M80740 77340
L80770 77360
L80740 77390
L80710 77360
L80740 77340
L80740 77390
" />
<path d="M81270 76800
L81160 76800
L81100 76830
L81080 76860
L81020 76940
L80990 77050
L80990 77280
L81020 77340
L81050 77360
L81100 77390
L81220 77390
L81270 77360
L81300 77340
L81330 77280
L81330 77140
L81300 77080
L81270 77050
L81220 77030
L81100 77030
L81050 77050
L81020 77080
L80990 77140
" />
</g>
<g style="fill:#840000; fill-opacity:0.0; 
stroke:#840000; stroke-width:100; stroke-opacity:1; 
stroke-linecap:round; stroke-linejoin:round;">
</g>
<g style="fill:#840000; fill-opacity:0.0; 
stroke:#840000; stroke-width:60; stroke-opacity:1; 
stroke-linecap:round; stroke-linejoin:round;">
<path d="M69690 75400
L112210 75400
" />
</g>
<g style="fill:#840000; fill-opacity:0.0; 
stroke:#840000; stroke-width:100; stroke-opacity:1; 
stroke-linecap:round; stroke-linejoin:round;">
</g>
<g style="fill:#840000; fill-opacity:0.0; 
stroke:#840000; stroke-width:120; stroke-opacity:1; 
stroke-linecap:round; stroke-linejoin:round;">
<path d="M104020 76290
L103820 76010
" />
<path d="M103680 76290
L103680 75700
L103910 75700
L103960 75730
L103990 75760
L104020 75810
L104020 75900
L103990 75950
L103960 75980
L103910 76010
L103680 76010
" />
<path d="M104500 76260
L104440 76290
L104330 76290
L104270 76260
L104240 76210
L104240 75980
L104270 75930
L104330 75900
L104440 75900
L104500 75930
L104520 75980
L104520 76040
L104240 76100
" />
<path d="M104720 75900
L104860 76290
L105010 75900
" />
<path d="M105230 76240
L105260 76260
L105230 76290
L105200 76260
L105230 76240
L105230 76290
" />
<path d="M105230 75930
L105260 75950
L105230 75980
L105200 75950
L105230 75930
L105230 75980
" />
<path d="M105930 75760
L105960 75730
L106020 75700
L106160 75700
L106210 75730
L106240 75760
L106270 75810
L106270 75870
L106240 75950
L105900 76290
L106270 76290
" />
</g>
<g style="fill:#840000; fill-opacity:0.0; 
stroke:#840000; stroke-width:100; stroke-opacity:1; 
stroke-linecap:round; stroke-linejoin:round;">
</g>
<g style="fill:#840000; fill-opacity:0.0; 
stroke:#840000; stroke-width:60; stroke-opacity:1; 
stroke-linecap:round; stroke-linejoin:round;">
<path d="M70190 76260
L70280 76290
L70420 76290
L70470 76260
L70500 76240
L70530 76180
L70530 76120
L70500 76070
L70470 76040
L70420 76010
L70300 75980
L70250 75950
L70220 75930
L70190 75870
L70190 75810
L70220 75760
L70250 75730
L70300 75700
L70450 75700
L70530 75730
" />
<path d="M70780 76290
L70780 75900
" />
<path d="M70780 75700
L70750 75730
L70780 75760
L70810 75730
L70780 75700
L70780 75760
" />
<path d="M71000 75900
L71310 75900
L71000 76290
L71310 76290
" />
<path d="M71770 76260
L71710 76290
L71600 76290
L71540 76260
L71510 76210
L71510 75980
L71540 75930
L71600 75900
L71710 75900
L71770 75930
L71790 75980
L71790 76040
L71510 76100
" />
<path d="M72050 76240
L72080 76260
L72050 76290
L72020 76260
L72050 76240
L72050 76290
" />
<path d="M72050 75930
L72080 75950
L72050 75980
L72020 75950
L72050 75930
L72050 75980
" />
<path d="M72750 76120
L73030 76120
" />
<path d="M72700 76290
L72890 75700
L73090 76290
" />
<path d="M73540 75900
L73540 76290
" />
<path d="M73400 75670
L73260 76100
L73630 76100
" />
</g>
<g style="fill:#840000; fill-opacity:0.0; 
stroke:#840000; stroke-width:100; stroke-opacity:1; 
stroke-linecap:round; stroke-linejoin:round;">
</g>
<g style="fill:#840000; fill-opacity:0.0; 
stroke:#840000; stroke-width:60; stroke-opacity:1; 
stroke-linecap:round; stroke-linejoin:round;">
<path d="M103680 77390
L103680 76800
" />
<path d="M104210 77390
L104210 76800
" />
<path d="M104210 77360
L104160 77390
L104040 77390
L103990 77360
L103960 77340
L103930 77280
L103930 77110
L103960 77050
L103990 77030
L104040 77000
L104160 77000
L104210 77030
" />
<path d="M104490 77340
L104520 77360
L104490 77390
L104460 77360
L104490 77340
L104490 77390
" />
<path d="M104490 77030
L104520 77050
L104490 77080
L104460 77050
L104490 77030
L104490 77080
" />
<path d="M105530 77390
L105190 77390
" />
<path d="M105360 77390
L105360 76800
L105300 76890
L105250 76940
L105190 76970
" />
<path d="M106200 76770
L105700 77530
" />
<path d="M106710 77390
L106370 77390
" />
<path d="M106540 77390
L106540 76800
L106480 76890
L106430 76940
L106370 76970
" />
</g>
<g style="fill:#840000; fill-opacity:0.0; 
stroke:#840000; stroke-width:100; stroke-opacity:1; 
stroke-linecap:round; stroke-linejoin:round;">
</g>
<g style="fill:#840000; fill-opacity:0.0; 
stroke:#840000; stroke-width:60; stroke-opacity:1; 
stroke-linecap:round; stroke-linejoin:round;">
<path d="M69690 73820
L112210 73820
" />
</g>
<g style="fill:#840000; fill-opacity:0.0; 
stroke:#840000; stroke-width:100; stroke-opacity:1; 
stroke-linecap:round; stroke-linejoin:round;">
</g>
<g style="fill:#840000; fill-opacity:0.0; 
stroke:#840000; stroke-width:160; stroke-opacity:1; 
stroke-linecap:round; stroke-linejoin:round;">
<path d="M70260 74090
L70710 74090
" />
<path d="M70390 74880
L70480 74090
" />
<path d="M70880 74880
L70940 74360
" />
<path d="M70970 74090
L70930 74130
L70960 74170
L71010 74130
L70970 74090
L70960 74170
" />
<path d="M71210 74360
L71510 74360
" />
<path d="M71350 74090
L71270 74770
L71300 74840
L71370 74880
L71450 74880
" />
<path d="M71820 74880
L71750 74840
L71720 74770
L71800 74090
" />
<path d="M72420 74840
L72340 74880
L72190 74880
L72120 74840
L72090 74770
L72130 74470
L72180 74390
L72250 74360
L72400 74360
L72480 74390
L72510 74470
L72500 74540
L72110 74620
" />
<path d="M72800 74810
L72840 74840
L72800 74880
L72760 74840
L72800 74810
L72800 74880
" />
<path d="M72860 74390
L72890 74430
L72850 74470
L72810 74430
L72860 74390
L72850 74470
" />
<path d="M74230 74810
L74190 74840
L74080 74880
L74000 74880
L73890 74840
L73830 74770
L73800 74690
L73780 74540
L73790 74430
L73850 74280
L73900 74210
L73980 74130
L74090 74090
L74170 74090
L74280 74130
L74310 74170
" />
<path d="M74910 74880
L74960 74470
L74930 74390
L74850 74360
L74700 74360
L74630 74390
" />
<path d="M74910 74840
L74830 74880
L74640 74880
L74570 74840
L74540 74770
L74550 74690
L74600 74620
L74670 74580
L74860 74580
L74950 74540
" />
<path d="M75280 74880
L75340 74360
" />
<path d="M75330 74430
L75380 74390
L75450 74360
L75560 74360
L75640 74390
L75670 74470
L75620 74880
" />
<path d="M75670 74470
L75710 74390
L75790 74360
L75900 74360
L75980 74390
L76010 74470
L75960 74880
" />
<path d="M76630 74840
L76550 74880
L76400 74880
L76330 74840
L76300 74770
L76340 74470
L76390 74390
L76460 74360
L76610 74360
L76690 74390
L76720 74470
L76710 74540
L76320 74620
" />
<path d="M77010 74880
L77070 74360
" />
<path d="M77050 74510
L77100 74430
L77140 74390
L77220 74360
L77290 74360
" />
<path d="M77840 74880
L77890 74470
L77860 74390
L77780 74360
L77630 74360
L77560 74390
" />
<path d="M77840 74840
L77760 74880
L77570 74880
L77500 74840
L77470 74770
L77480 74690
L77530 74620
L77600 74580
L77790 74580
L77880 74540
" />
<path d="M78920 74880
L78850 74840
L78820 74770
L78900 74090
" />
<path d="M79220 74880
L79280 74360
" />
<path d="M79310 74090
L79270 74130
L79300 74170
L79350 74130
L79310 74090
L79300 74170
" />
<path d="M80000 74360
L79920 75000
L79870 75070
L79830 75110
L79750 75150
L79630 75150
L79570 75110
" />
<path d="M79940 74840
L79860 74880
L79710 74880
L79640 74840
L79600 74810
L79570 74730
L79600 74510
L79650 74430
L79700 74390
L79770 74360
L79920 74360
L80000 74390
" />
<path d="M80310 74880
L80400 74090
" />
<path d="M80650 74880
L80700 74470
L80670 74390
L80590 74360
L80480 74360
L80410 74390
L80360 74430
" />
<path d="M80970 74360
L81270 74360
" />
<path d="M81110 74090
L81030 74770
L81060 74840
L81130 74880
L81210 74880
" />
<path d="M82110 74170
L82160 74130
L82230 74090
L82420 74090
L82500 74130
L82520 74170
L82560 74240
L82550 74320
L82490 74430
L81990 74880
L82480 74880
" />
</g>
<g style="fill:#840000; fill-opacity:0.0; 
stroke:#840000; stroke-width:100; stroke-opacity:1; 
stroke-linecap:round; stroke-linejoin:round;">
</g>
<g style="fill:#840000; fill-opacity:0.0; 
stroke:#840000; stroke-width:60; stroke-opacity:1; 
stroke-linecap:round; stroke-linejoin:round;">
<path d="M70420 73060
L70220 73060
" />
<path d="M70220 73370
L70220 72780
L70500 72780
" />
<path d="M70730 73370
L70730 72980
" />
<path d="M70730 72780
L70700 72810
L70730 72840
L70760 72810
L70730 72780
L70730 72840
" />
<path d="M71090 73370
L71040 73340
L71010 73290
L71010 72780
" />
<path d="M71550 73340
L71490 73370
L71380 73370
L71320 73340
L71290 73290
L71290 73060
L71320 73010
L71380 72980
L71490 72980
L71550 73010
L71570 73060
L71570 73120
L71290 73180
" />
<path d="M71830 73320
L71860 73340
L71830 73370
L71800 73340
L71830 73320
L71830 73370
" />
<path d="M71830 73010
L71860 73030
L71830 73060
L71800 73030
L71830 73010
L71830 73060
" />
<path d="M72810 73340
L72760 73370
L72640 73370
L72590 73340
L72560 73320
L72530 73260
L72530 73090
L72560 73030
L72590 73010
L72640 72980
L72760 72980
L72810 73010
" />
<path d="M73320 73370
L73320 73060
L73300 73010
L73240 72980
L73130 72980
L73070 73010
" />
<path d="M73320 73340
L73270 73370
L73130 73370
L73070 73340
L73040 73290
L73040 73230
L73070 73180
L73130 73150
L73270 73150
L73320 73120
" />
<path d="M73600 73370
L73600 72980
" />
<path d="M73600 73030
L73630 73010
L73680 72980
L73770 72980
L73830 73010
L73850 73060
L73850 73370
" />
<path d="M73850 73060
L73880 73010
L73940 72980
L74020 72980
L74080 73010
L74110 73060
L74110 73370
" />
<path d="M74620 73340
L74560 73370
L74450 73370
L74390 73340
L74360 73290
L74360 73060
L74390 73010
L74450 72980
L74560 72980
L74620 73010
L74640 73060
L74640 73120
L74360 73180
" />
<path d="M74900 73370
L74900 72980
" />
<path d="M74900 73090
L74930 73030
L74960 73010
L75010 72980
L75070 72980
" />
<path d="M75520 73370
L75520 73060
L75500 73010
L75440 72980
L75330 72980
L75270 73010
" />
<path d="M75520 73340
L75470 73370
L75330 73370
L75270 73340
L75240 73290
L75240 73230
L75270 73180
L75330 73150
L75470 73150
L75520 73120
" />
<path d="M75800 73150
L76250 73150
" />
<path d="M76610 73370
L76560 73340
L76530 73290
L76530 72780
" />
<path d="M76840 73370
L76840 72980
" />
<path d="M76840 72780
L76810 72810
L76840 72840
L76870 72810
L76840 72780
L76840 72840
" />
<path d="M77370 72980
L77370 73460
L77350 73510
L77320 73540
L77260 73570
L77180 73570
L77120 73540
" />
<path d="M77370 73340
L77320 73370
L77200 73370
L77150 73340
L77120 73320
L77090 73260
L77090 73090
L77120 73030
L77150 73010
L77200 72980
L77320 72980
L77370 73010
" />
<path d="M77650 73370
L77650 72780
" />
<path d="M77900 73370
L77900 73060
L77880 73010
L77820 72980
L77730 72980
L77680 73010
L77650 73030
" />
<path d="M78100 72980
L78320 72980
" />
<path d="M78180 72780
L78180 73290
L78210 73340
L78260 73370
L78320 73370
" />
<path d="M78520 73320
L78550 73340
L78520 73370
L78490 73340
L78520 73320
L78520 73370
" />
<path d="M78770 73340
L78830 73370
L78940 73370
L79000 73340
L79030 73290
L79030 73260
L79000 73200
L78940 73180
L78860 73180
L78800 73150
L78770 73090
L78770 73060
L78800 73010
L78860 72980
L78940 72980
L79000 73010
" />
<path d="M79530 73340
L79480 73370
L79360 73370
L79310 73340
L79280 73320
L79250 73260
L79250 73090
L79280 73030
L79310 73010
L79360 72980
L79480 72980
L79530 73010
" />
<path d="M79790 73370
L79790 72780
" />
<path d="M80040 73370
L80040 73060
L80020 73010
L79960 72980
L79870 72980
L79820 73010
L79790 73030
" />
</g>
<g style="fill:#840000; fill-opacity:0.0; 
stroke:#840000; stroke-width:100; stroke-opacity:1; 
stroke-linecap:round; stroke-linejoin:round;">
</g>
<g style="fill:#840000; fill-opacity:0.0; 
stroke:#840000; stroke-width:60; stroke-opacity:1; 
stroke-linecap:round; stroke-linejoin:round;">
<path d="M69690 71460
L112210 71460
" />
</g>
<g style="fill:#840000; fill-opacity:0.0; 
stroke:#840000; stroke-width:100; stroke-opacity:1; 
stroke-linecap:round; stroke-linejoin:round;">
</g>
<g style="fill:#840000; fill-opacity:0.0; 
stroke:#840000; stroke-width:60; stroke-opacity:1; 
stroke-linecap:round; stroke-linejoin:round;">
<path d="M70190 72280
L70280 72310
L70420 72310
L70470 72280
L70500 72260
L70530 72200
L70530 72140
L70500 72090
L70470 72060
L70420 72030
L70300 72000
L70250 71970
L70220 71950
L70190 71890
L70190 71830
L70220 71780
L70250 71750
L70300 71720
L70450 71720
L70530 71750
" />
<path d="M70780 72310
L70780 71720
" />
<path d="M71030 72310
L71030 72000
L71010 71950
L70950 71920
L70860 71920
L70810 71950
L70780 71970
" />
<path d="M71540 72280
L71480 72310
L71370 72310
L71310 72280
L71280 72230
L71280 72000
L71310 71950
L71370 71920
L71480 71920
L71540 71950
L71560 72000
L71560 72060
L71280 72120
" />
<path d="M72050 72280
L71990 72310
L71880 72310
L71820 72280
L71790 72230
L71790 72000
L71820 71950
L71880 71920
L71990 71920
L72050 71950
L72070 72000
L72070 72060
L71790 72120
" />
<path d="M72250 71920
L72470 71920
" />
<path d="M72330 71720
L72330 72230
L72360 72280
L72410 72310
L72470 72310
" />
<path d="M72670 72260
L72700 72280
L72670 72310
L72640 72280
L72670 72260
L72670 72310
" />
<path d="M72670 71950
L72700 71970
L72670 72000
L72640 71970
L72670 71950
L72670 72000
" />
<path d="M73820 71690
L73320 72450
" />
</g>
<g style="fill:#840000; fill-opacity:0.0; 
stroke:#840000; stroke-width:100; stroke-opacity:1; 
stroke-linecap:round; stroke-linejoin:round;">
</g>
<g style="fill:#840000; fill-opacity:0.0; 
stroke:#840000; stroke-width:120; stroke-opacity:1; 
stroke-linecap:round; stroke-linejoin:round;">
<path d="M70140 70540
L70330 71130
L70530 70540
" />
<path d="M70730 71130
L70730 70540
" />
<path d="M71010 71130
L71010 70540
L71240 70540
L71290 70570
L71320 70600
L71350 70650
L71350 70740
L71320 70790
L71290 70820
L71240 70850
L71010 70850
" />
<path d="M71600 70820
L71800 70820
" />
<path d="M71880 71130
L71600 71130
L71600 70540
L71880 70540
" />
<path d="M72470 71130
L72270 70850
" />
<path d="M72130 71130
L72130 70540
L72360 70540
L72410 70570
L72440 70600
L72470 70650
L72470 70740
L72440 70790
L72410 70820
L72360 70850
L72130 70850
" />
</g>
<g style="fill:#840000; fill-opacity:0.0; 
stroke:#840000; stroke-width:100; stroke-opacity:1; 
stroke-linecap:round; stroke-linejoin:round;">
</g>
<g style="fill:#840000; fill-opacity:0.0; 
stroke:#840000; stroke-width:60; stroke-opacity:1; 
stroke-linecap:round; stroke-linejoin:round;">
<path d="M77560 75400
L77560 76580
" />
</g>
<g style="fill:#840000; fill-opacity:0.0; 
stroke:#840000; stroke-width:100; stroke-opacity:1; 
stroke-linecap:round; stroke-linejoin:round;">
</g>
<g style="fill:#840000; fill-opacity:0.0; 
stroke:#840000; stroke-width:60; stroke-opacity:1; 
stroke-linecap:round; stroke-linejoin:round;">
<path d="M102760 75400
L102760 77960
" />
</g>
<g style="fill:#840000; fill-opacity:0.0; 
stroke:#840000; stroke-width:0; stroke-opacity:1; 
stroke-linecap:round; stroke-linejoin:round;">
</g>
<g style="fill:#840000; fill-opacity:0.0; 
stroke:#840000; stroke-width:80; stroke-opacity:1; 
stroke-linecap:round; stroke-linejoin:round;">
<polyline fill="none;"
points="51000,27000
50000,27000
" /> 
</g>
<g style="fill:#840000; fill-opacity:0.0; 
stroke:#840000; stroke-width:60; stroke-opacity:1; 
stroke-linecap:round; stroke-linejoin:round;">
<polyline fill="none;"
points="50500,27000
50500,26000
" /> 
</g>
<g style="fill:#840000; fill-opacity:0.0; 
stroke:#840000; stroke-width:80; stroke-opacity:1; 
stroke-linecap:round; stroke-linejoin:round;">
<polyline fill="none;"
points="51000,26000
50000,26000
50500,27000
51000,26000
" /> 
</g>
<g style="fill:#840000; fill-opacity:0.0; 
stroke:#840000; stroke-width:60; stroke-opacity:1; 
stroke-linecap:round; stroke-linejoin:round;">
<polyline fill="none;"
points="50800,27700
51400,28300
51400,28000
51400,28300
51100,28300
" /> 
<polyline fill="none;"
points="50800,27200
51400,27800
51400,27500
51400,27800
51100,27800
" /> 
<path d="M50500 27000
L50500 28000
" />
<path d="M50380 27360
L50380 27640
" />
<path d="M50380 27500
L49880 27500
L49950 27550
L50000 27600
L50020 27640
" />
<path d="M50500 26000
L50500 25000
" />
<path d="M49920 25640
L49900 25620
L49880 25570
L49880 25450
L49900 25410
L49920 25380
L49970 25360
L50020 25360
L50090 25380
L50380 25670
L50380 25360
" />
</g>
<g style="fill:#008484; fill-opacity:0.0; 
stroke:#008484; stroke-width:60; stroke-opacity:1; 
stroke-linecap:round; stroke-linejoin:round;">
<path d="M49760 26870
L49260 26870
L49260 26750
L49280 26680
L49330 26630
L49380 26610
L49470 26590
L49540 26590
L49640 26610
L49680 26630
L49730 26680
L49760 26750
L49760 26870
" />
<path d="M49760 26110
L49760 26390
" />
<path d="M49760 26250
L49260 26250
L49330 26300
L49380 26350
L49400 26390
" />
<path d="M51760 26800
L51760 27040
L51260 27040
" />
<path d="M51490 26640
L51490 26470
" />
<path d="M51760 26400
L51760 26640
L51260 26640
L51260 26400
" />
<path d="M51760 26190
L51260 26190
L51260 26070
L51280 26000
L51330 25950
L51380 25930
L51470 25910
L51540 25910
L51640 25930
L51680 25950
L51730 26000
L51760 26070
L51760 26190
" />
</g>
<g style="fill:#840084; fill-opacity:0.0; 
stroke:#840084; stroke-width:60; stroke-opacity:1; 
stroke-linecap:round; stroke-linejoin:round;">
<path d="M52760 32400
L52760 32640
L52260 32640
" />
<path d="M52260 32290
L52760 32170
L52400 32070
L52760 31980
L52260 31860
" />
<path d="M52800 31790
L52800 31410
" />
<path d="M52280 31030
L52260 31080
L52260 31150
L52280 31220
L52330 31270
L52380 31290
L52470 31310
L52540 31310
L52640 31290
L52680 31270
L52730 31220
L52760 31150
L52760 31100
L52730 31030
L52710 31010
L52540 31010
L52540 31100
" />
<path d="M52260 30580
L52260 30670
L52280 30720
L52300 30740
L52380 30790
L52470 30810
L52660 30810
L52710 30790
L52730 30770
L52760 30720
L52760 30620
L52730 30580
L52710 30550
L52660 30530
L52540 30530
L52490 30550
L52470 30580
L52450 30620
L52450 30720
L52470 30770
L52490 30790
L52540 30810
" />
<path d="M52730 30330
L52760 30260
L52760 30140
L52730 30100
L52710 30070
L52660 30050
L52610 30050
L52570 30070
L52540 30100
L52520 30140
L52490 30240
L52470 30290
L52450 30310
L52400 30330
L52350 30330
L52300 30310
L52280 30290
L52260 30240
L52260 30120
L52280 30050
" />
<path d="M52760 29830
L52260 29830
L52260 29640
L52280 29590
L52300 29570
L52350 29550
L52420 29550
L52470 29570
L52490 29590
L52520 29640
L52520 29830
" />
<path d="M52710 29330
L52730 29310
L52760 29330
L52730 29350
L52710 29330
L52760 29330
" />
<path d="M52450 29330
L52470 29310
L52490 29330
L52470 29350
L52450 29330
L52490 29330
" />
<path d="M52760 28850
L52760 29090
L52260 29090
" />
<path d="M52260 28740
L52760 28620
L52400 28520
L52760 28430
L52260 28310
" />
<path d="M52800 28240
L52800 27860
" />
<path d="M52280 27480
L52260 27530
L52260 27600
L52280 27670
L52330 27720
L52380 27740
L52470 27760
L52540 27760
L52640 27740
L52680 27720
L52730 27670
L52760 27600
L52760 27550
L52730 27480
L52710 27460
L52540 27460
L52540 27550
" />
<path d="M52260 27030
L52260 27120
L52280 27170
L52300 27190
L52380 27240
L52470 27260
L52660 27260
L52710 27240
L52730 27220
L52760 27170
L52760 27070
L52730 27030
L52710 27000
L52660 26980
L52540 26980
L52490 27000
L52470 27030
L52450 27070
L52450 27170
L52470 27220
L52490 27240
L52540 27260
" />
<path d="M52730 26780
L52760 26710
L52760 26590
L52730 26550
L52710 26520
L52660 26500
L52610 26500
L52570 26520
L52540 26550
L52520 26590
L52490 26690
L52470 26740
L52450 26760
L52400 26780
L52350 26780
L52300 26760
L52280 26740
L52260 26690
L52260 26570
L52280 26500
" />
<path d="M52760 26280
L52260 26280
L52260 26090
L52280 26040
L52300 26020
L52350 26000
L52420 26000
L52470 26020
L52490 26040
L52520 26090
L52520 26280
" />
<path d="M52800 25900
L52800 25520
" />
<path d="M52760 25400
L52260 25400
" />
<path d="M52490 25400
L52490 25120
" />
<path d="M52760 25120
L52260 25120
" />
<path d="M52760 24670
L52490 24670
L52450 24690
L52420 24740
L52420 24830
L52450 24880
" />
<path d="M52730 24670
L52760 24710
L52760 24830
L52730 24880
L52680 24900
L52640 24900
L52590 24880
L52570 24830
L52570 24710
L52540 24670
" />
<path d="M52420 24430
L52760 24430
" />
<path d="M52470 24430
L52450 24410
L52420 24360
L52420 24290
L52450 24240
L52490 24220
L52760 24220
" />
<path d="M52760 23770
L52260 23770
" />
<path d="M52730 23770
L52760 23810
L52760 23910
L52730 23960
L52710 23980
L52660 24000
L52520 24000
L52470 23980
L52450 23960
L52420 23910
L52420 23810
L52450 23770
" />
<path d="M52730 23550
L52760 23510
L52760 23410
L52730 23360
L52680 23340
L52660 23340
L52610 23360
L52590 23410
L52590 23480
L52570 23530
L52520 23550
L52490 23550
L52450 23530
L52420 23480
L52420 23410
L52450 23360
" />
<path d="M52760 23060
L52730 23110
L52710 23130
L52660 23150
L52520 23150
L52470 23130
L52450 23110
L52420 23060
L52420 22990
L52450 22940
L52470 22920
L52520 22890
L52660 22890
L52710 22920
L52730 22940
L52760 22990
L52760 23060
" />
<path d="M52760 22610
L52730 22660
L52680 22680
L52260 22680
" />
<path d="M52760 22210
L52260 22210
" />
<path d="M52730 22210
L52760 22250
L52760 22350
L52730 22400
L52710 22420
L52660 22440
L52520 22440
L52470 22420
L52450 22400
L52420 22350
L52420 22250
L52450 22210
" />
<path d="M52730 21780
L52760 21830
L52760 21920
L52730 21970
L52680 21990
L52490 21990
L52450 21970
L52420 21920
L52420 21830
L52450 21780
L52490 21760
L52540 21760
L52590 21990
" />
<path d="M52760 21540
L52420 21540
" />
<path d="M52520 21540
L52470 21520
L52450 21490
L52420 21450
L52420 21400
" />
<path d="M52760 21230
L52420 21230
" />
<path d="M52260 21230
L52280 21250
L52300 21230
L52280 21210
L52260 21230
L52300 21230
" />
<path d="M52420 20990
L52760 20990
" />
<path d="M52470 20990
L52450 20970
L52420 20920
L52420 20850
L52450 20800
L52490 20780
L52760 20780
" />
<path d="M52420 20330
L52830 20330
L52880 20350
L52900 20370
L52920 20420
L52920 20490
L52900 20540
" />
<path d="M52730 20330
L52760 20370
L52760 20470
L52730 20520
L52710 20540
L52660 20560
L52520 20560
L52470 20540
L52450 20520
L52420 20470
L52420 20370
L52450 20330
" />
</g>
<g style="fill:#840084; fill-opacity:0.0; 
stroke:#840084; stroke-width:0; stroke-opacity:1; 
stroke-linecap:round; stroke-linejoin:round;">
</g>
<g style="fill:#840000; fill-opacity:0.0; 
stroke:#840000; stroke-width:0; stroke-opacity:1; 
stroke-linecap:round; stroke-linejoin:round;">
</g>
<g style="fill:#840000; fill-opacity:0.0; 
stroke:#840000; stroke-width:60; stroke-opacity:1; 
stroke-linecap:round; stroke-linejoin:round;">
<rect x="46400" y="26950" width="600" height="100" rx="0" />
<rect x="46400" y="25950" width="600" height="100" rx="0" />
<rect x="46000" y="25500" width="1000" height="2000" rx="0" />
<path d="M47000 26000
L48500 26000
" />
<path d="M47890 25880
L47610 25880
" />
<path d="M47750 25880
L47750 25380
L47700 25450
L47650 25500
L47610 25520
" />
<path d="M47000 27000
L48500 27000
" />
<path d="M47610 26420
L47630 26400
L47680 26380
L47800 26380
L47840 26400
L47870 26420
L47890 26470
L47890 26520
L47870 26590
L47580 26880
L47890 26880
" />
</g>
<g style="fill:#008484; fill-opacity:0.0; 
stroke:#008484; stroke-width:60; stroke-opacity:1; 
stroke-linecap:round; stroke-linejoin:round;">
<path d="M46130 25260
L46130 24760
L46320 24760
L46370 24780
L46390 24800
L46410 24850
L46410 24920
L46390 24970
L46370 24990
L46320 25020
L46130 25020
" />
<path d="M46890 25260
L46610 25260
" />
<path d="M46750 25260
L46750 24760
L46700 24830
L46650 24880
L46610 24900
" />
<path d="M45640 28520
L45660 28540
L45690 28610
L45690 28660
L45660 28730
L45610 28780
L45570 28800
L45470 28820
L45400 28820
L45310 28800
L45260 28780
L45210 28730
L45190 28660
L45190 28610
L45210 28540
L45230 28520
" />
<path d="M45190 28210
L45190 28110
L45210 28060
L45260 28020
L45350 27990
L45520 27990
L45610 28020
L45660 28060
L45690 28110
L45690 28210
L45660 28250
L45610 28300
L45520 28320
L45350 28320
L45260 28300
L45210 28250
L45190 28210
" />
<path d="M45690 27780
L45190 27780
L45690 27500
L45190 27500
" />
<path d="M45690 27260
L45190 27260
L45690 26980
L45190 26980
" />
<path d="M45730 26860
L45730 26480
" />
<path d="M45190 26270
L45190 26220
L45210 26170
L45230 26150
L45280 26120
L45380 26100
L45500 26100
L45590 26120
L45640 26150
L45660 26170
L45690 26220
L45690 26270
L45660 26310
L45640 26340
L45590 26360
L45500 26380
L45380 26380
L45280 26360
L45230 26340
L45210 26310
L45190 26270
" />
<path d="M45690 25620
L45690 25900
" />
<path d="M45690 25760
L45190 25760
L45260 25810
L45310 25860
L45330 25900
" />
<path d="M45190 25450
L45690 25120
" />
<path d="M45190 25120
L45690 25450
" />
<path d="M45190 24830
L45190 24780
L45210 24730
L45230 24710
L45280 24680
L45380 24660
L45500 24660
L45590 24680
L45640 24710
L45660 24730
L45690 24780
L45690 24830
L45660 24870
L45640 24900
L45590 24920
L45500 24940
L45380 24940
L45280 24920
L45230 24900
L45210 24870
L45190 24830
" />
<path d="M45230 24460
L45210 24440
L45190 24390
L45190 24270
L45210 24230
L45230 24200
L45280 24180
L45330 24180
L45400 24200
L45690 24490
L45690 24180
" />
</g>
<g style="fill:#840084; fill-opacity:0.0; 
stroke:#840084; stroke-width:60; stroke-opacity:1; 
stroke-linecap:round; stroke-linejoin:round;">
<path d="M38200 21760
L38200 21260
L38390 21260
L38440 21280
L38460 21300
L38480 21350
L38480 21420
L38460 21470
L38440 21490
L38390 21520
L38200 21520
" />
<path d="M38700 21760
L38700 21420
" />
<path d="M38700 21260
L38680 21280
L38700 21300
L38720 21280
L38700 21260
L38700 21300
" />
<path d="M38940 21420
L38940 21760
" />
<path d="M38940 21470
L38960 21450
L39010 21420
L39080 21420
L39130 21450
L39150 21490
L39150 21760
" />
<path d="M39270 21800
L39650 21800
" />
<path d="M39770 21760
L39770 21260
" />
<path d="M39770 21490
L40050 21490
" />
<path d="M40050 21760
L40050 21260
" />
<path d="M40480 21730
L40430 21760
L40340 21760
L40290 21730
L40270 21680
L40270 21490
L40290 21450
L40340 21420
L40430 21420
L40480 21450
L40500 21490
L40500 21540
L40270 21590
" />
<path d="M40930 21760
L40930 21490
L40910 21450
L40860 21420
L40770 21420
L40720 21450
" />
<path d="M40930 21730
L40890 21760
L40770 21760
L40720 21730
L40700 21680
L40700 21640
L40720 21590
L40770 21570
L40890 21570
L40930 21540
" />
<path d="M41380 21760
L41380 21260
" />
<path d="M41380 21730
L41340 21760
L41240 21760
L41190 21730
L41170 21710
L41150 21660
L41150 21520
L41170 21470
L41190 21450
L41240 21420
L41340 21420
L41380 21450
" />
<path d="M41810 21730
L41760 21760
L41670 21760
L41620 21730
L41600 21680
L41600 21490
L41620 21450
L41670 21420
L41760 21420
L41810 21450
L41830 21490
L41830 21540
L41600 21590
" />
<path d="M42050 21760
L42050 21420
" />
<path d="M42050 21520
L42070 21470
L42100 21450
L42140 21420
L42190 21420
" />
<path d="M42340 21730
L42380 21760
L42480 21760
L42530 21730
L42550 21680
L42550 21660
L42530 21610
L42480 21590
L42410 21590
L42360 21570
L42340 21520
L42340 21490
L42360 21450
L42410 21420
L42480 21420
L42530 21450
" />
<path d="M42760 21710
L42780 21730
L42760 21760
L42740 21730
L42760 21710
L42760 21760
" />
<path d="M42760 21450
L42780 21470
L42760 21490
L42740 21470
L42760 21450
L42760 21490
" />
<path d="M43000 21760
L43000 21260
L43190 21260
L43240 21280
L43260 21300
L43280 21350
L43280 21420
L43260 21470
L43240 21490
L43190 21520
L43000 21520
" />
<path d="M43500 21760
L43500 21420
" />
<path d="M43500 21260
L43480 21280
L43500 21300
L43520 21280
L43500 21260
L43500 21300
" />
<path d="M43740 21420
L43740 21760
" />
<path d="M43740 21470
L43760 21450
L43810 21420
L43880 21420
L43930 21450
L43950 21490
L43950 21760
" />
<path d="M44070 21800
L44450 21800
" />
<path d="M44570 21760
L44570 21260
" />
<path d="M44570 21490
L44850 21490
" />
<path d="M44850 21760
L44850 21260
" />
<path d="M45280 21730
L45230 21760
L45140 21760
L45090 21730
L45070 21680
L45070 21490
L45090 21450
L45140 21420
L45230 21420
L45280 21450
L45300 21490
L45300 21540
L45070 21590
" />
<path d="M45730 21760
L45730 21490
L45710 21450
L45660 21420
L45570 21420
L45520 21450
" />
<path d="M45730 21730
L45690 21760
L45570 21760
L45520 21730
L45500 21680
L45500 21640
L45520 21590
L45570 21570
L45690 21570
L45730 21540
" />
<path d="M46180 21760
L46180 21260
" />
<path d="M46180 21730
L46140 21760
L46040 21760
L45990 21730
L45970 21710
L45950 21660
L45950 21520
L45970 21470
L45990 21450
L46040 21420
L46140 21420
L46180 21450
" />
<path d="M46610 21730
L46560 21760
L46470 21760
L46420 21730
L46400 21680
L46400 21490
L46420 21450
L46470 21420
L46560 21420
L46610 21450
L46630 21490
L46630 21540
L46400 21590
" />
<path d="M46850 21760
L46850 21420
" />
<path d="M46850 21520
L46870 21470
L46900 21450
L46940 21420
L46990 21420
" />
<path d="M47040 21800
L47420 21800
" />
<path d="M47520 21730
L47590 21760
L47710 21760
L47750 21730
L47780 21710
L47800 21660
L47800 21610
L47780 21570
L47750 21540
L47710 21520
L47610 21490
L47560 21470
L47540 21450
L47520 21400
L47520 21350
L47540 21300
L47560 21280
L47610 21260
L47730 21260
L47800 21280
" />
<path d="M47950 21420
L48140 21420
" />
<path d="M48020 21260
L48020 21680
L48040 21730
L48090 21760
L48140 21760
" />
<path d="M48310 21760
L48310 21420
" />
<path d="M48310 21520
L48330 21470
L48360 21450
L48400 21420
L48450 21420
" />
<path d="M48830 21760
L48830 21490
L48810 21450
L48760 21420
L48670 21420
L48620 21450
" />
<path d="M48830 21730
L48790 21760
L48670 21760
L48620 21730
L48600 21680
L48600 21640
L48620 21590
L48670 21570
L48790 21570
L48830 21540
" />
<path d="M49070 21760
L49070 21420
" />
<path d="M49070 21260
L49050 21280
L49070 21300
L49090 21280
L49070 21260
L49070 21300
" />
<path d="M49520 21420
L49520 21830
L49500 21880
L49480 21900
L49430 21920
L49360 21920
L49310 21900
" />
<path d="M49520 21730
L49480 21760
L49380 21760
L49330 21730
L49310 21710
L49290 21660
L49290 21520
L49310 21470
L49330 21450
L49380 21420
L49480 21420
L49520 21450
" />
<path d="M49760 21760
L49760 21260
" />
<path d="M49970 21760
L49970 21490
L49950 21450
L49900 21420
L49830 21420
L49780 21450
L49760 21470
" />
<path d="M50140 21420
L50330 21420
" />
<path d="M50210 21260
L50210 21680
L50230 21730
L50280 21760
L50330 21760
" />
<path d="M50380 21800
L50760 21800
" />
<path d="M51140 21760
L50860 21760
" />
<path d="M51000 21760
L51000 21260
L50950 21330
L50900 21380
L50860 21400
" />
<path d="M51310 21760
L51570 21420
" />
<path d="M51310 21420
L51570 21760
" />
<path d="M51850 21260
L51900 21260
L51950 21280
L51970 21300
L52000 21350
L52020 21450
L52020 21570
L52000 21660
L51970 21710
L51950 21730
L51900 21760
L51850 21760
L51810 21730
L51780 21710
L51760 21660
L51740 21570
L51740 21450
L51760 21350
L51780 21300
L51810 21280
L51850 21260
" />
<path d="M52220 21300
L52240 21280
L52290 21260
L52410 21260
L52450 21280
L52480 21300
L52500 21350
L52500 21400
L52480 21470
L52190 21760
L52500 21760
" />
<path d="M52600 21800
L52980 21800
" />
<path d="M53100 21760
L53100 21260
L53290 21260
L53340 21280
L53360 21300
L53380 21350
L53380 21420
L53360 21470
L53340 21490
L53290 21520
L53100 21520
" />
<path d="M53600 21760
L53600 21420
" />
<path d="M53600 21260
L53580 21280
L53600 21300
L53620 21280
L53600 21260
L53600 21300
" />
<path d="M53770 21420
L53960 21420
" />
<path d="M53840 21260
L53840 21680
L53860 21730
L53910 21760
L53960 21760
" />
<path d="M54340 21730
L54300 21760
L54200 21760
L54150 21730
L54130 21710
L54110 21660
L54110 21520
L54130 21470
L54150 21450
L54200 21420
L54300 21420
L54340 21450
" />
<path d="M54560 21760
L54560 21260
" />
<path d="M54770 21760
L54770 21490
L54750 21450
L54700 21420
L54630 21420
L54580 21450
L54560 21470
" />
<path d="M54990 21300
L55010 21280
L55060 21260
L55180 21260
L55220 21280
L55250 21300
L55270 21350
L55270 21400
L55250 21470
L54960 21760
L55270 21760
" />
<path d="M55490 21710
L55510 21730
L55490 21760
L55470 21730
L55490 21710
L55490 21760
" />
<path d="M55970 21260
L55730 21260
L55710 21490
L55730 21470
L55780 21450
L55900 21450
L55940 21470
L55970 21490
L55990 21540
L55990 21660
L55970 21710
L55940 21730
L55900 21760
L55780 21760
L55730 21730
L55710 21710
" />
<path d="M56420 21420
L56420 21760
" />
<path d="M56300 21230
L56190 21590
L56490 21590
" />
<path d="M56690 21760
L56690 21420
" />
<path d="M56690 21470
L56710 21450
L56760 21420
L56830 21420
L56880 21450
L56900 21490
L56900 21760
" />
<path d="M56900 21490
L56930 21450
L56970 21420
L57050 21420
L57090 21450
L57120 21490
L57120 21760
" />
<path d="M57360 21760
L57360 21420
" />
<path d="M57360 21470
L57380 21450
L57430 21420
L57500 21420
L57550 21450
L57570 21490
L57570 21760
" />
<path d="M57570 21490
L57600 21450
L57640 21420
L57720 21420
L57760 21450
L57790 21490
L57790 21760
" />
</g>
<g style="fill:#008400; fill-opacity:0.0; 
stroke:#008400; stroke-width:60; stroke-opacity:1; 
stroke-linecap:round; stroke-linejoin:round;">
<path d="M48500 26000
L48500 25000
" />
<path d="M48500 25000
L50500 25000
" />
<path d="M48500 27000
L48500 28000
" />
<path d="M48500 28000
L50500 28000
" />
</g> 
</svg>
