M48
;DRILL file {KiCad 4.0.7} date Sun Jun 10 20:08:58 2018
;FORMAT={-:-/ absolute / inch / decimal}
FMAT,2
INCH,TZ
T1C0.016
T2C0.039
%
G90
G05
M72
T1
X4.0157Y-5.5906
X4.0846Y-6.1024
X4.1339Y-5.689
X4.2717Y-5.3346
X4.3012Y-5.6693
X4.3307Y-3.7008
X4.3937Y-6.3307
X4.4193Y-5.9154
X4.4783Y-3.8583
X4.4803Y-6.2047
X4.5157Y-6.4055
X4.5276Y-3.622
X4.5276Y-4.0354
X4.5472Y-5.4134
X4.5768Y-3.1398
X4.5866Y-5.2756
X4.5965Y-5.6693
X4.6161Y-3.7795
X4.6555Y-5.9055
X4.6654Y-3.0512
X4.6949Y-5.2756
X4.7047Y-5.1476
X4.7402Y-6.0748
X4.7638Y-2.8642
X4.7736Y-3.8878
X4.7933Y-5.502
X4.8307Y-5.6929
X4.8524Y-2.7854
X4.8858Y-6.3858
X4.9114Y-4.0354
X4.9213Y-6.2047
X4.9311Y-2.7067
X5.0118Y-5.9252
X5.0197Y-2.6378
X5.0689Y-4.1732
X5.0787Y-5.4449
X5.1083Y-5.1969
X5.1575Y-2.5492
X5.2717Y-5.2165
X5.2953Y-2.4409
X5.3051Y-4.7244
X5.3248Y-4.9508
X5.3543Y-4.3209
X5.3839Y-1.624
X5.4134Y-2.0768
X5.4134Y-2.4213
X5.4823Y-4.9114
X5.5276Y-5.0157
X5.5315Y-1.9193
X5.6496Y-4.6358
X5.6988Y-2.2244
X5.7087Y-2.5197
X5.7382Y-2.5197
X5.8583Y-5.0433
X5.876Y-2.3622
X6.0433Y-4.6457
X6.0827Y-2.7165
X6.1614Y-2.372
X6.1654Y-4.8819
X6.3583Y-4.7638
X6.6575Y-4.8031
X7.1161Y-4.7933
X7.1457Y-4.5965
X7.2638Y-4.7244
T2
X3.9456Y-5.9092
X3.9956Y-5.9958
X4.0322Y-5.8592
X4.0822Y-5.9458
X4.1188Y-5.8092
X4.1455Y-4.2483
X4.1688Y-5.8958
X4.2421Y-4.2224
X4.2423Y-6.2088
X4.2997Y-6.1269
X4.3243Y-6.2662
X4.3387Y-4.1966
X4.3571Y-6.045
X4.3816Y-6.1843
X4.4353Y-4.1707
X4.439Y-6.1024
X4.5319Y-4.1448
X4.6285Y-4.1189
X4.6503Y-6.4001
X4.6676Y-6.3016
X4.685Y-6.2031
X4.7487Y-6.4174
X4.7661Y-6.319
X4.7835Y-6.2205
X5.1238Y-1.5651
X5.1547Y-1.6602
X5.1856Y-1.7553
X5.2165Y-1.8504
X5.2474Y-1.9455
X5.2783Y-2.0406
X6.0571Y-5.1295
X6.1437Y-5.0795
X6.2303Y-5.0295
X6.3169Y-4.9795
X6.4035Y-4.9295
X6.4901Y-4.8795
X7.4508Y-4.6835
X7.4508Y-4.7835
T0
M30
