G04 #@! TF.FileFunction,Legend,Bot*
%FSLAX46Y46*%
G04 Gerber Fmt 4.6, Leading zero omitted, Abs format (unit mm)*
G04 Created by KiCad (PCBNEW 4.0.7) date Sat Jun  9 21:25:33 2018*
%MOMM*%
%LPD*%
G01*
G04 APERTURE LIST*
%ADD10C,0.100000*%
%ADD11C,0.150000*%
%ADD12C,0.300000*%
G04 APERTURE END LIST*
D10*
D11*
X153556000Y-105088000D02*
X153556000Y-105215000D01*
X150508000Y-105088000D02*
X153556000Y-105088000D01*
X150508000Y-105215000D02*
X150508000Y-105088000D01*
X153556000Y-108898000D02*
X153556000Y-108771000D01*
X150508000Y-108898000D02*
X153556000Y-108898000D01*
X150508000Y-108771000D02*
X150508000Y-108898000D01*
D12*
X153950000Y-109150000D02*
G75*
G03X153950000Y-109150000I-150000J0D01*
G01*
D11*
X116412000Y-86506000D02*
X116285000Y-86506000D01*
X116412000Y-83458000D02*
X116412000Y-86506000D01*
X116285000Y-83458000D02*
X116412000Y-83458000D01*
X112602000Y-86506000D02*
X112729000Y-86506000D01*
X112602000Y-83458000D02*
X112602000Y-86506000D01*
X112729000Y-83458000D02*
X112602000Y-83458000D01*
D12*
X112500000Y-86750000D02*
G75*
G03X112500000Y-86750000I-150000J0D01*
G01*
D11*
X153506000Y-61688000D02*
X153506000Y-61815000D01*
X150458000Y-61688000D02*
X153506000Y-61688000D01*
X150458000Y-61815000D02*
X150458000Y-61688000D01*
X153506000Y-65498000D02*
X153506000Y-65371000D01*
X150458000Y-65498000D02*
X153506000Y-65498000D01*
X150458000Y-65371000D02*
X150458000Y-65498000D01*
D12*
X153900000Y-65750000D02*
G75*
G03X153900000Y-65750000I-150000J0D01*
G01*
M02*
