<?xml version="1.0" standalone="no"?>
 <!DOCTYPE svg PUBLIC "-//W3C//DTD SVG 1.1//EN" 
 "http://www.w3.org/Graphics/SVG/1.1/DTD/svg11.dtd"> 
<svg xmlns="http://www.w3.org/2000/svg" version="1.1" 
    width="29.7002cm" height="21.0007cm" viewBox="0 0 116930 82680 ">
<title>SVG Picture created as mainboard_flash_1-Mainboard microcontroller-Mainboard_Flash_1.svg date 2017/05/05 21:48:52 </title>
  <desc>Picture generated by Eeschema-SVG </desc>
<g style="fill:#000000; fill-opacity:1;stroke:#000000; stroke-opacity:1;
stroke-linecap:round; stroke-linejoin:round; "
 transform="translate(0 0) scale(1 1)">
</g>
<g style="fill:#000000; fill-opacity:0.0; 
stroke:#000000; stroke-width:-10; stroke-opacity:1; 
stroke-linecap:round; stroke-linejoin:round;">
</g>
<g style="fill:#840000; fill-opacity:0.0; 
stroke:#840000; stroke-width:-10; stroke-opacity:1; 
stroke-linecap:round; stroke-linejoin:round;">
</g>
<g style="fill:#840000; fill-opacity:0.0; 
stroke:#840000; stroke-width:100; stroke-opacity:1; 
stroke-linecap:round; stroke-linejoin:round;">
</g>
<g style="fill:#840000; fill-opacity:0.0; 
stroke:#840000; stroke-width:60; stroke-opacity:1; 
stroke-linecap:round; stroke-linejoin:round;">
<rect x="69690" y="65360" width="42520" height="12600" rx="0" />
</g>
<g style="fill:#840000; fill-opacity:0.0; 
stroke:#840000; stroke-width:100; stroke-opacity:1; 
stroke-linecap:round; stroke-linejoin:round;">
</g>
<g style="fill:#840000; fill-opacity:0.0; 
stroke:#840000; stroke-width:60; stroke-opacity:1; 
stroke-linecap:round; stroke-linejoin:round;">
<rect x="3940" y="3940" width="109050" height="74800" rx="0" />
</g>
<g style="fill:#840000; fill-opacity:0.0; 
stroke:#840000; stroke-width:100; stroke-opacity:1; 
stroke-linecap:round; stroke-linejoin:round;">
</g>
<g style="fill:#840000; fill-opacity:0.0; 
stroke:#840000; stroke-width:60; stroke-opacity:1; 
stroke-linecap:round; stroke-linejoin:round;">
<rect x="4720" y="4720" width="107490" height="73240" rx="0" />
</g>
<g style="fill:#840000; fill-opacity:0.0; 
stroke:#840000; stroke-width:100; stroke-opacity:1; 
stroke-linecap:round; stroke-linejoin:round;">
</g>
<g style="fill:#840000; fill-opacity:0.0; 
stroke:#840000; stroke-width:60; stroke-opacity:1; 
stroke-linecap:round; stroke-linejoin:round;">
<path d="M23620 4720
L23620 3940
" />
</g>
<g style="fill:#840000; fill-opacity:0.0; 
stroke:#840000; stroke-width:100; stroke-opacity:1; 
stroke-linecap:round; stroke-linejoin:round;">
</g>
<g style="fill:#840000; fill-opacity:0.0; 
stroke:#840000; stroke-width:60; stroke-opacity:1; 
stroke-linecap:round; stroke-linejoin:round;">
<path d="M43310 4720
L43310 3940
" />
</g>
<g style="fill:#840000; fill-opacity:0.0; 
stroke:#840000; stroke-width:100; stroke-opacity:1; 
stroke-linecap:round; stroke-linejoin:round;">
</g>
<g style="fill:#840000; fill-opacity:0.0; 
stroke:#840000; stroke-width:60; stroke-opacity:1; 
stroke-linecap:round; stroke-linejoin:round;">
<path d="M62990 4720
L62990 3940
" />
</g>
<g style="fill:#840000; fill-opacity:0.0; 
stroke:#840000; stroke-width:100; stroke-opacity:1; 
stroke-linecap:round; stroke-linejoin:round;">
</g>
<g style="fill:#840000; fill-opacity:0.0; 
stroke:#840000; stroke-width:60; stroke-opacity:1; 
stroke-linecap:round; stroke-linejoin:round;">
<path d="M82680 4720
L82680 3940
" />
</g>
<g style="fill:#840000; fill-opacity:0.0; 
stroke:#840000; stroke-width:100; stroke-opacity:1; 
stroke-linecap:round; stroke-linejoin:round;">
</g>
<g style="fill:#840000; fill-opacity:0.0; 
stroke:#840000; stroke-width:60; stroke-opacity:1; 
stroke-linecap:round; stroke-linejoin:round;">
<path d="M102360 4720
L102360 3940
" />
</g>
<g style="fill:#840000; fill-opacity:0.0; 
stroke:#840000; stroke-width:100; stroke-opacity:1; 
stroke-linecap:round; stroke-linejoin:round;">
</g>
<g style="fill:#840000; fill-opacity:0.0; 
stroke:#840000; stroke-width:60; stroke-opacity:1; 
stroke-linecap:round; stroke-linejoin:round;">
<path d="M14170 4560
L13880 4560
" />
<path d="M14020 4560
L14020 4050
L13970 4120
L13930 4170
L13880 4190
" />
</g>
<g style="fill:#840000; fill-opacity:0.0; 
stroke:#840000; stroke-width:100; stroke-opacity:1; 
stroke-linecap:round; stroke-linejoin:round;">
</g>
<g style="fill:#840000; fill-opacity:0.0; 
stroke:#840000; stroke-width:60; stroke-opacity:1; 
stroke-linecap:round; stroke-linejoin:round;">
<path d="M33560 4090
L33580 4070
L33630 4050
L33750 4050
L33800 4070
L33820 4090
L33850 4140
L33850 4190
L33820 4260
L33530 4560
L33850 4560
" />
</g>
<g style="fill:#840000; fill-opacity:0.0; 
stroke:#840000; stroke-width:100; stroke-opacity:1; 
stroke-linecap:round; stroke-linejoin:round;">
</g>
<g style="fill:#840000; fill-opacity:0.0; 
stroke:#840000; stroke-width:60; stroke-opacity:1; 
stroke-linecap:round; stroke-linejoin:round;">
<path d="M53220 4050
L53540 4050
L53370 4240
L53440 4240
L53490 4260
L53510 4290
L53540 4340
L53540 4460
L53510 4510
L53490 4530
L53440 4560
L53300 4560
L53250 4530
L53220 4510
" />
</g>
<g style="fill:#840000; fill-opacity:0.0; 
stroke:#840000; stroke-width:100; stroke-opacity:1; 
stroke-linecap:round; stroke-linejoin:round;">
</g>
<g style="fill:#840000; fill-opacity:0.0; 
stroke:#840000; stroke-width:60; stroke-opacity:1; 
stroke-linecap:round; stroke-linejoin:round;">
<path d="M73170 4220
L73170 4560
" />
<path d="M73050 4020
L72930 4390
L73240 4390
" />
</g>
<g style="fill:#840000; fill-opacity:0.0; 
stroke:#840000; stroke-width:100; stroke-opacity:1; 
stroke-linecap:round; stroke-linejoin:round;">
</g>
<g style="fill:#840000; fill-opacity:0.0; 
stroke:#840000; stroke-width:60; stroke-opacity:1; 
stroke-linecap:round; stroke-linejoin:round;">
<path d="M92880 4050
L92640 4050
L92620 4290
L92640 4260
L92690 4240
L92810 4240
L92860 4260
L92880 4290
L92910 4340
L92910 4460
L92880 4510
L92860 4530
L92810 4560
L92690 4560
L92640 4530
L92620 4510
" />
</g>
<g style="fill:#840000; fill-opacity:0.0; 
stroke:#840000; stroke-width:100; stroke-opacity:1; 
stroke-linecap:round; stroke-linejoin:round;">
</g>
<g style="fill:#840000; fill-opacity:0.0; 
stroke:#840000; stroke-width:60; stroke-opacity:1; 
stroke-linecap:round; stroke-linejoin:round;">
<path d="M112540 4050
L112440 4050
L112390 4070
L112370 4090
L112320 4170
L112300 4260
L112300 4460
L112320 4510
L112350 4530
L112390 4560
L112490 4560
L112540 4530
L112560 4510
L112590 4460
L112590 4340
L112560 4290
L112540 4260
L112490 4240
L112390 4240
L112350 4260
L112320 4290
L112300 4340
" />
</g>
<g style="fill:#840000; fill-opacity:0.0; 
stroke:#840000; stroke-width:100; stroke-opacity:1; 
stroke-linecap:round; stroke-linejoin:round;">
</g>
<g style="fill:#840000; fill-opacity:0.0; 
stroke:#840000; stroke-width:60; stroke-opacity:1; 
stroke-linecap:round; stroke-linejoin:round;">
<path d="M23620 77960
L23620 78740
" />
</g>
<g style="fill:#840000; fill-opacity:0.0; 
stroke:#840000; stroke-width:100; stroke-opacity:1; 
stroke-linecap:round; stroke-linejoin:round;">
</g>
<g style="fill:#840000; fill-opacity:0.0; 
stroke:#840000; stroke-width:60; stroke-opacity:1; 
stroke-linecap:round; stroke-linejoin:round;">
<path d="M43310 77960
L43310 78740
" />
</g>
<g style="fill:#840000; fill-opacity:0.0; 
stroke:#840000; stroke-width:100; stroke-opacity:1; 
stroke-linecap:round; stroke-linejoin:round;">
</g>
<g style="fill:#840000; fill-opacity:0.0; 
stroke:#840000; stroke-width:60; stroke-opacity:1; 
stroke-linecap:round; stroke-linejoin:round;">
<path d="M62990 77960
L62990 78740
" />
</g>
<g style="fill:#840000; fill-opacity:0.0; 
stroke:#840000; stroke-width:100; stroke-opacity:1; 
stroke-linecap:round; stroke-linejoin:round;">
</g>
<g style="fill:#840000; fill-opacity:0.0; 
stroke:#840000; stroke-width:60; stroke-opacity:1; 
stroke-linecap:round; stroke-linejoin:round;">
<path d="M82680 77960
L82680 78740
" />
</g>
<g style="fill:#840000; fill-opacity:0.0; 
stroke:#840000; stroke-width:100; stroke-opacity:1; 
stroke-linecap:round; stroke-linejoin:round;">
</g>
<g style="fill:#840000; fill-opacity:0.0; 
stroke:#840000; stroke-width:60; stroke-opacity:1; 
stroke-linecap:round; stroke-linejoin:round;">
<path d="M102360 77960
L102360 78740
" />
</g>
<g style="fill:#840000; fill-opacity:0.0; 
stroke:#840000; stroke-width:100; stroke-opacity:1; 
stroke-linecap:round; stroke-linejoin:round;">
</g>
<g style="fill:#840000; fill-opacity:0.0; 
stroke:#840000; stroke-width:60; stroke-opacity:1; 
stroke-linecap:round; stroke-linejoin:round;">
<path d="M14170 78580
L13880 78580
" />
<path d="M14020 78580
L14020 78070
L13970 78140
L13930 78190
L13880 78210
" />
</g>
<g style="fill:#840000; fill-opacity:0.0; 
stroke:#840000; stroke-width:100; stroke-opacity:1; 
stroke-linecap:round; stroke-linejoin:round;">
</g>
<g style="fill:#840000; fill-opacity:0.0; 
stroke:#840000; stroke-width:60; stroke-opacity:1; 
stroke-linecap:round; stroke-linejoin:round;">
<path d="M33560 78110
L33580 78090
L33630 78070
L33750 78070
L33800 78090
L33820 78110
L33850 78160
L33850 78210
L33820 78280
L33530 78580
L33850 78580
" />
</g>
<g style="fill:#840000; fill-opacity:0.0; 
stroke:#840000; stroke-width:100; stroke-opacity:1; 
stroke-linecap:round; stroke-linejoin:round;">
</g>
<g style="fill:#840000; fill-opacity:0.0; 
stroke:#840000; stroke-width:60; stroke-opacity:1; 
stroke-linecap:round; stroke-linejoin:round;">
<path d="M53220 78070
L53540 78070
L53370 78260
L53440 78260
L53490 78280
L53510 78310
L53540 78360
L53540 78480
L53510 78530
L53490 78550
L53440 78580
L53300 78580
L53250 78550
L53220 78530
" />
</g>
<g style="fill:#840000; fill-opacity:0.0; 
stroke:#840000; stroke-width:100; stroke-opacity:1; 
stroke-linecap:round; stroke-linejoin:round;">
</g>
<g style="fill:#840000; fill-opacity:0.0; 
stroke:#840000; stroke-width:60; stroke-opacity:1; 
stroke-linecap:round; stroke-linejoin:round;">
<path d="M73170 78240
L73170 78580
" />
<path d="M73050 78040
L72930 78410
L73240 78410
" />
</g>
<g style="fill:#840000; fill-opacity:0.0; 
stroke:#840000; stroke-width:100; stroke-opacity:1; 
stroke-linecap:round; stroke-linejoin:round;">
</g>
<g style="fill:#840000; fill-opacity:0.0; 
stroke:#840000; stroke-width:60; stroke-opacity:1; 
stroke-linecap:round; stroke-linejoin:round;">
<path d="M92880 78070
L92640 78070
L92620 78310
L92640 78280
L92690 78260
L92810 78260
L92860 78280
L92880 78310
L92910 78360
L92910 78480
L92880 78530
L92860 78550
L92810 78580
L92690 78580
L92640 78550
L92620 78530
" />
</g>
<g style="fill:#840000; fill-opacity:0.0; 
stroke:#840000; stroke-width:100; stroke-opacity:1; 
stroke-linecap:round; stroke-linejoin:round;">
</g>
<g style="fill:#840000; fill-opacity:0.0; 
stroke:#840000; stroke-width:60; stroke-opacity:1; 
stroke-linecap:round; stroke-linejoin:round;">
<path d="M112540 78070
L112440 78070
L112390 78090
L112370 78110
L112320 78190
L112300 78280
L112300 78480
L112320 78530
L112350 78550
L112390 78580
L112490 78580
L112540 78550
L112560 78530
L112590 78480
L112590 78360
L112560 78310
L112540 78280
L112490 78260
L112390 78260
L112350 78280
L112320 78310
L112300 78360
" />
</g>
<g style="fill:#840000; fill-opacity:0.0; 
stroke:#840000; stroke-width:100; stroke-opacity:1; 
stroke-linecap:round; stroke-linejoin:round;">
</g>
<g style="fill:#840000; fill-opacity:0.0; 
stroke:#840000; stroke-width:60; stroke-opacity:1; 
stroke-linecap:round; stroke-linejoin:round;">
<path d="M3940 23620
L4720 23620
" />
</g>
<g style="fill:#840000; fill-opacity:0.0; 
stroke:#840000; stroke-width:100; stroke-opacity:1; 
stroke-linecap:round; stroke-linejoin:round;">
</g>
<g style="fill:#840000; fill-opacity:0.0; 
stroke:#840000; stroke-width:60; stroke-opacity:1; 
stroke-linecap:round; stroke-linejoin:round;">
<path d="M3940 43310
L4720 43310
" />
</g>
<g style="fill:#840000; fill-opacity:0.0; 
stroke:#840000; stroke-width:100; stroke-opacity:1; 
stroke-linecap:round; stroke-linejoin:round;">
</g>
<g style="fill:#840000; fill-opacity:0.0; 
stroke:#840000; stroke-width:60; stroke-opacity:1; 
stroke-linecap:round; stroke-linejoin:round;">
<path d="M3940 62990
L4720 62990
" />
</g>
<g style="fill:#840000; fill-opacity:0.0; 
stroke:#840000; stroke-width:100; stroke-opacity:1; 
stroke-linecap:round; stroke-linejoin:round;">
</g>
<g style="fill:#840000; fill-opacity:0.0; 
stroke:#840000; stroke-width:60; stroke-opacity:1; 
stroke-linecap:round; stroke-linejoin:round;">
<path d="M4210 13860
L4450 13860
" />
<path d="M4160 14010
L4330 13500
L4500 14010
" />
</g>
<g style="fill:#840000; fill-opacity:0.0; 
stroke:#840000; stroke-width:100; stroke-opacity:1; 
stroke-linecap:round; stroke-linejoin:round;">
</g>
<g style="fill:#840000; fill-opacity:0.0; 
stroke:#840000; stroke-width:60; stroke-opacity:1; 
stroke-linecap:round; stroke-linejoin:round;">
<path d="M4370 33420
L4440 33440
L4470 33470
L4490 33520
L4490 33590
L4470 33640
L4440 33660
L4400 33690
L4200 33690
L4200 33180
L4370 33180
L4420 33200
L4440 33220
L4470 33270
L4470 33320
L4440 33370
L4420 33390
L4370 33420
L4200 33420
" />
</g>
<g style="fill:#840000; fill-opacity:0.0; 
stroke:#840000; stroke-width:100; stroke-opacity:1; 
stroke-linecap:round; stroke-linejoin:round;">
</g>
<g style="fill:#840000; fill-opacity:0.0; 
stroke:#840000; stroke-width:60; stroke-opacity:1; 
stroke-linecap:round; stroke-linejoin:round;">
<path d="M4490 53330
L4470 53350
L4400 53380
L4350 53380
L4270 53350
L4230 53300
L4200 53250
L4180 53160
L4180 53080
L4200 52990
L4230 52940
L4270 52890
L4350 52870
L4400 52870
L4470 52890
L4490 52910
" />
</g>
<g style="fill:#840000; fill-opacity:0.0; 
stroke:#840000; stroke-width:100; stroke-opacity:1; 
stroke-linecap:round; stroke-linejoin:round;">
</g>
<g style="fill:#840000; fill-opacity:0.0; 
stroke:#840000; stroke-width:60; stroke-opacity:1; 
stroke-linecap:round; stroke-linejoin:round;">
<path d="M4200 73060
L4200 72550
L4320 72550
L4400 72570
L4440 72620
L4470 72670
L4490 72760
L4490 72840
L4470 72930
L4440 72980
L4400 73030
L4320 73060
L4200 73060
" />
</g>
<g style="fill:#840000; fill-opacity:0.0; 
stroke:#840000; stroke-width:100; stroke-opacity:1; 
stroke-linecap:round; stroke-linejoin:round;">
</g>
<g style="fill:#840000; fill-opacity:0.0; 
stroke:#840000; stroke-width:60; stroke-opacity:1; 
stroke-linecap:round; stroke-linejoin:round;">
<path d="M112990 23620
L112210 23620
" />
</g>
<g style="fill:#840000; fill-opacity:0.0; 
stroke:#840000; stroke-width:100; stroke-opacity:1; 
stroke-linecap:round; stroke-linejoin:round;">
</g>
<g style="fill:#840000; fill-opacity:0.0; 
stroke:#840000; stroke-width:60; stroke-opacity:1; 
stroke-linecap:round; stroke-linejoin:round;">
<path d="M112990 43310
L112210 43310
" />
</g>
<g style="fill:#840000; fill-opacity:0.0; 
stroke:#840000; stroke-width:100; stroke-opacity:1; 
stroke-linecap:round; stroke-linejoin:round;">
</g>
<g style="fill:#840000; fill-opacity:0.0; 
stroke:#840000; stroke-width:60; stroke-opacity:1; 
stroke-linecap:round; stroke-linejoin:round;">
<path d="M112990 62990
L112210 62990
" />
</g>
<g style="fill:#840000; fill-opacity:0.0; 
stroke:#840000; stroke-width:100; stroke-opacity:1; 
stroke-linecap:round; stroke-linejoin:round;">
</g>
<g style="fill:#840000; fill-opacity:0.0; 
stroke:#840000; stroke-width:60; stroke-opacity:1; 
stroke-linecap:round; stroke-linejoin:round;">
<path d="M112480 13860
L112720 13860
" />
<path d="M112430 14010
L112600 13500
L112770 14010
" />
</g>
<g style="fill:#840000; fill-opacity:0.0; 
stroke:#840000; stroke-width:100; stroke-opacity:1; 
stroke-linecap:round; stroke-linejoin:round;">
</g>
<g style="fill:#840000; fill-opacity:0.0; 
stroke:#840000; stroke-width:60; stroke-opacity:1; 
stroke-linecap:round; stroke-linejoin:round;">
<path d="M112640 33420
L112710 33440
L112740 33470
L112760 33520
L112760 33590
L112740 33640
L112710 33660
L112670 33690
L112470 33690
L112470 33180
L112640 33180
L112690 33200
L112710 33220
L112740 33270
L112740 33320
L112710 33370
L112690 33390
L112640 33420
L112470 33420
" />
</g>
<g style="fill:#840000; fill-opacity:0.0; 
stroke:#840000; stroke-width:100; stroke-opacity:1; 
stroke-linecap:round; stroke-linejoin:round;">
</g>
<g style="fill:#840000; fill-opacity:0.0; 
stroke:#840000; stroke-width:60; stroke-opacity:1; 
stroke-linecap:round; stroke-linejoin:round;">
<path d="M112760 53330
L112740 53350
L112670 53380
L112620 53380
L112540 53350
L112500 53300
L112470 53250
L112450 53160
L112450 53080
L112470 52990
L112500 52940
L112540 52890
L112620 52870
L112670 52870
L112740 52890
L112760 52910
" />
</g>
<g style="fill:#840000; fill-opacity:0.0; 
stroke:#840000; stroke-width:100; stroke-opacity:1; 
stroke-linecap:round; stroke-linejoin:round;">
</g>
<g style="fill:#840000; fill-opacity:0.0; 
stroke:#840000; stroke-width:60; stroke-opacity:1; 
stroke-linecap:round; stroke-linejoin:round;">
<path d="M112470 73060
L112470 72550
L112590 72550
L112670 72570
L112710 72620
L112740 72670
L112760 72760
L112760 72840
L112740 72930
L112710 72980
L112670 73030
L112590 73060
L112470 73060
" />
</g>
<g style="fill:#840000; fill-opacity:0.0; 
stroke:#840000; stroke-width:100; stroke-opacity:1; 
stroke-linecap:round; stroke-linejoin:round;">
</g>
<g style="fill:#840000; fill-opacity:0.0; 
stroke:#840000; stroke-width:60; stroke-opacity:1; 
stroke-linecap:round; stroke-linejoin:round;">
<path d="M78880 76290
L78880 75700
L79020 75700
L79110 75730
L79160 75790
L79190 75840
L79220 75950
L79220 76040
L79190 76150
L79160 76210
L79110 76260
L79020 76290
L78880 76290
" />
<path d="M79720 76290
L79720 75980
L79700 75930
L79640 75900
L79530 75900
L79470 75930
" />
<path d="M79720 76260
L79670 76290
L79530 76290
L79470 76260
L79440 76210
L79440 76150
L79470 76100
L79530 76070
L79670 76070
L79720 76040
" />
<path d="M79920 75900
L80140 75900
" />
<path d="M80000 75700
L80000 76210
L80030 76260
L80080 76290
L80140 76290
" />
<path d="M80570 76260
L80510 76290
L80400 76290
L80340 76260
L80310 76210
L80310 75980
L80340 75930
L80400 75900
L80510 75900
L80570 75930
L80590 75980
L80590 76040
L80310 76100
" />
<path d="M80850 76240
L80880 76260
L80850 76290
L80820 76260
L80850 76240
L80850 76290
" />
<path d="M80850 75930
L80880 75950
L80850 75980
L80820 75950
L80850 75930
L80850 75980
" />
<path d="M81550 75760
L81580 75730
L81640 75700
L81780 75700
L81830 75730
L81860 75760
L81890 75810
L81890 75870
L81860 75950
L81520 76290
L81890 76290
" />
<path d="M82250 75700
L82310 75700
L82370 75730
L82390 75760
L82420 75810
L82450 75930
L82450 76070
L82420 76180
L82390 76240
L82370 76260
L82310 76290
L82250 76290
L82200 76260
L82170 76240
L82140 76180
L82110 76070
L82110 75930
L82140 75810
L82170 75760
L82200 75730
L82250 75700
" />
<path d="M83010 76290
L82670 76290
" />
<path d="M82840 76290
L82840 75700
L82780 75790
L82730 75840
L82670 75870
" />
<path d="M83200 75700
L83600 75700
L83340 76290
" />
<path d="M83820 76070
L84270 76070
" />
<path d="M84660 75700
L84720 75700
L84780 75730
L84800 75760
L84830 75810
L84860 75930
L84860 76070
L84830 76180
L84800 76240
L84780 76260
L84720 76290
L84660 76290
L84610 76260
L84580 76240
L84550 76180
L84520 76070
L84520 75930
L84550 75810
L84580 75760
L84610 75730
L84660 75700
" />
<path d="M85360 75900
L85360 76290
" />
<path d="M85220 75670
L85080 76100
L85450 76100
" />
<path d="M85670 76070
L86120 76070
" />
<path d="M86370 75760
L86400 75730
L86460 75700
L86600 75700
L86650 75730
L86680 75760
L86710 75810
L86710 75870
L86680 75950
L86340 76290
L86710 76290
" />
<path d="M87070 75700
L87130 75700
L87190 75730
L87210 75760
L87240 75810
L87270 75930
L87270 76070
L87240 76180
L87210 76240
L87190 76260
L87130 76290
L87070 76290
L87020 76260
L86990 76240
L86960 76180
L86930 76070
L86930 75930
L86960 75810
L86990 75760
L87020 75730
L87070 75700
" />
</g>
<g style="fill:#840000; fill-opacity:0.0; 
stroke:#840000; stroke-width:100; stroke-opacity:1; 
stroke-linecap:round; stroke-linejoin:round;">
</g>
<g style="fill:#840000; fill-opacity:0.0; 
stroke:#840000; stroke-width:60; stroke-opacity:1; 
stroke-linecap:round; stroke-linejoin:round;">
<path d="M69690 76580
L112210 76580
" />
</g>
<g style="fill:#840000; fill-opacity:0.0; 
stroke:#840000; stroke-width:100; stroke-opacity:1; 
stroke-linecap:round; stroke-linejoin:round;">
</g>
<g style="fill:#840000; fill-opacity:0.0; 
stroke:#840000; stroke-width:60; stroke-opacity:1; 
stroke-linecap:round; stroke-linejoin:round;">
<path d="M70220 77390
L70220 76800
" />
<path d="M70560 77390
L70300 77050
" />
<path d="M70560 76800
L70220 77140
" />
<path d="M70810 77390
L70810 77000
" />
<path d="M70810 76800
L70780 76830
L70810 76860
L70840 76830
L70810 76800
L70810 76860
" />
<path d="M71430 77340
L71400 77360
L71320 77390
L71260 77390
L71170 77360
L71120 77310
L71090 77250
L71060 77140
L71060 77050
L71090 76940
L71120 76890
L71170 76830
L71260 76800
L71320 76800
L71400 76830
L71430 76860
" />
<path d="M71930 77390
L71930 77080
L71910 77030
L71850 77000
L71740 77000
L71680 77030
" />
<path d="M71930 77360
L71880 77390
L71740 77390
L71680 77360
L71650 77310
L71650 77250
L71680 77200
L71740 77170
L71880 77170
L71930 77140
" />
<path d="M72460 77390
L72460 76800
" />
<path d="M72460 77360
L72410 77390
L72290 77390
L72240 77360
L72210 77340
L72180 77280
L72180 77110
L72210 77050
L72240 77030
L72290 77000
L72410 77000
L72460 77030
" />
<path d="M73190 77080
L73390 77080
" />
<path d="M73470 77390
L73190 77390
L73190 76800
L73470 76800
" />
<path d="M73720 77340
L73750 77360
L73720 77390
L73690 77360
L73720 77340
L73720 77390
" />
<path d="M74000 77390
L74000 76800
L74140 76800
L74230 76830
L74280 76890
L74310 76940
L74340 77050
L74340 77140
L74310 77250
L74280 77310
L74230 77360
L74140 77390
L74000 77390
" />
<path d="M74590 77340
L74620 77360
L74590 77390
L74560 77360
L74590 77340
L74590 77390
" />
<path d="M74840 77220
L75120 77220
" />
<path d="M74790 77390
L74980 76800
L75180 77390
" />
<path d="M75380 77340
L75410 77360
L75380 77390
L75350 77360
L75380 77340
L75380 77390
" />
<path d="M76560 77390
L76560 76800
" />
<path d="M76620 77170
L76790 77390
" />
<path d="M76790 77000
L76560 77220
" />
<path d="M77040 77390
L77040 77000
" />
<path d="M77040 76800
L77010 76830
L77040 76860
L77070 76830
L77040 76800
L77040 76860
" />
<path d="M77570 77360
L77520 77390
L77400 77390
L77350 77360
L77320 77340
L77290 77280
L77290 77110
L77320 77050
L77350 77030
L77400 77000
L77520 77000
L77570 77030
" />
<path d="M78080 77390
L78080 77080
L78060 77030
L78000 77000
L77890 77000
L77830 77030
" />
<path d="M78080 77360
L78030 77390
L77890 77390
L77830 77360
L77800 77310
L77800 77250
L77830 77200
L77890 77170
L78030 77170
L78080 77140
" />
<path d="M78610 77390
L78610 76800
" />
<path d="M78610 77360
L78560 77390
L78440 77390
L78390 77360
L78360 77340
L78330 77280
L78330 77110
L78360 77050
L78390 77030
L78440 77000
L78560 77000
L78610 77030
" />
<path d="M79590 77000
L79590 77390
" />
<path d="M79450 76770
L79310 77200
L79680 77200
" />
<path d="M79900 77340
L79930 77360
L79900 77390
L79870 77360
L79900 77340
L79900 77390
" />
<path d="M80290 76800
L80350 76800
L80410 76830
L80430 76860
L80460 76910
L80490 77030
L80490 77170
L80460 77280
L80430 77340
L80410 77360
L80350 77390
L80290 77390
L80240 77360
L80210 77340
L80180 77280
L80150 77170
L80150 77030
L80180 76910
L80210 76860
L80240 76830
L80290 76800
" />
<path d="M80740 77340
L80770 77360
L80740 77390
L80710 77360
L80740 77340
L80740 77390
" />
<path d="M81270 76800
L81160 76800
L81100 76830
L81080 76860
L81020 76940
L80990 77050
L80990 77280
L81020 77340
L81050 77360
L81100 77390
L81220 77390
L81270 77360
L81300 77340
L81330 77280
L81330 77140
L81300 77080
L81270 77050
L81220 77030
L81100 77030
L81050 77050
L81020 77080
L80990 77140
" />
</g>
<g style="fill:#840000; fill-opacity:0.0; 
stroke:#840000; stroke-width:100; stroke-opacity:1; 
stroke-linecap:round; stroke-linejoin:round;">
</g>
<g style="fill:#840000; fill-opacity:0.0; 
stroke:#840000; stroke-width:60; stroke-opacity:1; 
stroke-linecap:round; stroke-linejoin:round;">
<path d="M69690 75400
L112210 75400
" />
</g>
<g style="fill:#840000; fill-opacity:0.0; 
stroke:#840000; stroke-width:100; stroke-opacity:1; 
stroke-linecap:round; stroke-linejoin:round;">
</g>
<g style="fill:#840000; fill-opacity:0.0; 
stroke:#840000; stroke-width:120; stroke-opacity:1; 
stroke-linecap:round; stroke-linejoin:round;">
<path d="M104020 76290
L103820 76010
" />
<path d="M103680 76290
L103680 75700
L103910 75700
L103960 75730
L103990 75760
L104020 75810
L104020 75900
L103990 75950
L103960 75980
L103910 76010
L103680 76010
" />
<path d="M104500 76260
L104440 76290
L104330 76290
L104270 76260
L104240 76210
L104240 75980
L104270 75930
L104330 75900
L104440 75900
L104500 75930
L104520 75980
L104520 76040
L104240 76100
" />
<path d="M104720 75900
L104860 76290
L105010 75900
" />
<path d="M105230 76240
L105260 76260
L105230 76290
L105200 76260
L105230 76240
L105230 76290
" />
<path d="M105230 75930
L105260 75950
L105230 75980
L105200 75950
L105230 75930
L105230 75980
" />
<path d="M106270 76290
L105930 76290
" />
<path d="M106100 76290
L106100 75700
L106040 75790
L105990 75840
L105930 75870
" />
<path d="M106630 75700
L106690 75700
L106750 75730
L106770 75760
L106800 75810
L106830 75930
L106830 76070
L106800 76180
L106770 76240
L106750 76260
L106690 76290
L106630 76290
L106580 76260
L106550 76240
L106520 76180
L106490 76070
L106490 75930
L106520 75810
L106550 75760
L106580 75730
L106630 75700
" />
</g>
<g style="fill:#840000; fill-opacity:0.0; 
stroke:#840000; stroke-width:100; stroke-opacity:1; 
stroke-linecap:round; stroke-linejoin:round;">
</g>
<g style="fill:#840000; fill-opacity:0.0; 
stroke:#840000; stroke-width:60; stroke-opacity:1; 
stroke-linecap:round; stroke-linejoin:round;">
<path d="M70190 76260
L70280 76290
L70420 76290
L70470 76260
L70500 76240
L70530 76180
L70530 76120
L70500 76070
L70470 76040
L70420 76010
L70300 75980
L70250 75950
L70220 75930
L70190 75870
L70190 75810
L70220 75760
L70250 75730
L70300 75700
L70450 75700
L70530 75730
" />
<path d="M70780 76290
L70780 75900
" />
<path d="M70780 75700
L70750 75730
L70780 75760
L70810 75730
L70780 75700
L70780 75760
" />
<path d="M71000 75900
L71310 75900
L71000 76290
L71310 76290
" />
<path d="M71770 76260
L71710 76290
L71600 76290
L71540 76260
L71510 76210
L71510 75980
L71540 75930
L71600 75900
L71710 75900
L71770 75930
L71790 75980
L71790 76040
L71510 76100
" />
<path d="M72050 76240
L72080 76260
L72050 76290
L72020 76260
L72050 76240
L72050 76290
" />
<path d="M72050 75930
L72080 75950
L72050 75980
L72020 75950
L72050 75930
L72050 75980
" />
<path d="M72750 76120
L73030 76120
" />
<path d="M72700 76290
L72890 75700
L73090 76290
" />
<path d="M73540 75900
L73540 76290
" />
<path d="M73400 75670
L73260 76100
L73630 76100
" />
</g>
<g style="fill:#840000; fill-opacity:0.0; 
stroke:#840000; stroke-width:100; stroke-opacity:1; 
stroke-linecap:round; stroke-linejoin:round;">
</g>
<g style="fill:#840000; fill-opacity:0.0; 
stroke:#840000; stroke-width:60; stroke-opacity:1; 
stroke-linecap:round; stroke-linejoin:round;">
<path d="M103680 77390
L103680 76800
" />
<path d="M104210 77390
L104210 76800
" />
<path d="M104210 77360
L104160 77390
L104040 77390
L103990 77360
L103960 77340
L103930 77280
L103930 77110
L103960 77050
L103990 77030
L104040 77000
L104160 77000
L104210 77030
" />
<path d="M104490 77340
L104520 77360
L104490 77390
L104460 77360
L104490 77340
L104490 77390
" />
<path d="M104490 77030
L104520 77050
L104490 77080
L104460 77050
L104490 77030
L104490 77080
" />
<path d="M105530 77390
L105190 77390
" />
<path d="M105360 77390
L105360 76800
L105300 76890
L105250 76940
L105190 76970
" />
<path d="M106090 77390
L105750 77390
" />
<path d="M105920 77390
L105920 76800
L105860 76890
L105810 76940
L105750 76970
" />
<path d="M106760 76770
L106260 77530
" />
<path d="M107270 77390
L106930 77390
" />
<path d="M107100 77390
L107100 76800
L107040 76890
L106990 76940
L106930 76970
" />
<path d="M107490 76860
L107520 76830
L107580 76800
L107720 76800
L107770 76830
L107800 76860
L107830 76910
L107830 76970
L107800 77050
L107460 77390
L107830 77390
" />
</g>
<g style="fill:#840000; fill-opacity:0.0; 
stroke:#840000; stroke-width:100; stroke-opacity:1; 
stroke-linecap:round; stroke-linejoin:round;">
</g>
<g style="fill:#840000; fill-opacity:0.0; 
stroke:#840000; stroke-width:60; stroke-opacity:1; 
stroke-linecap:round; stroke-linejoin:round;">
<path d="M69690 73820
L112210 73820
" />
</g>
<g style="fill:#840000; fill-opacity:0.0; 
stroke:#840000; stroke-width:100; stroke-opacity:1; 
stroke-linecap:round; stroke-linejoin:round;">
</g>
<g style="fill:#840000; fill-opacity:0.0; 
stroke:#840000; stroke-width:160; stroke-opacity:1; 
stroke-linecap:round; stroke-linejoin:round;">
<path d="M70260 74090
L70710 74090
" />
<path d="M70390 74880
L70480 74090
" />
<path d="M70880 74880
L70940 74360
" />
<path d="M70970 74090
L70930 74130
L70960 74170
L71010 74130
L70970 74090
L70960 74170
" />
<path d="M71210 74360
L71510 74360
" />
<path d="M71350 74090
L71270 74770
L71300 74840
L71370 74880
L71450 74880
" />
<path d="M71820 74880
L71750 74840
L71720 74770
L71800 74090
" />
<path d="M72420 74840
L72340 74880
L72190 74880
L72120 74840
L72090 74770
L72130 74470
L72180 74390
L72250 74360
L72400 74360
L72480 74390
L72510 74470
L72500 74540
L72110 74620
" />
<path d="M72800 74810
L72840 74840
L72800 74880
L72760 74840
L72800 74810
L72800 74880
" />
<path d="M72860 74390
L72890 74430
L72850 74470
L72810 74430
L72860 74390
L72850 74470
" />
<path d="M73780 74880
L73870 74090
L74060 74660
L74390 74090
L74300 74880
" />
<path d="M75020 74880
L75070 74470
L75040 74390
L74960 74360
L74810 74360
L74740 74390
" />
<path d="M75020 74840
L74940 74880
L74750 74880
L74680 74840
L74650 74770
L74660 74690
L74710 74620
L74780 74580
L74970 74580
L75060 74540
" />
<path d="M75390 74880
L75450 74360
" />
<path d="M75480 74090
L75440 74130
L75470 74170
L75520 74130
L75480 74090
L75470 74170
" />
<path d="M75830 74360
L75770 74880
" />
<path d="M75820 74430
L75870 74390
L75940 74360
L76050 74360
L76130 74390
L76160 74470
L76110 74880
" />
<path d="M76480 74880
L76570 74090
" />
<path d="M76540 74390
L76610 74360
L76760 74360
L76840 74390
L76870 74430
L76890 74510
L76860 74730
L76820 74810
L76780 74840
L76700 74880
L76550 74880
L76480 74840
" />
<path d="M77300 74880
L77230 74840
L77190 74810
L77160 74730
L77190 74510
L77240 74430
L77290 74390
L77360 74360
L77470 74360
L77550 74390
L77580 74430
L77600 74510
L77570 74730
L77530 74810
L77490 74840
L77410 74880
L77300 74880
" />
<path d="M78240 74880
L78290 74470
L78260 74390
L78180 74360
L78030 74360
L77960 74390
" />
<path d="M78240 74840
L78160 74880
L77970 74880
L77900 74840
L77870 74770
L77880 74690
L77930 74620
L78000 74580
L78190 74580
L78280 74540
" />
<path d="M78610 74880
L78670 74360
" />
<path d="M78650 74510
L78700 74430
L78740 74390
L78820 74360
L78890 74360
" />
<path d="M79440 74880
L79530 74090
" />
<path d="M79440 74840
L79360 74880
L79210 74880
L79140 74840
L79100 74810
L79070 74730
L79100 74510
L79150 74430
L79200 74390
L79270 74360
L79420 74360
L79500 74390
" />
<path d="M80720 74470
L80460 74470
" />
<path d="M80410 74880
L80500 74090
L80870 74090
" />
<path d="M81200 74880
L81130 74840
L81100 74770
L81180 74090
" />
<path d="M81840 74880
L81890 74470
L81860 74390
L81780 74360
L81630 74360
L81560 74390
" />
<path d="M81840 74840
L81760 74880
L81570 74880
L81500 74840
L81470 74770
L81480 74690
L81530 74620
L81600 74580
L81790 74580
L81880 74540
" />
<path d="M82170 74840
L82250 74880
L82400 74880
L82470 74840
L82520 74770
L82520 74730
L82490 74660
L82430 74620
L82310 74620
L82240 74580
L82210 74510
L82220 74470
L82270 74390
L82340 74360
L82460 74360
L82530 74390
" />
<path d="M82850 74880
L82940 74090
" />
<path d="M83190 74880
L83240 74470
L83210 74390
L83130 74360
L83020 74360
L82950 74390
L82900 74430
" />
<path d="M84570 74880
L84120 74880
" />
<path d="M84350 74880
L84440 74090
L84350 74210
L84270 74280
L84190 74320
" />
</g>
<g style="fill:#840000; fill-opacity:0.0; 
stroke:#840000; stroke-width:100; stroke-opacity:1; 
stroke-linecap:round; stroke-linejoin:round;">
</g>
<g style="fill:#840000; fill-opacity:0.0; 
stroke:#840000; stroke-width:60; stroke-opacity:1; 
stroke-linecap:round; stroke-linejoin:round;">
<path d="M70420 73060
L70220 73060
" />
<path d="M70220 73370
L70220 72780
L70500 72780
" />
<path d="M70730 73370
L70730 72980
" />
<path d="M70730 72780
L70700 72810
L70730 72840
L70760 72810
L70730 72780
L70730 72840
" />
<path d="M71090 73370
L71040 73340
L71010 73290
L71010 72780
" />
<path d="M71550 73340
L71490 73370
L71380 73370
L71320 73340
L71290 73290
L71290 73060
L71320 73010
L71380 72980
L71490 72980
L71550 73010
L71570 73060
L71570 73120
L71290 73180
" />
<path d="M71830 73320
L71860 73340
L71830 73370
L71800 73340
L71830 73320
L71830 73370
" />
<path d="M71830 73010
L71860 73030
L71830 73060
L71800 73030
L71830 73010
L71830 73060
" />
<path d="M72560 73370
L72560 72980
" />
<path d="M72560 73030
L72590 73010
L72640 72980
L72730 72980
L72790 73010
L72810 73060
L72810 73370
" />
<path d="M72810 73060
L72840 73010
L72900 72980
L72980 72980
L73040 73010
L73070 73060
L73070 73370
" />
<path d="M73600 73370
L73600 73060
L73580 73010
L73520 72980
L73410 72980
L73350 73010
" />
<path d="M73600 73340
L73550 73370
L73410 73370
L73350 73340
L73320 73290
L73320 73230
L73350 73180
L73410 73150
L73550 73150
L73600 73120
" />
<path d="M73880 73370
L73880 72980
" />
<path d="M73880 72780
L73850 72810
L73880 72840
L73910 72810
L73880 72780
L73880 72840
" />
<path d="M74160 72980
L74160 73370
" />
<path d="M74160 73030
L74190 73010
L74240 72980
L74330 72980
L74390 73010
L74410 73060
L74410 73370
" />
<path d="M74690 73370
L74690 72780
" />
<path d="M74690 73010
L74750 72980
L74860 72980
L74920 73010
L74940 73030
L74970 73090
L74970 73260
L74940 73320
L74920 73340
L74860 73370
L74750 73370
L74690 73340
" />
<path d="M75300 73370
L75250 73340
L75220 73320
L75190 73260
L75190 73090
L75220 73030
L75250 73010
L75300 72980
L75390 72980
L75450 73010
L75470 73030
L75500 73090
L75500 73260
L75470 73320
L75450 73340
L75390 73370
L75300 73370
" />
<path d="M76000 73370
L76000 73060
L75980 73010
L75920 72980
L75810 72980
L75750 73010
" />
<path d="M76000 73340
L75950 73370
L75810 73370
L75750 73340
L75720 73290
L75720 73230
L75750 73180
L75810 73150
L75950 73150
L76000 73120
" />
<path d="M76280 73370
L76280 72980
" />
<path d="M76280 73090
L76310 73030
L76340 73010
L76390 72980
L76450 72980
" />
<path d="M76900 73370
L76900 72780
" />
<path d="M76900 73340
L76850 73370
L76730 73370
L76680 73340
L76650 73320
L76620 73260
L76620 73090
L76650 73030
L76680 73010
L76730 72980
L76850 72980
L76900 73010
" />
<path d="M77040 73430
L77490 73430
" />
<path d="M77550 72980
L77770 72980
" />
<path d="M77630 73370
L77630 72870
L77660 72810
L77710 72780
L77770 72780
" />
<path d="M78050 73370
L78000 73340
L77970 73290
L77970 72780
" />
<path d="M78530 73370
L78530 73060
L78510 73010
L78450 72980
L78340 72980
L78280 73010
" />
<path d="M78530 73340
L78480 73370
L78340 73370
L78280 73340
L78250 73290
L78250 73230
L78280 73180
L78340 73150
L78480 73150
L78530 73120
" />
<path d="M78780 73340
L78840 73370
L78950 73370
L79010 73340
L79040 73290
L79040 73260
L79010 73200
L78950 73180
L78870 73180
L78810 73150
L78780 73090
L78780 73060
L78810 73010
L78870 72980
L78950 72980
L79010 73010
" />
<path d="M79290 73370
L79290 72780
" />
<path d="M79540 73370
L79540 73060
L79520 73010
L79460 72980
L79370 72980
L79320 73010
L79290 73030
" />
<path d="M79680 73430
L80130 73430
" />
<path d="M80580 73370
L80240 73370
" />
<path d="M80410 73370
L80410 72780
L80350 72870
L80300 72920
L80240 72950
" />
<path d="M80830 73320
L80860 73340
L80830 73370
L80800 73340
L80830 73320
L80830 73370
" />
<path d="M81080 73340
L81140 73370
L81250 73370
L81310 73340
L81340 73290
L81340 73260
L81310 73200
L81250 73180
L81170 73180
L81110 73150
L81080 73090
L81080 73060
L81110 73010
L81170 72980
L81250 72980
L81310 73010
" />
<path d="M81840 73340
L81790 73370
L81670 73370
L81620 73340
L81590 73320
L81560 73260
L81560 73090
L81590 73030
L81620 73010
L81670 72980
L81790 72980
L81840 73010
" />
<path d="M82100 73370
L82100 72780
" />
<path d="M82350 73370
L82350 73060
L82330 73010
L82270 72980
L82180 72980
L82130 73010
L82100 73030
" />
</g>
<g style="fill:#840000; fill-opacity:0.0; 
stroke:#840000; stroke-width:100; stroke-opacity:1; 
stroke-linecap:round; stroke-linejoin:round;">
</g>
<g style="fill:#840000; fill-opacity:0.0; 
stroke:#840000; stroke-width:60; stroke-opacity:1; 
stroke-linecap:round; stroke-linejoin:round;">
<path d="M69690 71460
L112210 71460
" />
</g>
<g style="fill:#840000; fill-opacity:0.0; 
stroke:#840000; stroke-width:100; stroke-opacity:1; 
stroke-linecap:round; stroke-linejoin:round;">
</g>
<g style="fill:#840000; fill-opacity:0.0; 
stroke:#840000; stroke-width:60; stroke-opacity:1; 
stroke-linecap:round; stroke-linejoin:round;">
<path d="M70190 72280
L70280 72310
L70420 72310
L70470 72280
L70500 72260
L70530 72200
L70530 72140
L70500 72090
L70470 72060
L70420 72030
L70300 72000
L70250 71970
L70220 71950
L70190 71890
L70190 71830
L70220 71780
L70250 71750
L70300 71720
L70450 71720
L70530 71750
" />
<path d="M70780 72310
L70780 71720
" />
<path d="M71030 72310
L71030 72000
L71010 71950
L70950 71920
L70860 71920
L70810 71950
L70780 71970
" />
<path d="M71540 72280
L71480 72310
L71370 72310
L71310 72280
L71280 72230
L71280 72000
L71310 71950
L71370 71920
L71480 71920
L71540 71950
L71560 72000
L71560 72060
L71280 72120
" />
<path d="M72050 72280
L71990 72310
L71880 72310
L71820 72280
L71790 72230
L71790 72000
L71820 71950
L71880 71920
L71990 71920
L72050 71950
L72070 72000
L72070 72060
L71790 72120
" />
<path d="M72250 71920
L72470 71920
" />
<path d="M72330 71720
L72330 72230
L72360 72280
L72410 72310
L72470 72310
" />
<path d="M72670 72260
L72700 72280
L72670 72310
L72640 72280
L72670 72260
L72670 72310
" />
<path d="M72670 71950
L72700 71970
L72670 72000
L72640 71970
L72670 71950
L72670 72000
" />
<path d="M73820 71690
L73320 72450
" />
<path d="M74020 72310
L74020 71720
L74220 72140
L74410 71720
L74410 72310
" />
<path d="M74940 72310
L74940 72000
L74920 71950
L74860 71920
L74750 71920
L74690 71950
" />
<path d="M74940 72280
L74890 72310
L74750 72310
L74690 72280
L74660 72230
L74660 72170
L74690 72120
L74750 72090
L74890 72090
L74940 72060
" />
<path d="M75220 72310
L75220 71920
" />
<path d="M75220 71720
L75190 71750
L75220 71780
L75250 71750
L75220 71720
L75220 71780
" />
<path d="M75500 71920
L75500 72310
" />
<path d="M75500 71970
L75530 71950
L75580 71920
L75670 71920
L75730 71950
L75750 72000
L75750 72310
" />
<path d="M76030 72310
L76030 71720
" />
<path d="M76030 71950
L76090 71920
L76200 71920
L76260 71950
L76280 71970
L76310 72030
L76310 72200
L76280 72260
L76260 72280
L76200 72310
L76090 72310
L76030 72280
" />
<path d="M76640 72310
L76590 72280
L76560 72260
L76530 72200
L76530 72030
L76560 71970
L76590 71950
L76640 71920
L76730 71920
L76790 71950
L76810 71970
L76840 72030
L76840 72200
L76810 72260
L76790 72280
L76730 72310
L76640 72310
" />
<path d="M77340 72310
L77340 72000
L77320 71950
L77260 71920
L77150 71920
L77090 71950
" />
<path d="M77340 72280
L77290 72310
L77150 72310
L77090 72280
L77060 72230
L77060 72170
L77090 72120
L77150 72090
L77290 72090
L77340 72060
" />
<path d="M77620 72310
L77620 71920
" />
<path d="M77620 72030
L77650 71970
L77680 71950
L77730 71920
L77790 71920
" />
<path d="M78240 72310
L78240 71720
" />
<path d="M78240 72280
L78190 72310
L78070 72310
L78020 72280
L77990 72260
L77960 72200
L77960 72030
L77990 71970
L78020 71950
L78070 71920
L78190 71920
L78240 71950
" />
<path d="M78970 72310
L78970 71920
" />
<path d="M78970 71970
L79000 71950
L79050 71920
L79140 71920
L79200 71950
L79220 72000
L79220 72310
" />
<path d="M79220 72000
L79250 71950
L79310 71920
L79390 71920
L79450 71950
L79480 72000
L79480 72310
" />
<path d="M79760 72310
L79760 71920
" />
<path d="M79760 71720
L79730 71750
L79760 71780
L79790 71750
L79760 71720
L79760 71780
" />
<path d="M80290 72280
L80240 72310
L80120 72310
L80070 72280
L80040 72260
L80010 72200
L80010 72030
L80040 71970
L80070 71950
L80120 71920
L80240 71920
L80290 71950
" />
<path d="M80550 72310
L80550 71920
" />
<path d="M80550 72030
L80580 71970
L80610 71950
L80660 71920
L80720 71920
" />
<path d="M81000 72310
L80950 72280
L80920 72260
L80890 72200
L80890 72030
L80920 71970
L80950 71950
L81000 71920
L81090 71920
L81150 71950
L81170 71970
L81200 72030
L81200 72200
L81170 72260
L81150 72280
L81090 72310
L81000 72310
" />
<path d="M81700 72280
L81650 72310
L81530 72310
L81480 72280
L81450 72260
L81420 72200
L81420 72030
L81450 71970
L81480 71950
L81530 71920
L81650 71920
L81700 71950
" />
<path d="M82040 72310
L81990 72280
L81960 72260
L81930 72200
L81930 72030
L81960 71970
L81990 71950
L82040 71920
L82130 71920
L82190 71950
L82210 71970
L82240 72030
L82240 72200
L82210 72260
L82190 72280
L82130 72310
L82040 72310
" />
<path d="M82490 71920
L82490 72310
" />
<path d="M82490 71970
L82520 71950
L82570 71920
L82660 71920
L82720 71950
L82740 72000
L82740 72310
" />
<path d="M82940 71920
L83160 71920
" />
<path d="M83020 71720
L83020 72230
L83050 72280
L83100 72310
L83160 72310
" />
<path d="M83360 72310
L83360 71920
" />
<path d="M83360 72030
L83390 71970
L83420 71950
L83470 71920
L83530 71920
" />
<path d="M83810 72310
L83760 72280
L83730 72260
L83700 72200
L83700 72030
L83730 71970
L83760 71950
L83810 71920
L83900 71920
L83960 71950
L83980 71970
L84010 72030
L84010 72200
L83980 72260
L83960 72280
L83900 72310
L83810 72310
" />
<path d="M84340 72310
L84290 72280
L84260 72230
L84260 71720
" />
<path d="M84650 72310
L84600 72280
L84570 72230
L84570 71720
" />
<path d="M85110 72280
L85050 72310
L84940 72310
L84880 72280
L84850 72230
L84850 72000
L84880 71950
L84940 71920
L85050 71920
L85110 71950
L85130 72000
L85130 72060
L84850 72120
" />
<path d="M85390 72310
L85390 71920
" />
<path d="M85390 72030
L85420 71970
L85450 71950
L85500 71920
L85560 71920
" />
<path d="M86180 71690
L85680 72450
" />
<path d="M86380 72310
L86380 71720
L86580 72140
L86770 71720
L86770 72310
" />
<path d="M87300 72310
L87300 72000
L87280 71950
L87220 71920
L87110 71920
L87050 71950
" />
<path d="M87300 72280
L87250 72310
L87110 72310
L87050 72280
L87020 72230
L87020 72170
L87050 72120
L87110 72090
L87250 72090
L87300 72060
" />
<path d="M87580 72310
L87580 71920
" />
<path d="M87580 71720
L87550 71750
L87580 71780
L87610 71750
L87580 71720
L87580 71780
" />
<path d="M87860 71920
L87860 72310
" />
<path d="M87860 71970
L87890 71950
L87940 71920
L88030 71920
L88090 71950
L88110 72000
L88110 72310
" />
<path d="M88390 72310
L88390 71720
" />
<path d="M88390 71950
L88450 71920
L88560 71920
L88620 71950
L88640 71970
L88670 72030
L88670 72200
L88640 72260
L88620 72280
L88560 72310
L88450 72310
L88390 72280
" />
<path d="M89000 72310
L88950 72280
L88920 72260
L88890 72200
L88890 72030
L88920 71970
L88950 71950
L89000 71920
L89090 71920
L89150 71950
L89170 71970
L89200 72030
L89200 72200
L89170 72260
L89150 72280
L89090 72310
L89000 72310
" />
<path d="M89700 72310
L89700 72000
L89680 71950
L89620 71920
L89510 71920
L89450 71950
" />
<path d="M89700 72280
L89650 72310
L89510 72310
L89450 72280
L89420 72230
L89420 72170
L89450 72120
L89510 72090
L89650 72090
L89700 72060
" />
<path d="M89980 72310
L89980 71920
" />
<path d="M89980 72030
L90010 71970
L90040 71950
L90090 71920
L90150 71920
" />
<path d="M90600 72310
L90600 71720
" />
<path d="M90600 72280
L90550 72310
L90430 72310
L90380 72280
L90350 72260
L90320 72200
L90320 72030
L90350 71970
L90380 71950
L90430 71920
L90550 71920
L90600 71950
" />
<path d="M90740 72370
L91190 72370
" />
<path d="M91530 72000
L91330 72000
" />
<path d="M91330 72310
L91330 71720
L91610 71720
" />
<path d="M91920 72310
L91870 72280
L91840 72230
L91840 71720
" />
<path d="M92400 72310
L92400 72000
L92380 71950
L92320 71920
L92210 71920
L92150 71950
" />
<path d="M92400 72280
L92350 72310
L92210 72310
L92150 72280
L92120 72230
L92120 72170
L92150 72120
L92210 72090
L92350 72090
L92400 72060
" />
<path d="M92650 72280
L92710 72310
L92820 72310
L92880 72280
L92910 72230
L92910 72200
L92880 72140
L92820 72120
L92740 72120
L92680 72090
L92650 72030
L92650 72000
L92680 71950
L92740 71920
L92820 71920
L92880 71950
" />
<path d="M93160 72310
L93160 71720
" />
<path d="M93410 72310
L93410 72000
L93390 71950
L93330 71920
L93240 71920
L93190 71950
L93160 71970
" />
<path d="M93550 72370
L94000 72370
" />
<path d="M94450 72310
L94110 72310
" />
<path d="M94280 72310
L94280 71720
L94220 71810
L94170 71860
L94110 71890
" />
<path d="M95120 71690
L94620 72450
" />
</g>
<g style="fill:#840000; fill-opacity:0.0; 
stroke:#840000; stroke-width:100; stroke-opacity:1; 
stroke-linecap:round; stroke-linejoin:round;">
</g>
<g style="fill:#840000; fill-opacity:0.0; 
stroke:#840000; stroke-width:120; stroke-opacity:1; 
stroke-linecap:round; stroke-linejoin:round;">
<path d="M70140 70540
L70330 71130
L70530 70540
" />
<path d="M70730 71130
L70730 70540
" />
<path d="M71010 71130
L71010 70540
L71240 70540
L71290 70570
L71320 70600
L71350 70650
L71350 70740
L71320 70790
L71290 70820
L71240 70850
L71010 70850
" />
<path d="M71600 70820
L71800 70820
" />
<path d="M71880 71130
L71600 71130
L71600 70540
L71880 70540
" />
<path d="M72470 71130
L72270 70850
" />
<path d="M72130 71130
L72130 70540
L72360 70540
L72410 70570
L72440 70600
L72470 70650
L72470 70740
L72440 70790
L72410 70820
L72360 70850
L72130 70850
" />
</g>
<g style="fill:#840000; fill-opacity:0.0; 
stroke:#840000; stroke-width:100; stroke-opacity:1; 
stroke-linecap:round; stroke-linejoin:round;">
</g>
<g style="fill:#840000; fill-opacity:0.0; 
stroke:#840000; stroke-width:60; stroke-opacity:1; 
stroke-linecap:round; stroke-linejoin:round;">
<path d="M77560 75400
L77560 76580
" />
</g>
<g style="fill:#840000; fill-opacity:0.0; 
stroke:#840000; stroke-width:100; stroke-opacity:1; 
stroke-linecap:round; stroke-linejoin:round;">
</g>
<g style="fill:#840000; fill-opacity:0.0; 
stroke:#840000; stroke-width:60; stroke-opacity:1; 
stroke-linecap:round; stroke-linejoin:round;">
<path d="M102760 75400
L102760 77960
" />
</g>
<g style="fill:#840000; fill-opacity:0.0; 
stroke:#840000; stroke-width:0; stroke-opacity:1; 
stroke-linecap:round; stroke-linejoin:round;">
</g>
<g style="fill:#840000; fill-opacity:0.0; 
stroke:#840000; stroke-width:60; stroke-opacity:1; 
stroke-linecap:round; stroke-linejoin:round;">
<rect x="54000" y="39000" width="7000" height="5000" rx="0" />
<path d="M54000 40000
L52000 40000
" />
</g>
<g style="fill:#008484; fill-opacity:0.0; 
stroke:#008484; stroke-width:60; stroke-opacity:1; 
stroke-linecap:round; stroke-linejoin:round;">
<path d="M54800 40180
L54780 40200
L54710 40230
L54660 40230
L54590 40200
L54540 40150
L54520 40110
L54500 40010
L54500 39940
L54520 39850
L54540 39800
L54590 39750
L54660 39730
L54710 39730
L54780 39750
L54800 39770
" />
<path d="M55020 39960
L55190 39960
" />
<path d="M55260 40230
L55020 40230
L55020 39730
L55260 39730
" />
</g>
<g style="fill:#840000; fill-opacity:0.0; 
stroke:#840000; stroke-width:60; stroke-opacity:1; 
stroke-linecap:round; stroke-linejoin:round;">
<path d="M53140 39880
L52860 39880
" />
<path d="M53000 39880
L53000 39380
L52950 39450
L52900 39500
L52860 39520
" />
<path d="M54000 41000
L52000 41000
" />
</g>
<g style="fill:#008484; fill-opacity:0.0; 
stroke:#008484; stroke-width:60; stroke-opacity:1; 
stroke-linecap:round; stroke-linejoin:round;">
<path d="M54500 41200
L54570 41230
L54690 41230
L54730 41200
L54760 41180
L54780 41130
L54780 41080
L54760 41040
L54730 41010
L54690 40990
L54590 40960
L54540 40940
L54520 40920
L54500 40870
L54500 40820
L54520 40770
L54540 40750
L54590 40730
L54710 40730
L54780 40750
" />
<path d="M55090 40730
L55190 40730
L55240 40750
L55280 40800
L55310 40890
L55310 41060
L55280 41150
L55240 41200
L55190 41230
L55090 41230
L55050 41200
L55000 41150
L54980 41060
L54980 40890
L55000 40800
L55050 40750
L55090 40730
" />
</g>
<g style="fill:#840000; fill-opacity:0.0; 
stroke:#840000; stroke-width:60; stroke-opacity:1; 
stroke-linecap:round; stroke-linejoin:round;">
<path d="M52860 40420
L52880 40400
L52930 40380
L53050 40380
L53090 40400
L53120 40420
L53140 40470
L53140 40520
L53120 40590
L52830 40880
L53140 40880
" />
<path d="M54000 42000
L52000 42000
" />
</g>
<g style="fill:#008484; fill-opacity:0.0; 
stroke:#008484; stroke-width:60; stroke-opacity:1; 
stroke-linecap:round; stroke-linejoin:round;">
<path d="M54470 41730
L54590 42230
L54690 41870
L54780 42230
L54900 41730
" />
<path d="M55090 42230
L55090 41730
L55280 41730
L55330 41750
L55350 41770
L55370 41820
L55370 41890
L55350 41940
L55330 41960
L55280 41990
L55090 41990
" />
</g>
<g style="fill:#840000; fill-opacity:0.0; 
stroke:#840000; stroke-width:60; stroke-opacity:1; 
stroke-linecap:round; stroke-linejoin:round;">
<path d="M52830 41380
L53140 41380
L52970 41570
L53050 41570
L53090 41590
L53120 41610
L53140 41660
L53140 41780
L53120 41830
L53090 41850
L53050 41880
L52900 41880
L52860 41850
L52830 41830
" />
<path d="M54000 43000
L52000 43000
" />
</g>
<g style="fill:#008484; fill-opacity:0.0; 
stroke:#008484; stroke-width:60; stroke-opacity:1; 
stroke-linecap:round; stroke-linejoin:round;">
<path d="M54450 42730
L54610 43230
L54780 42730
" />
<path d="M54930 43200
L54970 43230
L55070 43230
L55120 43200
L55140 43150
L55140 43130
L55120 43080
L55070 43060
L55000 43060
L54950 43040
L54930 42990
L54930 42960
L54950 42920
L55000 42890
L55070 42890
L55120 42920
" />
<path d="M55330 43200
L55370 43230
L55470 43230
L55520 43200
L55540 43150
L55540 43130
L55520 43080
L55470 43060
L55400 43060
L55350 43040
L55330 42990
L55330 42960
L55350 42920
L55400 42890
L55470 42890
L55520 42920
" />
</g>
<g style="fill:#840000; fill-opacity:0.0; 
stroke:#840000; stroke-width:60; stroke-opacity:1; 
stroke-linecap:round; stroke-linejoin:round;">
<path d="M53090 42540
L53090 42880
" />
<path d="M52970 42350
L52860 42710
L53160 42710
" />
<path d="M61000 43000
L63000 43000
" />
</g>
<g style="fill:#008484; fill-opacity:0.0; 
stroke:#008484; stroke-width:60; stroke-opacity:1; 
stroke-linecap:round; stroke-linejoin:round;">
<path d="M59980 43200
L60050 43230
L60170 43230
L60210 43200
L60240 43180
L60260 43130
L60260 43080
L60240 43040
L60210 43010
L60170 42990
L60070 42960
L60020 42940
L60000 42920
L59980 42870
L59980 42820
L60000 42770
L60020 42750
L60070 42730
L60190 42730
L60260 42750
" />
<path d="M60480 43230
L60480 42730
" />
</g>
<g style="fill:#840000; fill-opacity:0.0; 
stroke:#840000; stroke-width:60; stroke-opacity:1; 
stroke-linecap:round; stroke-linejoin:round;">
<path d="M62120 42380
L61880 42380
L61860 42610
L61880 42590
L61930 42570
L62050 42570
L62090 42590
L62120 42610
L62140 42660
L62140 42780
L62120 42830
L62090 42850
L62050 42880
L61930 42880
L61880 42850
L61860 42830
" />
<path d="M61000 42000
L63000 42000
" />
</g>
<g style="fill:#008484; fill-opacity:0.0; 
stroke:#008484; stroke-width:60; stroke-opacity:1; 
stroke-linecap:round; stroke-linejoin:round;">
<path d="M59220 42200
L59290 42230
L59410 42230
L59450 42200
L59480 42180
L59500 42130
L59500 42080
L59480 42040
L59450 42010
L59410 41990
L59310 41960
L59260 41940
L59240 41920
L59220 41870
L59220 41820
L59240 41770
L59260 41750
L59310 41730
L59430 41730
L59500 41750
" />
<path d="M60000 42180
L59980 42200
L59910 42230
L59860 42230
L59790 42200
L59740 42150
L59720 42110
L59700 42010
L59700 41940
L59720 41850
L59740 41800
L59790 41750
L59860 41730
L59910 41730
L59980 41750
L60000 41770
" />
<path d="M60220 42230
L60220 41730
" />
<path d="M60500 42230
L60290 41940
" />
<path d="M60500 41730
L60220 42010
" />
</g>
<g style="fill:#840000; fill-opacity:0.0; 
stroke:#840000; stroke-width:60; stroke-opacity:1; 
stroke-linecap:round; stroke-linejoin:round;">
<path d="M62090 41380
L62000 41380
L61950 41400
L61930 41420
L61880 41500
L61860 41590
L61860 41780
L61880 41830
L61900 41850
L61950 41880
L62050 41880
L62090 41850
L62120 41830
L62140 41780
L62140 41660
L62120 41610
L62090 41590
L62050 41570
L61950 41570
L61900 41590
L61880 41610
L61860 41660
" />
<path d="M61000 41000
L63000 41000
" />
</g>
<g style="fill:#008484; fill-opacity:0.0; 
stroke:#008484; stroke-width:60; stroke-opacity:1; 
stroke-linecap:round; stroke-linejoin:round;">
<path d="M58780 41230
L58780 40730
" />
<path d="M58780 40960
L59060 40960
" />
<path d="M59060 41230
L59060 40730
" />
<path d="M59390 40730
L59490 40730
L59540 40750
L59580 40800
L59610 40890
L59610 41060
L59580 41150
L59540 41200
L59490 41230
L59390 41230
L59350 41200
L59300 41150
L59280 41060
L59280 40890
L59300 40800
L59350 40750
L59390 40730
" />
<path d="M60060 41230
L59820 41230
L59820 40730
" />
<path d="M60220 41230
L60220 40730
L60340 40730
L60410 40750
L60460 40800
L60480 40850
L60500 40940
L60500 41010
L60480 41110
L60460 41150
L60410 41200
L60340 41230
L60220 41230
" />
</g>
<g style="fill:#840000; fill-opacity:0.0; 
stroke:#840000; stroke-width:60; stroke-opacity:1; 
stroke-linecap:round; stroke-linejoin:round;">
<path d="M61830 40380
L62160 40380
L61950 40880
" />
<path d="M61000 40000
L63000 40000
" />
</g>
<g style="fill:#008484; fill-opacity:0.0; 
stroke:#008484; stroke-width:60; stroke-opacity:1; 
stroke-linecap:round; stroke-linejoin:round;">
<path d="M59220 39730
L59380 40230
L59550 39730
" />
<path d="M59720 40230
L59720 39730
L59840 39730
L59910 39750
L59960 39800
L59980 39850
L60000 39940
L60000 40010
L59980 40110
L59960 40150
L59910 40200
L59840 40230
L59720 40230
" />
<path d="M60220 40230
L60220 39730
L60340 39730
L60410 39750
L60460 39800
L60480 39850
L60500 39940
L60500 40010
L60480 40110
L60460 40150
L60410 40200
L60340 40230
L60220 40230
" />
</g>
<g style="fill:#840000; fill-opacity:0.0; 
stroke:#840000; stroke-width:60; stroke-opacity:1; 
stroke-linecap:round; stroke-linejoin:round;">
<path d="M61950 39590
L61900 39570
L61880 39540
L61860 39500
L61860 39470
L61880 39420
L61900 39400
L61950 39380
L62050 39380
L62090 39400
L62120 39420
L62140 39470
L62140 39500
L62120 39540
L62090 39570
L62050 39590
L61950 39590
L61900 39610
L61880 39640
L61860 39690
L61860 39780
L61880 39830
L61900 39850
L61950 39880
L62050 39880
L62090 39850
L62120 39830
L62140 39780
L62140 39690
L62120 39640
L62090 39610
L62050 39590
" />
</g>
<g style="fill:#008484; fill-opacity:0.0; 
stroke:#008484; stroke-width:60; stroke-opacity:1; 
stroke-linecap:round; stroke-linejoin:round;">
<path d="M56190 44210
L56190 44700
L56220 44750
L56250 44780
L56310 44810
L56420 44810
L56480 44780
L56510 44750
L56540 44700
L56540 44210
" />
<path d="M57140 44810
L56790 44810
" />
<path d="M56970 44810
L56970 44210
L56910 44300
L56850 44350
L56790 44380
" />
<path d="M57710 44810
L57360 44810
" />
<path d="M57540 44810
L57540 44210
L57480 44300
L57420 44350
L57360 44380
" />
<path d="M58080 44210
L58130 44210
L58190 44240
L58220 44270
L58250 44330
L58280 44440
L58280 44580
L58250 44700
L58220 44750
L58190 44780
L58130 44810
L58080 44810
L58020 44780
L57990 44750
L57960 44700
L57930 44580
L57930 44440
L57960 44330
L57990 44270
L58020 44240
L58080 44210
" />
<path d="M58850 44810
L58500 44810
" />
<path d="M58680 44810
L58680 44210
L58620 44300
L58560 44350
L58500 44380
" />
<path d="M54580 38780
L54670 38810
L54810 38810
L54870 38780
L54900 38750
L54930 38700
L54930 38640
L54900 38580
L54870 38550
L54810 38530
L54700 38500
L54640 38470
L54610 38440
L54580 38380
L54580 38330
L54610 38270
L54640 38240
L54700 38210
L54840 38210
L54930 38240
" />
<path d="M55150 38780
L55240 38810
L55380 38810
L55440 38780
L55470 38750
L55500 38700
L55500 38640
L55470 38580
L55440 38550
L55380 38530
L55270 38500
L55210 38470
L55180 38440
L55150 38380
L55150 38330
L55180 38270
L55210 38240
L55270 38210
L55410 38210
L55500 38240
" />
<path d="M55670 38210
L56010 38210
" />
<path d="M55840 38810
L55840 38210
" />
<path d="M56180 38270
L56210 38240
L56270 38210
L56410 38210
L56470 38240
L56500 38270
L56530 38330
L56530 38380
L56500 38470
L56160 38810
L56530 38810
" />
<path d="M57040 38210
L56930 38210
L56870 38240
L56840 38270
L56780 38350
L56750 38470
L56750 38700
L56780 38750
L56810 38780
L56870 38810
L56980 38810
L57040 38780
L57070 38750
L57100 38700
L57100 38550
L57070 38500
L57040 38470
L56980 38440
L56870 38440
L56810 38470
L56780 38500
L56750 38550
" />
<path d="M57270 38210
L57470 38810
L57670 38210
" />
<path d="M58060 38500
L57860 38500
" />
<path d="M57860 38810
L57860 38210
L58150 38210
" />
<path d="M58490 38210
L58540 38210
L58600 38240
L58630 38270
L58660 38330
L58690 38440
L58690 38580
L58660 38700
L58630 38750
L58600 38780
L58540 38810
L58490 38810
L58430 38780
L58400 38750
L58370 38700
L58340 38580
L58340 38440
L58370 38330
L58400 38270
L58430 38240
L58490 38210
" />
<path d="M59200 38210
L59090 38210
L59030 38240
L59000 38270
L58940 38350
L58910 38470
L58910 38700
L58940 38750
L58970 38780
L59030 38810
L59140 38810
L59200 38780
L59230 38750
L59260 38700
L59260 38550
L59230 38500
L59200 38470
L59140 38440
L59030 38440
L58970 38470
L58940 38500
L58910 38550
" />
<path d="M59770 38410
L59770 38810
" />
<path d="M59630 38180
L59480 38610
L59860 38610
" />
<path d="M60280 38500
L60370 38530
L60400 38550
L60430 38610
L60430 38700
L60400 38750
L60370 38780
L60310 38810
L60080 38810
L60080 38210
L60280 38210
L60340 38240
L60370 38270
L60400 38330
L60400 38380
L60370 38440
L60340 38470
L60280 38500
L60080 38500
" />
</g>
<g style="fill:#008484; fill-opacity:0.0; 
stroke:#008484; stroke-width:0; stroke-opacity:1; 
stroke-linecap:round; stroke-linejoin:round;">
</g>
<g style="fill:#840000; fill-opacity:0.0; 
stroke:#840000; stroke-width:0; stroke-opacity:1; 
stroke-linecap:round; stroke-linejoin:round;">
</g>
<g style="fill:#840000; fill-opacity:0.0; 
stroke:#840000; stroke-width:200; stroke-opacity:1; 
stroke-linecap:round; stroke-linejoin:round;">
<polyline fill="none;"
points="45700,42300
47300,42300
" /> 
<polyline fill="none;"
points="45700,41700
47300,41700
" /> 
</g>
<g style="fill:#840000; fill-opacity:0.0; 
stroke:#840000; stroke-width:60; stroke-opacity:1; 
stroke-linecap:round; stroke-linejoin:round;">
<path d="M46500 41600
L46500 40500
" />
<path d="M46500 42400
L46500 43500
" />
</g>
<g style="fill:#008484; fill-opacity:0.0; 
stroke:#008484; stroke-width:60; stroke-opacity:1; 
stroke-linecap:round; stroke-linejoin:round;">
<path d="M47150 41210
L47130 41230
L47060 41260
L47010 41260
L46940 41230
L46890 41180
L46870 41140
L46850 41040
L46850 40970
L46870 40880
L46890 40830
L46940 40780
L47010 40760
L47060 40760
L47130 40780
L47150 40800
" />
<path d="M47630 41260
L47350 41260
" />
<path d="M47490 41260
L47490 40760
L47440 40830
L47390 40880
L47350 40900
" />
<path d="M48110 41260
L47830 41260
" />
<path d="M47970 41260
L47970 40760
L47920 40830
L47870 40880
L47830 40900
" />
<path d="M48420 40760
L48470 40760
L48520 40780
L48540 40800
L48570 40850
L48590 40950
L48590 41070
L48570 41160
L48540 41210
L48520 41230
L48470 41260
L48420 41260
L48380 41230
L48350 41210
L48330 41160
L48310 41070
L48310 40950
L48330 40850
L48350 40800
L48380 40780
L48420 40760
" />
<path d="M49070 41260
L48790 41260
" />
<path d="M48930 41260
L48930 40760
L48880 40830
L48830 40880
L48790 40900
" />
<path d="M47130 43260
L46850 43260
" />
<path d="M46990 43260
L46990 42760
L46940 42830
L46890 42880
L46850 42900
" />
<path d="M47440 42760
L47490 42760
L47540 42780
L47560 42800
L47590 42850
L47610 42950
L47610 43070
L47590 43160
L47560 43210
L47540 43230
L47490 43260
L47440 43260
L47400 43230
L47370 43210
L47350 43160
L47330 43070
L47330 42950
L47350 42850
L47370 42800
L47400 42780
L47440 42760
" />
<path d="M47920 42760
L47970 42760
L48020 42780
L48040 42800
L48070 42850
L48090 42950
L48090 43070
L48070 43160
L48040 43210
L48020 43230
L47970 43260
L47920 43260
L47880 43230
L47850 43210
L47830 43160
L47810 43070
L47810 42950
L47830 42850
L47850 42800
L47880 42780
L47920 42760
" />
<path d="M48310 42920
L48310 43260
" />
<path d="M48310 42970
L48330 42950
L48380 42920
L48450 42920
L48500 42950
L48520 42990
L48520 43260
" />
</g>
<g style="fill:#008484; fill-opacity:0.0; 
stroke:#008484; stroke-width:0; stroke-opacity:1; 
stroke-linecap:round; stroke-linejoin:round;">
</g>
<g style="fill:#840000; fill-opacity:0.0; 
stroke:#840000; stroke-width:0; stroke-opacity:1; 
stroke-linecap:round; stroke-linejoin:round;">
</g>
<g style="fill:#840000; fill-opacity:0.0; 
stroke:#840000; stroke-width:60; stroke-opacity:1; 
stroke-linecap:round; stroke-linejoin:round;">
<polyline fill="none;"
points="63700,38500
64000,38000
" /> 
<polyline fill="none;"
points="64000,39000
64000,38000
" /> 
<polyline fill="none;"
points="64000,38000
64300,38500
" /> 
</g>
<g style="fill:#008484; fill-opacity:0.0; 
stroke:#008484; stroke-width:60; stroke-opacity:1; 
stroke-linecap:round; stroke-linejoin:round;">
<path d="M63120 37670
L63500 37670
" />
<path d="M63310 37860
L63310 37480
" />
<path d="M63690 37360
L64000 37360
L63830 37550
L63910 37550
L63950 37570
L63980 37590
L64000 37640
L64000 37760
L63980 37810
L63950 37830
L63910 37860
L63760 37860
L63720 37830
L63690 37810
" />
<path d="M64150 37360
L64310 37860
L64480 37360
" />
<path d="M64600 37360
L64910 37360
L64740 37550
L64820 37550
L64860 37570
L64890 37590
L64910 37640
L64910 37760
L64890 37810
L64860 37830
L64820 37860
L64670 37860
L64630 37830
L64600 37810
" />
</g>
<g style="fill:#008484; fill-opacity:0.0; 
stroke:#008484; stroke-width:0; stroke-opacity:1; 
stroke-linecap:round; stroke-linejoin:round;">
</g>
<g style="fill:#840000; fill-opacity:0.0; 
stroke:#840000; stroke-width:0; stroke-opacity:1; 
stroke-linecap:round; stroke-linejoin:round;">
</g>
<g style="fill:#840000; fill-opacity:0.0; 
stroke:#840000; stroke-width:60; stroke-opacity:1; 
stroke-linecap:round; stroke-linejoin:round;">
<polyline fill="none;"
points="46200,39000
46500,38500
" /> 
<polyline fill="none;"
points="46500,39500
46500,38500
" /> 
<polyline fill="none;"
points="46500,38500
46800,39000
" /> 
</g>
<g style="fill:#008484; fill-opacity:0.0; 
stroke:#008484; stroke-width:60; stroke-opacity:1; 
stroke-linecap:round; stroke-linejoin:round;">
<path d="M45620 38170
L46000 38170
" />
<path d="M45810 38360
L45810 37980
" />
<path d="M46190 37860
L46500 37860
L46330 38050
L46410 38050
L46450 38070
L46480 38090
L46500 38140
L46500 38260
L46480 38310
L46450 38330
L46410 38360
L46260 38360
L46220 38330
L46190 38310
" />
<path d="M46650 37860
L46810 38360
L46980 37860
" />
<path d="M47100 37860
L47410 37860
L47240 38050
L47320 38050
L47360 38070
L47390 38090
L47410 38140
L47410 38260
L47390 38310
L47360 38330
L47320 38360
L47170 38360
L47130 38330
L47100 38310
" />
</g>
<g style="fill:#008484; fill-opacity:0.0; 
stroke:#008484; stroke-width:0; stroke-opacity:1; 
stroke-linecap:round; stroke-linejoin:round;">
</g>
<g style="fill:#840000; fill-opacity:0.0; 
stroke:#840000; stroke-width:0; stroke-opacity:1; 
stroke-linecap:round; stroke-linejoin:round;">
</g>
<g style="fill:#840000; fill-opacity:0.0; 
stroke:#840000; stroke-width:60; stroke-opacity:1; 
stroke-linecap:round; stroke-linejoin:round;">
<polyline fill="none;"
points="51000,44000
51000,44500
51500,44500
51000,45000
50500,44500
51000,44500
" /> 
</g>
<g style="fill:#008484; fill-opacity:0.0; 
stroke:#008484; stroke-width:60; stroke-opacity:1; 
stroke-linecap:round; stroke-linejoin:round;">
<path d="M50620 45280
L50570 45260
L50500 45260
L50430 45280
L50380 45330
L50360 45380
L50340 45470
L50340 45540
L50360 45640
L50380 45680
L50430 45730
L50500 45760
L50550 45760
L50620 45730
L50640 45710
L50640 45540
L50550 45540
" />
<path d="M50860 45760
L50860 45260
L51140 45760
L51140 45260
" />
<path d="M51380 45760
L51380 45260
L51500 45260
L51570 45280
L51620 45330
L51640 45380
L51660 45470
L51660 45540
L51640 45640
L51620 45680
L51570 45730
L51500 45760
L51380 45760
" />
</g>
<g style="fill:#008484; fill-opacity:0.0; 
stroke:#008484; stroke-width:0; stroke-opacity:1; 
stroke-linecap:round; stroke-linejoin:round;">
</g>
<g style="fill:#840000; fill-opacity:0.0; 
stroke:#840000; stroke-width:0; stroke-opacity:1; 
stroke-linecap:round; stroke-linejoin:round;">
</g>
<g style="fill:#840000; fill-opacity:0.0; 
stroke:#840000; stroke-width:60; stroke-opacity:1; 
stroke-linecap:round; stroke-linejoin:round;">
<polyline fill="none;"
points="46500,44500
46500,45000
47000,45000
46500,45500
46000,45000
46500,45000
" /> 
</g>
<g style="fill:#008484; fill-opacity:0.0; 
stroke:#008484; stroke-width:60; stroke-opacity:1; 
stroke-linecap:round; stroke-linejoin:round;">
<path d="M46120 45780
L46070 45760
L46000 45760
L45930 45780
L45880 45830
L45860 45880
L45840 45970
L45840 46040
L45860 46140
L45880 46180
L45930 46230
L46000 46260
L46050 46260
L46120 46230
L46140 46210
L46140 46040
L46050 46040
" />
<path d="M46360 46260
L46360 45760
L46640 46260
L46640 45760
" />
<path d="M46880 46260
L46880 45760
L47000 45760
L47070 45780
L47120 45830
L47140 45880
L47160 45970
L47160 46040
L47140 46140
L47120 46180
L47070 46230
L47000 46260
L46880 46260
" />
</g>
<g style="fill:#008484; fill-opacity:0.0; 
stroke:#008484; stroke-width:0; stroke-opacity:1; 
stroke-linecap:round; stroke-linejoin:round;">
</g>
<g style="fill:#840000; fill-opacity:0.0; 
stroke:#840000; stroke-width:0; stroke-opacity:1; 
stroke-linecap:round; stroke-linejoin:round;">
</g>
<g style="fill:#840000; fill-opacity:0.0; 
stroke:#840000; stroke-width:60; stroke-opacity:1; 
stroke-linecap:round; stroke-linejoin:round;">
<polyline fill="none;"
points="50500,42300
50000,42000
" /> 
<polyline fill="none;"
points="51000,42000
50000,42000
" /> 
<polyline fill="none;"
points="50000,42000
50500,41700
" /> 
</g>
<g style="fill:#008484; fill-opacity:0.0; 
stroke:#008484; stroke-width:60; stroke-opacity:1; 
stroke-linecap:round; stroke-linejoin:round;">
<path d="M49670 42870
L49670 42490
" />
<path d="M49860 42680
L49480 42680
" />
<path d="M49360 42300
L49360 41990
L49550 42160
L49550 42080
L49570 42040
L49590 42010
L49640 41990
L49760 41990
L49810 42010
L49830 42040
L49860 42080
L49860 42230
L49830 42270
L49810 42300
" />
<path d="M49360 41840
L49860 41680
L49360 41510
" />
<path d="M49360 41390
L49360 41080
L49550 41250
L49550 41170
L49570 41130
L49590 41100
L49640 41080
L49760 41080
L49810 41100
L49830 41130
L49860 41170
L49860 41320
L49830 41360
L49810 41390
" />
</g>
<g style="fill:#008400; fill-opacity:0.0; 
stroke:#008400; stroke-width:60; stroke-opacity:1; 
stroke-linecap:round; stroke-linejoin:round;">
<path d="M64000 40000
L63000 40000
" />
<path d="M46500 44500
L46500 43500
" />
<path d="M46500 40500
L46500 39500
" />
<path d="M51000 44000
L51000 43000
" />
<path d="M51000 43000
L52000 43000
" />
<path d="M73000 42000
L66000 42000
" />
<path d="M66000 37000
L51000 37000
" />
<path d="M51000 37000
L51000 41000
" />
<path d="M63000 42000
L65000 42000
" />
<path d="M66000 42000
L66000 37000
" />
<path d="M65000 41000
L73000 41000
" />
<path d="M64000 41000
L63000 41000
" />
</g>
<g style="fill:#008400; fill-opacity:0.0; 
stroke:#008400; stroke-width:0; stroke-opacity:1; 
stroke-linecap:round; stroke-linejoin:round;">
</g>
<g style="fill:#008400; fill-opacity:1.0; 
stroke:#008400; stroke-width:100; stroke-opacity:1; 
stroke-linecap:round; stroke-linejoin:round;">
<circle cx="64000" cy="40000" r="200" /> 
</g>
<g style="fill:#008400; fill-opacity:1.0; 
stroke:#008400; stroke-width:60; stroke-opacity:1; 
stroke-linecap:round; stroke-linejoin:round;">
</g>
<g style="fill:#008400; fill-opacity:0.0; 
stroke:#008400; stroke-width:60; stroke-opacity:1; 
stroke-linecap:round; stroke-linejoin:round;">
<path d="M50000 36000
L67000 36000
" />
<path d="M67000 36000
L67000 40000
" />
<path d="M67000 40000
L73000 40000
" />
<path d="M50000 36000
L50000 40000
" />
<path d="M50000 40000
L52000 40000
" />
<path d="M51000 42000
L52000 42000
" />
<path d="M63000 43000
L73000 43000
" />
<path d="M64000 39000
L64000 41000
" />
<path d="M65000 42000
L65000 41000
" />
<path d="M51000 41000
L52000 41000
" />
</g>
<g style="fill:#848400; fill-opacity:0.0; 
stroke:#848400; stroke-width:60; stroke-opacity:1; 
stroke-linecap:round; stroke-linejoin:round;">
<path d="M74250 40210
L74220 40240
L74130 40270
L74070 40270
L73990 40240
L73930 40190
L73900 40130
L73870 40010
L73870 39930
L73900 39810
L73930 39760
L73990 39700
L74070 39670
L74130 39670
L74220 39700
L74250 39730
" />
<path d="M74470 40240
L74560 40270
L74700 40270
L74760 40240
L74790 40210
L74820 40160
L74820 40100
L74790 40040
L74760 40010
L74700 39990
L74590 39960
L74530 39930
L74500 39900
L74470 39840
L74470 39790
L74500 39730
L74530 39700
L74590 39670
L74730 39670
L74820 39700
" />
</g>
<g style="fill:#848400; fill-opacity:0.0; 
stroke:#848400; stroke-width:100; stroke-opacity:1; 
stroke-linecap:round; stroke-linejoin:round;">
<polyline fill="none;"
points="73000,40000
73300,40300
73600,40300
73600,39700
73300,39700
73000,40000
" /> 
</g>
<g style="fill:#848400; fill-opacity:0.0; 
stroke:#848400; stroke-width:60; stroke-opacity:1; 
stroke-linecap:round; stroke-linejoin:round;">
<path d="M73870 41240
L73960 41270
L74100 41270
L74160 41240
L74190 41210
L74220 41160
L74220 41100
L74190 41040
L74160 41010
L74100 40990
L73990 40960
L73930 40930
L73900 40900
L73870 40840
L73870 40790
L73900 40730
L73930 40700
L73990 40670
L74130 40670
L74220 40700
" />
<path d="M74820 41210
L74790 41240
L74700 41270
L74640 41270
L74560 41240
L74500 41190
L74470 41130
L74440 41010
L74440 40930
L74470 40810
L74500 40760
L74560 40700
L74640 40670
L74700 40670
L74790 40700
L74820 40730
" />
<path d="M75070 41270
L75070 40670
" />
<path d="M75420 41270
L75160 40930
" />
<path d="M75420 40670
L75070 41010
" />
</g>
<g style="fill:#848400; fill-opacity:0.0; 
stroke:#848400; stroke-width:100; stroke-opacity:1; 
stroke-linecap:round; stroke-linejoin:round;">
<polyline fill="none;"
points="73000,41000
73300,41300
73600,41300
73600,40700
73300,40700
73000,41000
" /> 
</g>
<g style="fill:#848400; fill-opacity:0.0; 
stroke:#848400; stroke-width:60; stroke-opacity:1; 
stroke-linecap:round; stroke-linejoin:round;">
<path d="M73900 43270
L73900 42670
L74100 43100
L74300 42670
L74300 43270
" />
<path d="M74710 42670
L74820 42670
L74880 42700
L74940 42760
L74960 42870
L74960 43070
L74940 43190
L74880 43240
L74820 43270
L74710 43270
L74650 43240
L74590 43190
L74560 43070
L74560 42870
L74590 42760
L74650 42700
L74710 42670
" />
<path d="M75190 43240
L75280 43270
L75420 43270
L75480 43240
L75510 43210
L75540 43160
L75540 43100
L75510 43040
L75480 43010
L75420 42990
L75310 42960
L75250 42930
L75220 42900
L75190 42840
L75190 42790
L75220 42730
L75250 42700
L75310 42670
L75450 42670
L75540 42700
" />
<path d="M75790 43270
L75790 42670
" />
</g>
<g style="fill:#848400; fill-opacity:0.0; 
stroke:#848400; stroke-width:100; stroke-opacity:1; 
stroke-linecap:round; stroke-linejoin:round;">
<polyline fill="none;"
points="73000,43000
73300,43300
73600,43300
73600,42700
73300,42700
73000,43000
" /> 
</g>
<g style="fill:#848400; fill-opacity:0.0; 
stroke:#848400; stroke-width:60; stroke-opacity:1; 
stroke-linecap:round; stroke-linejoin:round;">
<path d="M73900 42270
L73900 41670
L74100 42100
L74300 41670
L74300 42270
" />
<path d="M74590 42270
L74590 41670
" />
<path d="M74850 42240
L74940 42270
L75080 42270
L75140 42240
L75170 42210
L75200 42160
L75200 42100
L75170 42040
L75140 42010
L75080 41990
L74970 41960
L74910 41930
L74880 41900
L74850 41840
L74850 41790
L74880 41730
L74910 41700
L74970 41670
L75110 41670
L75200 41700
" />
<path d="M75570 41670
L75680 41670
L75740 41700
L75800 41760
L75820 41870
L75820 42070
L75800 42190
L75740 42240
L75680 42270
L75570 42270
L75510 42240
L75450 42190
L75420 42070
L75420 41870
L75450 41760
L75510 41700
L75570 41670
" />
</g>
<g style="fill:#848400; fill-opacity:0.0; 
stroke:#848400; stroke-width:100; stroke-opacity:1; 
stroke-linecap:round; stroke-linejoin:round;">
<polyline fill="none;"
points="73600,42000
73300,41700
73000,41700
73000,42300
73300,42300
73600,42000
" /> 
</g> 
</svg>
