G04 #@! TF.FileFunction,Copper,L2,Bot,Signal*
%FSLAX46Y46*%
G04 Gerber Fmt 4.6, Leading zero omitted, Abs format (unit mm)*
G04 Created by KiCad (PCBNEW 4.0.6) date Mon Jan  8 21:03:33 2018*
%MOMM*%
%LPD*%
G01*
G04 APERTURE LIST*
%ADD10C,0.100000*%
%ADD11R,1.250000X1.000000*%
%ADD12R,1.600000X1.000000*%
%ADD13R,0.800000X0.750000*%
%ADD14R,0.750000X0.800000*%
%ADD15R,1.000000X1.250000*%
%ADD16R,1.700000X1.700000*%
%ADD17O,1.700000X1.700000*%
%ADD18R,0.500000X0.900000*%
%ADD19R,0.900000X0.500000*%
%ADD20C,1.500000*%
%ADD21R,1.060000X0.650000*%
%ADD22R,0.650000X1.060000*%
%ADD23R,1.524000X1.524000*%
%ADD24C,1.524000*%
%ADD25C,0.600000*%
%ADD26C,0.250000*%
%ADD27C,0.500000*%
%ADD28C,0.350000*%
G04 APERTURE END LIST*
D10*
D11*
X104902000Y-65421000D03*
X104902000Y-67421000D03*
D12*
X98679000Y-66572000D03*
X98679000Y-69572000D03*
D13*
X92087000Y-70993000D03*
X93587000Y-70993000D03*
X92305000Y-78359000D03*
X90805000Y-78359000D03*
D14*
X71478000Y-71759000D03*
X71478000Y-73259000D03*
D13*
X69965000Y-78359000D03*
X68465000Y-78359000D03*
D15*
X92551000Y-76708000D03*
X90551000Y-76708000D03*
X70199000Y-76708000D03*
X68199000Y-76708000D03*
D16*
X107061000Y-65024000D03*
D17*
X107061000Y-67564000D03*
X107061000Y-70104000D03*
X107061000Y-72644000D03*
D18*
X105398000Y-72644000D03*
X103898000Y-72644000D03*
X105398000Y-70104000D03*
X103898000Y-70104000D03*
D19*
X88392000Y-76569000D03*
X88392000Y-75069000D03*
D18*
X91302000Y-69715000D03*
X92802000Y-69715000D03*
D19*
X65890000Y-76688000D03*
X65890000Y-75188000D03*
X73002000Y-70997000D03*
X73002000Y-72497000D03*
D20*
X96520000Y-66548000D03*
D21*
X102911000Y-65410000D03*
X102911000Y-66360000D03*
X102911000Y-67310000D03*
X100711000Y-67310000D03*
X100711000Y-65410000D03*
D22*
X92075000Y-74887000D03*
X91125000Y-74887000D03*
X90175000Y-74887000D03*
X90175000Y-72687000D03*
X92075000Y-72687000D03*
X91125000Y-72687000D03*
D23*
X90401000Y-80002000D03*
D24*
X92941000Y-80002000D03*
X95481000Y-80002000D03*
X98021000Y-80002000D03*
X98021000Y-64762000D03*
X95481000Y-64762000D03*
X92941000Y-64762000D03*
X90401000Y-64762000D03*
D22*
X69718000Y-74803000D03*
X68768000Y-74803000D03*
X67818000Y-74803000D03*
X67818000Y-72603000D03*
X69718000Y-72603000D03*
X68768000Y-72603000D03*
D23*
X67970400Y-79997300D03*
D24*
X70510400Y-79997300D03*
X73050400Y-79997300D03*
X75590400Y-79997300D03*
X75590400Y-64757300D03*
X73050400Y-64757300D03*
X70510400Y-64757300D03*
X67970400Y-64757300D03*
D25*
X87226000Y-65524000D03*
X93195000Y-73779000D03*
X89004000Y-74033000D03*
X70970000Y-74287000D03*
X66525000Y-73779000D03*
X91163000Y-73906000D03*
X68811000Y-73779000D03*
X67033000Y-76688000D03*
X79987000Y-73779000D03*
X86591000Y-75811000D03*
X89512000Y-76569000D03*
X100053000Y-76954000D03*
X99545000Y-72763000D03*
X64620000Y-80002000D03*
X102847000Y-74287000D03*
X87500000Y-69000000D03*
X85956000Y-80002000D03*
X79098000Y-80002000D03*
X87988000Y-73271000D03*
X81638000Y-76065000D03*
X74399000Y-77589000D03*
X72113000Y-75430000D03*
X64620000Y-73779000D03*
X59159000Y-72001000D03*
X60683000Y-66667000D03*
X70208000Y-68064000D03*
X78082000Y-65778000D03*
X78590000Y-70223000D03*
X92052000Y-66540000D03*
X95100000Y-67937000D03*
X96878000Y-70985000D03*
X94846000Y-75303000D03*
X101196000Y-78859000D03*
X100942000Y-68699000D03*
X83543000Y-73271000D03*
X65885417Y-72165999D03*
X99545000Y-65706000D03*
X86464000Y-72382006D03*
X65128000Y-71874000D03*
X78590000Y-78097000D03*
D26*
X101958000Y-65583000D02*
X101958000Y-67137000D01*
X101958000Y-67137000D02*
X102131000Y-67310000D01*
X102131000Y-67310000D02*
X102911000Y-67310000D01*
X102911000Y-65410000D02*
X102131000Y-65410000D01*
X102131000Y-65410000D02*
X101958000Y-65583000D01*
D27*
X104902000Y-65421000D02*
X102922000Y-65421000D01*
X102922000Y-65421000D02*
X102911000Y-65410000D01*
X107061000Y-65024000D02*
X105299000Y-65024000D01*
X105299000Y-65024000D02*
X104902000Y-65421000D01*
X87525999Y-65823999D02*
X87226000Y-65524000D01*
X88242000Y-66540000D02*
X87525999Y-65823999D01*
X92052000Y-66540000D02*
X88242000Y-66540000D01*
D28*
X91163000Y-73906000D02*
X93068000Y-73906000D01*
X93068000Y-73906000D02*
X93195000Y-73779000D01*
X91163000Y-73906000D02*
X89131000Y-73906000D01*
X89131000Y-73906000D02*
X89004000Y-74033000D01*
X68811000Y-73779000D02*
X66525000Y-73779000D01*
X91125000Y-74887000D02*
X91125000Y-73944000D01*
X91125000Y-73944000D02*
X91163000Y-73906000D01*
X68768000Y-74803000D02*
X68768000Y-73822000D01*
X68768000Y-73822000D02*
X68811000Y-73779000D01*
D26*
X65890000Y-76688000D02*
X67033000Y-76688000D01*
X67033000Y-76688000D02*
X68179000Y-76688000D01*
D28*
X68199000Y-76708000D02*
X67053000Y-76708000D01*
X67053000Y-76708000D02*
X67033000Y-76688000D01*
X88392000Y-76569000D02*
X87349000Y-76569000D01*
X87349000Y-76569000D02*
X86591000Y-75811000D01*
D27*
X88392000Y-76569000D02*
X89512000Y-76569000D01*
X89512000Y-76569000D02*
X90412000Y-76569000D01*
D28*
X90551000Y-76708000D02*
X89651000Y-76708000D01*
X89651000Y-76708000D02*
X89512000Y-76569000D01*
X80622000Y-71747000D02*
X84753000Y-71747000D01*
X84753000Y-71747000D02*
X86277000Y-70223000D01*
X79397999Y-70522999D02*
X80622000Y-71747000D01*
X78590000Y-70223000D02*
X78889999Y-70522999D01*
X78889999Y-70522999D02*
X79397999Y-70522999D01*
D27*
X64620000Y-73779000D02*
X64620000Y-80002000D01*
X101196000Y-78859000D02*
X100688000Y-78351000D01*
X100688000Y-78351000D02*
X100688000Y-76319000D01*
X100688000Y-76319000D02*
X102720000Y-74287000D01*
X102720000Y-74287000D02*
X102847000Y-74287000D01*
X87200001Y-69299999D02*
X87500000Y-69000000D01*
X86277000Y-70223000D02*
X87200001Y-69299999D01*
X71478000Y-73259000D02*
X72760000Y-74541000D01*
X87857000Y-76569000D02*
X88392000Y-76569000D01*
X72760000Y-74541000D02*
X85829000Y-74541000D01*
X85829000Y-74541000D02*
X87857000Y-76569000D01*
X81638000Y-76065000D02*
X81638000Y-77462000D01*
X81638000Y-77462000D02*
X79098000Y-80002000D01*
X81638000Y-76065000D02*
X85194000Y-76065000D01*
X85194000Y-76065000D02*
X87988000Y-73271000D01*
X72113000Y-75430000D02*
X72240000Y-75430000D01*
X72240000Y-75430000D02*
X74399000Y-77589000D01*
X60683000Y-66667000D02*
X60683000Y-70477000D01*
X60683000Y-70477000D02*
X59159000Y-72001000D01*
X78082000Y-65778000D02*
X75796000Y-68064000D01*
X75796000Y-68064000D02*
X70208000Y-68064000D01*
X94846000Y-75303000D02*
X94846000Y-73017000D01*
X94846000Y-73017000D02*
X96878000Y-70985000D01*
X102626000Y-69572000D02*
X100688000Y-69572000D01*
X100688000Y-69572000D02*
X99979000Y-69572000D01*
D28*
X100942000Y-68699000D02*
X100642001Y-68998999D01*
X100642001Y-68998999D02*
X100642001Y-69526001D01*
X100642001Y-69526001D02*
X100688000Y-69572000D01*
D27*
X93587000Y-70993000D02*
X93587000Y-73006000D01*
X93587000Y-73006000D02*
X92687000Y-73906000D01*
X92687000Y-73906000D02*
X91544000Y-73906000D01*
X91544000Y-73906000D02*
X91125000Y-74325000D01*
X91125000Y-74325000D02*
X91125000Y-74887000D01*
D26*
X68179000Y-76688000D02*
X68199000Y-76708000D01*
D28*
X68768000Y-74803000D02*
X68768000Y-74076000D01*
X68768000Y-74076000D02*
X68938000Y-73906000D01*
X68938000Y-73906000D02*
X69084998Y-73906000D01*
X69092999Y-73897999D02*
X70114001Y-73897999D01*
X70753000Y-73259000D02*
X71478000Y-73259000D01*
X69084998Y-73906000D02*
X69092999Y-73897999D01*
X70114001Y-73897999D02*
X70753000Y-73259000D01*
D27*
X68465000Y-78359000D02*
X68465000Y-78466000D01*
X68465000Y-78466000D02*
X68199000Y-78732000D01*
X68199000Y-76708000D02*
X68199000Y-79768700D01*
X68199000Y-79768700D02*
X67970400Y-79997300D01*
X68768000Y-74803000D02*
X68768000Y-76139000D01*
X68768000Y-76139000D02*
X68199000Y-76708000D01*
X93612000Y-70993000D02*
X93587000Y-70993000D01*
X94487000Y-70093000D02*
X94487000Y-70118000D01*
X95008000Y-69572000D02*
X94487000Y-70093000D01*
X94487000Y-70118000D02*
X93612000Y-70993000D01*
X98679000Y-69572000D02*
X95008000Y-69572000D01*
X90412000Y-76569000D02*
X90551000Y-76708000D01*
X90805000Y-78359000D02*
X90805000Y-79598000D01*
X90805000Y-79598000D02*
X90401000Y-80002000D01*
X90805000Y-78359000D02*
X90805000Y-76962000D01*
X90805000Y-76962000D02*
X90551000Y-76708000D01*
X91125000Y-74887000D02*
X91125000Y-76134000D01*
X91125000Y-76134000D02*
X90551000Y-76708000D01*
X104902000Y-67421000D02*
X104777000Y-67421000D01*
X104777000Y-67421000D02*
X102626000Y-69572000D01*
X99979000Y-69572000D02*
X98679000Y-69572000D01*
X102911000Y-66360000D02*
X103841000Y-66360000D01*
X103841000Y-66360000D02*
X104902000Y-67421000D01*
X107061000Y-67564000D02*
X105045000Y-67564000D01*
X105045000Y-67564000D02*
X104902000Y-67421000D01*
D26*
X83543000Y-73271000D02*
X83543000Y-72509000D01*
X67818000Y-72603000D02*
X66322418Y-72603000D01*
X66322418Y-72603000D02*
X66185416Y-72465998D01*
X66185416Y-72465998D02*
X65885417Y-72165999D01*
D27*
X83543000Y-72509000D02*
X74524002Y-72509000D01*
X83543000Y-72509000D02*
X85250998Y-72509000D01*
X85250998Y-72509000D02*
X85504998Y-72255000D01*
X92052000Y-68826000D02*
X92040999Y-68814999D01*
X92040999Y-68814999D02*
X88944999Y-68814999D01*
X88944999Y-68814999D02*
X85504998Y-72255000D01*
X74524002Y-72509000D02*
X73812001Y-71796999D01*
X73812001Y-71796999D02*
X71527999Y-71796999D01*
X71527999Y-71796999D02*
X71478000Y-71747000D01*
X71478000Y-71747000D02*
X71478000Y-71759000D01*
X99841000Y-65410000D02*
X99545000Y-65706000D01*
X99545000Y-65706000D02*
X98679000Y-66572000D01*
X96520000Y-66548000D02*
X94330000Y-66548000D01*
X94330000Y-66548000D02*
X92052000Y-68826000D01*
X92052000Y-68826000D02*
X92052000Y-70958000D01*
X92052000Y-70958000D02*
X92087000Y-70993000D01*
X70603000Y-71759000D02*
X71478000Y-71759000D01*
X68768989Y-71572011D02*
X70416011Y-71572011D01*
X68768000Y-71573000D02*
X68768989Y-71572011D01*
X70416011Y-71572011D02*
X70603000Y-71759000D01*
X68768000Y-72603000D02*
X68768000Y-71573000D01*
X68768000Y-72603000D02*
X67818000Y-72603000D01*
X91125000Y-72687000D02*
X90175000Y-72687000D01*
X92087000Y-70993000D02*
X91125000Y-71955000D01*
X91125000Y-71955000D02*
X91125000Y-72687000D01*
X98679000Y-66572000D02*
X96544000Y-66572000D01*
X96544000Y-66572000D02*
X96520000Y-66548000D01*
X100711000Y-65410000D02*
X99841000Y-65410000D01*
X92075000Y-74887000D02*
X92179000Y-74991000D01*
X92179000Y-74991000D02*
X92179000Y-76336000D01*
X92179000Y-76336000D02*
X92551000Y-76708000D01*
X92305000Y-78359000D02*
X92560000Y-78614000D01*
X92560000Y-79621000D02*
X92941000Y-80002000D01*
X92560000Y-78614000D02*
X92560000Y-79621000D01*
X92551000Y-76708000D02*
X92433000Y-76826000D01*
X92433000Y-76826000D02*
X92433000Y-78231000D01*
X92433000Y-78231000D02*
X92305000Y-78359000D01*
X69718000Y-74803000D02*
X69827000Y-74912000D01*
X69827000Y-76336000D02*
X70199000Y-76708000D01*
X69827000Y-74912000D02*
X69827000Y-76336000D01*
X70199000Y-76708000D02*
X70081000Y-76826000D01*
X70081000Y-76826000D02*
X70081000Y-78243000D01*
X70081000Y-78243000D02*
X69965000Y-78359000D01*
X69965000Y-78359000D02*
X70081000Y-78475000D01*
X70081000Y-79567900D02*
X70510400Y-79997300D01*
X70081000Y-78475000D02*
X70081000Y-79567900D01*
D26*
X86763999Y-72082007D02*
X86464000Y-72382006D01*
X89131006Y-69715000D02*
X86763999Y-72082007D01*
X91302000Y-69715000D02*
X89131006Y-69715000D01*
X73002000Y-70997000D02*
X66005000Y-70997000D01*
X66005000Y-70997000D02*
X65427999Y-71574001D01*
X65427999Y-71574001D02*
X65128000Y-71874000D01*
D28*
X105398000Y-70104000D02*
X107061000Y-70104000D01*
X107061000Y-72644000D02*
X105398000Y-72644000D01*
X103898000Y-72644000D02*
X102331000Y-72644000D01*
X102331000Y-72644000D02*
X98021000Y-76954000D01*
X98021000Y-76954000D02*
X98021000Y-78924370D01*
X98021000Y-78924370D02*
X98021000Y-80002000D01*
X78290001Y-78396999D02*
X78590000Y-78097000D01*
X76689700Y-79997300D02*
X78290001Y-78396999D01*
X75590400Y-79997300D02*
X76689700Y-79997300D01*
X95481000Y-78924370D02*
X95481000Y-80002000D01*
X95481000Y-78478000D02*
X95481000Y-78924370D01*
X103898000Y-70104000D02*
X103855000Y-70104000D01*
X103855000Y-70104000D02*
X95481000Y-78478000D01*
D26*
X90175000Y-74887000D02*
X88574000Y-74887000D01*
X88574000Y-74887000D02*
X88392000Y-75069000D01*
X92814000Y-70427000D02*
X92814000Y-71743000D01*
X92814000Y-71743000D02*
X92075000Y-72482000D01*
X92075000Y-72482000D02*
X92075000Y-72687000D01*
X92802000Y-69715000D02*
X92802000Y-70415000D01*
X92802000Y-70415000D02*
X92814000Y-70427000D01*
X65890000Y-75188000D02*
X67433000Y-75188000D01*
X67433000Y-75188000D02*
X67818000Y-74803000D01*
X69718000Y-72603000D02*
X70293000Y-72603000D01*
X70293000Y-72603000D02*
X70399000Y-72497000D01*
X72302000Y-72497000D02*
X73002000Y-72497000D01*
X70399000Y-72497000D02*
X72302000Y-72497000D01*
G36*
X66783606Y-64520155D02*
X66783194Y-64992373D01*
X66963523Y-65428803D01*
X67297140Y-65763003D01*
X67733255Y-65944094D01*
X68205473Y-65944506D01*
X68641903Y-65764177D01*
X68976103Y-65430560D01*
X69157194Y-64994445D01*
X69157606Y-64522227D01*
X69138092Y-64475000D01*
X69342356Y-64475000D01*
X69323606Y-64520155D01*
X69323194Y-64992373D01*
X69503523Y-65428803D01*
X69837140Y-65763003D01*
X70273255Y-65944094D01*
X70745473Y-65944506D01*
X71181903Y-65764177D01*
X71516103Y-65430560D01*
X71697194Y-64994445D01*
X71697606Y-64522227D01*
X71678092Y-64475000D01*
X71882356Y-64475000D01*
X71863606Y-64520155D01*
X71863194Y-64992373D01*
X72043523Y-65428803D01*
X72377140Y-65763003D01*
X72813255Y-65944094D01*
X73285473Y-65944506D01*
X73721903Y-65764177D01*
X74056103Y-65430560D01*
X74237194Y-64994445D01*
X74237606Y-64522227D01*
X74218092Y-64475000D01*
X74422356Y-64475000D01*
X74403606Y-64520155D01*
X74403194Y-64992373D01*
X74583523Y-65428803D01*
X74917140Y-65763003D01*
X75353255Y-65944094D01*
X75825473Y-65944506D01*
X76261903Y-65764177D01*
X76596103Y-65430560D01*
X76777194Y-64994445D01*
X76777606Y-64522227D01*
X76758092Y-64475000D01*
X79375000Y-64475000D01*
X79375000Y-69500000D01*
X79384187Y-69547037D01*
X79411612Y-69588388D01*
X81411612Y-71588388D01*
X81451368Y-71615152D01*
X81500000Y-71625000D01*
X84500000Y-71625000D01*
X84547037Y-71615813D01*
X84588388Y-71588388D01*
X86588388Y-69588388D01*
X86615152Y-69548632D01*
X86625000Y-69500000D01*
X86625000Y-64475000D01*
X89234908Y-64475000D01*
X89214206Y-64524855D01*
X89213794Y-64997073D01*
X89394123Y-65433503D01*
X89727740Y-65767703D01*
X90163855Y-65948794D01*
X90636073Y-65949206D01*
X91072503Y-65768877D01*
X91406703Y-65435260D01*
X91587794Y-64999145D01*
X91588206Y-64526927D01*
X91566750Y-64475000D01*
X91774908Y-64475000D01*
X91754206Y-64524855D01*
X91753794Y-64997073D01*
X91934123Y-65433503D01*
X92267740Y-65767703D01*
X92703855Y-65948794D01*
X93176073Y-65949206D01*
X93612503Y-65768877D01*
X93946703Y-65435260D01*
X94127794Y-64999145D01*
X94128206Y-64526927D01*
X94106750Y-64475000D01*
X94314908Y-64475000D01*
X94294206Y-64524855D01*
X94293794Y-64997073D01*
X94474123Y-65433503D01*
X94807740Y-65767703D01*
X95061323Y-65873000D01*
X94330000Y-65873000D01*
X94071689Y-65924381D01*
X93996458Y-65974649D01*
X93852703Y-66070703D01*
X91783407Y-68139999D01*
X88944999Y-68139999D01*
X88686687Y-68191380D01*
X88467702Y-68337702D01*
X84971404Y-71834000D01*
X74803596Y-71834000D01*
X74289298Y-71319702D01*
X74070313Y-71173380D01*
X73885326Y-71136584D01*
X73885326Y-70747000D01*
X73855691Y-70589504D01*
X73762611Y-70444854D01*
X73620588Y-70347814D01*
X73452000Y-70313674D01*
X72552000Y-70313674D01*
X72394504Y-70343309D01*
X72249854Y-70436389D01*
X72242604Y-70447000D01*
X66005005Y-70447000D01*
X66005000Y-70446999D01*
X65794524Y-70488866D01*
X65616091Y-70608091D01*
X65616089Y-70608094D01*
X65075229Y-71148953D01*
X64984421Y-71148874D01*
X64717857Y-71259016D01*
X64513733Y-71462784D01*
X64403126Y-71729156D01*
X64402874Y-72017579D01*
X64513016Y-72284143D01*
X64716784Y-72488267D01*
X64983156Y-72598874D01*
X65271579Y-72599126D01*
X65287011Y-72592749D01*
X65474201Y-72780266D01*
X65740573Y-72890873D01*
X65832553Y-72890953D01*
X65933509Y-72991909D01*
X66111942Y-73111134D01*
X66322418Y-73153000D01*
X67063437Y-73153000D01*
X67089309Y-73290496D01*
X67182389Y-73435146D01*
X67324412Y-73532186D01*
X67493000Y-73566326D01*
X68143000Y-73566326D01*
X68298507Y-73537065D01*
X68443000Y-73566326D01*
X69093000Y-73566326D01*
X69248507Y-73537065D01*
X69393000Y-73566326D01*
X70043000Y-73566326D01*
X70200496Y-73536691D01*
X70345146Y-73443611D01*
X70381605Y-73390250D01*
X70678000Y-73390250D01*
X70678000Y-73743538D01*
X70742702Y-73899743D01*
X70862257Y-74019298D01*
X71018462Y-74084000D01*
X71346750Y-74084000D01*
X71453000Y-73977750D01*
X71453000Y-73284000D01*
X71503000Y-73284000D01*
X71503000Y-73977750D01*
X71609250Y-74084000D01*
X71937538Y-74084000D01*
X72093743Y-74019298D01*
X72213298Y-73899743D01*
X72278000Y-73743538D01*
X72278000Y-73390250D01*
X72171750Y-73284000D01*
X71503000Y-73284000D01*
X71453000Y-73284000D01*
X70784250Y-73284000D01*
X70678000Y-73390250D01*
X70381605Y-73390250D01*
X70442186Y-73301588D01*
X70476326Y-73133000D01*
X70476326Y-73116534D01*
X70503476Y-73111134D01*
X70599459Y-73047000D01*
X70678000Y-73047000D01*
X70678000Y-73127750D01*
X70784250Y-73234000D01*
X71453000Y-73234000D01*
X71453000Y-73214000D01*
X71503000Y-73214000D01*
X71503000Y-73234000D01*
X72171750Y-73234000D01*
X72278000Y-73127750D01*
X72278000Y-73074161D01*
X72383412Y-73146186D01*
X72552000Y-73180326D01*
X73452000Y-73180326D01*
X73609496Y-73150691D01*
X73754146Y-73057611D01*
X73851186Y-72915588D01*
X73872204Y-72811796D01*
X74046705Y-72986297D01*
X74265691Y-73132619D01*
X74524002Y-73184000D01*
X82818075Y-73184000D01*
X82817874Y-73414579D01*
X82928016Y-73681143D01*
X83131784Y-73885267D01*
X83398156Y-73995874D01*
X83686579Y-73996126D01*
X83953143Y-73885984D01*
X84157267Y-73682216D01*
X84267874Y-73415844D01*
X84268077Y-73184000D01*
X85250998Y-73184000D01*
X85509310Y-73132619D01*
X85728295Y-72986297D01*
X85885697Y-72828895D01*
X86052784Y-72996273D01*
X86319156Y-73106880D01*
X86607579Y-73107132D01*
X86874143Y-72996990D01*
X87078267Y-72793222D01*
X87188874Y-72526850D01*
X87188954Y-72434870D01*
X89358823Y-70265000D01*
X90637490Y-70265000D01*
X90648309Y-70322496D01*
X90741389Y-70467146D01*
X90883412Y-70564186D01*
X91052000Y-70598326D01*
X91257658Y-70598326D01*
X91253674Y-70618000D01*
X91253674Y-70871732D01*
X90647703Y-71477703D01*
X90501381Y-71696688D01*
X90496013Y-71723674D01*
X89850000Y-71723674D01*
X89692504Y-71753309D01*
X89547854Y-71846389D01*
X89450814Y-71988412D01*
X89416674Y-72157000D01*
X89416674Y-73217000D01*
X89446309Y-73374496D01*
X89539389Y-73519146D01*
X89681412Y-73616186D01*
X89850000Y-73650326D01*
X90500000Y-73650326D01*
X90655507Y-73621065D01*
X90800000Y-73650326D01*
X91450000Y-73650326D01*
X91605507Y-73621065D01*
X91750000Y-73650326D01*
X92400000Y-73650326D01*
X92557496Y-73620691D01*
X92702146Y-73527611D01*
X92799186Y-73385588D01*
X92833326Y-73217000D01*
X92833326Y-72501492D01*
X93202909Y-72131909D01*
X93322134Y-71953476D01*
X93354055Y-71793000D01*
X93455750Y-71793000D01*
X93562000Y-71686750D01*
X93562000Y-71018000D01*
X93612000Y-71018000D01*
X93612000Y-71686750D01*
X93718250Y-71793000D01*
X94071538Y-71793000D01*
X94227743Y-71728298D01*
X94347298Y-71608743D01*
X94412000Y-71452538D01*
X94412000Y-71124250D01*
X94305750Y-71018000D01*
X93612000Y-71018000D01*
X93562000Y-71018000D01*
X93542000Y-71018000D01*
X93542000Y-70968000D01*
X93562000Y-70968000D01*
X93562000Y-70299250D01*
X93612000Y-70299250D01*
X93612000Y-70968000D01*
X94305750Y-70968000D01*
X94412000Y-70861750D01*
X94412000Y-70533462D01*
X94347298Y-70377257D01*
X94227743Y-70257702D01*
X94071538Y-70193000D01*
X93718250Y-70193000D01*
X93612000Y-70299250D01*
X93562000Y-70299250D01*
X93475630Y-70212880D01*
X93485326Y-70165000D01*
X93485326Y-69703250D01*
X97454000Y-69703250D01*
X97454000Y-70156538D01*
X97518702Y-70312743D01*
X97638257Y-70432298D01*
X97794462Y-70497000D01*
X98547750Y-70497000D01*
X98654000Y-70390750D01*
X98654000Y-69597000D01*
X98704000Y-69597000D01*
X98704000Y-70390750D01*
X98810250Y-70497000D01*
X99563538Y-70497000D01*
X99719743Y-70432298D01*
X99839298Y-70312743D01*
X99904000Y-70156538D01*
X99904000Y-69703250D01*
X99797750Y-69597000D01*
X98704000Y-69597000D01*
X98654000Y-69597000D01*
X97560250Y-69597000D01*
X97454000Y-69703250D01*
X93485326Y-69703250D01*
X93485326Y-69265000D01*
X93455691Y-69107504D01*
X93378446Y-68987462D01*
X97454000Y-68987462D01*
X97454000Y-69440750D01*
X97560250Y-69547000D01*
X98654000Y-69547000D01*
X98654000Y-68753250D01*
X98704000Y-68753250D01*
X98704000Y-69547000D01*
X99797750Y-69547000D01*
X99904000Y-69440750D01*
X99904000Y-68987462D01*
X99839298Y-68831257D01*
X99719743Y-68711702D01*
X99563538Y-68647000D01*
X98810250Y-68647000D01*
X98704000Y-68753250D01*
X98654000Y-68753250D01*
X98547750Y-68647000D01*
X97794462Y-68647000D01*
X97638257Y-68711702D01*
X97518702Y-68831257D01*
X97454000Y-68987462D01*
X93378446Y-68987462D01*
X93362611Y-68962854D01*
X93220588Y-68865814D01*
X93052000Y-68831674D01*
X93000920Y-68831674D01*
X94609594Y-67223000D01*
X95533569Y-67223000D01*
X95853547Y-67543536D01*
X96285253Y-67722796D01*
X96752697Y-67723204D01*
X97184715Y-67544698D01*
X97482932Y-67247000D01*
X97486573Y-67247000D01*
X97568389Y-67374146D01*
X97710412Y-67471186D01*
X97879000Y-67505326D01*
X99479000Y-67505326D01*
X99636496Y-67475691D01*
X99747674Y-67404150D01*
X99747674Y-67635000D01*
X99777309Y-67792496D01*
X99870389Y-67937146D01*
X100012412Y-68034186D01*
X100181000Y-68068326D01*
X101241000Y-68068326D01*
X101398496Y-68038691D01*
X101543146Y-67945611D01*
X101640186Y-67803588D01*
X101674326Y-67635000D01*
X101674326Y-67631144D01*
X101742091Y-67698909D01*
X101920524Y-67818134D01*
X102004563Y-67834850D01*
X102070389Y-67937146D01*
X102212412Y-68034186D01*
X102381000Y-68068326D01*
X103441000Y-68068326D01*
X103598496Y-68038691D01*
X103743146Y-67945611D01*
X103840186Y-67803588D01*
X103852000Y-67745249D01*
X103852000Y-68005538D01*
X103916702Y-68161743D01*
X104036257Y-68281298D01*
X104192462Y-68346000D01*
X104770750Y-68346000D01*
X104877000Y-68239750D01*
X104877000Y-67446000D01*
X104857000Y-67446000D01*
X104857000Y-67396000D01*
X104877000Y-67396000D01*
X104877000Y-66602250D01*
X104770750Y-66496000D01*
X104192462Y-66496000D01*
X104036257Y-66560702D01*
X103916702Y-66680257D01*
X103852000Y-66836462D01*
X103852000Y-66866348D01*
X103844691Y-66827504D01*
X103843048Y-66824950D01*
X103866000Y-66769538D01*
X103866000Y-66491250D01*
X103759750Y-66385000D01*
X102936000Y-66385000D01*
X102936000Y-66405000D01*
X102886000Y-66405000D01*
X102886000Y-66385000D01*
X102866000Y-66385000D01*
X102866000Y-66335000D01*
X102886000Y-66335000D01*
X102886000Y-66315000D01*
X102936000Y-66315000D01*
X102936000Y-66335000D01*
X103759750Y-66335000D01*
X103866000Y-66228750D01*
X103866000Y-66096000D01*
X103884573Y-66096000D01*
X103966389Y-66223146D01*
X104108412Y-66320186D01*
X104277000Y-66354326D01*
X105527000Y-66354326D01*
X105684496Y-66324691D01*
X105829146Y-66231611D01*
X105884216Y-66151013D01*
X105900389Y-66176146D01*
X106042412Y-66273186D01*
X106211000Y-66307326D01*
X107035998Y-66307326D01*
X107035998Y-66395492D01*
X106836892Y-66308848D01*
X106373625Y-66490153D01*
X106015005Y-66834942D01*
X105952000Y-66978973D01*
X105952000Y-66836462D01*
X105887298Y-66680257D01*
X105767743Y-66560702D01*
X105611538Y-66496000D01*
X105033250Y-66496000D01*
X104927000Y-66602250D01*
X104927000Y-67396000D01*
X104947000Y-67396000D01*
X104947000Y-67446000D01*
X104927000Y-67446000D01*
X104927000Y-68239750D01*
X105033250Y-68346000D01*
X105611538Y-68346000D01*
X105767743Y-68281298D01*
X105887298Y-68161743D01*
X105921472Y-68079239D01*
X106015005Y-68293058D01*
X106373625Y-68637847D01*
X106836892Y-68819152D01*
X107035998Y-68732508D01*
X107035998Y-68829005D01*
X106548100Y-68926054D01*
X106134460Y-69202439D01*
X105995902Y-69409806D01*
X105958611Y-69351854D01*
X105816588Y-69254814D01*
X105648000Y-69220674D01*
X105148000Y-69220674D01*
X104990504Y-69250309D01*
X104845854Y-69343389D01*
X104748814Y-69485412D01*
X104714674Y-69654000D01*
X104714674Y-70554000D01*
X104744309Y-70711496D01*
X104837389Y-70856146D01*
X104979412Y-70953186D01*
X105148000Y-70987326D01*
X105648000Y-70987326D01*
X105805496Y-70957691D01*
X105950146Y-70864611D01*
X105995716Y-70797916D01*
X106134460Y-71005561D01*
X106548100Y-71281946D01*
X107010884Y-71374000D01*
X106548100Y-71466054D01*
X106134460Y-71742439D01*
X105995902Y-71949806D01*
X105958611Y-71891854D01*
X105816588Y-71794814D01*
X105648000Y-71760674D01*
X105148000Y-71760674D01*
X104990504Y-71790309D01*
X104845854Y-71883389D01*
X104748814Y-72025412D01*
X104714674Y-72194000D01*
X104714674Y-73094000D01*
X104744309Y-73251496D01*
X104837389Y-73396146D01*
X104979412Y-73493186D01*
X105148000Y-73527326D01*
X105648000Y-73527326D01*
X105805496Y-73497691D01*
X105950146Y-73404611D01*
X105995716Y-73337916D01*
X106134460Y-73545561D01*
X106548100Y-73821946D01*
X106814819Y-73875000D01*
X104000000Y-73875000D01*
X103952963Y-73884187D01*
X103911612Y-73911612D01*
X101911612Y-75911612D01*
X101884848Y-75951368D01*
X101875000Y-76000000D01*
X101875000Y-80525000D01*
X99089096Y-80525000D01*
X99207794Y-80239145D01*
X99208206Y-79766927D01*
X99027877Y-79330497D01*
X98694260Y-78996297D01*
X98621000Y-78965877D01*
X98621000Y-77202528D01*
X102579528Y-73244000D01*
X103242899Y-73244000D01*
X103244309Y-73251496D01*
X103337389Y-73396146D01*
X103479412Y-73493186D01*
X103648000Y-73527326D01*
X104148000Y-73527326D01*
X104305496Y-73497691D01*
X104450146Y-73404611D01*
X104547186Y-73262588D01*
X104581326Y-73094000D01*
X104581326Y-72194000D01*
X104551691Y-72036504D01*
X104458611Y-71891854D01*
X104316588Y-71794814D01*
X104148000Y-71760674D01*
X103648000Y-71760674D01*
X103490504Y-71790309D01*
X103345854Y-71883389D01*
X103248814Y-72025412D01*
X103245050Y-72044000D01*
X102763528Y-72044000D01*
X103820202Y-70987326D01*
X104148000Y-70987326D01*
X104305496Y-70957691D01*
X104450146Y-70864611D01*
X104547186Y-70722588D01*
X104581326Y-70554000D01*
X104581326Y-69654000D01*
X104551691Y-69496504D01*
X104458611Y-69351854D01*
X104316588Y-69254814D01*
X104148000Y-69220674D01*
X103648000Y-69220674D01*
X103490504Y-69250309D01*
X103345854Y-69343389D01*
X103248814Y-69485412D01*
X103214674Y-69654000D01*
X103214674Y-69895798D01*
X95056736Y-78053736D01*
X94926672Y-78248390D01*
X94881000Y-78478000D01*
X94881000Y-78965579D01*
X94809497Y-78995123D01*
X94475297Y-79328740D01*
X94294206Y-79764855D01*
X94293794Y-80237073D01*
X94412763Y-80525000D01*
X94009096Y-80525000D01*
X94127794Y-80239145D01*
X94128206Y-79766927D01*
X93947877Y-79330497D01*
X93614260Y-78996297D01*
X93235000Y-78838814D01*
X93235000Y-78614000D01*
X93183619Y-78355689D01*
X93138326Y-78287903D01*
X93138326Y-77984000D01*
X93108691Y-77826504D01*
X93108000Y-77825430D01*
X93108000Y-77755601D01*
X93208496Y-77736691D01*
X93353146Y-77643611D01*
X93450186Y-77501588D01*
X93484326Y-77333000D01*
X93484326Y-76083000D01*
X93454691Y-75925504D01*
X93361611Y-75780854D01*
X93219588Y-75683814D01*
X93051000Y-75649674D01*
X92854000Y-75649674D01*
X92854000Y-74991000D01*
X92833326Y-74887064D01*
X92833326Y-74357000D01*
X92803691Y-74199504D01*
X92710611Y-74054854D01*
X92568588Y-73957814D01*
X92400000Y-73923674D01*
X91750000Y-73923674D01*
X91592504Y-73953309D01*
X91589950Y-73954952D01*
X91534538Y-73932000D01*
X91256250Y-73932000D01*
X91150000Y-74038250D01*
X91150000Y-74862000D01*
X91170000Y-74862000D01*
X91170000Y-74912000D01*
X91150000Y-74912000D01*
X91150000Y-74932000D01*
X91100000Y-74932000D01*
X91100000Y-74912000D01*
X91080000Y-74912000D01*
X91080000Y-74862000D01*
X91100000Y-74862000D01*
X91100000Y-74038250D01*
X90993750Y-73932000D01*
X90715462Y-73932000D01*
X90658213Y-73955713D01*
X90500000Y-73923674D01*
X89850000Y-73923674D01*
X89692504Y-73953309D01*
X89547854Y-74046389D01*
X89450814Y-74188412D01*
X89420724Y-74337000D01*
X88574000Y-74337000D01*
X88363524Y-74378866D01*
X88353335Y-74385674D01*
X87942000Y-74385674D01*
X87784504Y-74415309D01*
X87639854Y-74508389D01*
X87542814Y-74650412D01*
X87508674Y-74819000D01*
X87508674Y-75319000D01*
X87538309Y-75476496D01*
X87631389Y-75621146D01*
X87773412Y-75718186D01*
X87942000Y-75752326D01*
X88842000Y-75752326D01*
X88999496Y-75722691D01*
X89144146Y-75629611D01*
X89241186Y-75487588D01*
X89251430Y-75437000D01*
X89420437Y-75437000D01*
X89446309Y-75574496D01*
X89539389Y-75719146D01*
X89681412Y-75816186D01*
X89710818Y-75822141D01*
X89690702Y-75842257D01*
X89626000Y-75998462D01*
X89626000Y-76576750D01*
X89732250Y-76683000D01*
X90526000Y-76683000D01*
X90526000Y-76663000D01*
X90576000Y-76663000D01*
X90576000Y-76683000D01*
X91369750Y-76683000D01*
X91476000Y-76576750D01*
X91476000Y-75998462D01*
X91411298Y-75842257D01*
X91411041Y-75842000D01*
X91504000Y-75842000D01*
X91504000Y-76336000D01*
X91555381Y-76594312D01*
X91617674Y-76687539D01*
X91617674Y-77333000D01*
X91647309Y-77490496D01*
X91717518Y-77599604D01*
X91602854Y-77673389D01*
X91559249Y-77737208D01*
X91445743Y-77623702D01*
X91386060Y-77598981D01*
X91411298Y-77573743D01*
X91476000Y-77417538D01*
X91476000Y-76839250D01*
X91369750Y-76733000D01*
X90576000Y-76733000D01*
X90576000Y-76753000D01*
X90526000Y-76753000D01*
X90526000Y-76733000D01*
X89732250Y-76733000D01*
X89626000Y-76839250D01*
X89626000Y-77417538D01*
X89690702Y-77573743D01*
X89810257Y-77693298D01*
X89966462Y-77758000D01*
X90038595Y-77758000D01*
X89980000Y-77899462D01*
X89980000Y-78227750D01*
X90086250Y-78334000D01*
X90780000Y-78334000D01*
X90780000Y-78314000D01*
X90830000Y-78314000D01*
X90830000Y-78334000D01*
X90850000Y-78334000D01*
X90850000Y-78384000D01*
X90830000Y-78384000D01*
X90830000Y-78404000D01*
X90780000Y-78404000D01*
X90780000Y-78384000D01*
X90086250Y-78384000D01*
X89980000Y-78490250D01*
X89980000Y-78815000D01*
X89554462Y-78815000D01*
X89398257Y-78879702D01*
X89278702Y-78999257D01*
X89214000Y-79155462D01*
X89214000Y-79870750D01*
X89320250Y-79977000D01*
X90376000Y-79977000D01*
X90376000Y-79957000D01*
X90426000Y-79957000D01*
X90426000Y-79977000D01*
X91481750Y-79977000D01*
X91588000Y-79870750D01*
X91588000Y-79155462D01*
X91528420Y-79011621D01*
X91558957Y-78981084D01*
X91594389Y-79036146D01*
X91736412Y-79133186D01*
X91885000Y-79163276D01*
X91885000Y-79449868D01*
X91754206Y-79764855D01*
X91753794Y-80237073D01*
X91872763Y-80525000D01*
X91588000Y-80525000D01*
X91588000Y-80133250D01*
X91481750Y-80027000D01*
X90426000Y-80027000D01*
X90426000Y-80047000D01*
X90376000Y-80047000D01*
X90376000Y-80027000D01*
X89320250Y-80027000D01*
X89214000Y-80133250D01*
X89214000Y-80525000D01*
X76959162Y-80525000D01*
X77113964Y-80421564D01*
X78713420Y-78822108D01*
X78733579Y-78822126D01*
X79000143Y-78711984D01*
X79204267Y-78508216D01*
X79314874Y-78241844D01*
X79315126Y-77953421D01*
X79204984Y-77686857D01*
X79001216Y-77482733D01*
X78734844Y-77372126D01*
X78446421Y-77371874D01*
X78179857Y-77482016D01*
X77975733Y-77685784D01*
X77865126Y-77952156D01*
X77865107Y-77973365D01*
X76555013Y-79283459D01*
X76263660Y-78991597D01*
X75827545Y-78810506D01*
X75355327Y-78810094D01*
X74918897Y-78990423D01*
X74584697Y-79324040D01*
X74403606Y-79760155D01*
X74403194Y-80232373D01*
X74524105Y-80525000D01*
X74116545Y-80525000D01*
X74237194Y-80234445D01*
X74237606Y-79762227D01*
X74057277Y-79325797D01*
X73723660Y-78991597D01*
X73287545Y-78810506D01*
X72815327Y-78810094D01*
X72378897Y-78990423D01*
X72044697Y-79324040D01*
X71863606Y-79760155D01*
X71863194Y-80232373D01*
X71984105Y-80525000D01*
X71576545Y-80525000D01*
X71697194Y-80234445D01*
X71697606Y-79762227D01*
X71517277Y-79325797D01*
X71183660Y-78991597D01*
X70780096Y-78824022D01*
X70798326Y-78734000D01*
X70798326Y-77984000D01*
X70768691Y-77826504D01*
X70756000Y-77806782D01*
X70756000Y-77755601D01*
X70856496Y-77736691D01*
X71001146Y-77643611D01*
X71098186Y-77501588D01*
X71132326Y-77333000D01*
X71132326Y-76700250D01*
X87517000Y-76700250D01*
X87517000Y-76903538D01*
X87581702Y-77059743D01*
X87701257Y-77179298D01*
X87857462Y-77244000D01*
X88260750Y-77244000D01*
X88367000Y-77137750D01*
X88367000Y-76594000D01*
X88417000Y-76594000D01*
X88417000Y-77137750D01*
X88523250Y-77244000D01*
X88926538Y-77244000D01*
X89082743Y-77179298D01*
X89202298Y-77059743D01*
X89267000Y-76903538D01*
X89267000Y-76700250D01*
X89160750Y-76594000D01*
X88417000Y-76594000D01*
X88367000Y-76594000D01*
X87623250Y-76594000D01*
X87517000Y-76700250D01*
X71132326Y-76700250D01*
X71132326Y-76234462D01*
X87517000Y-76234462D01*
X87517000Y-76437750D01*
X87623250Y-76544000D01*
X88367000Y-76544000D01*
X88367000Y-76000250D01*
X88417000Y-76000250D01*
X88417000Y-76544000D01*
X89160750Y-76544000D01*
X89267000Y-76437750D01*
X89267000Y-76234462D01*
X89202298Y-76078257D01*
X89082743Y-75958702D01*
X88926538Y-75894000D01*
X88523250Y-75894000D01*
X88417000Y-76000250D01*
X88367000Y-76000250D01*
X88260750Y-75894000D01*
X87857462Y-75894000D01*
X87701257Y-75958702D01*
X87581702Y-76078257D01*
X87517000Y-76234462D01*
X71132326Y-76234462D01*
X71132326Y-76083000D01*
X71102691Y-75925504D01*
X71009611Y-75780854D01*
X70867588Y-75683814D01*
X70699000Y-75649674D01*
X70502000Y-75649674D01*
X70502000Y-74912000D01*
X70476326Y-74782927D01*
X70476326Y-74273000D01*
X70446691Y-74115504D01*
X70353611Y-73970854D01*
X70211588Y-73873814D01*
X70043000Y-73839674D01*
X69393000Y-73839674D01*
X69235504Y-73869309D01*
X69232950Y-73870952D01*
X69177538Y-73848000D01*
X68899250Y-73848000D01*
X68793000Y-73954250D01*
X68793000Y-74778000D01*
X68813000Y-74778000D01*
X68813000Y-74828000D01*
X68793000Y-74828000D01*
X68793000Y-74848000D01*
X68743000Y-74848000D01*
X68743000Y-74828000D01*
X68723000Y-74828000D01*
X68723000Y-74778000D01*
X68743000Y-74778000D01*
X68743000Y-73954250D01*
X68636750Y-73848000D01*
X68358462Y-73848000D01*
X68301213Y-73871713D01*
X68143000Y-73839674D01*
X67493000Y-73839674D01*
X67335504Y-73869309D01*
X67190854Y-73962389D01*
X67093814Y-74104412D01*
X67059674Y-74273000D01*
X67059674Y-74638000D01*
X66651992Y-74638000D01*
X66650611Y-74635854D01*
X66508588Y-74538814D01*
X66340000Y-74504674D01*
X65440000Y-74504674D01*
X65282504Y-74534309D01*
X65137854Y-74627389D01*
X65040814Y-74769412D01*
X65006674Y-74938000D01*
X65006674Y-75438000D01*
X65036309Y-75595496D01*
X65129389Y-75740146D01*
X65271412Y-75837186D01*
X65440000Y-75871326D01*
X66340000Y-75871326D01*
X66497496Y-75841691D01*
X66642146Y-75748611D01*
X66649396Y-75738000D01*
X67353122Y-75738000D01*
X67427830Y-75753129D01*
X67338702Y-75842257D01*
X67274000Y-75998462D01*
X67274000Y-76576750D01*
X67380250Y-76683000D01*
X68174000Y-76683000D01*
X68174000Y-76663000D01*
X68224000Y-76663000D01*
X68224000Y-76683000D01*
X69017750Y-76683000D01*
X69124000Y-76576750D01*
X69124000Y-75998462D01*
X69059298Y-75842257D01*
X68975041Y-75758000D01*
X69152000Y-75758000D01*
X69152000Y-76336000D01*
X69203381Y-76594312D01*
X69265674Y-76687539D01*
X69265674Y-77333000D01*
X69295309Y-77490496D01*
X69369032Y-77605065D01*
X69262854Y-77673389D01*
X69219249Y-77737208D01*
X69105743Y-77623702D01*
X69037575Y-77595466D01*
X69059298Y-77573743D01*
X69124000Y-77417538D01*
X69124000Y-76839250D01*
X69017750Y-76733000D01*
X68224000Y-76733000D01*
X68224000Y-76753000D01*
X68174000Y-76753000D01*
X68174000Y-76733000D01*
X67380250Y-76733000D01*
X67274000Y-76839250D01*
X67274000Y-77417538D01*
X67338702Y-77573743D01*
X67458257Y-77693298D01*
X67614462Y-77758000D01*
X67698595Y-77758000D01*
X67640000Y-77899462D01*
X67640000Y-78227750D01*
X67746250Y-78334000D01*
X68440000Y-78334000D01*
X68440000Y-78314000D01*
X68490000Y-78314000D01*
X68490000Y-78334000D01*
X68510000Y-78334000D01*
X68510000Y-78384000D01*
X68490000Y-78384000D01*
X68490000Y-78404000D01*
X68440000Y-78404000D01*
X68440000Y-78384000D01*
X67746250Y-78384000D01*
X67640000Y-78490250D01*
X67640000Y-78810300D01*
X67123862Y-78810300D01*
X66967657Y-78875002D01*
X66848102Y-78994557D01*
X66783400Y-79150762D01*
X66783400Y-79866050D01*
X66889650Y-79972300D01*
X67945400Y-79972300D01*
X67945400Y-79952300D01*
X67995400Y-79952300D01*
X67995400Y-79972300D01*
X69051150Y-79972300D01*
X69157400Y-79866050D01*
X69157400Y-79150762D01*
X69125732Y-79074309D01*
X69218957Y-78981084D01*
X69254389Y-79036146D01*
X69396412Y-79133186D01*
X69406000Y-79135128D01*
X69406000Y-79561728D01*
X69323606Y-79760155D01*
X69323194Y-80232373D01*
X69444105Y-80525000D01*
X69157400Y-80525000D01*
X69157400Y-80128550D01*
X69051150Y-80022300D01*
X67995400Y-80022300D01*
X67995400Y-80042300D01*
X67945400Y-80042300D01*
X67945400Y-80022300D01*
X66889650Y-80022300D01*
X66783400Y-80128550D01*
X66783400Y-80525000D01*
X64125000Y-80525000D01*
X64125000Y-76819250D01*
X65015000Y-76819250D01*
X65015000Y-77022538D01*
X65079702Y-77178743D01*
X65199257Y-77298298D01*
X65355462Y-77363000D01*
X65758750Y-77363000D01*
X65865000Y-77256750D01*
X65865000Y-76713000D01*
X65915000Y-76713000D01*
X65915000Y-77256750D01*
X66021250Y-77363000D01*
X66424538Y-77363000D01*
X66580743Y-77298298D01*
X66700298Y-77178743D01*
X66765000Y-77022538D01*
X66765000Y-76819250D01*
X66658750Y-76713000D01*
X65915000Y-76713000D01*
X65865000Y-76713000D01*
X65121250Y-76713000D01*
X65015000Y-76819250D01*
X64125000Y-76819250D01*
X64125000Y-76353462D01*
X65015000Y-76353462D01*
X65015000Y-76556750D01*
X65121250Y-76663000D01*
X65865000Y-76663000D01*
X65865000Y-76119250D01*
X65915000Y-76119250D01*
X65915000Y-76663000D01*
X66658750Y-76663000D01*
X66765000Y-76556750D01*
X66765000Y-76353462D01*
X66700298Y-76197257D01*
X66580743Y-76077702D01*
X66424538Y-76013000D01*
X66021250Y-76013000D01*
X65915000Y-76119250D01*
X65865000Y-76119250D01*
X65758750Y-76013000D01*
X65355462Y-76013000D01*
X65199257Y-76077702D01*
X65079702Y-76197257D01*
X65015000Y-76353462D01*
X64125000Y-76353462D01*
X64125000Y-76000000D01*
X64115813Y-75952963D01*
X64088388Y-75911612D01*
X62088388Y-73911612D01*
X62048632Y-73884848D01*
X62000000Y-73875000D01*
X57475000Y-73875000D01*
X57475000Y-67046783D01*
X57675801Y-66037286D01*
X58221136Y-65221136D01*
X59037286Y-64675801D01*
X60046783Y-64475000D01*
X66802356Y-64475000D01*
X66783606Y-64520155D01*
X66783606Y-64520155D01*
G37*
X66783606Y-64520155D02*
X66783194Y-64992373D01*
X66963523Y-65428803D01*
X67297140Y-65763003D01*
X67733255Y-65944094D01*
X68205473Y-65944506D01*
X68641903Y-65764177D01*
X68976103Y-65430560D01*
X69157194Y-64994445D01*
X69157606Y-64522227D01*
X69138092Y-64475000D01*
X69342356Y-64475000D01*
X69323606Y-64520155D01*
X69323194Y-64992373D01*
X69503523Y-65428803D01*
X69837140Y-65763003D01*
X70273255Y-65944094D01*
X70745473Y-65944506D01*
X71181903Y-65764177D01*
X71516103Y-65430560D01*
X71697194Y-64994445D01*
X71697606Y-64522227D01*
X71678092Y-64475000D01*
X71882356Y-64475000D01*
X71863606Y-64520155D01*
X71863194Y-64992373D01*
X72043523Y-65428803D01*
X72377140Y-65763003D01*
X72813255Y-65944094D01*
X73285473Y-65944506D01*
X73721903Y-65764177D01*
X74056103Y-65430560D01*
X74237194Y-64994445D01*
X74237606Y-64522227D01*
X74218092Y-64475000D01*
X74422356Y-64475000D01*
X74403606Y-64520155D01*
X74403194Y-64992373D01*
X74583523Y-65428803D01*
X74917140Y-65763003D01*
X75353255Y-65944094D01*
X75825473Y-65944506D01*
X76261903Y-65764177D01*
X76596103Y-65430560D01*
X76777194Y-64994445D01*
X76777606Y-64522227D01*
X76758092Y-64475000D01*
X79375000Y-64475000D01*
X79375000Y-69500000D01*
X79384187Y-69547037D01*
X79411612Y-69588388D01*
X81411612Y-71588388D01*
X81451368Y-71615152D01*
X81500000Y-71625000D01*
X84500000Y-71625000D01*
X84547037Y-71615813D01*
X84588388Y-71588388D01*
X86588388Y-69588388D01*
X86615152Y-69548632D01*
X86625000Y-69500000D01*
X86625000Y-64475000D01*
X89234908Y-64475000D01*
X89214206Y-64524855D01*
X89213794Y-64997073D01*
X89394123Y-65433503D01*
X89727740Y-65767703D01*
X90163855Y-65948794D01*
X90636073Y-65949206D01*
X91072503Y-65768877D01*
X91406703Y-65435260D01*
X91587794Y-64999145D01*
X91588206Y-64526927D01*
X91566750Y-64475000D01*
X91774908Y-64475000D01*
X91754206Y-64524855D01*
X91753794Y-64997073D01*
X91934123Y-65433503D01*
X92267740Y-65767703D01*
X92703855Y-65948794D01*
X93176073Y-65949206D01*
X93612503Y-65768877D01*
X93946703Y-65435260D01*
X94127794Y-64999145D01*
X94128206Y-64526927D01*
X94106750Y-64475000D01*
X94314908Y-64475000D01*
X94294206Y-64524855D01*
X94293794Y-64997073D01*
X94474123Y-65433503D01*
X94807740Y-65767703D01*
X95061323Y-65873000D01*
X94330000Y-65873000D01*
X94071689Y-65924381D01*
X93996458Y-65974649D01*
X93852703Y-66070703D01*
X91783407Y-68139999D01*
X88944999Y-68139999D01*
X88686687Y-68191380D01*
X88467702Y-68337702D01*
X84971404Y-71834000D01*
X74803596Y-71834000D01*
X74289298Y-71319702D01*
X74070313Y-71173380D01*
X73885326Y-71136584D01*
X73885326Y-70747000D01*
X73855691Y-70589504D01*
X73762611Y-70444854D01*
X73620588Y-70347814D01*
X73452000Y-70313674D01*
X72552000Y-70313674D01*
X72394504Y-70343309D01*
X72249854Y-70436389D01*
X72242604Y-70447000D01*
X66005005Y-70447000D01*
X66005000Y-70446999D01*
X65794524Y-70488866D01*
X65616091Y-70608091D01*
X65616089Y-70608094D01*
X65075229Y-71148953D01*
X64984421Y-71148874D01*
X64717857Y-71259016D01*
X64513733Y-71462784D01*
X64403126Y-71729156D01*
X64402874Y-72017579D01*
X64513016Y-72284143D01*
X64716784Y-72488267D01*
X64983156Y-72598874D01*
X65271579Y-72599126D01*
X65287011Y-72592749D01*
X65474201Y-72780266D01*
X65740573Y-72890873D01*
X65832553Y-72890953D01*
X65933509Y-72991909D01*
X66111942Y-73111134D01*
X66322418Y-73153000D01*
X67063437Y-73153000D01*
X67089309Y-73290496D01*
X67182389Y-73435146D01*
X67324412Y-73532186D01*
X67493000Y-73566326D01*
X68143000Y-73566326D01*
X68298507Y-73537065D01*
X68443000Y-73566326D01*
X69093000Y-73566326D01*
X69248507Y-73537065D01*
X69393000Y-73566326D01*
X70043000Y-73566326D01*
X70200496Y-73536691D01*
X70345146Y-73443611D01*
X70381605Y-73390250D01*
X70678000Y-73390250D01*
X70678000Y-73743538D01*
X70742702Y-73899743D01*
X70862257Y-74019298D01*
X71018462Y-74084000D01*
X71346750Y-74084000D01*
X71453000Y-73977750D01*
X71453000Y-73284000D01*
X71503000Y-73284000D01*
X71503000Y-73977750D01*
X71609250Y-74084000D01*
X71937538Y-74084000D01*
X72093743Y-74019298D01*
X72213298Y-73899743D01*
X72278000Y-73743538D01*
X72278000Y-73390250D01*
X72171750Y-73284000D01*
X71503000Y-73284000D01*
X71453000Y-73284000D01*
X70784250Y-73284000D01*
X70678000Y-73390250D01*
X70381605Y-73390250D01*
X70442186Y-73301588D01*
X70476326Y-73133000D01*
X70476326Y-73116534D01*
X70503476Y-73111134D01*
X70599459Y-73047000D01*
X70678000Y-73047000D01*
X70678000Y-73127750D01*
X70784250Y-73234000D01*
X71453000Y-73234000D01*
X71453000Y-73214000D01*
X71503000Y-73214000D01*
X71503000Y-73234000D01*
X72171750Y-73234000D01*
X72278000Y-73127750D01*
X72278000Y-73074161D01*
X72383412Y-73146186D01*
X72552000Y-73180326D01*
X73452000Y-73180326D01*
X73609496Y-73150691D01*
X73754146Y-73057611D01*
X73851186Y-72915588D01*
X73872204Y-72811796D01*
X74046705Y-72986297D01*
X74265691Y-73132619D01*
X74524002Y-73184000D01*
X82818075Y-73184000D01*
X82817874Y-73414579D01*
X82928016Y-73681143D01*
X83131784Y-73885267D01*
X83398156Y-73995874D01*
X83686579Y-73996126D01*
X83953143Y-73885984D01*
X84157267Y-73682216D01*
X84267874Y-73415844D01*
X84268077Y-73184000D01*
X85250998Y-73184000D01*
X85509310Y-73132619D01*
X85728295Y-72986297D01*
X85885697Y-72828895D01*
X86052784Y-72996273D01*
X86319156Y-73106880D01*
X86607579Y-73107132D01*
X86874143Y-72996990D01*
X87078267Y-72793222D01*
X87188874Y-72526850D01*
X87188954Y-72434870D01*
X89358823Y-70265000D01*
X90637490Y-70265000D01*
X90648309Y-70322496D01*
X90741389Y-70467146D01*
X90883412Y-70564186D01*
X91052000Y-70598326D01*
X91257658Y-70598326D01*
X91253674Y-70618000D01*
X91253674Y-70871732D01*
X90647703Y-71477703D01*
X90501381Y-71696688D01*
X90496013Y-71723674D01*
X89850000Y-71723674D01*
X89692504Y-71753309D01*
X89547854Y-71846389D01*
X89450814Y-71988412D01*
X89416674Y-72157000D01*
X89416674Y-73217000D01*
X89446309Y-73374496D01*
X89539389Y-73519146D01*
X89681412Y-73616186D01*
X89850000Y-73650326D01*
X90500000Y-73650326D01*
X90655507Y-73621065D01*
X90800000Y-73650326D01*
X91450000Y-73650326D01*
X91605507Y-73621065D01*
X91750000Y-73650326D01*
X92400000Y-73650326D01*
X92557496Y-73620691D01*
X92702146Y-73527611D01*
X92799186Y-73385588D01*
X92833326Y-73217000D01*
X92833326Y-72501492D01*
X93202909Y-72131909D01*
X93322134Y-71953476D01*
X93354055Y-71793000D01*
X93455750Y-71793000D01*
X93562000Y-71686750D01*
X93562000Y-71018000D01*
X93612000Y-71018000D01*
X93612000Y-71686750D01*
X93718250Y-71793000D01*
X94071538Y-71793000D01*
X94227743Y-71728298D01*
X94347298Y-71608743D01*
X94412000Y-71452538D01*
X94412000Y-71124250D01*
X94305750Y-71018000D01*
X93612000Y-71018000D01*
X93562000Y-71018000D01*
X93542000Y-71018000D01*
X93542000Y-70968000D01*
X93562000Y-70968000D01*
X93562000Y-70299250D01*
X93612000Y-70299250D01*
X93612000Y-70968000D01*
X94305750Y-70968000D01*
X94412000Y-70861750D01*
X94412000Y-70533462D01*
X94347298Y-70377257D01*
X94227743Y-70257702D01*
X94071538Y-70193000D01*
X93718250Y-70193000D01*
X93612000Y-70299250D01*
X93562000Y-70299250D01*
X93475630Y-70212880D01*
X93485326Y-70165000D01*
X93485326Y-69703250D01*
X97454000Y-69703250D01*
X97454000Y-70156538D01*
X97518702Y-70312743D01*
X97638257Y-70432298D01*
X97794462Y-70497000D01*
X98547750Y-70497000D01*
X98654000Y-70390750D01*
X98654000Y-69597000D01*
X98704000Y-69597000D01*
X98704000Y-70390750D01*
X98810250Y-70497000D01*
X99563538Y-70497000D01*
X99719743Y-70432298D01*
X99839298Y-70312743D01*
X99904000Y-70156538D01*
X99904000Y-69703250D01*
X99797750Y-69597000D01*
X98704000Y-69597000D01*
X98654000Y-69597000D01*
X97560250Y-69597000D01*
X97454000Y-69703250D01*
X93485326Y-69703250D01*
X93485326Y-69265000D01*
X93455691Y-69107504D01*
X93378446Y-68987462D01*
X97454000Y-68987462D01*
X97454000Y-69440750D01*
X97560250Y-69547000D01*
X98654000Y-69547000D01*
X98654000Y-68753250D01*
X98704000Y-68753250D01*
X98704000Y-69547000D01*
X99797750Y-69547000D01*
X99904000Y-69440750D01*
X99904000Y-68987462D01*
X99839298Y-68831257D01*
X99719743Y-68711702D01*
X99563538Y-68647000D01*
X98810250Y-68647000D01*
X98704000Y-68753250D01*
X98654000Y-68753250D01*
X98547750Y-68647000D01*
X97794462Y-68647000D01*
X97638257Y-68711702D01*
X97518702Y-68831257D01*
X97454000Y-68987462D01*
X93378446Y-68987462D01*
X93362611Y-68962854D01*
X93220588Y-68865814D01*
X93052000Y-68831674D01*
X93000920Y-68831674D01*
X94609594Y-67223000D01*
X95533569Y-67223000D01*
X95853547Y-67543536D01*
X96285253Y-67722796D01*
X96752697Y-67723204D01*
X97184715Y-67544698D01*
X97482932Y-67247000D01*
X97486573Y-67247000D01*
X97568389Y-67374146D01*
X97710412Y-67471186D01*
X97879000Y-67505326D01*
X99479000Y-67505326D01*
X99636496Y-67475691D01*
X99747674Y-67404150D01*
X99747674Y-67635000D01*
X99777309Y-67792496D01*
X99870389Y-67937146D01*
X100012412Y-68034186D01*
X100181000Y-68068326D01*
X101241000Y-68068326D01*
X101398496Y-68038691D01*
X101543146Y-67945611D01*
X101640186Y-67803588D01*
X101674326Y-67635000D01*
X101674326Y-67631144D01*
X101742091Y-67698909D01*
X101920524Y-67818134D01*
X102004563Y-67834850D01*
X102070389Y-67937146D01*
X102212412Y-68034186D01*
X102381000Y-68068326D01*
X103441000Y-68068326D01*
X103598496Y-68038691D01*
X103743146Y-67945611D01*
X103840186Y-67803588D01*
X103852000Y-67745249D01*
X103852000Y-68005538D01*
X103916702Y-68161743D01*
X104036257Y-68281298D01*
X104192462Y-68346000D01*
X104770750Y-68346000D01*
X104877000Y-68239750D01*
X104877000Y-67446000D01*
X104857000Y-67446000D01*
X104857000Y-67396000D01*
X104877000Y-67396000D01*
X104877000Y-66602250D01*
X104770750Y-66496000D01*
X104192462Y-66496000D01*
X104036257Y-66560702D01*
X103916702Y-66680257D01*
X103852000Y-66836462D01*
X103852000Y-66866348D01*
X103844691Y-66827504D01*
X103843048Y-66824950D01*
X103866000Y-66769538D01*
X103866000Y-66491250D01*
X103759750Y-66385000D01*
X102936000Y-66385000D01*
X102936000Y-66405000D01*
X102886000Y-66405000D01*
X102886000Y-66385000D01*
X102866000Y-66385000D01*
X102866000Y-66335000D01*
X102886000Y-66335000D01*
X102886000Y-66315000D01*
X102936000Y-66315000D01*
X102936000Y-66335000D01*
X103759750Y-66335000D01*
X103866000Y-66228750D01*
X103866000Y-66096000D01*
X103884573Y-66096000D01*
X103966389Y-66223146D01*
X104108412Y-66320186D01*
X104277000Y-66354326D01*
X105527000Y-66354326D01*
X105684496Y-66324691D01*
X105829146Y-66231611D01*
X105884216Y-66151013D01*
X105900389Y-66176146D01*
X106042412Y-66273186D01*
X106211000Y-66307326D01*
X107035998Y-66307326D01*
X107035998Y-66395492D01*
X106836892Y-66308848D01*
X106373625Y-66490153D01*
X106015005Y-66834942D01*
X105952000Y-66978973D01*
X105952000Y-66836462D01*
X105887298Y-66680257D01*
X105767743Y-66560702D01*
X105611538Y-66496000D01*
X105033250Y-66496000D01*
X104927000Y-66602250D01*
X104927000Y-67396000D01*
X104947000Y-67396000D01*
X104947000Y-67446000D01*
X104927000Y-67446000D01*
X104927000Y-68239750D01*
X105033250Y-68346000D01*
X105611538Y-68346000D01*
X105767743Y-68281298D01*
X105887298Y-68161743D01*
X105921472Y-68079239D01*
X106015005Y-68293058D01*
X106373625Y-68637847D01*
X106836892Y-68819152D01*
X107035998Y-68732508D01*
X107035998Y-68829005D01*
X106548100Y-68926054D01*
X106134460Y-69202439D01*
X105995902Y-69409806D01*
X105958611Y-69351854D01*
X105816588Y-69254814D01*
X105648000Y-69220674D01*
X105148000Y-69220674D01*
X104990504Y-69250309D01*
X104845854Y-69343389D01*
X104748814Y-69485412D01*
X104714674Y-69654000D01*
X104714674Y-70554000D01*
X104744309Y-70711496D01*
X104837389Y-70856146D01*
X104979412Y-70953186D01*
X105148000Y-70987326D01*
X105648000Y-70987326D01*
X105805496Y-70957691D01*
X105950146Y-70864611D01*
X105995716Y-70797916D01*
X106134460Y-71005561D01*
X106548100Y-71281946D01*
X107010884Y-71374000D01*
X106548100Y-71466054D01*
X106134460Y-71742439D01*
X105995902Y-71949806D01*
X105958611Y-71891854D01*
X105816588Y-71794814D01*
X105648000Y-71760674D01*
X105148000Y-71760674D01*
X104990504Y-71790309D01*
X104845854Y-71883389D01*
X104748814Y-72025412D01*
X104714674Y-72194000D01*
X104714674Y-73094000D01*
X104744309Y-73251496D01*
X104837389Y-73396146D01*
X104979412Y-73493186D01*
X105148000Y-73527326D01*
X105648000Y-73527326D01*
X105805496Y-73497691D01*
X105950146Y-73404611D01*
X105995716Y-73337916D01*
X106134460Y-73545561D01*
X106548100Y-73821946D01*
X106814819Y-73875000D01*
X104000000Y-73875000D01*
X103952963Y-73884187D01*
X103911612Y-73911612D01*
X101911612Y-75911612D01*
X101884848Y-75951368D01*
X101875000Y-76000000D01*
X101875000Y-80525000D01*
X99089096Y-80525000D01*
X99207794Y-80239145D01*
X99208206Y-79766927D01*
X99027877Y-79330497D01*
X98694260Y-78996297D01*
X98621000Y-78965877D01*
X98621000Y-77202528D01*
X102579528Y-73244000D01*
X103242899Y-73244000D01*
X103244309Y-73251496D01*
X103337389Y-73396146D01*
X103479412Y-73493186D01*
X103648000Y-73527326D01*
X104148000Y-73527326D01*
X104305496Y-73497691D01*
X104450146Y-73404611D01*
X104547186Y-73262588D01*
X104581326Y-73094000D01*
X104581326Y-72194000D01*
X104551691Y-72036504D01*
X104458611Y-71891854D01*
X104316588Y-71794814D01*
X104148000Y-71760674D01*
X103648000Y-71760674D01*
X103490504Y-71790309D01*
X103345854Y-71883389D01*
X103248814Y-72025412D01*
X103245050Y-72044000D01*
X102763528Y-72044000D01*
X103820202Y-70987326D01*
X104148000Y-70987326D01*
X104305496Y-70957691D01*
X104450146Y-70864611D01*
X104547186Y-70722588D01*
X104581326Y-70554000D01*
X104581326Y-69654000D01*
X104551691Y-69496504D01*
X104458611Y-69351854D01*
X104316588Y-69254814D01*
X104148000Y-69220674D01*
X103648000Y-69220674D01*
X103490504Y-69250309D01*
X103345854Y-69343389D01*
X103248814Y-69485412D01*
X103214674Y-69654000D01*
X103214674Y-69895798D01*
X95056736Y-78053736D01*
X94926672Y-78248390D01*
X94881000Y-78478000D01*
X94881000Y-78965579D01*
X94809497Y-78995123D01*
X94475297Y-79328740D01*
X94294206Y-79764855D01*
X94293794Y-80237073D01*
X94412763Y-80525000D01*
X94009096Y-80525000D01*
X94127794Y-80239145D01*
X94128206Y-79766927D01*
X93947877Y-79330497D01*
X93614260Y-78996297D01*
X93235000Y-78838814D01*
X93235000Y-78614000D01*
X93183619Y-78355689D01*
X93138326Y-78287903D01*
X93138326Y-77984000D01*
X93108691Y-77826504D01*
X93108000Y-77825430D01*
X93108000Y-77755601D01*
X93208496Y-77736691D01*
X93353146Y-77643611D01*
X93450186Y-77501588D01*
X93484326Y-77333000D01*
X93484326Y-76083000D01*
X93454691Y-75925504D01*
X93361611Y-75780854D01*
X93219588Y-75683814D01*
X93051000Y-75649674D01*
X92854000Y-75649674D01*
X92854000Y-74991000D01*
X92833326Y-74887064D01*
X92833326Y-74357000D01*
X92803691Y-74199504D01*
X92710611Y-74054854D01*
X92568588Y-73957814D01*
X92400000Y-73923674D01*
X91750000Y-73923674D01*
X91592504Y-73953309D01*
X91589950Y-73954952D01*
X91534538Y-73932000D01*
X91256250Y-73932000D01*
X91150000Y-74038250D01*
X91150000Y-74862000D01*
X91170000Y-74862000D01*
X91170000Y-74912000D01*
X91150000Y-74912000D01*
X91150000Y-74932000D01*
X91100000Y-74932000D01*
X91100000Y-74912000D01*
X91080000Y-74912000D01*
X91080000Y-74862000D01*
X91100000Y-74862000D01*
X91100000Y-74038250D01*
X90993750Y-73932000D01*
X90715462Y-73932000D01*
X90658213Y-73955713D01*
X90500000Y-73923674D01*
X89850000Y-73923674D01*
X89692504Y-73953309D01*
X89547854Y-74046389D01*
X89450814Y-74188412D01*
X89420724Y-74337000D01*
X88574000Y-74337000D01*
X88363524Y-74378866D01*
X88353335Y-74385674D01*
X87942000Y-74385674D01*
X87784504Y-74415309D01*
X87639854Y-74508389D01*
X87542814Y-74650412D01*
X87508674Y-74819000D01*
X87508674Y-75319000D01*
X87538309Y-75476496D01*
X87631389Y-75621146D01*
X87773412Y-75718186D01*
X87942000Y-75752326D01*
X88842000Y-75752326D01*
X88999496Y-75722691D01*
X89144146Y-75629611D01*
X89241186Y-75487588D01*
X89251430Y-75437000D01*
X89420437Y-75437000D01*
X89446309Y-75574496D01*
X89539389Y-75719146D01*
X89681412Y-75816186D01*
X89710818Y-75822141D01*
X89690702Y-75842257D01*
X89626000Y-75998462D01*
X89626000Y-76576750D01*
X89732250Y-76683000D01*
X90526000Y-76683000D01*
X90526000Y-76663000D01*
X90576000Y-76663000D01*
X90576000Y-76683000D01*
X91369750Y-76683000D01*
X91476000Y-76576750D01*
X91476000Y-75998462D01*
X91411298Y-75842257D01*
X91411041Y-75842000D01*
X91504000Y-75842000D01*
X91504000Y-76336000D01*
X91555381Y-76594312D01*
X91617674Y-76687539D01*
X91617674Y-77333000D01*
X91647309Y-77490496D01*
X91717518Y-77599604D01*
X91602854Y-77673389D01*
X91559249Y-77737208D01*
X91445743Y-77623702D01*
X91386060Y-77598981D01*
X91411298Y-77573743D01*
X91476000Y-77417538D01*
X91476000Y-76839250D01*
X91369750Y-76733000D01*
X90576000Y-76733000D01*
X90576000Y-76753000D01*
X90526000Y-76753000D01*
X90526000Y-76733000D01*
X89732250Y-76733000D01*
X89626000Y-76839250D01*
X89626000Y-77417538D01*
X89690702Y-77573743D01*
X89810257Y-77693298D01*
X89966462Y-77758000D01*
X90038595Y-77758000D01*
X89980000Y-77899462D01*
X89980000Y-78227750D01*
X90086250Y-78334000D01*
X90780000Y-78334000D01*
X90780000Y-78314000D01*
X90830000Y-78314000D01*
X90830000Y-78334000D01*
X90850000Y-78334000D01*
X90850000Y-78384000D01*
X90830000Y-78384000D01*
X90830000Y-78404000D01*
X90780000Y-78404000D01*
X90780000Y-78384000D01*
X90086250Y-78384000D01*
X89980000Y-78490250D01*
X89980000Y-78815000D01*
X89554462Y-78815000D01*
X89398257Y-78879702D01*
X89278702Y-78999257D01*
X89214000Y-79155462D01*
X89214000Y-79870750D01*
X89320250Y-79977000D01*
X90376000Y-79977000D01*
X90376000Y-79957000D01*
X90426000Y-79957000D01*
X90426000Y-79977000D01*
X91481750Y-79977000D01*
X91588000Y-79870750D01*
X91588000Y-79155462D01*
X91528420Y-79011621D01*
X91558957Y-78981084D01*
X91594389Y-79036146D01*
X91736412Y-79133186D01*
X91885000Y-79163276D01*
X91885000Y-79449868D01*
X91754206Y-79764855D01*
X91753794Y-80237073D01*
X91872763Y-80525000D01*
X91588000Y-80525000D01*
X91588000Y-80133250D01*
X91481750Y-80027000D01*
X90426000Y-80027000D01*
X90426000Y-80047000D01*
X90376000Y-80047000D01*
X90376000Y-80027000D01*
X89320250Y-80027000D01*
X89214000Y-80133250D01*
X89214000Y-80525000D01*
X76959162Y-80525000D01*
X77113964Y-80421564D01*
X78713420Y-78822108D01*
X78733579Y-78822126D01*
X79000143Y-78711984D01*
X79204267Y-78508216D01*
X79314874Y-78241844D01*
X79315126Y-77953421D01*
X79204984Y-77686857D01*
X79001216Y-77482733D01*
X78734844Y-77372126D01*
X78446421Y-77371874D01*
X78179857Y-77482016D01*
X77975733Y-77685784D01*
X77865126Y-77952156D01*
X77865107Y-77973365D01*
X76555013Y-79283459D01*
X76263660Y-78991597D01*
X75827545Y-78810506D01*
X75355327Y-78810094D01*
X74918897Y-78990423D01*
X74584697Y-79324040D01*
X74403606Y-79760155D01*
X74403194Y-80232373D01*
X74524105Y-80525000D01*
X74116545Y-80525000D01*
X74237194Y-80234445D01*
X74237606Y-79762227D01*
X74057277Y-79325797D01*
X73723660Y-78991597D01*
X73287545Y-78810506D01*
X72815327Y-78810094D01*
X72378897Y-78990423D01*
X72044697Y-79324040D01*
X71863606Y-79760155D01*
X71863194Y-80232373D01*
X71984105Y-80525000D01*
X71576545Y-80525000D01*
X71697194Y-80234445D01*
X71697606Y-79762227D01*
X71517277Y-79325797D01*
X71183660Y-78991597D01*
X70780096Y-78824022D01*
X70798326Y-78734000D01*
X70798326Y-77984000D01*
X70768691Y-77826504D01*
X70756000Y-77806782D01*
X70756000Y-77755601D01*
X70856496Y-77736691D01*
X71001146Y-77643611D01*
X71098186Y-77501588D01*
X71132326Y-77333000D01*
X71132326Y-76700250D01*
X87517000Y-76700250D01*
X87517000Y-76903538D01*
X87581702Y-77059743D01*
X87701257Y-77179298D01*
X87857462Y-77244000D01*
X88260750Y-77244000D01*
X88367000Y-77137750D01*
X88367000Y-76594000D01*
X88417000Y-76594000D01*
X88417000Y-77137750D01*
X88523250Y-77244000D01*
X88926538Y-77244000D01*
X89082743Y-77179298D01*
X89202298Y-77059743D01*
X89267000Y-76903538D01*
X89267000Y-76700250D01*
X89160750Y-76594000D01*
X88417000Y-76594000D01*
X88367000Y-76594000D01*
X87623250Y-76594000D01*
X87517000Y-76700250D01*
X71132326Y-76700250D01*
X71132326Y-76234462D01*
X87517000Y-76234462D01*
X87517000Y-76437750D01*
X87623250Y-76544000D01*
X88367000Y-76544000D01*
X88367000Y-76000250D01*
X88417000Y-76000250D01*
X88417000Y-76544000D01*
X89160750Y-76544000D01*
X89267000Y-76437750D01*
X89267000Y-76234462D01*
X89202298Y-76078257D01*
X89082743Y-75958702D01*
X88926538Y-75894000D01*
X88523250Y-75894000D01*
X88417000Y-76000250D01*
X88367000Y-76000250D01*
X88260750Y-75894000D01*
X87857462Y-75894000D01*
X87701257Y-75958702D01*
X87581702Y-76078257D01*
X87517000Y-76234462D01*
X71132326Y-76234462D01*
X71132326Y-76083000D01*
X71102691Y-75925504D01*
X71009611Y-75780854D01*
X70867588Y-75683814D01*
X70699000Y-75649674D01*
X70502000Y-75649674D01*
X70502000Y-74912000D01*
X70476326Y-74782927D01*
X70476326Y-74273000D01*
X70446691Y-74115504D01*
X70353611Y-73970854D01*
X70211588Y-73873814D01*
X70043000Y-73839674D01*
X69393000Y-73839674D01*
X69235504Y-73869309D01*
X69232950Y-73870952D01*
X69177538Y-73848000D01*
X68899250Y-73848000D01*
X68793000Y-73954250D01*
X68793000Y-74778000D01*
X68813000Y-74778000D01*
X68813000Y-74828000D01*
X68793000Y-74828000D01*
X68793000Y-74848000D01*
X68743000Y-74848000D01*
X68743000Y-74828000D01*
X68723000Y-74828000D01*
X68723000Y-74778000D01*
X68743000Y-74778000D01*
X68743000Y-73954250D01*
X68636750Y-73848000D01*
X68358462Y-73848000D01*
X68301213Y-73871713D01*
X68143000Y-73839674D01*
X67493000Y-73839674D01*
X67335504Y-73869309D01*
X67190854Y-73962389D01*
X67093814Y-74104412D01*
X67059674Y-74273000D01*
X67059674Y-74638000D01*
X66651992Y-74638000D01*
X66650611Y-74635854D01*
X66508588Y-74538814D01*
X66340000Y-74504674D01*
X65440000Y-74504674D01*
X65282504Y-74534309D01*
X65137854Y-74627389D01*
X65040814Y-74769412D01*
X65006674Y-74938000D01*
X65006674Y-75438000D01*
X65036309Y-75595496D01*
X65129389Y-75740146D01*
X65271412Y-75837186D01*
X65440000Y-75871326D01*
X66340000Y-75871326D01*
X66497496Y-75841691D01*
X66642146Y-75748611D01*
X66649396Y-75738000D01*
X67353122Y-75738000D01*
X67427830Y-75753129D01*
X67338702Y-75842257D01*
X67274000Y-75998462D01*
X67274000Y-76576750D01*
X67380250Y-76683000D01*
X68174000Y-76683000D01*
X68174000Y-76663000D01*
X68224000Y-76663000D01*
X68224000Y-76683000D01*
X69017750Y-76683000D01*
X69124000Y-76576750D01*
X69124000Y-75998462D01*
X69059298Y-75842257D01*
X68975041Y-75758000D01*
X69152000Y-75758000D01*
X69152000Y-76336000D01*
X69203381Y-76594312D01*
X69265674Y-76687539D01*
X69265674Y-77333000D01*
X69295309Y-77490496D01*
X69369032Y-77605065D01*
X69262854Y-77673389D01*
X69219249Y-77737208D01*
X69105743Y-77623702D01*
X69037575Y-77595466D01*
X69059298Y-77573743D01*
X69124000Y-77417538D01*
X69124000Y-76839250D01*
X69017750Y-76733000D01*
X68224000Y-76733000D01*
X68224000Y-76753000D01*
X68174000Y-76753000D01*
X68174000Y-76733000D01*
X67380250Y-76733000D01*
X67274000Y-76839250D01*
X67274000Y-77417538D01*
X67338702Y-77573743D01*
X67458257Y-77693298D01*
X67614462Y-77758000D01*
X67698595Y-77758000D01*
X67640000Y-77899462D01*
X67640000Y-78227750D01*
X67746250Y-78334000D01*
X68440000Y-78334000D01*
X68440000Y-78314000D01*
X68490000Y-78314000D01*
X68490000Y-78334000D01*
X68510000Y-78334000D01*
X68510000Y-78384000D01*
X68490000Y-78384000D01*
X68490000Y-78404000D01*
X68440000Y-78404000D01*
X68440000Y-78384000D01*
X67746250Y-78384000D01*
X67640000Y-78490250D01*
X67640000Y-78810300D01*
X67123862Y-78810300D01*
X66967657Y-78875002D01*
X66848102Y-78994557D01*
X66783400Y-79150762D01*
X66783400Y-79866050D01*
X66889650Y-79972300D01*
X67945400Y-79972300D01*
X67945400Y-79952300D01*
X67995400Y-79952300D01*
X67995400Y-79972300D01*
X69051150Y-79972300D01*
X69157400Y-79866050D01*
X69157400Y-79150762D01*
X69125732Y-79074309D01*
X69218957Y-78981084D01*
X69254389Y-79036146D01*
X69396412Y-79133186D01*
X69406000Y-79135128D01*
X69406000Y-79561728D01*
X69323606Y-79760155D01*
X69323194Y-80232373D01*
X69444105Y-80525000D01*
X69157400Y-80525000D01*
X69157400Y-80128550D01*
X69051150Y-80022300D01*
X67995400Y-80022300D01*
X67995400Y-80042300D01*
X67945400Y-80042300D01*
X67945400Y-80022300D01*
X66889650Y-80022300D01*
X66783400Y-80128550D01*
X66783400Y-80525000D01*
X64125000Y-80525000D01*
X64125000Y-76819250D01*
X65015000Y-76819250D01*
X65015000Y-77022538D01*
X65079702Y-77178743D01*
X65199257Y-77298298D01*
X65355462Y-77363000D01*
X65758750Y-77363000D01*
X65865000Y-77256750D01*
X65865000Y-76713000D01*
X65915000Y-76713000D01*
X65915000Y-77256750D01*
X66021250Y-77363000D01*
X66424538Y-77363000D01*
X66580743Y-77298298D01*
X66700298Y-77178743D01*
X66765000Y-77022538D01*
X66765000Y-76819250D01*
X66658750Y-76713000D01*
X65915000Y-76713000D01*
X65865000Y-76713000D01*
X65121250Y-76713000D01*
X65015000Y-76819250D01*
X64125000Y-76819250D01*
X64125000Y-76353462D01*
X65015000Y-76353462D01*
X65015000Y-76556750D01*
X65121250Y-76663000D01*
X65865000Y-76663000D01*
X65865000Y-76119250D01*
X65915000Y-76119250D01*
X65915000Y-76663000D01*
X66658750Y-76663000D01*
X66765000Y-76556750D01*
X66765000Y-76353462D01*
X66700298Y-76197257D01*
X66580743Y-76077702D01*
X66424538Y-76013000D01*
X66021250Y-76013000D01*
X65915000Y-76119250D01*
X65865000Y-76119250D01*
X65758750Y-76013000D01*
X65355462Y-76013000D01*
X65199257Y-76077702D01*
X65079702Y-76197257D01*
X65015000Y-76353462D01*
X64125000Y-76353462D01*
X64125000Y-76000000D01*
X64115813Y-75952963D01*
X64088388Y-75911612D01*
X62088388Y-73911612D01*
X62048632Y-73884848D01*
X62000000Y-73875000D01*
X57475000Y-73875000D01*
X57475000Y-67046783D01*
X57675801Y-66037286D01*
X58221136Y-65221136D01*
X59037286Y-64675801D01*
X60046783Y-64475000D01*
X66802356Y-64475000D01*
X66783606Y-64520155D01*
G36*
X108364651Y-64635349D02*
X108476440Y-64802652D01*
X108525000Y-65046782D01*
X108525000Y-73875000D01*
X107307181Y-73875000D01*
X107573900Y-73821946D01*
X107987540Y-73545561D01*
X108263925Y-73131921D01*
X108360979Y-72644000D01*
X108263925Y-72156079D01*
X107987540Y-71742439D01*
X107573900Y-71466054D01*
X107111116Y-71374000D01*
X107573900Y-71281946D01*
X107987540Y-71005561D01*
X108263925Y-70591921D01*
X108360979Y-70104000D01*
X108263925Y-69616079D01*
X107987540Y-69202439D01*
X107573900Y-68926054D01*
X107086002Y-68829005D01*
X107086002Y-68732508D01*
X107285108Y-68819152D01*
X107748375Y-68637847D01*
X108106995Y-68293058D01*
X108306372Y-67837277D01*
X108316150Y-67788108D01*
X108229483Y-67589000D01*
X107086000Y-67589000D01*
X107086000Y-67609000D01*
X107036000Y-67609000D01*
X107036000Y-67589000D01*
X107016000Y-67589000D01*
X107016000Y-67539000D01*
X107036000Y-67539000D01*
X107036000Y-67519000D01*
X107086000Y-67519000D01*
X107086000Y-67539000D01*
X108229483Y-67539000D01*
X108316150Y-67339892D01*
X108306372Y-67290723D01*
X108106995Y-66834942D01*
X107748375Y-66490153D01*
X107285108Y-66308848D01*
X107086002Y-66395492D01*
X107086002Y-66307326D01*
X107911000Y-66307326D01*
X108068496Y-66277691D01*
X108213146Y-66184611D01*
X108310186Y-66042588D01*
X108344326Y-65874000D01*
X108344326Y-64621768D01*
X108364651Y-64635349D01*
X108364651Y-64635349D01*
G37*
X108364651Y-64635349D02*
X108476440Y-64802652D01*
X108525000Y-65046782D01*
X108525000Y-73875000D01*
X107307181Y-73875000D01*
X107573900Y-73821946D01*
X107987540Y-73545561D01*
X108263925Y-73131921D01*
X108360979Y-72644000D01*
X108263925Y-72156079D01*
X107987540Y-71742439D01*
X107573900Y-71466054D01*
X107111116Y-71374000D01*
X107573900Y-71281946D01*
X107987540Y-71005561D01*
X108263925Y-70591921D01*
X108360979Y-70104000D01*
X108263925Y-69616079D01*
X107987540Y-69202439D01*
X107573900Y-68926054D01*
X107086002Y-68829005D01*
X107086002Y-68732508D01*
X107285108Y-68819152D01*
X107748375Y-68637847D01*
X108106995Y-68293058D01*
X108306372Y-67837277D01*
X108316150Y-67788108D01*
X108229483Y-67589000D01*
X107086000Y-67589000D01*
X107086000Y-67609000D01*
X107036000Y-67609000D01*
X107036000Y-67589000D01*
X107016000Y-67589000D01*
X107016000Y-67539000D01*
X107036000Y-67539000D01*
X107036000Y-67519000D01*
X107086000Y-67519000D01*
X107086000Y-67539000D01*
X108229483Y-67539000D01*
X108316150Y-67339892D01*
X108306372Y-67290723D01*
X108106995Y-66834942D01*
X107748375Y-66490153D01*
X107285108Y-66308848D01*
X107086002Y-66395492D01*
X107086002Y-66307326D01*
X107911000Y-66307326D01*
X108068496Y-66277691D01*
X108213146Y-66184611D01*
X108310186Y-66042588D01*
X108344326Y-65874000D01*
X108344326Y-64621768D01*
X108364651Y-64635349D01*
M02*
