G04 #@! TF.FileFunction,Copper,L1,Top,Signal*
%FSLAX46Y46*%
G04 Gerber Fmt 4.6, Leading zero omitted, Abs format (unit mm)*
G04 Created by KiCad (PCBNEW 4.0.6) date Mon Jan  8 18:00:33 2018*
%MOMM*%
%LPD*%
G01*
G04 APERTURE LIST*
%ADD10C,0.100000*%
%ADD11R,0.800000X0.800000*%
%ADD12R,1.700000X1.700000*%
%ADD13O,1.700000X1.700000*%
%ADD14R,0.500000X0.900000*%
%ADD15C,1.500000*%
%ADD16R,1.524000X1.524000*%
%ADD17C,1.524000*%
%ADD18C,0.600000*%
%ADD19C,0.500000*%
%ADD20C,0.350000*%
%ADD21C,0.250000*%
G04 APERTURE END LIST*
D10*
D11*
X104282000Y-69080000D03*
X102682000Y-69080000D03*
X104305000Y-67437000D03*
X102705000Y-67437000D03*
X83505000Y-73779000D03*
X85105000Y-73779000D03*
X62230000Y-70777000D03*
X62230000Y-69177000D03*
D12*
X107061000Y-65024000D03*
D13*
X107061000Y-67564000D03*
X107061000Y-70104000D03*
X107061000Y-72644000D03*
D14*
X102744000Y-70600000D03*
X104244000Y-70600000D03*
X102628000Y-65786000D03*
X104128000Y-65786000D03*
D15*
X103736000Y-72890000D03*
D16*
X90401000Y-80002000D03*
D17*
X92941000Y-80002000D03*
X95481000Y-80002000D03*
X98021000Y-80002000D03*
X98021000Y-64762000D03*
X95481000Y-64762000D03*
X92941000Y-64762000D03*
X90401000Y-64762000D03*
D16*
X67970400Y-79997300D03*
D17*
X70510400Y-79997300D03*
X73050400Y-79997300D03*
X75590400Y-79997300D03*
X75590400Y-64757300D03*
X73050400Y-64757300D03*
X70510400Y-64757300D03*
X67970400Y-64757300D03*
D15*
X105387000Y-65000000D03*
D18*
X87226000Y-65524000D03*
X93195000Y-73779000D03*
X89004000Y-74033000D03*
X70970000Y-74287000D03*
X66525000Y-73779000D03*
X91163000Y-73906000D03*
X68811000Y-73779000D03*
X67033000Y-76688000D03*
X79987000Y-73779000D03*
X86591000Y-75811000D03*
X89512000Y-76569000D03*
X100053000Y-76954000D03*
X99545000Y-72763000D03*
X64620000Y-80002000D03*
X102847000Y-74287000D03*
X87500000Y-69000000D03*
X85956000Y-80002000D03*
X79098000Y-80002000D03*
X87988000Y-73271000D03*
X81638000Y-76065000D03*
X74399000Y-77589000D03*
X72113000Y-75430000D03*
X64620000Y-73779000D03*
X59159000Y-72001000D03*
X60683000Y-66667000D03*
X70208000Y-68064000D03*
X78082000Y-65778000D03*
X78590000Y-70223000D03*
X92052000Y-66540000D03*
X95100000Y-67937000D03*
X96878000Y-70985000D03*
X94846000Y-75303000D03*
X101196000Y-78859000D03*
X100942000Y-68699000D03*
X99545000Y-65706000D03*
X83543000Y-72509000D03*
X65890000Y-72128000D03*
X85874883Y-72945790D03*
X67922000Y-70858000D03*
X78590000Y-78097000D03*
D19*
X105387000Y-65000000D02*
X107037000Y-65000000D01*
X107037000Y-65000000D02*
X107061000Y-65024000D01*
D20*
X105387000Y-66060660D02*
X105387000Y-65000000D01*
X105387000Y-67975000D02*
X105387000Y-66060660D01*
X104282000Y-69080000D02*
X105387000Y-67975000D01*
D19*
X87500000Y-65798000D02*
X87226000Y-65524000D01*
X87500000Y-69000000D02*
X87500000Y-65798000D01*
X59159000Y-72001000D02*
X60048000Y-72890000D01*
X60048000Y-72890000D02*
X63731000Y-72890000D01*
X63731000Y-72890000D02*
X64620000Y-73779000D01*
D20*
X68811000Y-73779000D02*
X70462000Y-73779000D01*
X70462000Y-73779000D02*
X70970000Y-74287000D01*
X81638000Y-76065000D02*
X81638000Y-75430000D01*
X81638000Y-75430000D02*
X79987000Y-73779000D01*
X99545000Y-72763000D02*
X99545000Y-76446000D01*
X99545000Y-76446000D02*
X100053000Y-76954000D01*
X96878000Y-70985000D02*
X97767000Y-70985000D01*
X97767000Y-70985000D02*
X99545000Y-72763000D01*
D19*
X102847000Y-73862736D02*
X102847000Y-74287000D01*
X102847000Y-73779000D02*
X102847000Y-73862736D01*
X103736000Y-72890000D02*
X102847000Y-73779000D01*
X79098000Y-80002000D02*
X85956000Y-80002000D01*
X74399000Y-77589000D02*
X75923000Y-76065000D01*
X75923000Y-76065000D02*
X81638000Y-76065000D01*
X78590000Y-70223000D02*
X77320000Y-70223000D01*
X77320000Y-70223000D02*
X72113000Y-75430000D01*
X65209001Y-67764001D02*
X64112000Y-66667000D01*
X64112000Y-66667000D02*
X60683000Y-66667000D01*
X70208000Y-68064000D02*
X69908001Y-67764001D01*
X69908001Y-67764001D02*
X65209001Y-67764001D01*
X78590000Y-70223000D02*
X78590000Y-66286000D01*
X78590000Y-66286000D02*
X78082000Y-65778000D01*
X95100000Y-67937000D02*
X93449000Y-67937000D01*
X93449000Y-67937000D02*
X92052000Y-66540000D01*
X96878000Y-70985000D02*
X96878000Y-69715000D01*
X96878000Y-69715000D02*
X95100000Y-67937000D01*
X99753001Y-78559001D02*
X96497000Y-75303000D01*
X96497000Y-75303000D02*
X94846000Y-75303000D01*
X101196000Y-78859000D02*
X100896001Y-78559001D01*
X100896001Y-78559001D02*
X99753001Y-78559001D01*
D20*
X107061000Y-67564000D02*
X106211001Y-68413999D01*
X106211001Y-68413999D02*
X106211001Y-68632999D01*
X106211001Y-68632999D02*
X104244000Y-70600000D01*
X104244000Y-70600000D02*
X104244000Y-72382000D01*
X104244000Y-72382000D02*
X103736000Y-72890000D01*
X102705000Y-67437000D02*
X102204000Y-67437000D01*
X102204000Y-67437000D02*
X100942000Y-68699000D01*
X99545000Y-65706000D02*
X102548000Y-65706000D01*
X102548000Y-65706000D02*
X102628000Y-65786000D01*
D21*
X83505000Y-73779000D02*
X83505000Y-72547000D01*
X83505000Y-72547000D02*
X83543000Y-72509000D01*
X62230000Y-70777000D02*
X64539000Y-70777000D01*
X64539000Y-70777000D02*
X65890000Y-72128000D01*
D20*
X102682000Y-69080000D02*
X102682000Y-70538000D01*
X102682000Y-70538000D02*
X102744000Y-70600000D01*
X104128000Y-65786000D02*
X104128000Y-67260000D01*
X104128000Y-67260000D02*
X104305000Y-67437000D01*
D21*
X85105000Y-73129000D02*
X85288210Y-72945790D01*
X85105000Y-73779000D02*
X85105000Y-73129000D01*
X85288210Y-72945790D02*
X85450619Y-72945790D01*
X85450619Y-72945790D02*
X85874883Y-72945790D01*
X67922000Y-70858000D02*
X66241000Y-69177000D01*
X66241000Y-69177000D02*
X62230000Y-69177000D01*
D20*
X79014264Y-78097000D02*
X78590000Y-78097000D01*
X98021000Y-80002000D02*
X96116000Y-78097000D01*
X96116000Y-78097000D02*
X79014264Y-78097000D01*
X95481000Y-80002000D02*
X94339299Y-78860299D01*
X94339299Y-78860299D02*
X74187401Y-78860299D01*
X73812399Y-79235301D02*
X73050400Y-79997300D01*
X74187401Y-78860299D02*
X73812399Y-79235301D01*
D21*
G36*
X89214000Y-79870750D02*
X89320250Y-79977000D01*
X90376000Y-79977000D01*
X90376000Y-79957000D01*
X90426000Y-79957000D01*
X90426000Y-79977000D01*
X91481750Y-79977000D01*
X91588000Y-79870750D01*
X91588000Y-79460299D01*
X91880669Y-79460299D01*
X91754206Y-79764855D01*
X91753794Y-80237073D01*
X91872763Y-80525000D01*
X91588000Y-80525000D01*
X91588000Y-80133250D01*
X91481750Y-80027000D01*
X90426000Y-80027000D01*
X90426000Y-80047000D01*
X90376000Y-80047000D01*
X90376000Y-80027000D01*
X89320250Y-80027000D01*
X89214000Y-80133250D01*
X89214000Y-80525000D01*
X76656545Y-80525000D01*
X76777194Y-80234445D01*
X76777606Y-79762227D01*
X76652852Y-79460299D01*
X89214000Y-79460299D01*
X89214000Y-79870750D01*
X89214000Y-79870750D01*
G37*
X89214000Y-79870750D02*
X89320250Y-79977000D01*
X90376000Y-79977000D01*
X90376000Y-79957000D01*
X90426000Y-79957000D01*
X90426000Y-79977000D01*
X91481750Y-79977000D01*
X91588000Y-79870750D01*
X91588000Y-79460299D01*
X91880669Y-79460299D01*
X91754206Y-79764855D01*
X91753794Y-80237073D01*
X91872763Y-80525000D01*
X91588000Y-80525000D01*
X91588000Y-80133250D01*
X91481750Y-80027000D01*
X90426000Y-80027000D01*
X90426000Y-80047000D01*
X90376000Y-80047000D01*
X90376000Y-80027000D01*
X89320250Y-80027000D01*
X89214000Y-80133250D01*
X89214000Y-80525000D01*
X76656545Y-80525000D01*
X76777194Y-80234445D01*
X76777606Y-79762227D01*
X76652852Y-79460299D01*
X89214000Y-79460299D01*
X89214000Y-79870750D01*
G36*
X66783606Y-64520155D02*
X66783194Y-64992373D01*
X66963523Y-65428803D01*
X67297140Y-65763003D01*
X67733255Y-65944094D01*
X68205473Y-65944506D01*
X68641903Y-65764177D01*
X68976103Y-65430560D01*
X69157194Y-64994445D01*
X69157606Y-64522227D01*
X69138092Y-64475000D01*
X69342356Y-64475000D01*
X69323606Y-64520155D01*
X69323194Y-64992373D01*
X69503523Y-65428803D01*
X69837140Y-65763003D01*
X70273255Y-65944094D01*
X70745473Y-65944506D01*
X71181903Y-65764177D01*
X71516103Y-65430560D01*
X71697194Y-64994445D01*
X71697606Y-64522227D01*
X71678092Y-64475000D01*
X71882356Y-64475000D01*
X71863606Y-64520155D01*
X71863194Y-64992373D01*
X72043523Y-65428803D01*
X72377140Y-65763003D01*
X72813255Y-65944094D01*
X73285473Y-65944506D01*
X73721903Y-65764177D01*
X74056103Y-65430560D01*
X74237194Y-64994445D01*
X74237606Y-64522227D01*
X74218092Y-64475000D01*
X74422356Y-64475000D01*
X74403606Y-64520155D01*
X74403194Y-64992373D01*
X74583523Y-65428803D01*
X74917140Y-65763003D01*
X75353255Y-65944094D01*
X75825473Y-65944506D01*
X76261903Y-65764177D01*
X76596103Y-65430560D01*
X76777194Y-64994445D01*
X76777606Y-64522227D01*
X76758092Y-64475000D01*
X79375000Y-64475000D01*
X79375000Y-69500000D01*
X79384187Y-69547037D01*
X79411612Y-69588388D01*
X81411612Y-71588388D01*
X81451368Y-71615152D01*
X81500000Y-71625000D01*
X84500000Y-71625000D01*
X84547037Y-71615813D01*
X84588388Y-71588388D01*
X86588388Y-69588388D01*
X86615152Y-69548632D01*
X86625000Y-69500000D01*
X86625000Y-64475000D01*
X89234908Y-64475000D01*
X89214206Y-64524855D01*
X89213794Y-64997073D01*
X89394123Y-65433503D01*
X89727740Y-65767703D01*
X90163855Y-65948794D01*
X90636073Y-65949206D01*
X91072503Y-65768877D01*
X91406703Y-65435260D01*
X91587794Y-64999145D01*
X91588206Y-64526927D01*
X91566750Y-64475000D01*
X91774908Y-64475000D01*
X91754206Y-64524855D01*
X91753794Y-64997073D01*
X91934123Y-65433503D01*
X92267740Y-65767703D01*
X92703855Y-65948794D01*
X93176073Y-65949206D01*
X93612503Y-65768877D01*
X93946703Y-65435260D01*
X94127794Y-64999145D01*
X94128206Y-64526927D01*
X94106750Y-64475000D01*
X94314908Y-64475000D01*
X94294206Y-64524855D01*
X94293794Y-64997073D01*
X94474123Y-65433503D01*
X94807740Y-65767703D01*
X95243855Y-65948794D01*
X95716073Y-65949206D01*
X96152503Y-65768877D01*
X96486703Y-65435260D01*
X96667794Y-64999145D01*
X96668206Y-64526927D01*
X96646750Y-64475000D01*
X96854908Y-64475000D01*
X96834206Y-64524855D01*
X96833794Y-64997073D01*
X97014123Y-65433503D01*
X97347740Y-65767703D01*
X97783855Y-65948794D01*
X98256073Y-65949206D01*
X98692503Y-65768877D01*
X98820056Y-65641547D01*
X98819874Y-65849579D01*
X98930016Y-66116143D01*
X99133784Y-66320267D01*
X99400156Y-66430874D01*
X99688579Y-66431126D01*
X99955143Y-66320984D01*
X99970153Y-66306000D01*
X101957845Y-66306000D01*
X101974309Y-66393496D01*
X102067389Y-66538146D01*
X102192456Y-66623600D01*
X102064257Y-66676702D01*
X101944702Y-66796257D01*
X101880000Y-66952462D01*
X101880000Y-67305750D01*
X101986250Y-67412000D01*
X102680000Y-67412000D01*
X102680000Y-67392000D01*
X102730000Y-67392000D01*
X102730000Y-67412000D01*
X102750000Y-67412000D01*
X102750000Y-67462000D01*
X102730000Y-67462000D01*
X102730000Y-67482000D01*
X102680000Y-67482000D01*
X102680000Y-67462000D01*
X101986250Y-67462000D01*
X101880000Y-67568250D01*
X101880000Y-67921538D01*
X101944702Y-68077743D01*
X102064257Y-68197298D01*
X102214242Y-68259424D01*
X102124504Y-68276309D01*
X101979854Y-68369389D01*
X101882814Y-68511412D01*
X101848674Y-68680000D01*
X101848674Y-69480000D01*
X101878309Y-69637496D01*
X101971389Y-69782146D01*
X102082000Y-69857723D01*
X102082000Y-70044689D01*
X102060674Y-70150000D01*
X102060674Y-71050000D01*
X102090309Y-71207496D01*
X102183389Y-71352146D01*
X102325412Y-71449186D01*
X102494000Y-71483326D01*
X102994000Y-71483326D01*
X103151496Y-71453691D01*
X103296146Y-71360611D01*
X103393186Y-71218588D01*
X103427326Y-71050000D01*
X103427326Y-70731250D01*
X103569000Y-70731250D01*
X103569000Y-71134538D01*
X103633702Y-71290743D01*
X103753257Y-71410298D01*
X103909462Y-71475000D01*
X104112750Y-71475000D01*
X104219000Y-71368750D01*
X104219000Y-70625000D01*
X104269000Y-70625000D01*
X104269000Y-71368750D01*
X104375250Y-71475000D01*
X104578538Y-71475000D01*
X104734743Y-71410298D01*
X104854298Y-71290743D01*
X104919000Y-71134538D01*
X104919000Y-70731250D01*
X104812750Y-70625000D01*
X104269000Y-70625000D01*
X104219000Y-70625000D01*
X103675250Y-70625000D01*
X103569000Y-70731250D01*
X103427326Y-70731250D01*
X103427326Y-70150000D01*
X103397691Y-69992504D01*
X103304611Y-69847854D01*
X103300041Y-69844731D01*
X103384146Y-69790611D01*
X103481186Y-69648588D01*
X103482206Y-69643552D01*
X103571389Y-69782146D01*
X103683922Y-69859037D01*
X103633702Y-69909257D01*
X103569000Y-70065462D01*
X103569000Y-70468750D01*
X103675250Y-70575000D01*
X104219000Y-70575000D01*
X104219000Y-70555000D01*
X104269000Y-70555000D01*
X104269000Y-70575000D01*
X104812750Y-70575000D01*
X104919000Y-70468750D01*
X104919000Y-70065462D01*
X104854298Y-69909257D01*
X104830437Y-69885396D01*
X104839496Y-69883691D01*
X104984146Y-69790611D01*
X105081186Y-69648588D01*
X105115326Y-69480000D01*
X105115326Y-69095202D01*
X105811264Y-68399264D01*
X105941328Y-68204610D01*
X105952264Y-68149631D01*
X106015005Y-68293058D01*
X106373625Y-68637847D01*
X106836892Y-68819152D01*
X107035998Y-68732508D01*
X107035998Y-68829005D01*
X106548100Y-68926054D01*
X106134460Y-69202439D01*
X105858075Y-69616079D01*
X105761021Y-70104000D01*
X105858075Y-70591921D01*
X106134460Y-71005561D01*
X106548100Y-71281946D01*
X107010884Y-71374000D01*
X106548100Y-71466054D01*
X106134460Y-71742439D01*
X105858075Y-72156079D01*
X105761021Y-72644000D01*
X105858075Y-73131921D01*
X106134460Y-73545561D01*
X106548100Y-73821946D01*
X106814819Y-73875000D01*
X104417857Y-73875000D01*
X104419800Y-73873702D01*
X104490118Y-73679473D01*
X103736000Y-72925355D01*
X102981882Y-73679473D01*
X103052200Y-73873702D01*
X103480698Y-74060501D01*
X103757627Y-74065597D01*
X101911612Y-75911612D01*
X101884848Y-75951368D01*
X101875000Y-76000000D01*
X101875000Y-80525000D01*
X99089096Y-80525000D01*
X99207794Y-80239145D01*
X99208206Y-79766927D01*
X99027877Y-79330497D01*
X98694260Y-78996297D01*
X98258145Y-78815206D01*
X97785927Y-78814794D01*
X97712614Y-78845086D01*
X96540264Y-77672736D01*
X96345610Y-77542672D01*
X96116000Y-77497000D01*
X79015458Y-77497000D01*
X79001216Y-77482733D01*
X78734844Y-77372126D01*
X78446421Y-77371874D01*
X78179857Y-77482016D01*
X77975733Y-77685784D01*
X77865126Y-77952156D01*
X77864874Y-78240579D01*
X77873022Y-78260299D01*
X74187401Y-78260299D01*
X73957791Y-78305971D01*
X73763137Y-78436035D01*
X73358997Y-78840175D01*
X73287545Y-78810506D01*
X72815327Y-78810094D01*
X72378897Y-78990423D01*
X72044697Y-79324040D01*
X71863606Y-79760155D01*
X71863194Y-80232373D01*
X71984105Y-80525000D01*
X71576545Y-80525000D01*
X71697194Y-80234445D01*
X71697606Y-79762227D01*
X71517277Y-79325797D01*
X71183660Y-78991597D01*
X70747545Y-78810506D01*
X70275327Y-78810094D01*
X69838897Y-78990423D01*
X69504697Y-79324040D01*
X69323606Y-79760155D01*
X69323194Y-80232373D01*
X69444105Y-80525000D01*
X69157400Y-80525000D01*
X69157400Y-80128550D01*
X69051150Y-80022300D01*
X67995400Y-80022300D01*
X67995400Y-80042300D01*
X67945400Y-80042300D01*
X67945400Y-80022300D01*
X66889650Y-80022300D01*
X66783400Y-80128550D01*
X66783400Y-80525000D01*
X64125000Y-80525000D01*
X64125000Y-79150762D01*
X66783400Y-79150762D01*
X66783400Y-79866050D01*
X66889650Y-79972300D01*
X67945400Y-79972300D01*
X67945400Y-78916550D01*
X67995400Y-78916550D01*
X67995400Y-79972300D01*
X69051150Y-79972300D01*
X69157400Y-79866050D01*
X69157400Y-79150762D01*
X69092698Y-78994557D01*
X68973143Y-78875002D01*
X68816938Y-78810300D01*
X68101650Y-78810300D01*
X67995400Y-78916550D01*
X67945400Y-78916550D01*
X67839150Y-78810300D01*
X67123862Y-78810300D01*
X66967657Y-78875002D01*
X66848102Y-78994557D01*
X66783400Y-79150762D01*
X64125000Y-79150762D01*
X64125000Y-76000000D01*
X64115813Y-75952963D01*
X64088388Y-75911612D01*
X62088388Y-73911612D01*
X62048632Y-73884848D01*
X62000000Y-73875000D01*
X57475000Y-73875000D01*
X57475000Y-73379000D01*
X82671674Y-73379000D01*
X82671674Y-74179000D01*
X82701309Y-74336496D01*
X82794389Y-74481146D01*
X82936412Y-74578186D01*
X83105000Y-74612326D01*
X83905000Y-74612326D01*
X84062496Y-74582691D01*
X84207146Y-74489611D01*
X84304186Y-74347588D01*
X84305206Y-74342552D01*
X84394389Y-74481146D01*
X84536412Y-74578186D01*
X84705000Y-74612326D01*
X85505000Y-74612326D01*
X85662496Y-74582691D01*
X85807146Y-74489611D01*
X85904186Y-74347588D01*
X85938326Y-74179000D01*
X85938326Y-73670846D01*
X86018462Y-73670916D01*
X86285026Y-73560774D01*
X86489150Y-73357006D01*
X86595011Y-73102063D01*
X102556898Y-73102063D01*
X102727805Y-73537143D01*
X102752298Y-73573800D01*
X102946527Y-73644118D01*
X103700645Y-72890000D01*
X103771355Y-72890000D01*
X104525473Y-73644118D01*
X104719702Y-73573800D01*
X104906501Y-73145302D01*
X104915102Y-72677937D01*
X104744195Y-72242857D01*
X104719702Y-72206200D01*
X104525473Y-72135882D01*
X103771355Y-72890000D01*
X103700645Y-72890000D01*
X102946527Y-72135882D01*
X102752298Y-72206200D01*
X102565499Y-72634698D01*
X102556898Y-73102063D01*
X86595011Y-73102063D01*
X86599757Y-73090634D01*
X86600009Y-72802211D01*
X86489867Y-72535647D01*
X86286099Y-72331523D01*
X86019727Y-72220916D01*
X85731304Y-72220664D01*
X85464740Y-72330806D01*
X85399642Y-72395790D01*
X85288210Y-72395790D01*
X85077734Y-72437656D01*
X84899301Y-72556881D01*
X84716091Y-72740091D01*
X84596866Y-72918524D01*
X84587051Y-72967868D01*
X84547504Y-72975309D01*
X84402854Y-73068389D01*
X84305814Y-73210412D01*
X84304794Y-73215448D01*
X84215611Y-73076854D01*
X84087822Y-72989540D01*
X84157267Y-72920216D01*
X84267874Y-72653844D01*
X84268126Y-72365421D01*
X84158675Y-72100527D01*
X102981882Y-72100527D01*
X103736000Y-72854645D01*
X104490118Y-72100527D01*
X104419800Y-71906298D01*
X103991302Y-71719499D01*
X103523937Y-71710898D01*
X103088857Y-71881805D01*
X103052200Y-71906298D01*
X102981882Y-72100527D01*
X84158675Y-72100527D01*
X84157984Y-72098857D01*
X83954216Y-71894733D01*
X83687844Y-71784126D01*
X83399421Y-71783874D01*
X83132857Y-71894016D01*
X82928733Y-72097784D01*
X82818126Y-72364156D01*
X82817874Y-72652579D01*
X82928016Y-72919143D01*
X82955000Y-72946174D01*
X82955000Y-72973899D01*
X82947504Y-72975309D01*
X82802854Y-73068389D01*
X82705814Y-73210412D01*
X82671674Y-73379000D01*
X57475000Y-73379000D01*
X57475000Y-68777000D01*
X61396674Y-68777000D01*
X61396674Y-69577000D01*
X61426309Y-69734496D01*
X61519389Y-69879146D01*
X61661412Y-69976186D01*
X61666448Y-69977206D01*
X61527854Y-70066389D01*
X61430814Y-70208412D01*
X61396674Y-70377000D01*
X61396674Y-71177000D01*
X61426309Y-71334496D01*
X61519389Y-71479146D01*
X61661412Y-71576186D01*
X61830000Y-71610326D01*
X62630000Y-71610326D01*
X62787496Y-71580691D01*
X62932146Y-71487611D01*
X63029186Y-71345588D01*
X63032950Y-71327000D01*
X64311182Y-71327000D01*
X65164953Y-72180771D01*
X65164874Y-72271579D01*
X65275016Y-72538143D01*
X65478784Y-72742267D01*
X65745156Y-72852874D01*
X66033579Y-72853126D01*
X66300143Y-72742984D01*
X66504267Y-72539216D01*
X66614874Y-72272844D01*
X66615126Y-71984421D01*
X66504984Y-71717857D01*
X66301216Y-71513733D01*
X66034844Y-71403126D01*
X65942863Y-71403046D01*
X64927909Y-70388091D01*
X64749476Y-70268866D01*
X64539000Y-70227000D01*
X63035101Y-70227000D01*
X63033691Y-70219504D01*
X62940611Y-70074854D01*
X62798588Y-69977814D01*
X62793552Y-69976794D01*
X62932146Y-69887611D01*
X63029186Y-69745588D01*
X63032950Y-69727000D01*
X66013182Y-69727000D01*
X67196953Y-70910771D01*
X67196874Y-71001579D01*
X67307016Y-71268143D01*
X67510784Y-71472267D01*
X67777156Y-71582874D01*
X68065579Y-71583126D01*
X68332143Y-71472984D01*
X68536267Y-71269216D01*
X68646874Y-71002844D01*
X68647126Y-70714421D01*
X68536984Y-70447857D01*
X68333216Y-70243733D01*
X68066844Y-70133126D01*
X67974864Y-70133046D01*
X66629909Y-68788091D01*
X66451476Y-68668866D01*
X66241000Y-68627000D01*
X63035101Y-68627000D01*
X63033691Y-68619504D01*
X62940611Y-68474854D01*
X62798588Y-68377814D01*
X62630000Y-68343674D01*
X61830000Y-68343674D01*
X61672504Y-68373309D01*
X61527854Y-68466389D01*
X61430814Y-68608412D01*
X61396674Y-68777000D01*
X57475000Y-68777000D01*
X57475000Y-67046783D01*
X57675801Y-66037286D01*
X58221136Y-65221136D01*
X59037286Y-64675801D01*
X60046783Y-64475000D01*
X66802356Y-64475000D01*
X66783606Y-64520155D01*
X66783606Y-64520155D01*
G37*
X66783606Y-64520155D02*
X66783194Y-64992373D01*
X66963523Y-65428803D01*
X67297140Y-65763003D01*
X67733255Y-65944094D01*
X68205473Y-65944506D01*
X68641903Y-65764177D01*
X68976103Y-65430560D01*
X69157194Y-64994445D01*
X69157606Y-64522227D01*
X69138092Y-64475000D01*
X69342356Y-64475000D01*
X69323606Y-64520155D01*
X69323194Y-64992373D01*
X69503523Y-65428803D01*
X69837140Y-65763003D01*
X70273255Y-65944094D01*
X70745473Y-65944506D01*
X71181903Y-65764177D01*
X71516103Y-65430560D01*
X71697194Y-64994445D01*
X71697606Y-64522227D01*
X71678092Y-64475000D01*
X71882356Y-64475000D01*
X71863606Y-64520155D01*
X71863194Y-64992373D01*
X72043523Y-65428803D01*
X72377140Y-65763003D01*
X72813255Y-65944094D01*
X73285473Y-65944506D01*
X73721903Y-65764177D01*
X74056103Y-65430560D01*
X74237194Y-64994445D01*
X74237606Y-64522227D01*
X74218092Y-64475000D01*
X74422356Y-64475000D01*
X74403606Y-64520155D01*
X74403194Y-64992373D01*
X74583523Y-65428803D01*
X74917140Y-65763003D01*
X75353255Y-65944094D01*
X75825473Y-65944506D01*
X76261903Y-65764177D01*
X76596103Y-65430560D01*
X76777194Y-64994445D01*
X76777606Y-64522227D01*
X76758092Y-64475000D01*
X79375000Y-64475000D01*
X79375000Y-69500000D01*
X79384187Y-69547037D01*
X79411612Y-69588388D01*
X81411612Y-71588388D01*
X81451368Y-71615152D01*
X81500000Y-71625000D01*
X84500000Y-71625000D01*
X84547037Y-71615813D01*
X84588388Y-71588388D01*
X86588388Y-69588388D01*
X86615152Y-69548632D01*
X86625000Y-69500000D01*
X86625000Y-64475000D01*
X89234908Y-64475000D01*
X89214206Y-64524855D01*
X89213794Y-64997073D01*
X89394123Y-65433503D01*
X89727740Y-65767703D01*
X90163855Y-65948794D01*
X90636073Y-65949206D01*
X91072503Y-65768877D01*
X91406703Y-65435260D01*
X91587794Y-64999145D01*
X91588206Y-64526927D01*
X91566750Y-64475000D01*
X91774908Y-64475000D01*
X91754206Y-64524855D01*
X91753794Y-64997073D01*
X91934123Y-65433503D01*
X92267740Y-65767703D01*
X92703855Y-65948794D01*
X93176073Y-65949206D01*
X93612503Y-65768877D01*
X93946703Y-65435260D01*
X94127794Y-64999145D01*
X94128206Y-64526927D01*
X94106750Y-64475000D01*
X94314908Y-64475000D01*
X94294206Y-64524855D01*
X94293794Y-64997073D01*
X94474123Y-65433503D01*
X94807740Y-65767703D01*
X95243855Y-65948794D01*
X95716073Y-65949206D01*
X96152503Y-65768877D01*
X96486703Y-65435260D01*
X96667794Y-64999145D01*
X96668206Y-64526927D01*
X96646750Y-64475000D01*
X96854908Y-64475000D01*
X96834206Y-64524855D01*
X96833794Y-64997073D01*
X97014123Y-65433503D01*
X97347740Y-65767703D01*
X97783855Y-65948794D01*
X98256073Y-65949206D01*
X98692503Y-65768877D01*
X98820056Y-65641547D01*
X98819874Y-65849579D01*
X98930016Y-66116143D01*
X99133784Y-66320267D01*
X99400156Y-66430874D01*
X99688579Y-66431126D01*
X99955143Y-66320984D01*
X99970153Y-66306000D01*
X101957845Y-66306000D01*
X101974309Y-66393496D01*
X102067389Y-66538146D01*
X102192456Y-66623600D01*
X102064257Y-66676702D01*
X101944702Y-66796257D01*
X101880000Y-66952462D01*
X101880000Y-67305750D01*
X101986250Y-67412000D01*
X102680000Y-67412000D01*
X102680000Y-67392000D01*
X102730000Y-67392000D01*
X102730000Y-67412000D01*
X102750000Y-67412000D01*
X102750000Y-67462000D01*
X102730000Y-67462000D01*
X102730000Y-67482000D01*
X102680000Y-67482000D01*
X102680000Y-67462000D01*
X101986250Y-67462000D01*
X101880000Y-67568250D01*
X101880000Y-67921538D01*
X101944702Y-68077743D01*
X102064257Y-68197298D01*
X102214242Y-68259424D01*
X102124504Y-68276309D01*
X101979854Y-68369389D01*
X101882814Y-68511412D01*
X101848674Y-68680000D01*
X101848674Y-69480000D01*
X101878309Y-69637496D01*
X101971389Y-69782146D01*
X102082000Y-69857723D01*
X102082000Y-70044689D01*
X102060674Y-70150000D01*
X102060674Y-71050000D01*
X102090309Y-71207496D01*
X102183389Y-71352146D01*
X102325412Y-71449186D01*
X102494000Y-71483326D01*
X102994000Y-71483326D01*
X103151496Y-71453691D01*
X103296146Y-71360611D01*
X103393186Y-71218588D01*
X103427326Y-71050000D01*
X103427326Y-70731250D01*
X103569000Y-70731250D01*
X103569000Y-71134538D01*
X103633702Y-71290743D01*
X103753257Y-71410298D01*
X103909462Y-71475000D01*
X104112750Y-71475000D01*
X104219000Y-71368750D01*
X104219000Y-70625000D01*
X104269000Y-70625000D01*
X104269000Y-71368750D01*
X104375250Y-71475000D01*
X104578538Y-71475000D01*
X104734743Y-71410298D01*
X104854298Y-71290743D01*
X104919000Y-71134538D01*
X104919000Y-70731250D01*
X104812750Y-70625000D01*
X104269000Y-70625000D01*
X104219000Y-70625000D01*
X103675250Y-70625000D01*
X103569000Y-70731250D01*
X103427326Y-70731250D01*
X103427326Y-70150000D01*
X103397691Y-69992504D01*
X103304611Y-69847854D01*
X103300041Y-69844731D01*
X103384146Y-69790611D01*
X103481186Y-69648588D01*
X103482206Y-69643552D01*
X103571389Y-69782146D01*
X103683922Y-69859037D01*
X103633702Y-69909257D01*
X103569000Y-70065462D01*
X103569000Y-70468750D01*
X103675250Y-70575000D01*
X104219000Y-70575000D01*
X104219000Y-70555000D01*
X104269000Y-70555000D01*
X104269000Y-70575000D01*
X104812750Y-70575000D01*
X104919000Y-70468750D01*
X104919000Y-70065462D01*
X104854298Y-69909257D01*
X104830437Y-69885396D01*
X104839496Y-69883691D01*
X104984146Y-69790611D01*
X105081186Y-69648588D01*
X105115326Y-69480000D01*
X105115326Y-69095202D01*
X105811264Y-68399264D01*
X105941328Y-68204610D01*
X105952264Y-68149631D01*
X106015005Y-68293058D01*
X106373625Y-68637847D01*
X106836892Y-68819152D01*
X107035998Y-68732508D01*
X107035998Y-68829005D01*
X106548100Y-68926054D01*
X106134460Y-69202439D01*
X105858075Y-69616079D01*
X105761021Y-70104000D01*
X105858075Y-70591921D01*
X106134460Y-71005561D01*
X106548100Y-71281946D01*
X107010884Y-71374000D01*
X106548100Y-71466054D01*
X106134460Y-71742439D01*
X105858075Y-72156079D01*
X105761021Y-72644000D01*
X105858075Y-73131921D01*
X106134460Y-73545561D01*
X106548100Y-73821946D01*
X106814819Y-73875000D01*
X104417857Y-73875000D01*
X104419800Y-73873702D01*
X104490118Y-73679473D01*
X103736000Y-72925355D01*
X102981882Y-73679473D01*
X103052200Y-73873702D01*
X103480698Y-74060501D01*
X103757627Y-74065597D01*
X101911612Y-75911612D01*
X101884848Y-75951368D01*
X101875000Y-76000000D01*
X101875000Y-80525000D01*
X99089096Y-80525000D01*
X99207794Y-80239145D01*
X99208206Y-79766927D01*
X99027877Y-79330497D01*
X98694260Y-78996297D01*
X98258145Y-78815206D01*
X97785927Y-78814794D01*
X97712614Y-78845086D01*
X96540264Y-77672736D01*
X96345610Y-77542672D01*
X96116000Y-77497000D01*
X79015458Y-77497000D01*
X79001216Y-77482733D01*
X78734844Y-77372126D01*
X78446421Y-77371874D01*
X78179857Y-77482016D01*
X77975733Y-77685784D01*
X77865126Y-77952156D01*
X77864874Y-78240579D01*
X77873022Y-78260299D01*
X74187401Y-78260299D01*
X73957791Y-78305971D01*
X73763137Y-78436035D01*
X73358997Y-78840175D01*
X73287545Y-78810506D01*
X72815327Y-78810094D01*
X72378897Y-78990423D01*
X72044697Y-79324040D01*
X71863606Y-79760155D01*
X71863194Y-80232373D01*
X71984105Y-80525000D01*
X71576545Y-80525000D01*
X71697194Y-80234445D01*
X71697606Y-79762227D01*
X71517277Y-79325797D01*
X71183660Y-78991597D01*
X70747545Y-78810506D01*
X70275327Y-78810094D01*
X69838897Y-78990423D01*
X69504697Y-79324040D01*
X69323606Y-79760155D01*
X69323194Y-80232373D01*
X69444105Y-80525000D01*
X69157400Y-80525000D01*
X69157400Y-80128550D01*
X69051150Y-80022300D01*
X67995400Y-80022300D01*
X67995400Y-80042300D01*
X67945400Y-80042300D01*
X67945400Y-80022300D01*
X66889650Y-80022300D01*
X66783400Y-80128550D01*
X66783400Y-80525000D01*
X64125000Y-80525000D01*
X64125000Y-79150762D01*
X66783400Y-79150762D01*
X66783400Y-79866050D01*
X66889650Y-79972300D01*
X67945400Y-79972300D01*
X67945400Y-78916550D01*
X67995400Y-78916550D01*
X67995400Y-79972300D01*
X69051150Y-79972300D01*
X69157400Y-79866050D01*
X69157400Y-79150762D01*
X69092698Y-78994557D01*
X68973143Y-78875002D01*
X68816938Y-78810300D01*
X68101650Y-78810300D01*
X67995400Y-78916550D01*
X67945400Y-78916550D01*
X67839150Y-78810300D01*
X67123862Y-78810300D01*
X66967657Y-78875002D01*
X66848102Y-78994557D01*
X66783400Y-79150762D01*
X64125000Y-79150762D01*
X64125000Y-76000000D01*
X64115813Y-75952963D01*
X64088388Y-75911612D01*
X62088388Y-73911612D01*
X62048632Y-73884848D01*
X62000000Y-73875000D01*
X57475000Y-73875000D01*
X57475000Y-73379000D01*
X82671674Y-73379000D01*
X82671674Y-74179000D01*
X82701309Y-74336496D01*
X82794389Y-74481146D01*
X82936412Y-74578186D01*
X83105000Y-74612326D01*
X83905000Y-74612326D01*
X84062496Y-74582691D01*
X84207146Y-74489611D01*
X84304186Y-74347588D01*
X84305206Y-74342552D01*
X84394389Y-74481146D01*
X84536412Y-74578186D01*
X84705000Y-74612326D01*
X85505000Y-74612326D01*
X85662496Y-74582691D01*
X85807146Y-74489611D01*
X85904186Y-74347588D01*
X85938326Y-74179000D01*
X85938326Y-73670846D01*
X86018462Y-73670916D01*
X86285026Y-73560774D01*
X86489150Y-73357006D01*
X86595011Y-73102063D01*
X102556898Y-73102063D01*
X102727805Y-73537143D01*
X102752298Y-73573800D01*
X102946527Y-73644118D01*
X103700645Y-72890000D01*
X103771355Y-72890000D01*
X104525473Y-73644118D01*
X104719702Y-73573800D01*
X104906501Y-73145302D01*
X104915102Y-72677937D01*
X104744195Y-72242857D01*
X104719702Y-72206200D01*
X104525473Y-72135882D01*
X103771355Y-72890000D01*
X103700645Y-72890000D01*
X102946527Y-72135882D01*
X102752298Y-72206200D01*
X102565499Y-72634698D01*
X102556898Y-73102063D01*
X86595011Y-73102063D01*
X86599757Y-73090634D01*
X86600009Y-72802211D01*
X86489867Y-72535647D01*
X86286099Y-72331523D01*
X86019727Y-72220916D01*
X85731304Y-72220664D01*
X85464740Y-72330806D01*
X85399642Y-72395790D01*
X85288210Y-72395790D01*
X85077734Y-72437656D01*
X84899301Y-72556881D01*
X84716091Y-72740091D01*
X84596866Y-72918524D01*
X84587051Y-72967868D01*
X84547504Y-72975309D01*
X84402854Y-73068389D01*
X84305814Y-73210412D01*
X84304794Y-73215448D01*
X84215611Y-73076854D01*
X84087822Y-72989540D01*
X84157267Y-72920216D01*
X84267874Y-72653844D01*
X84268126Y-72365421D01*
X84158675Y-72100527D01*
X102981882Y-72100527D01*
X103736000Y-72854645D01*
X104490118Y-72100527D01*
X104419800Y-71906298D01*
X103991302Y-71719499D01*
X103523937Y-71710898D01*
X103088857Y-71881805D01*
X103052200Y-71906298D01*
X102981882Y-72100527D01*
X84158675Y-72100527D01*
X84157984Y-72098857D01*
X83954216Y-71894733D01*
X83687844Y-71784126D01*
X83399421Y-71783874D01*
X83132857Y-71894016D01*
X82928733Y-72097784D01*
X82818126Y-72364156D01*
X82817874Y-72652579D01*
X82928016Y-72919143D01*
X82955000Y-72946174D01*
X82955000Y-72973899D01*
X82947504Y-72975309D01*
X82802854Y-73068389D01*
X82705814Y-73210412D01*
X82671674Y-73379000D01*
X57475000Y-73379000D01*
X57475000Y-68777000D01*
X61396674Y-68777000D01*
X61396674Y-69577000D01*
X61426309Y-69734496D01*
X61519389Y-69879146D01*
X61661412Y-69976186D01*
X61666448Y-69977206D01*
X61527854Y-70066389D01*
X61430814Y-70208412D01*
X61396674Y-70377000D01*
X61396674Y-71177000D01*
X61426309Y-71334496D01*
X61519389Y-71479146D01*
X61661412Y-71576186D01*
X61830000Y-71610326D01*
X62630000Y-71610326D01*
X62787496Y-71580691D01*
X62932146Y-71487611D01*
X63029186Y-71345588D01*
X63032950Y-71327000D01*
X64311182Y-71327000D01*
X65164953Y-72180771D01*
X65164874Y-72271579D01*
X65275016Y-72538143D01*
X65478784Y-72742267D01*
X65745156Y-72852874D01*
X66033579Y-72853126D01*
X66300143Y-72742984D01*
X66504267Y-72539216D01*
X66614874Y-72272844D01*
X66615126Y-71984421D01*
X66504984Y-71717857D01*
X66301216Y-71513733D01*
X66034844Y-71403126D01*
X65942863Y-71403046D01*
X64927909Y-70388091D01*
X64749476Y-70268866D01*
X64539000Y-70227000D01*
X63035101Y-70227000D01*
X63033691Y-70219504D01*
X62940611Y-70074854D01*
X62798588Y-69977814D01*
X62793552Y-69976794D01*
X62932146Y-69887611D01*
X63029186Y-69745588D01*
X63032950Y-69727000D01*
X66013182Y-69727000D01*
X67196953Y-70910771D01*
X67196874Y-71001579D01*
X67307016Y-71268143D01*
X67510784Y-71472267D01*
X67777156Y-71582874D01*
X68065579Y-71583126D01*
X68332143Y-71472984D01*
X68536267Y-71269216D01*
X68646874Y-71002844D01*
X68647126Y-70714421D01*
X68536984Y-70447857D01*
X68333216Y-70243733D01*
X68066844Y-70133126D01*
X67974864Y-70133046D01*
X66629909Y-68788091D01*
X66451476Y-68668866D01*
X66241000Y-68627000D01*
X63035101Y-68627000D01*
X63033691Y-68619504D01*
X62940611Y-68474854D01*
X62798588Y-68377814D01*
X62630000Y-68343674D01*
X61830000Y-68343674D01*
X61672504Y-68373309D01*
X61527854Y-68466389D01*
X61430814Y-68608412D01*
X61396674Y-68777000D01*
X57475000Y-68777000D01*
X57475000Y-67046783D01*
X57675801Y-66037286D01*
X58221136Y-65221136D01*
X59037286Y-64675801D01*
X60046783Y-64475000D01*
X66802356Y-64475000D01*
X66783606Y-64520155D01*
G36*
X108364651Y-64635349D02*
X108476440Y-64802652D01*
X108525000Y-65046782D01*
X108525000Y-73875000D01*
X107307181Y-73875000D01*
X107573900Y-73821946D01*
X107987540Y-73545561D01*
X108263925Y-73131921D01*
X108360979Y-72644000D01*
X108263925Y-72156079D01*
X107987540Y-71742439D01*
X107573900Y-71466054D01*
X107111116Y-71374000D01*
X107573900Y-71281946D01*
X107987540Y-71005561D01*
X108263925Y-70591921D01*
X108360979Y-70104000D01*
X108263925Y-69616079D01*
X107987540Y-69202439D01*
X107573900Y-68926054D01*
X107086002Y-68829005D01*
X107086002Y-68732508D01*
X107285108Y-68819152D01*
X107748375Y-68637847D01*
X108106995Y-68293058D01*
X108306372Y-67837277D01*
X108316150Y-67788108D01*
X108229483Y-67589000D01*
X107086000Y-67589000D01*
X107086000Y-67609000D01*
X107036000Y-67609000D01*
X107036000Y-67589000D01*
X107016000Y-67589000D01*
X107016000Y-67539000D01*
X107036000Y-67539000D01*
X107036000Y-67519000D01*
X107086000Y-67519000D01*
X107086000Y-67539000D01*
X108229483Y-67539000D01*
X108316150Y-67339892D01*
X108306372Y-67290723D01*
X108106995Y-66834942D01*
X107748375Y-66490153D01*
X107285108Y-66308848D01*
X107086002Y-66395492D01*
X107086002Y-66307326D01*
X107911000Y-66307326D01*
X108068496Y-66277691D01*
X108213146Y-66184611D01*
X108310186Y-66042588D01*
X108344326Y-65874000D01*
X108344326Y-64621768D01*
X108364651Y-64635349D01*
X108364651Y-64635349D01*
G37*
X108364651Y-64635349D02*
X108476440Y-64802652D01*
X108525000Y-65046782D01*
X108525000Y-73875000D01*
X107307181Y-73875000D01*
X107573900Y-73821946D01*
X107987540Y-73545561D01*
X108263925Y-73131921D01*
X108360979Y-72644000D01*
X108263925Y-72156079D01*
X107987540Y-71742439D01*
X107573900Y-71466054D01*
X107111116Y-71374000D01*
X107573900Y-71281946D01*
X107987540Y-71005561D01*
X108263925Y-70591921D01*
X108360979Y-70104000D01*
X108263925Y-69616079D01*
X107987540Y-69202439D01*
X107573900Y-68926054D01*
X107086002Y-68829005D01*
X107086002Y-68732508D01*
X107285108Y-68819152D01*
X107748375Y-68637847D01*
X108106995Y-68293058D01*
X108306372Y-67837277D01*
X108316150Y-67788108D01*
X108229483Y-67589000D01*
X107086000Y-67589000D01*
X107086000Y-67609000D01*
X107036000Y-67609000D01*
X107036000Y-67589000D01*
X107016000Y-67589000D01*
X107016000Y-67539000D01*
X107036000Y-67539000D01*
X107036000Y-67519000D01*
X107086000Y-67519000D01*
X107086000Y-67539000D01*
X108229483Y-67539000D01*
X108316150Y-67339892D01*
X108306372Y-67290723D01*
X108106995Y-66834942D01*
X107748375Y-66490153D01*
X107285108Y-66308848D01*
X107086002Y-66395492D01*
X107086002Y-66307326D01*
X107911000Y-66307326D01*
X108068496Y-66277691D01*
X108213146Y-66184611D01*
X108310186Y-66042588D01*
X108344326Y-65874000D01*
X108344326Y-64621768D01*
X108364651Y-64635349D01*
M02*
