G04 #@! TF.FileFunction,Legend,Top*
%FSLAX46Y46*%
G04 Gerber Fmt 4.6, Leading zero omitted, Abs format (unit mm)*
G04 Created by KiCad (PCBNEW 4.0.6) date Mon Jan  8 21:03:33 2018*
%MOMM*%
%LPD*%
G01*
G04 APERTURE LIST*
%ADD10C,0.100000*%
%ADD11C,0.150000*%
%ADD12C,0.200000*%
%ADD13C,0.120000*%
%ADD14C,0.700000*%
G04 APERTURE END LIST*
D10*
D11*
X58532381Y-74096047D02*
X58008571Y-74096047D01*
X57913333Y-74143666D01*
X57865714Y-74238904D01*
X57865714Y-74429381D01*
X57913333Y-74524619D01*
X58484762Y-74096047D02*
X58532381Y-74191285D01*
X58532381Y-74429381D01*
X58484762Y-74524619D01*
X58389524Y-74572238D01*
X58294286Y-74572238D01*
X58199048Y-74524619D01*
X58151429Y-74429381D01*
X58151429Y-74191285D01*
X58103810Y-74096047D01*
X58532381Y-73619857D02*
X57865714Y-73619857D01*
X57960952Y-73619857D02*
X57913333Y-73572238D01*
X57865714Y-73477000D01*
X57865714Y-73334142D01*
X57913333Y-73238904D01*
X58008571Y-73191285D01*
X58532381Y-73191285D01*
X58008571Y-73191285D02*
X57913333Y-73143666D01*
X57865714Y-73048428D01*
X57865714Y-72905571D01*
X57913333Y-72810333D01*
X58008571Y-72762714D01*
X58532381Y-72762714D01*
X58484762Y-72334143D02*
X58532381Y-72238905D01*
X58532381Y-72048429D01*
X58484762Y-71953190D01*
X58389524Y-71905571D01*
X58341905Y-71905571D01*
X58246667Y-71953190D01*
X58199048Y-72048429D01*
X58199048Y-72191286D01*
X58151429Y-72286524D01*
X58056190Y-72334143D01*
X58008571Y-72334143D01*
X57913333Y-72286524D01*
X57865714Y-72191286D01*
X57865714Y-72048429D01*
X57913333Y-71953190D01*
X57532381Y-71000809D02*
X57532381Y-71477000D01*
X58008571Y-71524619D01*
X57960952Y-71477000D01*
X57913333Y-71381762D01*
X57913333Y-71143666D01*
X57960952Y-71048428D01*
X58008571Y-71000809D01*
X58103810Y-70953190D01*
X58341905Y-70953190D01*
X58437143Y-71000809D01*
X58484762Y-71048428D01*
X58532381Y-71143666D01*
X58532381Y-71381762D01*
X58484762Y-71477000D01*
X58437143Y-71524619D01*
X58532381Y-70477000D02*
X58532381Y-70286524D01*
X58484762Y-70191285D01*
X58437143Y-70143666D01*
X58294286Y-70048428D01*
X58103810Y-70000809D01*
X57722857Y-70000809D01*
X57627619Y-70048428D01*
X57580000Y-70096047D01*
X57532381Y-70191285D01*
X57532381Y-70381762D01*
X57580000Y-70477000D01*
X57627619Y-70524619D01*
X57722857Y-70572238D01*
X57960952Y-70572238D01*
X58056190Y-70524619D01*
X58103810Y-70477000D01*
X58151429Y-70381762D01*
X58151429Y-70191285D01*
X58103810Y-70096047D01*
X58056190Y-70048428D01*
X57960952Y-70000809D01*
X58532381Y-69048428D02*
X58532381Y-69619857D01*
X58532381Y-69334143D02*
X57532381Y-69334143D01*
X57675238Y-69429381D01*
X57770476Y-69524619D01*
X57818095Y-69619857D01*
X57532381Y-68143666D02*
X57532381Y-68619857D01*
X58008571Y-68667476D01*
X57960952Y-68619857D01*
X57913333Y-68524619D01*
X57913333Y-68286523D01*
X57960952Y-68191285D01*
X58008571Y-68143666D01*
X58103810Y-68096047D01*
X58341905Y-68096047D01*
X58437143Y-68143666D01*
X58484762Y-68191285D01*
X58532381Y-68286523D01*
X58532381Y-68524619D01*
X58484762Y-68619857D01*
X58437143Y-68667476D01*
X57865714Y-67762714D02*
X58532381Y-67524619D01*
X57865714Y-67286523D01*
X57627619Y-66953190D02*
X57580000Y-66905571D01*
X57532381Y-66810333D01*
X57532381Y-66572237D01*
X57580000Y-66476999D01*
X57627619Y-66429380D01*
X57722857Y-66381761D01*
X57818095Y-66381761D01*
X57960952Y-66429380D01*
X58532381Y-67000809D01*
X58532381Y-66381761D01*
X60182381Y-73381761D02*
X59706190Y-73715095D01*
X60182381Y-73953190D02*
X59182381Y-73953190D01*
X59182381Y-73572237D01*
X59230000Y-73476999D01*
X59277619Y-73429380D01*
X59372857Y-73381761D01*
X59515714Y-73381761D01*
X59610952Y-73429380D01*
X59658571Y-73476999D01*
X59706190Y-73572237D01*
X59706190Y-73953190D01*
X59182381Y-73048428D02*
X60182381Y-72381761D01*
X59182381Y-72381761D02*
X60182381Y-73048428D01*
X59801429Y-72000809D02*
X59801429Y-71238904D01*
X59182381Y-70905571D02*
X60182381Y-70572238D01*
X59182381Y-70238904D01*
X60182381Y-69905571D02*
X59182381Y-69905571D01*
X60182381Y-69429381D02*
X59182381Y-69429381D01*
X59182381Y-69048428D01*
X59230000Y-68953190D01*
X59277619Y-68905571D01*
X59372857Y-68857952D01*
X59515714Y-68857952D01*
X59610952Y-68905571D01*
X59658571Y-68953190D01*
X59706190Y-69048428D01*
X59706190Y-69429381D01*
X59658571Y-68429381D02*
X59658571Y-68096047D01*
X60182381Y-67953190D02*
X60182381Y-68429381D01*
X59182381Y-68429381D01*
X59182381Y-67953190D01*
X60182381Y-66953190D02*
X59706190Y-67286524D01*
X60182381Y-67524619D02*
X59182381Y-67524619D01*
X59182381Y-67143666D01*
X59230000Y-67048428D01*
X59277619Y-67000809D01*
X59372857Y-66953190D01*
X59515714Y-66953190D01*
X59610952Y-67000809D01*
X59658571Y-67048428D01*
X59706190Y-67143666D01*
X59706190Y-67524619D01*
X61537024Y-71445429D02*
X61537024Y-71254952D01*
X61577500Y-71159714D01*
X61658452Y-71064476D01*
X61820357Y-71016857D01*
X62103690Y-71016857D01*
X62265595Y-71064476D01*
X62346548Y-71159714D01*
X62387024Y-71254952D01*
X62387024Y-71445429D01*
X62346548Y-71540667D01*
X62265595Y-71635905D01*
X62103690Y-71683524D01*
X61820357Y-71683524D01*
X61658452Y-71635905D01*
X61577500Y-71540667D01*
X61537024Y-71445429D01*
X61820357Y-70683524D02*
X62387024Y-70445429D01*
X61820357Y-70207333D01*
X62346548Y-69445428D02*
X62387024Y-69540666D01*
X62387024Y-69731143D01*
X62346548Y-69826381D01*
X62265595Y-69874000D01*
X61941786Y-69874000D01*
X61860833Y-69826381D01*
X61820357Y-69731143D01*
X61820357Y-69540666D01*
X61860833Y-69445428D01*
X61941786Y-69397809D01*
X62022738Y-69397809D01*
X62103690Y-69874000D01*
X62387024Y-68969238D02*
X61820357Y-68969238D01*
X61982262Y-68969238D02*
X61901310Y-68921619D01*
X61860833Y-68874000D01*
X61820357Y-68778762D01*
X61820357Y-68683523D01*
X63771548Y-71207333D02*
X63812024Y-71302571D01*
X63812024Y-71493048D01*
X63771548Y-71588286D01*
X63731071Y-71635905D01*
X63650119Y-71683524D01*
X63407262Y-71683524D01*
X63326310Y-71635905D01*
X63285833Y-71588286D01*
X63245357Y-71493048D01*
X63245357Y-71302571D01*
X63285833Y-71207333D01*
X63245357Y-70350190D02*
X63812024Y-70350190D01*
X63245357Y-70778762D02*
X63690595Y-70778762D01*
X63771548Y-70731143D01*
X63812024Y-70635905D01*
X63812024Y-70493047D01*
X63771548Y-70397809D01*
X63731071Y-70350190D01*
X63812024Y-69874000D02*
X63245357Y-69874000D01*
X63407262Y-69874000D02*
X63326310Y-69826381D01*
X63285833Y-69778762D01*
X63245357Y-69683524D01*
X63245357Y-69588285D01*
X63812024Y-69254952D02*
X63245357Y-69254952D01*
X63407262Y-69254952D02*
X63326310Y-69207333D01*
X63285833Y-69159714D01*
X63245357Y-69064476D01*
X63245357Y-68969237D01*
X63771548Y-68254951D02*
X63812024Y-68350189D01*
X63812024Y-68540666D01*
X63771548Y-68635904D01*
X63690595Y-68683523D01*
X63366786Y-68683523D01*
X63285833Y-68635904D01*
X63245357Y-68540666D01*
X63245357Y-68350189D01*
X63285833Y-68254951D01*
X63366786Y-68207332D01*
X63447738Y-68207332D01*
X63528690Y-68683523D01*
X63245357Y-67778761D02*
X63812024Y-67778761D01*
X63326310Y-67778761D02*
X63285833Y-67731142D01*
X63245357Y-67635904D01*
X63245357Y-67493046D01*
X63285833Y-67397808D01*
X63366786Y-67350189D01*
X63812024Y-67350189D01*
X63245357Y-67016856D02*
X63245357Y-66635904D01*
X62962024Y-66873999D02*
X63690595Y-66873999D01*
X63771548Y-66826380D01*
X63812024Y-66731142D01*
X63812024Y-66635904D01*
X83567381Y-76509144D02*
X83567381Y-76318667D01*
X83615000Y-76223429D01*
X83710238Y-76128191D01*
X83900714Y-76080572D01*
X84234048Y-76080572D01*
X84424524Y-76128191D01*
X84519762Y-76223429D01*
X84567381Y-76318667D01*
X84567381Y-76509144D01*
X84519762Y-76604382D01*
X84424524Y-76699620D01*
X84234048Y-76747239D01*
X83900714Y-76747239D01*
X83710238Y-76699620D01*
X83615000Y-76604382D01*
X83567381Y-76509144D01*
X83900714Y-75747239D02*
X84567381Y-75509144D01*
X83900714Y-75271048D01*
X84519762Y-74509143D02*
X84567381Y-74604381D01*
X84567381Y-74794858D01*
X84519762Y-74890096D01*
X84424524Y-74937715D01*
X84043571Y-74937715D01*
X83948333Y-74890096D01*
X83900714Y-74794858D01*
X83900714Y-74604381D01*
X83948333Y-74509143D01*
X84043571Y-74461524D01*
X84138810Y-74461524D01*
X84234048Y-74937715D01*
X84567381Y-74032953D02*
X83900714Y-74032953D01*
X84091190Y-74032953D02*
X83995952Y-73985334D01*
X83948333Y-73937715D01*
X83900714Y-73842477D01*
X83900714Y-73747238D01*
X86169762Y-78318668D02*
X86217381Y-78413906D01*
X86217381Y-78604383D01*
X86169762Y-78699621D01*
X86122143Y-78747240D01*
X86026905Y-78794859D01*
X85741190Y-78794859D01*
X85645952Y-78747240D01*
X85598333Y-78699621D01*
X85550714Y-78604383D01*
X85550714Y-78413906D01*
X85598333Y-78318668D01*
X85550714Y-77461525D02*
X86217381Y-77461525D01*
X85550714Y-77890097D02*
X86074524Y-77890097D01*
X86169762Y-77842478D01*
X86217381Y-77747240D01*
X86217381Y-77604382D01*
X86169762Y-77509144D01*
X86122143Y-77461525D01*
X86217381Y-76985335D02*
X85550714Y-76985335D01*
X85741190Y-76985335D02*
X85645952Y-76937716D01*
X85598333Y-76890097D01*
X85550714Y-76794859D01*
X85550714Y-76699620D01*
X86217381Y-76366287D02*
X85550714Y-76366287D01*
X85741190Y-76366287D02*
X85645952Y-76318668D01*
X85598333Y-76271049D01*
X85550714Y-76175811D01*
X85550714Y-76080572D01*
X86169762Y-75366286D02*
X86217381Y-75461524D01*
X86217381Y-75652001D01*
X86169762Y-75747239D01*
X86074524Y-75794858D01*
X85693571Y-75794858D01*
X85598333Y-75747239D01*
X85550714Y-75652001D01*
X85550714Y-75461524D01*
X85598333Y-75366286D01*
X85693571Y-75318667D01*
X85788810Y-75318667D01*
X85884048Y-75794858D01*
X85550714Y-74890096D02*
X86217381Y-74890096D01*
X85645952Y-74890096D02*
X85598333Y-74842477D01*
X85550714Y-74747239D01*
X85550714Y-74604381D01*
X85598333Y-74509143D01*
X85693571Y-74461524D01*
X86217381Y-74461524D01*
X85550714Y-74128191D02*
X85550714Y-73747239D01*
X85217381Y-73985334D02*
X86074524Y-73985334D01*
X86169762Y-73937715D01*
X86217381Y-73842477D01*
X86217381Y-73747239D01*
X105837810Y-73756715D02*
X105875905Y-73649572D01*
X105875905Y-73471001D01*
X105837810Y-73399572D01*
X105799714Y-73363858D01*
X105723524Y-73328143D01*
X105647333Y-73328143D01*
X105571143Y-73363858D01*
X105533048Y-73399572D01*
X105494952Y-73471001D01*
X105456857Y-73613858D01*
X105418762Y-73685286D01*
X105380667Y-73721001D01*
X105304476Y-73756715D01*
X105228286Y-73756715D01*
X105152095Y-73721001D01*
X105114000Y-73685286D01*
X105075905Y-73613858D01*
X105075905Y-73435286D01*
X105114000Y-73328143D01*
X105799714Y-72578143D02*
X105837810Y-72613857D01*
X105875905Y-72721000D01*
X105875905Y-72792429D01*
X105837810Y-72899572D01*
X105761619Y-72971000D01*
X105685429Y-73006715D01*
X105533048Y-73042429D01*
X105418762Y-73042429D01*
X105266381Y-73006715D01*
X105190190Y-72971000D01*
X105114000Y-72899572D01*
X105075905Y-72792429D01*
X105075905Y-72721000D01*
X105114000Y-72613857D01*
X105152095Y-72578143D01*
X105875905Y-71899572D02*
X105875905Y-72256715D01*
X105075905Y-72256715D01*
X105837810Y-71113857D02*
X105875905Y-71006714D01*
X105875905Y-70828143D01*
X105837810Y-70756714D01*
X105799714Y-70721000D01*
X105723524Y-70685285D01*
X105647333Y-70685285D01*
X105571143Y-70721000D01*
X105533048Y-70756714D01*
X105494952Y-70828143D01*
X105456857Y-70971000D01*
X105418762Y-71042428D01*
X105380667Y-71078143D01*
X105304476Y-71113857D01*
X105228286Y-71113857D01*
X105152095Y-71078143D01*
X105114000Y-71042428D01*
X105075905Y-70971000D01*
X105075905Y-70792428D01*
X105114000Y-70685285D01*
X105875905Y-70363857D02*
X105075905Y-70363857D01*
X105075905Y-70185285D01*
X105114000Y-70078142D01*
X105190190Y-70006714D01*
X105266381Y-69970999D01*
X105418762Y-69935285D01*
X105533048Y-69935285D01*
X105685429Y-69970999D01*
X105761619Y-70006714D01*
X105837810Y-70078142D01*
X105875905Y-70185285D01*
X105875905Y-70363857D01*
X105647333Y-69649571D02*
X105647333Y-69292428D01*
X105875905Y-69720999D02*
X105075905Y-69470999D01*
X105875905Y-69220999D01*
X105114000Y-68006713D02*
X105075905Y-68078142D01*
X105075905Y-68185285D01*
X105114000Y-68292428D01*
X105190190Y-68363856D01*
X105266381Y-68399571D01*
X105418762Y-68435285D01*
X105533048Y-68435285D01*
X105685429Y-68399571D01*
X105761619Y-68363856D01*
X105837810Y-68292428D01*
X105875905Y-68185285D01*
X105875905Y-68113856D01*
X105837810Y-68006713D01*
X105799714Y-67970999D01*
X105533048Y-67970999D01*
X105533048Y-68113856D01*
X105875905Y-67649571D02*
X105075905Y-67649571D01*
X105875905Y-67220999D01*
X105075905Y-67220999D01*
X105875905Y-66863857D02*
X105075905Y-66863857D01*
X105075905Y-66685285D01*
X105114000Y-66578142D01*
X105190190Y-66506714D01*
X105266381Y-66470999D01*
X105418762Y-66435285D01*
X105533048Y-66435285D01*
X105685429Y-66470999D01*
X105761619Y-66506714D01*
X105837810Y-66578142D01*
X105875905Y-66685285D01*
X105875905Y-66863857D01*
D12*
X101942286Y-64833429D02*
X102704191Y-64833429D01*
X102323239Y-65214381D02*
X102323239Y-64452476D01*
X103656572Y-64214381D02*
X103180381Y-64214381D01*
X103132762Y-64690571D01*
X103180381Y-64642952D01*
X103275619Y-64595333D01*
X103513715Y-64595333D01*
X103608953Y-64642952D01*
X103656572Y-64690571D01*
X103704191Y-64785810D01*
X103704191Y-65023905D01*
X103656572Y-65119143D01*
X103608953Y-65166762D01*
X103513715Y-65214381D01*
X103275619Y-65214381D01*
X103180381Y-65166762D01*
X103132762Y-65119143D01*
X103989905Y-64214381D02*
X104323238Y-65214381D01*
X104656572Y-64214381D01*
X102120000Y-75836285D02*
X102062857Y-75950571D01*
X102062857Y-76122000D01*
X102120000Y-76293428D01*
X102234286Y-76407714D01*
X102348571Y-76464857D01*
X102577143Y-76522000D01*
X102748571Y-76522000D01*
X102977143Y-76464857D01*
X103091429Y-76407714D01*
X103205714Y-76293428D01*
X103262857Y-76122000D01*
X103262857Y-76007714D01*
X103205714Y-75836285D01*
X103148571Y-75779142D01*
X102748571Y-75779142D01*
X102748571Y-76007714D01*
X103262857Y-75264857D02*
X102062857Y-75264857D01*
X103262857Y-74579142D01*
X102062857Y-74579142D01*
X103262857Y-74007714D02*
X102062857Y-74007714D01*
X102062857Y-73721999D01*
X102120000Y-73550571D01*
X102234286Y-73436285D01*
X102348571Y-73379142D01*
X102577143Y-73321999D01*
X102748571Y-73321999D01*
X102977143Y-73379142D01*
X103091429Y-73436285D01*
X103205714Y-73550571D01*
X103262857Y-73721999D01*
X103262857Y-74007714D01*
D13*
X102182000Y-68580000D02*
X102182000Y-69580000D01*
X102182000Y-69580000D02*
X104282000Y-69580000D01*
X102182000Y-68580000D02*
X104282000Y-68580000D01*
X102205000Y-66937000D02*
X102205000Y-67937000D01*
X102205000Y-67937000D02*
X104305000Y-67937000D01*
X102205000Y-66937000D02*
X104305000Y-66937000D01*
X85986000Y-73009000D02*
X85986000Y-72009000D01*
X85986000Y-72009000D02*
X83886000Y-72009000D01*
X85986000Y-73009000D02*
X83886000Y-73009000D01*
X61161000Y-72009000D02*
X61161000Y-73009000D01*
X61161000Y-73009000D02*
X63261000Y-73009000D01*
X61161000Y-72009000D02*
X63261000Y-72009000D01*
X108341000Y-63634000D02*
X108341000Y-66294000D01*
X108341000Y-66294000D02*
X111081000Y-66294000D01*
X111081000Y-66294000D02*
X111081000Y-63634000D01*
X111081000Y-63634000D02*
X108341000Y-63634000D01*
X111081000Y-64584000D02*
X111081000Y-65464000D01*
X111081000Y-65464000D02*
X117081000Y-65464000D01*
X117081000Y-65464000D02*
X117081000Y-64584000D01*
X117081000Y-64584000D02*
X111081000Y-64584000D01*
X108031000Y-64584000D02*
X108341000Y-64584000D01*
X108031000Y-65464000D02*
X108341000Y-65464000D01*
X111081000Y-64704000D02*
X117081000Y-64704000D01*
X111081000Y-64824000D02*
X117081000Y-64824000D01*
X111081000Y-64944000D02*
X117081000Y-64944000D01*
X111081000Y-65064000D02*
X117081000Y-65064000D01*
X111081000Y-65184000D02*
X117081000Y-65184000D01*
X111081000Y-65304000D02*
X117081000Y-65304000D01*
X111081000Y-65424000D02*
X117081000Y-65424000D01*
X108341000Y-66294000D02*
X108341000Y-68834000D01*
X108341000Y-68834000D02*
X111081000Y-68834000D01*
X111081000Y-68834000D02*
X111081000Y-66294000D01*
X111081000Y-66294000D02*
X108341000Y-66294000D01*
X111081000Y-67124000D02*
X111081000Y-68004000D01*
X111081000Y-68004000D02*
X117081000Y-68004000D01*
X117081000Y-68004000D02*
X117081000Y-67124000D01*
X117081000Y-67124000D02*
X111081000Y-67124000D01*
X108031000Y-67124000D02*
X108341000Y-67124000D01*
X108031000Y-68004000D02*
X108341000Y-68004000D01*
X108341000Y-68834000D02*
X108341000Y-71374000D01*
X108341000Y-71374000D02*
X111081000Y-71374000D01*
X111081000Y-71374000D02*
X111081000Y-68834000D01*
X111081000Y-68834000D02*
X108341000Y-68834000D01*
X111081000Y-69664000D02*
X111081000Y-70544000D01*
X111081000Y-70544000D02*
X117081000Y-70544000D01*
X117081000Y-70544000D02*
X117081000Y-69664000D01*
X117081000Y-69664000D02*
X111081000Y-69664000D01*
X108031000Y-69664000D02*
X108341000Y-69664000D01*
X108031000Y-70544000D02*
X108341000Y-70544000D01*
X108341000Y-71374000D02*
X108341000Y-74034000D01*
X108341000Y-74034000D02*
X111081000Y-74034000D01*
X111081000Y-74034000D02*
X111081000Y-71374000D01*
X111081000Y-71374000D02*
X108341000Y-71374000D01*
X111081000Y-72204000D02*
X111081000Y-73084000D01*
X111081000Y-73084000D02*
X117081000Y-73084000D01*
X117081000Y-73084000D02*
X117081000Y-72204000D01*
X117081000Y-72204000D02*
X111081000Y-72204000D01*
X108031000Y-72204000D02*
X108341000Y-72204000D01*
X108031000Y-73084000D02*
X108341000Y-73084000D01*
X105791000Y-65024000D02*
X105791000Y-63754000D01*
X105791000Y-63754000D02*
X107061000Y-63754000D01*
X103994000Y-71280000D02*
X102994000Y-71280000D01*
X102994000Y-69920000D02*
X103994000Y-69920000D01*
X103878000Y-66466000D02*
X102878000Y-66466000D01*
X102878000Y-65106000D02*
X103878000Y-65106000D01*
D11*
X101831000Y-80002000D02*
X99291000Y-80002000D01*
X86591000Y-80002000D02*
X89131000Y-80002000D01*
X101831000Y-64762000D02*
X99291000Y-64762000D01*
X86591000Y-64762000D02*
X89131000Y-64762000D01*
D14*
X87944553Y-79002000D02*
G75*
G03X87944553Y-79002000I-353553J0D01*
G01*
D11*
X100368500Y-74922000D02*
G75*
G03X100368500Y-74922000I-1587500J0D01*
G01*
X94018500Y-71872000D02*
G75*
G03X94018500Y-71872000I-1587500J0D01*
G01*
X101831000Y-74922000D02*
G75*
G03X101831000Y-74922000I-3050000J0D01*
G01*
X101831000Y-80002000D02*
X101831000Y-64762000D01*
X86591000Y-80002000D02*
X86591000Y-64762000D01*
X95481000Y-71872000D02*
G75*
G03X95481000Y-71872000I-3050000J0D01*
G01*
X79400400Y-79997300D02*
X76860400Y-79997300D01*
X64160400Y-79997300D02*
X66700400Y-79997300D01*
X79400400Y-64757300D02*
X76860400Y-64757300D01*
X64160400Y-64757300D02*
X66700400Y-64757300D01*
D14*
X65513953Y-78997300D02*
G75*
G03X65513953Y-78997300I-353553J0D01*
G01*
D11*
X77937900Y-74917300D02*
G75*
G03X77937900Y-74917300I-1587500J0D01*
G01*
X71587900Y-71867300D02*
G75*
G03X71587900Y-71867300I-1587500J0D01*
G01*
X79400400Y-74917300D02*
G75*
G03X79400400Y-74917300I-3050000J0D01*
G01*
X79400400Y-79997300D02*
X79400400Y-64757300D01*
X64160400Y-79997300D02*
X64160400Y-64757300D01*
X73050400Y-71867300D02*
G75*
G03X73050400Y-71867300I-3050000J0D01*
G01*
X91978619Y-72157714D02*
X91931000Y-72110095D01*
X91883381Y-72014857D01*
X91883381Y-71776761D01*
X91931000Y-71681523D01*
X91978619Y-71633904D01*
X92073857Y-71586285D01*
X92169095Y-71586285D01*
X92311952Y-71633904D01*
X92883381Y-72205333D01*
X92883381Y-71586285D01*
X99233381Y-74636285D02*
X99233381Y-75207714D01*
X99233381Y-74922000D02*
X98233381Y-74922000D01*
X98376238Y-75017238D01*
X98471476Y-75112476D01*
X98519095Y-75207714D01*
X69548019Y-72153014D02*
X69500400Y-72105395D01*
X69452781Y-72010157D01*
X69452781Y-71772061D01*
X69500400Y-71676823D01*
X69548019Y-71629204D01*
X69643257Y-71581585D01*
X69738495Y-71581585D01*
X69881352Y-71629204D01*
X70452781Y-72200633D01*
X70452781Y-71581585D01*
X76802781Y-74631585D02*
X76802781Y-75203014D01*
X76802781Y-74917300D02*
X75802781Y-74917300D01*
X75945638Y-75012538D01*
X76040876Y-75107776D01*
X76088495Y-75203014D01*
M02*
