G04 #@! TF.FileFunction,Legend,Bot*
%FSLAX46Y46*%
G04 Gerber Fmt 4.6, Leading zero omitted, Abs format (unit mm)*
G04 Created by KiCad (PCBNEW 4.0.6) date Mon Jan  8 21:03:33 2018*
%MOMM*%
%LPD*%
G01*
G04 APERTURE LIST*
%ADD10C,0.100000*%
%ADD11C,0.150000*%
%ADD12C,0.200000*%
%ADD13C,0.120000*%
G04 APERTURE END LIST*
D10*
D11*
X108151667Y-73756715D02*
X108118333Y-73649572D01*
X108118333Y-73471001D01*
X108151667Y-73399572D01*
X108185000Y-73363858D01*
X108251667Y-73328143D01*
X108318333Y-73328143D01*
X108385000Y-73363858D01*
X108418333Y-73399572D01*
X108451667Y-73471001D01*
X108485000Y-73613858D01*
X108518333Y-73685286D01*
X108551667Y-73721001D01*
X108618333Y-73756715D01*
X108685000Y-73756715D01*
X108751667Y-73721001D01*
X108785000Y-73685286D01*
X108818333Y-73613858D01*
X108818333Y-73435286D01*
X108785000Y-73328143D01*
X108185000Y-72578143D02*
X108151667Y-72613857D01*
X108118333Y-72721000D01*
X108118333Y-72792429D01*
X108151667Y-72899572D01*
X108218333Y-72971000D01*
X108285000Y-73006715D01*
X108418333Y-73042429D01*
X108518333Y-73042429D01*
X108651667Y-73006715D01*
X108718333Y-72971000D01*
X108785000Y-72899572D01*
X108818333Y-72792429D01*
X108818333Y-72721000D01*
X108785000Y-72613857D01*
X108751667Y-72578143D01*
X108118333Y-71899572D02*
X108118333Y-72256715D01*
X108818333Y-72256715D01*
X108151667Y-71113857D02*
X108118333Y-71006714D01*
X108118333Y-70828143D01*
X108151667Y-70756714D01*
X108185000Y-70721000D01*
X108251667Y-70685285D01*
X108318333Y-70685285D01*
X108385000Y-70721000D01*
X108418333Y-70756714D01*
X108451667Y-70828143D01*
X108485000Y-70971000D01*
X108518333Y-71042428D01*
X108551667Y-71078143D01*
X108618333Y-71113857D01*
X108685000Y-71113857D01*
X108751667Y-71078143D01*
X108785000Y-71042428D01*
X108818333Y-70971000D01*
X108818333Y-70792428D01*
X108785000Y-70685285D01*
X108118333Y-70363857D02*
X108818333Y-70363857D01*
X108818333Y-70185285D01*
X108785000Y-70078142D01*
X108718333Y-70006714D01*
X108651667Y-69970999D01*
X108518333Y-69935285D01*
X108418333Y-69935285D01*
X108285000Y-69970999D01*
X108218333Y-70006714D01*
X108151667Y-70078142D01*
X108118333Y-70185285D01*
X108118333Y-70363857D01*
X108318333Y-69649571D02*
X108318333Y-69292428D01*
X108118333Y-69720999D02*
X108818333Y-69470999D01*
X108118333Y-69220999D01*
X108785000Y-68006713D02*
X108818333Y-68078142D01*
X108818333Y-68185285D01*
X108785000Y-68292428D01*
X108718333Y-68363856D01*
X108651667Y-68399571D01*
X108518333Y-68435285D01*
X108418333Y-68435285D01*
X108285000Y-68399571D01*
X108218333Y-68363856D01*
X108151667Y-68292428D01*
X108118333Y-68185285D01*
X108118333Y-68113856D01*
X108151667Y-68006713D01*
X108185000Y-67970999D01*
X108418333Y-67970999D01*
X108418333Y-68113856D01*
X108118333Y-67649571D02*
X108818333Y-67649571D01*
X108118333Y-67220999D01*
X108818333Y-67220999D01*
X108118333Y-66863857D02*
X108818333Y-66863857D01*
X108818333Y-66685285D01*
X108785000Y-66578142D01*
X108718333Y-66506714D01*
X108651667Y-66470999D01*
X108518333Y-66435285D01*
X108418333Y-66435285D01*
X108285000Y-66470999D01*
X108218333Y-66506714D01*
X108151667Y-66578142D01*
X108118333Y-66685285D01*
X108118333Y-66863857D01*
D12*
X95972905Y-67500429D02*
X95211000Y-67500429D01*
X95591952Y-67881381D02*
X95591952Y-67119476D01*
X94830048Y-66881381D02*
X94211000Y-66881381D01*
X94544334Y-67262333D01*
X94401476Y-67262333D01*
X94306238Y-67309952D01*
X94258619Y-67357571D01*
X94211000Y-67452810D01*
X94211000Y-67690905D01*
X94258619Y-67786143D01*
X94306238Y-67833762D01*
X94401476Y-67881381D01*
X94687191Y-67881381D01*
X94782429Y-67833762D01*
X94830048Y-67786143D01*
X93925286Y-66881381D02*
X93591953Y-67881381D01*
X93258619Y-66881381D01*
X93020524Y-66881381D02*
X92401476Y-66881381D01*
X92734810Y-67262333D01*
X92591952Y-67262333D01*
X92496714Y-67309952D01*
X92449095Y-67357571D01*
X92401476Y-67452810D01*
X92401476Y-67690905D01*
X92449095Y-67786143D01*
X92496714Y-67833762D01*
X92591952Y-67881381D01*
X92877667Y-67881381D01*
X92972905Y-67833762D01*
X93020524Y-67786143D01*
D13*
X104052000Y-66921000D02*
X104052000Y-65921000D01*
X105752000Y-65921000D02*
X105752000Y-66921000D01*
X97659000Y-69072000D02*
X97659000Y-67072000D01*
X99699000Y-67072000D02*
X99699000Y-69072000D01*
X92487000Y-71593000D02*
X93187000Y-71593000D01*
X93187000Y-70393000D02*
X92487000Y-70393000D01*
X91905000Y-77759000D02*
X91205000Y-77759000D01*
X91205000Y-78959000D02*
X91905000Y-78959000D01*
X70878000Y-72159000D02*
X70878000Y-72859000D01*
X72078000Y-72859000D02*
X72078000Y-72159000D01*
X69565000Y-77759000D02*
X68865000Y-77759000D01*
X68865000Y-78959000D02*
X69565000Y-78959000D01*
X91051000Y-75858000D02*
X92051000Y-75858000D01*
X92051000Y-77558000D02*
X91051000Y-77558000D01*
X68699000Y-75858000D02*
X69699000Y-75858000D01*
X69699000Y-77558000D02*
X68699000Y-77558000D01*
X104148000Y-73324000D02*
X105148000Y-73324000D01*
X105148000Y-71964000D02*
X104148000Y-71964000D01*
X104148000Y-70784000D02*
X105148000Y-70784000D01*
X105148000Y-69424000D02*
X104148000Y-69424000D01*
X87712000Y-75319000D02*
X87712000Y-76319000D01*
X89072000Y-76319000D02*
X89072000Y-75319000D01*
X92552000Y-69035000D02*
X91552000Y-69035000D01*
X91552000Y-70395000D02*
X92552000Y-70395000D01*
X65210000Y-75438000D02*
X65210000Y-76438000D01*
X66570000Y-76438000D02*
X66570000Y-75438000D01*
X73682000Y-72247000D02*
X73682000Y-71247000D01*
X72322000Y-71247000D02*
X72322000Y-72247000D01*
X102711000Y-67970000D02*
X100911000Y-67970000D01*
X100911000Y-64750000D02*
X103361000Y-64750000D01*
X89515000Y-74687000D02*
X89515000Y-72887000D01*
X92735000Y-72887000D02*
X92735000Y-75337000D01*
X67158000Y-74603000D02*
X67158000Y-72803000D01*
X70378000Y-72803000D02*
X70378000Y-75253000D01*
M02*
