M48
;DRILL file {KiCad 4.0.6} date Mon Jan  8 21:03:35 2018
;FORMAT={-:-/ absolute / inch / decimal}
FMAT,2
INCH,TZ
T1C0.016
T2C0.030
T3C0.039
%
G90
G05
M72
T1
X2.3291Y-2.8347
X2.3891Y-2.6247
X2.5441Y-2.9047
X2.5441Y-3.1497
X2.5641Y-2.8297
X2.5939Y-2.8412
X2.6191Y-2.9047
X2.6391Y-3.0192
X2.7091Y-2.9047
X2.7641Y-2.6797
X2.7941Y-2.9247
X2.8391Y-2.9697
X2.9291Y-3.0547
X3.0741Y-2.5897
X3.0941Y-2.7647
X3.0941Y-3.0747
X3.1141Y-3.1497
X3.1491Y-2.9047
X3.2141Y-2.9947
X3.2891Y-2.8847
X3.3841Y-3.1497
X3.4041Y-2.8497
X3.4091Y-2.9847
X3.4341Y-2.5797
X3.4449Y-2.7165
X3.4641Y-2.8847
X3.5041Y-2.9147
X3.5241Y-3.0145
X3.5891Y-2.9097
X3.6241Y-2.6197
X3.6691Y-2.9047
X3.7341Y-2.9647
X3.7441Y-2.6747
X3.8141Y-2.7947
X3.9191Y-2.5869
X3.9191Y-2.8647
X3.9391Y-3.0297
X3.9741Y-2.7047
X3.9841Y-3.1047
X4.0491Y-2.9247
T2
X2.676Y-2.5495
X2.676Y-3.1495
X2.776Y-2.5495
X2.776Y-3.1495
X2.876Y-2.5495
X2.876Y-3.1495
X2.976Y-2.5495
X2.976Y-3.1495
X3.5591Y-2.5497
X3.5591Y-3.1497
X3.6591Y-2.5497
X3.6591Y-3.1497
X3.7591Y-2.5497
X3.7591Y-3.1497
X3.8591Y-2.5497
X3.8591Y-3.1497
T3
X4.215Y-2.56
X4.215Y-2.66
X4.215Y-2.76
X4.215Y-2.86
T0
M30
