G04 #@! TF.FileFunction,Copper,L1,Top,Signal*
%FSLAX46Y46*%
G04 Gerber Fmt 4.6, Leading zero omitted, Abs format (unit mm)*
G04 Created by KiCad (PCBNEW 4.0.6) date Mon Jan  8 21:03:33 2018*
%MOMM*%
%LPD*%
G01*
G04 APERTURE LIST*
%ADD10C,0.100000*%
%ADD11R,0.800000X0.800000*%
%ADD12R,1.700000X1.700000*%
%ADD13O,1.700000X1.700000*%
%ADD14R,0.500000X0.900000*%
%ADD15C,1.500000*%
%ADD16R,1.524000X1.524000*%
%ADD17C,1.524000*%
%ADD18C,0.600000*%
%ADD19C,0.500000*%
%ADD20C,0.350000*%
%ADD21C,0.250000*%
G04 APERTURE END LIST*
D10*
D11*
X104282000Y-69080000D03*
X102682000Y-69080000D03*
X104305000Y-67437000D03*
X102705000Y-67437000D03*
X83886000Y-72509000D03*
X85486000Y-72509000D03*
X63261000Y-72509000D03*
X61661000Y-72509000D03*
D12*
X107061000Y-65024000D03*
D13*
X107061000Y-67564000D03*
X107061000Y-70104000D03*
X107061000Y-72644000D03*
D14*
X102744000Y-70600000D03*
X104244000Y-70600000D03*
X102628000Y-65786000D03*
X104128000Y-65786000D03*
D15*
X103736000Y-72890000D03*
D16*
X90401000Y-80002000D03*
D17*
X92941000Y-80002000D03*
X95481000Y-80002000D03*
X98021000Y-80002000D03*
X98021000Y-64762000D03*
X95481000Y-64762000D03*
X92941000Y-64762000D03*
X90401000Y-64762000D03*
D16*
X67970400Y-79997300D03*
D17*
X70510400Y-79997300D03*
X73050400Y-79997300D03*
X75590400Y-79997300D03*
X75590400Y-64757300D03*
X73050400Y-64757300D03*
X70510400Y-64757300D03*
X67970400Y-64757300D03*
D15*
X105387000Y-65000000D03*
D18*
X87226000Y-65524000D03*
X93195000Y-73779000D03*
X89004000Y-74033000D03*
X70970000Y-74287000D03*
X66525000Y-73779000D03*
X91163000Y-73906000D03*
X68811000Y-73779000D03*
X67033000Y-76688000D03*
X79987000Y-73779000D03*
X86591000Y-75811000D03*
X89512000Y-76569000D03*
X100053000Y-76954000D03*
X99545000Y-72763000D03*
X64620000Y-80002000D03*
X102847000Y-74287000D03*
X87500000Y-69000000D03*
X85956000Y-80002000D03*
X79098000Y-80002000D03*
X87988000Y-73271000D03*
X81638000Y-76065000D03*
X74399000Y-77589000D03*
X72113000Y-75430000D03*
X64620000Y-73779000D03*
X59159000Y-72001000D03*
X60683000Y-66667000D03*
X70208000Y-68064000D03*
X78082000Y-65778000D03*
X78590000Y-70223000D03*
X92052000Y-66540000D03*
X95100000Y-67937000D03*
X96878000Y-70985000D03*
X94846000Y-75303000D03*
X101196000Y-78859000D03*
X100942000Y-68699000D03*
X83543000Y-73271000D03*
X65885417Y-72165999D03*
X99545000Y-65706000D03*
X86464000Y-72382006D03*
X65128000Y-71874000D03*
X78590000Y-78097000D03*
D19*
X105387000Y-65000000D02*
X107037000Y-65000000D01*
X107037000Y-65000000D02*
X107061000Y-65024000D01*
D20*
X105387000Y-66060660D02*
X105387000Y-65000000D01*
X105387000Y-67975000D02*
X105387000Y-66060660D01*
X104282000Y-69080000D02*
X105387000Y-67975000D01*
D19*
X59159000Y-72001000D02*
X60683000Y-73525000D01*
X60683000Y-73525000D02*
X64366000Y-73525000D01*
X64366000Y-73525000D02*
X64620000Y-73779000D01*
X87500000Y-65798000D02*
X87226000Y-65524000D01*
X87500000Y-69000000D02*
X87500000Y-65798000D01*
D20*
X68811000Y-73779000D02*
X70462000Y-73779000D01*
X70462000Y-73779000D02*
X70970000Y-74287000D01*
X81638000Y-76065000D02*
X81638000Y-75430000D01*
X81638000Y-75430000D02*
X79987000Y-73779000D01*
X99545000Y-72763000D02*
X99545000Y-76446000D01*
X99545000Y-76446000D02*
X100053000Y-76954000D01*
X96878000Y-70985000D02*
X97767000Y-70985000D01*
X97767000Y-70985000D02*
X99545000Y-72763000D01*
D19*
X102847000Y-73862736D02*
X102847000Y-74287000D01*
X102847000Y-73779000D02*
X102847000Y-73862736D01*
X103736000Y-72890000D02*
X102847000Y-73779000D01*
X79098000Y-80002000D02*
X85956000Y-80002000D01*
X74399000Y-77589000D02*
X75923000Y-76065000D01*
X75923000Y-76065000D02*
X81638000Y-76065000D01*
X78590000Y-70223000D02*
X77320000Y-70223000D01*
X77320000Y-70223000D02*
X72113000Y-75430000D01*
X65209001Y-67764001D02*
X64112000Y-66667000D01*
X64112000Y-66667000D02*
X60683000Y-66667000D01*
X70208000Y-68064000D02*
X69908001Y-67764001D01*
X69908001Y-67764001D02*
X65209001Y-67764001D01*
X78590000Y-70223000D02*
X78590000Y-66286000D01*
X78590000Y-66286000D02*
X78082000Y-65778000D01*
X95100000Y-67937000D02*
X93449000Y-67937000D01*
X93449000Y-67937000D02*
X92052000Y-66540000D01*
X96878000Y-70985000D02*
X96878000Y-69715000D01*
X96878000Y-69715000D02*
X95100000Y-67937000D01*
X99753001Y-78559001D02*
X96497000Y-75303000D01*
X96497000Y-75303000D02*
X94846000Y-75303000D01*
X101196000Y-78859000D02*
X100896001Y-78559001D01*
X100896001Y-78559001D02*
X99753001Y-78559001D01*
D20*
X107061000Y-67564000D02*
X106211001Y-68413999D01*
X106211001Y-68413999D02*
X106211001Y-68632999D01*
X106211001Y-68632999D02*
X104244000Y-70600000D01*
X104244000Y-70600000D02*
X104244000Y-72382000D01*
X104244000Y-72382000D02*
X103736000Y-72890000D01*
X102705000Y-67437000D02*
X102204000Y-67437000D01*
X102204000Y-67437000D02*
X100942000Y-68699000D01*
D21*
X83886000Y-72509000D02*
X83886000Y-72928000D01*
X83886000Y-72928000D02*
X83543000Y-73271000D01*
X65585418Y-72465998D02*
X65885417Y-72165999D01*
X63261000Y-72509000D02*
X65542416Y-72509000D01*
X65542416Y-72509000D02*
X65585418Y-72465998D01*
D20*
X99545000Y-65706000D02*
X102548000Y-65706000D01*
X102548000Y-65706000D02*
X102628000Y-65786000D01*
X102682000Y-69080000D02*
X102682000Y-70538000D01*
X102682000Y-70538000D02*
X102744000Y-70600000D01*
X104128000Y-65786000D02*
X104128000Y-67260000D01*
X104128000Y-67260000D02*
X104305000Y-67437000D01*
D21*
X85486000Y-72509000D02*
X86337006Y-72509000D01*
X86337006Y-72509000D02*
X86464000Y-72382006D01*
X61945999Y-71574001D02*
X64828001Y-71574001D01*
X61661000Y-71859000D02*
X61945999Y-71574001D01*
X61661000Y-72509000D02*
X61661000Y-71859000D01*
X64828001Y-71574001D02*
X65128000Y-71874000D01*
D20*
X98021000Y-80002000D02*
X96243000Y-78224000D01*
X96243000Y-78224000D02*
X78717000Y-78224000D01*
X78717000Y-78224000D02*
X78590000Y-78097000D01*
X95481000Y-80002000D02*
X94339299Y-78860299D01*
X94339299Y-78860299D02*
X74187401Y-78860299D01*
X73812399Y-79235301D02*
X73050400Y-79997300D01*
X74187401Y-78860299D02*
X73812399Y-79235301D01*
D21*
G36*
X66783606Y-64520155D02*
X66783194Y-64992373D01*
X66963523Y-65428803D01*
X67297140Y-65763003D01*
X67733255Y-65944094D01*
X68205473Y-65944506D01*
X68641903Y-65764177D01*
X68976103Y-65430560D01*
X69157194Y-64994445D01*
X69157606Y-64522227D01*
X69138092Y-64475000D01*
X69342356Y-64475000D01*
X69323606Y-64520155D01*
X69323194Y-64992373D01*
X69503523Y-65428803D01*
X69837140Y-65763003D01*
X70273255Y-65944094D01*
X70745473Y-65944506D01*
X71181903Y-65764177D01*
X71516103Y-65430560D01*
X71697194Y-64994445D01*
X71697606Y-64522227D01*
X71678092Y-64475000D01*
X71882356Y-64475000D01*
X71863606Y-64520155D01*
X71863194Y-64992373D01*
X72043523Y-65428803D01*
X72377140Y-65763003D01*
X72813255Y-65944094D01*
X73285473Y-65944506D01*
X73721903Y-65764177D01*
X74056103Y-65430560D01*
X74237194Y-64994445D01*
X74237606Y-64522227D01*
X74218092Y-64475000D01*
X74422356Y-64475000D01*
X74403606Y-64520155D01*
X74403194Y-64992373D01*
X74583523Y-65428803D01*
X74917140Y-65763003D01*
X75353255Y-65944094D01*
X75825473Y-65944506D01*
X76261903Y-65764177D01*
X76596103Y-65430560D01*
X76777194Y-64994445D01*
X76777606Y-64522227D01*
X76758092Y-64475000D01*
X79375000Y-64475000D01*
X79375000Y-69500000D01*
X79384187Y-69547037D01*
X79411612Y-69588388D01*
X81411612Y-71588388D01*
X81451368Y-71615152D01*
X81500000Y-71625000D01*
X84500000Y-71625000D01*
X84547037Y-71615813D01*
X84588388Y-71588388D01*
X86588388Y-69588388D01*
X86615152Y-69548632D01*
X86625000Y-69500000D01*
X86625000Y-64475000D01*
X89234908Y-64475000D01*
X89214206Y-64524855D01*
X89213794Y-64997073D01*
X89394123Y-65433503D01*
X89727740Y-65767703D01*
X90163855Y-65948794D01*
X90636073Y-65949206D01*
X91072503Y-65768877D01*
X91406703Y-65435260D01*
X91587794Y-64999145D01*
X91588206Y-64526927D01*
X91566750Y-64475000D01*
X91774908Y-64475000D01*
X91754206Y-64524855D01*
X91753794Y-64997073D01*
X91934123Y-65433503D01*
X92267740Y-65767703D01*
X92703855Y-65948794D01*
X93176073Y-65949206D01*
X93612503Y-65768877D01*
X93946703Y-65435260D01*
X94127794Y-64999145D01*
X94128206Y-64526927D01*
X94106750Y-64475000D01*
X94314908Y-64475000D01*
X94294206Y-64524855D01*
X94293794Y-64997073D01*
X94474123Y-65433503D01*
X94807740Y-65767703D01*
X95243855Y-65948794D01*
X95716073Y-65949206D01*
X96152503Y-65768877D01*
X96486703Y-65435260D01*
X96667794Y-64999145D01*
X96668206Y-64526927D01*
X96646750Y-64475000D01*
X96854908Y-64475000D01*
X96834206Y-64524855D01*
X96833794Y-64997073D01*
X97014123Y-65433503D01*
X97347740Y-65767703D01*
X97783855Y-65948794D01*
X98256073Y-65949206D01*
X98692503Y-65768877D01*
X98820056Y-65641547D01*
X98819874Y-65849579D01*
X98930016Y-66116143D01*
X99133784Y-66320267D01*
X99400156Y-66430874D01*
X99688579Y-66431126D01*
X99955143Y-66320984D01*
X99970153Y-66306000D01*
X101957845Y-66306000D01*
X101974309Y-66393496D01*
X102067389Y-66538146D01*
X102192456Y-66623600D01*
X102064257Y-66676702D01*
X101944702Y-66796257D01*
X101880000Y-66952462D01*
X101880000Y-67305750D01*
X101986250Y-67412000D01*
X102680000Y-67412000D01*
X102680000Y-67392000D01*
X102730000Y-67392000D01*
X102730000Y-67412000D01*
X102750000Y-67412000D01*
X102750000Y-67462000D01*
X102730000Y-67462000D01*
X102730000Y-67482000D01*
X102680000Y-67482000D01*
X102680000Y-67462000D01*
X101986250Y-67462000D01*
X101880000Y-67568250D01*
X101880000Y-67921538D01*
X101944702Y-68077743D01*
X102064257Y-68197298D01*
X102214242Y-68259424D01*
X102124504Y-68276309D01*
X101979854Y-68369389D01*
X101882814Y-68511412D01*
X101848674Y-68680000D01*
X101848674Y-69480000D01*
X101878309Y-69637496D01*
X101971389Y-69782146D01*
X102082000Y-69857723D01*
X102082000Y-70044689D01*
X102060674Y-70150000D01*
X102060674Y-71050000D01*
X102090309Y-71207496D01*
X102183389Y-71352146D01*
X102325412Y-71449186D01*
X102494000Y-71483326D01*
X102994000Y-71483326D01*
X103151496Y-71453691D01*
X103296146Y-71360611D01*
X103393186Y-71218588D01*
X103427326Y-71050000D01*
X103427326Y-70731250D01*
X103569000Y-70731250D01*
X103569000Y-71134538D01*
X103633702Y-71290743D01*
X103753257Y-71410298D01*
X103909462Y-71475000D01*
X104112750Y-71475000D01*
X104219000Y-71368750D01*
X104219000Y-70625000D01*
X104269000Y-70625000D01*
X104269000Y-71368750D01*
X104375250Y-71475000D01*
X104578538Y-71475000D01*
X104734743Y-71410298D01*
X104854298Y-71290743D01*
X104919000Y-71134538D01*
X104919000Y-70731250D01*
X104812750Y-70625000D01*
X104269000Y-70625000D01*
X104219000Y-70625000D01*
X103675250Y-70625000D01*
X103569000Y-70731250D01*
X103427326Y-70731250D01*
X103427326Y-70150000D01*
X103397691Y-69992504D01*
X103304611Y-69847854D01*
X103300041Y-69844731D01*
X103384146Y-69790611D01*
X103481186Y-69648588D01*
X103482206Y-69643552D01*
X103571389Y-69782146D01*
X103683922Y-69859037D01*
X103633702Y-69909257D01*
X103569000Y-70065462D01*
X103569000Y-70468750D01*
X103675250Y-70575000D01*
X104219000Y-70575000D01*
X104219000Y-70555000D01*
X104269000Y-70555000D01*
X104269000Y-70575000D01*
X104812750Y-70575000D01*
X104919000Y-70468750D01*
X104919000Y-70065462D01*
X104854298Y-69909257D01*
X104830437Y-69885396D01*
X104839496Y-69883691D01*
X104984146Y-69790611D01*
X105081186Y-69648588D01*
X105115326Y-69480000D01*
X105115326Y-69095202D01*
X105811264Y-68399264D01*
X105941328Y-68204610D01*
X105952264Y-68149631D01*
X106015005Y-68293058D01*
X106373625Y-68637847D01*
X106836892Y-68819152D01*
X107035998Y-68732508D01*
X107035998Y-68829005D01*
X106548100Y-68926054D01*
X106134460Y-69202439D01*
X105858075Y-69616079D01*
X105761021Y-70104000D01*
X105858075Y-70591921D01*
X106134460Y-71005561D01*
X106548100Y-71281946D01*
X107010884Y-71374000D01*
X106548100Y-71466054D01*
X106134460Y-71742439D01*
X105858075Y-72156079D01*
X105761021Y-72644000D01*
X105858075Y-73131921D01*
X106134460Y-73545561D01*
X106548100Y-73821946D01*
X106814819Y-73875000D01*
X104417857Y-73875000D01*
X104419800Y-73873702D01*
X104490118Y-73679473D01*
X103736000Y-72925355D01*
X102981882Y-73679473D01*
X103052200Y-73873702D01*
X103480698Y-74060501D01*
X103757627Y-74065597D01*
X101911612Y-75911612D01*
X101884848Y-75951368D01*
X101875000Y-76000000D01*
X101875000Y-80525000D01*
X99089096Y-80525000D01*
X99207794Y-80239145D01*
X99208206Y-79766927D01*
X99027877Y-79330497D01*
X98694260Y-78996297D01*
X98258145Y-78815206D01*
X97785927Y-78814794D01*
X97712614Y-78845086D01*
X96667264Y-77799736D01*
X96472610Y-77669672D01*
X96243000Y-77624000D01*
X79142237Y-77624000D01*
X79001216Y-77482733D01*
X78734844Y-77372126D01*
X78446421Y-77371874D01*
X78179857Y-77482016D01*
X77975733Y-77685784D01*
X77865126Y-77952156D01*
X77864874Y-78240579D01*
X77873022Y-78260299D01*
X74187401Y-78260299D01*
X73957791Y-78305971D01*
X73763137Y-78436035D01*
X73358997Y-78840175D01*
X73287545Y-78810506D01*
X72815327Y-78810094D01*
X72378897Y-78990423D01*
X72044697Y-79324040D01*
X71863606Y-79760155D01*
X71863194Y-80232373D01*
X71984105Y-80525000D01*
X71576545Y-80525000D01*
X71697194Y-80234445D01*
X71697606Y-79762227D01*
X71517277Y-79325797D01*
X71183660Y-78991597D01*
X70747545Y-78810506D01*
X70275327Y-78810094D01*
X69838897Y-78990423D01*
X69504697Y-79324040D01*
X69323606Y-79760155D01*
X69323194Y-80232373D01*
X69444105Y-80525000D01*
X69157400Y-80525000D01*
X69157400Y-80128550D01*
X69051150Y-80022300D01*
X67995400Y-80022300D01*
X67995400Y-80042300D01*
X67945400Y-80042300D01*
X67945400Y-80022300D01*
X66889650Y-80022300D01*
X66783400Y-80128550D01*
X66783400Y-80525000D01*
X64125000Y-80525000D01*
X64125000Y-79150762D01*
X66783400Y-79150762D01*
X66783400Y-79866050D01*
X66889650Y-79972300D01*
X67945400Y-79972300D01*
X67945400Y-78916550D01*
X67995400Y-78916550D01*
X67995400Y-79972300D01*
X69051150Y-79972300D01*
X69157400Y-79866050D01*
X69157400Y-79150762D01*
X69092698Y-78994557D01*
X68973143Y-78875002D01*
X68816938Y-78810300D01*
X68101650Y-78810300D01*
X67995400Y-78916550D01*
X67945400Y-78916550D01*
X67839150Y-78810300D01*
X67123862Y-78810300D01*
X66967657Y-78875002D01*
X66848102Y-78994557D01*
X66783400Y-79150762D01*
X64125000Y-79150762D01*
X64125000Y-76000000D01*
X64115813Y-75952963D01*
X64088388Y-75911612D01*
X62088388Y-73911612D01*
X62048632Y-73884848D01*
X62000000Y-73875000D01*
X57475000Y-73875000D01*
X57475000Y-73414579D01*
X82817874Y-73414579D01*
X82928016Y-73681143D01*
X83131784Y-73885267D01*
X83398156Y-73995874D01*
X83686579Y-73996126D01*
X83953143Y-73885984D01*
X84157267Y-73682216D01*
X84267874Y-73415844D01*
X84267938Y-73342326D01*
X84286000Y-73342326D01*
X84443496Y-73312691D01*
X84588146Y-73219611D01*
X84685186Y-73077588D01*
X84686206Y-73072552D01*
X84775389Y-73211146D01*
X84917412Y-73308186D01*
X85086000Y-73342326D01*
X85886000Y-73342326D01*
X86043496Y-73312691D01*
X86188146Y-73219611D01*
X86277103Y-73089418D01*
X86319156Y-73106880D01*
X86607579Y-73107132D01*
X86619846Y-73102063D01*
X102556898Y-73102063D01*
X102727805Y-73537143D01*
X102752298Y-73573800D01*
X102946527Y-73644118D01*
X103700645Y-72890000D01*
X103771355Y-72890000D01*
X104525473Y-73644118D01*
X104719702Y-73573800D01*
X104906501Y-73145302D01*
X104915102Y-72677937D01*
X104744195Y-72242857D01*
X104719702Y-72206200D01*
X104525473Y-72135882D01*
X103771355Y-72890000D01*
X103700645Y-72890000D01*
X102946527Y-72135882D01*
X102752298Y-72206200D01*
X102565499Y-72634698D01*
X102556898Y-73102063D01*
X86619846Y-73102063D01*
X86874143Y-72996990D01*
X87078267Y-72793222D01*
X87188874Y-72526850D01*
X87189126Y-72238427D01*
X87132147Y-72100527D01*
X102981882Y-72100527D01*
X103736000Y-72854645D01*
X104490118Y-72100527D01*
X104419800Y-71906298D01*
X103991302Y-71719499D01*
X103523937Y-71710898D01*
X103088857Y-71881805D01*
X103052200Y-71906298D01*
X102981882Y-72100527D01*
X87132147Y-72100527D01*
X87078984Y-71971863D01*
X86875216Y-71767739D01*
X86608844Y-71657132D01*
X86320421Y-71656880D01*
X86106488Y-71745275D01*
X86054588Y-71709814D01*
X85886000Y-71675674D01*
X85086000Y-71675674D01*
X84928504Y-71705309D01*
X84783854Y-71798389D01*
X84686814Y-71940412D01*
X84685794Y-71945448D01*
X84596611Y-71806854D01*
X84454588Y-71709814D01*
X84286000Y-71675674D01*
X83486000Y-71675674D01*
X83328504Y-71705309D01*
X83183854Y-71798389D01*
X83086814Y-71940412D01*
X83052674Y-72109000D01*
X83052674Y-72736059D01*
X82928733Y-72859784D01*
X82818126Y-73126156D01*
X82817874Y-73414579D01*
X57475000Y-73414579D01*
X57475000Y-72109000D01*
X60827674Y-72109000D01*
X60827674Y-72909000D01*
X60857309Y-73066496D01*
X60950389Y-73211146D01*
X61092412Y-73308186D01*
X61261000Y-73342326D01*
X62061000Y-73342326D01*
X62218496Y-73312691D01*
X62363146Y-73219611D01*
X62460186Y-73077588D01*
X62461206Y-73072552D01*
X62550389Y-73211146D01*
X62692412Y-73308186D01*
X62861000Y-73342326D01*
X63661000Y-73342326D01*
X63818496Y-73312691D01*
X63963146Y-73219611D01*
X64060186Y-73077588D01*
X64063950Y-73059000D01*
X65542416Y-73059000D01*
X65752892Y-73017134D01*
X65931325Y-72897909D01*
X65938188Y-72891046D01*
X66028996Y-72891125D01*
X66295560Y-72780983D01*
X66499684Y-72577215D01*
X66610291Y-72310843D01*
X66610543Y-72022420D01*
X66500401Y-71755856D01*
X66296633Y-71551732D01*
X66030261Y-71441125D01*
X65741838Y-71440873D01*
X65726406Y-71447250D01*
X65539216Y-71259733D01*
X65272844Y-71149126D01*
X65162939Y-71149030D01*
X65038477Y-71065867D01*
X64828001Y-71024001D01*
X61945999Y-71024001D01*
X61735523Y-71065867D01*
X61557090Y-71185092D01*
X61557088Y-71185095D01*
X61272091Y-71470091D01*
X61152866Y-71648524D01*
X61143051Y-71697868D01*
X61103504Y-71705309D01*
X60958854Y-71798389D01*
X60861814Y-71940412D01*
X60827674Y-72109000D01*
X57475000Y-72109000D01*
X57475000Y-67046783D01*
X57675801Y-66037286D01*
X58221136Y-65221136D01*
X59037286Y-64675801D01*
X60046783Y-64475000D01*
X66802356Y-64475000D01*
X66783606Y-64520155D01*
X66783606Y-64520155D01*
G37*
X66783606Y-64520155D02*
X66783194Y-64992373D01*
X66963523Y-65428803D01*
X67297140Y-65763003D01*
X67733255Y-65944094D01*
X68205473Y-65944506D01*
X68641903Y-65764177D01*
X68976103Y-65430560D01*
X69157194Y-64994445D01*
X69157606Y-64522227D01*
X69138092Y-64475000D01*
X69342356Y-64475000D01*
X69323606Y-64520155D01*
X69323194Y-64992373D01*
X69503523Y-65428803D01*
X69837140Y-65763003D01*
X70273255Y-65944094D01*
X70745473Y-65944506D01*
X71181903Y-65764177D01*
X71516103Y-65430560D01*
X71697194Y-64994445D01*
X71697606Y-64522227D01*
X71678092Y-64475000D01*
X71882356Y-64475000D01*
X71863606Y-64520155D01*
X71863194Y-64992373D01*
X72043523Y-65428803D01*
X72377140Y-65763003D01*
X72813255Y-65944094D01*
X73285473Y-65944506D01*
X73721903Y-65764177D01*
X74056103Y-65430560D01*
X74237194Y-64994445D01*
X74237606Y-64522227D01*
X74218092Y-64475000D01*
X74422356Y-64475000D01*
X74403606Y-64520155D01*
X74403194Y-64992373D01*
X74583523Y-65428803D01*
X74917140Y-65763003D01*
X75353255Y-65944094D01*
X75825473Y-65944506D01*
X76261903Y-65764177D01*
X76596103Y-65430560D01*
X76777194Y-64994445D01*
X76777606Y-64522227D01*
X76758092Y-64475000D01*
X79375000Y-64475000D01*
X79375000Y-69500000D01*
X79384187Y-69547037D01*
X79411612Y-69588388D01*
X81411612Y-71588388D01*
X81451368Y-71615152D01*
X81500000Y-71625000D01*
X84500000Y-71625000D01*
X84547037Y-71615813D01*
X84588388Y-71588388D01*
X86588388Y-69588388D01*
X86615152Y-69548632D01*
X86625000Y-69500000D01*
X86625000Y-64475000D01*
X89234908Y-64475000D01*
X89214206Y-64524855D01*
X89213794Y-64997073D01*
X89394123Y-65433503D01*
X89727740Y-65767703D01*
X90163855Y-65948794D01*
X90636073Y-65949206D01*
X91072503Y-65768877D01*
X91406703Y-65435260D01*
X91587794Y-64999145D01*
X91588206Y-64526927D01*
X91566750Y-64475000D01*
X91774908Y-64475000D01*
X91754206Y-64524855D01*
X91753794Y-64997073D01*
X91934123Y-65433503D01*
X92267740Y-65767703D01*
X92703855Y-65948794D01*
X93176073Y-65949206D01*
X93612503Y-65768877D01*
X93946703Y-65435260D01*
X94127794Y-64999145D01*
X94128206Y-64526927D01*
X94106750Y-64475000D01*
X94314908Y-64475000D01*
X94294206Y-64524855D01*
X94293794Y-64997073D01*
X94474123Y-65433503D01*
X94807740Y-65767703D01*
X95243855Y-65948794D01*
X95716073Y-65949206D01*
X96152503Y-65768877D01*
X96486703Y-65435260D01*
X96667794Y-64999145D01*
X96668206Y-64526927D01*
X96646750Y-64475000D01*
X96854908Y-64475000D01*
X96834206Y-64524855D01*
X96833794Y-64997073D01*
X97014123Y-65433503D01*
X97347740Y-65767703D01*
X97783855Y-65948794D01*
X98256073Y-65949206D01*
X98692503Y-65768877D01*
X98820056Y-65641547D01*
X98819874Y-65849579D01*
X98930016Y-66116143D01*
X99133784Y-66320267D01*
X99400156Y-66430874D01*
X99688579Y-66431126D01*
X99955143Y-66320984D01*
X99970153Y-66306000D01*
X101957845Y-66306000D01*
X101974309Y-66393496D01*
X102067389Y-66538146D01*
X102192456Y-66623600D01*
X102064257Y-66676702D01*
X101944702Y-66796257D01*
X101880000Y-66952462D01*
X101880000Y-67305750D01*
X101986250Y-67412000D01*
X102680000Y-67412000D01*
X102680000Y-67392000D01*
X102730000Y-67392000D01*
X102730000Y-67412000D01*
X102750000Y-67412000D01*
X102750000Y-67462000D01*
X102730000Y-67462000D01*
X102730000Y-67482000D01*
X102680000Y-67482000D01*
X102680000Y-67462000D01*
X101986250Y-67462000D01*
X101880000Y-67568250D01*
X101880000Y-67921538D01*
X101944702Y-68077743D01*
X102064257Y-68197298D01*
X102214242Y-68259424D01*
X102124504Y-68276309D01*
X101979854Y-68369389D01*
X101882814Y-68511412D01*
X101848674Y-68680000D01*
X101848674Y-69480000D01*
X101878309Y-69637496D01*
X101971389Y-69782146D01*
X102082000Y-69857723D01*
X102082000Y-70044689D01*
X102060674Y-70150000D01*
X102060674Y-71050000D01*
X102090309Y-71207496D01*
X102183389Y-71352146D01*
X102325412Y-71449186D01*
X102494000Y-71483326D01*
X102994000Y-71483326D01*
X103151496Y-71453691D01*
X103296146Y-71360611D01*
X103393186Y-71218588D01*
X103427326Y-71050000D01*
X103427326Y-70731250D01*
X103569000Y-70731250D01*
X103569000Y-71134538D01*
X103633702Y-71290743D01*
X103753257Y-71410298D01*
X103909462Y-71475000D01*
X104112750Y-71475000D01*
X104219000Y-71368750D01*
X104219000Y-70625000D01*
X104269000Y-70625000D01*
X104269000Y-71368750D01*
X104375250Y-71475000D01*
X104578538Y-71475000D01*
X104734743Y-71410298D01*
X104854298Y-71290743D01*
X104919000Y-71134538D01*
X104919000Y-70731250D01*
X104812750Y-70625000D01*
X104269000Y-70625000D01*
X104219000Y-70625000D01*
X103675250Y-70625000D01*
X103569000Y-70731250D01*
X103427326Y-70731250D01*
X103427326Y-70150000D01*
X103397691Y-69992504D01*
X103304611Y-69847854D01*
X103300041Y-69844731D01*
X103384146Y-69790611D01*
X103481186Y-69648588D01*
X103482206Y-69643552D01*
X103571389Y-69782146D01*
X103683922Y-69859037D01*
X103633702Y-69909257D01*
X103569000Y-70065462D01*
X103569000Y-70468750D01*
X103675250Y-70575000D01*
X104219000Y-70575000D01*
X104219000Y-70555000D01*
X104269000Y-70555000D01*
X104269000Y-70575000D01*
X104812750Y-70575000D01*
X104919000Y-70468750D01*
X104919000Y-70065462D01*
X104854298Y-69909257D01*
X104830437Y-69885396D01*
X104839496Y-69883691D01*
X104984146Y-69790611D01*
X105081186Y-69648588D01*
X105115326Y-69480000D01*
X105115326Y-69095202D01*
X105811264Y-68399264D01*
X105941328Y-68204610D01*
X105952264Y-68149631D01*
X106015005Y-68293058D01*
X106373625Y-68637847D01*
X106836892Y-68819152D01*
X107035998Y-68732508D01*
X107035998Y-68829005D01*
X106548100Y-68926054D01*
X106134460Y-69202439D01*
X105858075Y-69616079D01*
X105761021Y-70104000D01*
X105858075Y-70591921D01*
X106134460Y-71005561D01*
X106548100Y-71281946D01*
X107010884Y-71374000D01*
X106548100Y-71466054D01*
X106134460Y-71742439D01*
X105858075Y-72156079D01*
X105761021Y-72644000D01*
X105858075Y-73131921D01*
X106134460Y-73545561D01*
X106548100Y-73821946D01*
X106814819Y-73875000D01*
X104417857Y-73875000D01*
X104419800Y-73873702D01*
X104490118Y-73679473D01*
X103736000Y-72925355D01*
X102981882Y-73679473D01*
X103052200Y-73873702D01*
X103480698Y-74060501D01*
X103757627Y-74065597D01*
X101911612Y-75911612D01*
X101884848Y-75951368D01*
X101875000Y-76000000D01*
X101875000Y-80525000D01*
X99089096Y-80525000D01*
X99207794Y-80239145D01*
X99208206Y-79766927D01*
X99027877Y-79330497D01*
X98694260Y-78996297D01*
X98258145Y-78815206D01*
X97785927Y-78814794D01*
X97712614Y-78845086D01*
X96667264Y-77799736D01*
X96472610Y-77669672D01*
X96243000Y-77624000D01*
X79142237Y-77624000D01*
X79001216Y-77482733D01*
X78734844Y-77372126D01*
X78446421Y-77371874D01*
X78179857Y-77482016D01*
X77975733Y-77685784D01*
X77865126Y-77952156D01*
X77864874Y-78240579D01*
X77873022Y-78260299D01*
X74187401Y-78260299D01*
X73957791Y-78305971D01*
X73763137Y-78436035D01*
X73358997Y-78840175D01*
X73287545Y-78810506D01*
X72815327Y-78810094D01*
X72378897Y-78990423D01*
X72044697Y-79324040D01*
X71863606Y-79760155D01*
X71863194Y-80232373D01*
X71984105Y-80525000D01*
X71576545Y-80525000D01*
X71697194Y-80234445D01*
X71697606Y-79762227D01*
X71517277Y-79325797D01*
X71183660Y-78991597D01*
X70747545Y-78810506D01*
X70275327Y-78810094D01*
X69838897Y-78990423D01*
X69504697Y-79324040D01*
X69323606Y-79760155D01*
X69323194Y-80232373D01*
X69444105Y-80525000D01*
X69157400Y-80525000D01*
X69157400Y-80128550D01*
X69051150Y-80022300D01*
X67995400Y-80022300D01*
X67995400Y-80042300D01*
X67945400Y-80042300D01*
X67945400Y-80022300D01*
X66889650Y-80022300D01*
X66783400Y-80128550D01*
X66783400Y-80525000D01*
X64125000Y-80525000D01*
X64125000Y-79150762D01*
X66783400Y-79150762D01*
X66783400Y-79866050D01*
X66889650Y-79972300D01*
X67945400Y-79972300D01*
X67945400Y-78916550D01*
X67995400Y-78916550D01*
X67995400Y-79972300D01*
X69051150Y-79972300D01*
X69157400Y-79866050D01*
X69157400Y-79150762D01*
X69092698Y-78994557D01*
X68973143Y-78875002D01*
X68816938Y-78810300D01*
X68101650Y-78810300D01*
X67995400Y-78916550D01*
X67945400Y-78916550D01*
X67839150Y-78810300D01*
X67123862Y-78810300D01*
X66967657Y-78875002D01*
X66848102Y-78994557D01*
X66783400Y-79150762D01*
X64125000Y-79150762D01*
X64125000Y-76000000D01*
X64115813Y-75952963D01*
X64088388Y-75911612D01*
X62088388Y-73911612D01*
X62048632Y-73884848D01*
X62000000Y-73875000D01*
X57475000Y-73875000D01*
X57475000Y-73414579D01*
X82817874Y-73414579D01*
X82928016Y-73681143D01*
X83131784Y-73885267D01*
X83398156Y-73995874D01*
X83686579Y-73996126D01*
X83953143Y-73885984D01*
X84157267Y-73682216D01*
X84267874Y-73415844D01*
X84267938Y-73342326D01*
X84286000Y-73342326D01*
X84443496Y-73312691D01*
X84588146Y-73219611D01*
X84685186Y-73077588D01*
X84686206Y-73072552D01*
X84775389Y-73211146D01*
X84917412Y-73308186D01*
X85086000Y-73342326D01*
X85886000Y-73342326D01*
X86043496Y-73312691D01*
X86188146Y-73219611D01*
X86277103Y-73089418D01*
X86319156Y-73106880D01*
X86607579Y-73107132D01*
X86619846Y-73102063D01*
X102556898Y-73102063D01*
X102727805Y-73537143D01*
X102752298Y-73573800D01*
X102946527Y-73644118D01*
X103700645Y-72890000D01*
X103771355Y-72890000D01*
X104525473Y-73644118D01*
X104719702Y-73573800D01*
X104906501Y-73145302D01*
X104915102Y-72677937D01*
X104744195Y-72242857D01*
X104719702Y-72206200D01*
X104525473Y-72135882D01*
X103771355Y-72890000D01*
X103700645Y-72890000D01*
X102946527Y-72135882D01*
X102752298Y-72206200D01*
X102565499Y-72634698D01*
X102556898Y-73102063D01*
X86619846Y-73102063D01*
X86874143Y-72996990D01*
X87078267Y-72793222D01*
X87188874Y-72526850D01*
X87189126Y-72238427D01*
X87132147Y-72100527D01*
X102981882Y-72100527D01*
X103736000Y-72854645D01*
X104490118Y-72100527D01*
X104419800Y-71906298D01*
X103991302Y-71719499D01*
X103523937Y-71710898D01*
X103088857Y-71881805D01*
X103052200Y-71906298D01*
X102981882Y-72100527D01*
X87132147Y-72100527D01*
X87078984Y-71971863D01*
X86875216Y-71767739D01*
X86608844Y-71657132D01*
X86320421Y-71656880D01*
X86106488Y-71745275D01*
X86054588Y-71709814D01*
X85886000Y-71675674D01*
X85086000Y-71675674D01*
X84928504Y-71705309D01*
X84783854Y-71798389D01*
X84686814Y-71940412D01*
X84685794Y-71945448D01*
X84596611Y-71806854D01*
X84454588Y-71709814D01*
X84286000Y-71675674D01*
X83486000Y-71675674D01*
X83328504Y-71705309D01*
X83183854Y-71798389D01*
X83086814Y-71940412D01*
X83052674Y-72109000D01*
X83052674Y-72736059D01*
X82928733Y-72859784D01*
X82818126Y-73126156D01*
X82817874Y-73414579D01*
X57475000Y-73414579D01*
X57475000Y-72109000D01*
X60827674Y-72109000D01*
X60827674Y-72909000D01*
X60857309Y-73066496D01*
X60950389Y-73211146D01*
X61092412Y-73308186D01*
X61261000Y-73342326D01*
X62061000Y-73342326D01*
X62218496Y-73312691D01*
X62363146Y-73219611D01*
X62460186Y-73077588D01*
X62461206Y-73072552D01*
X62550389Y-73211146D01*
X62692412Y-73308186D01*
X62861000Y-73342326D01*
X63661000Y-73342326D01*
X63818496Y-73312691D01*
X63963146Y-73219611D01*
X64060186Y-73077588D01*
X64063950Y-73059000D01*
X65542416Y-73059000D01*
X65752892Y-73017134D01*
X65931325Y-72897909D01*
X65938188Y-72891046D01*
X66028996Y-72891125D01*
X66295560Y-72780983D01*
X66499684Y-72577215D01*
X66610291Y-72310843D01*
X66610543Y-72022420D01*
X66500401Y-71755856D01*
X66296633Y-71551732D01*
X66030261Y-71441125D01*
X65741838Y-71440873D01*
X65726406Y-71447250D01*
X65539216Y-71259733D01*
X65272844Y-71149126D01*
X65162939Y-71149030D01*
X65038477Y-71065867D01*
X64828001Y-71024001D01*
X61945999Y-71024001D01*
X61735523Y-71065867D01*
X61557090Y-71185092D01*
X61557088Y-71185095D01*
X61272091Y-71470091D01*
X61152866Y-71648524D01*
X61143051Y-71697868D01*
X61103504Y-71705309D01*
X60958854Y-71798389D01*
X60861814Y-71940412D01*
X60827674Y-72109000D01*
X57475000Y-72109000D01*
X57475000Y-67046783D01*
X57675801Y-66037286D01*
X58221136Y-65221136D01*
X59037286Y-64675801D01*
X60046783Y-64475000D01*
X66802356Y-64475000D01*
X66783606Y-64520155D01*
G36*
X89214000Y-79870750D02*
X89320250Y-79977000D01*
X90376000Y-79977000D01*
X90376000Y-79957000D01*
X90426000Y-79957000D01*
X90426000Y-79977000D01*
X91481750Y-79977000D01*
X91588000Y-79870750D01*
X91588000Y-79460299D01*
X91880669Y-79460299D01*
X91754206Y-79764855D01*
X91753794Y-80237073D01*
X91872763Y-80525000D01*
X91588000Y-80525000D01*
X91588000Y-80133250D01*
X91481750Y-80027000D01*
X90426000Y-80027000D01*
X90426000Y-80047000D01*
X90376000Y-80047000D01*
X90376000Y-80027000D01*
X89320250Y-80027000D01*
X89214000Y-80133250D01*
X89214000Y-80525000D01*
X76656545Y-80525000D01*
X76777194Y-80234445D01*
X76777606Y-79762227D01*
X76652852Y-79460299D01*
X89214000Y-79460299D01*
X89214000Y-79870750D01*
X89214000Y-79870750D01*
G37*
X89214000Y-79870750D02*
X89320250Y-79977000D01*
X90376000Y-79977000D01*
X90376000Y-79957000D01*
X90426000Y-79957000D01*
X90426000Y-79977000D01*
X91481750Y-79977000D01*
X91588000Y-79870750D01*
X91588000Y-79460299D01*
X91880669Y-79460299D01*
X91754206Y-79764855D01*
X91753794Y-80237073D01*
X91872763Y-80525000D01*
X91588000Y-80525000D01*
X91588000Y-80133250D01*
X91481750Y-80027000D01*
X90426000Y-80027000D01*
X90426000Y-80047000D01*
X90376000Y-80047000D01*
X90376000Y-80027000D01*
X89320250Y-80027000D01*
X89214000Y-80133250D01*
X89214000Y-80525000D01*
X76656545Y-80525000D01*
X76777194Y-80234445D01*
X76777606Y-79762227D01*
X76652852Y-79460299D01*
X89214000Y-79460299D01*
X89214000Y-79870750D01*
G36*
X108364651Y-64635349D02*
X108476440Y-64802652D01*
X108525000Y-65046782D01*
X108525000Y-73875000D01*
X107307181Y-73875000D01*
X107573900Y-73821946D01*
X107987540Y-73545561D01*
X108263925Y-73131921D01*
X108360979Y-72644000D01*
X108263925Y-72156079D01*
X107987540Y-71742439D01*
X107573900Y-71466054D01*
X107111116Y-71374000D01*
X107573900Y-71281946D01*
X107987540Y-71005561D01*
X108263925Y-70591921D01*
X108360979Y-70104000D01*
X108263925Y-69616079D01*
X107987540Y-69202439D01*
X107573900Y-68926054D01*
X107086002Y-68829005D01*
X107086002Y-68732508D01*
X107285108Y-68819152D01*
X107748375Y-68637847D01*
X108106995Y-68293058D01*
X108306372Y-67837277D01*
X108316150Y-67788108D01*
X108229483Y-67589000D01*
X107086000Y-67589000D01*
X107086000Y-67609000D01*
X107036000Y-67609000D01*
X107036000Y-67589000D01*
X107016000Y-67589000D01*
X107016000Y-67539000D01*
X107036000Y-67539000D01*
X107036000Y-67519000D01*
X107086000Y-67519000D01*
X107086000Y-67539000D01*
X108229483Y-67539000D01*
X108316150Y-67339892D01*
X108306372Y-67290723D01*
X108106995Y-66834942D01*
X107748375Y-66490153D01*
X107285108Y-66308848D01*
X107086002Y-66395492D01*
X107086002Y-66307326D01*
X107911000Y-66307326D01*
X108068496Y-66277691D01*
X108213146Y-66184611D01*
X108310186Y-66042588D01*
X108344326Y-65874000D01*
X108344326Y-64621768D01*
X108364651Y-64635349D01*
X108364651Y-64635349D01*
G37*
X108364651Y-64635349D02*
X108476440Y-64802652D01*
X108525000Y-65046782D01*
X108525000Y-73875000D01*
X107307181Y-73875000D01*
X107573900Y-73821946D01*
X107987540Y-73545561D01*
X108263925Y-73131921D01*
X108360979Y-72644000D01*
X108263925Y-72156079D01*
X107987540Y-71742439D01*
X107573900Y-71466054D01*
X107111116Y-71374000D01*
X107573900Y-71281946D01*
X107987540Y-71005561D01*
X108263925Y-70591921D01*
X108360979Y-70104000D01*
X108263925Y-69616079D01*
X107987540Y-69202439D01*
X107573900Y-68926054D01*
X107086002Y-68829005D01*
X107086002Y-68732508D01*
X107285108Y-68819152D01*
X107748375Y-68637847D01*
X108106995Y-68293058D01*
X108306372Y-67837277D01*
X108316150Y-67788108D01*
X108229483Y-67589000D01*
X107086000Y-67589000D01*
X107086000Y-67609000D01*
X107036000Y-67609000D01*
X107036000Y-67589000D01*
X107016000Y-67589000D01*
X107016000Y-67539000D01*
X107036000Y-67539000D01*
X107036000Y-67519000D01*
X107086000Y-67519000D01*
X107086000Y-67539000D01*
X108229483Y-67539000D01*
X108316150Y-67339892D01*
X108306372Y-67290723D01*
X108106995Y-66834942D01*
X107748375Y-66490153D01*
X107285108Y-66308848D01*
X107086002Y-66395492D01*
X107086002Y-66307326D01*
X107911000Y-66307326D01*
X108068496Y-66277691D01*
X108213146Y-66184611D01*
X108310186Y-66042588D01*
X108344326Y-65874000D01*
X108344326Y-64621768D01*
X108364651Y-64635349D01*
M02*
