G04 #@! TF.FileFunction,Soldermask,Bot*
%FSLAX46Y46*%
G04 Gerber Fmt 4.6, Leading zero omitted, Abs format (unit mm)*
G04 Created by KiCad (PCBNEW 4.0.6) date Mon Jan  8 18:00:33 2018*
%MOMM*%
%LPD*%
G01*
G04 APERTURE LIST*
%ADD10C,0.100000*%
%ADD11C,3.200000*%
%ADD12R,1.250000X1.000000*%
%ADD13R,1.600000X1.000000*%
%ADD14R,0.800000X0.750000*%
%ADD15R,0.750000X0.800000*%
%ADD16R,1.000000X1.250000*%
%ADD17R,1.700000X1.700000*%
%ADD18O,1.700000X1.700000*%
%ADD19R,0.500000X0.900000*%
%ADD20R,0.900000X0.500000*%
%ADD21C,1.500000*%
%ADD22R,1.060000X0.650000*%
%ADD23R,0.650000X1.060000*%
%ADD24R,1.524000X1.524000*%
%ADD25C,1.524000*%
G04 APERTURE END LIST*
D10*
D11*
X60500000Y-77500000D03*
X83000000Y-68000000D03*
D12*
X104902000Y-65421000D03*
X104902000Y-67421000D03*
D13*
X98679000Y-66572000D03*
X98679000Y-69572000D03*
D14*
X92087000Y-70993000D03*
X93587000Y-70993000D03*
X92305000Y-78359000D03*
X90805000Y-78359000D03*
D15*
X71478000Y-71759000D03*
X71478000Y-73259000D03*
D14*
X69965000Y-78359000D03*
X68465000Y-78359000D03*
D16*
X92551000Y-76708000D03*
X90551000Y-76708000D03*
X70199000Y-76708000D03*
X68199000Y-76708000D03*
D17*
X107061000Y-65024000D03*
D18*
X107061000Y-67564000D03*
X107061000Y-70104000D03*
X107061000Y-72644000D03*
D19*
X105398000Y-72644000D03*
X103898000Y-72644000D03*
X105398000Y-70104000D03*
X103898000Y-70104000D03*
D20*
X88392000Y-76569000D03*
X88392000Y-75069000D03*
D19*
X91302000Y-69715000D03*
X92802000Y-69715000D03*
D20*
X65890000Y-76688000D03*
X65890000Y-75188000D03*
X73002000Y-70997000D03*
X73002000Y-72497000D03*
D21*
X96520000Y-66548000D03*
D22*
X102911000Y-65410000D03*
X102911000Y-66360000D03*
X102911000Y-67310000D03*
X100711000Y-67310000D03*
X100711000Y-65410000D03*
D23*
X92075000Y-74887000D03*
X91125000Y-74887000D03*
X90175000Y-74887000D03*
X90175000Y-72687000D03*
X92075000Y-72687000D03*
X91125000Y-72687000D03*
D24*
X90401000Y-80002000D03*
D25*
X92941000Y-80002000D03*
X95481000Y-80002000D03*
X98021000Y-80002000D03*
X98021000Y-64762000D03*
X95481000Y-64762000D03*
X92941000Y-64762000D03*
X90401000Y-64762000D03*
D23*
X69718000Y-74803000D03*
X68768000Y-74803000D03*
X67818000Y-74803000D03*
X67818000Y-72603000D03*
X69718000Y-72603000D03*
X68768000Y-72603000D03*
D24*
X67970400Y-79997300D03*
D25*
X70510400Y-79997300D03*
X73050400Y-79997300D03*
X75590400Y-79997300D03*
X75590400Y-64757300D03*
X73050400Y-64757300D03*
X70510400Y-64757300D03*
X67970400Y-64757300D03*
D11*
X105500000Y-77500000D03*
M02*
