M48
;DRILL file {KiCad 4.0.6} date Fri Jul 21 09:42:06 2017
;FORMAT={-:-/ absolute / inch / decimal}
FMAT,2
INCH,TZ
T1C0.016
T2C0.040
%
G90
G05
M72
T1
X2.4114Y-1.6963
X2.4114Y-1.7258
X2.4114Y-1.7553
X2.4114Y-1.7848
X2.4114Y-1.8144
X2.4114Y-1.8439
X2.4114Y-1.8734
X2.4114Y-1.903
X2.4114Y-1.9325
X2.4114Y-1.962
X2.4114Y-1.9915
X2.4311Y-2.0801
X2.4409Y-1.6963
X2.4508Y-2.0506
X2.4606Y-2.0801
X2.4705Y-1.6963
X2.4705Y-1.7848
X2.4705Y-1.8144
X2.4705Y-1.8439
X2.4705Y-1.9226
X2.4705Y-1.9522
X2.4705Y-1.9817
X2.4705Y-2.0112
X2.4803Y-2.0506
X2.4902Y-2.0801
X2.5Y-1.6963
X2.5098Y-2.0506
X2.5197Y-2.0801
X2.5295Y-1.6963
X2.5394Y-2.0506
X2.5492Y-2.0801
X2.5591Y-1.6963
X2.5787Y-2.0801
X2.5827Y-2.0535
X2.6083Y-2.0801
X2.6378Y-2.0801
X2.6575Y-2.0506
X2.6673Y-2.0801
X2.687Y-2.0506
X2.6962Y-2.0795
X2.7067Y-1.7553
X2.7067Y-1.7848
X2.7067Y-1.8144
X2.7067Y-1.8439
X2.7067Y-1.9226
X2.7067Y-1.9522
X2.7067Y-1.9817
X2.7067Y-2.0112
X2.7165Y-2.0506
X2.7953Y-1.7455
X2.8051Y-2.0112
X2.8051Y-2.0506
X2.8051Y-2.0801
X2.8248Y-1.7455
X2.8346Y-2.0112
X2.8346Y-2.0506
X2.8346Y-2.0801
X2.8543Y-1.7455
X2.8642Y-2.0112
X2.8642Y-2.0506
X2.8642Y-2.0801
X2.8839Y-1.7455
X2.8937Y-2.0112
X2.8937Y-2.0506
X2.8937Y-2.0801
X2.9232Y-2.0506
X2.9232Y-2.0801
X2.9528Y-2.0506
X2.9528Y-2.0801
X2.9724Y-1.7455
X2.9823Y-2.0112
X2.9823Y-2.0506
X2.9823Y-2.0801
X3.002Y-1.7455
X3.0118Y-2.0112
X3.0118Y-2.0506
X3.0118Y-2.0801
X3.0315Y-1.7455
X3.0413Y-2.0112
X3.0413Y-2.0506
X3.0413Y-2.0801
X3.061Y-1.7455
X3.0709Y-2.0112
X3.0709Y-2.0506
X3.0709Y-2.0801
T2
X2.2031Y-2.0407
X2.3031Y-2.0407
X3.1874Y-1.7652
X3.2874Y-1.7652
T0
M30
