G04 #@! TF.FileFunction,Copper,L2,Bot,Signal*
%FSLAX46Y46*%
G04 Gerber Fmt 4.6, Leading zero omitted, Abs format (unit mm)*
G04 Created by KiCad (PCBNEW 4.0.6) date Fri Jul 21 09:34:55 2017*
%MOMM*%
%LPD*%
G01*
G04 APERTURE LIST*
%ADD10C,0.100000*%
%ADD11R,2.032000X2.032000*%
%ADD12O,2.032000X2.032000*%
%ADD13C,0.600000*%
%ADD14C,0.600000*%
%ADD15C,0.254000*%
G04 APERTURE END LIST*
D10*
D11*
X83500000Y-44835000D03*
D12*
X80960000Y-44835000D03*
D11*
X58500000Y-51835000D03*
D12*
X55960000Y-51835000D03*
D13*
X65599998Y-52160000D03*
X64500000Y-52085000D03*
X63750000Y-52085000D03*
X63000000Y-52085000D03*
X62250000Y-52085000D03*
X61750000Y-52835000D03*
X62500000Y-52835000D03*
X63250000Y-52835000D03*
X64000000Y-52835000D03*
X64750000Y-52835000D03*
X65500000Y-52835000D03*
X66250000Y-52835000D03*
X67000000Y-52835000D03*
X67750000Y-52835000D03*
X68484314Y-52819314D03*
X69000000Y-52085000D03*
X68250000Y-52085000D03*
X67500000Y-52085000D03*
X61250000Y-50585000D03*
X61250000Y-49835000D03*
X61250000Y-49085000D03*
X61250000Y-48335000D03*
X61250000Y-47585000D03*
X61250000Y-46835000D03*
X61250000Y-46085000D03*
X61250000Y-45335000D03*
X65000000Y-43085000D03*
X64250000Y-43085000D03*
X63500000Y-43085000D03*
X62750000Y-43085000D03*
X62000000Y-43085000D03*
X61250000Y-43085000D03*
X61250000Y-43835000D03*
X61250000Y-44585000D03*
X62750000Y-46085000D03*
X62750000Y-45335000D03*
X62750000Y-46835000D03*
X62750000Y-48835000D03*
X62750000Y-49585000D03*
X62750000Y-50335000D03*
X62750000Y-51085000D03*
X68750000Y-51085000D03*
X68750000Y-50335000D03*
X68750000Y-49585000D03*
X68750000Y-48835000D03*
X68750000Y-46835000D03*
X68750000Y-46085000D03*
X68750000Y-44585000D03*
X68750000Y-45335000D03*
X75750000Y-52835000D03*
X71250000Y-52835000D03*
X72000000Y-52835000D03*
X72750000Y-52835000D03*
X73500000Y-52835000D03*
X74250000Y-52835000D03*
X75000000Y-52835000D03*
X76500000Y-52835000D03*
X77250000Y-52835000D03*
X78000000Y-52835000D03*
X78000000Y-52085000D03*
X77250000Y-52085000D03*
X76500000Y-52085000D03*
X75750000Y-52085000D03*
X75000000Y-52085000D03*
X74250000Y-52085000D03*
X73500000Y-52085000D03*
X72750000Y-52085000D03*
X72000000Y-52085000D03*
X71250000Y-52085000D03*
X71000000Y-44335000D03*
X71750000Y-44335000D03*
X73250000Y-44335000D03*
X72500000Y-44335000D03*
X78000000Y-51085000D03*
X77250000Y-51085000D03*
X76500000Y-51085000D03*
X75750000Y-51085000D03*
X73500000Y-51085000D03*
X72750000Y-51085000D03*
X72000000Y-51085000D03*
X71250000Y-51085000D03*
X77750000Y-44335000D03*
X77000000Y-44335000D03*
X76250000Y-44335000D03*
X75500000Y-44335000D03*
D14*
X64500000Y-52085000D02*
X65524998Y-52085000D01*
X65524998Y-52085000D02*
X65599998Y-52160000D01*
X63000000Y-52085000D02*
X63750000Y-52085000D01*
X61750000Y-52835000D02*
X61750000Y-52585000D01*
X61750000Y-52585000D02*
X62250000Y-52085000D01*
X63250000Y-52835000D02*
X62500000Y-52835000D01*
X64750000Y-52835000D02*
X64000000Y-52835000D01*
X66250000Y-52835000D02*
X65500000Y-52835000D01*
X67750000Y-52835000D02*
X67000000Y-52835000D01*
X69000000Y-52085000D02*
X69000000Y-52303628D01*
X69000000Y-52303628D02*
X68484314Y-52819314D01*
X67500000Y-52085000D02*
X68250000Y-52085000D01*
X61250000Y-49085000D02*
X61250000Y-49835000D01*
X61250000Y-47585000D02*
X61250000Y-48335000D01*
X61250000Y-46085000D02*
X61250000Y-46835000D01*
X61250000Y-44585000D02*
X61250000Y-45335000D01*
X63500000Y-43085000D02*
X64250000Y-43085000D01*
X62000000Y-43085000D02*
X62750000Y-43085000D01*
X61250000Y-43835000D02*
X61250000Y-43085000D01*
X75000000Y-52835000D02*
X75750000Y-52835000D01*
X72750000Y-52835000D02*
X72000000Y-52835000D01*
X74250000Y-52835000D02*
X73500000Y-52835000D01*
X76500000Y-52835000D02*
X75750000Y-52835000D01*
X78000000Y-52835000D02*
X77250000Y-52835000D01*
X77250000Y-52085000D02*
X78000000Y-52085000D01*
X75750000Y-52085000D02*
X76500000Y-52085000D01*
X74250000Y-52085000D02*
X75000000Y-52085000D01*
X72750000Y-52085000D02*
X73500000Y-52085000D01*
X71250000Y-52085000D02*
X72000000Y-52085000D01*
D15*
G36*
X69373000Y-54125000D02*
X53210000Y-54125000D01*
X53210000Y-51802655D01*
X54309000Y-51802655D01*
X54309000Y-51867345D01*
X54434675Y-52499155D01*
X54792567Y-53034778D01*
X55328190Y-53392670D01*
X55960000Y-53518345D01*
X56591810Y-53392670D01*
X57127433Y-53034778D01*
X57485325Y-52499155D01*
X57611000Y-51867345D01*
X57611000Y-51802655D01*
X57485325Y-51170845D01*
X57127433Y-50635222D01*
X56591810Y-50277330D01*
X55960000Y-50151655D01*
X55328190Y-50277330D01*
X54792567Y-50635222D01*
X54434675Y-51170845D01*
X54309000Y-51802655D01*
X53210000Y-51802655D01*
X53210000Y-48724606D01*
X54410197Y-49924803D01*
X54450590Y-49951994D01*
X54500000Y-49962000D01*
X58500000Y-49962000D01*
X58547789Y-49952666D01*
X58589803Y-49924803D01*
X60589803Y-47924803D01*
X60616994Y-47884410D01*
X60627000Y-47835000D01*
X60627000Y-43835000D01*
X60617666Y-43787211D01*
X60589803Y-43745197D01*
X59389606Y-42545000D01*
X69373000Y-42545000D01*
X69373000Y-54125000D01*
X69373000Y-54125000D01*
G37*
X69373000Y-54125000D02*
X53210000Y-54125000D01*
X53210000Y-51802655D01*
X54309000Y-51802655D01*
X54309000Y-51867345D01*
X54434675Y-52499155D01*
X54792567Y-53034778D01*
X55328190Y-53392670D01*
X55960000Y-53518345D01*
X56591810Y-53392670D01*
X57127433Y-53034778D01*
X57485325Y-52499155D01*
X57611000Y-51867345D01*
X57611000Y-51802655D01*
X57485325Y-51170845D01*
X57127433Y-50635222D01*
X56591810Y-50277330D01*
X55960000Y-50151655D01*
X55328190Y-50277330D01*
X54792567Y-50635222D01*
X54434675Y-51170845D01*
X54309000Y-51802655D01*
X53210000Y-51802655D01*
X53210000Y-48724606D01*
X54410197Y-49924803D01*
X54450590Y-49951994D01*
X54500000Y-49962000D01*
X58500000Y-49962000D01*
X58547789Y-49952666D01*
X58589803Y-49924803D01*
X60589803Y-47924803D01*
X60616994Y-47884410D01*
X60627000Y-47835000D01*
X60627000Y-43835000D01*
X60617666Y-43787211D01*
X60589803Y-43745197D01*
X59389606Y-42545000D01*
X69373000Y-42545000D01*
X69373000Y-54125000D01*
G36*
X85790000Y-47945394D02*
X84589803Y-46745197D01*
X84549410Y-46718006D01*
X84500000Y-46708000D01*
X80500000Y-46708000D01*
X80452211Y-46717334D01*
X80410197Y-46745197D01*
X78410197Y-48745197D01*
X78383006Y-48785590D01*
X78373000Y-48835000D01*
X78373000Y-52835000D01*
X78382334Y-52882789D01*
X78410197Y-52924803D01*
X79610394Y-54125000D01*
X70627000Y-54125000D01*
X70627000Y-44802655D01*
X79309000Y-44802655D01*
X79309000Y-44867345D01*
X79434675Y-45499155D01*
X79792567Y-46034778D01*
X80328190Y-46392670D01*
X80960000Y-46518345D01*
X81591810Y-46392670D01*
X81931792Y-46165501D01*
X82019910Y-46302441D01*
X82232110Y-46447431D01*
X82484000Y-46498440D01*
X84516000Y-46498440D01*
X84751317Y-46454162D01*
X84967441Y-46315090D01*
X85112431Y-46102890D01*
X85163440Y-45851000D01*
X85163440Y-43819000D01*
X85119162Y-43583683D01*
X84980090Y-43367559D01*
X84767890Y-43222569D01*
X84516000Y-43171560D01*
X82484000Y-43171560D01*
X82248683Y-43215838D01*
X82032559Y-43354910D01*
X81930802Y-43503837D01*
X81591810Y-43277330D01*
X80960000Y-43151655D01*
X80328190Y-43277330D01*
X79792567Y-43635222D01*
X79434675Y-44170845D01*
X79309000Y-44802655D01*
X70627000Y-44802655D01*
X70627000Y-42545000D01*
X85790000Y-42545000D01*
X85790000Y-47945394D01*
X85790000Y-47945394D01*
G37*
X85790000Y-47945394D02*
X84589803Y-46745197D01*
X84549410Y-46718006D01*
X84500000Y-46708000D01*
X80500000Y-46708000D01*
X80452211Y-46717334D01*
X80410197Y-46745197D01*
X78410197Y-48745197D01*
X78383006Y-48785590D01*
X78373000Y-48835000D01*
X78373000Y-52835000D01*
X78382334Y-52882789D01*
X78410197Y-52924803D01*
X79610394Y-54125000D01*
X70627000Y-54125000D01*
X70627000Y-44802655D01*
X79309000Y-44802655D01*
X79309000Y-44867345D01*
X79434675Y-45499155D01*
X79792567Y-46034778D01*
X80328190Y-46392670D01*
X80960000Y-46518345D01*
X81591810Y-46392670D01*
X81931792Y-46165501D01*
X82019910Y-46302441D01*
X82232110Y-46447431D01*
X82484000Y-46498440D01*
X84516000Y-46498440D01*
X84751317Y-46454162D01*
X84967441Y-46315090D01*
X85112431Y-46102890D01*
X85163440Y-45851000D01*
X85163440Y-43819000D01*
X85119162Y-43583683D01*
X84980090Y-43367559D01*
X84767890Y-43222569D01*
X84516000Y-43171560D01*
X82484000Y-43171560D01*
X82248683Y-43215838D01*
X82032559Y-43354910D01*
X81930802Y-43503837D01*
X81591810Y-43277330D01*
X80960000Y-43151655D01*
X80328190Y-43277330D01*
X79792567Y-43635222D01*
X79434675Y-44170845D01*
X79309000Y-44802655D01*
X70627000Y-44802655D01*
X70627000Y-42545000D01*
X85790000Y-42545000D01*
X85790000Y-47945394D01*
M02*
