G04 #@! TF.FileFunction,Legend,Top*
%FSLAX46Y46*%
G04 Gerber Fmt 4.6, Leading zero omitted, Abs format (unit mm)*
G04 Created by KiCad (PCBNEW 4.0.6) date Fri Jul 21 09:34:55 2017*
%MOMM*%
%LPD*%
G01*
G04 APERTURE LIST*
%ADD10C,0.100000*%
%ADD11C,0.150000*%
%ADD12C,0.700000*%
G04 APERTURE END LIST*
D10*
D11*
X82230000Y-46105000D02*
X79690000Y-46105000D01*
X85050000Y-46385000D02*
X83500000Y-46385000D01*
X82230000Y-46105000D02*
X82230000Y-43565000D01*
X83500000Y-43285000D02*
X85050000Y-43285000D01*
X85050000Y-43285000D02*
X85050000Y-46385000D01*
X82230000Y-43565000D02*
X79690000Y-43565000D01*
X79690000Y-43565000D02*
X79690000Y-46105000D01*
X57230000Y-53105000D02*
X54690000Y-53105000D01*
X60050000Y-53385000D02*
X58500000Y-53385000D01*
X57230000Y-53105000D02*
X57230000Y-50565000D01*
X58500000Y-50285000D02*
X60050000Y-50285000D01*
X60050000Y-50285000D02*
X60050000Y-53385000D01*
X57230000Y-50565000D02*
X54690000Y-50565000D01*
X54690000Y-50565000D02*
X54690000Y-53105000D01*
D12*
X69060555Y-50635000D02*
G75*
G03X69060555Y-50635000I-360555J0D01*
G01*
X72060555Y-50685000D02*
G75*
G03X72060555Y-50685000I-360555J0D01*
G01*
D11*
X82169048Y-42616429D02*
X82930953Y-42616429D01*
X82550001Y-42997381D02*
X82550001Y-42235476D01*
X56769048Y-54046429D02*
X57530953Y-54046429D01*
X81690476Y-54287381D02*
X81690476Y-53287381D01*
X82023810Y-54001667D01*
X82357143Y-53287381D01*
X82357143Y-54287381D01*
X82738095Y-53287381D02*
X83357143Y-53287381D01*
X83023809Y-53668333D01*
X83166667Y-53668333D01*
X83261905Y-53715952D01*
X83309524Y-53763571D01*
X83357143Y-53858810D01*
X83357143Y-54096905D01*
X83309524Y-54192143D01*
X83261905Y-54239762D01*
X83166667Y-54287381D01*
X82880952Y-54287381D01*
X82785714Y-54239762D01*
X82738095Y-54192143D01*
X55690476Y-43287381D02*
X55690476Y-42287381D01*
X56023810Y-43001667D01*
X56357143Y-42287381D01*
X56357143Y-43287381D01*
X56738095Y-42287381D02*
X57357143Y-42287381D01*
X57023809Y-42668333D01*
X57166667Y-42668333D01*
X57261905Y-42715952D01*
X57309524Y-42763571D01*
X57357143Y-42858810D01*
X57357143Y-43096905D01*
X57309524Y-43192143D01*
X57261905Y-43239762D01*
X57166667Y-43287381D01*
X56880952Y-43287381D01*
X56785714Y-43239762D01*
X56738095Y-43192143D01*
X60690476Y-43287381D02*
X60214285Y-43287381D01*
X60214285Y-42287381D01*
X61023809Y-42763571D02*
X61357143Y-42763571D01*
X61500000Y-43287381D02*
X61023809Y-43287381D01*
X61023809Y-42287381D01*
X61500000Y-42287381D01*
X61928571Y-43287381D02*
X61928571Y-42287381D01*
X62166666Y-42287381D01*
X62309524Y-42335000D01*
X62404762Y-42430238D01*
X62452381Y-42525476D01*
X62500000Y-42715952D01*
X62500000Y-42858810D01*
X62452381Y-43049286D01*
X62404762Y-43144524D01*
X62309524Y-43239762D01*
X62166666Y-43287381D01*
X61928571Y-43287381D01*
X63452381Y-43287381D02*
X62880952Y-43287381D01*
X63166666Y-43287381D02*
X63166666Y-42287381D01*
X63071428Y-42430238D01*
X62976190Y-42525476D01*
X62880952Y-42573095D01*
X65119048Y-43287381D02*
X64642857Y-43287381D01*
X64642857Y-42287381D01*
X65357143Y-42287381D02*
X65595238Y-43287381D01*
X65785715Y-42573095D01*
X65976191Y-43287381D01*
X66214286Y-42287381D01*
X67880953Y-42335000D02*
X67785715Y-42287381D01*
X67642858Y-42287381D01*
X67500000Y-42335000D01*
X67404762Y-42430238D01*
X67357143Y-42525476D01*
X67309524Y-42715952D01*
X67309524Y-42858810D01*
X67357143Y-43049286D01*
X67404762Y-43144524D01*
X67500000Y-43239762D01*
X67642858Y-43287381D01*
X67738096Y-43287381D01*
X67880953Y-43239762D01*
X67928572Y-43192143D01*
X67928572Y-42858810D01*
X67738096Y-42858810D01*
X68785715Y-42287381D02*
X68595238Y-42287381D01*
X68500000Y-42335000D01*
X68452381Y-42382619D01*
X68357143Y-42525476D01*
X68309524Y-42715952D01*
X68309524Y-43096905D01*
X68357143Y-43192143D01*
X68404762Y-43239762D01*
X68500000Y-43287381D01*
X68690477Y-43287381D01*
X68785715Y-43239762D01*
X68833334Y-43192143D01*
X68880953Y-43096905D01*
X68880953Y-42858810D01*
X68833334Y-42763571D01*
X68785715Y-42715952D01*
X68690477Y-42668333D01*
X68500000Y-42668333D01*
X68404762Y-42715952D01*
X68357143Y-42763571D01*
X68309524Y-42858810D01*
X69261905Y-43239762D02*
X69404762Y-43287381D01*
X69642858Y-43287381D01*
X69738096Y-43239762D01*
X69785715Y-43192143D01*
X69833334Y-43096905D01*
X69833334Y-43001667D01*
X69785715Y-42906429D01*
X69738096Y-42858810D01*
X69642858Y-42811190D01*
X69452381Y-42763571D01*
X69357143Y-42715952D01*
X69309524Y-42668333D01*
X69261905Y-42573095D01*
X69261905Y-42477857D01*
X69309524Y-42382619D01*
X69357143Y-42335000D01*
X69452381Y-42287381D01*
X69690477Y-42287381D01*
X69833334Y-42335000D01*
X70261905Y-43287381D02*
X70261905Y-42287381D01*
X70642858Y-42287381D01*
X70738096Y-42335000D01*
X70785715Y-42382619D01*
X70833334Y-42477857D01*
X70833334Y-42620714D01*
X70785715Y-42715952D01*
X70738096Y-42763571D01*
X70642858Y-42811190D01*
X70261905Y-42811190D01*
X69440476Y-45537381D02*
X68964285Y-45537381D01*
X68964285Y-44537381D01*
X69773809Y-45013571D02*
X70107143Y-45013571D01*
X70250000Y-45537381D02*
X69773809Y-45537381D01*
X69773809Y-44537381D01*
X70250000Y-44537381D01*
X70678571Y-45537381D02*
X70678571Y-44537381D01*
X70916666Y-44537381D01*
X71059524Y-44585000D01*
X71154762Y-44680238D01*
X71202381Y-44775476D01*
X71250000Y-44965952D01*
X71250000Y-45108810D01*
X71202381Y-45299286D01*
X71154762Y-45394524D01*
X71059524Y-45489762D01*
X70916666Y-45537381D01*
X70678571Y-45537381D01*
X71630952Y-44632619D02*
X71678571Y-44585000D01*
X71773809Y-44537381D01*
X72011905Y-44537381D01*
X72107143Y-44585000D01*
X72154762Y-44632619D01*
X72202381Y-44727857D01*
X72202381Y-44823095D01*
X72154762Y-44965952D01*
X71583333Y-45537381D01*
X72202381Y-45537381D01*
X73869048Y-45537381D02*
X73392857Y-45537381D01*
X73392857Y-44537381D01*
X74107143Y-44537381D02*
X74345238Y-45537381D01*
X74535715Y-44823095D01*
X74726191Y-45537381D01*
X74964286Y-44537381D01*
X76630953Y-44585000D02*
X76535715Y-44537381D01*
X76392858Y-44537381D01*
X76250000Y-44585000D01*
X76154762Y-44680238D01*
X76107143Y-44775476D01*
X76059524Y-44965952D01*
X76059524Y-45108810D01*
X76107143Y-45299286D01*
X76154762Y-45394524D01*
X76250000Y-45489762D01*
X76392858Y-45537381D01*
X76488096Y-45537381D01*
X76630953Y-45489762D01*
X76678572Y-45442143D01*
X76678572Y-45108810D01*
X76488096Y-45108810D01*
X77535715Y-44537381D02*
X77345238Y-44537381D01*
X77250000Y-44585000D01*
X77202381Y-44632619D01*
X77107143Y-44775476D01*
X77059524Y-44965952D01*
X77059524Y-45346905D01*
X77107143Y-45442143D01*
X77154762Y-45489762D01*
X77250000Y-45537381D01*
X77440477Y-45537381D01*
X77535715Y-45489762D01*
X77583334Y-45442143D01*
X77630953Y-45346905D01*
X77630953Y-45108810D01*
X77583334Y-45013571D01*
X77535715Y-44965952D01*
X77440477Y-44918333D01*
X77250000Y-44918333D01*
X77154762Y-44965952D01*
X77107143Y-45013571D01*
X77059524Y-45108810D01*
X78011905Y-45489762D02*
X78154762Y-45537381D01*
X78392858Y-45537381D01*
X78488096Y-45489762D01*
X78535715Y-45442143D01*
X78583334Y-45346905D01*
X78583334Y-45251667D01*
X78535715Y-45156429D01*
X78488096Y-45108810D01*
X78392858Y-45061190D01*
X78202381Y-45013571D01*
X78107143Y-44965952D01*
X78059524Y-44918333D01*
X78011905Y-44823095D01*
X78011905Y-44727857D01*
X78059524Y-44632619D01*
X78107143Y-44585000D01*
X78202381Y-44537381D01*
X78440477Y-44537381D01*
X78583334Y-44585000D01*
X79011905Y-45537381D02*
X79011905Y-44537381D01*
X79392858Y-44537381D01*
X79488096Y-44585000D01*
X79535715Y-44632619D01*
X79583334Y-44727857D01*
X79583334Y-44870714D01*
X79535715Y-44965952D01*
X79488096Y-45013571D01*
X79392858Y-45061190D01*
X79011905Y-45061190D01*
M02*
