<?xml version="1.0" encoding="UTF-8"?>
<!DOCTYPE svg PUBLIC "-//W3C//DTD SVG 1.1//EN" "http://www.w3.org/Graphics/SVG/1.1/DTD/svg11.dtd">
<svg width="254mm" height="160mm" viewBox="0 0 25400 16000" version="1.1" xmlns="http://www.w3.org/2000/svg" stroke-width="28.222" stroke-linejoin="round" xml:space="preserve">
 <path fill="rgb(255,255,255)" stroke="none" d="M 12703,15962 L 0,15962 0,0 25406,0 25406,15962 12703,15962 Z"/>
 <path fill="none" stroke="rgb(179,179,179)" stroke-linejoin="round" d="M 11279,14996 L 1129,14996 1129,518 21429,518 21429,14996 11279,14996 Z"/>
 <path fill="none" stroke="rgb(179,179,179)" stroke-linejoin="round" d="M 21428,14995 L 1129,14995"/>
 <path fill="none" stroke="rgb(179,179,179)" stroke-linejoin="round" d="M 21428,13547 L 1129,13547"/>
 <path fill="none" stroke="rgb(179,179,179)" stroke-linejoin="round" d="M 21428,12099 L 1129,12099"/>
 <path fill="none" stroke="rgb(179,179,179)" stroke-linejoin="round" d="M 21428,10651 L 1129,10651"/>
 <path fill="none" stroke="rgb(179,179,179)" stroke-linejoin="round" d="M 21428,9203 L 1129,9203"/>
 <path fill="none" stroke="rgb(179,179,179)" stroke-linejoin="round" d="M 21428,7756 L 1129,7756"/>
 <path fill="none" stroke="rgb(179,179,179)" stroke-linejoin="round" d="M 21428,6308 L 1129,6308"/>
 <path fill="none" stroke="rgb(179,179,179)" stroke-linejoin="round" d="M 21428,4860 L 1129,4860"/>
 <path fill="none" stroke="rgb(179,179,179)" stroke-linejoin="round" d="M 21428,3412 L 1129,3412"/>
 <path fill="none" stroke="rgb(179,179,179)" stroke-linejoin="round" d="M 21428,1964 L 1129,1964"/>
 <path fill="none" stroke="rgb(179,179,179)" stroke-linejoin="round" d="M 21428,517 L 1129,517"/>
 <path fill="none" stroke="rgb(179,179,179)" stroke-linejoin="round" d="M 1129,15145 L 1129,14995"/>
 <path fill="none" stroke="rgb(179,179,179)" stroke-linejoin="round" d="M 1129,15145 L 1129,14995"/>
 <path fill="none" stroke="rgb(179,179,179)" stroke-linejoin="round" d="M 1805,15145 L 1805,14995"/>
 <path fill="none" stroke="rgb(179,179,179)" stroke-linejoin="round" d="M 1805,15145 L 1805,14995"/>
 <path fill="none" stroke="rgb(179,179,179)" stroke-linejoin="round" d="M 2482,15145 L 2482,14995"/>
 <path fill="none" stroke="rgb(179,179,179)" stroke-linejoin="round" d="M 2482,15145 L 2482,14995"/>
 <path fill="none" stroke="rgb(179,179,179)" stroke-linejoin="round" d="M 3159,15145 L 3159,14995"/>
 <path fill="none" stroke="rgb(179,179,179)" stroke-linejoin="round" d="M 3159,15145 L 3159,14995"/>
 <path fill="none" stroke="rgb(179,179,179)" stroke-linejoin="round" d="M 3835,15145 L 3835,14995"/>
 <path fill="none" stroke="rgb(179,179,179)" stroke-linejoin="round" d="M 3835,15145 L 3835,14995"/>
 <path fill="none" stroke="rgb(179,179,179)" stroke-linejoin="round" d="M 4512,15145 L 4512,14995"/>
 <path fill="none" stroke="rgb(179,179,179)" stroke-linejoin="round" d="M 4512,15145 L 4512,14995"/>
 <path fill="none" stroke="rgb(179,179,179)" stroke-linejoin="round" d="M 5189,15145 L 5189,14995"/>
 <path fill="none" stroke="rgb(179,179,179)" stroke-linejoin="round" d="M 5189,15145 L 5189,14995"/>
 <path fill="none" stroke="rgb(179,179,179)" stroke-linejoin="round" d="M 5865,15145 L 5865,14995"/>
 <path fill="none" stroke="rgb(179,179,179)" stroke-linejoin="round" d="M 5865,15145 L 5865,14995"/>
 <path fill="none" stroke="rgb(179,179,179)" stroke-linejoin="round" d="M 6542,15145 L 6542,14995"/>
 <path fill="none" stroke="rgb(179,179,179)" stroke-linejoin="round" d="M 6542,15145 L 6542,14995"/>
 <path fill="none" stroke="rgb(179,179,179)" stroke-linejoin="round" d="M 7219,15145 L 7219,14995"/>
 <path fill="none" stroke="rgb(179,179,179)" stroke-linejoin="round" d="M 7219,15145 L 7219,14995"/>
 <path fill="none" stroke="rgb(179,179,179)" stroke-linejoin="round" d="M 7895,15145 L 7895,14995"/>
 <path fill="none" stroke="rgb(179,179,179)" stroke-linejoin="round" d="M 7895,15145 L 7895,14995"/>
 <path fill="none" stroke="rgb(179,179,179)" stroke-linejoin="round" d="M 8572,15145 L 8572,14995"/>
 <path fill="none" stroke="rgb(179,179,179)" stroke-linejoin="round" d="M 8572,15145 L 8572,14995"/>
 <path fill="none" stroke="rgb(179,179,179)" stroke-linejoin="round" d="M 9249,15145 L 9249,14995"/>
 <path fill="none" stroke="rgb(179,179,179)" stroke-linejoin="round" d="M 9249,15145 L 9249,14995"/>
 <path fill="none" stroke="rgb(179,179,179)" stroke-linejoin="round" d="M 9926,15145 L 9926,14995"/>
 <path fill="none" stroke="rgb(179,179,179)" stroke-linejoin="round" d="M 9926,15145 L 9926,14995"/>
 <path fill="none" stroke="rgb(179,179,179)" stroke-linejoin="round" d="M 10602,15145 L 10602,14995"/>
 <path fill="none" stroke="rgb(179,179,179)" stroke-linejoin="round" d="M 10602,15145 L 10602,14995"/>
 <path fill="none" stroke="rgb(179,179,179)" stroke-linejoin="round" d="M 11279,15145 L 11279,14995"/>
 <path fill="none" stroke="rgb(179,179,179)" stroke-linejoin="round" d="M 11279,15145 L 11279,14995"/>
 <path fill="none" stroke="rgb(179,179,179)" stroke-linejoin="round" d="M 11956,15145 L 11956,14995"/>
 <path fill="none" stroke="rgb(179,179,179)" stroke-linejoin="round" d="M 11956,15145 L 11956,14995"/>
 <path fill="none" stroke="rgb(179,179,179)" stroke-linejoin="round" d="M 12632,15145 L 12632,14995"/>
 <path fill="none" stroke="rgb(179,179,179)" stroke-linejoin="round" d="M 12632,15145 L 12632,14995"/>
 <path fill="none" stroke="rgb(179,179,179)" stroke-linejoin="round" d="M 13308,15145 L 13308,14995"/>
 <path fill="none" stroke="rgb(179,179,179)" stroke-linejoin="round" d="M 13308,15145 L 13308,14995"/>
 <path fill="none" stroke="rgb(179,179,179)" stroke-linejoin="round" d="M 13985,15145 L 13985,14995"/>
 <path fill="none" stroke="rgb(179,179,179)" stroke-linejoin="round" d="M 13985,15145 L 13985,14995"/>
 <path fill="none" stroke="rgb(179,179,179)" stroke-linejoin="round" d="M 14661,15145 L 14661,14995"/>
 <path fill="none" stroke="rgb(179,179,179)" stroke-linejoin="round" d="M 14661,15145 L 14661,14995"/>
 <path fill="none" stroke="rgb(179,179,179)" stroke-linejoin="round" d="M 15338,15145 L 15338,14995"/>
 <path fill="none" stroke="rgb(179,179,179)" stroke-linejoin="round" d="M 15338,15145 L 15338,14995"/>
 <path fill="none" stroke="rgb(179,179,179)" stroke-linejoin="round" d="M 16015,15145 L 16015,14995"/>
 <path fill="none" stroke="rgb(179,179,179)" stroke-linejoin="round" d="M 16015,15145 L 16015,14995"/>
 <path fill="none" stroke="rgb(179,179,179)" stroke-linejoin="round" d="M 16692,15145 L 16692,14995"/>
 <path fill="none" stroke="rgb(179,179,179)" stroke-linejoin="round" d="M 16692,15145 L 16692,14995"/>
 <path fill="none" stroke="rgb(179,179,179)" stroke-linejoin="round" d="M 17368,15145 L 17368,14995"/>
 <path fill="none" stroke="rgb(179,179,179)" stroke-linejoin="round" d="M 17368,15145 L 17368,14995"/>
 <path fill="none" stroke="rgb(179,179,179)" stroke-linejoin="round" d="M 18045,15145 L 18045,14995"/>
 <path fill="none" stroke="rgb(179,179,179)" stroke-linejoin="round" d="M 18045,15145 L 18045,14995"/>
 <path fill="none" stroke="rgb(179,179,179)" stroke-linejoin="round" d="M 18722,15145 L 18722,14995"/>
 <path fill="none" stroke="rgb(179,179,179)" stroke-linejoin="round" d="M 18722,15145 L 18722,14995"/>
 <path fill="none" stroke="rgb(179,179,179)" stroke-linejoin="round" d="M 19398,15145 L 19398,14995"/>
 <path fill="none" stroke="rgb(179,179,179)" stroke-linejoin="round" d="M 19398,15145 L 19398,14995"/>
 <path fill="none" stroke="rgb(179,179,179)" stroke-linejoin="round" d="M 20075,15145 L 20075,14995"/>
 <path fill="none" stroke="rgb(179,179,179)" stroke-linejoin="round" d="M 20075,15145 L 20075,14995"/>
 <path fill="none" stroke="rgb(179,179,179)" stroke-linejoin="round" d="M 20752,15145 L 20752,14995"/>
 <path fill="none" stroke="rgb(179,179,179)" stroke-linejoin="round" d="M 20752,15145 L 20752,14995"/>
 <path fill="none" stroke="rgb(179,179,179)" stroke-linejoin="round" d="M 21428,15145 L 21428,14995"/>
 <path fill="none" stroke="rgb(179,179,179)" stroke-linejoin="round" d="M 21428,15145 L 21428,14995"/>
 <path fill="none" stroke="rgb(179,179,179)" stroke-linejoin="round" d="M 1129,14995 L 21428,14995"/>
 <path fill="none" stroke="rgb(179,179,179)" stroke-linejoin="round" d="M 979,14995 L 1129,14995"/>
 <path fill="none" stroke="rgb(179,179,179)" stroke-linejoin="round" d="M 979,14995 L 1129,14995"/>
 <path fill="none" stroke="rgb(179,179,179)" stroke-linejoin="round" d="M 979,13547 L 1129,13547"/>
 <path fill="none" stroke="rgb(179,179,179)" stroke-linejoin="round" d="M 979,13547 L 1129,13547"/>
 <path fill="none" stroke="rgb(179,179,179)" stroke-linejoin="round" d="M 979,12099 L 1129,12099"/>
 <path fill="none" stroke="rgb(179,179,179)" stroke-linejoin="round" d="M 979,12099 L 1129,12099"/>
 <path fill="none" stroke="rgb(179,179,179)" stroke-linejoin="round" d="M 979,10651 L 1129,10651"/>
 <path fill="none" stroke="rgb(179,179,179)" stroke-linejoin="round" d="M 979,10651 L 1129,10651"/>
 <path fill="none" stroke="rgb(179,179,179)" stroke-linejoin="round" d="M 979,9203 L 1129,9203"/>
 <path fill="none" stroke="rgb(179,179,179)" stroke-linejoin="round" d="M 979,9203 L 1129,9203"/>
 <path fill="none" stroke="rgb(179,179,179)" stroke-linejoin="round" d="M 979,7756 L 1129,7756"/>
 <path fill="none" stroke="rgb(179,179,179)" stroke-linejoin="round" d="M 979,7756 L 1129,7756"/>
 <path fill="none" stroke="rgb(179,179,179)" stroke-linejoin="round" d="M 979,6308 L 1129,6308"/>
 <path fill="none" stroke="rgb(179,179,179)" stroke-linejoin="round" d="M 979,6308 L 1129,6308"/>
 <path fill="none" stroke="rgb(179,179,179)" stroke-linejoin="round" d="M 979,4860 L 1129,4860"/>
 <path fill="none" stroke="rgb(179,179,179)" stroke-linejoin="round" d="M 979,4860 L 1129,4860"/>
 <path fill="none" stroke="rgb(179,179,179)" stroke-linejoin="round" d="M 979,3412 L 1129,3412"/>
 <path fill="none" stroke="rgb(179,179,179)" stroke-linejoin="round" d="M 979,3412 L 1129,3412"/>
 <path fill="none" stroke="rgb(179,179,179)" stroke-linejoin="round" d="M 979,1964 L 1129,1964"/>
 <path fill="none" stroke="rgb(179,179,179)" stroke-linejoin="round" d="M 979,1964 L 1129,1964"/>
 <path fill="none" stroke="rgb(179,179,179)" stroke-linejoin="round" d="M 979,517 L 1129,517"/>
 <path fill="none" stroke="rgb(179,179,179)" stroke-linejoin="round" d="M 979,517 L 1129,517"/>
 <path fill="none" stroke="rgb(179,179,179)" stroke-linejoin="round" d="M 1129,14995 L 1129,517"/>
 <path fill="rgb(87,157,28)" stroke="none" d="M 1129,14995 L 1805,14995 2482,14995 3159,14995 3835,14995 4512,14995 5189,14995 5865,14995 6542,14995 7219,1964 7895,1964 8572,1964 9249,1964 9926,1964 10602,1964 11279,1964 11956,1964 12632,1964 13308,1964 13985,1964 14661,14995 15338,14995 16015,14995 16692,14995 17368,14995 18045,14995 18722,14995 19398,14995 20075,14995 20752,14995 21428,14995 21428,14995 1129,14995 Z"/>
 <path fill="rgb(0,69,134)" stroke="none" d="M 1129,14633 L 1805,14633 2482,14633 3159,14633 3835,14633 4512,14633 5189,14633 5865,14633 6542,14633 7219,14633 7895,14633 8572,14633 9249,14633 9926,14633 10602,14633 11279,14633 11956,14633 12632,14633 13308,14633 13985,14633 14661,14633 15338,14633 16015,14633 16692,14633 17368,14633 18045,14633 18722,14633 19398,14633 20075,14633 20752,14633 21428,14633 21428,14995 1129,14995 1129,14633 Z"/>
 <path fill="rgb(255,211,32)" stroke="none" d="M 1129,14777 L 1805,14777 2482,14777 3159,14777 3835,14777 4512,14777 5189,14777 5865,14777 6542,14777 7219,14777 7895,14777 8572,14777 9249,14777 9926,14777 10602,14777 11279,14777 11956,14777 12632,14777 13308,14777 13985,14777 14661,14777 15338,14777 16015,14777 16692,14777 17368,14777 18045,14777 18722,14777 19398,14777 20075,14777 20752,14777 21428,14777 21428,14995 1129,14995 1129,14777 Z"/>
 <path fill="rgb(255,66,14)" stroke="none" d="M 1129,14995 L 1805,14995 2482,14995 3159,14995 3835,14995 4512,14995 5189,14995 5865,14995 6542,13909 7219,14995 7895,14995 8572,14995 9249,14995 9926,14995 10602,14995 11279,14995 11956,14995 12632,14995 13308,14995 13985,13909 14661,14995 15338,14995 16015,14995 16692,14995 17368,14995 18045,14995 18722,14995 19398,14995 20075,14995 20752,14995 21428,14995 21428,14995 1129,14995 Z"/>
 <text class="TextShape"><tspan class="TextParagraph" font-family="Liberation Sans, sans-serif" font-size="353px" font-weight="400"><tspan class="TextPosition" x="1036" y="15563"><tspan fill="rgb(0,0,0)" stroke="none">0</tspan></tspan></tspan></text>
 <text class="TextShape"><tspan class="TextParagraph" font-family="Liberation Sans, sans-serif" font-size="353px" font-weight="400"><tspan class="TextPosition" x="1620" y="15563"><tspan fill="rgb(0,0,0)" stroke="none">10</tspan></tspan></tspan></text>
 <text class="TextShape"><tspan class="TextParagraph" font-family="Liberation Sans, sans-serif" font-size="353px" font-weight="400"><tspan class="TextPosition" x="2297" y="15563"><tspan fill="rgb(0,0,0)" stroke="none">20</tspan></tspan></tspan></text>
 <text class="TextShape"><tspan class="TextParagraph" font-family="Liberation Sans, sans-serif" font-size="353px" font-weight="400"><tspan class="TextPosition" x="2974" y="15563"><tspan fill="rgb(0,0,0)" stroke="none">30</tspan></tspan></tspan></text>
 <text class="TextShape"><tspan class="TextParagraph" font-family="Liberation Sans, sans-serif" font-size="353px" font-weight="400"><tspan class="TextPosition" x="3650" y="15563"><tspan fill="rgb(0,0,0)" stroke="none">40</tspan></tspan></tspan></text>
 <text class="TextShape"><tspan class="TextParagraph" font-family="Liberation Sans, sans-serif" font-size="353px" font-weight="400"><tspan class="TextPosition" x="4327" y="15563"><tspan fill="rgb(0,0,0)" stroke="none">50</tspan></tspan></tspan></text>
 <text class="TextShape"><tspan class="TextParagraph" font-family="Liberation Sans, sans-serif" font-size="353px" font-weight="400"><tspan class="TextPosition" x="5004" y="15563"><tspan fill="rgb(0,0,0)" stroke="none">60</tspan></tspan></tspan></text>
 <text class="TextShape"><tspan class="TextParagraph" font-family="Liberation Sans, sans-serif" font-size="353px" font-weight="400"><tspan class="TextPosition" x="5680" y="15563"><tspan fill="rgb(0,0,0)" stroke="none">70</tspan></tspan></tspan></text>
 <text class="TextShape"><tspan class="TextParagraph" font-family="Liberation Sans, sans-serif" font-size="353px" font-weight="400"><tspan class="TextPosition" x="6357" y="15563"><tspan fill="rgb(0,0,0)" stroke="none">80</tspan></tspan></tspan></text>
 <text class="TextShape"><tspan class="TextParagraph" font-family="Liberation Sans, sans-serif" font-size="353px" font-weight="400"><tspan class="TextPosition" x="7034" y="15563"><tspan fill="rgb(0,0,0)" stroke="none">90</tspan></tspan></tspan></text>
 <text class="TextShape"><tspan class="TextParagraph" font-family="Liberation Sans, sans-serif" font-size="353px" font-weight="400"><tspan class="TextPosition" x="7617" y="15563"><tspan fill="rgb(0,0,0)" stroke="none">100</tspan></tspan></tspan></text>
 <text class="TextShape"><tspan class="TextParagraph" font-family="Liberation Sans, sans-serif" font-size="353px" font-weight="400"><tspan class="TextPosition" x="8294" y="15563"><tspan fill="rgb(0,0,0)" stroke="none">110</tspan></tspan></tspan></text>
 <text class="TextShape"><tspan class="TextParagraph" font-family="Liberation Sans, sans-serif" font-size="353px" font-weight="400"><tspan class="TextPosition" x="8971" y="15563"><tspan fill="rgb(0,0,0)" stroke="none">120</tspan></tspan></tspan></text>
 <text class="TextShape"><tspan class="TextParagraph" font-family="Liberation Sans, sans-serif" font-size="353px" font-weight="400"><tspan class="TextPosition" x="9648" y="15563"><tspan fill="rgb(0,0,0)" stroke="none">130</tspan></tspan></tspan></text>
 <text class="TextShape"><tspan class="TextParagraph" font-family="Liberation Sans, sans-serif" font-size="353px" font-weight="400"><tspan class="TextPosition" x="10324" y="15563"><tspan fill="rgb(0,0,0)" stroke="none">140</tspan></tspan></tspan></text>
 <text class="TextShape"><tspan class="TextParagraph" font-family="Liberation Sans, sans-serif" font-size="353px" font-weight="400"><tspan class="TextPosition" x="11001" y="15563"><tspan fill="rgb(0,0,0)" stroke="none">150</tspan></tspan></tspan></text>
 <text class="TextShape"><tspan class="TextParagraph" font-family="Liberation Sans, sans-serif" font-size="353px" font-weight="400"><tspan class="TextPosition" x="11678" y="15563"><tspan fill="rgb(0,0,0)" stroke="none">160</tspan></tspan></tspan></text>
 <text class="TextShape"><tspan class="TextParagraph" font-family="Liberation Sans, sans-serif" font-size="353px" font-weight="400"><tspan class="TextPosition" x="12354" y="15563"><tspan fill="rgb(0,0,0)" stroke="none">170</tspan></tspan></tspan></text>
 <text class="TextShape"><tspan class="TextParagraph" font-family="Liberation Sans, sans-serif" font-size="353px" font-weight="400"><tspan class="TextPosition" x="13031" y="15563"><tspan fill="rgb(0,0,0)" stroke="none">180</tspan></tspan></tspan></text>
 <text class="TextShape"><tspan class="TextParagraph" font-family="Liberation Sans, sans-serif" font-size="353px" font-weight="400"><tspan class="TextPosition" x="13708" y="15563"><tspan fill="rgb(0,0,0)" stroke="none">190</tspan></tspan></tspan></text>
 <text class="TextShape"><tspan class="TextParagraph" font-family="Liberation Sans, sans-serif" font-size="353px" font-weight="400"><tspan class="TextPosition" x="14384" y="15563"><tspan fill="rgb(0,0,0)" stroke="none">200</tspan></tspan></tspan></text>
 <text class="TextShape"><tspan class="TextParagraph" font-family="Liberation Sans, sans-serif" font-size="353px" font-weight="400"><tspan class="TextPosition" x="15061" y="15563"><tspan fill="rgb(0,0,0)" stroke="none">210</tspan></tspan></tspan></text>
 <text class="TextShape"><tspan class="TextParagraph" font-family="Liberation Sans, sans-serif" font-size="353px" font-weight="400"><tspan class="TextPosition" x="15738" y="15563"><tspan fill="rgb(0,0,0)" stroke="none">220</tspan></tspan></tspan></text>
 <text class="TextShape"><tspan class="TextParagraph" font-family="Liberation Sans, sans-serif" font-size="353px" font-weight="400"><tspan class="TextPosition" x="16415" y="15563"><tspan fill="rgb(0,0,0)" stroke="none">230</tspan></tspan></tspan></text>
 <text class="TextShape"><tspan class="TextParagraph" font-family="Liberation Sans, sans-serif" font-size="353px" font-weight="400"><tspan class="TextPosition" x="17091" y="15563"><tspan fill="rgb(0,0,0)" stroke="none">240</tspan></tspan></tspan></text>
 <text class="TextShape"><tspan class="TextParagraph" font-family="Liberation Sans, sans-serif" font-size="353px" font-weight="400"><tspan class="TextPosition" x="17768" y="15563"><tspan fill="rgb(0,0,0)" stroke="none">250</tspan></tspan></tspan></text>
 <text class="TextShape"><tspan class="TextParagraph" font-family="Liberation Sans, sans-serif" font-size="353px" font-weight="400"><tspan class="TextPosition" x="18445" y="15563"><tspan fill="rgb(0,0,0)" stroke="none">260</tspan></tspan></tspan></text>
 <text class="TextShape"><tspan class="TextParagraph" font-family="Liberation Sans, sans-serif" font-size="353px" font-weight="400"><tspan class="TextPosition" x="19121" y="15563"><tspan fill="rgb(0,0,0)" stroke="none">270</tspan></tspan></tspan></text>
 <text class="TextShape"><tspan class="TextParagraph" font-family="Liberation Sans, sans-serif" font-size="353px" font-weight="400"><tspan class="TextPosition" x="19798" y="15563"><tspan fill="rgb(0,0,0)" stroke="none">280</tspan></tspan></tspan></text>
 <text class="TextShape"><tspan class="TextParagraph" font-family="Liberation Sans, sans-serif" font-size="353px" font-weight="400"><tspan class="TextPosition" x="20475" y="15563"><tspan fill="rgb(0,0,0)" stroke="none">290</tspan></tspan></tspan></text>
 <text class="TextShape"><tspan class="TextParagraph" font-family="Liberation Sans, sans-serif" font-size="353px" font-weight="400"><tspan class="TextPosition" x="21151" y="15563"><tspan fill="rgb(0,0,0)" stroke="none">300</tspan></tspan></tspan></text>
 <text class="TextShape"><tspan class="TextParagraph" font-family="Liberation Sans, sans-serif" font-size="353px" font-weight="400"><tspan class="TextPosition" x="694" y="15116"><tspan fill="rgb(0,0,0)" stroke="none">0</tspan></tspan></tspan></text>
 <text class="TextShape"><tspan class="TextParagraph" font-family="Liberation Sans, sans-serif" font-size="353px" font-weight="400"><tspan class="TextPosition" x="509" y="13668"><tspan fill="rgb(0,0,0)" stroke="none">20</tspan></tspan></tspan></text>
 <text class="TextShape"><tspan class="TextParagraph" font-family="Liberation Sans, sans-serif" font-size="353px" font-weight="400"><tspan class="TextPosition" x="509" y="12220"><tspan fill="rgb(0,0,0)" stroke="none">40</tspan></tspan></tspan></text>
 <text class="TextShape"><tspan class="TextParagraph" font-family="Liberation Sans, sans-serif" font-size="353px" font-weight="400"><tspan class="TextPosition" x="509" y="10772"><tspan fill="rgb(0,0,0)" stroke="none">60</tspan></tspan></tspan></text>
 <text class="TextShape"><tspan class="TextParagraph" font-family="Liberation Sans, sans-serif" font-size="353px" font-weight="400"><tspan class="TextPosition" x="509" y="9324"><tspan fill="rgb(0,0,0)" stroke="none">80</tspan></tspan></tspan></text>
 <text class="TextShape"><tspan class="TextParagraph" font-family="Liberation Sans, sans-serif" font-size="353px" font-weight="400"><tspan class="TextPosition" x="323" y="7876"><tspan fill="rgb(0,0,0)" stroke="none">100</tspan></tspan></tspan></text>
 <text class="TextShape"><tspan class="TextParagraph" font-family="Liberation Sans, sans-serif" font-size="353px" font-weight="400"><tspan class="TextPosition" x="323" y="6428"><tspan fill="rgb(0,0,0)" stroke="none">120</tspan></tspan></tspan></text>
 <text class="TextShape"><tspan class="TextParagraph" font-family="Liberation Sans, sans-serif" font-size="353px" font-weight="400"><tspan class="TextPosition" x="323" y="4980"><tspan fill="rgb(0,0,0)" stroke="none">140</tspan></tspan></tspan></text>
 <text class="TextShape"><tspan class="TextParagraph" font-family="Liberation Sans, sans-serif" font-size="353px" font-weight="400"><tspan class="TextPosition" x="323" y="3532"><tspan fill="rgb(0,0,0)" stroke="none">160</tspan></tspan></tspan></text>
 <text class="TextShape"><tspan class="TextParagraph" font-family="Liberation Sans, sans-serif" font-size="353px" font-weight="400"><tspan class="TextPosition" x="323" y="2084"><tspan fill="rgb(0,0,0)" stroke="none">180</tspan></tspan></tspan></text>
 <text class="TextShape"><tspan class="TextParagraph" font-family="Liberation Sans, sans-serif" font-size="353px" font-weight="400"><tspan class="TextPosition" x="323" y="637"><tspan fill="rgb(0,0,0)" stroke="none">200</tspan></tspan></tspan></text>
 <path fill="rgb(255,66,14)" stroke="none" d="M 22624,7339 L 22518,7339 22518,7128 22729,7128 22729,7339 22624,7339 Z"/>
 <path fill="rgb(255,211,32)" stroke="none" d="M 22624,7837 L 22518,7837 22518,7626 22729,7626 22729,7837 22624,7837 Z"/>
 <path fill="rgb(0,69,134)" stroke="none" d="M 22624,8334 L 22518,8334 22518,8123 22729,8123 22729,8334 22624,8334 Z"/>
 <path fill="rgb(87,157,28)" stroke="none" d="M 22624,8832 L 22518,8832 22518,8621 22729,8621 22729,8832 22624,8832 Z"/>
 <text class="TextShape"><tspan class="TextParagraph" font-family="Liberation Sans, sans-serif" font-size="353px" font-weight="400"><tspan class="TextPosition" x="22829" y="7353"><tspan fill="rgb(0,0,0)" stroke="none">Motors</tspan></tspan></tspan></text>
 <text class="TextShape"><tspan class="TextParagraph" font-family="Liberation Sans, sans-serif" font-size="353px" font-weight="400"><tspan class="TextPosition" x="22829" y="7851"><tspan fill="rgb(0,0,0)" stroke="none">Microcontroller</tspan></tspan></tspan></text>
 <text class="TextShape"><tspan class="TextParagraph" font-family="Liberation Sans, sans-serif" font-size="353px" font-weight="400"><tspan class="TextPosition" x="22829" y="8348"><tspan fill="rgb(0,0,0)" stroke="none">Raspberry Pi</tspan></tspan></tspan></text>
 <text class="TextShape"><tspan class="TextParagraph" font-family="Liberation Sans, sans-serif" font-size="353px" font-weight="400"><tspan class="TextPosition" x="22829" y="8846"><tspan fill="rgb(0,0,0)" stroke="none">Heat probes</tspan></tspan></tspan></text>
</svg>