G04 #@! TF.FileFunction,Soldermask,Top*
%FSLAX46Y46*%
G04 Gerber Fmt 4.6, Leading zero omitted, Abs format (unit mm)*
G04 Created by KiCad (PCBNEW 4.0.6) date Fri Jul 21 14:49:20 2017*
%MOMM*%
%LPD*%
G01*
G04 APERTURE LIST*
%ADD10C,0.100000*%
%ADD11R,0.990000X0.405000*%
%ADD12R,0.940000X1.040000*%
%ADD13R,6.100000X6.100000*%
%ADD14R,4.100000X2.600000*%
%ADD15R,2.540000X5.700000*%
%ADD16R,2.540000X0.990000*%
%ADD17R,2.600000X4.100000*%
%ADD18R,1.300000X0.850000*%
%ADD19R,0.850000X1.300000*%
%ADD20R,1.350000X1.600000*%
%ADD21R,1.490000X4.700000*%
%ADD22R,10.900000X9.500000*%
%ADD23C,1.600000*%
%ADD24R,4.700000X1.490000*%
%ADD25R,9.500000X10.900000*%
%ADD26R,1.300000X1.000000*%
%ADD27R,1.000000X1.300000*%
%ADD28C,6.500000*%
G04 APERTURE END LIST*
D10*
D11*
X58640000Y-52556000D03*
X58640000Y-53056000D03*
X58640000Y-53556000D03*
X58640000Y-54056000D03*
X58640000Y-54556000D03*
X62850000Y-54556000D03*
X62850000Y-54056000D03*
X62850000Y-53556000D03*
X62850000Y-53056000D03*
X62850000Y-52556000D03*
D12*
X61165000Y-54026000D03*
X61165000Y-53086000D03*
X60325000Y-54026000D03*
X60325000Y-53086000D03*
D13*
X80518000Y-33944000D03*
X80518000Y-47244000D03*
D14*
X55055000Y-83185000D03*
X63055000Y-83185000D03*
D15*
X62925000Y-62932000D03*
X67885000Y-62932000D03*
D16*
X62925000Y-58797000D03*
X67885000Y-58797000D03*
D17*
X63500000Y-36640000D03*
X63500000Y-44640000D03*
D14*
X75755000Y-83185000D03*
X67755000Y-83185000D03*
X55055000Y-72390000D03*
X63055000Y-72390000D03*
X75755000Y-72390000D03*
X67755000Y-72390000D03*
D18*
X55560000Y-56388000D03*
X53660000Y-56388000D03*
D19*
X63754000Y-56085000D03*
X63754000Y-57985000D03*
D18*
X55560000Y-50927000D03*
X53660000Y-50927000D03*
D20*
X69977000Y-53427000D03*
X69977000Y-50927000D03*
D18*
X55560000Y-49657000D03*
X53660000Y-49657000D03*
X55560000Y-55118000D03*
X53660000Y-55118000D03*
X57978000Y-65024000D03*
X59878000Y-65024000D03*
X75372000Y-63881000D03*
X73472000Y-63881000D03*
X57978000Y-66294000D03*
X59878000Y-66294000D03*
X75372000Y-65151000D03*
X73472000Y-65151000D03*
X75372000Y-66421000D03*
X73472000Y-66421000D03*
D19*
X57150000Y-41402000D03*
X57150000Y-43302000D03*
D21*
X84709000Y-69326000D03*
D22*
X84709000Y-78486000D03*
D21*
X82169000Y-69326000D03*
X87249000Y-69326000D03*
D23*
X68199000Y-52832000D03*
D24*
X75549000Y-57150000D03*
D25*
X84709000Y-57150000D03*
D24*
X75549000Y-59690000D03*
X75549000Y-54610000D03*
D26*
X64643000Y-52324000D03*
X66843000Y-52324000D03*
X66843000Y-50927000D03*
X64643000Y-50927000D03*
X54823000Y-52324000D03*
X57023000Y-52324000D03*
D27*
X65532000Y-58111000D03*
X65532000Y-55911000D03*
D26*
X55710000Y-57785000D03*
X53510000Y-57785000D03*
X55710000Y-53721000D03*
X53510000Y-53721000D03*
D27*
X57023000Y-50800000D03*
X57023000Y-48600000D03*
D28*
X50165000Y-45720000D03*
X50165000Y-38100000D03*
X50165000Y-67945000D03*
X87630000Y-88900000D03*
X50165000Y-30480000D03*
X86995000Y-27305000D03*
X50165000Y-88900000D03*
D23*
X54229000Y-52324000D03*
X56134000Y-65278000D03*
D28*
X50165000Y-60325000D03*
M02*
