G04 #@! TF.FileFunction,Paste,Top*
%FSLAX46Y46*%
G04 Gerber Fmt 4.6, Leading zero omitted, Abs format (unit mm)*
G04 Created by KiCad (PCBNEW 4.0.6) date Sun Feb 11 00:43:15 2018*
%MOMM*%
%LPD*%
G01*
G04 APERTURE LIST*
%ADD10C,0.100000*%
%ADD11R,6.000000X6.000000*%
%ADD12R,4.000000X2.500000*%
%ADD13R,2.440000X5.600000*%
%ADD14R,2.440000X0.890000*%
%ADD15R,2.500000X4.000000*%
%ADD16R,1.200000X0.750000*%
%ADD17R,0.750000X1.200000*%
%ADD18R,1.250000X1.500000*%
%ADD19R,1.390000X4.600000*%
%ADD20R,10.800000X9.400000*%
%ADD21R,4.600000X1.390000*%
%ADD22R,9.400000X10.800000*%
%ADD23R,1.200000X0.900000*%
%ADD24R,0.900000X1.200000*%
%ADD25C,1.500000*%
%ADD26R,0.890000X0.270000*%
%ADD27R,0.504000X0.564000*%
G04 APERTURE END LIST*
D10*
D11*
X80518000Y-33944000D03*
X80518000Y-47244000D03*
D12*
X55055000Y-83185000D03*
X63055000Y-83185000D03*
D13*
X62925000Y-62932000D03*
X67885000Y-62932000D03*
D14*
X62925000Y-58797000D03*
X67885000Y-58797000D03*
D15*
X63500000Y-36640000D03*
X63500000Y-44640000D03*
D12*
X75755000Y-83185000D03*
X67755000Y-83185000D03*
X55055000Y-72390000D03*
X63055000Y-72390000D03*
X75755000Y-72390000D03*
X67755000Y-72390000D03*
D16*
X55560000Y-56388000D03*
X53660000Y-56388000D03*
D17*
X63754000Y-56085000D03*
X63754000Y-57985000D03*
D16*
X55560000Y-50927000D03*
X53660000Y-50927000D03*
D18*
X69977000Y-53427000D03*
X69977000Y-50927000D03*
D16*
X55560000Y-49657000D03*
X53660000Y-49657000D03*
X55560000Y-55118000D03*
X53660000Y-55118000D03*
X57978000Y-65024000D03*
X59878000Y-65024000D03*
X75372000Y-63881000D03*
X73472000Y-63881000D03*
X57978000Y-66294000D03*
X59878000Y-66294000D03*
X75372000Y-65151000D03*
X73472000Y-65151000D03*
X75372000Y-66421000D03*
X73472000Y-66421000D03*
D17*
X57150000Y-41402000D03*
X57150000Y-43302000D03*
D19*
X84709000Y-69326000D03*
D20*
X84709000Y-78486000D03*
D19*
X82169000Y-69326000D03*
X87249000Y-69326000D03*
D21*
X75549000Y-57150000D03*
D22*
X84709000Y-57150000D03*
D21*
X75549000Y-59690000D03*
X75549000Y-54610000D03*
D23*
X64643000Y-52324000D03*
X66843000Y-52324000D03*
X66843000Y-50927000D03*
X64643000Y-50927000D03*
X54823000Y-52324000D03*
X57023000Y-52324000D03*
D24*
X65532000Y-58111000D03*
X65532000Y-55911000D03*
D23*
X55710000Y-57785000D03*
X53510000Y-57785000D03*
X55710000Y-53721000D03*
X53510000Y-53721000D03*
D24*
X57023000Y-50800000D03*
X57023000Y-48600000D03*
D25*
X54229000Y-52324000D03*
X56134000Y-65278000D03*
D26*
X58640000Y-52556000D03*
X58640000Y-53056000D03*
X58640000Y-53556000D03*
X58640000Y-54056000D03*
X58640000Y-54556000D03*
X62850000Y-54556000D03*
X62850000Y-54056000D03*
X62850000Y-53556000D03*
X62850000Y-53056000D03*
X62850000Y-52556000D03*
D27*
X61165000Y-54026000D03*
X61165000Y-53086000D03*
X60325000Y-54026000D03*
X60325000Y-53086000D03*
M02*
