G04 #@! TF.FileFunction,Copper,L1,Top,Signal*
%FSLAX46Y46*%
G04 Gerber Fmt 4.6, Leading zero omitted, Abs format (unit mm)*
G04 Created by KiCad (PCBNEW 4.0.6) date Sun Feb 11 00:43:15 2018*
%MOMM*%
%LPD*%
G01*
G04 APERTURE LIST*
%ADD10C,0.100000*%
%ADD11C,0.150000*%
%ADD12R,6.000000X6.000000*%
%ADD13R,4.000000X2.500000*%
%ADD14R,2.440000X5.600000*%
%ADD15R,2.440000X0.890000*%
%ADD16R,2.500000X4.000000*%
%ADD17R,1.200000X0.750000*%
%ADD18R,0.750000X1.200000*%
%ADD19R,1.250000X1.500000*%
%ADD20R,1.390000X4.600000*%
%ADD21R,10.800000X9.400000*%
%ADD22C,1.500000*%
%ADD23R,4.600000X1.390000*%
%ADD24R,9.400000X10.800000*%
%ADD25R,1.200000X0.900000*%
%ADD26R,0.900000X1.200000*%
%ADD27C,6.400000*%
%ADD28R,0.890000X0.270000*%
%ADD29R,0.840000X0.940000*%
%ADD30C,0.500000*%
%ADD31C,0.350000*%
%ADD32C,0.250000*%
%ADD33C,0.750000*%
%ADD34C,1.000000*%
%ADD35C,0.254000*%
G04 APERTURE END LIST*
D10*
D11*
X63423857Y-29688143D02*
X63309571Y-29650048D01*
X63271476Y-29611952D01*
X63233381Y-29535762D01*
X63233381Y-29421476D01*
X63271476Y-29345286D01*
X63309571Y-29307190D01*
X63385762Y-29269095D01*
X63690524Y-29269095D01*
X63690524Y-30069095D01*
X63423857Y-30069095D01*
X63347667Y-30031000D01*
X63309571Y-29992905D01*
X63271476Y-29916714D01*
X63271476Y-29840524D01*
X63309571Y-29764333D01*
X63347667Y-29726238D01*
X63423857Y-29688143D01*
X63690524Y-29688143D01*
X62776238Y-29269095D02*
X62852429Y-29307190D01*
X62890524Y-29345286D01*
X62928619Y-29421476D01*
X62928619Y-29650048D01*
X62890524Y-29726238D01*
X62852429Y-29764333D01*
X62776238Y-29802429D01*
X62661952Y-29802429D01*
X62585762Y-29764333D01*
X62547667Y-29726238D01*
X62509571Y-29650048D01*
X62509571Y-29421476D01*
X62547667Y-29345286D01*
X62585762Y-29307190D01*
X62661952Y-29269095D01*
X62776238Y-29269095D01*
X62052428Y-29269095D02*
X62128619Y-29307190D01*
X62166714Y-29345286D01*
X62204809Y-29421476D01*
X62204809Y-29650048D01*
X62166714Y-29726238D01*
X62128619Y-29764333D01*
X62052428Y-29802429D01*
X61938142Y-29802429D01*
X61861952Y-29764333D01*
X61823857Y-29726238D01*
X61785761Y-29650048D01*
X61785761Y-29421476D01*
X61823857Y-29345286D01*
X61861952Y-29307190D01*
X61938142Y-29269095D01*
X62052428Y-29269095D01*
X61480999Y-29307190D02*
X61404809Y-29269095D01*
X61252428Y-29269095D01*
X61176237Y-29307190D01*
X61138142Y-29383381D01*
X61138142Y-29421476D01*
X61176237Y-29497667D01*
X61252428Y-29535762D01*
X61366713Y-29535762D01*
X61442904Y-29573857D01*
X61480999Y-29650048D01*
X61480999Y-29688143D01*
X61442904Y-29764333D01*
X61366713Y-29802429D01*
X61252428Y-29802429D01*
X61176237Y-29764333D01*
X60909571Y-29802429D02*
X60604809Y-29802429D01*
X60795285Y-30069095D02*
X60795285Y-29383381D01*
X60757190Y-29307190D01*
X60680999Y-29269095D01*
X60604809Y-29269095D01*
X59271475Y-29345286D02*
X59309570Y-29307190D01*
X59423856Y-29269095D01*
X59500046Y-29269095D01*
X59614332Y-29307190D01*
X59690523Y-29383381D01*
X59728618Y-29459571D01*
X59766713Y-29611952D01*
X59766713Y-29726238D01*
X59728618Y-29878619D01*
X59690523Y-29954810D01*
X59614332Y-30031000D01*
X59500046Y-30069095D01*
X59423856Y-30069095D01*
X59309570Y-30031000D01*
X59271475Y-29992905D01*
X58814332Y-29269095D02*
X58890523Y-29307190D01*
X58928618Y-29345286D01*
X58966713Y-29421476D01*
X58966713Y-29650048D01*
X58928618Y-29726238D01*
X58890523Y-29764333D01*
X58814332Y-29802429D01*
X58700046Y-29802429D01*
X58623856Y-29764333D01*
X58585761Y-29726238D01*
X58547665Y-29650048D01*
X58547665Y-29421476D01*
X58585761Y-29345286D01*
X58623856Y-29307190D01*
X58700046Y-29269095D01*
X58814332Y-29269095D01*
X58204808Y-29802429D02*
X58204808Y-29269095D01*
X58204808Y-29726238D02*
X58166713Y-29764333D01*
X58090522Y-29802429D01*
X57976236Y-29802429D01*
X57900046Y-29764333D01*
X57861951Y-29688143D01*
X57861951Y-29269095D01*
X57557188Y-29802429D02*
X57366712Y-29269095D01*
X57176236Y-29802429D01*
X56566712Y-29307190D02*
X56642902Y-29269095D01*
X56795283Y-29269095D01*
X56871474Y-29307190D01*
X56909569Y-29383381D01*
X56909569Y-29688143D01*
X56871474Y-29764333D01*
X56795283Y-29802429D01*
X56642902Y-29802429D01*
X56566712Y-29764333D01*
X56528617Y-29688143D01*
X56528617Y-29611952D01*
X56909569Y-29535762D01*
X56185760Y-29269095D02*
X56185760Y-29802429D01*
X56185760Y-29650048D02*
X56147665Y-29726238D01*
X56109569Y-29764333D01*
X56033379Y-29802429D01*
X55957188Y-29802429D01*
X55804808Y-29802429D02*
X55500046Y-29802429D01*
X55690522Y-30069095D02*
X55690522Y-29383381D01*
X55652427Y-29307190D01*
X55576236Y-29269095D01*
X55500046Y-29269095D01*
X54928617Y-29307190D02*
X55004807Y-29269095D01*
X55157188Y-29269095D01*
X55233379Y-29307190D01*
X55271474Y-29383381D01*
X55271474Y-29688143D01*
X55233379Y-29764333D01*
X55157188Y-29802429D01*
X55004807Y-29802429D01*
X54928617Y-29764333D01*
X54890522Y-29688143D01*
X54890522Y-29611952D01*
X55271474Y-29535762D01*
X54547665Y-29269095D02*
X54547665Y-29802429D01*
X54547665Y-29650048D02*
X54509570Y-29726238D01*
X54471474Y-29764333D01*
X54395284Y-29802429D01*
X54319093Y-29802429D01*
X62623857Y-27919095D02*
X62890524Y-28300048D01*
X63081000Y-27919095D02*
X63081000Y-28719095D01*
X62776238Y-28719095D01*
X62700047Y-28681000D01*
X62661952Y-28642905D01*
X62623857Y-28566714D01*
X62623857Y-28452429D01*
X62661952Y-28376238D01*
X62700047Y-28338143D01*
X62776238Y-28300048D01*
X63081000Y-28300048D01*
X62357190Y-28719095D02*
X61823857Y-27919095D01*
X61823857Y-28719095D02*
X62357190Y-27919095D01*
X61519095Y-28223857D02*
X60909571Y-28223857D01*
X60642905Y-28719095D02*
X60376238Y-27919095D01*
X60109571Y-28719095D01*
X59842905Y-27919095D02*
X59842905Y-28719095D01*
X59461953Y-27919095D02*
X59461953Y-28719095D01*
X59157191Y-28719095D01*
X59081000Y-28681000D01*
X59042905Y-28642905D01*
X59004810Y-28566714D01*
X59004810Y-28452429D01*
X59042905Y-28376238D01*
X59081000Y-28338143D01*
X59157191Y-28300048D01*
X59461953Y-28300048D01*
X58661953Y-28338143D02*
X58395286Y-28338143D01*
X58281000Y-27919095D02*
X58661953Y-27919095D01*
X58661953Y-28719095D01*
X58281000Y-28719095D01*
X57481000Y-27919095D02*
X57747667Y-28300048D01*
X57938143Y-27919095D02*
X57938143Y-28719095D01*
X57633381Y-28719095D01*
X57557190Y-28681000D01*
X57519095Y-28642905D01*
X57481000Y-28566714D01*
X57481000Y-28452429D01*
X57519095Y-28376238D01*
X57557190Y-28338143D01*
X57633381Y-28300048D01*
X57938143Y-28300048D01*
X56528619Y-27919095D02*
X56528619Y-28452429D01*
X56528619Y-28300048D02*
X56490524Y-28376238D01*
X56452428Y-28414333D01*
X56376238Y-28452429D01*
X56300047Y-28452429D01*
X55728619Y-27957190D02*
X55804809Y-27919095D01*
X55957190Y-27919095D01*
X56033381Y-27957190D01*
X56071476Y-28033381D01*
X56071476Y-28338143D01*
X56033381Y-28414333D01*
X55957190Y-28452429D01*
X55804809Y-28452429D01*
X55728619Y-28414333D01*
X55690524Y-28338143D01*
X55690524Y-28261952D01*
X56071476Y-28185762D01*
X55423857Y-28452429D02*
X55233381Y-27919095D01*
X55042905Y-28452429D01*
X54395286Y-28452429D02*
X54395286Y-27919095D01*
X54585762Y-28757190D02*
X54776238Y-28185762D01*
X54281000Y-28185762D01*
D12*
X80518000Y-33944000D03*
X80518000Y-47244000D03*
D13*
X55055000Y-83185000D03*
X63055000Y-83185000D03*
D14*
X62925000Y-62932000D03*
X67885000Y-62932000D03*
D15*
X62925000Y-58797000D03*
X67885000Y-58797000D03*
D16*
X63500000Y-36640000D03*
X63500000Y-44640000D03*
D13*
X75755000Y-83185000D03*
X67755000Y-83185000D03*
X55055000Y-72390000D03*
X63055000Y-72390000D03*
X75755000Y-72390000D03*
X67755000Y-72390000D03*
D17*
X55560000Y-56388000D03*
X53660000Y-56388000D03*
D18*
X63754000Y-56085000D03*
X63754000Y-57985000D03*
D17*
X55560000Y-50927000D03*
X53660000Y-50927000D03*
D19*
X69977000Y-53427000D03*
X69977000Y-50927000D03*
D17*
X55560000Y-49657000D03*
X53660000Y-49657000D03*
X55560000Y-55118000D03*
X53660000Y-55118000D03*
X57978000Y-65024000D03*
X59878000Y-65024000D03*
X75372000Y-63881000D03*
X73472000Y-63881000D03*
X57978000Y-66294000D03*
X59878000Y-66294000D03*
X75372000Y-65151000D03*
X73472000Y-65151000D03*
X75372000Y-66421000D03*
X73472000Y-66421000D03*
D18*
X57150000Y-41402000D03*
X57150000Y-43302000D03*
D20*
X84709000Y-69326000D03*
D21*
X84709000Y-78486000D03*
D20*
X82169000Y-69326000D03*
X87249000Y-69326000D03*
D22*
X68199000Y-52832000D03*
D23*
X75549000Y-57150000D03*
D24*
X84709000Y-57150000D03*
D23*
X75549000Y-59690000D03*
X75549000Y-54610000D03*
D25*
X64643000Y-52324000D03*
X66843000Y-52324000D03*
X66843000Y-50927000D03*
X64643000Y-50927000D03*
X54823000Y-52324000D03*
X57023000Y-52324000D03*
D26*
X65532000Y-58111000D03*
X65532000Y-55911000D03*
D25*
X55710000Y-57785000D03*
X53510000Y-57785000D03*
X55710000Y-53721000D03*
X53510000Y-53721000D03*
D26*
X57023000Y-50800000D03*
X57023000Y-48600000D03*
D27*
X50165000Y-45720000D03*
X50165000Y-38100000D03*
X50165000Y-67945000D03*
D22*
X54229000Y-52324000D03*
X56134000Y-65278000D03*
D27*
X50165000Y-60325000D03*
D28*
X58640000Y-52556000D03*
X58640000Y-53056000D03*
X58640000Y-53556000D03*
X58640000Y-54056000D03*
X58640000Y-54556000D03*
X62850000Y-54556000D03*
X62850000Y-54056000D03*
X62850000Y-53556000D03*
X62850000Y-53056000D03*
X62850000Y-52556000D03*
D29*
X61165000Y-54026000D03*
X61165000Y-53086000D03*
X60325000Y-54026000D03*
X60325000Y-53086000D03*
D30*
X69977000Y-53302000D02*
X71120000Y-52159000D01*
X71120000Y-52159000D02*
X71120000Y-40640000D01*
X71120000Y-40640000D02*
X69025000Y-38545000D01*
X69025000Y-38545000D02*
X67120000Y-38545000D01*
D31*
X67120000Y-38545000D02*
X63500000Y-38545000D01*
X69977000Y-53427000D02*
X69977000Y-53302000D01*
X69977000Y-53427000D02*
X69977000Y-52977002D01*
X69977000Y-52977002D02*
X67818001Y-50818003D01*
X67818001Y-50818003D02*
X67818001Y-50176999D01*
X67818001Y-50176999D02*
X67743001Y-50101999D01*
X67743001Y-50101999D02*
X65942999Y-50101999D01*
X65786000Y-50258998D02*
X65786000Y-51562000D01*
X65942999Y-50101999D02*
X65786000Y-50258998D01*
X65786000Y-51562000D02*
X65024000Y-52324000D01*
X65024000Y-52324000D02*
X64643000Y-52324000D01*
X64643000Y-52324000D02*
X63837000Y-52324000D01*
X63837000Y-52324000D02*
X63605000Y-52556000D01*
D32*
X62850000Y-52556000D02*
X63605000Y-52556000D01*
D31*
X64448989Y-53653989D02*
X64516000Y-53721000D01*
X64516000Y-53721000D02*
X67422998Y-53721000D01*
X67422998Y-53721000D02*
X67658999Y-53957001D01*
X67658999Y-53957001D02*
X69571999Y-53957001D01*
X69571999Y-53957001D02*
X69977000Y-53552000D01*
X69977000Y-53552000D02*
X69977000Y-53427000D01*
D32*
X64351000Y-53556000D02*
X64448989Y-53653989D01*
X62850000Y-53556000D02*
X64351000Y-53556000D01*
D31*
X52705000Y-45720000D02*
X53660000Y-46675000D01*
X53660000Y-46675000D02*
X53660000Y-49657000D01*
X53510000Y-53721000D02*
X53360000Y-53721000D01*
X53360000Y-53721000D02*
X52710000Y-53071000D01*
X52710000Y-51652000D02*
X53435000Y-50927000D01*
X52710000Y-53071000D02*
X52710000Y-51652000D01*
X53435000Y-50927000D02*
X53660000Y-50927000D01*
X61165000Y-53086000D02*
X61165000Y-53036000D01*
X61165000Y-53036000D02*
X63467000Y-50734000D01*
X63467000Y-50734000D02*
X63500000Y-50734000D01*
X64643000Y-50927000D02*
X63693000Y-50927000D01*
X63693000Y-50927000D02*
X63500000Y-50734000D01*
X63500000Y-50734000D02*
X63500000Y-48895000D01*
X63500000Y-48895000D02*
X63500000Y-46545000D01*
X69977000Y-50927000D02*
X69977000Y-49827000D01*
X69977000Y-49827000D02*
X66695000Y-46545000D01*
X66695000Y-46545000D02*
X65100000Y-46545000D01*
X65100000Y-46545000D02*
X63500000Y-46545000D01*
X53660000Y-50927000D02*
X53660000Y-49657000D01*
X53885000Y-50927000D02*
X53660000Y-50927000D01*
X54676000Y-58801000D02*
X60149000Y-58801000D01*
X60149000Y-58801000D02*
X61165000Y-57785000D01*
X53510000Y-57785000D02*
X53660000Y-57785000D01*
X53660000Y-57785000D02*
X54676000Y-58801000D01*
X53660000Y-56388000D02*
X53660000Y-57635000D01*
X53660000Y-57635000D02*
X53510000Y-57785000D01*
X53660000Y-55118000D02*
X53660000Y-56388000D01*
X53510000Y-53721000D02*
X53510000Y-54968000D01*
X53510000Y-54968000D02*
X53660000Y-55118000D01*
D32*
X58640000Y-54556000D02*
X59795000Y-54556000D01*
X59795000Y-54556000D02*
X60325000Y-54026000D01*
D30*
X63754000Y-57785000D02*
X61165000Y-57785000D01*
D33*
X84709000Y-69326000D02*
X84709000Y-72126000D01*
X84709000Y-72126000D02*
X84709000Y-78486000D01*
D32*
X58640000Y-53556000D02*
X57553169Y-53556000D01*
X57553169Y-53556000D02*
X57315000Y-53794169D01*
D31*
X57315000Y-53794169D02*
X57107990Y-54001179D01*
X57107990Y-54001179D02*
X57107990Y-55668010D01*
X57107990Y-55668010D02*
X56388000Y-56388000D01*
X56388000Y-56388000D02*
X55560000Y-56388000D01*
D30*
X63754000Y-56285000D02*
X65508000Y-56285000D01*
X65508000Y-56285000D02*
X65532000Y-56261000D01*
X63373000Y-54864000D02*
X63754000Y-55245000D01*
X63754000Y-55245000D02*
X63754000Y-56285000D01*
D32*
X63065000Y-54556000D02*
X63373000Y-54864000D01*
X62850000Y-54556000D02*
X63065000Y-54556000D01*
D31*
X55560000Y-50927000D02*
X56896000Y-50927000D01*
X56896000Y-50927000D02*
X57023000Y-50800000D01*
X58039000Y-52324000D02*
X58039000Y-51689000D01*
X58039000Y-51689000D02*
X57150000Y-50800000D01*
X57150000Y-50800000D02*
X57023000Y-50800000D01*
X58039000Y-52324000D02*
X58039000Y-52304000D01*
D32*
X58271000Y-52556000D02*
X58039000Y-52324000D01*
X58640000Y-52556000D02*
X58271000Y-52556000D01*
X58640000Y-52556000D02*
X58525000Y-52556000D01*
D31*
X55560000Y-49657000D02*
X56134000Y-49657000D01*
X56134000Y-49657000D02*
X57023000Y-48768000D01*
X57023000Y-48768000D02*
X57023000Y-48600000D01*
D34*
X75549000Y-57150000D02*
X84709000Y-57150000D01*
D31*
X66843000Y-50927000D02*
X66843000Y-52324000D01*
X68199000Y-52832000D02*
X67351000Y-52832000D01*
X67351000Y-52832000D02*
X66843000Y-52324000D01*
D32*
X62850000Y-53056000D02*
X64494998Y-53056000D01*
X64494998Y-53056000D02*
X64537999Y-53099001D01*
X64537999Y-53099001D02*
X65558001Y-53099001D01*
X65558001Y-53099001D02*
X66333002Y-52324000D01*
X66333002Y-52324000D02*
X66421000Y-52324000D01*
X66421000Y-52324000D02*
X66548000Y-52324000D01*
D30*
X75549000Y-54610000D02*
X72609710Y-54610000D01*
X67056000Y-55626000D02*
X65913000Y-54483000D01*
X65913000Y-54483000D02*
X64262000Y-54483000D01*
X72609710Y-54610000D02*
X71593710Y-55626000D01*
X71593710Y-55626000D02*
X67056000Y-55626000D01*
D32*
X62850000Y-54056000D02*
X63545000Y-54056000D01*
X63545000Y-54056000D02*
X63972000Y-54483000D01*
X63972000Y-54483000D02*
X64262000Y-54483000D01*
D30*
X67885000Y-58797000D02*
X66218000Y-58797000D01*
X66218000Y-58797000D02*
X65532000Y-58111000D01*
D34*
X75549000Y-59690000D02*
X75549000Y-59706000D01*
X75549000Y-59706000D02*
X74803000Y-60452000D01*
D31*
X74803000Y-60452000D02*
X74803000Y-60436000D01*
X57023000Y-52324000D02*
X57023000Y-52959000D01*
X57023000Y-52959000D02*
X57120000Y-53056000D01*
X55710000Y-53721000D02*
X55710000Y-54968000D01*
X55710000Y-54968000D02*
X55560000Y-55118000D01*
X57120000Y-53056000D02*
X56799000Y-53056000D01*
X56799000Y-53056000D02*
X56134000Y-53721000D01*
X56134000Y-53721000D02*
X55710000Y-53721000D01*
D32*
X58640000Y-53056000D02*
X57120000Y-53056000D01*
D31*
X57658000Y-56896000D02*
X56769000Y-57785000D01*
X56769000Y-57785000D02*
X55710000Y-57785000D01*
X57658000Y-54229000D02*
X57658000Y-56896000D01*
D32*
X57831000Y-54056000D02*
X57658000Y-54229000D01*
X58640000Y-54056000D02*
X57831000Y-54056000D01*
D35*
G36*
X83439000Y-28829000D02*
X83449006Y-28878410D01*
X83476197Y-28918803D01*
X85381197Y-30823803D01*
X85423211Y-30851666D01*
X85471000Y-30861000D01*
X90353000Y-30861000D01*
X90353000Y-39878000D01*
X73660000Y-39878000D01*
X73610590Y-39888006D01*
X73570197Y-39915197D01*
X71279160Y-42206234D01*
X71266674Y-42197702D01*
X71120000Y-42168000D01*
X56671158Y-42168000D01*
X56146579Y-41643421D01*
X56026674Y-41562702D01*
X55880000Y-41533000D01*
X50602606Y-41533000D01*
X47117000Y-38047394D01*
X47117000Y-34163000D01*
X51689000Y-34163000D01*
X51738410Y-34152994D01*
X51778803Y-34125803D01*
X53937803Y-31966803D01*
X53965666Y-31924789D01*
X53975000Y-31877000D01*
X53975000Y-30643000D01*
X64258000Y-30643000D01*
X64258000Y-30501259D01*
X64262000Y-30480000D01*
X64262000Y-27757000D01*
X83439000Y-27757000D01*
X83439000Y-28829000D01*
X83439000Y-28829000D01*
G37*
X83439000Y-28829000D02*
X83449006Y-28878410D01*
X83476197Y-28918803D01*
X85381197Y-30823803D01*
X85423211Y-30851666D01*
X85471000Y-30861000D01*
X90353000Y-30861000D01*
X90353000Y-39878000D01*
X73660000Y-39878000D01*
X73610590Y-39888006D01*
X73570197Y-39915197D01*
X71279160Y-42206234D01*
X71266674Y-42197702D01*
X71120000Y-42168000D01*
X56671158Y-42168000D01*
X56146579Y-41643421D01*
X56026674Y-41562702D01*
X55880000Y-41533000D01*
X50602606Y-41533000D01*
X47117000Y-38047394D01*
X47117000Y-34163000D01*
X51689000Y-34163000D01*
X51738410Y-34152994D01*
X51778803Y-34125803D01*
X53937803Y-31966803D01*
X53965666Y-31924789D01*
X53975000Y-31877000D01*
X53975000Y-30643000D01*
X64258000Y-30643000D01*
X64258000Y-30501259D01*
X64262000Y-30480000D01*
X64262000Y-27757000D01*
X83439000Y-27757000D01*
X83439000Y-28829000D01*
G36*
X90353000Y-72898000D02*
X85461000Y-72898000D01*
X85461000Y-71999660D01*
X85543708Y-71984097D01*
X85672020Y-71901530D01*
X85758101Y-71775547D01*
X85788385Y-71626000D01*
X85788385Y-67026000D01*
X85762097Y-66886292D01*
X85679530Y-66757980D01*
X85553547Y-66671899D01*
X85404000Y-66641615D01*
X84014000Y-66641615D01*
X83874292Y-66667903D01*
X83745980Y-66750470D01*
X83659899Y-66876453D01*
X83629615Y-67026000D01*
X83629615Y-71626000D01*
X83655903Y-71765708D01*
X83738470Y-71894020D01*
X83864453Y-71980101D01*
X83957000Y-71998842D01*
X83957000Y-72898000D01*
X79427606Y-72898000D01*
X78867000Y-72337394D01*
X78867000Y-59055000D01*
X78856994Y-59005590D01*
X78829803Y-58965197D01*
X77559803Y-57695197D01*
X77517789Y-57667334D01*
X77470000Y-57658000D01*
X73787000Y-57658000D01*
X73787000Y-55689385D01*
X77849000Y-55689385D01*
X77988708Y-55663097D01*
X78117020Y-55580530D01*
X78203101Y-55454547D01*
X78233385Y-55305000D01*
X78233385Y-53915000D01*
X78207097Y-53775292D01*
X78124530Y-53646980D01*
X77998547Y-53560899D01*
X77849000Y-53530615D01*
X73249000Y-53530615D01*
X73109292Y-53556903D01*
X72980980Y-53639470D01*
X72894899Y-53765453D01*
X72864615Y-53915000D01*
X72864615Y-53983000D01*
X72609710Y-53983000D01*
X72582932Y-53988326D01*
X71380159Y-52785553D01*
X71563356Y-52602356D01*
X71606830Y-52537292D01*
X71699272Y-52398943D01*
X71747000Y-52159000D01*
X71747000Y-42451158D01*
X73816158Y-40382000D01*
X90353000Y-40382000D01*
X90353000Y-72898000D01*
X90353000Y-72898000D01*
G37*
X90353000Y-72898000D02*
X85461000Y-72898000D01*
X85461000Y-71999660D01*
X85543708Y-71984097D01*
X85672020Y-71901530D01*
X85758101Y-71775547D01*
X85788385Y-71626000D01*
X85788385Y-67026000D01*
X85762097Y-66886292D01*
X85679530Y-66757980D01*
X85553547Y-66671899D01*
X85404000Y-66641615D01*
X84014000Y-66641615D01*
X83874292Y-66667903D01*
X83745980Y-66750470D01*
X83659899Y-66876453D01*
X83629615Y-67026000D01*
X83629615Y-71626000D01*
X83655903Y-71765708D01*
X83738470Y-71894020D01*
X83864453Y-71980101D01*
X83957000Y-71998842D01*
X83957000Y-72898000D01*
X79427606Y-72898000D01*
X78867000Y-72337394D01*
X78867000Y-59055000D01*
X78856994Y-59005590D01*
X78829803Y-58965197D01*
X77559803Y-57695197D01*
X77517789Y-57667334D01*
X77470000Y-57658000D01*
X73787000Y-57658000D01*
X73787000Y-55689385D01*
X77849000Y-55689385D01*
X77988708Y-55663097D01*
X78117020Y-55580530D01*
X78203101Y-55454547D01*
X78233385Y-55305000D01*
X78233385Y-53915000D01*
X78207097Y-53775292D01*
X78124530Y-53646980D01*
X77998547Y-53560899D01*
X77849000Y-53530615D01*
X73249000Y-53530615D01*
X73109292Y-53556903D01*
X72980980Y-53639470D01*
X72894899Y-53765453D01*
X72864615Y-53915000D01*
X72864615Y-53983000D01*
X72609710Y-53983000D01*
X72582932Y-53988326D01*
X71380159Y-52785553D01*
X71563356Y-52602356D01*
X71606830Y-52537292D01*
X71699272Y-52398943D01*
X71747000Y-52159000D01*
X71747000Y-42451158D01*
X73816158Y-40382000D01*
X90353000Y-40382000D01*
X90353000Y-72898000D01*
G36*
X78363000Y-72390000D02*
X78390709Y-72531862D01*
X78473421Y-72656579D01*
X79108421Y-73291579D01*
X79228326Y-73372298D01*
X79375000Y-73402000D01*
X90353000Y-73402000D01*
X90353000Y-85217000D01*
X86106000Y-85217000D01*
X86056590Y-85227006D01*
X86016197Y-85254197D01*
X83984197Y-87286197D01*
X83956334Y-87328211D01*
X83947000Y-87376000D01*
X83947000Y-91623000D01*
X53848000Y-91623000D01*
X53848000Y-87503000D01*
X53837994Y-87453590D01*
X53810803Y-87413197D01*
X51651803Y-85254197D01*
X51609789Y-85226334D01*
X51562000Y-85217000D01*
X47061000Y-85217000D01*
X47061000Y-67521983D01*
X50210980Y-64897000D01*
X53340000Y-64897000D01*
X53396796Y-64883592D01*
X54139980Y-64512000D01*
X58678000Y-64512000D01*
X58678000Y-68580000D01*
X58705709Y-68721862D01*
X58788421Y-68846579D01*
X59948000Y-70006158D01*
X59948000Y-74295000D01*
X59975709Y-74436862D01*
X60058421Y-74561579D01*
X60583000Y-75086158D01*
X60583000Y-84455000D01*
X60608783Y-84592023D01*
X60689763Y-84717871D01*
X60813326Y-84802298D01*
X60960000Y-84832000D01*
X69850000Y-84832000D01*
X69987023Y-84806217D01*
X70112871Y-84725237D01*
X70197298Y-84601674D01*
X70227000Y-84455000D01*
X70227000Y-75086158D01*
X70751579Y-74561579D01*
X70832298Y-74441674D01*
X70862000Y-74295000D01*
X70862000Y-70641158D01*
X71276158Y-70227000D01*
X74295000Y-70227000D01*
X74432023Y-70201217D01*
X74557871Y-70120237D01*
X74642298Y-69996674D01*
X74672000Y-69850000D01*
X74672000Y-63627000D01*
X78363000Y-63627000D01*
X78363000Y-72390000D01*
X78363000Y-72390000D01*
G37*
X78363000Y-72390000D02*
X78390709Y-72531862D01*
X78473421Y-72656579D01*
X79108421Y-73291579D01*
X79228326Y-73372298D01*
X79375000Y-73402000D01*
X90353000Y-73402000D01*
X90353000Y-85217000D01*
X86106000Y-85217000D01*
X86056590Y-85227006D01*
X86016197Y-85254197D01*
X83984197Y-87286197D01*
X83956334Y-87328211D01*
X83947000Y-87376000D01*
X83947000Y-91623000D01*
X53848000Y-91623000D01*
X53848000Y-87503000D01*
X53837994Y-87453590D01*
X53810803Y-87413197D01*
X51651803Y-85254197D01*
X51609789Y-85226334D01*
X51562000Y-85217000D01*
X47061000Y-85217000D01*
X47061000Y-67521983D01*
X50210980Y-64897000D01*
X53340000Y-64897000D01*
X53396796Y-64883592D01*
X54139980Y-64512000D01*
X58678000Y-64512000D01*
X58678000Y-68580000D01*
X58705709Y-68721862D01*
X58788421Y-68846579D01*
X59948000Y-70006158D01*
X59948000Y-74295000D01*
X59975709Y-74436862D01*
X60058421Y-74561579D01*
X60583000Y-75086158D01*
X60583000Y-84455000D01*
X60608783Y-84592023D01*
X60689763Y-84717871D01*
X60813326Y-84802298D01*
X60960000Y-84832000D01*
X69850000Y-84832000D01*
X69987023Y-84806217D01*
X70112871Y-84725237D01*
X70197298Y-84601674D01*
X70227000Y-84455000D01*
X70227000Y-75086158D01*
X70751579Y-74561579D01*
X70832298Y-74441674D01*
X70862000Y-74295000D01*
X70862000Y-70641158D01*
X71276158Y-70227000D01*
X74295000Y-70227000D01*
X74432023Y-70201217D01*
X74557871Y-70120237D01*
X74642298Y-69996674D01*
X74672000Y-69850000D01*
X74672000Y-63627000D01*
X78363000Y-63627000D01*
X78363000Y-72390000D01*
G36*
X56425197Y-42634803D02*
X56467211Y-42662666D01*
X56515000Y-42672000D01*
X70493000Y-42672000D01*
X70493000Y-51308000D01*
X69088644Y-51308000D01*
X68370001Y-50589357D01*
X68370001Y-50176999D01*
X68344830Y-50050453D01*
X68327983Y-49965757D01*
X68208324Y-49786676D01*
X68133324Y-49711676D01*
X67954243Y-49592017D01*
X67743001Y-49549999D01*
X65942999Y-49549999D01*
X65731757Y-49592017D01*
X65552676Y-49711676D01*
X65395677Y-49868675D01*
X65276018Y-50047756D01*
X65267095Y-50092615D01*
X65234000Y-50258998D01*
X65234000Y-51308000D01*
X64770000Y-51308000D01*
X64720590Y-51318006D01*
X64678965Y-51346447D01*
X64651685Y-51388841D01*
X64643000Y-51435000D01*
X64643000Y-51489615D01*
X64043000Y-51489615D01*
X63903292Y-51515903D01*
X63774980Y-51598470D01*
X63688899Y-51724453D01*
X63672650Y-51804691D01*
X63625759Y-51814018D01*
X63446677Y-51933677D01*
X63343847Y-52036507D01*
X63295000Y-52026615D01*
X62405000Y-52026615D01*
X62265292Y-52052903D01*
X62136980Y-52135470D01*
X62050899Y-52261453D01*
X62020615Y-52411000D01*
X62020615Y-52701000D01*
X62041097Y-52809854D01*
X62020615Y-52911000D01*
X62020615Y-53201000D01*
X62041097Y-53309854D01*
X62020615Y-53411000D01*
X62020615Y-53701000D01*
X62041097Y-53809854D01*
X62020615Y-53911000D01*
X62020615Y-54201000D01*
X62041097Y-54309854D01*
X62020615Y-54411000D01*
X62020615Y-54701000D01*
X62046903Y-54840708D01*
X62129470Y-54969020D01*
X62255453Y-55055101D01*
X62405000Y-55085385D01*
X62790037Y-55085385D01*
X62793728Y-55103942D01*
X62929644Y-55307356D01*
X63013589Y-55391301D01*
X62994615Y-55485000D01*
X62994615Y-56685000D01*
X63020903Y-56824708D01*
X63103470Y-56953020D01*
X63229453Y-57039101D01*
X63379000Y-57069385D01*
X64129000Y-57069385D01*
X64268708Y-57043097D01*
X64397020Y-56960530D01*
X64430179Y-56912000D01*
X64643000Y-56912000D01*
X64643000Y-64135000D01*
X64653006Y-64184410D01*
X64680197Y-64224803D01*
X66302221Y-65846827D01*
X66306903Y-65871708D01*
X66389470Y-66000020D01*
X66515453Y-66086101D01*
X66548108Y-66092714D01*
X66585197Y-66129803D01*
X66627211Y-66157666D01*
X66675000Y-66167000D01*
X69850000Y-66167000D01*
X69899410Y-66156994D01*
X69939803Y-66129803D01*
X72442606Y-63627000D01*
X74168000Y-63627000D01*
X74168000Y-69723000D01*
X71120000Y-69723000D01*
X71070590Y-69733006D01*
X71030197Y-69760197D01*
X70395197Y-70395197D01*
X70367334Y-70437211D01*
X70358000Y-70485000D01*
X70358000Y-74242394D01*
X69760197Y-74840197D01*
X69732334Y-74882211D01*
X69723000Y-74930000D01*
X69723000Y-84328000D01*
X61087000Y-84328000D01*
X61087000Y-74930000D01*
X61076994Y-74880590D01*
X61049803Y-74840197D01*
X60452000Y-74242394D01*
X60452000Y-69850000D01*
X60441994Y-69800590D01*
X60414803Y-69760197D01*
X59182000Y-68527394D01*
X59182000Y-64135000D01*
X59171994Y-64085590D01*
X59143553Y-64043965D01*
X59101159Y-64016685D01*
X59055000Y-64008000D01*
X54027606Y-64008000D01*
X53429803Y-63410197D01*
X53387789Y-63382334D01*
X53340000Y-63373000D01*
X49582606Y-63373000D01*
X47061000Y-60851394D01*
X47061000Y-52547191D01*
X53101805Y-52547191D01*
X53273019Y-52961560D01*
X53589772Y-53278867D01*
X54003842Y-53450804D01*
X54452191Y-53451195D01*
X54725615Y-53338218D01*
X54725615Y-54171000D01*
X54751903Y-54310708D01*
X54805692Y-54394298D01*
X54691980Y-54467470D01*
X54605899Y-54593453D01*
X54575615Y-54743000D01*
X54575615Y-55493000D01*
X54601903Y-55632708D01*
X54680308Y-55754552D01*
X54605899Y-55863453D01*
X54575615Y-56013000D01*
X54575615Y-56763000D01*
X54601903Y-56902708D01*
X54684470Y-57031020D01*
X54805101Y-57113444D01*
X54755899Y-57185453D01*
X54725615Y-57335000D01*
X54725615Y-58235000D01*
X54751903Y-58374708D01*
X54834470Y-58503020D01*
X54960453Y-58589101D01*
X55110000Y-58619385D01*
X56310000Y-58619385D01*
X56449708Y-58593097D01*
X56578020Y-58510530D01*
X56664101Y-58384547D01*
X56673730Y-58337000D01*
X56769000Y-58337000D01*
X56980242Y-58294982D01*
X57159323Y-58175323D01*
X58048323Y-57286323D01*
X58167982Y-57107242D01*
X58210000Y-56896000D01*
X58210000Y-54585385D01*
X59085000Y-54585385D01*
X59224708Y-54559097D01*
X59353020Y-54476530D01*
X59439101Y-54350547D01*
X59469385Y-54201000D01*
X59469385Y-53911000D01*
X59448903Y-53802146D01*
X59469385Y-53701000D01*
X59469385Y-53411000D01*
X59448903Y-53302146D01*
X59469385Y-53201000D01*
X59469385Y-52911000D01*
X59448903Y-52802146D01*
X59469385Y-52701000D01*
X59469385Y-52411000D01*
X59443097Y-52271292D01*
X59360530Y-52142980D01*
X59234547Y-52056899D01*
X59085000Y-52026615D01*
X58591000Y-52026615D01*
X58591000Y-51689000D01*
X58582252Y-51645020D01*
X58548982Y-51477758D01*
X58429323Y-51298677D01*
X57857385Y-50726739D01*
X57857385Y-50200000D01*
X57831097Y-50060292D01*
X57748530Y-49931980D01*
X57622547Y-49845899D01*
X57473000Y-49815615D01*
X56756031Y-49815615D01*
X56987261Y-49584385D01*
X57473000Y-49584385D01*
X57612708Y-49558097D01*
X57741020Y-49475530D01*
X57827101Y-49349547D01*
X57857385Y-49200000D01*
X57857385Y-48000000D01*
X57831097Y-47860292D01*
X57748530Y-47731980D01*
X57622547Y-47645899D01*
X57473000Y-47615615D01*
X56573000Y-47615615D01*
X56433292Y-47641903D01*
X56304980Y-47724470D01*
X56218899Y-47850453D01*
X56188615Y-48000000D01*
X56188615Y-48821739D01*
X56112739Y-48897615D01*
X54960000Y-48897615D01*
X54820292Y-48923903D01*
X54691980Y-49006470D01*
X54605899Y-49132453D01*
X54575615Y-49282000D01*
X54575615Y-50032000D01*
X54601903Y-50171708D01*
X54680308Y-50293552D01*
X54605899Y-50402453D01*
X54575615Y-50552000D01*
X54575615Y-51247629D01*
X54454158Y-51197196D01*
X54005809Y-51196805D01*
X53591440Y-51368019D01*
X53274133Y-51684772D01*
X53102196Y-52098842D01*
X53101805Y-52547191D01*
X47061000Y-52547191D01*
X47061000Y-45193606D01*
X50217606Y-42037000D01*
X55827394Y-42037000D01*
X56425197Y-42634803D01*
X56425197Y-42634803D01*
G37*
X56425197Y-42634803D02*
X56467211Y-42662666D01*
X56515000Y-42672000D01*
X70493000Y-42672000D01*
X70493000Y-51308000D01*
X69088644Y-51308000D01*
X68370001Y-50589357D01*
X68370001Y-50176999D01*
X68344830Y-50050453D01*
X68327983Y-49965757D01*
X68208324Y-49786676D01*
X68133324Y-49711676D01*
X67954243Y-49592017D01*
X67743001Y-49549999D01*
X65942999Y-49549999D01*
X65731757Y-49592017D01*
X65552676Y-49711676D01*
X65395677Y-49868675D01*
X65276018Y-50047756D01*
X65267095Y-50092615D01*
X65234000Y-50258998D01*
X65234000Y-51308000D01*
X64770000Y-51308000D01*
X64720590Y-51318006D01*
X64678965Y-51346447D01*
X64651685Y-51388841D01*
X64643000Y-51435000D01*
X64643000Y-51489615D01*
X64043000Y-51489615D01*
X63903292Y-51515903D01*
X63774980Y-51598470D01*
X63688899Y-51724453D01*
X63672650Y-51804691D01*
X63625759Y-51814018D01*
X63446677Y-51933677D01*
X63343847Y-52036507D01*
X63295000Y-52026615D01*
X62405000Y-52026615D01*
X62265292Y-52052903D01*
X62136980Y-52135470D01*
X62050899Y-52261453D01*
X62020615Y-52411000D01*
X62020615Y-52701000D01*
X62041097Y-52809854D01*
X62020615Y-52911000D01*
X62020615Y-53201000D01*
X62041097Y-53309854D01*
X62020615Y-53411000D01*
X62020615Y-53701000D01*
X62041097Y-53809854D01*
X62020615Y-53911000D01*
X62020615Y-54201000D01*
X62041097Y-54309854D01*
X62020615Y-54411000D01*
X62020615Y-54701000D01*
X62046903Y-54840708D01*
X62129470Y-54969020D01*
X62255453Y-55055101D01*
X62405000Y-55085385D01*
X62790037Y-55085385D01*
X62793728Y-55103942D01*
X62929644Y-55307356D01*
X63013589Y-55391301D01*
X62994615Y-55485000D01*
X62994615Y-56685000D01*
X63020903Y-56824708D01*
X63103470Y-56953020D01*
X63229453Y-57039101D01*
X63379000Y-57069385D01*
X64129000Y-57069385D01*
X64268708Y-57043097D01*
X64397020Y-56960530D01*
X64430179Y-56912000D01*
X64643000Y-56912000D01*
X64643000Y-64135000D01*
X64653006Y-64184410D01*
X64680197Y-64224803D01*
X66302221Y-65846827D01*
X66306903Y-65871708D01*
X66389470Y-66000020D01*
X66515453Y-66086101D01*
X66548108Y-66092714D01*
X66585197Y-66129803D01*
X66627211Y-66157666D01*
X66675000Y-66167000D01*
X69850000Y-66167000D01*
X69899410Y-66156994D01*
X69939803Y-66129803D01*
X72442606Y-63627000D01*
X74168000Y-63627000D01*
X74168000Y-69723000D01*
X71120000Y-69723000D01*
X71070590Y-69733006D01*
X71030197Y-69760197D01*
X70395197Y-70395197D01*
X70367334Y-70437211D01*
X70358000Y-70485000D01*
X70358000Y-74242394D01*
X69760197Y-74840197D01*
X69732334Y-74882211D01*
X69723000Y-74930000D01*
X69723000Y-84328000D01*
X61087000Y-84328000D01*
X61087000Y-74930000D01*
X61076994Y-74880590D01*
X61049803Y-74840197D01*
X60452000Y-74242394D01*
X60452000Y-69850000D01*
X60441994Y-69800590D01*
X60414803Y-69760197D01*
X59182000Y-68527394D01*
X59182000Y-64135000D01*
X59171994Y-64085590D01*
X59143553Y-64043965D01*
X59101159Y-64016685D01*
X59055000Y-64008000D01*
X54027606Y-64008000D01*
X53429803Y-63410197D01*
X53387789Y-63382334D01*
X53340000Y-63373000D01*
X49582606Y-63373000D01*
X47061000Y-60851394D01*
X47061000Y-52547191D01*
X53101805Y-52547191D01*
X53273019Y-52961560D01*
X53589772Y-53278867D01*
X54003842Y-53450804D01*
X54452191Y-53451195D01*
X54725615Y-53338218D01*
X54725615Y-54171000D01*
X54751903Y-54310708D01*
X54805692Y-54394298D01*
X54691980Y-54467470D01*
X54605899Y-54593453D01*
X54575615Y-54743000D01*
X54575615Y-55493000D01*
X54601903Y-55632708D01*
X54680308Y-55754552D01*
X54605899Y-55863453D01*
X54575615Y-56013000D01*
X54575615Y-56763000D01*
X54601903Y-56902708D01*
X54684470Y-57031020D01*
X54805101Y-57113444D01*
X54755899Y-57185453D01*
X54725615Y-57335000D01*
X54725615Y-58235000D01*
X54751903Y-58374708D01*
X54834470Y-58503020D01*
X54960453Y-58589101D01*
X55110000Y-58619385D01*
X56310000Y-58619385D01*
X56449708Y-58593097D01*
X56578020Y-58510530D01*
X56664101Y-58384547D01*
X56673730Y-58337000D01*
X56769000Y-58337000D01*
X56980242Y-58294982D01*
X57159323Y-58175323D01*
X58048323Y-57286323D01*
X58167982Y-57107242D01*
X58210000Y-56896000D01*
X58210000Y-54585385D01*
X59085000Y-54585385D01*
X59224708Y-54559097D01*
X59353020Y-54476530D01*
X59439101Y-54350547D01*
X59469385Y-54201000D01*
X59469385Y-53911000D01*
X59448903Y-53802146D01*
X59469385Y-53701000D01*
X59469385Y-53411000D01*
X59448903Y-53302146D01*
X59469385Y-53201000D01*
X59469385Y-52911000D01*
X59448903Y-52802146D01*
X59469385Y-52701000D01*
X59469385Y-52411000D01*
X59443097Y-52271292D01*
X59360530Y-52142980D01*
X59234547Y-52056899D01*
X59085000Y-52026615D01*
X58591000Y-52026615D01*
X58591000Y-51689000D01*
X58582252Y-51645020D01*
X58548982Y-51477758D01*
X58429323Y-51298677D01*
X57857385Y-50726739D01*
X57857385Y-50200000D01*
X57831097Y-50060292D01*
X57748530Y-49931980D01*
X57622547Y-49845899D01*
X57473000Y-49815615D01*
X56756031Y-49815615D01*
X56987261Y-49584385D01*
X57473000Y-49584385D01*
X57612708Y-49558097D01*
X57741020Y-49475530D01*
X57827101Y-49349547D01*
X57857385Y-49200000D01*
X57857385Y-48000000D01*
X57831097Y-47860292D01*
X57748530Y-47731980D01*
X57622547Y-47645899D01*
X57473000Y-47615615D01*
X56573000Y-47615615D01*
X56433292Y-47641903D01*
X56304980Y-47724470D01*
X56218899Y-47850453D01*
X56188615Y-48000000D01*
X56188615Y-48821739D01*
X56112739Y-48897615D01*
X54960000Y-48897615D01*
X54820292Y-48923903D01*
X54691980Y-49006470D01*
X54605899Y-49132453D01*
X54575615Y-49282000D01*
X54575615Y-50032000D01*
X54601903Y-50171708D01*
X54680308Y-50293552D01*
X54605899Y-50402453D01*
X54575615Y-50552000D01*
X54575615Y-51247629D01*
X54454158Y-51197196D01*
X54005809Y-51196805D01*
X53591440Y-51368019D01*
X53274133Y-51684772D01*
X53102196Y-52098842D01*
X53101805Y-52547191D01*
X47061000Y-52547191D01*
X47061000Y-45193606D01*
X50217606Y-42037000D01*
X55827394Y-42037000D01*
X56425197Y-42634803D01*
G36*
X72843409Y-58003237D02*
X72936927Y-58148567D01*
X73079619Y-58246064D01*
X73249000Y-58280365D01*
X77361495Y-58280365D01*
X78313000Y-59231870D01*
X78313000Y-63073000D01*
X75983679Y-63073000D01*
X75972000Y-63070635D01*
X74772000Y-63070635D01*
X74759431Y-63073000D01*
X74083679Y-63073000D01*
X74072000Y-63070635D01*
X72872000Y-63070635D01*
X72859431Y-63073000D01*
X72390000Y-63073000D01*
X72229323Y-63104384D01*
X72088065Y-63198065D01*
X69673130Y-65613000D01*
X66851870Y-65613000D01*
X65197000Y-63958130D01*
X65197000Y-59563000D01*
X69215000Y-59563000D01*
X69264410Y-59552994D01*
X69304803Y-59525803D01*
X69431803Y-59398803D01*
X69459666Y-59356789D01*
X69469000Y-59309000D01*
X69469000Y-58345606D01*
X69902606Y-57912000D01*
X72826242Y-57912000D01*
X72843409Y-58003237D01*
X72843409Y-58003237D01*
G37*
X72843409Y-58003237D02*
X72936927Y-58148567D01*
X73079619Y-58246064D01*
X73249000Y-58280365D01*
X77361495Y-58280365D01*
X78313000Y-59231870D01*
X78313000Y-63073000D01*
X75983679Y-63073000D01*
X75972000Y-63070635D01*
X74772000Y-63070635D01*
X74759431Y-63073000D01*
X74083679Y-63073000D01*
X74072000Y-63070635D01*
X72872000Y-63070635D01*
X72859431Y-63073000D01*
X72390000Y-63073000D01*
X72229323Y-63104384D01*
X72088065Y-63198065D01*
X69673130Y-65613000D01*
X66851870Y-65613000D01*
X65197000Y-63958130D01*
X65197000Y-59563000D01*
X69215000Y-59563000D01*
X69264410Y-59552994D01*
X69304803Y-59525803D01*
X69431803Y-59398803D01*
X69459666Y-59356789D01*
X69469000Y-59309000D01*
X69469000Y-58345606D01*
X69902606Y-57912000D01*
X72826242Y-57912000D01*
X72843409Y-58003237D01*
M02*
