G04 #@! TF.FileFunction,Copper,L1,Top,Signal*
%FSLAX46Y46*%
G04 Gerber Fmt 4.6, Leading zero omitted, Abs format (unit mm)*
G04 Created by KiCad (PCBNEW 4.0.6) date Thu Nov 16 07:41:36 2017*
%MOMM*%
%LPD*%
G01*
G04 APERTURE LIST*
%ADD10C,0.100000*%
%ADD11C,1.524000*%
%ADD12O,3.400000X2.200000*%
%ADD13R,1.700000X1.700000*%
%ADD14O,1.700000X1.700000*%
%ADD15R,1.550000X0.600000*%
%ADD16R,0.750000X1.200000*%
%ADD17C,0.600000*%
%ADD18C,0.600000*%
%ADD19C,0.254000*%
G04 APERTURE END LIST*
D10*
D11*
X97500000Y-40690000D03*
X97500000Y-43230000D03*
X97500000Y-45770000D03*
X97500000Y-48310000D03*
D12*
X100500000Y-52000000D03*
D13*
X93080000Y-43460000D03*
D14*
X93080000Y-46000000D03*
X90540000Y-43460000D03*
X90540000Y-46000000D03*
X88000000Y-43460000D03*
X88000000Y-46000000D03*
D15*
X93000000Y-52810000D03*
X93000000Y-51540000D03*
X93000000Y-50270000D03*
X93000000Y-49000000D03*
X87600000Y-49000000D03*
X87600000Y-50270000D03*
X87600000Y-51540000D03*
X87600000Y-52810000D03*
D16*
X95000000Y-51450000D03*
X95000000Y-49550000D03*
D17*
X92000000Y-50500000D03*
X92000000Y-52000000D03*
X91000000Y-53000000D03*
X92550000Y-47950000D03*
X104000000Y-46500000D03*
X104000000Y-45000000D03*
X104000000Y-44000000D03*
X104000000Y-42500000D03*
X86000000Y-36500000D03*
X86000000Y-38000000D03*
X90500000Y-39500000D03*
X93500000Y-41000000D03*
X95000000Y-41000000D03*
X92000000Y-41000000D03*
X89000000Y-39500000D03*
X87500000Y-39500000D03*
X86000000Y-39500000D03*
X86000000Y-41000000D03*
X87500000Y-41000000D03*
X89000000Y-41000000D03*
X90500000Y-41000000D03*
X101000000Y-48000000D03*
X102500000Y-48000000D03*
X101000000Y-41000000D03*
X102500000Y-41000000D03*
X104000000Y-52500000D03*
X104000000Y-51000000D03*
X104000000Y-49500000D03*
X104000000Y-48000000D03*
X105500000Y-48000000D03*
X107000000Y-48000000D03*
X108500000Y-48000000D03*
X109500000Y-47000000D03*
X109500000Y-45500000D03*
X109500000Y-43500000D03*
X109500000Y-44500000D03*
X109500000Y-42000000D03*
X108500000Y-41000000D03*
X107000000Y-41000000D03*
X105500000Y-41000000D03*
X104000000Y-41000000D03*
X104000000Y-39500000D03*
X104000000Y-38000000D03*
X104000000Y-36500000D03*
D18*
X92230000Y-50270000D02*
X92000000Y-50500000D01*
X93000000Y-50270000D02*
X92230000Y-50270000D01*
X93000000Y-51540000D02*
X92460000Y-51540000D01*
X92460000Y-51540000D02*
X92000000Y-52000000D01*
X95000000Y-51450000D02*
X96227762Y-51450000D01*
X96227762Y-51450000D02*
X98762001Y-48915761D01*
X98762001Y-48915761D02*
X98762001Y-47032001D01*
X98762001Y-47032001D02*
X98261999Y-46531999D01*
X98261999Y-46531999D02*
X97500000Y-45770000D01*
X97500000Y-45770000D02*
X95390000Y-45770000D01*
X93000000Y-52810000D02*
X91190000Y-52810000D01*
X91190000Y-52810000D02*
X91000000Y-53000000D01*
X97000000Y-45770000D02*
X95390000Y-45770000D01*
X95390000Y-45770000D02*
X93080000Y-43460000D01*
X93000000Y-52810000D02*
X93640000Y-52810000D01*
X93640000Y-52810000D02*
X95000000Y-51450000D01*
X93000000Y-49000000D02*
X93000000Y-48400000D01*
X93000000Y-48400000D02*
X92550000Y-47950000D01*
X104000000Y-46500000D02*
X104000000Y-48000000D01*
X104000000Y-44000000D02*
X104000000Y-45000000D01*
X104000000Y-42500000D02*
X104000000Y-44000000D01*
X86000000Y-39500000D02*
X86000000Y-38000000D01*
X95000000Y-41000000D02*
X97190000Y-41000000D01*
X97190000Y-41000000D02*
X97500000Y-40690000D01*
X95000000Y-41000000D02*
X93500000Y-41000000D01*
X90500000Y-41000000D02*
X92000000Y-41000000D01*
X89000000Y-39500000D02*
X90500000Y-39500000D01*
X86000000Y-41000000D02*
X86000000Y-39500000D01*
X87500000Y-41000000D02*
X86000000Y-41000000D01*
X90500000Y-41000000D02*
X89000000Y-41000000D01*
X97000000Y-40690000D02*
X99810000Y-40690000D01*
X99810000Y-40690000D02*
X104000000Y-36500000D01*
X102500000Y-48000000D02*
X101000000Y-48000000D01*
X102500000Y-41000000D02*
X101000000Y-41000000D01*
X104000000Y-51000000D02*
X104000000Y-52500000D01*
X105500000Y-48000000D02*
X104000000Y-48000000D01*
X108500000Y-48000000D02*
X107000000Y-48000000D01*
X109500000Y-47000000D02*
X108500000Y-48000000D01*
X109500000Y-44500000D02*
X109500000Y-45500000D01*
X109500000Y-43500000D02*
X109500000Y-44500000D01*
X109500000Y-42000000D02*
X109500000Y-43500000D01*
X107000000Y-41000000D02*
X108500000Y-41000000D01*
X104000000Y-41000000D02*
X105500000Y-41000000D01*
X104000000Y-38000000D02*
X104000000Y-39500000D01*
X93000000Y-49000000D02*
X94450000Y-49000000D01*
X94450000Y-49000000D02*
X95000000Y-49550000D01*
X87600000Y-52810000D02*
X88166386Y-52810000D01*
X88166386Y-52810000D02*
X91500000Y-49476386D01*
X91500000Y-49476386D02*
X91500000Y-47580000D01*
X91500000Y-47580000D02*
X92230001Y-46849999D01*
X92230001Y-46849999D02*
X93080000Y-46000000D01*
X87600000Y-51540000D02*
X88305002Y-51540000D01*
X88305002Y-51540000D02*
X90000000Y-49845002D01*
X90000000Y-49845002D02*
X90000000Y-46540000D01*
X90000000Y-46540000D02*
X90540000Y-46000000D01*
X87600000Y-49000000D02*
X87000000Y-49000000D01*
X87000000Y-49000000D02*
X86500000Y-48500000D01*
X86500000Y-43757919D02*
X86797919Y-43460000D01*
X86500000Y-48500000D02*
X86500000Y-43757919D01*
X86797919Y-43460000D02*
X88000000Y-43460000D01*
X88230000Y-50270000D02*
X88875001Y-49624999D01*
X88875001Y-49624999D02*
X88875001Y-46875001D01*
X88875001Y-46875001D02*
X88849999Y-46849999D01*
X88849999Y-46849999D02*
X88000000Y-46000000D01*
X87600000Y-50270000D02*
X88230000Y-50270000D01*
X87600000Y-50270000D02*
X87730000Y-50270000D01*
D19*
G36*
X92315000Y-36315000D02*
X92000000Y-36315000D01*
X91933830Y-36328162D01*
X91675022Y-36366222D01*
X91675020Y-36366223D01*
X91675018Y-36366223D01*
X91560329Y-36413729D01*
X91428093Y-36468503D01*
X91428092Y-36468504D01*
X91428090Y-36468505D01*
X91265879Y-36576892D01*
X91220995Y-36621777D01*
X90971719Y-36018485D01*
X90484082Y-35529996D01*
X89846627Y-35265301D01*
X89156401Y-35264699D01*
X88518485Y-35528281D01*
X88029996Y-36015918D01*
X87765301Y-36653373D01*
X87764699Y-37343599D01*
X88028281Y-37981515D01*
X88515918Y-38470004D01*
X89153373Y-38734699D01*
X89843599Y-38735301D01*
X90481515Y-38471719D01*
X90815000Y-38138816D01*
X90815000Y-38500000D01*
X90828162Y-38566170D01*
X90828162Y-38633636D01*
X90866222Y-38824978D01*
X90866223Y-38824980D01*
X90866223Y-38824982D01*
X90913729Y-38939671D01*
X90968503Y-39071907D01*
X90968504Y-39071908D01*
X90968505Y-39071910D01*
X91076892Y-39234121D01*
X91151410Y-39308638D01*
X91265879Y-39423108D01*
X91428090Y-39531495D01*
X91428092Y-39531496D01*
X91428093Y-39531497D01*
X91519976Y-39569556D01*
X91675018Y-39633777D01*
X91675020Y-39633777D01*
X91675022Y-39633778D01*
X91866365Y-39671838D01*
X91933830Y-39671838D01*
X92000000Y-39685000D01*
X96494156Y-39685000D01*
X96404774Y-39774382D01*
X96519785Y-39889393D01*
X96277603Y-39958857D01*
X96090856Y-40482302D01*
X96118638Y-41037368D01*
X96277603Y-41421143D01*
X96519787Y-41490608D01*
X97320395Y-40690000D01*
X97679605Y-40690000D01*
X98480213Y-41490608D01*
X98722397Y-41421143D01*
X98909144Y-40897698D01*
X98881362Y-40342632D01*
X98722397Y-39958857D01*
X98480213Y-39889392D01*
X97679605Y-40690000D01*
X97320395Y-40690000D01*
X97306253Y-40675858D01*
X97485858Y-40496253D01*
X97500000Y-40510395D01*
X98300608Y-39709787D01*
X98231143Y-39467603D01*
X97832019Y-39325209D01*
X97848590Y-39308638D01*
X97923108Y-39234121D01*
X98031495Y-39071910D01*
X98031496Y-39071908D01*
X98031497Y-39071907D01*
X98086271Y-38939671D01*
X98133777Y-38824982D01*
X98133777Y-38824980D01*
X98133778Y-38824978D01*
X98171838Y-38633635D01*
X98171838Y-38566170D01*
X98185000Y-38500000D01*
X98185000Y-38138508D01*
X98515918Y-38470004D01*
X99153373Y-38734699D01*
X99843599Y-38735301D01*
X100481515Y-38471719D01*
X100970004Y-37984082D01*
X101234699Y-37346627D01*
X101235301Y-36656401D01*
X100971719Y-36018485D01*
X100484082Y-35529996D01*
X99846627Y-35265301D01*
X99156401Y-35264699D01*
X98518485Y-35528281D01*
X98029996Y-36015918D01*
X97778592Y-36621364D01*
X97734121Y-36576892D01*
X97571910Y-36468505D01*
X97571908Y-36468504D01*
X97571907Y-36468503D01*
X97439671Y-36413729D01*
X97324982Y-36366223D01*
X97324980Y-36366223D01*
X97324978Y-36366222D01*
X97133636Y-36328162D01*
X97066170Y-36328162D01*
X97000000Y-36315000D01*
X96685000Y-36315000D01*
X96685000Y-34685000D01*
X102432533Y-34685000D01*
X103189435Y-34835557D01*
X103773908Y-35226089D01*
X104164443Y-35810565D01*
X104315000Y-36567467D01*
X104315000Y-40000000D01*
X104367143Y-40262138D01*
X104515632Y-40484368D01*
X104737862Y-40632857D01*
X105000000Y-40685000D01*
X108432533Y-40685000D01*
X108998094Y-40797497D01*
X109420357Y-41079643D01*
X109702503Y-41501906D01*
X109815000Y-42067466D01*
X109815000Y-46932534D01*
X109702503Y-47498094D01*
X109420357Y-47920357D01*
X108998094Y-48202503D01*
X108432533Y-48315000D01*
X105000000Y-48315000D01*
X104737862Y-48367143D01*
X104515632Y-48515632D01*
X104367143Y-48737862D01*
X104315000Y-49000000D01*
X104315000Y-51932533D01*
X104164443Y-52689435D01*
X103773908Y-53273911D01*
X103189435Y-53664443D01*
X102432533Y-53815000D01*
X91475982Y-53815000D01*
X91528943Y-53793117D01*
X91577144Y-53745000D01*
X92163569Y-53745000D01*
X92225000Y-53757440D01*
X93775000Y-53757440D01*
X94010317Y-53713162D01*
X94226441Y-53574090D01*
X94293114Y-53476511D01*
X94301145Y-53471145D01*
X95074850Y-52697440D01*
X95375000Y-52697440D01*
X95610317Y-52653162D01*
X95826441Y-52514090D01*
X95914644Y-52385000D01*
X96227762Y-52385000D01*
X96585571Y-52313827D01*
X96888907Y-52111145D01*
X99423146Y-49576906D01*
X99625828Y-49273570D01*
X99697001Y-48915761D01*
X99697001Y-47032006D01*
X99697002Y-47032001D01*
X99625828Y-46674193D01*
X99625828Y-46674192D01*
X99423146Y-46370856D01*
X98983675Y-45931385D01*
X99473352Y-46134716D01*
X100123795Y-46135284D01*
X100724943Y-45886894D01*
X101185278Y-45427363D01*
X101434716Y-44826648D01*
X101434718Y-44823795D01*
X104564716Y-44823795D01*
X104813106Y-45424943D01*
X105272637Y-45885278D01*
X105873352Y-46134716D01*
X106523795Y-46135284D01*
X107124943Y-45886894D01*
X107585278Y-45427363D01*
X107834716Y-44826648D01*
X107835284Y-44176205D01*
X107586894Y-43575057D01*
X107127363Y-43114722D01*
X106526648Y-42865284D01*
X105876205Y-42864716D01*
X105275057Y-43113106D01*
X104814722Y-43572637D01*
X104565284Y-44173352D01*
X104564716Y-44823795D01*
X101434718Y-44823795D01*
X101435284Y-44176205D01*
X101186894Y-43575057D01*
X100727363Y-43114722D01*
X100126648Y-42865284D01*
X99476205Y-42864716D01*
X98897111Y-43103994D01*
X98897242Y-42953339D01*
X98685010Y-42439697D01*
X98292370Y-42046371D01*
X98100273Y-41966605D01*
X98231143Y-41912397D01*
X98300608Y-41670213D01*
X97500000Y-40869605D01*
X96699392Y-41670213D01*
X96768857Y-41912397D01*
X96909318Y-41962509D01*
X96709697Y-42044990D01*
X96316371Y-42437630D01*
X96103243Y-42950900D01*
X96102758Y-43506661D01*
X96314990Y-44020303D01*
X96707630Y-44413629D01*
X96915512Y-44499949D01*
X96709697Y-44584990D01*
X96459250Y-44835000D01*
X95777290Y-44835000D01*
X94577440Y-43635150D01*
X94577440Y-42610000D01*
X94533162Y-42374683D01*
X94394090Y-42158559D01*
X94181890Y-42013569D01*
X93930000Y-41962560D01*
X92230000Y-41962560D01*
X91994683Y-42006838D01*
X91778559Y-42145910D01*
X91633569Y-42358110D01*
X91611699Y-42466107D01*
X91306924Y-42188355D01*
X90896890Y-42018524D01*
X90667000Y-42139845D01*
X90667000Y-43333000D01*
X90687000Y-43333000D01*
X90687000Y-43587000D01*
X90667000Y-43587000D01*
X90667000Y-43607000D01*
X90413000Y-43607000D01*
X90413000Y-43587000D01*
X90393000Y-43587000D01*
X90393000Y-43333000D01*
X90413000Y-43333000D01*
X90413000Y-42139845D01*
X90183110Y-42018524D01*
X89773076Y-42188355D01*
X89344817Y-42578642D01*
X89277702Y-42721553D01*
X89050054Y-42380853D01*
X88568285Y-42058946D01*
X88000000Y-41945907D01*
X87431715Y-42058946D01*
X86949946Y-42380853D01*
X86853630Y-42525000D01*
X86797919Y-42525000D01*
X86440110Y-42596173D01*
X86136774Y-42798855D01*
X85838855Y-43096774D01*
X85685000Y-43327035D01*
X85685000Y-36567467D01*
X85835557Y-35810565D01*
X86226089Y-35226092D01*
X86810565Y-34835557D01*
X87567467Y-34685000D01*
X92315000Y-34685000D01*
X92315000Y-36315000D01*
X92315000Y-36315000D01*
G37*
X92315000Y-36315000D02*
X92000000Y-36315000D01*
X91933830Y-36328162D01*
X91675022Y-36366222D01*
X91675020Y-36366223D01*
X91675018Y-36366223D01*
X91560329Y-36413729D01*
X91428093Y-36468503D01*
X91428092Y-36468504D01*
X91428090Y-36468505D01*
X91265879Y-36576892D01*
X91220995Y-36621777D01*
X90971719Y-36018485D01*
X90484082Y-35529996D01*
X89846627Y-35265301D01*
X89156401Y-35264699D01*
X88518485Y-35528281D01*
X88029996Y-36015918D01*
X87765301Y-36653373D01*
X87764699Y-37343599D01*
X88028281Y-37981515D01*
X88515918Y-38470004D01*
X89153373Y-38734699D01*
X89843599Y-38735301D01*
X90481515Y-38471719D01*
X90815000Y-38138816D01*
X90815000Y-38500000D01*
X90828162Y-38566170D01*
X90828162Y-38633636D01*
X90866222Y-38824978D01*
X90866223Y-38824980D01*
X90866223Y-38824982D01*
X90913729Y-38939671D01*
X90968503Y-39071907D01*
X90968504Y-39071908D01*
X90968505Y-39071910D01*
X91076892Y-39234121D01*
X91151410Y-39308638D01*
X91265879Y-39423108D01*
X91428090Y-39531495D01*
X91428092Y-39531496D01*
X91428093Y-39531497D01*
X91519976Y-39569556D01*
X91675018Y-39633777D01*
X91675020Y-39633777D01*
X91675022Y-39633778D01*
X91866365Y-39671838D01*
X91933830Y-39671838D01*
X92000000Y-39685000D01*
X96494156Y-39685000D01*
X96404774Y-39774382D01*
X96519785Y-39889393D01*
X96277603Y-39958857D01*
X96090856Y-40482302D01*
X96118638Y-41037368D01*
X96277603Y-41421143D01*
X96519787Y-41490608D01*
X97320395Y-40690000D01*
X97679605Y-40690000D01*
X98480213Y-41490608D01*
X98722397Y-41421143D01*
X98909144Y-40897698D01*
X98881362Y-40342632D01*
X98722397Y-39958857D01*
X98480213Y-39889392D01*
X97679605Y-40690000D01*
X97320395Y-40690000D01*
X97306253Y-40675858D01*
X97485858Y-40496253D01*
X97500000Y-40510395D01*
X98300608Y-39709787D01*
X98231143Y-39467603D01*
X97832019Y-39325209D01*
X97848590Y-39308638D01*
X97923108Y-39234121D01*
X98031495Y-39071910D01*
X98031496Y-39071908D01*
X98031497Y-39071907D01*
X98086271Y-38939671D01*
X98133777Y-38824982D01*
X98133777Y-38824980D01*
X98133778Y-38824978D01*
X98171838Y-38633635D01*
X98171838Y-38566170D01*
X98185000Y-38500000D01*
X98185000Y-38138508D01*
X98515918Y-38470004D01*
X99153373Y-38734699D01*
X99843599Y-38735301D01*
X100481515Y-38471719D01*
X100970004Y-37984082D01*
X101234699Y-37346627D01*
X101235301Y-36656401D01*
X100971719Y-36018485D01*
X100484082Y-35529996D01*
X99846627Y-35265301D01*
X99156401Y-35264699D01*
X98518485Y-35528281D01*
X98029996Y-36015918D01*
X97778592Y-36621364D01*
X97734121Y-36576892D01*
X97571910Y-36468505D01*
X97571908Y-36468504D01*
X97571907Y-36468503D01*
X97439671Y-36413729D01*
X97324982Y-36366223D01*
X97324980Y-36366223D01*
X97324978Y-36366222D01*
X97133636Y-36328162D01*
X97066170Y-36328162D01*
X97000000Y-36315000D01*
X96685000Y-36315000D01*
X96685000Y-34685000D01*
X102432533Y-34685000D01*
X103189435Y-34835557D01*
X103773908Y-35226089D01*
X104164443Y-35810565D01*
X104315000Y-36567467D01*
X104315000Y-40000000D01*
X104367143Y-40262138D01*
X104515632Y-40484368D01*
X104737862Y-40632857D01*
X105000000Y-40685000D01*
X108432533Y-40685000D01*
X108998094Y-40797497D01*
X109420357Y-41079643D01*
X109702503Y-41501906D01*
X109815000Y-42067466D01*
X109815000Y-46932534D01*
X109702503Y-47498094D01*
X109420357Y-47920357D01*
X108998094Y-48202503D01*
X108432533Y-48315000D01*
X105000000Y-48315000D01*
X104737862Y-48367143D01*
X104515632Y-48515632D01*
X104367143Y-48737862D01*
X104315000Y-49000000D01*
X104315000Y-51932533D01*
X104164443Y-52689435D01*
X103773908Y-53273911D01*
X103189435Y-53664443D01*
X102432533Y-53815000D01*
X91475982Y-53815000D01*
X91528943Y-53793117D01*
X91577144Y-53745000D01*
X92163569Y-53745000D01*
X92225000Y-53757440D01*
X93775000Y-53757440D01*
X94010317Y-53713162D01*
X94226441Y-53574090D01*
X94293114Y-53476511D01*
X94301145Y-53471145D01*
X95074850Y-52697440D01*
X95375000Y-52697440D01*
X95610317Y-52653162D01*
X95826441Y-52514090D01*
X95914644Y-52385000D01*
X96227762Y-52385000D01*
X96585571Y-52313827D01*
X96888907Y-52111145D01*
X99423146Y-49576906D01*
X99625828Y-49273570D01*
X99697001Y-48915761D01*
X99697001Y-47032006D01*
X99697002Y-47032001D01*
X99625828Y-46674193D01*
X99625828Y-46674192D01*
X99423146Y-46370856D01*
X98983675Y-45931385D01*
X99473352Y-46134716D01*
X100123795Y-46135284D01*
X100724943Y-45886894D01*
X101185278Y-45427363D01*
X101434716Y-44826648D01*
X101434718Y-44823795D01*
X104564716Y-44823795D01*
X104813106Y-45424943D01*
X105272637Y-45885278D01*
X105873352Y-46134716D01*
X106523795Y-46135284D01*
X107124943Y-45886894D01*
X107585278Y-45427363D01*
X107834716Y-44826648D01*
X107835284Y-44176205D01*
X107586894Y-43575057D01*
X107127363Y-43114722D01*
X106526648Y-42865284D01*
X105876205Y-42864716D01*
X105275057Y-43113106D01*
X104814722Y-43572637D01*
X104565284Y-44173352D01*
X104564716Y-44823795D01*
X101434718Y-44823795D01*
X101435284Y-44176205D01*
X101186894Y-43575057D01*
X100727363Y-43114722D01*
X100126648Y-42865284D01*
X99476205Y-42864716D01*
X98897111Y-43103994D01*
X98897242Y-42953339D01*
X98685010Y-42439697D01*
X98292370Y-42046371D01*
X98100273Y-41966605D01*
X98231143Y-41912397D01*
X98300608Y-41670213D01*
X97500000Y-40869605D01*
X96699392Y-41670213D01*
X96768857Y-41912397D01*
X96909318Y-41962509D01*
X96709697Y-42044990D01*
X96316371Y-42437630D01*
X96103243Y-42950900D01*
X96102758Y-43506661D01*
X96314990Y-44020303D01*
X96707630Y-44413629D01*
X96915512Y-44499949D01*
X96709697Y-44584990D01*
X96459250Y-44835000D01*
X95777290Y-44835000D01*
X94577440Y-43635150D01*
X94577440Y-42610000D01*
X94533162Y-42374683D01*
X94394090Y-42158559D01*
X94181890Y-42013569D01*
X93930000Y-41962560D01*
X92230000Y-41962560D01*
X91994683Y-42006838D01*
X91778559Y-42145910D01*
X91633569Y-42358110D01*
X91611699Y-42466107D01*
X91306924Y-42188355D01*
X90896890Y-42018524D01*
X90667000Y-42139845D01*
X90667000Y-43333000D01*
X90687000Y-43333000D01*
X90687000Y-43587000D01*
X90667000Y-43587000D01*
X90667000Y-43607000D01*
X90413000Y-43607000D01*
X90413000Y-43587000D01*
X90393000Y-43587000D01*
X90393000Y-43333000D01*
X90413000Y-43333000D01*
X90413000Y-42139845D01*
X90183110Y-42018524D01*
X89773076Y-42188355D01*
X89344817Y-42578642D01*
X89277702Y-42721553D01*
X89050054Y-42380853D01*
X88568285Y-42058946D01*
X88000000Y-41945907D01*
X87431715Y-42058946D01*
X86949946Y-42380853D01*
X86853630Y-42525000D01*
X86797919Y-42525000D01*
X86440110Y-42596173D01*
X86136774Y-42798855D01*
X85838855Y-43096774D01*
X85685000Y-43327035D01*
X85685000Y-36567467D01*
X85835557Y-35810565D01*
X86226089Y-35226092D01*
X86810565Y-34835557D01*
X87567467Y-34685000D01*
X92315000Y-34685000D01*
X92315000Y-36315000D01*
G36*
X94728855Y-46431145D02*
X95032191Y-46633827D01*
X95390000Y-46705000D01*
X96459435Y-46705000D01*
X96707630Y-46953629D01*
X96915512Y-47039949D01*
X96709697Y-47124990D01*
X96316371Y-47517630D01*
X96103243Y-48030900D01*
X96102758Y-48586661D01*
X96314990Y-49100303D01*
X96707630Y-49493629D01*
X96816596Y-49538876D01*
X95961094Y-50394378D01*
X96010000Y-50276309D01*
X96010000Y-49835750D01*
X95851250Y-49677000D01*
X95127000Y-49677000D01*
X95127000Y-49697000D01*
X94873000Y-49697000D01*
X94873000Y-49677000D01*
X94853000Y-49677000D01*
X94853000Y-49423000D01*
X94873000Y-49423000D01*
X94873000Y-48473750D01*
X95127000Y-48473750D01*
X95127000Y-49423000D01*
X95851250Y-49423000D01*
X96010000Y-49264250D01*
X96010000Y-48823691D01*
X95913327Y-48590302D01*
X95734699Y-48411673D01*
X95501310Y-48315000D01*
X95285750Y-48315000D01*
X95127000Y-48473750D01*
X94873000Y-48473750D01*
X94714250Y-48315000D01*
X94498690Y-48315000D01*
X94331528Y-48384241D01*
X94313327Y-48340301D01*
X94134698Y-48161673D01*
X93901309Y-48065000D01*
X93285750Y-48065000D01*
X93127000Y-48223750D01*
X93127000Y-48873000D01*
X93147000Y-48873000D01*
X93147000Y-49127000D01*
X93127000Y-49127000D01*
X93127000Y-49147000D01*
X92873000Y-49147000D01*
X92873000Y-49127000D01*
X92853000Y-49127000D01*
X92853000Y-48873000D01*
X92873000Y-48873000D01*
X92873000Y-48223750D01*
X92714250Y-48065000D01*
X92435000Y-48065000D01*
X92435000Y-47967290D01*
X92920019Y-47482271D01*
X93080000Y-47514093D01*
X93648285Y-47401054D01*
X94130054Y-47079147D01*
X94451961Y-46597378D01*
X94525481Y-46227771D01*
X94728855Y-46431145D01*
X94728855Y-46431145D01*
G37*
X94728855Y-46431145D02*
X95032191Y-46633827D01*
X95390000Y-46705000D01*
X96459435Y-46705000D01*
X96707630Y-46953629D01*
X96915512Y-47039949D01*
X96709697Y-47124990D01*
X96316371Y-47517630D01*
X96103243Y-48030900D01*
X96102758Y-48586661D01*
X96314990Y-49100303D01*
X96707630Y-49493629D01*
X96816596Y-49538876D01*
X95961094Y-50394378D01*
X96010000Y-50276309D01*
X96010000Y-49835750D01*
X95851250Y-49677000D01*
X95127000Y-49677000D01*
X95127000Y-49697000D01*
X94873000Y-49697000D01*
X94873000Y-49677000D01*
X94853000Y-49677000D01*
X94853000Y-49423000D01*
X94873000Y-49423000D01*
X94873000Y-48473750D01*
X95127000Y-48473750D01*
X95127000Y-49423000D01*
X95851250Y-49423000D01*
X96010000Y-49264250D01*
X96010000Y-48823691D01*
X95913327Y-48590302D01*
X95734699Y-48411673D01*
X95501310Y-48315000D01*
X95285750Y-48315000D01*
X95127000Y-48473750D01*
X94873000Y-48473750D01*
X94714250Y-48315000D01*
X94498690Y-48315000D01*
X94331528Y-48384241D01*
X94313327Y-48340301D01*
X94134698Y-48161673D01*
X93901309Y-48065000D01*
X93285750Y-48065000D01*
X93127000Y-48223750D01*
X93127000Y-48873000D01*
X93147000Y-48873000D01*
X93147000Y-49127000D01*
X93127000Y-49127000D01*
X93127000Y-49147000D01*
X92873000Y-49147000D01*
X92873000Y-49127000D01*
X92853000Y-49127000D01*
X92853000Y-48873000D01*
X92873000Y-48873000D01*
X92873000Y-48223750D01*
X92714250Y-48065000D01*
X92435000Y-48065000D01*
X92435000Y-47967290D01*
X92920019Y-47482271D01*
X93080000Y-47514093D01*
X93648285Y-47401054D01*
X94130054Y-47079147D01*
X94451961Y-46597378D01*
X94525481Y-46227771D01*
X94728855Y-46431145D01*
M02*
