M48
;DRILL file {KiCad 4.0.6} date Fri Jul 21 15:56:33 2017
;FORMAT={-:-/ absolute / inch / decimal}
FMAT,2
INCH,TZ
T1C0.016
T2C0.030
T3C0.039
%
G90
G05
M72
T1
X2.2Y-1.425
X2.2Y-1.525
X2.2Y-1.6
X2.3Y-1.425
X2.3Y-1.525
X2.375Y-2.
X2.375Y-2.05
X2.425Y-1.875
X2.625Y-1.75
X2.775Y-1.6
X2.775Y-1.9
X2.825Y-1.775
X2.85Y-1.6
X2.85Y-1.9
X2.95Y-1.6
X2.95Y-1.9
X3.Y-1.6
X3.Y-1.675
X3.Y-1.75
X3.Y-1.825
X3.Y-1.9
T2
X2.575Y-1.6
X2.575Y-1.7
X2.575Y-1.8
X2.575Y-1.9
T3
X2.25Y-1.7
X2.25Y-1.8
X2.35Y-1.7
X2.35Y-1.8
X2.45Y-1.7
X2.45Y-1.8
T0
M30
