G04 #@! TF.FileFunction,Legend,Top*
%FSLAX46Y46*%
G04 Gerber Fmt 4.6, Leading zero omitted, Abs format (unit mm)*
G04 Created by KiCad (PCBNEW 4.0.6) date Fri Jul 21 15:56:31 2017*
%MOMM*%
%LPD*%
G01*
G04 APERTURE LIST*
%ADD10C,0.100000*%
%ADD11C,0.150000*%
%ADD12C,0.120000*%
G04 APERTURE END LIST*
D10*
D11*
X72405000Y-53450000D02*
X72405000Y-49450000D01*
X66405000Y-54450000D02*
X71405000Y-54450000D01*
X65405000Y-35450000D02*
X65405000Y-53450000D01*
X71405000Y-34450000D02*
X66405000Y-34450000D01*
X72405000Y-35450000D02*
X72405000Y-39450000D01*
X71405000Y-54450000D02*
G75*
G03X72405000Y-53450000I0J1000000D01*
G01*
X65405000Y-53450000D02*
G75*
G03X66405000Y-54450000I1000000J0D01*
G01*
X72405000Y-35450000D02*
G75*
G03X71405000Y-34450000I-1000000J0D01*
G01*
X66405000Y-34450000D02*
G75*
G03X65405000Y-35450000I0J-1000000D01*
G01*
X68205000Y-53350000D02*
X69605000Y-53350000D01*
X68205000Y-50550000D02*
X69605000Y-50550000D01*
X69605000Y-50550000D02*
G75*
G02X69605000Y-53350000I0J-1400000D01*
G01*
X68205000Y-50550000D02*
G75*
G03X68205000Y-53350000I0J-1400000D01*
G01*
X69605000Y-38350000D02*
X68205000Y-38350000D01*
X68205000Y-35550000D02*
X69605000Y-35550000D01*
X68205000Y-38350000D02*
G75*
G02X68205000Y-35550000I0J1400000D01*
G01*
X69605000Y-38350000D02*
G75*
G03X69605000Y-35550000I0J1400000D01*
G01*
X76405000Y-49450000D02*
X72405000Y-49450000D01*
X77905000Y-47950000D02*
X76405000Y-49450000D01*
X77905000Y-44450000D02*
X77905000Y-47950000D01*
X76405000Y-39450000D02*
X72405000Y-39450000D01*
X77905000Y-40950000D02*
X76405000Y-39450000D01*
X77905000Y-44450000D02*
X77905000Y-40950000D01*
D12*
X60960000Y-41850000D02*
X55820000Y-41850000D01*
X55820000Y-41850000D02*
X55820000Y-47050000D01*
X55820000Y-47050000D02*
X63560000Y-47050000D01*
X63560000Y-47050000D02*
X63560000Y-44450000D01*
X63560000Y-44450000D02*
X60960000Y-44450000D01*
X60960000Y-44450000D02*
X60960000Y-41850000D01*
X62230000Y-41850000D02*
X63560000Y-41850000D01*
X63560000Y-41850000D02*
X63560000Y-43180000D01*
D11*
X61130000Y-53375000D02*
X61130000Y-53325000D01*
X56980000Y-53375000D02*
X56980000Y-53230000D01*
X56980000Y-48225000D02*
X56980000Y-48370000D01*
X61130000Y-48225000D02*
X61130000Y-48370000D01*
X61130000Y-53375000D02*
X56980000Y-53375000D01*
X61130000Y-48225000D02*
X56980000Y-48225000D01*
X61130000Y-53325000D02*
X62530000Y-53325000D01*
D12*
X62900000Y-50200000D02*
X62900000Y-49500000D01*
X64100000Y-49500000D02*
X64100000Y-50200000D01*
D11*
X67873571Y-45140476D02*
X67873571Y-44807142D01*
X68397381Y-44664285D02*
X68397381Y-45140476D01*
X67397381Y-45140476D01*
X67397381Y-44664285D01*
X68397381Y-43711904D02*
X68397381Y-44283333D01*
X68397381Y-43997619D02*
X67397381Y-43997619D01*
X67540238Y-44092857D01*
X67635476Y-44188095D01*
X67683095Y-44283333D01*
X54642381Y-44513333D02*
X55356667Y-44513333D01*
X55499524Y-44560953D01*
X55594762Y-44656191D01*
X55642381Y-44799048D01*
X55642381Y-44894286D01*
X55642381Y-43513333D02*
X55642381Y-44084762D01*
X55642381Y-43799048D02*
X54642381Y-43799048D01*
X54785238Y-43894286D01*
X54880476Y-43989524D01*
X54928095Y-44084762D01*
X58793095Y-53252381D02*
X58793095Y-54061905D01*
X58840714Y-54157143D01*
X58888333Y-54204762D01*
X58983571Y-54252381D01*
X59174048Y-54252381D01*
X59269286Y-54204762D01*
X59316905Y-54157143D01*
X59364524Y-54061905D01*
X59364524Y-53252381D01*
X60364524Y-54252381D02*
X59793095Y-54252381D01*
X60078809Y-54252381D02*
X60078809Y-53252381D01*
X59983571Y-53395238D01*
X59888333Y-53490476D01*
X59793095Y-53538095D01*
X73215476Y-37167381D02*
X73215476Y-36167381D01*
X73548810Y-36881667D01*
X73882143Y-36167381D01*
X73882143Y-37167381D01*
X74263095Y-36167381D02*
X74882143Y-36167381D01*
X74548809Y-36548333D01*
X74691667Y-36548333D01*
X74786905Y-36595952D01*
X74834524Y-36643571D01*
X74882143Y-36738810D01*
X74882143Y-36976905D01*
X74834524Y-37072143D01*
X74786905Y-37119762D01*
X74691667Y-37167381D01*
X74405952Y-37167381D01*
X74310714Y-37119762D01*
X74263095Y-37072143D01*
X73215476Y-52667381D02*
X73215476Y-51667381D01*
X73548810Y-52381667D01*
X73882143Y-51667381D01*
X73882143Y-52667381D01*
X74263095Y-51667381D02*
X74882143Y-51667381D01*
X74548809Y-52048333D01*
X74691667Y-52048333D01*
X74786905Y-52095952D01*
X74834524Y-52143571D01*
X74882143Y-52238810D01*
X74882143Y-52476905D01*
X74834524Y-52572143D01*
X74786905Y-52619762D01*
X74691667Y-52667381D01*
X74405952Y-52667381D01*
X74310714Y-52619762D01*
X74263095Y-52572143D01*
X64492143Y-52871666D02*
X64539762Y-52919285D01*
X64587381Y-53062142D01*
X64587381Y-53157380D01*
X64539762Y-53300238D01*
X64444524Y-53395476D01*
X64349286Y-53443095D01*
X64158810Y-53490714D01*
X64015952Y-53490714D01*
X63825476Y-53443095D01*
X63730238Y-53395476D01*
X63635000Y-53300238D01*
X63587381Y-53157380D01*
X63587381Y-53062142D01*
X63635000Y-52919285D01*
X63682619Y-52871666D01*
X64587381Y-51919285D02*
X64587381Y-52490714D01*
X64587381Y-52205000D02*
X63587381Y-52205000D01*
X63730238Y-52300238D01*
X63825476Y-52395476D01*
X63873095Y-52490714D01*
X61531667Y-33237381D02*
X61198333Y-32761190D01*
X60960238Y-33237381D02*
X60960238Y-32237381D01*
X61341191Y-32237381D01*
X61436429Y-32285000D01*
X61484048Y-32332619D01*
X61531667Y-32427857D01*
X61531667Y-32570714D01*
X61484048Y-32665952D01*
X61436429Y-32713571D01*
X61341191Y-32761190D01*
X60960238Y-32761190D01*
X61960238Y-32713571D02*
X62293572Y-32713571D01*
X62436429Y-33237381D02*
X61960238Y-33237381D01*
X61960238Y-32237381D01*
X62436429Y-32237381D01*
X63198334Y-32713571D02*
X62865000Y-32713571D01*
X62865000Y-33237381D02*
X62865000Y-32237381D01*
X63341191Y-32237381D01*
X63865000Y-32237381D02*
X63865000Y-32475476D01*
X63626905Y-32380238D02*
X63865000Y-32475476D01*
X64103096Y-32380238D01*
X63722143Y-32665952D02*
X63865000Y-32475476D01*
X64007858Y-32665952D01*
X64626905Y-32237381D02*
X64626905Y-32475476D01*
X64388810Y-32380238D02*
X64626905Y-32475476D01*
X64865001Y-32380238D01*
X64484048Y-32665952D02*
X64626905Y-32475476D01*
X64769763Y-32665952D01*
M02*
