G04 #@! TF.FileFunction,Profile,NP*
%FSLAX46Y46*%
G04 Gerber Fmt 4.6, Leading zero omitted, Abs format (unit mm)*
G04 Created by KiCad (PCBNEW 4.0.6) date Sun Nov  5 21:42:57 2017*
%MOMM*%
%LPD*%
G01*
G04 APERTURE LIST*
%ADD10C,0.100000*%
G04 APERTURE END LIST*
D10*
X87500000Y-34000000D02*
G75*
G03X85000000Y-36500000I0J-2500000D01*
G01*
X85000000Y-52000000D02*
X85000000Y-36500000D01*
X85000000Y-52000000D02*
G75*
G03X87500000Y-54500000I2500000J0D01*
G01*
X105000000Y-49000000D02*
X105000000Y-52000000D01*
X105000000Y-36500000D02*
X105000000Y-40000000D01*
X102500000Y-34000000D02*
G75*
G02X105000000Y-36500000I0J-2500000D01*
G01*
X102500000Y-54500000D02*
G75*
G03X105000000Y-52000000I0J2500000D01*
G01*
X108500000Y-40000000D02*
G75*
G02X110500000Y-42000000I0J-2000000D01*
G01*
X110500000Y-47000000D02*
G75*
G02X108500000Y-49000000I-2000000J0D01*
G01*
X110500000Y-47000000D02*
X110500000Y-42000000D01*
X105000000Y-40000000D02*
X108500000Y-40000000D01*
X105000000Y-49000000D02*
X108500000Y-49000000D01*
X102500000Y-54500000D02*
X87500000Y-54500000D01*
X96500000Y-34000000D02*
X102500000Y-34000000D01*
X87500000Y-34000000D02*
X92500000Y-34000000D01*
X93000000Y-34500000D02*
X93000000Y-36500000D01*
X96000000Y-36500000D02*
X96000000Y-34500000D01*
X96500000Y-37000000D02*
X97000000Y-37000000D01*
X92000000Y-37000000D02*
X92500000Y-37000000D01*
X92500000Y-34000000D02*
G75*
G02X93000000Y-34500000I0J-500000D01*
G01*
X96500000Y-34000000D02*
G75*
G03X96000000Y-34500000I0J-500000D01*
G01*
X96000000Y-36500000D02*
G75*
G03X96500000Y-37000000I500000J0D01*
G01*
X93000000Y-36500000D02*
G75*
G02X92500000Y-37000000I-500000J0D01*
G01*
X97000000Y-37000000D02*
G75*
G02X97500000Y-37500000I0J-500000D01*
G01*
X92000000Y-37000000D02*
G75*
G03X91500000Y-37500000I0J-500000D01*
G01*
X97500000Y-38500000D02*
X97500000Y-37500000D01*
X91500000Y-38500000D02*
X91500000Y-37500000D01*
X97500000Y-38500000D02*
G75*
G02X97000000Y-39000000I-500000J0D01*
G01*
X91500000Y-38500000D02*
G75*
G03X92000000Y-39000000I500000J0D01*
G01*
X92000000Y-39000000D02*
X97000000Y-39000000D01*
M02*
