G04 #@! TF.FileFunction,Legend,Top*
%FSLAX46Y46*%
G04 Gerber Fmt 4.6, Leading zero omitted, Abs format (unit mm)*
G04 Created by KiCad (PCBNEW 4.0.6) date 11/10/17 02:40:48*
%MOMM*%
%LPD*%
G01*
G04 APERTURE LIST*
%ADD10C,0.100000*%
%ADD11C,0.150000*%
%ADD12C,0.120000*%
G04 APERTURE END LIST*
D10*
D11*
X104700000Y-40300000D02*
X102500000Y-40300000D01*
X102500000Y-48700000D02*
X104700000Y-48700000D01*
X102500000Y-48700000D02*
X102500000Y-40300000D01*
X106100000Y-48400000D02*
X106100000Y-45800000D01*
X107500000Y-44500000D02*
X109800000Y-44500000D01*
X97500000Y-52000000D02*
X97500000Y-37000000D01*
X104700000Y-52000000D02*
X104700000Y-48700000D01*
X100100000Y-34400000D02*
X102100000Y-34400000D01*
X97500000Y-52000000D02*
G75*
G03X100100000Y-54600000I2600000J0D01*
G01*
X104700000Y-37000000D02*
G75*
G03X102100000Y-34400000I-2600000J0D01*
G01*
X100100000Y-34400000D02*
G75*
G03X97500000Y-37000000I0J-2600000D01*
G01*
X99800000Y-53400000D02*
X101200000Y-53400000D01*
X99800000Y-50600000D02*
X101200000Y-50600000D01*
X101200000Y-50600000D02*
G75*
G02X101200000Y-53400000I0J-1400000D01*
G01*
X99800000Y-50600000D02*
G75*
G03X99800000Y-53400000I0J-1400000D01*
G01*
X101200000Y-38400000D02*
X99800000Y-38400000D01*
X99800000Y-35600000D02*
X101200000Y-35600000D01*
X99800000Y-38400000D02*
G75*
G02X99800000Y-35600000I0J1400000D01*
G01*
X101200000Y-38400000D02*
G75*
G03X101200000Y-35600000I0J1400000D01*
G01*
X109100000Y-48700000D02*
X104700000Y-48700000D01*
X110100000Y-47700000D02*
X109100000Y-48700000D01*
X110100000Y-41300000D02*
X110100000Y-47700000D01*
X110100000Y-41300000D02*
X109100000Y-40300000D01*
X102100000Y-54600000D02*
G75*
G03X104700000Y-52000000I0J2600000D01*
G01*
X100100000Y-54600000D02*
X102100000Y-54600000D01*
X104700000Y-37000000D02*
X104700000Y-40300000D01*
X109100000Y-40300000D02*
X104700000Y-40300000D01*
X104900000Y-44500000D02*
X101100000Y-44500000D01*
X106100000Y-40600000D02*
X106100000Y-43200000D01*
D12*
X91810000Y-42130000D02*
X86670000Y-42130000D01*
X86670000Y-42130000D02*
X86670000Y-47330000D01*
X86670000Y-47330000D02*
X94410000Y-47330000D01*
X94410000Y-47330000D02*
X94410000Y-44730000D01*
X94410000Y-44730000D02*
X91810000Y-44730000D01*
X91810000Y-44730000D02*
X91810000Y-42130000D01*
X93080000Y-42130000D02*
X94410000Y-42130000D01*
X94410000Y-42130000D02*
X94410000Y-43460000D01*
D11*
X92375000Y-53480000D02*
X92375000Y-53430000D01*
X88225000Y-53480000D02*
X88225000Y-53335000D01*
X88225000Y-48330000D02*
X88225000Y-48475000D01*
X92375000Y-48330000D02*
X92375000Y-48475000D01*
X92375000Y-53480000D02*
X88225000Y-53480000D01*
X92375000Y-48330000D02*
X88225000Y-48330000D01*
X92375000Y-53430000D02*
X93775000Y-53430000D01*
D12*
X94400000Y-50850000D02*
X94400000Y-50150000D01*
X95600000Y-50150000D02*
X95600000Y-50850000D01*
D11*
X104413571Y-42650476D02*
X104413571Y-42317142D01*
X104937381Y-42174285D02*
X104937381Y-42650476D01*
X103937381Y-42650476D01*
X103937381Y-42174285D01*
X104937381Y-41221904D02*
X104937381Y-41793333D01*
X104937381Y-41507619D02*
X103937381Y-41507619D01*
X104080238Y-41602857D01*
X104175476Y-41698095D01*
X104223095Y-41793333D01*
X85492381Y-44793333D02*
X86206667Y-44793333D01*
X86349524Y-44840953D01*
X86444762Y-44936191D01*
X86492381Y-45079048D01*
X86492381Y-45174286D01*
X86492381Y-43793333D02*
X86492381Y-44364762D01*
X86492381Y-44079048D02*
X85492381Y-44079048D01*
X85635238Y-44174286D01*
X85730476Y-44269524D01*
X85778095Y-44364762D01*
X89738095Y-51952381D02*
X89738095Y-52761905D01*
X89785714Y-52857143D01*
X89833333Y-52904762D01*
X89928571Y-52952381D01*
X90119048Y-52952381D01*
X90214286Y-52904762D01*
X90261905Y-52857143D01*
X90309524Y-52761905D01*
X90309524Y-51952381D01*
X91309524Y-52952381D02*
X90738095Y-52952381D01*
X91023809Y-52952381D02*
X91023809Y-51952381D01*
X90928571Y-52095238D01*
X90833333Y-52190476D01*
X90738095Y-52238095D01*
X95357143Y-53166666D02*
X95404762Y-53214285D01*
X95452381Y-53357142D01*
X95452381Y-53452380D01*
X95404762Y-53595238D01*
X95309524Y-53690476D01*
X95214286Y-53738095D01*
X95023810Y-53785714D01*
X94880952Y-53785714D01*
X94690476Y-53738095D01*
X94595238Y-53690476D01*
X94500000Y-53595238D01*
X94452381Y-53452380D01*
X94452381Y-53357142D01*
X94500000Y-53214285D01*
X94547619Y-53166666D01*
X95452381Y-52214285D02*
X95452381Y-52785714D01*
X95452381Y-52500000D02*
X94452381Y-52500000D01*
X94595238Y-52595238D01*
X94690476Y-52690476D01*
X94738095Y-52785714D01*
X101190476Y-37452381D02*
X101190476Y-36452381D01*
X101523810Y-37166667D01*
X101857143Y-36452381D01*
X101857143Y-37452381D01*
X102285714Y-36547619D02*
X102333333Y-36500000D01*
X102428571Y-36452381D01*
X102666667Y-36452381D01*
X102761905Y-36500000D01*
X102809524Y-36547619D01*
X102857143Y-36642857D01*
X102857143Y-36738095D01*
X102809524Y-36880952D01*
X102238095Y-37452381D01*
X102857143Y-37452381D01*
X86190476Y-37452381D02*
X86190476Y-36452381D01*
X86523810Y-37166667D01*
X86857143Y-36452381D01*
X86857143Y-37452381D01*
X87285714Y-36547619D02*
X87333333Y-36500000D01*
X87428571Y-36452381D01*
X87666667Y-36452381D01*
X87761905Y-36500000D01*
X87809524Y-36547619D01*
X87857143Y-36642857D01*
X87857143Y-36738095D01*
X87809524Y-36880952D01*
X87238095Y-37452381D01*
X87857143Y-37452381D01*
M02*
