G04 #@! TF.FileFunction,Legend,Bot*
%FSLAX46Y46*%
G04 Gerber Fmt 4.6, Leading zero omitted, Abs format (unit mm)*
G04 Created by KiCad (PCBNEW 4.0.6) date Thu Nov 16 07:41:36 2017*
%MOMM*%
%LPD*%
G01*
G04 APERTURE LIST*
%ADD10C,0.100000*%
%ADD11C,0.300000*%
%ADD12C,0.200000*%
%ADD13C,0.150000*%
%ADD14C,0.120000*%
G04 APERTURE END LIST*
D10*
D11*
X102435713Y-40378571D02*
X102435713Y-39378571D01*
X102435713Y-39664286D02*
X102364285Y-39521429D01*
X102292856Y-39450000D01*
X102149999Y-39378571D01*
X102007142Y-39378571D01*
X100935714Y-40307143D02*
X101078571Y-40378571D01*
X101364285Y-40378571D01*
X101507142Y-40307143D01*
X101578571Y-40164286D01*
X101578571Y-39592857D01*
X101507142Y-39450000D01*
X101364285Y-39378571D01*
X101078571Y-39378571D01*
X100935714Y-39450000D01*
X100864285Y-39592857D01*
X100864285Y-39735714D01*
X101578571Y-39878571D01*
X100364285Y-39378571D02*
X100007142Y-40378571D01*
X99650000Y-39378571D01*
X99221428Y-38878571D02*
X98292857Y-38878571D01*
X98792857Y-39450000D01*
X98578571Y-39450000D01*
X98435714Y-39521429D01*
X98364285Y-39592857D01*
X98292857Y-39735714D01*
X98292857Y-40092857D01*
X98364285Y-40235714D01*
X98435714Y-40307143D01*
X98578571Y-40378571D01*
X99007143Y-40378571D01*
X99150000Y-40307143D01*
X99221428Y-40235714D01*
D12*
X107690477Y-42402381D02*
X107690477Y-41735714D01*
X107690477Y-41926190D02*
X107642858Y-41830952D01*
X107595239Y-41783333D01*
X107500001Y-41735714D01*
X107404762Y-41735714D01*
X106690476Y-42354762D02*
X106785714Y-42402381D01*
X106976191Y-42402381D01*
X107071429Y-42354762D01*
X107119048Y-42259524D01*
X107119048Y-41878571D01*
X107071429Y-41783333D01*
X106976191Y-41735714D01*
X106785714Y-41735714D01*
X106690476Y-41783333D01*
X106642857Y-41878571D01*
X106642857Y-41973810D01*
X107119048Y-42069048D01*
X106309524Y-42402381D02*
X105785714Y-41735714D01*
X106309524Y-41735714D02*
X105785714Y-42402381D01*
X104976190Y-41735714D02*
X104976190Y-42402381D01*
X105404762Y-41735714D02*
X105404762Y-42259524D01*
X105357143Y-42354762D01*
X105261905Y-42402381D01*
X105119047Y-42402381D01*
X105023809Y-42354762D01*
X104976190Y-42307143D01*
X104547619Y-42354762D02*
X104452381Y-42402381D01*
X104261905Y-42402381D01*
X104166666Y-42354762D01*
X104119047Y-42259524D01*
X104119047Y-42211905D01*
X104166666Y-42116667D01*
X104261905Y-42069048D01*
X104404762Y-42069048D01*
X104500000Y-42021429D01*
X104547619Y-41926190D01*
X104547619Y-41878571D01*
X104500000Y-41783333D01*
X104404762Y-41735714D01*
X104261905Y-41735714D01*
X104166666Y-41783333D01*
X103690476Y-42021429D02*
X102928571Y-42021429D01*
X102547619Y-41735714D02*
X102309524Y-42402381D01*
X102071428Y-41735714D01*
X101690476Y-42402381D02*
X101690476Y-41735714D01*
X101690476Y-41402381D02*
X101738095Y-41450000D01*
X101690476Y-41497619D01*
X101642857Y-41450000D01*
X101690476Y-41402381D01*
X101690476Y-41497619D01*
X101214286Y-41735714D02*
X101214286Y-42735714D01*
X101214286Y-41783333D02*
X101119048Y-41735714D01*
X100928571Y-41735714D01*
X100833333Y-41783333D01*
X100785714Y-41830952D01*
X100738095Y-41926190D01*
X100738095Y-42211905D01*
X100785714Y-42307143D01*
X100833333Y-42354762D01*
X100928571Y-42402381D01*
X101119048Y-42402381D01*
X101214286Y-42354762D01*
X99928571Y-42354762D02*
X100023809Y-42402381D01*
X100214286Y-42402381D01*
X100309524Y-42354762D01*
X100357143Y-42259524D01*
X100357143Y-41878571D01*
X100309524Y-41783333D01*
X100214286Y-41735714D01*
X100023809Y-41735714D01*
X99928571Y-41783333D01*
X99880952Y-41878571D01*
X99880952Y-41973810D01*
X100357143Y-42069048D01*
X99452381Y-42402381D02*
X99452381Y-41735714D01*
X99452381Y-41926190D02*
X99404762Y-41830952D01*
X99357143Y-41783333D01*
X99261905Y-41735714D01*
X99166666Y-41735714D01*
X106952381Y-46740476D02*
X107047619Y-46692857D01*
X107238095Y-46692857D01*
X107333333Y-46740476D01*
X107428571Y-46835714D01*
X107476190Y-46930952D01*
X107476190Y-47121429D01*
X107428571Y-47216667D01*
X107333333Y-47311905D01*
X107238095Y-47359524D01*
X107047619Y-47359524D01*
X106952381Y-47311905D01*
X107142857Y-46359524D02*
X107380952Y-46407143D01*
X107619048Y-46550000D01*
X107761905Y-46788095D01*
X107809524Y-47026190D01*
X107761905Y-47264286D01*
X107619048Y-47502381D01*
X107380952Y-47645238D01*
X107142857Y-47692857D01*
X106904762Y-47645238D01*
X106666667Y-47502381D01*
X106523810Y-47264286D01*
X106476190Y-47026190D01*
X106523810Y-46788095D01*
X106666667Y-46550000D01*
X106904762Y-46407143D01*
X107142857Y-46359524D01*
X106047619Y-47502381D02*
X106047619Y-46835714D01*
X106047619Y-47026190D02*
X106000000Y-46930952D01*
X105952381Y-46883333D01*
X105857143Y-46835714D01*
X105761904Y-46835714D01*
X104999999Y-47454762D02*
X105095237Y-47502381D01*
X105285714Y-47502381D01*
X105380952Y-47454762D01*
X105428571Y-47407143D01*
X105476190Y-47311905D01*
X105476190Y-47026190D01*
X105428571Y-46930952D01*
X105380952Y-46883333D01*
X105285714Y-46835714D01*
X105095237Y-46835714D01*
X104999999Y-46883333D01*
X104571428Y-47502381D02*
X104571428Y-46502381D01*
X104142856Y-47502381D02*
X104142856Y-46978571D01*
X104190475Y-46883333D01*
X104285713Y-46835714D01*
X104428571Y-46835714D01*
X104523809Y-46883333D01*
X104571428Y-46930952D01*
X103523809Y-47502381D02*
X103619047Y-47454762D01*
X103666666Y-47407143D01*
X103714285Y-47311905D01*
X103714285Y-47026190D01*
X103666666Y-46930952D01*
X103619047Y-46883333D01*
X103523809Y-46835714D01*
X103380951Y-46835714D01*
X103285713Y-46883333D01*
X103238094Y-46930952D01*
X103190475Y-47026190D01*
X103190475Y-47311905D01*
X103238094Y-47407143D01*
X103285713Y-47454762D01*
X103380951Y-47502381D01*
X103523809Y-47502381D01*
X102761904Y-46835714D02*
X102761904Y-47692857D01*
X102809523Y-47788095D01*
X102904761Y-47835714D01*
X102952380Y-47835714D01*
X102761904Y-46502381D02*
X102809523Y-46550000D01*
X102761904Y-46597619D01*
X102714285Y-46550000D01*
X102761904Y-46502381D01*
X102761904Y-46597619D01*
X101904761Y-47454762D02*
X101999999Y-47502381D01*
X102190476Y-47502381D01*
X102285714Y-47454762D01*
X102333333Y-47359524D01*
X102333333Y-46978571D01*
X102285714Y-46883333D01*
X102190476Y-46835714D01*
X101999999Y-46835714D01*
X101904761Y-46883333D01*
X101857142Y-46978571D01*
X101857142Y-47073810D01*
X102333333Y-47169048D01*
X101571428Y-46835714D02*
X101190476Y-46835714D01*
X101428571Y-46502381D02*
X101428571Y-47359524D01*
X101380952Y-47454762D01*
X101285714Y-47502381D01*
X101190476Y-47502381D01*
X100952380Y-46835714D02*
X100428570Y-46835714D01*
X100952380Y-47502381D01*
X100428570Y-47502381D01*
X100047618Y-47502381D02*
X100047618Y-46502381D01*
X99952380Y-47121429D02*
X99666665Y-47502381D01*
X99666665Y-46835714D02*
X100047618Y-47216667D01*
X99238094Y-47502381D02*
X99238094Y-46835714D01*
X99238094Y-46502381D02*
X99285713Y-46550000D01*
X99238094Y-46597619D01*
X99190475Y-46550000D01*
X99238094Y-46502381D01*
X99238094Y-46597619D01*
X97309524Y-51602381D02*
X97404762Y-51554762D01*
X97452381Y-51507143D01*
X97500000Y-51411905D01*
X97500000Y-51126190D01*
X97452381Y-51030952D01*
X97404762Y-50983333D01*
X97309524Y-50935714D01*
X97166666Y-50935714D01*
X97071428Y-50983333D01*
X97023809Y-51030952D01*
X96976190Y-51126190D01*
X96976190Y-51411905D01*
X97023809Y-51507143D01*
X97071428Y-51554762D01*
X97166666Y-51602381D01*
X97309524Y-51602381D01*
X96547619Y-50935714D02*
X96547619Y-51935714D01*
X96547619Y-50983333D02*
X96452381Y-50935714D01*
X96261904Y-50935714D01*
X96166666Y-50983333D01*
X96119047Y-51030952D01*
X96071428Y-51126190D01*
X96071428Y-51411905D01*
X96119047Y-51507143D01*
X96166666Y-51554762D01*
X96261904Y-51602381D01*
X96452381Y-51602381D01*
X96547619Y-51554762D01*
X95785714Y-50935714D02*
X95404762Y-50935714D01*
X95642857Y-50602381D02*
X95642857Y-51459524D01*
X95595238Y-51554762D01*
X95500000Y-51602381D01*
X95404762Y-51602381D01*
X95071428Y-51602381D02*
X95071428Y-50935714D01*
X95071428Y-50602381D02*
X95119047Y-50650000D01*
X95071428Y-50697619D01*
X95023809Y-50650000D01*
X95071428Y-50602381D01*
X95071428Y-50697619D01*
X94166666Y-51554762D02*
X94261904Y-51602381D01*
X94452381Y-51602381D01*
X94547619Y-51554762D01*
X94595238Y-51507143D01*
X94642857Y-51411905D01*
X94642857Y-51126190D01*
X94595238Y-51030952D01*
X94547619Y-50983333D01*
X94452381Y-50935714D01*
X94261904Y-50935714D01*
X94166666Y-50983333D01*
X93309523Y-51602381D02*
X93309523Y-51078571D01*
X93357142Y-50983333D01*
X93452380Y-50935714D01*
X93642857Y-50935714D01*
X93738095Y-50983333D01*
X93309523Y-51554762D02*
X93404761Y-51602381D01*
X93642857Y-51602381D01*
X93738095Y-51554762D01*
X93785714Y-51459524D01*
X93785714Y-51364286D01*
X93738095Y-51269048D01*
X93642857Y-51221429D01*
X93404761Y-51221429D01*
X93309523Y-51173810D01*
X92690476Y-51602381D02*
X92785714Y-51554762D01*
X92833333Y-51459524D01*
X92833333Y-50602381D01*
X92309523Y-51221429D02*
X91547618Y-51221429D01*
X96976190Y-53302381D02*
X96976190Y-52302381D01*
X96976190Y-53254762D02*
X97071428Y-53302381D01*
X97261905Y-53302381D01*
X97357143Y-53254762D01*
X97404762Y-53207143D01*
X97452381Y-53111905D01*
X97452381Y-52826190D01*
X97404762Y-52730952D01*
X97357143Y-52683333D01*
X97261905Y-52635714D01*
X97071428Y-52635714D01*
X96976190Y-52683333D01*
X96500000Y-53302381D02*
X96500000Y-52635714D01*
X96500000Y-52302381D02*
X96547619Y-52350000D01*
X96500000Y-52397619D01*
X96452381Y-52350000D01*
X96500000Y-52302381D01*
X96500000Y-52397619D01*
X96071429Y-53254762D02*
X95976191Y-53302381D01*
X95785715Y-53302381D01*
X95690476Y-53254762D01*
X95642857Y-53159524D01*
X95642857Y-53111905D01*
X95690476Y-53016667D01*
X95785715Y-52969048D01*
X95928572Y-52969048D01*
X96023810Y-52921429D01*
X96071429Y-52826190D01*
X96071429Y-52778571D01*
X96023810Y-52683333D01*
X95928572Y-52635714D01*
X95785715Y-52635714D01*
X95690476Y-52683333D01*
X95357143Y-52635714D02*
X94976191Y-52635714D01*
X95214286Y-52302381D02*
X95214286Y-53159524D01*
X95166667Y-53254762D01*
X95071429Y-53302381D01*
X94976191Y-53302381D01*
X94214285Y-53302381D02*
X94214285Y-52778571D01*
X94261904Y-52683333D01*
X94357142Y-52635714D01*
X94547619Y-52635714D01*
X94642857Y-52683333D01*
X94214285Y-53254762D02*
X94309523Y-53302381D01*
X94547619Y-53302381D01*
X94642857Y-53254762D01*
X94690476Y-53159524D01*
X94690476Y-53064286D01*
X94642857Y-52969048D01*
X94547619Y-52921429D01*
X94309523Y-52921429D01*
X94214285Y-52873810D01*
X93738095Y-52635714D02*
X93738095Y-53302381D01*
X93738095Y-52730952D02*
X93690476Y-52683333D01*
X93595238Y-52635714D01*
X93452380Y-52635714D01*
X93357142Y-52683333D01*
X93309523Y-52778571D01*
X93309523Y-53302381D01*
X92404761Y-53254762D02*
X92499999Y-53302381D01*
X92690476Y-53302381D01*
X92785714Y-53254762D01*
X92833333Y-53207143D01*
X92880952Y-53111905D01*
X92880952Y-52826190D01*
X92833333Y-52730952D01*
X92785714Y-52683333D01*
X92690476Y-52635714D01*
X92499999Y-52635714D01*
X92404761Y-52683333D01*
X91595237Y-53254762D02*
X91690475Y-53302381D01*
X91880952Y-53302381D01*
X91976190Y-53254762D01*
X92023809Y-53159524D01*
X92023809Y-52778571D01*
X91976190Y-52683333D01*
X91880952Y-52635714D01*
X91690475Y-52635714D01*
X91595237Y-52683333D01*
X91547618Y-52778571D01*
X91547618Y-52873810D01*
X92023809Y-52969048D01*
D11*
X88107143Y-47892857D02*
X88035714Y-47678571D01*
X87964286Y-47607143D01*
X87821429Y-47535714D01*
X87607143Y-47535714D01*
X87464286Y-47607143D01*
X87392857Y-47678571D01*
X87321429Y-47821429D01*
X87321429Y-48392857D01*
X88821429Y-48392857D01*
X88821429Y-47892857D01*
X88750000Y-47750000D01*
X88678571Y-47678571D01*
X88535714Y-47607143D01*
X88392857Y-47607143D01*
X88250000Y-47678571D01*
X88178571Y-47750000D01*
X88107143Y-47892857D01*
X88107143Y-48392857D01*
D13*
X90833333Y-48619048D02*
X90833333Y-48142857D01*
X90547619Y-48714286D02*
X91547619Y-48380953D01*
X90547619Y-48047619D01*
X91547619Y-47571429D02*
X91309524Y-47571429D01*
X91404762Y-47809524D02*
X91309524Y-47571429D01*
X91404762Y-47333333D01*
X91119048Y-47714286D02*
X91309524Y-47571429D01*
X91119048Y-47428571D01*
D11*
X92750000Y-48357143D02*
X92750000Y-47642857D01*
X92321429Y-48500000D02*
X93821429Y-48000000D01*
X92321429Y-47500000D01*
D13*
X88071429Y-41309523D02*
X88023810Y-41166666D01*
X87976190Y-41119047D01*
X87880952Y-41071428D01*
X87738095Y-41071428D01*
X87642857Y-41119047D01*
X87595238Y-41166666D01*
X87547619Y-41261904D01*
X87547619Y-41642857D01*
X88547619Y-41642857D01*
X88547619Y-41309523D01*
X88500000Y-41214285D01*
X88452381Y-41166666D01*
X88357143Y-41119047D01*
X88261905Y-41119047D01*
X88166667Y-41166666D01*
X88119048Y-41214285D01*
X88071429Y-41309523D01*
X88071429Y-41642857D01*
X88547619Y-40500000D02*
X88309524Y-40500000D01*
X88404762Y-40738095D02*
X88309524Y-40500000D01*
X88404762Y-40261904D01*
X88119048Y-40642857D02*
X88309524Y-40500000D01*
X88119048Y-40357142D01*
X91000000Y-41261904D02*
X91047619Y-41357142D01*
X91047619Y-41499999D01*
X91000000Y-41642857D01*
X90904762Y-41738095D01*
X90809524Y-41785714D01*
X90619048Y-41833333D01*
X90476190Y-41833333D01*
X90285714Y-41785714D01*
X90190476Y-41738095D01*
X90095238Y-41642857D01*
X90047619Y-41499999D01*
X90047619Y-41404761D01*
X90095238Y-41261904D01*
X90142857Y-41214285D01*
X90476190Y-41214285D01*
X90476190Y-41404761D01*
X90047619Y-40785714D02*
X91047619Y-40785714D01*
X90047619Y-40214285D01*
X91047619Y-40214285D01*
X90047619Y-39738095D02*
X91047619Y-39738095D01*
X91047619Y-39500000D01*
X91000000Y-39357142D01*
X90904762Y-39261904D01*
X90809524Y-39214285D01*
X90619048Y-39166666D01*
X90476190Y-39166666D01*
X90285714Y-39214285D01*
X90190476Y-39261904D01*
X90095238Y-39357142D01*
X90047619Y-39500000D01*
X90047619Y-39738095D01*
X93547619Y-41290476D02*
X93547619Y-41766667D01*
X93071429Y-41814286D01*
X93119048Y-41766667D01*
X93166667Y-41671429D01*
X93166667Y-41433333D01*
X93119048Y-41338095D01*
X93071429Y-41290476D01*
X92976190Y-41242857D01*
X92738095Y-41242857D01*
X92642857Y-41290476D01*
X92595238Y-41338095D01*
X92547619Y-41433333D01*
X92547619Y-41671429D01*
X92595238Y-41766667D01*
X92642857Y-41814286D01*
X93547619Y-40957143D02*
X92547619Y-40623810D01*
X93547619Y-40290476D01*
D14*
X101430000Y-43450000D02*
X101430000Y-45450000D01*
X103570000Y-45450000D02*
X103570000Y-43450000D01*
X87830000Y-49800000D02*
X87830000Y-51800000D01*
X89970000Y-51800000D02*
X89970000Y-49800000D01*
D13*
X102952381Y-44333334D02*
X102476190Y-44000000D01*
X102952381Y-43761905D02*
X101952381Y-43761905D01*
X101952381Y-44142858D01*
X102000000Y-44238096D01*
X102047619Y-44285715D01*
X102142857Y-44333334D01*
X102285714Y-44333334D01*
X102380952Y-44285715D01*
X102428571Y-44238096D01*
X102476190Y-44142858D01*
X102476190Y-43761905D01*
X102952381Y-45285715D02*
X102952381Y-44714286D01*
X102952381Y-45000000D02*
X101952381Y-45000000D01*
X102095238Y-44904762D01*
X102190476Y-44809524D01*
X102238095Y-44714286D01*
X89452381Y-50633334D02*
X88976190Y-50300000D01*
X89452381Y-50061905D02*
X88452381Y-50061905D01*
X88452381Y-50442858D01*
X88500000Y-50538096D01*
X88547619Y-50585715D01*
X88642857Y-50633334D01*
X88785714Y-50633334D01*
X88880952Y-50585715D01*
X88928571Y-50538096D01*
X88976190Y-50442858D01*
X88976190Y-50061905D01*
X88547619Y-51014286D02*
X88500000Y-51061905D01*
X88452381Y-51157143D01*
X88452381Y-51395239D01*
X88500000Y-51490477D01*
X88547619Y-51538096D01*
X88642857Y-51585715D01*
X88738095Y-51585715D01*
X88880952Y-51538096D01*
X89452381Y-50966667D01*
X89452381Y-51585715D01*
M02*
