G04 #@! TF.FileFunction,Copper,L2,Bot,Signal*
%FSLAX46Y46*%
G04 Gerber Fmt 4.6, Leading zero omitted, Abs format (unit mm)*
G04 Created by KiCad (PCBNEW 4.0.6) date Fri Jul 21 15:56:31 2017*
%MOMM*%
%LPD*%
G01*
G04 APERTURE LIST*
%ADD10C,0.100000*%
%ADD11C,1.524000*%
%ADD12R,1.700000X1.700000*%
%ADD13O,1.700000X1.700000*%
%ADD14C,0.600000*%
%ADD15C,0.600000*%
%ADD16C,0.300000*%
%ADD17C,0.254000*%
G04 APERTURE END LIST*
D10*
D11*
X65405000Y-40640000D03*
X65405000Y-43180000D03*
X65405000Y-45720000D03*
X65405000Y-48260000D03*
D12*
X62230000Y-43180000D03*
D13*
X62230000Y-45720000D03*
X59690000Y-43180000D03*
X59690000Y-45720000D03*
X57150000Y-43180000D03*
X57150000Y-45720000D03*
D14*
X60325000Y-50800000D03*
X60325000Y-52070000D03*
X71755000Y-45085000D03*
X66675000Y-44450000D03*
X58420000Y-36195000D03*
X55880000Y-36195000D03*
X55880000Y-40640000D03*
X55880000Y-38735000D03*
X58420000Y-38735000D03*
X70485000Y-48260000D03*
X72390000Y-48260000D03*
X74930000Y-48260000D03*
X76200000Y-48260000D03*
X76200000Y-46355000D03*
X76200000Y-44450000D03*
X76200000Y-42545000D03*
X76200000Y-40640000D03*
X74930000Y-40640000D03*
X72390000Y-40640000D03*
X70485000Y-40640000D03*
X61595000Y-47625000D03*
D15*
X60325000Y-50800000D02*
X64142999Y-46982001D01*
X64142999Y-46982001D02*
X64142999Y-44442001D01*
X64142999Y-44442001D02*
X64643001Y-43941999D01*
X64643001Y-43941999D02*
X65405000Y-43180000D01*
X64142999Y-46347001D02*
X64142999Y-44442001D01*
X60325000Y-52070000D02*
X64135000Y-48260000D01*
X64135000Y-48260000D02*
X65405000Y-48260000D01*
D16*
X66675000Y-44450000D02*
X71120000Y-44450000D01*
X71120000Y-44450000D02*
X71755000Y-45085000D01*
X70485000Y-48260000D02*
X66675000Y-44450000D01*
X55880000Y-36195000D02*
X58420000Y-36195000D01*
X55880000Y-38735000D02*
X55880000Y-40640000D01*
X59690000Y-43180000D02*
X59690000Y-40005000D01*
X59690000Y-40005000D02*
X58420000Y-38735000D01*
X59690000Y-43180000D02*
X62230000Y-40640000D01*
X62230000Y-40640000D02*
X65405000Y-40640000D01*
X61595000Y-47625000D02*
X61029999Y-47059999D01*
X61029999Y-47059999D02*
X61029999Y-44519999D01*
X60539999Y-44029999D02*
X59690000Y-43180000D01*
X61029999Y-44519999D02*
X60539999Y-44029999D01*
D15*
X72390000Y-48260000D02*
X70485000Y-48260000D01*
X76200000Y-48260000D02*
X74930000Y-48260000D01*
X76200000Y-44450000D02*
X76200000Y-46355000D01*
X76200000Y-40640000D02*
X76200000Y-42545000D01*
X72390000Y-40640000D02*
X74930000Y-40640000D01*
X65405000Y-40640000D02*
X70485000Y-40640000D01*
D17*
G36*
X58898000Y-38215000D02*
X58908006Y-38264410D01*
X58943697Y-38312564D01*
X61943697Y-40812564D01*
X61988060Y-40836509D01*
X62025000Y-40842000D01*
X63525000Y-40842000D01*
X63574410Y-40831994D01*
X63614803Y-40804803D01*
X64000599Y-40419007D01*
X63995856Y-40432302D01*
X64023638Y-40987368D01*
X64182603Y-41371143D01*
X64424787Y-41440608D01*
X65225395Y-40640000D01*
X65584605Y-40640000D01*
X66385213Y-41440608D01*
X66627397Y-41371143D01*
X66814144Y-40847698D01*
X66786362Y-40292632D01*
X66627397Y-39908857D01*
X66385213Y-39839392D01*
X65584605Y-40640000D01*
X65225395Y-40640000D01*
X65211253Y-40625858D01*
X65390858Y-40446253D01*
X65405000Y-40460395D01*
X66205608Y-39659787D01*
X66136143Y-39417603D01*
X65924231Y-39342000D01*
X66472394Y-39342000D01*
X67898000Y-40767606D01*
X67898000Y-48169020D01*
X65427436Y-51133697D01*
X65403491Y-51178060D01*
X65398000Y-51215000D01*
X65398000Y-53530000D01*
X55210000Y-53530000D01*
X55210000Y-43150907D01*
X55665000Y-43150907D01*
X55665000Y-43209093D01*
X55778039Y-43777378D01*
X56099946Y-44259147D01*
X56385578Y-44450000D01*
X56099946Y-44640853D01*
X55778039Y-45122622D01*
X55665000Y-45690907D01*
X55665000Y-45749093D01*
X55778039Y-46317378D01*
X56099946Y-46799147D01*
X56581715Y-47121054D01*
X57150000Y-47234093D01*
X57718285Y-47121054D01*
X58200054Y-46799147D01*
X58420000Y-46469974D01*
X58639946Y-46799147D01*
X59121715Y-47121054D01*
X59690000Y-47234093D01*
X60258285Y-47121054D01*
X60740054Y-46799147D01*
X60960000Y-46469974D01*
X61179946Y-46799147D01*
X61661715Y-47121054D01*
X62230000Y-47234093D01*
X62652697Y-47150013D01*
X59664146Y-50138564D01*
X59532808Y-50269673D01*
X59390162Y-50613201D01*
X59389838Y-50985167D01*
X59531883Y-51328943D01*
X59637710Y-51434954D01*
X59532808Y-51539673D01*
X59390162Y-51883201D01*
X59389838Y-52255167D01*
X59531883Y-52598943D01*
X59794673Y-52862192D01*
X60138201Y-53004838D01*
X60510167Y-53005162D01*
X60853943Y-52863117D01*
X61117192Y-52600327D01*
X61117355Y-52599935D01*
X64443293Y-49273997D01*
X64612630Y-49443629D01*
X65125900Y-49656757D01*
X65681661Y-49657242D01*
X66195303Y-49445010D01*
X66588629Y-49052370D01*
X66801757Y-48539100D01*
X66802242Y-47983339D01*
X66590010Y-47469697D01*
X66197370Y-47076371D01*
X65989488Y-46990051D01*
X66195303Y-46905010D01*
X66588629Y-46512370D01*
X66801757Y-45999100D01*
X66802242Y-45443339D01*
X66590010Y-44929697D01*
X66197370Y-44536371D01*
X65989488Y-44450051D01*
X66195303Y-44365010D01*
X66588629Y-43972370D01*
X66801757Y-43459100D01*
X66802242Y-42903339D01*
X66590010Y-42389697D01*
X66197370Y-41996371D01*
X66005273Y-41916605D01*
X66136143Y-41862397D01*
X66205608Y-41620213D01*
X65405000Y-40819605D01*
X64604392Y-41620213D01*
X64673857Y-41862397D01*
X64814318Y-41912509D01*
X64614697Y-41994990D01*
X64221371Y-42387630D01*
X64008243Y-42900900D01*
X64007934Y-43254776D01*
X63727440Y-43535270D01*
X63727440Y-42330000D01*
X63683162Y-42094683D01*
X63544090Y-41878559D01*
X63331890Y-41733569D01*
X63080000Y-41682560D01*
X61380000Y-41682560D01*
X61144683Y-41726838D01*
X60928559Y-41865910D01*
X60783569Y-42078110D01*
X60761699Y-42186107D01*
X60456924Y-41908355D01*
X60046890Y-41738524D01*
X59817000Y-41859845D01*
X59817000Y-43053000D01*
X59837000Y-43053000D01*
X59837000Y-43307000D01*
X59817000Y-43307000D01*
X59817000Y-43327000D01*
X59563000Y-43327000D01*
X59563000Y-43307000D01*
X59543000Y-43307000D01*
X59543000Y-43053000D01*
X59563000Y-43053000D01*
X59563000Y-41859845D01*
X59333110Y-41738524D01*
X58923076Y-41908355D01*
X58494817Y-42298642D01*
X58427702Y-42441553D01*
X58200054Y-42100853D01*
X57718285Y-41778946D01*
X57150000Y-41665907D01*
X56581715Y-41778946D01*
X56099946Y-42100853D01*
X55778039Y-42582622D01*
X55665000Y-43150907D01*
X55210000Y-43150907D01*
X55210000Y-35400000D01*
X58898000Y-35400000D01*
X58898000Y-38215000D01*
X58898000Y-38215000D01*
G37*
X58898000Y-38215000D02*
X58908006Y-38264410D01*
X58943697Y-38312564D01*
X61943697Y-40812564D01*
X61988060Y-40836509D01*
X62025000Y-40842000D01*
X63525000Y-40842000D01*
X63574410Y-40831994D01*
X63614803Y-40804803D01*
X64000599Y-40419007D01*
X63995856Y-40432302D01*
X64023638Y-40987368D01*
X64182603Y-41371143D01*
X64424787Y-41440608D01*
X65225395Y-40640000D01*
X65584605Y-40640000D01*
X66385213Y-41440608D01*
X66627397Y-41371143D01*
X66814144Y-40847698D01*
X66786362Y-40292632D01*
X66627397Y-39908857D01*
X66385213Y-39839392D01*
X65584605Y-40640000D01*
X65225395Y-40640000D01*
X65211253Y-40625858D01*
X65390858Y-40446253D01*
X65405000Y-40460395D01*
X66205608Y-39659787D01*
X66136143Y-39417603D01*
X65924231Y-39342000D01*
X66472394Y-39342000D01*
X67898000Y-40767606D01*
X67898000Y-48169020D01*
X65427436Y-51133697D01*
X65403491Y-51178060D01*
X65398000Y-51215000D01*
X65398000Y-53530000D01*
X55210000Y-53530000D01*
X55210000Y-43150907D01*
X55665000Y-43150907D01*
X55665000Y-43209093D01*
X55778039Y-43777378D01*
X56099946Y-44259147D01*
X56385578Y-44450000D01*
X56099946Y-44640853D01*
X55778039Y-45122622D01*
X55665000Y-45690907D01*
X55665000Y-45749093D01*
X55778039Y-46317378D01*
X56099946Y-46799147D01*
X56581715Y-47121054D01*
X57150000Y-47234093D01*
X57718285Y-47121054D01*
X58200054Y-46799147D01*
X58420000Y-46469974D01*
X58639946Y-46799147D01*
X59121715Y-47121054D01*
X59690000Y-47234093D01*
X60258285Y-47121054D01*
X60740054Y-46799147D01*
X60960000Y-46469974D01*
X61179946Y-46799147D01*
X61661715Y-47121054D01*
X62230000Y-47234093D01*
X62652697Y-47150013D01*
X59664146Y-50138564D01*
X59532808Y-50269673D01*
X59390162Y-50613201D01*
X59389838Y-50985167D01*
X59531883Y-51328943D01*
X59637710Y-51434954D01*
X59532808Y-51539673D01*
X59390162Y-51883201D01*
X59389838Y-52255167D01*
X59531883Y-52598943D01*
X59794673Y-52862192D01*
X60138201Y-53004838D01*
X60510167Y-53005162D01*
X60853943Y-52863117D01*
X61117192Y-52600327D01*
X61117355Y-52599935D01*
X64443293Y-49273997D01*
X64612630Y-49443629D01*
X65125900Y-49656757D01*
X65681661Y-49657242D01*
X66195303Y-49445010D01*
X66588629Y-49052370D01*
X66801757Y-48539100D01*
X66802242Y-47983339D01*
X66590010Y-47469697D01*
X66197370Y-47076371D01*
X65989488Y-46990051D01*
X66195303Y-46905010D01*
X66588629Y-46512370D01*
X66801757Y-45999100D01*
X66802242Y-45443339D01*
X66590010Y-44929697D01*
X66197370Y-44536371D01*
X65989488Y-44450051D01*
X66195303Y-44365010D01*
X66588629Y-43972370D01*
X66801757Y-43459100D01*
X66802242Y-42903339D01*
X66590010Y-42389697D01*
X66197370Y-41996371D01*
X66005273Y-41916605D01*
X66136143Y-41862397D01*
X66205608Y-41620213D01*
X65405000Y-40819605D01*
X64604392Y-41620213D01*
X64673857Y-41862397D01*
X64814318Y-41912509D01*
X64614697Y-41994990D01*
X64221371Y-42387630D01*
X64008243Y-42900900D01*
X64007934Y-43254776D01*
X63727440Y-43535270D01*
X63727440Y-42330000D01*
X63683162Y-42094683D01*
X63544090Y-41878559D01*
X63331890Y-41733569D01*
X63080000Y-41682560D01*
X61380000Y-41682560D01*
X61144683Y-41726838D01*
X60928559Y-41865910D01*
X60783569Y-42078110D01*
X60761699Y-42186107D01*
X60456924Y-41908355D01*
X60046890Y-41738524D01*
X59817000Y-41859845D01*
X59817000Y-43053000D01*
X59837000Y-43053000D01*
X59837000Y-43307000D01*
X59817000Y-43307000D01*
X59817000Y-43327000D01*
X59563000Y-43327000D01*
X59563000Y-43307000D01*
X59543000Y-43307000D01*
X59543000Y-43053000D01*
X59563000Y-43053000D01*
X59563000Y-41859845D01*
X59333110Y-41738524D01*
X58923076Y-41908355D01*
X58494817Y-42298642D01*
X58427702Y-42441553D01*
X58200054Y-42100853D01*
X57718285Y-41778946D01*
X57150000Y-41665907D01*
X56581715Y-41778946D01*
X56099946Y-42100853D01*
X55778039Y-42582622D01*
X55665000Y-43150907D01*
X55210000Y-43150907D01*
X55210000Y-35400000D01*
X58898000Y-35400000D01*
X58898000Y-38215000D01*
G36*
X58898000Y-38215000D02*
X58908006Y-38264410D01*
X58943697Y-38312564D01*
X61943697Y-40812564D01*
X61988060Y-40836509D01*
X62025000Y-40842000D01*
X63525000Y-40842000D01*
X63574410Y-40831994D01*
X63614803Y-40804803D01*
X64000599Y-40419007D01*
X63995856Y-40432302D01*
X64023638Y-40987368D01*
X64182603Y-41371143D01*
X64424787Y-41440608D01*
X65225395Y-40640000D01*
X65584605Y-40640000D01*
X66385213Y-41440608D01*
X66627397Y-41371143D01*
X66814144Y-40847698D01*
X66786362Y-40292632D01*
X66627397Y-39908857D01*
X66385213Y-39839392D01*
X65584605Y-40640000D01*
X65225395Y-40640000D01*
X65211253Y-40625858D01*
X65390858Y-40446253D01*
X65405000Y-40460395D01*
X66205608Y-39659787D01*
X66136143Y-39417603D01*
X65924231Y-39342000D01*
X66472394Y-39342000D01*
X67435197Y-40304803D01*
X67477211Y-40332666D01*
X67525000Y-40342000D01*
X72254096Y-40342000D01*
X72262862Y-40347857D01*
X72525000Y-40400000D01*
X76840000Y-40400000D01*
X76840000Y-48530000D01*
X72525000Y-48530000D01*
X72262862Y-48582143D01*
X72254096Y-48588000D01*
X67525000Y-48588000D01*
X67475590Y-48598006D01*
X67425830Y-48635664D01*
X65425830Y-51135664D01*
X65402777Y-51180497D01*
X65398000Y-51215000D01*
X65398000Y-53530000D01*
X55210000Y-53530000D01*
X55210000Y-43150907D01*
X55665000Y-43150907D01*
X55665000Y-43209093D01*
X55778039Y-43777378D01*
X56099946Y-44259147D01*
X56385578Y-44450000D01*
X56099946Y-44640853D01*
X55778039Y-45122622D01*
X55665000Y-45690907D01*
X55665000Y-45749093D01*
X55778039Y-46317378D01*
X56099946Y-46799147D01*
X56581715Y-47121054D01*
X57150000Y-47234093D01*
X57718285Y-47121054D01*
X58200054Y-46799147D01*
X58420000Y-46469974D01*
X58639946Y-46799147D01*
X59121715Y-47121054D01*
X59690000Y-47234093D01*
X60258285Y-47121054D01*
X60740054Y-46799147D01*
X60960000Y-46469974D01*
X61179946Y-46799147D01*
X61661715Y-47121054D01*
X62230000Y-47234093D01*
X62652697Y-47150013D01*
X59664146Y-50138564D01*
X59532808Y-50269673D01*
X59390162Y-50613201D01*
X59389838Y-50985167D01*
X59531883Y-51328943D01*
X59637710Y-51434954D01*
X59532808Y-51539673D01*
X59390162Y-51883201D01*
X59389838Y-52255167D01*
X59531883Y-52598943D01*
X59794673Y-52862192D01*
X60138201Y-53004838D01*
X60510167Y-53005162D01*
X60853943Y-52863117D01*
X61117192Y-52600327D01*
X61117355Y-52599935D01*
X64443293Y-49273997D01*
X64612630Y-49443629D01*
X65125900Y-49656757D01*
X65681661Y-49657242D01*
X66195303Y-49445010D01*
X66588629Y-49052370D01*
X66801757Y-48539100D01*
X66802242Y-47983339D01*
X66590010Y-47469697D01*
X66197370Y-47076371D01*
X65989488Y-46990051D01*
X66195303Y-46905010D01*
X66588629Y-46512370D01*
X66801757Y-45999100D01*
X66802242Y-45443339D01*
X66590010Y-44929697D01*
X66197370Y-44536371D01*
X65989488Y-44450051D01*
X66195303Y-44365010D01*
X66588629Y-43972370D01*
X66801757Y-43459100D01*
X66802242Y-42903339D01*
X66590010Y-42389697D01*
X66197370Y-41996371D01*
X66005273Y-41916605D01*
X66136143Y-41862397D01*
X66205608Y-41620213D01*
X65405000Y-40819605D01*
X64604392Y-41620213D01*
X64673857Y-41862397D01*
X64814318Y-41912509D01*
X64614697Y-41994990D01*
X64221371Y-42387630D01*
X64008243Y-42900900D01*
X64007934Y-43254776D01*
X63727440Y-43535270D01*
X63727440Y-42330000D01*
X63683162Y-42094683D01*
X63544090Y-41878559D01*
X63331890Y-41733569D01*
X63080000Y-41682560D01*
X61380000Y-41682560D01*
X61144683Y-41726838D01*
X60928559Y-41865910D01*
X60783569Y-42078110D01*
X60761699Y-42186107D01*
X60456924Y-41908355D01*
X60046890Y-41738524D01*
X59817000Y-41859845D01*
X59817000Y-43053000D01*
X59837000Y-43053000D01*
X59837000Y-43307000D01*
X59817000Y-43307000D01*
X59817000Y-43327000D01*
X59563000Y-43327000D01*
X59563000Y-43307000D01*
X59543000Y-43307000D01*
X59543000Y-43053000D01*
X59563000Y-43053000D01*
X59563000Y-41859845D01*
X59333110Y-41738524D01*
X58923076Y-41908355D01*
X58494817Y-42298642D01*
X58427702Y-42441553D01*
X58200054Y-42100853D01*
X57718285Y-41778946D01*
X57150000Y-41665907D01*
X56581715Y-41778946D01*
X56099946Y-42100853D01*
X55778039Y-42582622D01*
X55665000Y-43150907D01*
X55210000Y-43150907D01*
X55210000Y-35400000D01*
X58898000Y-35400000D01*
X58898000Y-38215000D01*
X58898000Y-38215000D01*
G37*
X58898000Y-38215000D02*
X58908006Y-38264410D01*
X58943697Y-38312564D01*
X61943697Y-40812564D01*
X61988060Y-40836509D01*
X62025000Y-40842000D01*
X63525000Y-40842000D01*
X63574410Y-40831994D01*
X63614803Y-40804803D01*
X64000599Y-40419007D01*
X63995856Y-40432302D01*
X64023638Y-40987368D01*
X64182603Y-41371143D01*
X64424787Y-41440608D01*
X65225395Y-40640000D01*
X65584605Y-40640000D01*
X66385213Y-41440608D01*
X66627397Y-41371143D01*
X66814144Y-40847698D01*
X66786362Y-40292632D01*
X66627397Y-39908857D01*
X66385213Y-39839392D01*
X65584605Y-40640000D01*
X65225395Y-40640000D01*
X65211253Y-40625858D01*
X65390858Y-40446253D01*
X65405000Y-40460395D01*
X66205608Y-39659787D01*
X66136143Y-39417603D01*
X65924231Y-39342000D01*
X66472394Y-39342000D01*
X67435197Y-40304803D01*
X67477211Y-40332666D01*
X67525000Y-40342000D01*
X72254096Y-40342000D01*
X72262862Y-40347857D01*
X72525000Y-40400000D01*
X76840000Y-40400000D01*
X76840000Y-48530000D01*
X72525000Y-48530000D01*
X72262862Y-48582143D01*
X72254096Y-48588000D01*
X67525000Y-48588000D01*
X67475590Y-48598006D01*
X67425830Y-48635664D01*
X65425830Y-51135664D01*
X65402777Y-51180497D01*
X65398000Y-51215000D01*
X65398000Y-53530000D01*
X55210000Y-53530000D01*
X55210000Y-43150907D01*
X55665000Y-43150907D01*
X55665000Y-43209093D01*
X55778039Y-43777378D01*
X56099946Y-44259147D01*
X56385578Y-44450000D01*
X56099946Y-44640853D01*
X55778039Y-45122622D01*
X55665000Y-45690907D01*
X55665000Y-45749093D01*
X55778039Y-46317378D01*
X56099946Y-46799147D01*
X56581715Y-47121054D01*
X57150000Y-47234093D01*
X57718285Y-47121054D01*
X58200054Y-46799147D01*
X58420000Y-46469974D01*
X58639946Y-46799147D01*
X59121715Y-47121054D01*
X59690000Y-47234093D01*
X60258285Y-47121054D01*
X60740054Y-46799147D01*
X60960000Y-46469974D01*
X61179946Y-46799147D01*
X61661715Y-47121054D01*
X62230000Y-47234093D01*
X62652697Y-47150013D01*
X59664146Y-50138564D01*
X59532808Y-50269673D01*
X59390162Y-50613201D01*
X59389838Y-50985167D01*
X59531883Y-51328943D01*
X59637710Y-51434954D01*
X59532808Y-51539673D01*
X59390162Y-51883201D01*
X59389838Y-52255167D01*
X59531883Y-52598943D01*
X59794673Y-52862192D01*
X60138201Y-53004838D01*
X60510167Y-53005162D01*
X60853943Y-52863117D01*
X61117192Y-52600327D01*
X61117355Y-52599935D01*
X64443293Y-49273997D01*
X64612630Y-49443629D01*
X65125900Y-49656757D01*
X65681661Y-49657242D01*
X66195303Y-49445010D01*
X66588629Y-49052370D01*
X66801757Y-48539100D01*
X66802242Y-47983339D01*
X66590010Y-47469697D01*
X66197370Y-47076371D01*
X65989488Y-46990051D01*
X66195303Y-46905010D01*
X66588629Y-46512370D01*
X66801757Y-45999100D01*
X66802242Y-45443339D01*
X66590010Y-44929697D01*
X66197370Y-44536371D01*
X65989488Y-44450051D01*
X66195303Y-44365010D01*
X66588629Y-43972370D01*
X66801757Y-43459100D01*
X66802242Y-42903339D01*
X66590010Y-42389697D01*
X66197370Y-41996371D01*
X66005273Y-41916605D01*
X66136143Y-41862397D01*
X66205608Y-41620213D01*
X65405000Y-40819605D01*
X64604392Y-41620213D01*
X64673857Y-41862397D01*
X64814318Y-41912509D01*
X64614697Y-41994990D01*
X64221371Y-42387630D01*
X64008243Y-42900900D01*
X64007934Y-43254776D01*
X63727440Y-43535270D01*
X63727440Y-42330000D01*
X63683162Y-42094683D01*
X63544090Y-41878559D01*
X63331890Y-41733569D01*
X63080000Y-41682560D01*
X61380000Y-41682560D01*
X61144683Y-41726838D01*
X60928559Y-41865910D01*
X60783569Y-42078110D01*
X60761699Y-42186107D01*
X60456924Y-41908355D01*
X60046890Y-41738524D01*
X59817000Y-41859845D01*
X59817000Y-43053000D01*
X59837000Y-43053000D01*
X59837000Y-43307000D01*
X59817000Y-43307000D01*
X59817000Y-43327000D01*
X59563000Y-43327000D01*
X59563000Y-43307000D01*
X59543000Y-43307000D01*
X59543000Y-43053000D01*
X59563000Y-43053000D01*
X59563000Y-41859845D01*
X59333110Y-41738524D01*
X58923076Y-41908355D01*
X58494817Y-42298642D01*
X58427702Y-42441553D01*
X58200054Y-42100853D01*
X57718285Y-41778946D01*
X57150000Y-41665907D01*
X56581715Y-41778946D01*
X56099946Y-42100853D01*
X55778039Y-42582622D01*
X55665000Y-43150907D01*
X55210000Y-43150907D01*
X55210000Y-35400000D01*
X58898000Y-35400000D01*
X58898000Y-38215000D01*
M02*
