G04 #@! TF.FileFunction,Copper,L2,Bot,Signal*
%FSLAX46Y46*%
G04 Gerber Fmt 4.6, Leading zero omitted, Abs format (unit mm)*
G04 Created by KiCad (PCBNEW 4.0.6) date 11/10/17 02:40:48*
%MOMM*%
%LPD*%
G01*
G04 APERTURE LIST*
%ADD10C,0.100000*%
%ADD11C,1.524000*%
%ADD12O,3.400000X2.200000*%
%ADD13R,1.700000X1.700000*%
%ADD14O,1.700000X1.700000*%
%ADD15R,1.700000X0.900000*%
%ADD16C,0.600000*%
%ADD17C,0.600000*%
%ADD18C,0.254000*%
G04 APERTURE END LIST*
D10*
D11*
X97500000Y-40690000D03*
X97500000Y-43230000D03*
X97500000Y-45770000D03*
X97500000Y-48310000D03*
D12*
X100500000Y-52000000D03*
D13*
X93080000Y-43460000D03*
D14*
X93080000Y-46000000D03*
X90540000Y-43460000D03*
X90540000Y-46000000D03*
X88000000Y-43460000D03*
X88000000Y-46000000D03*
D15*
X102500000Y-45900000D03*
X102500000Y-43000000D03*
X88900000Y-52250000D03*
X88900000Y-49350000D03*
D16*
X92000000Y-50500000D03*
X92000000Y-52000000D03*
X91000000Y-53000000D03*
X92550000Y-47950000D03*
X104000000Y-46500000D03*
X104000000Y-45000000D03*
X104000000Y-44000000D03*
X104000000Y-42500000D03*
X86000000Y-36500000D03*
X86000000Y-38000000D03*
X90500000Y-39500000D03*
X93500000Y-41000000D03*
X95000000Y-41000000D03*
X92000000Y-41000000D03*
X89000000Y-39500000D03*
X87500000Y-39500000D03*
X86000000Y-39500000D03*
X86000000Y-41000000D03*
X87500000Y-41000000D03*
X89000000Y-41000000D03*
X90500000Y-41000000D03*
X101000000Y-48000000D03*
X102500000Y-48000000D03*
X101000000Y-41000000D03*
X102500000Y-41000000D03*
X104000000Y-52500000D03*
X104000000Y-51000000D03*
X104000000Y-49500000D03*
X104000000Y-48000000D03*
X105500000Y-48000000D03*
X107000000Y-48000000D03*
X108500000Y-48000000D03*
X109500000Y-47000000D03*
X109500000Y-45500000D03*
X109500000Y-43500000D03*
X109500000Y-44500000D03*
X109500000Y-42000000D03*
X108500000Y-41000000D03*
X107000000Y-41000000D03*
X105500000Y-41000000D03*
X104000000Y-41000000D03*
X104000000Y-39500000D03*
X104000000Y-38000000D03*
X104000000Y-36500000D03*
D17*
X95737999Y-46762001D02*
X95737999Y-45000000D01*
X95737999Y-44992001D02*
X95737999Y-45000000D01*
X97500000Y-43230000D02*
X95737999Y-44992001D01*
X92000000Y-50500000D02*
X95737999Y-46762001D01*
X92000000Y-52000000D02*
X93810000Y-52000000D01*
X93810000Y-52000000D02*
X97500000Y-48310000D01*
X102484308Y-45884308D02*
X101836617Y-46531999D01*
X101836617Y-46531999D02*
X98261999Y-46531999D01*
X98261999Y-46531999D02*
X97500000Y-45770000D01*
X91000000Y-53000000D02*
X89650000Y-53000000D01*
X89650000Y-53000000D02*
X88900000Y-52250000D01*
X92550000Y-47950000D02*
X90300000Y-47950000D01*
X90300000Y-47950000D02*
X88900000Y-49350000D01*
X104000000Y-45000000D02*
X104000000Y-46500000D01*
X104000000Y-41000000D02*
X104000000Y-42500000D01*
X86000000Y-38000000D02*
X86000000Y-36500000D01*
X93500000Y-41000000D02*
X95000000Y-41000000D01*
X92000000Y-41000000D02*
X93500000Y-41000000D01*
X87500000Y-39500000D02*
X89000000Y-39500000D01*
X86000000Y-39500000D02*
X87500000Y-39500000D01*
X89000000Y-41000000D02*
X87500000Y-41000000D01*
X90500000Y-42217919D02*
X90500000Y-41000000D01*
X90540000Y-43460000D02*
X90540000Y-42257919D01*
X90540000Y-42257919D02*
X90500000Y-42217919D01*
X100000000Y-41000000D02*
X101000000Y-41000000D01*
X104000000Y-48000000D02*
X102500000Y-48000000D01*
X98190000Y-40690000D02*
X98000000Y-40690000D01*
X98500000Y-41000000D02*
X98190000Y-40690000D01*
X100000000Y-41000000D02*
X98500000Y-41000000D01*
X104000000Y-41000000D02*
X102500000Y-41000000D01*
X104000000Y-49500000D02*
X104000000Y-51000000D01*
X104000000Y-48000000D02*
X104000000Y-49500000D01*
X107000000Y-48000000D02*
X105500000Y-48000000D01*
X109500000Y-45500000D02*
X109500000Y-47000000D01*
X108500000Y-41000000D02*
X109500000Y-42000000D01*
X105500000Y-41000000D02*
X107000000Y-41000000D01*
X104000000Y-39500000D02*
X104000000Y-41000000D01*
X104000000Y-36500000D02*
X104000000Y-38000000D01*
D18*
G36*
X92315000Y-36315000D02*
X92000000Y-36315000D01*
X91933830Y-36328162D01*
X91675022Y-36366222D01*
X91675020Y-36366223D01*
X91675018Y-36366223D01*
X91560329Y-36413729D01*
X91428093Y-36468503D01*
X91428092Y-36468504D01*
X91428090Y-36468505D01*
X91265879Y-36576892D01*
X91220995Y-36621777D01*
X90971719Y-36018485D01*
X90484082Y-35529996D01*
X89846627Y-35265301D01*
X89156401Y-35264699D01*
X88518485Y-35528281D01*
X88029996Y-36015918D01*
X87765301Y-36653373D01*
X87764699Y-37343599D01*
X88028281Y-37981515D01*
X88515918Y-38470004D01*
X89153373Y-38734699D01*
X89843599Y-38735301D01*
X90481515Y-38471719D01*
X90815000Y-38138816D01*
X90815000Y-38500000D01*
X90828162Y-38566170D01*
X90828162Y-38633636D01*
X90866222Y-38824978D01*
X90866223Y-38824980D01*
X90866223Y-38824982D01*
X90913729Y-38939671D01*
X90968503Y-39071907D01*
X90968504Y-39071908D01*
X90968505Y-39071910D01*
X91076892Y-39234121D01*
X91151410Y-39308638D01*
X91265879Y-39423108D01*
X91428090Y-39531495D01*
X91428092Y-39531496D01*
X91428093Y-39531497D01*
X91519976Y-39569556D01*
X91675018Y-39633777D01*
X91675020Y-39633777D01*
X91675022Y-39633778D01*
X91866365Y-39671838D01*
X91933830Y-39671838D01*
X92000000Y-39685000D01*
X96494156Y-39685000D01*
X96404774Y-39774382D01*
X96519785Y-39889393D01*
X96277603Y-39958857D01*
X96090856Y-40482302D01*
X96118638Y-41037368D01*
X96277603Y-41421143D01*
X96519787Y-41490608D01*
X97320395Y-40690000D01*
X97679605Y-40690000D01*
X98480213Y-41490608D01*
X98722397Y-41421143D01*
X98909144Y-40897698D01*
X98881362Y-40342632D01*
X98722397Y-39958857D01*
X98480213Y-39889392D01*
X97679605Y-40690000D01*
X97320395Y-40690000D01*
X97306253Y-40675858D01*
X97485858Y-40496253D01*
X97500000Y-40510395D01*
X98300608Y-39709787D01*
X98231143Y-39467603D01*
X97832019Y-39325209D01*
X97848590Y-39308638D01*
X97923108Y-39234121D01*
X98031495Y-39071910D01*
X98031496Y-39071908D01*
X98031497Y-39071907D01*
X98086271Y-38939671D01*
X98133777Y-38824982D01*
X98133777Y-38824980D01*
X98133778Y-38824978D01*
X98171838Y-38633635D01*
X98171838Y-38566170D01*
X98185000Y-38500000D01*
X98185000Y-38138508D01*
X98515918Y-38470004D01*
X99153373Y-38734699D01*
X99843599Y-38735301D01*
X100481515Y-38471719D01*
X100970004Y-37984082D01*
X101234699Y-37346627D01*
X101235301Y-36656401D01*
X100971719Y-36018485D01*
X100484082Y-35529996D01*
X99846627Y-35265301D01*
X99156401Y-35264699D01*
X98518485Y-35528281D01*
X98029996Y-36015918D01*
X97778592Y-36621364D01*
X97734121Y-36576892D01*
X97571910Y-36468505D01*
X97571908Y-36468504D01*
X97571907Y-36468503D01*
X97439671Y-36413729D01*
X97324982Y-36366223D01*
X97324980Y-36366223D01*
X97324978Y-36366222D01*
X97133636Y-36328162D01*
X97066170Y-36328162D01*
X97000000Y-36315000D01*
X96685000Y-36315000D01*
X96685000Y-34685000D01*
X102432533Y-34685000D01*
X103189435Y-34835557D01*
X103773908Y-35226089D01*
X104164443Y-35810565D01*
X104315000Y-36567467D01*
X104315000Y-40000000D01*
X104367143Y-40262138D01*
X104515632Y-40484368D01*
X104737862Y-40632857D01*
X105000000Y-40685000D01*
X108432533Y-40685000D01*
X108998094Y-40797497D01*
X109420357Y-41079643D01*
X109702503Y-41501906D01*
X109815000Y-42067466D01*
X109815000Y-46932534D01*
X109702503Y-47498094D01*
X109420357Y-47920357D01*
X108998094Y-48202503D01*
X108432533Y-48315000D01*
X105000000Y-48315000D01*
X104737862Y-48367143D01*
X104515632Y-48515632D01*
X104367143Y-48737862D01*
X104315000Y-49000000D01*
X104315000Y-51932533D01*
X104164443Y-52689435D01*
X103773908Y-53273911D01*
X103189435Y-53664443D01*
X102432533Y-53815000D01*
X91475982Y-53815000D01*
X91528943Y-53793117D01*
X91792192Y-53530327D01*
X91934838Y-53186799D01*
X91935057Y-52934944D01*
X92185167Y-52935162D01*
X92185559Y-52935000D01*
X93810000Y-52935000D01*
X94167809Y-52863827D01*
X94471145Y-52661145D01*
X97425355Y-49706935D01*
X97776661Y-49707242D01*
X98290303Y-49495010D01*
X98683629Y-49102370D01*
X98896757Y-48589100D01*
X98897242Y-48033339D01*
X98685010Y-47519697D01*
X98632404Y-47466999D01*
X101836617Y-47466999D01*
X102194426Y-47395826D01*
X102497762Y-47193144D01*
X102693466Y-46997440D01*
X103350000Y-46997440D01*
X103585317Y-46953162D01*
X103801441Y-46814090D01*
X103946431Y-46601890D01*
X103997440Y-46350000D01*
X103997440Y-45450000D01*
X103953162Y-45214683D01*
X103814090Y-44998559D01*
X103601890Y-44853569D01*
X103454862Y-44823795D01*
X104564716Y-44823795D01*
X104813106Y-45424943D01*
X105272637Y-45885278D01*
X105873352Y-46134716D01*
X106523795Y-46135284D01*
X107124943Y-45886894D01*
X107585278Y-45427363D01*
X107834716Y-44826648D01*
X107835284Y-44176205D01*
X107586894Y-43575057D01*
X107127363Y-43114722D01*
X106526648Y-42865284D01*
X105876205Y-42864716D01*
X105275057Y-43113106D01*
X104814722Y-43572637D01*
X104565284Y-44173352D01*
X104564716Y-44823795D01*
X103454862Y-44823795D01*
X103350000Y-44802560D01*
X101650000Y-44802560D01*
X101427320Y-44844460D01*
X101434716Y-44826648D01*
X101435284Y-44176205D01*
X101186894Y-43575057D01*
X100727363Y-43114722D01*
X100126648Y-42865284D01*
X99476205Y-42864716D01*
X98897111Y-43103994D01*
X98897242Y-42953339D01*
X98685010Y-42439697D01*
X98292370Y-42046371D01*
X98100273Y-41966605D01*
X98231143Y-41912397D01*
X98300608Y-41670213D01*
X97500000Y-40869605D01*
X96699392Y-41670213D01*
X96768857Y-41912397D01*
X96909318Y-41962509D01*
X96709697Y-42044990D01*
X96316371Y-42437630D01*
X96103243Y-42950900D01*
X96102934Y-43304776D01*
X95076854Y-44330856D01*
X94874172Y-44634192D01*
X94802999Y-44992001D01*
X94802999Y-46374711D01*
X94193466Y-46984244D01*
X94451961Y-46597378D01*
X94565000Y-46029093D01*
X94565000Y-45970907D01*
X94451961Y-45402622D01*
X94130054Y-44920853D01*
X94128821Y-44920029D01*
X94165317Y-44913162D01*
X94381441Y-44774090D01*
X94526431Y-44561890D01*
X94577440Y-44310000D01*
X94577440Y-42610000D01*
X94533162Y-42374683D01*
X94394090Y-42158559D01*
X94181890Y-42013569D01*
X93930000Y-41962560D01*
X92230000Y-41962560D01*
X91994683Y-42006838D01*
X91778559Y-42145910D01*
X91633569Y-42358110D01*
X91611699Y-42466107D01*
X91306924Y-42188355D01*
X90896890Y-42018524D01*
X90667000Y-42139845D01*
X90667000Y-43333000D01*
X90687000Y-43333000D01*
X90687000Y-43587000D01*
X90667000Y-43587000D01*
X90667000Y-43607000D01*
X90413000Y-43607000D01*
X90413000Y-43587000D01*
X90393000Y-43587000D01*
X90393000Y-43333000D01*
X90413000Y-43333000D01*
X90413000Y-42139845D01*
X90183110Y-42018524D01*
X89773076Y-42188355D01*
X89344817Y-42578642D01*
X89277702Y-42721553D01*
X89050054Y-42380853D01*
X88568285Y-42058946D01*
X88000000Y-41945907D01*
X87431715Y-42058946D01*
X86949946Y-42380853D01*
X86628039Y-42862622D01*
X86515000Y-43430907D01*
X86515000Y-43489093D01*
X86628039Y-44057378D01*
X86949946Y-44539147D01*
X87235578Y-44730000D01*
X86949946Y-44920853D01*
X86628039Y-45402622D01*
X86515000Y-45970907D01*
X86515000Y-46029093D01*
X86628039Y-46597378D01*
X86949946Y-47079147D01*
X87431715Y-47401054D01*
X88000000Y-47514093D01*
X88568285Y-47401054D01*
X89050054Y-47079147D01*
X89270000Y-46749974D01*
X89489946Y-47079147D01*
X89971715Y-47401054D01*
X90540000Y-47514093D01*
X91108285Y-47401054D01*
X91590054Y-47079147D01*
X91810000Y-46749974D01*
X92029946Y-47079147D01*
X92511715Y-47401054D01*
X93080000Y-47514093D01*
X93648285Y-47401054D01*
X94035151Y-47142559D01*
X91339146Y-49838564D01*
X91207808Y-49969673D01*
X91065162Y-50313201D01*
X91064838Y-50685167D01*
X91206883Y-51028943D01*
X91427709Y-51250155D01*
X91207808Y-51469673D01*
X91065162Y-51813201D01*
X91064943Y-52065056D01*
X90814833Y-52064838D01*
X90814441Y-52065000D01*
X90397440Y-52065000D01*
X90397440Y-51800000D01*
X90353162Y-51564683D01*
X90214090Y-51348559D01*
X90001890Y-51203569D01*
X89750000Y-51152560D01*
X88050000Y-51152560D01*
X87814683Y-51196838D01*
X87598559Y-51335910D01*
X87453569Y-51548110D01*
X87402560Y-51800000D01*
X87402560Y-52700000D01*
X87446838Y-52935317D01*
X87585910Y-53151441D01*
X87798110Y-53296431D01*
X88050000Y-53347440D01*
X88675150Y-53347440D01*
X88988855Y-53661145D01*
X89219116Y-53815000D01*
X87567467Y-53815000D01*
X86810565Y-53664443D01*
X86226089Y-53273908D01*
X85835557Y-52689435D01*
X85685000Y-51932533D01*
X85685000Y-36567467D01*
X85835557Y-35810565D01*
X86226089Y-35226092D01*
X86810565Y-34835557D01*
X87567467Y-34685000D01*
X92315000Y-34685000D01*
X92315000Y-36315000D01*
X92315000Y-36315000D01*
G37*
X92315000Y-36315000D02*
X92000000Y-36315000D01*
X91933830Y-36328162D01*
X91675022Y-36366222D01*
X91675020Y-36366223D01*
X91675018Y-36366223D01*
X91560329Y-36413729D01*
X91428093Y-36468503D01*
X91428092Y-36468504D01*
X91428090Y-36468505D01*
X91265879Y-36576892D01*
X91220995Y-36621777D01*
X90971719Y-36018485D01*
X90484082Y-35529996D01*
X89846627Y-35265301D01*
X89156401Y-35264699D01*
X88518485Y-35528281D01*
X88029996Y-36015918D01*
X87765301Y-36653373D01*
X87764699Y-37343599D01*
X88028281Y-37981515D01*
X88515918Y-38470004D01*
X89153373Y-38734699D01*
X89843599Y-38735301D01*
X90481515Y-38471719D01*
X90815000Y-38138816D01*
X90815000Y-38500000D01*
X90828162Y-38566170D01*
X90828162Y-38633636D01*
X90866222Y-38824978D01*
X90866223Y-38824980D01*
X90866223Y-38824982D01*
X90913729Y-38939671D01*
X90968503Y-39071907D01*
X90968504Y-39071908D01*
X90968505Y-39071910D01*
X91076892Y-39234121D01*
X91151410Y-39308638D01*
X91265879Y-39423108D01*
X91428090Y-39531495D01*
X91428092Y-39531496D01*
X91428093Y-39531497D01*
X91519976Y-39569556D01*
X91675018Y-39633777D01*
X91675020Y-39633777D01*
X91675022Y-39633778D01*
X91866365Y-39671838D01*
X91933830Y-39671838D01*
X92000000Y-39685000D01*
X96494156Y-39685000D01*
X96404774Y-39774382D01*
X96519785Y-39889393D01*
X96277603Y-39958857D01*
X96090856Y-40482302D01*
X96118638Y-41037368D01*
X96277603Y-41421143D01*
X96519787Y-41490608D01*
X97320395Y-40690000D01*
X97679605Y-40690000D01*
X98480213Y-41490608D01*
X98722397Y-41421143D01*
X98909144Y-40897698D01*
X98881362Y-40342632D01*
X98722397Y-39958857D01*
X98480213Y-39889392D01*
X97679605Y-40690000D01*
X97320395Y-40690000D01*
X97306253Y-40675858D01*
X97485858Y-40496253D01*
X97500000Y-40510395D01*
X98300608Y-39709787D01*
X98231143Y-39467603D01*
X97832019Y-39325209D01*
X97848590Y-39308638D01*
X97923108Y-39234121D01*
X98031495Y-39071910D01*
X98031496Y-39071908D01*
X98031497Y-39071907D01*
X98086271Y-38939671D01*
X98133777Y-38824982D01*
X98133777Y-38824980D01*
X98133778Y-38824978D01*
X98171838Y-38633635D01*
X98171838Y-38566170D01*
X98185000Y-38500000D01*
X98185000Y-38138508D01*
X98515918Y-38470004D01*
X99153373Y-38734699D01*
X99843599Y-38735301D01*
X100481515Y-38471719D01*
X100970004Y-37984082D01*
X101234699Y-37346627D01*
X101235301Y-36656401D01*
X100971719Y-36018485D01*
X100484082Y-35529996D01*
X99846627Y-35265301D01*
X99156401Y-35264699D01*
X98518485Y-35528281D01*
X98029996Y-36015918D01*
X97778592Y-36621364D01*
X97734121Y-36576892D01*
X97571910Y-36468505D01*
X97571908Y-36468504D01*
X97571907Y-36468503D01*
X97439671Y-36413729D01*
X97324982Y-36366223D01*
X97324980Y-36366223D01*
X97324978Y-36366222D01*
X97133636Y-36328162D01*
X97066170Y-36328162D01*
X97000000Y-36315000D01*
X96685000Y-36315000D01*
X96685000Y-34685000D01*
X102432533Y-34685000D01*
X103189435Y-34835557D01*
X103773908Y-35226089D01*
X104164443Y-35810565D01*
X104315000Y-36567467D01*
X104315000Y-40000000D01*
X104367143Y-40262138D01*
X104515632Y-40484368D01*
X104737862Y-40632857D01*
X105000000Y-40685000D01*
X108432533Y-40685000D01*
X108998094Y-40797497D01*
X109420357Y-41079643D01*
X109702503Y-41501906D01*
X109815000Y-42067466D01*
X109815000Y-46932534D01*
X109702503Y-47498094D01*
X109420357Y-47920357D01*
X108998094Y-48202503D01*
X108432533Y-48315000D01*
X105000000Y-48315000D01*
X104737862Y-48367143D01*
X104515632Y-48515632D01*
X104367143Y-48737862D01*
X104315000Y-49000000D01*
X104315000Y-51932533D01*
X104164443Y-52689435D01*
X103773908Y-53273911D01*
X103189435Y-53664443D01*
X102432533Y-53815000D01*
X91475982Y-53815000D01*
X91528943Y-53793117D01*
X91792192Y-53530327D01*
X91934838Y-53186799D01*
X91935057Y-52934944D01*
X92185167Y-52935162D01*
X92185559Y-52935000D01*
X93810000Y-52935000D01*
X94167809Y-52863827D01*
X94471145Y-52661145D01*
X97425355Y-49706935D01*
X97776661Y-49707242D01*
X98290303Y-49495010D01*
X98683629Y-49102370D01*
X98896757Y-48589100D01*
X98897242Y-48033339D01*
X98685010Y-47519697D01*
X98632404Y-47466999D01*
X101836617Y-47466999D01*
X102194426Y-47395826D01*
X102497762Y-47193144D01*
X102693466Y-46997440D01*
X103350000Y-46997440D01*
X103585317Y-46953162D01*
X103801441Y-46814090D01*
X103946431Y-46601890D01*
X103997440Y-46350000D01*
X103997440Y-45450000D01*
X103953162Y-45214683D01*
X103814090Y-44998559D01*
X103601890Y-44853569D01*
X103454862Y-44823795D01*
X104564716Y-44823795D01*
X104813106Y-45424943D01*
X105272637Y-45885278D01*
X105873352Y-46134716D01*
X106523795Y-46135284D01*
X107124943Y-45886894D01*
X107585278Y-45427363D01*
X107834716Y-44826648D01*
X107835284Y-44176205D01*
X107586894Y-43575057D01*
X107127363Y-43114722D01*
X106526648Y-42865284D01*
X105876205Y-42864716D01*
X105275057Y-43113106D01*
X104814722Y-43572637D01*
X104565284Y-44173352D01*
X104564716Y-44823795D01*
X103454862Y-44823795D01*
X103350000Y-44802560D01*
X101650000Y-44802560D01*
X101427320Y-44844460D01*
X101434716Y-44826648D01*
X101435284Y-44176205D01*
X101186894Y-43575057D01*
X100727363Y-43114722D01*
X100126648Y-42865284D01*
X99476205Y-42864716D01*
X98897111Y-43103994D01*
X98897242Y-42953339D01*
X98685010Y-42439697D01*
X98292370Y-42046371D01*
X98100273Y-41966605D01*
X98231143Y-41912397D01*
X98300608Y-41670213D01*
X97500000Y-40869605D01*
X96699392Y-41670213D01*
X96768857Y-41912397D01*
X96909318Y-41962509D01*
X96709697Y-42044990D01*
X96316371Y-42437630D01*
X96103243Y-42950900D01*
X96102934Y-43304776D01*
X95076854Y-44330856D01*
X94874172Y-44634192D01*
X94802999Y-44992001D01*
X94802999Y-46374711D01*
X94193466Y-46984244D01*
X94451961Y-46597378D01*
X94565000Y-46029093D01*
X94565000Y-45970907D01*
X94451961Y-45402622D01*
X94130054Y-44920853D01*
X94128821Y-44920029D01*
X94165317Y-44913162D01*
X94381441Y-44774090D01*
X94526431Y-44561890D01*
X94577440Y-44310000D01*
X94577440Y-42610000D01*
X94533162Y-42374683D01*
X94394090Y-42158559D01*
X94181890Y-42013569D01*
X93930000Y-41962560D01*
X92230000Y-41962560D01*
X91994683Y-42006838D01*
X91778559Y-42145910D01*
X91633569Y-42358110D01*
X91611699Y-42466107D01*
X91306924Y-42188355D01*
X90896890Y-42018524D01*
X90667000Y-42139845D01*
X90667000Y-43333000D01*
X90687000Y-43333000D01*
X90687000Y-43587000D01*
X90667000Y-43587000D01*
X90667000Y-43607000D01*
X90413000Y-43607000D01*
X90413000Y-43587000D01*
X90393000Y-43587000D01*
X90393000Y-43333000D01*
X90413000Y-43333000D01*
X90413000Y-42139845D01*
X90183110Y-42018524D01*
X89773076Y-42188355D01*
X89344817Y-42578642D01*
X89277702Y-42721553D01*
X89050054Y-42380853D01*
X88568285Y-42058946D01*
X88000000Y-41945907D01*
X87431715Y-42058946D01*
X86949946Y-42380853D01*
X86628039Y-42862622D01*
X86515000Y-43430907D01*
X86515000Y-43489093D01*
X86628039Y-44057378D01*
X86949946Y-44539147D01*
X87235578Y-44730000D01*
X86949946Y-44920853D01*
X86628039Y-45402622D01*
X86515000Y-45970907D01*
X86515000Y-46029093D01*
X86628039Y-46597378D01*
X86949946Y-47079147D01*
X87431715Y-47401054D01*
X88000000Y-47514093D01*
X88568285Y-47401054D01*
X89050054Y-47079147D01*
X89270000Y-46749974D01*
X89489946Y-47079147D01*
X89971715Y-47401054D01*
X90540000Y-47514093D01*
X91108285Y-47401054D01*
X91590054Y-47079147D01*
X91810000Y-46749974D01*
X92029946Y-47079147D01*
X92511715Y-47401054D01*
X93080000Y-47514093D01*
X93648285Y-47401054D01*
X94035151Y-47142559D01*
X91339146Y-49838564D01*
X91207808Y-49969673D01*
X91065162Y-50313201D01*
X91064838Y-50685167D01*
X91206883Y-51028943D01*
X91427709Y-51250155D01*
X91207808Y-51469673D01*
X91065162Y-51813201D01*
X91064943Y-52065056D01*
X90814833Y-52064838D01*
X90814441Y-52065000D01*
X90397440Y-52065000D01*
X90397440Y-51800000D01*
X90353162Y-51564683D01*
X90214090Y-51348559D01*
X90001890Y-51203569D01*
X89750000Y-51152560D01*
X88050000Y-51152560D01*
X87814683Y-51196838D01*
X87598559Y-51335910D01*
X87453569Y-51548110D01*
X87402560Y-51800000D01*
X87402560Y-52700000D01*
X87446838Y-52935317D01*
X87585910Y-53151441D01*
X87798110Y-53296431D01*
X88050000Y-53347440D01*
X88675150Y-53347440D01*
X88988855Y-53661145D01*
X89219116Y-53815000D01*
X87567467Y-53815000D01*
X86810565Y-53664443D01*
X86226089Y-53273908D01*
X85835557Y-52689435D01*
X85685000Y-51932533D01*
X85685000Y-36567467D01*
X85835557Y-35810565D01*
X86226089Y-35226092D01*
X86810565Y-34835557D01*
X87567467Y-34685000D01*
X92315000Y-34685000D01*
X92315000Y-36315000D01*
M02*
