M48
;DRILL file {KiCad 4.0.6} date Thu Nov 16 07:41:47 2017
;FORMAT={-:-/ absolute / inch / decimal}
FMAT,2
INCH,TZ
T1C0.016
T2C0.030
T3C0.039
T4C0.087
%
G90
G05
M72
T1
X3.3858Y-1.437
X3.3858Y-1.4961
X3.3858Y-1.5551
X3.3858Y-1.6142
X3.4449Y-1.5551
X3.4449Y-1.6142
X3.5039Y-1.5551
X3.5039Y-1.6142
X3.563Y-1.5551
X3.563Y-1.6142
X3.5827Y-2.0866
X3.622Y-1.6142
X3.622Y-1.9882
X3.622Y-2.0472
X3.6437Y-1.8878
X3.6811Y-1.6142
X3.7402Y-1.6142
X3.9764Y-1.6142
X3.9764Y-1.8898
X4.0354Y-1.6142
X4.0354Y-1.8898
X4.0945Y-1.437
X4.0945Y-1.4961
X4.0945Y-1.5551
X4.0945Y-1.6142
X4.0945Y-1.6732
X4.0945Y-1.7323
X4.0945Y-1.7717
X4.0945Y-1.8307
X4.0945Y-1.8898
X4.0945Y-1.9488
X4.0945Y-2.0079
X4.0945Y-2.0669
X4.1535Y-1.6142
X4.1535Y-1.8898
X4.2126Y-1.6142
X4.2126Y-1.8898
X4.2717Y-1.6142
X4.2717Y-1.8898
X4.311Y-1.6535
X4.311Y-1.7126
X4.311Y-1.752
X4.311Y-1.7913
X4.311Y-1.8504
T2
X3.8386Y-1.602
X3.8386Y-1.702
X3.8386Y-1.802
X3.8386Y-1.902
T3
X3.4646Y-1.711
X3.4646Y-1.811
X3.5646Y-1.711
X3.5646Y-1.811
X3.6646Y-1.711
X3.6646Y-1.811
T4
X3.9331Y-2.0472G85X3.9803Y-2.0472
G05
T0
M30
