<?xml version="1.0" encoding="UTF-8" standalone="no"?>
<!DOCTYPE svg PUBLIC "-//W3C//DTD SVG 1.0//EN" "http://www.w3.org/TR/2001/PR-SVG-20010719/DTD/svg10.dtd">
<svg width="58cm" height="45cm" viewBox="3 47 1145 887" xmlns="http://www.w3.org/2000/svg" xmlns:xlink="http://www.w3.org/1999/xlink">
  <text font-size="12.8" style="fill: #000000;text-anchor:start;font-family:sans-serif;font-style:normal;font-weight:normal" x="725" y="59">
    <tspan x="725" y="59">last datapoint older than 1 second?</tspan>
  </text>
  <g>
    <polyline style="fill: none; fill-opacity:0; stroke-width: 2; stroke: #000000" points="474.29,105.362 653.145,105.362 653.145,106 827.528,106 "/>
    <polyline style="fill: none; fill-opacity:0; stroke-width: 2; stroke: #000000" points="819.764,111 829.764,106 819.764,101 "/>
  </g>
  <g>
    <line style="fill: none; fill-opacity:0; stroke-width: 2; stroke-dasharray: 8; stroke: #000000" x1="872" y1="106" x2="967.295" y2="106"/>
    <polyline style="fill: none; fill-opacity:0; stroke-width: 2; stroke: #000000" points="954.647,111 970.647,106 954.647,101 "/>
    <text font-size="12.7998" style="fill: #000000;text-anchor:start;font-family:monospace;font-style:normal;font-weight:normal" x="893" y="87">{yes}</text>
  </g>
  <g>
    <polygon style="fill: #ffffff" points="832,106 852,86 872,106 852,126 "/>
    <polygon style="fill: none; fill-opacity:0; stroke-width: 2; stroke: #000000" points="832,106 852,86 872,106 852,126 "/>
  </g>
  <g>
    <line style="fill: none; fill-opacity:0; stroke-width: 2; stroke-dasharray: 8; stroke: #000000" x1="852" y1="126" x2="851.042" y2="279.295"/>
    <polyline style="fill: none; fill-opacity:0; stroke-width: 2; stroke: #000000" points="846.121,266.617 851.021,282.647 856.121,266.679 "/>
    <text font-size="12.7998" style="fill: #000000;text-anchor:start;font-family:monospace;font-style:normal;font-weight:normal" x="851.5" y="196">{no}</text>
  </g>
  <g>
    <rect style="fill: #ffffff" x="774" y="286" width="154" height="36" rx="20" ry="20"/>
    <rect style="fill: none; fill-opacity:0; stroke-width: 2; stroke: #000000" x="774" y="286" width="154" height="36" rx="20" ry="20"/>
    <text font-size="12.8" style="fill: #000000;text-anchor:middle;font-family:sans-serif;font-style:normal;font-weight:normal" x="851" y="307.9">
      <tspan x="851" y="307.9">set status connected</tspan>
    </text>
  </g>
  <g>
    <polyline style="fill: none; fill-opacity:0; stroke-width: 2; stroke: #000000" points="774,304 749.525,304 749.525,303.5 729.522,303.5 "/>
    <polyline style="fill: none; fill-opacity:0; stroke-width: 2; stroke: #000000" points="737.286,298.5 727.286,303.5 737.286,308.5 "/>
  </g>
  <g>
    <rect style="fill: #ffffff" x="131.203" y="472.912" width="100.1" height="36" rx="20" ry="20"/>
    <rect style="fill: none; fill-opacity:0; stroke-width: 2; stroke: #000000" x="131.203" y="472.912" width="100.1" height="36" rx="20" ry="20"/>
    <text font-size="12.8" style="fill: #000000;text-anchor:middle;font-family:sans-serif;font-style:normal;font-weight:normal" x="181.253" y="494.812">
      <tspan x="181.253" y="494.812">classify data</tspan>
    </text>
  </g>
  <g>
    <line style="fill: none; fill-opacity:0; stroke-width: 2; stroke-dasharray: 8; stroke: #000000" x1="181.253" y1="508.912" x2="182.126" y2="568.296"/>
    <polyline style="fill: none; fill-opacity:0; stroke-width: 2; stroke: #000000" points="176.941,555.723 182.176,571.648 186.94,555.576 "/>
    <text font-size="12.7998" style="fill: #000000;text-anchor:start;font-family:monospace;font-style:normal;font-weight:normal" x="181.74" y="537.956">{measurement data}</text>
  </g>
  <g>
    <line style="fill: none; fill-opacity:0; stroke-width: 2; stroke-dasharray: 8; stroke: #000000" x1="231.302" y1="490.912" x2="384.497" y2="492.828"/>
    <polyline style="fill: none; fill-opacity:0; stroke-width: 2; stroke: #000000" points="371.788,497.67 387.85,492.87 371.913,487.67 "/>
    <text font-size="12.7998" style="fill: #000000;text-anchor:start;font-family:monospace;font-style:normal;font-weight:normal" x="231.202" y="472.912">{signal / command}</text>
  </g>
  <g>
    <rect style="fill: #ffffff" x="121.725" y="655.912" width="121.25" height="36" rx="20" ry="20"/>
    <rect style="fill: none; fill-opacity:0; stroke-width: 2; stroke: #000000" x="121.725" y="655.912" width="121.25" height="36" rx="20" ry="20"/>
    <text font-size="12.8" style="fill: #000000;text-anchor:middle;font-family:sans-serif;font-style:normal;font-weight:normal" x="182.35" y="677.812">
      <tspan x="182.35" y="677.812">update digrams</tspan>
    </text>
  </g>
  <g>
    <polygon style="fill: #ffffff" points="391.202,492.912 411.202,472.912 431.202,492.912 411.202,512.912 "/>
    <polygon style="fill: none; fill-opacity:0; stroke-width: 2; stroke: #000000" points="391.202,492.912 411.202,472.912 431.202,492.912 411.202,512.912 "/>
  </g>
  <text font-size="12.8" style="fill: #000000;text-anchor:start;font-family:sans-serif;font-style:normal;font-weight:normal" x="383.202" y="459.912">
    <tspan x="383.202" y="459.912">critical?</tspan>
  </text>
  <g>
    <line style="fill: none; fill-opacity:0; stroke-width: 2; stroke-dasharray: 8; stroke: #000000" x1="431.202" y1="492.912" x2="524.498" y2="491.046"/>
    <polyline style="fill: none; fill-opacity:0; stroke-width: 2; stroke: #000000" points="511.953,496.298 527.85,490.979 511.753,486.3 "/>
    <text font-size="12.7998" style="fill: #000000;text-anchor:start;font-family:monospace;font-style:normal;font-weight:normal" x="451.202" y="471.912">{yes}</text>
  </g>
  <g>
    <line style="fill: none; fill-opacity:0; stroke-width: 2; stroke-dasharray: 8; stroke: #000000" x1="411.202" y1="512.912" x2="414.645" y2="732.296"/>
    <polyline style="fill: none; fill-opacity:0; stroke-width: 2; stroke: #000000" points="409.447,719.728 414.697,735.648 419.446,719.571 "/>
    <text font-size="12.7998" style="fill: #000000;text-anchor:start;font-family:monospace;font-style:normal;font-weight:normal" x="429.814" y="625.958">{no}</text>
  </g>
  <g>
    <rect style="fill: #ffffff" x="581.738" y="761.506" width="92.65" height="36" rx="20" ry="20"/>
    <rect style="fill: none; fill-opacity:0; stroke-width: 2; stroke: #000000" x="581.738" y="761.506" width="92.65" height="36" rx="20" ry="20"/>
    <text font-size="12.8" style="fill: #000000;text-anchor:middle;font-family:sans-serif;font-style:normal;font-weight:normal" x="628.063" y="783.406">
      <tspan x="628.063" y="783.406">write to log</tspan>
    </text>
  </g>
  <g>
    <rect style="fill: #ffffff" x="531.202" y="472.912" width="139.55" height="36" rx="20" ry="20"/>
    <rect style="fill: none; fill-opacity:0; stroke-width: 2; stroke: #000000" x="531.202" y="472.912" width="139.55" height="36" rx="20" ry="20"/>
    <text font-size="12.8" style="fill: #000000;text-anchor:middle;font-family:sans-serif;font-style:normal;font-weight:normal" x="600.977" y="494.812">
      <tspan x="600.977" y="494.812">write to critical log</tspan>
    </text>
  </g>
  <g>
    <rect style="fill: #ffffff" x="974" y="88" width="172.35" height="36" rx="20" ry="20"/>
    <rect style="fill: none; fill-opacity:0; stroke-width: 2; stroke: #000000" x="974" y="88" width="172.35" height="36" rx="20" ry="20"/>
    <text font-size="12.8" style="fill: #000000;text-anchor:middle;font-family:sans-serif;font-style:normal;font-weight:normal" x="1060.18" y="109.9">
      <tspan x="1060.18" y="109.9">set status disconnected</tspan>
    </text>
  </g>
  <ellipse style="fill: #000000" cx="20.7492" cy="490.912" rx="10" ry="10"/>
  <g>
    <polyline style="fill: none; fill-opacity:0; stroke-width: 2; stroke: #000000" points="30.7492,490.912 40.7492,490.912 121.203,490.912 126.731,490.912 "/>
    <polyline style="fill: none; fill-opacity:0; stroke-width: 2; stroke: #000000" points="118.967,495.912 128.967,490.912 118.967,485.912 "/>
  </g>
  <g>
    <polyline style="fill: none; fill-opacity:0; stroke-width: 2; stroke: #000000" points="1060.18,124 1060.18,134 1060.18,278.5 1060.18,284.028 "/>
    <polyline style="fill: none; fill-opacity:0; stroke-width: 2; stroke: #000000" points="1055.18,276.264 1060.18,286.264 1065.18,276.264 "/>
  </g>
  <g>
    <rect style="fill: #ffffff" x="990.4" y="288.5" width="139.55" height="36" rx="20" ry="20"/>
    <rect style="fill: none; fill-opacity:0; stroke-width: 2; stroke: #000000" x="990.4" y="288.5" width="139.55" height="36" rx="20" ry="20"/>
    <text font-size="12.8" style="fill: #000000;text-anchor:middle;font-family:sans-serif;font-style:normal;font-weight:normal" x="1060.18" y="310.4">
      <tspan x="1060.18" y="310.4">write to critical log</tspan>
    </text>
  </g>
  <g>
    <rect style="fill: #ffffff" x="632.4" y="285.5" width="92.65" height="36" rx="20" ry="20"/>
    <rect style="fill: none; fill-opacity:0; stroke-width: 2; stroke: #000000" x="632.4" y="285.5" width="92.65" height="36" rx="20" ry="20"/>
    <text font-size="12.8" style="fill: #000000;text-anchor:middle;font-family:sans-serif;font-style:normal;font-weight:normal" x="678.725" y="307.4">
      <tspan x="678.725" y="307.4">write to log</tspan>
    </text>
  </g>
  <g>
    <polyline style="fill: none; fill-opacity:0; stroke-width: 2; stroke: #000000" points="632.4,303.5 632.4,303 588,303 588,240.472 "/>
    <polyline style="fill: none; fill-opacity:0; stroke-width: 2; stroke: #000000" points="593,248.236 588,238.236 583,248.236 "/>
  </g>
  <g>
    <polyline style="fill: none; fill-opacity:0; stroke-width: 2; stroke: #000000" points="1060.18,324.5 1060.18,354.5 559,354.5 559,238.472 "/>
    <polyline style="fill: none; fill-opacity:0; stroke-width: 2; stroke: #000000" points="564,246.236 559,236.236 554,246.236 "/>
  </g>
  <rect style="fill: #000000" x="530" y="229" width="82" height="8"/>
  <g>
    <rect style="fill: #ffffff" x="516" y="150" width="108.8" height="36" rx="20" ry="20"/>
    <rect style="fill: none; fill-opacity:0; stroke-width: 2; stroke: #000000" x="516" y="150" width="108.8" height="36" rx="20" ry="20"/>
    <text font-size="12.8" style="fill: #000000;text-anchor:middle;font-family:sans-serif;font-style:normal;font-weight:normal" x="570.4" y="171.9">
      <tspan x="570.4" y="171.9">wait 1 second</tspan>
    </text>
  </g>
  <g>
    <polyline style="fill: none; fill-opacity:0; stroke-width: 2; stroke: #000000" points="571,229 571,207.5 570.4,207.5 570.4,190.472 "/>
    <polyline style="fill: none; fill-opacity:0; stroke-width: 2; stroke: #000000" points="575.4,198.236 570.4,188.236 565.4,198.236 "/>
  </g>
  <g>
    <polyline style="fill: none; fill-opacity:0; stroke-width: 2; stroke: #000000" points="570.4,150 570.4,128.5 571,128.5 571,111.472 "/>
    <polyline style="fill: none; fill-opacity:0; stroke-width: 2; stroke: #000000" points="576,119.236 571,109.236 566,119.236 "/>
  </g>
  <g>
    <polyline style="fill: none; fill-opacity:0; stroke-width: 2; stroke: #000000" points="670.752,490.912 742.138,490.912 742.138,553.77 809.052,553.77 "/>
    <polyline style="fill: none; fill-opacity:0; stroke-width: 2; stroke: #000000" points="801.289,558.77 811.289,553.77 801.289,548.77 "/>
  </g>
  <ellipse style="fill: #000000" cx="14.8156" cy="105.264" rx="10" ry="10"/>
  <g>
    <polyline style="fill: none; fill-opacity:0; stroke-width: 2; stroke: #000000" points="25.821,105.264 49.7059,105.264 49.7059,105.011 69.1187,105.011 "/>
    <polyline style="fill: none; fill-opacity:0; stroke-width: 2; stroke: #000000" points="61.3547,110.011 71.3547,105.011 61.3547,100.011 "/>
  </g>
  <g>
    <rect style="fill: #ffffff" x="204.146" y="87.011" width="80" height="36" rx="20" ry="20"/>
    <rect style="fill: none; fill-opacity:0; stroke-width: 2; stroke: #000000" x="204.146" y="87.011" width="80" height="36" rx="20" ry="20"/>
    <text font-size="12.8" style="fill: #000000;text-anchor:middle;font-family:sans-serif;font-style:normal;font-weight:normal" x="244.146" y="108.911">
      <tspan x="244.146" y="108.911">start log</tspan>
    </text>
  </g>
  <g>
    <polyline style="fill: none; fill-opacity:0; stroke-width: 2; stroke: #000000" points="153.591,105.011 163.591,105.011 194.146,105.011 199.674,105.011 "/>
    <polyline style="fill: none; fill-opacity:0; stroke-width: 2; stroke: #000000" points="191.91,110.011 201.91,105.011 191.91,100.011 "/>
  </g>
  <g>
    <rect style="fill: #ffffff" x="73.5908" y="87.011" width="80" height="36" rx="20" ry="20"/>
    <rect style="fill: none; fill-opacity:0; stroke-width: 2; stroke: #000000" x="73.5908" y="87.011" width="80" height="36" rx="20" ry="20"/>
    <text font-size="12.8" style="fill: #000000;text-anchor:middle;font-family:sans-serif;font-style:normal;font-weight:normal" x="113.591" y="108.911">
      <tspan x="113.591" y="108.911">init UI</tspan>
    </text>
  </g>
  <rect style="fill: #000000" x="362.916" y="733.822" width="86.8946" height="8"/>
  <g>
    <polyline style="fill: none; fill-opacity:0; stroke-width: 2; stroke: #000000" points="406.364,733.822 406.214,733.822 406.214,779.506 577.266,779.506 "/>
    <polyline style="fill: none; fill-opacity:0; stroke-width: 2; stroke: #000000" points="569.502,784.506 579.502,779.506 569.502,774.506 "/>
  </g>
  <g>
    <polyline style="fill: none; fill-opacity:0; stroke-width: 2; stroke: #000000" points="672.388,779.506 741.956,779.506 741.956,553.77 807.052,553.77 "/>
    <polyline style="fill: none; fill-opacity:0; stroke-width: 2; stroke: #000000" points="799.289,558.77 809.289,553.77 799.289,548.77 "/>
  </g>
  <ellipse style="fill: #000000" cx="824.53" cy="553.77" rx="10" ry="10"/>
  <text font-size="12.8" style="fill: #000000;text-anchor:start;font-family:sans-serif;font-style:normal;font-weight:normal" x="141.314" y="403.322">
    <tspan x="141.314" y="403.322"></tspan>
  </text>
  <text font-size="12.8" style="fill: #000000;text-anchor:start;font-family:sans-serif;font-style:normal;font-weight:normal" x="14.3137" y="462.322">
    <tspan x="14.3137" y="462.322">data input</tspan>
  </text>
  <text font-size="12.8" style="fill: #000000;text-anchor:start;font-family:sans-serif;font-style:normal;font-weight:normal" x="3.31376" y="71.9822">
    <tspan x="3.31376" y="71.9822">program startup</tspan>
  </text>
  <g>
    <rect style="fill: #ffffff" x="64.75" y="575" width="234.95" height="36" rx="20" ry="20"/>
    <rect style="fill: none; fill-opacity:0; stroke-width: 2; stroke: #000000" x="64.75" y="575" width="234.95" height="36" rx="20" ry="20"/>
    <text font-size="12.8" style="fill: #000000;text-anchor:middle;font-family:sans-serif;font-style:normal;font-weight:normal" x="182.225" y="596.9">
      <tspan x="182.225" y="596.9">append to measurement data file</tspan>
    </text>
  </g>
  <g>
    <polyline style="fill: none; fill-opacity:0; stroke-width: 2; stroke: #000000" points="182.225,611 182.225,633.456 182.35,633.456 182.35,651.44 "/>
    <polyline style="fill: none; fill-opacity:0; stroke-width: 2; stroke: #000000" points="177.35,643.676 182.35,653.676 187.35,643.676 "/>
  </g>
  <g>
    <rect style="fill: #ffffff" x="339.84" y="87.362" width="134.45" height="36" rx="20" ry="20"/>
    <rect style="fill: none; fill-opacity:0; stroke-width: 2; stroke: #000000" x="339.84" y="87.362" width="134.45" height="36" rx="20" ry="20"/>
    <text font-size="12.8" style="fill: #000000;text-anchor:middle;font-family:sans-serif;font-style:normal;font-weight:normal" x="407.065" y="109.262">
      <tspan x="407.065" y="109.262">set up connection</tspan>
    </text>
  </g>
  <g>
    <polyline style="fill: none; fill-opacity:0; stroke-width: 2; stroke: #000000" points="284.146,105.011 311.993,105.011 311.993,105.362 335.368,105.362 "/>
    <polyline style="fill: none; fill-opacity:0; stroke-width: 2; stroke: #000000" points="327.604,110.362 337.604,105.362 327.604,100.362 "/>
  </g>
  <g>
    <polyline style="fill: none; fill-opacity:0; stroke-width: 2; stroke: #000000" points="242.976,673.912 375.708,673.912 375.708,733.822 378.25,733.822 "/>
    <polyline style="fill: none; fill-opacity:0; stroke-width: 2; stroke: #000000" points="366.014,738.822 376.014,733.822 366.014,728.822 "/>
  </g>
  <ellipse style="fill: #000000" cx="22.5465" cy="913.756" rx="10" ry="10"/>
  <g>
    <rect style="fill: #ffffff" x="303.712" y="896.446" width="92.65" height="36" rx="20" ry="20"/>
    <rect style="fill: none; fill-opacity:0; stroke-width: 2; stroke: #000000" x="303.712" y="896.446" width="92.65" height="36" rx="20" ry="20"/>
    <text font-size="12.8" style="fill: #000000;text-anchor:middle;font-family:sans-serif;font-style:normal;font-weight:normal" x="350.037" y="918.346">
      <tspan x="350.037" y="918.346">write to log</tspan>
    </text>
  </g>
  <text font-size="12.8" style="fill: #000000;text-anchor:start;font-family:sans-serif;font-style:normal;font-weight:normal" x="20.18" y="878.726">
    <tspan x="20.18" y="878.726">user toggles test mode</tspan>
  </text>
  <g>
    <polyline style="fill: none; fill-opacity:0; stroke-width: 2; stroke: #000000" points="33.5519,913.756 72.6672,913.756 72.6672,914.174 107.31,914.174 "/>
    <polyline style="fill: none; fill-opacity:0; stroke-width: 2; stroke: #000000" points="99.5465,919.174 109.547,914.174 99.5465,909.174 "/>
  </g>
  <g>
    <rect style="fill: #ffffff" x="111.783" y="896.174" width="118.75" height="36" rx="20" ry="20"/>
    <rect style="fill: none; fill-opacity:0; stroke-width: 2; stroke: #000000" x="111.783" y="896.174" width="118.75" height="36" rx="20" ry="20"/>
    <text font-size="12.8" style="fill: #000000;text-anchor:middle;font-family:sans-serif;font-style:normal;font-weight:normal" x="171.158" y="918.074">
      <tspan x="171.158" y="918.074">send command</tspan>
    </text>
  </g>
  <g>
    <polyline style="fill: none; fill-opacity:0; stroke-width: 2; stroke: #000000" points="230.533,914.174 267.122,914.174 267.122,914.446 299.24,914.446 "/>
    <polyline style="fill: none; fill-opacity:0; stroke-width: 2; stroke: #000000" points="291.476,919.446 301.476,914.446 291.476,909.446 "/>
  </g>
  <g>
    <rect style="fill: #ffffff" x="459.654" y="896.174" width="82.35" height="36" rx="20" ry="20"/>
    <rect style="fill: none; fill-opacity:0; stroke-width: 2; stroke: #000000" x="459.654" y="896.174" width="82.35" height="36" rx="20" ry="20"/>
    <text font-size="12.8" style="fill: #000000;text-anchor:middle;font-family:sans-serif;font-style:normal;font-weight:normal" x="500.829" y="918.074">
      <tspan x="500.829" y="918.074">update UI</tspan>
    </text>
  </g>
  <g>
    <polyline style="fill: none; fill-opacity:0; stroke-width: 2; stroke: #000000" points="396.362,914.446 428.008,914.446 428.008,914.174 455.182,914.174 "/>
    <polyline style="fill: none; fill-opacity:0; stroke-width: 2; stroke: #000000" points="447.418,919.174 457.418,914.174 447.418,909.174 "/>
  </g>
  <ellipse style="fill: #000000" cx="624.506" cy="914.898" rx="10" ry="10"/>
  <g>
    <polyline style="fill: none; fill-opacity:0; stroke-width: 2; stroke: #000000" points="542.004,914.174 577.752,914.174 577.752,914.898 609.028,914.898 "/>
    <polyline style="fill: none; fill-opacity:0; stroke-width: 2; stroke: #000000" points="601.265,919.898 611.265,914.898 601.265,909.898 "/>
  </g>
</svg>
