<?xml version="1.0" encoding="UTF-8" standalone="no"?>
<!DOCTYPE svg PUBLIC "-//W3C//DTD SVG 1.0//EN" "http://www.w3.org/TR/2001/PR-SVG-20010719/DTD/svg10.dtd">
<svg width="53cm" height="26cm" viewBox="101 47 1046 505" xmlns="http://www.w3.org/2000/svg" xmlns:xlink="http://www.w3.org/1999/xlink">
  <text font-size="12.8" style="fill: #000000;text-anchor:start;font-family:sans-serif;font-style:normal;font-weight:normal" x="725" y="59">
    <tspan x="725" y="59">last datapoint older than 1 second?</tspan>
  </text>
  <g>
    <polyline style="fill: none; fill-opacity:0; stroke-width: 2; stroke: #000000" points="424.49,106.01 628.245,106.01 628.245,106 827.528,106 "/>
    <polyline style="fill: none; fill-opacity:0; stroke-width: 2; stroke: #000000" points="819.764,111 829.764,106 819.764,101 "/>
  </g>
  <g>
    <line style="fill: none; fill-opacity:0; stroke-width: 2; stroke-dasharray: 8; stroke: #000000" x1="872" y1="106" x2="967.295" y2="106"/>
    <polyline style="fill: none; fill-opacity:0; stroke-width: 2; stroke: #000000" points="954.647,111 970.647,106 954.647,101 "/>
    <text font-size="12.7998" style="fill: #000000;text-anchor:start;font-family:monospace;font-style:normal;font-weight:normal" x="893" y="87">{yes}</text>
  </g>
  <g>
    <polygon style="fill: #ffffff" points="832,106 852,86 872,106 852,126 "/>
    <polygon style="fill: none; fill-opacity:0; stroke-width: 2; stroke: #000000" points="832,106 852,86 872,106 852,126 "/>
  </g>
  <g>
    <line style="fill: none; fill-opacity:0; stroke-width: 2; stroke-dasharray: 8; stroke: #000000" x1="852" y1="126" x2="851.042" y2="279.295"/>
    <polyline style="fill: none; fill-opacity:0; stroke-width: 2; stroke: #000000" points="846.121,266.617 851.021,282.647 856.121,266.679 "/>
    <text font-size="12.7998" style="fill: #000000;text-anchor:start;font-family:monospace;font-style:normal;font-weight:normal" x="851.5" y="196">{no}</text>
  </g>
  <g>
    <rect style="fill: #ffffff" x="774" y="286" width="154" height="36" rx="20" ry="20"/>
    <rect style="fill: none; fill-opacity:0; stroke-width: 2; stroke: #000000" x="774" y="286" width="154" height="36" rx="20" ry="20"/>
    <text font-size="12.8" style="fill: #000000;text-anchor:middle;font-family:sans-serif;font-style:normal;font-weight:normal" x="851" y="307.9">
      <tspan x="851" y="307.9">set status connected</tspan>
    </text>
  </g>
  <g>
    <polyline style="fill: none; fill-opacity:0; stroke-width: 2; stroke: #000000" points="774,304 749.525,304 749.525,303.5 729.522,303.5 "/>
    <polyline style="fill: none; fill-opacity:0; stroke-width: 2; stroke: #000000" points="737.286,298.5 727.286,303.5 737.286,308.5 "/>
  </g>
  <g>
    <rect style="fill: #ffffff" x="974" y="88" width="172.35" height="36" rx="20" ry="20"/>
    <rect style="fill: none; fill-opacity:0; stroke-width: 2; stroke: #000000" x="974" y="88" width="172.35" height="36" rx="20" ry="20"/>
    <text font-size="12.8" style="fill: #000000;text-anchor:middle;font-family:sans-serif;font-style:normal;font-weight:normal" x="1060.18" y="109.9">
      <tspan x="1060.18" y="109.9">set status disconnected</tspan>
    </text>
  </g>
  <g>
    <polyline style="fill: none; fill-opacity:0; stroke-width: 2; stroke: #000000" points="1060.18,124 1060.18,134 1060.18,278.5 1060.18,284.028 "/>
    <polyline style="fill: none; fill-opacity:0; stroke-width: 2; stroke: #000000" points="1055.18,276.264 1060.18,286.264 1065.18,276.264 "/>
  </g>
  <g>
    <rect style="fill: #ffffff" x="990.4" y="288.5" width="139.55" height="36" rx="20" ry="20"/>
    <rect style="fill: none; fill-opacity:0; stroke-width: 2; stroke: #000000" x="990.4" y="288.5" width="139.55" height="36" rx="20" ry="20"/>
    <text font-size="12.8" style="fill: #000000;text-anchor:middle;font-family:sans-serif;font-style:normal;font-weight:normal" x="1060.18" y="310.4">
      <tspan x="1060.18" y="310.4">write to critical log</tspan>
    </text>
  </g>
  <g>
    <rect style="fill: #ffffff" x="632.4" y="285.5" width="92.65" height="36" rx="20" ry="20"/>
    <rect style="fill: none; fill-opacity:0; stroke-width: 2; stroke: #000000" x="632.4" y="285.5" width="92.65" height="36" rx="20" ry="20"/>
    <text font-size="12.8" style="fill: #000000;text-anchor:middle;font-family:sans-serif;font-style:normal;font-weight:normal" x="678.725" y="307.4">
      <tspan x="678.725" y="307.4">write to log</tspan>
    </text>
  </g>
  <g>
    <polyline style="fill: none; fill-opacity:0; stroke-width: 2; stroke: #000000" points="632.4,303.5 632.4,303 588,303 588,240.472 "/>
    <polyline style="fill: none; fill-opacity:0; stroke-width: 2; stroke: #000000" points="593,248.236 588,238.236 583,248.236 "/>
  </g>
  <g>
    <polyline style="fill: none; fill-opacity:0; stroke-width: 2; stroke: #000000" points="1060.18,324.5 1060.18,354.5 559,354.5 559,238.472 "/>
    <polyline style="fill: none; fill-opacity:0; stroke-width: 2; stroke: #000000" points="564,246.236 559,236.236 554,246.236 "/>
  </g>
  <rect style="fill: #000000" x="530" y="229" width="82" height="8"/>
  <g>
    <rect style="fill: #ffffff" x="516.917" y="150" width="108.8" height="36" rx="20" ry="20"/>
    <rect style="fill: none; fill-opacity:0; stroke-width: 2; stroke: #000000" x="516.917" y="150" width="108.8" height="36" rx="20" ry="20"/>
    <text font-size="12.8" style="fill: #000000;text-anchor:middle;font-family:sans-serif;font-style:normal;font-weight:normal" x="571.317" y="171.9">
      <tspan x="571.317" y="171.9">wait 1 second</tspan>
    </text>
  </g>
  <g>
    <polyline style="fill: none; fill-opacity:0; stroke-width: 2; stroke: #000000" points="571,229 571,207.5 571.317,207.5 571.317,190.472 "/>
    <polyline style="fill: none; fill-opacity:0; stroke-width: 2; stroke: #000000" points="576.317,198.236 571.317,188.236 566.317,198.236 "/>
  </g>
  <g>
    <polyline style="fill: none; fill-opacity:0; stroke-width: 2; stroke: #000000" points="571.317,150 571.317,128.341 570.781,128.341 570.781,111.154 "/>
    <polyline style="fill: none; fill-opacity:0; stroke-width: 2; stroke: #000000" points="575.781,118.918 570.781,108.918 565.781,118.918 "/>
  </g>
  <ellipse style="fill: #000000" cx="152.816" cy="288.264" rx="10" ry="10"/>
  <g>
    <polyline style="fill: none; fill-opacity:0; stroke-width: 2; stroke: #000000" points="163.821,288.264 187.706,288.264 187.706,288.011 207.119,288.011 "/>
    <polyline style="fill: none; fill-opacity:0; stroke-width: 2; stroke: #000000" points="199.355,293.011 209.355,288.011 199.355,283.011 "/>
  </g>
  <g>
    <rect style="fill: #ffffff" x="333.146" y="270.011" width="80" height="36" rx="20" ry="20"/>
    <rect style="fill: none; fill-opacity:0; stroke-width: 2; stroke: #000000" x="333.146" y="270.011" width="80" height="36" rx="20" ry="20"/>
    <text font-size="12.8" style="fill: #000000;text-anchor:middle;font-family:sans-serif;font-style:normal;font-weight:normal" x="373.146" y="291.911">
      <tspan x="373.146" y="291.911">start log</tspan>
    </text>
  </g>
  <g>
    <polyline style="fill: none; fill-opacity:0; stroke-width: 2; stroke: #000000" points="291.591,288.011 301.591,288.011 323.146,288.011 328.674,288.011 "/>
    <polyline style="fill: none; fill-opacity:0; stroke-width: 2; stroke: #000000" points="320.91,293.011 330.91,288.011 320.91,283.011 "/>
  </g>
  <g>
    <rect style="fill: #ffffff" x="211.591" y="270.011" width="80" height="36" rx="20" ry="20"/>
    <rect style="fill: none; fill-opacity:0; stroke-width: 2; stroke: #000000" x="211.591" y="270.011" width="80" height="36" rx="20" ry="20"/>
    <text font-size="12.8" style="fill: #000000;text-anchor:middle;font-family:sans-serif;font-style:normal;font-weight:normal" x="251.591" y="291.911">
      <tspan x="251.591" y="291.911">init UI</tspan>
    </text>
  </g>
  <text font-size="12.8" style="fill: #000000;text-anchor:start;font-family:sans-serif;font-style:normal;font-weight:normal" x="141.314" y="403.322">
    <tspan x="141.314" y="403.322"></tspan>
  </text>
  <text font-size="12.8" style="fill: #000000;text-anchor:start;font-family:sans-serif;font-style:normal;font-weight:normal" x="101.792" y="266.755">
    <tspan x="101.792" y="266.755">program startup</tspan>
  </text>
  <g>
    <rect style="fill: #ffffff" x="209.84" y="88.0104" width="214.65" height="36" rx="20" ry="20"/>
    <rect style="fill: none; fill-opacity:0; stroke-width: 2; stroke: #000000" x="209.84" y="88.0104" width="214.65" height="36" rx="20" ry="20"/>
    <text font-size="12.8" style="fill: #000000;text-anchor:middle;font-family:sans-serif;font-style:normal;font-weight:normal" x="317.165" y="109.91">
      <tspan x="317.165" y="109.91">set up serial or tcp connection</tspan>
    </text>
  </g>
  <g>
    <polyline style="fill: none; fill-opacity:0; stroke-width: 2; stroke: #000000" points="413.146,288.011 443.146,288.011 443.146,237.896 183.115,237.896 183.115,187.78 208.642,187.78 "/>
    <polyline style="fill: none; fill-opacity:0; stroke-width: 2; stroke: #000000" points="200.879,192.78 210.879,187.78 200.879,182.78 "/>
  </g>
  <g>
    <rect style="fill: #ffffff" x="699.124" y="425.816" width="132.5" height="36" rx="20" ry="20"/>
    <rect style="fill: none; fill-opacity:0; stroke-width: 2; stroke: #000000" x="699.124" y="425.816" width="132.5" height="36" rx="20" ry="20"/>
    <text font-size="12.8" style="fill: #000000;text-anchor:middle;font-family:sans-serif;font-style:normal;font-weight:normal" x="765.374" y="447.716">
      <tspan x="765.374" y="447.716">write to database</tspan>
    </text>
  </g>
  <g>
    <rect style="fill: #ffffff" x="509.028" y="425.544" width="149.05" height="36" rx="20" ry="20"/>
    <rect style="fill: none; fill-opacity:0; stroke-width: 2; stroke: #000000" x="509.028" y="425.544" width="149.05" height="36" rx="20" ry="20"/>
    <text font-size="12.8" style="fill: #000000;text-anchor:middle;font-family:sans-serif;font-style:normal;font-weight:normal" x="583.553" y="447.444">
      <tspan x="583.553" y="447.444">process data packet</tspan>
    </text>
  </g>
  <g>
    <polyline style="fill: none; fill-opacity:0; stroke-width: 2; stroke: #000000" points="658.078,443.544 678.601,443.544 678.601,443.816 694.652,443.816 "/>
    <polyline style="fill: none; fill-opacity:0; stroke-width: 2; stroke: #000000" points="686.888,448.816 696.888,443.816 686.888,438.816 "/>
  </g>
  <g>
    <rect style="fill: #ffffff" x="873.406" y="425.544" width="82.35" height="36" rx="20" ry="20"/>
    <rect style="fill: none; fill-opacity:0; stroke-width: 2; stroke: #000000" x="873.406" y="425.544" width="82.35" height="36" rx="20" ry="20"/>
    <text font-size="12.8" style="fill: #000000;text-anchor:middle;font-family:sans-serif;font-style:normal;font-weight:normal" x="914.581" y="447.444">
      <tspan x="914.581" y="447.444">update UI</tspan>
    </text>
  </g>
  <g>
    <polyline style="fill: none; fill-opacity:0; stroke-width: 2; stroke: #000000" points="831.624,443.816 852.515,443.816 852.515,443.544 868.934,443.544 "/>
    <polyline style="fill: none; fill-opacity:0; stroke-width: 2; stroke: #000000" points="861.17,448.544 871.17,443.544 861.17,438.544 "/>
  </g>
  <ellipse style="fill: #000000" cx="1021.75" cy="443.351" rx="10" ry="10"/>
  <g>
    <polyline style="fill: none; fill-opacity:0; stroke-width: 2; stroke: #000000" points="955.756,443.544 983.251,443.544 983.251,443.351 1006.27,443.351 "/>
    <polyline style="fill: none; fill-opacity:0; stroke-width: 2; stroke: #000000" points="998.51,448.351 1008.51,443.351 998.51,438.351 "/>
  </g>
  <g>
    <rect style="fill: #ffffff" x="213.115" y="169.78" width="197.9" height="36" rx="20" ry="20"/>
    <rect style="fill: none; fill-opacity:0; stroke-width: 2; stroke: #000000" x="213.115" y="169.78" width="197.9" height="36" rx="20" ry="20"/>
    <text font-size="12.7998" style="fill: #000000;text-anchor:middle;font-family:sans-serif;font-style:normal;font-weight:normal" x="312.065" y="191.68">
      <tspan x="312.065" y="191.68">set up database connection</tspan>
    </text>
  </g>
  <g>
    <polyline style="fill: none; fill-opacity:0; stroke-width: 2; stroke: #000000" points="411.015,187.78 441.015,187.78 441.015,146.895 179.84,146.895 179.84,106.01 205.368,106.01 "/>
    <polyline style="fill: none; fill-opacity:0; stroke-width: 2; stroke: #000000" points="197.604,111.01 207.604,106.01 197.604,101.01 "/>
  </g>
  <ellipse style="fill: #000000" cx="245.987" cy="443.35" rx="10" ry="10"/>
  <text font-size="12.8" style="fill: #000000;text-anchor:start;font-family:sans-serif;font-style:normal;font-weight:normal" x="243.62" y="410.154">
    <tspan x="243.62" y="410.154">data input</tspan>
  </text>
  <g>
    <polyline style="fill: none; fill-opacity:0; stroke-width: 2; stroke: #000000" points="256.992,443.35 299.317,443.35 299.317,443.768 337.17,443.768 "/>
    <polyline style="fill: none; fill-opacity:0; stroke-width: 2; stroke: #000000" points="329.406,448.768 339.406,443.768 329.406,438.768 "/>
  </g>
  <g>
    <rect style="fill: #ffffff" x="341.642" y="425.768" width="121.45" height="36" rx="20" ry="20"/>
    <rect style="fill: none; fill-opacity:0; stroke-width: 2; stroke: #000000" x="341.642" y="425.768" width="121.45" height="36" rx="20" ry="20"/>
    <text font-size="12.8" style="fill: #000000;text-anchor:middle;font-family:sans-serif;font-style:normal;font-weight:normal" x="402.367" y="447.668">
      <tspan x="402.367" y="447.668">record raw data</tspan>
    </text>
  </g>
  <g>
    <polyline style="fill: none; fill-opacity:0; stroke-width: 2; stroke: #000000" points="463.092,443.768 486.06,443.768 486.06,443.544 504.556,443.544 "/>
    <polyline style="fill: none; fill-opacity:0; stroke-width: 2; stroke: #000000" points="496.792,448.544 506.792,443.544 496.792,438.544 "/>
  </g>
  <ellipse style="fill: #000000" cx="334.654" cy="532.265" rx="10" ry="10"/>
  <g>
    <rect style="fill: #ffffff" x="615.819" y="514.955" width="92.65" height="36" rx="20" ry="20"/>
    <rect style="fill: none; fill-opacity:0; stroke-width: 2; stroke: #000000" x="615.819" y="514.955" width="92.65" height="36" rx="20" ry="20"/>
    <text font-size="12.8" style="fill: #000000;text-anchor:middle;font-family:sans-serif;font-style:normal;font-weight:normal" x="662.144" y="536.855">
      <tspan x="662.144" y="536.855">write to log</tspan>
    </text>
  </g>
  <text font-size="12.8" style="fill: #000000;text-anchor:start;font-family:sans-serif;font-style:normal;font-weight:normal" x="332.287" y="497.235">
    <tspan x="332.287" y="497.235">user toggles test mode</tspan>
  </text>
  <g>
    <polyline style="fill: none; fill-opacity:0; stroke-width: 2; stroke: #000000" points="345.659,532.265 384.774,532.265 384.774,532.683 419.418,532.683 "/>
    <polyline style="fill: none; fill-opacity:0; stroke-width: 2; stroke: #000000" points="411.654,537.683 421.654,532.683 411.654,527.683 "/>
  </g>
  <g>
    <rect style="fill: #ffffff" x="423.89" y="514.683" width="118.75" height="36" rx="20" ry="20"/>
    <rect style="fill: none; fill-opacity:0; stroke-width: 2; stroke: #000000" x="423.89" y="514.683" width="118.75" height="36" rx="20" ry="20"/>
    <text font-size="12.8" style="fill: #000000;text-anchor:middle;font-family:sans-serif;font-style:normal;font-weight:normal" x="483.265" y="536.583">
      <tspan x="483.265" y="536.583">send command</tspan>
    </text>
  </g>
  <g>
    <polyline style="fill: none; fill-opacity:0; stroke-width: 2; stroke: #000000" points="542.64,532.683 579.229,532.683 579.229,532.955 611.347,532.955 "/>
    <polyline style="fill: none; fill-opacity:0; stroke-width: 2; stroke: #000000" points="603.583,537.955 613.583,532.955 603.583,527.955 "/>
  </g>
  <g>
    <rect style="fill: #ffffff" x="771.761" y="514.683" width="82.35" height="36" rx="20" ry="20"/>
    <rect style="fill: none; fill-opacity:0; stroke-width: 2; stroke: #000000" x="771.761" y="514.683" width="82.35" height="36" rx="20" ry="20"/>
    <text font-size="12.8" style="fill: #000000;text-anchor:middle;font-family:sans-serif;font-style:normal;font-weight:normal" x="812.936" y="536.583">
      <tspan x="812.936" y="536.583">update UI</tspan>
    </text>
  </g>
  <g>
    <polyline style="fill: none; fill-opacity:0; stroke-width: 2; stroke: #000000" points="708.469,532.955 740.115,532.955 740.115,532.683 767.289,532.683 "/>
    <polyline style="fill: none; fill-opacity:0; stroke-width: 2; stroke: #000000" points="759.525,537.683 769.525,532.683 759.525,527.683 "/>
  </g>
  <ellipse style="fill: #000000" cx="936.613" cy="532.49" rx="10" ry="10"/>
  <g>
    <polyline style="fill: none; fill-opacity:0; stroke-width: 2; stroke: #000000" points="854.111,532.683 889.859,532.683 889.859,532.49 921.136,532.49 "/>
    <polyline style="fill: none; fill-opacity:0; stroke-width: 2; stroke: #000000" points="913.372,537.49 923.372,532.49 913.372,527.49 "/>
  </g>
</svg>
