<?xml version="1.0" standalone="no"?>
 <!DOCTYPE svg PUBLIC "-//W3C//DTD SVG 1.1//EN" 
 "http://www.w3.org/Graphics/SVG/1.1/DTD/svg11.dtd"> 
<svg xmlns="http://www.w3.org/2000/svg" version="1.1" 
    width="29.7002cm" height="21.0007cm" viewBox="0 0 116930 82680 ">
<title>SVG Picture created as pressure-sensor.svg date 2017/05/30 17:04:19 </title>
  <desc>Picture generated by Eeschema-SVG </desc>
<g style="fill:#000000; fill-opacity:1;stroke:#000000; stroke-opacity:1;
stroke-linecap:round; stroke-linejoin:round; "
 transform="translate(0 0) scale(1 1)">
</g>
<g style="fill:#000000; fill-opacity:0.0; 
stroke:#000000; stroke-width:-10; stroke-opacity:1; 
stroke-linecap:round; stroke-linejoin:round;">
</g>
<g style="fill:#840000; fill-opacity:0.0; 
stroke:#840000; stroke-width:-10; stroke-opacity:1; 
stroke-linecap:round; stroke-linejoin:round;">
</g>
<g style="fill:#840000; fill-opacity:0.0; 
stroke:#840000; stroke-width:100; stroke-opacity:1; 
stroke-linecap:round; stroke-linejoin:round;">
</g>
<g style="fill:#840000; fill-opacity:0.0; 
stroke:#840000; stroke-width:60; stroke-opacity:1; 
stroke-linecap:round; stroke-linejoin:round;">
<rect x="69690" y="65360" width="42520" height="12600" rx="0" />
</g>
<g style="fill:#840000; fill-opacity:0.0; 
stroke:#840000; stroke-width:100; stroke-opacity:1; 
stroke-linecap:round; stroke-linejoin:round;">
</g>
<g style="fill:#840000; fill-opacity:0.0; 
stroke:#840000; stroke-width:60; stroke-opacity:1; 
stroke-linecap:round; stroke-linejoin:round;">
<rect x="3940" y="3940" width="109050" height="74800" rx="0" />
</g>
<g style="fill:#840000; fill-opacity:0.0; 
stroke:#840000; stroke-width:100; stroke-opacity:1; 
stroke-linecap:round; stroke-linejoin:round;">
</g>
<g style="fill:#840000; fill-opacity:0.0; 
stroke:#840000; stroke-width:60; stroke-opacity:1; 
stroke-linecap:round; stroke-linejoin:round;">
<rect x="4720" y="4720" width="107490" height="73240" rx="0" />
</g>
<g style="fill:#840000; fill-opacity:0.0; 
stroke:#840000; stroke-width:100; stroke-opacity:1; 
stroke-linecap:round; stroke-linejoin:round;">
</g>
<g style="fill:#840000; fill-opacity:0.0; 
stroke:#840000; stroke-width:60; stroke-opacity:1; 
stroke-linecap:round; stroke-linejoin:round;">
<path d="M23620 4720
L23620 3940
" />
</g>
<g style="fill:#840000; fill-opacity:0.0; 
stroke:#840000; stroke-width:100; stroke-opacity:1; 
stroke-linecap:round; stroke-linejoin:round;">
</g>
<g style="fill:#840000; fill-opacity:0.0; 
stroke:#840000; stroke-width:60; stroke-opacity:1; 
stroke-linecap:round; stroke-linejoin:round;">
<path d="M43310 4720
L43310 3940
" />
</g>
<g style="fill:#840000; fill-opacity:0.0; 
stroke:#840000; stroke-width:100; stroke-opacity:1; 
stroke-linecap:round; stroke-linejoin:round;">
</g>
<g style="fill:#840000; fill-opacity:0.0; 
stroke:#840000; stroke-width:60; stroke-opacity:1; 
stroke-linecap:round; stroke-linejoin:round;">
<path d="M62990 4720
L62990 3940
" />
</g>
<g style="fill:#840000; fill-opacity:0.0; 
stroke:#840000; stroke-width:100; stroke-opacity:1; 
stroke-linecap:round; stroke-linejoin:round;">
</g>
<g style="fill:#840000; fill-opacity:0.0; 
stroke:#840000; stroke-width:60; stroke-opacity:1; 
stroke-linecap:round; stroke-linejoin:round;">
<path d="M82680 4720
L82680 3940
" />
</g>
<g style="fill:#840000; fill-opacity:0.0; 
stroke:#840000; stroke-width:100; stroke-opacity:1; 
stroke-linecap:round; stroke-linejoin:round;">
</g>
<g style="fill:#840000; fill-opacity:0.0; 
stroke:#840000; stroke-width:60; stroke-opacity:1; 
stroke-linecap:round; stroke-linejoin:round;">
<path d="M102360 4720
L102360 3940
" />
</g>
<g style="fill:#840000; fill-opacity:0.0; 
stroke:#840000; stroke-width:100; stroke-opacity:1; 
stroke-linecap:round; stroke-linejoin:round;">
</g>
<g style="fill:#840000; fill-opacity:0.0; 
stroke:#840000; stroke-width:60; stroke-opacity:1; 
stroke-linecap:round; stroke-linejoin:round;">
<path d="M14170 4560
L13880 4560
" />
<path d="M14020 4560
L14020 4050
L13970 4120
L13930 4170
L13880 4190
" />
</g>
<g style="fill:#840000; fill-opacity:0.0; 
stroke:#840000; stroke-width:100; stroke-opacity:1; 
stroke-linecap:round; stroke-linejoin:round;">
</g>
<g style="fill:#840000; fill-opacity:0.0; 
stroke:#840000; stroke-width:60; stroke-opacity:1; 
stroke-linecap:round; stroke-linejoin:round;">
<path d="M33560 4090
L33580 4070
L33630 4050
L33750 4050
L33800 4070
L33820 4090
L33850 4140
L33850 4190
L33820 4260
L33530 4560
L33850 4560
" />
</g>
<g style="fill:#840000; fill-opacity:0.0; 
stroke:#840000; stroke-width:100; stroke-opacity:1; 
stroke-linecap:round; stroke-linejoin:round;">
</g>
<g style="fill:#840000; fill-opacity:0.0; 
stroke:#840000; stroke-width:60; stroke-opacity:1; 
stroke-linecap:round; stroke-linejoin:round;">
<path d="M53220 4050
L53540 4050
L53370 4240
L53440 4240
L53490 4260
L53510 4290
L53540 4340
L53540 4460
L53510 4510
L53490 4530
L53440 4560
L53300 4560
L53250 4530
L53220 4510
" />
</g>
<g style="fill:#840000; fill-opacity:0.0; 
stroke:#840000; stroke-width:100; stroke-opacity:1; 
stroke-linecap:round; stroke-linejoin:round;">
</g>
<g style="fill:#840000; fill-opacity:0.0; 
stroke:#840000; stroke-width:60; stroke-opacity:1; 
stroke-linecap:round; stroke-linejoin:round;">
<path d="M73170 4220
L73170 4560
" />
<path d="M73050 4020
L72930 4390
L73240 4390
" />
</g>
<g style="fill:#840000; fill-opacity:0.0; 
stroke:#840000; stroke-width:100; stroke-opacity:1; 
stroke-linecap:round; stroke-linejoin:round;">
</g>
<g style="fill:#840000; fill-opacity:0.0; 
stroke:#840000; stroke-width:60; stroke-opacity:1; 
stroke-linecap:round; stroke-linejoin:round;">
<path d="M92880 4050
L92640 4050
L92620 4290
L92640 4260
L92690 4240
L92810 4240
L92860 4260
L92880 4290
L92910 4340
L92910 4460
L92880 4510
L92860 4530
L92810 4560
L92690 4560
L92640 4530
L92620 4510
" />
</g>
<g style="fill:#840000; fill-opacity:0.0; 
stroke:#840000; stroke-width:100; stroke-opacity:1; 
stroke-linecap:round; stroke-linejoin:round;">
</g>
<g style="fill:#840000; fill-opacity:0.0; 
stroke:#840000; stroke-width:60; stroke-opacity:1; 
stroke-linecap:round; stroke-linejoin:round;">
<path d="M112540 4050
L112440 4050
L112390 4070
L112370 4090
L112320 4170
L112300 4260
L112300 4460
L112320 4510
L112350 4530
L112390 4560
L112490 4560
L112540 4530
L112560 4510
L112590 4460
L112590 4340
L112560 4290
L112540 4260
L112490 4240
L112390 4240
L112350 4260
L112320 4290
L112300 4340
" />
</g>
<g style="fill:#840000; fill-opacity:0.0; 
stroke:#840000; stroke-width:100; stroke-opacity:1; 
stroke-linecap:round; stroke-linejoin:round;">
</g>
<g style="fill:#840000; fill-opacity:0.0; 
stroke:#840000; stroke-width:60; stroke-opacity:1; 
stroke-linecap:round; stroke-linejoin:round;">
<path d="M23620 77960
L23620 78740
" />
</g>
<g style="fill:#840000; fill-opacity:0.0; 
stroke:#840000; stroke-width:100; stroke-opacity:1; 
stroke-linecap:round; stroke-linejoin:round;">
</g>
<g style="fill:#840000; fill-opacity:0.0; 
stroke:#840000; stroke-width:60; stroke-opacity:1; 
stroke-linecap:round; stroke-linejoin:round;">
<path d="M43310 77960
L43310 78740
" />
</g>
<g style="fill:#840000; fill-opacity:0.0; 
stroke:#840000; stroke-width:100; stroke-opacity:1; 
stroke-linecap:round; stroke-linejoin:round;">
</g>
<g style="fill:#840000; fill-opacity:0.0; 
stroke:#840000; stroke-width:60; stroke-opacity:1; 
stroke-linecap:round; stroke-linejoin:round;">
<path d="M62990 77960
L62990 78740
" />
</g>
<g style="fill:#840000; fill-opacity:0.0; 
stroke:#840000; stroke-width:100; stroke-opacity:1; 
stroke-linecap:round; stroke-linejoin:round;">
</g>
<g style="fill:#840000; fill-opacity:0.0; 
stroke:#840000; stroke-width:60; stroke-opacity:1; 
stroke-linecap:round; stroke-linejoin:round;">
<path d="M82680 77960
L82680 78740
" />
</g>
<g style="fill:#840000; fill-opacity:0.0; 
stroke:#840000; stroke-width:100; stroke-opacity:1; 
stroke-linecap:round; stroke-linejoin:round;">
</g>
<g style="fill:#840000; fill-opacity:0.0; 
stroke:#840000; stroke-width:60; stroke-opacity:1; 
stroke-linecap:round; stroke-linejoin:round;">
<path d="M102360 77960
L102360 78740
" />
</g>
<g style="fill:#840000; fill-opacity:0.0; 
stroke:#840000; stroke-width:100; stroke-opacity:1; 
stroke-linecap:round; stroke-linejoin:round;">
</g>
<g style="fill:#840000; fill-opacity:0.0; 
stroke:#840000; stroke-width:60; stroke-opacity:1; 
stroke-linecap:round; stroke-linejoin:round;">
<path d="M14170 78580
L13880 78580
" />
<path d="M14020 78580
L14020 78070
L13970 78140
L13930 78190
L13880 78210
" />
</g>
<g style="fill:#840000; fill-opacity:0.0; 
stroke:#840000; stroke-width:100; stroke-opacity:1; 
stroke-linecap:round; stroke-linejoin:round;">
</g>
<g style="fill:#840000; fill-opacity:0.0; 
stroke:#840000; stroke-width:60; stroke-opacity:1; 
stroke-linecap:round; stroke-linejoin:round;">
<path d="M33560 78110
L33580 78090
L33630 78070
L33750 78070
L33800 78090
L33820 78110
L33850 78160
L33850 78210
L33820 78280
L33530 78580
L33850 78580
" />
</g>
<g style="fill:#840000; fill-opacity:0.0; 
stroke:#840000; stroke-width:100; stroke-opacity:1; 
stroke-linecap:round; stroke-linejoin:round;">
</g>
<g style="fill:#840000; fill-opacity:0.0; 
stroke:#840000; stroke-width:60; stroke-opacity:1; 
stroke-linecap:round; stroke-linejoin:round;">
<path d="M53220 78070
L53540 78070
L53370 78260
L53440 78260
L53490 78280
L53510 78310
L53540 78360
L53540 78480
L53510 78530
L53490 78550
L53440 78580
L53300 78580
L53250 78550
L53220 78530
" />
</g>
<g style="fill:#840000; fill-opacity:0.0; 
stroke:#840000; stroke-width:100; stroke-opacity:1; 
stroke-linecap:round; stroke-linejoin:round;">
</g>
<g style="fill:#840000; fill-opacity:0.0; 
stroke:#840000; stroke-width:60; stroke-opacity:1; 
stroke-linecap:round; stroke-linejoin:round;">
<path d="M73170 78240
L73170 78580
" />
<path d="M73050 78040
L72930 78410
L73240 78410
" />
</g>
<g style="fill:#840000; fill-opacity:0.0; 
stroke:#840000; stroke-width:100; stroke-opacity:1; 
stroke-linecap:round; stroke-linejoin:round;">
</g>
<g style="fill:#840000; fill-opacity:0.0; 
stroke:#840000; stroke-width:60; stroke-opacity:1; 
stroke-linecap:round; stroke-linejoin:round;">
<path d="M92880 78070
L92640 78070
L92620 78310
L92640 78280
L92690 78260
L92810 78260
L92860 78280
L92880 78310
L92910 78360
L92910 78480
L92880 78530
L92860 78550
L92810 78580
L92690 78580
L92640 78550
L92620 78530
" />
</g>
<g style="fill:#840000; fill-opacity:0.0; 
stroke:#840000; stroke-width:100; stroke-opacity:1; 
stroke-linecap:round; stroke-linejoin:round;">
</g>
<g style="fill:#840000; fill-opacity:0.0; 
stroke:#840000; stroke-width:60; stroke-opacity:1; 
stroke-linecap:round; stroke-linejoin:round;">
<path d="M112540 78070
L112440 78070
L112390 78090
L112370 78110
L112320 78190
L112300 78280
L112300 78480
L112320 78530
L112350 78550
L112390 78580
L112490 78580
L112540 78550
L112560 78530
L112590 78480
L112590 78360
L112560 78310
L112540 78280
L112490 78260
L112390 78260
L112350 78280
L112320 78310
L112300 78360
" />
</g>
<g style="fill:#840000; fill-opacity:0.0; 
stroke:#840000; stroke-width:100; stroke-opacity:1; 
stroke-linecap:round; stroke-linejoin:round;">
</g>
<g style="fill:#840000; fill-opacity:0.0; 
stroke:#840000; stroke-width:60; stroke-opacity:1; 
stroke-linecap:round; stroke-linejoin:round;">
<path d="M3940 23620
L4720 23620
" />
</g>
<g style="fill:#840000; fill-opacity:0.0; 
stroke:#840000; stroke-width:100; stroke-opacity:1; 
stroke-linecap:round; stroke-linejoin:round;">
</g>
<g style="fill:#840000; fill-opacity:0.0; 
stroke:#840000; stroke-width:60; stroke-opacity:1; 
stroke-linecap:round; stroke-linejoin:round;">
<path d="M3940 43310
L4720 43310
" />
</g>
<g style="fill:#840000; fill-opacity:0.0; 
stroke:#840000; stroke-width:100; stroke-opacity:1; 
stroke-linecap:round; stroke-linejoin:round;">
</g>
<g style="fill:#840000; fill-opacity:0.0; 
stroke:#840000; stroke-width:60; stroke-opacity:1; 
stroke-linecap:round; stroke-linejoin:round;">
<path d="M3940 62990
L4720 62990
" />
</g>
<g style="fill:#840000; fill-opacity:0.0; 
stroke:#840000; stroke-width:100; stroke-opacity:1; 
stroke-linecap:round; stroke-linejoin:round;">
</g>
<g style="fill:#840000; fill-opacity:0.0; 
stroke:#840000; stroke-width:60; stroke-opacity:1; 
stroke-linecap:round; stroke-linejoin:round;">
<path d="M4210 13860
L4450 13860
" />
<path d="M4160 14010
L4330 13500
L4500 14010
" />
</g>
<g style="fill:#840000; fill-opacity:0.0; 
stroke:#840000; stroke-width:100; stroke-opacity:1; 
stroke-linecap:round; stroke-linejoin:round;">
</g>
<g style="fill:#840000; fill-opacity:0.0; 
stroke:#840000; stroke-width:60; stroke-opacity:1; 
stroke-linecap:round; stroke-linejoin:round;">
<path d="M4370 33420
L4440 33440
L4470 33470
L4490 33520
L4490 33590
L4470 33640
L4440 33660
L4400 33690
L4200 33690
L4200 33180
L4370 33180
L4420 33200
L4440 33220
L4470 33270
L4470 33320
L4440 33370
L4420 33390
L4370 33420
L4200 33420
" />
</g>
<g style="fill:#840000; fill-opacity:0.0; 
stroke:#840000; stroke-width:100; stroke-opacity:1; 
stroke-linecap:round; stroke-linejoin:round;">
</g>
<g style="fill:#840000; fill-opacity:0.0; 
stroke:#840000; stroke-width:60; stroke-opacity:1; 
stroke-linecap:round; stroke-linejoin:round;">
<path d="M4490 53330
L4470 53350
L4400 53380
L4350 53380
L4270 53350
L4230 53300
L4200 53250
L4180 53160
L4180 53080
L4200 52990
L4230 52940
L4270 52890
L4350 52870
L4400 52870
L4470 52890
L4490 52910
" />
</g>
<g style="fill:#840000; fill-opacity:0.0; 
stroke:#840000; stroke-width:100; stroke-opacity:1; 
stroke-linecap:round; stroke-linejoin:round;">
</g>
<g style="fill:#840000; fill-opacity:0.0; 
stroke:#840000; stroke-width:60; stroke-opacity:1; 
stroke-linecap:round; stroke-linejoin:round;">
<path d="M4200 73060
L4200 72550
L4320 72550
L4400 72570
L4440 72620
L4470 72670
L4490 72760
L4490 72840
L4470 72930
L4440 72980
L4400 73030
L4320 73060
L4200 73060
" />
</g>
<g style="fill:#840000; fill-opacity:0.0; 
stroke:#840000; stroke-width:100; stroke-opacity:1; 
stroke-linecap:round; stroke-linejoin:round;">
</g>
<g style="fill:#840000; fill-opacity:0.0; 
stroke:#840000; stroke-width:60; stroke-opacity:1; 
stroke-linecap:round; stroke-linejoin:round;">
<path d="M112990 23620
L112210 23620
" />
</g>
<g style="fill:#840000; fill-opacity:0.0; 
stroke:#840000; stroke-width:100; stroke-opacity:1; 
stroke-linecap:round; stroke-linejoin:round;">
</g>
<g style="fill:#840000; fill-opacity:0.0; 
stroke:#840000; stroke-width:60; stroke-opacity:1; 
stroke-linecap:round; stroke-linejoin:round;">
<path d="M112990 43310
L112210 43310
" />
</g>
<g style="fill:#840000; fill-opacity:0.0; 
stroke:#840000; stroke-width:100; stroke-opacity:1; 
stroke-linecap:round; stroke-linejoin:round;">
</g>
<g style="fill:#840000; fill-opacity:0.0; 
stroke:#840000; stroke-width:60; stroke-opacity:1; 
stroke-linecap:round; stroke-linejoin:round;">
<path d="M112990 62990
L112210 62990
" />
</g>
<g style="fill:#840000; fill-opacity:0.0; 
stroke:#840000; stroke-width:100; stroke-opacity:1; 
stroke-linecap:round; stroke-linejoin:round;">
</g>
<g style="fill:#840000; fill-opacity:0.0; 
stroke:#840000; stroke-width:60; stroke-opacity:1; 
stroke-linecap:round; stroke-linejoin:round;">
<path d="M112480 13860
L112720 13860
" />
<path d="M112430 14010
L112600 13500
L112770 14010
" />
</g>
<g style="fill:#840000; fill-opacity:0.0; 
stroke:#840000; stroke-width:100; stroke-opacity:1; 
stroke-linecap:round; stroke-linejoin:round;">
</g>
<g style="fill:#840000; fill-opacity:0.0; 
stroke:#840000; stroke-width:60; stroke-opacity:1; 
stroke-linecap:round; stroke-linejoin:round;">
<path d="M112640 33420
L112710 33440
L112740 33470
L112760 33520
L112760 33590
L112740 33640
L112710 33660
L112670 33690
L112470 33690
L112470 33180
L112640 33180
L112690 33200
L112710 33220
L112740 33270
L112740 33320
L112710 33370
L112690 33390
L112640 33420
L112470 33420
" />
</g>
<g style="fill:#840000; fill-opacity:0.0; 
stroke:#840000; stroke-width:100; stroke-opacity:1; 
stroke-linecap:round; stroke-linejoin:round;">
</g>
<g style="fill:#840000; fill-opacity:0.0; 
stroke:#840000; stroke-width:60; stroke-opacity:1; 
stroke-linecap:round; stroke-linejoin:round;">
<path d="M112760 53330
L112740 53350
L112670 53380
L112620 53380
L112540 53350
L112500 53300
L112470 53250
L112450 53160
L112450 53080
L112470 52990
L112500 52940
L112540 52890
L112620 52870
L112670 52870
L112740 52890
L112760 52910
" />
</g>
<g style="fill:#840000; fill-opacity:0.0; 
stroke:#840000; stroke-width:100; stroke-opacity:1; 
stroke-linecap:round; stroke-linejoin:round;">
</g>
<g style="fill:#840000; fill-opacity:0.0; 
stroke:#840000; stroke-width:60; stroke-opacity:1; 
stroke-linecap:round; stroke-linejoin:round;">
<path d="M112470 73060
L112470 72550
L112590 72550
L112670 72570
L112710 72620
L112740 72670
L112760 72760
L112760 72840
L112740 72930
L112710 72980
L112670 73030
L112590 73060
L112470 73060
" />
</g>
<g style="fill:#840000; fill-opacity:0.0; 
stroke:#840000; stroke-width:100; stroke-opacity:1; 
stroke-linecap:round; stroke-linejoin:round;">
</g>
<g style="fill:#840000; fill-opacity:0.0; 
stroke:#840000; stroke-width:60; stroke-opacity:1; 
stroke-linecap:round; stroke-linejoin:round;">
<path d="M78880 76290
L78880 75700
L79020 75700
L79110 75730
L79160 75790
L79190 75840
L79220 75950
L79220 76040
L79190 76150
L79160 76210
L79110 76260
L79020 76290
L78880 76290
" />
<path d="M79720 76290
L79720 75980
L79700 75930
L79640 75900
L79530 75900
L79470 75930
" />
<path d="M79720 76260
L79670 76290
L79530 76290
L79470 76260
L79440 76210
L79440 76150
L79470 76100
L79530 76070
L79670 76070
L79720 76040
" />
<path d="M79920 75900
L80140 75900
" />
<path d="M80000 75700
L80000 76210
L80030 76260
L80080 76290
L80140 76290
" />
<path d="M80570 76260
L80510 76290
L80400 76290
L80340 76260
L80310 76210
L80310 75980
L80340 75930
L80400 75900
L80510 75900
L80570 75930
L80590 75980
L80590 76040
L80310 76100
" />
<path d="M80850 76240
L80880 76260
L80850 76290
L80820 76260
L80850 76240
L80850 76290
" />
<path d="M80850 75930
L80880 75950
L80850 75980
L80820 75950
L80850 75930
L80850 75980
" />
<path d="M81550 75760
L81580 75730
L81640 75700
L81780 75700
L81830 75730
L81860 75760
L81890 75810
L81890 75870
L81860 75950
L81520 76290
L81890 76290
" />
<path d="M82250 75700
L82310 75700
L82370 75730
L82390 75760
L82420 75810
L82450 75930
L82450 76070
L82420 76180
L82390 76240
L82370 76260
L82310 76290
L82250 76290
L82200 76260
L82170 76240
L82140 76180
L82110 76070
L82110 75930
L82140 75810
L82170 75760
L82200 75730
L82250 75700
" />
<path d="M83010 76290
L82670 76290
" />
<path d="M82840 76290
L82840 75700
L82780 75790
L82730 75840
L82670 75870
" />
<path d="M83200 75700
L83600 75700
L83340 76290
" />
<path d="M83820 76070
L84270 76070
" />
<path d="M84660 75700
L84720 75700
L84780 75730
L84800 75760
L84830 75810
L84860 75930
L84860 76070
L84830 76180
L84800 76240
L84780 76260
L84720 76290
L84660 76290
L84610 76260
L84580 76240
L84550 76180
L84520 76070
L84520 75930
L84550 75810
L84580 75760
L84610 75730
L84660 75700
" />
<path d="M85390 75700
L85110 75700
L85080 75980
L85110 75950
L85170 75930
L85310 75930
L85360 75950
L85390 75980
L85420 76040
L85420 76180
L85390 76240
L85360 76260
L85310 76290
L85170 76290
L85110 76260
L85080 76240
" />
<path d="M85670 76070
L86120 76070
" />
<path d="M86370 75760
L86400 75730
L86460 75700
L86600 75700
L86650 75730
L86680 75760
L86710 75810
L86710 75870
L86680 75950
L86340 76290
L86710 76290
" />
<path d="M87270 76290
L86930 76290
" />
<path d="M87100 76290
L87100 75700
L87040 75790
L86990 75840
L86930 75870
" />
</g>
<g style="fill:#840000; fill-opacity:0.0; 
stroke:#840000; stroke-width:100; stroke-opacity:1; 
stroke-linecap:round; stroke-linejoin:round;">
</g>
<g style="fill:#840000; fill-opacity:0.0; 
stroke:#840000; stroke-width:60; stroke-opacity:1; 
stroke-linecap:round; stroke-linejoin:round;">
<path d="M69690 76580
L112210 76580
" />
</g>
<g style="fill:#840000; fill-opacity:0.0; 
stroke:#840000; stroke-width:100; stroke-opacity:1; 
stroke-linecap:round; stroke-linejoin:round;">
</g>
<g style="fill:#840000; fill-opacity:0.0; 
stroke:#840000; stroke-width:60; stroke-opacity:1; 
stroke-linecap:round; stroke-linejoin:round;">
<path d="M70220 77390
L70220 76800
" />
<path d="M70560 77390
L70300 77050
" />
<path d="M70560 76800
L70220 77140
" />
<path d="M70810 77390
L70810 77000
" />
<path d="M70810 76800
L70780 76830
L70810 76860
L70840 76830
L70810 76800
L70810 76860
" />
<path d="M71430 77340
L71400 77360
L71320 77390
L71260 77390
L71170 77360
L71120 77310
L71090 77250
L71060 77140
L71060 77050
L71090 76940
L71120 76890
L71170 76830
L71260 76800
L71320 76800
L71400 76830
L71430 76860
" />
<path d="M71930 77390
L71930 77080
L71910 77030
L71850 77000
L71740 77000
L71680 77030
" />
<path d="M71930 77360
L71880 77390
L71740 77390
L71680 77360
L71650 77310
L71650 77250
L71680 77200
L71740 77170
L71880 77170
L71930 77140
" />
<path d="M72460 77390
L72460 76800
" />
<path d="M72460 77360
L72410 77390
L72290 77390
L72240 77360
L72210 77340
L72180 77280
L72180 77110
L72210 77050
L72240 77030
L72290 77000
L72410 77000
L72460 77030
" />
<path d="M73190 77080
L73390 77080
" />
<path d="M73470 77390
L73190 77390
L73190 76800
L73470 76800
" />
<path d="M73720 77340
L73750 77360
L73720 77390
L73690 77360
L73720 77340
L73720 77390
" />
<path d="M74000 77390
L74000 76800
L74140 76800
L74230 76830
L74280 76890
L74310 76940
L74340 77050
L74340 77140
L74310 77250
L74280 77310
L74230 77360
L74140 77390
L74000 77390
" />
<path d="M74590 77340
L74620 77360
L74590 77390
L74560 77360
L74590 77340
L74590 77390
" />
<path d="M74840 77220
L75120 77220
" />
<path d="M74790 77390
L74980 76800
L75180 77390
" />
<path d="M75380 77340
L75410 77360
L75380 77390
L75350 77360
L75380 77340
L75380 77390
" />
<path d="M76560 77390
L76560 76800
" />
<path d="M76620 77170
L76790 77390
" />
<path d="M76790 77000
L76560 77220
" />
<path d="M77040 77390
L77040 77000
" />
<path d="M77040 76800
L77010 76830
L77040 76860
L77070 76830
L77040 76800
L77040 76860
" />
<path d="M77570 77360
L77520 77390
L77400 77390
L77350 77360
L77320 77340
L77290 77280
L77290 77110
L77320 77050
L77350 77030
L77400 77000
L77520 77000
L77570 77030
" />
<path d="M78080 77390
L78080 77080
L78060 77030
L78000 77000
L77890 77000
L77830 77030
" />
<path d="M78080 77360
L78030 77390
L77890 77390
L77830 77360
L77800 77310
L77800 77250
L77830 77200
L77890 77170
L78030 77170
L78080 77140
" />
<path d="M78610 77390
L78610 76800
" />
<path d="M78610 77360
L78560 77390
L78440 77390
L78390 77360
L78360 77340
L78330 77280
L78330 77110
L78360 77050
L78390 77030
L78440 77000
L78560 77000
L78610 77030
" />
<path d="M79590 77000
L79590 77390
" />
<path d="M79450 76770
L79310 77200
L79680 77200
" />
<path d="M79900 77340
L79930 77360
L79900 77390
L79870 77360
L79900 77340
L79900 77390
" />
<path d="M80290 76800
L80350 76800
L80410 76830
L80430 76860
L80460 76910
L80490 77030
L80490 77170
L80460 77280
L80430 77340
L80410 77360
L80350 77390
L80290 77390
L80240 77360
L80210 77340
L80180 77280
L80150 77170
L80150 77030
L80180 76910
L80210 76860
L80240 76830
L80290 76800
" />
<path d="M80740 77340
L80770 77360
L80740 77390
L80710 77360
L80740 77340
L80740 77390
" />
<path d="M81270 76800
L81160 76800
L81100 76830
L81080 76860
L81020 76940
L80990 77050
L80990 77280
L81020 77340
L81050 77360
L81100 77390
L81220 77390
L81270 77360
L81300 77340
L81330 77280
L81330 77140
L81300 77080
L81270 77050
L81220 77030
L81100 77030
L81050 77050
L81020 77080
L80990 77140
" />
</g>
<g style="fill:#840000; fill-opacity:0.0; 
stroke:#840000; stroke-width:100; stroke-opacity:1; 
stroke-linecap:round; stroke-linejoin:round;">
</g>
<g style="fill:#840000; fill-opacity:0.0; 
stroke:#840000; stroke-width:60; stroke-opacity:1; 
stroke-linecap:round; stroke-linejoin:round;">
<path d="M69690 75400
L112210 75400
" />
</g>
<g style="fill:#840000; fill-opacity:0.0; 
stroke:#840000; stroke-width:100; stroke-opacity:1; 
stroke-linecap:round; stroke-linejoin:round;">
</g>
<g style="fill:#840000; fill-opacity:0.0; 
stroke:#840000; stroke-width:120; stroke-opacity:1; 
stroke-linecap:round; stroke-linejoin:round;">
<path d="M104020 76290
L103820 76010
" />
<path d="M103680 76290
L103680 75700
L103910 75700
L103960 75730
L103990 75760
L104020 75810
L104020 75900
L103990 75950
L103960 75980
L103910 76010
L103680 76010
" />
<path d="M104500 76260
L104440 76290
L104330 76290
L104270 76260
L104240 76210
L104240 75980
L104270 75930
L104330 75900
L104440 75900
L104500 75930
L104520 75980
L104520 76040
L104240 76100
" />
<path d="M104720 75900
L104860 76290
L105010 75900
" />
<path d="M105230 76240
L105260 76260
L105230 76290
L105200 76260
L105230 76240
L105230 76290
" />
<path d="M105230 75930
L105260 75950
L105230 75980
L105200 75950
L105230 75930
L105230 75980
" />
<path d="M106270 76290
L105930 76290
" />
<path d="M106100 76290
L106100 75700
L106040 75790
L105990 75840
L105930 75870
" />
</g>
<g style="fill:#840000; fill-opacity:0.0; 
stroke:#840000; stroke-width:100; stroke-opacity:1; 
stroke-linecap:round; stroke-linejoin:round;">
</g>
<g style="fill:#840000; fill-opacity:0.0; 
stroke:#840000; stroke-width:60; stroke-opacity:1; 
stroke-linecap:round; stroke-linejoin:round;">
<path d="M70190 76260
L70280 76290
L70420 76290
L70470 76260
L70500 76240
L70530 76180
L70530 76120
L70500 76070
L70470 76040
L70420 76010
L70300 75980
L70250 75950
L70220 75930
L70190 75870
L70190 75810
L70220 75760
L70250 75730
L70300 75700
L70450 75700
L70530 75730
" />
<path d="M70780 76290
L70780 75900
" />
<path d="M70780 75700
L70750 75730
L70780 75760
L70810 75730
L70780 75700
L70780 75760
" />
<path d="M71000 75900
L71310 75900
L71000 76290
L71310 76290
" />
<path d="M71770 76260
L71710 76290
L71600 76290
L71540 76260
L71510 76210
L71510 75980
L71540 75930
L71600 75900
L71710 75900
L71770 75930
L71790 75980
L71790 76040
L71510 76100
" />
<path d="M72050 76240
L72080 76260
L72050 76290
L72020 76260
L72050 76240
L72050 76290
" />
<path d="M72050 75930
L72080 75950
L72050 75980
L72020 75950
L72050 75930
L72050 75980
" />
<path d="M72750 76120
L73030 76120
" />
<path d="M72700 76290
L72890 75700
L73090 76290
" />
<path d="M73540 75900
L73540 76290
" />
<path d="M73400 75670
L73260 76100
L73630 76100
" />
</g>
<g style="fill:#840000; fill-opacity:0.0; 
stroke:#840000; stroke-width:100; stroke-opacity:1; 
stroke-linecap:round; stroke-linejoin:round;">
</g>
<g style="fill:#840000; fill-opacity:0.0; 
stroke:#840000; stroke-width:60; stroke-opacity:1; 
stroke-linecap:round; stroke-linejoin:round;">
<path d="M103680 77390
L103680 76800
" />
<path d="M104210 77390
L104210 76800
" />
<path d="M104210 77360
L104160 77390
L104040 77390
L103990 77360
L103960 77340
L103930 77280
L103930 77110
L103960 77050
L103990 77030
L104040 77000
L104160 77000
L104210 77030
" />
<path d="M104490 77340
L104520 77360
L104490 77390
L104460 77360
L104490 77340
L104490 77390
" />
<path d="M104490 77030
L104520 77050
L104490 77080
L104460 77050
L104490 77030
L104490 77080
" />
<path d="M105530 77390
L105190 77390
" />
<path d="M105360 77390
L105360 76800
L105300 76890
L105250 76940
L105190 76970
" />
<path d="M106200 76770
L105700 77530
" />
<path d="M106710 77390
L106370 77390
" />
<path d="M106540 77390
L106540 76800
L106480 76890
L106430 76940
L106370 76970
" />
</g>
<g style="fill:#840000; fill-opacity:0.0; 
stroke:#840000; stroke-width:100; stroke-opacity:1; 
stroke-linecap:round; stroke-linejoin:round;">
</g>
<g style="fill:#840000; fill-opacity:0.0; 
stroke:#840000; stroke-width:60; stroke-opacity:1; 
stroke-linecap:round; stroke-linejoin:round;">
<path d="M69690 73820
L112210 73820
" />
</g>
<g style="fill:#840000; fill-opacity:0.0; 
stroke:#840000; stroke-width:100; stroke-opacity:1; 
stroke-linecap:round; stroke-linejoin:round;">
</g>
<g style="fill:#840000; fill-opacity:0.0; 
stroke:#840000; stroke-width:160; stroke-opacity:1; 
stroke-linecap:round; stroke-linejoin:round;">
<path d="M70260 74090
L70710 74090
" />
<path d="M70390 74880
L70480 74090
" />
<path d="M70880 74880
L70940 74360
" />
<path d="M70970 74090
L70930 74130
L70960 74170
L71010 74130
L70970 74090
L70960 74170
" />
<path d="M71210 74360
L71510 74360
" />
<path d="M71350 74090
L71270 74770
L71300 74840
L71370 74880
L71450 74880
" />
<path d="M71820 74880
L71750 74840
L71720 74770
L71800 74090
" />
<path d="M72420 74840
L72340 74880
L72190 74880
L72120 74840
L72090 74770
L72130 74470
L72180 74390
L72250 74360
L72400 74360
L72480 74390
L72510 74470
L72500 74540
L72110 74620
" />
<path d="M72800 74810
L72840 74840
L72800 74880
L72760 74840
L72800 74810
L72800 74880
" />
<path d="M72860 74390
L72890 74430
L72850 74470
L72810 74430
L72860 74390
L72850 74470
" />
<path d="M73780 74880
L73870 74090
L74170 74090
L74240 74130
L74270 74170
L74310 74240
L74290 74360
L74240 74430
L74200 74470
L74120 74510
L73820 74510
" />
<path d="M74570 74880
L74630 74360
" />
<path d="M74610 74510
L74660 74430
L74700 74390
L74780 74360
L74850 74360
" />
<path d="M75360 74840
L75280 74880
L75130 74880
L75060 74840
L75030 74770
L75070 74470
L75120 74390
L75190 74360
L75340 74360
L75420 74390
L75450 74470
L75440 74540
L75050 74620
" />
<path d="M75700 74840
L75780 74880
L75930 74880
L76000 74840
L76050 74770
L76050 74730
L76020 74660
L75960 74620
L75840 74620
L75770 74580
L75740 74510
L75750 74470
L75800 74390
L75870 74360
L75990 74360
L76060 74390
" />
<path d="M76340 74840
L76420 74880
L76570 74880
L76640 74840
L76690 74770
L76690 74730
L76660 74660
L76600 74620
L76480 74620
L76410 74580
L76380 74510
L76390 74470
L76440 74390
L76510 74360
L76630 74360
L76700 74390
" />
<path d="M77420 74360
L77360 74880
" />
<path d="M77080 74360
L77030 74770
L77060 74840
L77130 74880
L77240 74880
L77320 74840
L77360 74810
" />
<path d="M77730 74880
L77790 74360
" />
<path d="M77770 74510
L77820 74430
L77860 74390
L77940 74360
L78010 74360
" />
<path d="M78520 74840
L78440 74880
L78290 74880
L78220 74840
L78190 74770
L78230 74470
L78280 74390
L78350 74360
L78500 74360
L78580 74390
L78610 74470
L78600 74540
L78210 74620
" />
<path d="M79460 74840
L79540 74880
L79690 74880
L79760 74840
L79810 74770
L79810 74730
L79780 74660
L79720 74620
L79600 74620
L79530 74580
L79500 74510
L79510 74470
L79560 74390
L79630 74360
L79750 74360
L79820 74390
" />
<path d="M80440 74840
L80360 74880
L80210 74880
L80140 74840
L80110 74770
L80150 74470
L80200 74390
L80270 74360
L80420 74360
L80500 74390
L80530 74470
L80520 74540
L80130 74620
" />
<path d="M80880 74360
L80820 74880
" />
<path d="M80870 74430
L80920 74390
L80990 74360
L81100 74360
L81180 74390
L81210 74470
L81160 74880
" />
<path d="M81490 74840
L81570 74880
L81720 74880
L81790 74840
L81840 74770
L81840 74730
L81810 74660
L81750 74620
L81630 74620
L81560 74580
L81530 74510
L81540 74470
L81590 74390
L81660 74360
L81780 74360
L81850 74390
" />
<path d="M82280 74880
L82210 74840
L82170 74810
L82140 74730
L82170 74510
L82220 74430
L82270 74390
L82340 74360
L82450 74360
L82530 74390
L82560 74430
L82580 74510
L82550 74730
L82510 74810
L82470 74840
L82390 74880
L82280 74880
" />
<path d="M82880 74880
L82940 74360
" />
<path d="M82920 74510
L82970 74430
L83010 74390
L83090 74360
L83160 74360
" />
</g>
<g style="fill:#840000; fill-opacity:0.0; 
stroke:#840000; stroke-width:100; stroke-opacity:1; 
stroke-linecap:round; stroke-linejoin:round;">
</g>
<g style="fill:#840000; fill-opacity:0.0; 
stroke:#840000; stroke-width:60; stroke-opacity:1; 
stroke-linecap:round; stroke-linejoin:round;">
<path d="M70420 73060
L70220 73060
" />
<path d="M70220 73370
L70220 72780
L70500 72780
" />
<path d="M70730 73370
L70730 72980
" />
<path d="M70730 72780
L70700 72810
L70730 72840
L70760 72810
L70730 72780
L70730 72840
" />
<path d="M71090 73370
L71040 73340
L71010 73290
L71010 72780
" />
<path d="M71550 73340
L71490 73370
L71380 73370
L71320 73340
L71290 73290
L71290 73060
L71320 73010
L71380 72980
L71490 72980
L71550 73010
L71570 73060
L71570 73120
L71290 73180
" />
<path d="M71830 73320
L71860 73340
L71830 73370
L71800 73340
L71830 73320
L71830 73370
" />
<path d="M71830 73010
L71860 73030
L71830 73060
L71800 73030
L71830 73010
L71830 73060
" />
<path d="M72560 72980
L72560 73570
" />
<path d="M72560 73010
L72620 72980
L72730 72980
L72790 73010
L72810 73030
L72840 73090
L72840 73260
L72810 73320
L72790 73340
L72730 73370
L72620 73370
L72560 73340
" />
<path d="M73090 73370
L73090 72980
" />
<path d="M73090 73090
L73120 73030
L73150 73010
L73200 72980
L73260 72980
" />
<path d="M73690 73340
L73630 73370
L73520 73370
L73460 73340
L73430 73290
L73430 73060
L73460 73010
L73520 72980
L73630 72980
L73690 73010
L73710 73060
L73710 73120
L73430 73180
" />
<path d="M73940 73340
L74000 73370
L74110 73370
L74170 73340
L74200 73290
L74200 73260
L74170 73200
L74110 73180
L74030 73180
L73970 73150
L73940 73090
L73940 73060
L73970 73010
L74030 72980
L74110 72980
L74170 73010
" />
<path d="M74420 73340
L74480 73370
L74590 73370
L74650 73340
L74680 73290
L74680 73260
L74650 73200
L74590 73180
L74510 73180
L74450 73150
L74420 73090
L74420 73060
L74450 73010
L74510 72980
L74590 72980
L74650 73010
" />
<path d="M75180 72980
L75180 73370
" />
<path d="M74930 72980
L74930 73290
L74960 73340
L75010 73370
L75100 73370
L75160 73340
L75180 73320
" />
<path d="M75460 73370
L75460 72980
" />
<path d="M75460 73090
L75490 73030
L75520 73010
L75570 72980
L75630 72980
" />
<path d="M76060 73340
L76000 73370
L75890 73370
L75830 73340
L75800 73290
L75800 73060
L75830 73010
L75890 72980
L76000 72980
L76060 73010
L76080 73060
L76080 73120
L75800 73180
" />
<path d="M76340 73150
L76790 73150
" />
<path d="M77040 73340
L77100 73370
L77210 73370
L77270 73340
L77300 73290
L77300 73260
L77270 73200
L77210 73180
L77130 73180
L77070 73150
L77040 73090
L77040 73060
L77070 73010
L77130 72980
L77210 72980
L77270 73010
" />
<path d="M77780 73340
L77720 73370
L77610 73370
L77550 73340
L77520 73290
L77520 73060
L77550 73010
L77610 72980
L77720 72980
L77780 73010
L77800 73060
L77800 73120
L77520 73180
" />
<path d="M78060 72980
L78060 73370
" />
<path d="M78060 73030
L78090 73010
L78140 72980
L78230 72980
L78290 73010
L78310 73060
L78310 73370
" />
<path d="M78560 73340
L78620 73370
L78730 73370
L78790 73340
L78820 73290
L78820 73260
L78790 73200
L78730 73180
L78650 73180
L78590 73150
L78560 73090
L78560 73060
L78590 73010
L78650 72980
L78730 72980
L78790 73010
" />
<path d="M79150 73370
L79100 73340
L79070 73320
L79040 73260
L79040 73090
L79070 73030
L79100 73010
L79150 72980
L79240 72980
L79300 73010
L79320 73030
L79350 73090
L79350 73260
L79320 73320
L79300 73340
L79240 73370
L79150 73370
" />
<path d="M79600 73370
L79600 72980
" />
<path d="M79600 73090
L79630 73030
L79660 73010
L79710 72980
L79770 72980
" />
<path d="M79970 73320
L80000 73340
L79970 73370
L79940 73340
L79970 73320
L79970 73370
" />
<path d="M80220 73340
L80280 73370
L80390 73370
L80450 73340
L80480 73290
L80480 73260
L80450 73200
L80390 73180
L80310 73180
L80250 73150
L80220 73090
L80220 73060
L80250 73010
L80310 72980
L80390 72980
L80450 73010
" />
<path d="M80980 73340
L80930 73370
L80810 73370
L80760 73340
L80730 73320
L80700 73260
L80700 73090
L80730 73030
L80760 73010
L80810 72980
L80930 72980
L80980 73010
" />
<path d="M81240 73370
L81240 72780
" />
<path d="M81490 73370
L81490 73060
L81470 73010
L81410 72980
L81320 72980
L81270 73010
L81240 73030
" />
</g>
<g style="fill:#840000; fill-opacity:0.0; 
stroke:#840000; stroke-width:100; stroke-opacity:1; 
stroke-linecap:round; stroke-linejoin:round;">
</g>
<g style="fill:#840000; fill-opacity:0.0; 
stroke:#840000; stroke-width:60; stroke-opacity:1; 
stroke-linecap:round; stroke-linejoin:round;">
<path d="M69690 71460
L112210 71460
" />
</g>
<g style="fill:#840000; fill-opacity:0.0; 
stroke:#840000; stroke-width:100; stroke-opacity:1; 
stroke-linecap:round; stroke-linejoin:round;">
</g>
<g style="fill:#840000; fill-opacity:0.0; 
stroke:#840000; stroke-width:60; stroke-opacity:1; 
stroke-linecap:round; stroke-linejoin:round;">
<path d="M70190 72280
L70280 72310
L70420 72310
L70470 72280
L70500 72260
L70530 72200
L70530 72140
L70500 72090
L70470 72060
L70420 72030
L70300 72000
L70250 71970
L70220 71950
L70190 71890
L70190 71830
L70220 71780
L70250 71750
L70300 71720
L70450 71720
L70530 71750
" />
<path d="M70780 72310
L70780 71720
" />
<path d="M71030 72310
L71030 72000
L71010 71950
L70950 71920
L70860 71920
L70810 71950
L70780 71970
" />
<path d="M71540 72280
L71480 72310
L71370 72310
L71310 72280
L71280 72230
L71280 72000
L71310 71950
L71370 71920
L71480 71920
L71540 71950
L71560 72000
L71560 72060
L71280 72120
" />
<path d="M72050 72280
L71990 72310
L71880 72310
L71820 72280
L71790 72230
L71790 72000
L71820 71950
L71880 71920
L71990 71920
L72050 71950
L72070 72000
L72070 72060
L71790 72120
" />
<path d="M72250 71920
L72470 71920
" />
<path d="M72330 71720
L72330 72230
L72360 72280
L72410 72310
L72470 72310
" />
<path d="M72670 72260
L72700 72280
L72670 72310
L72640 72280
L72670 72260
L72670 72310
" />
<path d="M72670 71950
L72700 71970
L72670 72000
L72640 71970
L72670 71950
L72670 72000
" />
<path d="M73820 71690
L73320 72450
" />
</g>
<g style="fill:#840000; fill-opacity:0.0; 
stroke:#840000; stroke-width:100; stroke-opacity:1; 
stroke-linecap:round; stroke-linejoin:round;">
</g>
<g style="fill:#840000; fill-opacity:0.0; 
stroke:#840000; stroke-width:120; stroke-opacity:1; 
stroke-linecap:round; stroke-linejoin:round;">
<path d="M70140 70540
L70330 71130
L70530 70540
" />
<path d="M70730 71130
L70730 70540
" />
<path d="M71010 71130
L71010 70540
L71240 70540
L71290 70570
L71320 70600
L71350 70650
L71350 70740
L71320 70790
L71290 70820
L71240 70850
L71010 70850
" />
<path d="M71600 70820
L71800 70820
" />
<path d="M71880 71130
L71600 71130
L71600 70540
L71880 70540
" />
<path d="M72470 71130
L72270 70850
" />
<path d="M72130 71130
L72130 70540
L72360 70540
L72410 70570
L72440 70600
L72470 70650
L72470 70740
L72440 70790
L72410 70820
L72360 70850
L72130 70850
" />
</g>
<g style="fill:#840000; fill-opacity:0.0; 
stroke:#840000; stroke-width:100; stroke-opacity:1; 
stroke-linecap:round; stroke-linejoin:round;">
</g>
<g style="fill:#840000; fill-opacity:0.0; 
stroke:#840000; stroke-width:60; stroke-opacity:1; 
stroke-linecap:round; stroke-linejoin:round;">
<path d="M77560 75400
L77560 76580
" />
</g>
<g style="fill:#840000; fill-opacity:0.0; 
stroke:#840000; stroke-width:100; stroke-opacity:1; 
stroke-linecap:round; stroke-linejoin:round;">
</g>
<g style="fill:#840000; fill-opacity:0.0; 
stroke:#840000; stroke-width:60; stroke-opacity:1; 
stroke-linecap:round; stroke-linejoin:round;">
<path d="M102760 75400
L102760 77960
" />
</g>
<g style="fill:#840000; fill-opacity:0.0; 
stroke:#840000; stroke-width:0; stroke-opacity:1; 
stroke-linecap:round; stroke-linejoin:round;">
</g>
<g style="fill:#840000; fill-opacity:0.0; 
stroke:#840000; stroke-width:60; stroke-opacity:1; 
stroke-linecap:round; stroke-linejoin:round;">
<rect x="22500" y="8000" width="5000" height="5000" rx="0" />
<path d="M22500 9000
L20500 9000
" />
</g>
<g style="fill:#008484; fill-opacity:0.0; 
stroke:#008484; stroke-width:60; stroke-opacity:1; 
stroke-linecap:round; stroke-linejoin:round;">
<path d="M23280 8750
L23230 8730
L23160 8730
L23090 8750
L23040 8800
L23020 8850
L23000 8940
L23000 9010
L23020 9110
L23040 9150
L23090 9200
L23160 9230
L23210 9230
L23280 9200
L23300 9180
L23300 9010
L23210 9010
" />
<path d="M23520 9230
L23520 8730
L23800 9230
L23800 8730
" />
<path d="M24040 9230
L24040 8730
L24160 8730
L24230 8750
L24280 8800
L24300 8850
L24320 8940
L24320 9010
L24300 9110
L24280 9150
L24230 9200
L24160 9230
L24040 9230
" />
</g>
<g style="fill:#840000; fill-opacity:0.0; 
stroke:#840000; stroke-width:60; stroke-opacity:1; 
stroke-linecap:round; stroke-linejoin:round;">
<path d="M21640 8880
L21360 8880
" />
<path d="M21500 8880
L21500 8380
L21450 8450
L21400 8500
L21360 8520
" />
<path d="M22500 10000
L20500 10000
" />
</g>
<g style="fill:#008484; fill-opacity:0.0; 
stroke:#008484; stroke-width:60; stroke-opacity:1; 
stroke-linecap:round; stroke-linejoin:round;">
<path d="M22950 9730
L23110 10230
L23280 9730
" />
<path d="M23730 10180
L23710 10200
L23640 10230
L23590 10230
L23520 10200
L23470 10150
L23450 10110
L23430 10010
L23430 9940
L23450 9850
L23470 9800
L23520 9750
L23590 9730
L23640 9730
L23710 9750
L23730 9770
" />
<path d="M24230 10180
L24210 10200
L24140 10230
L24090 10230
L24020 10200
L23970 10150
L23950 10110
L23930 10010
L23930 9940
L23950 9850
L23970 9800
L24020 9750
L24090 9730
L24140 9730
L24210 9750
L24230 9770
" />
</g>
<g style="fill:#840000; fill-opacity:0.0; 
stroke:#840000; stroke-width:60; stroke-opacity:1; 
stroke-linecap:round; stroke-linejoin:round;">
<path d="M21360 9420
L21380 9400
L21430 9380
L21550 9380
L21590 9400
L21620 9420
L21640 9470
L21640 9520
L21620 9590
L21330 9880
L21640 9880
" />
<path d="M22500 11000
L20500 11000
" />
</g>
<g style="fill:#008484; fill-opacity:0.0; 
stroke:#008484; stroke-width:60; stroke-opacity:1; 
stroke-linecap:round; stroke-linejoin:round;">
<path d="M23000 11200
L23070 11230
L23190 11230
L23230 11200
L23260 11180
L23280 11130
L23280 11080
L23260 11040
L23230 11010
L23190 10990
L23090 10960
L23040 10940
L23020 10920
L23000 10870
L23000 10820
L23020 10770
L23040 10750
L23090 10730
L23210 10730
L23280 10750
" />
<path d="M23500 11230
L23500 10730
L23620 10730
L23690 10750
L23740 10800
L23760 10850
L23780 10940
L23780 11010
L23760 11110
L23740 11150
L23690 11200
L23620 11230
L23500 11230
" />
<path d="M23980 11080
L24210 11080
" />
<path d="M23930 11230
L24090 10730
L24260 11230
" />
</g>
<g style="fill:#840000; fill-opacity:0.0; 
stroke:#840000; stroke-width:60; stroke-opacity:1; 
stroke-linecap:round; stroke-linejoin:round;">
<path d="M21330 10380
L21640 10380
L21470 10570
L21550 10570
L21590 10590
L21620 10610
L21640 10660
L21640 10780
L21620 10830
L21590 10850
L21550 10880
L21400 10880
L21360 10850
L21330 10830
" />
<path d="M22500 12000
L20500 12000
" />
</g>
<g style="fill:#008484; fill-opacity:0.0; 
stroke:#008484; stroke-width:60; stroke-opacity:1; 
stroke-linecap:round; stroke-linejoin:round;">
<path d="M23000 12200
L23070 12230
L23190 12230
L23230 12200
L23260 12180
L23280 12130
L23280 12080
L23260 12040
L23230 12010
L23190 11990
L23090 11960
L23040 11940
L23020 11920
L23000 11870
L23000 11820
L23020 11770
L23040 11750
L23090 11730
L23210 11730
L23280 11750
" />
<path d="M23780 12180
L23760 12200
L23690 12230
L23640 12230
L23570 12200
L23520 12150
L23500 12110
L23480 12010
L23480 11940
L23500 11850
L23520 11800
L23570 11750
L23640 11730
L23690 11730
L23760 11750
L23780 11770
" />
<path d="M24240 12230
L24000 12230
L24000 11730
" />
</g>
<g style="fill:#840000; fill-opacity:0.0; 
stroke:#840000; stroke-width:60; stroke-opacity:1; 
stroke-linecap:round; stroke-linejoin:round;">
<path d="M21590 11540
L21590 11880
" />
<path d="M21470 11350
L21360 11710
L21660 11710
" />
<path d="M27500 9000
L29500 9000
" />
</g>
<g style="fill:#008484; fill-opacity:0.0; 
stroke:#008484; stroke-width:60; stroke-opacity:1; 
stroke-linecap:round; stroke-linejoin:round;">
<path d="M25720 9230
L25720 8730
L26000 9230
L26000 8730
" />
<path d="M26240 9180
L26260 9200
L26240 9230
L26220 9200
L26240 9180
L26240 9230
" />
<path d="M26760 9180
L26740 9200
L26670 9230
L26620 9230
L26550 9200
L26500 9150
L26480 9110
L26460 9010
L26460 8940
L26480 8850
L26500 8800
L26550 8750
L26620 8730
L26670 8730
L26740 8750
L26760 8770
" />
<path d="M26980 9180
L27000 9200
L26980 9230
L26960 9200
L26980 9180
L26980 9230
" />
</g>
<g style="fill:#840000; fill-opacity:0.0; 
stroke:#840000; stroke-width:60; stroke-opacity:1; 
stroke-linecap:round; stroke-linejoin:round;">
<path d="M28620 8380
L28380 8380
L28360 8610
L28380 8590
L28430 8570
L28550 8570
L28590 8590
L28620 8610
L28640 8660
L28640 8780
L28620 8830
L28590 8850
L28550 8880
L28430 8880
L28380 8850
L28360 8830
" />
<path d="M27500 10000
L29500 10000
" />
</g>
<g style="fill:#008484; fill-opacity:0.0; 
stroke:#008484; stroke-width:60; stroke-opacity:1; 
stroke-linecap:round; stroke-linejoin:round;">
<path d="M25720 10230
L25720 9730
L26000 10230
L26000 9730
" />
<path d="M26240 10180
L26260 10200
L26240 10230
L26220 10200
L26240 10180
L26240 10230
" />
<path d="M26760 10180
L26740 10200
L26670 10230
L26620 10230
L26550 10200
L26500 10150
L26480 10110
L26460 10010
L26460 9940
L26480 9850
L26500 9800
L26550 9750
L26620 9730
L26670 9730
L26740 9750
L26760 9770
" />
<path d="M26980 10180
L27000 10200
L26980 10230
L26960 10200
L26980 10180
L26980 10230
" />
</g>
<g style="fill:#840000; fill-opacity:0.0; 
stroke:#840000; stroke-width:60; stroke-opacity:1; 
stroke-linecap:round; stroke-linejoin:round;">
<path d="M28590 9380
L28500 9380
L28450 9400
L28430 9420
L28380 9500
L28360 9590
L28360 9780
L28380 9830
L28400 9850
L28450 9880
L28550 9880
L28590 9850
L28620 9830
L28640 9780
L28640 9660
L28620 9610
L28590 9590
L28550 9570
L28450 9570
L28400 9590
L28380 9610
L28360 9660
" />
<path d="M27500 11000
L29500 11000
" />
</g>
<g style="fill:#008484; fill-opacity:0.0; 
stroke:#008484; stroke-width:60; stroke-opacity:1; 
stroke-linecap:round; stroke-linejoin:round;">
<path d="M25720 11230
L25720 10730
L26000 11230
L26000 10730
" />
<path d="M26240 11180
L26260 11200
L26240 11230
L26220 11200
L26240 11180
L26240 11230
" />
<path d="M26760 11180
L26740 11200
L26670 11230
L26620 11230
L26550 11200
L26500 11150
L26480 11110
L26460 11010
L26460 10940
L26480 10850
L26500 10800
L26550 10750
L26620 10730
L26670 10730
L26740 10750
L26760 10770
" />
<path d="M26980 11180
L27000 11200
L26980 11230
L26960 11200
L26980 11180
L26980 11230
" />
</g>
<g style="fill:#840000; fill-opacity:0.0; 
stroke:#840000; stroke-width:60; stroke-opacity:1; 
stroke-linecap:round; stroke-linejoin:round;">
<path d="M28330 10380
L28660 10380
L28450 10880
" />
<path d="M27500 12000
L29500 12000
" />
</g>
<g style="fill:#008484; fill-opacity:0.0; 
stroke:#008484; stroke-width:60; stroke-opacity:1; 
stroke-linecap:round; stroke-linejoin:round;">
<path d="M25720 12230
L25720 11730
L26000 12230
L26000 11730
" />
<path d="M26240 12180
L26260 12200
L26240 12230
L26220 12200
L26240 12180
L26240 12230
" />
<path d="M26760 12180
L26740 12200
L26670 12230
L26620 12230
L26550 12200
L26500 12150
L26480 12110
L26460 12010
L26460 11940
L26480 11850
L26500 11800
L26550 11750
L26620 11730
L26670 11730
L26740 11750
L26760 11770
" />
<path d="M26980 12180
L27000 12200
L26980 12230
L26960 12200
L26980 12180
L26980 12230
" />
</g>
<g style="fill:#840000; fill-opacity:0.0; 
stroke:#840000; stroke-width:60; stroke-opacity:1; 
stroke-linecap:round; stroke-linejoin:round;">
<path d="M28450 11590
L28400 11570
L28380 11540
L28360 11500
L28360 11470
L28380 11420
L28400 11400
L28450 11380
L28550 11380
L28590 11400
L28620 11420
L28640 11470
L28640 11500
L28620 11540
L28590 11570
L28550 11590
L28450 11590
L28400 11610
L28380 11640
L28360 11690
L28360 11780
L28380 11830
L28400 11850
L28450 11880
L28550 11880
L28590 11850
L28620 11830
L28640 11780
L28640 11690
L28620 11640
L28590 11610
L28550 11590
" />
</g>
<g style="fill:#008484; fill-opacity:0.0; 
stroke:#008484; stroke-width:60; stroke-opacity:1; 
stroke-linecap:round; stroke-linejoin:round;">
<path d="M24270 7810
L24270 7210
L24500 7210
L24560 7240
L24590 7270
L24620 7330
L24620 7410
L24590 7470
L24560 7500
L24500 7530
L24270 7530
" />
<path d="M24840 7780
L24930 7810
L25070 7810
L25130 7780
L25160 7750
L25190 7700
L25190 7640
L25160 7580
L25130 7550
L25070 7530
L24960 7500
L24900 7470
L24870 7440
L24840 7380
L24840 7330
L24870 7270
L24900 7240
L24960 7210
L25100 7210
L25190 7240
" />
<path d="M25760 7810
L25410 7810
" />
<path d="M25590 7810
L25590 7210
L25530 7300
L25470 7350
L25410 7380
" />
<path d="M20680 13640
L20970 13640
" />
<path d="M20630 13810
L20830 13210
L21030 13810
" />
<path d="M21220 13810
L21220 13210
L21420 13640
L21620 13210
L21620 13810
" />
<path d="M21880 13780
L21970 13810
L22110 13810
L22170 13780
L22200 13750
L22230 13700
L22230 13640
L22200 13580
L22170 13550
L22110 13530
L22000 13500
L21940 13470
L21910 13440
L21880 13380
L21880 13330
L21910 13270
L21940 13240
L22000 13210
L22140 13210
L22230 13240
" />
<path d="M22340 13870
L22800 13870
" />
<path d="M23230 13210
L22940 13210
L22910 13500
L22940 13470
L23000 13440
L23140 13440
L23200 13470
L23230 13500
L23260 13550
L23260 13700
L23230 13750
L23200 13780
L23140 13810
L23000 13810
L22940 13780
L22910 13750
" />
<path d="M23540 13810
L23660 13810
L23710 13780
L23740 13750
L23800 13670
L23830 13550
L23830 13330
L23800 13270
L23770 13240
L23710 13210
L23600 13210
L23540 13240
L23510 13270
L23480 13330
L23480 13470
L23510 13530
L23540 13550
L23600 13580
L23710 13580
L23770 13550
L23800 13530
L23830 13470
" />
<path d="M24400 13810
L24050 13810
" />
<path d="M24230 13810
L24230 13210
L24170 13300
L24110 13350
L24050 13380
" />
<path d="M24940 13210
L24650 13210
L24620 13500
L24650 13470
L24710 13440
L24850 13440
L24910 13470
L24940 13500
L24970 13550
L24970 13700
L24940 13750
L24910 13780
L24850 13810
L24710 13810
L24650 13780
L24620 13750
" />
<path d="M25220 13580
L25680 13580
" />
<path d="M26080 13210
L26130 13210
L26190 13240
L26220 13270
L26250 13330
L26280 13440
L26280 13580
L26250 13700
L26220 13750
L26190 13780
L26130 13810
L26080 13810
L26020 13780
L25990 13750
L25960 13700
L25930 13580
L25930 13440
L25960 13330
L25990 13270
L26020 13240
L26080 13210
" />
<path d="M26650 13210
L26700 13210
L26760 13240
L26790 13270
L26820 13330
L26850 13440
L26850 13580
L26820 13700
L26790 13750
L26760 13780
L26700 13810
L26650 13810
L26590 13780
L26560 13750
L26530 13700
L26500 13580
L26500 13440
L26530 13330
L26560 13270
L26590 13240
L26650 13210
" />
<path d="M27420 13810
L27070 13810
" />
<path d="M27250 13810
L27250 13210
L27190 13300
L27130 13350
L27070 13380
" />
<path d="M27790 13210
L27840 13210
L27900 13240
L27930 13270
L27960 13330
L27990 13440
L27990 13580
L27960 13700
L27930 13750
L27900 13780
L27840 13810
L27790 13810
L27730 13780
L27700 13750
L27670 13700
L27640 13580
L27640 13440
L27670 13330
L27700 13270
L27730 13240
L27790 13210
" />
<path d="M28240 13580
L28700 13580
" />
<path d="M28980 13810
L28980 13210
L29130 13210
L29210 13240
L29270 13300
L29300 13350
L29330 13470
L29330 13550
L29300 13670
L29270 13730
L29210 13780
L29130 13810
L28980 13810
" />
</g>
<g style="fill:#008484; fill-opacity:0.0; 
stroke:#008484; stroke-width:0; stroke-opacity:1; 
stroke-linecap:round; stroke-linejoin:round;">
</g>
<g style="fill:#840000; fill-opacity:0.0; 
stroke:#840000; stroke-width:0; stroke-opacity:1; 
stroke-linecap:round; stroke-linejoin:round;">
</g>
<g style="fill:#840000; fill-opacity:1.0; 
stroke:#840000; stroke-width:60; stroke-opacity:1; 
stroke-linecap:round; stroke-linejoin:round;">
<rect x="7500" y="10750" width="2000" height="500" rx="0" />
</g>
<g style="fill:#840000; fill-opacity:0.0; 
stroke:#840000; stroke-width:60; stroke-opacity:1; 
stroke-linecap:round; stroke-linejoin:round;">
<line x1="7500" y1="8750" x2="7500" y2="8750" />
</g>
<g style="fill:#840000; fill-opacity:1.0; 
stroke:#840000; stroke-width:60; stroke-opacity:1; 
stroke-linecap:round; stroke-linejoin:round;">
<rect x="7500" y="14750" width="2000" height="500" rx="0" />
<rect x="7500" y="12750" width="2000" height="500" rx="0" />
<rect x="7500" y="8750" width="2000" height="500" rx="0" />
</g>
<g style="fill:#840000; fill-opacity:0.0; 
stroke:#840000; stroke-width:60; stroke-opacity:1; 
stroke-linecap:round; stroke-linejoin:round;">
<path d="M9500 9000
L11500 9000
" />
<path d="M10640 8880
L10360 8880
" />
<path d="M10500 8880
L10500 8380
L10450 8450
L10400 8500
L10360 8520
" />
<path d="M9500 11000
L11500 11000
" />
<path d="M10360 10420
L10380 10400
L10430 10380
L10550 10380
L10590 10400
L10620 10420
L10640 10470
L10640 10520
L10620 10590
L10330 10880
L10640 10880
" />
<path d="M9500 13000
L11500 13000
" />
<path d="M10330 12380
L10640 12380
L10470 12570
L10550 12570
L10590 12590
L10620 12610
L10640 12660
L10640 12780
L10620 12830
L10590 12850
L10550 12880
L10400 12880
L10360 12850
L10330 12830
" />
<path d="M9500 15000
L11500 15000
" />
<path d="M10590 14540
L10590 14880
" />
<path d="M10470 14350
L10360 14710
L10660 14710
" />
</g>
<g style="fill:#008484; fill-opacity:0.0; 
stroke:#008484; stroke-width:60; stroke-opacity:1; 
stroke-linecap:round; stroke-linejoin:round;">
<path d="M8330 8010
L8330 8360
L8310 8430
L8260 8480
L8190 8510
L8140 8510
" />
<path d="M8830 8510
L8550 8510
" />
<path d="M8690 8510
L8690 8010
L8640 8080
L8590 8130
L8550 8150
" />
<path d="M5370 16210
L5350 16230
L5280 16260
L5230 16260
L5160 16230
L5110 16180
L5090 16140
L5070 16040
L5070 15970
L5090 15880
L5110 15830
L5160 15780
L5230 15760
L5280 15760
L5350 15780
L5370 15800
" />
<path d="M5680 15760
L5780 15760
L5830 15780
L5870 15830
L5900 15920
L5900 16090
L5870 16180
L5830 16230
L5780 16260
L5680 16260
L5640 16230
L5590 16180
L5570 16090
L5570 15920
L5590 15830
L5640 15780
L5680 15760
" />
<path d="M6110 16260
L6110 15760
L6390 16260
L6390 15760
" />
<path d="M6630 16260
L6630 15760
L6910 16260
L6910 15760
" />
<path d="M7030 16300
L7410 16300
" />
<path d="M7620 15760
L7670 15760
L7720 15780
L7740 15800
L7770 15850
L7790 15950
L7790 16070
L7770 16160
L7740 16210
L7720 16230
L7670 16260
L7620 16260
L7580 16230
L7550 16210
L7530 16160
L7510 16070
L7510 15950
L7530 15850
L7550 15800
L7580 15780
L7620 15760
" />
<path d="M8270 16260
L7990 16260
" />
<path d="M8130 16260
L8130 15760
L8080 15830
L8030 15880
L7990 15900
" />
<path d="M8440 15760
L8770 16260
" />
<path d="M8770 15760
L8440 16260
" />
<path d="M9060 15760
L9110 15760
L9160 15780
L9180 15800
L9210 15850
L9230 15950
L9230 16070
L9210 16160
L9180 16210
L9160 16230
L9110 16260
L9060 16260
L9020 16230
L8990 16210
L8970 16160
L8950 16070
L8950 15950
L8970 15850
L8990 15800
L9020 15780
L9060 15760
" />
<path d="M9660 15920
L9660 16260
" />
<path d="M9540 15730
L9430 16090
L9730 16090
" />
<path d="M9810 16300
L10190 16300
" />
<path d="M10310 16260
L10310 15760
L10480 16110
L10640 15760
L10640 16260
" />
<path d="M10860 16110
L11090 16110
" />
<path d="M10810 16260
L10970 15760
L11140 16260
" />
<path d="M11550 16260
L11310 16260
L11310 15760
" />
<path d="M11710 15990
L11880 15990
" />
<path d="M11950 16260
L11710 16260
L11710 15760
L11950 15760
" />
</g>
<g style="fill:#000000; fill-opacity:0.0; 
stroke:#000000; stroke-width:60; stroke-opacity:1; 
stroke-linecap:round; stroke-linejoin:round;">
<path d="M11960 10300
L11900 10270
L11810 10270
L11730 10300
L11670 10360
L11640 10410
L11610 10530
L11610 10610
L11640 10730
L11670 10790
L11730 10840
L11810 10870
L11870 10870
L11960 10840
L11990 10810
L11990 10610
L11870 10610
" />
<path d="M12240 10870
L12240 10270
L12590 10870
L12590 10270
" />
<path d="M12870 10870
L12870 10270
L13020 10270
L13100 10300
L13160 10360
L13190 10410
L13220 10530
L13220 10610
L13190 10730
L13160 10790
L13100 10840
L13020 10870
L12870 10870
" />
<path d="M11560 8270
L11760 8870
L11960 8270
" />
<path d="M12500 8810
L12470 8840
L12380 8870
L12320 8870
L12240 8840
L12180 8790
L12150 8730
L12120 8610
L12120 8530
L12150 8410
L12180 8360
L12240 8300
L12320 8270
L12380 8270
L12470 8300
L12500 8330
" />
<path d="M13100 8810
L13070 8840
L12980 8870
L12920 8870
L12840 8840
L12780 8790
L12750 8730
L12720 8610
L12720 8530
L12750 8410
L12780 8360
L12840 8300
L12920 8270
L12980 8270
L13070 8300
L13100 8330
" />
<path d="M11610 14840
L11700 14870
L11840 14870
L11900 14840
L11930 14810
L11960 14760
L11960 14700
L11930 14640
L11900 14610
L11840 14590
L11730 14560
L11670 14530
L11640 14500
L11610 14440
L11610 14390
L11640 14330
L11670 14300
L11730 14270
L11870 14270
L11960 14300
" />
<path d="M12210 14870
L12210 14270
L12360 14270
L12440 14300
L12500 14360
L12530 14410
L12560 14530
L12560 14610
L12530 14730
L12500 14790
L12440 14840
L12360 14870
L12210 14870
" />
<path d="M12780 14700
L13070 14700
" />
<path d="M12730 14870
L12930 14270
L13130 14870
" />
<path d="M11610 12840
L11700 12870
L11840 12870
L11900 12840
L11930 12810
L11960 12760
L11960 12700
L11930 12640
L11900 12610
L11840 12590
L11730 12560
L11670 12530
L11640 12500
L11610 12440
L11610 12390
L11640 12330
L11670 12300
L11730 12270
L11870 12270
L11960 12300
" />
<path d="M12560 12810
L12530 12840
L12440 12870
L12380 12870
L12300 12840
L12240 12790
L12210 12730
L12180 12610
L12180 12530
L12210 12410
L12240 12360
L12300 12300
L12380 12270
L12440 12270
L12530 12300
L12560 12330
" />
<path d="M13100 12870
L12810 12870
L12810 12270
" />
</g>
<g style="fill:#008400; fill-opacity:0.0; 
stroke:#008400; stroke-width:60; stroke-opacity:1; 
stroke-linecap:round; stroke-linejoin:round;">
<path d="M20500 9000
L14500 9000
" />
<path d="M14500 9000
L14500 11000
" />
<path d="M14500 11000
L11500 11000
" />
<path d="M13500 10000
L20500 10000
" />
<path d="M13500 7000
L13500 10000
" />
<path d="M13500 9000
L11500 9000
" />
<path d="M15500 11000
L15500 15000
" />
<path d="M15500 11000
L20500 11000
" />
<path d="M20500 12000
L16500 12000
" />
</g>
<g style="fill:#008400; fill-opacity:0.0; 
stroke:#008400; stroke-width:0; stroke-opacity:1; 
stroke-linecap:round; stroke-linejoin:round;">
</g>
<g style="fill:#840000; fill-opacity:0.0; 
stroke:#840000; stroke-width:0; stroke-opacity:1; 
stroke-linecap:round; stroke-linejoin:round;">
</g>
<g style="fill:#840000; fill-opacity:0.0; 
stroke:#840000; stroke-width:200; stroke-opacity:1; 
stroke-linecap:round; stroke-linejoin:round;">
<polyline fill="none;"
points="15200,6200
15200,7800
" /> 
<polyline fill="none;"
points="15800,6200
15800,7800
" /> 
</g>
<g style="fill:#840000; fill-opacity:0.0; 
stroke:#840000; stroke-width:60; stroke-opacity:1; 
stroke-linecap:round; stroke-linejoin:round;">
<path d="M15900 7000
L17000 7000
" />
<path d="M15100 7000
L14000 7000
" />
</g>
<g style="fill:#008484; fill-opacity:0.0; 
stroke:#008484; stroke-width:60; stroke-opacity:1; 
stroke-linecap:round; stroke-linejoin:round;">
<path d="M16640 7830
L16660 7850
L16690 7920
L16690 7970
L16660 8040
L16610 8090
L16570 8110
L16470 8130
L16400 8130
L16310 8110
L16260 8090
L16210 8040
L16190 7970
L16190 7920
L16210 7850
L16230 7830
" />
<path d="M16690 7350
L16690 7630
" />
<path d="M16690 7490
L16190 7490
L16260 7540
L16310 7590
L16330 7630
" />
<path d="M14690 9050
L14690 9330
" />
<path d="M14690 9190
L14190 9190
L14260 9240
L14310 9290
L14330 9330
" />
<path d="M14190 8740
L14190 8690
L14210 8640
L14230 8620
L14280 8590
L14380 8570
L14500 8570
L14590 8590
L14640 8620
L14660 8640
L14690 8690
L14690 8740
L14660 8780
L14640 8810
L14590 8830
L14500 8850
L14380 8850
L14280 8830
L14230 8810
L14210 8780
L14190 8740
" />
<path d="M14190 8260
L14190 8210
L14210 8160
L14230 8140
L14280 8110
L14380 8090
L14500 8090
L14590 8110
L14640 8140
L14660 8160
L14690 8210
L14690 8260
L14660 8300
L14640 8330
L14590 8350
L14500 8370
L14380 8370
L14280 8350
L14230 8330
L14210 8300
L14190 8260
" />
<path d="M14350 7870
L14690 7870
" />
<path d="M14400 7870
L14380 7850
L14350 7800
L14350 7730
L14380 7680
L14420 7660
L14690 7660
" />
<path d="M14350 7490
L14350 7300
" />
<path d="M14690 7420
L14260 7420
L14210 7400
L14190 7350
L14190 7300
" />
</g>
<g style="fill:#008400; fill-opacity:0.0; 
stroke:#008400; stroke-width:60; stroke-opacity:1; 
stroke-linecap:round; stroke-linejoin:round;">
<path d="M13500 7000
L14000 7000
" />
</g>
<g style="fill:#008400; fill-opacity:0.0; 
stroke:#008400; stroke-width:0; stroke-opacity:1; 
stroke-linecap:round; stroke-linejoin:round;">
</g>
<g style="fill:#008400; fill-opacity:1.0; 
stroke:#008400; stroke-width:100; stroke-opacity:1; 
stroke-linecap:round; stroke-linejoin:round;">
<circle cx="13500" cy="9000" r="200" /> 
</g>
<g style="fill:#008400; fill-opacity:1.0; 
stroke:#008400; stroke-width:60; stroke-opacity:1; 
stroke-linecap:round; stroke-linejoin:round;">
</g>
<g style="fill:#008400; fill-opacity:0.0; 
stroke:#008400; stroke-width:60; stroke-opacity:1; 
stroke-linecap:round; stroke-linejoin:round;">
<path d="M17000 7000
L17500 7000
" />
<path d="M17500 7000
L17500 9000
" />
</g>
<g style="fill:#008400; fill-opacity:0.0; 
stroke:#008400; stroke-width:0; stroke-opacity:1; 
stroke-linecap:round; stroke-linejoin:round;">
</g>
<g style="fill:#008400; fill-opacity:1.0; 
stroke:#008400; stroke-width:100; stroke-opacity:1; 
stroke-linecap:round; stroke-linejoin:round;">
<circle cx="17500" cy="9000" r="200" /> 
</g>
<g style="fill:#008400; fill-opacity:1.0; 
stroke:#008400; stroke-width:60; stroke-opacity:1; 
stroke-linecap:round; stroke-linejoin:round;">
</g>
<g style="fill:#008400; fill-opacity:0.0; 
stroke:#008400; stroke-width:60; stroke-opacity:1; 
stroke-linecap:round; stroke-linejoin:round;">
<path d="M16500 13000
L11500 13000
" />
<path d="M16500 12000
L16500 13000
" />
<path d="M15500 15000
L11500 15000
" />
</g> 
</svg>
