<?xml version="1.0" standalone="no"?>
 <!DOCTYPE svg PUBLIC "-//W3C//DTD SVG 1.1//EN" 
 "http://www.w3.org/Graphics/SVG/1.1/DTD/svg11.dtd"> 
<svg xmlns="http://www.w3.org/2000/svg" version="1.1" 
    width="29.7002cm" height="21.0007cm" viewBox="0 0 116930 82680 ">
<title>SVG Picture created as optical-distance.svg date 2017/12/04 02:24:53 </title>
  <desc>Picture generated by Eeschema-SVG </desc>
<g style="fill:#000000; fill-opacity:1;stroke:#000000; stroke-opacity:1;
stroke-linecap:round; stroke-linejoin:round; "
 transform="translate(0 0) scale(1 1)">
</g>
<g style="fill:#000000; fill-opacity:0.0; 
stroke:#000000; stroke-width:-10; stroke-opacity:1; 
stroke-linecap:round; stroke-linejoin:round;">
</g>
<g style="fill:#840000; fill-opacity:0.0; 
stroke:#840000; stroke-width:-10; stroke-opacity:1; 
stroke-linecap:round; stroke-linejoin:round;">
</g>
<g style="fill:#840000; fill-opacity:0.0; 
stroke:#840000; stroke-width:100; stroke-opacity:1; 
stroke-linecap:round; stroke-linejoin:round;">
</g>
<g style="fill:#840000; fill-opacity:0.0; 
stroke:#840000; stroke-width:60; stroke-opacity:1; 
stroke-linecap:round; stroke-linejoin:round;">
<rect x="69690" y="65360" width="42520" height="12600" rx="0" />
</g>
<g style="fill:#840000; fill-opacity:0.0; 
stroke:#840000; stroke-width:100; stroke-opacity:1; 
stroke-linecap:round; stroke-linejoin:round;">
</g>
<g style="fill:#840000; fill-opacity:0.0; 
stroke:#840000; stroke-width:60; stroke-opacity:1; 
stroke-linecap:round; stroke-linejoin:round;">
<rect x="3940" y="3940" width="109050" height="74800" rx="0" />
</g>
<g style="fill:#840000; fill-opacity:0.0; 
stroke:#840000; stroke-width:100; stroke-opacity:1; 
stroke-linecap:round; stroke-linejoin:round;">
</g>
<g style="fill:#840000; fill-opacity:0.0; 
stroke:#840000; stroke-width:60; stroke-opacity:1; 
stroke-linecap:round; stroke-linejoin:round;">
<rect x="4720" y="4720" width="107490" height="73240" rx="0" />
</g>
<g style="fill:#840000; fill-opacity:0.0; 
stroke:#840000; stroke-width:100; stroke-opacity:1; 
stroke-linecap:round; stroke-linejoin:round;">
</g>
<g style="fill:#840000; fill-opacity:0.0; 
stroke:#840000; stroke-width:60; stroke-opacity:1; 
stroke-linecap:round; stroke-linejoin:round;">
<path d="M23620 4720
L23620 3940
" />
</g>
<g style="fill:#840000; fill-opacity:0.0; 
stroke:#840000; stroke-width:100; stroke-opacity:1; 
stroke-linecap:round; stroke-linejoin:round;">
</g>
<g style="fill:#840000; fill-opacity:0.0; 
stroke:#840000; stroke-width:60; stroke-opacity:1; 
stroke-linecap:round; stroke-linejoin:round;">
<path d="M43310 4720
L43310 3940
" />
</g>
<g style="fill:#840000; fill-opacity:0.0; 
stroke:#840000; stroke-width:100; stroke-opacity:1; 
stroke-linecap:round; stroke-linejoin:round;">
</g>
<g style="fill:#840000; fill-opacity:0.0; 
stroke:#840000; stroke-width:60; stroke-opacity:1; 
stroke-linecap:round; stroke-linejoin:round;">
<path d="M62990 4720
L62990 3940
" />
</g>
<g style="fill:#840000; fill-opacity:0.0; 
stroke:#840000; stroke-width:100; stroke-opacity:1; 
stroke-linecap:round; stroke-linejoin:round;">
</g>
<g style="fill:#840000; fill-opacity:0.0; 
stroke:#840000; stroke-width:60; stroke-opacity:1; 
stroke-linecap:round; stroke-linejoin:round;">
<path d="M82680 4720
L82680 3940
" />
</g>
<g style="fill:#840000; fill-opacity:0.0; 
stroke:#840000; stroke-width:100; stroke-opacity:1; 
stroke-linecap:round; stroke-linejoin:round;">
</g>
<g style="fill:#840000; fill-opacity:0.0; 
stroke:#840000; stroke-width:60; stroke-opacity:1; 
stroke-linecap:round; stroke-linejoin:round;">
<path d="M102360 4720
L102360 3940
" />
</g>
<g style="fill:#840000; fill-opacity:0.0; 
stroke:#840000; stroke-width:100; stroke-opacity:1; 
stroke-linecap:round; stroke-linejoin:round;">
</g>
<g style="fill:#840000; fill-opacity:0.0; 
stroke:#840000; stroke-width:60; stroke-opacity:1; 
stroke-linecap:round; stroke-linejoin:round;">
<path d="M14170 4560
L13880 4560
" />
<path d="M14020 4560
L14020 4050
L13970 4120
L13930 4170
L13880 4190
" />
</g>
<g style="fill:#840000; fill-opacity:0.0; 
stroke:#840000; stroke-width:100; stroke-opacity:1; 
stroke-linecap:round; stroke-linejoin:round;">
</g>
<g style="fill:#840000; fill-opacity:0.0; 
stroke:#840000; stroke-width:60; stroke-opacity:1; 
stroke-linecap:round; stroke-linejoin:round;">
<path d="M33560 4090
L33580 4070
L33630 4050
L33750 4050
L33800 4070
L33820 4090
L33850 4140
L33850 4190
L33820 4260
L33530 4560
L33850 4560
" />
</g>
<g style="fill:#840000; fill-opacity:0.0; 
stroke:#840000; stroke-width:100; stroke-opacity:1; 
stroke-linecap:round; stroke-linejoin:round;">
</g>
<g style="fill:#840000; fill-opacity:0.0; 
stroke:#840000; stroke-width:60; stroke-opacity:1; 
stroke-linecap:round; stroke-linejoin:round;">
<path d="M53220 4050
L53540 4050
L53370 4240
L53440 4240
L53490 4260
L53510 4290
L53540 4340
L53540 4460
L53510 4510
L53490 4530
L53440 4560
L53300 4560
L53250 4530
L53220 4510
" />
</g>
<g style="fill:#840000; fill-opacity:0.0; 
stroke:#840000; stroke-width:100; stroke-opacity:1; 
stroke-linecap:round; stroke-linejoin:round;">
</g>
<g style="fill:#840000; fill-opacity:0.0; 
stroke:#840000; stroke-width:60; stroke-opacity:1; 
stroke-linecap:round; stroke-linejoin:round;">
<path d="M73170 4220
L73170 4560
" />
<path d="M73050 4020
L72930 4390
L73240 4390
" />
</g>
<g style="fill:#840000; fill-opacity:0.0; 
stroke:#840000; stroke-width:100; stroke-opacity:1; 
stroke-linecap:round; stroke-linejoin:round;">
</g>
<g style="fill:#840000; fill-opacity:0.0; 
stroke:#840000; stroke-width:60; stroke-opacity:1; 
stroke-linecap:round; stroke-linejoin:round;">
<path d="M92880 4050
L92640 4050
L92620 4290
L92640 4260
L92690 4240
L92810 4240
L92860 4260
L92880 4290
L92910 4340
L92910 4460
L92880 4510
L92860 4530
L92810 4560
L92690 4560
L92640 4530
L92620 4510
" />
</g>
<g style="fill:#840000; fill-opacity:0.0; 
stroke:#840000; stroke-width:100; stroke-opacity:1; 
stroke-linecap:round; stroke-linejoin:round;">
</g>
<g style="fill:#840000; fill-opacity:0.0; 
stroke:#840000; stroke-width:60; stroke-opacity:1; 
stroke-linecap:round; stroke-linejoin:round;">
<path d="M112540 4050
L112440 4050
L112390 4070
L112370 4090
L112320 4170
L112300 4260
L112300 4460
L112320 4510
L112350 4530
L112390 4560
L112490 4560
L112540 4530
L112560 4510
L112590 4460
L112590 4340
L112560 4290
L112540 4260
L112490 4240
L112390 4240
L112350 4260
L112320 4290
L112300 4340
" />
</g>
<g style="fill:#840000; fill-opacity:0.0; 
stroke:#840000; stroke-width:100; stroke-opacity:1; 
stroke-linecap:round; stroke-linejoin:round;">
</g>
<g style="fill:#840000; fill-opacity:0.0; 
stroke:#840000; stroke-width:60; stroke-opacity:1; 
stroke-linecap:round; stroke-linejoin:round;">
<path d="M23620 77960
L23620 78740
" />
</g>
<g style="fill:#840000; fill-opacity:0.0; 
stroke:#840000; stroke-width:100; stroke-opacity:1; 
stroke-linecap:round; stroke-linejoin:round;">
</g>
<g style="fill:#840000; fill-opacity:0.0; 
stroke:#840000; stroke-width:60; stroke-opacity:1; 
stroke-linecap:round; stroke-linejoin:round;">
<path d="M43310 77960
L43310 78740
" />
</g>
<g style="fill:#840000; fill-opacity:0.0; 
stroke:#840000; stroke-width:100; stroke-opacity:1; 
stroke-linecap:round; stroke-linejoin:round;">
</g>
<g style="fill:#840000; fill-opacity:0.0; 
stroke:#840000; stroke-width:60; stroke-opacity:1; 
stroke-linecap:round; stroke-linejoin:round;">
<path d="M62990 77960
L62990 78740
" />
</g>
<g style="fill:#840000; fill-opacity:0.0; 
stroke:#840000; stroke-width:100; stroke-opacity:1; 
stroke-linecap:round; stroke-linejoin:round;">
</g>
<g style="fill:#840000; fill-opacity:0.0; 
stroke:#840000; stroke-width:60; stroke-opacity:1; 
stroke-linecap:round; stroke-linejoin:round;">
<path d="M82680 77960
L82680 78740
" />
</g>
<g style="fill:#840000; fill-opacity:0.0; 
stroke:#840000; stroke-width:100; stroke-opacity:1; 
stroke-linecap:round; stroke-linejoin:round;">
</g>
<g style="fill:#840000; fill-opacity:0.0; 
stroke:#840000; stroke-width:60; stroke-opacity:1; 
stroke-linecap:round; stroke-linejoin:round;">
<path d="M102360 77960
L102360 78740
" />
</g>
<g style="fill:#840000; fill-opacity:0.0; 
stroke:#840000; stroke-width:100; stroke-opacity:1; 
stroke-linecap:round; stroke-linejoin:round;">
</g>
<g style="fill:#840000; fill-opacity:0.0; 
stroke:#840000; stroke-width:60; stroke-opacity:1; 
stroke-linecap:round; stroke-linejoin:round;">
<path d="M14170 78580
L13880 78580
" />
<path d="M14020 78580
L14020 78070
L13970 78140
L13930 78190
L13880 78210
" />
</g>
<g style="fill:#840000; fill-opacity:0.0; 
stroke:#840000; stroke-width:100; stroke-opacity:1; 
stroke-linecap:round; stroke-linejoin:round;">
</g>
<g style="fill:#840000; fill-opacity:0.0; 
stroke:#840000; stroke-width:60; stroke-opacity:1; 
stroke-linecap:round; stroke-linejoin:round;">
<path d="M33560 78110
L33580 78090
L33630 78070
L33750 78070
L33800 78090
L33820 78110
L33850 78160
L33850 78210
L33820 78280
L33530 78580
L33850 78580
" />
</g>
<g style="fill:#840000; fill-opacity:0.0; 
stroke:#840000; stroke-width:100; stroke-opacity:1; 
stroke-linecap:round; stroke-linejoin:round;">
</g>
<g style="fill:#840000; fill-opacity:0.0; 
stroke:#840000; stroke-width:60; stroke-opacity:1; 
stroke-linecap:round; stroke-linejoin:round;">
<path d="M53220 78070
L53540 78070
L53370 78260
L53440 78260
L53490 78280
L53510 78310
L53540 78360
L53540 78480
L53510 78530
L53490 78550
L53440 78580
L53300 78580
L53250 78550
L53220 78530
" />
</g>
<g style="fill:#840000; fill-opacity:0.0; 
stroke:#840000; stroke-width:100; stroke-opacity:1; 
stroke-linecap:round; stroke-linejoin:round;">
</g>
<g style="fill:#840000; fill-opacity:0.0; 
stroke:#840000; stroke-width:60; stroke-opacity:1; 
stroke-linecap:round; stroke-linejoin:round;">
<path d="M73170 78240
L73170 78580
" />
<path d="M73050 78040
L72930 78410
L73240 78410
" />
</g>
<g style="fill:#840000; fill-opacity:0.0; 
stroke:#840000; stroke-width:100; stroke-opacity:1; 
stroke-linecap:round; stroke-linejoin:round;">
</g>
<g style="fill:#840000; fill-opacity:0.0; 
stroke:#840000; stroke-width:60; stroke-opacity:1; 
stroke-linecap:round; stroke-linejoin:round;">
<path d="M92880 78070
L92640 78070
L92620 78310
L92640 78280
L92690 78260
L92810 78260
L92860 78280
L92880 78310
L92910 78360
L92910 78480
L92880 78530
L92860 78550
L92810 78580
L92690 78580
L92640 78550
L92620 78530
" />
</g>
<g style="fill:#840000; fill-opacity:0.0; 
stroke:#840000; stroke-width:100; stroke-opacity:1; 
stroke-linecap:round; stroke-linejoin:round;">
</g>
<g style="fill:#840000; fill-opacity:0.0; 
stroke:#840000; stroke-width:60; stroke-opacity:1; 
stroke-linecap:round; stroke-linejoin:round;">
<path d="M112540 78070
L112440 78070
L112390 78090
L112370 78110
L112320 78190
L112300 78280
L112300 78480
L112320 78530
L112350 78550
L112390 78580
L112490 78580
L112540 78550
L112560 78530
L112590 78480
L112590 78360
L112560 78310
L112540 78280
L112490 78260
L112390 78260
L112350 78280
L112320 78310
L112300 78360
" />
</g>
<g style="fill:#840000; fill-opacity:0.0; 
stroke:#840000; stroke-width:100; stroke-opacity:1; 
stroke-linecap:round; stroke-linejoin:round;">
</g>
<g style="fill:#840000; fill-opacity:0.0; 
stroke:#840000; stroke-width:60; stroke-opacity:1; 
stroke-linecap:round; stroke-linejoin:round;">
<path d="M3940 23620
L4720 23620
" />
</g>
<g style="fill:#840000; fill-opacity:0.0; 
stroke:#840000; stroke-width:100; stroke-opacity:1; 
stroke-linecap:round; stroke-linejoin:round;">
</g>
<g style="fill:#840000; fill-opacity:0.0; 
stroke:#840000; stroke-width:60; stroke-opacity:1; 
stroke-linecap:round; stroke-linejoin:round;">
<path d="M3940 43310
L4720 43310
" />
</g>
<g style="fill:#840000; fill-opacity:0.0; 
stroke:#840000; stroke-width:100; stroke-opacity:1; 
stroke-linecap:round; stroke-linejoin:round;">
</g>
<g style="fill:#840000; fill-opacity:0.0; 
stroke:#840000; stroke-width:60; stroke-opacity:1; 
stroke-linecap:round; stroke-linejoin:round;">
<path d="M3940 62990
L4720 62990
" />
</g>
<g style="fill:#840000; fill-opacity:0.0; 
stroke:#840000; stroke-width:100; stroke-opacity:1; 
stroke-linecap:round; stroke-linejoin:round;">
</g>
<g style="fill:#840000; fill-opacity:0.0; 
stroke:#840000; stroke-width:60; stroke-opacity:1; 
stroke-linecap:round; stroke-linejoin:round;">
<path d="M4210 13860
L4450 13860
" />
<path d="M4160 14010
L4330 13500
L4500 14010
" />
</g>
<g style="fill:#840000; fill-opacity:0.0; 
stroke:#840000; stroke-width:100; stroke-opacity:1; 
stroke-linecap:round; stroke-linejoin:round;">
</g>
<g style="fill:#840000; fill-opacity:0.0; 
stroke:#840000; stroke-width:60; stroke-opacity:1; 
stroke-linecap:round; stroke-linejoin:round;">
<path d="M4370 33420
L4440 33440
L4470 33470
L4490 33520
L4490 33590
L4470 33640
L4440 33660
L4400 33690
L4200 33690
L4200 33180
L4370 33180
L4420 33200
L4440 33220
L4470 33270
L4470 33320
L4440 33370
L4420 33390
L4370 33420
L4200 33420
" />
</g>
<g style="fill:#840000; fill-opacity:0.0; 
stroke:#840000; stroke-width:100; stroke-opacity:1; 
stroke-linecap:round; stroke-linejoin:round;">
</g>
<g style="fill:#840000; fill-opacity:0.0; 
stroke:#840000; stroke-width:60; stroke-opacity:1; 
stroke-linecap:round; stroke-linejoin:round;">
<path d="M4490 53330
L4470 53350
L4400 53380
L4350 53380
L4270 53350
L4230 53300
L4200 53250
L4180 53160
L4180 53080
L4200 52990
L4230 52940
L4270 52890
L4350 52870
L4400 52870
L4470 52890
L4490 52910
" />
</g>
<g style="fill:#840000; fill-opacity:0.0; 
stroke:#840000; stroke-width:100; stroke-opacity:1; 
stroke-linecap:round; stroke-linejoin:round;">
</g>
<g style="fill:#840000; fill-opacity:0.0; 
stroke:#840000; stroke-width:60; stroke-opacity:1; 
stroke-linecap:round; stroke-linejoin:round;">
<path d="M4200 73060
L4200 72550
L4320 72550
L4400 72570
L4440 72620
L4470 72670
L4490 72760
L4490 72840
L4470 72930
L4440 72980
L4400 73030
L4320 73060
L4200 73060
" />
</g>
<g style="fill:#840000; fill-opacity:0.0; 
stroke:#840000; stroke-width:100; stroke-opacity:1; 
stroke-linecap:round; stroke-linejoin:round;">
</g>
<g style="fill:#840000; fill-opacity:0.0; 
stroke:#840000; stroke-width:60; stroke-opacity:1; 
stroke-linecap:round; stroke-linejoin:round;">
<path d="M112990 23620
L112210 23620
" />
</g>
<g style="fill:#840000; fill-opacity:0.0; 
stroke:#840000; stroke-width:100; stroke-opacity:1; 
stroke-linecap:round; stroke-linejoin:round;">
</g>
<g style="fill:#840000; fill-opacity:0.0; 
stroke:#840000; stroke-width:60; stroke-opacity:1; 
stroke-linecap:round; stroke-linejoin:round;">
<path d="M112990 43310
L112210 43310
" />
</g>
<g style="fill:#840000; fill-opacity:0.0; 
stroke:#840000; stroke-width:100; stroke-opacity:1; 
stroke-linecap:round; stroke-linejoin:round;">
</g>
<g style="fill:#840000; fill-opacity:0.0; 
stroke:#840000; stroke-width:60; stroke-opacity:1; 
stroke-linecap:round; stroke-linejoin:round;">
<path d="M112990 62990
L112210 62990
" />
</g>
<g style="fill:#840000; fill-opacity:0.0; 
stroke:#840000; stroke-width:100; stroke-opacity:1; 
stroke-linecap:round; stroke-linejoin:round;">
</g>
<g style="fill:#840000; fill-opacity:0.0; 
stroke:#840000; stroke-width:60; stroke-opacity:1; 
stroke-linecap:round; stroke-linejoin:round;">
<path d="M112480 13860
L112720 13860
" />
<path d="M112430 14010
L112600 13500
L112770 14010
" />
</g>
<g style="fill:#840000; fill-opacity:0.0; 
stroke:#840000; stroke-width:100; stroke-opacity:1; 
stroke-linecap:round; stroke-linejoin:round;">
</g>
<g style="fill:#840000; fill-opacity:0.0; 
stroke:#840000; stroke-width:60; stroke-opacity:1; 
stroke-linecap:round; stroke-linejoin:round;">
<path d="M112640 33420
L112710 33440
L112740 33470
L112760 33520
L112760 33590
L112740 33640
L112710 33660
L112670 33690
L112470 33690
L112470 33180
L112640 33180
L112690 33200
L112710 33220
L112740 33270
L112740 33320
L112710 33370
L112690 33390
L112640 33420
L112470 33420
" />
</g>
<g style="fill:#840000; fill-opacity:0.0; 
stroke:#840000; stroke-width:100; stroke-opacity:1; 
stroke-linecap:round; stroke-linejoin:round;">
</g>
<g style="fill:#840000; fill-opacity:0.0; 
stroke:#840000; stroke-width:60; stroke-opacity:1; 
stroke-linecap:round; stroke-linejoin:round;">
<path d="M112760 53330
L112740 53350
L112670 53380
L112620 53380
L112540 53350
L112500 53300
L112470 53250
L112450 53160
L112450 53080
L112470 52990
L112500 52940
L112540 52890
L112620 52870
L112670 52870
L112740 52890
L112760 52910
" />
</g>
<g style="fill:#840000; fill-opacity:0.0; 
stroke:#840000; stroke-width:100; stroke-opacity:1; 
stroke-linecap:round; stroke-linejoin:round;">
</g>
<g style="fill:#840000; fill-opacity:0.0; 
stroke:#840000; stroke-width:60; stroke-opacity:1; 
stroke-linecap:round; stroke-linejoin:round;">
<path d="M112470 73060
L112470 72550
L112590 72550
L112670 72570
L112710 72620
L112740 72670
L112760 72760
L112760 72840
L112740 72930
L112710 72980
L112670 73030
L112590 73060
L112470 73060
" />
</g>
<g style="fill:#840000; fill-opacity:0.0; 
stroke:#840000; stroke-width:100; stroke-opacity:1; 
stroke-linecap:round; stroke-linejoin:round;">
</g>
<g style="fill:#840000; fill-opacity:0.0; 
stroke:#840000; stroke-width:60; stroke-opacity:1; 
stroke-linecap:round; stroke-linejoin:round;">
<path d="M78880 76290
L78880 75700
L79020 75700
L79110 75730
L79160 75790
L79190 75840
L79220 75950
L79220 76040
L79190 76150
L79160 76210
L79110 76260
L79020 76290
L78880 76290
" />
<path d="M79720 76290
L79720 75980
L79700 75930
L79640 75900
L79530 75900
L79470 75930
" />
<path d="M79720 76260
L79670 76290
L79530 76290
L79470 76260
L79440 76210
L79440 76150
L79470 76100
L79530 76070
L79670 76070
L79720 76040
" />
<path d="M79920 75900
L80140 75900
" />
<path d="M80000 75700
L80000 76210
L80030 76260
L80080 76290
L80140 76290
" />
<path d="M80570 76260
L80510 76290
L80400 76290
L80340 76260
L80310 76210
L80310 75980
L80340 75930
L80400 75900
L80510 75900
L80570 75930
L80590 75980
L80590 76040
L80310 76100
" />
<path d="M80850 76240
L80880 76260
L80850 76290
L80820 76260
L80850 76240
L80850 76290
" />
<path d="M80850 75930
L80880 75950
L80850 75980
L80820 75950
L80850 75930
L80850 75980
" />
<path d="M81550 75760
L81580 75730
L81640 75700
L81780 75700
L81830 75730
L81860 75760
L81890 75810
L81890 75870
L81860 75950
L81520 76290
L81890 76290
" />
<path d="M82250 75700
L82310 75700
L82370 75730
L82390 75760
L82420 75810
L82450 75930
L82450 76070
L82420 76180
L82390 76240
L82370 76260
L82310 76290
L82250 76290
L82200 76260
L82170 76240
L82140 76180
L82110 76070
L82110 75930
L82140 75810
L82170 75760
L82200 75730
L82250 75700
" />
<path d="M83010 76290
L82670 76290
" />
<path d="M82840 76290
L82840 75700
L82780 75790
L82730 75840
L82670 75870
" />
<path d="M83200 75700
L83600 75700
L83340 76290
" />
<path d="M83820 76070
L84270 76070
" />
<path d="M84660 75700
L84720 75700
L84780 75730
L84800 75760
L84830 75810
L84860 75930
L84860 76070
L84830 76180
L84800 76240
L84780 76260
L84720 76290
L84660 76290
L84610 76260
L84580 76240
L84550 76180
L84520 76070
L84520 75930
L84550 75810
L84580 75760
L84610 75730
L84660 75700
" />
<path d="M85390 75700
L85110 75700
L85080 75980
L85110 75950
L85170 75930
L85310 75930
L85360 75950
L85390 75980
L85420 76040
L85420 76180
L85390 76240
L85360 76260
L85310 76290
L85170 76290
L85110 76260
L85080 76240
" />
<path d="M85670 76070
L86120 76070
" />
<path d="M86340 75700
L86710 75700
L86510 75930
L86600 75930
L86650 75950
L86680 75980
L86710 76040
L86710 76180
L86680 76240
L86650 76260
L86600 76290
L86430 76290
L86370 76260
L86340 76240
" />
<path d="M87070 75700
L87130 75700
L87190 75730
L87210 75760
L87240 75810
L87270 75930
L87270 76070
L87240 76180
L87210 76240
L87190 76260
L87130 76290
L87070 76290
L87020 76260
L86990 76240
L86960 76180
L86930 76070
L86930 75930
L86960 75810
L86990 75760
L87020 75730
L87070 75700
" />
</g>
<g style="fill:#840000; fill-opacity:0.0; 
stroke:#840000; stroke-width:100; stroke-opacity:1; 
stroke-linecap:round; stroke-linejoin:round;">
</g>
<g style="fill:#840000; fill-opacity:0.0; 
stroke:#840000; stroke-width:60; stroke-opacity:1; 
stroke-linecap:round; stroke-linejoin:round;">
<path d="M69690 76580
L112210 76580
" />
</g>
<g style="fill:#840000; fill-opacity:0.0; 
stroke:#840000; stroke-width:100; stroke-opacity:1; 
stroke-linecap:round; stroke-linejoin:round;">
</g>
<g style="fill:#840000; fill-opacity:0.0; 
stroke:#840000; stroke-width:60; stroke-opacity:1; 
stroke-linecap:round; stroke-linejoin:round;">
<path d="M70220 77390
L70220 76800
" />
<path d="M70560 77390
L70300 77050
" />
<path d="M70560 76800
L70220 77140
" />
<path d="M70810 77390
L70810 77000
" />
<path d="M70810 76800
L70780 76830
L70810 76860
L70840 76830
L70810 76800
L70810 76860
" />
<path d="M71430 77340
L71400 77360
L71320 77390
L71260 77390
L71170 77360
L71120 77310
L71090 77250
L71060 77140
L71060 77050
L71090 76940
L71120 76890
L71170 76830
L71260 76800
L71320 76800
L71400 76830
L71430 76860
" />
<path d="M71930 77390
L71930 77080
L71910 77030
L71850 77000
L71740 77000
L71680 77030
" />
<path d="M71930 77360
L71880 77390
L71740 77390
L71680 77360
L71650 77310
L71650 77250
L71680 77200
L71740 77170
L71880 77170
L71930 77140
" />
<path d="M72460 77390
L72460 76800
" />
<path d="M72460 77360
L72410 77390
L72290 77390
L72240 77360
L72210 77340
L72180 77280
L72180 77110
L72210 77050
L72240 77030
L72290 77000
L72410 77000
L72460 77030
" />
<path d="M73190 77080
L73390 77080
" />
<path d="M73470 77390
L73190 77390
L73190 76800
L73470 76800
" />
<path d="M73720 77340
L73750 77360
L73720 77390
L73690 77360
L73720 77340
L73720 77390
" />
<path d="M74000 77390
L74000 76800
L74140 76800
L74230 76830
L74280 76890
L74310 76940
L74340 77050
L74340 77140
L74310 77250
L74280 77310
L74230 77360
L74140 77390
L74000 77390
" />
<path d="M74590 77340
L74620 77360
L74590 77390
L74560 77360
L74590 77340
L74590 77390
" />
<path d="M74840 77220
L75120 77220
" />
<path d="M74790 77390
L74980 76800
L75180 77390
" />
<path d="M75380 77340
L75410 77360
L75380 77390
L75350 77360
L75380 77340
L75380 77390
" />
<path d="M76560 77390
L76560 76800
" />
<path d="M76620 77170
L76790 77390
" />
<path d="M76790 77000
L76560 77220
" />
<path d="M77040 77390
L77040 77000
" />
<path d="M77040 76800
L77010 76830
L77040 76860
L77070 76830
L77040 76800
L77040 76860
" />
<path d="M77570 77360
L77520 77390
L77400 77390
L77350 77360
L77320 77340
L77290 77280
L77290 77110
L77320 77050
L77350 77030
L77400 77000
L77520 77000
L77570 77030
" />
<path d="M78080 77390
L78080 77080
L78060 77030
L78000 77000
L77890 77000
L77830 77030
" />
<path d="M78080 77360
L78030 77390
L77890 77390
L77830 77360
L77800 77310
L77800 77250
L77830 77200
L77890 77170
L78030 77170
L78080 77140
" />
<path d="M78610 77390
L78610 76800
" />
<path d="M78610 77360
L78560 77390
L78440 77390
L78390 77360
L78360 77340
L78330 77280
L78330 77110
L78360 77050
L78390 77030
L78440 77000
L78560 77000
L78610 77030
" />
<path d="M79590 77000
L79590 77390
" />
<path d="M79450 76770
L79310 77200
L79680 77200
" />
<path d="M79900 77340
L79930 77360
L79900 77390
L79870 77360
L79900 77340
L79900 77390
" />
<path d="M80290 76800
L80350 76800
L80410 76830
L80430 76860
L80460 76910
L80490 77030
L80490 77170
L80460 77280
L80430 77340
L80410 77360
L80350 77390
L80290 77390
L80240 77360
L80210 77340
L80180 77280
L80150 77170
L80150 77030
L80180 76910
L80210 76860
L80240 76830
L80290 76800
" />
<path d="M80740 77340
L80770 77360
L80740 77390
L80710 77360
L80740 77340
L80740 77390
" />
<path d="M81270 76800
L81160 76800
L81100 76830
L81080 76860
L81020 76940
L80990 77050
L80990 77280
L81020 77340
L81050 77360
L81100 77390
L81220 77390
L81270 77360
L81300 77340
L81330 77280
L81330 77140
L81300 77080
L81270 77050
L81220 77030
L81100 77030
L81050 77050
L81020 77080
L80990 77140
" />
</g>
<g style="fill:#840000; fill-opacity:0.0; 
stroke:#840000; stroke-width:100; stroke-opacity:1; 
stroke-linecap:round; stroke-linejoin:round;">
</g>
<g style="fill:#840000; fill-opacity:0.0; 
stroke:#840000; stroke-width:60; stroke-opacity:1; 
stroke-linecap:round; stroke-linejoin:round;">
<path d="M69690 75400
L112210 75400
" />
</g>
<g style="fill:#840000; fill-opacity:0.0; 
stroke:#840000; stroke-width:100; stroke-opacity:1; 
stroke-linecap:round; stroke-linejoin:round;">
</g>
<g style="fill:#840000; fill-opacity:0.0; 
stroke:#840000; stroke-width:120; stroke-opacity:1; 
stroke-linecap:round; stroke-linejoin:round;">
<path d="M104020 76290
L103820 76010
" />
<path d="M103680 76290
L103680 75700
L103910 75700
L103960 75730
L103990 75760
L104020 75810
L104020 75900
L103990 75950
L103960 75980
L103910 76010
L103680 76010
" />
<path d="M104500 76260
L104440 76290
L104330 76290
L104270 76260
L104240 76210
L104240 75980
L104270 75930
L104330 75900
L104440 75900
L104500 75930
L104520 75980
L104520 76040
L104240 76100
" />
<path d="M104720 75900
L104860 76290
L105010 75900
" />
<path d="M105230 76240
L105260 76260
L105230 76290
L105200 76260
L105230 76240
L105230 76290
" />
<path d="M105230 75930
L105260 75950
L105230 75980
L105200 75950
L105230 75930
L105230 75980
" />
<path d="M106270 76290
L105930 76290
" />
<path d="M106100 76290
L106100 75700
L106040 75790
L105990 75840
L105930 75870
" />
</g>
<g style="fill:#840000; fill-opacity:0.0; 
stroke:#840000; stroke-width:100; stroke-opacity:1; 
stroke-linecap:round; stroke-linejoin:round;">
</g>
<g style="fill:#840000; fill-opacity:0.0; 
stroke:#840000; stroke-width:60; stroke-opacity:1; 
stroke-linecap:round; stroke-linejoin:round;">
<path d="M70190 76260
L70280 76290
L70420 76290
L70470 76260
L70500 76240
L70530 76180
L70530 76120
L70500 76070
L70470 76040
L70420 76010
L70300 75980
L70250 75950
L70220 75930
L70190 75870
L70190 75810
L70220 75760
L70250 75730
L70300 75700
L70450 75700
L70530 75730
" />
<path d="M70780 76290
L70780 75900
" />
<path d="M70780 75700
L70750 75730
L70780 75760
L70810 75730
L70780 75700
L70780 75760
" />
<path d="M71000 75900
L71310 75900
L71000 76290
L71310 76290
" />
<path d="M71770 76260
L71710 76290
L71600 76290
L71540 76260
L71510 76210
L71510 75980
L71540 75930
L71600 75900
L71710 75900
L71770 75930
L71790 75980
L71790 76040
L71510 76100
" />
<path d="M72050 76240
L72080 76260
L72050 76290
L72020 76260
L72050 76240
L72050 76290
" />
<path d="M72050 75930
L72080 75950
L72050 75980
L72020 75950
L72050 75930
L72050 75980
" />
<path d="M72750 76120
L73030 76120
" />
<path d="M72700 76290
L72890 75700
L73090 76290
" />
<path d="M73540 75900
L73540 76290
" />
<path d="M73400 75670
L73260 76100
L73630 76100
" />
</g>
<g style="fill:#840000; fill-opacity:0.0; 
stroke:#840000; stroke-width:100; stroke-opacity:1; 
stroke-linecap:round; stroke-linejoin:round;">
</g>
<g style="fill:#840000; fill-opacity:0.0; 
stroke:#840000; stroke-width:60; stroke-opacity:1; 
stroke-linecap:round; stroke-linejoin:round;">
<path d="M103680 77390
L103680 76800
" />
<path d="M104210 77390
L104210 76800
" />
<path d="M104210 77360
L104160 77390
L104040 77390
L103990 77360
L103960 77340
L103930 77280
L103930 77110
L103960 77050
L103990 77030
L104040 77000
L104160 77000
L104210 77030
" />
<path d="M104490 77340
L104520 77360
L104490 77390
L104460 77360
L104490 77340
L104490 77390
" />
<path d="M104490 77030
L104520 77050
L104490 77080
L104460 77050
L104490 77030
L104490 77080
" />
<path d="M105530 77390
L105190 77390
" />
<path d="M105360 77390
L105360 76800
L105300 76890
L105250 76940
L105190 76970
" />
<path d="M106200 76770
L105700 77530
" />
<path d="M106710 77390
L106370 77390
" />
<path d="M106540 77390
L106540 76800
L106480 76890
L106430 76940
L106370 76970
" />
</g>
<g style="fill:#840000; fill-opacity:0.0; 
stroke:#840000; stroke-width:100; stroke-opacity:1; 
stroke-linecap:round; stroke-linejoin:round;">
</g>
<g style="fill:#840000; fill-opacity:0.0; 
stroke:#840000; stroke-width:60; stroke-opacity:1; 
stroke-linecap:round; stroke-linejoin:round;">
<path d="M69690 73820
L112210 73820
" />
</g>
<g style="fill:#840000; fill-opacity:0.0; 
stroke:#840000; stroke-width:100; stroke-opacity:1; 
stroke-linecap:round; stroke-linejoin:round;">
</g>
<g style="fill:#840000; fill-opacity:0.0; 
stroke:#840000; stroke-width:160; stroke-opacity:1; 
stroke-linecap:round; stroke-linejoin:round;">
<path d="M70260 74090
L70710 74090
" />
<path d="M70390 74880
L70480 74090
" />
<path d="M70880 74880
L70940 74360
" />
<path d="M70970 74090
L70930 74130
L70960 74170
L71010 74130
L70970 74090
L70960 74170
" />
<path d="M71210 74360
L71510 74360
" />
<path d="M71350 74090
L71270 74770
L71300 74840
L71370 74880
L71450 74880
" />
<path d="M71820 74880
L71750 74840
L71720 74770
L71800 74090
" />
<path d="M72420 74840
L72340 74880
L72190 74880
L72120 74840
L72090 74770
L72130 74470
L72180 74390
L72250 74360
L72400 74360
L72480 74390
L72510 74470
L72500 74540
L72110 74620
" />
<path d="M72800 74810
L72840 74840
L72800 74880
L72760 74840
L72800 74810
L72800 74880
" />
<path d="M72860 74390
L72890 74430
L72850 74470
L72810 74430
L72860 74390
L72850 74470
" />
<path d="M74020 74090
L74170 74090
L74240 74130
L74310 74210
L74330 74360
L74300 74620
L74240 74770
L74150 74840
L74080 74880
L73930 74880
L73850 74840
L73790 74770
L73770 74620
L73800 74360
L73860 74210
L73940 74130
L74020 74090
" />
<path d="M74670 74360
L74570 75150
" />
<path d="M74670 74390
L74740 74360
L74890 74360
L74970 74390
L75000 74430
L75020 74510
L74990 74730
L74950 74810
L74910 74840
L74830 74880
L74680 74880
L74610 74840
" />
<path d="M75270 74360
L75570 74360
" />
<path d="M75410 74090
L75330 74770
L75360 74840
L75430 74880
L75510 74880
" />
<path d="M75770 74880
L75830 74360
" />
<path d="M75860 74090
L75820 74130
L75850 74170
L75900 74130
L75860 74090
L75850 74170
" />
<path d="M76490 74840
L76410 74880
L76260 74880
L76190 74840
L76150 74810
L76120 74730
L76150 74510
L76200 74430
L76250 74390
L76320 74360
L76470 74360
L76550 74390
" />
<path d="M77170 74880
L77220 74470
L77190 74390
L77110 74360
L76960 74360
L76890 74390
" />
<path d="M77170 74840
L77090 74880
L76900 74880
L76830 74840
L76800 74770
L76810 74690
L76860 74620
L76930 74580
L77120 74580
L77210 74540
" />
<path d="M77650 74880
L77580 74840
L77550 74770
L77630 74090
" />
<path d="M78890 74880
L78980 74090
" />
<path d="M78890 74840
L78810 74880
L78660 74880
L78590 74840
L78550 74810
L78520 74730
L78550 74510
L78600 74430
L78650 74390
L78720 74360
L78870 74360
L78950 74390
" />
<path d="M79260 74880
L79320 74360
" />
<path d="M79350 74090
L79310 74130
L79340 74170
L79390 74130
L79350 74090
L79340 74170
" />
<path d="M79600 74840
L79680 74880
L79830 74880
L79900 74840
L79950 74770
L79950 74730
L79920 74660
L79860 74620
L79740 74620
L79670 74580
L79640 74510
L79650 74470
L79700 74390
L79770 74360
L79890 74360
L79960 74390
" />
<path d="M80230 74360
L80530 74360
" />
<path d="M80370 74090
L80290 74770
L80320 74840
L80390 74880
L80470 74880
" />
<path d="M81070 74880
L81120 74470
L81090 74390
L81010 74360
L80860 74360
L80790 74390
" />
<path d="M81070 74840
L80990 74880
L80800 74880
L80730 74840
L80700 74770
L80710 74690
L80760 74620
L80830 74580
L81020 74580
L81110 74540
" />
<path d="M81500 74360
L81440 74880
" />
<path d="M81490 74430
L81540 74390
L81610 74360
L81720 74360
L81800 74390
L81830 74470
L81780 74880
" />
<path d="M82490 74840
L82410 74880
L82260 74880
L82190 74840
L82150 74810
L82120 74730
L82150 74510
L82200 74430
L82250 74390
L82320 74360
L82470 74360
L82550 74390
" />
<path d="M83130 74840
L83050 74880
L82900 74880
L82830 74840
L82800 74770
L82840 74470
L82890 74390
L82960 74360
L83110 74360
L83190 74390
L83220 74470
L83210 74540
L82820 74620
" />
<path d="M84070 74840
L84150 74880
L84300 74880
L84370 74840
L84420 74770
L84420 74730
L84390 74660
L84330 74620
L84210 74620
L84140 74580
L84110 74510
L84120 74470
L84170 74390
L84240 74360
L84360 74360
L84430 74390
" />
<path d="M85050 74840
L84970 74880
L84820 74880
L84750 74840
L84720 74770
L84760 74470
L84810 74390
L84880 74360
L85030 74360
L85110 74390
L85140 74470
L85130 74540
L84740 74620
" />
<path d="M85490 74360
L85430 74880
" />
<path d="M85480 74430
L85530 74390
L85600 74360
L85710 74360
L85790 74390
L85820 74470
L85770 74880
" />
<path d="M86100 74840
L86180 74880
L86330 74880
L86400 74840
L86450 74770
L86450 74730
L86420 74660
L86360 74620
L86240 74620
L86170 74580
L86140 74510
L86150 74470
L86200 74390
L86270 74360
L86390 74360
L86460 74390
" />
<path d="M86890 74880
L86820 74840
L86780 74810
L86750 74730
L86780 74510
L86830 74430
L86880 74390
L86950 74360
L87060 74360
L87140 74390
L87170 74430
L87190 74510
L87160 74730
L87120 74810
L87080 74840
L87000 74880
L86890 74880
" />
<path d="M87490 74880
L87550 74360
" />
<path d="M87530 74510
L87580 74430
L87620 74390
L87700 74360
L87770 74360
" />
</g>
<g style="fill:#840000; fill-opacity:0.0; 
stroke:#840000; stroke-width:100; stroke-opacity:1; 
stroke-linecap:round; stroke-linejoin:round;">
</g>
<g style="fill:#840000; fill-opacity:0.0; 
stroke:#840000; stroke-width:60; stroke-opacity:1; 
stroke-linecap:round; stroke-linejoin:round;">
<path d="M70420 73060
L70220 73060
" />
<path d="M70220 73370
L70220 72780
L70500 72780
" />
<path d="M70730 73370
L70730 72980
" />
<path d="M70730 72780
L70700 72810
L70730 72840
L70760 72810
L70730 72780
L70730 72840
" />
<path d="M71090 73370
L71040 73340
L71010 73290
L71010 72780
" />
<path d="M71550 73340
L71490 73370
L71380 73370
L71320 73340
L71290 73290
L71290 73060
L71320 73010
L71380 72980
L71490 72980
L71550 73010
L71570 73060
L71570 73120
L71290 73180
" />
<path d="M71830 73320
L71860 73340
L71830 73370
L71800 73340
L71830 73320
L71830 73370
" />
<path d="M71830 73010
L71860 73030
L71830 73060
L71800 73030
L71830 73010
L71830 73060
" />
<path d="M72640 73370
L72590 73340
L72560 73320
L72530 73260
L72530 73090
L72560 73030
L72590 73010
L72640 72980
L72730 72980
L72790 73010
L72810 73030
L72840 73090
L72840 73260
L72810 73320
L72790 73340
L72730 73370
L72640 73370
" />
<path d="M73090 72980
L73090 73570
" />
<path d="M73090 73010
L73150 72980
L73260 72980
L73320 73010
L73340 73030
L73370 73090
L73370 73260
L73340 73320
L73320 73340
L73260 73370
L73150 73370
L73090 73340
" />
<path d="M73540 72980
L73760 72980
" />
<path d="M73620 72780
L73620 73290
L73650 73340
L73700 73370
L73760 73370
" />
<path d="M73960 73370
L73960 72980
" />
<path d="M73960 72780
L73930 72810
L73960 72840
L73990 72810
L73960 72780
L73960 72840
" />
<path d="M74490 73340
L74440 73370
L74320 73370
L74270 73340
L74240 73320
L74210 73260
L74210 73090
L74240 73030
L74270 73010
L74320 72980
L74440 72980
L74490 73010
" />
<path d="M75000 73370
L75000 73060
L74980 73010
L74920 72980
L74810 72980
L74750 73010
" />
<path d="M75000 73340
L74950 73370
L74810 73370
L74750 73340
L74720 73290
L74720 73230
L74750 73180
L74810 73150
L74950 73150
L75000 73120
" />
<path d="M75360 73370
L75310 73340
L75280 73290
L75280 72780
" />
<path d="M75590 73150
L76040 73150
" />
<path d="M76570 73370
L76570 72780
" />
<path d="M76570 73340
L76520 73370
L76400 73370
L76350 73340
L76320 73320
L76290 73260
L76290 73090
L76320 73030
L76350 73010
L76400 72980
L76520 72980
L76570 73010
" />
<path d="M76850 73370
L76850 72980
" />
<path d="M76850 72780
L76820 72810
L76850 72840
L76880 72810
L76850 72780
L76850 72840
" />
<path d="M77100 73340
L77160 73370
L77270 73370
L77330 73340
L77360 73290
L77360 73260
L77330 73200
L77270 73180
L77190 73180
L77130 73150
L77100 73090
L77100 73060
L77130 73010
L77190 72980
L77270 72980
L77330 73010
" />
<path d="M77530 72980
L77750 72980
" />
<path d="M77610 72780
L77610 73290
L77640 73340
L77690 73370
L77750 73370
" />
<path d="M78200 73370
L78200 73060
L78180 73010
L78120 72980
L78010 72980
L77950 73010
" />
<path d="M78200 73340
L78150 73370
L78010 73370
L77950 73340
L77920 73290
L77920 73230
L77950 73180
L78010 73150
L78150 73150
L78200 73120
" />
<path d="M78480 72980
L78480 73370
" />
<path d="M78480 73030
L78510 73010
L78560 72980
L78650 72980
L78710 73010
L78730 73060
L78730 73370
" />
<path d="M79260 73340
L79210 73370
L79090 73370
L79040 73340
L79010 73320
L78980 73260
L78980 73090
L79010 73030
L79040 73010
L79090 72980
L79210 72980
L79260 73010
" />
<path d="M79750 73340
L79690 73370
L79580 73370
L79520 73340
L79490 73290
L79490 73060
L79520 73010
L79580 72980
L79690 72980
L79750 73010
L79770 73060
L79770 73120
L79490 73180
" />
<path d="M80030 73320
L80060 73340
L80030 73370
L80000 73340
L80030 73320
L80030 73370
" />
<path d="M80280 73340
L80340 73370
L80450 73370
L80510 73340
L80540 73290
L80540 73260
L80510 73200
L80450 73180
L80370 73180
L80310 73150
L80280 73090
L80280 73060
L80310 73010
L80370 72980
L80450 72980
L80510 73010
" />
<path d="M81040 73340
L80990 73370
L80870 73370
L80820 73340
L80790 73320
L80760 73260
L80760 73090
L80790 73030
L80820 73010
L80870 72980
L80990 72980
L81040 73010
" />
<path d="M81300 73370
L81300 72780
" />
<path d="M81550 73370
L81550 73060
L81530 73010
L81470 72980
L81380 72980
L81330 73010
L81300 73030
" />
</g>
<g style="fill:#840000; fill-opacity:0.0; 
stroke:#840000; stroke-width:100; stroke-opacity:1; 
stroke-linecap:round; stroke-linejoin:round;">
</g>
<g style="fill:#840000; fill-opacity:0.0; 
stroke:#840000; stroke-width:60; stroke-opacity:1; 
stroke-linecap:round; stroke-linejoin:round;">
<path d="M69690 71460
L112210 71460
" />
</g>
<g style="fill:#840000; fill-opacity:0.0; 
stroke:#840000; stroke-width:100; stroke-opacity:1; 
stroke-linecap:round; stroke-linejoin:round;">
</g>
<g style="fill:#840000; fill-opacity:0.0; 
stroke:#840000; stroke-width:60; stroke-opacity:1; 
stroke-linecap:round; stroke-linejoin:round;">
<path d="M70190 72280
L70280 72310
L70420 72310
L70470 72280
L70500 72260
L70530 72200
L70530 72140
L70500 72090
L70470 72060
L70420 72030
L70300 72000
L70250 71970
L70220 71950
L70190 71890
L70190 71830
L70220 71780
L70250 71750
L70300 71720
L70450 71720
L70530 71750
" />
<path d="M70780 72310
L70780 71720
" />
<path d="M71030 72310
L71030 72000
L71010 71950
L70950 71920
L70860 71920
L70810 71950
L70780 71970
" />
<path d="M71540 72280
L71480 72310
L71370 72310
L71310 72280
L71280 72230
L71280 72000
L71310 71950
L71370 71920
L71480 71920
L71540 71950
L71560 72000
L71560 72060
L71280 72120
" />
<path d="M72050 72280
L71990 72310
L71880 72310
L71820 72280
L71790 72230
L71790 72000
L71820 71950
L71880 71920
L71990 71920
L72050 71950
L72070 72000
L72070 72060
L71790 72120
" />
<path d="M72250 71920
L72470 71920
" />
<path d="M72330 71720
L72330 72230
L72360 72280
L72410 72310
L72470 72310
" />
<path d="M72670 72260
L72700 72280
L72670 72310
L72640 72280
L72670 72260
L72670 72310
" />
<path d="M72670 71950
L72700 71970
L72670 72000
L72640 71970
L72670 71950
L72670 72000
" />
<path d="M73820 71690
L73320 72450
" />
</g>
<g style="fill:#840000; fill-opacity:0.0; 
stroke:#840000; stroke-width:100; stroke-opacity:1; 
stroke-linecap:round; stroke-linejoin:round;">
</g>
<g style="fill:#840000; fill-opacity:0.0; 
stroke:#840000; stroke-width:120; stroke-opacity:1; 
stroke-linecap:round; stroke-linejoin:round;">
<path d="M70140 70540
L70330 71130
L70530 70540
" />
<path d="M70730 71130
L70730 70540
" />
<path d="M71010 71130
L71010 70540
L71240 70540
L71290 70570
L71320 70600
L71350 70650
L71350 70740
L71320 70790
L71290 70820
L71240 70850
L71010 70850
" />
<path d="M71600 70820
L71800 70820
" />
<path d="M71880 71130
L71600 71130
L71600 70540
L71880 70540
" />
<path d="M72470 71130
L72270 70850
" />
<path d="M72130 71130
L72130 70540
L72360 70540
L72410 70570
L72440 70600
L72470 70650
L72470 70740
L72440 70790
L72410 70820
L72360 70850
L72130 70850
" />
</g>
<g style="fill:#840000; fill-opacity:0.0; 
stroke:#840000; stroke-width:100; stroke-opacity:1; 
stroke-linecap:round; stroke-linejoin:round;">
</g>
<g style="fill:#840000; fill-opacity:0.0; 
stroke:#840000; stroke-width:60; stroke-opacity:1; 
stroke-linecap:round; stroke-linejoin:round;">
<path d="M77560 75400
L77560 76580
" />
</g>
<g style="fill:#840000; fill-opacity:0.0; 
stroke:#840000; stroke-width:100; stroke-opacity:1; 
stroke-linecap:round; stroke-linejoin:round;">
</g>
<g style="fill:#840000; fill-opacity:0.0; 
stroke:#840000; stroke-width:60; stroke-opacity:1; 
stroke-linecap:round; stroke-linejoin:round;">
<path d="M102760 75400
L102760 77960
" />
</g>
<g style="fill:#840000; fill-opacity:0.0; 
stroke:#840000; stroke-width:0; stroke-opacity:1; 
stroke-linecap:round; stroke-linejoin:round;">
</g>
<g style="fill:#840000; fill-opacity:0.0; 
stroke:#840000; stroke-width:60; stroke-opacity:1; 
stroke-linecap:round; stroke-linejoin:round;">
<rect x="35000" y="14500" width="5000" height="5000" rx="0" />
<path d="M35000 15500
L33000 15500
" />
</g>
<g style="fill:#008484; fill-opacity:0.0; 
stroke:#008484; stroke-width:60; stroke-opacity:1; 
stroke-linecap:round; stroke-linejoin:round;">
<path d="M35780 15250
L35730 15230
L35660 15230
L35590 15250
L35540 15300
L35520 15350
L35500 15440
L35500 15510
L35520 15610
L35540 15650
L35590 15700
L35660 15730
L35710 15730
L35780 15700
L35800 15680
L35800 15510
L35710 15510
" />
<path d="M36020 15730
L36020 15230
L36300 15730
L36300 15230
" />
<path d="M36540 15730
L36540 15230
L36660 15230
L36730 15250
L36780 15300
L36800 15350
L36820 15440
L36820 15510
L36800 15610
L36780 15650
L36730 15700
L36660 15730
L36540 15730
" />
</g>
<g style="fill:#840000; fill-opacity:0.0; 
stroke:#840000; stroke-width:60; stroke-opacity:1; 
stroke-linecap:round; stroke-linejoin:round;">
<path d="M34140 15380
L33860 15380
" />
<path d="M34000 15380
L34000 14880
L33950 14950
L33900 15000
L33860 15020
" />
<path d="M35000 16500
L33000 16500
" />
</g>
<g style="fill:#008484; fill-opacity:0.0; 
stroke:#008484; stroke-width:60; stroke-opacity:1; 
stroke-linecap:round; stroke-linejoin:round;">
<path d="M35800 16680
L35780 16700
L35710 16730
L35660 16730
L35590 16700
L35540 16650
L35520 16610
L35500 16510
L35500 16440
L35520 16350
L35540 16300
L35590 16250
L35660 16230
L35710 16230
L35780 16250
L35800 16270
" />
<path d="M36020 16730
L36020 16230
" />
<path d="M36020 16460
L36300 16460
" />
<path d="M36300 16730
L36300 16230
" />
<path d="M36420 16770
L36800 16770
" />
<path d="M36900 16580
L37130 16580
" />
<path d="M36850 16730
L37010 16230
L37180 16730
" />
</g>
<g style="fill:#840000; fill-opacity:0.0; 
stroke:#840000; stroke-width:60; stroke-opacity:1; 
stroke-linecap:round; stroke-linejoin:round;">
<path d="M33860 15920
L33880 15900
L33930 15880
L34050 15880
L34090 15900
L34120 15920
L34140 15970
L34140 16020
L34120 16090
L33830 16380
L34140 16380
" />
<path d="M35000 17500
L33000 17500
" />
</g>
<g style="fill:#008484; fill-opacity:0.0; 
stroke:#008484; stroke-width:60; stroke-opacity:1; 
stroke-linecap:round; stroke-linejoin:round;">
<path d="M35450 17230
L35610 17730
L35780 17230
" />
<path d="M36230 17680
L36210 17700
L36140 17730
L36090 17730
L36020 17700
L35970 17650
L35950 17610
L35930 17510
L35930 17440
L35950 17350
L35970 17300
L36020 17250
L36090 17230
L36140 17230
L36210 17250
L36230 17270
" />
<path d="M36730 17680
L36710 17700
L36640 17730
L36590 17730
L36520 17700
L36470 17650
L36450 17610
L36430 17510
L36430 17440
L36450 17350
L36470 17300
L36520 17250
L36590 17230
L36640 17230
L36710 17250
L36730 17270
" />
</g>
<g style="fill:#840000; fill-opacity:0.0; 
stroke:#840000; stroke-width:60; stroke-opacity:1; 
stroke-linecap:round; stroke-linejoin:round;">
<path d="M33830 16880
L34140 16880
L33970 17070
L34050 17070
L34090 17090
L34120 17110
L34140 17160
L34140 17280
L34120 17330
L34090 17350
L34050 17380
L33900 17380
L33860 17350
L33830 17330
" />
<path d="M35000 18500
L33000 18500
" />
</g>
<g style="fill:#008484; fill-opacity:0.0; 
stroke:#008484; stroke-width:60; stroke-opacity:1; 
stroke-linecap:round; stroke-linejoin:round;">
<path d="M35800 18680
L35780 18700
L35710 18730
L35660 18730
L35590 18700
L35540 18650
L35520 18610
L35500 18510
L35500 18440
L35520 18350
L35540 18300
L35590 18250
L35660 18230
L35710 18230
L35780 18250
L35800 18270
" />
<path d="M36020 18730
L36020 18230
" />
<path d="M36020 18460
L36300 18460
" />
<path d="M36300 18730
L36300 18230
" />
<path d="M36420 18770
L36800 18770
" />
<path d="M37090 18460
L37160 18490
L37180 18510
L37200 18560
L37200 18630
L37180 18680
L37160 18700
L37110 18730
L36920 18730
L36920 18230
L37090 18230
L37130 18250
L37160 18270
L37180 18320
L37180 18370
L37160 18420
L37130 18440
L37090 18460
L36920 18460
" />
</g>
<g style="fill:#840000; fill-opacity:0.0; 
stroke:#840000; stroke-width:60; stroke-opacity:1; 
stroke-linecap:round; stroke-linejoin:round;">
<path d="M34090 18040
L34090 18380
" />
<path d="M33970 17850
L33860 18210
L34160 18210
" />
</g>
<g style="fill:#008484; fill-opacity:0.0; 
stroke:#008484; stroke-width:60; stroke-opacity:1; 
stroke-linecap:round; stroke-linejoin:round;">
<path d="M37090 14000
L37290 14000
" />
<path d="M37380 14310
L37090 14310
L37090 13710
L37380 13710
" />
<path d="M37950 14310
L37600 14310
" />
<path d="M37780 14310
L37780 13710
L37720 13800
L37660 13850
L37600 13880
" />
<path d="M33810 20310
L33810 19710
" />
<path d="M33810 20000
L34160 20000
" />
<path d="M34160 20310
L34160 19710
" />
<path d="M34440 20000
L34640 20000
" />
<path d="M34730 20310
L34440 20310
L34440 19710
L34730 19710
" />
<path d="M34980 20310
L34980 19710
L35130 19710
L35210 19740
L35270 19800
L35300 19850
L35330 19970
L35330 20050
L35300 20170
L35270 20230
L35210 20280
L35130 20310
L34980 20310
" />
<path d="M35550 20280
L35640 20310
L35780 20310
L35840 20280
L35870 20250
L35900 20200
L35900 20140
L35870 20080
L35840 20050
L35780 20030
L35670 20000
L35610 19970
L35580 19940
L35550 19880
L35550 19830
L35580 19770
L35610 19740
L35670 19710
L35810 19710
L35900 19740
" />
<path d="M36150 20080
L36610 20080
" />
<path d="M36920 20310
L37040 20310
L37090 20280
L37120 20250
L37180 20170
L37210 20050
L37210 19830
L37180 19770
L37150 19740
L37090 19710
L36980 19710
L36920 19740
L36890 19770
L36860 19830
L36860 19970
L36890 20030
L36920 20050
L36980 20080
L37090 20080
L37150 20050
L37180 20030
L37210 19970
" />
<path d="M37410 19710
L37810 19710
L37550 20310
" />
<path d="M37980 19710
L38350 19710
L38150 19940
L38230 19940
L38290 19970
L38320 20000
L38350 20050
L38350 20200
L38320 20250
L38290 20280
L38230 20310
L38060 20310
L38000 20280
L37980 20250
" />
<path d="M38920 20310
L38570 20310
" />
<path d="M38750 20310
L38750 19710
L38690 19800
L38630 19850
L38570 19880
" />
<path d="M39140 19910
L39570 19910
" />
<path d="M39320 19650
L39140 20430
" />
<path d="M39520 20170
L39090 20170
" />
<path d="M39340 20430
L39520 19650
" />
<path d="M40090 20310
L39740 20310
" />
<path d="M39920 20310
L39920 19710
L39860 19800
L39800 19850
L39740 19880
" />
<path d="M40630 19710
L40340 19710
L40310 20000
L40340 19970
L40400 19940
L40540 19940
L40600 19970
L40630 20000
L40660 20050
L40660 20200
L40630 20250
L40600 20280
L40540 20310
L40400 20310
L40340 20280
L40310 20250
" />
<path d="M40860 19710
L41260 20310
" />
<path d="M41260 19710
L40860 20310
" />
</g>
<g style="fill:#008484; fill-opacity:0.0; 
stroke:#008484; stroke-width:0; stroke-opacity:1; 
stroke-linecap:round; stroke-linejoin:round;">
</g>
<g style="fill:#840000; fill-opacity:0.0; 
stroke:#840000; stroke-width:0; stroke-opacity:1; 
stroke-linecap:round; stroke-linejoin:round;">
</g>
<g style="fill:#840000; fill-opacity:0.0; 
stroke:#840000; stroke-width:60; stroke-opacity:1; 
stroke-linecap:round; stroke-linejoin:round;">
<rect x="14950" y="23500" width="100" height="500" rx="0" />
<rect x="13950" y="23500" width="100" height="500" rx="0" />
<rect x="12950" y="23500" width="100" height="500" rx="0" />
<rect x="12500" y="22000" width="3000" height="2000" rx="0" />
<rect x="14950" y="22000" width="100" height="500" rx="0" />
<rect x="13950" y="22000" width="100" height="500" rx="0" />
<rect x="12950" y="22000" width="100" height="500" rx="0" />
<path d="M13000 24000
L13000 25500
" />
<path d="M12880 24610
L12880 24890
" />
<path d="M12880 24750
L12380 24750
L12450 24800
L12500 24850
L12520 24890
" />
<path d="M13000 22000
L13000 20500
" />
<path d="M12420 21390
L12400 21370
L12380 21320
L12380 21200
L12400 21160
L12420 21130
L12470 21110
L12520 21110
L12590 21130
L12880 21420
L12880 21110
" />
<path d="M14000 24000
L14000 25500
" />
<path d="M13380 24920
L13380 24610
L13570 24780
L13570 24700
L13590 24660
L13610 24630
L13660 24610
L13780 24610
L13830 24630
L13850 24660
L13880 24700
L13880 24850
L13850 24890
L13830 24920
" />
<path d="M14000 22000
L14000 20500
" />
<path d="M13540 21160
L13880 21160
" />
<path d="M13350 21280
L13710 21390
L13710 21090
" />
<path d="M15000 24000
L15000 25500
" />
<path d="M14380 24630
L14380 24870
L14610 24890
L14590 24870
L14570 24820
L14570 24700
L14590 24660
L14610 24630
L14660 24610
L14780 24610
L14830 24630
L14850 24660
L14880 24700
L14880 24820
L14850 24870
L14830 24890
" />
<path d="M15000 22000
L15000 20500
" />
<path d="M14380 21160
L14380 21250
L14400 21300
L14420 21320
L14500 21370
L14590 21390
L14780 21390
L14830 21370
L14850 21350
L14880 21300
L14880 21200
L14850 21160
L14830 21130
L14780 21110
L14660 21110
L14610 21130
L14590 21160
L14570 21200
L14570 21300
L14590 21350
L14610 21370
L14660 21390
" />
</g>
<g style="fill:#008484; fill-opacity:0.0; 
stroke:#008484; stroke-width:60; stroke-opacity:1; 
stroke-linecap:round; stroke-linejoin:round;">
<path d="M11760 23170
L12110 23170
L12180 23190
L12230 23240
L12260 23310
L12260 23360
" />
<path d="M12260 22670
L12260 22950
" />
<path d="M12260 22810
L11760 22810
L11830 22860
L11880 22910
L11900 22950
" />
<path d="M16210 25020
L16230 25040
L16260 25110
L16260 25160
L16230 25230
L16180 25280
L16140 25300
L16040 25320
L15970 25320
L15880 25300
L15830 25280
L15780 25230
L15760 25160
L15760 25110
L15780 25040
L15800 25020
" />
<path d="M15760 24710
L15760 24610
L15780 24560
L15830 24520
L15920 24490
L16090 24490
L16180 24520
L16230 24560
L16260 24610
L16260 24710
L16230 24750
L16180 24800
L16090 24820
L15920 24820
L15830 24800
L15780 24750
L15760 24710
" />
<path d="M16260 24280
L15760 24280
L16260 24000
L15760 24000
" />
<path d="M16260 23760
L15760 23760
L16260 23480
L15760 23480
" />
<path d="M16300 23360
L16300 22980
" />
<path d="M15760 22770
L15760 22720
L15780 22670
L15800 22650
L15850 22620
L15950 22600
L16070 22600
L16160 22620
L16210 22650
L16230 22670
L16260 22720
L16260 22770
L16230 22810
L16210 22840
L16160 22860
L16070 22880
L15950 22880
L15850 22860
L15800 22840
L15780 22810
L15760 22770
" />
<path d="M15800 22400
L15780 22380
L15760 22330
L15760 22210
L15780 22170
L15800 22140
L15850 22120
L15900 22120
L15970 22140
L16260 22430
L16260 22120
" />
<path d="M15760 21950
L16260 21620
" />
<path d="M15760 21620
L16260 21950
" />
<path d="M15760 21330
L15760 21280
L15780 21230
L15800 21210
L15850 21180
L15950 21160
L16070 21160
L16160 21180
L16210 21210
L16230 21230
L16260 21280
L16260 21330
L16230 21370
L16210 21400
L16160 21420
L16070 21440
L15950 21440
L15850 21420
L15800 21400
L15780 21370
L15760 21330
" />
<path d="M15760 20990
L15760 20680
L15950 20850
L15950 20770
L15970 20730
L15990 20700
L16040 20680
L16160 20680
L16210 20700
L16230 20730
L16260 20770
L16260 20920
L16230 20960
L16210 20990
" />
</g>
<g style="fill:#008484; fill-opacity:0.0; 
stroke:#008484; stroke-width:0; stroke-opacity:1; 
stroke-linecap:round; stroke-linejoin:round;">
</g>
<g style="fill:#840000; fill-opacity:0.0; 
stroke:#840000; stroke-width:0; stroke-opacity:1; 
stroke-linecap:round; stroke-linejoin:round;">
</g>
<g style="fill:#840000; fill-opacity:0.0; 
stroke:#840000; stroke-width:60; stroke-opacity:1; 
stroke-linecap:round; stroke-linejoin:round;">
<rect x="19500" y="14500" width="6500" height="5000" rx="0" />
<path d="M26000 18500
L28000 18500
" />
</g>
<g style="fill:#008484; fill-opacity:0.0; 
stroke:#008484; stroke-width:60; stroke-opacity:1; 
stroke-linecap:round; stroke-linejoin:round;">
<path d="M24220 18230
L24380 18730
L24550 18230
" />
<path d="M25000 18680
L24980 18700
L24910 18730
L24860 18730
L24790 18700
L24740 18650
L24720 18610
L24700 18510
L24700 18440
L24720 18350
L24740 18300
L24790 18250
L24860 18230
L24910 18230
L24980 18250
L25000 18270
" />
<path d="M25500 18680
L25480 18700
L25410 18730
L25360 18730
L25290 18700
L25240 18650
L25220 18610
L25200 18510
L25200 18440
L25220 18350
L25240 18300
L25290 18250
L25360 18230
L25410 18230
L25480 18250
L25500 18270
" />
</g>
<g style="fill:#840000; fill-opacity:0.0; 
stroke:#840000; stroke-width:60; stroke-opacity:1; 
stroke-linecap:round; stroke-linejoin:round;">
<path d="M27140 18380
L26860 18380
" />
<path d="M27000 18380
L27000 17880
L26950 17950
L26900 18000
L26860 18020
" />
<path d="M26000 17500
L28000 17500
" />
</g>
<g style="fill:#008484; fill-opacity:0.0; 
stroke:#008484; stroke-width:60; stroke-opacity:1; 
stroke-linecap:round; stroke-linejoin:round;">
<path d="M24150 17730
L24150 17230
" />
<path d="M24390 17730
L24390 17230
L24670 17730
L24670 17230
" />
<path d="M24790 17770
L25170 17770
" />
<path d="M25270 17580
L25500 17580
" />
<path d="M25220 17730
L25380 17230
L25550 17730
" />
</g>
<g style="fill:#840000; fill-opacity:0.0; 
stroke:#840000; stroke-width:60; stroke-opacity:1; 
stroke-linecap:round; stroke-linejoin:round;">
<path d="M26860 16920
L26880 16900
L26930 16880
L27050 16880
L27090 16900
L27120 16920
L27140 16970
L27140 17020
L27120 17090
L26830 17380
L27140 17380
" />
<path d="M26000 16500
L28000 16500
" />
</g>
<g style="fill:#008484; fill-opacity:0.0; 
stroke:#008484; stroke-width:60; stroke-opacity:1; 
stroke-linecap:round; stroke-linejoin:round;">
<path d="M24080 16730
L24080 16230
" />
<path d="M24320 16730
L24320 16230
L24600 16730
L24600 16230
" />
<path d="M24720 16770
L25100 16770
" />
<path d="M25390 16460
L25460 16490
L25480 16510
L25500 16560
L25500 16630
L25480 16680
L25460 16700
L25410 16730
L25220 16730
L25220 16230
L25390 16230
L25430 16250
L25460 16270
L25480 16320
L25480 16370
L25460 16420
L25430 16440
L25390 16460
L25220 16460
" />
</g>
<g style="fill:#840000; fill-opacity:0.0; 
stroke:#840000; stroke-width:60; stroke-opacity:1; 
stroke-linecap:round; stroke-linejoin:round;">
<path d="M26830 15880
L27140 15880
L26970 16070
L27050 16070
L27090 16090
L27120 16110
L27140 16160
L27140 16280
L27120 16330
L27090 16350
L27050 16380
L26900 16380
L26860 16350
L26830 16330
" />
<path d="M26000 15500
L28000 15500
" />
</g>
<g style="fill:#008484; fill-opacity:0.0; 
stroke:#008484; stroke-width:60; stroke-opacity:1; 
stroke-linecap:round; stroke-linejoin:round;">
<path d="M24460 15250
L24410 15230
L24340 15230
L24270 15250
L24220 15300
L24200 15350
L24180 15440
L24180 15510
L24200 15610
L24220 15650
L24270 15700
L24340 15730
L24390 15730
L24460 15700
L24480 15680
L24480 15510
L24390 15510
" />
<path d="M24700 15730
L24700 15230
L24980 15730
L24980 15230
" />
<path d="M25220 15730
L25220 15230
L25340 15230
L25410 15250
L25460 15300
L25480 15350
L25500 15440
L25500 15510
L25480 15610
L25460 15650
L25410 15700
L25340 15730
L25220 15730
" />
</g>
<g style="fill:#840000; fill-opacity:0.0; 
stroke:#840000; stroke-width:60; stroke-opacity:1; 
stroke-linecap:round; stroke-linejoin:round;">
<path d="M27090 15040
L27090 15380
" />
<path d="M26970 14850
L26860 15210
L27160 15210
" />
<path d="M19500 15500
L17500 15500
" />
</g>
<g style="fill:#008484; fill-opacity:0.0; 
stroke:#008484; stroke-width:60; stroke-opacity:1; 
stroke-linecap:round; stroke-linejoin:round;">
<path d="M20110 15230
L20210 15230
L20260 15250
L20300 15300
L20330 15390
L20330 15560
L20300 15650
L20260 15700
L20210 15730
L20110 15730
L20070 15700
L20020 15650
L20000 15560
L20000 15390
L20020 15300
L20070 15250
L20110 15230
" />
<path d="M20540 15230
L20540 15630
L20560 15680
L20590 15700
L20630 15730
L20730 15730
L20780 15700
L20800 15680
L20820 15630
L20820 15230
" />
<path d="M20990 15230
L21270 15230
" />
<path d="M21130 15730
L21130 15230
" />
<path d="M21320 15770
L21700 15770
" />
<path d="M21990 15460
L22060 15490
L22080 15510
L22100 15560
L22100 15630
L22080 15680
L22060 15700
L22010 15730
L21820 15730
L21820 15230
L21990 15230
L22030 15250
L22060 15270
L22080 15320
L22080 15370
L22060 15420
L22030 15440
L21990 15460
L21820 15460
" />
<path d="M22390 15230
L22390 15350
" />
<path d="M22270 15300
L22390 15350
L22510 15300
" />
<path d="M22320 15440
L22390 15350
L22460 15440
" />
</g>
<g style="fill:#840000; fill-opacity:0.0; 
stroke:#840000; stroke-width:60; stroke-opacity:1; 
stroke-linecap:round; stroke-linejoin:round;">
<path d="M18620 14880
L18380 14880
L18360 15110
L18380 15090
L18430 15070
L18550 15070
L18590 15090
L18620 15110
L18640 15160
L18640 15280
L18620 15330
L18590 15350
L18550 15380
L18430 15380
L18380 15350
L18360 15330
" />
<path d="M19500 16500
L17500 16500
" />
</g>
<g style="fill:#008484; fill-opacity:0.0; 
stroke:#008484; stroke-width:60; stroke-opacity:1; 
stroke-linecap:round; stroke-linejoin:round;">
<path d="M20110 16230
L20210 16230
L20260 16250
L20300 16300
L20330 16390
L20330 16560
L20300 16650
L20260 16700
L20210 16730
L20110 16730
L20070 16700
L20020 16650
L20000 16560
L20000 16390
L20020 16300
L20070 16250
L20110 16230
" />
<path d="M20540 16230
L20540 16630
L20560 16680
L20590 16700
L20630 16730
L20730 16730
L20780 16700
L20800 16680
L20820 16630
L20820 16230
" />
<path d="M20990 16230
L21270 16230
" />
<path d="M21130 16730
L21130 16230
" />
<path d="M21320 16770
L21700 16770
" />
<path d="M21990 16460
L22060 16490
L22080 16510
L22100 16560
L22100 16630
L22080 16680
L22060 16700
L22010 16730
L21820 16730
L21820 16230
L21990 16230
L22030 16250
L22060 16270
L22080 16320
L22080 16370
L22060 16420
L22030 16440
L21990 16460
L21820 16460
" />
</g>
<g style="fill:#840000; fill-opacity:0.0; 
stroke:#840000; stroke-width:60; stroke-opacity:1; 
stroke-linecap:round; stroke-linejoin:round;">
<path d="M18590 15880
L18500 15880
L18450 15900
L18430 15920
L18380 16000
L18360 16090
L18360 16280
L18380 16330
L18400 16350
L18450 16380
L18550 16380
L18590 16350
L18620 16330
L18640 16280
L18640 16160
L18620 16110
L18590 16090
L18550 16070
L18450 16070
L18400 16090
L18380 16110
L18360 16160
" />
<path d="M19500 17500
L17500 17500
" />
</g>
<g style="fill:#008484; fill-opacity:0.0; 
stroke:#008484; stroke-width:60; stroke-opacity:1; 
stroke-linecap:round; stroke-linejoin:round;">
<path d="M20110 17230
L20210 17230
L20260 17250
L20300 17300
L20330 17390
L20330 17560
L20300 17650
L20260 17700
L20210 17730
L20110 17730
L20070 17700
L20020 17650
L20000 17560
L20000 17390
L20020 17300
L20070 17250
L20110 17230
" />
<path d="M20540 17230
L20540 17630
L20560 17680
L20590 17700
L20630 17730
L20730 17730
L20780 17700
L20800 17680
L20820 17630
L20820 17230
" />
<path d="M20990 17230
L21270 17230
" />
<path d="M21130 17730
L21130 17230
" />
<path d="M21320 17770
L21700 17770
" />
<path d="M21800 17580
L22030 17580
" />
<path d="M21750 17730
L21910 17230
L22080 17730
" />
<path d="M22320 17230
L22320 17350
" />
<path d="M22200 17300
L22320 17350
L22440 17300
" />
<path d="M22250 17440
L22320 17350
L22390 17440
" />
</g>
<g style="fill:#840000; fill-opacity:0.0; 
stroke:#840000; stroke-width:60; stroke-opacity:1; 
stroke-linecap:round; stroke-linejoin:round;">
<path d="M18330 16880
L18660 16880
L18450 17380
" />
<path d="M19500 18500
L17500 18500
" />
</g>
<g style="fill:#008484; fill-opacity:0.0; 
stroke:#008484; stroke-width:60; stroke-opacity:1; 
stroke-linecap:round; stroke-linejoin:round;">
<path d="M20110 18230
L20210 18230
L20260 18250
L20300 18300
L20330 18390
L20330 18560
L20300 18650
L20260 18700
L20210 18730
L20110 18730
L20070 18700
L20020 18650
L20000 18560
L20000 18390
L20020 18300
L20070 18250
L20110 18230
" />
<path d="M20540 18230
L20540 18630
L20560 18680
L20590 18700
L20630 18730
L20730 18730
L20780 18700
L20800 18680
L20820 18630
L20820 18230
" />
<path d="M20990 18230
L21270 18230
" />
<path d="M21130 18730
L21130 18230
" />
<path d="M21320 18770
L21700 18770
" />
<path d="M21800 18580
L22030 18580
" />
<path d="M21750 18730
L21910 18230
L22080 18730
" />
</g>
<g style="fill:#840000; fill-opacity:0.0; 
stroke:#840000; stroke-width:60; stroke-opacity:1; 
stroke-linecap:round; stroke-linejoin:round;">
<path d="M18450 18090
L18400 18070
L18380 18040
L18360 18000
L18360 17970
L18380 17920
L18400 17900
L18450 17880
L18550 17880
L18590 17900
L18620 17920
L18640 17970
L18640 18000
L18620 18040
L18590 18070
L18550 18090
L18450 18090
L18400 18110
L18380 18140
L18360 18190
L18360 18280
L18380 18330
L18400 18350
L18450 18380
L18550 18380
L18590 18350
L18620 18330
L18640 18280
L18640 18190
L18620 18140
L18590 18110
L18550 18090
" />
</g>
<g style="fill:#008484; fill-opacity:0.0; 
stroke:#008484; stroke-width:60; stroke-opacity:1; 
stroke-linecap:round; stroke-linejoin:round;">
<path d="M22540 19630
L22540 20120
L22570 20170
L22600 20200
L22660 20230
L22770 20230
L22830 20200
L22860 20170
L22890 20120
L22890 19630
" />
<path d="M23490 20230
L23140 20230
" />
<path d="M23320 20230
L23320 19630
L23260 19720
L23200 19770
L23140 19800
" />
<path d="M21410 14230
L21410 13630
L21560 13630
L21640 13660
L21700 13720
L21730 13770
L21760 13890
L21760 13970
L21730 14090
L21700 14150
L21640 14200
L21560 14230
L21410 14230
" />
<path d="M21980 14200
L22070 14230
L22210 14230
L22270 14200
L22300 14170
L22330 14120
L22330 14060
L22300 14000
L22270 13970
L22210 13950
L22100 13920
L22040 13890
L22010 13860
L21980 13800
L21980 13750
L22010 13690
L22040 13660
L22100 13630
L22240 13630
L22330 13660
" />
<path d="M22610 14230
L22730 14230
L22780 14200
L22810 14170
L22870 14090
L22900 13970
L22900 13750
L22870 13690
L22840 13660
L22780 13630
L22670 13630
L22610 13660
L22580 13690
L22550 13750
L22550 13890
L22580 13950
L22610 13970
L22670 14000
L22780 14000
L22840 13970
L22870 13950
L22900 13890
" />
<path d="M23410 13630
L23300 13630
L23240 13660
L23210 13690
L23150 13770
L23120 13890
L23120 14120
L23150 14170
L23180 14200
L23240 14230
L23350 14230
L23410 14200
L23440 14170
L23470 14120
L23470 13970
L23440 13920
L23410 13890
L23350 13860
L23240 13860
L23180 13890
L23150 13920
L23120 13970
" />
<path d="M23670 13630
L24040 13630
L23840 13860
L23920 13860
L23980 13890
L24010 13920
L24040 13970
L24040 14120
L24010 14170
L23980 14200
L23920 14230
L23750 14230
L23690 14200
L23670 14170
" />
<path d="M24380 13890
L24320 13860
L24290 13830
L24260 13770
L24260 13750
L24290 13690
L24320 13660
L24380 13630
L24490 13630
L24550 13660
L24580 13690
L24610 13750
L24610 13770
L24580 13830
L24550 13860
L24490 13890
L24380 13890
L24320 13920
L24290 13950
L24260 14000
L24260 14120
L24290 14170
L24320 14200
L24380 14230
L24490 14230
L24550 14200
L24580 14170
L24610 14120
L24610 14000
L24580 13950
L24550 13920
L24490 13890
" />
</g>
<g style="fill:#008400; fill-opacity:0.0; 
stroke:#008400; stroke-width:60; stroke-opacity:1; 
stroke-linecap:round; stroke-linejoin:round;">
<path d="M28000 15500
L33000 15500
" />
<path d="M28000 18500
L30500 18500
" />
<path d="M30500 18500
L30500 17500
" />
<path d="M30500 17500
L33000 17500
" />
<path d="M33000 18500
L32000 18500
" />
<path d="M32000 18500
L32000 18000
" />
<path d="M32000 18000
L29000 18000
" />
<path d="M29500 13000
L29500 15500
" />
</g>
<g style="fill:#008400; fill-opacity:0.0; 
stroke:#008400; stroke-width:0; stroke-opacity:1; 
stroke-linecap:round; stroke-linejoin:round;">
</g>
<g style="fill:#008400; fill-opacity:1.0; 
stroke:#008400; stroke-width:100; stroke-opacity:1; 
stroke-linecap:round; stroke-linejoin:round;">
<circle cx="29500" cy="15500" r="200" /> 
</g>
<g style="fill:#008400; fill-opacity:1.0; 
stroke:#008400; stroke-width:0; stroke-opacity:1; 
stroke-linecap:round; stroke-linejoin:round;">
</g>
<g style="fill:#840000; fill-opacity:1.0; 
stroke:#840000; stroke-width:0; stroke-opacity:1; 
stroke-linecap:round; stroke-linejoin:round;">
</g>
<g style="fill:#840000; fill-opacity:0.0; 
stroke:#840000; stroke-width:200; stroke-opacity:1; 
stroke-linecap:round; stroke-linejoin:round;">
<polyline fill="none;"
points="18700,29800
20300,29800
" /> 
<polyline fill="none;"
points="18700,29200
20300,29200
" /> 
</g>
<g style="fill:#840000; fill-opacity:0.0; 
stroke:#840000; stroke-width:60; stroke-opacity:1; 
stroke-linecap:round; stroke-linejoin:round;">
<path d="M19500 29100
L19500 28000
" />
<path d="M19500 29900
L19500 31000
" />
</g>
<g style="fill:#008484; fill-opacity:0.0; 
stroke:#008484; stroke-width:60; stroke-opacity:1; 
stroke-linecap:round; stroke-linejoin:round;">
<path d="M20150 28710
L20130 28730
L20060 28760
L20010 28760
L19940 28730
L19890 28680
L19870 28640
L19850 28540
L19850 28470
L19870 28380
L19890 28330
L19940 28280
L20010 28260
L20060 28260
L20130 28280
L20150 28300
" />
<path d="M20630 28760
L20350 28760
" />
<path d="M20490 28760
L20490 28260
L20440 28330
L20390 28380
L20350 28400
" />
<path d="M20130 30760
L19850 30760
" />
<path d="M19990 30760
L19990 30260
L19940 30330
L19890 30380
L19850 30400
" />
<path d="M20440 30260
L20490 30260
L20540 30280
L20560 30300
L20590 30350
L20610 30450
L20610 30570
L20590 30660
L20560 30710
L20540 30730
L20490 30760
L20440 30760
L20400 30730
L20370 30710
L20350 30660
L20330 30570
L20330 30450
L20350 30350
L20370 30300
L20400 30280
L20440 30260
" />
<path d="M20920 30260
L20970 30260
L21020 30280
L21040 30300
L21070 30350
L21090 30450
L21090 30570
L21070 30660
L21040 30710
L21020 30730
L20970 30760
L20920 30760
L20880 30730
L20850 30710
L20830 30660
L20810 30570
L20810 30450
L20830 30350
L20850 30300
L20880 30280
L20920 30260
" />
<path d="M21310 30420
L21310 30760
" />
<path d="M21310 30470
L21330 30450
L21380 30420
L21450 30420
L21500 30450
L21520 30490
L21520 30760
" />
<path d="M21930 30490
L21760 30490
" />
<path d="M21760 30760
L21760 30260
L22000 30260
" />
</g>
<g style="fill:#000000; fill-opacity:0.0; 
stroke:#000000; stroke-width:60; stroke-opacity:1; 
stroke-linecap:round; stroke-linejoin:round;">
<path d="M25960 30800
L25900 30770
L25810 30770
L25730 30800
L25670 30860
L25640 30910
L25610 31030
L25610 31110
L25640 31230
L25670 31290
L25730 31340
L25810 31370
L25870 31370
L25960 31340
L25990 31310
L25990 31110
L25870 31110
" />
<path d="M26240 31370
L26240 30770
L26590 31370
L26590 30770
" />
<path d="M26870 31370
L26870 30770
L27020 30770
L27100 30800
L27160 30860
L27190 30910
L27220 31030
L27220 31110
L27190 31230
L27160 31290
L27100 31340
L27020 31370
L26870 31370
" />
<path d="M25560 26770
L25760 27370
L25960 26770
" />
<path d="M26500 27310
L26470 27340
L26380 27370
L26320 27370
L26240 27340
L26180 27290
L26150 27230
L26120 27110
L26120 27030
L26150 26910
L26180 26860
L26240 26800
L26320 26770
L26380 26770
L26470 26800
L26500 26830
" />
<path d="M27100 27310
L27070 27340
L26980 27370
L26920 27370
L26840 27340
L26780 27290
L26750 27230
L26720 27110
L26720 27030
L26750 26910
L26780 26860
L26840 26800
L26920 26770
L26980 26770
L27070 26800
L27100 26830
" />
</g>
<g style="fill:#008400; fill-opacity:0.0; 
stroke:#008400; stroke-width:60; stroke-opacity:1; 
stroke-linecap:round; stroke-linejoin:round;">
<path d="M28000 16500
L33000 16500
" />
<path d="M14000 17500
L17500 17500
" />
<path d="M17500 18500
L13000 18500
" />
<path d="M13000 18500
L13000 20500
" />
<path d="M14000 17500
L14000 20500
" />
<path d="M17500 16500
L15000 16500
" />
<path d="M15000 16500
L15000 20500
" />
<path d="M17500 15500
L17000 15500
" />
<path d="M17000 15500
L17000 26500
" />
<path d="M17000 26500
L15000 26500
" />
<path d="M15000 26500
L15000 25500
" />
<path d="M29500 27500
L29500 18500
" />
<path d="M13000 27500
L29500 27500
" />
</g>
<g style="fill:#008400; fill-opacity:0.0; 
stroke:#008400; stroke-width:0; stroke-opacity:1; 
stroke-linecap:round; stroke-linejoin:round;">
</g>
<g style="fill:#008400; fill-opacity:1.0; 
stroke:#008400; stroke-width:100; stroke-opacity:1; 
stroke-linecap:round; stroke-linejoin:round;">
<circle cx="29500" cy="18500" r="200" /> 
</g>
<g style="fill:#008400; fill-opacity:1.0; 
stroke:#008400; stroke-width:60; stroke-opacity:1; 
stroke-linecap:round; stroke-linejoin:round;">
</g>
<g style="fill:#008400; fill-opacity:0.0; 
stroke:#008400; stroke-width:60; stroke-opacity:1; 
stroke-linecap:round; stroke-linejoin:round;">
<path d="M19500 28000
L19500 27500
" />
</g>
<g style="fill:#008400; fill-opacity:0.0; 
stroke:#008400; stroke-width:0; stroke-opacity:1; 
stroke-linecap:round; stroke-linejoin:round;">
</g>
<g style="fill:#008400; fill-opacity:1.0; 
stroke:#008400; stroke-width:100; stroke-opacity:1; 
stroke-linecap:round; stroke-linejoin:round;">
<circle cx="19500" cy="27500" r="200" /> 
</g>
<g style="fill:#008400; fill-opacity:1.0; 
stroke:#008400; stroke-width:60; stroke-opacity:1; 
stroke-linecap:round; stroke-linejoin:round;">
</g>
<g style="fill:#008400; fill-opacity:0.0; 
stroke:#008400; stroke-width:60; stroke-opacity:1; 
stroke-linecap:round; stroke-linejoin:round;">
<path d="M19500 31000
L19500 31500
" />
<path d="M14000 31500
L42000 31500
" />
<path d="M42000 31500
L42000 13000
" />
<path d="M13000 25500
L13000 27500
" />
<path d="M14000 25500
L14000 31500
" />
</g>
<g style="fill:#008400; fill-opacity:0.0; 
stroke:#008400; stroke-width:0; stroke-opacity:1; 
stroke-linecap:round; stroke-linejoin:round;">
</g>
<g style="fill:#008400; fill-opacity:1.0; 
stroke:#008400; stroke-width:100; stroke-opacity:1; 
stroke-linecap:round; stroke-linejoin:round;">
<circle cx="19500" cy="31500" r="200" /> 
</g>
<g style="fill:#008400; fill-opacity:1.0; 
stroke:#008400; stroke-width:60; stroke-opacity:1; 
stroke-linecap:round; stroke-linejoin:round;">
</g>
<g style="fill:#008400; fill-opacity:0.0; 
stroke:#008400; stroke-width:60; stroke-opacity:1; 
stroke-linecap:round; stroke-linejoin:round;">
<path d="M42000 13000
L29500 13000
" />
<path d="M29000 18000
L29000 17500
" />
<path d="M29000 17500
L28000 17500
" />
</g>
<g style="fill:#000000; fill-opacity:0.0; 
stroke:#000000; stroke-width:60; stroke-opacity:1; 
stroke-linecap:round; stroke-linejoin:round;">
<path d="M13700 20390
L13700 20100
" />
<path d="M13870 20440
L13270 20240
L13870 20040
" />
<path d="M13270 19760
L13410 19760
" />
<path d="M13360 19900
L13410 19760
L13360 19620
" />
<path d="M13530 19850
L13410 19760
L13530 19680
" />
<path d="M12700 20390
L12700 20100
" />
<path d="M12870 20440
L12270 20240
L12870 20040
" />
<path d="M14560 20160
L14590 20070
L14610 20040
L14670 20010
L14760 20010
L14810 20040
L14840 20070
L14870 20130
L14870 20360
L14270 20360
L14270 20160
L14300 20100
L14330 20070
L14390 20040
L14440 20040
L14500 20070
L14530 20100
L14560 20160
L14560 20360
" />
<path d="M16560 20160
L16590 20070
L16610 20040
L16670 20010
L16760 20010
L16810 20040
L16840 20070
L16870 20130
L16870 20360
L16270 20360
L16270 20160
L16300 20100
L16330 20070
L16390 20040
L16440 20040
L16500 20070
L16530 20100
L16560 20160
L16560 20360
" />
<path d="M16270 19670
L16410 19670
" />
<path d="M16360 19810
L16410 19670
L16360 19530
" />
<path d="M16530 19760
L16410 19670
L16530 19590
" />
</g>
<g style="fill:#000000; fill-opacity:0.0; 
stroke:#000000; stroke-width:0; stroke-opacity:1; 
stroke-linecap:round; stroke-linejoin:round;">
</g>
<g style="fill:#840000; fill-opacity:0.0; 
stroke:#840000; stroke-width:0; stroke-opacity:1; 
stroke-linecap:round; stroke-linejoin:round;">
</g>
<g style="fill:#840000; fill-opacity:0.0; 
stroke:#840000; stroke-width:100; stroke-opacity:1; 
stroke-linecap:round; stroke-linejoin:round;">
<rect x="33100" y="27000" width="800" height="2000" rx="0" />
</g>
<g style="fill:#840000; fill-opacity:0.0; 
stroke:#840000; stroke-width:60; stroke-opacity:1; 
stroke-linecap:round; stroke-linejoin:round;">
<path d="M33500 27000
L33500 26500
" />
<path d="M33500 29000
L33500 29500
" />
</g>
<g style="fill:#008484; fill-opacity:0.0; 
stroke:#008484; stroke-width:60; stroke-opacity:1; 
stroke-linecap:round; stroke-linejoin:round;">
<path d="M34560 28090
L34320 28250
" />
<path d="M34560 28370
L34060 28370
L34060 28180
L34080 28130
L34100 28110
L34150 28090
L34220 28090
L34270 28110
L34290 28130
L34320 28180
L34320 28370
" />
<path d="M34560 27610
L34560 27890
" />
<path d="M34560 27750
L34060 27750
L34130 27800
L34180 27850
L34200 27890
" />
<path d="M33760 28770
L33260 28770
" />
<path d="M33490 28770
L33490 28490
" />
<path d="M33760 28490
L33260 28490
" />
<path d="M33490 28250
L33490 28080
" />
<path d="M33760 28010
L33760 28250
L33260 28250
L33260 28010
" />
<path d="M33610 27820
L33610 27590
" />
<path d="M33760 27870
L33260 27710
L33760 27540
" />
<path d="M33260 27440
L33260 27160
" />
<path d="M33760 27300
L33260 27300
" />
</g>
<g style="fill:#008484; fill-opacity:0.0; 
stroke:#008484; stroke-width:0; stroke-opacity:1; 
stroke-linecap:round; stroke-linejoin:round;">
</g>
<g style="fill:#840000; fill-opacity:0.0; 
stroke:#840000; stroke-width:0; stroke-opacity:1; 
stroke-linecap:round; stroke-linejoin:round;">
</g>
<g style="fill:#840000; fill-opacity:0.0; 
stroke:#840000; stroke-width:100; stroke-opacity:1; 
stroke-linecap:round; stroke-linejoin:round;">
<rect x="35100" y="27000" width="800" height="2000" rx="0" />
</g>
<g style="fill:#840000; fill-opacity:0.0; 
stroke:#840000; stroke-width:60; stroke-opacity:1; 
stroke-linecap:round; stroke-linejoin:round;">
<path d="M35500 27000
L35500 26500
" />
<path d="M35500 29000
L35500 29500
" />
</g>
<g style="fill:#008484; fill-opacity:0.0; 
stroke:#008484; stroke-width:60; stroke-opacity:1; 
stroke-linecap:round; stroke-linejoin:round;">
<path d="M36560 28090
L36320 28250
" />
<path d="M36560 28370
L36060 28370
L36060 28180
L36080 28130
L36100 28110
L36150 28090
L36220 28090
L36270 28110
L36290 28130
L36320 28180
L36320 28370
" />
<path d="M36100 27890
L36080 27870
L36060 27820
L36060 27700
L36080 27660
L36100 27630
L36150 27610
L36200 27610
L36270 27630
L36560 27920
L36560 27610
" />
<path d="M35760 28770
L35260 28770
" />
<path d="M35490 28770
L35490 28490
" />
<path d="M35760 28490
L35260 28490
" />
<path d="M35490 28250
L35490 28080
" />
<path d="M35760 28010
L35760 28250
L35260 28250
L35260 28010
" />
<path d="M35610 27820
L35610 27590
" />
<path d="M35760 27870
L35260 27710
L35760 27540
" />
<path d="M35260 27440
L35260 27160
" />
<path d="M35760 27300
L35260 27300
" />
</g>
<g style="fill:#008400; fill-opacity:0.0; 
stroke:#008400; stroke-width:60; stroke-opacity:1; 
stroke-linecap:round; stroke-linejoin:round;">
<path d="M33500 29500
L33500 31500
" />
</g>
<g style="fill:#008400; fill-opacity:0.0; 
stroke:#008400; stroke-width:0; stroke-opacity:1; 
stroke-linecap:round; stroke-linejoin:round;">
</g>
<g style="fill:#008400; fill-opacity:1.0; 
stroke:#008400; stroke-width:100; stroke-opacity:1; 
stroke-linecap:round; stroke-linejoin:round;">
<circle cx="33500" cy="31500" r="200" /> 
</g>
<g style="fill:#008400; fill-opacity:1.0; 
stroke:#008400; stroke-width:60; stroke-opacity:1; 
stroke-linecap:round; stroke-linejoin:round;">
</g>
<g style="fill:#008400; fill-opacity:0.0; 
stroke:#008400; stroke-width:60; stroke-opacity:1; 
stroke-linecap:round; stroke-linejoin:round;">
<path d="M35500 29500
L35500 31500
" />
</g>
<g style="fill:#008400; fill-opacity:0.0; 
stroke:#008400; stroke-width:0; stroke-opacity:1; 
stroke-linecap:round; stroke-linejoin:round;">
</g>
<g style="fill:#008400; fill-opacity:1.0; 
stroke:#008400; stroke-width:100; stroke-opacity:1; 
stroke-linecap:round; stroke-linejoin:round;">
<circle cx="35500" cy="31500" r="200" /> 
</g>
<g style="fill:#008400; fill-opacity:1.0; 
stroke:#008400; stroke-width:60; stroke-opacity:1; 
stroke-linecap:round; stroke-linejoin:round;">
</g>
<g style="fill:#008400; fill-opacity:0.0; 
stroke:#008400; stroke-width:60; stroke-opacity:1; 
stroke-linecap:round; stroke-linejoin:round;">
<path d="M33500 26500
L33500 24500
" />
<path d="M29500 24500
L35500 24500
" />
</g>
<g style="fill:#008400; fill-opacity:0.0; 
stroke:#008400; stroke-width:0; stroke-opacity:1; 
stroke-linecap:round; stroke-linejoin:round;">
</g>
<g style="fill:#008400; fill-opacity:1.0; 
stroke:#008400; stroke-width:100; stroke-opacity:1; 
stroke-linecap:round; stroke-linejoin:round;">
<circle cx="29500" cy="24500" r="200" /> 
</g>
<g style="fill:#008400; fill-opacity:1.0; 
stroke:#008400; stroke-width:60; stroke-opacity:1; 
stroke-linecap:round; stroke-linejoin:round;">
</g>
<g style="fill:#008400; fill-opacity:0.0; 
stroke:#008400; stroke-width:60; stroke-opacity:1; 
stroke-linecap:round; stroke-linejoin:round;">
<path d="M35500 24500
L35500 26500
" />
</g>
<g style="fill:#008400; fill-opacity:0.0; 
stroke:#008400; stroke-width:0; stroke-opacity:1; 
stroke-linecap:round; stroke-linejoin:round;">
</g>
<g style="fill:#008400; fill-opacity:1.0; 
stroke:#008400; stroke-width:100; stroke-opacity:1; 
stroke-linecap:round; stroke-linejoin:round;">
<circle cx="33500" cy="24500" r="200" /> 
</g> 
</svg>
