G04 #@! TF.FileFunction,Soldermask,Bot*
%FSLAX46Y46*%
G04 Gerber Fmt 4.6, Leading zero omitted, Abs format (unit mm)*
G04 Created by KiCad (PCBNEW 4.0.6) date Fri Nov 17 01:31:04 2017*
%MOMM*%
%LPD*%
G01*
G04 APERTURE LIST*
%ADD10C,0.100000*%
%ADD11C,6.500000*%
%ADD12C,4.500000*%
%ADD13C,1.700000*%
%ADD14C,1.200000*%
%ADD15C,4.100000*%
%ADD16C,2.100000*%
%ADD17R,1.800000X1.800000*%
%ADD18O,1.800000X1.800000*%
%ADD19O,1.350000X1.050000*%
%ADD20O,1.100000X1.650000*%
%ADD21C,3.910000*%
%ADD22R,1.620000X1.620000*%
%ADD23C,1.620000*%
G04 APERTURE END LIST*
D10*
D11*
X101613000Y-77480000D03*
X52083000Y-77480000D03*
X52083000Y-35570000D03*
X141618000Y-77480000D03*
X141618000Y-35570000D03*
D12*
X135270000Y-75465000D03*
X73670000Y-75465000D03*
D13*
X137870000Y-48465000D03*
D14*
X71070000Y-48465000D03*
D13*
X56528000Y-52715000D03*
X56528000Y-55255000D03*
D15*
X51448000Y-57795000D03*
X51448000Y-47635000D03*
X61608000Y-47635000D03*
X61608000Y-57795000D03*
D16*
X50178000Y-46365000D03*
X50178000Y-59065000D03*
X62878000Y-59065000D03*
X62878000Y-46365000D03*
D17*
X143269000Y-49921000D03*
D18*
X143269000Y-47381000D03*
X143269000Y-44841000D03*
D19*
X75295000Y-38915000D03*
X70295000Y-38915000D03*
D20*
X76295000Y-36215000D03*
X69295000Y-36215000D03*
D21*
X127245000Y-36740000D03*
X80255000Y-36740000D03*
D22*
X120385000Y-38140000D03*
D23*
X117595000Y-38140000D03*
X114795000Y-38140000D03*
X112125000Y-38140000D03*
X109335000Y-38140000D03*
X106545000Y-38140000D03*
X103745000Y-38140000D03*
X100955000Y-38140000D03*
X98285000Y-38140000D03*
X95495000Y-38140000D03*
X92695000Y-38140000D03*
X89905000Y-38140000D03*
X87115000Y-38140000D03*
X118985000Y-35350000D03*
X116195000Y-35350000D03*
X113395000Y-35350000D03*
X110605000Y-35350000D03*
X107935000Y-35350000D03*
X105145000Y-35350000D03*
X102355000Y-35350000D03*
X99555000Y-35350000D03*
X96765000Y-35350000D03*
X94095000Y-35350000D03*
X91305000Y-35350000D03*
X88505000Y-35350000D03*
M02*
