G04 #@! TF.FileFunction,Copper,L2,Bot,Signal*
%FSLAX46Y46*%
G04 Gerber Fmt 4.6, Leading zero omitted, Abs format (unit mm)*
G04 Created by KiCad (PCBNEW 4.0.6) date Fri Jul 21 15:58:06 2017*
%MOMM*%
%LPD*%
G01*
G04 APERTURE LIST*
%ADD10C,0.100000*%
%ADD11C,3.810000*%
%ADD12R,1.520000X1.520000*%
%ADD13C,1.520000*%
%ADD14O,1.250000X0.950000*%
%ADD15O,1.000000X1.550000*%
%ADD16R,1.700000X1.700000*%
%ADD17O,1.700000X1.700000*%
%ADD18C,1.600000*%
%ADD19C,4.000000*%
%ADD20C,2.000000*%
%ADD21C,4.400000*%
%ADD22C,6.400000*%
%ADD23C,0.600000*%
%ADD24C,0.450000*%
%ADD25C,0.500000*%
%ADD26C,0.250000*%
%ADD27C,0.350000*%
%ADD28C,0.500000*%
%ADD29C,0.180000*%
%ADD30C,0.150000*%
G04 APERTURE END LIST*
D10*
D11*
X127245000Y-36740000D03*
X80255000Y-36740000D03*
D12*
X120385000Y-38140000D03*
D13*
X117595000Y-38140000D03*
X114795000Y-38140000D03*
X112125000Y-38140000D03*
X109335000Y-38140000D03*
X106545000Y-38140000D03*
X103745000Y-38140000D03*
X100955000Y-38140000D03*
X98285000Y-38140000D03*
X95495000Y-38140000D03*
X92695000Y-38140000D03*
X89905000Y-38140000D03*
X87115000Y-38140000D03*
X118985000Y-35350000D03*
X116195000Y-35350000D03*
X113395000Y-35350000D03*
X110605000Y-35350000D03*
X107935000Y-35350000D03*
X105145000Y-35350000D03*
X102355000Y-35350000D03*
X99555000Y-35350000D03*
X96765000Y-35350000D03*
X94095000Y-35350000D03*
X91305000Y-35350000D03*
X88505000Y-35350000D03*
D14*
X75295000Y-38915000D03*
X70295000Y-38915000D03*
D15*
X76295000Y-36215000D03*
X69295000Y-36215000D03*
D16*
X143269000Y-49921000D03*
D17*
X143269000Y-47381000D03*
X143269000Y-44841000D03*
D18*
X56528000Y-52715000D03*
X56528000Y-55255000D03*
D19*
X51448000Y-57795000D03*
X51448000Y-47635000D03*
X61608000Y-47635000D03*
X61608000Y-57795000D03*
D20*
X50178000Y-46365000D03*
X50178000Y-59065000D03*
X62878000Y-59065000D03*
X62878000Y-46365000D03*
D21*
X73670000Y-75465000D03*
X135270000Y-75465000D03*
D22*
X141618000Y-35570000D03*
X141618000Y-77480000D03*
X52083000Y-35570000D03*
X52083000Y-77480000D03*
X101613000Y-77480000D03*
D23*
X96279000Y-67701000D03*
X95136000Y-69479000D03*
X95136000Y-68209000D03*
X94374000Y-62240000D03*
X90564000Y-66050000D03*
X86373000Y-67574000D03*
X90056000Y-67193000D03*
X90818000Y-68336000D03*
X79388000Y-57795000D03*
X80658000Y-59700000D03*
X79388000Y-63510000D03*
X73673000Y-64145000D03*
X74943000Y-60335000D03*
X75578000Y-59065000D03*
X76848000Y-57795000D03*
X76848000Y-60335000D03*
X59703000Y-51445000D03*
X62243000Y-51445000D03*
X63513000Y-50810000D03*
X64783000Y-49540000D03*
X58433000Y-53985000D03*
X60338000Y-53985000D03*
X63513000Y-53985000D03*
X65418000Y-52080000D03*
X66688000Y-50810000D03*
X69228000Y-50810000D03*
X71768000Y-50810000D03*
X69863000Y-48905000D03*
X67958000Y-48905000D03*
X66053000Y-48905000D03*
X71768000Y-43825000D03*
X65418000Y-43825000D03*
X70498000Y-45730000D03*
X70371000Y-37602000D03*
X71006000Y-36586000D03*
X65418000Y-40015000D03*
X64148000Y-36205000D03*
X63513000Y-37475000D03*
X69228000Y-40015000D03*
X67958000Y-37475000D03*
X73038000Y-35570000D03*
X73673000Y-33665000D03*
X71133000Y-33665000D03*
X67958000Y-33665000D03*
X63513000Y-33665000D03*
X59703000Y-36840000D03*
X59068000Y-40650000D03*
D24*
X60973000Y-43825000D03*
X69863000Y-42047000D03*
X72403000Y-42047000D03*
X74943000Y-42047000D03*
X77483000Y-42047000D03*
X80023000Y-42047000D03*
X83198000Y-42047000D03*
D23*
X88913000Y-42555000D03*
X91453000Y-40015000D03*
X93993000Y-42555000D03*
X96533000Y-40015000D03*
X99073000Y-42555000D03*
X101613000Y-40015000D03*
X104153000Y-42555000D03*
X106693000Y-40015000D03*
X109233000Y-42555000D03*
X142253000Y-40015000D03*
X138951000Y-46111000D03*
X137173000Y-52715000D03*
X137173000Y-57795000D03*
X53353000Y-45095000D03*
X53353000Y-40015000D03*
X58433000Y-34935000D03*
X55893000Y-42555000D03*
X55893000Y-57795000D03*
X50813000Y-52715000D03*
X55893000Y-47635000D03*
X72403000Y-48905000D03*
X74308000Y-48905000D03*
X79375000Y-48905000D03*
X78118000Y-48905000D03*
X80658000Y-48905000D03*
X83198000Y-48905000D03*
X93993000Y-55255000D03*
X99073000Y-55255000D03*
X99073000Y-57795000D03*
X99073000Y-60335000D03*
X121933000Y-57795000D03*
X119393000Y-60335000D03*
X116853000Y-62875000D03*
X114313000Y-60335000D03*
X104153000Y-60335000D03*
X109233000Y-60335000D03*
X104153000Y-57795000D03*
X109233000Y-57795000D03*
X55893000Y-78115000D03*
X60973000Y-78115000D03*
X66053000Y-78115000D03*
X71133000Y-73035000D03*
X71133000Y-67955000D03*
X66053000Y-73035000D03*
X55893000Y-73035000D03*
X60973000Y-73035000D03*
X60973000Y-67955000D03*
X66053000Y-67955000D03*
X66053000Y-62875000D03*
X60973000Y-62875000D03*
X55893000Y-62875000D03*
X55893000Y-67955000D03*
X50813000Y-67955000D03*
X50813000Y-62875000D03*
X83833000Y-60335000D03*
X83833000Y-57795000D03*
X88913000Y-57795000D03*
X88913000Y-55255000D03*
X86373000Y-55255000D03*
X68593000Y-62875000D03*
X71133000Y-65415000D03*
X73673000Y-67955000D03*
X78753000Y-67955000D03*
X76213000Y-65415000D03*
X81293000Y-65415000D03*
X78753000Y-73035000D03*
X76213000Y-70495000D03*
X81293000Y-70495000D03*
X91453000Y-70495000D03*
X86373000Y-70495000D03*
X96533000Y-75575000D03*
X91453000Y-75575000D03*
X86373000Y-75575000D03*
X81293000Y-75575000D03*
X76213000Y-78115000D03*
X81293000Y-78115000D03*
X86373000Y-78115000D03*
X91453000Y-78115000D03*
X96533000Y-78115000D03*
X99073000Y-73035000D03*
X99073000Y-70495000D03*
X104153000Y-70495000D03*
X104153000Y-73035000D03*
X129553000Y-78115000D03*
X124473000Y-78115000D03*
X119393000Y-78115000D03*
X114313000Y-78115000D03*
X114313000Y-73035000D03*
X109233000Y-73035000D03*
X109233000Y-67955000D03*
X109233000Y-65415000D03*
X114313000Y-65415000D03*
X114313000Y-67955000D03*
X119393000Y-55255000D03*
X114313000Y-57795000D03*
X119393000Y-62875000D03*
X124473000Y-57795000D03*
X129553000Y-62875000D03*
X124473000Y-62875000D03*
X124473000Y-67955000D03*
X119393000Y-67955000D03*
X119393000Y-73035000D03*
X124473000Y-73035000D03*
X129553000Y-73035000D03*
X129553000Y-67955000D03*
X134633000Y-67955000D03*
X139713000Y-67955000D03*
X139713000Y-62875000D03*
X134633000Y-62875000D03*
X134633000Y-57795000D03*
D25*
X130569000Y-56906000D03*
X125235000Y-56906000D03*
X123584000Y-56398000D03*
X123584000Y-54747000D03*
X134125000Y-50810000D03*
X132220000Y-50810000D03*
X130442000Y-50810000D03*
X128664000Y-50810000D03*
X126886000Y-50810000D03*
X125108000Y-50810000D03*
X71514000Y-62494000D03*
X71514000Y-61732000D03*
X72657000Y-57541000D03*
X72657000Y-56017000D03*
D23*
X74304441Y-46080990D03*
X76475010Y-50810000D03*
D25*
X66815000Y-46492000D03*
X68339000Y-46619000D03*
X75832000Y-62240000D03*
X75197000Y-61605000D03*
X75197000Y-62875000D03*
X75197000Y-62240000D03*
D23*
X76664990Y-46109542D03*
D24*
X90945000Y-57287000D03*
X90945000Y-55927000D03*
X98057000Y-67701000D03*
X96152000Y-72400000D03*
X97295000Y-71638000D03*
D23*
X91139737Y-64865647D03*
D24*
X97168000Y-65034000D03*
X97041000Y-66304000D03*
X97549000Y-66304000D03*
X97640205Y-64815795D03*
D23*
X90564000Y-64907000D03*
X94628000Y-65278000D03*
X94628000Y-64389000D03*
X93599000Y-64389000D03*
X93599000Y-65278000D03*
X93599000Y-66177000D03*
X94628000Y-66177000D03*
X94628000Y-63637000D03*
X93612000Y-63637000D03*
X97304330Y-58766092D03*
X96406000Y-57160000D03*
X90564000Y-61625010D03*
X90691000Y-63129000D03*
X112281000Y-55509000D03*
X104026000Y-55509000D03*
X135014000Y-34427000D03*
X135014000Y-36459000D03*
X138951000Y-41666000D03*
X120154988Y-50810000D03*
X82436000Y-50810012D03*
X83713403Y-50811205D03*
X78499000Y-46111000D03*
X82182000Y-46111000D03*
X83960000Y-46111000D03*
X85738000Y-46111000D03*
X87516000Y-46111000D03*
X89294000Y-46111000D03*
X91072000Y-46111000D03*
X92977000Y-46111000D03*
X94755000Y-46111000D03*
X96533000Y-46111000D03*
X98320000Y-46102000D03*
X100089000Y-46111000D03*
X101867000Y-46111000D03*
X103772000Y-46111000D03*
X105550000Y-46111000D03*
X107328000Y-46111000D03*
X109106000Y-46111000D03*
X110884000Y-46111000D03*
X112662000Y-46111000D03*
X114567000Y-46111000D03*
X116345000Y-46111000D03*
X118123000Y-46111000D03*
X119901000Y-46111000D03*
X125362000Y-46111000D03*
X127140000Y-46111000D03*
X128918000Y-46111000D03*
X130696000Y-46111000D03*
X132474000Y-46111000D03*
X134379000Y-46111000D03*
X136157000Y-46111000D03*
X74054000Y-50810000D03*
X78245000Y-50810000D03*
X81801000Y-50810000D03*
X87262000Y-50810000D03*
X89040000Y-50810000D03*
X90818000Y-50810000D03*
X92596000Y-50810000D03*
X96279000Y-50810000D03*
X98057000Y-50810000D03*
X99835000Y-50810000D03*
X101613000Y-50810000D03*
X103518000Y-50810000D03*
X105296000Y-50810000D03*
X107074000Y-50810000D03*
X108852000Y-50810000D03*
X110757000Y-50810000D03*
X112535000Y-50810000D03*
X114313000Y-50810000D03*
X116091000Y-50810000D03*
X117869000Y-50810000D03*
X71370000Y-37290000D03*
X67570000Y-38990000D03*
X95771000Y-66812024D03*
X61227000Y-34300000D03*
X87008000Y-34173000D03*
X92850000Y-62748000D03*
X92850000Y-54112000D03*
X93485000Y-54112000D03*
X93866000Y-50175000D03*
X94501000Y-50175000D03*
X94882000Y-47381000D03*
X95390000Y-46873000D03*
X95644000Y-42682000D03*
X96279000Y-42682000D03*
X93070000Y-67065000D03*
X136411000Y-50683000D03*
X136411000Y-48905000D03*
D25*
X122187000Y-48397000D03*
X121552000Y-48397000D03*
X121552000Y-50683000D03*
X122187000Y-50683000D03*
D23*
X64543457Y-41925692D03*
X61608000Y-42047000D03*
D24*
X82644001Y-50002001D03*
D26*
X95136000Y-68209000D02*
X95136000Y-69479000D01*
X90818000Y-68336000D02*
X90818000Y-67955000D01*
X90818000Y-67955000D02*
X90056000Y-67193000D01*
X79388000Y-63510000D02*
X80658000Y-62240000D01*
X80658000Y-62240000D02*
X80658000Y-59700000D01*
X75578000Y-59065000D02*
X75578000Y-59700000D01*
X75578000Y-59700000D02*
X74943000Y-60335000D01*
X76848000Y-60335000D02*
X76848000Y-57795000D01*
X62243000Y-51445000D02*
X59703000Y-51445000D01*
X64783000Y-49540000D02*
X63513000Y-50810000D01*
X60338000Y-53985000D02*
X58433000Y-53985000D01*
X65418000Y-52080000D02*
X63513000Y-53985000D01*
X69228000Y-50810000D02*
X66688000Y-50810000D01*
X74054000Y-50810000D02*
X71768000Y-50810000D01*
X66053000Y-48905000D02*
X67958000Y-48905000D01*
X65418000Y-43825000D02*
X71768000Y-43825000D01*
X68339000Y-46619000D02*
X69609000Y-46619000D01*
X69609000Y-46619000D02*
X70498000Y-45730000D01*
X63513000Y-37475000D02*
X63513000Y-36840000D01*
X63513000Y-36840000D02*
X64148000Y-36205000D01*
X67570000Y-38990000D02*
X67570000Y-37863000D01*
X67570000Y-37863000D02*
X67958000Y-37475000D01*
X73038000Y-35570000D02*
X73038000Y-35622000D01*
X73038000Y-35622000D02*
X71370000Y-37290000D01*
X73038000Y-35570000D02*
X71133000Y-33665000D01*
X71133000Y-33665000D02*
X73673000Y-33665000D01*
X67958000Y-33665000D02*
X71133000Y-33665000D01*
X63513000Y-33665000D02*
X67958000Y-33665000D01*
X59068000Y-40650000D02*
X59068000Y-37475000D01*
X59068000Y-37475000D02*
X59703000Y-36840000D01*
X67270001Y-40575999D02*
X68707000Y-42012998D01*
X68707000Y-42012998D02*
X72774992Y-46080990D01*
X69863000Y-42047000D02*
X68741002Y-42047000D01*
X68741002Y-42047000D02*
X68707000Y-42012998D01*
X72403000Y-42047000D02*
X69863000Y-42047000D01*
X77483000Y-42047000D02*
X74943000Y-42047000D01*
X83198000Y-42047000D02*
X80023000Y-42047000D01*
X93993000Y-42555000D02*
X91453000Y-40015000D01*
X99073000Y-42555000D02*
X96533000Y-40015000D01*
X101613000Y-40015000D02*
X99073000Y-42555000D01*
X106693000Y-40015000D02*
X104153000Y-42555000D01*
X110504000Y-39761000D02*
X110504000Y-41284000D01*
X110504000Y-41284000D02*
X109233000Y-42555000D01*
X138951000Y-41666000D02*
X140602000Y-41666000D01*
X140602000Y-41666000D02*
X142253000Y-40015000D01*
X134633000Y-57795000D02*
X137173000Y-57795000D01*
X55893000Y-37475000D02*
X53353000Y-40015000D01*
X55893000Y-37475000D02*
X58433000Y-34935000D01*
X55893000Y-42555000D02*
X55893000Y-37475000D01*
X55893000Y-57795000D02*
X50813000Y-52715000D01*
X74308000Y-48905000D02*
X72403000Y-48905000D01*
X78118000Y-48905000D02*
X74308000Y-48905000D01*
X83198000Y-48905000D02*
X80658000Y-48905000D01*
X99073000Y-55255000D02*
X93993000Y-55255000D01*
X99073000Y-55255000D02*
X103772000Y-55255000D01*
X103772000Y-55255000D02*
X104026000Y-55509000D01*
X99073000Y-60335000D02*
X99073000Y-57795000D01*
X119393000Y-60335000D02*
X121933000Y-57795000D01*
X119393000Y-62875000D02*
X116853000Y-62875000D01*
X114313000Y-60335000D02*
X114313000Y-65415000D01*
X109233000Y-65415000D02*
X109233000Y-60335000D01*
X114313000Y-57795000D02*
X109233000Y-57795000D01*
X129553000Y-62875000D02*
X134633000Y-62875000D01*
X124473000Y-67955000D02*
X129553000Y-67955000D01*
X55893000Y-78115000D02*
X55893000Y-73035000D01*
X66053000Y-78115000D02*
X60973000Y-78115000D01*
X71133000Y-67955000D02*
X71133000Y-73035000D01*
X60973000Y-73035000D02*
X66053000Y-73035000D01*
X55893000Y-73035000D02*
X55893000Y-67955000D01*
X60973000Y-67955000D02*
X60973000Y-73035000D01*
X66053000Y-62875000D02*
X66053000Y-67955000D01*
X55893000Y-62875000D02*
X60973000Y-62875000D01*
X50813000Y-67955000D02*
X55893000Y-67955000D01*
X50178000Y-62240000D02*
X50813000Y-62875000D01*
X50178000Y-59065000D02*
X50178000Y-62240000D01*
X83833000Y-57795000D02*
X83833000Y-60335000D01*
X86373000Y-55255000D02*
X88913000Y-55255000D01*
X73673000Y-67955000D02*
X71133000Y-65415000D01*
X76213000Y-65415000D02*
X78753000Y-67955000D01*
X81293000Y-70495000D02*
X81293000Y-65415000D01*
X81293000Y-70495000D02*
X76213000Y-70495000D01*
X86373000Y-70495000D02*
X81293000Y-70495000D01*
X86373000Y-75575000D02*
X86373000Y-70495000D01*
X86373000Y-75575000D02*
X91453000Y-75575000D01*
X81293000Y-78115000D02*
X81293000Y-75575000D01*
X86373000Y-78115000D02*
X81293000Y-78115000D01*
X96533000Y-78115000D02*
X91453000Y-78115000D01*
X99073000Y-70495000D02*
X99073000Y-73035000D01*
X104153000Y-73035000D02*
X104153000Y-70495000D01*
X124473000Y-78115000D02*
X129553000Y-78115000D01*
X114313000Y-78115000D02*
X119393000Y-78115000D01*
X109233000Y-73035000D02*
X114313000Y-73035000D01*
X114313000Y-65415000D02*
X109233000Y-65415000D01*
X119393000Y-67955000D02*
X114313000Y-67955000D01*
X119393000Y-62875000D02*
X114313000Y-57795000D01*
X129553000Y-62875000D02*
X124473000Y-57795000D01*
X124473000Y-67955000D02*
X124473000Y-62875000D01*
X119393000Y-73035000D02*
X119393000Y-67955000D01*
X129553000Y-73035000D02*
X124473000Y-73035000D01*
X134633000Y-67955000D02*
X129553000Y-67955000D01*
X139713000Y-62875000D02*
X139713000Y-67955000D01*
X134633000Y-57795000D02*
X134633000Y-62875000D01*
X123584000Y-51699000D02*
X121043988Y-51699000D01*
X121043988Y-51699000D02*
X120154988Y-50810000D01*
X124473000Y-50810000D02*
X123584000Y-51699000D01*
X125108000Y-50810000D02*
X124473000Y-50810000D01*
X128664000Y-50810000D02*
X126886000Y-50810000D01*
X130442000Y-50810000D02*
X128664000Y-50810000D01*
X132220000Y-50810000D02*
X130442000Y-50810000D01*
X134125000Y-50810000D02*
X132220000Y-50810000D01*
X125108000Y-50810000D02*
X126886000Y-50810000D01*
D27*
X119901000Y-46111000D02*
X125362000Y-46111000D01*
X72657000Y-60589000D02*
X71514000Y-61732000D01*
X71514000Y-62494000D02*
X71514000Y-61732000D01*
X72657000Y-57541000D02*
X72657000Y-60589000D01*
X72657000Y-56017000D02*
X72657000Y-52207000D01*
X72657000Y-52207000D02*
X74054000Y-50810000D01*
D26*
X74332993Y-46109542D02*
X74304441Y-46080990D01*
X76664990Y-46109542D02*
X74332993Y-46109542D01*
X73880177Y-46080990D02*
X74304441Y-46080990D01*
X72774992Y-46080990D02*
X73880177Y-46080990D01*
X78245000Y-50810000D02*
X76475010Y-50810000D01*
X74054000Y-50810000D02*
X76475010Y-50810000D01*
D27*
X66815000Y-46492000D02*
X63005000Y-46492000D01*
X63005000Y-46492000D02*
X62878000Y-46365000D01*
X75197000Y-62240000D02*
X75832000Y-62240000D01*
X75197000Y-62240000D02*
X75197000Y-62875000D01*
D26*
X78499000Y-46111000D02*
X76666448Y-46111000D01*
X76666448Y-46111000D02*
X76664990Y-46109542D01*
D27*
X98057000Y-67701000D02*
X98057000Y-70876000D01*
X98057000Y-70876000D02*
X97295000Y-71638000D01*
D26*
X91098384Y-64907000D02*
X91139737Y-64865647D01*
X90564000Y-64907000D02*
X91098384Y-64907000D01*
X97304330Y-58766092D02*
X100768908Y-58766092D01*
X100768908Y-58766092D02*
X104026000Y-55509000D01*
X97168000Y-65034000D02*
X97168000Y-65923000D01*
X97168000Y-65923000D02*
X97549000Y-66304000D01*
X90564000Y-64907000D02*
X90564000Y-63256000D01*
X90564000Y-63256000D02*
X90691000Y-63129000D01*
X97549000Y-66304000D02*
X97041000Y-66304000D01*
X112281000Y-55509000D02*
X112281000Y-51064000D01*
X112281000Y-51064000D02*
X112535000Y-50810000D01*
X104026000Y-55509000D02*
X104026000Y-51318000D01*
X104026000Y-51318000D02*
X103518000Y-50810000D01*
X135014000Y-36459000D02*
X135014000Y-34427000D01*
X138951000Y-41666000D02*
X138951000Y-40396000D01*
X138951000Y-40396000D02*
X135014000Y-36459000D01*
X141999000Y-46111000D02*
X138951000Y-46111000D01*
X138951000Y-46111000D02*
X136157000Y-46111000D01*
X138951000Y-41666000D02*
X138951000Y-46111000D01*
X143269000Y-47381000D02*
X141999000Y-46111000D01*
X117869000Y-50810000D02*
X120154988Y-50810000D01*
X62878000Y-46365000D02*
X62878000Y-44968000D01*
X62878000Y-44968000D02*
X67270001Y-40575999D01*
X67270001Y-39289999D02*
X67570000Y-38990000D01*
X67270001Y-40575999D02*
X67270001Y-39289999D01*
X54276427Y-57795000D02*
X56528000Y-57795000D01*
X56528000Y-57795000D02*
X61608000Y-57795000D01*
X56528000Y-55255000D02*
X56528000Y-57795000D01*
X51448000Y-57795000D02*
X54276427Y-57795000D01*
X51448000Y-47635000D02*
X51448000Y-57795000D01*
X61608000Y-47635000D02*
X58779573Y-47635000D01*
X58779573Y-47635000D02*
X51448000Y-47635000D01*
X62878000Y-46365000D02*
X61608000Y-47635000D01*
X50178000Y-46365000D02*
X51448000Y-47635000D01*
X50178000Y-59065000D02*
X51448000Y-57795000D01*
X88505000Y-35350000D02*
X89868000Y-36713000D01*
X89868000Y-36713000D02*
X99528000Y-36713000D01*
X100195001Y-37380001D02*
X100955000Y-38140000D01*
X99528000Y-36713000D02*
X100195001Y-37380001D01*
X82435988Y-50810000D02*
X82436000Y-50810012D01*
X81801000Y-50810000D02*
X82435988Y-50810000D01*
X87262000Y-50810000D02*
X83714608Y-50810000D01*
X83714608Y-50810000D02*
X83713403Y-50811205D01*
X100955000Y-38140000D02*
X102355000Y-36740000D01*
X102355000Y-36740000D02*
X102355000Y-35350000D01*
X112125000Y-38140000D02*
X110504000Y-39761000D01*
X102576000Y-39761000D02*
X101714999Y-38899999D01*
X110504000Y-39761000D02*
X102576000Y-39761000D01*
X101714999Y-38899999D02*
X100955000Y-38140000D01*
X87262000Y-50810000D02*
X87262000Y-46365000D01*
X87262000Y-46365000D02*
X87516000Y-46111000D01*
X107074000Y-50810000D02*
X107074000Y-46365000D01*
X107074000Y-46365000D02*
X107328000Y-46111000D01*
X134379000Y-46111000D02*
X136157000Y-46111000D01*
X132474000Y-46111000D02*
X134379000Y-46111000D01*
X130696000Y-46111000D02*
X132474000Y-46111000D01*
X128918000Y-46111000D02*
X130696000Y-46111000D01*
X127140000Y-46111000D02*
X128918000Y-46111000D01*
X125362000Y-46111000D02*
X127140000Y-46111000D01*
X118123000Y-46111000D02*
X119901000Y-46111000D01*
X116345000Y-46111000D02*
X118123000Y-46111000D01*
X114567000Y-46111000D02*
X116345000Y-46111000D01*
X112662000Y-46111000D02*
X114567000Y-46111000D01*
X110884000Y-46111000D02*
X112662000Y-46111000D01*
X109106000Y-46111000D02*
X110884000Y-46111000D01*
X107328000Y-46111000D02*
X109106000Y-46111000D01*
X105550000Y-46111000D02*
X107328000Y-46111000D01*
X103772000Y-46111000D02*
X105550000Y-46111000D01*
X101867000Y-46111000D02*
X103772000Y-46111000D01*
X100089000Y-46111000D02*
X101867000Y-46111000D01*
X98320000Y-46102000D02*
X100080000Y-46102000D01*
X100080000Y-46102000D02*
X100089000Y-46111000D01*
X96533000Y-46111000D02*
X98311000Y-46111000D01*
X98311000Y-46111000D02*
X98320000Y-46102000D01*
X92977000Y-46111000D02*
X94755000Y-46111000D01*
X91072000Y-46111000D02*
X92977000Y-46111000D01*
X89294000Y-46111000D02*
X91072000Y-46111000D01*
X87516000Y-46111000D02*
X89294000Y-46111000D01*
X85738000Y-46111000D02*
X87516000Y-46111000D01*
X83960000Y-46111000D02*
X85738000Y-46111000D01*
X82182000Y-46111000D02*
X83960000Y-46111000D01*
X78499000Y-46111000D02*
X82182000Y-46111000D01*
X78245000Y-50810000D02*
X81801000Y-50810000D01*
X116091000Y-50810000D02*
X117869000Y-50810000D01*
X114313000Y-50810000D02*
X116091000Y-50810000D01*
X112535000Y-50810000D02*
X114313000Y-50810000D01*
X110757000Y-50810000D02*
X112535000Y-50810000D01*
X108852000Y-50810000D02*
X110757000Y-50810000D01*
X107074000Y-50810000D02*
X108852000Y-50810000D01*
X105296000Y-50810000D02*
X107074000Y-50810000D01*
X103518000Y-50810000D02*
X105296000Y-50810000D01*
X101613000Y-50810000D02*
X103518000Y-50810000D01*
X99835000Y-50810000D02*
X101613000Y-50810000D01*
X98057000Y-50810000D02*
X99835000Y-50810000D01*
X96279000Y-50810000D02*
X98057000Y-50810000D01*
X90818000Y-50810000D02*
X92596000Y-50810000D01*
X89040000Y-50810000D02*
X90818000Y-50810000D01*
X87262000Y-50810000D02*
X89040000Y-50810000D01*
X67570000Y-38990000D02*
X67994264Y-38990000D01*
X67994264Y-38990000D02*
X69694264Y-37290000D01*
X69694264Y-37290000D02*
X71370000Y-37290000D01*
D28*
X93070000Y-67065000D02*
X95518024Y-67065000D01*
X95518024Y-67065000D02*
X95771000Y-66812024D01*
X93070000Y-67065000D02*
X92596000Y-66591000D01*
X92596000Y-63002000D02*
X92850000Y-62748000D01*
X92596000Y-66591000D02*
X92596000Y-63002000D01*
D26*
X87008000Y-34173000D02*
X85738000Y-32903000D01*
X85738000Y-32903000D02*
X62624000Y-32903000D01*
X62624000Y-32903000D02*
X61227000Y-34300000D01*
D28*
X92850000Y-54112000D02*
X93485000Y-54112000D01*
X93866000Y-50175000D02*
X93866000Y-53731000D01*
X93866000Y-53731000D02*
X93485000Y-54112000D01*
X94501000Y-50175000D02*
X93866000Y-50175000D01*
X94882000Y-47381000D02*
X95390000Y-46873000D01*
X95644000Y-46619000D02*
X95390000Y-46873000D01*
X95644000Y-43106264D02*
X95644000Y-46619000D01*
X95644000Y-42682000D02*
X95644000Y-43106264D01*
X96279000Y-42682000D02*
X95644000Y-42682000D01*
D26*
X136411000Y-48905000D02*
X136411000Y-50683000D01*
X70145000Y-38915000D02*
X70295000Y-38915000D01*
D28*
X122187000Y-48397000D02*
X121552000Y-48397000D01*
X121552000Y-50683000D02*
X121552000Y-48397000D01*
X122187000Y-50683000D02*
X121552000Y-50683000D01*
D29*
X64275000Y-42047000D02*
X64396308Y-41925692D01*
X64396308Y-41925692D02*
X64543457Y-41925692D01*
X61608000Y-42047000D02*
X64275000Y-42047000D01*
D30*
X82644001Y-50002001D02*
X65717999Y-50002001D01*
X65717999Y-50002001D02*
X63005000Y-52715000D01*
X63005000Y-52715000D02*
X56528000Y-52715000D01*
D26*
G36*
X61174229Y-33574953D02*
X61083421Y-33574874D01*
X60816857Y-33685016D01*
X60612733Y-33888784D01*
X60502126Y-34155156D01*
X60501874Y-34443579D01*
X60612016Y-34710143D01*
X60815784Y-34914267D01*
X61082156Y-35024874D01*
X61370579Y-35025126D01*
X61637143Y-34914984D01*
X61841267Y-34711216D01*
X61951874Y-34444844D01*
X61951954Y-34352863D01*
X62851817Y-33453000D01*
X85510182Y-33453000D01*
X86282953Y-34225771D01*
X86282874Y-34316579D01*
X86393016Y-34583143D01*
X86596784Y-34787267D01*
X86863156Y-34897874D01*
X87151579Y-34898126D01*
X87418143Y-34787984D01*
X87490930Y-34715324D01*
X87327313Y-35080118D01*
X87313679Y-35551343D01*
X87481413Y-35991916D01*
X87520238Y-36050020D01*
X87717004Y-36120319D01*
X88487322Y-35350000D01*
X88522678Y-35350000D01*
X89292996Y-36120319D01*
X89489762Y-36050020D01*
X89682687Y-35619882D01*
X89683705Y-35584677D01*
X90119794Y-35584677D01*
X90299820Y-36020372D01*
X90632875Y-36354009D01*
X91068255Y-36534794D01*
X91539677Y-36535206D01*
X91975372Y-36355180D01*
X92309009Y-36022125D01*
X92489794Y-35586745D01*
X92489795Y-35584677D01*
X92909794Y-35584677D01*
X93089820Y-36020372D01*
X93422875Y-36354009D01*
X93858255Y-36534794D01*
X94329677Y-36535206D01*
X94765372Y-36355180D01*
X95099009Y-36022125D01*
X95279794Y-35586745D01*
X95279795Y-35584677D01*
X95579794Y-35584677D01*
X95759820Y-36020372D01*
X96092875Y-36354009D01*
X96528255Y-36534794D01*
X96999677Y-36535206D01*
X97435372Y-36355180D01*
X97769009Y-36022125D01*
X97949794Y-35586745D01*
X97949795Y-35584677D01*
X98369794Y-35584677D01*
X98549820Y-36020372D01*
X98882875Y-36354009D01*
X99318255Y-36534794D01*
X99789677Y-36535206D01*
X100225372Y-36355180D01*
X100442935Y-36137996D01*
X101584681Y-36137996D01*
X101654980Y-36334762D01*
X102085118Y-36527687D01*
X102556343Y-36541321D01*
X102996916Y-36373587D01*
X103055020Y-36334762D01*
X103125319Y-36137996D01*
X102355000Y-35367678D01*
X101584681Y-36137996D01*
X100442935Y-36137996D01*
X100559009Y-36022125D01*
X100739794Y-35586745D01*
X100739824Y-35551343D01*
X101163679Y-35551343D01*
X101331413Y-35991916D01*
X101370238Y-36050020D01*
X101567004Y-36120319D01*
X102337322Y-35350000D01*
X102372678Y-35350000D01*
X103142996Y-36120319D01*
X103339762Y-36050020D01*
X103532687Y-35619882D01*
X103533705Y-35584677D01*
X103959794Y-35584677D01*
X104139820Y-36020372D01*
X104472875Y-36354009D01*
X104908255Y-36534794D01*
X105379677Y-36535206D01*
X105815372Y-36355180D01*
X106149009Y-36022125D01*
X106329794Y-35586745D01*
X106329795Y-35584677D01*
X106749794Y-35584677D01*
X106929820Y-36020372D01*
X107262875Y-36354009D01*
X107698255Y-36534794D01*
X108169677Y-36535206D01*
X108605372Y-36355180D01*
X108939009Y-36022125D01*
X109119794Y-35586745D01*
X109119795Y-35584677D01*
X109419794Y-35584677D01*
X109599820Y-36020372D01*
X109932875Y-36354009D01*
X110368255Y-36534794D01*
X110839677Y-36535206D01*
X111275372Y-36355180D01*
X111609009Y-36022125D01*
X111789794Y-35586745D01*
X111789795Y-35584677D01*
X112209794Y-35584677D01*
X112389820Y-36020372D01*
X112722875Y-36354009D01*
X113158255Y-36534794D01*
X113629677Y-36535206D01*
X114065372Y-36355180D01*
X114399009Y-36022125D01*
X114579794Y-35586745D01*
X114579795Y-35584677D01*
X115009794Y-35584677D01*
X115189820Y-36020372D01*
X115522875Y-36354009D01*
X115958255Y-36534794D01*
X116429677Y-36535206D01*
X116865372Y-36355180D01*
X117199009Y-36022125D01*
X117379794Y-35586745D01*
X117379795Y-35584677D01*
X117799794Y-35584677D01*
X117979820Y-36020372D01*
X118312875Y-36354009D01*
X118748255Y-36534794D01*
X119219677Y-36535206D01*
X119655372Y-36355180D01*
X119989009Y-36022125D01*
X120169794Y-35586745D01*
X120170206Y-35115323D01*
X119990180Y-34679628D01*
X119657125Y-34345991D01*
X119221745Y-34165206D01*
X118750323Y-34164794D01*
X118314628Y-34344820D01*
X117980991Y-34677875D01*
X117800206Y-35113255D01*
X117799794Y-35584677D01*
X117379795Y-35584677D01*
X117380206Y-35115323D01*
X117200180Y-34679628D01*
X116867125Y-34345991D01*
X116431745Y-34165206D01*
X115960323Y-34164794D01*
X115524628Y-34344820D01*
X115190991Y-34677875D01*
X115010206Y-35113255D01*
X115009794Y-35584677D01*
X114579795Y-35584677D01*
X114580206Y-35115323D01*
X114400180Y-34679628D01*
X114067125Y-34345991D01*
X113631745Y-34165206D01*
X113160323Y-34164794D01*
X112724628Y-34344820D01*
X112390991Y-34677875D01*
X112210206Y-35113255D01*
X112209794Y-35584677D01*
X111789795Y-35584677D01*
X111790206Y-35115323D01*
X111610180Y-34679628D01*
X111277125Y-34345991D01*
X110841745Y-34165206D01*
X110370323Y-34164794D01*
X109934628Y-34344820D01*
X109600991Y-34677875D01*
X109420206Y-35113255D01*
X109419794Y-35584677D01*
X109119795Y-35584677D01*
X109120206Y-35115323D01*
X108940180Y-34679628D01*
X108607125Y-34345991D01*
X108171745Y-34165206D01*
X107700323Y-34164794D01*
X107264628Y-34344820D01*
X106930991Y-34677875D01*
X106750206Y-35113255D01*
X106749794Y-35584677D01*
X106329795Y-35584677D01*
X106330206Y-35115323D01*
X106150180Y-34679628D01*
X105817125Y-34345991D01*
X105381745Y-34165206D01*
X104910323Y-34164794D01*
X104474628Y-34344820D01*
X104140991Y-34677875D01*
X103960206Y-35113255D01*
X103959794Y-35584677D01*
X103533705Y-35584677D01*
X103546321Y-35148657D01*
X103378587Y-34708084D01*
X103339762Y-34649980D01*
X103142996Y-34579681D01*
X102372678Y-35350000D01*
X102337322Y-35350000D01*
X101567004Y-34579681D01*
X101370238Y-34649980D01*
X101177313Y-35080118D01*
X101163679Y-35551343D01*
X100739824Y-35551343D01*
X100740206Y-35115323D01*
X100560180Y-34679628D01*
X100442762Y-34562004D01*
X101584681Y-34562004D01*
X102355000Y-35332322D01*
X103125319Y-34562004D01*
X103055020Y-34365238D01*
X102624882Y-34172313D01*
X102153657Y-34158679D01*
X101713084Y-34326413D01*
X101654980Y-34365238D01*
X101584681Y-34562004D01*
X100442762Y-34562004D01*
X100227125Y-34345991D01*
X99791745Y-34165206D01*
X99320323Y-34164794D01*
X98884628Y-34344820D01*
X98550991Y-34677875D01*
X98370206Y-35113255D01*
X98369794Y-35584677D01*
X97949795Y-35584677D01*
X97950206Y-35115323D01*
X97770180Y-34679628D01*
X97437125Y-34345991D01*
X97001745Y-34165206D01*
X96530323Y-34164794D01*
X96094628Y-34344820D01*
X95760991Y-34677875D01*
X95580206Y-35113255D01*
X95579794Y-35584677D01*
X95279795Y-35584677D01*
X95280206Y-35115323D01*
X95100180Y-34679628D01*
X94767125Y-34345991D01*
X94331745Y-34165206D01*
X93860323Y-34164794D01*
X93424628Y-34344820D01*
X93090991Y-34677875D01*
X92910206Y-35113255D01*
X92909794Y-35584677D01*
X92489795Y-35584677D01*
X92490206Y-35115323D01*
X92310180Y-34679628D01*
X91977125Y-34345991D01*
X91541745Y-34165206D01*
X91070323Y-34164794D01*
X90634628Y-34344820D01*
X90300991Y-34677875D01*
X90120206Y-35113255D01*
X90119794Y-35584677D01*
X89683705Y-35584677D01*
X89696321Y-35148657D01*
X89528587Y-34708084D01*
X89489762Y-34649980D01*
X89292996Y-34579681D01*
X88522678Y-35350000D01*
X88487322Y-35350000D01*
X88473180Y-35335858D01*
X88490858Y-35318180D01*
X88505000Y-35332322D01*
X89275319Y-34562004D01*
X89205020Y-34365238D01*
X88774882Y-34172313D01*
X88303657Y-34158679D01*
X87863084Y-34326413D01*
X87804980Y-34365238D01*
X87734682Y-34562002D01*
X87661768Y-34489088D01*
X87732874Y-34317844D01*
X87733126Y-34029421D01*
X87622984Y-33762857D01*
X87419216Y-33558733D01*
X87152844Y-33448126D01*
X87060864Y-33448046D01*
X86507818Y-32895000D01*
X139166669Y-32895000D01*
X138546666Y-33513921D01*
X137993631Y-34845780D01*
X137992372Y-36287894D01*
X138543083Y-37620715D01*
X139561921Y-38641334D01*
X140893780Y-39194369D01*
X142335894Y-39195628D01*
X143668715Y-38644917D01*
X144293000Y-38021721D01*
X144293000Y-44085298D01*
X144195540Y-43939439D01*
X143781900Y-43663054D01*
X143293979Y-43566000D01*
X143244021Y-43566000D01*
X142756100Y-43663054D01*
X142342460Y-43939439D01*
X142066075Y-44353079D01*
X141969021Y-44841000D01*
X142066075Y-45328921D01*
X142342460Y-45742561D01*
X142756100Y-46018946D01*
X143244021Y-46116000D01*
X143256498Y-46116000D01*
X143256498Y-46212309D01*
X143057209Y-46123712D01*
X142592187Y-46300466D01*
X142230204Y-46641722D01*
X142026368Y-47095526D01*
X142011713Y-47169209D01*
X142100317Y-47368500D01*
X143256500Y-47368500D01*
X143256500Y-47348500D01*
X143281500Y-47348500D01*
X143281500Y-47368500D01*
X143301500Y-47368500D01*
X143301500Y-47393500D01*
X143281500Y-47393500D01*
X143281500Y-47413500D01*
X143256500Y-47413500D01*
X143256500Y-47393500D01*
X142100317Y-47393500D01*
X142011713Y-47592791D01*
X142026368Y-47666474D01*
X142230204Y-48120278D01*
X142592187Y-48461534D01*
X143055594Y-48637674D01*
X142419000Y-48637674D01*
X142261504Y-48667309D01*
X142116854Y-48760389D01*
X142019814Y-48902412D01*
X141985674Y-49071000D01*
X141985674Y-50771000D01*
X142015309Y-50928496D01*
X142108389Y-51073146D01*
X142250412Y-51170186D01*
X142419000Y-51204326D01*
X144119000Y-51204326D01*
X144276496Y-51174691D01*
X144293000Y-51164071D01*
X144293000Y-75028669D01*
X143674079Y-74408666D01*
X142342220Y-73855631D01*
X140900106Y-73854372D01*
X139567285Y-74405083D01*
X138546666Y-75423921D01*
X137993631Y-76755780D01*
X137992372Y-78197894D01*
X138543083Y-79530715D01*
X139166279Y-80155000D01*
X104064331Y-80155000D01*
X104684334Y-79536079D01*
X105237369Y-78204220D01*
X105238628Y-76762106D01*
X104917474Y-75984854D01*
X132644545Y-75984854D01*
X133043336Y-76950001D01*
X133781115Y-77689069D01*
X134745564Y-78089544D01*
X135789854Y-78090455D01*
X136755001Y-77691664D01*
X137494069Y-76953885D01*
X137894544Y-75989436D01*
X137895455Y-74945146D01*
X137496664Y-73979999D01*
X136758885Y-73240931D01*
X135794436Y-72840456D01*
X134750146Y-72839545D01*
X133784999Y-73238336D01*
X133045931Y-73976115D01*
X132645456Y-74940564D01*
X132644545Y-75984854D01*
X104917474Y-75984854D01*
X104687917Y-75429285D01*
X103669079Y-74408666D01*
X102337220Y-73855631D01*
X100895106Y-73854372D01*
X99562285Y-74405083D01*
X98541666Y-75423921D01*
X97988631Y-76755780D01*
X97987372Y-78197894D01*
X98538083Y-79530715D01*
X99161279Y-80155000D01*
X54534331Y-80155000D01*
X55154334Y-79536079D01*
X55707369Y-78204220D01*
X55708628Y-76762106D01*
X55387474Y-75984854D01*
X71044545Y-75984854D01*
X71443336Y-76950001D01*
X72181115Y-77689069D01*
X73145564Y-78089544D01*
X74189854Y-78090455D01*
X75155001Y-77691664D01*
X75894069Y-76953885D01*
X76294544Y-75989436D01*
X76295455Y-74945146D01*
X75896664Y-73979999D01*
X75158885Y-73240931D01*
X74194436Y-72840456D01*
X73150146Y-72839545D01*
X72184999Y-73238336D01*
X71445931Y-73976115D01*
X71045456Y-74940564D01*
X71044545Y-75984854D01*
X55387474Y-75984854D01*
X55157917Y-75429285D01*
X54139079Y-74408666D01*
X52807220Y-73855631D01*
X51365106Y-73854372D01*
X50032285Y-74405083D01*
X49408000Y-75028279D01*
X49408000Y-63002000D01*
X91921000Y-63002000D01*
X91921000Y-66591000D01*
X91972381Y-66849312D01*
X92118703Y-67068297D01*
X92405351Y-67354945D01*
X92455016Y-67475143D01*
X92658784Y-67679267D01*
X92925156Y-67789874D01*
X93213579Y-67790126D01*
X93334893Y-67740000D01*
X95518024Y-67740000D01*
X95776336Y-67688619D01*
X95995321Y-67542297D01*
X96060945Y-67476673D01*
X96181143Y-67427008D01*
X96385267Y-67223240D01*
X96495874Y-66956868D01*
X96496126Y-66668445D01*
X96385984Y-66401881D01*
X96182216Y-66197757D01*
X95915844Y-66087150D01*
X95627421Y-66086898D01*
X95360857Y-66197040D01*
X95167560Y-66390000D01*
X93349594Y-66390000D01*
X93271000Y-66311406D01*
X93271000Y-63352146D01*
X93464267Y-63159216D01*
X93574874Y-62892844D01*
X93575126Y-62604421D01*
X93464984Y-62337857D01*
X93261216Y-62133733D01*
X92994844Y-62023126D01*
X92706421Y-62022874D01*
X92439857Y-62133016D01*
X92235733Y-62336784D01*
X92185396Y-62458010D01*
X92118703Y-62524703D01*
X91972381Y-62743688D01*
X91972381Y-62743689D01*
X91921000Y-63002000D01*
X49408000Y-63002000D01*
X49408000Y-60281020D01*
X49850991Y-60480638D01*
X50417624Y-60498020D01*
X50947776Y-60297238D01*
X51021858Y-60247738D01*
X51039938Y-60207454D01*
X51847127Y-60235082D01*
X52750524Y-59896603D01*
X52891172Y-59802623D01*
X53112336Y-59477013D01*
X59943664Y-59477013D01*
X60164828Y-59802623D01*
X61042967Y-60202081D01*
X62007127Y-60235082D01*
X62025391Y-60228239D01*
X62034142Y-60247738D01*
X62550991Y-60480638D01*
X63117624Y-60498020D01*
X63647776Y-60297238D01*
X63721858Y-60247738D01*
X63821358Y-60026035D01*
X61916965Y-58121642D01*
X61916964Y-58121642D01*
X61608000Y-57812678D01*
X59943664Y-59477013D01*
X53112336Y-59477013D01*
X51448000Y-57812678D01*
X51139036Y-58121642D01*
X50648717Y-58611960D01*
X50163858Y-59096820D01*
X50146181Y-59079143D01*
X51121358Y-58103965D01*
X51121358Y-58103964D01*
X51430322Y-57795000D01*
X51465678Y-57795000D01*
X53130013Y-59459336D01*
X53455623Y-59238172D01*
X53855081Y-58360033D01*
X53860759Y-58194127D01*
X59167918Y-58194127D01*
X59506397Y-59097524D01*
X59600377Y-59238172D01*
X59925987Y-59459336D01*
X61590322Y-57795000D01*
X61625678Y-57795000D01*
X61934642Y-58103964D01*
X61934642Y-58103965D01*
X63839035Y-60008358D01*
X64060738Y-59908858D01*
X64293638Y-59392009D01*
X64311020Y-58825376D01*
X64110238Y-58295224D01*
X64060738Y-58221142D01*
X64020454Y-58203062D01*
X64048082Y-57395873D01*
X63709603Y-56492476D01*
X63615623Y-56351828D01*
X63290013Y-56130664D01*
X61625678Y-57795000D01*
X61590322Y-57795000D01*
X59925987Y-56130664D01*
X59600377Y-56351828D01*
X59200919Y-57229967D01*
X59167918Y-58194127D01*
X53860759Y-58194127D01*
X53888082Y-57395873D01*
X53549603Y-56492476D01*
X53455623Y-56351828D01*
X53130013Y-56130664D01*
X51465678Y-57795000D01*
X51430322Y-57795000D01*
X49765987Y-56130664D01*
X49440377Y-56351828D01*
X49408000Y-56423003D01*
X49408000Y-56112987D01*
X49783664Y-56112987D01*
X51448000Y-57777322D01*
X53112336Y-56112987D01*
X53084386Y-56071836D01*
X55728841Y-56071836D01*
X55804007Y-56272758D01*
X56248596Y-56472346D01*
X56735723Y-56486605D01*
X57191225Y-56313362D01*
X57251993Y-56272758D01*
X57311764Y-56112987D01*
X59943664Y-56112987D01*
X61608000Y-57777322D01*
X63272336Y-56112987D01*
X63051172Y-55787377D01*
X62173033Y-55387919D01*
X61208873Y-55354918D01*
X60305476Y-55693397D01*
X60164828Y-55787377D01*
X59943664Y-56112987D01*
X57311764Y-56112987D01*
X57327159Y-56071836D01*
X56528000Y-55272678D01*
X55728841Y-56071836D01*
X53084386Y-56071836D01*
X52891172Y-55787377D01*
X52177477Y-55462723D01*
X55296395Y-55462723D01*
X55469638Y-55918225D01*
X55510242Y-55978993D01*
X55711164Y-56054159D01*
X56510322Y-55255000D01*
X56545678Y-55255000D01*
X57344836Y-56054159D01*
X57545758Y-55978993D01*
X57745346Y-55534404D01*
X57759605Y-55047277D01*
X57586362Y-54591775D01*
X57545758Y-54531007D01*
X57344836Y-54455841D01*
X56545678Y-55255000D01*
X56510322Y-55255000D01*
X55711164Y-54455841D01*
X55510242Y-54531007D01*
X55310654Y-54975596D01*
X55296395Y-55462723D01*
X52177477Y-55462723D01*
X52013033Y-55387919D01*
X51048873Y-55354918D01*
X50145476Y-55693397D01*
X50004828Y-55787377D01*
X49783664Y-56112987D01*
X49408000Y-56112987D01*
X49408000Y-54438164D01*
X55728841Y-54438164D01*
X56528000Y-55237322D01*
X57327159Y-54438164D01*
X57258853Y-54255579D01*
X92124874Y-54255579D01*
X92235016Y-54522143D01*
X92438784Y-54726267D01*
X92705156Y-54836874D01*
X92993579Y-54837126D01*
X93114893Y-54787000D01*
X93220046Y-54787000D01*
X93340156Y-54836874D01*
X93628579Y-54837126D01*
X93895143Y-54726984D01*
X94099267Y-54523216D01*
X94149604Y-54401990D01*
X94343297Y-54208297D01*
X94457317Y-54037654D01*
X94489619Y-53989311D01*
X94541000Y-53731000D01*
X94541000Y-50900036D01*
X94644579Y-50900126D01*
X94911143Y-50789984D01*
X95115267Y-50586216D01*
X95225874Y-50319844D01*
X95226126Y-50031421D01*
X95115984Y-49764857D01*
X94912216Y-49560733D01*
X94645844Y-49450126D01*
X94357421Y-49449874D01*
X94236107Y-49500000D01*
X94130954Y-49500000D01*
X94010844Y-49450126D01*
X93722421Y-49449874D01*
X93455857Y-49560016D01*
X93251733Y-49763784D01*
X93141126Y-50030156D01*
X93140874Y-50318579D01*
X93191000Y-50439893D01*
X93191000Y-53437000D01*
X93114954Y-53437000D01*
X92994844Y-53387126D01*
X92706421Y-53386874D01*
X92439857Y-53497016D01*
X92235733Y-53700784D01*
X92125126Y-53967156D01*
X92124874Y-54255579D01*
X57258853Y-54255579D01*
X57251993Y-54237242D01*
X56807404Y-54037654D01*
X56320277Y-54023395D01*
X55864775Y-54196638D01*
X55804007Y-54237242D01*
X55728841Y-54438164D01*
X49408000Y-54438164D01*
X49408000Y-52957599D01*
X55302788Y-52957599D01*
X55488890Y-53408000D01*
X55833187Y-53752899D01*
X56283263Y-53939787D01*
X56770599Y-53940212D01*
X57221000Y-53754110D01*
X57565899Y-53409813D01*
X57646792Y-53215000D01*
X63005000Y-53215000D01*
X63196342Y-53176940D01*
X63358553Y-53068553D01*
X65925105Y-50502001D01*
X82224692Y-50502001D01*
X82275325Y-50552723D01*
X82514141Y-50651888D01*
X82772727Y-50652113D01*
X83011715Y-50553365D01*
X83194723Y-50370677D01*
X83293888Y-50131861D01*
X83294113Y-49873275D01*
X83195365Y-49634287D01*
X83012677Y-49451279D01*
X82773861Y-49352114D01*
X82515275Y-49351889D01*
X82276287Y-49450637D01*
X82224833Y-49502001D01*
X65717999Y-49502001D01*
X65526657Y-49540061D01*
X65364446Y-49648448D01*
X62797894Y-52215000D01*
X57646856Y-52215000D01*
X57567110Y-52022000D01*
X57222813Y-51677101D01*
X56772737Y-51490213D01*
X56285401Y-51489788D01*
X55835000Y-51675890D01*
X55490101Y-52020187D01*
X55303213Y-52470263D01*
X55302788Y-52957599D01*
X49408000Y-52957599D01*
X49408000Y-49317013D01*
X49783664Y-49317013D01*
X50004828Y-49642623D01*
X50882967Y-50042081D01*
X51847127Y-50075082D01*
X52750524Y-49736603D01*
X52891172Y-49642623D01*
X53112336Y-49317013D01*
X59943664Y-49317013D01*
X60164828Y-49642623D01*
X61042967Y-50042081D01*
X62007127Y-50075082D01*
X62910524Y-49736603D01*
X63051172Y-49642623D01*
X63272336Y-49317013D01*
X61608000Y-47652678D01*
X59943664Y-49317013D01*
X53112336Y-49317013D01*
X51448000Y-47652678D01*
X49783664Y-49317013D01*
X49408000Y-49317013D01*
X49408000Y-49029717D01*
X49440377Y-49078172D01*
X49765987Y-49299336D01*
X51430322Y-47635000D01*
X51465678Y-47635000D01*
X53130013Y-49299336D01*
X53455623Y-49078172D01*
X53855081Y-48200033D01*
X53860759Y-48034127D01*
X59167918Y-48034127D01*
X59506397Y-48937524D01*
X59600377Y-49078172D01*
X59925987Y-49299336D01*
X61590322Y-47635000D01*
X61625678Y-47635000D01*
X63290013Y-49299336D01*
X63615623Y-49078172D01*
X63806715Y-48658089D01*
X70094831Y-48658089D01*
X70242954Y-49016571D01*
X70516986Y-49291082D01*
X70875210Y-49439830D01*
X71263089Y-49440169D01*
X71621571Y-49292046D01*
X71896082Y-49018014D01*
X72044830Y-48659790D01*
X72044942Y-48530677D01*
X120876883Y-48530677D01*
X120877000Y-48530960D01*
X120877000Y-50682411D01*
X120876883Y-50816677D01*
X120979429Y-51064857D01*
X121169144Y-51254903D01*
X121417145Y-51357883D01*
X121685677Y-51358117D01*
X121685960Y-51358000D01*
X122186411Y-51358000D01*
X122320677Y-51358117D01*
X122568857Y-51255571D01*
X122758903Y-51065856D01*
X122861883Y-50817855D01*
X122862117Y-50549323D01*
X122759571Y-50301143D01*
X122569856Y-50111097D01*
X122321855Y-50008117D01*
X122227000Y-50008034D01*
X122227000Y-49072035D01*
X122320677Y-49072117D01*
X122377643Y-49048579D01*
X135685874Y-49048579D01*
X135796016Y-49315143D01*
X135861000Y-49380241D01*
X135861000Y-50207629D01*
X135796733Y-50271784D01*
X135686126Y-50538156D01*
X135685874Y-50826579D01*
X135796016Y-51093143D01*
X135999784Y-51297267D01*
X136266156Y-51407874D01*
X136554579Y-51408126D01*
X136821143Y-51297984D01*
X137025267Y-51094216D01*
X137135874Y-50827844D01*
X137136126Y-50539421D01*
X137025984Y-50272857D01*
X136961000Y-50207759D01*
X136961000Y-49380371D01*
X137007017Y-49334435D01*
X137175187Y-49502899D01*
X137625263Y-49689787D01*
X138112599Y-49690212D01*
X138563000Y-49504110D01*
X138907899Y-49159813D01*
X139094787Y-48709737D01*
X139095212Y-48222401D01*
X138909110Y-47772000D01*
X138564813Y-47427101D01*
X138114737Y-47240213D01*
X137627401Y-47239788D01*
X137177000Y-47425890D01*
X136832101Y-47770187D01*
X136646285Y-48217680D01*
X136555844Y-48180126D01*
X136267421Y-48179874D01*
X136000857Y-48290016D01*
X135796733Y-48493784D01*
X135686126Y-48760156D01*
X135685874Y-49048579D01*
X122377643Y-49048579D01*
X122568857Y-48969571D01*
X122758903Y-48779856D01*
X122861883Y-48531855D01*
X122862117Y-48263323D01*
X122759571Y-48015143D01*
X122569856Y-47825097D01*
X122321855Y-47722117D01*
X122053323Y-47721883D01*
X122053040Y-47722000D01*
X121552589Y-47722000D01*
X121418323Y-47721883D01*
X121170143Y-47824429D01*
X120980097Y-48014144D01*
X120877117Y-48262145D01*
X120876883Y-48530677D01*
X72044942Y-48530677D01*
X72045169Y-48271911D01*
X71897046Y-47913429D01*
X71623014Y-47638918D01*
X71347656Y-47524579D01*
X94156874Y-47524579D01*
X94267016Y-47791143D01*
X94470784Y-47995267D01*
X94737156Y-48105874D01*
X95025579Y-48106126D01*
X95292143Y-47995984D01*
X95496267Y-47792216D01*
X95546604Y-47670990D01*
X95679945Y-47537649D01*
X95800143Y-47487984D01*
X96004267Y-47284216D01*
X96054604Y-47162990D01*
X96121297Y-47096297D01*
X96267619Y-46877312D01*
X96319000Y-46619000D01*
X96319000Y-43407036D01*
X96422579Y-43407126D01*
X96689143Y-43296984D01*
X96893267Y-43093216D01*
X97003874Y-42826844D01*
X97004126Y-42538421D01*
X96893984Y-42271857D01*
X96690216Y-42067733D01*
X96423844Y-41957126D01*
X96135421Y-41956874D01*
X96014107Y-42007000D01*
X95908954Y-42007000D01*
X95788844Y-41957126D01*
X95500421Y-41956874D01*
X95233857Y-42067016D01*
X95029733Y-42270784D01*
X94919126Y-42537156D01*
X94918874Y-42825579D01*
X94969000Y-42946893D01*
X94969000Y-46268854D01*
X94775733Y-46461784D01*
X94725396Y-46583010D01*
X94592055Y-46716351D01*
X94471857Y-46766016D01*
X94267733Y-46969784D01*
X94157126Y-47236156D01*
X94156874Y-47524579D01*
X71347656Y-47524579D01*
X71264790Y-47490170D01*
X70876911Y-47489831D01*
X70518429Y-47637954D01*
X70243918Y-47911986D01*
X70095170Y-48270210D01*
X70094831Y-48658089D01*
X63806715Y-48658089D01*
X64015081Y-48200033D01*
X64048082Y-47235873D01*
X64041239Y-47217609D01*
X64060738Y-47208858D01*
X64293638Y-46692009D01*
X64311020Y-46125376D01*
X64110238Y-45595224D01*
X64060738Y-45521142D01*
X63839035Y-45421642D01*
X61934642Y-47326035D01*
X61934642Y-47326036D01*
X61625678Y-47635000D01*
X61590322Y-47635000D01*
X59925987Y-45970664D01*
X59600377Y-46191828D01*
X59200919Y-47069967D01*
X59167918Y-48034127D01*
X53860759Y-48034127D01*
X53888082Y-47235873D01*
X53549603Y-46332476D01*
X53455623Y-46191828D01*
X53130013Y-45970664D01*
X51465678Y-47635000D01*
X51430322Y-47635000D01*
X51121358Y-47326036D01*
X51121358Y-47326035D01*
X50146181Y-46350858D01*
X50163858Y-46333181D01*
X51139035Y-47308358D01*
X51139036Y-47308358D01*
X51448000Y-47617322D01*
X53112336Y-45952987D01*
X59943664Y-45952987D01*
X61608000Y-47617322D01*
X61916964Y-47308358D01*
X61916965Y-47308358D01*
X63821358Y-45403965D01*
X63721858Y-45182262D01*
X63205009Y-44949362D01*
X62638376Y-44931980D01*
X62108224Y-45132762D01*
X62034142Y-45182262D01*
X62016062Y-45222546D01*
X61208873Y-45194918D01*
X60305476Y-45533397D01*
X60164828Y-45627377D01*
X59943664Y-45952987D01*
X53112336Y-45952987D01*
X52891172Y-45627377D01*
X52013033Y-45227919D01*
X51048873Y-45194918D01*
X51030609Y-45201761D01*
X51021858Y-45182262D01*
X50505009Y-44949362D01*
X49938376Y-44931980D01*
X49408224Y-45132762D01*
X49408000Y-45132912D01*
X49408000Y-42190579D01*
X60882874Y-42190579D01*
X60993016Y-42457143D01*
X61196784Y-42661267D01*
X61463156Y-42771874D01*
X61751579Y-42772126D01*
X62018143Y-42661984D01*
X62118302Y-42562000D01*
X64185322Y-42562000D01*
X64398613Y-42650566D01*
X64687036Y-42650818D01*
X64953600Y-42540676D01*
X65157724Y-42336908D01*
X65268331Y-42070536D01*
X65268583Y-41782113D01*
X65158441Y-41515549D01*
X64954673Y-41311425D01*
X64688301Y-41200818D01*
X64399878Y-41200566D01*
X64133314Y-41310708D01*
X63929190Y-41514476D01*
X63921913Y-41532000D01*
X62118310Y-41532000D01*
X62019216Y-41432733D01*
X61752844Y-41322126D01*
X61464421Y-41321874D01*
X61197857Y-41432016D01*
X60993733Y-41635784D01*
X60883126Y-41902156D01*
X60882874Y-42190579D01*
X49408000Y-42190579D01*
X49408000Y-38021331D01*
X50026921Y-38641334D01*
X51358780Y-39194369D01*
X52800894Y-39195628D01*
X53480064Y-38915000D01*
X69224429Y-38915000D01*
X69292937Y-39259415D01*
X69488033Y-39551396D01*
X69780014Y-39746492D01*
X70124429Y-39815000D01*
X70465571Y-39815000D01*
X70809986Y-39746492D01*
X71101967Y-39551396D01*
X71297063Y-39259415D01*
X71365571Y-38915000D01*
X74224429Y-38915000D01*
X74292937Y-39259415D01*
X74488033Y-39551396D01*
X74780014Y-39746492D01*
X75124429Y-39815000D01*
X75465571Y-39815000D01*
X75809986Y-39746492D01*
X76101967Y-39551396D01*
X76297063Y-39259415D01*
X76365571Y-38915000D01*
X76297063Y-38570585D01*
X76101967Y-38278604D01*
X75809986Y-38083508D01*
X75465571Y-38015000D01*
X75124429Y-38015000D01*
X74780014Y-38083508D01*
X74488033Y-38278604D01*
X74292937Y-38570585D01*
X74224429Y-38915000D01*
X71365571Y-38915000D01*
X71297063Y-38570585D01*
X71101967Y-38278604D01*
X70809986Y-38083508D01*
X70465571Y-38015000D01*
X70124429Y-38015000D01*
X69780014Y-38083508D01*
X69488033Y-38278604D01*
X69292937Y-38570585D01*
X69224429Y-38915000D01*
X53480064Y-38915000D01*
X54133715Y-38644917D01*
X55154334Y-37626079D01*
X55707369Y-36294220D01*
X55707698Y-35916491D01*
X68370000Y-35916491D01*
X68370000Y-36513509D01*
X68440411Y-36867491D01*
X68640926Y-37167583D01*
X68941018Y-37368098D01*
X69295000Y-37438509D01*
X69648982Y-37368098D01*
X69949074Y-37167583D01*
X70149589Y-36867491D01*
X70220000Y-36513509D01*
X70220000Y-35916491D01*
X75370000Y-35916491D01*
X75370000Y-36513509D01*
X75440411Y-36867491D01*
X75640926Y-37167583D01*
X75941018Y-37368098D01*
X76295000Y-37438509D01*
X76648982Y-37368098D01*
X76898415Y-37201432D01*
X77924597Y-37201432D01*
X78278571Y-38058114D01*
X78933438Y-38714126D01*
X79789501Y-39069594D01*
X80716432Y-39070403D01*
X81573114Y-38716429D01*
X81915463Y-38374677D01*
X85929794Y-38374677D01*
X86109820Y-38810372D01*
X86442875Y-39144009D01*
X86878255Y-39324794D01*
X87349677Y-39325206D01*
X87785372Y-39145180D01*
X88119009Y-38812125D01*
X88299794Y-38376745D01*
X88299795Y-38374677D01*
X88719794Y-38374677D01*
X88899820Y-38810372D01*
X89232875Y-39144009D01*
X89668255Y-39324794D01*
X90139677Y-39325206D01*
X90575372Y-39145180D01*
X90909009Y-38812125D01*
X91089794Y-38376745D01*
X91089795Y-38374677D01*
X91509794Y-38374677D01*
X91689820Y-38810372D01*
X92022875Y-39144009D01*
X92458255Y-39324794D01*
X92929677Y-39325206D01*
X93365372Y-39145180D01*
X93699009Y-38812125D01*
X93879794Y-38376745D01*
X93879795Y-38374677D01*
X94309794Y-38374677D01*
X94489820Y-38810372D01*
X94822875Y-39144009D01*
X95258255Y-39324794D01*
X95729677Y-39325206D01*
X96165372Y-39145180D01*
X96499009Y-38812125D01*
X96679794Y-38376745D01*
X96679795Y-38374677D01*
X97099794Y-38374677D01*
X97279820Y-38810372D01*
X97612875Y-39144009D01*
X98048255Y-39324794D01*
X98519677Y-39325206D01*
X98955372Y-39145180D01*
X99172935Y-38927996D01*
X100184681Y-38927996D01*
X100254980Y-39124762D01*
X100685118Y-39317687D01*
X101156343Y-39331321D01*
X101596916Y-39163587D01*
X101655020Y-39124762D01*
X101725319Y-38927996D01*
X100955000Y-38157678D01*
X100184681Y-38927996D01*
X99172935Y-38927996D01*
X99289009Y-38812125D01*
X99469794Y-38376745D01*
X99469824Y-38341343D01*
X99763679Y-38341343D01*
X99931413Y-38781916D01*
X99970238Y-38840020D01*
X100167004Y-38910319D01*
X100937322Y-38140000D01*
X100972678Y-38140000D01*
X101742996Y-38910319D01*
X101939762Y-38840020D01*
X102132687Y-38409882D01*
X102133705Y-38374677D01*
X102559794Y-38374677D01*
X102739820Y-38810372D01*
X103072875Y-39144009D01*
X103508255Y-39324794D01*
X103979677Y-39325206D01*
X104415372Y-39145180D01*
X104749009Y-38812125D01*
X104929794Y-38376745D01*
X104929795Y-38374677D01*
X105359794Y-38374677D01*
X105539820Y-38810372D01*
X105872875Y-39144009D01*
X106308255Y-39324794D01*
X106779677Y-39325206D01*
X107215372Y-39145180D01*
X107549009Y-38812125D01*
X107729794Y-38376745D01*
X107729795Y-38374677D01*
X108149794Y-38374677D01*
X108329820Y-38810372D01*
X108662875Y-39144009D01*
X109098255Y-39324794D01*
X109569677Y-39325206D01*
X110005372Y-39145180D01*
X110222935Y-38927996D01*
X111354681Y-38927996D01*
X111424980Y-39124762D01*
X111855118Y-39317687D01*
X112326343Y-39331321D01*
X112766916Y-39163587D01*
X112825020Y-39124762D01*
X112895319Y-38927996D01*
X112125000Y-38157678D01*
X111354681Y-38927996D01*
X110222935Y-38927996D01*
X110339009Y-38812125D01*
X110519794Y-38376745D01*
X110519824Y-38341343D01*
X110933679Y-38341343D01*
X111101413Y-38781916D01*
X111140238Y-38840020D01*
X111337004Y-38910319D01*
X112107322Y-38140000D01*
X112142678Y-38140000D01*
X112912996Y-38910319D01*
X113109762Y-38840020D01*
X113302687Y-38409882D01*
X113303705Y-38374677D01*
X113609794Y-38374677D01*
X113789820Y-38810372D01*
X114122875Y-39144009D01*
X114558255Y-39324794D01*
X115029677Y-39325206D01*
X115465372Y-39145180D01*
X115799009Y-38812125D01*
X115979794Y-38376745D01*
X115979795Y-38374677D01*
X116409794Y-38374677D01*
X116589820Y-38810372D01*
X116922875Y-39144009D01*
X117358255Y-39324794D01*
X117829677Y-39325206D01*
X118265372Y-39145180D01*
X118599009Y-38812125D01*
X118779794Y-38376745D01*
X118780206Y-37905323D01*
X118600180Y-37469628D01*
X118510709Y-37380000D01*
X119191674Y-37380000D01*
X119191674Y-38900000D01*
X119221309Y-39057496D01*
X119314389Y-39202146D01*
X119456412Y-39299186D01*
X119625000Y-39333326D01*
X121145000Y-39333326D01*
X121302496Y-39303691D01*
X121447146Y-39210611D01*
X121544186Y-39068588D01*
X121578326Y-38900000D01*
X121578326Y-37380000D01*
X121548691Y-37222504D01*
X121535132Y-37201432D01*
X124914597Y-37201432D01*
X125268571Y-38058114D01*
X125923438Y-38714126D01*
X126779501Y-39069594D01*
X127706432Y-39070403D01*
X128563114Y-38716429D01*
X129219126Y-38061562D01*
X129574594Y-37205499D01*
X129575403Y-36278568D01*
X129221429Y-35421886D01*
X128566562Y-34765874D01*
X127710499Y-34410406D01*
X126783568Y-34409597D01*
X125926886Y-34763571D01*
X125270874Y-35418438D01*
X124915406Y-36274501D01*
X124914597Y-37201432D01*
X121535132Y-37201432D01*
X121455611Y-37077854D01*
X121313588Y-36980814D01*
X121145000Y-36946674D01*
X119625000Y-36946674D01*
X119467504Y-36976309D01*
X119322854Y-37069389D01*
X119225814Y-37211412D01*
X119191674Y-37380000D01*
X118510709Y-37380000D01*
X118267125Y-37135991D01*
X117831745Y-36955206D01*
X117360323Y-36954794D01*
X116924628Y-37134820D01*
X116590991Y-37467875D01*
X116410206Y-37903255D01*
X116409794Y-38374677D01*
X115979795Y-38374677D01*
X115980206Y-37905323D01*
X115800180Y-37469628D01*
X115467125Y-37135991D01*
X115031745Y-36955206D01*
X114560323Y-36954794D01*
X114124628Y-37134820D01*
X113790991Y-37467875D01*
X113610206Y-37903255D01*
X113609794Y-38374677D01*
X113303705Y-38374677D01*
X113316321Y-37938657D01*
X113148587Y-37498084D01*
X113109762Y-37439980D01*
X112912996Y-37369681D01*
X112142678Y-38140000D01*
X112107322Y-38140000D01*
X111337004Y-37369681D01*
X111140238Y-37439980D01*
X110947313Y-37870118D01*
X110933679Y-38341343D01*
X110519824Y-38341343D01*
X110520206Y-37905323D01*
X110340180Y-37469628D01*
X110222762Y-37352004D01*
X111354681Y-37352004D01*
X112125000Y-38122322D01*
X112895319Y-37352004D01*
X112825020Y-37155238D01*
X112394882Y-36962313D01*
X111923657Y-36948679D01*
X111483084Y-37116413D01*
X111424980Y-37155238D01*
X111354681Y-37352004D01*
X110222762Y-37352004D01*
X110007125Y-37135991D01*
X109571745Y-36955206D01*
X109100323Y-36954794D01*
X108664628Y-37134820D01*
X108330991Y-37467875D01*
X108150206Y-37903255D01*
X108149794Y-38374677D01*
X107729795Y-38374677D01*
X107730206Y-37905323D01*
X107550180Y-37469628D01*
X107217125Y-37135991D01*
X106781745Y-36955206D01*
X106310323Y-36954794D01*
X105874628Y-37134820D01*
X105540991Y-37467875D01*
X105360206Y-37903255D01*
X105359794Y-38374677D01*
X104929795Y-38374677D01*
X104930206Y-37905323D01*
X104750180Y-37469628D01*
X104417125Y-37135991D01*
X103981745Y-36955206D01*
X103510323Y-36954794D01*
X103074628Y-37134820D01*
X102740991Y-37467875D01*
X102560206Y-37903255D01*
X102559794Y-38374677D01*
X102133705Y-38374677D01*
X102146321Y-37938657D01*
X101978587Y-37498084D01*
X101939762Y-37439980D01*
X101742996Y-37369681D01*
X100972678Y-38140000D01*
X100937322Y-38140000D01*
X100167004Y-37369681D01*
X99970238Y-37439980D01*
X99777313Y-37870118D01*
X99763679Y-38341343D01*
X99469824Y-38341343D01*
X99470206Y-37905323D01*
X99290180Y-37469628D01*
X99172762Y-37352004D01*
X100184681Y-37352004D01*
X100955000Y-38122322D01*
X101725319Y-37352004D01*
X101655020Y-37155238D01*
X101224882Y-36962313D01*
X100753657Y-36948679D01*
X100313084Y-37116413D01*
X100254980Y-37155238D01*
X100184681Y-37352004D01*
X99172762Y-37352004D01*
X98957125Y-37135991D01*
X98521745Y-36955206D01*
X98050323Y-36954794D01*
X97614628Y-37134820D01*
X97280991Y-37467875D01*
X97100206Y-37903255D01*
X97099794Y-38374677D01*
X96679795Y-38374677D01*
X96680206Y-37905323D01*
X96500180Y-37469628D01*
X96167125Y-37135991D01*
X95731745Y-36955206D01*
X95260323Y-36954794D01*
X94824628Y-37134820D01*
X94490991Y-37467875D01*
X94310206Y-37903255D01*
X94309794Y-38374677D01*
X93879795Y-38374677D01*
X93880206Y-37905323D01*
X93700180Y-37469628D01*
X93367125Y-37135991D01*
X92931745Y-36955206D01*
X92460323Y-36954794D01*
X92024628Y-37134820D01*
X91690991Y-37467875D01*
X91510206Y-37903255D01*
X91509794Y-38374677D01*
X91089795Y-38374677D01*
X91090206Y-37905323D01*
X90910180Y-37469628D01*
X90577125Y-37135991D01*
X90141745Y-36955206D01*
X89670323Y-36954794D01*
X89234628Y-37134820D01*
X88900991Y-37467875D01*
X88720206Y-37903255D01*
X88719794Y-38374677D01*
X88299795Y-38374677D01*
X88300206Y-37905323D01*
X88120180Y-37469628D01*
X87787125Y-37135991D01*
X87351745Y-36955206D01*
X86880323Y-36954794D01*
X86444628Y-37134820D01*
X86110991Y-37467875D01*
X85930206Y-37903255D01*
X85929794Y-38374677D01*
X81915463Y-38374677D01*
X82229126Y-38061562D01*
X82584594Y-37205499D01*
X82585403Y-36278568D01*
X82527320Y-36137996D01*
X87734681Y-36137996D01*
X87804980Y-36334762D01*
X88235118Y-36527687D01*
X88706343Y-36541321D01*
X89146916Y-36373587D01*
X89205020Y-36334762D01*
X89275319Y-36137996D01*
X88505000Y-35367678D01*
X87734681Y-36137996D01*
X82527320Y-36137996D01*
X82231429Y-35421886D01*
X81576562Y-34765874D01*
X80720499Y-34410406D01*
X79793568Y-34409597D01*
X78936886Y-34763571D01*
X78280874Y-35418438D01*
X77925406Y-36274501D01*
X77924597Y-37201432D01*
X76898415Y-37201432D01*
X76949074Y-37167583D01*
X77149589Y-36867491D01*
X77220000Y-36513509D01*
X77220000Y-35916491D01*
X77149589Y-35562509D01*
X76949074Y-35262417D01*
X76648982Y-35061902D01*
X76295000Y-34991491D01*
X75941018Y-35061902D01*
X75640926Y-35262417D01*
X75440411Y-35562509D01*
X75370000Y-35916491D01*
X70220000Y-35916491D01*
X70149589Y-35562509D01*
X69949074Y-35262417D01*
X69648982Y-35061902D01*
X69295000Y-34991491D01*
X68941018Y-35061902D01*
X68640926Y-35262417D01*
X68440411Y-35562509D01*
X68370000Y-35916491D01*
X55707698Y-35916491D01*
X55708628Y-34852106D01*
X55157917Y-33519285D01*
X54534721Y-32895000D01*
X61854183Y-32895000D01*
X61174229Y-33574953D01*
X61174229Y-33574953D01*
G37*
X61174229Y-33574953D02*
X61083421Y-33574874D01*
X60816857Y-33685016D01*
X60612733Y-33888784D01*
X60502126Y-34155156D01*
X60501874Y-34443579D01*
X60612016Y-34710143D01*
X60815784Y-34914267D01*
X61082156Y-35024874D01*
X61370579Y-35025126D01*
X61637143Y-34914984D01*
X61841267Y-34711216D01*
X61951874Y-34444844D01*
X61951954Y-34352863D01*
X62851817Y-33453000D01*
X85510182Y-33453000D01*
X86282953Y-34225771D01*
X86282874Y-34316579D01*
X86393016Y-34583143D01*
X86596784Y-34787267D01*
X86863156Y-34897874D01*
X87151579Y-34898126D01*
X87418143Y-34787984D01*
X87490930Y-34715324D01*
X87327313Y-35080118D01*
X87313679Y-35551343D01*
X87481413Y-35991916D01*
X87520238Y-36050020D01*
X87717004Y-36120319D01*
X88487322Y-35350000D01*
X88522678Y-35350000D01*
X89292996Y-36120319D01*
X89489762Y-36050020D01*
X89682687Y-35619882D01*
X89683705Y-35584677D01*
X90119794Y-35584677D01*
X90299820Y-36020372D01*
X90632875Y-36354009D01*
X91068255Y-36534794D01*
X91539677Y-36535206D01*
X91975372Y-36355180D01*
X92309009Y-36022125D01*
X92489794Y-35586745D01*
X92489795Y-35584677D01*
X92909794Y-35584677D01*
X93089820Y-36020372D01*
X93422875Y-36354009D01*
X93858255Y-36534794D01*
X94329677Y-36535206D01*
X94765372Y-36355180D01*
X95099009Y-36022125D01*
X95279794Y-35586745D01*
X95279795Y-35584677D01*
X95579794Y-35584677D01*
X95759820Y-36020372D01*
X96092875Y-36354009D01*
X96528255Y-36534794D01*
X96999677Y-36535206D01*
X97435372Y-36355180D01*
X97769009Y-36022125D01*
X97949794Y-35586745D01*
X97949795Y-35584677D01*
X98369794Y-35584677D01*
X98549820Y-36020372D01*
X98882875Y-36354009D01*
X99318255Y-36534794D01*
X99789677Y-36535206D01*
X100225372Y-36355180D01*
X100442935Y-36137996D01*
X101584681Y-36137996D01*
X101654980Y-36334762D01*
X102085118Y-36527687D01*
X102556343Y-36541321D01*
X102996916Y-36373587D01*
X103055020Y-36334762D01*
X103125319Y-36137996D01*
X102355000Y-35367678D01*
X101584681Y-36137996D01*
X100442935Y-36137996D01*
X100559009Y-36022125D01*
X100739794Y-35586745D01*
X100739824Y-35551343D01*
X101163679Y-35551343D01*
X101331413Y-35991916D01*
X101370238Y-36050020D01*
X101567004Y-36120319D01*
X102337322Y-35350000D01*
X102372678Y-35350000D01*
X103142996Y-36120319D01*
X103339762Y-36050020D01*
X103532687Y-35619882D01*
X103533705Y-35584677D01*
X103959794Y-35584677D01*
X104139820Y-36020372D01*
X104472875Y-36354009D01*
X104908255Y-36534794D01*
X105379677Y-36535206D01*
X105815372Y-36355180D01*
X106149009Y-36022125D01*
X106329794Y-35586745D01*
X106329795Y-35584677D01*
X106749794Y-35584677D01*
X106929820Y-36020372D01*
X107262875Y-36354009D01*
X107698255Y-36534794D01*
X108169677Y-36535206D01*
X108605372Y-36355180D01*
X108939009Y-36022125D01*
X109119794Y-35586745D01*
X109119795Y-35584677D01*
X109419794Y-35584677D01*
X109599820Y-36020372D01*
X109932875Y-36354009D01*
X110368255Y-36534794D01*
X110839677Y-36535206D01*
X111275372Y-36355180D01*
X111609009Y-36022125D01*
X111789794Y-35586745D01*
X111789795Y-35584677D01*
X112209794Y-35584677D01*
X112389820Y-36020372D01*
X112722875Y-36354009D01*
X113158255Y-36534794D01*
X113629677Y-36535206D01*
X114065372Y-36355180D01*
X114399009Y-36022125D01*
X114579794Y-35586745D01*
X114579795Y-35584677D01*
X115009794Y-35584677D01*
X115189820Y-36020372D01*
X115522875Y-36354009D01*
X115958255Y-36534794D01*
X116429677Y-36535206D01*
X116865372Y-36355180D01*
X117199009Y-36022125D01*
X117379794Y-35586745D01*
X117379795Y-35584677D01*
X117799794Y-35584677D01*
X117979820Y-36020372D01*
X118312875Y-36354009D01*
X118748255Y-36534794D01*
X119219677Y-36535206D01*
X119655372Y-36355180D01*
X119989009Y-36022125D01*
X120169794Y-35586745D01*
X120170206Y-35115323D01*
X119990180Y-34679628D01*
X119657125Y-34345991D01*
X119221745Y-34165206D01*
X118750323Y-34164794D01*
X118314628Y-34344820D01*
X117980991Y-34677875D01*
X117800206Y-35113255D01*
X117799794Y-35584677D01*
X117379795Y-35584677D01*
X117380206Y-35115323D01*
X117200180Y-34679628D01*
X116867125Y-34345991D01*
X116431745Y-34165206D01*
X115960323Y-34164794D01*
X115524628Y-34344820D01*
X115190991Y-34677875D01*
X115010206Y-35113255D01*
X115009794Y-35584677D01*
X114579795Y-35584677D01*
X114580206Y-35115323D01*
X114400180Y-34679628D01*
X114067125Y-34345991D01*
X113631745Y-34165206D01*
X113160323Y-34164794D01*
X112724628Y-34344820D01*
X112390991Y-34677875D01*
X112210206Y-35113255D01*
X112209794Y-35584677D01*
X111789795Y-35584677D01*
X111790206Y-35115323D01*
X111610180Y-34679628D01*
X111277125Y-34345991D01*
X110841745Y-34165206D01*
X110370323Y-34164794D01*
X109934628Y-34344820D01*
X109600991Y-34677875D01*
X109420206Y-35113255D01*
X109419794Y-35584677D01*
X109119795Y-35584677D01*
X109120206Y-35115323D01*
X108940180Y-34679628D01*
X108607125Y-34345991D01*
X108171745Y-34165206D01*
X107700323Y-34164794D01*
X107264628Y-34344820D01*
X106930991Y-34677875D01*
X106750206Y-35113255D01*
X106749794Y-35584677D01*
X106329795Y-35584677D01*
X106330206Y-35115323D01*
X106150180Y-34679628D01*
X105817125Y-34345991D01*
X105381745Y-34165206D01*
X104910323Y-34164794D01*
X104474628Y-34344820D01*
X104140991Y-34677875D01*
X103960206Y-35113255D01*
X103959794Y-35584677D01*
X103533705Y-35584677D01*
X103546321Y-35148657D01*
X103378587Y-34708084D01*
X103339762Y-34649980D01*
X103142996Y-34579681D01*
X102372678Y-35350000D01*
X102337322Y-35350000D01*
X101567004Y-34579681D01*
X101370238Y-34649980D01*
X101177313Y-35080118D01*
X101163679Y-35551343D01*
X100739824Y-35551343D01*
X100740206Y-35115323D01*
X100560180Y-34679628D01*
X100442762Y-34562004D01*
X101584681Y-34562004D01*
X102355000Y-35332322D01*
X103125319Y-34562004D01*
X103055020Y-34365238D01*
X102624882Y-34172313D01*
X102153657Y-34158679D01*
X101713084Y-34326413D01*
X101654980Y-34365238D01*
X101584681Y-34562004D01*
X100442762Y-34562004D01*
X100227125Y-34345991D01*
X99791745Y-34165206D01*
X99320323Y-34164794D01*
X98884628Y-34344820D01*
X98550991Y-34677875D01*
X98370206Y-35113255D01*
X98369794Y-35584677D01*
X97949795Y-35584677D01*
X97950206Y-35115323D01*
X97770180Y-34679628D01*
X97437125Y-34345991D01*
X97001745Y-34165206D01*
X96530323Y-34164794D01*
X96094628Y-34344820D01*
X95760991Y-34677875D01*
X95580206Y-35113255D01*
X95579794Y-35584677D01*
X95279795Y-35584677D01*
X95280206Y-35115323D01*
X95100180Y-34679628D01*
X94767125Y-34345991D01*
X94331745Y-34165206D01*
X93860323Y-34164794D01*
X93424628Y-34344820D01*
X93090991Y-34677875D01*
X92910206Y-35113255D01*
X92909794Y-35584677D01*
X92489795Y-35584677D01*
X92490206Y-35115323D01*
X92310180Y-34679628D01*
X91977125Y-34345991D01*
X91541745Y-34165206D01*
X91070323Y-34164794D01*
X90634628Y-34344820D01*
X90300991Y-34677875D01*
X90120206Y-35113255D01*
X90119794Y-35584677D01*
X89683705Y-35584677D01*
X89696321Y-35148657D01*
X89528587Y-34708084D01*
X89489762Y-34649980D01*
X89292996Y-34579681D01*
X88522678Y-35350000D01*
X88487322Y-35350000D01*
X88473180Y-35335858D01*
X88490858Y-35318180D01*
X88505000Y-35332322D01*
X89275319Y-34562004D01*
X89205020Y-34365238D01*
X88774882Y-34172313D01*
X88303657Y-34158679D01*
X87863084Y-34326413D01*
X87804980Y-34365238D01*
X87734682Y-34562002D01*
X87661768Y-34489088D01*
X87732874Y-34317844D01*
X87733126Y-34029421D01*
X87622984Y-33762857D01*
X87419216Y-33558733D01*
X87152844Y-33448126D01*
X87060864Y-33448046D01*
X86507818Y-32895000D01*
X139166669Y-32895000D01*
X138546666Y-33513921D01*
X137993631Y-34845780D01*
X137992372Y-36287894D01*
X138543083Y-37620715D01*
X139561921Y-38641334D01*
X140893780Y-39194369D01*
X142335894Y-39195628D01*
X143668715Y-38644917D01*
X144293000Y-38021721D01*
X144293000Y-44085298D01*
X144195540Y-43939439D01*
X143781900Y-43663054D01*
X143293979Y-43566000D01*
X143244021Y-43566000D01*
X142756100Y-43663054D01*
X142342460Y-43939439D01*
X142066075Y-44353079D01*
X141969021Y-44841000D01*
X142066075Y-45328921D01*
X142342460Y-45742561D01*
X142756100Y-46018946D01*
X143244021Y-46116000D01*
X143256498Y-46116000D01*
X143256498Y-46212309D01*
X143057209Y-46123712D01*
X142592187Y-46300466D01*
X142230204Y-46641722D01*
X142026368Y-47095526D01*
X142011713Y-47169209D01*
X142100317Y-47368500D01*
X143256500Y-47368500D01*
X143256500Y-47348500D01*
X143281500Y-47348500D01*
X143281500Y-47368500D01*
X143301500Y-47368500D01*
X143301500Y-47393500D01*
X143281500Y-47393500D01*
X143281500Y-47413500D01*
X143256500Y-47413500D01*
X143256500Y-47393500D01*
X142100317Y-47393500D01*
X142011713Y-47592791D01*
X142026368Y-47666474D01*
X142230204Y-48120278D01*
X142592187Y-48461534D01*
X143055594Y-48637674D01*
X142419000Y-48637674D01*
X142261504Y-48667309D01*
X142116854Y-48760389D01*
X142019814Y-48902412D01*
X141985674Y-49071000D01*
X141985674Y-50771000D01*
X142015309Y-50928496D01*
X142108389Y-51073146D01*
X142250412Y-51170186D01*
X142419000Y-51204326D01*
X144119000Y-51204326D01*
X144276496Y-51174691D01*
X144293000Y-51164071D01*
X144293000Y-75028669D01*
X143674079Y-74408666D01*
X142342220Y-73855631D01*
X140900106Y-73854372D01*
X139567285Y-74405083D01*
X138546666Y-75423921D01*
X137993631Y-76755780D01*
X137992372Y-78197894D01*
X138543083Y-79530715D01*
X139166279Y-80155000D01*
X104064331Y-80155000D01*
X104684334Y-79536079D01*
X105237369Y-78204220D01*
X105238628Y-76762106D01*
X104917474Y-75984854D01*
X132644545Y-75984854D01*
X133043336Y-76950001D01*
X133781115Y-77689069D01*
X134745564Y-78089544D01*
X135789854Y-78090455D01*
X136755001Y-77691664D01*
X137494069Y-76953885D01*
X137894544Y-75989436D01*
X137895455Y-74945146D01*
X137496664Y-73979999D01*
X136758885Y-73240931D01*
X135794436Y-72840456D01*
X134750146Y-72839545D01*
X133784999Y-73238336D01*
X133045931Y-73976115D01*
X132645456Y-74940564D01*
X132644545Y-75984854D01*
X104917474Y-75984854D01*
X104687917Y-75429285D01*
X103669079Y-74408666D01*
X102337220Y-73855631D01*
X100895106Y-73854372D01*
X99562285Y-74405083D01*
X98541666Y-75423921D01*
X97988631Y-76755780D01*
X97987372Y-78197894D01*
X98538083Y-79530715D01*
X99161279Y-80155000D01*
X54534331Y-80155000D01*
X55154334Y-79536079D01*
X55707369Y-78204220D01*
X55708628Y-76762106D01*
X55387474Y-75984854D01*
X71044545Y-75984854D01*
X71443336Y-76950001D01*
X72181115Y-77689069D01*
X73145564Y-78089544D01*
X74189854Y-78090455D01*
X75155001Y-77691664D01*
X75894069Y-76953885D01*
X76294544Y-75989436D01*
X76295455Y-74945146D01*
X75896664Y-73979999D01*
X75158885Y-73240931D01*
X74194436Y-72840456D01*
X73150146Y-72839545D01*
X72184999Y-73238336D01*
X71445931Y-73976115D01*
X71045456Y-74940564D01*
X71044545Y-75984854D01*
X55387474Y-75984854D01*
X55157917Y-75429285D01*
X54139079Y-74408666D01*
X52807220Y-73855631D01*
X51365106Y-73854372D01*
X50032285Y-74405083D01*
X49408000Y-75028279D01*
X49408000Y-63002000D01*
X91921000Y-63002000D01*
X91921000Y-66591000D01*
X91972381Y-66849312D01*
X92118703Y-67068297D01*
X92405351Y-67354945D01*
X92455016Y-67475143D01*
X92658784Y-67679267D01*
X92925156Y-67789874D01*
X93213579Y-67790126D01*
X93334893Y-67740000D01*
X95518024Y-67740000D01*
X95776336Y-67688619D01*
X95995321Y-67542297D01*
X96060945Y-67476673D01*
X96181143Y-67427008D01*
X96385267Y-67223240D01*
X96495874Y-66956868D01*
X96496126Y-66668445D01*
X96385984Y-66401881D01*
X96182216Y-66197757D01*
X95915844Y-66087150D01*
X95627421Y-66086898D01*
X95360857Y-66197040D01*
X95167560Y-66390000D01*
X93349594Y-66390000D01*
X93271000Y-66311406D01*
X93271000Y-63352146D01*
X93464267Y-63159216D01*
X93574874Y-62892844D01*
X93575126Y-62604421D01*
X93464984Y-62337857D01*
X93261216Y-62133733D01*
X92994844Y-62023126D01*
X92706421Y-62022874D01*
X92439857Y-62133016D01*
X92235733Y-62336784D01*
X92185396Y-62458010D01*
X92118703Y-62524703D01*
X91972381Y-62743688D01*
X91972381Y-62743689D01*
X91921000Y-63002000D01*
X49408000Y-63002000D01*
X49408000Y-60281020D01*
X49850991Y-60480638D01*
X50417624Y-60498020D01*
X50947776Y-60297238D01*
X51021858Y-60247738D01*
X51039938Y-60207454D01*
X51847127Y-60235082D01*
X52750524Y-59896603D01*
X52891172Y-59802623D01*
X53112336Y-59477013D01*
X59943664Y-59477013D01*
X60164828Y-59802623D01*
X61042967Y-60202081D01*
X62007127Y-60235082D01*
X62025391Y-60228239D01*
X62034142Y-60247738D01*
X62550991Y-60480638D01*
X63117624Y-60498020D01*
X63647776Y-60297238D01*
X63721858Y-60247738D01*
X63821358Y-60026035D01*
X61916965Y-58121642D01*
X61916964Y-58121642D01*
X61608000Y-57812678D01*
X59943664Y-59477013D01*
X53112336Y-59477013D01*
X51448000Y-57812678D01*
X51139036Y-58121642D01*
X50648717Y-58611960D01*
X50163858Y-59096820D01*
X50146181Y-59079143D01*
X51121358Y-58103965D01*
X51121358Y-58103964D01*
X51430322Y-57795000D01*
X51465678Y-57795000D01*
X53130013Y-59459336D01*
X53455623Y-59238172D01*
X53855081Y-58360033D01*
X53860759Y-58194127D01*
X59167918Y-58194127D01*
X59506397Y-59097524D01*
X59600377Y-59238172D01*
X59925987Y-59459336D01*
X61590322Y-57795000D01*
X61625678Y-57795000D01*
X61934642Y-58103964D01*
X61934642Y-58103965D01*
X63839035Y-60008358D01*
X64060738Y-59908858D01*
X64293638Y-59392009D01*
X64311020Y-58825376D01*
X64110238Y-58295224D01*
X64060738Y-58221142D01*
X64020454Y-58203062D01*
X64048082Y-57395873D01*
X63709603Y-56492476D01*
X63615623Y-56351828D01*
X63290013Y-56130664D01*
X61625678Y-57795000D01*
X61590322Y-57795000D01*
X59925987Y-56130664D01*
X59600377Y-56351828D01*
X59200919Y-57229967D01*
X59167918Y-58194127D01*
X53860759Y-58194127D01*
X53888082Y-57395873D01*
X53549603Y-56492476D01*
X53455623Y-56351828D01*
X53130013Y-56130664D01*
X51465678Y-57795000D01*
X51430322Y-57795000D01*
X49765987Y-56130664D01*
X49440377Y-56351828D01*
X49408000Y-56423003D01*
X49408000Y-56112987D01*
X49783664Y-56112987D01*
X51448000Y-57777322D01*
X53112336Y-56112987D01*
X53084386Y-56071836D01*
X55728841Y-56071836D01*
X55804007Y-56272758D01*
X56248596Y-56472346D01*
X56735723Y-56486605D01*
X57191225Y-56313362D01*
X57251993Y-56272758D01*
X57311764Y-56112987D01*
X59943664Y-56112987D01*
X61608000Y-57777322D01*
X63272336Y-56112987D01*
X63051172Y-55787377D01*
X62173033Y-55387919D01*
X61208873Y-55354918D01*
X60305476Y-55693397D01*
X60164828Y-55787377D01*
X59943664Y-56112987D01*
X57311764Y-56112987D01*
X57327159Y-56071836D01*
X56528000Y-55272678D01*
X55728841Y-56071836D01*
X53084386Y-56071836D01*
X52891172Y-55787377D01*
X52177477Y-55462723D01*
X55296395Y-55462723D01*
X55469638Y-55918225D01*
X55510242Y-55978993D01*
X55711164Y-56054159D01*
X56510322Y-55255000D01*
X56545678Y-55255000D01*
X57344836Y-56054159D01*
X57545758Y-55978993D01*
X57745346Y-55534404D01*
X57759605Y-55047277D01*
X57586362Y-54591775D01*
X57545758Y-54531007D01*
X57344836Y-54455841D01*
X56545678Y-55255000D01*
X56510322Y-55255000D01*
X55711164Y-54455841D01*
X55510242Y-54531007D01*
X55310654Y-54975596D01*
X55296395Y-55462723D01*
X52177477Y-55462723D01*
X52013033Y-55387919D01*
X51048873Y-55354918D01*
X50145476Y-55693397D01*
X50004828Y-55787377D01*
X49783664Y-56112987D01*
X49408000Y-56112987D01*
X49408000Y-54438164D01*
X55728841Y-54438164D01*
X56528000Y-55237322D01*
X57327159Y-54438164D01*
X57258853Y-54255579D01*
X92124874Y-54255579D01*
X92235016Y-54522143D01*
X92438784Y-54726267D01*
X92705156Y-54836874D01*
X92993579Y-54837126D01*
X93114893Y-54787000D01*
X93220046Y-54787000D01*
X93340156Y-54836874D01*
X93628579Y-54837126D01*
X93895143Y-54726984D01*
X94099267Y-54523216D01*
X94149604Y-54401990D01*
X94343297Y-54208297D01*
X94457317Y-54037654D01*
X94489619Y-53989311D01*
X94541000Y-53731000D01*
X94541000Y-50900036D01*
X94644579Y-50900126D01*
X94911143Y-50789984D01*
X95115267Y-50586216D01*
X95225874Y-50319844D01*
X95226126Y-50031421D01*
X95115984Y-49764857D01*
X94912216Y-49560733D01*
X94645844Y-49450126D01*
X94357421Y-49449874D01*
X94236107Y-49500000D01*
X94130954Y-49500000D01*
X94010844Y-49450126D01*
X93722421Y-49449874D01*
X93455857Y-49560016D01*
X93251733Y-49763784D01*
X93141126Y-50030156D01*
X93140874Y-50318579D01*
X93191000Y-50439893D01*
X93191000Y-53437000D01*
X93114954Y-53437000D01*
X92994844Y-53387126D01*
X92706421Y-53386874D01*
X92439857Y-53497016D01*
X92235733Y-53700784D01*
X92125126Y-53967156D01*
X92124874Y-54255579D01*
X57258853Y-54255579D01*
X57251993Y-54237242D01*
X56807404Y-54037654D01*
X56320277Y-54023395D01*
X55864775Y-54196638D01*
X55804007Y-54237242D01*
X55728841Y-54438164D01*
X49408000Y-54438164D01*
X49408000Y-52957599D01*
X55302788Y-52957599D01*
X55488890Y-53408000D01*
X55833187Y-53752899D01*
X56283263Y-53939787D01*
X56770599Y-53940212D01*
X57221000Y-53754110D01*
X57565899Y-53409813D01*
X57646792Y-53215000D01*
X63005000Y-53215000D01*
X63196342Y-53176940D01*
X63358553Y-53068553D01*
X65925105Y-50502001D01*
X82224692Y-50502001D01*
X82275325Y-50552723D01*
X82514141Y-50651888D01*
X82772727Y-50652113D01*
X83011715Y-50553365D01*
X83194723Y-50370677D01*
X83293888Y-50131861D01*
X83294113Y-49873275D01*
X83195365Y-49634287D01*
X83012677Y-49451279D01*
X82773861Y-49352114D01*
X82515275Y-49351889D01*
X82276287Y-49450637D01*
X82224833Y-49502001D01*
X65717999Y-49502001D01*
X65526657Y-49540061D01*
X65364446Y-49648448D01*
X62797894Y-52215000D01*
X57646856Y-52215000D01*
X57567110Y-52022000D01*
X57222813Y-51677101D01*
X56772737Y-51490213D01*
X56285401Y-51489788D01*
X55835000Y-51675890D01*
X55490101Y-52020187D01*
X55303213Y-52470263D01*
X55302788Y-52957599D01*
X49408000Y-52957599D01*
X49408000Y-49317013D01*
X49783664Y-49317013D01*
X50004828Y-49642623D01*
X50882967Y-50042081D01*
X51847127Y-50075082D01*
X52750524Y-49736603D01*
X52891172Y-49642623D01*
X53112336Y-49317013D01*
X59943664Y-49317013D01*
X60164828Y-49642623D01*
X61042967Y-50042081D01*
X62007127Y-50075082D01*
X62910524Y-49736603D01*
X63051172Y-49642623D01*
X63272336Y-49317013D01*
X61608000Y-47652678D01*
X59943664Y-49317013D01*
X53112336Y-49317013D01*
X51448000Y-47652678D01*
X49783664Y-49317013D01*
X49408000Y-49317013D01*
X49408000Y-49029717D01*
X49440377Y-49078172D01*
X49765987Y-49299336D01*
X51430322Y-47635000D01*
X51465678Y-47635000D01*
X53130013Y-49299336D01*
X53455623Y-49078172D01*
X53855081Y-48200033D01*
X53860759Y-48034127D01*
X59167918Y-48034127D01*
X59506397Y-48937524D01*
X59600377Y-49078172D01*
X59925987Y-49299336D01*
X61590322Y-47635000D01*
X61625678Y-47635000D01*
X63290013Y-49299336D01*
X63615623Y-49078172D01*
X63806715Y-48658089D01*
X70094831Y-48658089D01*
X70242954Y-49016571D01*
X70516986Y-49291082D01*
X70875210Y-49439830D01*
X71263089Y-49440169D01*
X71621571Y-49292046D01*
X71896082Y-49018014D01*
X72044830Y-48659790D01*
X72044942Y-48530677D01*
X120876883Y-48530677D01*
X120877000Y-48530960D01*
X120877000Y-50682411D01*
X120876883Y-50816677D01*
X120979429Y-51064857D01*
X121169144Y-51254903D01*
X121417145Y-51357883D01*
X121685677Y-51358117D01*
X121685960Y-51358000D01*
X122186411Y-51358000D01*
X122320677Y-51358117D01*
X122568857Y-51255571D01*
X122758903Y-51065856D01*
X122861883Y-50817855D01*
X122862117Y-50549323D01*
X122759571Y-50301143D01*
X122569856Y-50111097D01*
X122321855Y-50008117D01*
X122227000Y-50008034D01*
X122227000Y-49072035D01*
X122320677Y-49072117D01*
X122377643Y-49048579D01*
X135685874Y-49048579D01*
X135796016Y-49315143D01*
X135861000Y-49380241D01*
X135861000Y-50207629D01*
X135796733Y-50271784D01*
X135686126Y-50538156D01*
X135685874Y-50826579D01*
X135796016Y-51093143D01*
X135999784Y-51297267D01*
X136266156Y-51407874D01*
X136554579Y-51408126D01*
X136821143Y-51297984D01*
X137025267Y-51094216D01*
X137135874Y-50827844D01*
X137136126Y-50539421D01*
X137025984Y-50272857D01*
X136961000Y-50207759D01*
X136961000Y-49380371D01*
X137007017Y-49334435D01*
X137175187Y-49502899D01*
X137625263Y-49689787D01*
X138112599Y-49690212D01*
X138563000Y-49504110D01*
X138907899Y-49159813D01*
X139094787Y-48709737D01*
X139095212Y-48222401D01*
X138909110Y-47772000D01*
X138564813Y-47427101D01*
X138114737Y-47240213D01*
X137627401Y-47239788D01*
X137177000Y-47425890D01*
X136832101Y-47770187D01*
X136646285Y-48217680D01*
X136555844Y-48180126D01*
X136267421Y-48179874D01*
X136000857Y-48290016D01*
X135796733Y-48493784D01*
X135686126Y-48760156D01*
X135685874Y-49048579D01*
X122377643Y-49048579D01*
X122568857Y-48969571D01*
X122758903Y-48779856D01*
X122861883Y-48531855D01*
X122862117Y-48263323D01*
X122759571Y-48015143D01*
X122569856Y-47825097D01*
X122321855Y-47722117D01*
X122053323Y-47721883D01*
X122053040Y-47722000D01*
X121552589Y-47722000D01*
X121418323Y-47721883D01*
X121170143Y-47824429D01*
X120980097Y-48014144D01*
X120877117Y-48262145D01*
X120876883Y-48530677D01*
X72044942Y-48530677D01*
X72045169Y-48271911D01*
X71897046Y-47913429D01*
X71623014Y-47638918D01*
X71347656Y-47524579D01*
X94156874Y-47524579D01*
X94267016Y-47791143D01*
X94470784Y-47995267D01*
X94737156Y-48105874D01*
X95025579Y-48106126D01*
X95292143Y-47995984D01*
X95496267Y-47792216D01*
X95546604Y-47670990D01*
X95679945Y-47537649D01*
X95800143Y-47487984D01*
X96004267Y-47284216D01*
X96054604Y-47162990D01*
X96121297Y-47096297D01*
X96267619Y-46877312D01*
X96319000Y-46619000D01*
X96319000Y-43407036D01*
X96422579Y-43407126D01*
X96689143Y-43296984D01*
X96893267Y-43093216D01*
X97003874Y-42826844D01*
X97004126Y-42538421D01*
X96893984Y-42271857D01*
X96690216Y-42067733D01*
X96423844Y-41957126D01*
X96135421Y-41956874D01*
X96014107Y-42007000D01*
X95908954Y-42007000D01*
X95788844Y-41957126D01*
X95500421Y-41956874D01*
X95233857Y-42067016D01*
X95029733Y-42270784D01*
X94919126Y-42537156D01*
X94918874Y-42825579D01*
X94969000Y-42946893D01*
X94969000Y-46268854D01*
X94775733Y-46461784D01*
X94725396Y-46583010D01*
X94592055Y-46716351D01*
X94471857Y-46766016D01*
X94267733Y-46969784D01*
X94157126Y-47236156D01*
X94156874Y-47524579D01*
X71347656Y-47524579D01*
X71264790Y-47490170D01*
X70876911Y-47489831D01*
X70518429Y-47637954D01*
X70243918Y-47911986D01*
X70095170Y-48270210D01*
X70094831Y-48658089D01*
X63806715Y-48658089D01*
X64015081Y-48200033D01*
X64048082Y-47235873D01*
X64041239Y-47217609D01*
X64060738Y-47208858D01*
X64293638Y-46692009D01*
X64311020Y-46125376D01*
X64110238Y-45595224D01*
X64060738Y-45521142D01*
X63839035Y-45421642D01*
X61934642Y-47326035D01*
X61934642Y-47326036D01*
X61625678Y-47635000D01*
X61590322Y-47635000D01*
X59925987Y-45970664D01*
X59600377Y-46191828D01*
X59200919Y-47069967D01*
X59167918Y-48034127D01*
X53860759Y-48034127D01*
X53888082Y-47235873D01*
X53549603Y-46332476D01*
X53455623Y-46191828D01*
X53130013Y-45970664D01*
X51465678Y-47635000D01*
X51430322Y-47635000D01*
X51121358Y-47326036D01*
X51121358Y-47326035D01*
X50146181Y-46350858D01*
X50163858Y-46333181D01*
X51139035Y-47308358D01*
X51139036Y-47308358D01*
X51448000Y-47617322D01*
X53112336Y-45952987D01*
X59943664Y-45952987D01*
X61608000Y-47617322D01*
X61916964Y-47308358D01*
X61916965Y-47308358D01*
X63821358Y-45403965D01*
X63721858Y-45182262D01*
X63205009Y-44949362D01*
X62638376Y-44931980D01*
X62108224Y-45132762D01*
X62034142Y-45182262D01*
X62016062Y-45222546D01*
X61208873Y-45194918D01*
X60305476Y-45533397D01*
X60164828Y-45627377D01*
X59943664Y-45952987D01*
X53112336Y-45952987D01*
X52891172Y-45627377D01*
X52013033Y-45227919D01*
X51048873Y-45194918D01*
X51030609Y-45201761D01*
X51021858Y-45182262D01*
X50505009Y-44949362D01*
X49938376Y-44931980D01*
X49408224Y-45132762D01*
X49408000Y-45132912D01*
X49408000Y-42190579D01*
X60882874Y-42190579D01*
X60993016Y-42457143D01*
X61196784Y-42661267D01*
X61463156Y-42771874D01*
X61751579Y-42772126D01*
X62018143Y-42661984D01*
X62118302Y-42562000D01*
X64185322Y-42562000D01*
X64398613Y-42650566D01*
X64687036Y-42650818D01*
X64953600Y-42540676D01*
X65157724Y-42336908D01*
X65268331Y-42070536D01*
X65268583Y-41782113D01*
X65158441Y-41515549D01*
X64954673Y-41311425D01*
X64688301Y-41200818D01*
X64399878Y-41200566D01*
X64133314Y-41310708D01*
X63929190Y-41514476D01*
X63921913Y-41532000D01*
X62118310Y-41532000D01*
X62019216Y-41432733D01*
X61752844Y-41322126D01*
X61464421Y-41321874D01*
X61197857Y-41432016D01*
X60993733Y-41635784D01*
X60883126Y-41902156D01*
X60882874Y-42190579D01*
X49408000Y-42190579D01*
X49408000Y-38021331D01*
X50026921Y-38641334D01*
X51358780Y-39194369D01*
X52800894Y-39195628D01*
X53480064Y-38915000D01*
X69224429Y-38915000D01*
X69292937Y-39259415D01*
X69488033Y-39551396D01*
X69780014Y-39746492D01*
X70124429Y-39815000D01*
X70465571Y-39815000D01*
X70809986Y-39746492D01*
X71101967Y-39551396D01*
X71297063Y-39259415D01*
X71365571Y-38915000D01*
X74224429Y-38915000D01*
X74292937Y-39259415D01*
X74488033Y-39551396D01*
X74780014Y-39746492D01*
X75124429Y-39815000D01*
X75465571Y-39815000D01*
X75809986Y-39746492D01*
X76101967Y-39551396D01*
X76297063Y-39259415D01*
X76365571Y-38915000D01*
X76297063Y-38570585D01*
X76101967Y-38278604D01*
X75809986Y-38083508D01*
X75465571Y-38015000D01*
X75124429Y-38015000D01*
X74780014Y-38083508D01*
X74488033Y-38278604D01*
X74292937Y-38570585D01*
X74224429Y-38915000D01*
X71365571Y-38915000D01*
X71297063Y-38570585D01*
X71101967Y-38278604D01*
X70809986Y-38083508D01*
X70465571Y-38015000D01*
X70124429Y-38015000D01*
X69780014Y-38083508D01*
X69488033Y-38278604D01*
X69292937Y-38570585D01*
X69224429Y-38915000D01*
X53480064Y-38915000D01*
X54133715Y-38644917D01*
X55154334Y-37626079D01*
X55707369Y-36294220D01*
X55707698Y-35916491D01*
X68370000Y-35916491D01*
X68370000Y-36513509D01*
X68440411Y-36867491D01*
X68640926Y-37167583D01*
X68941018Y-37368098D01*
X69295000Y-37438509D01*
X69648982Y-37368098D01*
X69949074Y-37167583D01*
X70149589Y-36867491D01*
X70220000Y-36513509D01*
X70220000Y-35916491D01*
X75370000Y-35916491D01*
X75370000Y-36513509D01*
X75440411Y-36867491D01*
X75640926Y-37167583D01*
X75941018Y-37368098D01*
X76295000Y-37438509D01*
X76648982Y-37368098D01*
X76898415Y-37201432D01*
X77924597Y-37201432D01*
X78278571Y-38058114D01*
X78933438Y-38714126D01*
X79789501Y-39069594D01*
X80716432Y-39070403D01*
X81573114Y-38716429D01*
X81915463Y-38374677D01*
X85929794Y-38374677D01*
X86109820Y-38810372D01*
X86442875Y-39144009D01*
X86878255Y-39324794D01*
X87349677Y-39325206D01*
X87785372Y-39145180D01*
X88119009Y-38812125D01*
X88299794Y-38376745D01*
X88299795Y-38374677D01*
X88719794Y-38374677D01*
X88899820Y-38810372D01*
X89232875Y-39144009D01*
X89668255Y-39324794D01*
X90139677Y-39325206D01*
X90575372Y-39145180D01*
X90909009Y-38812125D01*
X91089794Y-38376745D01*
X91089795Y-38374677D01*
X91509794Y-38374677D01*
X91689820Y-38810372D01*
X92022875Y-39144009D01*
X92458255Y-39324794D01*
X92929677Y-39325206D01*
X93365372Y-39145180D01*
X93699009Y-38812125D01*
X93879794Y-38376745D01*
X93879795Y-38374677D01*
X94309794Y-38374677D01*
X94489820Y-38810372D01*
X94822875Y-39144009D01*
X95258255Y-39324794D01*
X95729677Y-39325206D01*
X96165372Y-39145180D01*
X96499009Y-38812125D01*
X96679794Y-38376745D01*
X96679795Y-38374677D01*
X97099794Y-38374677D01*
X97279820Y-38810372D01*
X97612875Y-39144009D01*
X98048255Y-39324794D01*
X98519677Y-39325206D01*
X98955372Y-39145180D01*
X99172935Y-38927996D01*
X100184681Y-38927996D01*
X100254980Y-39124762D01*
X100685118Y-39317687D01*
X101156343Y-39331321D01*
X101596916Y-39163587D01*
X101655020Y-39124762D01*
X101725319Y-38927996D01*
X100955000Y-38157678D01*
X100184681Y-38927996D01*
X99172935Y-38927996D01*
X99289009Y-38812125D01*
X99469794Y-38376745D01*
X99469824Y-38341343D01*
X99763679Y-38341343D01*
X99931413Y-38781916D01*
X99970238Y-38840020D01*
X100167004Y-38910319D01*
X100937322Y-38140000D01*
X100972678Y-38140000D01*
X101742996Y-38910319D01*
X101939762Y-38840020D01*
X102132687Y-38409882D01*
X102133705Y-38374677D01*
X102559794Y-38374677D01*
X102739820Y-38810372D01*
X103072875Y-39144009D01*
X103508255Y-39324794D01*
X103979677Y-39325206D01*
X104415372Y-39145180D01*
X104749009Y-38812125D01*
X104929794Y-38376745D01*
X104929795Y-38374677D01*
X105359794Y-38374677D01*
X105539820Y-38810372D01*
X105872875Y-39144009D01*
X106308255Y-39324794D01*
X106779677Y-39325206D01*
X107215372Y-39145180D01*
X107549009Y-38812125D01*
X107729794Y-38376745D01*
X107729795Y-38374677D01*
X108149794Y-38374677D01*
X108329820Y-38810372D01*
X108662875Y-39144009D01*
X109098255Y-39324794D01*
X109569677Y-39325206D01*
X110005372Y-39145180D01*
X110222935Y-38927996D01*
X111354681Y-38927996D01*
X111424980Y-39124762D01*
X111855118Y-39317687D01*
X112326343Y-39331321D01*
X112766916Y-39163587D01*
X112825020Y-39124762D01*
X112895319Y-38927996D01*
X112125000Y-38157678D01*
X111354681Y-38927996D01*
X110222935Y-38927996D01*
X110339009Y-38812125D01*
X110519794Y-38376745D01*
X110519824Y-38341343D01*
X110933679Y-38341343D01*
X111101413Y-38781916D01*
X111140238Y-38840020D01*
X111337004Y-38910319D01*
X112107322Y-38140000D01*
X112142678Y-38140000D01*
X112912996Y-38910319D01*
X113109762Y-38840020D01*
X113302687Y-38409882D01*
X113303705Y-38374677D01*
X113609794Y-38374677D01*
X113789820Y-38810372D01*
X114122875Y-39144009D01*
X114558255Y-39324794D01*
X115029677Y-39325206D01*
X115465372Y-39145180D01*
X115799009Y-38812125D01*
X115979794Y-38376745D01*
X115979795Y-38374677D01*
X116409794Y-38374677D01*
X116589820Y-38810372D01*
X116922875Y-39144009D01*
X117358255Y-39324794D01*
X117829677Y-39325206D01*
X118265372Y-39145180D01*
X118599009Y-38812125D01*
X118779794Y-38376745D01*
X118780206Y-37905323D01*
X118600180Y-37469628D01*
X118510709Y-37380000D01*
X119191674Y-37380000D01*
X119191674Y-38900000D01*
X119221309Y-39057496D01*
X119314389Y-39202146D01*
X119456412Y-39299186D01*
X119625000Y-39333326D01*
X121145000Y-39333326D01*
X121302496Y-39303691D01*
X121447146Y-39210611D01*
X121544186Y-39068588D01*
X121578326Y-38900000D01*
X121578326Y-37380000D01*
X121548691Y-37222504D01*
X121535132Y-37201432D01*
X124914597Y-37201432D01*
X125268571Y-38058114D01*
X125923438Y-38714126D01*
X126779501Y-39069594D01*
X127706432Y-39070403D01*
X128563114Y-38716429D01*
X129219126Y-38061562D01*
X129574594Y-37205499D01*
X129575403Y-36278568D01*
X129221429Y-35421886D01*
X128566562Y-34765874D01*
X127710499Y-34410406D01*
X126783568Y-34409597D01*
X125926886Y-34763571D01*
X125270874Y-35418438D01*
X124915406Y-36274501D01*
X124914597Y-37201432D01*
X121535132Y-37201432D01*
X121455611Y-37077854D01*
X121313588Y-36980814D01*
X121145000Y-36946674D01*
X119625000Y-36946674D01*
X119467504Y-36976309D01*
X119322854Y-37069389D01*
X119225814Y-37211412D01*
X119191674Y-37380000D01*
X118510709Y-37380000D01*
X118267125Y-37135991D01*
X117831745Y-36955206D01*
X117360323Y-36954794D01*
X116924628Y-37134820D01*
X116590991Y-37467875D01*
X116410206Y-37903255D01*
X116409794Y-38374677D01*
X115979795Y-38374677D01*
X115980206Y-37905323D01*
X115800180Y-37469628D01*
X115467125Y-37135991D01*
X115031745Y-36955206D01*
X114560323Y-36954794D01*
X114124628Y-37134820D01*
X113790991Y-37467875D01*
X113610206Y-37903255D01*
X113609794Y-38374677D01*
X113303705Y-38374677D01*
X113316321Y-37938657D01*
X113148587Y-37498084D01*
X113109762Y-37439980D01*
X112912996Y-37369681D01*
X112142678Y-38140000D01*
X112107322Y-38140000D01*
X111337004Y-37369681D01*
X111140238Y-37439980D01*
X110947313Y-37870118D01*
X110933679Y-38341343D01*
X110519824Y-38341343D01*
X110520206Y-37905323D01*
X110340180Y-37469628D01*
X110222762Y-37352004D01*
X111354681Y-37352004D01*
X112125000Y-38122322D01*
X112895319Y-37352004D01*
X112825020Y-37155238D01*
X112394882Y-36962313D01*
X111923657Y-36948679D01*
X111483084Y-37116413D01*
X111424980Y-37155238D01*
X111354681Y-37352004D01*
X110222762Y-37352004D01*
X110007125Y-37135991D01*
X109571745Y-36955206D01*
X109100323Y-36954794D01*
X108664628Y-37134820D01*
X108330991Y-37467875D01*
X108150206Y-37903255D01*
X108149794Y-38374677D01*
X107729795Y-38374677D01*
X107730206Y-37905323D01*
X107550180Y-37469628D01*
X107217125Y-37135991D01*
X106781745Y-36955206D01*
X106310323Y-36954794D01*
X105874628Y-37134820D01*
X105540991Y-37467875D01*
X105360206Y-37903255D01*
X105359794Y-38374677D01*
X104929795Y-38374677D01*
X104930206Y-37905323D01*
X104750180Y-37469628D01*
X104417125Y-37135991D01*
X103981745Y-36955206D01*
X103510323Y-36954794D01*
X103074628Y-37134820D01*
X102740991Y-37467875D01*
X102560206Y-37903255D01*
X102559794Y-38374677D01*
X102133705Y-38374677D01*
X102146321Y-37938657D01*
X101978587Y-37498084D01*
X101939762Y-37439980D01*
X101742996Y-37369681D01*
X100972678Y-38140000D01*
X100937322Y-38140000D01*
X100167004Y-37369681D01*
X99970238Y-37439980D01*
X99777313Y-37870118D01*
X99763679Y-38341343D01*
X99469824Y-38341343D01*
X99470206Y-37905323D01*
X99290180Y-37469628D01*
X99172762Y-37352004D01*
X100184681Y-37352004D01*
X100955000Y-38122322D01*
X101725319Y-37352004D01*
X101655020Y-37155238D01*
X101224882Y-36962313D01*
X100753657Y-36948679D01*
X100313084Y-37116413D01*
X100254980Y-37155238D01*
X100184681Y-37352004D01*
X99172762Y-37352004D01*
X98957125Y-37135991D01*
X98521745Y-36955206D01*
X98050323Y-36954794D01*
X97614628Y-37134820D01*
X97280991Y-37467875D01*
X97100206Y-37903255D01*
X97099794Y-38374677D01*
X96679795Y-38374677D01*
X96680206Y-37905323D01*
X96500180Y-37469628D01*
X96167125Y-37135991D01*
X95731745Y-36955206D01*
X95260323Y-36954794D01*
X94824628Y-37134820D01*
X94490991Y-37467875D01*
X94310206Y-37903255D01*
X94309794Y-38374677D01*
X93879795Y-38374677D01*
X93880206Y-37905323D01*
X93700180Y-37469628D01*
X93367125Y-37135991D01*
X92931745Y-36955206D01*
X92460323Y-36954794D01*
X92024628Y-37134820D01*
X91690991Y-37467875D01*
X91510206Y-37903255D01*
X91509794Y-38374677D01*
X91089795Y-38374677D01*
X91090206Y-37905323D01*
X90910180Y-37469628D01*
X90577125Y-37135991D01*
X90141745Y-36955206D01*
X89670323Y-36954794D01*
X89234628Y-37134820D01*
X88900991Y-37467875D01*
X88720206Y-37903255D01*
X88719794Y-38374677D01*
X88299795Y-38374677D01*
X88300206Y-37905323D01*
X88120180Y-37469628D01*
X87787125Y-37135991D01*
X87351745Y-36955206D01*
X86880323Y-36954794D01*
X86444628Y-37134820D01*
X86110991Y-37467875D01*
X85930206Y-37903255D01*
X85929794Y-38374677D01*
X81915463Y-38374677D01*
X82229126Y-38061562D01*
X82584594Y-37205499D01*
X82585403Y-36278568D01*
X82527320Y-36137996D01*
X87734681Y-36137996D01*
X87804980Y-36334762D01*
X88235118Y-36527687D01*
X88706343Y-36541321D01*
X89146916Y-36373587D01*
X89205020Y-36334762D01*
X89275319Y-36137996D01*
X88505000Y-35367678D01*
X87734681Y-36137996D01*
X82527320Y-36137996D01*
X82231429Y-35421886D01*
X81576562Y-34765874D01*
X80720499Y-34410406D01*
X79793568Y-34409597D01*
X78936886Y-34763571D01*
X78280874Y-35418438D01*
X77925406Y-36274501D01*
X77924597Y-37201432D01*
X76898415Y-37201432D01*
X76949074Y-37167583D01*
X77149589Y-36867491D01*
X77220000Y-36513509D01*
X77220000Y-35916491D01*
X77149589Y-35562509D01*
X76949074Y-35262417D01*
X76648982Y-35061902D01*
X76295000Y-34991491D01*
X75941018Y-35061902D01*
X75640926Y-35262417D01*
X75440411Y-35562509D01*
X75370000Y-35916491D01*
X70220000Y-35916491D01*
X70149589Y-35562509D01*
X69949074Y-35262417D01*
X69648982Y-35061902D01*
X69295000Y-34991491D01*
X68941018Y-35061902D01*
X68640926Y-35262417D01*
X68440411Y-35562509D01*
X68370000Y-35916491D01*
X55707698Y-35916491D01*
X55708628Y-34852106D01*
X55157917Y-33519285D01*
X54534721Y-32895000D01*
X61854183Y-32895000D01*
X61174229Y-33574953D01*
M02*
