M48
;DRILL file {KiCad 4.0.6} date Fri Nov 17 01:31:09 2017
;FORMAT={-:-/ absolute / inch / decimal}
FMAT,2
INCH,TZ
T1C0.012
T2C0.016
T3C0.020
T4C0.022
T5C0.039
T6C0.040
T7C0.043
T8C0.079
T9C0.087
T10C0.120
T11C0.126
%
G90
G05
M72
T1
X2.4005Y-1.7254
X2.6305Y-1.8304
X2.6905Y-1.8354
X2.7505Y-1.6554
X2.8155Y-2.4304
X2.8155Y-2.4604
X2.8505Y-1.6554
X2.8605Y-2.2054
X2.8605Y-2.2654
X2.9505Y-1.6554
X2.9605Y-2.4254
X2.9605Y-2.4504
X2.9605Y-2.4754
X2.9855Y-2.4504
X3.0505Y-1.6554
X3.1505Y-1.6554
X3.2537Y-1.9686
X3.2755Y-1.6554
X3.5805Y-2.2019
X3.5805Y-2.2554
X3.7855Y-2.8504
X3.8205Y-2.6104
X3.8255Y-2.5604
X3.8305Y-2.8204
X3.8405Y-2.6104
X3.8441Y-2.5518
X3.8605Y-2.6654
X4.7855Y-1.9054
X4.7855Y-1.9954
X4.8105Y-1.9054
X4.8105Y-1.9954
X4.8655Y-2.1554
X4.8655Y-2.2204
X4.9255Y-2.0004
X4.9305Y-2.2404
X4.9955Y-2.0004
X5.0655Y-2.0004
X5.1355Y-2.0004
X5.1405Y-2.2404
X5.2055Y-2.0004
X5.2805Y-2.0004
T2
X2.0005Y-2.0754
X2.0005Y-2.4754
X2.0005Y-2.6754
X2.1005Y-1.5754
X2.1005Y-1.7754
X2.2005Y-1.6754
X2.2005Y-1.8754
X2.2005Y-2.2754
X2.2005Y-2.4754
X2.2005Y-2.6754
X2.2005Y-2.8754
X2.2005Y-3.0754
X2.3005Y-1.3754
X2.3005Y-2.1254
X2.3255Y-1.6004
X2.3505Y-1.4504
X2.3505Y-2.0254
X2.3755Y-2.1254
X2.4005Y-2.4754
X2.4005Y-2.6754
X2.4005Y-2.8754
X2.4005Y-3.0754
X2.4105Y-1.3504
X2.4255Y-1.6554
X2.4505Y-2.0254
X2.5005Y-1.3254
X2.5005Y-1.4754
X2.5005Y-2.0004
X2.5005Y-2.1254
X2.5255Y-1.4254
X2.5411Y-1.6506
X2.5505Y-1.9504
X2.5755Y-1.5754
X2.5755Y-1.7254
X2.5755Y-2.0504
X2.6005Y-1.9254
X2.6005Y-2.4754
X2.6005Y-2.6754
X2.6005Y-2.8754
X2.6005Y-3.0754
X2.6255Y-2.0004
X2.6602Y-1.535
X2.6755Y-1.3254
X2.6755Y-1.4754
X2.6755Y-1.9254
X2.7005Y-2.4754
X2.7255Y-1.5754
X2.7255Y-2.0004
X2.7505Y-1.9254
X2.7705Y-1.4804
X2.7755Y-1.8004
X2.7955Y-1.4404
X2.8005Y-1.3254
X2.8005Y-2.5754
X2.8005Y-2.6754
X2.8005Y-2.8754
X2.8098Y-1.4681
X2.8255Y-1.7254
X2.8255Y-2.0004
X2.8505Y-1.9254
X2.8755Y-1.4004
X2.9005Y-1.3254
X2.9005Y-2.5254
X2.9005Y-2.6754
X2.9155Y-2.0004
X2.9254Y-1.8142
X2.9255Y-1.9254
X2.9505Y-2.3754
X2.9755Y-2.3254
X3.0005Y-2.5754
X3.0005Y-2.7754
X3.0005Y-3.0754
X3.0108Y-2.0004
X3.0183Y-1.8153
X3.0255Y-2.2754
X3.0255Y-2.3754
X3.0755Y-1.9254
X3.0805Y-2.0004
X3.0905Y-1.8154
X3.1005Y-2.6754
X3.1005Y-2.8754
X3.125Y-1.9254
X3.1255Y-2.2754
X3.1255Y-2.5004
X3.1755Y-1.9254
X3.1755Y-2.3504
X3.2005Y-2.5754
X3.2005Y-2.7754
X3.2005Y-2.9754
X3.2005Y-3.0754
X3.2205Y-2.0004
X3.2355Y-1.8154
X3.2455Y-2.0004
X3.2755Y-1.9254
X3.2958Y-2.0004
X3.3005Y-2.2754
X3.3005Y-2.3754
X3.3055Y-1.8154
X3.3755Y-1.8154
X3.4005Y-2.1754
X3.4005Y-2.6604
X3.4005Y-2.7754
X3.4005Y-2.9754
X3.4005Y-3.0754
X3.4255Y-1.3454
X3.4355Y-2.0004
X3.4455Y-1.8154
X3.5005Y-1.6754
X3.5005Y-2.1754
X3.5005Y-2.2754
X3.5055Y-2.0004
X3.5155Y-1.8154
X3.5455Y-2.6454
X3.5655Y-2.4262
X3.5655Y-2.5554
X3.5655Y-2.6004
X3.5705Y-2.4854
X3.5755Y-2.0004
X3.5755Y-2.6904
X3.5855Y-1.8154
X3.5882Y-2.5538
X3.6005Y-1.5754
X3.6005Y-2.7754
X3.6005Y-2.9754
X3.6005Y-3.0754
X3.6455Y-2.0004
X3.6555Y-2.1304
X3.6555Y-2.4704
X3.6605Y-1.8154
X3.6642Y-2.6404
X3.6805Y-2.1304
X3.685Y-2.535
X3.685Y-2.57
X3.685Y-2.6054
X3.6855Y-2.5054
X3.6955Y-1.9754
X3.7005Y-1.6754
X3.7005Y-2.1754
X3.7155Y-2.4504
X3.7205Y-1.9754
X3.7255Y-2.5054
X3.7255Y-2.535
X3.7255Y-2.57
X3.7255Y-2.6054
X3.7305Y-1.8154
X3.7355Y-1.8654
X3.7455Y-2.6854
X3.7455Y-2.7354
X3.7555Y-1.8454
X3.7655Y-1.6804
X3.7705Y-2.6304
X3.7905Y-1.6804
X3.7905Y-2.0004
X3.7905Y-2.6654
X3.7955Y-2.2504
X3.8005Y-1.5754
X3.8005Y-1.8154
X3.8005Y-2.9754
X3.8005Y-3.0754
X3.8309Y-2.3136
X3.8605Y-2.0004
X3.8709Y-1.815
X3.9005Y-1.6754
X3.9005Y-2.1754
X3.9005Y-2.2754
X3.9005Y-2.3754
X3.9005Y-2.7754
X3.9005Y-2.8754
X3.9305Y-2.0004
X3.9405Y-1.8154
X4.0005Y-1.5754
X4.0005Y-2.0004
X4.0105Y-1.8154
X4.0755Y-2.0004
X4.0855Y-1.8154
X4.0955Y-2.1854
X4.1005Y-1.6754
X4.1005Y-2.2754
X4.1005Y-2.3754
X4.1005Y-2.7754
X4.1005Y-2.8754
X4.1455Y-2.0004
X4.1555Y-1.8154
X4.2005Y-1.5754
X4.2155Y-2.0004
X4.2255Y-1.8154
X4.2855Y-2.0004
X4.2955Y-1.8154
X4.3005Y-1.6754
X4.3005Y-2.2754
X4.3005Y-2.3754
X4.3005Y-2.5754
X4.3005Y-2.6754
X4.3005Y-2.8754
X4.3605Y-2.0004
X4.3655Y-1.8154
X4.4205Y-2.1854
X4.4305Y-2.0004
X4.4355Y-1.8154
X4.5005Y-2.0004
X4.5005Y-2.2754
X4.5005Y-2.3754
X4.5005Y-2.5754
X4.5005Y-2.6754
X4.5005Y-2.8754
X4.5005Y-3.0754
X4.5105Y-1.8154
X4.5705Y-2.0004
X4.5805Y-1.8154
X4.6005Y-2.4754
X4.6405Y-2.0004
X4.6505Y-1.8154
X4.7005Y-2.1754
X4.7005Y-2.3754
X4.7005Y-2.4754
X4.7005Y-2.6754
X4.7005Y-2.8754
X4.7005Y-3.0754
X4.7205Y-1.8154
X4.7305Y-2.0004
X4.8005Y-2.2754
X4.9005Y-2.2754
X4.9005Y-2.4754
X4.9005Y-2.6754
X4.9005Y-2.8754
X4.9005Y-3.0754
X4.9355Y-1.8154
X5.0055Y-1.8154
X5.0755Y-1.8154
X5.1005Y-2.4754
X5.1005Y-2.6754
X5.1005Y-2.8754
X5.1005Y-3.0754
X5.1455Y-1.8154
X5.2155Y-1.8154
X5.2905Y-1.8154
X5.3005Y-2.2754
X5.3005Y-2.4754
X5.3005Y-2.6754
X5.3155Y-1.3554
X5.3155Y-1.4354
X5.3605Y-1.8154
X5.3705Y-1.9254
X5.3705Y-1.9954
X5.4005Y-2.0754
X5.4005Y-2.2754
X5.4705Y-1.6404
X5.4705Y-1.8154
X5.5005Y-2.4754
X5.5005Y-2.6754
X5.6005Y-1.5754
T5
X2.2255Y-2.1754
X5.6405Y-1.7654
X5.6405Y-1.8654
X5.6405Y-1.9654
T6
X3.4297Y-1.5016
X3.4844Y-1.3917
X3.5396Y-1.5016
X3.5947Y-1.3917
X3.6494Y-1.5016
X3.7045Y-1.3917
X3.7596Y-1.5016
X3.8096Y-1.3917
X3.8695Y-1.5016
X3.9195Y-1.3917
X3.9746Y-1.5016
X4.0297Y-1.3917
X4.0844Y-1.5016
X4.1396Y-1.3917
X4.1947Y-1.5016
X4.2494Y-1.3917
X4.3045Y-1.5016
X4.3545Y-1.3917
X4.4144Y-1.5016
X4.4644Y-1.3917
X4.5195Y-1.5016
X4.5746Y-1.3917
X4.6297Y-1.5016
X4.6844Y-1.3917
X4.7396Y-1.5016
T7
X1.9755Y-1.8254
X1.9755Y-2.3254
X2.2255Y-2.0754
X2.4755Y-1.8254
X2.4755Y-2.3254
T8
X2.0255Y-1.8754
X2.0255Y-2.2754
X2.4255Y-1.8754
X2.4255Y-2.2754
T9
X2.9004Y-2.9711
X5.3256Y-2.9711
T10
X3.1596Y-1.4465
X5.0096Y-1.4465
T11
X2.0505Y-1.4004
X2.0505Y-3.0504
X4.0005Y-3.0504
X5.5755Y-1.4004
X5.5755Y-3.0504
T3
X2.7281Y-1.413G85X2.7281Y-1.4386
G05
X3.0037Y-1.413G85X3.0037Y-1.4386
G05
T4
X2.7734Y-1.5321G85X2.7616Y-1.5321
G05
X2.9703Y-1.5321G85X2.9585Y-1.5321
G05
T0
M30
