G04 #@! TF.FileFunction,Legend,Top*
%FSLAX46Y46*%
G04 Gerber Fmt 4.6, Leading zero omitted, Abs format (unit mm)*
G04 Created by KiCad (PCBNEW 4.0.6) date Fri Jul 21 15:58:06 2017*
%MOMM*%
%LPD*%
G01*
G04 APERTURE LIST*
%ADD10C,0.100000*%
%ADD11C,0.600000*%
%ADD12C,0.300000*%
%ADD13C,0.200000*%
%ADD14C,0.150000*%
%ADD15C,0.175000*%
%ADD16C,0.400000*%
%ADD17C,0.120000*%
G04 APERTURE END LIST*
D10*
D11*
X58412572Y-78446143D02*
X58412572Y-76446143D01*
X58412572Y-77017571D02*
X58555429Y-76731857D01*
X58698286Y-76589000D01*
X58984000Y-76446143D01*
X59269715Y-76446143D01*
X61412572Y-78303286D02*
X61126858Y-78446143D01*
X60555429Y-78446143D01*
X60269715Y-78303286D01*
X60126858Y-78017571D01*
X60126858Y-76874714D01*
X60269715Y-76589000D01*
X60555429Y-76446143D01*
X61126858Y-76446143D01*
X61412572Y-76589000D01*
X61555429Y-76874714D01*
X61555429Y-77160429D01*
X60126858Y-77446143D01*
X62555429Y-76446143D02*
X63269715Y-78446143D01*
X63984001Y-76446143D01*
X66698286Y-78446143D02*
X64984001Y-78446143D01*
X65841143Y-78446143D02*
X65841143Y-75446143D01*
X65555429Y-75874714D01*
X65269715Y-76160429D01*
X64984001Y-76303286D01*
D12*
X113340572Y-73703714D02*
X113197714Y-73632286D01*
X112912000Y-73632286D01*
X112769143Y-73703714D01*
X112626286Y-73846571D01*
X112554857Y-73989429D01*
X112554857Y-74275143D01*
X112626286Y-74418000D01*
X112769143Y-74560857D01*
X112912000Y-74632286D01*
X113197714Y-74632286D01*
X113340572Y-74560857D01*
X113054857Y-73132286D02*
X112697714Y-73203714D01*
X112340572Y-73418000D01*
X112126286Y-73775143D01*
X112054857Y-74132286D01*
X112126286Y-74489429D01*
X112340572Y-74846571D01*
X112697714Y-75060857D01*
X113054857Y-75132286D01*
X113412000Y-75060857D01*
X113769143Y-74846571D01*
X113983429Y-74489429D01*
X114054857Y-74132286D01*
X113983429Y-73775143D01*
X113769143Y-73418000D01*
X113412000Y-73203714D01*
X113054857Y-73132286D01*
X116554858Y-74846571D02*
X115840572Y-74846571D01*
X115840572Y-73346571D01*
X117626286Y-74775143D02*
X117483429Y-74846571D01*
X117197715Y-74846571D01*
X117054858Y-74775143D01*
X116983429Y-74632286D01*
X116983429Y-74060857D01*
X117054858Y-73918000D01*
X117197715Y-73846571D01*
X117483429Y-73846571D01*
X117626286Y-73918000D01*
X117697715Y-74060857D01*
X117697715Y-74203714D01*
X116983429Y-74346571D01*
X118554858Y-74846571D02*
X118412000Y-74775143D01*
X118340572Y-74703714D01*
X118269143Y-74560857D01*
X118269143Y-74132286D01*
X118340572Y-73989429D01*
X118412000Y-73918000D01*
X118554858Y-73846571D01*
X118769143Y-73846571D01*
X118912000Y-73918000D01*
X118983429Y-73989429D01*
X119054858Y-74132286D01*
X119054858Y-74560857D01*
X118983429Y-74703714D01*
X118912000Y-74775143D01*
X118769143Y-74846571D01*
X118554858Y-74846571D01*
X119697715Y-73846571D02*
X119697715Y-74846571D01*
X119697715Y-73989429D02*
X119769143Y-73918000D01*
X119912001Y-73846571D01*
X120126286Y-73846571D01*
X120269143Y-73918000D01*
X120340572Y-74060857D01*
X120340572Y-74846571D01*
X121697715Y-74846571D02*
X121697715Y-74060857D01*
X121626286Y-73918000D01*
X121483429Y-73846571D01*
X121197715Y-73846571D01*
X121054858Y-73918000D01*
X121697715Y-74775143D02*
X121554858Y-74846571D01*
X121197715Y-74846571D01*
X121054858Y-74775143D01*
X120983429Y-74632286D01*
X120983429Y-74489429D01*
X121054858Y-74346571D01*
X121197715Y-74275143D01*
X121554858Y-74275143D01*
X121697715Y-74203714D01*
X122412001Y-74846571D02*
X122412001Y-73846571D01*
X122412001Y-74132286D02*
X122483429Y-73989429D01*
X122554858Y-73918000D01*
X122697715Y-73846571D01*
X122840572Y-73846571D01*
X123983429Y-74846571D02*
X123983429Y-73346571D01*
X123983429Y-74775143D02*
X123840572Y-74846571D01*
X123554858Y-74846571D01*
X123412000Y-74775143D01*
X123340572Y-74703714D01*
X123269143Y-74560857D01*
X123269143Y-74132286D01*
X123340572Y-73989429D01*
X123412000Y-73918000D01*
X123554858Y-73846571D01*
X123840572Y-73846571D01*
X123983429Y-73918000D01*
X126697715Y-74846571D02*
X126197715Y-74132286D01*
X125840572Y-74846571D02*
X125840572Y-73346571D01*
X126412000Y-73346571D01*
X126554858Y-73418000D01*
X126626286Y-73489429D01*
X126697715Y-73632286D01*
X126697715Y-73846571D01*
X126626286Y-73989429D01*
X126554858Y-74060857D01*
X126412000Y-74132286D01*
X125840572Y-74132286D01*
X127983429Y-74846571D02*
X127983429Y-74060857D01*
X127912000Y-73918000D01*
X127769143Y-73846571D01*
X127483429Y-73846571D01*
X127340572Y-73918000D01*
X127983429Y-74775143D02*
X127840572Y-74846571D01*
X127483429Y-74846571D01*
X127340572Y-74775143D01*
X127269143Y-74632286D01*
X127269143Y-74489429D01*
X127340572Y-74346571D01*
X127483429Y-74275143D01*
X127840572Y-74275143D01*
X127983429Y-74203714D01*
X128697715Y-73846571D02*
X128697715Y-75346571D01*
X128697715Y-73918000D02*
X128840572Y-73846571D01*
X129126286Y-73846571D01*
X129269143Y-73918000D01*
X129340572Y-73989429D01*
X129412001Y-74132286D01*
X129412001Y-74560857D01*
X129340572Y-74703714D01*
X129269143Y-74775143D01*
X129126286Y-74846571D01*
X128840572Y-74846571D01*
X128697715Y-74775143D01*
X130054858Y-73846571D02*
X130054858Y-75346571D01*
X130054858Y-73918000D02*
X130197715Y-73846571D01*
X130483429Y-73846571D01*
X130626286Y-73918000D01*
X130697715Y-73989429D01*
X130769144Y-74132286D01*
X130769144Y-74560857D01*
X130697715Y-74703714D01*
X130626286Y-74775143D01*
X130483429Y-74846571D01*
X130197715Y-74846571D01*
X130054858Y-74775143D01*
X62831429Y-64349858D02*
X63545714Y-63849858D01*
X62831429Y-63492715D02*
X64331429Y-63492715D01*
X64331429Y-64064143D01*
X64260000Y-64207001D01*
X64188571Y-64278429D01*
X64045714Y-64349858D01*
X63831429Y-64349858D01*
X63688571Y-64278429D01*
X63617143Y-64207001D01*
X63545714Y-64064143D01*
X63545714Y-63492715D01*
X64331429Y-64849858D02*
X62831429Y-65849858D01*
X64331429Y-65849858D02*
X62831429Y-64849858D01*
X63402857Y-66421286D02*
X63402857Y-67564143D01*
X64331429Y-68064143D02*
X62831429Y-68564143D01*
X64331429Y-69064143D01*
X62831429Y-69564143D02*
X64331429Y-69564143D01*
X62831429Y-70278429D02*
X64331429Y-70278429D01*
X64331429Y-70849857D01*
X64260000Y-70992715D01*
X64188571Y-71064143D01*
X64045714Y-71135572D01*
X63831429Y-71135572D01*
X63688571Y-71064143D01*
X63617143Y-70992715D01*
X63545714Y-70849857D01*
X63545714Y-70278429D01*
X63617143Y-71778429D02*
X63617143Y-72278429D01*
X62831429Y-72492715D02*
X62831429Y-71778429D01*
X64331429Y-71778429D01*
X64331429Y-72492715D01*
X62831429Y-73992715D02*
X63545714Y-73492715D01*
X62831429Y-73135572D02*
X64331429Y-73135572D01*
X64331429Y-73707000D01*
X64260000Y-73849858D01*
X64188571Y-73921286D01*
X64045714Y-73992715D01*
X63831429Y-73992715D01*
X63688571Y-73921286D01*
X63617143Y-73849858D01*
X63545714Y-73707000D01*
X63545714Y-73135572D01*
X60281429Y-63778429D02*
X61781429Y-63778429D01*
X61781429Y-64349857D01*
X61710000Y-64492715D01*
X61638571Y-64564143D01*
X61495714Y-64635572D01*
X61281429Y-64635572D01*
X61138571Y-64564143D01*
X61067143Y-64492715D01*
X60995714Y-64349857D01*
X60995714Y-63778429D01*
X60281429Y-65278429D02*
X61281429Y-65278429D01*
X61781429Y-65278429D02*
X61710000Y-65207000D01*
X61638571Y-65278429D01*
X61710000Y-65349857D01*
X61781429Y-65278429D01*
X61638571Y-65278429D01*
X60852857Y-65992715D02*
X60852857Y-67135572D01*
X61067143Y-68349858D02*
X60995714Y-68564144D01*
X60924286Y-68635572D01*
X60781429Y-68707001D01*
X60567143Y-68707001D01*
X60424286Y-68635572D01*
X60352857Y-68564144D01*
X60281429Y-68421286D01*
X60281429Y-67849858D01*
X61781429Y-67849858D01*
X61781429Y-68349858D01*
X61710000Y-68492715D01*
X61638571Y-68564144D01*
X61495714Y-68635572D01*
X61352857Y-68635572D01*
X61210000Y-68564144D01*
X61138571Y-68492715D01*
X61067143Y-68349858D01*
X61067143Y-67849858D01*
X60281429Y-69564144D02*
X60352857Y-69421286D01*
X60424286Y-69349858D01*
X60567143Y-69278429D01*
X60995714Y-69278429D01*
X61138571Y-69349858D01*
X61210000Y-69421286D01*
X61281429Y-69564144D01*
X61281429Y-69778429D01*
X61210000Y-69921286D01*
X61138571Y-69992715D01*
X60995714Y-70064144D01*
X60567143Y-70064144D01*
X60424286Y-69992715D01*
X60352857Y-69921286D01*
X60281429Y-69778429D01*
X60281429Y-69564144D01*
X60281429Y-71349858D02*
X61067143Y-71349858D01*
X61210000Y-71278429D01*
X61281429Y-71135572D01*
X61281429Y-70849858D01*
X61210000Y-70707001D01*
X60352857Y-71349858D02*
X60281429Y-71207001D01*
X60281429Y-70849858D01*
X60352857Y-70707001D01*
X60495714Y-70635572D01*
X60638571Y-70635572D01*
X60781429Y-70707001D01*
X60852857Y-70849858D01*
X60852857Y-71207001D01*
X60924286Y-71349858D01*
X60281429Y-72064144D02*
X61281429Y-72064144D01*
X60995714Y-72064144D02*
X61138571Y-72135572D01*
X61210000Y-72207001D01*
X61281429Y-72349858D01*
X61281429Y-72492715D01*
X60281429Y-73635572D02*
X61781429Y-73635572D01*
X60352857Y-73635572D02*
X60281429Y-73492715D01*
X60281429Y-73207001D01*
X60352857Y-73064143D01*
X60424286Y-72992715D01*
X60567143Y-72921286D01*
X60995714Y-72921286D01*
X61138571Y-72992715D01*
X61210000Y-73064143D01*
X61281429Y-73207001D01*
X61281429Y-73492715D01*
X61210000Y-73635572D01*
X59088571Y-66135572D02*
X59160000Y-66207001D01*
X59231429Y-66349858D01*
X59231429Y-66707001D01*
X59160000Y-66849858D01*
X59088571Y-66921287D01*
X58945714Y-66992715D01*
X58802857Y-66992715D01*
X58588571Y-66921287D01*
X57731429Y-66064144D01*
X57731429Y-66992715D01*
X59231429Y-67921286D02*
X59231429Y-68064143D01*
X59160000Y-68207000D01*
X59088571Y-68278429D01*
X58945714Y-68349858D01*
X58660000Y-68421286D01*
X58302857Y-68421286D01*
X58017143Y-68349858D01*
X57874286Y-68278429D01*
X57802857Y-68207000D01*
X57731429Y-68064143D01*
X57731429Y-67921286D01*
X57802857Y-67778429D01*
X57874286Y-67707000D01*
X58017143Y-67635572D01*
X58302857Y-67564143D01*
X58660000Y-67564143D01*
X58945714Y-67635572D01*
X59088571Y-67707000D01*
X59160000Y-67778429D01*
X59231429Y-67921286D01*
X57731429Y-69849857D02*
X57731429Y-68992714D01*
X57731429Y-69421286D02*
X59231429Y-69421286D01*
X59017143Y-69278429D01*
X58874286Y-69135571D01*
X58802857Y-68992714D01*
X59231429Y-70349857D02*
X59231429Y-71349857D01*
X57731429Y-70707000D01*
D13*
X143056219Y-42301000D02*
G75*
G03X143056219Y-42301000I-803219J0D01*
G01*
X141237000Y-42809000D02*
X141618000Y-42809000D01*
X141618000Y-43190000D02*
X141237000Y-42809000D01*
X141618000Y-42809000D02*
X141618000Y-43190000D01*
X140983000Y-43444000D02*
X141618000Y-42809000D01*
D14*
X141166857Y-50696381D02*
X141166857Y-50363047D01*
X141585905Y-50220190D02*
X141585905Y-50696381D01*
X140785905Y-50696381D01*
X140785905Y-50220190D01*
X141585905Y-49791619D02*
X140785905Y-49791619D01*
X141357333Y-49458285D01*
X140785905Y-49124952D01*
X141585905Y-49124952D01*
X141585905Y-48648762D02*
X140785905Y-48648762D01*
X141357333Y-48315428D01*
X140785905Y-47982095D01*
X141585905Y-47982095D01*
X141509714Y-46934476D02*
X141547810Y-46982095D01*
X141585905Y-47124952D01*
X141585905Y-47220190D01*
X141547810Y-47363048D01*
X141471619Y-47458286D01*
X141395429Y-47505905D01*
X141243048Y-47553524D01*
X141128762Y-47553524D01*
X140976381Y-47505905D01*
X140900190Y-47458286D01*
X140824000Y-47363048D01*
X140785905Y-47220190D01*
X140785905Y-47124952D01*
X140824000Y-46982095D01*
X140862095Y-46934476D01*
X141585905Y-45744000D02*
X140785905Y-45744000D01*
X140785905Y-45505905D01*
X140824000Y-45363047D01*
X140900190Y-45267809D01*
X140976381Y-45220190D01*
X141128762Y-45172571D01*
X141243048Y-45172571D01*
X141395429Y-45220190D01*
X141471619Y-45267809D01*
X141547810Y-45363047D01*
X141585905Y-45505905D01*
X141585905Y-45744000D01*
X141585905Y-44744000D02*
X140785905Y-44744000D01*
X141547810Y-44315429D02*
X141585905Y-44172572D01*
X141585905Y-43934476D01*
X141547810Y-43839238D01*
X141509714Y-43791619D01*
X141433524Y-43744000D01*
X141357333Y-43744000D01*
X141281143Y-43791619D01*
X141243048Y-43839238D01*
X141204952Y-43934476D01*
X141166857Y-44124953D01*
X141128762Y-44220191D01*
X141090667Y-44267810D01*
X141014476Y-44315429D01*
X140938286Y-44315429D01*
X140862095Y-44267810D01*
X140824000Y-44220191D01*
X140785905Y-44124953D01*
X140785905Y-43886857D01*
X140824000Y-43744000D01*
D12*
X50268571Y-61149571D02*
X50768571Y-62649571D01*
X51268571Y-61149571D01*
X51768571Y-62649571D02*
X51768571Y-61149571D01*
X52482857Y-62649571D02*
X52482857Y-61149571D01*
X52840000Y-61149571D01*
X53054285Y-61221000D01*
X53197143Y-61363857D01*
X53268571Y-61506714D01*
X53340000Y-61792429D01*
X53340000Y-62006714D01*
X53268571Y-62292429D01*
X53197143Y-62435286D01*
X53054285Y-62578143D01*
X52840000Y-62649571D01*
X52482857Y-62649571D01*
X53982857Y-61863857D02*
X54482857Y-61863857D01*
X54697143Y-62649571D02*
X53982857Y-62649571D01*
X53982857Y-61149571D01*
X54697143Y-61149571D01*
X55625714Y-61149571D02*
X55911428Y-61149571D01*
X56054286Y-61221000D01*
X56197143Y-61363857D01*
X56268571Y-61649571D01*
X56268571Y-62149571D01*
X56197143Y-62435286D01*
X56054286Y-62578143D01*
X55911428Y-62649571D01*
X55625714Y-62649571D01*
X55482857Y-62578143D01*
X55340000Y-62435286D01*
X55268571Y-62149571D01*
X55268571Y-61649571D01*
X55340000Y-61363857D01*
X55482857Y-61221000D01*
X55625714Y-61149571D01*
X51697143Y-65199571D02*
X51697143Y-63699571D01*
X52268571Y-63699571D01*
X52411429Y-63771000D01*
X52482857Y-63842429D01*
X52554286Y-63985286D01*
X52554286Y-64199571D01*
X52482857Y-64342429D01*
X52411429Y-64413857D01*
X52268571Y-64485286D01*
X51697143Y-64485286D01*
X53125714Y-64771000D02*
X53840000Y-64771000D01*
X52982857Y-65199571D02*
X53482857Y-63699571D01*
X53982857Y-65199571D01*
X55197143Y-65199571D02*
X54482857Y-65199571D01*
X54482857Y-63699571D01*
D13*
X64783000Y-40142000D02*
X64783000Y-41031000D01*
X64656000Y-39888000D02*
X64656000Y-41158000D01*
X64529000Y-39761000D02*
X64529000Y-41285000D01*
X64402000Y-41539000D02*
X64402000Y-39634000D01*
X64910000Y-41031000D02*
X64402000Y-41539000D01*
X64910000Y-40142000D02*
X64910000Y-41031000D01*
X64402000Y-39634000D02*
X64910000Y-40142000D01*
X59957000Y-38872000D02*
X59957000Y-39888000D01*
X60084000Y-38999000D02*
X59957000Y-38872000D01*
X60084000Y-39761000D02*
X60084000Y-38999000D01*
X60084000Y-40269000D02*
X60084000Y-39761000D01*
X59830000Y-40015000D02*
X60084000Y-40269000D01*
X59830000Y-40015000D02*
X60084000Y-39761000D01*
X60084000Y-38999000D02*
X60084000Y-38491000D01*
X59830000Y-38745000D02*
X60084000Y-38999000D01*
X59830000Y-38745000D02*
X60084000Y-38491000D01*
D14*
X59253429Y-38139858D02*
X59205810Y-38282715D01*
X59158190Y-38330334D01*
X59062952Y-38377953D01*
X58920095Y-38377953D01*
X58824857Y-38330334D01*
X58777238Y-38282715D01*
X58729619Y-38187477D01*
X58729619Y-37806524D01*
X59729619Y-37806524D01*
X59729619Y-38139858D01*
X59682000Y-38235096D01*
X59634381Y-38282715D01*
X59539143Y-38330334D01*
X59443905Y-38330334D01*
X59348667Y-38282715D01*
X59301048Y-38235096D01*
X59253429Y-38139858D01*
X59253429Y-37806524D01*
X59729619Y-38997000D02*
X59729619Y-39187477D01*
X59682000Y-39282715D01*
X59586762Y-39377953D01*
X59396286Y-39425572D01*
X59062952Y-39425572D01*
X58872476Y-39377953D01*
X58777238Y-39282715D01*
X58729619Y-39187477D01*
X58729619Y-38997000D01*
X58777238Y-38901762D01*
X58872476Y-38806524D01*
X59062952Y-38758905D01*
X59396286Y-38758905D01*
X59586762Y-38806524D01*
X59682000Y-38901762D01*
X59729619Y-38997000D01*
X59729619Y-40044619D02*
X59729619Y-40235096D01*
X59682000Y-40330334D01*
X59586762Y-40425572D01*
X59396286Y-40473191D01*
X59062952Y-40473191D01*
X58872476Y-40425572D01*
X58777238Y-40330334D01*
X58729619Y-40235096D01*
X58729619Y-40044619D01*
X58777238Y-39949381D01*
X58872476Y-39854143D01*
X59062952Y-39806524D01*
X59396286Y-39806524D01*
X59586762Y-39854143D01*
X59682000Y-39949381D01*
X59729619Y-40044619D01*
X59729619Y-40758905D02*
X59729619Y-41330334D01*
X58729619Y-41044619D02*
X59729619Y-41044619D01*
D13*
X59830000Y-38745000D02*
X60084000Y-38745000D01*
X59830000Y-40015000D02*
X59830000Y-38745000D01*
X60084000Y-40015000D02*
X59830000Y-40015000D01*
X61862000Y-38745000D02*
X62624000Y-38745000D01*
X62624000Y-41285000D02*
X61862000Y-41285000D01*
X61862000Y-40015000D02*
X62624000Y-40015000D01*
D14*
X67238476Y-40282857D02*
X67286095Y-40235238D01*
X67428952Y-40187619D01*
X67524190Y-40187619D01*
X67667048Y-40235238D01*
X67762286Y-40330476D01*
X67809905Y-40425714D01*
X67857524Y-40616190D01*
X67857524Y-40759048D01*
X67809905Y-40949524D01*
X67762286Y-41044762D01*
X67667048Y-41140000D01*
X67524190Y-41187619D01*
X67428952Y-41187619D01*
X67286095Y-41140000D01*
X67238476Y-41092381D01*
X66857524Y-40473333D02*
X66381333Y-40473333D01*
X66952762Y-40187619D02*
X66619429Y-41187619D01*
X66286095Y-40187619D01*
X65952762Y-40187619D02*
X65952762Y-41187619D01*
X65619428Y-40473333D01*
X65286095Y-41187619D01*
X65286095Y-40187619D01*
D12*
X59967571Y-33674857D02*
X58824714Y-33674857D01*
X59396143Y-33103429D02*
X59396143Y-34246286D01*
X57396142Y-34603429D02*
X58110428Y-34603429D01*
X58181857Y-33889143D01*
X58110428Y-33960571D01*
X57967571Y-34032000D01*
X57610428Y-34032000D01*
X57467571Y-33960571D01*
X57396142Y-33889143D01*
X57324714Y-33746286D01*
X57324714Y-33389143D01*
X57396142Y-33246286D01*
X57467571Y-33174857D01*
X57610428Y-33103429D01*
X57967571Y-33103429D01*
X58110428Y-33174857D01*
X58181857Y-33246286D01*
X56896143Y-34603429D02*
X56396143Y-33103429D01*
X55896143Y-34603429D01*
D13*
X61278197Y-34808000D02*
G75*
G03X61278197Y-34808000I-813197J0D01*
G01*
D12*
X81050144Y-70084143D02*
X82193001Y-70084143D01*
X81621572Y-70655571D02*
X81621572Y-69512714D01*
X83693001Y-70655571D02*
X82835858Y-70655571D01*
X83264430Y-70655571D02*
X83264430Y-69155571D01*
X83121573Y-69369857D01*
X82978715Y-69512714D01*
X82835858Y-69584143D01*
X84121572Y-69155571D02*
X84621572Y-70655571D01*
X85121572Y-69155571D01*
X85835858Y-69798429D02*
X85693000Y-69727000D01*
X85621572Y-69655571D01*
X85550143Y-69512714D01*
X85550143Y-69441286D01*
X85621572Y-69298429D01*
X85693000Y-69227000D01*
X85835858Y-69155571D01*
X86121572Y-69155571D01*
X86264429Y-69227000D01*
X86335858Y-69298429D01*
X86407286Y-69441286D01*
X86407286Y-69512714D01*
X86335858Y-69655571D01*
X86264429Y-69727000D01*
X86121572Y-69798429D01*
X85835858Y-69798429D01*
X85693000Y-69869857D01*
X85621572Y-69941286D01*
X85550143Y-70084143D01*
X85550143Y-70369857D01*
X85621572Y-70512714D01*
X85693000Y-70584143D01*
X85835858Y-70655571D01*
X86121572Y-70655571D01*
X86264429Y-70584143D01*
X86335858Y-70512714D01*
X86407286Y-70369857D01*
X86407286Y-70084143D01*
X86335858Y-69941286D01*
X86264429Y-69869857D01*
X86121572Y-69798429D01*
D13*
X83566000Y-67066000D02*
G75*
G03X84582000Y-67066000I508000J-762000D01*
G01*
X103645000Y-67066000D02*
G75*
G03X104661000Y-67066000I508000J-762000D01*
G01*
D12*
X103656144Y-69576143D02*
X104799001Y-69576143D01*
X104227572Y-70147571D02*
X104227572Y-69004714D01*
X105370430Y-68647571D02*
X106299001Y-68647571D01*
X105799001Y-69219000D01*
X106013287Y-69219000D01*
X106156144Y-69290429D01*
X106227573Y-69361857D01*
X106299001Y-69504714D01*
X106299001Y-69861857D01*
X106227573Y-70004714D01*
X106156144Y-70076143D01*
X106013287Y-70147571D01*
X105584715Y-70147571D01*
X105441858Y-70076143D01*
X105370430Y-70004714D01*
X106727572Y-68647571D02*
X107227572Y-70147571D01*
X107727572Y-68647571D01*
X108084715Y-68647571D02*
X109013286Y-68647571D01*
X108513286Y-69219000D01*
X108727572Y-69219000D01*
X108870429Y-69290429D01*
X108941858Y-69361857D01*
X109013286Y-69504714D01*
X109013286Y-69861857D01*
X108941858Y-70004714D01*
X108870429Y-70076143D01*
X108727572Y-70147571D01*
X108299000Y-70147571D01*
X108156143Y-70076143D01*
X108084715Y-70004714D01*
D13*
X144539000Y-54493000D02*
X144158000Y-53604000D01*
X143777000Y-54493000D02*
X144539000Y-54493000D01*
X144158000Y-53604000D02*
X143777000Y-54493000D01*
X144158000Y-59827000D02*
X144158000Y-53604000D01*
D15*
X141756881Y-64216238D02*
X142566405Y-64216238D01*
X142661643Y-64168619D01*
X142709262Y-64121000D01*
X142756881Y-64025762D01*
X142756881Y-63835285D01*
X142709262Y-63740047D01*
X142661643Y-63692428D01*
X142566405Y-63644809D01*
X141756881Y-63644809D01*
X142471167Y-63216238D02*
X142471167Y-62740047D01*
X142756881Y-63311476D02*
X141756881Y-62978143D01*
X142756881Y-62644809D01*
X142756881Y-61740047D02*
X142280690Y-62073381D01*
X142756881Y-62311476D02*
X141756881Y-62311476D01*
X141756881Y-61930523D01*
X141804500Y-61835285D01*
X141852119Y-61787666D01*
X141947357Y-61740047D01*
X142090214Y-61740047D01*
X142185452Y-61787666D01*
X142233071Y-61835285D01*
X142280690Y-61930523D01*
X142280690Y-62311476D01*
X141756881Y-61454333D02*
X141756881Y-60882904D01*
X142756881Y-61168619D02*
X141756881Y-61168619D01*
X144431881Y-64859095D02*
X143431881Y-64859095D01*
X143431881Y-64621000D01*
X143479500Y-64478142D01*
X143574738Y-64382904D01*
X143669976Y-64335285D01*
X143860452Y-64287666D01*
X144003310Y-64287666D01*
X144193786Y-64335285D01*
X144289024Y-64382904D01*
X144384262Y-64478142D01*
X144431881Y-64621000D01*
X144431881Y-64859095D01*
X143908071Y-63859095D02*
X143908071Y-63525761D01*
X144431881Y-63382904D02*
X144431881Y-63859095D01*
X143431881Y-63859095D01*
X143431881Y-63382904D01*
X143908071Y-62620999D02*
X143955690Y-62478142D01*
X144003310Y-62430523D01*
X144098548Y-62382904D01*
X144241405Y-62382904D01*
X144336643Y-62430523D01*
X144384262Y-62478142D01*
X144431881Y-62573380D01*
X144431881Y-62954333D01*
X143431881Y-62954333D01*
X143431881Y-62620999D01*
X143479500Y-62525761D01*
X143527119Y-62478142D01*
X143622357Y-62430523D01*
X143717595Y-62430523D01*
X143812833Y-62478142D01*
X143860452Y-62525761D01*
X143908071Y-62620999D01*
X143908071Y-62954333D01*
X143431881Y-61954333D02*
X144241405Y-61954333D01*
X144336643Y-61906714D01*
X144384262Y-61859095D01*
X144431881Y-61763857D01*
X144431881Y-61573380D01*
X144384262Y-61478142D01*
X144336643Y-61430523D01*
X144241405Y-61382904D01*
X143431881Y-61382904D01*
X143479500Y-60382904D02*
X143431881Y-60478142D01*
X143431881Y-60620999D01*
X143479500Y-60763857D01*
X143574738Y-60859095D01*
X143669976Y-60906714D01*
X143860452Y-60954333D01*
X144003310Y-60954333D01*
X144193786Y-60906714D01*
X144289024Y-60859095D01*
X144384262Y-60763857D01*
X144431881Y-60620999D01*
X144431881Y-60525761D01*
X144384262Y-60382904D01*
X144336643Y-60335285D01*
X144003310Y-60335285D01*
X144003310Y-60525761D01*
D16*
X138270000Y-79465000D02*
X138270000Y-49565000D01*
X70670000Y-79465000D02*
X138270000Y-79465000D01*
X70670000Y-79465000D02*
X70670000Y-49565000D01*
D14*
X143610381Y-53222905D02*
X143610381Y-52651476D01*
X144610381Y-52937191D02*
X143610381Y-52937191D01*
X143610381Y-52413381D02*
X144610381Y-51746714D01*
X143610381Y-51746714D02*
X144610381Y-52413381D01*
X144610381Y-42467666D02*
X144134190Y-42801000D01*
X144610381Y-43039095D02*
X143610381Y-43039095D01*
X143610381Y-42658142D01*
X143658000Y-42562904D01*
X143705619Y-42515285D01*
X143800857Y-42467666D01*
X143943714Y-42467666D01*
X144038952Y-42515285D01*
X144086571Y-42562904D01*
X144134190Y-42658142D01*
X144134190Y-43039095D01*
X143610381Y-42134333D02*
X144610381Y-41467666D01*
X143610381Y-41467666D02*
X144610381Y-42134333D01*
D17*
X129525000Y-40040000D02*
X77845000Y-40040000D01*
X129525000Y-40040000D02*
X129525000Y-33450000D01*
X77845000Y-33450000D02*
X77845000Y-40040000D01*
X77845000Y-33450000D02*
X129525000Y-33450000D01*
X74010000Y-57369000D02*
X73310000Y-57369000D01*
X73310000Y-56169000D02*
X74010000Y-56169000D01*
X77145000Y-33535000D02*
X68445000Y-33535000D01*
X77145000Y-39945000D02*
X68445000Y-39945000D01*
X68445000Y-39945000D02*
X68445000Y-33535000D01*
X68445000Y-34765000D02*
X77145000Y-34765000D01*
X77145000Y-33535000D02*
X77145000Y-39945000D01*
X136918000Y-38232000D02*
X136918000Y-42052000D01*
X136918000Y-42052000D02*
X138698000Y-42052000D01*
X138698000Y-42052000D02*
X138698000Y-38232000D01*
X136918000Y-38232000D02*
X138698000Y-38232000D01*
X68164000Y-45243000D02*
X68164000Y-45943000D01*
X66964000Y-45943000D02*
X66964000Y-45243000D01*
X122220000Y-54965000D02*
X122920000Y-54965000D01*
X122920000Y-56165000D02*
X122220000Y-56165000D01*
X79100000Y-54900000D02*
X79800000Y-54900000D01*
X79800000Y-56100000D02*
X79100000Y-56100000D01*
X96121000Y-41758000D02*
X95421000Y-41758000D01*
X95421000Y-40558000D02*
X96121000Y-40558000D01*
X92245000Y-57252000D02*
X91545000Y-57252000D01*
X91545000Y-56052000D02*
X92245000Y-56052000D01*
X92502500Y-59036500D02*
X93202500Y-59036500D01*
X93202500Y-60236500D02*
X92502500Y-60236500D01*
X95486000Y-70841000D02*
X94786000Y-70841000D01*
X94786000Y-69641000D02*
X95486000Y-69641000D01*
X100251000Y-68301000D02*
X99551000Y-68301000D01*
X99551000Y-67101000D02*
X100251000Y-67101000D01*
X82528000Y-63094000D02*
X82528000Y-63794000D01*
X81328000Y-63794000D02*
X81328000Y-63094000D01*
X57298000Y-43309000D02*
X58298000Y-43309000D01*
X58298000Y-43309000D02*
X58298000Y-41209000D01*
X57298000Y-43309000D02*
X57298000Y-41209000D01*
X132736000Y-35435000D02*
X133736000Y-35435000D01*
X133736000Y-35435000D02*
X133736000Y-33335000D01*
X132736000Y-35435000D02*
X132736000Y-33335000D01*
X60083000Y-38105000D02*
X60083000Y-41925000D01*
X60083000Y-41925000D02*
X61863000Y-41925000D01*
X61863000Y-41925000D02*
X61863000Y-38105000D01*
X60083000Y-38105000D02*
X61863000Y-38105000D01*
X62623000Y-38105000D02*
X62623000Y-41925000D01*
X62623000Y-41925000D02*
X64403000Y-41925000D01*
X64403000Y-41925000D02*
X64403000Y-38105000D01*
X62623000Y-38105000D02*
X64403000Y-38105000D01*
D14*
X93080078Y-63315000D02*
G75*
G03X93080078Y-63315000I-160078J0D01*
G01*
X89859000Y-66822000D02*
X82959000Y-66822000D01*
X89859000Y-61722000D02*
X82959000Y-61722000D01*
X98381000Y-61722000D02*
X105281000Y-61722000D01*
X98381000Y-66822000D02*
X105281000Y-66822000D01*
D17*
X144659000Y-48651000D02*
X144659000Y-43451000D01*
X144659000Y-43451000D02*
X141879000Y-43451000D01*
X141879000Y-43451000D02*
X141879000Y-48651000D01*
X141879000Y-48651000D02*
X144659000Y-48651000D01*
X144659000Y-49921000D02*
X144659000Y-51311000D01*
X144659000Y-51311000D02*
X143269000Y-51311000D01*
D14*
X45733000Y-47635000D02*
X48273000Y-47635000D01*
X45733000Y-57795000D02*
X45733000Y-47635000D01*
X48273000Y-57795000D02*
X45733000Y-57795000D01*
X52591000Y-59700000D02*
X55258000Y-59700000D01*
X48273000Y-59700000D02*
X49162000Y-59700000D01*
X48273000Y-45730000D02*
X48273000Y-59700000D01*
X49162000Y-45730000D02*
X48273000Y-45730000D01*
X55258000Y-45730000D02*
X52591000Y-45730000D01*
X50178000Y-49540000D02*
G75*
G03X50178000Y-55890000I6350000J-3175000D01*
G01*
X53353000Y-59065000D02*
G75*
G03X59703000Y-59065000I3175000J6350000D01*
G01*
X62878000Y-55890000D02*
G75*
G03X62878000Y-49540000I-6350000J3175000D01*
G01*
X59703000Y-46365000D02*
G75*
G03X53353000Y-46365000I-3175000J-6350000D01*
G01*
D17*
X75957000Y-61065000D02*
X74057000Y-61065000D01*
X74557000Y-63385000D02*
X75957000Y-63385000D01*
D14*
X130120000Y-41465000D02*
X130120000Y-42465000D01*
X114520000Y-41465000D02*
X114520000Y-42465000D01*
X120520000Y-41465000D02*
X120520000Y-42465000D01*
X108520000Y-41465000D02*
X108520000Y-42465000D01*
X102520000Y-41465000D02*
X102520000Y-42465000D01*
X78520000Y-41465000D02*
X78520000Y-42465000D01*
X84520000Y-41465000D02*
X84520000Y-42465000D01*
X96520000Y-41465000D02*
X96520000Y-42465000D01*
X90520000Y-41465000D02*
X90520000Y-42465000D01*
X84820000Y-54465000D02*
X84820000Y-55465000D01*
X90820000Y-54465000D02*
X90820000Y-55465000D01*
X78820000Y-54465000D02*
X78820000Y-55465000D01*
X72820000Y-54465000D02*
X72820000Y-55465000D01*
X96820000Y-54465000D02*
X96820000Y-55465000D01*
X102820000Y-54465000D02*
X102820000Y-55465000D01*
X114820000Y-54465000D02*
X114820000Y-55465000D01*
X108820000Y-54465000D02*
X108820000Y-55465000D01*
X124420000Y-54465000D02*
X124420000Y-55465000D01*
X68470000Y-42465000D02*
X68470000Y-52565000D01*
X68470000Y-62465000D02*
X68470000Y-60265000D01*
X68470000Y-60265000D02*
X65970000Y-60265000D01*
X68470000Y-52565000D02*
X65970000Y-52565000D01*
X140470000Y-52565000D02*
X140470000Y-42465000D01*
X140470000Y-62465000D02*
X140470000Y-60165000D01*
X140470000Y-60165000D02*
X142970000Y-60165000D01*
X140470000Y-52565000D02*
X142970000Y-52565000D01*
X130420000Y-54465000D02*
X130420000Y-55465000D01*
X136120000Y-42315000D02*
X135520000Y-41815000D01*
X135520000Y-41815000D02*
X136720000Y-41815000D01*
X136720000Y-41815000D02*
X136120000Y-42315000D01*
X122920000Y-52965000D02*
X122920000Y-51365000D01*
X122020000Y-52965000D02*
X122020000Y-51365000D01*
X122020000Y-53815000D02*
X122020000Y-55065000D01*
X122920000Y-53815000D02*
X122920000Y-55065000D01*
X141970000Y-68465000D02*
X141970000Y-65465000D01*
X141970000Y-65465000D02*
X140470000Y-62465000D01*
X140470000Y-42465000D02*
X68470000Y-42465000D01*
X68470000Y-62465000D02*
X66970000Y-65465000D01*
X66970000Y-65465000D02*
X66970000Y-68465000D01*
X66970000Y-68465000D02*
X71470000Y-68465000D01*
X71470000Y-68465000D02*
X71470000Y-54465000D01*
X71470000Y-54465000D02*
X104470000Y-54465000D01*
X104470000Y-54465000D02*
X137470000Y-54465000D01*
X137470000Y-54465000D02*
X137470000Y-68465000D01*
X137470000Y-68465000D02*
X141970000Y-68465000D01*
D17*
X58478000Y-38075000D02*
X58478000Y-39075000D01*
X57118000Y-39075000D02*
X57118000Y-38075000D01*
X93350000Y-61713500D02*
X92350000Y-61713500D01*
X92350000Y-60353500D02*
X93350000Y-60353500D01*
X94636000Y-68164000D02*
X95636000Y-68164000D01*
X95636000Y-69524000D02*
X94636000Y-69524000D01*
X95636000Y-72318000D02*
X94636000Y-72318000D01*
X94636000Y-70958000D02*
X95636000Y-70958000D01*
X66008000Y-38145000D02*
X66008000Y-37145000D01*
X67368000Y-37145000D02*
X67368000Y-38145000D01*
X106685000Y-56189000D02*
X105685000Y-56189000D01*
X105685000Y-54829000D02*
X106685000Y-54829000D01*
X109579000Y-54829000D02*
X110579000Y-54829000D01*
X110579000Y-56189000D02*
X109579000Y-56189000D01*
X68548000Y-78064000D02*
X68548000Y-77064000D01*
X69908000Y-77064000D02*
X69908000Y-78064000D01*
X140774000Y-70841000D02*
X140774000Y-71841000D01*
X139414000Y-71841000D02*
X139414000Y-70841000D01*
X135614000Y-32731000D02*
X136614000Y-32731000D01*
X136614000Y-34091000D02*
X135614000Y-34091000D01*
X142933000Y-70841000D02*
X142933000Y-71841000D01*
X141573000Y-71841000D02*
X141573000Y-70841000D01*
X50768000Y-42590000D02*
X50768000Y-41590000D01*
X52128000Y-41590000D02*
X52128000Y-42590000D01*
X50985000Y-70165000D02*
X50985000Y-71165000D01*
X49625000Y-71165000D02*
X49625000Y-70165000D01*
X107998000Y-79049000D02*
X106998000Y-79049000D01*
X106998000Y-77689000D02*
X107998000Y-77689000D01*
X135705000Y-36445000D02*
X134775000Y-36445000D01*
X132545000Y-36445000D02*
X133475000Y-36445000D01*
X132545000Y-36445000D02*
X132545000Y-38605000D01*
X135705000Y-36445000D02*
X135705000Y-37905000D01*
X133857000Y-39070000D02*
X133857000Y-40000000D01*
X133857000Y-42230000D02*
X133857000Y-41300000D01*
X133857000Y-42230000D02*
X136017000Y-42230000D01*
X133857000Y-39070000D02*
X135317000Y-39070000D01*
X92362000Y-57496000D02*
X93362000Y-57496000D01*
X93362000Y-58856000D02*
X92362000Y-58856000D01*
X139287000Y-41416000D02*
X139287000Y-40416000D01*
X140647000Y-40416000D02*
X140647000Y-41416000D01*
X132392000Y-33812000D02*
X132392000Y-34812000D01*
X131032000Y-34812000D02*
X131032000Y-33812000D01*
X127144000Y-57586000D02*
X126144000Y-57586000D01*
X126144000Y-56226000D02*
X127144000Y-56226000D01*
X128660000Y-56226000D02*
X129660000Y-56226000D01*
X129660000Y-57586000D02*
X128660000Y-57586000D01*
X72876000Y-61140000D02*
X72876000Y-61840000D01*
X71676000Y-61840000D02*
X71676000Y-61140000D01*
X77145000Y-63672000D02*
X77845000Y-63672000D01*
X77845000Y-64872000D02*
X77145000Y-64872000D01*
X78972000Y-61370000D02*
X78972000Y-62070000D01*
X77772000Y-62070000D02*
X77772000Y-61370000D01*
X91815000Y-62967000D02*
X91115000Y-62967000D01*
X91115000Y-61767000D02*
X91815000Y-61767000D01*
X96102249Y-61926223D02*
X96597223Y-61431249D01*
X97445751Y-62279777D02*
X96950777Y-62774751D01*
X94923614Y-61086721D02*
X95630721Y-60379614D01*
X96592386Y-61341279D02*
X95885279Y-62048386D01*
X96846386Y-59055279D02*
X96139279Y-59762386D01*
X95177614Y-58800721D02*
X95884721Y-58093614D01*
D14*
X73493334Y-58523143D02*
X73445715Y-58570762D01*
X73302858Y-58618381D01*
X73207620Y-58618381D01*
X73064762Y-58570762D01*
X72969524Y-58475524D01*
X72921905Y-58380286D01*
X72874286Y-58189810D01*
X72874286Y-58046952D01*
X72921905Y-57856476D01*
X72969524Y-57761238D01*
X73064762Y-57666000D01*
X73207620Y-57618381D01*
X73302858Y-57618381D01*
X73445715Y-57666000D01*
X73493334Y-57713619D01*
X74445715Y-58618381D02*
X73874286Y-58618381D01*
X74160000Y-58618381D02*
X74160000Y-57618381D01*
X74064762Y-57761238D01*
X73969524Y-57856476D01*
X73874286Y-57904095D01*
X72011667Y-40467381D02*
X72011667Y-41181667D01*
X71964047Y-41324524D01*
X71868809Y-41419762D01*
X71725952Y-41467381D01*
X71630714Y-41467381D01*
X72964048Y-40467381D02*
X72487857Y-40467381D01*
X72440238Y-40943571D01*
X72487857Y-40895952D01*
X72583095Y-40848333D01*
X72821191Y-40848333D01*
X72916429Y-40895952D01*
X72964048Y-40943571D01*
X73011667Y-41038810D01*
X73011667Y-41276905D01*
X72964048Y-41372143D01*
X72916429Y-41419762D01*
X72821191Y-41467381D01*
X72583095Y-41467381D01*
X72487857Y-41419762D01*
X72440238Y-41372143D01*
X67921143Y-42959666D02*
X67968762Y-43007285D01*
X68016381Y-43150142D01*
X68016381Y-43245380D01*
X67968762Y-43388238D01*
X67873524Y-43483476D01*
X67778286Y-43531095D01*
X67587810Y-43578714D01*
X67444952Y-43578714D01*
X67254476Y-43531095D01*
X67159238Y-43483476D01*
X67064000Y-43388238D01*
X67016381Y-43245380D01*
X67016381Y-43150142D01*
X67064000Y-43007285D01*
X67111619Y-42959666D01*
X67111619Y-42578714D02*
X67064000Y-42531095D01*
X67016381Y-42435857D01*
X67016381Y-42197761D01*
X67064000Y-42102523D01*
X67111619Y-42054904D01*
X67206857Y-42007285D01*
X67302095Y-42007285D01*
X67444952Y-42054904D01*
X68016381Y-42626333D01*
X68016381Y-42007285D01*
X88987334Y-57009143D02*
X88939715Y-57056762D01*
X88796858Y-57104381D01*
X88701620Y-57104381D01*
X88558762Y-57056762D01*
X88463524Y-56961524D01*
X88415905Y-56866286D01*
X88368286Y-56675810D01*
X88368286Y-56532952D01*
X88415905Y-56342476D01*
X88463524Y-56247238D01*
X88558762Y-56152000D01*
X88701620Y-56104381D01*
X88796858Y-56104381D01*
X88939715Y-56152000D01*
X88987334Y-56199619D01*
X89320667Y-56104381D02*
X89987334Y-56104381D01*
X89558762Y-57104381D01*
X90003334Y-59920143D02*
X89955715Y-59967762D01*
X89812858Y-60015381D01*
X89717620Y-60015381D01*
X89574762Y-59967762D01*
X89479524Y-59872524D01*
X89431905Y-59777286D01*
X89384286Y-59586810D01*
X89384286Y-59443952D01*
X89431905Y-59253476D01*
X89479524Y-59158238D01*
X89574762Y-59063000D01*
X89717620Y-59015381D01*
X89812858Y-59015381D01*
X89955715Y-59063000D01*
X90003334Y-59110619D01*
X90479524Y-60015381D02*
X90670000Y-60015381D01*
X90765239Y-59967762D01*
X90812858Y-59920143D01*
X90908096Y-59777286D01*
X90955715Y-59586810D01*
X90955715Y-59205857D01*
X90908096Y-59110619D01*
X90860477Y-59063000D01*
X90765239Y-59015381D01*
X90574762Y-59015381D01*
X90479524Y-59063000D01*
X90431905Y-59110619D01*
X90384286Y-59205857D01*
X90384286Y-59443952D01*
X90431905Y-59539190D01*
X90479524Y-59586810D01*
X90574762Y-59634429D01*
X90765239Y-59634429D01*
X90860477Y-59586810D01*
X90908096Y-59539190D01*
X90955715Y-59443952D01*
X91178143Y-70588143D02*
X91130524Y-70635762D01*
X90987667Y-70683381D01*
X90892429Y-70683381D01*
X90749571Y-70635762D01*
X90654333Y-70540524D01*
X90606714Y-70445286D01*
X90559095Y-70254810D01*
X90559095Y-70111952D01*
X90606714Y-69921476D01*
X90654333Y-69826238D01*
X90749571Y-69731000D01*
X90892429Y-69683381D01*
X90987667Y-69683381D01*
X91130524Y-69731000D01*
X91178143Y-69778619D01*
X92130524Y-70683381D02*
X91559095Y-70683381D01*
X91844809Y-70683381D02*
X91844809Y-69683381D01*
X91749571Y-69826238D01*
X91654333Y-69921476D01*
X91559095Y-69969095D01*
X92749571Y-69683381D02*
X92844810Y-69683381D01*
X92940048Y-69731000D01*
X92987667Y-69778619D01*
X93035286Y-69873857D01*
X93082905Y-70064333D01*
X93082905Y-70302429D01*
X93035286Y-70492905D01*
X92987667Y-70588143D01*
X92940048Y-70635762D01*
X92844810Y-70683381D01*
X92749571Y-70683381D01*
X92654333Y-70635762D01*
X92606714Y-70588143D01*
X92559095Y-70492905D01*
X92511476Y-70302429D01*
X92511476Y-70064333D01*
X92559095Y-69873857D01*
X92606714Y-69778619D01*
X92654333Y-69731000D01*
X92749571Y-69683381D01*
X99687143Y-69445143D02*
X99639524Y-69492762D01*
X99496667Y-69540381D01*
X99401429Y-69540381D01*
X99258571Y-69492762D01*
X99163333Y-69397524D01*
X99115714Y-69302286D01*
X99068095Y-69111810D01*
X99068095Y-68968952D01*
X99115714Y-68778476D01*
X99163333Y-68683238D01*
X99258571Y-68588000D01*
X99401429Y-68540381D01*
X99496667Y-68540381D01*
X99639524Y-68588000D01*
X99687143Y-68635619D01*
X100639524Y-69540381D02*
X100068095Y-69540381D01*
X100353809Y-69540381D02*
X100353809Y-68540381D01*
X100258571Y-68683238D01*
X100163333Y-68778476D01*
X100068095Y-68826095D01*
X101591905Y-69540381D02*
X101020476Y-69540381D01*
X101306190Y-69540381D02*
X101306190Y-68540381D01*
X101210952Y-68683238D01*
X101115714Y-68778476D01*
X101020476Y-68826095D01*
X81002143Y-64650857D02*
X81049762Y-64698476D01*
X81097381Y-64841333D01*
X81097381Y-64936571D01*
X81049762Y-65079429D01*
X80954524Y-65174667D01*
X80859286Y-65222286D01*
X80668810Y-65269905D01*
X80525952Y-65269905D01*
X80335476Y-65222286D01*
X80240238Y-65174667D01*
X80145000Y-65079429D01*
X80097381Y-64936571D01*
X80097381Y-64841333D01*
X80145000Y-64698476D01*
X80192619Y-64650857D01*
X81097381Y-63698476D02*
X81097381Y-64269905D01*
X81097381Y-63984191D02*
X80097381Y-63984191D01*
X80240238Y-64079429D01*
X80335476Y-64174667D01*
X80383095Y-64269905D01*
X80192619Y-63317524D02*
X80145000Y-63269905D01*
X80097381Y-63174667D01*
X80097381Y-62936571D01*
X80145000Y-62841333D01*
X80192619Y-62793714D01*
X80287857Y-62746095D01*
X80383095Y-62746095D01*
X80525952Y-62793714D01*
X81097381Y-63365143D01*
X81097381Y-62746095D01*
X56713381Y-44727524D02*
X55713381Y-44727524D01*
X55713381Y-44346571D01*
X55761000Y-44251333D01*
X55808619Y-44203714D01*
X55903857Y-44156095D01*
X56046714Y-44156095D01*
X56141952Y-44203714D01*
X56189571Y-44251333D01*
X56237190Y-44346571D01*
X56237190Y-44727524D01*
X55713381Y-43537048D02*
X55713381Y-43346571D01*
X55761000Y-43251333D01*
X55856238Y-43156095D01*
X56046714Y-43108476D01*
X56380048Y-43108476D01*
X56570524Y-43156095D01*
X56665762Y-43251333D01*
X56713381Y-43346571D01*
X56713381Y-43537048D01*
X56665762Y-43632286D01*
X56570524Y-43727524D01*
X56380048Y-43775143D01*
X56046714Y-43775143D01*
X55856238Y-43727524D01*
X55761000Y-43632286D01*
X55713381Y-43537048D01*
X55713381Y-42775143D02*
X56713381Y-42537048D01*
X55999095Y-42346571D01*
X56713381Y-42156095D01*
X55713381Y-41918000D01*
X56189571Y-41537048D02*
X56189571Y-41203714D01*
X56713381Y-41060857D02*
X56713381Y-41537048D01*
X55713381Y-41537048D01*
X55713381Y-41060857D01*
X56713381Y-40060857D02*
X56237190Y-40394191D01*
X56713381Y-40632286D02*
X55713381Y-40632286D01*
X55713381Y-40251333D01*
X55761000Y-40156095D01*
X55808619Y-40108476D01*
X55903857Y-40060857D01*
X56046714Y-40060857D01*
X56141952Y-40108476D01*
X56189571Y-40156095D01*
X56237190Y-40251333D01*
X56237190Y-40632286D01*
X60600381Y-42903333D02*
X61314667Y-42903333D01*
X61457524Y-42950953D01*
X61552762Y-43046191D01*
X61600381Y-43189048D01*
X61600381Y-43284286D01*
X61600381Y-41903333D02*
X61600381Y-42474762D01*
X61600381Y-42189048D02*
X60600381Y-42189048D01*
X60743238Y-42284286D01*
X60838476Y-42379524D01*
X60886095Y-42474762D01*
X90805095Y-66635381D02*
X90805095Y-67444905D01*
X90852714Y-67540143D01*
X90900333Y-67587762D01*
X90995571Y-67635381D01*
X91186048Y-67635381D01*
X91281286Y-67587762D01*
X91328905Y-67540143D01*
X91376524Y-67444905D01*
X91376524Y-66635381D01*
X92376524Y-67635381D02*
X91805095Y-67635381D01*
X92090809Y-67635381D02*
X92090809Y-66635381D01*
X91995571Y-66778238D01*
X91900333Y-66873476D01*
X91805095Y-66921095D01*
X86217334Y-61412381D02*
X85741143Y-61412381D01*
X85741143Y-60412381D01*
X87074477Y-61412381D02*
X86503048Y-61412381D01*
X86788762Y-61412381D02*
X86788762Y-60412381D01*
X86693524Y-60555238D01*
X86598286Y-60650476D01*
X86503048Y-60698095D01*
X101687334Y-61412381D02*
X101211143Y-61412381D01*
X101211143Y-60412381D01*
X101973048Y-60507619D02*
X102020667Y-60460000D01*
X102115905Y-60412381D01*
X102354001Y-60412381D01*
X102449239Y-60460000D01*
X102496858Y-60507619D01*
X102544477Y-60602857D01*
X102544477Y-60698095D01*
X102496858Y-60840952D01*
X101925429Y-61412381D01*
X102544477Y-61412381D01*
X74295095Y-63714381D02*
X74295095Y-64523905D01*
X74342714Y-64619143D01*
X74390333Y-64666762D01*
X74485571Y-64714381D01*
X74676048Y-64714381D01*
X74771286Y-64666762D01*
X74818905Y-64619143D01*
X74866524Y-64523905D01*
X74866524Y-63714381D01*
X75295095Y-63809619D02*
X75342714Y-63762000D01*
X75437952Y-63714381D01*
X75676048Y-63714381D01*
X75771286Y-63762000D01*
X75818905Y-63809619D01*
X75866524Y-63904857D01*
X75866524Y-64000095D01*
X75818905Y-64142952D01*
X75247476Y-64714381D01*
X75866524Y-64714381D01*
X130558095Y-41112619D02*
X130605714Y-41065000D01*
X130700952Y-41017381D01*
X130939048Y-41017381D01*
X131034286Y-41065000D01*
X131081905Y-41112619D01*
X131129524Y-41207857D01*
X131129524Y-41303095D01*
X131081905Y-41445952D01*
X130510476Y-42017381D01*
X131129524Y-42017381D01*
X132081905Y-42017381D02*
X131510476Y-42017381D01*
X131796190Y-42017381D02*
X131796190Y-41017381D01*
X131700952Y-41160238D01*
X131605714Y-41255476D01*
X131510476Y-41303095D01*
X121434286Y-41350714D02*
X121434286Y-42017381D01*
X121196190Y-40969762D02*
X120958095Y-41684048D01*
X121577143Y-41684048D01*
X122481905Y-42017381D02*
X121910476Y-42017381D01*
X122196190Y-42017381D02*
X122196190Y-41017381D01*
X122100952Y-41160238D01*
X122005714Y-41255476D01*
X121910476Y-41303095D01*
X115434286Y-41017381D02*
X115243809Y-41017381D01*
X115148571Y-41065000D01*
X115100952Y-41112619D01*
X115005714Y-41255476D01*
X114958095Y-41445952D01*
X114958095Y-41826905D01*
X115005714Y-41922143D01*
X115053333Y-41969762D01*
X115148571Y-42017381D01*
X115339048Y-42017381D01*
X115434286Y-41969762D01*
X115481905Y-41922143D01*
X115529524Y-41826905D01*
X115529524Y-41588810D01*
X115481905Y-41493571D01*
X115434286Y-41445952D01*
X115339048Y-41398333D01*
X115148571Y-41398333D01*
X115053333Y-41445952D01*
X115005714Y-41493571D01*
X114958095Y-41588810D01*
X116481905Y-42017381D02*
X115910476Y-42017381D01*
X116196190Y-42017381D02*
X116196190Y-41017381D01*
X116100952Y-41160238D01*
X116005714Y-41255476D01*
X115910476Y-41303095D01*
X109148571Y-41445952D02*
X109053333Y-41398333D01*
X109005714Y-41350714D01*
X108958095Y-41255476D01*
X108958095Y-41207857D01*
X109005714Y-41112619D01*
X109053333Y-41065000D01*
X109148571Y-41017381D01*
X109339048Y-41017381D01*
X109434286Y-41065000D01*
X109481905Y-41112619D01*
X109529524Y-41207857D01*
X109529524Y-41255476D01*
X109481905Y-41350714D01*
X109434286Y-41398333D01*
X109339048Y-41445952D01*
X109148571Y-41445952D01*
X109053333Y-41493571D01*
X109005714Y-41541190D01*
X108958095Y-41636429D01*
X108958095Y-41826905D01*
X109005714Y-41922143D01*
X109053333Y-41969762D01*
X109148571Y-42017381D01*
X109339048Y-42017381D01*
X109434286Y-41969762D01*
X109481905Y-41922143D01*
X109529524Y-41826905D01*
X109529524Y-41636429D01*
X109481905Y-41541190D01*
X109434286Y-41493571D01*
X109339048Y-41445952D01*
X110481905Y-42017381D02*
X109910476Y-42017381D01*
X110196190Y-42017381D02*
X110196190Y-41017381D01*
X110100952Y-41160238D01*
X110005714Y-41255476D01*
X109910476Y-41303095D01*
X103453334Y-42017381D02*
X102881905Y-42017381D01*
X103167619Y-42017381D02*
X103167619Y-41017381D01*
X103072381Y-41160238D01*
X102977143Y-41255476D01*
X102881905Y-41303095D01*
X104072381Y-41017381D02*
X104167620Y-41017381D01*
X104262858Y-41065000D01*
X104310477Y-41112619D01*
X104358096Y-41207857D01*
X104405715Y-41398333D01*
X104405715Y-41636429D01*
X104358096Y-41826905D01*
X104310477Y-41922143D01*
X104262858Y-41969762D01*
X104167620Y-42017381D01*
X104072381Y-42017381D01*
X103977143Y-41969762D01*
X103929524Y-41922143D01*
X103881905Y-41826905D01*
X103834286Y-41636429D01*
X103834286Y-41398333D01*
X103881905Y-41207857D01*
X103929524Y-41112619D01*
X103977143Y-41065000D01*
X104072381Y-41017381D01*
X105358096Y-42017381D02*
X104786667Y-42017381D01*
X105072381Y-42017381D02*
X105072381Y-41017381D01*
X104977143Y-41160238D01*
X104881905Y-41255476D01*
X104786667Y-41303095D01*
X97453334Y-42017381D02*
X96881905Y-42017381D01*
X97167619Y-42017381D02*
X97167619Y-41017381D01*
X97072381Y-41160238D01*
X96977143Y-41255476D01*
X96881905Y-41303095D01*
X97834286Y-41112619D02*
X97881905Y-41065000D01*
X97977143Y-41017381D01*
X98215239Y-41017381D01*
X98310477Y-41065000D01*
X98358096Y-41112619D01*
X98405715Y-41207857D01*
X98405715Y-41303095D01*
X98358096Y-41445952D01*
X97786667Y-42017381D01*
X98405715Y-42017381D01*
X99358096Y-42017381D02*
X98786667Y-42017381D01*
X99072381Y-42017381D02*
X99072381Y-41017381D01*
X98977143Y-41160238D01*
X98881905Y-41255476D01*
X98786667Y-41303095D01*
X91453334Y-42017381D02*
X90881905Y-42017381D01*
X91167619Y-42017381D02*
X91167619Y-41017381D01*
X91072381Y-41160238D01*
X90977143Y-41255476D01*
X90881905Y-41303095D01*
X92310477Y-41350714D02*
X92310477Y-42017381D01*
X92072381Y-40969762D02*
X91834286Y-41684048D01*
X92453334Y-41684048D01*
X93358096Y-42017381D02*
X92786667Y-42017381D01*
X93072381Y-42017381D02*
X93072381Y-41017381D01*
X92977143Y-41160238D01*
X92881905Y-41255476D01*
X92786667Y-41303095D01*
X85453334Y-42017381D02*
X84881905Y-42017381D01*
X85167619Y-42017381D02*
X85167619Y-41017381D01*
X85072381Y-41160238D01*
X84977143Y-41255476D01*
X84881905Y-41303095D01*
X86310477Y-41017381D02*
X86120000Y-41017381D01*
X86024762Y-41065000D01*
X85977143Y-41112619D01*
X85881905Y-41255476D01*
X85834286Y-41445952D01*
X85834286Y-41826905D01*
X85881905Y-41922143D01*
X85929524Y-41969762D01*
X86024762Y-42017381D01*
X86215239Y-42017381D01*
X86310477Y-41969762D01*
X86358096Y-41922143D01*
X86405715Y-41826905D01*
X86405715Y-41588810D01*
X86358096Y-41493571D01*
X86310477Y-41445952D01*
X86215239Y-41398333D01*
X86024762Y-41398333D01*
X85929524Y-41445952D01*
X85881905Y-41493571D01*
X85834286Y-41588810D01*
X87358096Y-42017381D02*
X86786667Y-42017381D01*
X87072381Y-42017381D02*
X87072381Y-41017381D01*
X86977143Y-41160238D01*
X86881905Y-41255476D01*
X86786667Y-41303095D01*
X79453334Y-42017381D02*
X78881905Y-42017381D01*
X79167619Y-42017381D02*
X79167619Y-41017381D01*
X79072381Y-41160238D01*
X78977143Y-41255476D01*
X78881905Y-41303095D01*
X80024762Y-41445952D02*
X79929524Y-41398333D01*
X79881905Y-41350714D01*
X79834286Y-41255476D01*
X79834286Y-41207857D01*
X79881905Y-41112619D01*
X79929524Y-41065000D01*
X80024762Y-41017381D01*
X80215239Y-41017381D01*
X80310477Y-41065000D01*
X80358096Y-41112619D01*
X80405715Y-41207857D01*
X80405715Y-41255476D01*
X80358096Y-41350714D01*
X80310477Y-41398333D01*
X80215239Y-41445952D01*
X80024762Y-41445952D01*
X79929524Y-41493571D01*
X79881905Y-41541190D01*
X79834286Y-41636429D01*
X79834286Y-41826905D01*
X79881905Y-41922143D01*
X79929524Y-41969762D01*
X80024762Y-42017381D01*
X80215239Y-42017381D01*
X80310477Y-41969762D01*
X80358096Y-41922143D01*
X80405715Y-41826905D01*
X80405715Y-41636429D01*
X80358096Y-41541190D01*
X80310477Y-41493571D01*
X80215239Y-41445952D01*
X81358096Y-42017381D02*
X80786667Y-42017381D01*
X81072381Y-42017381D02*
X81072381Y-41017381D01*
X80977143Y-41160238D01*
X80881905Y-41255476D01*
X80786667Y-41303095D01*
X73231905Y-55012619D02*
X73279524Y-54965000D01*
X73374762Y-54917381D01*
X73612858Y-54917381D01*
X73708096Y-54965000D01*
X73755715Y-55012619D01*
X73803334Y-55107857D01*
X73803334Y-55203095D01*
X73755715Y-55345952D01*
X73184286Y-55917381D01*
X73803334Y-55917381D01*
X74422381Y-54917381D02*
X74517620Y-54917381D01*
X74612858Y-54965000D01*
X74660477Y-55012619D01*
X74708096Y-55107857D01*
X74755715Y-55298333D01*
X74755715Y-55536429D01*
X74708096Y-55726905D01*
X74660477Y-55822143D01*
X74612858Y-55869762D01*
X74517620Y-55917381D01*
X74422381Y-55917381D01*
X74327143Y-55869762D01*
X74279524Y-55822143D01*
X74231905Y-55726905D01*
X74184286Y-55536429D01*
X74184286Y-55298333D01*
X74231905Y-55107857D01*
X74279524Y-55012619D01*
X74327143Y-54965000D01*
X74422381Y-54917381D01*
X75374762Y-54917381D02*
X75470001Y-54917381D01*
X75565239Y-54965000D01*
X75612858Y-55012619D01*
X75660477Y-55107857D01*
X75708096Y-55298333D01*
X75708096Y-55536429D01*
X75660477Y-55726905D01*
X75612858Y-55822143D01*
X75565239Y-55869762D01*
X75470001Y-55917381D01*
X75374762Y-55917381D01*
X75279524Y-55869762D01*
X75231905Y-55822143D01*
X75184286Y-55726905D01*
X75136667Y-55536429D01*
X75136667Y-55298333D01*
X75184286Y-55107857D01*
X75231905Y-55012619D01*
X75279524Y-54965000D01*
X75374762Y-54917381D01*
X79803334Y-55917381D02*
X79231905Y-55917381D01*
X79517619Y-55917381D02*
X79517619Y-54917381D01*
X79422381Y-55060238D01*
X79327143Y-55155476D01*
X79231905Y-55203095D01*
X80374762Y-55345952D02*
X80279524Y-55298333D01*
X80231905Y-55250714D01*
X80184286Y-55155476D01*
X80184286Y-55107857D01*
X80231905Y-55012619D01*
X80279524Y-54965000D01*
X80374762Y-54917381D01*
X80565239Y-54917381D01*
X80660477Y-54965000D01*
X80708096Y-55012619D01*
X80755715Y-55107857D01*
X80755715Y-55155476D01*
X80708096Y-55250714D01*
X80660477Y-55298333D01*
X80565239Y-55345952D01*
X80374762Y-55345952D01*
X80279524Y-55393571D01*
X80231905Y-55441190D01*
X80184286Y-55536429D01*
X80184286Y-55726905D01*
X80231905Y-55822143D01*
X80279524Y-55869762D01*
X80374762Y-55917381D01*
X80565239Y-55917381D01*
X80660477Y-55869762D01*
X80708096Y-55822143D01*
X80755715Y-55726905D01*
X80755715Y-55536429D01*
X80708096Y-55441190D01*
X80660477Y-55393571D01*
X80565239Y-55345952D01*
X81374762Y-54917381D02*
X81470001Y-54917381D01*
X81565239Y-54965000D01*
X81612858Y-55012619D01*
X81660477Y-55107857D01*
X81708096Y-55298333D01*
X81708096Y-55536429D01*
X81660477Y-55726905D01*
X81612858Y-55822143D01*
X81565239Y-55869762D01*
X81470001Y-55917381D01*
X81374762Y-55917381D01*
X81279524Y-55869762D01*
X81231905Y-55822143D01*
X81184286Y-55726905D01*
X81136667Y-55536429D01*
X81136667Y-55298333D01*
X81184286Y-55107857D01*
X81231905Y-55012619D01*
X81279524Y-54965000D01*
X81374762Y-54917381D01*
X85803334Y-55917381D02*
X85231905Y-55917381D01*
X85517619Y-55917381D02*
X85517619Y-54917381D01*
X85422381Y-55060238D01*
X85327143Y-55155476D01*
X85231905Y-55203095D01*
X86660477Y-54917381D02*
X86470000Y-54917381D01*
X86374762Y-54965000D01*
X86327143Y-55012619D01*
X86231905Y-55155476D01*
X86184286Y-55345952D01*
X86184286Y-55726905D01*
X86231905Y-55822143D01*
X86279524Y-55869762D01*
X86374762Y-55917381D01*
X86565239Y-55917381D01*
X86660477Y-55869762D01*
X86708096Y-55822143D01*
X86755715Y-55726905D01*
X86755715Y-55488810D01*
X86708096Y-55393571D01*
X86660477Y-55345952D01*
X86565239Y-55298333D01*
X86374762Y-55298333D01*
X86279524Y-55345952D01*
X86231905Y-55393571D01*
X86184286Y-55488810D01*
X87374762Y-54917381D02*
X87470001Y-54917381D01*
X87565239Y-54965000D01*
X87612858Y-55012619D01*
X87660477Y-55107857D01*
X87708096Y-55298333D01*
X87708096Y-55536429D01*
X87660477Y-55726905D01*
X87612858Y-55822143D01*
X87565239Y-55869762D01*
X87470001Y-55917381D01*
X87374762Y-55917381D01*
X87279524Y-55869762D01*
X87231905Y-55822143D01*
X87184286Y-55726905D01*
X87136667Y-55536429D01*
X87136667Y-55298333D01*
X87184286Y-55107857D01*
X87231905Y-55012619D01*
X87279524Y-54965000D01*
X87374762Y-54917381D01*
X91803334Y-55917381D02*
X91231905Y-55917381D01*
X91517619Y-55917381D02*
X91517619Y-54917381D01*
X91422381Y-55060238D01*
X91327143Y-55155476D01*
X91231905Y-55203095D01*
X92660477Y-55250714D02*
X92660477Y-55917381D01*
X92422381Y-54869762D02*
X92184286Y-55584048D01*
X92803334Y-55584048D01*
X93374762Y-54917381D02*
X93470001Y-54917381D01*
X93565239Y-54965000D01*
X93612858Y-55012619D01*
X93660477Y-55107857D01*
X93708096Y-55298333D01*
X93708096Y-55536429D01*
X93660477Y-55726905D01*
X93612858Y-55822143D01*
X93565239Y-55869762D01*
X93470001Y-55917381D01*
X93374762Y-55917381D01*
X93279524Y-55869762D01*
X93231905Y-55822143D01*
X93184286Y-55726905D01*
X93136667Y-55536429D01*
X93136667Y-55298333D01*
X93184286Y-55107857D01*
X93231905Y-55012619D01*
X93279524Y-54965000D01*
X93374762Y-54917381D01*
X97803334Y-55917381D02*
X97231905Y-55917381D01*
X97517619Y-55917381D02*
X97517619Y-54917381D01*
X97422381Y-55060238D01*
X97327143Y-55155476D01*
X97231905Y-55203095D01*
X98184286Y-55012619D02*
X98231905Y-54965000D01*
X98327143Y-54917381D01*
X98565239Y-54917381D01*
X98660477Y-54965000D01*
X98708096Y-55012619D01*
X98755715Y-55107857D01*
X98755715Y-55203095D01*
X98708096Y-55345952D01*
X98136667Y-55917381D01*
X98755715Y-55917381D01*
X99374762Y-54917381D02*
X99470001Y-54917381D01*
X99565239Y-54965000D01*
X99612858Y-55012619D01*
X99660477Y-55107857D01*
X99708096Y-55298333D01*
X99708096Y-55536429D01*
X99660477Y-55726905D01*
X99612858Y-55822143D01*
X99565239Y-55869762D01*
X99470001Y-55917381D01*
X99374762Y-55917381D01*
X99279524Y-55869762D01*
X99231905Y-55822143D01*
X99184286Y-55726905D01*
X99136667Y-55536429D01*
X99136667Y-55298333D01*
X99184286Y-55107857D01*
X99231905Y-55012619D01*
X99279524Y-54965000D01*
X99374762Y-54917381D01*
X103803334Y-55917381D02*
X103231905Y-55917381D01*
X103517619Y-55917381D02*
X103517619Y-54917381D01*
X103422381Y-55060238D01*
X103327143Y-55155476D01*
X103231905Y-55203095D01*
X104422381Y-54917381D02*
X104517620Y-54917381D01*
X104612858Y-54965000D01*
X104660477Y-55012619D01*
X104708096Y-55107857D01*
X104755715Y-55298333D01*
X104755715Y-55536429D01*
X104708096Y-55726905D01*
X104660477Y-55822143D01*
X104612858Y-55869762D01*
X104517620Y-55917381D01*
X104422381Y-55917381D01*
X104327143Y-55869762D01*
X104279524Y-55822143D01*
X104231905Y-55726905D01*
X104184286Y-55536429D01*
X104184286Y-55298333D01*
X104231905Y-55107857D01*
X104279524Y-55012619D01*
X104327143Y-54965000D01*
X104422381Y-54917381D01*
X105374762Y-54917381D02*
X105470001Y-54917381D01*
X105565239Y-54965000D01*
X105612858Y-55012619D01*
X105660477Y-55107857D01*
X105708096Y-55298333D01*
X105708096Y-55536429D01*
X105660477Y-55726905D01*
X105612858Y-55822143D01*
X105565239Y-55869762D01*
X105470001Y-55917381D01*
X105374762Y-55917381D01*
X105279524Y-55869762D01*
X105231905Y-55822143D01*
X105184286Y-55726905D01*
X105136667Y-55536429D01*
X105136667Y-55298333D01*
X105184286Y-55107857D01*
X105231905Y-55012619D01*
X105279524Y-54965000D01*
X105374762Y-54917381D01*
X109498571Y-55345952D02*
X109403333Y-55298333D01*
X109355714Y-55250714D01*
X109308095Y-55155476D01*
X109308095Y-55107857D01*
X109355714Y-55012619D01*
X109403333Y-54965000D01*
X109498571Y-54917381D01*
X109689048Y-54917381D01*
X109784286Y-54965000D01*
X109831905Y-55012619D01*
X109879524Y-55107857D01*
X109879524Y-55155476D01*
X109831905Y-55250714D01*
X109784286Y-55298333D01*
X109689048Y-55345952D01*
X109498571Y-55345952D01*
X109403333Y-55393571D01*
X109355714Y-55441190D01*
X109308095Y-55536429D01*
X109308095Y-55726905D01*
X109355714Y-55822143D01*
X109403333Y-55869762D01*
X109498571Y-55917381D01*
X109689048Y-55917381D01*
X109784286Y-55869762D01*
X109831905Y-55822143D01*
X109879524Y-55726905D01*
X109879524Y-55536429D01*
X109831905Y-55441190D01*
X109784286Y-55393571D01*
X109689048Y-55345952D01*
X110498571Y-54917381D02*
X110593810Y-54917381D01*
X110689048Y-54965000D01*
X110736667Y-55012619D01*
X110784286Y-55107857D01*
X110831905Y-55298333D01*
X110831905Y-55536429D01*
X110784286Y-55726905D01*
X110736667Y-55822143D01*
X110689048Y-55869762D01*
X110593810Y-55917381D01*
X110498571Y-55917381D01*
X110403333Y-55869762D01*
X110355714Y-55822143D01*
X110308095Y-55726905D01*
X110260476Y-55536429D01*
X110260476Y-55298333D01*
X110308095Y-55107857D01*
X110355714Y-55012619D01*
X110403333Y-54965000D01*
X110498571Y-54917381D01*
X115734286Y-54967381D02*
X115543809Y-54967381D01*
X115448571Y-55015000D01*
X115400952Y-55062619D01*
X115305714Y-55205476D01*
X115258095Y-55395952D01*
X115258095Y-55776905D01*
X115305714Y-55872143D01*
X115353333Y-55919762D01*
X115448571Y-55967381D01*
X115639048Y-55967381D01*
X115734286Y-55919762D01*
X115781905Y-55872143D01*
X115829524Y-55776905D01*
X115829524Y-55538810D01*
X115781905Y-55443571D01*
X115734286Y-55395952D01*
X115639048Y-55348333D01*
X115448571Y-55348333D01*
X115353333Y-55395952D01*
X115305714Y-55443571D01*
X115258095Y-55538810D01*
X116448571Y-54967381D02*
X116543810Y-54967381D01*
X116639048Y-55015000D01*
X116686667Y-55062619D01*
X116734286Y-55157857D01*
X116781905Y-55348333D01*
X116781905Y-55586429D01*
X116734286Y-55776905D01*
X116686667Y-55872143D01*
X116639048Y-55919762D01*
X116543810Y-55967381D01*
X116448571Y-55967381D01*
X116353333Y-55919762D01*
X116305714Y-55872143D01*
X116258095Y-55776905D01*
X116210476Y-55586429D01*
X116210476Y-55348333D01*
X116258095Y-55157857D01*
X116305714Y-55062619D01*
X116353333Y-55015000D01*
X116448571Y-54967381D01*
X125334286Y-55300714D02*
X125334286Y-55967381D01*
X125096190Y-54919762D02*
X124858095Y-55634048D01*
X125477143Y-55634048D01*
X126048571Y-54967381D02*
X126143810Y-54967381D01*
X126239048Y-55015000D01*
X126286667Y-55062619D01*
X126334286Y-55157857D01*
X126381905Y-55348333D01*
X126381905Y-55586429D01*
X126334286Y-55776905D01*
X126286667Y-55872143D01*
X126239048Y-55919762D01*
X126143810Y-55967381D01*
X126048571Y-55967381D01*
X125953333Y-55919762D01*
X125905714Y-55872143D01*
X125858095Y-55776905D01*
X125810476Y-55586429D01*
X125810476Y-55348333D01*
X125858095Y-55157857D01*
X125905714Y-55062619D01*
X125953333Y-55015000D01*
X126048571Y-54967381D01*
X130858095Y-55062619D02*
X130905714Y-55015000D01*
X131000952Y-54967381D01*
X131239048Y-54967381D01*
X131334286Y-55015000D01*
X131381905Y-55062619D01*
X131429524Y-55157857D01*
X131429524Y-55253095D01*
X131381905Y-55395952D01*
X130810476Y-55967381D01*
X131429524Y-55967381D01*
X132048571Y-54967381D02*
X132143810Y-54967381D01*
X132239048Y-55015000D01*
X132286667Y-55062619D01*
X132334286Y-55157857D01*
X132381905Y-55348333D01*
X132381905Y-55586429D01*
X132334286Y-55776905D01*
X132286667Y-55872143D01*
X132239048Y-55919762D01*
X132143810Y-55967381D01*
X132048571Y-55967381D01*
X131953333Y-55919762D01*
X131905714Y-55872143D01*
X131858095Y-55776905D01*
X131810476Y-55586429D01*
X131810476Y-55348333D01*
X131858095Y-55157857D01*
X131905714Y-55062619D01*
X131953333Y-55015000D01*
X132048571Y-54967381D01*
X121358095Y-58567381D02*
X121358095Y-57567381D01*
X121596190Y-57567381D01*
X121739048Y-57615000D01*
X121834286Y-57710238D01*
X121881905Y-57805476D01*
X121929524Y-57995952D01*
X121929524Y-58138810D01*
X121881905Y-58329286D01*
X121834286Y-58424524D01*
X121739048Y-58519762D01*
X121596190Y-58567381D01*
X121358095Y-58567381D01*
X122358095Y-58567381D02*
X122358095Y-57567381D01*
X122596190Y-57567381D01*
X122739048Y-57615000D01*
X122834286Y-57710238D01*
X122881905Y-57805476D01*
X122929524Y-57995952D01*
X122929524Y-58138810D01*
X122881905Y-58329286D01*
X122834286Y-58424524D01*
X122739048Y-58519762D01*
X122596190Y-58567381D01*
X122358095Y-58567381D01*
X123929524Y-58567381D02*
X123596190Y-58091190D01*
X123358095Y-58567381D02*
X123358095Y-57567381D01*
X123739048Y-57567381D01*
X123834286Y-57615000D01*
X123881905Y-57662619D01*
X123929524Y-57757857D01*
X123929524Y-57900714D01*
X123881905Y-57995952D01*
X123834286Y-58043571D01*
X123739048Y-58091190D01*
X123358095Y-58091190D01*
X123305715Y-56567381D02*
X122734286Y-56567381D01*
X123020000Y-56567381D02*
X123020000Y-55567381D01*
X122924762Y-55710238D01*
X122829524Y-55805476D01*
X122734286Y-55853095D01*
X121734286Y-55662619D02*
X121781905Y-55615000D01*
X121877143Y-55567381D01*
X122115239Y-55567381D01*
X122210477Y-55615000D01*
X122258096Y-55662619D01*
X122305715Y-55757857D01*
X122305715Y-55853095D01*
X122258096Y-55995952D01*
X121686667Y-56567381D01*
X122305715Y-56567381D01*
X56840381Y-38266666D02*
X56364190Y-38600000D01*
X56840381Y-38838095D02*
X55840381Y-38838095D01*
X55840381Y-38457142D01*
X55888000Y-38361904D01*
X55935619Y-38314285D01*
X56030857Y-38266666D01*
X56173714Y-38266666D01*
X56268952Y-38314285D01*
X56316571Y-38361904D01*
X56364190Y-38457142D01*
X56364190Y-38838095D01*
X56840381Y-37314285D02*
X56840381Y-37885714D01*
X56840381Y-37600000D02*
X55840381Y-37600000D01*
X55983238Y-37695238D01*
X56078476Y-37790476D01*
X56126095Y-37885714D01*
X89876334Y-61412381D02*
X89543000Y-60936190D01*
X89304905Y-61412381D02*
X89304905Y-60412381D01*
X89685858Y-60412381D01*
X89781096Y-60460000D01*
X89828715Y-60507619D01*
X89876334Y-60602857D01*
X89876334Y-60745714D01*
X89828715Y-60840952D01*
X89781096Y-60888571D01*
X89685858Y-60936190D01*
X89304905Y-60936190D01*
X90733477Y-60412381D02*
X90543000Y-60412381D01*
X90447762Y-60460000D01*
X90400143Y-60507619D01*
X90304905Y-60650476D01*
X90257286Y-60840952D01*
X90257286Y-61221905D01*
X90304905Y-61317143D01*
X90352524Y-61364762D01*
X90447762Y-61412381D01*
X90638239Y-61412381D01*
X90733477Y-61364762D01*
X90781096Y-61317143D01*
X90828715Y-61221905D01*
X90828715Y-60983810D01*
X90781096Y-60888571D01*
X90733477Y-60840952D01*
X90638239Y-60793333D01*
X90447762Y-60793333D01*
X90352524Y-60840952D01*
X90304905Y-60888571D01*
X90257286Y-60983810D01*
X92035334Y-69413381D02*
X91702000Y-68937190D01*
X91463905Y-69413381D02*
X91463905Y-68413381D01*
X91844858Y-68413381D01*
X91940096Y-68461000D01*
X91987715Y-68508619D01*
X92035334Y-68603857D01*
X92035334Y-68746714D01*
X91987715Y-68841952D01*
X91940096Y-68889571D01*
X91844858Y-68937190D01*
X91463905Y-68937190D01*
X92368667Y-68413381D02*
X93035334Y-68413381D01*
X92606762Y-69413381D01*
X92035334Y-72080381D02*
X91702000Y-71604190D01*
X91463905Y-72080381D02*
X91463905Y-71080381D01*
X91844858Y-71080381D01*
X91940096Y-71128000D01*
X91987715Y-71175619D01*
X92035334Y-71270857D01*
X92035334Y-71413714D01*
X91987715Y-71508952D01*
X91940096Y-71556571D01*
X91844858Y-71604190D01*
X91463905Y-71604190D01*
X92606762Y-71508952D02*
X92511524Y-71461333D01*
X92463905Y-71413714D01*
X92416286Y-71318476D01*
X92416286Y-71270857D01*
X92463905Y-71175619D01*
X92511524Y-71128000D01*
X92606762Y-71080381D01*
X92797239Y-71080381D01*
X92892477Y-71128000D01*
X92940096Y-71175619D01*
X92987715Y-71270857D01*
X92987715Y-71318476D01*
X92940096Y-71413714D01*
X92892477Y-71461333D01*
X92797239Y-71508952D01*
X92606762Y-71508952D01*
X92511524Y-71556571D01*
X92463905Y-71604190D01*
X92416286Y-71699429D01*
X92416286Y-71889905D01*
X92463905Y-71985143D01*
X92511524Y-72032762D01*
X92606762Y-72080381D01*
X92797239Y-72080381D01*
X92892477Y-72032762D01*
X92940096Y-71985143D01*
X92987715Y-71889905D01*
X92987715Y-71699429D01*
X92940096Y-71604190D01*
X92892477Y-71556571D01*
X92797239Y-71508952D01*
X65857381Y-38234857D02*
X65381190Y-38568191D01*
X65857381Y-38806286D02*
X64857381Y-38806286D01*
X64857381Y-38425333D01*
X64905000Y-38330095D01*
X64952619Y-38282476D01*
X65047857Y-38234857D01*
X65190714Y-38234857D01*
X65285952Y-38282476D01*
X65333571Y-38330095D01*
X65381190Y-38425333D01*
X65381190Y-38806286D01*
X65857381Y-37282476D02*
X65857381Y-37853905D01*
X65857381Y-37568191D02*
X64857381Y-37568191D01*
X65000238Y-37663429D01*
X65095476Y-37758667D01*
X65143095Y-37853905D01*
X64857381Y-36663429D02*
X64857381Y-36568190D01*
X64905000Y-36472952D01*
X64952619Y-36425333D01*
X65047857Y-36377714D01*
X65238333Y-36330095D01*
X65476429Y-36330095D01*
X65666905Y-36377714D01*
X65762143Y-36425333D01*
X65809762Y-36472952D01*
X65857381Y-36568190D01*
X65857381Y-36663429D01*
X65809762Y-36758667D01*
X65762143Y-36806286D01*
X65666905Y-36853905D01*
X65476429Y-36901524D01*
X65238333Y-36901524D01*
X65047857Y-36853905D01*
X64952619Y-36806286D01*
X64905000Y-36758667D01*
X64857381Y-36663429D01*
X105542143Y-57348381D02*
X105208809Y-56872190D01*
X104970714Y-57348381D02*
X104970714Y-56348381D01*
X105351667Y-56348381D01*
X105446905Y-56396000D01*
X105494524Y-56443619D01*
X105542143Y-56538857D01*
X105542143Y-56681714D01*
X105494524Y-56776952D01*
X105446905Y-56824571D01*
X105351667Y-56872190D01*
X104970714Y-56872190D01*
X106494524Y-57348381D02*
X105923095Y-57348381D01*
X106208809Y-57348381D02*
X106208809Y-56348381D01*
X106113571Y-56491238D01*
X106018333Y-56586476D01*
X105923095Y-56634095D01*
X107446905Y-57348381D02*
X106875476Y-57348381D01*
X107161190Y-57348381D02*
X107161190Y-56348381D01*
X107065952Y-56491238D01*
X106970714Y-56586476D01*
X106875476Y-56634095D01*
X109466143Y-57411381D02*
X109132809Y-56935190D01*
X108894714Y-57411381D02*
X108894714Y-56411381D01*
X109275667Y-56411381D01*
X109370905Y-56459000D01*
X109418524Y-56506619D01*
X109466143Y-56601857D01*
X109466143Y-56744714D01*
X109418524Y-56839952D01*
X109370905Y-56887571D01*
X109275667Y-56935190D01*
X108894714Y-56935190D01*
X110418524Y-57411381D02*
X109847095Y-57411381D01*
X110132809Y-57411381D02*
X110132809Y-56411381D01*
X110037571Y-56554238D01*
X109942333Y-56649476D01*
X109847095Y-56697095D01*
X110799476Y-56506619D02*
X110847095Y-56459000D01*
X110942333Y-56411381D01*
X111180429Y-56411381D01*
X111275667Y-56459000D01*
X111323286Y-56506619D01*
X111370905Y-56601857D01*
X111370905Y-56697095D01*
X111323286Y-56839952D01*
X110751857Y-57411381D01*
X111370905Y-57411381D01*
X71130381Y-78206857D02*
X70654190Y-78540191D01*
X71130381Y-78778286D02*
X70130381Y-78778286D01*
X70130381Y-78397333D01*
X70178000Y-78302095D01*
X70225619Y-78254476D01*
X70320857Y-78206857D01*
X70463714Y-78206857D01*
X70558952Y-78254476D01*
X70606571Y-78302095D01*
X70654190Y-78397333D01*
X70654190Y-78778286D01*
X71130381Y-77254476D02*
X71130381Y-77825905D01*
X71130381Y-77540191D02*
X70130381Y-77540191D01*
X70273238Y-77635429D01*
X70368476Y-77730667D01*
X70416095Y-77825905D01*
X70130381Y-76349714D02*
X70130381Y-76825905D01*
X70606571Y-76873524D01*
X70558952Y-76825905D01*
X70511333Y-76730667D01*
X70511333Y-76492571D01*
X70558952Y-76397333D01*
X70606571Y-76349714D01*
X70701810Y-76302095D01*
X70939905Y-76302095D01*
X71035143Y-76349714D01*
X71082762Y-76397333D01*
X71130381Y-76492571D01*
X71130381Y-76730667D01*
X71082762Y-76825905D01*
X71035143Y-76873524D01*
X139096381Y-71983857D02*
X138620190Y-72317191D01*
X139096381Y-72555286D02*
X138096381Y-72555286D01*
X138096381Y-72174333D01*
X138144000Y-72079095D01*
X138191619Y-72031476D01*
X138286857Y-71983857D01*
X138429714Y-71983857D01*
X138524952Y-72031476D01*
X138572571Y-72079095D01*
X138620190Y-72174333D01*
X138620190Y-72555286D01*
X139096381Y-71031476D02*
X139096381Y-71602905D01*
X139096381Y-71317191D02*
X138096381Y-71317191D01*
X138239238Y-71412429D01*
X138334476Y-71507667D01*
X138382095Y-71602905D01*
X138096381Y-70174333D02*
X138096381Y-70364810D01*
X138144000Y-70460048D01*
X138191619Y-70507667D01*
X138334476Y-70602905D01*
X138524952Y-70650524D01*
X138905905Y-70650524D01*
X139001143Y-70602905D01*
X139048762Y-70555286D01*
X139096381Y-70460048D01*
X139096381Y-70269571D01*
X139048762Y-70174333D01*
X139001143Y-70126714D01*
X138905905Y-70079095D01*
X138667810Y-70079095D01*
X138572571Y-70126714D01*
X138524952Y-70174333D01*
X138477333Y-70269571D01*
X138477333Y-70460048D01*
X138524952Y-70555286D01*
X138572571Y-70602905D01*
X138667810Y-70650524D01*
X135471143Y-35313381D02*
X135137809Y-34837190D01*
X134899714Y-35313381D02*
X134899714Y-34313381D01*
X135280667Y-34313381D01*
X135375905Y-34361000D01*
X135423524Y-34408619D01*
X135471143Y-34503857D01*
X135471143Y-34646714D01*
X135423524Y-34741952D01*
X135375905Y-34789571D01*
X135280667Y-34837190D01*
X134899714Y-34837190D01*
X136423524Y-35313381D02*
X135852095Y-35313381D01*
X136137809Y-35313381D02*
X136137809Y-34313381D01*
X136042571Y-34456238D01*
X135947333Y-34551476D01*
X135852095Y-34599095D01*
X136756857Y-34313381D02*
X137423524Y-34313381D01*
X136994952Y-35313381D01*
X144102381Y-71983857D02*
X143626190Y-72317191D01*
X144102381Y-72555286D02*
X143102381Y-72555286D01*
X143102381Y-72174333D01*
X143150000Y-72079095D01*
X143197619Y-72031476D01*
X143292857Y-71983857D01*
X143435714Y-71983857D01*
X143530952Y-72031476D01*
X143578571Y-72079095D01*
X143626190Y-72174333D01*
X143626190Y-72555286D01*
X144102381Y-71031476D02*
X144102381Y-71602905D01*
X144102381Y-71317191D02*
X143102381Y-71317191D01*
X143245238Y-71412429D01*
X143340476Y-71507667D01*
X143388095Y-71602905D01*
X143530952Y-70460048D02*
X143483333Y-70555286D01*
X143435714Y-70602905D01*
X143340476Y-70650524D01*
X143292857Y-70650524D01*
X143197619Y-70602905D01*
X143150000Y-70555286D01*
X143102381Y-70460048D01*
X143102381Y-70269571D01*
X143150000Y-70174333D01*
X143197619Y-70126714D01*
X143292857Y-70079095D01*
X143340476Y-70079095D01*
X143435714Y-70126714D01*
X143483333Y-70174333D01*
X143530952Y-70269571D01*
X143530952Y-70460048D01*
X143578571Y-70555286D01*
X143626190Y-70602905D01*
X143721429Y-70650524D01*
X143911905Y-70650524D01*
X144007143Y-70602905D01*
X144054762Y-70555286D01*
X144102381Y-70460048D01*
X144102381Y-70269571D01*
X144054762Y-70174333D01*
X144007143Y-70126714D01*
X143911905Y-70079095D01*
X143721429Y-70079095D01*
X143626190Y-70126714D01*
X143578571Y-70174333D01*
X143530952Y-70269571D01*
X53350381Y-42732857D02*
X52874190Y-43066191D01*
X53350381Y-43304286D02*
X52350381Y-43304286D01*
X52350381Y-42923333D01*
X52398000Y-42828095D01*
X52445619Y-42780476D01*
X52540857Y-42732857D01*
X52683714Y-42732857D01*
X52778952Y-42780476D01*
X52826571Y-42828095D01*
X52874190Y-42923333D01*
X52874190Y-43304286D01*
X53350381Y-41780476D02*
X53350381Y-42351905D01*
X53350381Y-42066191D02*
X52350381Y-42066191D01*
X52493238Y-42161429D01*
X52588476Y-42256667D01*
X52636095Y-42351905D01*
X53350381Y-41304286D02*
X53350381Y-41113810D01*
X53302762Y-41018571D01*
X53255143Y-40970952D01*
X53112286Y-40875714D01*
X52921810Y-40828095D01*
X52540857Y-40828095D01*
X52445619Y-40875714D01*
X52398000Y-40923333D01*
X52350381Y-41018571D01*
X52350381Y-41209048D01*
X52398000Y-41304286D01*
X52445619Y-41351905D01*
X52540857Y-41399524D01*
X52778952Y-41399524D01*
X52874190Y-41351905D01*
X52921810Y-41304286D01*
X52969429Y-41209048D01*
X52969429Y-41018571D01*
X52921810Y-40923333D01*
X52874190Y-40875714D01*
X52778952Y-40828095D01*
X52452381Y-71307857D02*
X51976190Y-71641191D01*
X52452381Y-71879286D02*
X51452381Y-71879286D01*
X51452381Y-71498333D01*
X51500000Y-71403095D01*
X51547619Y-71355476D01*
X51642857Y-71307857D01*
X51785714Y-71307857D01*
X51880952Y-71355476D01*
X51928571Y-71403095D01*
X51976190Y-71498333D01*
X51976190Y-71879286D01*
X51547619Y-70926905D02*
X51500000Y-70879286D01*
X51452381Y-70784048D01*
X51452381Y-70545952D01*
X51500000Y-70450714D01*
X51547619Y-70403095D01*
X51642857Y-70355476D01*
X51738095Y-70355476D01*
X51880952Y-70403095D01*
X52452381Y-70974524D01*
X52452381Y-70355476D01*
X51452381Y-69736429D02*
X51452381Y-69641190D01*
X51500000Y-69545952D01*
X51547619Y-69498333D01*
X51642857Y-69450714D01*
X51833333Y-69403095D01*
X52071429Y-69403095D01*
X52261905Y-69450714D01*
X52357143Y-69498333D01*
X52404762Y-69545952D01*
X52452381Y-69641190D01*
X52452381Y-69736429D01*
X52404762Y-69831667D01*
X52357143Y-69879286D01*
X52261905Y-69926905D01*
X52071429Y-69974524D01*
X51833333Y-69974524D01*
X51642857Y-69926905D01*
X51547619Y-69879286D01*
X51500000Y-69831667D01*
X51452381Y-69736429D01*
X106855143Y-77371381D02*
X106521809Y-76895190D01*
X106283714Y-77371381D02*
X106283714Y-76371381D01*
X106664667Y-76371381D01*
X106759905Y-76419000D01*
X106807524Y-76466619D01*
X106855143Y-76561857D01*
X106855143Y-76704714D01*
X106807524Y-76799952D01*
X106759905Y-76847571D01*
X106664667Y-76895190D01*
X106283714Y-76895190D01*
X107236095Y-76466619D02*
X107283714Y-76419000D01*
X107378952Y-76371381D01*
X107617048Y-76371381D01*
X107712286Y-76419000D01*
X107759905Y-76466619D01*
X107807524Y-76561857D01*
X107807524Y-76657095D01*
X107759905Y-76799952D01*
X107188476Y-77371381D01*
X107807524Y-77371381D01*
X108759905Y-77371381D02*
X108188476Y-77371381D01*
X108474190Y-77371381D02*
X108474190Y-76371381D01*
X108378952Y-76514238D01*
X108283714Y-76609476D01*
X108188476Y-76657095D01*
X132172619Y-37300238D02*
X132125000Y-37395476D01*
X132029762Y-37490714D01*
X131886905Y-37633571D01*
X131839286Y-37728810D01*
X131839286Y-37824048D01*
X132077381Y-37776429D02*
X132029762Y-37871667D01*
X131934524Y-37966905D01*
X131744048Y-38014524D01*
X131410714Y-38014524D01*
X131220238Y-37966905D01*
X131125000Y-37871667D01*
X131077381Y-37776429D01*
X131077381Y-37585952D01*
X131125000Y-37490714D01*
X131220238Y-37395476D01*
X131410714Y-37347857D01*
X131744048Y-37347857D01*
X131934524Y-37395476D01*
X132029762Y-37490714D01*
X132077381Y-37585952D01*
X132077381Y-37776429D01*
X132077381Y-36395476D02*
X132077381Y-36966905D01*
X132077381Y-36681191D02*
X131077381Y-36681191D01*
X131220238Y-36776429D01*
X131315476Y-36871667D01*
X131363095Y-36966905D01*
X132881619Y-40227238D02*
X132834000Y-40322476D01*
X132738762Y-40417714D01*
X132595905Y-40560571D01*
X132548286Y-40655810D01*
X132548286Y-40751048D01*
X132786381Y-40703429D02*
X132738762Y-40798667D01*
X132643524Y-40893905D01*
X132453048Y-40941524D01*
X132119714Y-40941524D01*
X131929238Y-40893905D01*
X131834000Y-40798667D01*
X131786381Y-40703429D01*
X131786381Y-40512952D01*
X131834000Y-40417714D01*
X131929238Y-40322476D01*
X132119714Y-40274857D01*
X132453048Y-40274857D01*
X132643524Y-40322476D01*
X132738762Y-40417714D01*
X132786381Y-40512952D01*
X132786381Y-40703429D01*
X131881619Y-39893905D02*
X131834000Y-39846286D01*
X131786381Y-39751048D01*
X131786381Y-39512952D01*
X131834000Y-39417714D01*
X131881619Y-39370095D01*
X131976857Y-39322476D01*
X132072095Y-39322476D01*
X132214952Y-39370095D01*
X132786381Y-39941524D01*
X132786381Y-39322476D01*
X90511334Y-58618381D02*
X90178000Y-58142190D01*
X89939905Y-58618381D02*
X89939905Y-57618381D01*
X90320858Y-57618381D01*
X90416096Y-57666000D01*
X90463715Y-57713619D01*
X90511334Y-57808857D01*
X90511334Y-57951714D01*
X90463715Y-58046952D01*
X90416096Y-58094571D01*
X90320858Y-58142190D01*
X89939905Y-58142190D01*
X90892286Y-57713619D02*
X90939905Y-57666000D01*
X91035143Y-57618381D01*
X91273239Y-57618381D01*
X91368477Y-57666000D01*
X91416096Y-57713619D01*
X91463715Y-57808857D01*
X91463715Y-57904095D01*
X91416096Y-58046952D01*
X90844667Y-58618381D01*
X91463715Y-58618381D01*
X130714381Y-34478666D02*
X130238190Y-34812000D01*
X130714381Y-35050095D02*
X129714381Y-35050095D01*
X129714381Y-34669142D01*
X129762000Y-34573904D01*
X129809619Y-34526285D01*
X129904857Y-34478666D01*
X130047714Y-34478666D01*
X130142952Y-34526285D01*
X130190571Y-34573904D01*
X130238190Y-34669142D01*
X130238190Y-35050095D01*
X130047714Y-33621523D02*
X130714381Y-33621523D01*
X129666762Y-33859619D02*
X130381048Y-34097714D01*
X130381048Y-33478666D01*
X125722143Y-58745381D02*
X125388809Y-58269190D01*
X125150714Y-58745381D02*
X125150714Y-57745381D01*
X125531667Y-57745381D01*
X125626905Y-57793000D01*
X125674524Y-57840619D01*
X125722143Y-57935857D01*
X125722143Y-58078714D01*
X125674524Y-58173952D01*
X125626905Y-58221571D01*
X125531667Y-58269190D01*
X125150714Y-58269190D01*
X126674524Y-58745381D02*
X126103095Y-58745381D01*
X126388809Y-58745381D02*
X126388809Y-57745381D01*
X126293571Y-57888238D01*
X126198333Y-57983476D01*
X126103095Y-58031095D01*
X127007857Y-57745381D02*
X127626905Y-57745381D01*
X127293571Y-58126333D01*
X127436429Y-58126333D01*
X127531667Y-58173952D01*
X127579286Y-58221571D01*
X127626905Y-58316810D01*
X127626905Y-58554905D01*
X127579286Y-58650143D01*
X127531667Y-58697762D01*
X127436429Y-58745381D01*
X127150714Y-58745381D01*
X127055476Y-58697762D01*
X127007857Y-58650143D01*
X128897143Y-58745381D02*
X128563809Y-58269190D01*
X128325714Y-58745381D02*
X128325714Y-57745381D01*
X128706667Y-57745381D01*
X128801905Y-57793000D01*
X128849524Y-57840619D01*
X128897143Y-57935857D01*
X128897143Y-58078714D01*
X128849524Y-58173952D01*
X128801905Y-58221571D01*
X128706667Y-58269190D01*
X128325714Y-58269190D01*
X129849524Y-58745381D02*
X129278095Y-58745381D01*
X129563809Y-58745381D02*
X129563809Y-57745381D01*
X129468571Y-57888238D01*
X129373333Y-57983476D01*
X129278095Y-58031095D01*
X130706667Y-58078714D02*
X130706667Y-58745381D01*
X130468571Y-57697762D02*
X130230476Y-58412048D01*
X130849524Y-58412048D01*
X72747143Y-64904857D02*
X72794762Y-64952476D01*
X72842381Y-65095333D01*
X72842381Y-65190571D01*
X72794762Y-65333429D01*
X72699524Y-65428667D01*
X72604286Y-65476286D01*
X72413810Y-65523905D01*
X72270952Y-65523905D01*
X72080476Y-65476286D01*
X71985238Y-65428667D01*
X71890000Y-65333429D01*
X71842381Y-65190571D01*
X71842381Y-65095333D01*
X71890000Y-64952476D01*
X71937619Y-64904857D01*
X72842381Y-63952476D02*
X72842381Y-64523905D01*
X72842381Y-64238191D02*
X71842381Y-64238191D01*
X71985238Y-64333429D01*
X72080476Y-64428667D01*
X72128095Y-64523905D01*
X71842381Y-63619143D02*
X71842381Y-63000095D01*
X72223333Y-63333429D01*
X72223333Y-63190571D01*
X72270952Y-63095333D01*
X72318571Y-63047714D01*
X72413810Y-63000095D01*
X72651905Y-63000095D01*
X72747143Y-63047714D01*
X72794762Y-63095333D01*
X72842381Y-63190571D01*
X72842381Y-63476286D01*
X72794762Y-63571524D01*
X72747143Y-63619143D01*
X76827143Y-66016143D02*
X76779524Y-66063762D01*
X76636667Y-66111381D01*
X76541429Y-66111381D01*
X76398571Y-66063762D01*
X76303333Y-65968524D01*
X76255714Y-65873286D01*
X76208095Y-65682810D01*
X76208095Y-65539952D01*
X76255714Y-65349476D01*
X76303333Y-65254238D01*
X76398571Y-65159000D01*
X76541429Y-65111381D01*
X76636667Y-65111381D01*
X76779524Y-65159000D01*
X76827143Y-65206619D01*
X77779524Y-66111381D02*
X77208095Y-66111381D01*
X77493809Y-66111381D02*
X77493809Y-65111381D01*
X77398571Y-65254238D01*
X77303333Y-65349476D01*
X77208095Y-65397095D01*
X78636667Y-65444714D02*
X78636667Y-66111381D01*
X78398571Y-65063762D02*
X78160476Y-65778048D01*
X78779524Y-65778048D01*
X80113143Y-61856857D02*
X80160762Y-61904476D01*
X80208381Y-62047333D01*
X80208381Y-62142571D01*
X80160762Y-62285429D01*
X80065524Y-62380667D01*
X79970286Y-62428286D01*
X79779810Y-62475905D01*
X79636952Y-62475905D01*
X79446476Y-62428286D01*
X79351238Y-62380667D01*
X79256000Y-62285429D01*
X79208381Y-62142571D01*
X79208381Y-62047333D01*
X79256000Y-61904476D01*
X79303619Y-61856857D01*
X80208381Y-60904476D02*
X80208381Y-61475905D01*
X80208381Y-61190191D02*
X79208381Y-61190191D01*
X79351238Y-61285429D01*
X79446476Y-61380667D01*
X79494095Y-61475905D01*
X79208381Y-59999714D02*
X79208381Y-60475905D01*
X79684571Y-60523524D01*
X79636952Y-60475905D01*
X79589333Y-60380667D01*
X79589333Y-60142571D01*
X79636952Y-60047333D01*
X79684571Y-59999714D01*
X79779810Y-59952095D01*
X80017905Y-59952095D01*
X80113143Y-59999714D01*
X80160762Y-60047333D01*
X80208381Y-60142571D01*
X80208381Y-60380667D01*
X80160762Y-60475905D01*
X80113143Y-60523524D01*
X91298334Y-64224143D02*
X91250715Y-64271762D01*
X91107858Y-64319381D01*
X91012620Y-64319381D01*
X90869762Y-64271762D01*
X90774524Y-64176524D01*
X90726905Y-64081286D01*
X90679286Y-63890810D01*
X90679286Y-63747952D01*
X90726905Y-63557476D01*
X90774524Y-63462238D01*
X90869762Y-63367000D01*
X91012620Y-63319381D01*
X91107858Y-63319381D01*
X91250715Y-63367000D01*
X91298334Y-63414619D01*
X91869762Y-63747952D02*
X91774524Y-63700333D01*
X91726905Y-63652714D01*
X91679286Y-63557476D01*
X91679286Y-63509857D01*
X91726905Y-63414619D01*
X91774524Y-63367000D01*
X91869762Y-63319381D01*
X92060239Y-63319381D01*
X92155477Y-63367000D01*
X92203096Y-63414619D01*
X92250715Y-63509857D01*
X92250715Y-63557476D01*
X92203096Y-63652714D01*
X92155477Y-63700333D01*
X92060239Y-63747952D01*
X91869762Y-63747952D01*
X91774524Y-63795571D01*
X91726905Y-63843190D01*
X91679286Y-63938429D01*
X91679286Y-64128905D01*
X91726905Y-64224143D01*
X91774524Y-64271762D01*
X91869762Y-64319381D01*
X92060239Y-64319381D01*
X92155477Y-64271762D01*
X92203096Y-64224143D01*
X92250715Y-64128905D01*
X92250715Y-63938429D01*
X92203096Y-63843190D01*
X92155477Y-63795571D01*
X92060239Y-63747952D01*
X98686688Y-60822389D02*
X98686688Y-60889732D01*
X98619344Y-61024419D01*
X98552001Y-61091763D01*
X98417313Y-61159107D01*
X98282626Y-61159107D01*
X98181611Y-61125435D01*
X98013253Y-61024420D01*
X97912237Y-60923404D01*
X97811222Y-60755045D01*
X97777550Y-60654030D01*
X97777550Y-60519343D01*
X97844894Y-60384656D01*
X97912237Y-60317312D01*
X98046924Y-60249969D01*
X98114268Y-60249969D01*
X98653016Y-59576534D02*
X98518328Y-59711222D01*
X98484657Y-59812237D01*
X98484657Y-59879580D01*
X98518328Y-60047939D01*
X98619343Y-60216297D01*
X98888718Y-60485672D01*
X98989733Y-60519343D01*
X99057076Y-60519343D01*
X99158092Y-60485672D01*
X99292779Y-60350984D01*
X99326451Y-60249969D01*
X99326451Y-60182626D01*
X99292779Y-60081610D01*
X99124421Y-59913252D01*
X99023405Y-59879579D01*
X98956061Y-59879579D01*
X98855046Y-59913251D01*
X98720359Y-60047939D01*
X98686687Y-60148954D01*
X98686687Y-60216297D01*
X98720359Y-60317313D01*
X97611031Y-60127732D02*
X97038610Y-60026717D01*
X97206970Y-60531794D02*
X96499863Y-59824687D01*
X96769237Y-59555312D01*
X96870253Y-59521641D01*
X96937596Y-59521641D01*
X97038611Y-59555312D01*
X97139626Y-59656328D01*
X97173298Y-59757343D01*
X97173298Y-59824686D01*
X97139626Y-59925701D01*
X96870252Y-60195076D01*
X97543688Y-58780862D02*
X97206970Y-59117580D01*
X97510015Y-59487969D01*
X97510015Y-59420626D01*
X97543687Y-59319610D01*
X97712046Y-59151251D01*
X97813061Y-59117579D01*
X97880405Y-59117579D01*
X97981421Y-59151252D01*
X98149779Y-59319610D01*
X98183451Y-59420626D01*
X98183451Y-59487969D01*
X98149779Y-59588984D01*
X97981420Y-59757343D01*
X97880405Y-59791015D01*
X97813061Y-59791015D01*
X97992031Y-57841732D02*
X97419610Y-57740717D01*
X97587970Y-58245794D02*
X96880863Y-57538687D01*
X97150237Y-57269312D01*
X97251253Y-57235641D01*
X97318596Y-57235641D01*
X97419611Y-57269312D01*
X97520626Y-57370328D01*
X97554298Y-57471343D01*
X97554298Y-57538686D01*
X97520626Y-57639701D01*
X97251252Y-57909076D01*
X98328748Y-57505015D02*
X98463435Y-57370328D01*
X98497107Y-57269312D01*
X98497107Y-57201969D01*
X98463436Y-57033610D01*
X98362421Y-56865252D01*
X98093046Y-56595877D01*
X97992031Y-56562206D01*
X97924688Y-56562206D01*
X97823672Y-56595877D01*
X97688985Y-56730565D01*
X97655313Y-56831580D01*
X97655313Y-56898924D01*
X97688985Y-56999939D01*
X97857343Y-57168297D01*
X97958359Y-57201969D01*
X98025703Y-57201970D01*
X98126718Y-57168298D01*
X98261405Y-57033610D01*
X98295077Y-56932595D01*
X98295076Y-56865251D01*
X98261405Y-56764236D01*
M02*
