G04 #@! TF.FileFunction,Legend,Bot*
%FSLAX46Y46*%
G04 Gerber Fmt 4.6, Leading zero omitted, Abs format (unit mm)*
G04 Created by KiCad (PCBNEW 4.0.6) date Fri Jul 21 16:01:30 2017*
%MOMM*%
%LPD*%
G01*
G04 APERTURE LIST*
%ADD10C,0.100000*%
%ADD11C,0.300000*%
G04 APERTURE END LIST*
D10*
D11*
X72042571Y-38418286D02*
X71042571Y-38418286D01*
X71328286Y-38418286D02*
X71185429Y-38489714D01*
X71114000Y-38561143D01*
X71042571Y-38704000D01*
X71042571Y-38846857D01*
X71971143Y-39918285D02*
X72042571Y-39775428D01*
X72042571Y-39489714D01*
X71971143Y-39346857D01*
X71828286Y-39275428D01*
X71256857Y-39275428D01*
X71114000Y-39346857D01*
X71042571Y-39489714D01*
X71042571Y-39775428D01*
X71114000Y-39918285D01*
X71256857Y-39989714D01*
X71399714Y-39989714D01*
X71542571Y-39275428D01*
X72042571Y-40489714D02*
X71042571Y-41275428D01*
X71042571Y-40489714D02*
X72042571Y-41275428D01*
X71042571Y-42489714D02*
X72042571Y-42489714D01*
X71042571Y-41846857D02*
X71828286Y-41846857D01*
X71971143Y-41918285D01*
X72042571Y-42061143D01*
X72042571Y-42275428D01*
X71971143Y-42418285D01*
X71899714Y-42489714D01*
X71971143Y-43132571D02*
X72042571Y-43275428D01*
X72042571Y-43561143D01*
X71971143Y-43704000D01*
X71828286Y-43775428D01*
X71756857Y-43775428D01*
X71614000Y-43704000D01*
X71542571Y-43561143D01*
X71542571Y-43346857D01*
X71471143Y-43204000D01*
X71328286Y-43132571D01*
X71256857Y-43132571D01*
X71114000Y-43204000D01*
X71042571Y-43346857D01*
X71042571Y-43561143D01*
X71114000Y-43704000D01*
X71471143Y-44418286D02*
X71471143Y-45561143D01*
X71042571Y-46132572D02*
X72042571Y-46489715D01*
X71042571Y-46846857D01*
X72042571Y-47418286D02*
X71042571Y-47418286D01*
X70542571Y-47418286D02*
X70614000Y-47346857D01*
X70685429Y-47418286D01*
X70614000Y-47489714D01*
X70542571Y-47418286D01*
X70685429Y-47418286D01*
X71042571Y-48132572D02*
X72542571Y-48132572D01*
X71114000Y-48132572D02*
X71042571Y-48275429D01*
X71042571Y-48561143D01*
X71114000Y-48704000D01*
X71185429Y-48775429D01*
X71328286Y-48846858D01*
X71756857Y-48846858D01*
X71899714Y-48775429D01*
X71971143Y-48704000D01*
X72042571Y-48561143D01*
X72042571Y-48275429D01*
X71971143Y-48132572D01*
X71971143Y-50061143D02*
X72042571Y-49918286D01*
X72042571Y-49632572D01*
X71971143Y-49489715D01*
X71828286Y-49418286D01*
X71256857Y-49418286D01*
X71114000Y-49489715D01*
X71042571Y-49632572D01*
X71042571Y-49918286D01*
X71114000Y-50061143D01*
X71256857Y-50132572D01*
X71399714Y-50132572D01*
X71542571Y-49418286D01*
X72042571Y-50775429D02*
X71042571Y-50775429D01*
X71328286Y-50775429D02*
X71185429Y-50846857D01*
X71114000Y-50918286D01*
X71042571Y-51061143D01*
X71042571Y-51204000D01*
X73592571Y-36025429D02*
X75092571Y-36025429D01*
X73664000Y-36025429D02*
X73592571Y-36168286D01*
X73592571Y-36454000D01*
X73664000Y-36596857D01*
X73735429Y-36668286D01*
X73878286Y-36739715D01*
X74306857Y-36739715D01*
X74449714Y-36668286D01*
X74521143Y-36596857D01*
X74592571Y-36454000D01*
X74592571Y-36168286D01*
X74521143Y-36025429D01*
X74592571Y-37382572D02*
X73592571Y-37382572D01*
X73878286Y-37382572D02*
X73735429Y-37454000D01*
X73664000Y-37525429D01*
X73592571Y-37668286D01*
X73592571Y-37811143D01*
X74521143Y-38882571D02*
X74592571Y-38739714D01*
X74592571Y-38454000D01*
X74521143Y-38311143D01*
X74378286Y-38239714D01*
X73806857Y-38239714D01*
X73664000Y-38311143D01*
X73592571Y-38454000D01*
X73592571Y-38739714D01*
X73664000Y-38882571D01*
X73806857Y-38954000D01*
X73949714Y-38954000D01*
X74092571Y-38239714D01*
X74521143Y-39525428D02*
X74592571Y-39668285D01*
X74592571Y-39954000D01*
X74521143Y-40096857D01*
X74378286Y-40168285D01*
X74306857Y-40168285D01*
X74164000Y-40096857D01*
X74092571Y-39954000D01*
X74092571Y-39739714D01*
X74021143Y-39596857D01*
X73878286Y-39525428D01*
X73806857Y-39525428D01*
X73664000Y-39596857D01*
X73592571Y-39739714D01*
X73592571Y-39954000D01*
X73664000Y-40096857D01*
X74521143Y-40739714D02*
X74592571Y-40882571D01*
X74592571Y-41168286D01*
X74521143Y-41311143D01*
X74378286Y-41382571D01*
X74306857Y-41382571D01*
X74164000Y-41311143D01*
X74092571Y-41168286D01*
X74092571Y-40954000D01*
X74021143Y-40811143D01*
X73878286Y-40739714D01*
X73806857Y-40739714D01*
X73664000Y-40811143D01*
X73592571Y-40954000D01*
X73592571Y-41168286D01*
X73664000Y-41311143D01*
X73592571Y-42668286D02*
X74592571Y-42668286D01*
X73592571Y-42025429D02*
X74378286Y-42025429D01*
X74521143Y-42096857D01*
X74592571Y-42239715D01*
X74592571Y-42454000D01*
X74521143Y-42596857D01*
X74449714Y-42668286D01*
X74592571Y-43382572D02*
X73592571Y-43382572D01*
X73878286Y-43382572D02*
X73735429Y-43454000D01*
X73664000Y-43525429D01*
X73592571Y-43668286D01*
X73592571Y-43811143D01*
X74521143Y-44882571D02*
X74592571Y-44739714D01*
X74592571Y-44454000D01*
X74521143Y-44311143D01*
X74378286Y-44239714D01*
X73806857Y-44239714D01*
X73664000Y-44311143D01*
X73592571Y-44454000D01*
X73592571Y-44739714D01*
X73664000Y-44882571D01*
X73806857Y-44954000D01*
X73949714Y-44954000D01*
X74092571Y-44239714D01*
X74521143Y-46668285D02*
X74592571Y-46811142D01*
X74592571Y-47096857D01*
X74521143Y-47239714D01*
X74378286Y-47311142D01*
X74306857Y-47311142D01*
X74164000Y-47239714D01*
X74092571Y-47096857D01*
X74092571Y-46882571D01*
X74021143Y-46739714D01*
X73878286Y-46668285D01*
X73806857Y-46668285D01*
X73664000Y-46739714D01*
X73592571Y-46882571D01*
X73592571Y-47096857D01*
X73664000Y-47239714D01*
X74521143Y-48525428D02*
X74592571Y-48382571D01*
X74592571Y-48096857D01*
X74521143Y-47954000D01*
X74378286Y-47882571D01*
X73806857Y-47882571D01*
X73664000Y-47954000D01*
X73592571Y-48096857D01*
X73592571Y-48382571D01*
X73664000Y-48525428D01*
X73806857Y-48596857D01*
X73949714Y-48596857D01*
X74092571Y-47882571D01*
X73592571Y-49239714D02*
X74592571Y-49239714D01*
X73735429Y-49239714D02*
X73664000Y-49311142D01*
X73592571Y-49454000D01*
X73592571Y-49668285D01*
X73664000Y-49811142D01*
X73806857Y-49882571D01*
X74592571Y-49882571D01*
X74521143Y-50525428D02*
X74592571Y-50668285D01*
X74592571Y-50954000D01*
X74521143Y-51096857D01*
X74378286Y-51168285D01*
X74306857Y-51168285D01*
X74164000Y-51096857D01*
X74092571Y-50954000D01*
X74092571Y-50739714D01*
X74021143Y-50596857D01*
X73878286Y-50525428D01*
X73806857Y-50525428D01*
X73664000Y-50596857D01*
X73592571Y-50739714D01*
X73592571Y-50954000D01*
X73664000Y-51096857D01*
X74592571Y-52025429D02*
X74521143Y-51882571D01*
X74449714Y-51811143D01*
X74306857Y-51739714D01*
X73878286Y-51739714D01*
X73735429Y-51811143D01*
X73664000Y-51882571D01*
X73592571Y-52025429D01*
X73592571Y-52239714D01*
X73664000Y-52382571D01*
X73735429Y-52454000D01*
X73878286Y-52525429D01*
X74306857Y-52525429D01*
X74449714Y-52454000D01*
X74521143Y-52382571D01*
X74592571Y-52239714D01*
X74592571Y-52025429D01*
X74592571Y-53168286D02*
X73592571Y-53168286D01*
X73878286Y-53168286D02*
X73735429Y-53239714D01*
X73664000Y-53311143D01*
X73592571Y-53454000D01*
X73592571Y-53596857D01*
X75999714Y-39525429D02*
X75928286Y-39382571D01*
X75928286Y-39096857D01*
X75999714Y-38954000D01*
X76142571Y-38811143D01*
X76285429Y-38739714D01*
X76571143Y-38739714D01*
X76714000Y-38811143D01*
X76856857Y-38954000D01*
X76928286Y-39096857D01*
X76928286Y-39382571D01*
X76856857Y-39525429D01*
X75428286Y-39239714D02*
X75499714Y-38882571D01*
X75714000Y-38525429D01*
X76071143Y-38311143D01*
X76428286Y-38239714D01*
X76785429Y-38311143D01*
X77142571Y-38525429D01*
X77356857Y-38882571D01*
X77428286Y-39239714D01*
X77356857Y-39596857D01*
X77142571Y-39954000D01*
X76785429Y-40168286D01*
X76428286Y-40239714D01*
X76071143Y-40168286D01*
X75714000Y-39954000D01*
X75499714Y-39596857D01*
X75428286Y-39239714D01*
X77142571Y-40882572D02*
X76142571Y-40882572D01*
X76428286Y-40882572D02*
X76285429Y-40954000D01*
X76214000Y-41025429D01*
X76142571Y-41168286D01*
X76142571Y-41311143D01*
X77071143Y-42454000D02*
X77142571Y-42311143D01*
X77142571Y-42025429D01*
X77071143Y-41882571D01*
X76999714Y-41811143D01*
X76856857Y-41739714D01*
X76428286Y-41739714D01*
X76285429Y-41811143D01*
X76214000Y-41882571D01*
X76142571Y-42025429D01*
X76142571Y-42311143D01*
X76214000Y-42454000D01*
X77142571Y-43096857D02*
X75642571Y-43096857D01*
X77142571Y-43739714D02*
X76356857Y-43739714D01*
X76214000Y-43668285D01*
X76142571Y-43525428D01*
X76142571Y-43311143D01*
X76214000Y-43168285D01*
X76285429Y-43096857D01*
X77142571Y-44668286D02*
X77071143Y-44525428D01*
X76999714Y-44454000D01*
X76856857Y-44382571D01*
X76428286Y-44382571D01*
X76285429Y-44454000D01*
X76214000Y-44525428D01*
X76142571Y-44668286D01*
X76142571Y-44882571D01*
X76214000Y-45025428D01*
X76285429Y-45096857D01*
X76428286Y-45168286D01*
X76856857Y-45168286D01*
X76999714Y-45096857D01*
X77071143Y-45025428D01*
X77142571Y-44882571D01*
X77142571Y-44668286D01*
X76142571Y-45811143D02*
X77428286Y-45811143D01*
X77571143Y-45739714D01*
X77642571Y-45596857D01*
X77642571Y-45525429D01*
X75642571Y-45811143D02*
X75714000Y-45739714D01*
X75785429Y-45811143D01*
X75714000Y-45882571D01*
X75642571Y-45811143D01*
X75785429Y-45811143D01*
X77071143Y-47096857D02*
X77142571Y-46954000D01*
X77142571Y-46668286D01*
X77071143Y-46525429D01*
X76928286Y-46454000D01*
X76356857Y-46454000D01*
X76214000Y-46525429D01*
X76142571Y-46668286D01*
X76142571Y-46954000D01*
X76214000Y-47096857D01*
X76356857Y-47168286D01*
X76499714Y-47168286D01*
X76642571Y-46454000D01*
X76142571Y-47596857D02*
X76142571Y-48168286D01*
X75642571Y-47811143D02*
X76928286Y-47811143D01*
X77071143Y-47882571D01*
X77142571Y-48025429D01*
X77142571Y-48168286D01*
X76142571Y-48525429D02*
X76142571Y-49311143D01*
X77142571Y-48525429D01*
X77142571Y-49311143D01*
X77142571Y-49882572D02*
X75642571Y-49882572D01*
X76571143Y-50025429D02*
X77142571Y-50454000D01*
X76142571Y-50454000D02*
X76714000Y-49882572D01*
X77142571Y-51096858D02*
X76142571Y-51096858D01*
X75642571Y-51096858D02*
X75714000Y-51025429D01*
X75785429Y-51096858D01*
X75714000Y-51168286D01*
X75642571Y-51096858D01*
X75785429Y-51096858D01*
M02*
