G04 #@! TF.FileFunction,Soldermask,Bot*
%FSLAX46Y46*%
G04 Gerber Fmt 4.6, Leading zero omitted, Abs format (unit mm)*
G04 Created by KiCad (PCBNEW 4.0.6) date Fri Oct 27 03:20:27 2017*
%MOMM*%
%LPD*%
G01*
G04 APERTURE LIST*
%ADD10C,0.100000*%
%ADD11C,7.000000*%
%ADD12C,1.350000*%
%ADD13C,3.150000*%
G04 APERTURE END LIST*
D10*
D11*
X124262984Y-170711870D02*
G75*
G03X150000000Y-175250000I25737016J70711870D01*
G01*
X124262984Y-29288130D02*
G75*
G02X150000000Y-24750000I25737016J-70711870D01*
G01*
D12*
X201464466Y-170707107D03*
X202878680Y-172121321D03*
X204292893Y-173535534D03*
X205707107Y-174949748D03*
X203585786Y-168585787D03*
X205000000Y-170000000D03*
X206414213Y-171414214D03*
X207828427Y-172828427D03*
X205707107Y-166464466D03*
X207121320Y-167878680D03*
X208535534Y-169292893D03*
X209949747Y-170707107D03*
X207828427Y-164343146D03*
X209242641Y-165757360D03*
X210656854Y-167171573D03*
X212071068Y-168585787D03*
X209949747Y-162221826D03*
X211363961Y-163636039D03*
X212778174Y-165050253D03*
X214192388Y-166464466D03*
X212071068Y-160100505D03*
X213485281Y-161514719D03*
X214899495Y-162928932D03*
X216313708Y-164343146D03*
X214192388Y-157979185D03*
X215606602Y-159393399D03*
X217020815Y-160807612D03*
X218435029Y-162221826D03*
X216313708Y-155857865D03*
X217727922Y-157272078D03*
X219142136Y-158686292D03*
X220556349Y-160100505D03*
X218435029Y-153736544D03*
X219849242Y-155150758D03*
X221263456Y-156564971D03*
X222677669Y-157979185D03*
D13*
X221263456Y-148079690D03*
X228334524Y-155150758D03*
X228334524Y-141008622D03*
X235405591Y-148079690D03*
D12*
X239500000Y-64500000D03*
X237500000Y-64500000D03*
X235500000Y-64500000D03*
X233500000Y-64500000D03*
X239500000Y-67500000D03*
X237500000Y-67500000D03*
X235500000Y-67500000D03*
X233500000Y-67500000D03*
X239500000Y-70500000D03*
X237500000Y-70500000D03*
X235500000Y-70500000D03*
X233500000Y-70500000D03*
X239500000Y-73500000D03*
X237500000Y-73500000D03*
X235500000Y-73500000D03*
X233500000Y-73500000D03*
X239500000Y-76500000D03*
X237500000Y-76500000D03*
X235500000Y-76500000D03*
X233500000Y-76500000D03*
X239500000Y-79500000D03*
X237500000Y-79500000D03*
X235500000Y-79500000D03*
X233500000Y-79500000D03*
X239500000Y-82500000D03*
X237500000Y-82500000D03*
X235500000Y-82500000D03*
X233500000Y-82500000D03*
X239500000Y-85500000D03*
X237500000Y-85500000D03*
X235500000Y-85500000D03*
X233500000Y-85500000D03*
X239500000Y-88500000D03*
X237500000Y-88500000D03*
X235500000Y-88500000D03*
X233500000Y-88500000D03*
D13*
X241500000Y-94500000D03*
X231500000Y-94500000D03*
X241500000Y-104500000D03*
X231500000Y-104500000D03*
D12*
X200843146Y-23686292D03*
X199428932Y-25100506D03*
X198014719Y-26514719D03*
X196600505Y-27928933D03*
X202964466Y-25807612D03*
X201550253Y-27221826D03*
X200136039Y-28636039D03*
X198721826Y-30050253D03*
X205085787Y-27928933D03*
X203671573Y-29343146D03*
X202257360Y-30757360D03*
X200843146Y-32171573D03*
X207207107Y-30050253D03*
X205792893Y-31464467D03*
X204378680Y-32878680D03*
X202964466Y-34292894D03*
X209328427Y-32171573D03*
X207914214Y-33585787D03*
X206500000Y-35000000D03*
X205085787Y-36414214D03*
X211449748Y-34292894D03*
X210035534Y-35707107D03*
X208621321Y-37121321D03*
X207207107Y-38535534D03*
X213571068Y-36414214D03*
X212156854Y-37828428D03*
X210742641Y-39242641D03*
X209328427Y-40656855D03*
X215692388Y-38535534D03*
X214278175Y-39949748D03*
X212863961Y-41363962D03*
X211449748Y-42778175D03*
X217813709Y-40656855D03*
X216399495Y-42071068D03*
X214985282Y-43485282D03*
X213571068Y-44899495D03*
D13*
X223470563Y-43485282D03*
X216399495Y-50556350D03*
X230541631Y-50556350D03*
X223470563Y-57627417D03*
M02*
