M48
;DRILL file {KiCad 4.0.6} date Fri Oct 27 03:20:30 2017
;FORMAT={-:-/ absolute / inch / decimal}
FMAT,2
INCH,TZ
T1C0.087
T2C0.118
%
G90
G05
M72
T1
X3.1216Y-2.9237
X3.1216Y-4.9503
X4.4242Y-1.3713
X4.4242Y-6.5027
X6.42Y-1.0194
X6.42Y-6.8546
X8.175Y-2.0327
X8.175Y-5.8413
X8.8681Y-3.937
X9.0551Y-4.7823
X9.2913Y-4.6276
X9.2913Y-4.9425
T2
X8.5197Y-1.9904
X8.7112Y-5.8299
X8.7981Y-1.712
X8.7981Y-2.2688
X8.9895Y-5.5515
X8.9895Y-6.1083
X9.0764Y-1.9904
X9.1142Y-3.7205
X9.1142Y-4.1142
X9.2679Y-5.8299
X9.5079Y-3.7205
X9.5079Y-4.1142
T0
M30
