M48
;DRILL file {KiCad 4.0.6} date Fri Oct 27 03:20:30 2017
;FORMAT={-:-/ absolute / inch / decimal}
FMAT,2
INCH,TZ
T1C0.024
T2C0.039
%
G90
G05
M72
T1
X7.7402Y-1.0996
X7.7959Y-1.0439
X7.8237Y-1.1831
X7.8515Y-0.9882
X7.8794Y-1.1274
X7.9072Y-0.9325
X7.9072Y-1.2666
X7.9317Y-6.7208
X7.935Y-1.0717
X7.9629Y-1.2109
X7.9873Y-6.7764
X7.9907Y-1.016
X7.9907Y-1.3501
X8.0152Y-6.6372
X8.0186Y-1.1552
X8.043Y-6.8321
X8.0464Y-1.2944
X8.0709Y-6.6929
X8.0742Y-1.0996
X8.0742Y-1.4336
X8.0987Y-6.5537
X8.0987Y-6.8878
X8.1021Y-1.2388
X8.1265Y-6.7486
X8.1299Y-1.378
X8.1544Y-6.6094
X8.1578Y-1.1831
X8.1578Y-1.5171
X8.1822Y-6.4702
X8.1822Y-6.8043
X8.1856Y-1.3223
X8.2101Y-6.6651
X8.2134Y-1.4615
X8.2379Y-6.5259
X8.2413Y-1.2666
X8.2413Y-1.6007
X8.2657Y-6.3867
X8.2657Y-6.7208
X8.2691Y-1.4058
X8.2936Y-6.5816
X8.297Y-1.545
X8.3214Y-6.4424
X8.3248Y-1.3501
X8.3248Y-1.6842
X8.3493Y-6.3032
X8.3493Y-6.6372
X8.3526Y-1.4893
X8.3771Y-6.498
X8.3805Y-1.6285
X8.4049Y-6.3588
X8.4083Y-1.4336
X8.4083Y-1.7677
X8.4328Y-6.2197
X8.4328Y-6.5537
X8.4361Y-1.5728
X8.4606Y-6.4145
X8.464Y-1.712
X8.4884Y-6.2753
X8.4918Y-1.5171
X8.5163Y-6.1361
X8.5163Y-6.4702
X8.5197Y-1.6563
X8.5441Y-6.331
X8.572Y-6.1918
X8.5753Y-1.6007
X8.5998Y-6.0526
X8.5998Y-6.3867
X8.6276Y-6.2475
X8.6555Y-6.1083
X8.6833Y-6.3032
X8.7112Y-6.164
X8.7668Y-6.2197
X9.1929Y-2.5394
X9.1929Y-2.6575
X9.1929Y-2.7756
X9.1929Y-2.8937
X9.1929Y-3.0118
X9.1929Y-3.1299
X9.1929Y-3.248
X9.1929Y-3.3661
X9.1929Y-3.4843
X9.2717Y-2.5394
X9.2717Y-2.6575
X9.2717Y-2.7756
X9.2717Y-2.8937
X9.2717Y-3.0118
X9.2717Y-3.1299
X9.2717Y-3.248
X9.2717Y-3.3661
X9.2717Y-3.4843
X9.3504Y-2.5394
X9.3504Y-2.6575
X9.3504Y-2.7756
X9.3504Y-2.8937
X9.3504Y-3.0118
X9.3504Y-3.1299
X9.3504Y-3.248
X9.3504Y-3.3661
X9.3504Y-3.4843
X9.4291Y-2.5394
X9.4291Y-2.6575
X9.4291Y-2.7756
X9.4291Y-2.8937
X9.4291Y-3.0118
X9.4291Y-3.1299
X9.4291Y-3.248
X9.4291Y-3.3661
X9.4291Y-3.4843
T2
X2.9879Y-3.4226
X2.9879Y-4.4515
X3.3398Y-2.4557
X3.3398Y-5.4183
X4.0012Y-1.6675
X4.0012Y-6.2065
X4.8922Y-1.1531
X4.8922Y-6.7209
X5.9055Y-0.9744
X5.9055Y-6.8996
X6.9188Y-1.1531
X6.9188Y-6.7209
X7.2835Y-6.8898
X7.4803Y-0.9843
X7.7756Y-6.8898
X8.1693Y-0.9843
X8.4712Y-2.4557
X8.4712Y-5.4183
X8.8231Y-4.4515
X9.0551Y-1.7717
X9.1535Y-6.0039
X9.6457Y-2.4606
X9.6457Y-3.1496
X9.6457Y-3.937
X9.6457Y-4.626
X9.6457Y-5.4134
T0
M30
