G04 #@! TF.FileFunction,Soldermask,Top*
%FSLAX46Y46*%
G04 Gerber Fmt 4.6, Leading zero omitted, Abs format (unit mm)*
G04 Created by KiCad (PCBNEW 4.0.7) date Mon Jan 29 22:09:26 2018*
%MOMM*%
%LPD*%
G01*
G04 APERTURE LIST*
%ADD10C,0.100000*%
%ADD11C,7.000000*%
%ADD12R,1.650000X3.150000*%
%ADD13C,1.350000*%
%ADD14C,3.150000*%
%ADD15R,3.150000X1.650000*%
G04 APERTURE END LIST*
D10*
D11*
X214501998Y-61243377D02*
G75*
G03X207645000Y-51630200I-64501998J-38756623D01*
G01*
X207644844Y-148369768D02*
G75*
G03X225250000Y-100000000I-57644844J48369768D01*
G01*
X173253529Y-171567003D02*
G75*
G02X150000000Y-175250000I-23253529J71567003D01*
G01*
X175737016Y-29288130D02*
G75*
G03X150000000Y-24750000I-25737016J-70711870D01*
G01*
X150000000Y-175250000D02*
G75*
G02X150000000Y-24750000I0J75250000D01*
G01*
D12*
X204500000Y-136500000D03*
X202000000Y-136500000D03*
X199500000Y-136500000D03*
X197000000Y-136500000D03*
D13*
X201464466Y-170707107D03*
X202878680Y-172121321D03*
X204292893Y-173535534D03*
X205707107Y-174949748D03*
X203585786Y-168585787D03*
X205000000Y-170000000D03*
X206414213Y-171414214D03*
X207828427Y-172828427D03*
X205707107Y-166464466D03*
X207121320Y-167878680D03*
X208535534Y-169292893D03*
X209949747Y-170707107D03*
X207828427Y-164343146D03*
X209242641Y-165757360D03*
X210656854Y-167171573D03*
X212071068Y-168585787D03*
X209949747Y-162221826D03*
X211363961Y-163636039D03*
X212778174Y-165050253D03*
X214192388Y-166464466D03*
X212071068Y-160100505D03*
X213485281Y-161514719D03*
X214899495Y-162928932D03*
X216313708Y-164343146D03*
X214192388Y-157979185D03*
X215606602Y-159393399D03*
X217020815Y-160807612D03*
X218435029Y-162221826D03*
X216313708Y-155857865D03*
X217727922Y-157272078D03*
X219142136Y-158686292D03*
X220556349Y-160100505D03*
X218435029Y-153736544D03*
X219849242Y-155150758D03*
X221263456Y-156564971D03*
X222677669Y-157979185D03*
D14*
X221263456Y-148079690D03*
X228334524Y-155150758D03*
X228334524Y-141008622D03*
X235405591Y-148079690D03*
D12*
X140500000Y-167000000D03*
X143000000Y-167000000D03*
X145500000Y-167000000D03*
X148000000Y-167000000D03*
D10*
G36*
X119498029Y-38048510D02*
X120926971Y-37223510D01*
X122501971Y-39951490D01*
X121073029Y-40776490D01*
X119498029Y-38048510D01*
X119498029Y-38048510D01*
G37*
G36*
X117332965Y-39298510D02*
X118761907Y-38473510D01*
X120336907Y-41201490D01*
X118907965Y-42026490D01*
X117332965Y-39298510D01*
X117332965Y-39298510D01*
G37*
G36*
X115167902Y-40548510D02*
X116596844Y-39723510D01*
X118171844Y-42451490D01*
X116742902Y-43276490D01*
X115167902Y-40548510D01*
X115167902Y-40548510D01*
G37*
G36*
X113002838Y-41798510D02*
X114431780Y-40973510D01*
X116006780Y-43701490D01*
X114577838Y-44526490D01*
X113002838Y-41798510D01*
X113002838Y-41798510D01*
G37*
D13*
X239500000Y-64500000D03*
X237500000Y-64500000D03*
X235500000Y-64500000D03*
X233500000Y-64500000D03*
X239500000Y-67500000D03*
X237500000Y-67500000D03*
X235500000Y-67500000D03*
X233500000Y-67500000D03*
X239500000Y-70500000D03*
X237500000Y-70500000D03*
X235500000Y-70500000D03*
X233500000Y-70500000D03*
X239500000Y-73500000D03*
X237500000Y-73500000D03*
X235500000Y-73500000D03*
X233500000Y-73500000D03*
X239500000Y-76500000D03*
X237500000Y-76500000D03*
X235500000Y-76500000D03*
X233500000Y-76500000D03*
X239500000Y-79500000D03*
X237500000Y-79500000D03*
X235500000Y-79500000D03*
X233500000Y-79500000D03*
X239500000Y-82500000D03*
X237500000Y-82500000D03*
X235500000Y-82500000D03*
X233500000Y-82500000D03*
X239500000Y-85500000D03*
X237500000Y-85500000D03*
X235500000Y-85500000D03*
X233500000Y-85500000D03*
X239500000Y-88500000D03*
X237500000Y-88500000D03*
X235500000Y-88500000D03*
X233500000Y-88500000D03*
D14*
X241500000Y-94500000D03*
X231500000Y-94500000D03*
X241500000Y-104500000D03*
X231500000Y-104500000D03*
D13*
X200843146Y-23686292D03*
X199428932Y-25100506D03*
X198014719Y-26514719D03*
X196600505Y-27928933D03*
X202964466Y-25807612D03*
X201550253Y-27221826D03*
X200136039Y-28636039D03*
X198721826Y-30050253D03*
X205085787Y-27928933D03*
X203671573Y-29343146D03*
X202257360Y-30757360D03*
X200843146Y-32171573D03*
X207207107Y-30050253D03*
X205792893Y-31464467D03*
X204378680Y-32878680D03*
X202964466Y-34292894D03*
X209328427Y-32171573D03*
X207914214Y-33585787D03*
X206500000Y-35000000D03*
X205085787Y-36414214D03*
X211449748Y-34292894D03*
X210035534Y-35707107D03*
X208621321Y-37121321D03*
X207207107Y-38535534D03*
X213571068Y-36414214D03*
X212156854Y-37828428D03*
X210742641Y-39242641D03*
X209328427Y-40656855D03*
X215692388Y-38535534D03*
X214278175Y-39949748D03*
X212863961Y-41363962D03*
X211449748Y-42778175D03*
X217813709Y-40656855D03*
X216399495Y-42071068D03*
X214985282Y-43485282D03*
X213571068Y-44899495D03*
D14*
X223470563Y-43485282D03*
X216399495Y-50556350D03*
X230541631Y-50556350D03*
X223470563Y-57627417D03*
D12*
X154000000Y-167000000D03*
X156500000Y-167000000D03*
X159000000Y-167000000D03*
X161500000Y-167000000D03*
X127500000Y-163000000D03*
X130000000Y-163000000D03*
X132500000Y-163000000D03*
X135000000Y-163000000D03*
D10*
G36*
X114426971Y-158776490D02*
X112998029Y-157951490D01*
X114573029Y-155223510D01*
X116001971Y-156048510D01*
X114426971Y-158776490D01*
X114426971Y-158776490D01*
G37*
G36*
X116592035Y-160026490D02*
X115163093Y-159201490D01*
X116738093Y-156473510D01*
X118167035Y-157298510D01*
X116592035Y-160026490D01*
X116592035Y-160026490D01*
G37*
G36*
X118757098Y-161276490D02*
X117328156Y-160451490D01*
X118903156Y-157723510D01*
X120332098Y-158548510D01*
X118757098Y-161276490D01*
X118757098Y-161276490D01*
G37*
G36*
X120922162Y-162526490D02*
X119493220Y-161701490D01*
X121068220Y-158973510D01*
X122497162Y-159798510D01*
X120922162Y-162526490D01*
X120922162Y-162526490D01*
G37*
G36*
X103166369Y-150393755D02*
X101999643Y-149227029D01*
X104227029Y-146999643D01*
X105393755Y-148166369D01*
X103166369Y-150393755D01*
X103166369Y-150393755D01*
G37*
G36*
X104934136Y-152161522D02*
X103767410Y-150994796D01*
X105994796Y-148767410D01*
X107161522Y-149934136D01*
X104934136Y-152161522D01*
X104934136Y-152161522D01*
G37*
G36*
X106701903Y-153929289D02*
X105535177Y-152762563D01*
X107762563Y-150535177D01*
X108929289Y-151701903D01*
X106701903Y-153929289D01*
X106701903Y-153929289D01*
G37*
G36*
X108469670Y-155697056D02*
X107302944Y-154530330D01*
X109530330Y-152302944D01*
X110697056Y-153469670D01*
X108469670Y-155697056D01*
X108469670Y-155697056D01*
G37*
G36*
X95166369Y-140393755D02*
X93999643Y-139227029D01*
X96227029Y-136999643D01*
X97393755Y-138166369D01*
X95166369Y-140393755D01*
X95166369Y-140393755D01*
G37*
G36*
X96934136Y-142161522D02*
X95767410Y-140994796D01*
X97994796Y-138767410D01*
X99161522Y-139934136D01*
X96934136Y-142161522D01*
X96934136Y-142161522D01*
G37*
G36*
X98701903Y-143929289D02*
X97535177Y-142762563D01*
X99762563Y-140535177D01*
X100929289Y-141701903D01*
X98701903Y-143929289D01*
X98701903Y-143929289D01*
G37*
G36*
X100469670Y-145697056D02*
X99302944Y-144530330D01*
X101530330Y-142302944D01*
X102697056Y-143469670D01*
X100469670Y-145697056D01*
X100469670Y-145697056D01*
G37*
D15*
X92000000Y-126500000D03*
X92000000Y-129000000D03*
X92000000Y-131500000D03*
X92000000Y-134000000D03*
X92000000Y-114500000D03*
X92000000Y-117000000D03*
X92000000Y-119500000D03*
X92000000Y-122000000D03*
X92000000Y-102500000D03*
X92000000Y-105000000D03*
X92000000Y-107500000D03*
X92000000Y-110000000D03*
D12*
X203500000Y-63500000D03*
X201000000Y-63500000D03*
X198500000Y-63500000D03*
X196000000Y-63500000D03*
X192000000Y-63500000D03*
X189500000Y-63500000D03*
X187000000Y-63500000D03*
X184500000Y-63500000D03*
X180500000Y-63500000D03*
X178000000Y-63500000D03*
X175500000Y-63500000D03*
X173000000Y-63500000D03*
X169000000Y-63500000D03*
X166500000Y-63500000D03*
X164000000Y-63500000D03*
X161500000Y-63500000D03*
D15*
X210500000Y-83500000D03*
X210500000Y-81000000D03*
X210500000Y-78500000D03*
X210500000Y-76000000D03*
D12*
X157500000Y-33000000D03*
X155000000Y-33000000D03*
X152500000Y-33000000D03*
X150000000Y-33000000D03*
X146000000Y-33000000D03*
X143500000Y-33000000D03*
X141000000Y-33000000D03*
X138500000Y-33000000D03*
X133500000Y-36500000D03*
X131000000Y-36500000D03*
X128500000Y-36500000D03*
X126000000Y-36500000D03*
D10*
G36*
X108302944Y-45469670D02*
X109469670Y-44302944D01*
X111697056Y-46530330D01*
X110530330Y-47697056D01*
X108302944Y-45469670D01*
X108302944Y-45469670D01*
G37*
G36*
X106535177Y-47237437D02*
X107701903Y-46070711D01*
X109929289Y-48298097D01*
X108762563Y-49464823D01*
X106535177Y-47237437D01*
X106535177Y-47237437D01*
G37*
G36*
X104767410Y-49005204D02*
X105934136Y-47838478D01*
X108161522Y-50065864D01*
X106994796Y-51232590D01*
X104767410Y-49005204D01*
X104767410Y-49005204D01*
G37*
G36*
X102999643Y-50772971D02*
X104166369Y-49606245D01*
X106393755Y-51833631D01*
X105227029Y-53000357D01*
X102999643Y-50772971D01*
X102999643Y-50772971D01*
G37*
G36*
X99070711Y-54701903D02*
X100237437Y-53535177D01*
X102464823Y-55762563D01*
X101298097Y-56929289D01*
X99070711Y-54701903D01*
X99070711Y-54701903D01*
G37*
G36*
X97302944Y-56469670D02*
X98469670Y-55302944D01*
X100697056Y-57530330D01*
X99530330Y-58697056D01*
X97302944Y-56469670D01*
X97302944Y-56469670D01*
G37*
G36*
X95535177Y-58237437D02*
X96701903Y-57070711D01*
X98929289Y-59298097D01*
X97762563Y-60464823D01*
X95535177Y-58237437D01*
X95535177Y-58237437D01*
G37*
G36*
X93767410Y-60005204D02*
X94934136Y-58838478D01*
X97161522Y-61065864D01*
X95994796Y-62232590D01*
X93767410Y-60005204D01*
X93767410Y-60005204D01*
G37*
D15*
X92000000Y-66500000D03*
X92000000Y-69000000D03*
X92000000Y-71500000D03*
X92000000Y-74000000D03*
X92000000Y-78000000D03*
X92000000Y-80500000D03*
X92000000Y-83000000D03*
X92000000Y-85500000D03*
X92000000Y-90000000D03*
X92000000Y-92500000D03*
X92000000Y-95000000D03*
X92000000Y-97500000D03*
D12*
X181500000Y-136500000D03*
X179000000Y-136500000D03*
X176500000Y-136500000D03*
X174000000Y-136500000D03*
X193000000Y-136500000D03*
X190500000Y-136500000D03*
X188000000Y-136500000D03*
X185500000Y-136500000D03*
X170000000Y-136500000D03*
X167500000Y-136500000D03*
X165000000Y-136500000D03*
X162500000Y-136500000D03*
M02*
