<?xml version="1.0" standalone="no"?>
 <!DOCTYPE svg PUBLIC "-//W3C//DTD SVG 1.1//EN" 
 "http://www.w3.org/Graphics/SVG/1.1/DTD/svg11.dtd"> 
<svg xmlns="http://www.w3.org/2000/svg" version="1.1" 
    width="29.7002cm" height="21.0007cm" viewBox="0 0 116930 82680 ">
<title>SVG Picture created as pressure-sensor-hcla.svg date 2017/05/31 13:43:16 </title>
  <desc>Picture generated by Eeschema-SVG </desc>
<g style="fill:#000000; fill-opacity:1;stroke:#000000; stroke-opacity:1;
stroke-linecap:round; stroke-linejoin:round; "
 transform="translate(0 0) scale(1 1)">
</g>
<g style="fill:#000000; fill-opacity:0.0; 
stroke:#000000; stroke-width:-10; stroke-opacity:1; 
stroke-linecap:round; stroke-linejoin:round;">
</g>
<g style="fill:#840000; fill-opacity:0.0; 
stroke:#840000; stroke-width:-10; stroke-opacity:1; 
stroke-linecap:round; stroke-linejoin:round;">
</g>
<g style="fill:#840000; fill-opacity:0.0; 
stroke:#840000; stroke-width:100; stroke-opacity:1; 
stroke-linecap:round; stroke-linejoin:round;">
</g>
<g style="fill:#840000; fill-opacity:0.0; 
stroke:#840000; stroke-width:60; stroke-opacity:1; 
stroke-linecap:round; stroke-linejoin:round;">
<rect x="69690" y="65360" width="42520" height="12600" rx="0" />
</g>
<g style="fill:#840000; fill-opacity:0.0; 
stroke:#840000; stroke-width:100; stroke-opacity:1; 
stroke-linecap:round; stroke-linejoin:round;">
</g>
<g style="fill:#840000; fill-opacity:0.0; 
stroke:#840000; stroke-width:60; stroke-opacity:1; 
stroke-linecap:round; stroke-linejoin:round;">
<rect x="3940" y="3940" width="109050" height="74800" rx="0" />
</g>
<g style="fill:#840000; fill-opacity:0.0; 
stroke:#840000; stroke-width:100; stroke-opacity:1; 
stroke-linecap:round; stroke-linejoin:round;">
</g>
<g style="fill:#840000; fill-opacity:0.0; 
stroke:#840000; stroke-width:60; stroke-opacity:1; 
stroke-linecap:round; stroke-linejoin:round;">
<rect x="4720" y="4720" width="107490" height="73240" rx="0" />
</g>
<g style="fill:#840000; fill-opacity:0.0; 
stroke:#840000; stroke-width:100; stroke-opacity:1; 
stroke-linecap:round; stroke-linejoin:round;">
</g>
<g style="fill:#840000; fill-opacity:0.0; 
stroke:#840000; stroke-width:60; stroke-opacity:1; 
stroke-linecap:round; stroke-linejoin:round;">
<path d="M23620 4720
L23620 3940
" />
</g>
<g style="fill:#840000; fill-opacity:0.0; 
stroke:#840000; stroke-width:100; stroke-opacity:1; 
stroke-linecap:round; stroke-linejoin:round;">
</g>
<g style="fill:#840000; fill-opacity:0.0; 
stroke:#840000; stroke-width:60; stroke-opacity:1; 
stroke-linecap:round; stroke-linejoin:round;">
<path d="M43310 4720
L43310 3940
" />
</g>
<g style="fill:#840000; fill-opacity:0.0; 
stroke:#840000; stroke-width:100; stroke-opacity:1; 
stroke-linecap:round; stroke-linejoin:round;">
</g>
<g style="fill:#840000; fill-opacity:0.0; 
stroke:#840000; stroke-width:60; stroke-opacity:1; 
stroke-linecap:round; stroke-linejoin:round;">
<path d="M62990 4720
L62990 3940
" />
</g>
<g style="fill:#840000; fill-opacity:0.0; 
stroke:#840000; stroke-width:100; stroke-opacity:1; 
stroke-linecap:round; stroke-linejoin:round;">
</g>
<g style="fill:#840000; fill-opacity:0.0; 
stroke:#840000; stroke-width:60; stroke-opacity:1; 
stroke-linecap:round; stroke-linejoin:round;">
<path d="M82680 4720
L82680 3940
" />
</g>
<g style="fill:#840000; fill-opacity:0.0; 
stroke:#840000; stroke-width:100; stroke-opacity:1; 
stroke-linecap:round; stroke-linejoin:round;">
</g>
<g style="fill:#840000; fill-opacity:0.0; 
stroke:#840000; stroke-width:60; stroke-opacity:1; 
stroke-linecap:round; stroke-linejoin:round;">
<path d="M102360 4720
L102360 3940
" />
</g>
<g style="fill:#840000; fill-opacity:0.0; 
stroke:#840000; stroke-width:100; stroke-opacity:1; 
stroke-linecap:round; stroke-linejoin:round;">
</g>
<g style="fill:#840000; fill-opacity:0.0; 
stroke:#840000; stroke-width:60; stroke-opacity:1; 
stroke-linecap:round; stroke-linejoin:round;">
<path d="M14170 4560
L13880 4560
" />
<path d="M14020 4560
L14020 4050
L13970 4120
L13930 4170
L13880 4190
" />
</g>
<g style="fill:#840000; fill-opacity:0.0; 
stroke:#840000; stroke-width:100; stroke-opacity:1; 
stroke-linecap:round; stroke-linejoin:round;">
</g>
<g style="fill:#840000; fill-opacity:0.0; 
stroke:#840000; stroke-width:60; stroke-opacity:1; 
stroke-linecap:round; stroke-linejoin:round;">
<path d="M33560 4090
L33580 4070
L33630 4050
L33750 4050
L33800 4070
L33820 4090
L33850 4140
L33850 4190
L33820 4260
L33530 4560
L33850 4560
" />
</g>
<g style="fill:#840000; fill-opacity:0.0; 
stroke:#840000; stroke-width:100; stroke-opacity:1; 
stroke-linecap:round; stroke-linejoin:round;">
</g>
<g style="fill:#840000; fill-opacity:0.0; 
stroke:#840000; stroke-width:60; stroke-opacity:1; 
stroke-linecap:round; stroke-linejoin:round;">
<path d="M53220 4050
L53540 4050
L53370 4240
L53440 4240
L53490 4260
L53510 4290
L53540 4340
L53540 4460
L53510 4510
L53490 4530
L53440 4560
L53300 4560
L53250 4530
L53220 4510
" />
</g>
<g style="fill:#840000; fill-opacity:0.0; 
stroke:#840000; stroke-width:100; stroke-opacity:1; 
stroke-linecap:round; stroke-linejoin:round;">
</g>
<g style="fill:#840000; fill-opacity:0.0; 
stroke:#840000; stroke-width:60; stroke-opacity:1; 
stroke-linecap:round; stroke-linejoin:round;">
<path d="M73170 4220
L73170 4560
" />
<path d="M73050 4020
L72930 4390
L73240 4390
" />
</g>
<g style="fill:#840000; fill-opacity:0.0; 
stroke:#840000; stroke-width:100; stroke-opacity:1; 
stroke-linecap:round; stroke-linejoin:round;">
</g>
<g style="fill:#840000; fill-opacity:0.0; 
stroke:#840000; stroke-width:60; stroke-opacity:1; 
stroke-linecap:round; stroke-linejoin:round;">
<path d="M92880 4050
L92640 4050
L92620 4290
L92640 4260
L92690 4240
L92810 4240
L92860 4260
L92880 4290
L92910 4340
L92910 4460
L92880 4510
L92860 4530
L92810 4560
L92690 4560
L92640 4530
L92620 4510
" />
</g>
<g style="fill:#840000; fill-opacity:0.0; 
stroke:#840000; stroke-width:100; stroke-opacity:1; 
stroke-linecap:round; stroke-linejoin:round;">
</g>
<g style="fill:#840000; fill-opacity:0.0; 
stroke:#840000; stroke-width:60; stroke-opacity:1; 
stroke-linecap:round; stroke-linejoin:round;">
<path d="M112540 4050
L112440 4050
L112390 4070
L112370 4090
L112320 4170
L112300 4260
L112300 4460
L112320 4510
L112350 4530
L112390 4560
L112490 4560
L112540 4530
L112560 4510
L112590 4460
L112590 4340
L112560 4290
L112540 4260
L112490 4240
L112390 4240
L112350 4260
L112320 4290
L112300 4340
" />
</g>
<g style="fill:#840000; fill-opacity:0.0; 
stroke:#840000; stroke-width:100; stroke-opacity:1; 
stroke-linecap:round; stroke-linejoin:round;">
</g>
<g style="fill:#840000; fill-opacity:0.0; 
stroke:#840000; stroke-width:60; stroke-opacity:1; 
stroke-linecap:round; stroke-linejoin:round;">
<path d="M23620 77960
L23620 78740
" />
</g>
<g style="fill:#840000; fill-opacity:0.0; 
stroke:#840000; stroke-width:100; stroke-opacity:1; 
stroke-linecap:round; stroke-linejoin:round;">
</g>
<g style="fill:#840000; fill-opacity:0.0; 
stroke:#840000; stroke-width:60; stroke-opacity:1; 
stroke-linecap:round; stroke-linejoin:round;">
<path d="M43310 77960
L43310 78740
" />
</g>
<g style="fill:#840000; fill-opacity:0.0; 
stroke:#840000; stroke-width:100; stroke-opacity:1; 
stroke-linecap:round; stroke-linejoin:round;">
</g>
<g style="fill:#840000; fill-opacity:0.0; 
stroke:#840000; stroke-width:60; stroke-opacity:1; 
stroke-linecap:round; stroke-linejoin:round;">
<path d="M62990 77960
L62990 78740
" />
</g>
<g style="fill:#840000; fill-opacity:0.0; 
stroke:#840000; stroke-width:100; stroke-opacity:1; 
stroke-linecap:round; stroke-linejoin:round;">
</g>
<g style="fill:#840000; fill-opacity:0.0; 
stroke:#840000; stroke-width:60; stroke-opacity:1; 
stroke-linecap:round; stroke-linejoin:round;">
<path d="M82680 77960
L82680 78740
" />
</g>
<g style="fill:#840000; fill-opacity:0.0; 
stroke:#840000; stroke-width:100; stroke-opacity:1; 
stroke-linecap:round; stroke-linejoin:round;">
</g>
<g style="fill:#840000; fill-opacity:0.0; 
stroke:#840000; stroke-width:60; stroke-opacity:1; 
stroke-linecap:round; stroke-linejoin:round;">
<path d="M102360 77960
L102360 78740
" />
</g>
<g style="fill:#840000; fill-opacity:0.0; 
stroke:#840000; stroke-width:100; stroke-opacity:1; 
stroke-linecap:round; stroke-linejoin:round;">
</g>
<g style="fill:#840000; fill-opacity:0.0; 
stroke:#840000; stroke-width:60; stroke-opacity:1; 
stroke-linecap:round; stroke-linejoin:round;">
<path d="M14170 78580
L13880 78580
" />
<path d="M14020 78580
L14020 78070
L13970 78140
L13930 78190
L13880 78210
" />
</g>
<g style="fill:#840000; fill-opacity:0.0; 
stroke:#840000; stroke-width:100; stroke-opacity:1; 
stroke-linecap:round; stroke-linejoin:round;">
</g>
<g style="fill:#840000; fill-opacity:0.0; 
stroke:#840000; stroke-width:60; stroke-opacity:1; 
stroke-linecap:round; stroke-linejoin:round;">
<path d="M33560 78110
L33580 78090
L33630 78070
L33750 78070
L33800 78090
L33820 78110
L33850 78160
L33850 78210
L33820 78280
L33530 78580
L33850 78580
" />
</g>
<g style="fill:#840000; fill-opacity:0.0; 
stroke:#840000; stroke-width:100; stroke-opacity:1; 
stroke-linecap:round; stroke-linejoin:round;">
</g>
<g style="fill:#840000; fill-opacity:0.0; 
stroke:#840000; stroke-width:60; stroke-opacity:1; 
stroke-linecap:round; stroke-linejoin:round;">
<path d="M53220 78070
L53540 78070
L53370 78260
L53440 78260
L53490 78280
L53510 78310
L53540 78360
L53540 78480
L53510 78530
L53490 78550
L53440 78580
L53300 78580
L53250 78550
L53220 78530
" />
</g>
<g style="fill:#840000; fill-opacity:0.0; 
stroke:#840000; stroke-width:100; stroke-opacity:1; 
stroke-linecap:round; stroke-linejoin:round;">
</g>
<g style="fill:#840000; fill-opacity:0.0; 
stroke:#840000; stroke-width:60; stroke-opacity:1; 
stroke-linecap:round; stroke-linejoin:round;">
<path d="M73170 78240
L73170 78580
" />
<path d="M73050 78040
L72930 78410
L73240 78410
" />
</g>
<g style="fill:#840000; fill-opacity:0.0; 
stroke:#840000; stroke-width:100; stroke-opacity:1; 
stroke-linecap:round; stroke-linejoin:round;">
</g>
<g style="fill:#840000; fill-opacity:0.0; 
stroke:#840000; stroke-width:60; stroke-opacity:1; 
stroke-linecap:round; stroke-linejoin:round;">
<path d="M92880 78070
L92640 78070
L92620 78310
L92640 78280
L92690 78260
L92810 78260
L92860 78280
L92880 78310
L92910 78360
L92910 78480
L92880 78530
L92860 78550
L92810 78580
L92690 78580
L92640 78550
L92620 78530
" />
</g>
<g style="fill:#840000; fill-opacity:0.0; 
stroke:#840000; stroke-width:100; stroke-opacity:1; 
stroke-linecap:round; stroke-linejoin:round;">
</g>
<g style="fill:#840000; fill-opacity:0.0; 
stroke:#840000; stroke-width:60; stroke-opacity:1; 
stroke-linecap:round; stroke-linejoin:round;">
<path d="M112540 78070
L112440 78070
L112390 78090
L112370 78110
L112320 78190
L112300 78280
L112300 78480
L112320 78530
L112350 78550
L112390 78580
L112490 78580
L112540 78550
L112560 78530
L112590 78480
L112590 78360
L112560 78310
L112540 78280
L112490 78260
L112390 78260
L112350 78280
L112320 78310
L112300 78360
" />
</g>
<g style="fill:#840000; fill-opacity:0.0; 
stroke:#840000; stroke-width:100; stroke-opacity:1; 
stroke-linecap:round; stroke-linejoin:round;">
</g>
<g style="fill:#840000; fill-opacity:0.0; 
stroke:#840000; stroke-width:60; stroke-opacity:1; 
stroke-linecap:round; stroke-linejoin:round;">
<path d="M3940 23620
L4720 23620
" />
</g>
<g style="fill:#840000; fill-opacity:0.0; 
stroke:#840000; stroke-width:100; stroke-opacity:1; 
stroke-linecap:round; stroke-linejoin:round;">
</g>
<g style="fill:#840000; fill-opacity:0.0; 
stroke:#840000; stroke-width:60; stroke-opacity:1; 
stroke-linecap:round; stroke-linejoin:round;">
<path d="M3940 43310
L4720 43310
" />
</g>
<g style="fill:#840000; fill-opacity:0.0; 
stroke:#840000; stroke-width:100; stroke-opacity:1; 
stroke-linecap:round; stroke-linejoin:round;">
</g>
<g style="fill:#840000; fill-opacity:0.0; 
stroke:#840000; stroke-width:60; stroke-opacity:1; 
stroke-linecap:round; stroke-linejoin:round;">
<path d="M3940 62990
L4720 62990
" />
</g>
<g style="fill:#840000; fill-opacity:0.0; 
stroke:#840000; stroke-width:100; stroke-opacity:1; 
stroke-linecap:round; stroke-linejoin:round;">
</g>
<g style="fill:#840000; fill-opacity:0.0; 
stroke:#840000; stroke-width:60; stroke-opacity:1; 
stroke-linecap:round; stroke-linejoin:round;">
<path d="M4210 13860
L4450 13860
" />
<path d="M4160 14010
L4330 13500
L4500 14010
" />
</g>
<g style="fill:#840000; fill-opacity:0.0; 
stroke:#840000; stroke-width:100; stroke-opacity:1; 
stroke-linecap:round; stroke-linejoin:round;">
</g>
<g style="fill:#840000; fill-opacity:0.0; 
stroke:#840000; stroke-width:60; stroke-opacity:1; 
stroke-linecap:round; stroke-linejoin:round;">
<path d="M4370 33420
L4440 33440
L4470 33470
L4490 33520
L4490 33590
L4470 33640
L4440 33660
L4400 33690
L4200 33690
L4200 33180
L4370 33180
L4420 33200
L4440 33220
L4470 33270
L4470 33320
L4440 33370
L4420 33390
L4370 33420
L4200 33420
" />
</g>
<g style="fill:#840000; fill-opacity:0.0; 
stroke:#840000; stroke-width:100; stroke-opacity:1; 
stroke-linecap:round; stroke-linejoin:round;">
</g>
<g style="fill:#840000; fill-opacity:0.0; 
stroke:#840000; stroke-width:60; stroke-opacity:1; 
stroke-linecap:round; stroke-linejoin:round;">
<path d="M4490 53330
L4470 53350
L4400 53380
L4350 53380
L4270 53350
L4230 53300
L4200 53250
L4180 53160
L4180 53080
L4200 52990
L4230 52940
L4270 52890
L4350 52870
L4400 52870
L4470 52890
L4490 52910
" />
</g>
<g style="fill:#840000; fill-opacity:0.0; 
stroke:#840000; stroke-width:100; stroke-opacity:1; 
stroke-linecap:round; stroke-linejoin:round;">
</g>
<g style="fill:#840000; fill-opacity:0.0; 
stroke:#840000; stroke-width:60; stroke-opacity:1; 
stroke-linecap:round; stroke-linejoin:round;">
<path d="M4200 73060
L4200 72550
L4320 72550
L4400 72570
L4440 72620
L4470 72670
L4490 72760
L4490 72840
L4470 72930
L4440 72980
L4400 73030
L4320 73060
L4200 73060
" />
</g>
<g style="fill:#840000; fill-opacity:0.0; 
stroke:#840000; stroke-width:100; stroke-opacity:1; 
stroke-linecap:round; stroke-linejoin:round;">
</g>
<g style="fill:#840000; fill-opacity:0.0; 
stroke:#840000; stroke-width:60; stroke-opacity:1; 
stroke-linecap:round; stroke-linejoin:round;">
<path d="M112990 23620
L112210 23620
" />
</g>
<g style="fill:#840000; fill-opacity:0.0; 
stroke:#840000; stroke-width:100; stroke-opacity:1; 
stroke-linecap:round; stroke-linejoin:round;">
</g>
<g style="fill:#840000; fill-opacity:0.0; 
stroke:#840000; stroke-width:60; stroke-opacity:1; 
stroke-linecap:round; stroke-linejoin:round;">
<path d="M112990 43310
L112210 43310
" />
</g>
<g style="fill:#840000; fill-opacity:0.0; 
stroke:#840000; stroke-width:100; stroke-opacity:1; 
stroke-linecap:round; stroke-linejoin:round;">
</g>
<g style="fill:#840000; fill-opacity:0.0; 
stroke:#840000; stroke-width:60; stroke-opacity:1; 
stroke-linecap:round; stroke-linejoin:round;">
<path d="M112990 62990
L112210 62990
" />
</g>
<g style="fill:#840000; fill-opacity:0.0; 
stroke:#840000; stroke-width:100; stroke-opacity:1; 
stroke-linecap:round; stroke-linejoin:round;">
</g>
<g style="fill:#840000; fill-opacity:0.0; 
stroke:#840000; stroke-width:60; stroke-opacity:1; 
stroke-linecap:round; stroke-linejoin:round;">
<path d="M112480 13860
L112720 13860
" />
<path d="M112430 14010
L112600 13500
L112770 14010
" />
</g>
<g style="fill:#840000; fill-opacity:0.0; 
stroke:#840000; stroke-width:100; stroke-opacity:1; 
stroke-linecap:round; stroke-linejoin:round;">
</g>
<g style="fill:#840000; fill-opacity:0.0; 
stroke:#840000; stroke-width:60; stroke-opacity:1; 
stroke-linecap:round; stroke-linejoin:round;">
<path d="M112640 33420
L112710 33440
L112740 33470
L112760 33520
L112760 33590
L112740 33640
L112710 33660
L112670 33690
L112470 33690
L112470 33180
L112640 33180
L112690 33200
L112710 33220
L112740 33270
L112740 33320
L112710 33370
L112690 33390
L112640 33420
L112470 33420
" />
</g>
<g style="fill:#840000; fill-opacity:0.0; 
stroke:#840000; stroke-width:100; stroke-opacity:1; 
stroke-linecap:round; stroke-linejoin:round;">
</g>
<g style="fill:#840000; fill-opacity:0.0; 
stroke:#840000; stroke-width:60; stroke-opacity:1; 
stroke-linecap:round; stroke-linejoin:round;">
<path d="M112760 53330
L112740 53350
L112670 53380
L112620 53380
L112540 53350
L112500 53300
L112470 53250
L112450 53160
L112450 53080
L112470 52990
L112500 52940
L112540 52890
L112620 52870
L112670 52870
L112740 52890
L112760 52910
" />
</g>
<g style="fill:#840000; fill-opacity:0.0; 
stroke:#840000; stroke-width:100; stroke-opacity:1; 
stroke-linecap:round; stroke-linejoin:round;">
</g>
<g style="fill:#840000; fill-opacity:0.0; 
stroke:#840000; stroke-width:60; stroke-opacity:1; 
stroke-linecap:round; stroke-linejoin:round;">
<path d="M112470 73060
L112470 72550
L112590 72550
L112670 72570
L112710 72620
L112740 72670
L112760 72760
L112760 72840
L112740 72930
L112710 72980
L112670 73030
L112590 73060
L112470 73060
" />
</g>
<g style="fill:#840000; fill-opacity:0.0; 
stroke:#840000; stroke-width:100; stroke-opacity:1; 
stroke-linecap:round; stroke-linejoin:round;">
</g>
<g style="fill:#840000; fill-opacity:0.0; 
stroke:#840000; stroke-width:60; stroke-opacity:1; 
stroke-linecap:round; stroke-linejoin:round;">
<path d="M78880 76290
L78880 75700
L79020 75700
L79110 75730
L79160 75790
L79190 75840
L79220 75950
L79220 76040
L79190 76150
L79160 76210
L79110 76260
L79020 76290
L78880 76290
" />
<path d="M79720 76290
L79720 75980
L79700 75930
L79640 75900
L79530 75900
L79470 75930
" />
<path d="M79720 76260
L79670 76290
L79530 76290
L79470 76260
L79440 76210
L79440 76150
L79470 76100
L79530 76070
L79670 76070
L79720 76040
" />
<path d="M79920 75900
L80140 75900
" />
<path d="M80000 75700
L80000 76210
L80030 76260
L80080 76290
L80140 76290
" />
<path d="M80570 76260
L80510 76290
L80400 76290
L80340 76260
L80310 76210
L80310 75980
L80340 75930
L80400 75900
L80510 75900
L80570 75930
L80590 75980
L80590 76040
L80310 76100
" />
<path d="M80850 76240
L80880 76260
L80850 76290
L80820 76260
L80850 76240
L80850 76290
" />
<path d="M80850 75930
L80880 75950
L80850 75980
L80820 75950
L80850 75930
L80850 75980
" />
<path d="M81550 75760
L81580 75730
L81640 75700
L81780 75700
L81830 75730
L81860 75760
L81890 75810
L81890 75870
L81860 75950
L81520 76290
L81890 76290
" />
<path d="M82250 75700
L82310 75700
L82370 75730
L82390 75760
L82420 75810
L82450 75930
L82450 76070
L82420 76180
L82390 76240
L82370 76260
L82310 76290
L82250 76290
L82200 76260
L82170 76240
L82140 76180
L82110 76070
L82110 75930
L82140 75810
L82170 75760
L82200 75730
L82250 75700
" />
<path d="M83010 76290
L82670 76290
" />
<path d="M82840 76290
L82840 75700
L82780 75790
L82730 75840
L82670 75870
" />
<path d="M83200 75700
L83600 75700
L83340 76290
" />
<path d="M83820 76070
L84270 76070
" />
<path d="M84660 75700
L84720 75700
L84780 75730
L84800 75760
L84830 75810
L84860 75930
L84860 76070
L84830 76180
L84800 76240
L84780 76260
L84720 76290
L84660 76290
L84610 76260
L84580 76240
L84550 76180
L84520 76070
L84520 75930
L84550 75810
L84580 75760
L84610 75730
L84660 75700
" />
<path d="M85390 75700
L85110 75700
L85080 75980
L85110 75950
L85170 75930
L85310 75930
L85360 75950
L85390 75980
L85420 76040
L85420 76180
L85390 76240
L85360 76260
L85310 76290
L85170 76290
L85110 76260
L85080 76240
" />
<path d="M85670 76070
L86120 76070
" />
<path d="M86340 75700
L86710 75700
L86510 75930
L86600 75930
L86650 75950
L86680 75980
L86710 76040
L86710 76180
L86680 76240
L86650 76260
L86600 76290
L86430 76290
L86370 76260
L86340 76240
" />
<path d="M87270 76290
L86930 76290
" />
<path d="M87100 76290
L87100 75700
L87040 75790
L86990 75840
L86930 75870
" />
</g>
<g style="fill:#840000; fill-opacity:0.0; 
stroke:#840000; stroke-width:100; stroke-opacity:1; 
stroke-linecap:round; stroke-linejoin:round;">
</g>
<g style="fill:#840000; fill-opacity:0.0; 
stroke:#840000; stroke-width:60; stroke-opacity:1; 
stroke-linecap:round; stroke-linejoin:round;">
<path d="M69690 76580
L112210 76580
" />
</g>
<g style="fill:#840000; fill-opacity:0.0; 
stroke:#840000; stroke-width:100; stroke-opacity:1; 
stroke-linecap:round; stroke-linejoin:round;">
</g>
<g style="fill:#840000; fill-opacity:0.0; 
stroke:#840000; stroke-width:60; stroke-opacity:1; 
stroke-linecap:round; stroke-linejoin:round;">
<path d="M70220 77390
L70220 76800
" />
<path d="M70560 77390
L70300 77050
" />
<path d="M70560 76800
L70220 77140
" />
<path d="M70810 77390
L70810 77000
" />
<path d="M70810 76800
L70780 76830
L70810 76860
L70840 76830
L70810 76800
L70810 76860
" />
<path d="M71430 77340
L71400 77360
L71320 77390
L71260 77390
L71170 77360
L71120 77310
L71090 77250
L71060 77140
L71060 77050
L71090 76940
L71120 76890
L71170 76830
L71260 76800
L71320 76800
L71400 76830
L71430 76860
" />
<path d="M71930 77390
L71930 77080
L71910 77030
L71850 77000
L71740 77000
L71680 77030
" />
<path d="M71930 77360
L71880 77390
L71740 77390
L71680 77360
L71650 77310
L71650 77250
L71680 77200
L71740 77170
L71880 77170
L71930 77140
" />
<path d="M72460 77390
L72460 76800
" />
<path d="M72460 77360
L72410 77390
L72290 77390
L72240 77360
L72210 77340
L72180 77280
L72180 77110
L72210 77050
L72240 77030
L72290 77000
L72410 77000
L72460 77030
" />
<path d="M73190 77080
L73390 77080
" />
<path d="M73470 77390
L73190 77390
L73190 76800
L73470 76800
" />
<path d="M73720 77340
L73750 77360
L73720 77390
L73690 77360
L73720 77340
L73720 77390
" />
<path d="M74000 77390
L74000 76800
L74140 76800
L74230 76830
L74280 76890
L74310 76940
L74340 77050
L74340 77140
L74310 77250
L74280 77310
L74230 77360
L74140 77390
L74000 77390
" />
<path d="M74590 77340
L74620 77360
L74590 77390
L74560 77360
L74590 77340
L74590 77390
" />
<path d="M74840 77220
L75120 77220
" />
<path d="M74790 77390
L74980 76800
L75180 77390
" />
<path d="M75380 77340
L75410 77360
L75380 77390
L75350 77360
L75380 77340
L75380 77390
" />
<path d="M76560 77390
L76560 76800
" />
<path d="M76620 77170
L76790 77390
" />
<path d="M76790 77000
L76560 77220
" />
<path d="M77040 77390
L77040 77000
" />
<path d="M77040 76800
L77010 76830
L77040 76860
L77070 76830
L77040 76800
L77040 76860
" />
<path d="M77570 77360
L77520 77390
L77400 77390
L77350 77360
L77320 77340
L77290 77280
L77290 77110
L77320 77050
L77350 77030
L77400 77000
L77520 77000
L77570 77030
" />
<path d="M78080 77390
L78080 77080
L78060 77030
L78000 77000
L77890 77000
L77830 77030
" />
<path d="M78080 77360
L78030 77390
L77890 77390
L77830 77360
L77800 77310
L77800 77250
L77830 77200
L77890 77170
L78030 77170
L78080 77140
" />
<path d="M78610 77390
L78610 76800
" />
<path d="M78610 77360
L78560 77390
L78440 77390
L78390 77360
L78360 77340
L78330 77280
L78330 77110
L78360 77050
L78390 77030
L78440 77000
L78560 77000
L78610 77030
" />
<path d="M79590 77000
L79590 77390
" />
<path d="M79450 76770
L79310 77200
L79680 77200
" />
<path d="M79900 77340
L79930 77360
L79900 77390
L79870 77360
L79900 77340
L79900 77390
" />
<path d="M80290 76800
L80350 76800
L80410 76830
L80430 76860
L80460 76910
L80490 77030
L80490 77170
L80460 77280
L80430 77340
L80410 77360
L80350 77390
L80290 77390
L80240 77360
L80210 77340
L80180 77280
L80150 77170
L80150 77030
L80180 76910
L80210 76860
L80240 76830
L80290 76800
" />
<path d="M80740 77340
L80770 77360
L80740 77390
L80710 77360
L80740 77340
L80740 77390
" />
<path d="M81270 76800
L81160 76800
L81100 76830
L81080 76860
L81020 76940
L80990 77050
L80990 77280
L81020 77340
L81050 77360
L81100 77390
L81220 77390
L81270 77360
L81300 77340
L81330 77280
L81330 77140
L81300 77080
L81270 77050
L81220 77030
L81100 77030
L81050 77050
L81020 77080
L80990 77140
" />
</g>
<g style="fill:#840000; fill-opacity:0.0; 
stroke:#840000; stroke-width:100; stroke-opacity:1; 
stroke-linecap:round; stroke-linejoin:round;">
</g>
<g style="fill:#840000; fill-opacity:0.0; 
stroke:#840000; stroke-width:60; stroke-opacity:1; 
stroke-linecap:round; stroke-linejoin:round;">
<path d="M69690 75400
L112210 75400
" />
</g>
<g style="fill:#840000; fill-opacity:0.0; 
stroke:#840000; stroke-width:100; stroke-opacity:1; 
stroke-linecap:round; stroke-linejoin:round;">
</g>
<g style="fill:#840000; fill-opacity:0.0; 
stroke:#840000; stroke-width:120; stroke-opacity:1; 
stroke-linecap:round; stroke-linejoin:round;">
<path d="M104020 76290
L103820 76010
" />
<path d="M103680 76290
L103680 75700
L103910 75700
L103960 75730
L103990 75760
L104020 75810
L104020 75900
L103990 75950
L103960 75980
L103910 76010
L103680 76010
" />
<path d="M104500 76260
L104440 76290
L104330 76290
L104270 76260
L104240 76210
L104240 75980
L104270 75930
L104330 75900
L104440 75900
L104500 75930
L104520 75980
L104520 76040
L104240 76100
" />
<path d="M104720 75900
L104860 76290
L105010 75900
" />
<path d="M105230 76240
L105260 76260
L105230 76290
L105200 76260
L105230 76240
L105230 76290
" />
<path d="M105230 75930
L105260 75950
L105230 75980
L105200 75950
L105230 75930
L105230 75980
" />
<path d="M105930 75760
L105960 75730
L106020 75700
L106160 75700
L106210 75730
L106240 75760
L106270 75810
L106270 75870
L106240 75950
L105900 76290
L106270 76290
" />
</g>
<g style="fill:#840000; fill-opacity:0.0; 
stroke:#840000; stroke-width:100; stroke-opacity:1; 
stroke-linecap:round; stroke-linejoin:round;">
</g>
<g style="fill:#840000; fill-opacity:0.0; 
stroke:#840000; stroke-width:60; stroke-opacity:1; 
stroke-linecap:round; stroke-linejoin:round;">
<path d="M70190 76260
L70280 76290
L70420 76290
L70470 76260
L70500 76240
L70530 76180
L70530 76120
L70500 76070
L70470 76040
L70420 76010
L70300 75980
L70250 75950
L70220 75930
L70190 75870
L70190 75810
L70220 75760
L70250 75730
L70300 75700
L70450 75700
L70530 75730
" />
<path d="M70780 76290
L70780 75900
" />
<path d="M70780 75700
L70750 75730
L70780 75760
L70810 75730
L70780 75700
L70780 75760
" />
<path d="M71000 75900
L71310 75900
L71000 76290
L71310 76290
" />
<path d="M71770 76260
L71710 76290
L71600 76290
L71540 76260
L71510 76210
L71510 75980
L71540 75930
L71600 75900
L71710 75900
L71770 75930
L71790 75980
L71790 76040
L71510 76100
" />
<path d="M72050 76240
L72080 76260
L72050 76290
L72020 76260
L72050 76240
L72050 76290
" />
<path d="M72050 75930
L72080 75950
L72050 75980
L72020 75950
L72050 75930
L72050 75980
" />
<path d="M72750 76120
L73030 76120
" />
<path d="M72700 76290
L72890 75700
L73090 76290
" />
<path d="M73540 75900
L73540 76290
" />
<path d="M73400 75670
L73260 76100
L73630 76100
" />
</g>
<g style="fill:#840000; fill-opacity:0.0; 
stroke:#840000; stroke-width:100; stroke-opacity:1; 
stroke-linecap:round; stroke-linejoin:round;">
</g>
<g style="fill:#840000; fill-opacity:0.0; 
stroke:#840000; stroke-width:60; stroke-opacity:1; 
stroke-linecap:round; stroke-linejoin:round;">
<path d="M103680 77390
L103680 76800
" />
<path d="M104210 77390
L104210 76800
" />
<path d="M104210 77360
L104160 77390
L104040 77390
L103990 77360
L103960 77340
L103930 77280
L103930 77110
L103960 77050
L103990 77030
L104040 77000
L104160 77000
L104210 77030
" />
<path d="M104490 77340
L104520 77360
L104490 77390
L104460 77360
L104490 77340
L104490 77390
" />
<path d="M104490 77030
L104520 77050
L104490 77080
L104460 77050
L104490 77030
L104490 77080
" />
<path d="M105530 77390
L105190 77390
" />
<path d="M105360 77390
L105360 76800
L105300 76890
L105250 76940
L105190 76970
" />
<path d="M106200 76770
L105700 77530
" />
<path d="M106710 77390
L106370 77390
" />
<path d="M106540 77390
L106540 76800
L106480 76890
L106430 76940
L106370 76970
" />
</g>
<g style="fill:#840000; fill-opacity:0.0; 
stroke:#840000; stroke-width:100; stroke-opacity:1; 
stroke-linecap:round; stroke-linejoin:round;">
</g>
<g style="fill:#840000; fill-opacity:0.0; 
stroke:#840000; stroke-width:60; stroke-opacity:1; 
stroke-linecap:round; stroke-linejoin:round;">
<path d="M69690 73820
L112210 73820
" />
</g>
<g style="fill:#840000; fill-opacity:0.0; 
stroke:#840000; stroke-width:100; stroke-opacity:1; 
stroke-linecap:round; stroke-linejoin:round;">
</g>
<g style="fill:#840000; fill-opacity:0.0; 
stroke:#840000; stroke-width:160; stroke-opacity:1; 
stroke-linecap:round; stroke-linejoin:round;">
<path d="M70260 74090
L70710 74090
" />
<path d="M70390 74880
L70480 74090
" />
<path d="M70880 74880
L70940 74360
" />
<path d="M70970 74090
L70930 74130
L70960 74170
L71010 74130
L70970 74090
L70960 74170
" />
<path d="M71210 74360
L71510 74360
" />
<path d="M71350 74090
L71270 74770
L71300 74840
L71370 74880
L71450 74880
" />
<path d="M71820 74880
L71750 74840
L71720 74770
L71800 74090
" />
<path d="M72420 74840
L72340 74880
L72190 74880
L72120 74840
L72090 74770
L72130 74470
L72180 74390
L72250 74360
L72400 74360
L72480 74390
L72510 74470
L72500 74540
L72110 74620
" />
<path d="M72800 74810
L72840 74840
L72800 74880
L72760 74840
L72800 74810
L72800 74880
" />
<path d="M72860 74390
L72890 74430
L72850 74470
L72810 74430
L72860 74390
L72850 74470
" />
<path d="M73780 74880
L73870 74090
" />
<path d="M73830 74470
L74280 74470
" />
<path d="M74230 74880
L74320 74090
" />
<path d="M75060 74810
L75020 74840
L74910 74880
L74830 74880
L74720 74840
L74660 74770
L74630 74690
L74610 74540
L74620 74430
L74680 74280
L74730 74210
L74810 74130
L74920 74090
L75000 74090
L75110 74130
L75140 74170
" />
<path d="M75770 74880
L75400 74880
L75490 74090
" />
<path d="M76020 74660
L76400 74660
" />
<path d="M75930 74880
L76280 74090
L76450 74880
" />
<path d="M77320 74880
L77410 74090
L77710 74090
L77780 74130
L77810 74170
L77850 74240
L77830 74360
L77780 74430
L77740 74470
L77660 74510
L77360 74510
" />
<path d="M78110 74880
L78170 74360
" />
<path d="M78150 74510
L78200 74430
L78240 74390
L78320 74360
L78390 74360
" />
<path d="M78900 74840
L78820 74880
L78670 74880
L78600 74840
L78570 74770
L78610 74470
L78660 74390
L78730 74360
L78880 74360
L78960 74390
L78990 74470
L78980 74540
L78590 74620
" />
<path d="M79240 74840
L79320 74880
L79470 74880
L79540 74840
L79590 74770
L79590 74730
L79560 74660
L79500 74620
L79380 74620
L79310 74580
L79280 74510
L79290 74470
L79340 74390
L79410 74360
L79530 74360
L79600 74390
" />
<path d="M79880 74840
L79960 74880
L80110 74880
L80180 74840
L80230 74770
L80230 74730
L80200 74660
L80140 74620
L80020 74620
L79950 74580
L79920 74510
L79930 74470
L79980 74390
L80050 74360
L80170 74360
L80240 74390
" />
<path d="M80960 74360
L80900 74880
" />
<path d="M80620 74360
L80570 74770
L80600 74840
L80670 74880
L80780 74880
L80860 74840
L80900 74810
" />
<path d="M81270 74880
L81330 74360
" />
<path d="M81310 74510
L81360 74430
L81400 74390
L81480 74360
L81550 74360
" />
<path d="M82060 74840
L81980 74880
L81830 74880
L81760 74840
L81730 74770
L81770 74470
L81820 74390
L81890 74360
L82040 74360
L82120 74390
L82150 74470
L82140 74540
L81750 74620
" />
<path d="M83000 74840
L83110 74880
L83300 74880
L83380 74840
L83410 74810
L83460 74730
L83470 74660
L83440 74580
L83420 74540
L83340 74510
L83200 74470
L83130 74430
L83100 74390
L83070 74320
L83080 74240
L83120 74170
L83170 74130
L83240 74090
L83430 74090
L83540 74130
" />
<path d="M84090 74840
L84010 74880
L83860 74880
L83790 74840
L83760 74770
L83800 74470
L83850 74390
L83920 74360
L84070 74360
L84150 74390
L84180 74470
L84170 74540
L83780 74620
" />
<path d="M84530 74360
L84470 74880
" />
<path d="M84520 74430
L84570 74390
L84640 74360
L84750 74360
L84830 74390
L84860 74470
L84810 74880
" />
<path d="M85140 74840
L85220 74880
L85370 74880
L85440 74840
L85490 74770
L85490 74730
L85460 74660
L85400 74620
L85280 74620
L85210 74580
L85180 74510
L85190 74470
L85240 74390
L85310 74360
L85430 74360
L85500 74390
" />
<path d="M85930 74880
L85860 74840
L85820 74810
L85790 74730
L85820 74510
L85870 74430
L85920 74390
L85990 74360
L86100 74360
L86180 74390
L86210 74430
L86230 74510
L86200 74730
L86160 74810
L86120 74840
L86040 74880
L85930 74880
" />
<path d="M86530 74880
L86590 74360
" />
<path d="M86570 74510
L86620 74430
L86660 74390
L86740 74360
L86810 74360
" />
</g>
<g style="fill:#840000; fill-opacity:0.0; 
stroke:#840000; stroke-width:100; stroke-opacity:1; 
stroke-linecap:round; stroke-linejoin:round;">
</g>
<g style="fill:#840000; fill-opacity:0.0; 
stroke:#840000; stroke-width:60; stroke-opacity:1; 
stroke-linecap:round; stroke-linejoin:round;">
<path d="M70420 73060
L70220 73060
" />
<path d="M70220 73370
L70220 72780
L70500 72780
" />
<path d="M70730 73370
L70730 72980
" />
<path d="M70730 72780
L70700 72810
L70730 72840
L70760 72810
L70730 72780
L70730 72840
" />
<path d="M71090 73370
L71040 73340
L71010 73290
L71010 72780
" />
<path d="M71550 73340
L71490 73370
L71380 73370
L71320 73340
L71290 73290
L71290 73060
L71320 73010
L71380 72980
L71490 72980
L71550 73010
L71570 73060
L71570 73120
L71290 73180
" />
<path d="M71830 73320
L71860 73340
L71830 73370
L71800 73340
L71830 73320
L71830 73370
" />
<path d="M71830 73010
L71860 73030
L71830 73060
L71800 73030
L71830 73010
L71830 73060
" />
<path d="M72560 72980
L72560 73570
" />
<path d="M72560 73010
L72620 72980
L72730 72980
L72790 73010
L72810 73030
L72840 73090
L72840 73260
L72810 73320
L72790 73340
L72730 73370
L72620 73370
L72560 73340
" />
<path d="M73090 73370
L73090 72980
" />
<path d="M73090 73090
L73120 73030
L73150 73010
L73200 72980
L73260 72980
" />
<path d="M73690 73340
L73630 73370
L73520 73370
L73460 73340
L73430 73290
L73430 73060
L73460 73010
L73520 72980
L73630 72980
L73690 73010
L73710 73060
L73710 73120
L73430 73180
" />
<path d="M73940 73340
L74000 73370
L74110 73370
L74170 73340
L74200 73290
L74200 73260
L74170 73200
L74110 73180
L74030 73180
L73970 73150
L73940 73090
L73940 73060
L73970 73010
L74030 72980
L74110 72980
L74170 73010
" />
<path d="M74420 73340
L74480 73370
L74590 73370
L74650 73340
L74680 73290
L74680 73260
L74650 73200
L74590 73180
L74510 73180
L74450 73150
L74420 73090
L74420 73060
L74450 73010
L74510 72980
L74590 72980
L74650 73010
" />
<path d="M75180 72980
L75180 73370
" />
<path d="M74930 72980
L74930 73290
L74960 73340
L75010 73370
L75100 73370
L75160 73340
L75180 73320
" />
<path d="M75460 73370
L75460 72980
" />
<path d="M75460 73090
L75490 73030
L75520 73010
L75570 72980
L75630 72980
" />
<path d="M76060 73340
L76000 73370
L75890 73370
L75830 73340
L75800 73290
L75800 73060
L75830 73010
L75890 72980
L76000 72980
L76060 73010
L76080 73060
L76080 73120
L75800 73180
" />
<path d="M76340 73150
L76790 73150
" />
<path d="M77040 73340
L77100 73370
L77210 73370
L77270 73340
L77300 73290
L77300 73260
L77270 73200
L77210 73180
L77130 73180
L77070 73150
L77040 73090
L77040 73060
L77070 73010
L77130 72980
L77210 72980
L77270 73010
" />
<path d="M77780 73340
L77720 73370
L77610 73370
L77550 73340
L77520 73290
L77520 73060
L77550 73010
L77610 72980
L77720 72980
L77780 73010
L77800 73060
L77800 73120
L77520 73180
" />
<path d="M78060 72980
L78060 73370
" />
<path d="M78060 73030
L78090 73010
L78140 72980
L78230 72980
L78290 73010
L78310 73060
L78310 73370
" />
<path d="M78560 73340
L78620 73370
L78730 73370
L78790 73340
L78820 73290
L78820 73260
L78790 73200
L78730 73180
L78650 73180
L78590 73150
L78560 73090
L78560 73060
L78590 73010
L78650 72980
L78730 72980
L78790 73010
" />
<path d="M79150 73370
L79100 73340
L79070 73320
L79040 73260
L79040 73090
L79070 73030
L79100 73010
L79150 72980
L79240 72980
L79300 73010
L79320 73030
L79350 73090
L79350 73260
L79320 73320
L79300 73340
L79240 73370
L79150 73370
" />
<path d="M79600 73370
L79600 72980
" />
<path d="M79600 73090
L79630 73030
L79660 73010
L79710 72980
L79770 72980
" />
<path d="M79970 73150
L80420 73150
" />
<path d="M80700 73370
L80700 72780
" />
<path d="M80950 73370
L80950 73060
L80930 73010
L80870 72980
L80780 72980
L80730 73010
L80700 73030
" />
<path d="M81480 73340
L81430 73370
L81310 73370
L81260 73340
L81230 73320
L81200 73260
L81200 73090
L81230 73030
L81260 73010
L81310 72980
L81430 72980
L81480 73010
" />
<path d="M81820 73370
L81770 73340
L81740 73290
L81740 72780
" />
<path d="M82300 73370
L82300 73060
L82280 73010
L82220 72980
L82110 72980
L82050 73010
" />
<path d="M82300 73340
L82250 73370
L82110 73370
L82050 73340
L82020 73290
L82020 73230
L82050 73180
L82110 73150
L82250 73150
L82300 73120
" />
<path d="M82580 73320
L82610 73340
L82580 73370
L82550 73340
L82580 73320
L82580 73370
" />
<path d="M82830 73340
L82890 73370
L83000 73370
L83060 73340
L83090 73290
L83090 73260
L83060 73200
L83000 73180
L82920 73180
L82860 73150
L82830 73090
L82830 73060
L82860 73010
L82920 72980
L83000 72980
L83060 73010
" />
<path d="M83590 73340
L83540 73370
L83420 73370
L83370 73340
L83340 73320
L83310 73260
L83310 73090
L83340 73030
L83370 73010
L83420 72980
L83540 72980
L83590 73010
" />
<path d="M83850 73370
L83850 72780
" />
<path d="M84100 73370
L84100 73060
L84080 73010
L84020 72980
L83930 72980
L83880 73010
L83850 73030
" />
</g>
<g style="fill:#840000; fill-opacity:0.0; 
stroke:#840000; stroke-width:100; stroke-opacity:1; 
stroke-linecap:round; stroke-linejoin:round;">
</g>
<g style="fill:#840000; fill-opacity:0.0; 
stroke:#840000; stroke-width:60; stroke-opacity:1; 
stroke-linecap:round; stroke-linejoin:round;">
<path d="M69690 71460
L112210 71460
" />
</g>
<g style="fill:#840000; fill-opacity:0.0; 
stroke:#840000; stroke-width:100; stroke-opacity:1; 
stroke-linecap:round; stroke-linejoin:round;">
</g>
<g style="fill:#840000; fill-opacity:0.0; 
stroke:#840000; stroke-width:60; stroke-opacity:1; 
stroke-linecap:round; stroke-linejoin:round;">
<path d="M70190 72280
L70280 72310
L70420 72310
L70470 72280
L70500 72260
L70530 72200
L70530 72140
L70500 72090
L70470 72060
L70420 72030
L70300 72000
L70250 71970
L70220 71950
L70190 71890
L70190 71830
L70220 71780
L70250 71750
L70300 71720
L70450 71720
L70530 71750
" />
<path d="M70780 72310
L70780 71720
" />
<path d="M71030 72310
L71030 72000
L71010 71950
L70950 71920
L70860 71920
L70810 71950
L70780 71970
" />
<path d="M71540 72280
L71480 72310
L71370 72310
L71310 72280
L71280 72230
L71280 72000
L71310 71950
L71370 71920
L71480 71920
L71540 71950
L71560 72000
L71560 72060
L71280 72120
" />
<path d="M72050 72280
L71990 72310
L71880 72310
L71820 72280
L71790 72230
L71790 72000
L71820 71950
L71880 71920
L71990 71920
L72050 71950
L72070 72000
L72070 72060
L71790 72120
" />
<path d="M72250 71920
L72470 71920
" />
<path d="M72330 71720
L72330 72230
L72360 72280
L72410 72310
L72470 72310
" />
<path d="M72670 72260
L72700 72280
L72670 72310
L72640 72280
L72670 72260
L72670 72310
" />
<path d="M72670 71950
L72700 71970
L72670 72000
L72640 71970
L72670 71950
L72670 72000
" />
<path d="M73820 71690
L73320 72450
" />
</g>
<g style="fill:#840000; fill-opacity:0.0; 
stroke:#840000; stroke-width:100; stroke-opacity:1; 
stroke-linecap:round; stroke-linejoin:round;">
</g>
<g style="fill:#840000; fill-opacity:0.0; 
stroke:#840000; stroke-width:120; stroke-opacity:1; 
stroke-linecap:round; stroke-linejoin:round;">
<path d="M70140 70540
L70330 71130
L70530 70540
" />
<path d="M70730 71130
L70730 70540
" />
<path d="M71010 71130
L71010 70540
L71240 70540
L71290 70570
L71320 70600
L71350 70650
L71350 70740
L71320 70790
L71290 70820
L71240 70850
L71010 70850
" />
<path d="M71600 70820
L71800 70820
" />
<path d="M71880 71130
L71600 71130
L71600 70540
L71880 70540
" />
<path d="M72470 71130
L72270 70850
" />
<path d="M72130 71130
L72130 70540
L72360 70540
L72410 70570
L72440 70600
L72470 70650
L72470 70740
L72440 70790
L72410 70820
L72360 70850
L72130 70850
" />
</g>
<g style="fill:#840000; fill-opacity:0.0; 
stroke:#840000; stroke-width:100; stroke-opacity:1; 
stroke-linecap:round; stroke-linejoin:round;">
</g>
<g style="fill:#840000; fill-opacity:0.0; 
stroke:#840000; stroke-width:60; stroke-opacity:1; 
stroke-linecap:round; stroke-linejoin:round;">
<path d="M77560 75400
L77560 76580
" />
</g>
<g style="fill:#840000; fill-opacity:0.0; 
stroke:#840000; stroke-width:100; stroke-opacity:1; 
stroke-linecap:round; stroke-linejoin:round;">
</g>
<g style="fill:#840000; fill-opacity:0.0; 
stroke:#840000; stroke-width:60; stroke-opacity:1; 
stroke-linecap:round; stroke-linejoin:round;">
<path d="M102760 75400
L102760 77960
" />
</g>
<g style="fill:#840000; fill-opacity:0.0; 
stroke:#840000; stroke-width:0; stroke-opacity:1; 
stroke-linecap:round; stroke-linejoin:round;">
</g>
<g style="fill:#840000; fill-opacity:0.0; 
stroke:#840000; stroke-width:60; stroke-opacity:1; 
stroke-linecap:round; stroke-linejoin:round;">
<rect x="23500" y="11500" width="4000" height="5000" rx="0" />
<path d="M27000 11500
L27000 9500
" />
</g>
<g style="fill:#008484; fill-opacity:0.0; 
stroke:#008484; stroke-width:60; stroke-opacity:1; 
stroke-linecap:round; stroke-linejoin:round;">
<path d="M27040 13230
L27040 12850
" />
<path d="M27230 13040
L26850 13040
" />
<path d="M26730 12680
L27230 12520
L26730 12350
" />
<path d="M27200 12200
L27230 12160
L27230 12060
L27200 12010
L27150 11990
L27130 11990
L27080 12010
L27060 12060
L27060 12130
L27040 12180
L26990 12200
L26960 12200
L26920 12180
L26890 12130
L26890 12060
L26920 12010
" />
</g>
<g style="fill:#840000; fill-opacity:0.0; 
stroke:#840000; stroke-width:60; stroke-opacity:1; 
stroke-linecap:round; stroke-linejoin:round;">
<path d="M26880 10360
L26880 10640
" />
<path d="M26880 10500
L26380 10500
L26450 10550
L26500 10600
L26520 10640
" />
<path d="M26000 11500
L26000 9500
" />
</g>
<g style="fill:#008484; fill-opacity:0.0; 
stroke:#008484; stroke-width:60; stroke-opacity:1; 
stroke-linecap:round; stroke-linejoin:round;">
<path d="M25750 13040
L25730 13090
L25730 13160
L25750 13230
L25800 13280
L25850 13300
L25940 13320
L26010 13320
L26110 13300
L26150 13280
L26200 13230
L26230 13160
L26230 13110
L26200 13040
L26180 13020
L26010 13020
L26010 13110
" />
<path d="M26230 12800
L25730 12800
L26230 12520
L25730 12520
" />
<path d="M26230 12280
L25730 12280
L25730 12160
L25750 12090
L25800 12040
L25850 12020
L25940 12000
L26010 12000
L26110 12020
L26150 12040
L26200 12090
L26230 12160
L26230 12280
" />
</g>
<g style="fill:#840000; fill-opacity:0.0; 
stroke:#840000; stroke-width:60; stroke-opacity:1; 
stroke-linecap:round; stroke-linejoin:round;">
<path d="M25420 10640
L25400 10620
L25380 10570
L25380 10450
L25400 10410
L25420 10380
L25470 10360
L25520 10360
L25590 10380
L25880 10670
L25880 10360
" />
<path d="M25000 11500
L25000 9500
" />
</g>
<g style="fill:#008484; fill-opacity:0.0; 
stroke:#008484; stroke-width:60; stroke-opacity:1; 
stroke-linecap:round; stroke-linejoin:round;">
<path d="M24730 13470
L25230 13310
L24730 13140
" />
<path d="M25230 12900
L25200 12950
L25180 12970
L25130 12990
L24990 12990
L24940 12970
L24920 12950
L24890 12900
L24890 12830
L24920 12780
L24940 12760
L24990 12730
L25130 12730
L25180 12760
L25200 12780
L25230 12830
L25230 12900
" />
<path d="M24890 12310
L25230 12310
" />
<path d="M24890 12520
L25150 12520
L25200 12500
L25230 12450
L25230 12380
L25200 12330
L25180 12310
" />
<path d="M24890 12140
L24890 11950
" />
<path d="M24730 12070
L25150 12070
L25200 12050
L25230 12000
L25230 11950
" />
</g>
<g style="fill:#840000; fill-opacity:0.0; 
stroke:#840000; stroke-width:60; stroke-opacity:1; 
stroke-linecap:round; stroke-linejoin:round;">
<path d="M24380 10670
L24380 10360
L24570 10530
L24570 10450
L24590 10410
L24610 10380
L24660 10360
L24780 10360
L24830 10380
L24850 10410
L24880 10450
L24880 10600
L24850 10640
L24830 10670
" />
<path d="M24000 11500
L24000 9500
" />
</g>
<g style="fill:#008484; fill-opacity:0.0; 
stroke:#008484; stroke-width:60; stroke-opacity:1; 
stroke-linecap:round; stroke-linejoin:round;">
<path d="M24230 12800
L23730 12800
L24230 12520
L23730 12520
" />
<path d="M24180 12000
L24200 12020
L24230 12090
L24230 12140
L24200 12210
L24150 12260
L24110 12280
L24010 12300
L23940 12300
L23850 12280
L23800 12260
L23750 12210
L23730 12140
L23730 12090
L23750 12020
L23770 12000
" />
</g>
<g style="fill:#840000; fill-opacity:0.0; 
stroke:#840000; stroke-width:60; stroke-opacity:1; 
stroke-linecap:round; stroke-linejoin:round;">
<path d="M23540 10410
L23880 10410
" />
<path d="M23350 10530
L23710 10640
L23710 10340
" />
<path d="M24000 16500
L24000 18500
" />
</g>
<g style="fill:#008484; fill-opacity:0.0; 
stroke:#008484; stroke-width:60; stroke-opacity:1; 
stroke-linecap:round; stroke-linejoin:round;">
<path d="M24200 16000
L24230 15930
L24230 15810
L24200 15770
L24180 15740
L24130 15720
L24080 15720
L24040 15740
L24010 15770
L23990 15810
L23960 15910
L23940 15960
L23920 15980
L23870 16000
L23820 16000
L23770 15980
L23750 15960
L23730 15910
L23730 15790
L23750 15720
" />
<path d="M24180 15220
L24200 15240
L24230 15310
L24230 15360
L24200 15430
L24150 15480
L24110 15500
L24010 15520
L23940 15520
L23850 15500
L23800 15480
L23750 15430
L23730 15360
L23730 15310
L23750 15240
L23770 15220
" />
<path d="M24230 14760
L24230 15000
L23730 15000
" />
</g>
<g style="fill:#840000; fill-opacity:0.0; 
stroke:#840000; stroke-width:60; stroke-opacity:1; 
stroke-linecap:round; stroke-linejoin:round;">
<path d="M23380 17380
L23380 17620
L23610 17640
L23590 17620
L23570 17570
L23570 17450
L23590 17410
L23610 17380
L23660 17360
L23780 17360
L23830 17380
L23850 17410
L23880 17450
L23880 17570
L23850 17620
L23830 17640
" />
<path d="M25000 16500
L25000 18500
" />
</g>
<g style="fill:#008484; fill-opacity:0.0; 
stroke:#008484; stroke-width:60; stroke-opacity:1; 
stroke-linecap:round; stroke-linejoin:round;">
<path d="M25230 15980
L24730 15980
L25230 15700
L24730 15700
" />
<path d="M25180 15180
L25200 15200
L25230 15270
L25230 15320
L25200 15390
L25150 15440
L25110 15460
L25010 15480
L24940 15480
L24850 15460
L24800 15440
L24750 15390
L24730 15320
L24730 15270
L24750 15200
L24770 15180
" />
</g>
<g style="fill:#840000; fill-opacity:0.0; 
stroke:#840000; stroke-width:60; stroke-opacity:1; 
stroke-linecap:round; stroke-linejoin:round;">
<path d="M24380 17410
L24380 17500
L24400 17550
L24420 17570
L24500 17620
L24590 17640
L24780 17640
L24830 17620
L24850 17600
L24880 17550
L24880 17450
L24850 17410
L24830 17380
L24780 17360
L24660 17360
L24610 17380
L24590 17410
L24570 17450
L24570 17550
L24590 17600
L24610 17620
L24660 17640
" />
<path d="M26000 16500
L26000 18500
" />
</g>
<g style="fill:#008484; fill-opacity:0.0; 
stroke:#008484; stroke-width:60; stroke-opacity:1; 
stroke-linecap:round; stroke-linejoin:round;">
<path d="M26230 15980
L25730 15980
L26230 15700
L25730 15700
" />
<path d="M26180 15180
L26200 15200
L26230 15270
L26230 15320
L26200 15390
L26150 15440
L26110 15460
L26010 15480
L25940 15480
L25850 15460
L25800 15440
L25750 15390
L25730 15320
L25730 15270
L25750 15200
L25770 15180
" />
</g>
<g style="fill:#840000; fill-opacity:0.0; 
stroke:#840000; stroke-width:60; stroke-opacity:1; 
stroke-linecap:round; stroke-linejoin:round;">
<path d="M25380 17670
L25380 17340
L25880 17550
" />
<path d="M27000 16500
L27000 18500
" />
</g>
<g style="fill:#008484; fill-opacity:0.0; 
stroke:#008484; stroke-width:60; stroke-opacity:1; 
stroke-linecap:round; stroke-linejoin:round;">
<path d="M27200 16000
L27230 15930
L27230 15810
L27200 15770
L27180 15740
L27130 15720
L27080 15720
L27040 15740
L27010 15770
L26990 15810
L26960 15910
L26940 15960
L26920 15980
L26870 16000
L26820 16000
L26770 15980
L26750 15960
L26730 15910
L26730 15790
L26750 15720
" />
<path d="M27230 15500
L26730 15500
L26730 15380
L26750 15310
L26800 15260
L26850 15240
L26940 15220
L27010 15220
L27110 15240
L27150 15260
L27200 15310
L27230 15380
L27230 15500
" />
<path d="M27080 15020
L27080 14790
" />
<path d="M27230 15070
L26730 14910
L27230 14740
" />
</g>
<g style="fill:#840000; fill-opacity:0.0; 
stroke:#840000; stroke-width:60; stroke-opacity:1; 
stroke-linecap:round; stroke-linejoin:round;">
<path d="M26590 17550
L26570 17600
L26540 17620
L26500 17640
L26470 17640
L26420 17620
L26400 17600
L26380 17550
L26380 17450
L26400 17410
L26420 17380
L26470 17360
L26500 17360
L26540 17380
L26570 17410
L26590 17450
L26590 17550
L26610 17600
L26640 17620
L26690 17640
L26780 17640
L26830 17620
L26850 17600
L26880 17550
L26880 17450
L26850 17410
L26830 17380
L26780 17360
L26690 17360
L26640 17380
L26610 17410
L26590 17450
" />
</g>
<g style="fill:#008484; fill-opacity:0.0; 
stroke:#008484; stroke-width:60; stroke-opacity:1; 
stroke-linecap:round; stroke-linejoin:round;">
<path d="M27630 14460
L28120 14460
L28170 14430
L28200 14400
L28230 14340
L28230 14230
L28200 14170
L28170 14140
L28120 14110
L27630 14110
" />
<path d="M28230 13510
L28230 13860
" />
<path d="M28230 13680
L27630 13680
L27720 13740
L27770 13800
L27800 13860
" />
<path d="M23230 18250
L22630 18250
" />
<path d="M22920 18250
L22920 17900
" />
<path d="M23230 17900
L22630 17900
" />
<path d="M23170 17270
L23200 17300
L23230 17390
L23230 17450
L23200 17530
L23150 17590
L23090 17620
L22970 17650
L22890 17650
L22770 17620
L22720 17590
L22660 17530
L22630 17450
L22630 17390
L22660 17300
L22690 17270
" />
<path d="M23230 16730
L23230 17020
L22630 17020
" />
<path d="M23060 16560
L23060 16270
" />
<path d="M23230 16610
L22630 16410
L23230 16210
" />
<path d="M23000 16020
L23000 15560
" />
<path d="M22630 15330
L23230 14930
" />
<path d="M22630 14930
L23230 15330
" />
<path d="M22630 14760
L23230 14360
" />
<path d="M22630 14360
L23230 14760
" />
<path d="M22630 14190
L23230 13790
" />
<path d="M22630 13790
L23230 14190
" />
<path d="M22630 13620
L23230 13220
" />
<path d="M22630 13220
L23230 13620
" />
<path d="M23000 13000
L23000 12540
" />
<path d="M23230 12260
L22630 12260
L22630 12110
L22660 12030
L22720 11970
L22770 11940
L22890 11910
L22970 11910
L23090 11940
L23150 11970
L23200 12030
L23230 12110
L23230 12260
" />
<path d="M23230 11660
L22630 11660
" />
<path d="M23230 11370
L22630 11370
L22630 11140
L22660 11080
L22690 11050
L22750 11020
L22830 11020
L22890 11050
L22920 11080
L22950 11140
L22950 11370
" />
<path d="M23000 10770
L23000 10310
" />
<path d="M22630 10080
L23230 9680
" />
<path d="M22630 9680
L23230 10080
" />
</g>
<g style="fill:#008484; fill-opacity:0.0; 
stroke:#008484; stroke-width:0; stroke-opacity:1; 
stroke-linecap:round; stroke-linejoin:round;">
</g>
<g style="fill:#840000; fill-opacity:0.0; 
stroke:#840000; stroke-width:0; stroke-opacity:1; 
stroke-linecap:round; stroke-linejoin:round;">
</g>
<g style="fill:#840000; fill-opacity:0.0; 
stroke:#840000; stroke-width:200; stroke-opacity:1; 
stroke-linecap:round; stroke-linejoin:round;">
<polyline fill="none;"
points="17700,9700
17700,11300
" /> 
<polyline fill="none;"
points="18300,9700
18300,11300
" /> 
</g>
<g style="fill:#840000; fill-opacity:0.0; 
stroke:#840000; stroke-width:60; stroke-opacity:1; 
stroke-linecap:round; stroke-linejoin:round;">
<path d="M18400 10500
L19500 10500
" />
<path d="M17600 10500
L16500 10500
" />
</g>
<g style="fill:#008484; fill-opacity:0.0; 
stroke:#008484; stroke-width:60; stroke-opacity:1; 
stroke-linecap:round; stroke-linejoin:round;">
<path d="M19140 11330
L19160 11350
L19190 11420
L19190 11470
L19160 11540
L19110 11590
L19070 11610
L18970 11630
L18900 11630
L18810 11610
L18760 11590
L18710 11540
L18690 11470
L18690 11420
L18710 11350
L18730 11330
" />
<path d="M19190 10850
L19190 11130
" />
<path d="M19190 10990
L18690 10990
L18760 11040
L18810 11090
L18830 11130
" />
<path d="M17190 12690
L17190 12970
" />
<path d="M17190 12830
L16690 12830
L16760 12880
L16810 12930
L16830 12970
" />
<path d="M16690 12380
L16690 12330
L16710 12280
L16730 12260
L16780 12230
L16880 12210
L17000 12210
L17090 12230
L17140 12260
L17160 12280
L17190 12330
L17190 12380
L17160 12420
L17140 12450
L17090 12470
L17000 12490
L16880 12490
L16780 12470
L16730 12450
L16710 12420
L16690 12380
" />
<path d="M16690 11900
L16690 11850
L16710 11800
L16730 11780
L16780 11750
L16880 11730
L17000 11730
L17090 11750
L17140 11780
L17160 11800
L17190 11850
L17190 11900
L17160 11940
L17140 11970
L17090 11990
L17000 12010
L16880 12010
L16780 11990
L16730 11970
L16710 11940
L16690 11900
" />
<path d="M16850 11510
L17190 11510
" />
<path d="M16900 11510
L16880 11490
L16850 11440
L16850 11370
L16880 11320
L16920 11300
L17190 11300
" />
<path d="M16920 10890
L16920 11060
" />
<path d="M17190 11060
L16690 11060
L16690 10820
" />
</g>
<g style="fill:#008484; fill-opacity:0.0; 
stroke:#008484; stroke-width:0; stroke-opacity:1; 
stroke-linecap:round; stroke-linejoin:round;">
</g>
<g style="fill:#840000; fill-opacity:0.0; 
stroke:#840000; stroke-width:0; stroke-opacity:1; 
stroke-linecap:round; stroke-linejoin:round;">
</g>
<g style="fill:#840000; fill-opacity:0.0; 
stroke:#840000; stroke-width:60; stroke-opacity:1; 
stroke-linecap:round; stroke-linejoin:round;">
<rect x="9900" y="10450" width="600" height="100" rx="0" />
<rect x="9900" y="11450" width="600" height="100" rx="0" />
<rect x="9900" y="12450" width="600" height="100" rx="0" />
<rect x="9900" y="13450" width="600" height="100" rx="0" />
<rect x="9500" y="10000" width="1000" height="4000" rx="0" />
<path d="M10500 13500
L12000 13500
" />
<path d="M11390 13380
L11110 13380
" />
<path d="M11250 13380
L11250 12880
L11200 12950
L11150 13000
L11110 13020
" />
<path d="M10500 12500
L12000 12500
" />
<path d="M11110 11920
L11130 11900
L11180 11880
L11300 11880
L11340 11900
L11370 11920
L11390 11970
L11390 12020
L11370 12090
L11080 12380
L11390 12380
" />
<path d="M10500 11500
L12000 11500
" />
<path d="M11080 10880
L11390 10880
L11220 11070
L11300 11070
L11340 11090
L11370 11110
L11390 11160
L11390 11280
L11370 11330
L11340 11350
L11300 11380
L11150 11380
L11110 11350
L11080 11330
" />
<path d="M10500 10500
L12000 10500
" />
<path d="M11340 10040
L11340 10380
" />
<path d="M11220 9850
L11110 10210
L11410 10210
" />
</g>
<g style="fill:#008484; fill-opacity:0.0; 
stroke:#008484; stroke-width:60; stroke-opacity:1; 
stroke-linecap:round; stroke-linejoin:round;">
<path d="M9830 14190
L9830 14540
L9810 14610
L9760 14660
L9690 14690
L9640 14690
" />
<path d="M10330 14690
L10050 14690
" />
<path d="M10190 14690
L10190 14190
L10140 14260
L10090 14310
L10050 14330
" />
<path d="M9140 14020
L9160 14040
L9190 14110
L9190 14160
L9160 14230
L9110 14280
L9070 14300
L8970 14320
L8900 14320
L8810 14300
L8760 14280
L8710 14230
L8690 14160
L8690 14110
L8710 14040
L8730 14020
" />
<path d="M8690 13710
L8690 13610
L8710 13560
L8760 13520
L8850 13490
L9020 13490
L9110 13520
L9160 13560
L9190 13610
L9190 13710
L9160 13750
L9110 13800
L9020 13820
L8850 13820
L8760 13800
L8710 13750
L8690 13710
" />
<path d="M9190 13280
L8690 13280
L9190 13000
L8690 13000
" />
<path d="M9190 12760
L8690 12760
L9190 12480
L8690 12480
" />
<path d="M9230 12360
L9230 11980
" />
<path d="M8690 11770
L8690 11720
L8710 11670
L8730 11650
L8780 11620
L8880 11600
L9000 11600
L9090 11620
L9140 11650
L9160 11670
L9190 11720
L9190 11770
L9160 11810
L9140 11840
L9090 11860
L9000 11880
L8880 11880
L8780 11860
L8730 11840
L8710 11810
L8690 11770
" />
<path d="M9190 11120
L9190 11400
" />
<path d="M9190 11260
L8690 11260
L8760 11310
L8810 11360
L8830 11400
" />
<path d="M8690 10950
L9190 10620
" />
<path d="M8690 10620
L9190 10950
" />
<path d="M8690 10330
L8690 10280
L8710 10230
L8730 10210
L8780 10180
L8880 10160
L9000 10160
L9090 10180
L9140 10210
L9160 10230
L9190 10280
L9190 10330
L9160 10370
L9140 10400
L9090 10420
L9000 10440
L8880 10440
L8780 10420
L8730 10400
L8710 10370
L8690 10330
" />
<path d="M8850 9730
L9190 9730
" />
<path d="M8660 9850
L9020 9960
L9020 9660
" />
</g>
<g style="fill:#008400; fill-opacity:0.0; 
stroke:#008400; stroke-width:60; stroke-opacity:1; 
stroke-linecap:round; stroke-linejoin:round;">
<path d="M12000 11500
L21000 11500
" />
<path d="M21000 11500
L21000 9000
" />
<path d="M19500 10500
L21000 10500
" />
</g>
<g style="fill:#008400; fill-opacity:0.0; 
stroke:#008400; stroke-width:0; stroke-opacity:1; 
stroke-linecap:round; stroke-linejoin:round;">
</g>
<g style="fill:#008400; fill-opacity:1.0; 
stroke:#008400; stroke-width:100; stroke-opacity:1; 
stroke-linecap:round; stroke-linejoin:round;">
<circle cx="21000" cy="10500" r="200" /> 
</g>
<g style="fill:#008400; fill-opacity:1.0; 
stroke:#008400; stroke-width:60; stroke-opacity:1; 
stroke-linecap:round; stroke-linejoin:round;">
</g>
<g style="fill:#008400; fill-opacity:0.0; 
stroke:#008400; stroke-width:60; stroke-opacity:1; 
stroke-linecap:round; stroke-linejoin:round;">
<path d="M12000 10500
L16500 10500
" />
<path d="M14000 10500
L14000 8000
" />
<path d="M14000 8000
L26000 8000
" />
<path d="M26000 8000
L26000 9500
" />
</g>
<g style="fill:#008400; fill-opacity:0.0; 
stroke:#008400; stroke-width:0; stroke-opacity:1; 
stroke-linecap:round; stroke-linejoin:round;">
</g>
<g style="fill:#008400; fill-opacity:1.0; 
stroke:#008400; stroke-width:100; stroke-opacity:1; 
stroke-linecap:round; stroke-linejoin:round;">
<circle cx="14000" cy="10500" r="200" /> 
</g>
<g style="fill:#008400; fill-opacity:1.0; 
stroke:#008400; stroke-width:60; stroke-opacity:1; 
stroke-linecap:round; stroke-linejoin:round;">
</g>
<g style="fill:#008400; fill-opacity:0.0; 
stroke:#008400; stroke-width:60; stroke-opacity:1; 
stroke-linecap:round; stroke-linejoin:round;">
<path d="M12000 12500
L21000 12500
" />
<path d="M21000 12500
L21000 19500
" />
<path d="M21000 19500
L24000 19500
" />
<path d="M24000 19500
L24000 18500
" />
<path d="M12000 13500
L20000 13500
" />
<path d="M20000 13500
L20000 20500
" />
<path d="M20000 20500
L27000 20500
" />
<path d="M27000 20500
L27000 18500
" />
</g>
<g style="fill:#000000; fill-opacity:0.0; 
stroke:#000000; stroke-width:60; stroke-opacity:1; 
stroke-linecap:round; stroke-linejoin:round;">
<path d="M12460 9800
L12400 9770
L12310 9770
L12230 9800
L12170 9860
L12140 9910
L12110 10030
L12110 10110
L12140 10230
L12170 10290
L12230 10340
L12310 10370
L12370 10370
L12460 10340
L12490 10310
L12490 10110
L12370 10110
" />
<path d="M12740 10370
L12740 9770
L13090 10370
L13090 9770
" />
<path d="M13370 10370
L13370 9770
L13520 9770
L13600 9800
L13660 9860
L13690 9910
L13720 10030
L13720 10110
L13690 10230
L13660 10290
L13600 10340
L13520 10370
L13370 10370
" />
<path d="M12060 10770
L12260 11370
L12460 10770
" />
<path d="M13000 11310
L12970 11340
L12880 11370
L12820 11370
L12740 11340
L12680 11290
L12650 11230
L12620 11110
L12620 11030
L12650 10910
L12680 10860
L12740 10800
L12820 10770
L12880 10770
L12970 10800
L13000 10830
" />
<path d="M13600 11310
L13570 11340
L13480 11370
L13420 11370
L13340 11340
L13280 11290
L13250 11230
L13220 11110
L13220 11030
L13250 10910
L13280 10860
L13340 10800
L13420 10770
L13480 10770
L13570 10800
L13600 10830
" />
<path d="M12110 12340
L12200 12370
L12340 12370
L12400 12340
L12430 12310
L12460 12260
L12460 12200
L12430 12140
L12400 12110
L12340 12090
L12230 12060
L12170 12030
L12140 12000
L12110 11940
L12110 11890
L12140 11830
L12170 11800
L12230 11770
L12370 11770
L12460 11800
" />
<path d="M13060 12310
L13030 12340
L12940 12370
L12880 12370
L12800 12340
L12740 12290
L12710 12230
L12680 12110
L12680 12030
L12710 11910
L12740 11860
L12800 11800
L12880 11770
L12940 11770
L13030 11800
L13060 11830
" />
<path d="M13600 12370
L13310 12370
L13310 11770
" />
<path d="M12110 13340
L12200 13370
L12340 13370
L12400 13340
L12430 13310
L12460 13260
L12460 13200
L12430 13140
L12400 13110
L12340 13090
L12230 13060
L12170 13030
L12140 13000
L12110 12940
L12110 12890
L12140 12830
L12170 12800
L12230 12770
L12370 12770
L12460 12800
" />
<path d="M12710 13370
L12710 12770
L12860 12770
L12940 12800
L13000 12860
L13030 12910
L13060 13030
L13060 13110
L13030 13230
L13000 13290
L12940 13340
L12860 13370
L12710 13370
" />
<path d="M13280 13200
L13570 13200
" />
<path d="M13230 13370
L13430 12770
L13630 13370
" />
</g>
<g style="fill:#000084; fill-opacity:0.0; 
stroke:#000084; stroke-width:60; stroke-opacity:1; 
stroke-linecap:round; stroke-linejoin:round;">
<path d="M23760 9260
L24240 9740
" />
<path d="M24240 9260
L23760 9740
" />
<path d="M24760 9260
L25240 9740
" />
<path d="M25240 9260
L24760 9740
" />
<path d="M25760 18260
L26240 18740
" />
<path d="M26240 18260
L25760 18740
" />
<path d="M24760 18260
L25240 18740
" />
<path d="M25240 18260
L24760 18740
" />
</g>
<g style="fill:#008400; fill-opacity:0.0; 
stroke:#008400; stroke-width:60; stroke-opacity:1; 
stroke-linecap:round; stroke-linejoin:round;">
<path d="M21000 9000
L27000 9000
" />
<path d="M27000 9000
L27000 9500
" />
</g> 
</svg>
